<?xml version="1.0" encoding="utf-8"?>
<!-- Generator: Adobe Illustrator 23.0.2, SVG Export Plug-In . SVG Version: 6.00 Build 0)  -->
<svg  preserveAspectRatio="xMinYMid meet" version="1.1" id="Ebene_1" xmlns="http://www.w3.org/2000/svg" xmlns:xlink="http://www.w3.org/1999/xlink" x="0px" y="0px"
	 viewBox="0 0 7508.2 954.6" enable-background="new 0 0 7508.2 954.6" xml:space="preserve">
<title>logo</title>
<rect fill="#0065AD" width="7508.2" height="954.6"/>
<path d="M386,749.7c-52.2,0-96.2-11.9-122.3-29.8l29.8-104.4c13.4,8.9,39.5,16.4,64.1,16.4c28.3,0,43.2-17.9,43.2-35
	c0-73.8-132.7-71.6-132.7-226.6c0-93.2,58.9-148.3,149.1-148.3c47,0,88,12.7,111.8,29.8l-24.6,91.7c-14.2-6.7-35-11.9-55.9-11.9
	c-23.9,0-43.2,15.7-43.2,38.8c0,73.8,137.2,75.3,137.2,225.1C542.5,689.3,479.9,749.7,386,749.7z"/>
<path d="M734.9,749.7c-98.4,0-153.6-94.7-153.6-208S636.5,333,734.9,333c40.3,0,67.8,9.7,90.2,29.8l-26.8,81.3
	c-8.2-6.7-19.4-10.4-32-10.4c-35.8,0-49.9,47-49.9,105.1s14.2,103.6,49.9,103.6c12.7,0,23.9-3.7,32-10.4l26.8,88
	C802.7,740,775.1,749.7,734.9,749.7z"/>
<path d="M1053.9,742.2V462.7c0-20.9-8.9-32.8-31.3-32.8c-7.14-0.11-14.23,1.15-20.9,3.7v308.6H869V157h132.7v192.3
	c21.6-9.7,44-15.7,67.1-15.7c82,0,117.8,54.4,117.8,131.9v276.6h-132.7V742.2z"/>
<path d="M1397.5,749.7c-102.9,0-161-44-161-131.9c0-90.9,60.4-131.2,181.9-146.8v-7.5c0-22.4-14.9-34.3-44.7-34.3
	c-31.3,0-65.6,7.5-90.9,18.6l-26.8-85c39.5-17.9,89.5-29.8,138.7-29.8c105.1,0,151.3,51.4,151.3,156.5v230.3
	C1510.8,739.2,1464.6,749.7,1397.5,749.7z M1418.4,546.1c-41,5.2-57.4,24.6-57.4,65.6c0,30.6,13.4,49.2,40.3,49.2
	c5.77,0.06,11.53-0.68,17.1-2.2V546.1z"/>
<path d="M1770.3,749.7c-101.4,0-158.8-41-158.8-136.4V340.4h132.7v277.3c0,17.9,10.4,29.1,28.3,29.1c8.2,0,16.4-1.5,22.4-4.5V340.4
	h132.7v379.4C1886.5,741.5,1829.1,749.7,1770.3,749.7z"/>
<path d="M2145.2,443.3v298.9h-131.9V443.3h-35V340.4h35v-24.6c0-74.5,42.5-158.8,162.5-158.8h15.7v96.9c-35,0-46.2,19.4-46.2,53.7
	v32.8h46.2v102.9H2145.2z"/>
<path d="M2352.4,604.3c8.2,33.5,30.6,42.5,64.9,42.5c27.6,0,58.9-7.5,81.3-17.1l27.6,90.2c-38.8,20.9-82.7,29.8-131.9,29.8
	c-122.3,0-175.2-88.7-175.2-209.5c0-115.5,55.9-207.2,164.7-207.2c107.3,0,158.8,81.3,158.8,204.3c0,11.9-0.7,25.3-1.5,38
	L2352.4,604.3z M2414.3,499.2c0-45.5-8.2-74.5-32-74.5c-26.1,0-37.3,41.7-37.3,88.7v8.9l69.3-11.2V499.2L2414.3,499.2z"/>
<path d="M2781.1,742.2v-281c0-20.9-8.9-32.8-31.3-32.8c-7.14-0.17-14.25,1.09-20.9,3.7v310.1h-132.7V362.8
	c46.2-20.1,98.4-29.8,152.8-29.8c116.3,0,164.7,46.2,164.7,132.7v276.6h-132.6V742.2z"/>
<path d="M3072.5,749.7c-43.2,0-81.3-8.9-112.6-29.8l32-90.2c16.4,11.2,42.5,17.1,62.6,17.1c19.4,0,29.1-9.7,29.1-21.6
	c0-49.9-117-47-117-164.7c0-78.3,54.4-127.5,136.4-127.5c44.7,0,79,9.7,110.3,29.8l-29.8,82c-15.7-8.9-35.8-15.7-57.4-15.7
	c-19.4,0-28.3,12.7-28.3,25.3c0,49.9,119.3,49.2,119.3,167C3217.1,696,3163.4,749.7,3072.5,749.7z"/>
<path d="M3404.2,749.7c-77.5,0-117-52.9-117-129V443.3h-35V340.4h35v-81.3l131.9-38.8v120h46.2v102.9h-46.2v177.4
	c0,14.9,10.4,25.3,25.3,25.3c8.2,0,14.9-1.5,20.9-4.5v93.9C3448.9,745.2,3425.8,749.7,3404.2,749.7z"/>
<path d="M3633.8,604.3c8.2,33.5,30.6,42.5,64.9,42.5c27.6,0,58.9-7.5,81.3-17.1l27.6,90.2c-38.8,20.9-82.7,29.8-131.9,29.8
	c-122.3,0-175.2-88.7-175.2-209.5c0-115.5,55.9-207.2,164.7-207.2c107.3,0,158.8,81.3,158.8,204.3c0,11.9-0.7,25.3-1.5,38
	L3633.8,604.3z M3695.7,499.2c0-45.5-8.2-74.5-32-74.5c-26.1,0-37.3,41.7-37.3,88.7v8.9l69.3-11.2V499.2z"/>
<path d="M4064.7,434.3c-9.7-4.5-22.4-6-33.5-6c-7.12,0.09-14.18,1.34-20.9,3.7v310.1h-132.7V362.8c47.7-21.6,102.9-29.8,158-29.8
	c16.4,0,34.3,0.7,50.7,3L4064.7,434.3z"/>
<path d="M4606.6,742.2l-8.9-227.4c-0.7-17.9-0.7-39.5-0.7-55.9h-1.5c-3,15.7-7.5,35.8-13.4,55.9l-63.4,227.4h-58.1l-63.4-227.4
	c-5.2-20.1-10.4-41-13.4-55.9h-1.5c0,14.9,0,36.5-0.7,55.9l-8.9,227.4h-120.8l41-512.9h121.5l67.1,223.6
	c5.36,18.63,9.6,37.56,12.7,56.7h1.5c3.11-19.13,7.35-38.07,12.7-56.7l67.1-223.6H4697l41,512.9H4606.6z"/>
<path d="M4908.5,604.3c8.2,33.5,30.6,42.5,64.9,42.5c27.6,0,58.9-7.5,81.3-17.1l27.6,90.2c-38.8,20.9-82.7,29.8-131.9,29.8
	c-122.3,0-175.2-88.7-175.2-209.5c0-115.5,55.9-207.2,164.7-207.2c107.3,0,158.8,81.3,158.8,204.3c0,11.9-0.7,25.3-1.5,38
	L4908.5,604.3z M4970.4,499.2c0-45.5-8.2-74.5-32-74.5c-26.1,0-37.3,41.7-37.3,88.7v8.9l69.3-11.2V499.2z"/>
<path d="M5283.4,749.7c-77.5,0-117-52.9-117-129V443.3h-35V340.4h35v-81.3l131.9-38.8v120h46.2v102.9h-46.2v177.4
	c0,14.9,10.4,25.3,25.3,25.3c8.2,0,14.9-1.5,20.9-4.5v93.9C5328.2,745.2,5305.1,749.7,5283.4,749.7z"/>
<path d="M5532.4,749.7c-77.5,0-117-52.9-117-129V443.3h-35V340.4h35v-81.3l131.9-38.8v120h46.2v102.9h-46.2v177.4
	c0,14.9,10.4,25.3,25.3,25.3c8.2,0,14.9-1.5,20.9-4.5v93.9C5577.1,745.2,5554,749.7,5532.4,749.7z"/>
<path d="M6008,742.2v-281c0-20.9-8.9-32.8-31.3-32.8c-7.14-0.17-14.25,1.09-20.9,3.7v310.1h-129.7v-281c0-20.9-8.9-32.8-31.3-32.8
	c-7.14-0.17-14.25,1.09-20.9,3.7v310.1h-129.7V362.8c45.5-20.1,90.2-29.8,143.1-29.8c47.7,0,86.5,9.7,117.8,32.8
	c32.8-23.1,65.6-32.8,108.8-32.8c81.3,0,123.7,53.7,123.7,132.7v276.6H6008V742.2z"/>
<path d="M6348.7,749.7c-102.9,0-161-44-161-131.9c0-90.9,60.4-131.2,181.9-146.8v-7.5c0-22.4-14.9-34.3-44.7-34.3
	c-31.3,0-65.6,7.5-90.9,18.6l-26.8-85c39.5-17.9,89.5-29.8,138.7-29.8c105.1,0,151.3,51.4,151.3,156.5v230.3
	C6462,739.2,6415.8,749.7,6348.7,749.7z M6369.5,546.1c-41,5.2-57.4,24.6-57.4,65.6c0,30.6,13.4,49.2,40.3,49.2
	c5.77,0.06,11.53-0.68,17.1-2.2V546.1z"/>
<path d="M6747.5,742.2v-281c0-20.9-8.9-32.8-31.3-32.8c-7.14-0.17-14.25,1.09-20.9,3.7v310.1h-132.7V362.8
	c46.2-20.1,98.4-29.8,152.8-29.8c116.3,0,164.7,46.2,164.7,132.7v276.6h-132.6V742.2z"/>
<path d="M7130.6,742.2v-281c0-20.9-8.9-32.8-31.3-32.8c-7.14-0.17-14.25,1.09-20.9,3.7v310.1h-132.7V362.8
	c46.2-20.1,98.4-29.8,152.8-29.8c116.3,0,164.7,46.2,164.7,132.7v276.6h-132.6V742.2z"/>
<path fill="#FFFFFF" d="M364.3,716.4c-52.2,0-96.2-11.9-122.3-29.8l29.8-104.4c13.4,8.9,39.5,16.4,64.1,16.4
	c28.3,0,43.2-17.9,43.2-35c0-73.8-132.7-71.6-132.7-226.6c0-93.2,58.9-148.3,149.1-148.3c47,0,88,12.7,111.8,29.8l-24.6,91.7
	c-14.2-6.7-35-11.9-55.9-11.9c-23.9,0-43.2,15.7-43.2,38.8c0,73.8,137.2,75.3,137.2,225.1C520.9,656,458.2,716.4,364.3,716.4z"/>
<path fill="#FFFFFF" d="M713.2,716.4c-98.4,0-153.6-94.7-153.6-208s55.2-208.7,153.6-208.7c40.3,0,67.8,9.7,90.2,29.8l-26.8,81.3
	c-8.2-6.7-19.4-10.4-32-10.4c-35.8,0-49.9,47-49.9,105.1s14,103.6,49.8,103.6c12.7,0,23.9-3.7,32-10.4l26.8,88
	C781,706.7,753.4,716.4,713.2,716.4z"/>
<path fill="#FFFFFF" d="M1032.2,709V429.4c0-20.9-8.9-32.8-31.3-32.8c-7.14-0.11-14.23,1.15-20.9,3.7v308.6H847.3V123.8H980v192.3
	c21.6-9.7,44-15.7,67.1-15.7c82,0,117.8,54.4,117.8,131.9v276.6L1032.2,709L1032.2,709z"/>
<path fill="#FFFFFF" d="M1375.9,716.4c-102.9,0-161-44-161-131.9c0-90.9,60.4-131.2,181.9-146.8v-7.5c0-22.4-14.9-34.3-44.7-34.3
	c-31.3,0-65.6,7.5-90.9,18.6l-26.8-85c39.5-17.9,89.5-29.8,138.7-29.8c105.1,0,151.3,51.4,151.3,156.5v230.3
	C1489.2,706,1443,716.4,1375.9,716.4z M1396.7,512.9c-41,5.2-57.4,24.6-57.4,65.6c0,30.6,13.4,49.2,40.3,49.2
	c5.77,0.06,11.53-0.68,17.1-2.2V512.9z"/>
<path fill="#FFFFFF" d="M1748.6,716.4c-101.4,0-158.8-41-158.8-136.4V307.2h132.7v277.3c0,17.9,10.4,29.1,28.3,29.1
	c8.2,0,16.4-1.5,22.4-4.5V307.2h132.7v379.4C1864.9,708.2,1807.5,716.4,1748.6,716.4z"/>
<path fill="#FFFFFF" d="M2123.5,410.1V709h-131.9V410.1h-35V307.2h35v-24.6c0-74.5,42.5-158.8,162.5-158.8h15.7v96.9
	c-35,0-46.2,19.4-46.2,53.7v32.8h46.2v102.9H2123.5z"/>
<path fill="#FFFFFF" d="M2330.8,571.1c8.2,33.5,30.6,42.5,64.9,42.5c27.6,0,58.9-7.5,81.3-17.1l27.6,90.2
	c-38.8,20.9-82.7,29.8-131.9,29.8c-122.3,0-175.2-88.7-175.2-209.5c0-115.5,55.9-207.2,164.7-207.2c107.3,0,158.8,81.3,158.8,204.3
	c0,11.9-0.7,25.3-1.5,38L2330.8,571.1z M2392.6,466c0-45.5-8.2-74.5-32-74.5c-26.1,0-37.3,41.7-37.3,88.7v8.9l69.3-11.2V466z"/>
<path fill="#FFFFFF" d="M2759.4,709V428c0-20.9-8.9-32.8-31.3-32.8c-7.14-0.17-14.25,1.09-20.9,3.7V709h-132.7V329.5
	c46.2-20.1,98.4-29.8,152.8-29.8c116.3,0,164.7,46.2,164.7,132.7V709H2759.4z"/>
<path fill="#FFFFFF" d="M3050.8,716.4c-43.2,0-81.3-8.9-112.6-29.8l32-90.2c16.4,11.2,42.5,17.1,62.6,17.1
	c19.4,0,29.1-9.7,29.1-21.6c0-49.9-117-47-117-164.7c0-78.3,54.4-127.5,136.4-127.5c44.7,0,79,9.7,110.3,29.8l-29.8,82
	c-15.7-8.9-35.8-15.7-57.4-15.7c-19.4,0-28.3,12.7-28.3,25.3c0,49.9,119.3,49.2,119.3,167C3195.5,662.7,3141.8,716.4,3050.8,716.4z"
	/>
<path fill="#FFFFFF" d="M3382.6,716.4c-77.5,0-117-52.9-117-129V410.1h-35V307.2h35v-81.3l131.9-38.8v120h46.2v103h-46.2v177.4
	c0,14.9,10.4,25.3,25.3,25.3c8.2,0,14.9-1.5,20.9-4.5v93.9C3427.3,711.9,3404.2,716.4,3382.6,716.4z"/>
<path fill="#FFFFFF" d="M3612.2,571.1c8.2,33.5,30.6,42.5,64.9,42.5c27.6,0,58.9-7.5,81.3-17.1l27.6,90.2
	c-38.8,20.9-82.7,29.8-131.9,29.8c-122.3,0-175.2-88.7-175.2-209.5c0-115.5,55.9-207.2,164.7-207.2c107.3,0,158.8,81.3,158.8,204.3
	c0,11.9-0.7,25.3-1.5,38L3612.2,571.1z M3674,466c0-45.5-8.2-74.5-32-74.5c-26.1,0-37.3,41.7-37.3,88.7v8.9l69.3-11.2V466z"/>
<path fill="#FFFFFF" d="M4043,401.1c-9.7-4.5-22.4-6-33.5-6c-7.12,0.09-14.18,1.34-20.9,3.7v310.1h-132.7V329.5
	c47.7-21.6,102.9-29.8,158-29.8c16.4,0,34.3,0.7,50.7,3L4043,401.1z"/>
<path fill="#FFFFFF" d="M4584.9,709l-8.9-227.4c-0.7-17.9-0.7-39.5-0.7-55.9h-1.5c-3,15.7-7.5,35.8-13.4,55.9L4497,709h-58.1
	l-63.4-227.4c-5.2-20.1-10.4-41-13.4-55.9h-1.5c0,14.9,0,36.5-0.8,55.9l-8.9,227.4h-120.8l41-512.9h121.5l67.1,223.6
	c5.36,18.63,9.6,37.56,12.7,56.7h1.5c3.11-19.13,7.35-38.07,12.7-56.7l67.1-223.6h121.5l41,512.9H4584.9z"/>
<path fill="#FFFFFF" d="M4886.8,571.1c8.2,33.5,30.6,42.5,64.9,42.5c27.6,0,58.9-7.5,81.3-17.1l27.6,90.2
	c-38.8,20.9-82.7,29.8-131.9,29.8c-122.3,0-175.2-88.7-175.2-209.5c0-115.5,55.9-207.2,164.7-207.2c107.3,0,158.8,81.3,158.8,204.3
	c0,11.9-0.7,25.3-1.5,38L4886.8,571.1z M4948.7,466c0-45.5-8.2-74.5-32-74.5c-26.1,0-37.3,41.7-37.3,88.7v8.9l69.3-11.2V466z"/>
<path fill="#FFFFFF" d="M5261.8,716.4c-77.5,0-117-52.9-117-129V410.1h-35V307.2h35v-81.3l131.9-38.8v120h46.2v103h-46.2v177.4
	c0,14.9,10.4,25.3,25.3,25.3c8.2,0,14.9-1.5,20.9-4.5v93.9C5306.5,711.9,5283.4,716.4,5261.8,716.4z"/>
<path fill="#FFFFFF" d="M5510.7,716.4c-77.5,0-117-52.9-117-129V410.1h-35V307.2h35v-81.3l131.9-38.8v120h46.2v103h-46.1v177.4
	c0,14.9,10.4,25.3,25.3,25.3c8.2,0,14.9-1.5,20.9-4.5v93.9C5555.5,711.9,5532.4,716.4,5510.7,716.4z"/>
<path fill="#FFFFFF" d="M5986.3,709V428c0-20.9-8.9-32.8-31.3-32.8c-7.14-0.17-14.25,1.09-20.9,3.7V709h-129.7V428
	c0-20.9-8.9-32.8-31.3-32.8c-7.14-0.17-14.25,1.09-20.9,3.7V709h-129.7V329.5c45.5-20.1,90.2-29.8,143.1-29.8
	c47.7,0,86.5,9.7,117.8,32.8c32.8-23.1,65.6-32.8,108.8-32.8c81.3,0,123.7,53.7,123.7,132.7V709H5986.3z"/>
<path fill="#FFFFFF" d="M6327,716.4c-102.9,0-161-44-161-131.9c0-90.9,60.4-131.2,181.9-146.8v-7.5c0-22.4-14.9-34.3-44.7-34.3
	c-31.3,0-65.6,7.5-90.9,18.6l-26.8-85c39.5-17.9,89.5-29.8,138.7-29.8c105.1,0,151.3,51.4,151.3,156.5v230.3
	C6440.3,706,6394.1,716.4,6327,716.4z M6347.9,512.9c-41,5.2-57.4,24.6-57.4,65.6c0,30.6,13.4,49.2,40.3,49.2
	c5.77,0.06,11.53-0.68,17.1-2.2V512.9z"/>
<path fill="#FFFFFF" d="M6725.8,709V428c0-20.9-8.9-32.8-31.3-32.8c-7.14-0.17-14.25,1.09-20.9,3.7V709h-132.7V329.5
	c46.2-20.1,98.4-29.8,152.8-29.8c116.3,0,164.7,46.2,164.7,132.7V709H6725.8z"/>
<path fill="#FFFFFF" d="M7108.9,709V428c0-20.9-8.9-32.8-31.3-32.8c-7.14-0.17-14.25,1.09-20.9,3.7V709H6924V329.5
	c46.2-20.1,98.4-29.8,152.8-29.8c116.3,0,164.7,46.2,164.7,132.7V709H7108.9z"/>
</svg>
