<svg xmlns="http://www.w3.org/2000/svg" viewBox="0 0 425.2 60.2"><path fill-rule="evenodd" clip-rule="evenodd" d="M27 24.8h.6c4.8-.1 10.7 2.5 10.7 11.8 0 6.6-4.3 12.9-12.3 12.9-4.2 0-8.3-1.8-10.8-4.5l8.9-6.1c3.6-2.5 4.3-5.5 3.8-8.6l-.9-5.5zm-6.3 6.4c.5 1.9.8 3.3.8 4.6 0 2-1.3 3.5-3.9 5.3L14 43.6c-2.9-2.9-5-11-5-15.3 0-8.3 2.5-13.8 6.8-16.8l4.9 19.7zM23.8 12h12.5l-9.6 11.7L23.8 12zm-2-8.7c-1.6 2.1-4.6 3.9-7.7 5.8l-3 1.9C4.7 15.2 0 20.9 0 29c0 15.5 11.9 23.2 25.5 23.2 12.7 0 21.7-8 21.7-19 0-5.6-2.7-13.7-12-17L45.7 3.3H21.8zm41.9 30.9l-5.1 4.7c-1.9-2-3.5-5.1-3.3-8.6.1-3.6.9-5.6 3.1-7.1l5.3 11zm7.1-3.7l-6.4-12.8c-6.2 2.6-13.8 7.5-13.8 17.2 0 6.6 3.7 14.8 12 17.3 3.1-3.6 6.6-7.3 10.1-11l-1.1-1s-2.1 2.6-5.8 2.6c-2.6 0-4.1-1.4-5.8-2.8l10.8-9.5zm1.3-6.7l1 1.2c1-.8 1.6-1.6 2.7-1.6 1.7 0 1.6 2.4 1.6 3.6v24.1s1.1-.4 3.8-.4c2.9 0 4.1.4 4.1.4V27.6l3.2-3.2c2.9-.1 2.9 3.6 2.9 5.7v13c0 2.9.3 4.8 3.4 7.1l2.6 1.9 7.6-8-1.1-1.1c-.8.9-1.9 1.8-2.8 1.8-1.9 0-1.9-2-1.9-3.1V27.4c0-4.2-1.4-6.8-4-8.4l-2.7-1.7-7.3 7.8c0-2.6-.6-4.6-3.2-6.3l-2.5-1.5-7.4 6.5zm47 10.4l-5.1 4.7c-1.9-2-3.5-5.1-3.3-8.6.1-3.6.9-5.6 3.1-7.1l5.3 11zm7.1-3.7l-6.4-12.8C113.6 20.3 106 25.2 106 35c0 6.6 3.7 14.8 12 17.3 3.1-3.6 6.6-7.3 10.1-11l-1.1-1s-2.1 2.6-5.8 2.6c-2.6 0-4.1-1.4-5.8-2.8l10.8-9.6zm14.3-3.4l2.1-2.6c2.6-.1 5.1 3.4 5.8 4.3l4.5-6.4s-3-3.6-6.9-5.1l-5.5 7.2c-.4-2.9-.1-3.8-3.8-6.1l-1.7-1.1-7.3 6.2 1 1.2s1.4-1.3 2.2-1.3c1.9 0 1.9 2.8 1.9 3.9v16l-3.1 3.6 10.3 5.3 7.7-8.1-1.1-1c-1.2 1.2-2.1 1.8-3.1 1.8-.9 0-1.8-.7-3.1-1.6V27.1zm25.7.5v15.8s-1 .9-3 .9c-4.3 0-7.3-4.9-7.3-9.5 0-3.6 1.7-7.6 5.3-10l5 2.8zm-.4-10.1l-4.3 3.9c-5.2 4.6-10.9 9.9-10.9 16.7 0 5.7 2.4 10.5 7 13.9 2.9-2.2 5.8-4.4 8.6-6.5.7 3 1.9 5.4 4.2 6.5 2.1-2 4.1-3.9 6.3-5.8-2.6-2-2.9-2.6-2.9-5.6V27.9c0-1.4.7-2.3 1.6-3l1.4-1.1-11-6.3zm16.7 25.9l-3.1 3.6 10.3 5.2 7.7-8.1-1.1-1c-1.2 1.4-2.2 1.8-3.1 1.8-.9 0-1.9-.6-3.1-1.5V12.3c0-2.9 1.6-5.8 5.8-5.9V4.8c-.9 0-2.1.1-3.7.9-2.3 1.1-5.3 2.3-9.9 2.3-.9 0-1.3 0-2.2-.1v1.6c2.1.1 2.4.6 2.4 2.1v31.8zm17.2-7.5l10.1-2.5v-7.6l-10.1 2.6zm33-25.1c4.6 4.9 6.2 7.4 7.7 15.4h-10.7l3-15.4zm-5.6 2.1c-1 .6-2.1 1-2.4 2.6l-.6 2.5-1.5-.1c-1.9-.1-3.5-.4-3.5-2.8 0-2.1 2.4-3.9 4.3-5.2l3.8-2.6c2 .6 4 2.1 4.8 2.9l-4.9 2.7zM234.7 0L222 9c-3.3 2.3-4.6 4-4.6 6.2 0 3.2 2.3 4.1 5.3 4.3l1.3.1-2.5 13c-.5 2.5-1.1 5.2-1.1 5.2l-2.9-1.1-8.1 7.8c-2.5 2.4-3.8 3.8-3.8 5.9 0 1.9 1.4 2.9 3.1 2.9 1.6 0 2.6-.4 2.6-.4l-.4-1.4s-1.1.4-1.8.4c-1.6 0-1.9-.9-1.9-1.6 0-1.6 2.3-4.8 6.3-4.8 1.1 0 2.4.3 3.6.7l11.9 4.7c2.5-2.8 5.2-5.8 8.1-8.6l-1.1-.9c-1 1.1-1.4 1.4-2.3 1.4-1.1 0-1.8-.3-3.4-.9l-9.1-3.6 4.3-4.3h13.4l2.3-2.8c2 13 6.2 18.5 9.3 20.4 3-2.9 5.8-5.6 8.3-8.1l-1-1s-1.3 1.4-2.4 1.4c-3.8 0-4.9-10-6.4-16.9l-.9-3.9c-1.7-7.9-4.3-13.3-10-17.7l-.6-.5c-3.3-2.6-1.8-3.8-1.8-3.8l-1-1.1zm22 23.8l1 1.2c1-.8 1.6-1.6 2.7-1.6 1.7 0 1.6 2.4 1.6 3.6v24.1s1.1-.4 3.8-.4c2.9 0 4.1.4 4.1.4V27.6l3.2-3.2c2.9-.1 2.9 3.6 2.9 5.7v13c0 2.9.3 4.8 3.4 7.1l2.6 1.9 7.6-8-1.1-1.1c-.8.9-1.9 1.8-2.8 1.8-1.9 0-1.9-2-1.9-3.1V27.4c0-4.2-1.4-6.8-4-8.4l-2.7-1.7-7.3 7.8c0-2.6-.6-4.6-3.2-6.3l-2.5-1.5-7.4 6.5z"/><path fill-rule="evenodd" clip-rule="evenodd" d="M292.7 57.5c0-.2.2-.4.4-.6l.1-.1c.6-.6 1.3-1.6 1.3-3.3 0-1.6-.8-3.2-3.1-3.2-2 0-3.6 1.6-3.6 4.2 0 4.1 4.1 5.6 7.3 5.6 7.8 0 12.3-8.4 12.3-15.2 0-6.5-4.4-11-10-14l7.3-7.3-8.6-6.2-7.6 7.3 1.1 1.1s1.9-2.1 3.5-.9l4.3 3.4-7 7.1c6.5 3.5 10.3 7.7 10.3 15.1 0 4-1.8 8-5.8 8-.6-.1-2.2-.4-2.2-1zm29.5-23.3l-5.1 4.7c-1.9-2-3.5-5.1-3.3-8.6.1-3.6.9-5.6 3.1-7.1l5.3 11zm7.1-3.7l-6.4-12.8C316.7 20.3 309 25.2 309 35c0 6.6 3.7 14.8 12 17.3 3.1-3.6 6.6-7.3 10.1-11l-1.1-1s-2.1 2.6-5.8 2.6c-2.6 0-4.1-1.4-5.8-2.8l10.9-9.6zm5.9 12.2c0 3.9.6 5.1 3.4 7.8l1.8 1.7 8.5-7.1-1-1.2-.6.4c-.4.3-1.3.9-2.1.9-1.9 0-2.1-1.6-2.1-2.8l.1-16.8c0-3.4-.4-4.8-2.2-6.3l-2.6-2.1-7.8 6.8 1 1.1c.4-.3 1.2-1.1 2.1-1.1 1.6 0 1.6 1.5 1.6 2.8v15.9zm3.1-38.3c-2.3 0-4 1.6-4 4.1 0 2.9 4 6.1 4 6.1s3.8-3.1 3.8-6.1c.1-2.5-1.6-4.1-3.8-4.1zM366 43.3c-.1 4.7 3.9 9.3 3.9 9.3h-11.5l7.6-9.3zm-.1-2s-1.1 1.1-2.9 1.1c-5.3 0-7.3-4.6-7.3-8.3 0-3.3 1.5-7.6 5-10.2l5.2 3v14.4zM376.2 23l-10.9-6-3.4 3.1c-6 5.5-11.6 10.5-11.6 17 0 6.4 2.5 10.8 7.4 13.5l-7.1 8.2V60h16.1l10.2-11.1c-.9-1.1-3.6-3.1-3.6-8.6V25.7l2.9-2.7zm15.1 11.2l-5.1 4.7c-1.9-2-3.5-5.1-3.3-8.6.1-3.6.9-5.6 3.1-7.1l5.3 11zm7.1-3.7L392 17.7c-6.2 2.6-13.8 7.5-13.8 17.2 0 6.6 3.7 14.8 12 17.3 3.1-3.6 6.6-7.3 10.1-11l-1.1-1s-2.1 2.6-5.8 2.6c-2.6 0-4.1-1.4-5.8-2.8l10.8-9.5zm14.3-3.4l2.1-2.6c2.6-.1 5.1 3.4 5.8 4.3l4.5-6.4s-3-3.6-6.9-5.1l-5.5 7.2c-.4-2.9-.1-3.8-3.8-6.1l-1.7-1.1-7.3 6.2 1 1.2s1.4-1.3 2.2-1.3c1.9 0 1.9 2.8 1.9 3.9v16l-3.1 3.6 10.3 5.3 7.7-8.1-1.1-1c-1.2 1.2-2.1 1.8-3.1 1.8-.9 0-1.8-.7-3.1-1.6V27.1z"/></svg>