<svg xmlns="http://www.w3.org/2000/svg" xmlns:xlink="http://www.w3.org/1999/xlink" viewBox="0 -12 446.2 126.1" preserveAspectRatio="xMinYMid meet">
    <a xlink:href="{{ logo.href }}">
        <g>
            <path d="M31.9 28.8h.6c5-.1 11.1 2.6 11.1 12.2 0 6.8-4.4 13.3-12.7 13.3-4.3 0-8.6-1.9-11.2-4.7l9.2-6.3c3.7-2.6 4.4-5.7 3.9-8.9l-.9-5.6zm-6.5 6.6c.5 2 .8 3.4.8 4.8 0 2.1-1.3 3.6-4 5.5l-3.7 2.6c-3-3-5.2-11.4-5.2-15.8 0-8.6 2.6-14.3 7-17.4 0-.1 5.1 20.3 5.1 20.3zm3.2-19.9h12.9l-9.9 12.1-3-12.1zm-2.1-9c-1.7 2.2-4.8 4-8 6l-3.1 2C8.8 18.8 4 24.7 4 33.1c0 16 12.3 24 26.4 24 13.1 0 22.4-8.3 22.4-19.7 0-5.8-2.8-14.2-12.4-17.6L51.2 6.5H26.5zm43.3 32l-5.3 4.9c-2-2.1-3.6-5.3-3.4-8.9.1-3.7.9-5.8 3.2-7.3l5.5 11.3zm7.4-3.8l-6.6-13.2c-6.4 2.7-14.3 7.8-14.3 17.8 0 6.8 3.8 15.3 12.4 17.9 3.2-3.7 6.8-7.6 10.4-11.4l-1.1-1s-2.2 2.7-6 2.7c-2.7 0-4.2-1.4-6-2.9l11.2-9.9zm1.3-7l1 1.2c1-.8 1.7-1.7 2.8-1.7 1.8 0 1.7 2.5 1.7 3.7V56s1.1-.4 3.9-.4c3 0 4.2.4 4.2.4V31.7l3.3-3.3c3-.1 3 3.7 3 5.9v13.4c0 3 .3 5 3.5 7.3l2.7 2 7.9-8.3-1.1-1.1c-.8.9-2 1.9-2.9 1.9-2 0-2-2.1-2-3.2V31.4c0-4.3-1.4-7-4.1-8.7L99.6 21 92 29.1c0-2.7-.6-4.8-3.3-6.5L86.2 21l-7.7 6.7zm48.7 10.8l-5.3 4.9c-2-2.1-3.6-5.3-3.4-8.9.1-3.7.9-5.8 3.2-7.3l5.5 11.3zm7.3-3.8l-6.6-13.2c-6.4 2.7-14.3 7.8-14.3 17.9 0 6.8 3.8 15.3 12.4 17.9 3.2-3.7 6.8-7.6 10.4-11.4l-1.1-1s-2.2 2.7-6 2.7c-2.7 0-4.2-1.4-6-2.9 0-.1 11.2-10 11.2-10zm14.8-3.6l2.2-2.7c2.7-.1 5.3 3.5 6 4.4l4.7-6.6s-3.1-3.7-7.1-5.3l-5.7 7.4c-.4-3-.1-3.9-3.9-6.3l-1.8-1.1-7.6 6.4 1 1.2s1.4-1.3 2.3-1.3c2 0 2 2.9 2 4v16.5l-3.2 3.7 10.7 5.5 8-8.4-1.1-1c-1.2 1.2-2.2 1.9-3.2 1.9-.9 0-1.9-.7-3.2-1.7l-.1-16.6zm26.6.6V48s-1 .9-3.1.9c-4.4 0-7.6-5.1-7.6-9.8 0-3.7 1.8-7.9 5.5-10.3l5.2 2.9zm-.4-10.5l-4.4 4c-5.4 4.8-11.3 10.2-11.3 17.3 0 5.9 2.5 10.9 7.2 14.4 3-2.3 6-4.6 8.9-6.7.7 3.1 2 5.6 4.3 6.7 2.2-2.1 4.2-4 6.5-6-2.7-2.1-3-2.7-3-5.8V32c0-1.4.7-2.4 1.7-3.1l1.4-1.1-11.3-6.6zM192.7 48l-3.2 3.7 10.7 5.4 8-8.4-1.1-1c-1.2 1.4-2.3 1.9-3.2 1.9-.9 0-2-.6-3.2-1.6V15.8c0-3 1.7-6 6-6.1V8.1c-.9 0-2.2.1-3.8.9-2.4 1.1-5.5 2.4-10.2 2.4-.9 0-1.3 0-2.3-.1V13c2.2.1 2.5.6 2.5 2.2l-.2 32.8zm17.8-7.8l10.4-2.6v-7.9l-10.4 2.7v7.8zm34.2-25.9c4.8 5.1 6.4 7.7 8 15.9h-11.1l3.1-15.9zm-5.8 2.1c-1 .6-2.2 1-2.5 2.7l-.6 2.6-1.6-.1c-2-.1-3.6-.4-3.6-2.9 0-2.2 2.5-4 4.4-5.4l3.9-2.7c2.1.6 4.1 2.2 5 3l-5 2.8zm7.8-13.3l-13.1 9.3c-3.4 2.4-4.8 4.1-4.8 6.4 0 3.3 2.4 4.2 5.5 4.4l1.3.1-2.6 13.4c-.5 2.6-1.1 5.4-1.1 5.4l-3-1.1-8.4 8.1c-2.6 2.5-3.9 3.9-3.9 6.1 0 2 1.4 3 3.2 3 1.7 0 2.7-.4 2.7-.4l-.4-1.4s-1.1.4-1.9.4c-1.7 0-2-.9-2-1.7 0-1.7 2.4-5 6.5-5 1.1 0 2.5.3 3.7.7l12.3 4.9c2.6-2.9 5.4-6 8.4-8.9l-1.1-.9c-1 1.1-1.4 1.4-2.4 1.4-1.1 0-1.9-.3-3.5-.9l-9.4-3.7 4.4-4.4H251l2.4-2.9c2.1 13.4 6.4 19.1 9.6 21.1 3.1-3 6-5.8 8.6-8.4l-1-1s-1.3 1.4-2.5 1.4c-3.9 0-5.1-10.3-6.6-17.5l-.9-4c-1.8-8.2-4.4-13.8-10.3-18.3l-.6-.5c-3.4-2.7-1.9-3.9-1.9-3.9l-1.1-1.2zm22.8 24.6l1 1.2c1-.8 1.7-1.7 2.8-1.7 1.8 0 1.7 2.5 1.7 3.7V56s1.1-.4 3.9-.4c3 0 4.2.4 4.2.4V31.7l3.3-3.3c3-.1 3 3.7 3 5.9v13.4c0 3 .3 5 3.5 7.3l2.7 2 7.9-8.3-1.1-1.1c-.8.9-2 1.9-2.9 1.9-2 0-2-2.1-2-3.2V31.4c0-4.3-1.4-7-4.1-8.7l-2.8-1.8L283 29c0-2.7-.6-4.8-3.3-6.5l-2.6-1.6-7.6 6.8z"
                  clip-rule="evenodd" fill-rule="evenodd"/>
            <path d="M306.7 62.6c0-.2.2-.4.4-.6l.1-.1c.6-.6 1.3-1.7 1.3-3.4s-.8-3.3-3.2-3.3c-2.1 0-3.7 1.7-3.7 4.3 0 4.2 4.2 5.8 7.6 5.8 8.1 0 12.7-8.7 12.7-15.7 0-6.7-4.6-11.4-10.3-14.5l7.6-7.6-8.9-6.4-7.9 7.6 1.1 1.1s2-2.2 3.6-.9l4.4 3.5-7.2 7.3c6.7 3.6 10.7 8 10.7 15.6 0 4.1-1.9 8.3-6 8.3-.6-.1-2.3-.4-2.3-1zm30.5-24.1l-5.3 4.9c-2-2.1-3.6-5.3-3.4-8.9.1-3.7.9-5.8 3.2-7.3l5.5 11.3zm7.4-3.8L338 21.4c-6.4 2.7-14.4 7.8-14.4 17.9 0 6.8 3.8 15.3 12.4 17.9 3.2-3.7 6.8-7.6 10.4-11.4l-1.1-1s-2.2 2.7-6 2.7c-2.7 0-4.2-1.4-6-2.9l11.3-9.9zm6.1 12.6c0 4 .6 5.3 3.5 8.1l1.9 1.8 8.8-7.3-1-1.2-.6.4c-.4.3-1.3.9-2.2.9-2 0-2.2-1.7-2.2-2.9l.1-17.4c0-3.5-.4-5-2.3-6.5L354 21l-8.1 7 1 1.1c.4-.3 1.2-1.1 2.2-1.1 1.7 0 1.7 1.6 1.7 2.9l-.1 16.4zm3.2-39.6c-2.4 0-4.1 1.7-4.1 4.2 0 3 4.1 6.3 4.1 6.3s3.9-3.2 3.9-6.3c.1-2.6-1.6-4.2-3.9-4.2zm28.6 40.2c-.1 4.9 4 9.6 4 9.6h-11.9l7.9-9.6zm-.1-2.1s-1.1 1.1-3 1.1c-5.5 0-7.6-4.8-7.6-8.6 0-3.4 1.6-7.9 5.2-10.6l5.4 3.1v15zm10.7-18.9l-11.3-6.2-3.5 3.2c-6.2 5.7-12 10.9-12 17.6 0 6.6 2.6 11.2 7.7 14l-7.3 8.5v1.2h16.7L394 53.7c-.9-1.1-3.7-3.2-3.7-8.9V29.7l2.8-2.8zm15.6 11.6l-5.3 4.9c-2-2.1-3.6-5.3-3.4-8.9.1-3.7.9-5.8 3.2-7.3l5.5 11.3zm7.4-3.8l-6.6-13.2c-6.4 2.7-14.3 7.8-14.3 17.8 0 6.8 3.8 15.3 12.4 17.9 3.2-3.7 6.8-7.6 10.4-11.4l-1.1-1s-2.2 2.7-6 2.7c-2.7 0-4.2-1.4-6-2.9l11.2-9.9zm14.7-3.6l2.2-2.7c2.7-.1 5.3 3.5 6 4.4l4.7-6.6s-3.1-3.7-7.1-5.3l-5.7 7.4c-.4-3-.1-3.9-3.9-6.3l-1.8-1.1-7.6 6.4 1 1.2s1.4-1.3 2.3-1.3c2 0 2 2.9 2 4v16.5l-3.2 3.7 10.7 5.5 8-8.4-1.1-1c-1.2 1.2-2.2 1.9-3.2 1.9-.9 0-1.9-.7-3.2-1.7l-.1-16.6z"
                  clip-rule="evenodd" fill-rule="evenodd"/>
        </g>
    </a>
    <a xlink:href="https://rp-online.de?utm_source=ga&amp;utm_campaign=header&amp;utm_medium=logo" target="_blank">
        <g>
            <path d="M7.9 73.7h4.2c.8 0 1.4.1 2.1.2.6.1 1.2.4 1.6.7.4.3.8.7 1 1.3s.4 1.2.4 1.9-.1 1.4-.4 1.9-.6 1-1 1.3-1 .6-1.6.8-1.3.2-2 .2H9.7v5.5H7.9V73.7zm4 6.9c1.2 0 2.1-.2 2.7-.7s.9-1.2.9-2.2c0-1-.3-1.7-.9-2.1-.6-.4-1.5-.6-2.7-.6H9.7v5.5h2.2zm7.5 4.2c0-1.1.5-2 1.5-2.6s2.6-1 4.8-1.3c0-.3 0-.6-.1-.9-.1-.3-.2-.6-.3-.8l-.6-.6c-.3-.1-.6-.2-1-.2-.6 0-1.1.1-1.7.3-.5.2-.9.5-1.4.8l-.7-1.2c.5-.3 1.1-.6 1.7-.9.7-.3 1.5-.4 2.3-.4 1.2 0 2.2.4 2.7 1.1.6.8.8 1.8.8 3.1v6.3H26l-.1-1.2c-.5.4-1 .8-1.6 1-.6.3-1.2.4-1.8.4-.9 0-1.6-.3-2.2-.8-.7-.4-.9-1.1-.9-2.1zm1.7-.1c0 .6.2 1 .5 1.3.3.3.8.4 1.3.4s1-.1 1.4-.3c.4-.2.9-.6 1.4-1v-2.8c-.9.1-1.6.2-2.2.4-.5.1-1 .3-1.4.5-.4.2-.6.5-.8.7-.2.2-.2.5-.2.8zm9.5-7.4H32l.1 1.8h.1c.4-.6.8-1.2 1.3-1.5.5-.4 1-.6 1.6-.6.4 0 .8.1 1.1.2l-.3 1.5c-.3-.1-.7-.2-1-.2-.4 0-.9.2-1.4.5-.5.4-.9 1-1.2 1.8v6.6h-1.7V77.3zm7.6 1.4h-1.5v-1.3l1.6-.1.2-2.9H40v2.9h2.8v1.4H40v5.7c0 .6.1 1.1.3 1.5s.6.5 1.2.5c.2 0 .4 0 .6-.1.2-.1.4-.1.6-.2l.3 1.3-.9.3c-.3.1-.6.1-1 .1-.5 0-1-.1-1.4-.3-.4-.2-.7-.4-.9-.7-.2-.3-.4-.7-.5-1.1-.1-.5-.2-.9-.1-1.4v-5.6zm6.8-1.4h1.4l.1 1.5h.1c.5-.5 1-.9 1.5-1.2.6-.3 1.2-.5 1.9-.5 1.1 0 1.9.3 2.4 1s.7 1.7.7 3v6.5h-1.7v-6.2c0-1-.2-1.7-.5-2.1-.3-.4-.8-.6-1.5-.6-.5 0-1 .1-1.4.4-.5.3-1 .7-1.4 1.2v7.4H45V77.3zm10.8 5.1c0-.8.1-1.6.4-2.3s.6-1.2 1-1.7.9-.8 1.5-1.1c.5-.2 1.1-.4 1.7-.4.6 0 1.2.1 1.7.3.5.2.9.5 1.3 1 .3.4.6.9.8 1.5.2.6.3 1.2.3 2 0 .4 0 .7-.1.9h-6.9c.1 1.1.4 2 1 2.6.6.6 1.4 1 2.4 1 .5 0 .9-.1 1.4-.2.4-.1.8-.3 1.2-.6l.6 1.1c-.4.3-.9.5-1.5.7-.6.2-1.2.3-1.9.3s-1.3-.1-1.9-.4c-.6-.2-1.1-.6-1.6-1.1-.5-.5-.8-1-1-1.7-.3-.4-.5-1.1-.4-1.9zm7.1-.8c0-1.1-.2-1.9-.7-2.4-.4-.6-1.1-.8-1.9-.8-.4 0-.7.1-1 .2l-.9.6c-.3.3-.5.6-.7 1-.2.4-.3.9-.3 1.4h5.5zm4-4.3h1.4l.1 1.8h.1c.4-.6.8-1.2 1.3-1.5.5-.4 1-.6 1.6-.6.4 0 .8.1 1.1.2l-.3 1.5c-.3-.1-.7-.2-1-.2-.4 0-.9.2-1.4.5-.5.4-.9 1-1.2 1.8v6.6h-1.7V77.3zm10.1 0h1.8l1.9 5.8c.2.5.3 1 .5 1.5l.5 1.5h.1c.2-.5.3-1 .5-1.5l.5-1.5 1.9-5.8h1.7l-3.6 10.2h-2c-.1 0-3.8-10.2-3.8-10.2zm10.5 5.1c0-.9.1-1.6.4-2.3.3-.7.6-1.2 1-1.7s.9-.8 1.5-1.1c.6-.2 1.2-.4 1.8-.4.6 0 1.2.1 1.8.4.6.2 1.1.6 1.5 1.1s.8 1 1 1.7c.3.7.4 1.4.4 2.3 0 .8-.1 1.6-.4 2.3-.3.7-.6 1.2-1 1.7s-.9.8-1.5 1c-.6.2-1.2.4-1.8.4-.6 0-1.2-.1-1.8-.4-.6-.2-1.1-.6-1.5-1-.5-.5-.8-1.1-1-1.7-.3-.8-.4-1.5-.4-2.3zm1.8 0c0 .6.1 1.1.2 1.6s.3.9.6 1.2c.3.3.6.6.9.8.4.2.8.3 1.2.3.4 0 .8-.1 1.2-.3.4-.2.7-.5.9-.8s.5-.8.6-1.2c.1-.5.2-1 .2-1.6s-.1-1.1-.2-1.6c-.1-.4-.3-.9-.6-1.3-.2-.3-.6-.6-.9-.8-.4-.2-.8-.3-1.2-.3-.4 0-.8.1-1.2.3-.4.2-.7.5-.9.8-.3.4-.5.8-.6 1.3-.1.5-.2 1-.2 1.6zm10.4-5.1h1.4l.1 1.5h.1c.5-.5 1-.9 1.5-1.2.6-.3 1.2-.5 1.9-.5 1.1 0 1.9.3 2.4 1s.7 1.7.7 3v6.5h-1.7v-6.2c0-1-.2-1.7-.5-2.1-.3-.4-.8-.6-1.5-.6-.5 0-1 .1-1.4.4-.5.3-1 .7-1.4 1.2v7.4h-1.7l.1-10.4z"/>
            <g transform="translate(62.335 10.777)">
                <g>
                    <path d="M81.7 76.7v3.8H53.4v5.1h28.3v-3.8h5.2v-5.1h-5.2z" fill-rule="evenodd"
                          clip-rule="evenodd" fill="#ffcb04"/>
                </g>
                <defs>
                    <filter height="8.8" width="35.1" y="76.2" x="53.4"
                            id="park-ga-logo_Adobe_OpacityMaskFilter">
                        <feColorMatrix values="1 0 0 0 0 0 1 0 0 0 0 0 1 0 0 0 0 0 1 0"/>
                    </filter>
                </defs>
                <mask id="park-ga-logo_b_2_" height="8.8" width="35.1" y="76.2" x="53.4">
                    <g filter="url(#park-ga-logo_Adobe_OpacityMaskFilter)">
                        <path d="M81.7 76.7v3.8H53.4v5.1h28.3v-3.8h5.2v-5.1h-5.2z"/>
                    </g>
                </mask>
                <g mask="url(#park-ga-logo_b_2_)">
                    <path d="M53.4 76.2h35.1V85H53.4v-8.8z" fill-rule="evenodd" clip-rule="evenodd"
                          fill="#ffbe00"/>
                </g>
            </g>
            <g transform="translate(62.335)">
                <g>
                    <path d="M60.2 68.5h-6.8v.9c1.2 0 1.9.2 1.9 2.2v15.9h3.3v-6.2h1.5l4.1 6.2h4.6v-.8c-1 0-1.6-.8-2.3-1.6l-3.1-4.3c2.4-.8 4.8-2.6 4.8-6.1-.1-3.9-2.7-6.2-8-6.2zm0 11.2l-1.6-.1V70h1c3.2 0 4.8 1.6 4.8 4.8 0 3.5-1.7 4.9-4.2 4.9zm15.9-11.2h-6.7v.9c1.2 0 1.9.3 1.9 2.2v15.9h3.3v-6.1h.7c5.2 0 8.6-1.9 8.6-6.5.1-3.9-2.2-6.4-7.8-6.4zm-.7 11.4h-.7V70H76c3.1 0 4.3 1.7 4.3 5.2 0 4-1.9 4.7-4.9 4.7zm24.4-11.7c-4.7 0-8.2 4-8.2 9.8 0 5.8 3.4 9.8 8.2 9.8 4.8 0 8.2-3.9 8.2-9.7.1-5.9-3.4-9.9-8.2-9.9zm0 1.5c2.7 0 4.6 2.8 4.6 8.3 0 5.6-1.7 8.3-4.6 8.3-2.7 0-4.6-2.8-4.6-8.3.1-5.6 1.7-8.3 4.6-8.3zm22.1 17.8h3.1v-19h-2.2V82l-7.7-13.6h-3.4v19h2.1V73.6l8.1 13.9zm8.2 0h9v-1.7h-5.7V68.5h-3.3v19zm11.7 0h3.2v-19h-3.2v19zm18.4 0h3.1v-19h-2.1v13.6l-7.7-13.6h-3.4v19h2.1V73.6l8 13.9zm8.2 0h9.9v-1.7h-6.6v-7.5h4.7v-1.7h-4.7v-6.5h5.7v-1.6h-9v19z"/>
                </g>
                <defs>
                    <filter height="22.8" width="126.4" y="68.1" x="53.4"
                            id="park-ga-logo_Adobe_OpacityMaskFilter_1_">
                        <feColorMatrix values="1 0 0 0 0 0 1 0 0 0 0 0 1 0 0 0 0 0 1 0"/>
                    </filter>
                </defs>
                <mask height="22.8" width="126.4" y="68.1" x="53.4">
                    <g filter="url(#park-ga-logo_Adobe_OpacityMaskFilter_1_)">
                        <path d="M60.2 68.5h-6.8v.9c1.2 0 1.9.2 1.9 2.2v15.9h3.3v-6.2h1.5l4.1 6.2h4.6v-.8c-1 0-1.6-.8-2.3-1.6l-3.1-4.3c2.4-.8 4.8-2.6 4.8-6.1-.1-3.9-2.7-6.2-8-6.2zm0 11.2l-1.6-.1V70h1c3.2 0 4.8 1.6 4.8 4.8 0 3.5-1.7 4.9-4.2 4.9zm15.9-11.2h-6.7v.9c1.2 0 1.9.3 1.9 2.2v15.9h3.3v-6.1h.7c5.2 0 8.6-1.9 8.6-6.5.1-3.9-2.2-6.4-7.8-6.4zm-.7 11.4h-.7V70H76c3.1 0 4.3 1.7 4.3 5.2 0 4-1.9 4.7-4.9 4.7zm24.4-11.7c-4.7 0-8.2 4-8.2 9.8 0 5.8 3.4 9.8 8.2 9.8 4.8 0 8.2-3.9 8.2-9.7.1-5.9-3.4-9.9-8.2-9.9zm0 1.5c2.7 0 4.6 2.8 4.6 8.3 0 5.6-1.7 8.3-4.6 8.3-2.7 0-4.6-2.8-4.6-8.3.1-5.6 1.7-8.3 4.6-8.3zm22.1 17.8h3.1v-19h-2.2V82l-7.7-13.6h-3.4v19h2.1V73.6l8.1 13.9zm8.2 0h9v-1.7h-5.7V68.5h-3.3v19zm11.7 0h3.2v-19h-3.2v19zm18.4 0h3.1v-19h-2.1v13.6l-7.7-13.6h-3.4v19h2.1V73.6l8 13.9zm8.2 0h9.9v-1.7h-6.6v-7.5h4.7v-1.7h-4.7v-6.5h5.7v-1.6h-9v19z"/>
                    </g>
                </mask>
            </g>
        </g>
    </a>
</svg>