<?xml version="1.0" encoding="utf-8"?>
<!-- Generator: Adobe Illustrator 25.1.0, SVG Export Plug-In . SVG Version: 6.00 Build 0)  -->
<svg version="1.1" id="Ebene_1" xmlns="http://www.w3.org/2000/svg" xmlns:xlink="http://www.w3.org/1999/xlink" x="0px" y="0px"
	 viewBox="0 0 345.4 32.5" style="enable-background:new 0 0 345.4 32.5;" xml:space="preserve" preserveAspectRatio="xMinYMid meet">
<style type="text/css">
	.st0{fill:url(#SVGID_1_);}
	.st1{fill:none;stroke:#000000;stroke-miterlimit:10;}
	.st2{fill:#51B15E;}
	.st3{fill:url(#SVGID_2_);}
	.st4{fill:#0087CC;}
	.st5{fill:#1D1D1B;}
</style>
<g>

		<linearGradient id="SVGID_1_" gradientUnits="userSpaceOnUse" x1="4384.6899" y1="874.2275" x2="4549.0898" y2="874.2275" gradientTransform="matrix(-1 0 0 1 4549.0898 -844.6775)">
		<stop  offset="0" style="stop-color:#51B15E;stop-opacity:0.5"/>
		<stop  offset="1" style="stop-color:#51B15E"/>
	</linearGradient>
	<polygon class="st0" points="0,26.6 164.4,26.6 164.4,32.5 0,32.5 	"/>
	<line class="st1" x1="0" y1="26.6" x2="164.4" y2="26.6"/>
	<g>
		<path class="st2" d="M3.3,14V0.2H11v3.1H8v2.2h2.4v3H7.9v2.4h3V14H3.3z"/>
		<path class="st2" d="M19.4,14l-1.1-3.7c-0.17-0.65-0.52-1.24-1-1.7V14h-4.5V0.8c1.54-0.56,3.16-0.83,4.8-0.8
			c3.9,0,6.2,1.4,6.2,4.5c0.04,1.56-0.93,2.97-2.4,3.5l0,0c0.5,0.62,0.94,1.29,1.3,2l1.7,4H19.4z M17.8,2.6h-0.4v4.1
			c0.16,0.04,0.33,0.08,0.5,0.1c1.1,0,1.5-1,1.5-2.1C19.3,3.2,18.8,2.6,17.8,2.6z"/>
		<path class="st2" d="M30.3,3.3v2.2h2.5v3h-2.5v5.4h-4.6V0.2h7.7v3.1H30.3z"/>
		<path class="st2" d="M41.3,3.3V14h-4.6V3.3h-2.1V0.2h8.8v3.1H41.3z"/>
		<path class="st2" d="M43.6,8.7V5.5h5.9v3.2L43.6,8.7z"/>
		<path class="st2" d="M58.2,14l-2.3-6.5l0,0V14h-4.6V0.2h4.6v6l0,0l2.5-6h4.7L60,6.5l3.4,7.5H58.2z"/>
		<path class="st2" d="M75,9.8c0,2.9-2.4,4.4-5.4,4.4s-5.4-1.5-5.4-4.4V0.2h4.6v9.6c0,0.5,0.4,0.9,0.9,0.9l0,0
			c0.46,0.03,0.87-0.31,0.9-0.78c0-0.04,0-0.08,0-0.12V0.2H75V9.8z"/>
		<path class="st2" d="M83.8,14l-1.1-3.7c-0.17-0.65-0.52-1.24-1-1.7V14h-4.5V0.8C78.74,0.24,80.36-0.03,82,0c3.9,0,6.2,1.4,6.2,4.5
			c0.04,1.56-0.93,2.97-2.4,3.5l0,0c0.5,0.62,0.94,1.29,1.3,2l1.7,4H83.8z M82.1,2.6h-0.4v4.1c0.16,0.04,0.33,0.08,0.5,0.1
			c1.1,0,1.5-1,1.5-2.1C83.7,3.2,83.2,2.6,82.1,2.6z"/>
		<path class="st2" d="M90,14V0.2h4.6V14H90z"/>
		<path class="st2" d="M96.8,14V0.2h7.7v3.1h-3v2.2h2.5v3h-2.6v2.4h3V14H96.8z"/>
		<path class="st2" d="M113,14l-1.1-3.7c-0.17-0.65-0.52-1.24-1-1.7V14h-4.5V0.8c1.54-0.56,3.16-0.83,4.8-0.8c3.9,0,6.2,1.4,6.2,4.5
			c0.04,1.56-0.93,2.97-2.4,3.5l0,0c0.5,0.62,0.94,1.29,1.3,2l1.7,4H113z M111.3,2.6h-0.4v4.1c0.16,0.04,0.33,0.08,0.5,0.1
			c1.1,0,1.5-1,1.5-2.1C112.8,3.2,112.4,2.6,111.3,2.6z"/>
	</g>
	<g>
		<path d="M30.3,21.3L30.3,21.3c0.2,0.2,0.3,0.5,0.5,0.7l0.9,1.9h-0.9L30,22c-0.2-0.4-0.4-0.7-0.8-0.8l-0.5,2.7h-0.8l1.1-5.6
			c0.47-0.2,0.98-0.31,1.5-0.3c1.1,0,1.8,0.5,1.8,1.3C32.23,20.37,31.37,21.23,30.3,21.3z M30.5,18.5c-0.24-0.02-0.48,0.01-0.7,0.1
			l-0.5,2.3h0.5c0.58,0.02,1.14-0.24,1.5-0.7c0.16-0.27,0.23-0.59,0.2-0.9C31.5,18.8,31.2,18.5,30.5,18.5z"/>
		<path d="M36.1,20.8l-0.6,2.9c-0.47,0.21-0.98,0.32-1.5,0.3c-0.9,0-1.5-0.3-1.5-1.2c-0.01-0.45,0.22-0.87,0.6-1.1
			c0.69-0.44,1.48-0.68,2.3-0.7l0.1-0.3v-0.3c0-0.4-0.3-0.6-0.8-0.6c-0.42,0-0.83,0.11-1.2,0.3l-0.1-0.5c0.44-0.19,0.92-0.3,1.4-0.3
			c0.9,0,1.4,0.4,1.4,1.1C36.1,20.5,36.1,20.6,36.1,20.8z M33.6,21.9c-0.25,0.23-0.39,0.56-0.4,0.9c0,0.6,0.4,0.8,0.9,0.8
			c0.28-0.01,0.55-0.07,0.8-0.2l0.4-2.1C34.7,21.37,34.11,21.58,33.6,21.9z"/>
		<path d="M39.2,19.8h-0.8l-0.6,2.9V23c-0.02,0.2,0.13,0.38,0.34,0.4c0.02,0,0.04,0,0.06,0h0.3l-0.1,0.5c-0.1,0-0.3,0.1-0.4,0.1
			c-0.46,0.03-0.87-0.31-0.9-0.78c0-0.04,0-0.08,0-0.12v-0.4l0.6-2.9h-0.5l0.1-0.5h0.5l0.2-1.1l0.8-0.2l-0.2,1.3h0.8L39.2,19.8z"/>
		<path d="M43.3,20.8l-0.6,3.1H42l0.6-3.1v-0.3c0-0.4-0.2-0.7-0.8-0.7c-0.31,0.02-0.61,0.09-0.9,0.2l-0.8,3.9h-0.7l1.3-6.7h0.7
			l-0.5,2.3c0.33-0.2,0.71-0.31,1.1-0.3c0.9,0,1.3,0.5,1.3,1.1L43.3,20.8z"/>
		<path d="M47.5,20.8l-0.6,2.9c-0.47,0.21-0.98,0.32-1.5,0.3c-0.9,0-1.5-0.3-1.5-1.2c-0.01-0.45,0.22-0.87,0.6-1.1
			c0.69-0.44,1.48-0.68,2.3-0.7l0.1-0.3v-0.3c0-0.4-0.3-0.6-0.8-0.6c-0.42,0-0.83,0.11-1.2,0.3l-0.1-0.5c0.44-0.19,0.92-0.3,1.4-0.3
			c0.9,0,1.4,0.4,1.4,1.1C47.5,20.5,47.5,20.6,47.5,20.8z M45,21.9c-0.25,0.23-0.39,0.56-0.4,0.9c0,0.6,0.4,0.8,0.9,0.8
			c0.28-0.01,0.55-0.07,0.8-0.2l0.4-2.1C46.1,21.39,45.52,21.59,45,21.9z"/>
		<path d="M51.4,23.7c-0.51,0.21-1.05,0.32-1.6,0.3c-0.9,0-1.4-0.4-1.4-1.2v-0.4l0.6-3h0.7l-0.6,3v0.4c0,0.5,0.3,0.7,0.8,0.7
			c0.28,0.04,0.57-0.03,0.8-0.2l0.8-4h0.7L51.4,23.7z"/>
		<path d="M55.5,20c-0.23-0.17-0.52-0.24-0.8-0.2c-0.45-0.04-0.85,0.29-0.9,0.74c0,0.02,0,0.04,0,0.06c0,0.8,1.5,0.7,1.5,1.9
			c-0.06,0.89-0.83,1.57-1.73,1.51c-0.02,0-0.05,0-0.07-0.01c-0.42,0.01-0.83-0.1-1.2-0.3l0.3-0.5c0.26,0.19,0.58,0.29,0.9,0.3
			c0.51,0.04,0.95-0.33,1-0.84c0-0.02,0-0.04,0-0.06c0-0.9-1.5-0.7-1.5-1.9c0.04-0.82,0.74-1.44,1.55-1.4c0.02,0,0.03,0,0.05,0
			c0.39-0.01,0.77,0.1,1.1,0.3L55.5,20z"/>
		<path d="M58.1,21.4h-1.9l0.1-0.6h1.9L58.1,21.4z"/>
		<path d="M59.2,23.4h2.2l-0.1,0.5H58l3.2-5.3h-2.1l0.1-0.5h3.2L59.2,23.4z"/>
		<path d="M66,21.5l-3,0.4v0.3c-0.07,0.59,0.36,1.13,0.95,1.19c0.05,0.01,0.1,0.01,0.15,0.01c0.42,0,0.83-0.11,1.2-0.3l0.1,0.5
			c-0.44,0.2-0.92,0.31-1.4,0.3c-0.89,0.06-1.65-0.62-1.71-1.51c-0.01-0.1,0-0.2,0.01-0.29c0-1.3,0.7-3,2.3-3c0.9,0,1.4,0.5,1.4,1.5
			L66,21.5z M64.5,19.7c-0.8,0-1.3,0.7-1.5,1.8l2.3-0.3c0.02-0.17,0.06-0.34,0.1-0.5C65.4,20.1,65.1,19.7,64.5,19.7z"/>
		<path d="M67.3,23.9h-0.7l0.9-4.6h0.7L67.3,23.9z M68,18.5c-0.21-0.01-0.39-0.19-0.4-0.4c-0.02-0.26,0.18-0.48,0.44-0.5
			c0.02,0,0.04,0,0.06,0c0.21,0.01,0.39,0.19,0.4,0.4c0.02,0.26-0.18,0.48-0.44,0.5C68.04,18.5,68.02,18.5,68,18.5z"/>
		<path d="M71.2,19.8h-0.8l-0.6,2.9V23c-0.02,0.2,0.13,0.38,0.34,0.4c0.02,0,0.04,0,0.06,0h0.3l-0.1,0.5c-0.1,0-0.3,0.1-0.4,0.1
			c-0.46,0.03-0.87-0.31-0.9-0.78c0-0.04,0-0.08,0-0.12v-0.4l0.6-2.9h-0.5l0.1-0.5h0.5l0.2-1.1l0.8-0.2l-0.2,1.3h0.8L71.2,19.8z"/>
		<path d="M74.6,23.7c-0.51,0.21-1.05,0.32-1.6,0.3c-0.9,0-1.4-0.4-1.4-1.2c-0.01-0.14,0.02-0.28,0.1-0.4l0.6-3H73l-0.6,3v0.4
			c0,0.5,0.3,0.7,0.8,0.7c0.28,0.04,0.57-0.03,0.8-0.2l0.8-4h0.6L74.6,23.7z"/>
		<path d="M79.7,20.9l-0.6,3h-0.7l0.6-3.1c0-0.1,0.1-0.3,0.1-0.4c0-0.4-0.2-0.7-0.9-0.7c-0.28-0.04-0.57,0.03-0.8,0.2l-0.8,4h-0.7
			l0.8-4.3c0.51-0.2,1.05-0.31,1.6-0.3c1,0,1.5,0.5,1.5,1.2C79.72,20.62,79.69,20.76,79.7,20.9z"/>
		<path d="M83.5,24c-0.07,1.06-0.98,1.87-2.05,1.8c-0.02,0-0.03,0-0.05,0c-0.48,0.01-0.96-0.1-1.4-0.3l0.3-0.5
			c0.3,0.19,0.65,0.29,1,0.3c0.71,0.04,1.33-0.49,1.4-1.2l0.1-0.3c-0.28,0.12-0.59,0.19-0.9,0.2c-0.9,0-1.4-0.7-1.4-1.7
			s0.6-3.1,2.6-3.1c0.45-0.02,0.9,0.08,1.3,0.3L83.5,24z M83,19.7c-0.6-0.01-1.16,0.35-1.4,0.9c-0.23,0.54-0.36,1.12-0.4,1.7
			c0,0.7,0.2,1.2,1,1.2c0.28-0.01,0.55-0.07,0.8-0.2l0.7-3.5C83.4,19.8,83.2,19.7,83,19.7z"/>
		<path d="M90.8,18.8c-0.26-0.19-0.58-0.29-0.9-0.3c-0.64-0.07-1.22,0.39-1.29,1.03c0,0.02,0,0.05-0.01,0.07c0,1.1,1.9,1,1.9,2.5
			c-0.05,1.1-0.98,1.96-2.09,1.91c-0.04,0-0.07,0-0.11-0.01c-0.48,0.01-0.96-0.1-1.4-0.3l0.3-0.5c0.33,0.2,0.71,0.31,1.1,0.3
			c0.65,0.07,1.23-0.41,1.29-1.05c0-0.05,0.01-0.1,0.01-0.15c0-1.1-1.9-1-1.9-2.5c0.02-1.02,0.87-1.83,1.89-1.81
			c0.04,0,0.07,0,0.11,0.01c0.42-0.02,0.84,0.08,1.2,0.3L90.8,18.8z"/>
		<path d="M93.7,19.8h-0.8l-0.6,2.9V23c-0.02,0.2,0.13,0.38,0.34,0.4c0.02,0,0.04,0,0.06,0H93l-0.1,0.5c-0.1,0-0.3,0.1-0.4,0.1
			c-0.46,0.03-0.87-0.31-0.9-0.78c0-0.04,0-0.08,0-0.12v-0.4l0.6-2.9h-0.5l0.1-0.5h0.5l0.2-1.1l0.8-0.2l-0.2,1.3h0.8L93.7,19.8z"/>
		<path d="M97.5,20.8l-0.6,2.9c-0.47,0.21-0.98,0.32-1.5,0.3c-0.9,0-1.5-0.3-1.5-1.2c-0.01-0.45,0.22-0.87,0.6-1.1
			c0.69-0.44,1.48-0.68,2.3-0.7l0.1-0.3v-0.3c0-0.4-0.3-0.6-0.8-0.6c-0.42,0-0.83,0.11-1.2,0.3l-0.1-0.5c0.44-0.19,0.92-0.3,1.4-0.3
			c0.9,0,1.4,0.4,1.4,1.1C97.5,20.5,97.5,20.6,97.5,20.8z M95,21.9c-0.25,0.23-0.39,0.56-0.4,0.9c0,0.6,0.4,0.8,0.9,0.8
			c0.28-0.01,0.55-0.07,0.8-0.2l0.4-2.1C96.1,21.39,95.52,21.59,95,21.9z"/>
		<path d="M101.4,23.7c-0.47,0.21-0.98,0.32-1.5,0.3c-0.83,0.06-1.55-0.56-1.61-1.38c-0.01-0.11,0-0.21,0.01-0.32c0-1.3,0.8-3,2.5-3
			c0.24-0.02,0.48,0.02,0.7,0.1l0.4-2.1h0.7L101.4,23.7z M100.9,19.8c-0.6,0.01-1.14,0.36-1.4,0.9c-0.27,0.49-0.41,1.04-0.4,1.6
			c0,0.7,0.3,1.2,1,1.2c0.24,0.02,0.48-0.02,0.7-0.1l0.7-3.6L100.9,19.8z"/>
		<path d="M105.2,19.8h-0.8l-0.6,2.9V23c-0.02,0.2,0.13,0.38,0.34,0.4c0.02,0,0.04,0,0.06,0h0.3l-0.1,0.5c-0.1,0-0.3,0.1-0.4,0.1
			c-0.46,0.03-0.87-0.31-0.9-0.78c0-0.04,0-0.08,0-0.12v-0.4l0.6-2.9h-0.5l0.1-0.5h0.5l0.2-1.1l0.8-0.2l-0.2,1.3h0.8L105.2,19.8z"/>
		<path d="M112.2,18.8c-0.3-0.17-0.65-0.24-1-0.2c-0.93,0-1.74,0.61-2,1.5c-0.24,0.57-0.37,1.18-0.4,1.8c0,1,0.5,1.6,1.3,1.6
			c0.27,0.02,0.54-0.01,0.8-0.1l0.4-2.2h-1.1l0.1-0.5h1.8l-0.6,3.1c-0.47,0.2-0.98,0.31-1.5,0.3c-1.1,0.01-2-0.89-2.01-1.99
			c0-0.07,0-0.14,0.01-0.21c0-1.8,1.1-3.8,3.2-3.8c0.45-0.01,0.9,0.1,1.3,0.3L112.2,18.8z"/>
		<path d="M115.3,19.9c-0.2,0-0.3-0.1-0.4-0.1c-0.21-0.02-0.41,0.02-0.6,0.1l-0.8,4h-0.7l0.8-4.3c0.51-0.2,1.05-0.31,1.6-0.3h0.4
			L115.3,19.9z"/>
		<path d="M119.3,21.5l-3,0.4v0.3c-0.07,0.59,0.36,1.13,0.95,1.19c0.05,0.01,0.1,0.01,0.15,0.01c0.42,0,0.83-0.11,1.2-0.3l0.1,0.5
			c-0.44,0.2-0.92,0.31-1.4,0.3c-0.89,0.06-1.65-0.62-1.71-1.51c-0.01-0.1,0-0.2,0.01-0.29c0-1.3,0.7-3,2.3-3c0.9,0,1.4,0.5,1.4,1.5
			V21.5z M117.8,19.7c-0.8,0-1.3,0.7-1.5,1.8l2.3-0.3c0.02-0.17,0.06-0.34,0.1-0.5C118.7,20.1,118.4,19.7,117.8,19.7z"/>
		<path d="M121.5,23.9h-0.7l-0.6-4.6h0.8l0.3,3.3v0.6l0,0c0.1-0.2,0.1-0.4,0.2-0.6l1.6-3.3h0.7L121.5,23.9z"/>
		<path d="M127.7,21.5l-3,0.4v0.3c-0.07,0.59,0.36,1.13,0.95,1.19c0.05,0.01,0.1,0.01,0.15,0.01c0.42,0,0.83-0.11,1.2-0.3l0.1,0.5
			c-0.44,0.2-0.92,0.31-1.4,0.3c-0.89,0.06-1.65-0.62-1.71-1.51c-0.01-0.1,0-0.2,0.01-0.29c0-1.3,0.7-3,2.3-3c0.9,0,1.4,0.5,1.4,1.5
			C127.8,20.89,127.8,21.21,127.7,21.5z M126.3,19.7c-0.8,0-1.3,0.7-1.5,1.8l2.3-0.3c0.02-0.17,0.06-0.34,0.1-0.5
			C127.1,20.1,126.9,19.7,126.3,19.7z"/>
		<path d="M132.2,20.9l-0.6,3.1h-0.7l0.6-3.1c0-0.1,0.1-0.3,0.1-0.4c0-0.4-0.2-0.7-0.9-0.7c-0.28-0.04-0.57,0.03-0.8,0.2l-0.8,4
			h-0.7l0.8-4.3c0.51-0.2,1.05-0.31,1.6-0.3c1,0,1.5,0.5,1.5,1.2C132.25,20.69,132.22,20.8,132.2,20.9z"/>
		<path d="M134.2,24c-0.45,0.02-0.9-0.08-1.3-0.3l1.3-6.4h0.7l-0.4,2.2c0.29-0.11,0.59-0.18,0.9-0.2c1,0,1.4,0.7,1.4,1.7
			c0.13,1.52-1,2.87-2.53,2.99C134.25,24,134.22,24,134.2,24z M135.1,19.7c-0.28,0.01-0.55,0.07-0.8,0.2l-0.7,3.5
			c0.19,0.08,0.39,0.12,0.6,0.1c0.59-0.03,1.12-0.38,1.4-0.9c0.24-0.54,0.37-1.11,0.4-1.7c0.14-0.5-0.14-1.02-0.64-1.16
			C135.27,19.71,135.19,19.7,135.1,19.7z"/>
		<path d="M139.9,19.9c-0.2,0-0.3-0.1-0.4-0.1c-0.21-0.02-0.41,0.02-0.6,0.1l-0.8,4h-0.7l0.8-4.3c0.51-0.2,1.05-0.31,1.6-0.3h0.4
			L139.9,19.9z"/>
		<path d="M141.6,24c-1,0-1.4-0.7-1.4-1.7s0.5-3.1,2.3-3.1c1,0,1.4,0.7,1.4,1.7S143.4,24,141.6,24z M142.4,19.8
			c-0.52,0.05-0.95,0.4-1.1,0.9c-0.22,0.54-0.35,1.12-0.4,1.7c0,0.7,0.2,1.1,0.8,1.1c0.52-0.05,0.95-0.4,1.1-0.9
			c0.22-0.54,0.35-1.12,0.4-1.7C143.2,20.2,143,19.8,142.4,19.8z"/>
		<path d="M145.2,23.9h-0.7l0.9-4.6h0.7L145.2,23.9z M145.9,18.5c-0.21-0.01-0.39-0.19-0.4-0.4c-0.02-0.26,0.18-0.48,0.44-0.5
			c0.02,0,0.04,0,0.06,0c0.21,0.01,0.39,0.19,0.4,0.4c0.02,0.26-0.18,0.48-0.44,0.5C145.94,18.5,145.92,18.5,145.9,18.5z"/>
		<path d="M149.7,20c-0.21-0.13-0.45-0.19-0.7-0.2c-0.55,0.03-1.02,0.38-1.2,0.9c-0.23,0.51-0.36,1.05-0.4,1.6
			c0,0.7,0.3,1.2,0.9,1.2c0.25-0.01,0.49-0.07,0.7-0.2l0.1,0.5c-0.32,0.22-0.71,0.32-1.1,0.3c-0.9,0-1.4-0.7-1.4-1.7
			c0-1.4,0.8-3,2.3-3c0.36-0.02,0.71,0.08,1,0.3L149.7,20z"/>
		<path d="M153.9,20.8l-0.6,3.1h-0.7l0.6-3.1v-0.3c0-0.4-0.2-0.7-0.8-0.7c-0.31,0.02-0.61,0.09-0.9,0.2l-0.8,3.9H150l1.3-6.7h0.7
			l-0.4,2.3c0.33-0.2,0.71-0.31,1.1-0.3c0.9,0,1.3,0.5,1.3,1.1C154,20.6,154,20.7,153.9,20.8z"/>
	</g>
	<g>
		<path d="M2.9,21c0.01-0.21,0.19-0.39,0.4-0.4l0,0c0.21,0.01,0.39,0.19,0.4,0.4l0,0c-0.01,0.21-0.19,0.39-0.4,0.4l0,0
			C3.09,21.39,2.91,21.21,2.9,21z M1.7,21c0.01-0.21,0.19-0.39,0.4-0.4l0,0c0.21,0.01,0.39,0.19,0.4,0.4l0,0
			c-0.01,0.21-0.19,0.39-0.4,0.4l0,0c-0.2,0.02-0.38-0.13-0.4-0.34C1.7,21.04,1.7,21.02,1.7,21z"/>
		<path d="M25.2,21c0.01-0.21,0.19-0.39,0.4-0.4l0,0c0.21,0.01,0.39,0.19,0.4,0.4l0,0c-0.01,0.21-0.19,0.39-0.4,0.4l0,0
			c-0.2,0.02-0.38-0.13-0.4-0.34C25.2,21.04,25.2,21.02,25.2,21z M23.9,21c0.01-0.21,0.19-0.39,0.4-0.4l0,0
			c0.21,0.01,0.39,0.19,0.4,0.4l0,0c-0.01,0.21-0.19,0.39-0.4,0.4l0,0C24.09,21.39,23.91,21.21,23.9,21z M22.7,21
			c0.01-0.21,0.19-0.39,0.4-0.4l0,0c0.21,0.01,0.39,0.19,0.4,0.4l0,0c-0.01,0.21-0.19,0.39-0.4,0.4l0,0
			C22.89,21.39,22.71,21.21,22.7,21z M21.4,21c0.01-0.21,0.19-0.39,0.4-0.4l0,0c0.21,0.01,0.39,0.19,0.4,0.4l0,0
			c-0.01,0.21-0.19,0.39-0.4,0.4l0,0C21.59,21.39,21.41,21.21,21.4,21z M20.2,21c0.01-0.21,0.19-0.39,0.4-0.4l0,0
			c0.21,0.01,0.39,0.19,0.4,0.4l0,0c-0.01,0.21-0.19,0.39-0.4,0.4l0,0C20.39,21.39,20.21,21.21,20.2,21z M19,21
			c0.01-0.21,0.19-0.39,0.4-0.4l0,0c0.21,0.01,0.39,0.19,0.4,0.4l0,0c-0.01,0.21-0.19,0.39-0.4,0.4l0,0
			c-0.2,0.02-0.38-0.13-0.4-0.34C19,21.04,19,21.02,19,21z M17.7,21c0.01-0.21,0.19-0.39,0.4-0.4l0,0c0.21,0.01,0.39,0.19,0.4,0.4
			l0,0c-0.01,0.21-0.19,0.39-0.4,0.4l0,0C17.89,21.39,17.71,21.21,17.7,21z M16.5,21c0.01-0.21,0.19-0.39,0.4-0.4l0,0
			c0.21,0.01,0.39,0.19,0.4,0.4l0,0c-0.01,0.21-0.19,0.39-0.4,0.4l0,0C16.69,21.39,16.51,21.21,16.5,21z M15.3,21
			c0.01-0.21,0.19-0.39,0.4-0.4l0,0c0.21,0.01,0.39,0.19,0.4,0.4l0,0c-0.01,0.21-0.19,0.39-0.4,0.4l0,0
			c-0.2,0.02-0.38-0.13-0.4-0.34C15.3,21.04,15.3,21.02,15.3,21z M14,21c0.01-0.21,0.19-0.39,0.4-0.4l0,0
			c0.21,0.01,0.39,0.19,0.4,0.4l0,0c-0.01,0.21-0.19,0.39-0.4,0.4l0,0C14.19,21.39,14.01,21.21,14,21z M12.8,21
			c0.01-0.21,0.19-0.39,0.4-0.4l0,0c0.21,0.01,0.39,0.19,0.4,0.4l0,0c-0.01,0.21-0.19,0.39-0.4,0.4l0,0
			C12.99,21.39,12.81,21.21,12.8,21z M11.6,21c0.01-0.21,0.19-0.39,0.4-0.4l0,0c0.21,0.01,0.39,0.19,0.4,0.4l0,0
			c-0.01,0.21-0.19,0.39-0.4,0.4l0,0c-0.2,0.02-0.38-0.13-0.4-0.34C11.6,21.04,11.6,21.02,11.6,21z M10.3,21
			c0.01-0.21,0.19-0.39,0.4-0.4l0,0c0.21,0.01,0.39,0.19,0.4,0.4l0,0c-0.01,0.21-0.19,0.39-0.4,0.4l0,0
			C10.49,21.39,10.31,21.21,10.3,21z M9.1,21c0.01-0.21,0.19-0.39,0.4-0.4l0,0c0.21,0.01,0.39,0.19,0.4,0.4l0,0
			c-0.01,0.21-0.19,0.39-0.4,0.4l0,0C9.29,21.39,9.11,21.21,9.1,21z M7.9,21c0.01-0.21,0.19-0.39,0.4-0.4l0,0
			c0.21,0.01,0.39,0.19,0.4,0.4l0,0c-0.01,0.21-0.19,0.39-0.4,0.4l0,0c-0.2,0.02-0.38-0.13-0.4-0.34C7.9,21.04,7.9,21.02,7.9,21z
			 M6.6,21c0.01-0.21,0.19-0.39,0.4-0.4l0,0c0.21,0.01,0.39,0.19,0.4,0.4h0c-0.01,0.21-0.19,0.39-0.4,0.4l0,0
			C6.79,21.39,6.61,21.21,6.6,21z M5.4,21c0.01-0.21,0.19-0.39,0.4-0.4l0,0c0.21,0.01,0.39,0.19,0.4,0.4l0,0
			c-0.01,0.21-0.19,0.39-0.4,0.4l0,0C5.59,21.39,5.41,21.21,5.4,21z M4.1,21c0.01-0.21,0.19-0.39,0.4-0.4l0,0
			c0.21,0.01,0.39,0.19,0.4,0.4l0,0c-0.01,0.21-0.19,0.39-0.4,0.4l0,0C4.29,21.39,4.11,21.21,4.1,21z"/>
		<path d="M26.4,21c0.01-0.21,0.19-0.39,0.4-0.4l0,0c0.21,0.01,0.39,0.19,0.4,0.4l0,0c-0.01,0.21-0.19,0.39-0.4,0.4l0,0
			c-0.2,0.02-0.38-0.13-0.4-0.34C26.4,21.04,26.4,21.02,26.4,21z"/>
		<path d="M0.4,21c0.01-0.21,0.19-0.39,0.4-0.4l0,0c0.21,0.01,0.39,0.19,0.4,0.4l0,0c-0.01,0.21-0.19,0.39-0.4,0.4l0,0
			c-0.2,0.02-0.38-0.13-0.4-0.34C0.4,21.04,0.4,21.02,0.4,21z"/>
	</g>
</g>
<linearGradient id="SVGID_2_" gradientUnits="userSpaceOnUse" x1="4203.6899" y1="874.2275" x2="4368.0898" y2="874.2275" gradientTransform="matrix(-1 0 0 1 4549.0898 -844.6775)">
	<stop  offset="0" style="stop-color:#0087CC;stop-opacity:0.5"/>
	<stop  offset="1" style="stop-color:#0087CC"/>
</linearGradient>
<polygon class="st3" points="181,26.6 345.4,26.6 345.4,32.5 181,32.5 "/>
<line class="st1" x1="181" y1="26.6" x2="345.4" y2="26.6"/>
<g>
	<path class="st4" d="M190.77,3.36v10.65h-4.63V3.36h-2.06v-3.1h8.75v3.1H190.77z"/>
	<path class="st4" d="M199.34,14.25c-3.88,0-5.79-2.92-5.79-7.11c0-4.19,1.92-7.11,5.79-7.11s5.79,2.92,5.79,7.11
		C205.13,11.33,203.21,14.25,199.34,14.25z M199.34,3.14c-0.88,0-1.12,1.42-1.12,3.9c0,2.48,0.24,3.89,1.12,3.89
		s1.12-1.42,1.12-3.89C200.46,4.56,200.22,3.14,199.34,3.14z"/>
	<path class="st4" d="M211.81,9.38c-0.12,0-0.16,0-0.4-0.02v4.65h-4.53V0.87c1.26-0.52,2.96-0.84,4.91-0.84
		c4.39,0,5.99,2.18,5.99,4.65C217.78,7.38,215.9,9.38,211.81,9.38z M211.83,2.6c-0.16,0-0.3,0.02-0.42,0.04v4.09
		c0.18,0.02,0.26,0.02,0.4,0.02c1.1,0,1.56-0.72,1.56-2.1C213.36,3.32,212.96,2.6,211.83,2.6z"/>
	<path class="st4" d="M219.24,8.72V5.56h5.91v3.16H219.24z"/>
	<path class="st4" d="M233.9,14.01l-2.34-6.51h-0.04v6.51h-4.59V0.27h4.59V6.3h0.04l2.5-6.03h4.69l-3.12,6.25l3.42,7.49H233.9z"/>
	<path class="st4" d="M250.66,9.82c0,2.92-2.38,4.43-5.37,4.43s-5.37-1.52-5.37-4.43V0.27h4.63v9.61c0,0.54,0.36,0.86,0.9,0.86
		c0.54,0,0.86-0.32,0.86-0.86V0.27h4.35V9.82z"/>
	<path class="st4" d="M259.43,14.01l-1.12-3.73c-0.2-0.64-0.54-1.3-1-1.7v5.43h-4.53V0.87c1.28-0.54,2.92-0.84,4.83-0.84
		c3.93,0,6.21,1.42,6.21,4.45c0,1.72-0.84,2.7-2.38,3.48V8c0.54,0.56,1.02,1.36,1.32,2.04l1.7,3.97H259.43z M257.75,2.6
		c-0.18,0-0.34,0.02-0.44,0.04v4.07c0.1,0.04,0.26,0.06,0.46,0.06c1.08,0,1.52-1.02,1.52-2.12C259.29,3.26,258.83,2.6,257.75,2.6z"
		/>
	<path class="st4" d="M265.64,14.01V0.27h4.63v13.74H265.64z"/>
	<path class="st4" d="M272.4,14.01V0.27h7.65v3.1h-3.02v2.22h2.54V8.6h-2.54v2.32h3.02v3.1H272.4z"/>
	<path class="st4" d="M288.56,14.01l-1.12-3.73c-0.2-0.64-0.54-1.3-1-1.7v5.43h-4.53V0.87c1.28-0.54,2.92-0.84,4.83-0.84
		c3.93,0,6.21,1.42,6.21,4.45c0,1.72-0.84,2.7-2.38,3.48V8c0.54,0.56,1.02,1.36,1.32,2.04l1.7,3.97H288.56z M286.88,2.6
		c-0.18,0-0.34,0.02-0.44,0.04v4.07c0.1,0.04,0.26,0.06,0.46,0.06c1.08,0,1.52-1.02,1.52-2.12C288.42,3.26,287.96,2.6,286.88,2.6z"
		/>
</g>
<g>
	<path class="st5" d="M212.88,23.96h-0.78l0.53-2.76h-2.2l-0.53,2.76h-0.78l1.14-5.84h0.78l-0.5,2.56h2.2l0.5-2.56h0.78
		L212.88,23.96z"/>
	<path class="st5" d="M214.94,23.96h-0.75l0.89-4.57h0.75L214.94,23.96z M215.65,18.51c-0.22,0-0.38-0.17-0.38-0.37
		c0-0.25,0.22-0.47,0.51-0.47c0.22,0,0.38,0.16,0.38,0.36C216.15,18.29,215.93,18.51,215.65,18.51z"/>
	<path class="st5" d="M220.11,20.92l-0.59,3.05h-0.75l0.58-3.06c0.03-0.14,0.05-0.3,0.05-0.42c0-0.44-0.24-0.7-0.86-0.7
		c-0.31,0-0.58,0.05-0.83,0.15l-0.78,4.03h-0.75l0.84-4.33c0.48-0.21,1.02-0.32,1.61-0.32c1.02,0,1.5,0.47,1.5,1.16
		C220.15,20.63,220.13,20.78,220.11,20.92z"/>
	<path class="st5" d="M224.97,23.96h-0.65l-0.29-3.28c-0.01-0.11-0.01-0.23-0.01-0.37v-0.16H224c-0.05,0.17-0.1,0.34-0.19,0.53
		l-1.56,3.28h-0.65l-0.42-4.57h0.75l0.16,3.29v0.16c0,0.09,0,0.18-0.02,0.4h0.02c0.07-0.21,0.14-0.39,0.22-0.56l1.56-3.29h0.64
		l0.26,3.29c0.01,0.12,0.02,0.25,0.02,0.35c0,0.03,0,0.11-0.01,0.21h0.02c0.06-0.21,0.12-0.39,0.19-0.56l1.45-3.29h0.72
		L224.97,23.96z"/>
	<path class="st5" d="M230.99,21.54l-2.96,0.43c-0.02,0.12-0.03,0.23-0.03,0.33c0,0.75,0.37,1.21,1.14,1.21
		c0.42,0,0.85-0.12,1.16-0.28l0.1,0.49c-0.38,0.2-0.91,0.32-1.42,0.32c-1.08,0-1.66-0.65-1.66-1.76c0-1.25,0.7-2.99,2.33-2.99
		c0.9,0,1.43,0.53,1.43,1.49C231.08,21.03,231.05,21.26,230.99,21.54z M229.58,19.77c-0.77,0-1.3,0.73-1.49,1.79l2.26-0.34
		c0.03-0.2,0.05-0.38,0.05-0.54C230.39,20.09,230.14,19.77,229.58,19.77z"/>
	<path class="st5" d="M232.35,23.96h-0.75l0.89-4.57h0.75L232.35,23.96z M233.05,18.51c-0.22,0-0.38-0.17-0.38-0.37
		c0-0.25,0.22-0.47,0.51-0.47c0.22,0,0.38,0.16,0.38,0.36C233.56,18.29,233.34,18.51,233.05,18.51z"/>
	<path class="st5" d="M236.57,20.04c-0.23-0.15-0.48-0.25-0.8-0.25c-0.61,0-0.92,0.43-0.92,0.84c0,0.81,1.54,0.66,1.54,1.91
		c0,0.82-0.72,1.5-1.82,1.5c-0.42,0-0.87-0.11-1.19-0.31l0.3-0.47c0.25,0.16,0.58,0.25,0.9,0.25c0.59,0,1.04-0.41,1.04-0.92
		c0-0.87-1.51-0.7-1.51-1.9c0-0.73,0.59-1.39,1.63-1.39c0.44,0,0.81,0.11,1.1,0.31L236.57,20.04z"/>
	<path class="st5" d="M238.52,24.05c-0.5,0-1-0.12-1.33-0.32l1.25-6.42h0.74l-0.42,2.22c0.3-0.14,0.62-0.2,0.93-0.2
		c0.95,0,1.42,0.71,1.42,1.66C241.1,22.23,240.43,24.05,238.52,24.05z M239.46,19.77c-0.26,0-0.57,0.09-0.8,0.2l-0.68,3.49
		c0.18,0.08,0.39,0.12,0.62,0.12c0.63,0,1.07-0.36,1.37-0.93c0.24-0.46,0.41-1.13,0.41-1.65C240.38,20.3,240.1,19.77,239.46,19.77z"
		/>
	<path class="st5" d="M242.42,23.96h-0.75l1.29-6.66h0.75L242.42,23.96z"/>
	<path class="st5" d="M247.33,20.8l-0.57,2.93c-0.4,0.2-0.94,0.32-1.53,0.32c-0.86,0-1.52-0.34-1.52-1.2c0-0.46,0.2-0.83,0.58-1.14
		c0.53-0.42,1.34-0.63,2.3-0.72l0.06-0.29c0.02-0.09,0.03-0.18,0.03-0.26c0-0.44-0.28-0.64-0.82-0.64c-0.4,0-0.85,0.13-1.2,0.3
		l-0.08-0.47c0.44-0.22,0.95-0.33,1.43-0.33c0.87,0,1.37,0.36,1.37,1.13C247.36,20.53,247.35,20.66,247.33,20.8z M244.82,21.97
		c-0.25,0.22-0.4,0.52-0.4,0.85c0,0.58,0.43,0.8,0.93,0.8c0.27,0,0.55-0.06,0.76-0.16l0.4-2.06
		C245.75,21.48,245.17,21.64,244.82,21.97z"/>
	<path class="st5" d="M250.42,19.85h-0.81l-0.56,2.88c-0.03,0.14-0.03,0.22-0.03,0.33c0,0.25,0.18,0.41,0.43,0.41
		c0.1,0,0.2-0.03,0.27-0.05l-0.1,0.5c-0.12,0.05-0.25,0.08-0.42,0.08c-0.58,0-0.92-0.36-0.92-0.89c0-0.13,0.02-0.26,0.04-0.39
		l0.55-2.88h-0.52l0.08-0.47h0.53l0.2-1.05l0.79-0.23l-0.25,1.28h0.8L250.42,19.85z"/>
	<path class="st5" d="M253.15,19.85h-0.81l-0.56,2.88c-0.03,0.14-0.03,0.22-0.03,0.33c0,0.25,0.18,0.41,0.43,0.41
		c0.1,0,0.2-0.03,0.27-0.05l-0.1,0.5c-0.12,0.05-0.25,0.08-0.42,0.08c-0.58,0-0.92-0.36-0.92-0.89c0-0.13,0.02-0.26,0.04-0.39
		l0.55-2.88h-0.52l0.08-0.47h0.53l0.2-1.05l0.79-0.23l-0.25,1.28h0.8L253.15,19.85z"/>
	<path class="st5" d="M258.93,23.72c-0.37,0.2-0.91,0.32-1.48,0.32c-1.09,0-1.63-0.7-1.63-1.71c0-1.3,0.77-3,2.52-3
		c0.23,0,0.46,0.03,0.69,0.09l0.42-2.13h0.74L258.93,23.72z M258.38,19.78c-0.67,0-1.13,0.37-1.42,0.92
		c-0.25,0.47-0.42,1.11-0.42,1.64c0,0.69,0.3,1.21,1.02,1.21c0.25,0,0.52-0.04,0.69-0.13l0.7-3.55
		C258.77,19.81,258.58,19.78,258.38,19.78z"/>
	<path class="st5" d="M263.98,21.54l-2.96,0.43c-0.02,0.12-0.03,0.23-0.03,0.33c0,0.75,0.37,1.21,1.14,1.21
		c0.42,0,0.85-0.12,1.16-0.28l0.1,0.49c-0.38,0.2-0.91,0.32-1.42,0.32c-1.08,0-1.66-0.65-1.66-1.76c0-1.25,0.7-2.99,2.33-2.99
		c0.9,0,1.43,0.53,1.43,1.49C264.06,21.03,264.04,21.26,263.98,21.54z M262.56,19.77c-0.77,0-1.3,0.73-1.49,1.79l2.26-0.34
		c0.03-0.2,0.05-0.38,0.05-0.54C263.38,20.09,263.12,19.77,262.56,19.77z"/>
	<path class="st5" d="M267.14,19.88c-0.15-0.04-0.3-0.07-0.44-0.07c-0.24,0-0.45,0.05-0.63,0.12l-0.78,4.03h-0.75l0.84-4.33
		c0.47-0.23,0.97-0.32,1.62-0.32c0.14,0,0.29,0.01,0.4,0.03L267.14,19.88z"/>
	<path class="st5" d="M273.06,18.83c-0.25-0.15-0.58-0.25-0.94-0.25c-0.76,0-1.25,0.48-1.25,1.13c0,1.06,1.93,0.98,1.93,2.49
		c0,0.98-0.77,1.86-2.16,1.86c-0.52,0-1.01-0.1-1.39-0.32l0.31-0.52c0.31,0.18,0.68,0.26,1.1,0.26c0.85,0,1.33-0.54,1.33-1.19
		c0-1.09-1.9-1.02-1.9-2.49c0-0.99,0.79-1.75,2.03-1.75c0.47,0,0.91,0.12,1.22,0.32L273.06,18.83z"/>
	<path class="st5" d="M276,19.85h-0.81l-0.56,2.88c-0.03,0.14-0.03,0.22-0.03,0.33c0,0.25,0.18,0.41,0.43,0.41
		c0.1,0,0.2-0.03,0.27-0.05l-0.1,0.5c-0.12,0.05-0.25,0.08-0.42,0.08c-0.58,0-0.92-0.36-0.92-0.89c0-0.13,0.02-0.26,0.04-0.39
		l0.55-2.88h-0.52l0.08-0.47h0.53l0.2-1.05l0.79-0.23l-0.25,1.28h0.8L276,19.85z"/>
	<path class="st5" d="M279.81,20.8l-0.57,2.93c-0.4,0.2-0.94,0.32-1.53,0.32c-0.86,0-1.52-0.34-1.52-1.2c0-0.46,0.2-0.83,0.58-1.14
		c0.53-0.42,1.34-0.63,2.3-0.72l0.06-0.29c0.02-0.09,0.03-0.18,0.03-0.26c0-0.44-0.28-0.64-0.82-0.64c-0.4,0-0.85,0.13-1.2,0.3
		l-0.08-0.47c0.44-0.22,0.95-0.33,1.43-0.33c0.87,0,1.37,0.36,1.37,1.13C279.85,20.53,279.84,20.66,279.81,20.8z M277.3,21.97
		c-0.25,0.22-0.4,0.52-0.4,0.85c0,0.58,0.43,0.8,0.93,0.8c0.27,0,0.55-0.06,0.76-0.16l0.4-2.06
		C278.23,21.48,277.66,21.64,277.3,21.97z"/>
	<path class="st5" d="M283.72,23.72c-0.37,0.2-0.91,0.32-1.48,0.32c-1.09,0-1.63-0.7-1.63-1.71c0-1.3,0.77-3,2.52-3
		c0.23,0,0.46,0.03,0.69,0.09l0.42-2.13h0.74L283.72,23.72z M283.17,19.78c-0.67,0-1.13,0.37-1.42,0.92
		c-0.25,0.47-0.42,1.11-0.42,1.64c0,0.69,0.3,1.21,1.02,1.21c0.25,0,0.52-0.04,0.69-0.13l0.7-3.55
		C283.56,19.81,283.37,19.78,283.17,19.78z"/>
	<path class="st5" d="M287.48,19.85h-0.81l-0.56,2.88c-0.03,0.14-0.03,0.22-0.03,0.33c0,0.25,0.18,0.41,0.43,0.41
		c0.1,0,0.2-0.03,0.27-0.05l-0.1,0.5c-0.12,0.05-0.25,0.08-0.42,0.08c-0.58,0-0.92-0.36-0.92-0.89c0-0.13,0.02-0.26,0.04-0.39
		l0.55-2.88h-0.52l0.08-0.47h0.53l0.2-1.05l0.79-0.23l-0.25,1.28h0.8L287.48,19.85z"/>
	<path class="st5" d="M290.93,23.33c-0.27,1.4-1.08,2.23-2.32,2.49l0.11-0.58c0.71-0.26,1.23-0.9,1.42-1.88l1.02-5.25h0.78
		L290.93,23.33z"/>
	<path class="st5" d="M295.38,23.72c-0.42,0.22-0.98,0.33-1.59,0.33c-0.9,0-1.44-0.41-1.44-1.2c0-0.14,0.03-0.3,0.05-0.44l0.59-3.02
		h0.75l-0.59,3.04c-0.03,0.14-0.04,0.29-0.04,0.39c0,0.45,0.28,0.72,0.8,0.72c0.31,0,0.59-0.05,0.81-0.15l0.78-4h0.75L295.38,23.72z
		 M294.05,18.79c-0.18,0-0.32-0.16-0.32-0.33c0-0.21,0.19-0.42,0.43-0.42c0.18,0,0.32,0.15,0.32,0.32
		C294.48,18.57,294.31,18.79,294.05,18.79z M295.41,18.79c-0.18,0-0.32-0.16-0.32-0.33c0-0.21,0.19-0.42,0.43-0.42
		c0.18,0,0.32,0.15,0.32,0.32C295.84,18.57,295.66,18.79,295.41,18.79z"/>
	<path class="st5" d="M299.76,20.02c-0.18-0.14-0.42-0.21-0.7-0.21c-0.48,0-0.9,0.35-1.18,0.89c-0.24,0.46-0.38,1.08-0.38,1.59
		c0,0.71,0.29,1.21,0.85,1.21c0.27,0,0.54-0.09,0.75-0.23l0.1,0.48c-0.28,0.2-0.64,0.3-1.06,0.3c-0.9,0-1.39-0.7-1.39-1.71
		c0-1.39,0.8-3.03,2.27-3.03c0.41,0,0.75,0.11,0.99,0.3L299.76,20.02z"/>
	<path class="st5" d="M303.98,20.86l-0.59,3.11h-0.75l0.59-3.11c0.02-0.08,0.04-0.23,0.04-0.33c0-0.39-0.21-0.7-0.81-0.7
		c-0.31,0-0.63,0.09-0.91,0.25l-0.75,3.89h-0.75l1.29-6.66h0.75l-0.45,2.32c0.31-0.17,0.69-0.27,1.07-0.27c0.89,0,1.3,0.5,1.3,1.15
		C304.02,20.62,304,20.75,303.98,20.86z"/>
	<path class="st5" d="M308.48,21.54l-2.96,0.43c-0.02,0.12-0.03,0.23-0.03,0.33c0,0.75,0.37,1.21,1.14,1.21
		c0.42,0,0.85-0.12,1.16-0.28l0.1,0.49c-0.38,0.2-0.91,0.32-1.42,0.32c-1.08,0-1.66-0.65-1.66-1.76c0-1.25,0.7-2.99,2.33-2.99
		c0.9,0,1.43,0.53,1.43,1.49C308.57,21.03,308.54,21.26,308.48,21.54z M307.07,19.77c-0.77,0-1.3,0.73-1.49,1.79l2.26-0.34
		c0.03-0.2,0.05-0.38,0.05-0.54C307.88,20.09,307.63,19.77,307.07,19.77z"/>
	<path class="st5" d="M312.96,20.92l-0.59,3.05h-0.75l0.58-3.06c0.03-0.14,0.05-0.3,0.05-0.42c0-0.44-0.24-0.7-0.86-0.7
		c-0.31,0-0.58,0.05-0.83,0.15l-0.78,4.03h-0.75l0.84-4.33c0.48-0.21,1.02-0.32,1.61-0.32c1.02,0,1.5,0.47,1.5,1.16
		C313,20.63,312.98,20.78,312.96,20.92z"/>
</g>
<g>
	<path d="M183.81,21c0.01-0.21,0.19-0.39,0.4-0.4l0,0c0.21,0.01,0.39,0.19,0.4,0.4l0,0c-0.01,0.21-0.19,0.39-0.4,0.4l0,0
		C184,21.39,183.83,21.21,183.81,21z M182.61,21c0.01-0.21,0.19-0.39,0.4-0.4l0,0c0.21,0.01,0.39,0.19,0.4,0.4l0,0
		c-0.01,0.21-0.19,0.39-0.4,0.4l0,0c-0.2,0.02-0.38-0.13-0.4-0.34C182.61,21.04,182.61,21.02,182.61,21z"/>
	<path d="M206.11,21c0.01-0.21,0.19-0.39,0.4-0.4l0,0c0.21,0.01,0.39,0.19,0.4,0.4l0,0c-0.01,0.21-0.19,0.39-0.4,0.4l0,0
		c-0.2,0.02-0.38-0.13-0.4-0.34C206.11,21.04,206.11,21.02,206.11,21z M204.81,21c0.01-0.21,0.19-0.39,0.4-0.4l0,0
		c0.21,0.01,0.39,0.19,0.4,0.4l0,0c-0.01,0.21-0.19,0.39-0.4,0.4l0,0C205,21.39,204.83,21.21,204.81,21z M203.61,21
		c0.01-0.21,0.19-0.39,0.4-0.4l0,0c0.21,0.01,0.39,0.19,0.4,0.4l0,0c-0.01,0.21-0.19,0.39-0.4,0.4l0,0
		C203.8,21.39,203.63,21.21,203.61,21z M202.31,21c0.01-0.21,0.19-0.39,0.4-0.4l0,0c0.21,0.01,0.39,0.19,0.4,0.4l0,0
		c-0.01,0.21-0.19,0.39-0.4,0.4l0,0C202.5,21.39,202.33,21.21,202.31,21z M201.11,21c0.01-0.21,0.19-0.39,0.4-0.4l0,0
		c0.21,0.01,0.39,0.19,0.4,0.4l0,0c-0.01,0.21-0.19,0.39-0.4,0.4l0,0C201.3,21.39,201.13,21.21,201.11,21z M199.91,21
		c0.01-0.21,0.19-0.39,0.4-0.4l0,0c0.21,0.01,0.39,0.19,0.4,0.4l0,0c-0.01,0.21-0.19,0.39-0.4,0.4l0,0c-0.2,0.02-0.38-0.13-0.4-0.34
		C199.91,21.04,199.91,21.02,199.91,21z M198.61,21c0.01-0.21,0.19-0.39,0.4-0.4l0,0c0.21,0.01,0.39,0.19,0.4,0.4l0,0
		c-0.01,0.21-0.19,0.39-0.4,0.4l0,0C198.8,21.39,198.63,21.21,198.61,21z M197.41,21c0.01-0.21,0.19-0.39,0.4-0.4l0,0
		c0.21,0.01,0.39,0.19,0.4,0.4l0,0c-0.01,0.21-0.19,0.39-0.4,0.4l0,0C197.6,21.39,197.43,21.21,197.41,21z M196.21,21
		c0.01-0.21,0.19-0.39,0.4-0.4l0,0c0.21,0.01,0.39,0.19,0.4,0.4l0,0c-0.01,0.21-0.19,0.39-0.4,0.4l0,0c-0.2,0.02-0.38-0.13-0.4-0.34
		C196.21,21.04,196.21,21.02,196.21,21z M194.91,21c0.01-0.21,0.19-0.39,0.4-0.4l0,0c0.21,0.01,0.39,0.19,0.4,0.4l0,0
		c-0.01,0.21-0.19,0.39-0.4,0.4l0,0C195.1,21.39,194.93,21.21,194.91,21z M193.71,21c0.01-0.21,0.19-0.39,0.4-0.4l0,0
		c0.21,0.01,0.39,0.19,0.4,0.4l0,0c-0.01,0.21-0.19,0.39-0.4,0.4l0,0C193.9,21.39,193.73,21.21,193.71,21z M192.51,21
		c0.01-0.21,0.19-0.39,0.4-0.4l0,0c0.21,0.01,0.39,0.19,0.4,0.4l0,0c-0.01,0.21-0.19,0.39-0.4,0.4l0,0c-0.2,0.02-0.38-0.13-0.4-0.34
		C192.51,21.04,192.51,21.02,192.51,21z M191.21,21c0.01-0.21,0.19-0.39,0.4-0.4l0,0c0.21,0.01,0.39,0.19,0.4,0.4l0,0
		c-0.01,0.21-0.19,0.39-0.4,0.4l0,0C191.4,21.39,191.23,21.21,191.21,21z M190.01,21c0.01-0.21,0.19-0.39,0.4-0.4l0,0
		c0.21,0.01,0.39,0.19,0.4,0.4l0,0c-0.01,0.21-0.19,0.39-0.4,0.4l0,0C190.2,21.39,190.03,21.21,190.01,21z M188.81,21
		c0.01-0.21,0.19-0.39,0.4-0.4l0,0c0.21,0.01,0.39,0.19,0.4,0.4l0,0c-0.01,0.21-0.19,0.39-0.4,0.4l0,0c-0.2,0.02-0.38-0.13-0.4-0.34
		C188.81,21.04,188.81,21.02,188.81,21z M187.51,21c0.01-0.21,0.19-0.39,0.4-0.4l0,0c0.21,0.01,0.39,0.19,0.4,0.4l0,0
		c-0.01,0.21-0.19,0.39-0.4,0.4l0,0C187.7,21.39,187.53,21.21,187.51,21z M186.31,21c0.01-0.21,0.19-0.39,0.4-0.4l0,0
		c0.21,0.01,0.39,0.19,0.4,0.4l0,0c-0.01,0.21-0.19,0.39-0.4,0.4l0,0C186.5,21.39,186.33,21.21,186.31,21z M185.01,21
		c0.01-0.21,0.19-0.39,0.4-0.4l0,0c0.21,0.01,0.39,0.19,0.4,0.4l0,0c-0.01,0.21-0.19,0.39-0.4,0.4l0,0
		C185.2,21.39,185.03,21.21,185.01,21z"/>
	<path d="M181.41,21c0.01-0.21,0.19-0.39,0.4-0.4l0,0c0.21,0.01,0.39,0.19,0.4,0.4l0,0c-0.01,0.21-0.19,0.39-0.4,0.4l0,0
		c-0.2,0.02-0.38-0.13-0.4-0.34C181.41,21.04,181.41,21.02,181.41,21z"/>
	<path d="M207.26,21c0.01-0.21,0.19-0.39,0.4-0.4l0,0c0.21,0.01,0.39,0.19,0.4,0.4l0,0c-0.01,0.21-0.19,0.39-0.4,0.4l0,0
		c-0.2,0.02-0.38-0.13-0.4-0.34C207.26,21.04,207.26,21.02,207.26,21z"/>
</g>
</svg>
