<svg xmlns="http://www.w3.org/2000/svg" xmlns:xlink="http://www.w3.org/1999/xlink" viewBox="0 0 345.4 32.5" preserveAspectRatio="xMinYMid meet">
  <defs>
    <style>
      .a {
        fill: url(#a);
      }

      .b {
        fill: none;
        stroke: #000;
        stroke-miterlimit: 10;
      }

      .c {
        fill: #51b15e;
      }

      .d {
        fill: url(#b);
      }

      .e {
        fill: #0087cc;
      }
    </style>
    <linearGradient id="a" data-name="Unbenannter Verlauf" x1="4428.69" y1="-534.07" x2="4593.09" y2="-534.07" gradientTransform="translate(4593.09 -504.52) rotate(180)" gradientUnits="userSpaceOnUse">
      <stop offset="0" stop-color="#51b15e" stop-opacity="0.5"/>
      <stop offset="1" stop-color="#51b15e"/>
    </linearGradient>
    <linearGradient id="b" data-name="Unbenannter Verlauf 2" x1="4247.69" y1="-534.07" x2="4412.09" y2="-534.07" gradientTransform="translate(4593.09 -504.52) rotate(180)" gradientUnits="userSpaceOnUse">
      <stop offset="0" stop-color="#0087cc" stop-opacity="0.5"/>
      <stop offset="1" stop-color="#0087cc"/>
    </linearGradient>
  </defs>
  <title>logo</title>
  <g>
    <polygon class="a" points="0 26.6 164.4 26.6 164.4 32.5 0 32.5 0 26.6"/>
    <line class="b" y1="26.6" x2="164.4" y2="26.6"/>
    <g>
      <path class="c" d="M3.9,30.1V16.3h7.7v3.1h-3v2.2H11v3H8.5V27h3v3.1Z" transform="translate(-0.6 -16.1)"/>
      <path class="c" d="M20,30.1l-1.1-3.7a3.67,3.67,0,0,0-1-1.7v5.4H13.4V16.9a13.37,13.37,0,0,1,4.8-.8c3.9,0,6.2,1.4,6.2,4.5A3.62,3.62,0,0,1,22,24.1h0a11.33,11.33,0,0,1,1.3,2l1.7,4ZM18.4,18.7H18v4.1a4.33,4.33,0,0,0,.5.1c1.1,0,1.5-1,1.5-2.1C19.9,19.3,19.4,18.7,18.4,18.7Z" transform="translate(-0.6 -16.1)"/>
      <path class="c" d="M30.9,19.4v2.2h2.5v3H30.9V30H26.3V16.3H34v3.1Z" transform="translate(-0.6 -16.1)"/>
      <path class="c" d="M41.9,19.4V30.1H37.3V19.4H35.2V16.3H44v3.1Z" transform="translate(-0.6 -16.1)"/>
      <path class="c" d="M44.2,24.8V21.6h5.9v3.2Z" transform="translate(-0.6 -16.1)"/>
      <path class="c" d="M58.8,30.1l-2.3-6.5h0v6.5H51.9V16.3h4.6v6h0l2.5-6h4.7l-3.1,6.3L64,30.1Z" transform="translate(-0.6 -16.1)"/>
      <path class="c" d="M75.6,25.9c0,2.9-2.4,4.4-5.4,4.4s-5.4-1.5-5.4-4.4V16.3h4.6v9.6a.9.9,0,0,0,.9.9.84.84,0,0,0,.9-.9V16.3h4.4v9.6Z" transform="translate(-0.6 -16.1)"/>
      <path class="c" d="M84.4,30.1l-1.1-3.7a3.67,3.67,0,0,0-1-1.7v5.4H77.8V16.9a13.37,13.37,0,0,1,4.8-.8c3.9,0,6.2,1.4,6.2,4.5a3.62,3.62,0,0,1-2.4,3.5h0a11.33,11.33,0,0,1,1.3,2l1.7,4ZM82.7,18.7h-.4v4.1a4.33,4.33,0,0,0,.5.1c1.1,0,1.5-1,1.5-2.1C84.3,19.3,83.8,18.7,82.7,18.7Z" transform="translate(-0.6 -16.1)"/>
      <path class="c" d="M90.6,30.1V16.3h4.6V30.1Z" transform="translate(-0.6 -16.1)"/>
      <path class="c" d="M97.4,30.1V16.3h7.7v3.1h-3v2.2h2.5v3H102V27h3v3.1Z" transform="translate(-0.6 -16.1)"/>
      <path class="c" d="M113.6,30.1l-1.1-3.7a3.67,3.67,0,0,0-1-1.7v5.4H107V16.9a13.37,13.37,0,0,1,4.8-.8c3.9,0,6.2,1.4,6.2,4.5a3.62,3.62,0,0,1-2.4,3.5h0a11.33,11.33,0,0,1,1.3,2l1.7,4Zm-1.7-11.4h-.4v4.1a4.33,4.33,0,0,0,.5.1c1.1,0,1.5-1,1.5-2.1C113.4,19.3,113,18.7,111.9,18.7Z" transform="translate(-0.6 -16.1)"/>
    </g>
    <g>
      <path d="M30.9,37.4h0c.2.2.3.5.5.7l.9,1.9h-.9l-.8-1.9c-.2-.4-.4-.7-.8-.8L29.3,40h-.8l1.1-5.6a3.65,3.65,0,0,1,1.5-.3c1.1,0,1.8.5,1.8,1.3A2.15,2.15,0,0,1,30.9,37.4Zm.2-2.8a1.48,1.48,0,0,0-.7.1L29.9,37h.5a1.81,1.81,0,0,0,1.5-.7,1.49,1.49,0,0,0,.2-.9C32.1,34.9,31.8,34.6,31.1,34.6Z" transform="translate(-0.6 -16.1)"/>
      <path d="M36.7,36.9l-.6,2.9a3.34,3.34,0,0,1-1.5.3c-.9,0-1.5-.3-1.5-1.2a1.25,1.25,0,0,1,.6-1.1,4.47,4.47,0,0,1,2.3-.7l.1-.3v-.3c0-.4-.3-.6-.8-.6a2.66,2.66,0,0,0-1.2.3l-.1-.5a3.53,3.53,0,0,1,1.4-.3c.9,0,1.4.4,1.4,1.1C36.7,36.6,36.7,36.7,36.7,36.9ZM34.2,38a1.27,1.27,0,0,0-.4.9c0,.6.4.8.9.8a1.88,1.88,0,0,0,.8-.2l.4-2.1A4.07,4.07,0,0,0,34.2,38Z" transform="translate(-0.6 -16.1)"/>
      <path d="M39.8,35.9H39l-.6,2.9v.3a.37.37,0,0,0,.4.4h.3L39,40c-.1,0-.3.1-.4.1a.84.84,0,0,1-.9-.9v-.4l.6-2.9h-.5l.1-.5h.5l.2-1.1.8-.2-.2,1.3H40Z" transform="translate(-0.6 -16.1)"/>
      <path d="M43.9,36.9,43.3,40h-.7l.6-3.1v-.3c0-.4-.2-.7-.8-.7a2.92,2.92,0,0,0-.9.2L40.7,40H40l1.3-6.7H42l-.5,2.3a2,2,0,0,1,1.1-.3c.9,0,1.3.5,1.3,1.1Z" transform="translate(-0.6 -16.1)"/>
      <path d="M48.1,36.9l-.6,2.9a3.34,3.34,0,0,1-1.5.3c-.9,0-1.5-.3-1.5-1.2a1.25,1.25,0,0,1,.6-1.1,4.47,4.47,0,0,1,2.3-.7l.1-.3v-.3c0-.4-.3-.6-.8-.6a2.66,2.66,0,0,0-1.2.3l-.1-.5a3.53,3.53,0,0,1,1.4-.3c.9,0,1.4.4,1.4,1.1C48.1,36.6,48.1,36.7,48.1,36.9ZM45.6,38a1.27,1.27,0,0,0-.4.9c0,.6.4.8.9.8a1.88,1.88,0,0,0,.8-.2l.4-2.1A4.71,4.71,0,0,0,45.6,38Z" transform="translate(-0.6 -16.1)"/>
      <path d="M52,39.8a3.81,3.81,0,0,1-1.6.3c-.9,0-1.4-.4-1.4-1.2v-.4l.6-3h.7l-.6,3v.4c0,.5.3.7.8.7a1.08,1.08,0,0,0,.8-.2l.8-4h.7Z" transform="translate(-0.6 -16.1)"/>
      <path d="M56.1,36.1a1.08,1.08,0,0,0-.8-.2.82.82,0,0,0-.9.8c0,.8,1.5.7,1.5,1.9a1.62,1.62,0,0,1-1.8,1.5,2.38,2.38,0,0,1-1.2-.3l.3-.5a1.61,1.61,0,0,0,.9.3.92.92,0,0,0,1-.9c0-.9-1.5-.7-1.5-1.9a1.48,1.48,0,0,1,1.6-1.4,2,2,0,0,1,1.1.3Z" transform="translate(-0.6 -16.1)"/>
      <path d="M58.7,37.5H56.8l.1-.6h1.9Z" transform="translate(-0.6 -16.1)"/>
      <path d="M59.8,39.5H62l-.1.5H58.6l3.2-5.3H59.7l.1-.5H63Z" transform="translate(-0.6 -16.1)"/>
      <path d="M66.6,37.6l-3,.4v.3a1.08,1.08,0,0,0,1.1,1.2,2.66,2.66,0,0,0,1.2-.3l.1.5a3.19,3.19,0,0,1-1.4.3,1.61,1.61,0,0,1-1.7-1.8c0-1.3.7-3,2.3-3,.9,0,1.4.5,1.4,1.5Zm-1.5-1.8c-.8,0-1.3.7-1.5,1.8l2.3-.3a4.33,4.33,0,0,1,.1-.5C66,36.2,65.7,35.8,65.1,35.8Z" transform="translate(-0.6 -16.1)"/>
      <path d="M67.9,40h-.7l.9-4.6h.7Zm.7-5.4a.43.43,0,0,1-.4-.4.47.47,0,0,1,.5-.5.43.43,0,0,1,.4.4A.47.47,0,0,1,68.6,34.6Z" transform="translate(-0.6 -16.1)"/>
      <path d="M71.8,35.9H71l-.6,2.9v.3a.37.37,0,0,0,.4.4h.3L71,40c-.1,0-.3.1-.4.1a.84.84,0,0,1-.9-.9v-.4l.6-2.9h-.5l.1-.5h.5l.2-1.1.8-.2-.2,1.3H72Z" transform="translate(-0.6 -16.1)"/>
      <path d="M75.2,39.8a3.81,3.81,0,0,1-1.6.3c-.9,0-1.4-.4-1.4-1.2a.6.6,0,0,1,.1-.4l.6-3h.7l-.6,3v.4c0,.5.3.7.8.7a1.08,1.08,0,0,0,.8-.2l.8-4H76Z" transform="translate(-0.6 -16.1)"/>
      <path d="M80.3,37l-.6,3H79l.6-3.1c0-.1.1-.3.1-.4,0-.4-.2-.7-.9-.7a1.08,1.08,0,0,0-.8.2l-.8,4h-.7l.8-4.3a4.15,4.15,0,0,1,1.6-.3c1,0,1.5.5,1.5,1.2A.6.6,0,0,0,80.3,37Z" transform="translate(-0.6 -16.1)"/>
      <path d="M84.1,40.1A1.93,1.93,0,0,1,82,41.9a3.19,3.19,0,0,1-1.4-.3l.3-.5a1.93,1.93,0,0,0,1,.3,1.33,1.33,0,0,0,1.4-1.2l.1-.3a2.39,2.39,0,0,1-.9.2c-.9,0-1.4-.7-1.4-1.7s.6-3.1,2.6-3.1a2.5,2.5,0,0,1,1.3.3Zm-.5-4.3a1.51,1.51,0,0,0-1.4.9,5.26,5.26,0,0,0-.4,1.7c0,.7.2,1.2,1,1.2a1.88,1.88,0,0,0,.8-.2l.7-3.5C84,35.9,83.8,35.8,83.6,35.8Z" transform="translate(-0.6 -16.1)"/>
      <path d="M91.4,34.9a1.61,1.61,0,0,0-.9-.3,1.17,1.17,0,0,0-1.3,1.1c0,1.1,1.9,1,1.9,2.5a2,2,0,0,1-2.2,1.9,3.19,3.19,0,0,1-1.4-.3l.3-.5a2,2,0,0,0,1.1.3,1.18,1.18,0,0,0,1.3-1.2c0-1.1-1.9-1-1.9-2.5a1.85,1.85,0,0,1,2-1.8,2.13,2.13,0,0,1,1.2.3Z" transform="translate(-0.6 -16.1)"/>
      <path d="M94.3,35.9h-.8l-.6,2.9v.3a.37.37,0,0,0,.4.4h.3l-.1.5c-.1,0-.3.1-.4.1a.84.84,0,0,1-.9-.9v-.4l.6-2.9h-.5l.1-.5h.5l.2-1.1.8-.2-.2,1.3h.8Z" transform="translate(-0.6 -16.1)"/>
      <path d="M98.1,36.9l-.6,2.9a3.34,3.34,0,0,1-1.5.3c-.9,0-1.5-.3-1.5-1.2a1.25,1.25,0,0,1,.6-1.1,4.47,4.47,0,0,1,2.3-.7l.1-.3v-.3c0-.4-.3-.6-.8-.6a2.66,2.66,0,0,0-1.2.3l-.1-.5a3.53,3.53,0,0,1,1.4-.3c.9,0,1.4.4,1.4,1.1C98.1,36.6,98.1,36.7,98.1,36.9ZM95.6,38a1.27,1.27,0,0,0-.4.9c0,.6.4.8.9.8a1.88,1.88,0,0,0,.8-.2l.4-2.1A4.71,4.71,0,0,0,95.6,38Z" transform="translate(-0.6 -16.1)"/>
      <path d="M102,39.8a3.34,3.34,0,0,1-1.5.3,1.5,1.5,0,0,1-1.6-1.7c0-1.3.8-3,2.5-3a1.7,1.7,0,0,1,.7.1l.4-2.1h.7Zm-.5-3.9a1.57,1.57,0,0,0-1.4.9,3.17,3.17,0,0,0-.4,1.6c0,.7.3,1.2,1,1.2a1.7,1.7,0,0,0,.7-.1l.7-3.6Z" transform="translate(-0.6 -16.1)"/>
      <path d="M105.8,35.9H105l-.6,2.9v.3a.37.37,0,0,0,.4.4h.3l-.1.5c-.1,0-.3.1-.4.1a.84.84,0,0,1-.9-.9v-.4l.6-2.9h-.5l.1-.5h.5l.2-1.1.8-.2-.2,1.3h.8Z" transform="translate(-0.6 -16.1)"/>
      <path d="M112.8,34.9a1.64,1.64,0,0,0-1-.2,2.09,2.09,0,0,0-2,1.5,5.26,5.26,0,0,0-.4,1.8c0,1,.5,1.6,1.3,1.6a2,2,0,0,0,.8-.1l.4-2.2h-1.1l.1-.5h1.8l-.6,3.1a3.65,3.65,0,0,1-1.5.3,2,2,0,0,1-2-2.2c0-1.8,1.1-3.8,3.2-3.8a2.77,2.77,0,0,1,1.3.3Z" transform="translate(-0.6 -16.1)"/>
      <path d="M115.9,36c-.2,0-.3-.1-.4-.1a1.27,1.27,0,0,0-.6.1l-.8,4h-.7l.8-4.3a4.15,4.15,0,0,1,1.6-.3h.4Z" transform="translate(-0.6 -16.1)"/>
      <path d="M119.9,37.6l-3,.4v.3a1.08,1.08,0,0,0,1.1,1.2,2.66,2.66,0,0,0,1.2-.3l.1.5a3.19,3.19,0,0,1-1.4.3,1.61,1.61,0,0,1-1.7-1.8c0-1.3.7-3,2.3-3,.9,0,1.4.5,1.4,1.5Zm-1.5-1.8c-.8,0-1.3.7-1.5,1.8l2.3-.3a4.33,4.33,0,0,1,.1-.5C119.3,36.2,119,35.8,118.4,35.8Z" transform="translate(-0.6 -16.1)"/>
      <path d="M122.1,40h-.7l-.6-4.6h.8l.3,3.3v.6h0c.1-.2.1-.4.2-.6l1.6-3.3h.7Z" transform="translate(-0.6 -16.1)"/>
      <path d="M128.3,37.6l-3,.4v.3a1.08,1.08,0,0,0,1.1,1.2,2.66,2.66,0,0,0,1.2-.3l.1.5a3.19,3.19,0,0,1-1.4.3,1.61,1.61,0,0,1-1.7-1.8c0-1.3.7-3,2.3-3,.9,0,1.4.5,1.4,1.5A1.38,1.38,0,0,1,128.3,37.6Zm-1.4-1.8c-.8,0-1.3.7-1.5,1.8l2.3-.3a4.33,4.33,0,0,1,.1-.5C127.7,36.2,127.5,35.8,126.9,35.8Z" transform="translate(-0.6 -16.1)"/>
      <path d="M132.8,37l-.6,3.1h-.7l.6-3.1c0-.1.1-.3.1-.4,0-.4-.2-.7-.9-.7a1.08,1.08,0,0,0-.8.2l-.8,4H129l.8-4.3a4.15,4.15,0,0,1,1.6-.3c1,0,1.5.5,1.5,1.2A1,1,0,0,0,132.8,37Z" transform="translate(-0.6 -16.1)"/>
      <path d="M134.8,40.1a2.5,2.5,0,0,1-1.3-.3l1.3-6.4h.7l-.4,2.2a2.92,2.92,0,0,1,.9-.2c1,0,1.4.7,1.4,1.7A2.77,2.77,0,0,1,134.8,40.1Zm.9-4.3a1.88,1.88,0,0,0-.8.2l-.7,3.5a1.27,1.27,0,0,0,.6.1,1.69,1.69,0,0,0,1.4-.9,4.71,4.71,0,0,0,.4-1.7A.94.94,0,0,0,135.7,35.8Z" transform="translate(-0.6 -16.1)"/>
      <path d="M140.5,36c-.2,0-.3-.1-.4-.1a1.27,1.27,0,0,0-.6.1l-.8,4H138l.8-4.3a4.15,4.15,0,0,1,1.6-.3h.4Z" transform="translate(-0.6 -16.1)"/>
      <path d="M142.2,40.1c-1,0-1.4-.7-1.4-1.7s.5-3.1,2.3-3.1c1,0,1.4.7,1.4,1.7S144,40.1,142.2,40.1Zm.8-4.2a1.27,1.27,0,0,0-1.1.9,5.93,5.93,0,0,0-.4,1.7c0,.7.2,1.1.8,1.1a1.27,1.27,0,0,0,1.1-.9,5.93,5.93,0,0,0,.4-1.7C143.8,36.3,143.6,35.9,143,35.9Z" transform="translate(-0.6 -16.1)"/>
      <path d="M145.8,40h-.7l.9-4.6h.7Zm.7-5.4a.43.43,0,0,1-.4-.4.47.47,0,0,1,.5-.5.43.43,0,0,1,.4.4A.47.47,0,0,1,146.5,34.6Z" transform="translate(-0.6 -16.1)"/>
      <path d="M150.3,36.1a1.45,1.45,0,0,0-.7-.2,1.35,1.35,0,0,0-1.2.9,4.71,4.71,0,0,0-.4,1.6c0,.7.3,1.2.9,1.2a1.45,1.45,0,0,0,.7-.2l.1.5a1.8,1.8,0,0,1-1.1.3c-.9,0-1.4-.7-1.4-1.7,0-1.4.8-3,2.3-3a1.49,1.49,0,0,1,1,.3Z" transform="translate(-0.6 -16.1)"/>
      <path d="M154.5,36.9l-.6,3.1h-.7l.6-3.1v-.3c0-.4-.2-.7-.8-.7a2.92,2.92,0,0,0-.9.2l-.8,3.9h-.7l1.3-6.7h.7l-.4,2.3a2,2,0,0,1,1.1-.3c.9,0,1.3.5,1.3,1.1C154.6,36.7,154.6,36.8,154.5,36.9Z" transform="translate(-0.6 -16.1)"/>
    </g>
    <g>
      <path d="M1.4,37.5a.37.37,0,0,1-.3-.1L1,37.3v-.5h.7a.37.37,0,0,1,.1.3v.1a.1.1,0,0,1-.1.1l-.1.1C1.5,37.5,1.5,37.5,1.4,37.5Z" transform="translate(-0.6 -16.1)"/>
      <path d="M3.5,37.1a.43.43,0,0,1,.4-.4h0a.43.43,0,0,1,.4.4h0a.43.43,0,0,1-.4.4h0A.43.43,0,0,1,3.5,37.1Zm-1.2,0a.43.43,0,0,1,.4-.4h0a.43.43,0,0,1,.4.4h0a.43.43,0,0,1-.4.4h0A.37.37,0,0,1,2.3,37.1Z" transform="translate(-0.6 -16.1)"/>
      <path d="M25.8,37.1a.43.43,0,0,1,.4-.4h0a.43.43,0,0,1,.4.4h0a.43.43,0,0,1-.4.4h0A.37.37,0,0,1,25.8,37.1Zm-1.3,0a.43.43,0,0,1,.4-.4h0a.43.43,0,0,1,.4.4h0a.43.43,0,0,1-.4.4h0A.43.43,0,0,1,24.5,37.1Zm-1.2,0a.43.43,0,0,1,.4-.4h0a.43.43,0,0,1,.4.4h0a.43.43,0,0,1-.4.4h0A.43.43,0,0,1,23.3,37.1Zm-1.3,0a.43.43,0,0,1,.4-.4h0a.43.43,0,0,1,.4.4h0a.43.43,0,0,1-.4.4h0A.43.43,0,0,1,22,37.1Zm-1.2,0a.43.43,0,0,1,.4-.4h0a.43.43,0,0,1,.4.4h0a.43.43,0,0,1-.4.4h0A.43.43,0,0,1,20.8,37.1Zm-1.2,0a.43.43,0,0,1,.4-.4h0a.43.43,0,0,1,.4.4h0a.43.43,0,0,1-.4.4h0A.37.37,0,0,1,19.6,37.1Zm-1.3,0a.43.43,0,0,1,.4-.4h0a.43.43,0,0,1,.4.4h0a.43.43,0,0,1-.4.4h0A.43.43,0,0,1,18.3,37.1Zm-1.2,0a.43.43,0,0,1,.4-.4h0a.43.43,0,0,1,.4.4h0a.43.43,0,0,1-.4.4h0A.43.43,0,0,1,17.1,37.1Zm-1.2,0a.43.43,0,0,1,.4-.4h0a.43.43,0,0,1,.4.4h0a.43.43,0,0,1-.4.4h0A.37.37,0,0,1,15.9,37.1Zm-1.3,0a.43.43,0,0,1,.4-.4h0a.43.43,0,0,1,.4.4h0a.43.43,0,0,1-.4.4h0A.43.43,0,0,1,14.6,37.1Zm-1.2,0a.43.43,0,0,1,.4-.4h0a.43.43,0,0,1,.4.4h0a.43.43,0,0,1-.4.4h0A.43.43,0,0,1,13.4,37.1Zm-1.2,0a.43.43,0,0,1,.4-.4h0a.43.43,0,0,1,.4.4h0a.43.43,0,0,1-.4.4h0A.37.37,0,0,1,12.2,37.1Zm-1.3,0a.43.43,0,0,1,.4-.4h0a.43.43,0,0,1,.4.4h0a.43.43,0,0,1-.4.4h0A.43.43,0,0,1,10.9,37.1Zm-1.2,0a.43.43,0,0,1,.4-.4h0a.43.43,0,0,1,.4.4h0a.43.43,0,0,1-.4.4h0A.43.43,0,0,1,9.7,37.1Zm-1.2,0a.43.43,0,0,1,.4-.4h0a.43.43,0,0,1,.4.4h0a.43.43,0,0,1-.4.4h0A.37.37,0,0,1,8.5,37.1Zm-1.3,0a.43.43,0,0,1,.4-.4h0a.43.43,0,0,1,.4.4H8a.43.43,0,0,1-.4.4h0A.43.43,0,0,1,7.2,37.1ZM6,37.1a.43.43,0,0,1,.4-.4h0a.43.43,0,0,1,.4.4h0a.43.43,0,0,1-.4.4h0A.43.43,0,0,1,6,37.1Zm-1.3,0a.43.43,0,0,1,.4-.4h0a.43.43,0,0,1,.4.4h0a.43.43,0,0,1-.4.4h0A.43.43,0,0,1,4.7,37.1Z" transform="translate(-0.6 -16.1)"/>
      <path d="M27.4,37.5h-.1a.1.1,0,0,1-.1-.1c0-.1-.2-.1-.2-.2v-.1a.37.37,0,0,1,.1-.3h.3c.1,0,.3,0,.3.1v.5a.1.1,0,0,1-.1.1l-.1.1A.1.1,0,0,0,27.4,37.5Z" transform="translate(-0.6 -16.1)"/>
    </g>
  </g>
  <g>
    <polygon class="d" points="181 26.6 345.4 26.6 345.4 32.5 181 32.5 181 26.6"/>
    <line class="b" x1="181" y1="26.6" x2="345.4" y2="26.6"/>
    <g>
      <path class="e" d="M191.3,19.4V30.1h-4.6V19.4h-2.1V16.3h8.8v3.1Z" transform="translate(-0.6 -16.1)"/>
      <path class="e" d="M199.9,30.3c-3.9,0-5.8-2.9-5.8-7.1s1.9-7.1,5.8-7.1,5.8,2.9,5.8,7.1S203.7,30.3,199.9,30.3Zm0-11.1c-.9,0-1.1,1.4-1.1,3.9s.2,3.9,1.1,3.9,1.1-1.4,1.1-3.9S200.7,19.2,199.9,19.2Z" transform="translate(-0.6 -16.1)"/>
      <path class="e" d="M212.3,25.4h-.4v4.7h-4.5V16.9a14,14,0,0,1,4.9-.8c4.4,0,6,2.2,6,4.7S216.4,25.4,212.3,25.4Zm.1-6.7H212v4.1h.4c1.1,0,1.6-.7,1.6-2.1S213.5,18.7,212.4,18.7Z" transform="translate(-0.6 -16.1)"/>
      <path class="e" d="M219.8,24.8V21.6h5.9v3.2Z" transform="translate(-0.6 -16.1)"/>
      <path class="e" d="M234.5,30.1l-2.3-6.5h0v6.5h-4.6V16.3h4.6v6h0l2.5-6h4.7l-3.1,6.3,3.4,7.5Z" transform="translate(-0.6 -16.1)"/>
      <path class="e" d="M251.2,25.9c0,2.9-2.4,4.4-5.4,4.4s-5.4-1.5-5.4-4.4V16.3H245v9.6a.9.9,0,0,0,.9.9.84.84,0,0,0,.9-.9V16.3h4.4Z" transform="translate(-0.6 -16.1)"/>
      <path class="e" d="M260,30.1l-1.1-3.7a3.67,3.67,0,0,0-1-1.7v5.4h-4.5V16.9a13.37,13.37,0,0,1,4.8-.8c3.9,0,6.2,1.4,6.2,4.5a3.62,3.62,0,0,1-2.4,3.5h0a11.33,11.33,0,0,1,1.3,2l1.7,4Zm-1.7-11.4h-.4v4.1a4.33,4.33,0,0,0,.5.1c1.1,0,1.5-1,1.5-2.1C259.9,19.3,259.4,18.7,258.3,18.7Z" transform="translate(-0.6 -16.1)"/>
      <path class="e" d="M266.2,30.1V16.3h4.6V30.1Z" transform="translate(-0.6 -16.1)"/>
      <path class="e" d="M273,30.1V16.3h7.7v3.1h-3v2.2h2.5v3h-2.5V27h3v3.1Z" transform="translate(-0.6 -16.1)"/>
      <path class="e" d="M289.2,30.1l-1.1-3.7a3.67,3.67,0,0,0-1-1.7v5.4h-4.5V16.9a13.37,13.37,0,0,1,4.8-.8c3.9,0,6.2,1.4,6.2,4.5a3.62,3.62,0,0,1-2.4,3.5h0a11.33,11.33,0,0,1,1.3,2l1.7,4Zm-1.7-11.4h-.4v4.1a4.33,4.33,0,0,0,.5.1c1.1,0,1.5-1,1.5-2.1C289,19.3,288.6,18.7,287.5,18.7Z" transform="translate(-0.6 -16.1)"/>
    </g>
    <g>
      <path d="M211.2,40.1a3.65,3.65,0,0,1-1.5-.3l1.1-5.4a4.15,4.15,0,0,1,1.6-.3c1.3,0,1.9.9,1.9,2.2C214.3,37.8,213.5,40.1,211.2,40.1Zm1-5.5a2,2,0,0,0-.8.1l-.9,4.7a1.48,1.48,0,0,0,.7.1,2,2,0,0,0,1.8-1.4,7.11,7.11,0,0,0,.4-2C213.5,35.2,213.1,34.6,212.2,34.6Z" transform="translate(-0.6 -16.1)"/>
      <path d="M218.3,36.9l-.6,2.9a3.34,3.34,0,0,1-1.5.3c-.9,0-1.5-.3-1.5-1.2a1.25,1.25,0,0,1,.6-1.1,4.47,4.47,0,0,1,2.3-.7l.1-.3v-.3c0-.4-.3-.6-.8-.6a2.38,2.38,0,0,0-1.2.3l-.1-.5a3.53,3.53,0,0,1,1.4-.3c.9,0,1.4.4,1.4,1.1A.76.76,0,0,1,218.3,36.9ZM215.8,38a1.23,1.23,0,0,0-.4.8c0,.6.4.8.9.8a1.88,1.88,0,0,0,.8-.2l.4-2.1A7.26,7.26,0,0,0,215.8,38Z" transform="translate(-0.6 -16.1)"/>
      <path d="M221.9,36.1a1.08,1.08,0,0,0-.8-.2.82.82,0,0,0-.9.8c0,.8,1.5.7,1.5,1.9a1.62,1.62,0,0,1-1.8,1.5,2.38,2.38,0,0,1-1.2-.3l.3-.5a1.61,1.61,0,0,0,.9.3.92.92,0,0,0,1-.9c0-.9-1.5-.7-1.5-1.9a1.48,1.48,0,0,1,1.6-1.4,2,2,0,0,1,1.1.3Z" transform="translate(-0.6 -16.1)"/>
      <path d="M228.1,40l-.2-1.8h-2L225,40h-.8l3.1-5.8h.7l.8,5.8Zm-.5-4.4v-.8h0a6.89,6.89,0,0,0-.3.8l-1.1,2.2h1.7Z" transform="translate(-0.6 -16.1)"/>
      <path d="M236.1,37l-.6,3.1h-.7l.6-3.1v-.4c0-.4-.2-.7-.8-.7a1.78,1.78,0,0,0-1,.4L233,40h-.7l.6-3.3v-.3c0-.4-.2-.6-.8-.6a1.49,1.49,0,0,0-.9.2l-.8,4h-.7l.8-4.3a4.15,4.15,0,0,1,1.6-.3,1.58,1.58,0,0,1,1.3.5,2.39,2.39,0,0,1,1.4-.5c.9,0,1.4.5,1.4,1.2C236.2,36.7,236.1,36.8,236.1,37Z" transform="translate(-0.6 -16.1)"/>
      <path d="M239.3,35.9h-.8l-.6,2.9v.3a.37.37,0,0,0,.4.4h.3l-.1.5c-.1,0-.3.1-.4.1a.84.84,0,0,1-.9-.9v-.4l.6-2.9h-.5l.1-.5h.5l.2-1.1.8-.2-.2,1.3h.8Z" transform="translate(-0.6 -16.1)"/>
      <path d="M242.4,36.1a1.08,1.08,0,0,0-.8-.2.82.82,0,0,0-.9.8c0,.8,1.5.7,1.5,1.9a1.62,1.62,0,0,1-1.8,1.5,2.38,2.38,0,0,1-1.2-.3l.3-.5a1.61,1.61,0,0,0,.9.3.92.92,0,0,0,1-.9c0-.9-1.5-.7-1.5-1.9a1.48,1.48,0,0,1,1.6-1.4,2,2,0,0,1,1.1.3Z" transform="translate(-0.6 -16.1)"/>
      <path d="M244.3,40.1a2.5,2.5,0,0,1-1.3-.3l1.3-6.4h.7l-.4,2.2a2.92,2.92,0,0,1,.9-.2c1,0,1.4.7,1.4,1.7A2.77,2.77,0,0,1,244.3,40.1Zm1-4.3a1.88,1.88,0,0,0-.8.2l-.7,3.5a1.27,1.27,0,0,0,.6.1,1.69,1.69,0,0,0,1.4-.9,4.71,4.71,0,0,0,.4-1.7C246.2,36.4,245.9,35.8,245.3,35.8Z" transform="translate(-0.6 -16.1)"/>
      <path d="M248.2,40h-.7l1.3-6.7h.7Z" transform="translate(-0.6 -16.1)"/>
      <path d="M253.1,36.9l-.6,2.9a3.34,3.34,0,0,1-1.5.3c-.9,0-1.5-.3-1.5-1.2a1.25,1.25,0,0,1,.6-1.1,4.47,4.47,0,0,1,2.3-.7l.1-.3v-.3c0-.4-.3-.6-.8-.6a2.38,2.38,0,0,0-1.2.3l-.1-.5a3.53,3.53,0,0,1,1.4-.3c.9,0,1.4.4,1.4,1.1A.76.76,0,0,1,253.1,36.9ZM250.6,38a1.23,1.23,0,0,0-.4.8c0,.6.4.8.9.8a1.88,1.88,0,0,0,.8-.2l.4-2.1A9.76,9.76,0,0,0,250.6,38Z" transform="translate(-0.6 -16.1)"/>
      <path d="M256.2,35.9h-.8l-.6,2.9v.3a.37.37,0,0,0,.4.4h.3l-.1.5c-.1,0-.3.1-.4.1a.84.84,0,0,1-.9-.9v-.4l.6-2.9h-.5l.1-.5h.5l.2-1.1.8-.2-.2,1.3h.8Z" transform="translate(-0.6 -16.1)"/>
      <path d="M259,35.9h-.8l-.6,2.9v.3a.37.37,0,0,0,.4.4h.3l-.1.5c-.1,0-.3.1-.4.1a.84.84,0,0,1-.9-.9v-.4l.6-2.9H257l.1-.5h.5l.2-1.1.8-.2-.2,1.3h.8Z" transform="translate(-0.6 -16.1)"/>
      <path d="M264.7,39.8a3.34,3.34,0,0,1-1.5.3,1.5,1.5,0,0,1-1.6-1.7c0-1.3.8-3,2.5-3a1.7,1.7,0,0,1,.7.1l.4-2.1h.7Zm-.5-3.9a1.57,1.57,0,0,0-1.4.9,3.17,3.17,0,0,0-.4,1.6c0,.7.3,1.2,1,1.2a1.7,1.7,0,0,0,.7-.1l.7-3.6Z" transform="translate(-0.6 -16.1)"/>
      <path d="M269.8,37.6l-3,.4v.3a1.08,1.08,0,0,0,1.1,1.2,2.38,2.38,0,0,0,1.2-.3l.1.5a3.19,3.19,0,0,1-1.4.3,1.61,1.61,0,0,1-1.7-1.8c0-1.3.7-3,2.3-3,.9,0,1.4.5,1.4,1.5A1.38,1.38,0,0,1,269.8,37.6Zm-1.4-1.8c-.8,0-1.3.7-1.5,1.8l2.3-.3v-.5C269.2,36.2,268.9,35.8,268.4,35.8Z" transform="translate(-0.6 -16.1)"/>
      <path d="M273,36c-.2,0-.3-.1-.4-.1a1.27,1.27,0,0,0-.6.1l-.8,4h-.7l.8-4.3a4.15,4.15,0,0,1,1.6-.3h.4Z" transform="translate(-0.6 -16.1)"/>
      <path d="M278.9,34.9a1.61,1.61,0,0,0-.9-.3,1.17,1.17,0,0,0-1.3,1.1c0,1.1,1.9,1,1.9,2.5a2,2,0,0,1-2.2,1.9,3.19,3.19,0,0,1-1.4-.3l.3-.5a2,2,0,0,0,1.1.3,1.13,1.13,0,0,0,1.3-1.2c0-1.1-1.9-1-1.9-2.5a1.85,1.85,0,0,1,2-1.8,2.13,2.13,0,0,1,1.2.3Z" transform="translate(-0.6 -16.1)"/>
      <path d="M281.8,35.9H281l-.6,2.9v.3a.37.37,0,0,0,.4.4h.3l-.1.5c-.1,0-.3.1-.4.1a.84.84,0,0,1-.9-.9v-.4l.6-2.9h-.5l.1-.5h.5l.2-1.1.8-.2-.2,1.3h.8Z" transform="translate(-0.6 -16.1)"/>
      <path d="M285.7,36.9l-.6,2.9a3.34,3.34,0,0,1-1.5.3c-.9,0-1.5-.3-1.5-1.2a1.25,1.25,0,0,1,.6-1.1,4.47,4.47,0,0,1,2.3-.7l.1-.3v-.3c0-.4-.3-.6-.8-.6a2.38,2.38,0,0,0-1.2.3l-.1-.5a3.53,3.53,0,0,1,1.4-.3c.9,0,1.4.4,1.4,1.1C285.7,36.6,285.7,36.7,285.7,36.9ZM283.1,38a1.23,1.23,0,0,0-.4.8c0,.6.4.8.9.8a1.88,1.88,0,0,0,.8-.2l.4-2.1A9.76,9.76,0,0,0,283.1,38Z" transform="translate(-0.6 -16.1)"/>
      <path d="M289.6,39.8a3.34,3.34,0,0,1-1.5.3,1.5,1.5,0,0,1-1.6-1.7c0-1.3.8-3,2.5-3a1.7,1.7,0,0,1,.7.1l.4-2.1h.7Zm-.6-3.9a1.57,1.57,0,0,0-1.4.9,3.17,3.17,0,0,0-.4,1.6c0,.7.3,1.2,1,1.2a1.7,1.7,0,0,0,.7-.1l.7-3.6Z" transform="translate(-0.6 -16.1)"/>
      <path d="M293.3,35.9h-.8l-.6,2.9v.3a.37.37,0,0,0,.4.4h.3l-.1.5c-.1,0-.3.1-.4.1a.84.84,0,0,1-.9-.9v-.4l.6-2.9h-.5l.1-.5h.5l.2-1.1.8-.2-.2,1.3h.8Z" transform="translate(-0.6 -16.1)"/>
      <path d="M296.8,39.4a3,3,0,0,1-2.3,2.5l.1-.6a2.41,2.41,0,0,0,1.4-1.9l1-5.3h.8Z" transform="translate(-0.6 -16.1)"/>
      <path d="M301.2,39.8a3.81,3.81,0,0,1-1.6.3c-.9,0-1.4-.4-1.4-1.2a.6.6,0,0,1,.1-.4l.6-3h.7l-.6,3v.4c0,.5.3.7.8.7a1.08,1.08,0,0,0,.8-.2l.8-4h.7Zm-1.3-4.9a.32.32,0,0,1-.3-.3.43.43,0,0,1,.4-.4.32.32,0,0,1,.3.3A.42.42,0,0,1,299.9,34.9Zm1.4,0a.32.32,0,0,1-.3-.3.43.43,0,0,1,.4-.4.32.32,0,0,1,.3.3C301.7,34.6,301.5,34.9,301.3,34.9Z" transform="translate(-0.6 -16.1)"/>
      <path d="M305.6,36.1a1.45,1.45,0,0,0-.7-.2,1.35,1.35,0,0,0-1.2.9,4.71,4.71,0,0,0-.4,1.6c0,.7.3,1.2.9,1.2a1.45,1.45,0,0,0,.7-.2l.1.5a1.8,1.8,0,0,1-1.1.3c-.9,0-1.4-.7-1.4-1.7,0-1.4.8-3,2.3-3a1.49,1.49,0,0,1,1,.3Z" transform="translate(-0.6 -16.1)"/>
      <path d="M309.9,36.9l-.6,3.1h-.7l.6-3.1v-.3c0-.4-.2-.7-.8-.7a2.92,2.92,0,0,0-.9.2l-.8,3.9H306l1.3-6.7h.7l-.5,2.3a2,2,0,0,1,1.1-.3c.9,0,1.3.5,1.3,1.1Z" transform="translate(-0.6 -16.1)"/>
      <path d="M314.4,37.6l-3,.4v.3a1.08,1.08,0,0,0,1.1,1.2,2.38,2.38,0,0,0,1.2-.3l.1.5a3.19,3.19,0,0,1-1.4.3,1.61,1.61,0,0,1-1.7-1.8c0-1.3.7-3,2.3-3,.9,0,1.4.5,1.4,1.5Zm-1.5-1.8c-.8,0-1.3.7-1.5,1.8l2.3-.3a4.33,4.33,0,0,1,.1-.5C313.8,36.2,313.5,35.8,312.9,35.8Z" transform="translate(-0.6 -16.1)"/>
      <path d="M318.8,37l-.6,3.1h-.7l.6-3.1c0-.1.1-.3.1-.4,0-.4-.2-.7-.9-.7a1.08,1.08,0,0,0-.8.2l-.8,4H315l.8-4.3a4.15,4.15,0,0,1,1.6-.3c1,0,1.5.5,1.5,1.2A.49.49,0,0,1,318.8,37Z" transform="translate(-0.6 -16.1)"/>
    </g>
    <g>
      <path d="M182.6,37.5h-.1a.1.1,0,0,1-.1-.1.1.1,0,0,0-.1-.1v-.5h.3c.1,0,.3,0,.3.1v.5a.1.1,0,0,1-.1.1C182.8,37.4,182.7,37.5,182.6,37.5Z" transform="translate(-0.6 -16.1)"/>
      <path d="M184.7,37.1a.43.43,0,0,1,.4-.4h0a.43.43,0,0,1,.4.4h0a.43.43,0,0,1-.4.4h0A.37.37,0,0,1,184.7,37.1Zm-1.3,0a.43.43,0,0,1,.4-.4h0a.43.43,0,0,1,.4.4h0a.43.43,0,0,1-.4.4h0A.43.43,0,0,1,183.4,37.1Z" transform="translate(-0.6 -16.1)"/>
      <path d="M206.9,37.1a.43.43,0,0,1,.4-.4h0a.43.43,0,0,1,.4.4h0a.43.43,0,0,1-.4.4h0A.43.43,0,0,1,206.9,37.1Zm-1.2,0a.43.43,0,0,1,.4-.4h0a.43.43,0,0,1,.4.4h0a.43.43,0,0,1-.4.4h0A.37.37,0,0,1,205.7,37.1Zm-1.3,0a.43.43,0,0,1,.4-.4h0a.43.43,0,0,1,.4.4h0a.43.43,0,0,1-.4.4h0A.43.43,0,0,1,204.4,37.1Zm-1.2,0a.43.43,0,0,1,.4-.4h0a.43.43,0,0,1,.4.4h0a.43.43,0,0,1-.4.4h0A.43.43,0,0,1,203.2,37.1Zm-1.2,0a.43.43,0,0,1,.4-.4h0a.43.43,0,0,1,.4.4h0a.43.43,0,0,1-.4.4h0A.37.37,0,0,1,202,37.1Zm-1.3,0a.43.43,0,0,1,.4-.4h0a.43.43,0,0,1,.4.4h0a.43.43,0,0,1-.4.4h0A.43.43,0,0,1,200.7,37.1Zm-1.2,0a.43.43,0,0,1,.4-.4h0a.43.43,0,0,1,.4.4h0a.43.43,0,0,1-.4.4h0A.43.43,0,0,1,199.5,37.1Zm-1.2,0a.43.43,0,0,1,.4-.4h0a.43.43,0,0,1,.4.4h0a.43.43,0,0,1-.4.4h0A.37.37,0,0,1,198.3,37.1Zm-1.3,0a.43.43,0,0,1,.4-.4h0a.43.43,0,0,1,.4.4h0a.43.43,0,0,1-.4.4h0A.43.43,0,0,1,197,37.1Zm-1.2,0a.43.43,0,0,1,.4-.4h0a.43.43,0,0,1,.4.4h0a.43.43,0,0,1-.4.4h0A.43.43,0,0,1,195.8,37.1Zm-1.3,0a.43.43,0,0,1,.4-.4h0a.43.43,0,0,1,.4.4h0a.43.43,0,0,1-.4.4h0A.43.43,0,0,1,194.5,37.1Zm-1.2,0a.43.43,0,0,1,.4-.4h0a.43.43,0,0,1,.4.4h0a.43.43,0,0,1-.4.4h0A.43.43,0,0,1,193.3,37.1Zm-1.2,0a.43.43,0,0,1,.4-.4h0a.43.43,0,0,1,.4.4h0a.43.43,0,0,1-.4.4h0A.37.37,0,0,1,192.1,37.1Zm-1.3,0a.43.43,0,0,1,.4-.4h0a.43.43,0,0,1,.4.4h0a.43.43,0,0,1-.4.4h0A.43.43,0,0,1,190.8,37.1Zm-1.2,0a.43.43,0,0,1,.4-.4h0a.43.43,0,0,1,.4.4h0a.43.43,0,0,1-.4.4h0A.43.43,0,0,1,189.6,37.1Zm-1.2,0a.43.43,0,0,1,.4-.4h0a.43.43,0,0,1,.4.4h0a.43.43,0,0,1-.4.4h0A.37.37,0,0,1,188.4,37.1Zm-1.3,0a.43.43,0,0,1,.4-.4h0a.43.43,0,0,1,.4.4h0a.43.43,0,0,1-.4.4h0A.43.43,0,0,1,187.1,37.1Zm-1.2,0a.43.43,0,0,1,.4-.4h0a.43.43,0,0,1,.4.4h0a.43.43,0,0,1-.4.4h0A.43.43,0,0,1,185.9,37.1Z" transform="translate(-0.6 -16.1)"/>
      <path d="M208.5,37.5h-.1a.1.1,0,0,1-.1-.1.1.1,0,0,0-.1-.1v-.5h.3c.1,0,.3,0,.3.1v.5a.1.1,0,0,1-.1.1.1.1,0,0,0-.1.1C208.6,37.5,208.6,37.5,208.5,37.5Z" transform="translate(-0.6 -16.1)"/>
    </g>
  </g>
</svg>
