<?xml version="1.0" encoding="utf-8"?>
<!-- Generator: Adobe Illustrator 23.0.2, SVG Export Plug-In . SVG Version: 6.00 Build 0)  -->
<svg  preserveAspectRatio="xMinYMid meet" version="1.1" id="Ebene_1" xmlns="http://www.w3.org/2000/svg" xmlns:xlink="http://www.w3.org/1999/xlink" x="0px" y="0px"
	 viewBox="0 0 7508.2 954.6" enable-background="new 0 0 7508.2 954.6" xml:space="preserve">
<title>logo</title>
<rect fill="#0065AD" width="7508.2" height="954.6"/>
<path d="M536.9,742.3V236.2h136.8v400.2h89v105.9H536.9z"/>
<path d="M964.3,749.7c-105.9,0-161.1-80.2-161.1-206c0-125.1,55.2-205.3,161.1-205.3s161.1,80.2,161.1,205.3
	C1125.5,669.5,1070.3,749.7,964.3,749.7z M964.3,433.3c-23.5,0-29.4,39.7-29.4,107.4c0,67.7,5.9,107.4,29.4,107.4
	s29.4-39.7,29.4-107.4C993.7,473,987.9,433.3,964.3,433.3L964.3,433.3z"/>
<path d="M1382.9,742.3l-69.2-206h-1.5v206h-131V164.8h131v360.5h1.5l73.6-179.5h128l-86.8,179.5l94.9,217H1382.9z"/>
<path d="M1697.8,749.7c-101.5,0-158.9-43.4-158.9-130.2c0-89.8,59.6-129.5,179.5-144.9v-7.4c0-22.1-14.7-33.8-44.1-33.8
	c-30.9,0-64.7,7.4-89.8,18.4l-26.5-83.9c39-17.7,88.3-29.4,136.8-29.4c103.7,0,149.3,50.8,149.3,154.5v227.3
	C1809.6,739.4,1764,749.7,1697.8,749.7z M1718.4,548.8c-40.5,5.2-56.7,24.3-56.7,64.7c0,30.2,13.2,48.6,39.7,48.6
	c5.71,0.06,11.4-0.68,16.9-2.2V548.8L1718.4,548.8z"/>
<path d="M1911.9,742.3V164.8h131v577.5H1911.9z"/>
<path d="M2477.6,742.3l-14-75.8h-107.4l-14.7,75.8h-124.3l128-506.2h144.2l128,506.2H2477.6z M2421,432.6
	c-4.26-21.63-7.2-43.51-8.8-65.5h-1.5c-2.2,20.6-5.2,42.7-9.6,65.5l-28,144.2h74.3L2421,432.6z"/>
<path d="M2830.8,742.3V465c0-20.6-8.8-32.4-30.9-32.4c-7.05-0.17-14.05,1.09-20.6,3.7v306h-131V367.8
	c45.6-19.9,97.1-29.4,150.8-29.4c114.8,0,162.6,45.6,162.6,131v272.9H2830.8z"/>
<path d="M3011.7,742.3l89-295h-82.4V345.8h242.8l-82.4,295h82.4v101.5H3011.7z"/>
<path d="M3428.1,606.2c8.1,33.1,30.2,41.9,64,41.9c27.2,0,58.1-7.4,80.2-16.9l27.2,89c-38.3,20.6-81.7,29.4-130.2,29.4
	c-120.7,0-172.9-87.5-172.9-206.7c0-114,55.2-204.5,162.6-204.5c105.9,0,156.7,80.2,156.7,201.6c0,11.8-0.7,25-1.5,37.5
	L3428.1,606.2z M3489.2,502.5c0-44.9-8.1-73.6-31.6-73.6c-25.7,0-36.8,41.2-36.8,87.5v8.8l68.4-11L3489.2,502.5L3489.2,502.5z"/>
<path d="M3737.1,294.3c-37.39,0-67.7-30.31-67.7-67.7c0-37.39,30.31-67.7,67.7-67.7s67.7,30.31,67.7,67.7
	c0.08,37.31-30.11,67.62-67.42,67.7C3737.29,294.3,3737.19,294.3,3737.1,294.3z M3671.6,742.3V345.8h131v396.5H3671.6z"/>
<path d="M4013,907.8c-50,0-97.8-8.8-138.3-30.2l30.2-96.4c24.3,13.2,55.9,21.3,83.9,21.3c38.3,0,55.9-15.5,55.9-51.5v-11
	c-13.24,4.7-27.15,7.2-41.2,7.4c-104.5,0-144.9-90.5-144.9-199.4c0-128,58.1-209.7,183.9-209.7c47.8,0,89.8,8.1,132.4,29.4v377.4
	C4174.8,845.3,4118.9,907.8,4013,907.8z M4044.6,430.4c-4.4-1.5-8.1-1.5-11.8-1.5c-30.9,0-44.1,39-44.1,115.5
	c0,72.1,12.5,110.4,43.4,110.4c3.7,0,8.1,0,12.5-1.5V430.4z"/>
<path d="M4362.5,606.2c8.1,33.1,30.2,41.9,64,41.9c27.2,0,58.1-7.4,80.2-16.9l27.2,89c-38.3,20.6-81.7,29.4-130.2,29.4
	c-120.7,0-172.9-87.5-172.9-206.7c0-114,55.2-204.5,162.6-204.5c105.9,0,156.7,80.2,156.7,201.6c0,11.8-0.7,25-1.5,37.5
	L4362.5,606.2z M4423.5,502.5c0-44.9-8.1-73.6-31.6-73.6c-25.7,0-36.8,41.2-36.8,87.5v8.8l68.4-11V502.5L4423.5,502.5z"/>
<path d="M4790.6,438.5c-9.6-4.4-22.1-5.9-33.1-5.9c-7.02,0.09-13.98,1.34-20.6,3.7v306h-131V367.8c47.1-21.3,101.5-29.4,156-29.4
	c16.71-0.13,33.42,0.84,50,2.9L4790.6,438.5z"/>
<path d="M5000.3,742.3V236.2h232.5v105.9h-95.6v94.2h80.2v102.3h-80.2v97.8h95.6v105.9H5000.3z"/>
<path d="M5477.7,438.5c-9.6-4.4-22.1-5.9-33.1-5.9c-7.02,0.09-13.98,1.34-20.6,3.7v306h-131V367.8c47.1-21.3,101.5-29.4,156-29.4
	c16.71-0.13,33.42,0.84,50,2.9L5477.7,438.5z"/>
<path d="M5737.4,742.3l-69.2-206h-1.5v206h-131V164.8h131v360.5h1.5l73.6-179.5h128L5783,525.3l94.9,217H5737.4z"/>
<path d="M6093.5,438.5c-9.6-4.4-22.1-5.9-33.1-5.9c-7.02,0.09-13.98,1.34-20.6,3.7v306h-131V367.8c47.1-21.3,101.5-29.4,156-29.4
	c16.71-0.13,33.42,0.84,50,2.9L6093.5,438.5z"/>
<path d="M6287.7,749.7c-101.5,0-158.9-43.4-158.9-130.2c0-89.8,59.6-129.5,179.5-144.9v-7.4c0-22.1-14.7-33.8-44.1-33.8
	c-30.9,0-64.7,7.4-89.8,18.4l-26.5-83.9c39-17.7,88.3-29.4,136.8-29.4c103.7,0,149.3,50.8,149.3,154.5v227.3
	C6399.5,739.4,6353.9,749.7,6287.7,749.7z M6308.3,548.8c-40.5,5.2-56.6,24.3-56.6,64.7c0,30.2,13.2,48.6,39.7,48.6
	c5.71,0.06,11.4-0.68,16.9-2.2V548.8L6308.3,548.8z"/>
<path d="M6629.8,749.7c-76.5,0-115.5-52.2-115.5-127.3V447.3h-34.6V345.8h34.6v-80.2l130.2-38.3v118.4h45.6v101.5h-45.6v175.1
	c0,14.7,10.3,25,25,25c7.12,0.17,14.17-1.34,20.6-4.4v92.7C6673.9,745.3,6651.1,749.7,6629.8,749.7z"/>
<path d="M6925.6,742.3V466.4c0-20.6-8.8-32.4-30.9-32.4c-7.04-0.11-14.04,1.15-20.6,3.7v304.6h-131V164.8h131v189.8
	c21.3-9.6,43.4-15.5,66.2-15.5c80.9,0,116.2,53.7,116.2,130.2v272.9h-130.9V742.3z"/>
<path fill="#FFFFFF" d="M514.7,714.4V208.3h136.8v400.2h89v105.9H514.7z"/>
<path fill="#FFFFFF" d="M942.1,721.8c-105.9,0-161.1-80.2-161.1-206c0-125.1,55.2-205.3,161.1-205.3s161.1,80.2,161.1,205.3
	C1103.2,641.6,1048.1,721.8,942.1,721.8z M942.1,405.5c-23.5,0-29.4,39.7-29.4,107.4c0,67.7,5.9,107.4,29.4,107.4
	s29.4-39.7,29.4-107.4C971.5,445.2,965.6,405.5,942.1,405.5z"/>
<path fill="#FFFFFF" d="M1360.7,714.4l-69.2-206h-1.5v206h-131V136.9h131v360.5h1.5l73.6-179.5h128l-86.8,179.5l94.9,217H1360.7z"/>
<path fill="#FFFFFF" d="M1675.6,721.8c-101.5,0-158.9-43.4-158.9-130.2c0-89.8,59.6-129.5,179.5-144.9v-7.4
	c0-22.1-14.7-33.8-44.1-33.8c-30.9,0-64.7,7.4-89.8,18.4l-26.5-83.9c39-17.7,88.3-29.4,136.8-29.4c103.7,0,149.3,50.8,149.3,154.5
	v227.3C1787.4,711.5,1741.8,721.8,1675.6,721.8z M1696.2,521c-40.5,5.2-56.7,24.3-56.7,64.7c0,30.2,13.2,48.6,39.7,48.6
	c5.71,0.06,11.4-0.68,16.9-2.2V521H1696.2z"/>
<path fill="#FFFFFF" d="M1889.7,714.4V136.9h131v577.5H1889.7z"/>
<path fill="#FFFFFF" d="M2455.4,714.4l-14-75.8H2334l-14.7,75.8H2195l128-506.2h144.2l128,506.2H2455.4z M2398.7,404.7
	c-4.26-21.63-7.2-43.51-8.8-65.5h-1.5c-2.2,20.6-5.2,42.7-9.6,65.5l-28,144.2h74.3L2398.7,404.7z"/>
<path fill="#FFFFFF" d="M2808.5,714.4V437.1c0-20.6-8.8-32.4-30.9-32.4c-7.05-0.17-14.05,1.09-20.6,3.7v306h-131V340
	c45.6-19.9,97.1-29.4,150.8-29.4c114.8,0,162.6,45.6,162.6,131v272.9L2808.5,714.4L2808.5,714.4z"/>
<path fill="#FFFFFF" d="M2989.5,714.4l89-295h-82.4V317.9h242.8l-82.4,295h82.4v101.5H2989.5z"/>
<path fill="#FFFFFF" d="M3405.9,578.3c8.1,33.1,30.2,41.9,64,41.9c27.2,0,58.1-7.4,80.2-16.9l27.2,89
	c-38.3,20.6-81.7,29.4-130.2,29.4c-120.7,0-172.9-87.5-172.9-206.7c0-114,55.2-204.5,162.6-204.5c105.9,0,156.7,80.2,156.7,201.6
	c0,11.8-0.7,25-1.5,37.5L3405.9,578.3z M3467,474.6c0-44.9-8.1-73.6-31.6-73.6c-25.7,0-36.8,41.2-36.8,87.5v8.8l68.4-11L3467,474.6
	L3467,474.6z"/>
<path fill="#FFFFFF" d="M3714.9,266.4c-37.39,0-67.7-30.31-67.7-67.7s30.31-67.7,67.7-67.7c37.39,0,67.7,30.31,67.7,67.7v0
	c0.08,37.31-30.11,67.62-67.42,67.7C3715.09,266.4,3714.99,266.4,3714.9,266.4z M3649.4,714.4V317.9h131v396.5H3649.4z"/>
<path fill="#FFFFFF" d="M3990.8,880c-50,0-97.8-8.8-138.3-30.2l30.2-96.4c24.3,13.2,55.9,21.3,83.9,21.3c38.3,0,55.9-15.5,55.9-51.5
	v-11c-13.24,4.7-27.15,7.2-41.2,7.4c-104.5,0-144.9-90.5-144.9-199.4c0-128,58.1-209.7,183.9-209.7c47.8,0,89.8,8.1,132.4,29.4
	v377.4C4152.6,817.4,4096.7,880,3990.8,880z M4022.4,402.5c-4.4-1.5-8.1-1.5-11.8-1.5c-30.9,0-44.1,39-44.1,115.5
	c0,72.1,12.5,110.4,43.4,110.4c3.7,0,8.1,0,12.5-1.5V402.5z"/>
<path fill="#FFFFFF" d="M4340.2,578.3c8.1,33.1,30.2,41.9,64,41.9c27.2,0,58.1-7.4,80.2-16.9l27.2,89
	c-38.3,20.6-81.7,29.4-130.2,29.4c-120.7,0-172.9-87.5-172.9-206.7c0-114,55.2-204.5,162.6-204.5c105.9,0,156.7,80.2,156.7,201.6
	c0,11.8-0.7,25-1.5,37.5L4340.2,578.3z M4401.3,474.6c0-44.9-8.1-73.6-31.6-73.6c-25.7,0-36.8,41.2-36.8,87.5v8.8l68.4-11V474.6z"/>
<path fill="#FFFFFF" d="M4768.4,410.6c-9.6-4.4-22.1-5.9-33.1-5.9c-7.02,0.09-13.98,1.34-20.6,3.7v306h-131V340
	c47.1-21.3,101.5-29.4,156-29.4c16.71-0.13,33.42,0.84,50,2.9L4768.4,410.6z"/>
<path fill="#FFFFFF" d="M4978,714.4V208.3h232.5v105.9h-95.6v94.2h80.2v102.3h-80.2v97.8h95.6v105.9H4978z"/>
<path fill="#FFFFFF" d="M5455.5,410.6c-9.6-4.4-22.1-5.9-33.1-5.9c-7.02,0.09-13.98,1.34-20.6,3.7v306h-131V340
	c47.1-21.3,101.5-29.4,156-29.4c16.71-0.13,33.42,0.84,50,2.9L5455.5,410.6z"/>
<path fill="#FFFFFF" d="M5715.2,714.4l-69.2-206h-1.5v206h-131V136.9h131v360.5h1.5l73.6-179.5h128l-86.8,179.5l94.9,217H5715.2z"/>
<path fill="#FFFFFF" d="M6071.3,410.6c-9.6-4.4-22.1-5.9-33.1-5.9c-7.02,0.09-13.98,1.34-20.6,3.7v306h-131V340
	c47.1-21.3,101.5-29.4,156-29.4c16.71-0.13,33.42,0.84,50,2.9L6071.3,410.6z"/>
<path fill="#FFFFFF" d="M6265.5,721.8c-101.5,0-158.9-43.4-158.9-130.2c0-89.8,59.6-129.5,179.5-144.9v-7.4
	c0-22.1-14.7-33.8-44.1-33.8c-30.9,0-64.7,7.4-89.8,18.4l-26.5-83.9c39-17.7,88.3-29.4,136.8-29.4c103.7,0,149.3,50.8,149.3,154.5
	v227.3C6377.3,711.5,6331.7,721.8,6265.5,721.8z M6286.1,521c-40.5,5.2-56.6,24.3-56.6,64.7c0,30.2,13.2,48.6,39.7,48.6
	c5.71,0.06,11.4-0.68,16.9-2.2V521z"/>
<path fill="#FFFFFF" d="M6607.6,721.8c-76.5,0-115.5-52.2-115.5-127.3V419.4h-34.6V317.9h34.6v-80.2l130.2-38.3v118.4h45.6v101.5
	h-45.6v175.1c0,14.7,10.3,25,25,25c7.12,0.17,14.17-1.34,20.6-4.4v92.7C6651.7,717.4,6628.9,721.8,6607.6,721.8z"/>
<path fill="#FFFFFF" d="M6903.3,714.4V438.6c0-20.6-8.8-32.4-30.9-32.4c-7.04-0.11-14.04,1.15-20.6,3.7v304.6h-131V136.9h131v189.8
	c21.3-9.6,43.4-15.5,66.2-15.5c80.9,0,116.2,53.7,116.2,130.2v272.9L6903.3,714.4L6903.3,714.4z"/>
</svg>
