<svg xmlns="http://www.w3.org/2000/svg" xmlns:xlink="http://www.w3.org/1999/xlink" viewBox="0 -12 190 60" preserveAspectRatio="xMinYMid meet">
<defs>
  <path id="park-logo-svg-a" d="M15.991.25v2.054H.002v2.73h15.99V2.984H18.9V.25z"/>
  <path d="M3.85.175H.002V.66C.654.664 1.079.79 1.079 1.84v8.565h1.865V7.049h.834l2.292 3.355h2.583V9.98c-.544-.016-.925-.44-1.29-.868L5.607 6.788c1.338-.42 2.695-1.412 2.695-3.268 0-2.068-1.43-3.346-4.453-3.346v.001zm0 6.054l-.91-.042V.988h.587c1.827 0 2.72.858 2.72 2.588 0 1.896-.984 2.653-2.397 2.653zM12.86.175H9.098V.66c.674 0 1.082.153 1.082 1.182v8.565h1.862V7.15h.414c2.932 0 4.826-.995 4.826-3.48 0-2.119-1.314-3.497-4.422-3.497v.001zm-.405 6.17h-.419V.987h.748c1.77 0 2.443.938 2.443 2.768 0 2.164-1.087 2.588-2.771 2.588h-.001zM26.229.027c-2.68 0-4.627 2.125-4.627 5.252 0 3.112 1.931 5.275 4.627 5.275 2.684 0 4.647-2.092 4.647-5.22 0-3.127-1.952-5.307-4.647-5.307zm0 .809c1.522 0 2.609 1.523 2.609 4.442 0 3.027-.941 4.465-2.609 4.465-1.519 0-2.572-1.509-2.572-4.465 0-2.974.903-4.442 2.572-4.442zm12.425 9.568h1.769V.175h-1.215V7.47L34.86.175h-1.914v10.23h1.2v-7.46l4.508 7.46zm4.636 0h5.07v-.913h-3.234V.175h-1.835v10.23zm6.62.002h1.813V.176h-1.814v10.23h.002zm10.37-.002h1.764V.175h-1.21l-.007 7.294L56.481.175h-1.914v10.23h1.205l-.006-7.46 4.513 7.46zm4.632 0h5.573v-.913h-3.702v-4.03h2.674v-.894l-2.674-.005V1.054h3.223V.175h-5.094v10.23z" id="park-logo-svg-c"/>
</defs>
<g fill="none" fill-rule="evenodd">
  <a xlink:href="{{ logo.href }}">
    <rect x="0" y="0" width="175" height="20" stroke="transparent" stroke-width="32"/>
    <g fill="#002E69">
      <path d="M189.782 25.473v.19c0 1.228-.383 4.173-4.778 4.173-2.375 0-3.576-1.2-3.576-2.372a1.8 1.8 0 0 1 1.802-1.8c.983 0 1.802.79 1.802 1.772 0 .682-.383 1.282-.956 1.582h.164c1.583 0 2.593-1.173 2.593-2.59a5.4 5.4 0 0 0-.109-.983l3.058.028z"/>
      <path d="M1.283 23.29c-.11.246-.136.546-.136.792 0 .218.054.463.109.709l-.765.218a6.178 6.178 0 0 1-.327-1.745l1.119.027zm10.483 0l-.6 1.72-4.75-1.72h5.35zm8.244 0l-2.757 1.72s-.983-.355-1.638-1.72h4.395zm4.968 0l-2.73 1.72s-1.064-.546-1.446-1.72h4.176zm6.743 0l-2.73 1.72s-.982-.355-1.61-1.72h4.34zm4.969 0l-2.73 1.72s-1.065-.546-1.447-1.692l4.177-.027zm6.36 0l-2.73 1.692s-.71-.355-1.173-1.691h3.903zm9.882 0c-.109.055-.245.137-.354.22l-2.375 1.472s-1.393-.355-2.348-1.691h5.077zm9.992 0l-2.703 1.692s-.71-.355-1.174-1.691h3.877zm8.845 0l-2.676 1.665s-.955-.355-1.61-1.664h4.286zm4.968 0l-2.675 1.665s-1.065-.519-1.447-1.664h4.122zm7.644 0l-2.648 1.665s-1.392-.355-2.32-1.664h4.968zm5.678 0l-2.157 1.665h-.6V23.29h2.757zm7.07 0l-2.648 1.665s-.682-.355-1.174-1.664h3.822zm7.18 0l-2.484 1.555s-1.31-.327-2.239-1.554h4.723zm9.282 0l-2.621 1.637s-.683-.354-1.147-1.636h3.768zm17.908 0l-.437 1.637h-.792c-1.338 0-3.003-.327-4.777-.818l-1.256-.327c-1.065-.3-2.675-.055-3.085 1.145h-.955l.573-1.636H131.5zm7.78 0l-2.594 1.61s-1.365-.327-2.293-1.61h4.887zm8.735 0l-2.566 1.61s-.682-.327-1.146-1.61h3.712zm6.361 0l-2.566 1.61s-.683-.327-1.147-1.61h3.713zm7.152 0l-2.566 1.61s-.928-.327-1.556-1.61h4.122zm4.969 0l-2.54 1.583s-1.01-.518-1.419-1.582h3.959zm5.077 0l-2.074 1.583h-.601V23.29h2.675zm7.043 0l-2.538 1.583s-.656-.328-1.147-1.582h3.685zm6.743 0l-2.511 1.583s-.901-.328-1.556-1.582h4.067zm4.095 0c.11.792.3 1.392.328 2.183h-3.085c-.137-.682-.382-1.31-.464-2.182h3.221z"/>
      <path d="M10.865 21.11l.628.217.082-.218h.955l-.764 2.182h-5.35l-1.448-.518c-2.402-.873-3.357-.3-3.685.518H.191c-.055-.764.055-1.5.273-2.182h10.4zm9.773 0v1.308h-.792s-1.2 0-1.528-1.309h-3.222c.082.927.273 1.636.546 2.182h4.368l.655-.41c.028.137.055.3.11.41h4.203l.437-.273v-.6s-1.2 0-1.529-1.309h-3.248zm11.738 0v1.308h-.791s-1.201 0-1.529-1.309h-3.221c.082.927.273 1.636.546 2.182h4.34l.683-.436c.027.163.054.3.109.436h4.177l.464-.273v-.6s-1.201 0-1.529-1.309h-3.249zm9.61 0c.327 1.308 1.528 1.28 1.528 1.28v.6l-.464.3h-3.903c-.192-.545-.355-1.254-.41-2.18h3.249zm8.271 0a1.612 1.612 0 0 0 1.502 1.28h.791v-1.28h3.112c-.273 1.28-1.31 1.363-2.784 2.18H47.8c-.382-.545-.682-1.254-.791-2.18h3.248zm11.657 0a1.612 1.612 0 0 0 1.501 1.28v.6l-.491.3h-3.85c-.19-.545-.354-1.254-.409-2.18h3.249zm8.271 0a1.612 1.612 0 0 0 1.502 1.28h.791v-1.28h3.276a1.608 1.608 0 0 0 1.502 1.254v.6l-.519.327h-4.122c-.055-.136-.082-.3-.11-.464l-.736.464h-4.286c-.273-.546-.492-1.255-.546-2.182h3.248zm11.657 0c.273.9 1.065 1.254 1.856 1.254.792 0 1.474-.491 2.02-.846l.683-.409h.164l.382.6-2.539 1.582h-4.996a4.686 4.686 0 0 1-.819-2.182h3.249zm8.654 0v1.854l-.437.327h-2.757v-2.182h3.194zm5.65 0a1.608 1.608 0 0 0 1.502 1.254v.6l-.546.327h-3.795c-.19-.546-.354-1.255-.409-2.182h3.249zm5.815 0c.3.817 1.065 1.145 1.802 1.145.792 0 1.474-.491 2.02-.846l.491-.3h.41l.3.491-2.702 1.69h-4.723a4.43 4.43 0 0 1-.874-2.18h3.276zm10.701 0c.328 1.226 1.502 1.226 1.502 1.226v.6l-.546.355h-3.767c-.192-.546-.355-1.255-.41-2.182h3.221zm9.855 0l-.737 2.072c.219-.137.6-.3.983-.355l.6-1.718h8.709l-.573 2.182h-10.702l.765-2.182h.955zm14.305 0c.273.845 1.064 1.226 1.829 1.226.792 0 1.474-.49 2.02-.845l.6-.382h.274l.354.546-2.593 1.636h-4.886c-.41-.546-.738-1.255-.847-2.182h3.249zm10.319 0c.355 1.2 1.501 1.2 1.501 1.2v.6l-.6.38h-3.713c-.191-.545-.355-1.254-.437-2.18h3.249zm6.36 0c.355 1.2 1.502 1.2 1.502 1.2v.6l-.628.38h-3.713c-.19-.545-.355-1.254-.436-2.18h3.275zm6.552 0c.355 1.2 1.502 1.2 1.502 1.2h.791v-1.2h3.276c.355 1.2 1.502 1.2 1.502 1.2v.6l-.628.38h-3.959a3.188 3.188 0 0 1-.136-.545l-.846.546h-4.123c-.273-.546-.49-1.255-.6-2.182h3.221zm12.039 0v1.772l-.519.409h-2.675v-2.182h3.194zm5.678 0c.355 1.172 1.474 1.172 1.474 1.172v.6l-.655.409h-3.658a7.836 7.836 0 0 1-.437-2.182h3.276zm6.17 0c.355 1.172 1.474 1.172 1.474 1.172h.791v-1.173h3.194v1.173c0 .382.028.709.055 1.009h-3.221c-.028-.164-.028-.355-.028-.546l-.846.546h-4.095a5.966 5.966 0 0 1-.6-2.182h3.276z"/>
      <path d="M13.486 16.745c0 1.2-.273 2.455-.71 3.71l-.246.654h-.955l.19-.518-6.442-2.346c-1.583-.572-3.084-.463-4.204.437L0 18.272c1.092-1.336 3.085-1.717 5.596-.79l6.443 2.345c.082-.272-.328-.463-.792-.872l-2.566-2.237h4.805v.027zm7.152 0v4.364h3.248a2.453 2.453 0 0 1-.081-.682v-3.682h-3.167zm11.738 0v4.364h3.249a2.594 2.594 0 0 1-.082-.682v-3.682h-3.167zm9.555 0v3.682c0 .273.027.491.082.682h-3.249c0-.218-.027-.436-.027-.682v-3.682h3.194zm8.244 0V20.4c0 .273.028.49.082.682h-3.221c-.027-.218-.027-.464-.027-.682v-3.682h3.166v.027zm5.57 0V20.4c0 .273-.028.49-.055.71h-3.112v-4.365h3.166zm6.087 0V20.4c0 .273.027.49.082.71h-3.249c0-.22-.027-.465-.027-.71v-3.655h3.194zm8.271 0V20.4c0 .273.028.518.082.71h-3.248c-.028-.22-.028-.465-.028-.71v-3.655h3.194zm5.57 0V20.4c0 .273.027.518.081.71h-3.276v-4.365h3.194zm6.06 0v3.628c0 .272.027.518.109.709h-3.249a5.753 5.753 0 0 1-.054-.71v-3.654l3.194.027zm8.763 0v4.364h-3.194v-4.364h3.194zm5.405 0c.11.355.164.791.164 1.255v2.373c0 .272.027.518.082.736h-3.249c-.027-.218-.027-.464-.027-.736V18c0-.49-.055-.9-.164-1.255H95.9zm5.924 0h1.501l-1.501.955v2.59c0 .328.054.6.136.846h-3.276c-.027-.272-.054-.545-.054-.845v-3.518l3.194-.028zm10.728 0v3.628c0 .3.027.545.082.736h-3.249c-.027-.245-.027-.49-.027-.736v-3.628h3.194zm11.52 0l-1.556 4.364h-.955l1.556-4.364h.955zm2.84 0l-1.311 3.682 1.092.3c3.276.928 4.75-.327 5.214-2.154l.737.272-.6 2.237h-8.709l1.556-4.364 2.02.027zm9.772 0v.082l.11-.082h1.501l-1.61 1.01v2.59c0 .3.054.546.109.764h-3.249a6.698 6.698 0 0 1-.055-.764v-3.6h3.194zm10.347 0v3.573c0 .3.027.573.109.764h-3.249c-.027-.246-.027-.491-.027-.764v-3.6l3.167.027zm6.36 0v3.573c0 .3.028.573.11.791h-3.25c-.026-.245-.026-.49-.026-.79v-3.574h3.166zm6.58 0v3.573c0 .3.027.573.108.791h-3.248c-.027-.245-.027-.518-.027-.79v-3.574h3.166zm5.568 0v3.573c0 .3.028.573.11.791h-3.276v-4.364h3.166zm6.552 0v4.364h-3.194v-4.364h3.194zm5.569 0v3.573c0 .327.027.573.11.818h-3.277c-.027-.245-.027-.518-.027-.79v-3.573l3.194-.028zm6.17 0v3.546c0 .327.054.573.109.818h-3.249c-.027-.245-.027-.518-.027-.818v-3.546h3.166zm5.568 0v4.364h-3.194v-4.364h3.194zM.437 21.11c.573-1.8 2.13-3 4.64-2.1l5.788 2.1H.437zm14.66 0c-.028-.218-.028-.436-.028-.654v-3.71h3.194v3.682c0 .246.027.464.082.682h-3.249zm11.738 0c-.028-.218-.028-.436-.028-.682v-3.682h3.194v3.682c0 .273.028.491.082.682h-3.248zm59.539 0l.109-.082.054.082h-.163zm19.928 0l.3-.19.11.19h-.41zm34.97 0l.19-.109.083.11h-.273z"/>
      <path d="M9.09 12.382l3.413 2.973c-.137-.737-.683-1.637-1.42-2.291l-.791-.682h1.2l.11.082c1.338 1.172 1.856 2.672 1.884 4.281H8.654L3.63 12.382h5.46zm11.548 0v4.363h3.194v-4.363h-3.194zm11.738 0v4.363h3.194v-4.363h-3.194zm9.528 0v4.363H38.71v-4.363h3.194zm3.521 0c-.218.3-.464.573-.71.79h-.791c.054-.272.082-.545.109-.817l1.392.027zm4.75 0v4.363h-3.194v-4.363h3.194zm5.542 0c.027.354.027.736.027 1.145v3.218H52.55v-3.218c0-.409-.027-.79-.054-1.145h3.221zm6.088 0v4.363H58.61v-4.363h3.194zm3.521 0a9.46 9.46 0 0 1-.682.79h-.792c.055-.272.082-.517.11-.79h1.364zm4.75 0v4.363h-3.194v-4.363h3.194zm5.57 0v4.363H72.45v-4.363h3.194zm6.087 0v4.363h-3.194v-4.363h3.194zm4.095 0c-.192.245-.41.518-.683.763h-.792c.055-.272.082-.518.082-.763h1.393zm4.668 0v4.363h-3.194v-4.363h3.194zm4.94 0c-.654 1.063-1.692 1.827-2.565 2.373v.054c1.638 0 2.648.655 3.03 1.936h-3.167c-.218-.736-.71-1.118-1.447-1.145v-.79a4.27 4.27 0 0 0 1.502-2.428h2.648zm6.361 0v4.363h-3.194v-4.363h3.194zm5.542 0c-.218 1.336-1.146 2.59-3.14 3.818l-.873.545h-1.501l1.174-.736c1.01-.627 1.474-1.964 1.255-3.627h3.085zm5.214 0v4.363h-3.194v-4.363h3.194zm3.467 0c-.191.273-.437.518-.655.736h-.792c.055-.245.082-.49.11-.736h1.337zm9.582 0l-1.556 4.363h-.928l1.556-4.363h.928zm2.84 0l-1.557 4.363h-1.993l1.556-4.363h1.993zm8.243 0v4.363h-3.194v-4.363h3.194zm5.542 0c-.191 1.363-1.147 2.618-3.14 3.873l-.764.49h-1.501l1.064-.681c1.01-.628 1.502-1.991 1.229-3.682h3.112zm4.805 0v4.363h-3.194v-4.363h3.194zm6.36 0v4.363h-3.194v-4.363h3.194zm6.552 0v4.363h-3.194v-4.363h3.194zm5.569 0v4.363h-3.194v-4.363h3.194zm6.579 0v4.363h-3.194v-4.363h3.194zm5.569 0v4.363h-3.194v-4.363h3.194zm6.17 0v4.363h-3.195v-4.363h3.194zm5.568 0v4.363h-3.194v-4.363h3.194zM15.07 16.745v-4.363h3.194v4.363h-3.194zm11.738 0v-4.363h3.194v4.363h-3.194z"/>
      <path d="M3.63 12.382l-.381-.355C1.829 10.8 1.31 8.918 1.966 7.118l.573-1.609c.027.818.546 1.636 1.883 2.782l4.669 4.064-5.46.027zm6.662 0L4.149 7.036C2.976 6 2.812 4.8 3.194 3.736L4.422.382l4.969 1.8c2.184.79 2.975 3.163 2.402 4.69l-.655 1.8L10.4 8.4c.3-.982.136-1.964-1.201-2.455L3.93 4.036c-.246.71-.246 1.582.737 2.428l6.852 5.945h-1.228v-.027zm4.777 0V9.109l6.36-2.782 2.403 3.982v2.073h-3.194v-1.2l-1.72-2.864-.655.3v3.791h-3.194v-.027zm11.738 0V9.109l6.361-2.782 2.402 3.982v2.1h-3.194v-1.2l-1.72-2.864-.655.3v3.791l-3.194-.054zm11.93 0v-2.1l-1.61-2.7 2.92-1.282 1.256 2.1c.164-.573.492-.927.956-1.145l2.21-.982 1.393 2.318c.792 1.336.328 2.673-.464 3.736h-1.392c0-.6-.11-1.172-.437-1.69l-.955-1.582c-.41-.682-.738-.6-.738.327v2.973l-3.139.027zm8.272 0V5.318c0-3.327 2.184-4.963 4.367-4.963 2.375 0 3.577 1.2 3.577 2.372a1.8 1.8 0 0 1-1.802 1.8 1.8 1.8 0 0 1-1.802-1.8c0-.682.382-1.282.956-1.582h-.164c-1.338 0-1.993.873-1.993 2.591v3.982l3.167-1.39.9 1.527c.983 1.609 1.338 2.89 1.447 4.554h-3.194c-.136-1.173-.464-2.1-1.173-3.273l-.492-.845-.655.3v3.818l-3.14-.027zm11.629 0v-2.1l-1.61-2.7L59.975 6.3l1.255 2.1c.164-.573.492-.927.956-1.145l2.211-.982L65.79 8.59c.792 1.336.328 2.7-.464 3.764h-1.392c.027-.6-.11-1.173-.437-1.719l-.955-1.581c-.41-.682-.737-.6-.737.327v2.973l-3.167.027zm8.271 0V7.69L70.103 6.3v6.082H66.91zm5.57 0V7.69L75.671 6.3v6.11l-3.194-.028zm6.06 0V9.055l6.36-2.782 1.393 2.318c.655 1.064.573 2.373-.464 3.79h-1.365c0-.463-.11-.872-.328-1.254l-1.72-2.863-.655.3v3.845l-3.221-.027zm8.763 0V5.29c0-3.327 2.184-4.964 4.368-4.964 2.375 0 3.576 1.2 3.576 2.373 0 .982-.792 1.8-1.775 1.8a1.8 1.8 0 0 1-1.801-1.8c0-.682.382-1.282.955-1.582h-.164c-1.337 0-1.993.873-1.993 2.591v4.31l3.986-1.746.846 1.39c.492.819.765 1.528.765 2.564 0 .818-.246 1.528-.628 2.155h-2.648c.109-.464.136-.927.136-1.337 0-.736-.19-1.472-.573-2.1l-.437-.709-1.447.628v3.518h-3.166zm11.329 0V8.945l6.36-2.781.901 1.527c1.065 1.773 1.665 3.3 1.447 4.69h-3.085c-.136-1.036-.546-2.208-1.283-3.408l-.491-.846-.655.3v3.955H98.63zm10.728 0v-2.155l-1.61-2.7 2.92-1.282 1.256 2.1c.164-.572.492-.927.956-1.145l2.211-.982 1.392 2.318c.82 1.337.328 2.728-.491 3.819h-1.338c.027-.6-.109-1.2-.437-1.746l-.955-1.582c-.41-.682-.737-.6-.737.328v3.027h-3.167zm15.315 0l.054-.191h-1.774L124.074 9h1.774l1.556-4.418-1.693-.627c-2.211-.791-3.494.054-3.494 1.527 0 .654.246 1.445.819 2.263l-.683.41c-.409-.546-1.119-1.691-1.119-3.191 0-2.264 1.638-5.864 5.733-4.391l2.484.9-3.849 10.854h-.928v.055zm1.774 0l3.74-10.582 1.775.655L129.643 9h2.402l-1.12 3.19h-2.402l-.055.192h-2.02zm7.07 0V9.027l6.361-2.782.928 1.528c1.038 1.745 1.638 3.245 1.447 4.636h-3.112c-.164-1.009-.573-2.154-1.283-3.354l-.491-.846-.655.3v3.9l-3.194-.027zm10.32 0V7.609l3.194-1.39v6.163h-3.194zm6.36 0V7.609h-1.61l.655-1.064s1.556 0 3.549-3.3h.6v3.3h2.239l-.655 1.064h-1.584v4.773h-3.194zm6.58 0V7.609l3.193-1.39v6.163h-3.194zm5.568 0V7.609l3.194-1.39v6.163h-3.194zm6.552 0v-2.21c0-1.554-1.583-1.554-1.583-1.554v-.6l4.176-1.827c.273.545.464 1.145.546 1.773l4.04-1.773.847 1.39c.737 1.255.764 2.783.764 4.174v.627h-3.194v-.627c0-.928 0-2.019-.518-2.891l-.437-.71-1.447.628v3.573h-3.194v.027zm11.738 0v-3.41l6.361-2.781 2.402 3.982v2.209h-3.194v-1.337l-1.72-2.863-.655.3v3.927h-3.194v-.027zM71.96 3.3a1.8 1.8 0 0 1 1.801-1.8 1.8 1.8 0 0 1 1.802 1.8c0 .982-.791 1.8-1.774 1.8-1.038-.027-1.83-.818-1.83-1.8zm-4.941 0c0-.982.791-1.8 1.774-1.8a1.8 1.8 0 1 1 0 3.6c-.983 0-1.774-.818-1.774-1.8zm76.628-.055a1.8 1.8 0 0 1 1.801-1.8 1.8 1.8 0 1 1 0 3.6c-1.01-.027-1.801-.818-1.801-1.8z"/>
    </g>
  </a>
  <a xlink:href="https://rp-online.de?utm_source=sz&amp;utm_campaign=header&amp;utm_medium=logo" target="_blank">
    <rect x="0" y="40" width="135" height="10" stroke="transparent" stroke-width="20"/>
    <path d="M.79 36.988h2.383c.427 0 .818.038 1.174.113.355.075.658.198.907.367.249.17.442.394.58.672.139.279.208.621.208 1.028 0 .392-.069.73-.207 1.016a1.91 1.91 0 0 1-.587.712c-.253.188-.556.33-.907.424a4.515 4.515 0 0 1-1.168.14h-1.4v2.937H.79v-7.409zm2.264 3.704c.68 0 1.184-.123 1.512-.367.328-.245.492-.63.492-1.158 0-.535-.166-.905-.498-1.112-.332-.207-.834-.311-1.506-.311h-1.28v2.948h1.28zm4.186 2.281c0-.602.282-1.063.848-1.383.565-.32 1.464-.544 2.697-.672 0-.174-.018-.343-.053-.509a1.178 1.178 0 0 0-.19-.44 1.014 1.014 0 0 0-.362-.31 1.244 1.244 0 0 0-.58-.12 2.422 2.422 0 0 0-.943.181 4.734 4.734 0 0 0-.777.407l-.391-.644c.269-.165.597-.325.984-.48a3.43 3.43 0 0 1 1.28-.231c.704 0 1.214.205 1.53.615.316.41.474.958.474 1.644v3.365h-.806l-.083-.655h-.024a4.817 4.817 0 0 1-.895.56 2.305 2.305 0 0 1-1.014.23c-.49 0-.895-.135-1.215-.406-.32-.27-.48-.655-.48-1.152zm.96-.068c0 .317.097.543.29.678.194.136.433.203.718.203.277 0 .54-.062.789-.186s.511-.307.788-.548v-1.524c-.482.06-.89.131-1.221.214-.28.063-.549.162-.8.294a1.122 1.122 0 0 0-.433.39.925.925 0 0 0-.13.48zm5.395-3.998h.806l.083.994h.036a2.57 2.57 0 0 1 .717-.824c.281-.204.587-.305.92-.305.229 0 .434.037.616.113l-.19.813a1.618 1.618 0 0 0-.557-.09c-.245 0-.5.094-.765.282-.265.188-.496.516-.694.982v3.524h-.972v-5.488zm4.28.757h-.853v-.7l.901-.057.119-1.536h.818v1.536h1.553v.757H18.86v3.05c0 .338.065.6.195.784.13.185.362.277.694.277.103 0 .213-.015.332-.045.109-.027.216-.061.32-.102l.19.7c-.158.053-.33.1-.516.142-.18.04-.366.061-.551.062-.309 0-.567-.045-.777-.136a1.33 1.33 0 0 1-.51-.372 1.422 1.422 0 0 1-.278-.576 3.131 3.131 0 0 1-.083-.746v-3.038zm3.842-.757h.807l.083.79h.035c.277-.263.567-.483.872-.66.32-.181.688-.273 1.06-.265.61 0 1.054.18 1.335.542.28.361.42.896.42 1.604v3.478h-.972v-3.353c0-.52-.086-.894-.26-1.124-.174-.23-.45-.344-.83-.344-.3 0-.566.071-.795.214a5.099 5.099 0 0 0-.782.633v3.975h-.973v-5.489zm6.06 2.756c0-.452.072-.856.219-1.214.146-.358.34-.66.58-.91a2.52 2.52 0 0 1 .825-.57 2.42 2.42 0 0 1 .96-.197c.364 0 .69.06.978.18.289.12.53.294.724.52.193.226.342.497.444.813.103.316.154.67.154 1.062 0 .203-.011.373-.035.508h-3.89c.04.595.232 1.065.576 1.412.344.346.792.52 1.346.52.276 0 .531-.04.764-.12.234-.078.457-.182.67-.31l.344.61c-.253.15-.533.282-.842.395a3.056 3.056 0 0 1-1.055.17c-.387 0-.749-.066-1.085-.198a2.582 2.582 0 0 1-.877-.565 2.599 2.599 0 0 1-.587-.897 3.217 3.217 0 0 1-.214-1.209zm4.03-.418c0-.565-.124-.996-.373-1.293-.249-.297-.599-.446-1.05-.446-.201 0-.401.04-.586.118a1.63 1.63 0 0 0-.504.34 1.802 1.802 0 0 0-.373.541 2.41 2.41 0 0 0-.196.74h3.083zm2.277-2.338h.807l.083.994h.035a2.57 2.57 0 0 1 .718-.824c.28-.204.586-.305.918-.305.23 0 .435.037.617.113l-.19.813a1.618 1.618 0 0 0-.557-.09c-.245 0-.5.094-.765.282-.265.188-.496.516-.693.982v3.524h-.973v-5.488zm5.68 0h1.008l1.09 3.117c.088.272.177.543.267.814l.267.802h.048c.087-.264.174-.531.26-.802l.261-.814 1.091-3.117h.96l-2.039 5.49H41.84l-2.075-5.49zm5.94 2.756c0-.46.073-.868.22-1.225a2.77 2.77 0 0 1 .587-.91c.245-.248.527-.436.847-.564a2.705 2.705 0 0 1 1.014-.192c.356 0 .694.064 1.014.192.32.128.603.316.848.564.245.249.44.552.587.91.146.357.22.766.22 1.225 0 .452-.074.857-.22 1.214a2.705 2.705 0 0 1-.587.904 2.503 2.503 0 0 1-.848.559 2.705 2.705 0 0 1-1.014.192c-.356 0-.693-.064-1.014-.192a2.503 2.503 0 0 1-.847-.56 2.704 2.704 0 0 1-.587-.903 3.183 3.183 0 0 1-.22-1.214zm1.008 0c0 .316.04.602.119.858.079.256.191.477.338.661a1.503 1.503 0 0 0 1.203.582 1.503 1.503 0 0 0 1.204-.582c.146-.184.259-.405.338-.66.079-.257.118-.543.118-.859 0-.316-.04-.604-.118-.864a2.06 2.06 0 0 0-.338-.672 1.51 1.51 0 0 0-.528-.435 1.504 1.504 0 0 0-.676-.152c-.245 0-.47.05-.676.152a1.51 1.51 0 0 0-.527.435 2.061 2.061 0 0 0-.338.672 2.96 2.96 0 0 0-.119.864zm5.846-2.756h.806l.083.79h.036c.276-.263.567-.483.871-.66.32-.181.689-.273 1.061-.265.609 0 1.054.18 1.334.542.28.361.421.896.421 1.604v3.478h-.972v-3.353c0-.52-.087-.894-.26-1.124-.175-.23-.452-.344-.83-.344-.301 0-.566.071-.795.214a5.099 5.099 0 0 0-.783.633v3.975h-.972v-5.489z" fill="#2F2F2F"/>
    <path d="M77.584 44.393v2.054h-15.99v2.73h15.99v-2.049h2.91v-2.735z" fill="#FFCB04"/>
    <g transform="translate(61.593 44.143)">
      <mask id="park-logo-svg-b" fill="#fff">
        <use xlink:href="#park-logo-svg-a"/>
      </mask>
      <g mask="url(#park-logo-svg-b)" fill="#FFBE00">
        <path d="M0 0h19.808v4.717H0z"/>
      </g>
    </g>
    <g>
      <path d="M65.443 34.175h-3.848v.484c.652.005 1.077.132 1.077 1.182v8.565h1.864v-3.357h.835l2.292 3.355h2.583v-.424c-.544-.016-.925-.44-1.29-.868L67.2 40.788c1.338-.42 2.695-1.412 2.695-3.268 0-2.068-1.43-3.346-4.453-3.346v.001zm0 6.054l-.91-.042v-5.199h.586c1.828 0 2.722.858 2.722 2.588 0 1.896-.985 2.653-2.398 2.653zm9.01-6.054h-3.762v.484c.674 0 1.082.153 1.082 1.182v8.565h1.862V41.15h.414c2.932 0 4.826-.995 4.826-3.48 0-2.119-1.314-3.497-4.422-3.497v.001zm-.405 6.17h-.42v-5.357h.749c1.77 0 2.442.938 2.442 2.768 0 2.164-1.086 2.588-2.77 2.588h-.001zm13.774-6.317c-2.68 0-4.627 2.125-4.627 5.252 0 3.112 1.931 5.275 4.627 5.275 2.684 0 4.647-2.092 4.647-5.22 0-3.127-1.953-5.307-4.647-5.307zm0 .809c1.522 0 2.608 1.523 2.608 4.442 0 3.027-.94 4.465-2.608 4.465-1.519 0-2.572-1.509-2.572-4.465 0-2.974.903-4.442 2.572-4.442zm12.425 9.568h1.769v-10.23H100.8v7.294l-4.348-7.294h-1.914v10.23h1.2v-7.46l4.508 7.46zm4.636 0h5.07v-.913h-3.234v-9.317h-1.835v10.23zm6.62.002h1.813V34.176h-1.814v10.23h.002zm10.37-.002h1.764v-10.23h-1.21l-.007 7.294-4.346-7.294h-1.915v10.23h1.206l-.006-7.46 4.513 7.46zm4.632 0h5.573v-.913h-3.702v-4.03h2.674v-.894l-2.674-.005v-3.509h3.222v-.879h-5.093v10.23z" fill="#2F2F2F"/>
      <g transform="translate(61.593 34)">
        <mask id="park-logo-svg-d" fill="#fff">
          <use xlink:href="#park-logo-svg-c"/>
        </mask>
        <g mask="url(#park-logo-svg-d)" fill="#2F2F2F">
          <path d="M0 0h71.31v12.264H0z"/>
        </g>
      </g>
    </g>
  </a>
</g>
</svg>