<?xml version="1.0" encoding="UTF-8"?>
<svg  preserveAspectRatio="xMinYMid meet" width="211px" height="30px" viewBox="0 0 211 30" version="1.1" xmlns="http://www.w3.org/2000/svg" xmlns:xlink="http://www.w3.org/1999/xlink">
    <!-- Generator: Sketch 52.2 (67145) - http://www.bohemiancoding.com/sketch -->
    <title>AZ-logo-website</title>
    <desc>Created with Sketch.</desc>
    <defs>
        <polygon id="logo-az-path-1" points="0.103027826 0.102665217 10.969913 0.102665217 10.969913 17.7391304 0.103027826 17.7391304"></polygon>
    </defs>
    <g id="AZ-logo-website" stroke="none" stroke-width="1" fill="none" fill-rule="evenodd" transform="translate(0.927831, 0.747576)">
        <g id="AZ-Logo" transform="translate(0.000000, -2.500000)">
            <g id="Group-42" transform="translate(0.000000, 6.538462)">
                <polygon id="Fill-1" fill="#3FB5EA" points="4.8314 19.5549152 10.3527565 19.5549152 13.113313 13.0367703 10.3526348 6.51813261"></polygon>
                <polygon id="Fill-2" fill="#009EE3" points="7.59166435 -4.92753623e-05 1.2173913e-05 17.9257116 0.644012174 19.5548783 4.8313513 19.5548783 10.3525861 6.51809565 7.5921513 -4.92753623e-05"></polygon>
                <polygon id="Fill-3" fill="#C5C5C5" points="13.1132887 13.036758 15.8737235 19.5549029 21.3952017 19.5549029 15.873967 6.51812029"></polygon>
                <polygon id="Fill-4" fill="#333333" points="13.1130939 -4.92753623e-05 10.3525374 6.51809565 13.1133374 13.0367333 15.8740157 6.51809565 13.1135809 -4.92753623e-05"></polygon>
                <polygon id="Fill-5" fill="#262626" points="7.59210261 -4.92753623e-05 10.3525374 6.51809565 13.1130939 -4.92753623e-05"></polygon>
                <polygon id="Fill-6" fill="#474747" points="13.1135322 -4.92753623e-05 15.873967 6.51809565 18.6344017 -4.92753623e-05"></polygon>
                <polygon id="Fill-7" fill="#DBDBDB" points="18.6345235 -4.92753623e-05 15.8740887 6.51809565 21.39508 19.5548783 25.5826626 19.5548783 26.2266626 17.9257116 18.6350104 -4.92753623e-05"></polygon>
                <g id="Group-41" transform="translate(39.321739, 0.880920)">
                    <path d="M8.86230435,11.2171543 L4.62346957,11.2171543 L6.81453043,4.58703116 L8.86230435,11.2171543 Z M12.7286174,15.6157196 L8.09595652,1.03945145 L6.99093043,1.03945145 L2.14705217,15.2392558 C1.40103478,17.4242486 1.31155652,17.6329297 0.605226087,17.8626761 L0.0182,18.0366181 L0.0182,18.6738717 L4.48578261,18.6738717 L4.48578261,18.024792 L3.65807826,17.835821 C3.0247913,17.6733355 2.90475652,17.4257268 2.90475652,17.0253645 C2.90475652,16.7245384 2.94797391,16.2595022 3.28823478,15.3171109 L4.30463478,12.2106688 L9.1714,12.2106688 L10.3526348,16.0327123 C10.5356087,16.6173645 10.5740783,16.9489877 10.5740783,17.1245312 C10.5740783,17.4180891 10.5740783,17.6717341 9.79811304,17.8604587 L9.13256522,18.0294732 L9.13256522,18.6738717 L14.8323913,18.6738717 L14.8323913,18.0251616 L14.1051217,17.8568862 C13.5765304,17.7601833 13.2891043,17.406879 12.7286174,15.6157196 Z" id="Fill-8" fill="#000000"></path>
                    <path d="M19.943073,17.6483406 C18.7025513,17.6483406 17.9911078,16.8858043 17.9911078,15.5567246 C17.9911078,14.0267246 18.7607426,13.3400725 20.9350035,12.9328116 L22.2102209,12.6767029 L22.2102209,16.6346232 C21.7516296,17.2796377 20.9300122,17.6483406 19.943073,17.6483406 M24.7052643,17.6248116 C24.5305687,17.4894275 24.3688991,17.2818551 24.3688991,16.6848841 L24.3688991,8.95555072 C24.3688991,6.72842754 23.1053687,5.6460942 20.50636,5.6460942 C19.1081861,5.6460942 16.463647,6.10201449 16.463647,7.82726812 C16.463647,8.58056522 16.9075078,9.04831159 17.6217513,9.04831159 C18.4382557,9.04831159 18.838047,8.57625362 18.9575948,7.47938406 C19.0529165,6.84915217 19.2100817,6.55214493 20.2359774,6.55214493 C22.1223252,6.55214493 22.2102209,7.41766667 22.2102209,9.07578261 L22.2102209,11.6047174 L19.2950557,12.3753841 C17.880447,12.7677391 15.7424643,13.360029 15.7424643,15.820471 C15.7424643,17.7733768 17.0929165,18.9859203 19.2669339,18.9859203 C20.41956,18.9859203 21.58436,18.4932899 22.3549687,17.7038986 C22.5700817,18.5596884 23.166847,18.9620217 24.20236,18.9620217 C24.8578035,18.9620217 25.5559774,18.7066522 25.9272817,18.4690217 L26.0364817,18.3996667 L26.0364817,17.8986594 L25.8129687,17.8881884 C25.3054383,17.8651522 24.9805165,17.8396522 24.7052643,17.6248116" id="Fill-10" fill="#000000"></path>
                    <path d="M31.621167,6.6482442 C32.4776017,6.6482442 32.5220365,6.83339638 32.7669757,7.85315 C32.9064887,8.51146884 33.1537409,9.12051232 34.0100539,9.12051232 C34.8151148,9.12051232 35.258367,8.67001232 35.258367,7.85167174 C35.258367,6.78547609 34.3856191,5.64610652 31.9367148,5.64610652 C30.5686104,5.64610652 29.1152887,6.29838913 28.0487322,7.39107029 C27.1453061,8.31633841 26.0684017,10.0057442 26.0684017,12.796208 C26.0684017,16.6570558 28.0011322,18.9620341 31.2380539,18.9620341 C33.0781409,18.9620341 34.5465583,18.1330993 35.1858104,17.311679 L35.2358452,17.2472514 L35.2358452,16.4650051 L34.8744017,16.7017732 C34.0740887,17.2268022 33.1128365,17.5040993 32.094367,17.5040993 C28.9911148,17.5040993 28.3396887,14.5260196 28.3396887,12.0280051 C28.3396887,8.91072246 29.7197235,6.6482442 31.621167,6.6482442" id="Fill-12" fill="#000000"></path>
                    <path d="M46.3301391,16.9007841 L46.3301391,9.09975507 C46.3301391,6.64670435 45.4004174,5.64616812 43.1210957,5.64616812 C41.8797217,5.64616812 40.2904174,6.28637826 39.2086435,6.98116087 L39.2086435,3.31458116 C39.2086435,2.66155942 39.2237391,1.96234203 39.2535652,1.23836377 L39.308713,0.148023188 L38.9645565,0.074726087 L35.4500696,0.43616087 L35.4500696,0.972646377 L36.2814261,1.34405942 C37.0358435,1.71128406 37.0502087,1.71867536 37.0502087,2.47455942 L37.0502087,16.9007841 C37.0502087,17.6845087 37.0272,17.6902986 36.4413913,17.8462551 L35.5626783,18.0580159 L35.5626783,18.673958 L40.7862609,18.673958 L40.7862609,18.0564145 L39.8903826,17.8477333 C39.2342087,17.6732986 39.2086435,17.6665232 39.2086435,16.9007841 L39.2086435,7.91628406 L39.3062783,7.87698696 C40.0608174,7.57123333 41.0938957,7.1519 42.4901217,7.1519 C43.7941913,7.1519 44.1714609,7.6375087 44.1714609,9.31570435 L44.1714609,16.9007841 C44.1714609,17.6668928 44.1214261,17.6803203 43.5193043,17.8457623 L42.616487,18.0564145 L42.616487,18.673958 L47.8400696,18.673958 L47.8400696,18.0564145 L46.9441913,17.8477333 C46.3531478,17.6902986 46.3301391,17.6845087 46.3301391,16.9007841" id="Fill-14" fill="#000000"></path>
                    <path d="M53.5287443,6.55212029 C55.0932139,6.55212029 55.783353,7.79447536 55.8171965,10.6945768 L50.42184,10.8708594 C50.6378052,8.12191014 51.7621878,6.55212029 53.5287443,6.55212029 M53.5961878,5.64619275 C50.4691965,5.64619275 48.1111096,8.5547942 48.1111096,12.4120696 C48.1111096,16.6358304 50.1310052,18.9619971 53.7990052,18.9619971 C55.3625009,18.9619971 56.8223965,18.3297942 57.8042226,17.2275043 L57.8644835,17.1599971 L57.8644835,16.3688812 L57.5029183,16.6057725 C56.6665704,17.1542072 55.5644661,17.4322435 54.2271617,17.4322435 C51.0494052,17.4322435 50.3823965,14.4149899 50.3823965,11.8840841 L50.3823965,11.7610188 L58.085927,11.7610188 L58.0898226,11.5284391 C58.1267096,9.37744638 57.6630052,7.79028696 56.7117357,6.81106232 C55.9609704,6.03805507 54.9126748,5.64619275 53.5961878,5.64619275" id="Fill-16" fill="#000000"></path>
                    <path d="M69.2657183,16.9007841 L69.2657183,9.09975507 C69.2657183,6.64670435 68.3294226,5.64616812 66.0342748,5.64616812 C64.5854574,5.64616812 62.9456313,6.49776957 62.1353357,6.9786971 L62.1730748,5.81271884 L61.8253878,5.73794348 L58.5657009,6.28218986 L58.5657009,6.79748696 L59.3437357,7.19390725 C59.9493878,7.50372609 59.9856661,7.52220435 59.9856661,8.18754493 L59.9856661,16.9007841 C59.9856661,17.6845087 59.9856661,17.6845087 59.3768487,17.8462551 L58.4981357,18.0580159 L58.4981357,18.673958 L63.7217183,18.673958 L63.7217183,18.0551826 L62.8052661,17.8481029 C62.1690574,17.6736681 62.1442226,17.6668928 62.1442226,16.9007841 L62.1442226,7.89324783 L62.2304139,7.85924783 C62.9810574,7.56076232 64.0092661,7.1519 65.4257009,7.1519 C66.7297704,7.1519 67.10704,7.64797971 67.10704,9.36350145 L67.10704,16.9007841 C67.10704,17.6726826 67.0946226,17.6757623 66.4548835,17.8457623 L65.5520661,18.0564145 L65.5520661,18.673958 L70.7756487,18.673958 L70.7756487,18.0564145 L69.8797704,17.8477333 C69.2657183,17.6845087 69.2657183,17.6845087 69.2657183,16.9007841" id="Fill-18" fill="#000000"></path>
                    <path d="M76.4639096,6.55212029 C78.0283791,6.55212029 78.7185183,7.79447536 78.7523617,10.6945768 L73.3572487,10.8708594 C73.5732139,8.12191014 74.6974748,6.55212029 76.4639096,6.55212029 M76.5315965,5.64619275 C73.4046052,5.64619275 71.0465183,8.5547942 71.0465183,12.4120696 C71.0465183,16.6358304 73.0666574,18.9619971 76.7345357,18.9619971 C78.2979096,18.9619971 79.7576835,18.3297942 80.7396313,17.2275043 L80.7997704,17.1599971 L80.7997704,16.3688812 L80.4382052,16.6057725 C79.6019791,17.1542072 78.4998748,17.4322435 77.1625704,17.4322435 C73.9848139,17.4322435 73.3178052,14.4149899 73.3178052,11.8840841 L73.3178052,11.7610188 L81.0210922,11.7610188 L81.0251096,11.5284391 C81.0621183,9.37744638 80.5984139,7.79028696 79.6471443,6.81106232 C78.8965009,6.03805507 77.8480835,5.64619275 76.5315965,5.64619275" id="Fill-20" fill="#000000"></path>
                    <path d="M88.0454643,5.64613116 C87.0157948,5.64613116 86.0038991,6.41950797 85.086473,7.20594275 L85.1040035,5.90926159 L84.7722643,5.73211667 L81.5011339,6.2821529 L81.5011339,6.79757319 L82.1521948,7.12882681 C82.8775165,7.48200797 82.9209774,7.50282681 82.9209774,8.23542826 L82.9209774,16.8769717 C82.9209774,17.6845949 82.9209774,17.6845949 82.3122817,17.8462181 L81.4336904,18.057979 L81.4336904,18.673921 L86.9050122,18.673921 L86.9050122,18.0487399 L85.5871861,17.7960804 C85.1412557,17.7110804 85.0796557,17.5997181 85.0796557,16.8769717 L85.0796557,8.23000797 C86.0773078,7.43618188 86.6804035,7.15198623 86.896247,7.15198623 C87.0150643,7.15198623 87.0198122,7.15198623 87.1699165,7.49408043 L87.2007165,7.56417464 C87.3309774,7.85896449 87.6019687,8.47207319 88.3611339,8.47207319 C89.1056904,8.47207319 89.5869252,7.95529783 89.5869252,7.15543551 C89.5869252,6.21045725 89.0106122,5.64613116 88.0454643,5.64613116" id="Fill-22" fill="#000000"></path>
                    <path d="M119.016715,4.17544638 C119.780019,4.17544638 120.37788,3.55494638 120.37788,2.76259855 C120.37788,1.95657681 119.780019,1.3256058 119.016715,1.3256058 C118.266193,1.3256058 117.678315,1.95657681 117.678315,2.76259855 C117.678315,3.56800435 118.253532,4.17544638 119.016715,4.17544638" id="Fill-24" fill="#000000"></path>
                    <path d="M111.360468,6.55212029 C112.925059,6.55212029 113.615077,7.79447536 113.649042,10.6945768 L108.253807,10.8708594 C108.469772,8.12191014 109.594033,6.55212029 111.360468,6.55212029 M111.428155,5.64619275 C108.301042,5.64619275 105.943077,8.5547942 105.943077,12.4120696 C105.943077,16.6358304 107.963216,18.9619971 111.631216,18.9619971 C113.194346,18.9619971 114.654363,18.3297942 115.63619,17.2275043 L115.696329,17.1599971 L115.696329,16.3688812 L115.334763,16.6057725 C114.498537,17.1542072 113.396555,17.4322435 112.059129,17.4322435 C108.881494,17.4322435 108.214363,14.4149899 108.214363,11.8840841 L108.214363,11.7610188 L115.91765,11.7610188 L115.921668,11.5284391 C115.958677,9.37744638 115.494972,7.79028696 114.543703,6.81106232 C113.793059,6.03805507 112.744642,5.64619275 111.428155,5.64619275" id="Fill-26" fill="#000000"></path>
                    <path d="M120.197487,16.9007841 L120.197487,8.69163188 C120.197487,7.05125507 120.260913,6.21776232 120.285626,6.03532029 L120.313139,5.82824058 L119.975678,5.73720435 L116.573922,6.28058841 L116.573922,6.7969942 L117.267835,7.1519 C118.009835,7.5238058 118.03893,7.53797246 118.03893,8.23534203 L118.03893,16.9007841 C118.03893,17.6845087 118.03893,17.6845087 117.430113,17.8462551 L116.551522,18.0580159 L116.551522,18.673958 L121.729939,18.673958 L121.729939,18.0606029 L120.899922,17.8473638 C120.250565,17.6799507 120.197487,17.6660304 120.197487,16.9007841" id="Fill-28" fill="#000000"></path>
                    <path d="M126.647762,17.5761645 C125.713536,17.5761645 125.349536,17.2117732 125.349536,16.2767732 L125.349536,7.24792536 L127.48484,7.24792536 L127.598788,6.07849783 L125.349536,6.07849783 L125.349536,3.34199058 L124.819118,3.34199058 L124.761414,3.49400507 C124.146875,5.11849058 123.297623,6.07615725 122.008527,6.59958478 L121.861344,6.65908478 L121.861344,7.24792536 L123.190857,7.24792536 L123.190857,16.4206572 C123.190857,17.9819471 124.146144,18.9137442 125.746283,18.9137442 C126.874075,18.9137442 127.915675,18.35065 128.514266,17.8234036 L128.594736,17.7529399 L128.594736,17.0890775 L127.772144,17.230621 C127.340092,17.3926138 127.292857,17.5761645 126.647762,17.5761645" id="Fill-30" fill="#000000"></path>
                    <path d="M139.201403,16.3489616 L139.201403,5.87018623 L138.882934,5.73369348 L135.668047,6.28299058 L135.668047,6.79434565 L136.341751,7.15319348 C137.042725,7.4940558 137.042725,7.52571522 137.042725,8.33136739 L137.042725,16.6282297 C136.266273,16.9803022 135.151751,17.4080123 133.986708,17.4080123 C132.739369,17.4080123 132.08003,16.6763964 132.08003,15.2924978 L132.08003,5.87018623 L131.76156,5.73369348 L128.546673,6.28299058 L128.546673,6.79434565 L129.215386,7.15036014 C129.908082,7.5078529 129.921351,7.51487464 129.921351,8.30746884 L129.921351,15.5566138 C129.921351,17.6903601 131.082743,18.9137442 133.107751,18.9137442 C134.673073,18.9137442 136.010499,18.2163746 137.042725,17.5376065 L137.042725,18.7868601 L137.35949,18.9211355 L140.688934,18.4257949 L140.688934,17.8910341 L139.925751,17.5900848 C139.328012,17.3710558 139.201403,17.2918457 139.201403,16.3489616" id="Fill-32" fill="#000000"></path>
                    <path d="M152.274689,16.9007841 L152.274689,9.09975507 C152.274689,6.64670435 151.338393,5.64616812 149.043002,5.64616812 C147.594184,5.64616812 145.95448,6.49776957 145.144063,6.9786971 L145.181923,5.81271884 L144.83448,5.73794348 L141.574671,6.28218986 L141.574671,6.79748696 L142.352706,7.19390725 C142.958358,7.50372609 142.994637,7.52220435 142.994637,8.18754493 L142.994637,16.9007841 C142.994637,17.6845087 142.994637,17.6845087 142.385819,17.8462551 L141.507228,18.0580159 L141.507228,18.673958 L146.730689,18.673958 L146.730689,18.0551826 L145.814237,17.8481029 C145.178028,17.6736681 145.153193,17.6668928 145.153193,16.9007841 L145.153193,7.89324783 L145.239384,7.85924783 C145.990028,7.56076232 147.018237,7.1519 148.434671,7.1519 C149.738741,7.1519 150.11601,7.64797971 150.11601,9.36350145 L150.11601,16.9007841 C150.11601,17.6726826 150.103593,17.6757623 149.463732,17.8457623 L148.561037,18.0564145 L148.561037,18.673958 L153.784376,18.673958 L153.784376,18.0564145 L152.888497,17.8477333 C152.274689,17.6845087 152.274689,17.6845087 152.274689,16.9007841" id="Fill-34" fill="#000000"></path>
                    <g id="Group-38" transform="translate(154.000000, 5.543478)">
                        <mask id="mask-2" fill="white">
                            <use xlink:href="#logo-az-path-1"></use>
                        </mask>
                        <g id="Clip-37"></g>
                        <path d="M5.11490609,16.8096 C3.09135826,16.8096 2.14885391,16.0609841 2.14885391,14.4537449 C2.14885391,13.456658 2.58005391,12.6992957 3.36441913,12.3143319 L6.91786261,12.3143319 C8.64461043,12.3143319 8.98243652,12.9228826 8.98243652,13.9739261 C8.98243652,15.9324986 7.03996696,16.8096 5.11490609,16.8096 M5.13742783,1.00859275 C6.60243652,1.00859275 7.3144887,2.21904203 7.3144887,4.70831014 C7.3144887,6.8103971 6.60243652,7.83212174 5.13742783,7.83212174 C3.70261043,7.83212174 3.00541043,6.66109275 3.00541043,4.25238986 C3.00541043,2.10028841 3.72257565,1.00859275 5.13742783,1.00859275 M7.41370609,10.1605058 L3.94304522,10.1605058 C2.78652348,10.1605058 2.68974087,9.7991942 2.68974087,9.46091884 C2.68974087,9.05242609 2.99883652,8.6176942 3.31937565,8.34581739 C3.83494087,8.58036812 4.41746261,8.68988261 5.13742783,8.68988261 C7.3368887,8.68988261 9.56337565,7.21494783 9.56337565,4.39627391 C9.56337565,3.33057101 9.29944522,2.4393029 8.79301043,1.76398406 L10.5997409,1.76398406 L10.9699496,0.131491304 L7.56344522,0.713556522 L7.5636887,0.713926087 C6.89546261,0.318614493 6.04219304,0.102665217 5.13742783,0.102665217 C2.29201913,0.102665217 0.756523478,2.4138029 0.756523478,4.58832464 C0.756523478,5.98540435 1.41610609,7.19573043 2.53817565,7.89223768 C1.63779304,8.47725942 1.0720713,9.41065797 1.0720713,10.3492304 C1.0720713,11.1599333 1.43254087,11.7445855 2.10076696,12.0419623 C0.741184348,12.638687 0.103027826,13.5221942 0.103027826,14.7900493 C0.103027826,16.6641145 1.80652348,17.7391797 4.77683652,17.7391797 C9.18148,17.7391797 10.78028,15.0280493 10.78028,13.2056 C10.78028,11.1849406 9.64761913,10.1605058 7.41370609,10.1605058" id="Fill-36" fill="#000000" mask="url(#mask-2)"></path>
                    </g>
                    <path d="M93.9404139,6.04457174 L94.5338922,6.04457174 L94.7381704,5.50118768 C95.0315617,4.71770942 95.2850226,4.04078913 95.6573009,3.25176739 C95.9925704,2.46102101 95.9738226,1.98354275 99.8629009,1.98354275 L101.814501,1.98354275 L93.5877357,17.8249558 L93.5570574,17.8792819 L93.5570574,18.6739703 L104.411805,18.6739703 L104.837892,13.5448978 L104.237962,13.5448978 L104.126692,13.8507746 C103.759162,14.8643688 103.441423,15.7394993 103.041144,16.3813109 C102.254953,17.6768833 102.429162,17.754492 97.9553704,17.754492 L96.1403617,17.754492 L104.420449,1.80923116 L104.420449,1.03942681 L94.2672835,1.03942681 L93.9404139,6.04457174 Z" id="Fill-39" fill="#000000"></path>
                </g>
            </g>
        </g>
    </g>
</svg>