<?xml version="1.0" encoding="utf-8"?>
<!-- Generator: Adobe Illustrator 23.0.2, SVG Export Plug-In . SVG Version: 6.00 Build 0)  -->
<svg  preserveAspectRatio="xMinYMid meet" version="1.1" id="Hintergrund__x2B__Stadt-Panorama_xA0_Bild_1_"
	 xmlns="http://www.w3.org/2000/svg" xmlns:xlink="http://www.w3.org/1999/xlink" x="0px" y="0px" viewBox="0 0 924 104.88"
	 enable-background="new 0 0 924 104.88" xml:space="preserve">
<rect fill="#0066AD" width="924" height="104.88"/>
<g>
	<path d="M206.38,88.38c-6.28,0-11.57-1.44-14.71-3.59l3.59-12.56c1.62,1.08,4.75,1.97,7.71,1.97c3.41,0,5.2-2.15,5.2-4.22
		c0-8.88-15.97-8.61-15.97-27.27c0-11.21,7.09-17.85,17.94-17.85c5.65,0,10.59,1.52,13.46,3.59l-2.96,11.03
		c-1.71-0.81-4.22-1.44-6.73-1.44c-2.87,0-5.2,1.88-5.2,4.67c0,8.88,16.51,9.06,16.51,27.09C225.22,81.11,217.69,88.38,206.38,88.38
		z"/>
	<path d="M246.84,88.38c-9.33,0-14.08-6.37-14.08-15.52V51.51h-4.22V39.13h4.22v-9.78l15.88-4.67v14.44h5.56v12.38h-5.56v21.35
		c0,1.79,1.26,3.05,3.05,3.05c0.99,0,1.79-0.18,2.51-0.54v11.3C252.22,87.84,249.44,88.38,246.84,88.38z"/>
	<path d="M278.86,88.38c-12.38,0-19.38-5.29-19.38-15.88c0-10.94,7.27-15.79,21.89-17.67v-0.9c0-2.69-1.79-4.13-5.38-4.13
		c-3.77,0-7.89,0.9-10.94,2.24l-3.23-10.23c4.75-2.15,10.77-3.59,16.68-3.59c12.65,0,18.21,6.19,18.21,18.84v27.72
		C292.5,87.12,286.94,88.38,278.86,88.38z M281.37,63.89c-4.93,0.63-6.91,2.96-6.91,7.89c0,3.68,1.61,5.92,4.84,5.92
		c0.72,0,1.43-0.09,2.06-0.27L281.37,63.89L281.37,63.89z"/>
	<path d="M325.42,88.38c-15.07,0-21.89-9.51-21.89-25.3c0-13.28,5.38-24.49,18.12-24.49c1.35,0,3.14,0.27,4.58,0.72V17.06h15.88
		v67.73C336.99,87.3,331.43,88.38,325.42,88.38z M326.22,49.45c-0.54-0.18-1.08-0.18-1.52-0.18c-3.77,0-5.29,4.67-5.29,13.46
		c0,9.33,1.61,14.08,5.38,14.08c0.45,0,0.9,0,1.43-0.18V49.45z"/>
	<path d="M366.86,88.38c-9.33,0-14.08-6.37-14.08-15.52V51.51h-4.22V39.13h4.22v-9.78l15.88-4.67v14.44h5.56v12.38h-5.56v21.35
		c0,1.79,1.26,3.05,3.05,3.05c0.99,0,1.79-0.18,2.51-0.54v11.3C372.24,87.84,369.46,88.38,366.86,88.38z"/>
	<path d="M379.95,66.49V53.13h21.71v13.37H379.95z"/>
	<path d="M429.91,66.04c-1.52,0-3.32-0.09-4.31-0.27v21.71H409.1V28.46c4.93-2.42,11.48-3.59,18.21-3.59
		c15.79,0,22.34,8.79,22.34,20.54C449.65,56.71,443.46,66.04,429.91,66.04z M427.49,36.17c-0.72,0-1.35,0.09-1.88,0.18v18.03
		c0.45,0.09,0.99,0.09,1.44,0.09c4.13,0,6.19-2.96,6.19-9.06S431.62,36.17,427.49,36.17z"/>
	<path d="M471.8,88.38c-12.38,0-19.38-5.29-19.38-15.88c0-10.94,7.27-15.79,21.89-17.67v-0.9c0-2.69-1.79-4.13-5.38-4.13
		c-3.77,0-7.89,0.9-10.94,2.24l-3.23-10.23c4.75-2.15,10.76-3.59,16.68-3.59c12.65,0,18.21,6.19,18.21,18.84v27.72
		C485.44,87.12,479.88,88.38,471.8,88.38z M474.31,63.89c-4.93,0.63-6.91,2.96-6.91,7.89c0,3.68,1.61,5.92,4.84,5.92
		c0.72,0,1.44-0.09,2.06-0.27L474.31,63.89L474.31,63.89z"/>
	<path d="M520.15,87.48V53.66c0-2.51-1.08-3.95-3.77-3.95c-0.81,0-1.61,0.09-2.51,0.45v37.32H497.9V41.82
		c5.56-2.42,11.84-3.59,18.39-3.59c13.99,0,19.83,5.56,19.83,15.97v33.28L520.15,87.48L520.15,87.48z"/>
	<path d="M562.58,88.38c-12.92,0-19.65-9.78-19.65-25.12c0-15.25,6.73-25.03,19.65-25.03s19.65,9.78,19.65,25.03
		C582.22,78.6,575.49,88.38,562.58,88.38z M562.58,49.81c-2.87,0-3.59,4.85-3.59,13.1s0.72,13.1,3.59,13.1
		c2.87,0,3.59-4.84,3.59-13.1S565.45,49.81,562.58,49.81z"/>
	<path d="M611.55,50.44c-1.17-0.54-2.69-0.72-4.04-0.72c-0.9,0-1.71,0.18-2.51,0.45v37.32h-15.97V41.82
		c5.74-2.6,12.38-3.59,19.02-3.59c1.97,0,4.13,0.09,6.1,0.36L611.55,50.44z"/>
	<path d="M635.23,88.38c-12.38,0-19.38-5.29-19.38-15.88c0-10.94,7.27-15.79,21.89-17.67v-0.9c0-2.69-1.79-4.13-5.38-4.13
		c-3.77,0-7.9,0.9-10.94,2.24l-3.23-10.23c4.75-2.15,10.77-3.59,16.69-3.59c12.65,0,18.21,6.19,18.21,18.84v27.72
		C648.87,87.12,643.3,88.38,635.23,88.38z M637.74,63.89c-4.93,0.63-6.91,2.96-6.91,7.89c0,3.68,1.61,5.92,4.84,5.92
		c0.72,0,1.44-0.09,2.06-0.27V63.89z"/>
	<path d="M705.11,87.48V53.66c0-2.51-1.08-3.95-3.77-3.95c-0.81,0-1.61,0.09-2.51,0.45v37.32h-15.61V53.66
		c0-2.51-1.08-3.95-3.77-3.95c-0.81,0-1.61,0.09-2.51,0.45v37.32h-15.61V41.82c5.47-2.42,10.85-3.59,17.22-3.59
		c5.74,0,10.41,1.17,14.17,3.95c3.95-2.78,7.9-3.95,13.1-3.95c9.78,0,14.89,6.46,14.89,15.97v33.28L705.11,87.48L705.11,87.48z"/>
	<path d="M746.46,88.38c-12.38,0-19.38-5.29-19.38-15.88c0-10.94,7.27-15.79,21.89-17.67v-0.9c0-2.69-1.79-4.13-5.38-4.13
		c-3.77,0-7.9,0.9-10.94,2.24l-3.23-10.23c4.75-2.15,10.77-3.59,16.69-3.59c12.65,0,18.21,6.19,18.21,18.84v27.72
		C760.09,87.12,754.53,88.38,746.46,88.38z M748.97,63.89c-4.93,0.63-6.91,2.96-6.91,7.89c0,3.68,1.61,5.92,4.84,5.92
		c0.72,0,1.44-0.09,2.06-0.27V63.89z"/>
</g>
<g>
	<path fill="#FFFFFF" d="M204.38,86.38c-6.28,0-11.57-1.44-14.71-3.59l3.59-12.56c1.62,1.08,4.75,1.97,7.71,1.97
		c3.41,0,5.2-2.15,5.2-4.22c0-8.88-15.97-8.61-15.97-27.27c0-11.21,7.09-17.85,17.94-17.85c5.65,0,10.59,1.52,13.46,3.59
		l-2.96,11.03c-1.71-0.81-4.22-1.44-6.73-1.44c-2.87,0-5.2,1.88-5.2,4.67c0,8.88,16.51,9.06,16.51,27.09
		C223.22,79.11,215.69,86.38,204.38,86.38z"/>
	<path fill="#FFFFFF" d="M244.84,86.38c-9.33,0-14.08-6.37-14.08-15.52V49.51h-4.22V37.13h4.22v-9.78l15.88-4.67v14.44h5.56v12.38
		h-5.56v21.35c0,1.79,1.26,3.05,3.05,3.05c0.99,0,1.79-0.18,2.51-0.54v11.3C250.22,85.84,247.44,86.38,244.84,86.38z"/>
	<path fill="#FFFFFF" d="M276.86,86.38c-12.38,0-19.38-5.29-19.38-15.88c0-10.94,7.27-15.79,21.89-17.67v-0.9
		c0-2.69-1.79-4.13-5.38-4.13c-3.77,0-7.89,0.9-10.94,2.24l-3.23-10.23c4.75-2.15,10.77-3.59,16.68-3.59
		c12.65,0,18.21,6.19,18.21,18.84v27.72C290.49,85.12,284.93,86.38,276.86,86.38z M279.37,61.89c-4.93,0.63-6.91,2.96-6.91,7.89
		c0,3.68,1.61,5.92,4.84,5.92c0.72,0,1.43-0.09,2.06-0.27L279.37,61.89L279.37,61.89z"/>
	<path fill="#FFFFFF" d="M323.41,86.38c-15.07,0-21.89-9.51-21.89-25.3c0-13.28,5.38-24.49,18.12-24.49c1.35,0,3.14,0.27,4.58,0.72
		V15.06h15.88v67.73C334.98,85.3,329.42,86.38,323.41,86.38z M324.22,47.45c-0.54-0.18-1.08-0.18-1.52-0.18
		c-3.77,0-5.29,4.67-5.29,13.46c0,9.33,1.61,14.08,5.38,14.08c0.45,0,0.9,0,1.43-0.18V47.45z"/>
	<path fill="#FFFFFF" d="M364.85,86.38c-9.33,0-14.08-6.37-14.08-15.52V49.51h-4.22V37.13h4.22v-9.78l15.88-4.67v14.44h5.56v12.38
		h-5.56v21.35c0,1.79,1.26,3.05,3.05,3.05c0.99,0,1.79-0.18,2.51-0.54v11.3C370.24,85.84,367.45,86.38,364.85,86.38z"/>
	<path fill="#FFFFFF" d="M377.95,64.49V51.12h21.71v13.37H377.95z"/>
	<path fill="#FFFFFF" d="M427.91,64.04c-1.52,0-3.32-0.09-4.31-0.27v21.71H407.1V26.46c4.93-2.42,11.48-3.59,18.21-3.59
		c15.79,0,22.34,8.79,22.34,20.54C447.65,54.71,441.46,64.04,427.91,64.04z M425.49,34.17c-0.72,0-1.35,0.09-1.88,0.18v18.03
		c0.45,0.09,0.99,0.09,1.44,0.09c4.13,0,6.19-2.96,6.19-9.06S429.62,34.17,425.49,34.17z"/>
	<path fill="#FFFFFF" d="M469.8,86.38c-12.38,0-19.38-5.29-19.38-15.88c0-10.94,7.27-15.79,21.89-17.67v-0.9
		c0-2.69-1.79-4.13-5.38-4.13c-3.77,0-7.89,0.9-10.94,2.24l-3.23-10.23c4.75-2.15,10.77-3.59,16.69-3.59
		c12.65,0,18.21,6.19,18.21,18.84v27.72C483.44,85.12,477.87,86.38,469.8,86.38z M472.31,61.89c-4.93,0.63-6.91,2.96-6.91,7.89
		c0,3.68,1.61,5.92,4.84,5.92c0.72,0,1.44-0.09,2.06-0.27L472.31,61.89L472.31,61.89z"/>
	<path fill="#FFFFFF" d="M518.15,85.48V51.66c0-2.51-1.08-3.95-3.77-3.95c-0.81,0-1.61,0.09-2.51,0.45v37.32H495.9V39.82
		c5.56-2.42,11.84-3.59,18.39-3.59c13.99,0,19.83,5.56,19.83,15.97v33.28L518.15,85.48L518.15,85.48z"/>
	<path fill="#FFFFFF" d="M560.58,86.38c-12.92,0-19.65-9.78-19.65-25.12c0-15.25,6.73-25.03,19.65-25.03s19.65,9.78,19.65,25.03
		C580.22,76.6,573.49,86.38,560.58,86.38z M560.58,47.81c-2.87,0-3.59,4.84-3.59,13.1c0,8.25,0.72,13.1,3.59,13.1
		c2.87,0,3.59-4.84,3.59-13.1C564.16,52.65,563.45,47.81,560.58,47.81z"/>
	<path fill="#FFFFFF" d="M609.55,48.43c-1.17-0.54-2.69-0.72-4.04-0.72c-0.9,0-1.71,0.18-2.51,0.45v37.32h-15.97V39.82
		c5.74-2.6,12.38-3.59,19.02-3.59c1.97,0,4.13,0.09,6.1,0.36L609.55,48.43z"/>
	<path fill="#FFFFFF" d="M633.23,86.38c-12.38,0-19.38-5.29-19.38-15.88c0-10.94,7.27-15.79,21.89-17.67v-0.9
		c0-2.69-1.79-4.13-5.38-4.13c-3.77,0-7.9,0.9-10.94,2.24l-3.23-10.23c4.75-2.15,10.77-3.59,16.69-3.59
		c12.65,0,18.21,6.19,18.21,18.84v27.72C646.86,85.12,641.3,86.38,633.23,86.38z M635.74,61.89c-4.93,0.63-6.91,2.96-6.91,7.89
		c0,3.68,1.61,5.92,4.84,5.92c0.72,0,1.44-0.09,2.06-0.27V61.89z"/>
	<path fill="#FFFFFF" d="M703.11,85.48V51.66c0-2.51-1.08-3.95-3.77-3.95c-0.81,0-1.61,0.09-2.51,0.45v37.32h-15.61V51.66
		c0-2.51-1.08-3.95-3.77-3.95c-0.81,0-1.61,0.09-2.51,0.45v37.32h-15.61V39.82c5.47-2.42,10.85-3.59,17.22-3.59
		c5.74,0,10.41,1.17,14.17,3.95c3.95-2.78,7.9-3.95,13.1-3.95c9.78,0,14.89,6.46,14.89,15.97v33.28L703.11,85.48L703.11,85.48z"/>
	<path fill="#FFFFFF" d="M744.46,86.38c-12.38,0-19.38-5.29-19.38-15.88c0-10.94,7.27-15.79,21.89-17.67v-0.9
		c0-2.69-1.79-4.13-5.38-4.13c-3.77,0-7.9,0.9-10.94,2.24l-3.23-10.23c4.75-2.15,10.77-3.59,16.69-3.59
		c12.65,0,18.21,6.19,18.21,18.84v27.72C758.09,85.12,752.53,86.38,744.46,86.38z M746.97,61.89c-4.93,0.63-6.91,2.96-6.91,7.89
		c0,3.68,1.61,5.92,4.84,5.92c0.72,0,1.44-0.09,2.06-0.27V61.89z"/>
</g>
</svg>
