<?xml version="1.0" encoding="UTF-8"?>
<svg width="760px" height="86px" viewBox="0 0 760 86" preserveAspectRatio="xMinYMid meet" version="1.1" xmlns="http://www.w3.org/2000/svg" xmlns:xlink="http://www.w3.org/1999/xlink">
    <!-- Generator: Sketch 56.3 (81716) - https://sketch.com -->
    <title>ETas_RGB</title>
    <desc>Created with Sketch.</desc>
    <defs>
        <filter x="-3.7%" y="-28.6%" width="107.4%" height="157.1%" filterUnits="objectBoundingBox" id="filter-1">
            <feOffset dx="3" dy="5" in="SourceAlpha" result="shadowOffsetOuter1"></feOffset>
            <feGaussianBlur stdDeviation="2.5" in="shadowOffsetOuter1" result="shadowBlurOuter1"></feGaussianBlur>
            <feColorMatrix values="0 0 0 0 0   0 0 0 0 0   0 0 0 0 0  0 0 0 0.5 0" type="matrix" in="shadowBlurOuter1" result="shadowMatrixOuter1"></feColorMatrix>
            <feMerge>
                <feMergeNode in="shadowMatrixOuter1"></feMergeNode>
                <feMergeNode in="SourceGraphic"></feMergeNode>
            </feMerge>
        </filter>
    </defs>
    <g id="ETas_RGB" stroke="none" stroke-width="1" fill="none" fill-rule="evenodd">
        <g id="ETaS_RGB" fill-rule="nonzero">
            <rect id="Rectangle" fill="#005EA1" x="0" y="1" width="759.69" height="85.03"></rect>
            <g id="Group" filter="url(#filter-1)" transform="translate(109.000000, 9.000000)" fill="#FFFFFF">
                <g>
                    <polygon id="Path" points="0.63 54.57 0.63 7.79 22.12 7.79 22.12 17.58 13.28 17.58 13.28 26.28 20.69 26.28 20.69 35.73 13.28 35.73 13.28 44.77 22.12 44.77 22.12 54.56 0.63 54.56"></polygon>
                    <polygon id="Path" points="43.27 54.57 40.07 45.59 39.93 45.59 36.19 54.57 23.88 54.57 33.88 36.28 25.11 17.92 37.28 17.92 40.54 26.28 40.68 26.28 44.35 17.92 55.43 17.92 46.66 35.19 56.66 54.57 43.27 54.57"></polygon>
                    <path d="M71.62,55.25 C64.55,55.25 60.94,50.42 60.94,43.49 L60.94,27.3 L57.74,27.3 L57.74,17.92 L60.94,17.92 L60.94,10.51 L72.97,6.97 L72.97,17.92 L77.19,17.92 L77.19,27.3 L72.97,27.3 L72.97,43.48 C72.97,44.84 73.92,45.79 75.28,45.79 C76.03,45.79 76.64,45.65 77.18,45.38 L77.18,53.95 C75.7,54.84 73.6,55.25 71.62,55.25 Z" id="Path"></path>
                    <path d="M99.16,26.49 C98.28,26.08 97.12,25.95 96.1,25.95 C95.42,25.95 94.81,26.09 94.2,26.29 L94.2,54.58 L82.1,54.58 L82.1,19.96 C86.45,17.99 91.48,17.24 96.52,17.24 C98.02,17.24 99.65,17.31 101.14,17.51 L99.16,26.49 Z" id="Path"></path>
                    <path d="M117.79,55.25 C108.41,55.25 103.1,51.24 103.1,43.22 C103.1,34.93 108.61,31.25 119.69,29.83 L119.69,29.15 C119.69,27.11 118.33,26.02 115.61,26.02 C112.75,26.02 109.63,26.7 107.32,27.72 L104.87,19.97 C108.47,18.34 113.03,17.25 117.52,17.25 C127.11,17.25 131.32,21.94 131.32,31.53 L131.32,52.54 C128.13,54.3 123.91,55.25 117.79,55.25 Z M119.7,36.69 C115.96,37.17 114.46,38.93 114.46,42.67 C114.46,45.46 115.68,47.16 118.13,47.16 C118.67,47.16 119.22,47.09 119.69,46.96 L119.69,36.69 L119.7,36.69 Z" id="Shape"></path>
                    <polygon id="Path" points="136.7 38.66 136.7 28.53 153.15 28.53 153.15 38.66 136.7 38.66"></polygon>
                    <polygon id="Path" points="176.21 17.58 176.21 54.57 163.56 54.57 163.56 17.58 157.3 17.58 157.3 7.79 182.46 7.79 182.46 17.58"></polygon>
                    <path d="M193.55,13.16 C190.08,13.16 187.29,10.37 187.29,6.9 C187.29,3.43 190.08,0.64 193.55,0.64 C197.02,0.64 199.81,3.43 199.81,6.9 C199.81,10.37 197.02,13.16 193.55,13.16 Z M187.5,54.57 L187.5,17.92 L199.6,17.92 L199.6,54.57 L187.5,54.57 Z" id="Shape"></path>
                    <path d="M221.36,54.98 C220.34,54.98 218.98,54.78 217.89,54.44 L217.89,69.19 L205.85,69.19 L205.85,19.96 C209.73,18.06 213.94,17.24 218.5,17.24 C229.92,17.24 235.09,24.45 235.09,36.41 C235.09,46.48 231.01,54.98 221.36,54.98 Z M218.98,25.6 C218.64,25.6 218.3,25.6 217.89,25.74 L217.89,46.34 C218.3,46.48 218.71,46.48 219.05,46.48 C221.91,46.48 223.06,42.94 223.06,36.28 C223.06,29.21 221.83,25.6 218.98,25.6 Z" id="Shape"></path>
                    <path d="M255.77,54.98 C254.75,54.98 253.39,54.78 252.3,54.44 L252.3,69.19 L240.26,69.19 L240.26,19.96 C244.14,18.06 248.35,17.24 252.91,17.24 C264.33,17.24 269.5,24.45 269.5,36.41 C269.5,46.48 265.42,54.98 255.77,54.98 Z M253.39,25.6 C253.05,25.6 252.71,25.6 252.3,25.74 L252.3,46.34 C252.71,46.48 253.12,46.48 253.46,46.48 C256.32,46.48 257.47,42.94 257.47,36.28 C257.47,29.21 256.24,25.6 253.39,25.6 Z" id="Shape"></path>
                    <path d="M296.9,55.12 C289.31,55.12 285.02,51.88 285.02,45.39 C285.02,38.68 289.48,35.71 298.44,34.56 L298.44,34 C298.44,32.35 297.34,31.47 295.14,31.47 C292.83,31.47 290.3,32.02 288.43,32.84 L286.45,26.57 C289.37,25.25 293.05,24.37 296.68,24.37 C304.44,24.37 307.85,28.16 307.85,35.92 L307.85,52.91 C305.26,54.35 301.85,55.12 296.9,55.12 Z M298.44,40.11 C295.41,40.49 294.2,41.92 294.2,44.95 C294.2,47.2 295.19,48.58 297.17,48.58 C297.61,48.58 298.05,48.52 298.44,48.41 L298.44,40.11 Z" id="Shape"></path>
                    <path d="M339.75,54.57 L339.75,33.84 C339.75,32.3 339.09,31.42 337.44,31.42 C336.94,31.42 336.45,31.48 335.9,31.69 L335.9,54.57 L326.33,54.57 L326.33,33.84 C326.33,32.3 325.67,31.42 324.02,31.42 C323.52,31.42 323.03,31.48 322.48,31.69 L322.48,54.57 L312.91,54.57 L312.91,26.58 C316.27,25.1 319.57,24.38 323.47,24.38 C326.99,24.38 329.85,25.09 332.16,26.8 C334.58,25.1 337,24.38 340.19,24.38 C346.19,24.38 349.32,28.34 349.32,34.17 L349.32,54.57 L339.75,54.57 L339.75,54.57 Z" id="Path"></path>
                    <path d="M373.95,55.12 C370.1,55.12 366.85,54.24 364.93,52.92 L367.13,45.22 C368.12,45.88 370.05,46.43 371.86,46.43 C373.95,46.43 375.05,45.11 375.05,43.85 C375.05,38.41 365.26,38.57 365.26,27.13 C365.26,20.26 369.61,16.19 376.26,16.19 C379.73,16.19 382.75,17.12 384.51,18.39 L382.7,25.15 C381.65,24.65 380.11,24.27 378.57,24.27 C376.81,24.27 375.38,25.42 375.38,27.13 C375.38,32.57 385.500016,32.68 385.500016,43.74 C385.51,50.66 380.88,55.12 373.95,55.12 Z" id="Path"></path>
                    <path d="M400.63,55.12 C392.71,55.12 388.58,49.13 388.58,39.72 C388.58,30.37 392.71,24.38 400.63,24.38 C408.55,24.38 412.68,30.37 412.68,39.72 C412.68,49.12 408.55,55.12 400.63,55.12 Z M400.63,31.47 C398.87,31.47 398.43,34.44 398.43,39.5 C398.43,44.56 398.87,47.53 400.63,47.53 C402.39,47.53 402.83,44.56 402.83,39.5 C402.83,34.44 402.39,31.47 400.63,31.47 Z" id="Shape"></path>
                    <path d="M430.49,54.57 L430.49,33.84 C430.49,32.3 429.83,31.42 428.18,31.42 C427.68,31.42 427.19,31.48 426.64,31.69 L426.64,54.57 L416.85,54.57 L416.85,26.58 C420.26,25.1 424.11,24.38 428.13,24.38 C436.71,24.38 440.29,27.79 440.29,34.17 L440.29,54.57 L430.49,54.57 L430.49,54.57 Z" id="Path"></path>
                    <path d="M458.98,54.57 L458.98,33.84 C458.98,32.3 458.32,31.42 456.67,31.42 C456.17,31.42 455.68,31.48 455.13,31.69 L455.13,54.57 L445.34,54.57 L445.34,26.58 C448.75,25.1 452.6,24.38 456.62,24.38 C465.2,24.38 468.78,27.79 468.78,34.17 L468.78,54.57 L458.98,54.57 L458.98,54.57 Z" id="Path"></path>
                    <path d="M483.95,55.12 C478.23,55.12 475.31,51.22 475.31,45.61 L475.31,32.52 L472.72,32.52 L472.72,24.93 L475.31,24.93 L475.31,18.94 L485.05,16.08 L485.05,24.93 L488.46,24.93 L488.46,32.52 L485.05,32.52 L485.05,45.6 C485.05,46.7 485.82,47.47 486.92,47.47 C487.53,47.47 488.02,47.36 488.46,47.14 L488.46,54.07 C487.25,54.79 485.55,55.12 483.95,55.12 Z" id="Path"></path>
                    <path d="M503.15,55.12 C495.56,55.12 491.27,51.88 491.27,45.39 C491.27,38.68 495.73,35.71 504.69,34.56 L504.69,34 C504.69,32.35 503.59,31.47 501.39,31.47 C499.08,31.47 496.55,32.02 494.68,32.84 L492.7,26.57 C495.62,25.25 499.3,24.37 502.93,24.37 C510.69,24.37 514.1,28.16 514.1,35.92 L514.1,52.91 C511.51,54.35 508.1,55.12 503.15,55.12 Z M504.69,40.11 C501.66,40.49 500.45,41.92 500.45,44.95 C500.45,47.2 501.44,48.58 503.42,48.58 C503.86,48.58 504.3,48.52 504.69,48.41 L504.69,40.11 Z" id="Shape"></path>
                    <path d="M529.82,66.94 C526.08,66.94 522.5,66.28 519.48,64.69 L521.74,57.49 C523.56,58.48 525.92,59.08 528.01,59.08 C530.87,59.08 532.19,57.93 532.19,55.23 L532.19,54.4 C531.31,54.73 530.1,54.95 529.11,54.95 C521.3,54.95 518.27,48.19 518.27,40.05 C518.27,30.48 522.62,24.38 532.02,24.38 C535.6,24.38 538.73,24.98 541.92,26.58 L541.92,54.79 C541.92,62.27 537.74,66.94 529.82,66.94 Z M532.19,31.25 C531.86,31.14 531.58,31.14 531.31,31.14 C529,31.14 528.01,34.05 528.01,39.77 C528.01,45.16 528.95,48.02 531.26,48.02 C531.53,48.02 531.86,48.02 532.19,47.91 L532.19,31.25 Z" id="Shape"></path>
                </g>
            </g>
        </g>
    </g>
</svg>