<?xml version="1.0" encoding="utf-8"?>
<!-- Generator: Adobe Illustrator 23.0.2, SVG Export Plug-In . SVG Version: 6.00 Build 0)  -->
<svg  preserveAspectRatio="xMinYMid meet" version="1.1" id="Ebene_1" xmlns="http://www.w3.org/2000/svg" xmlns:xlink="http://www.w3.org/1999/xlink" x="0px" y="0px"
	 viewBox="0 0 666.1 85" enable-background="new 0 0 666.1 85" xml:space="preserve">
<g>
	<rect fill="#FFFFFF" width="666.1" height="85"/>
	<g>
		<path d="M49.3,66.6H35c-0.7-5.3-1.7-12.2-2.7-20.8c-0.3,3.8-0.9,7.6-1.5,11.4l-1.5,9.4H15.1L9.5,23.5h11.3
			c0.1,1.1,1.1,9.4,2.9,24.7c0.1-1.6,1.1-9.8,2.9-24.7h10.8l2.7,24.7c0.4-7.2,1.4-15.4,2.9-24.7h11.3L49.3,66.6z"/>
		<path d="M86.7,66.6H73.3l0.3-3.6c-0.9,1.5-2.1,2.5-3.4,3.3c-1.3,0.7-2.9,1.1-4.6,1.1c-2,0-3.6-0.3-4.9-1.1
			c-1.3-0.7-2.3-1.6-2.9-2.7c-0.6-1.2-1-2.4-1.1-3.6c-0.2-1.3-0.3-3.7-0.3-7.5v-29h13.1v29.4c0,3.3,0.1,5.3,0.3,6
			c0.2,0.6,0.8,0.9,1.7,0.9c1,0,1.6-0.3,1.7-1c0.2-0.6,0.3-2.7,0.3-6.3v-29h13.1v43.1H86.7z"/>
		<path d="M104.5,27.3c1.2-1.5,2.5-2.7,3.9-3.5c1.4-0.7,2.9-1.1,4.6-1.1c2,0,3.8,0.6,5.3,1.7s2.4,2.3,2.8,3.8
			c0.3,1.4,0.5,3.9,0.5,7.3v18.2c0,3.9-0.2,6.7-0.7,8.4c-0.5,1.7-1.5,3.1-2.9,4c-1.5,1-3.2,1.5-5.3,1.5c-1.6,0-3.1-0.4-4.5-1.1
			c-1.4-0.8-2.7-1.9-3.9-3.4V73h-13V23.5h13.4L104.5,27.3z M108.2,31.2c-0.2-0.6-0.7-0.9-1.7-0.9c-0.9,0-1.4,0.3-1.7,1
			c-0.3,0.6-0.4,2.2-0.4,4.7v17.8c0,2.6,0.1,4.3,0.4,4.9c0.3,0.7,0.9,1,1.7,1c0.8,0,1.3-0.3,1.5-0.9c0.2-0.6,0.3-2.1,0.3-4.4V36.1
			C108.5,33.4,108.4,31.8,108.2,31.2z"/>
		<path d="M139,27.3c1.2-1.5,2.5-2.7,3.9-3.5c1.4-0.7,2.9-1.1,4.6-1.1c2,0,3.8,0.6,5.3,1.7s2.4,2.3,2.8,3.8c0.3,1.4,0.5,3.9,0.5,7.3
			v18.2c0,3.9-0.2,6.7-0.7,8.4c-0.5,1.7-1.5,3.1-2.9,4c-1.5,1-3.2,1.5-5.3,1.5c-1.6,0-3.1-0.4-4.5-1.1c-1.4-0.8-2.7-1.9-3.9-3.4V73
			h-13.1V23.5h13.4L139,27.3z M142.7,31.2c-0.2-0.6-0.7-0.9-1.7-0.9c-0.9,0-1.4,0.3-1.7,1c-0.3,0.6-0.4,2.2-0.4,4.7v17.8
			c0,2.6,0.1,4.3,0.4,4.9c0.3,0.7,0.9,1,1.7,1s1.3-0.3,1.5-0.9c0.2-0.6,0.3-2.1,0.3-4.4V36.1C143,33.4,142.9,31.8,142.7,31.2z"/>
		<path d="M173.2,45.8v9.4c0,1.9,0.1,3.2,0.4,3.7c0.3,0.6,0.8,0.9,1.6,0.9c1,0,1.7-0.4,2-1.1c0.3-0.7,0.5-2.2,0.5-4.3v-5.7h12.4v3.2
			c0,2.7-0.2,4.7-0.5,6.2c-0.3,1.4-1.1,2.9-2.3,4.5c-1.3,1.7-2.8,2.8-4.7,3.7c-1.9,0.8-4.3,1.3-7.1,1.3c-2.7,0-5.2-0.4-7.3-1.2
			c-2.1-0.8-3.8-1.9-5-3.3c-1.1-1.4-2-2.9-2.4-4.6c-0.5-1.7-0.7-4.1-0.7-7.3V38.4c0-3.8,0.5-6.8,1.5-8.9c1.1-2.2,2.7-3.9,5-5.1
			s5-1.7,8.1-1.7c3.7,0,6.7,0.7,9.1,2.1c2.3,1.4,4.1,3.3,5,5.5c1,2.3,1.5,5.6,1.5,9.8v5.7C190.3,45.8,173.2,45.8,173.2,45.8z
			 M177,35.7c0-2.3-0.1-3.7-0.3-4.3c-0.3-0.7-0.7-1-1.5-1c-0.9,0-1.5,0.3-1.7,0.9c-0.2,0.5-0.3,2-0.3,4.5v3.1h3.8V35.7z"/>
		<path d="M207.1,29.2c1.9-4.1,4.7-6.2,8.3-6.5v15.2c-2.4,0-4.2,0.3-5.3,1s-1.9,1.5-2.1,2.7c-0.3,1.1-0.4,3.8-0.4,8v17h-13.1V23.5
			h13.1L207.1,29.2z"/>
		<path d="M233.3,24.6h3.5v6.8h-3.5v23.1c0,2.9,0.1,4.4,0.5,4.7c0.3,0.3,1.5,0.5,3.7,0.5v6.9h-5.3c-3,0-5.1-0.1-6.4-0.4
			c-1.3-0.2-2.4-0.8-3.4-1.7c-1-0.9-1.5-1.9-1.8-3.1c-0.2-1.1-0.4-3.9-0.4-8.2V31.4h-2.8v-6.8h2.8v-6.8h13.2v6.8H233.3z"/>
		<path d="M239.2,40.2v-2.9c0-3.4,0.5-5.9,1.2-7.7c0.8-1.9,2.3-3.5,4.6-4.8c2.3-1.4,5.3-2.1,9.1-2.1c4.5,0,7.8,0.8,10.1,2.4
			c2.3,1.5,3.6,3.5,4.1,5.8s0.7,7,0.7,14.1v21.6h-13v-3.9c-0.8,1.5-1.8,2.7-3.1,3.5s-2.8,1.2-4.5,1.2c-2.3,0-4.5-0.7-6.3-1.9
			c-1.9-1.3-2.9-4.1-2.9-8.5v-3.5c0-3.2,0.5-5.4,1.5-6.6c1-1.1,3.6-2.5,7.6-4.1c4.3-1.7,6.7-2.9,6.9-3.5c0.3-0.5,0.5-1.7,0.5-3.5
			c0-2.3-0.2-3.7-0.5-4.5c-0.3-0.7-0.9-1-1.7-1c-0.9,0-1.4,0.3-1.7,0.9c-0.2,0.6-0.3,2.1-0.3,4.5v4.5
			C251.5,40.2,239.2,40.2,239.2,40.2z M252,50c-0.3,1.1-0.5,2.5-0.5,4.5c0,2.3,0.2,3.7,0.5,4.3c0.3,0.7,0.9,1,1.7,1
			c0.9,0,1.4-0.3,1.6-0.8c0.3-0.5,0.4-1.8,0.4-4v-8.9C253.5,47.7,252.4,48.9,252,50z"/>
		<path d="M286.8,66.6h-13.5V14h13.5V66.6z"/>
		<path d="M304.3,45.8v9.4c0,1.9,0.1,3.2,0.4,3.7c0.3,0.6,0.8,0.9,1.6,0.9c1,0,1.7-0.4,2-1.1c0.3-0.7,0.5-2.2,0.5-4.3v-5.7h12.4v3.2
			c0,2.7-0.2,4.7-0.5,6.2c-0.3,1.4-1.1,2.9-2.3,4.5c-1.3,1.7-2.8,2.8-4.7,3.7c-1.9,0.8-4.3,1.3-7.1,1.3c-2.7,0-5.2-0.4-7.3-1.2
			c-2.1-0.8-3.8-1.9-5-3.3c-1.1-1.4-2-2.9-2.4-4.6c-0.5-1.7-0.7-4.1-0.7-7.3V38.4c0-3.8,0.5-6.8,1.5-8.9c1.1-2.2,2.7-3.9,5-5.1
			s5-1.7,8.1-1.7c3.7,0,6.7,0.7,9.1,2.1c2.3,1.4,4.1,3.3,5,5.5c1,2.3,1.5,5.6,1.5,9.8v5.7C321.4,45.8,304.3,45.8,304.3,45.8z
			 M308.1,35.7c0-2.3-0.1-3.7-0.3-4.3c-0.3-0.7-0.7-1-1.5-1c-0.9,0-1.5,0.3-1.7,0.9c-0.2,0.5-0.3,2-0.3,4.5v3.1h3.8V35.7z"/>
		<path d="M338.2,29.2c1.9-4.1,4.7-6.2,8.3-6.5v15.2c-2.4,0-4.2,0.3-5.3,1c-1.1,0.7-1.9,1.5-2.1,2.7c-0.3,1.1-0.4,3.8-0.4,8v17
			h-13.1V23.5h13.1L338.2,29.2z"/>
		<path d="M373.8,29.2c1.9-4.1,4.7-6.2,8.3-6.5v15.2c-2.4,0-4.2,0.3-5.3,1c-1.1,0.7-1.9,1.5-2.1,2.7c-0.3,1.1-0.4,3.8-0.4,8v17
			h-13.1V23.5h13.1L373.8,29.2z"/>
		<path d="M415,66.6h-13.4l0.3-3.6c-0.9,1.5-2.1,2.5-3.4,3.3c-1.3,0.7-2.9,1.1-4.6,1.1c-2,0-3.6-0.3-4.9-1.1
			c-1.3-0.7-2.3-1.6-2.9-2.7c-0.6-1.2-1-2.4-1.1-3.6c-0.2-1.3-0.3-3.7-0.3-7.5v-29h13.1v29.4c0,3.3,0.1,5.3,0.3,6
			c0.2,0.6,0.8,0.9,1.7,0.9c1,0,1.6-0.3,1.7-1c0.2-0.6,0.3-2.7,0.3-6.3v-29H415V66.6z"/>
		<path d="M432.8,27.5c1-1.6,2.1-2.8,3.5-3.6c1.4-0.8,2.9-1.2,4.7-1.2c2.3,0,4.1,0.5,5.5,1.6c1.5,1.1,2.4,2.4,2.8,4.1
			c0.4,1.6,0.6,4.3,0.6,8.1v30.2h-13.1v-30c0-2.9-0.1-4.8-0.3-5.4c-0.2-0.7-0.7-1-1.7-1s-1.5,0.4-1.7,1.1c-0.3,0.7-0.4,2.7-0.4,6
			v29.2h-13.1V23.5H433L432.8,27.5z"/>
		<path d="M484.4,66.6h-13.1v-3.1c-1.3,1.3-2.6,2.3-4,2.9c-1.4,0.7-2.9,1-4.3,1c-2.1,0-3.9-0.5-5.3-1.6c-1.5-1.1-2.5-2.3-2.9-3.7
			c-0.5-1.5-0.7-3.7-0.7-6.9V35c0-3.3,0.2-5.7,0.7-7.1c0.4-1.4,1.4-2.6,2.9-3.7s3.3-1.6,5.4-1.6c1.6,0,3.1,0.4,4.5,0.9
			c1.4,0.6,2.6,1.4,3.7,2.6V14h13.1L484.4,66.6L484.4,66.6z M470.9,31.2c-0.3-0.5-0.9-0.8-1.7-0.8c-0.7,0-1.3,0.3-1.5,0.7
			c-0.3,0.5-0.4,1.6-0.4,3.3v21.2c0,1.7,0.1,2.9,0.3,3.5c0.3,0.5,0.8,0.8,1.5,0.8c0.9,0,1.4-0.3,1.7-0.9c0.3-0.6,0.5-2.1,0.5-4.5
			v-20C471.3,32.8,471.1,31.7,470.9,31.2z"/>
		<path d="M504.3,37.3V35c0-2-0.1-3.3-0.3-3.8c-0.2-0.5-0.8-0.8-1.7-0.8c-0.7,0-1.3,0.3-1.6,0.7c-0.4,0.5-0.6,1.2-0.6,2.2
			c0,1.3,0.1,2.3,0.3,2.9c0.2,0.6,0.7,1.3,1.7,2c0.9,0.7,2.8,1.9,5.7,3.3c3.9,1.9,6.3,3.6,7.5,5.3c1.2,1.6,1.8,4,1.8,7.2
			c0,3.5-0.5,6.1-1.3,7.9c-0.9,1.8-2.5,3.2-4.6,4.1s-4.7,1.5-7.7,1.5c-3.3,0-6.2-0.5-8.6-1.6c-2.3-1-4-2.5-4.9-4.2
			c-0.9-1.8-1.3-4.5-1.3-8.1v-2.1h11.6v2.7c0,2.3,0.1,3.9,0.4,4.5c0.3,0.7,0.9,1.1,1.7,1.1c0.9,0,1.6-0.3,2-0.7
			c0.3-0.5,0.5-1.4,0.5-2.9c0-2.1-0.2-3.3-0.7-3.9c-0.5-0.5-3.1-2.1-7.6-4.6c-3.9-2.2-6.2-4.1-7.1-5.9c-0.8-1.7-1.3-3.9-1.3-6.3
			c0-3.5,0.4-6,1.3-7.7c0.9-1.6,2.5-2.9,4.7-3.8c2.1-0.9,4.7-1.3,7.6-1.3s5.3,0.4,7.3,1.1s3.5,1.7,4.7,2.9c1.1,1.2,1.7,2.3,1.9,3.3
			s0.3,2.6,0.3,4.7v2.5h-11.7V37.3z"/>
		<path d="M537.1,39.8v-5c0-1.7-0.1-2.9-0.4-3.5c-0.3-0.6-0.8-0.9-1.6-0.9c-0.7,0-1.3,0.3-1.5,0.8s-0.3,1.8-0.3,3.7v20.4
			c0,1.5,0.1,2.7,0.5,3.5c0.4,0.7,1,1.1,1.7,1.1c0.9,0,1.5-0.4,1.8-1.2s0.5-2.3,0.5-4.5V49h11.7c0,3.5-0.1,6.1-0.3,7.8
			c-0.3,1.7-1,3.5-2.2,5.3c-1.3,1.9-2.9,3.2-4.8,4.1c-2,0.9-4.4,1.4-7.3,1.4c-3.7,0-6.7-0.7-8.8-1.9c-2.2-1.3-3.7-3.1-4.6-5.3
			c-0.9-2.3-1.4-5.5-1.4-9.7V38.2c0-3.7,0.4-6.5,1.1-8.3c0.7-1.9,2.3-3.5,4.7-5s5.3-2.2,8.8-2.2c3.4,0,6.3,0.7,8.7,2.2
			c2.5,1.5,4.1,3.3,4.9,5.5c0.8,2.2,1.2,5.3,1.2,9.4C549.5,39.8,537.1,39.8,537.1,39.8z"/>
		<path d="M566.5,25.8c1.1-1,2.4-1.8,3.7-2.3s2.7-0.8,4.3-0.8c2.3,0,4.2,0.6,5.9,1.8c1.6,1.1,2.6,2.5,2.9,4c0.4,1.5,0.5,4.3,0.5,8.4
			v29.8h-13.1V36.3c0-2.5-0.1-4.1-0.4-4.9c-0.2-0.7-0.8-1.1-1.7-1.1c-0.8,0-1.3,0.4-1.6,1.1c-0.3,0.7-0.5,2.2-0.5,4.4v30.7h-13.1V14
			h13.1L566.5,25.8L566.5,25.8z"/>
		<path d="M587.7,40.2v-2.9c0-3.4,0.5-5.9,1.2-7.7c0.8-1.9,2.3-3.5,4.6-4.8c2.3-1.4,5.3-2.1,9.1-2.1c4.5,0,7.8,0.8,10.1,2.4
			c2.3,1.5,3.6,3.5,4.1,5.8s0.7,7,0.7,14.1v21.6h-12.8v-3.9c-0.8,1.5-1.8,2.7-3.1,3.5s-2.8,1.2-4.5,1.2c-2.3,0-4.5-0.7-6.3-1.9
			c-1.9-1.3-2.9-4.1-2.9-8.5v-3.5c0-3.2,0.5-5.4,1.5-6.6c1-1.1,3.6-2.5,7.6-4.1c4.3-1.7,6.7-2.9,6.9-3.5c0.3-0.5,0.5-1.7,0.5-3.5
			c0-2.3-0.2-3.7-0.5-4.5c-0.3-0.7-0.9-1-1.7-1c-0.9,0-1.4,0.3-1.7,0.9c-0.2,0.6-0.3,2.1-0.3,4.5v4.5
			C600.2,40.2,587.7,40.2,587.7,40.2z M600.5,50c-0.3,1.1-0.5,2.5-0.5,4.5c0,2.3,0.2,3.7,0.5,4.3c0.3,0.7,0.9,1,1.7,1
			c0.9,0,1.4-0.3,1.6-0.8c0.3-0.5,0.4-1.8,0.4-4v-8.9C602.1,47.7,600.9,48.9,600.5,50z"/>
		<path d="M651.9,66.6h-13.4l0.3-3.6c-0.9,1.5-2.1,2.5-3.4,3.3c-1.3,0.7-2.9,1.1-4.6,1.1c-2,0-3.6-0.3-4.9-1.1
			c-1.3-0.7-2.3-1.6-2.9-2.7c-0.6-1.2-1-2.4-1.1-3.6c-0.2-1.3-0.3-3.7-0.3-7.5v-29h13.1v29.4c0,3.3,0.1,5.3,0.3,6
			c0.2,0.6,0.8,0.9,1.7,0.9c1,0,1.6-0.3,1.7-1c0.2-0.6,0.3-2.7,0.3-6.3v-29h13.1v43.1H651.9z"/>
	</g>
</g>
</svg>
