<?xml version="1.0" encoding="utf-8"?>
<!-- Generator: Adobe Illustrator 23.0.2, SVG Export Plug-In . SVG Version: 6.00 Build 0)  -->
<svg  preserveAspectRatio="xMinYMid meet" version="1.1" id="Hintergrund__x2B__Mein_Krefeld_xA0_Bild_1_"
	 xmlns="http://www.w3.org/2000/svg" xmlns:xlink="http://www.w3.org/1999/xlink" x="0px" y="0px" viewBox="0 0 924 104.88"
	 enable-background="new 0 0 924 104.88" xml:space="preserve">
<rect fill="#CC051C" width="924" height="104.88"/>
<g>
	<path d="M255.34,89.46l-1.13-28.85c-0.09-2.27-0.09-5.01-0.09-7.09h-0.19c-0.38,1.99-0.95,4.54-1.7,7.09l-8.04,28.85h-7.38
		l-8.04-28.85c-0.66-2.55-1.32-5.2-1.7-7.09h-0.19c0,1.89,0,4.63-0.1,7.09l-1.13,28.85h-15.32l5.2-65.07h15.42l8.51,28.37
		c0.66,2.27,1.23,4.82,1.61,7.19h0.19c0.38-2.37,0.95-4.92,1.61-7.19l8.51-28.37h15.42l5.2,65.07H255.34z"/>
	<path d="M294.02,71.97c1.04,4.26,3.88,5.39,8.23,5.39c3.5,0,7.47-0.94,10.31-2.18l3.5,11.44c-4.92,2.65-10.5,3.78-16.74,3.78
		c-15.51,0-22.23-11.25-22.23-26.58c0-14.66,7.09-26.29,20.9-26.29c13.62,0,20.14,10.31,20.14,25.91c0,1.51-0.1,3.22-0.19,4.82
		L294.02,71.97z M301.87,58.63c0-5.77-1.04-9.46-4.07-9.46c-3.31,0-4.73,5.3-4.73,11.26v1.13l8.8-1.42L301.87,58.63L301.87,58.63z"
		/>
	<path d="M333.74,31.87c-4.82,0-8.7-3.88-8.7-8.7s3.88-8.7,8.7-8.7s8.7,3.88,8.7,8.7S338.57,31.87,333.74,31.87z M325.33,89.46
		V38.49h16.83v50.98H325.33z"/>
	<path d="M374.31,89.46V53.81c0-2.65-1.14-4.16-3.97-4.16c-0.85,0-1.7,0.09-2.65,0.47v39.34h-16.83V41.33
		c5.86-2.55,12.48-3.78,19.39-3.78c14.75,0,20.9,5.86,20.9,16.83v35.09L374.31,89.46L374.31,89.46z"/>
	<path d="M448.64,89.46l-9.83-31.02h-0.19v31.02h-17.59V24.4h17.59v28.37h0.19l10.5-28.37h17.78l-12.86,29.98l13.9,35.09H448.64z"/>
	<path d="M496.21,50.4c-1.23-0.57-2.84-0.76-4.26-0.76c-0.95,0-1.8,0.19-2.65,0.47v39.34h-16.83V41.33
		c6.05-2.74,13.05-3.78,20.05-3.78c2.08,0,4.35,0.09,6.43,0.38L496.21,50.4z"/>
	<path d="M518.15,71.97c1.04,4.26,3.88,5.39,8.23,5.39c3.5,0,7.47-0.94,10.31-2.18l3.5,11.44c-4.92,2.65-10.5,3.78-16.74,3.78
		c-15.51,0-22.23-11.25-22.23-26.58c0-14.66,7.09-26.29,20.9-26.29c13.62,0,20.15,10.31,20.15,25.91c0,1.51-0.09,3.22-0.19,4.82
		L518.15,71.97z M526,58.63c0-5.77-1.04-9.46-4.07-9.46c-3.31,0-4.73,5.3-4.73,11.26v1.13l8.79-1.42V58.63z"/>
	<path d="M567.99,51.54v37.92h-16.74V51.54h-4.45V38.49h4.45v-3.12c0-9.46,5.39-20.15,20.62-20.15h1.98v12.3
		c-4.44,0-5.86,2.46-5.86,6.81v4.16h5.86v13.05H567.99z"/>
	<path d="M594.66,71.97c1.04,4.26,3.88,5.39,8.23,5.39c3.5,0,7.47-0.94,10.31-2.18l3.5,11.44c-4.92,2.65-10.5,3.78-16.74,3.78
		c-15.51,0-22.23-11.25-22.23-26.58c0-14.66,7.09-26.29,20.9-26.29c13.62,0,20.15,10.31,20.15,25.91c0,1.51-0.09,3.22-0.19,4.82
		L594.66,71.97z M602.51,58.63c0-5.77-1.04-9.46-4.07-9.46c-3.31,0-4.73,5.3-4.73,11.26v1.13l8.79-1.42V58.63z"/>
	<path d="M625.96,89.46V15.22h16.83v74.24H625.96z"/>
	<path d="M673.06,90.41c-15.89,0-23.08-10.02-23.08-26.67c0-14,5.67-25.82,19.1-25.82c1.42,0,3.31,0.28,4.82,0.76V15.22h16.74v71.4
		C685.26,89.28,679.4,90.41,673.06,90.41z M673.91,49.37c-0.57-0.19-1.14-0.19-1.61-0.19c-3.97,0-5.58,4.92-5.58,14.19
		c0,9.84,1.7,14.85,5.67,14.85c0.47,0,0.95,0,1.51-0.19L673.91,49.37L673.91,49.37z"/>
</g>
<g>
	<path fill="#FFFFFF" d="M250.34,85.46l-1.13-28.85c-0.09-2.27-0.09-5.01-0.09-7.09h-0.19c-0.38,1.99-0.95,4.54-1.7,7.09
		l-8.04,28.85h-7.38l-8.04-28.85c-0.66-2.55-1.32-5.2-1.7-7.09h-0.19c0,1.89,0,4.63-0.1,7.09l-1.13,28.85h-15.32l5.2-65.07h15.42
		l8.51,28.37c0.66,2.27,1.23,4.82,1.61,7.19h0.19c0.38-2.37,0.95-4.92,1.61-7.19l8.51-28.37h15.42l5.2,65.07H250.34z"/>
	<path fill="#FFFFFF" d="M289.02,67.97c1.04,4.26,3.88,5.39,8.23,5.39c3.5,0,7.47-0.94,10.31-2.18l3.5,11.44
		c-4.92,2.65-10.5,3.78-16.74,3.78c-15.51,0-22.23-11.25-22.23-26.58c0-14.66,7.09-26.29,20.9-26.29
		c13.62,0,20.14,10.31,20.14,25.91c0,1.51-0.1,3.22-0.19,4.82L289.02,67.97z M296.87,54.63c0-5.77-1.04-9.46-4.07-9.46
		c-3.31,0-4.73,5.3-4.73,11.26v1.13l8.8-1.42L296.87,54.63L296.87,54.63z"/>
	<path fill="#FFFFFF" d="M328.74,27.87c-4.82,0-8.7-3.88-8.7-8.7s3.88-8.7,8.7-8.7s8.7,3.88,8.7,8.7S333.56,27.87,328.74,27.87z
		 M320.32,85.46V34.49h16.83v50.98C337.16,85.46,320.32,85.46,320.32,85.46z"/>
	<path fill="#FFFFFF" d="M369.31,85.46V49.81c0-2.65-1.14-4.16-3.97-4.16c-0.85,0-1.7,0.09-2.65,0.47v39.34h-16.83V37.33
		c5.86-2.55,12.48-3.78,19.39-3.78c14.75,0,20.9,5.86,20.9,16.83v35.09L369.31,85.46L369.31,85.46z"/>
	<path fill="#FFFFFF" d="M443.64,85.46l-9.83-31.02h-0.19v31.02h-17.59V20.4h17.59v28.37h0.19l10.5-28.37h17.78l-12.86,29.98
		l13.9,35.09L443.64,85.46L443.64,85.46z"/>
	<path fill="#FFFFFF" d="M491.21,46.4c-1.23-0.57-2.84-0.76-4.26-0.76c-0.95,0-1.8,0.19-2.65,0.47v39.34h-16.83V37.33
		c6.05-2.74,13.05-3.78,20.05-3.78c2.08,0,4.35,0.09,6.43,0.38L491.21,46.4z"/>
	<path fill="#FFFFFF" d="M513.15,67.97c1.04,4.26,3.88,5.39,8.23,5.39c3.5,0,7.47-0.94,10.31-2.18l3.5,11.44
		c-4.92,2.65-10.5,3.78-16.74,3.78c-15.51,0-22.23-11.25-22.23-26.58c0-14.66,7.09-26.29,20.9-26.29
		c13.62,0,20.15,10.31,20.15,25.91c0,1.51-0.09,3.22-0.19,4.82L513.15,67.97z M521,54.63c0-5.77-1.04-9.46-4.07-9.46
		c-3.31,0-4.73,5.3-4.73,11.26v1.13l8.79-1.42V54.63z"/>
	<path fill="#FFFFFF" d="M562.99,47.54v37.93h-16.74V47.54h-4.45V34.49h4.45v-3.12c0-9.46,5.39-20.15,20.62-20.15h1.98v12.3
		c-4.44,0-5.86,2.46-5.86,6.81v4.16h5.86v13.05L562.99,47.54L562.99,47.54z"/>
	<path fill="#FFFFFF" d="M589.66,67.97c1.04,4.26,3.88,5.39,8.23,5.39c3.5,0,7.47-0.94,10.31-2.18l3.5,11.44
		c-4.92,2.65-10.5,3.78-16.74,3.78c-15.51,0-22.23-11.25-22.23-26.58c0-14.66,7.09-26.29,20.9-26.29
		c13.62,0,20.15,10.31,20.15,25.91c0,1.51-0.09,3.22-0.19,4.82L589.66,67.97z M597.51,54.63c0-5.77-1.04-9.46-4.07-9.46
		c-3.31,0-4.73,5.3-4.73,11.26v1.13l8.79-1.42V54.63z"/>
	<path fill="#FFFFFF" d="M620.96,85.46V11.22h16.83v74.24H620.96z"/>
	<path fill="#FFFFFF" d="M668.06,86.41c-15.89,0-23.08-10.02-23.08-26.67c0-14,5.67-25.82,19.1-25.82c1.42,0,3.31,0.28,4.82,0.76
		V11.22h16.74v71.4C680.26,85.27,674.39,86.41,668.06,86.41z M668.91,45.36c-0.57-0.19-1.14-0.19-1.61-0.19
		c-3.97,0-5.58,4.92-5.58,14.19c0,9.84,1.7,14.85,5.67,14.85c0.47,0,0.95,0,1.51-0.19L668.91,45.36L668.91,45.36z"/>
</g>
</svg>
