<svg xmlns="http://www.w3.org/2000/svg" xmlns:xlink="http://www.w3.org/1999/xlink" viewBox="0 -10 170 60" preserveAspectRatio="xMinYMid meet">
<defs>
  <path id="park-logo-svg-a" d="M15.991.25v2.054H.002v2.73h15.99V2.984H18.9V.25z"/>
  <path d="M3.85.175H.002V.66C.654.664 1.079.79 1.079 1.84v8.565h1.865V7.049h.834l2.292 3.355h2.583V9.98c-.544-.016-.925-.44-1.29-.868L5.607 6.788c1.338-.42 2.695-1.412 2.695-3.268 0-2.068-1.43-3.346-4.453-3.346v.001zm0 6.054l-.91-.042V.988h.587c1.827 0 2.72.858 2.72 2.588 0 1.896-.984 2.653-2.397 2.653zM12.86.175H9.098V.66c.674 0 1.082.153 1.082 1.182v8.565h1.862V7.15h.414c2.932 0 4.826-.995 4.826-3.48 0-2.119-1.314-3.497-4.422-3.497v.001zm-.405 6.17h-.419V.987h.748c1.77 0 2.443.938 2.443 2.768 0 2.164-1.087 2.588-2.771 2.588h-.001zM26.229.027c-2.68 0-4.627 2.125-4.627 5.252 0 3.112 1.931 5.275 4.627 5.275 2.684 0 4.647-2.092 4.647-5.22 0-3.127-1.952-5.307-4.647-5.307zm0 .809c1.522 0 2.609 1.523 2.609 4.442 0 3.027-.941 4.465-2.609 4.465-1.519 0-2.572-1.509-2.572-4.465 0-2.974.903-4.442 2.572-4.442zm12.425 9.568h1.769V.175h-1.215V7.47L34.86.175h-1.914v10.23h1.2v-7.46l4.508 7.46zm4.636 0h5.07v-.913h-3.234V.175h-1.835v10.23zm6.62.002h1.813V.176h-1.814v10.23h.002zm10.37-.002h1.764V.175h-1.21l-.007 7.294L56.481.175h-1.914v10.23h1.205l-.006-7.46 4.513 7.46zm4.632 0h5.573v-.913h-3.702v-4.03h2.674v-.894l-2.674-.005V1.054h3.223V.175h-5.094v10.23z" id="park-logo-svg-c"/>
</defs>
<g fill="none" fill-rule="evenodd">
  <a xlink:href="{{ logo.href }}">
    <rect x="0" y="0" width="155" height="20" stroke="transparent" stroke-width="32"/>
    <g fill="#325472">
      <path d="M4.857 7.7l2.478 7.85c.347 1.15.892 3.05 1.09 4.2.15-1 .496-2.7 1.041-4.4L11.846 8h4.708l-6.295 17.35H6.542L.248 8.25l4.61-.55zm26.219 2.55c1.388 1.65 1.982 3.55 1.982 6.35 0 3-.694 5.05-2.13 6.7-1.29 1.5-3.024 2.4-5.7 2.4-4.66 0-7.732-3.55-7.732-9s3.073-9.1 7.731-9.1c2.429.05 4.362.9 5.849 2.65zm-8.128 2.5c-.298.9-.496 2.15-.496 3.85 0 2 .198 3.5.595 4.4.396.95 1.437 1.45 2.28 1.45 1.932 0 2.775-1.75 2.775-5.9 0-2.35-.297-3.85-.892-4.65-.397-.55-1.14-.9-1.933-.9-1.09 0-1.933.7-2.33 1.75zm17.892-8V18.3c0 3 .05 3.4.297 3.85.149.3.545.5.892.5.149 0 .248 0 .496-.05l.793 2.7c-.793.3-1.735.5-2.677.5-1.933 0-3.469-.9-4.014-2.4-.347-.9-.397-1.4-.397-3.9V6.55c0-2.3-.05-3.65-.247-5.25L40.592.25c.198.95.248 2.05.248 4.5zM50.95.15c.199 1.3.248 3.35.248 5.65v19.6h-4.51V5.8c0-1.55-.05-2.7-.297-4.5L50.95.15zM61.16 8l-5.501 7.25 6.79 10.1h-5.303l-5.8-9.85 4.412-7.55h5.402V8z"/>
      <path d="M74.245 12.2c-1.735-.9-2.974-1.25-4.262-1.25-1.29 0-2.181.7-2.181 1.7 0 .9.595 1.35 2.13 1.75l2.083.55c2.13.55 2.825 1.2 3.42 1.95.644.8.941 1.8.941 2.95 0 3.6-2.974 6.05-7.385 6.05-2.13 0-4.46-.7-6.988-2l1.635-3.35c1.388.85 3.767 1.95 5.7 1.95 1.289 0 2.28-.85 2.28-1.95 0-1.2-.842-1.8-2.676-2.15l-2.032-.35c-1.14-.2-2.578-1-3.172-1.75-.595-.75-.992-2-.992-3.1 0-3.4 2.677-5.65 6.642-5.65 2.775 0 4.56.85 6.146 1.65l-1.29 3zm12.143-8.65c-1.14 0-1.884.7-1.884 1.95V8h4.362l-1.14 3.1h-3.222v14.25h-4.41V11.1h-1.537V8h1.635c-.099-.7-.148-1.6-.148-2.4 0-3.45 2.032-5.4 5.55-5.4 1.488 0 2.677.3 4.065 1.1l-1.437 2.8c-.942-.45-1.29-.55-1.834-.55zm7.285 4.05c.397.7.645 1.5.694 2.5.645-.9 1.735-1.85 2.578-2.2.347-.15.99-.25 1.486-.25.694 0 .992.05 1.686.35l-1.24 4c-.446-.25-.792-.35-1.288-.35-.991 0-1.933.5-2.776 1.45v12.3h-4.51V13.75c0-2.35-.248-4.1-.644-5.1l4.014-1.05zm21.957 15.85c-1.983 1.65-4.064 2.4-6.493 2.4-4.956 0-8.128-3.55-8.128-9 0-3.1.644-5.2 2.13-6.9 1.438-1.6 3.123-2.35 5.403-2.35 1.983 0 3.866.7 5.006 1.85 1.586 1.65 2.28 3.95 2.28 7.6v1.05h-9.962v.15c0 2.7 1.289 4.2 3.618 4.2 1.536 0 2.974-.6 4.361-1.75l1.785 2.75zm-4.46-8.65v-.2c0-1.3-.15-1.95-.546-2.6-.446-.7-1.09-1-1.983-1-1.734 0-2.676 1.35-2.676 3.75v.05h5.204zm12.241-7.25V18.7c0 1.55.149 2.4.347 2.85.248.5.892.8 1.586.8 1.09 0 2.478-.8 2.776-1.65V8.5l4.311-.9v13.3c0 1.15.347 2.35 1.041 3.15l-3.221 1.85c-.595-.4-1.041-1-1.338-1.7-1.09 1.1-2.726 1.65-4.56 1.65-2.429 0-4.51-1.15-5.105-2.8-.248-.8-.347-1.7-.347-3.45V8.4l4.51-.85zm17.248 0c.396.7.644 1.45.644 2.15.694-.5 1.24-.9 1.983-1.3.892-.5 2.081-.75 3.073-.75 1.933 0 3.618 1 4.163 2.5.248.65.347 1.4.347 2.5v12.7h-4.46v-11.3c0-1.95-.348-2.55-1.537-2.55-.892 0-2.082.6-3.123 1.55v12.3h-4.51v-12.6c0-1.5-.198-2.9-.595-4.05l4.015-1.15zM169.108 19c0 4.3.347 5.65.644 6.35h-4.064c-.149-.25-.198-.55-.248-1-1.09 1-2.428 1.45-3.965 1.45-4.361 0-7.137-3.45-7.137-8.85 0-5.45 2.974-9.15 7.385-9.15 1.24 0 2.23.3 3.073 1-.05-.35-.149-1.55-.149-2.6v-6l4.46.7V19zm-6.89-7.55c-2.031 0-2.874 1.7-2.874 5.55 0 3.75.793 4.95 3.122 4.95.843 0 1.785-.6 2.23-1.1v-8.3c-.842-.75-1.684-1.1-2.477-1.1z"/>
    </g>
  </a>
  <a xlink:href="https://rp-online.de?utm_source=tv&amp;utm_campaign=header&amp;utm_medium=logo" target="_blank">
    <rect x="0" y="40" width="135" height="10" stroke="transparent" stroke-width="20"/>
    <path d="M.79 36.988h2.383c.427 0 .818.038 1.174.113.355.075.658.198.907.367.249.17.442.394.58.672.139.279.208.621.208 1.028 0 .392-.069.73-.207 1.016a1.91 1.91 0 0 1-.587.712c-.253.188-.556.33-.907.424a4.515 4.515 0 0 1-1.168.14h-1.4v2.937H.79v-7.409zm2.264 3.704c.68 0 1.184-.123 1.512-.367.328-.245.492-.63.492-1.158 0-.535-.166-.905-.498-1.112-.332-.207-.834-.311-1.506-.311h-1.28v2.948h1.28zm4.186 2.281c0-.602.282-1.063.848-1.383.565-.32 1.464-.544 2.697-.672 0-.174-.018-.343-.053-.509a1.178 1.178 0 0 0-.19-.44 1.014 1.014 0 0 0-.362-.31 1.244 1.244 0 0 0-.58-.12 2.422 2.422 0 0 0-.943.181 4.734 4.734 0 0 0-.777.407l-.391-.644c.269-.165.597-.325.984-.48a3.43 3.43 0 0 1 1.28-.231c.704 0 1.214.205 1.53.615.316.41.474.958.474 1.644v3.365h-.806l-.083-.655h-.024a4.817 4.817 0 0 1-.895.56 2.305 2.305 0 0 1-1.014.23c-.49 0-.895-.135-1.215-.406-.32-.27-.48-.655-.48-1.152zm.96-.068c0 .317.097.543.29.678.194.136.433.203.718.203.277 0 .54-.062.789-.186s.511-.307.788-.548v-1.524c-.482.06-.89.131-1.221.214-.28.063-.549.162-.8.294a1.122 1.122 0 0 0-.433.39.925.925 0 0 0-.13.48zm5.395-3.998h.806l.083.994h.036a2.57 2.57 0 0 1 .717-.824c.281-.204.587-.305.92-.305.229 0 .434.037.616.113l-.19.813a1.618 1.618 0 0 0-.557-.09c-.245 0-.5.094-.765.282-.265.188-.496.516-.694.982v3.524h-.972v-5.488zm4.28.757h-.853v-.7l.901-.057.119-1.536h.818v1.536h1.553v.757H18.86v3.05c0 .338.065.6.195.784.13.185.362.277.694.277.103 0 .213-.015.332-.045.109-.027.216-.061.32-.102l.19.7c-.158.053-.33.1-.516.142-.18.04-.366.061-.551.062-.309 0-.567-.045-.777-.136a1.33 1.33 0 0 1-.51-.372 1.422 1.422 0 0 1-.278-.576 3.131 3.131 0 0 1-.083-.746v-3.038zm3.842-.757h.807l.083.79h.035c.277-.263.567-.483.872-.66.32-.181.688-.273 1.06-.265.61 0 1.054.18 1.335.542.28.361.42.896.42 1.604v3.478h-.972v-3.353c0-.52-.086-.894-.26-1.124-.174-.23-.45-.344-.83-.344-.3 0-.566.071-.795.214a5.099 5.099 0 0 0-.782.633v3.975h-.973v-5.489zm6.06 2.756c0-.452.072-.856.219-1.214.146-.358.34-.66.58-.91a2.52 2.52 0 0 1 .825-.57 2.42 2.42 0 0 1 .96-.197c.364 0 .69.06.978.18.289.12.53.294.724.52.193.226.342.497.444.813.103.316.154.67.154 1.062 0 .203-.011.373-.035.508h-3.89c.04.595.232 1.065.576 1.412.344.346.792.52 1.346.52.276 0 .531-.04.764-.12.234-.078.457-.182.67-.31l.344.61c-.253.15-.533.282-.842.395a3.056 3.056 0 0 1-1.055.17c-.387 0-.749-.066-1.085-.198a2.582 2.582 0 0 1-.877-.565 2.599 2.599 0 0 1-.587-.897 3.217 3.217 0 0 1-.214-1.209zm4.03-.418c0-.565-.124-.996-.373-1.293-.249-.297-.599-.446-1.05-.446-.201 0-.401.04-.586.118a1.63 1.63 0 0 0-.504.34 1.802 1.802 0 0 0-.373.541 2.41 2.41 0 0 0-.196.74h3.083zm2.277-2.338h.807l.083.994h.035a2.57 2.57 0 0 1 .718-.824c.28-.204.586-.305.918-.305.23 0 .435.037.617.113l-.19.813a1.618 1.618 0 0 0-.557-.09c-.245 0-.5.094-.765.282-.265.188-.496.516-.693.982v3.524h-.973v-5.488zm5.68 0h1.008l1.09 3.117c.088.272.177.543.267.814l.267.802h.048c.087-.264.174-.531.26-.802l.261-.814 1.091-3.117h.96l-2.039 5.49H41.84l-2.075-5.49zm5.94 2.756c0-.46.073-.868.22-1.225a2.77 2.77 0 0 1 .587-.91c.245-.248.527-.436.847-.564a2.705 2.705 0 0 1 1.014-.192c.356 0 .694.064 1.014.192.32.128.603.316.848.564.245.249.44.552.587.91.146.357.22.766.22 1.225 0 .452-.074.857-.22 1.214a2.705 2.705 0 0 1-.587.904 2.503 2.503 0 0 1-.848.559 2.705 2.705 0 0 1-1.014.192c-.356 0-.693-.064-1.014-.192a2.503 2.503 0 0 1-.847-.56 2.704 2.704 0 0 1-.587-.903 3.183 3.183 0 0 1-.22-1.214zm1.008 0c0 .316.04.602.119.858.079.256.191.477.338.661a1.503 1.503 0 0 0 1.203.582 1.503 1.503 0 0 0 1.204-.582c.146-.184.259-.405.338-.66.079-.257.118-.543.118-.859 0-.316-.04-.604-.118-.864a2.06 2.06 0 0 0-.338-.672 1.51 1.51 0 0 0-.528-.435 1.504 1.504 0 0 0-.676-.152c-.245 0-.47.05-.676.152a1.51 1.51 0 0 0-.527.435 2.061 2.061 0 0 0-.338.672 2.96 2.96 0 0 0-.119.864zm5.846-2.756h.806l.083.79h.036c.276-.263.567-.483.871-.66.32-.181.689-.273 1.061-.265.609 0 1.054.18 1.334.542.28.361.421.896.421 1.604v3.478h-.972v-3.353c0-.52-.087-.894-.26-1.124-.175-.23-.452-.344-.83-.344-.301 0-.566.071-.795.214a5.099 5.099 0 0 0-.783.633v3.975h-.972v-5.489z" fill="#2F2F2F"/>
    <path d="M77.584 44.393v2.054h-15.99v2.73h15.99v-2.049h2.91v-2.735z" fill="#FFCB04"/>
    <g transform="translate(61.593 44.143)">
      <mask id="park-logo-svg-b" fill="#fff">
        <use xlink:href="#park-logo-svg-a"/>
      </mask>
      <g mask="url(#park-logo-svg-b)" fill="#FFBE00">
        <path d="M0 0h19.808v4.717H0z"/>
      </g>
    </g>
    <g>
      <path d="M65.443 34.175h-3.848v.484c.652.005 1.077.132 1.077 1.182v8.565h1.864v-3.357h.835l2.292 3.355h2.583v-.424c-.544-.016-.925-.44-1.29-.868L67.2 40.788c1.338-.42 2.695-1.412 2.695-3.268 0-2.068-1.43-3.346-4.453-3.346v.001zm0 6.054l-.91-.042v-5.199h.586c1.828 0 2.722.858 2.722 2.588 0 1.896-.985 2.653-2.398 2.653zm9.01-6.054h-3.762v.484c.674 0 1.082.153 1.082 1.182v8.565h1.862V41.15h.414c2.932 0 4.826-.995 4.826-3.48 0-2.119-1.314-3.497-4.422-3.497v.001zm-.405 6.17h-.42v-5.357h.749c1.77 0 2.442.938 2.442 2.768 0 2.164-1.086 2.588-2.77 2.588h-.001zm13.774-6.317c-2.68 0-4.627 2.125-4.627 5.252 0 3.112 1.931 5.275 4.627 5.275 2.684 0 4.647-2.092 4.647-5.22 0-3.127-1.953-5.307-4.647-5.307zm0 .809c1.522 0 2.608 1.523 2.608 4.442 0 3.027-.94 4.465-2.608 4.465-1.519 0-2.572-1.509-2.572-4.465 0-2.974.903-4.442 2.572-4.442zm12.425 9.568h1.769v-10.23H100.8v7.294l-4.348-7.294h-1.914v10.23h1.2v-7.46l4.508 7.46zm4.636 0h5.07v-.913h-3.234v-9.317h-1.835v10.23zm6.62.002h1.813V34.176h-1.814v10.23h.002zm10.37-.002h1.764v-10.23h-1.21l-.007 7.294-4.346-7.294h-1.915v10.23h1.206l-.006-7.46 4.513 7.46zm4.632 0h5.573v-.913h-3.702v-4.03h2.674v-.894l-2.674-.005v-3.509h3.222v-.879h-5.093v10.23z" fill="#2F2F2F"/>
      <g transform="translate(61.593 34)">
        <mask id="park-logo-svg-d" fill="#fff">
          <use xlink:href="#park-logo-svg-c"/>
        </mask>
        <g mask="url(#park-logo-svg-d)" fill="#2F2F2F">
          <path d="M0 0h71.31v12.264H0z"/>
        </g>
      </g>
    </g>
  </a>
</g>
</svg>