<svg id="Ebene_1" data-name="Ebene 1" xmlns="http://www.w3.org/2000/svg" viewBox="0 0 720.73 190.72"  preserveAspectRatio="xMinYMid meet"><defs><style>.cls-1{fill:#cb051c;}.cls-2{fill:#cb061c;}</style></defs><title>logo</title><path d="M98,324.75c-11.77,0-21-1.84-27.08-5.67V230c6.38-3.26,14.88-5.67,25.66-5.67,30.63,0,40,23.54,40,50.48C136.57,300.93,127.49,324.75,98,324.75Zm.42-80.4a8.06,8.06,0,0,0-1.7.29v59a10.39,10.39,0,0,0,2.13.29c7.94,0,11.34-6.38,11.34-29.92C110.19,252.29,107.5,244.35,98.42,244.35Z" transform="translate(-66.68 -207.87)"/><path d="M178,324.75c-19.28,0-30.2-7.8-30.2-25.95V246.9H173v52.75c0,3.41,2,5.53,5.39,5.53a9.83,9.83,0,0,0,4.25-.85V246.9h25.24v72.18C200.09,323.19,189.17,324.75,178,324.75Zm-13-84.51a9.79,9.79,0,1,1,9.78-9.78A9.81,9.81,0,0,1,164.93,240.24Zm25.8,0a9.79,9.79,0,1,1,9.79-9.78A9.81,9.81,0,0,1,190.73,240.24Z" transform="translate(-66.68 -207.87)"/><path d="M238.66,324.75c-8.22,0-15.46-1.7-21.41-5.67l6.1-17.16c3.12,2.13,8.08,3.26,11.91,3.26s5.53-1.84,5.53-4.11c0-9.5-22.27-8.93-22.27-31.34,0-14.88,10.36-24.24,25.95-24.24,8.51,0,15,1.84,21,5.67l-5.67,15.6a22.26,22.26,0,0,0-10.92-3c-3.69,0-5.39,2.41-5.39,4.82,0,9.5,22.69,9.36,22.69,31.76C266.17,314.54,256,324.75,238.66,324.75Z" transform="translate(-66.68 -207.87)"/><path d="M294,324.75c-8.22,0-15.45-1.7-21.41-5.67l6.1-17.16c3.12,2.13,8.08,3.26,11.91,3.26s5.53-1.84,5.53-4.11c0-9.5-22.26-8.93-22.26-31.34,0-14.88,10.35-24.24,25.95-24.24,8.5,0,15,1.84,21,5.67l-5.67,15.6a22.26,22.26,0,0,0-10.92-3c-3.69,0-5.39,2.41-5.39,4.82,0,9.5,22.69,9.36,22.69,31.76C321.47,314.54,311.26,324.75,294,324.75Z" transform="translate(-66.68 -207.87)"/><path d="M354.65,297.1c1.56,6.38,5.82,8.08,12.34,8.08a41.65,41.65,0,0,0,15.46-3.26l5.24,17.16c-7.37,4-15.74,5.67-25.1,5.67-23.25,0-33.32-16.87-33.32-39.84,0-22,10.64-39.42,31.34-39.42,20.42,0,30.2,15.45,30.2,38.85,0,2.27-.14,4.82-.28,7.23Zm11.77-20c0-8.65-1.56-14.18-6.1-14.18-5,0-7.09,7.94-7.09,16.87v1.7l13.19-2.12Z" transform="translate(-66.68 -207.87)"/><path d="M401.59,323.33V212h25.24V323.33Z" transform="translate(-66.68 -207.87)"/><path d="M472.2,324.75c-23.82,0-34.6-15-34.6-40,0-21,8.51-38.72,28.64-38.72a26.46,26.46,0,0,1,7.24,1.14V212h25.09V319.08C490.49,323.05,481.7,324.75,472.2,324.75Zm1.28-61.54a7.55,7.55,0,0,0-2.41-.28c-6,0-8.37,7.37-8.37,21.27,0,14.74,2.55,22.26,8.51,22.26a6.72,6.72,0,0,0,2.27-.28v-43Z" transform="translate(-66.68 -207.87)"/><path d="M540.41,324.75c-20.42,0-31.06-15.45-31.06-39.7s10.64-39.56,31.06-39.56,31.05,15.45,31.05,39.56S560.82,324.75,540.41,324.75Zm0-61c-4.54,0-5.68,7.66-5.68,20.7s1.14,20.7,5.68,20.7,5.67-7.65,5.67-20.7S544.94,263.78,540.41,263.78Z" transform="translate(-66.68 -207.87)"/><path d="M617.83,264.77a16,16,0,0,0-6.39-1.13,12.23,12.23,0,0,0-4,.71v59H582.23V251.16c9.08-4.11,19.57-5.67,30.07-5.67a74.21,74.21,0,0,1,9.64.56Z" transform="translate(-66.68 -207.87)"/><path d="M660.79,266.47v56.86h-25.1V266.47H629V246.9h6.67v-4.67c0-14.18,8.08-30.21,30.91-30.21h3v18.44c-6.67,0-8.79,3.68-8.79,10.21v6.23h8.79v19.57Z" transform="translate(-66.68 -207.87)"/><path d="M700.77,297.1c1.56,6.38,5.82,8.08,12.34,8.08a41.65,41.65,0,0,0,15.46-3.26l5.24,17.16c-7.37,4-15.74,5.67-25.1,5.67-23.25,0-33.32-16.87-33.32-39.84,0-22,10.64-39.42,31.34-39.42,20.42,0,30.2,15.45,30.2,38.85,0,2.27-.14,4.82-.28,7.23Zm11.77-20c0-8.65-1.56-14.18-6.09-14.18-5,0-7.09,7.94-7.09,16.87v1.7l13.18-2.12Z" transform="translate(-66.68 -207.87)"/><path d="M783.3,264.77a16,16,0,0,0-6.38-1.13,12.14,12.14,0,0,0-4,.71v59H747.71V251.16c9.07-4.11,19.57-5.67,30.06-5.67a74.21,74.21,0,0,1,9.64.56Z" transform="translate(-66.68 -207.87)"/><path class="cls-1" d="M93.76,320.6c-11.77,0-21-1.84-27.08-5.67V225.88c6.38-3.26,14.89-5.67,25.66-5.67,30.63,0,40,23.54,40,50.48C132.33,296.78,123.26,320.6,93.76,320.6Zm.43-80.4a7.86,7.86,0,0,0-1.7.29v59a10.2,10.2,0,0,0,2.12.29c7.94,0,11.35-6.38,11.35-29.92C106,248.14,103.26,240.2,94.19,240.2Z" transform="translate(-66.68 -207.87)"/><path class="cls-1" d="M173.74,320.6c-19.29,0-30.21-7.8-30.21-26v-51.9h25.24V295.5c0,3.41,2,5.53,5.39,5.53a9.83,9.83,0,0,0,4.25-.85V242.75h25.24v72.18C195.86,319,184.94,320.6,173.74,320.6Zm-13.05-84.51a9.79,9.79,0,1,1,9.78-9.78A9.8,9.8,0,0,1,160.69,236.09Zm25.81,0a9.79,9.79,0,1,1,9.78-9.78A9.81,9.81,0,0,1,186.5,236.09Z" transform="translate(-66.68 -207.87)"/><path class="cls-1" d="M234.42,320.6c-8.22,0-15.45-1.7-21.41-5.67l6.1-17.16c3.12,2.13,8.08,3.26,11.91,3.26s5.53-1.84,5.53-4.11c0-9.5-22.26-8.93-22.26-31.34,0-14.89,10.35-24.25,26-24.25,8.5,0,15,1.85,21,5.68l-5.67,15.59a22.36,22.36,0,0,0-10.92-3c-3.68,0-5.39,2.41-5.39,4.82,0,9.5,22.69,9.36,22.69,31.76C261.93,310.39,251.72,320.6,234.42,320.6Z" transform="translate(-66.68 -207.87)"/><path class="cls-1" d="M289.73,320.6c-8.23,0-15.46-1.7-21.42-5.67l6.1-17.16c3.12,2.13,8.09,3.26,11.91,3.26s5.53-1.84,5.53-4.11c0-9.5-22.26-8.93-22.26-31.34,0-14.89,10.35-24.25,26-24.25,8.51,0,15,1.85,21,5.68l-5.68,15.59a22.29,22.29,0,0,0-10.91-3c-3.69,0-5.39,2.41-5.39,4.82,0,9.5,22.68,9.36,22.68,31.76C317.23,310.39,307,320.6,289.73,320.6Z" transform="translate(-66.68 -207.87)"/><path class="cls-1" d="M350.42,293c1.56,6.38,5.81,8.08,12.33,8.08a41.65,41.65,0,0,0,15.46-3.26l5.25,17.16c-7.38,4-15.74,5.67-25.1,5.67-23.26,0-33.33-16.87-33.33-39.84,0-22,10.64-39.42,31.34-39.42,20.42,0,30.21,15.45,30.21,38.85,0,2.27-.15,4.82-.29,7.23Zm11.76-20c0-8.65-1.56-14.18-6.09-14.18-5,0-7.09,7.94-7.09,16.87v1.7l13.18-2.12Z" transform="translate(-66.68 -207.87)"/><path class="cls-1" d="M397.35,319.18V207.87h25.24V319.18Z" transform="translate(-66.68 -207.87)"/><path class="cls-1" d="M468,320.6c-23.82,0-34.6-15-34.6-40,0-21,8.51-38.71,28.65-38.71a26.39,26.39,0,0,1,7.23,1.14V207.87h25.1V314.93C486.26,318.9,477.46,320.6,468,320.6Zm1.28-61.54a7.52,7.52,0,0,0-2.41-.28c-6,0-8.37,7.37-8.37,21.27,0,14.74,2.56,22.26,8.51,22.26a6.72,6.72,0,0,0,2.27-.28v-43Z" transform="translate(-66.68 -207.87)"/><path class="cls-1" d="M536.17,320.6c-20.42,0-31.06-15.45-31.06-39.7s10.64-39.56,31.06-39.56,31.05,15.45,31.05,39.56S556.59,320.6,536.17,320.6Zm0-61c-4.54,0-5.67,7.65-5.67,20.7s1.13,20.7,5.67,20.7,5.67-7.65,5.67-20.7S540.71,259.63,536.17,259.63Z" transform="translate(-66.68 -207.87)"/><path class="cls-1" d="M613.59,260.62a16,16,0,0,0-6.38-1.13,12.14,12.14,0,0,0-4,.71v59H578V247c9.07-4.11,19.57-5.67,30.06-5.67a74.21,74.21,0,0,1,9.64.56Z" transform="translate(-66.68 -207.87)"/><path class="cls-1" d="M656.55,262.32v56.86h-25.1V262.32h-6.66V242.75h6.66v-4.68c0-14.18,8.08-30.2,30.91-30.2h3v18.44c-6.66,0-8.79,3.68-8.79,10.2v6.24h8.79v19.57Z" transform="translate(-66.68 -207.87)"/><path class="cls-1" d="M696.54,293c1.56,6.38,5.81,8.08,12.33,8.08a41.61,41.61,0,0,0,15.46-3.26l5.25,17.16c-7.38,4-15.74,5.67-25.1,5.67-23.26,0-33.33-16.87-33.33-39.84,0-22,10.64-39.42,31.34-39.42,20.42,0,30.21,15.45,30.21,38.85,0,2.27-.15,4.82-.29,7.23Zm11.77-20c0-8.65-1.56-14.18-6.1-14.18-5,0-7.09,7.94-7.09,16.87v1.7l13.19-2.12Z" transform="translate(-66.68 -207.87)"/><path class="cls-1" d="M779.06,260.62a15.93,15.93,0,0,0-6.38-1.13,12.19,12.19,0,0,0-4,.71v59H743.47V247c9.08-4.11,19.57-5.67,30.06-5.67a74.36,74.36,0,0,1,9.65.56Z" transform="translate(-66.68 -207.87)"/><path d="M517.71,383.35l-3-12.33H501.92l-3.05,12.33H492.1L505,336.74h7.31l13,46.61ZM509.64,350a58.15,58.15,0,0,1-1.15-6.37h-.13a58.15,58.15,0,0,1-1.15,6.37l-4.07,16.19h10.44Z" transform="translate(-66.68 -207.87)"/><path d="M547.32,383.35V357.06c0-3.86-1.9-6-5.83-6a10.85,10.85,0,0,0-4.4.88v31.37H530V348.73a25.78,25.78,0,0,1,11.38-2.58c8.54,0,12.94,3.8,12.94,11.12v26.08Z" transform="translate(-66.68 -207.87)"/><path d="M560,383.35l12.12-31.44H560.87v-5.08h19.92L569,378.27h12.06v5.08Z" transform="translate(-66.68 -207.87)"/><path d="M592.51,368.38c.47,6.3,3.25,10.23,8.4,10.23a16,16,0,0,0,7.65-1.9l1.56,4.74A18.84,18.84,0,0,1,600,384c-9.42,0-14.43-7.39-14.43-19,0-10.37,4.4-18.83,13.14-18.83s12.53,7.45,12.53,17.68v1.62ZM598.67,351c-4.4,0-6.5,6.09-6.5,12.67V364l12.4-1.89C604.57,356.18,603.14,351,598.67,351Z" transform="translate(-66.68 -207.87)"/><path d="M621.78,340.26a4,4,0,0,1-4-3.93,4.05,4.05,0,0,1,4-4,4,4,0,0,1,3.93,4A3.93,3.93,0,0,1,621.78,340.26Zm-3.52,43.09V346.83h7v36.52Z" transform="translate(-66.68 -207.87)"/><path d="M644.41,398.59A21.12,21.12,0,0,1,634,396l1.9-4.95a15.53,15.53,0,0,0,7.65,2c4.75,0,6.64-3.12,6.64-8.13v-2.31a11,11,0,0,1-4.94,1.22c-9.15,0-13-8.33-13-18.49,0-11.11,4.68-19.24,15-19.24a19.34,19.34,0,0,1,10,2.57v36C657.14,393.24,652.87,398.59,644.41,398.59Zm5.75-46.88a7.05,7.05,0,0,0-3.32-.81c-5.48,0-7.65,6-7.65,14.29,0,7.46,2,13.76,7,13.76a8.05,8.05,0,0,0,3.93-.88V351.71Z" transform="translate(-66.68 -207.87)"/><path d="M670.83,368.38c.47,6.3,3.25,10.23,8.4,10.23a16,16,0,0,0,7.66-1.9l1.56,4.74a18.88,18.88,0,0,1-10.1,2.58c-9.42,0-14.43-7.39-14.43-19,0-10.37,4.4-18.83,13.14-18.83s12.54,7.45,12.54,17.68v1.62ZM677,351c-4.4,0-6.5,6.09-6.5,12.67V364l12.4-1.89C682.89,356.18,681.47,351,677,351Z" transform="translate(-66.68 -207.87)"/><path d="M710.26,351.64a12.1,12.1,0,0,0-3.18-.4,9,9,0,0,0-3.66.81v31.3h-7V348.73a26.33,26.33,0,0,1,12-2.58,24.69,24.69,0,0,1,3.26.21Z" transform="translate(-66.68 -207.87)"/><path class="cls-2" d="M514.88,381.94l-3-12.33H499.09l-3,12.33h-6.77l12.94-46.61h7.32l13,46.61Zm-8.06-33.34a55.54,55.54,0,0,1-1.16-6.36h-.13a55.33,55.33,0,0,1-1.15,6.36l-4.07,16.2h10.44Z" transform="translate(-66.68 -207.87)"/><path class="cls-2" d="M544.49,381.94V355.65c0-3.86-1.9-6-5.83-6a10.85,10.85,0,0,0-4.4.88v31.37h-7V347.32a25.68,25.68,0,0,1,11.38-2.58c8.54,0,12.94,3.8,12.94,11.11v26.09Z" transform="translate(-66.68 -207.87)"/><path class="cls-2" d="M557.16,381.94l12.13-31.44H558v-5.08H578l-11.79,31.44h12.06v5.08Z" transform="translate(-66.68 -207.87)"/><path class="cls-2" d="M589.68,367c.47,6.31,3.25,10.23,8.4,10.23a16,16,0,0,0,7.66-1.89l1.55,4.74a18.81,18.81,0,0,1-10.09,2.57c-9.42,0-14.43-7.38-14.43-19,0-10.37,4.4-18.84,13.14-18.84s12.54,7.46,12.54,17.69v1.62Zm6.16-17.41c-4.4,0-6.5,6.1-6.5,12.67v.34l12.4-1.89C601.74,354.77,600.32,349.55,595.84,349.55Z" transform="translate(-66.68 -207.87)"/><path class="cls-2" d="M619,338.85a4,4,0,0,1-4-3.93,4.05,4.05,0,0,1,4-4,4,4,0,0,1,3.93,4A3.93,3.93,0,0,1,619,338.85Zm-3.52,43.09V345.42h7v36.52Z" transform="translate(-66.68 -207.87)"/><path class="cls-2" d="M641.58,397.18a21.12,21.12,0,0,1-10.44-2.57l1.9-4.95a15.53,15.53,0,0,0,7.66,2c4.74,0,6.64-3.11,6.64-8.13v-2.3a11.24,11.24,0,0,1-5,1.22c-9.15,0-13-8.33-13-18.5,0-11.11,4.68-19.24,15-19.24a19.31,19.31,0,0,1,9.95,2.58v36C654.31,391.83,650.05,397.18,641.58,397.18Zm5.76-46.88a7.11,7.11,0,0,0-3.32-.81c-5.49,0-7.66,6-7.66,14.29,0,7.45,2,13.75,7,13.75a7.94,7.94,0,0,0,3.93-.88V350.3Z" transform="translate(-66.68 -207.87)"/><path class="cls-2" d="M668,367c.48,6.31,3.25,10.23,8.4,10.23a16,16,0,0,0,7.66-1.89l1.56,4.74a18.85,18.85,0,0,1-10.1,2.57c-9.41,0-14.43-7.38-14.43-19,0-10.37,4.4-18.84,13.15-18.84s12.53,7.46,12.53,17.69v1.62Zm6.17-17.41c-4.41,0-6.51,6.1-6.51,12.67v.34l12.4-1.89C680.06,354.77,678.64,349.55,674.17,349.55Z" transform="translate(-66.68 -207.87)"/><path class="cls-2" d="M707.43,350.23a12,12,0,0,0-3.18-.41,9,9,0,0,0-3.66.82v31.3h-7.05V347.32a26.38,26.38,0,0,1,12-2.58,24.65,24.65,0,0,1,3.25.21Z" transform="translate(-66.68 -207.87)"/></svg>