<?xml version="1.0" encoding="utf-8"?>
<!-- Generator: Adobe Illustrator 23.0.2, SVG Export Plug-In . SVG Version: 6.00 Build 0)  -->
<svg  preserveAspectRatio="xMinYMid meet" version="1.1" id="Ebene_1" xmlns="http://www.w3.org/2000/svg" xmlns:xlink="http://www.w3.org/1999/xlink" x="0px" y="0px"
	 viewBox="0 0 211 30" enable-background="new 0 0 211 30" xml:space="preserve">
<title>AN-logo-website</title>
<desc>Created with Sketch.</desc>
<g id="AN-logo-website" transform="translate(0.133084, 0.278881)">
	<g id="AN-Logo" transform="translate(-0.000000, -2.500000)">
		<g id="Group-48" transform="translate(-0.000000, 6.538462)">
			<polygon id="Fill-1" fill-rule="evenodd" clip-rule="evenodd" fill="#DBDBDB" points="4.83,19.56 10.35,19.56 13.11,13.04 
				10.35,6.52 			"/>
			<polygon id="Fill-2" fill-rule="evenodd" clip-rule="evenodd" fill="#C5C5C5" points="7.59,0 0,17.93 0.64,19.56 4.83,19.56 
				10.35,6.52 7.59,0 			"/>
			<polygon id="Fill-3" fill-rule="evenodd" clip-rule="evenodd" fill="#FFD400" points="13.11,13.04 15.87,19.56 21.4,19.56 
				15.87,6.52 			"/>
			<polygon id="Fill-4" fill-rule="evenodd" clip-rule="evenodd" fill="#333333" points="13.11,0 10.35,6.52 13.11,13.04 
				15.87,6.52 13.11,0 			"/>
			<polygon id="Fill-5" fill-rule="evenodd" clip-rule="evenodd" fill="#262626" points="7.59,0 10.35,6.52 13.11,0 			"/>
			<polygon id="Fill-6" fill-rule="evenodd" clip-rule="evenodd" fill="#474747" points="13.11,0 15.87,6.52 18.63,0 			"/>
			<polygon id="Fill-7" fill-rule="evenodd" clip-rule="evenodd" fill="#FFDF40" points="18.63,0 15.87,6.52 21.4,19.56 
				25.58,19.56 26.23,17.93 18.64,0 			"/>
			<path id="Fill-8" fill-rule="evenodd" clip-rule="evenodd" d="M42.82,13.49l1.77-8.5l0.1-0.5L44.78,5l1.5,8.5l0.02,0.12h-0.12
				h-3.27h-0.12L42.82,13.49z M39.69,18.46v1.09h2.94v-1.09h-0.73h-0.12l0.02-0.12l0.64-3.08l0.02-0.08h0.08h3.96h0.08l0.02,0.08
				l0.58,3.08l0.02,0.12h-0.12h-0.79v1.09h4.68v-1.09h-0.79h-0.08l-0.02-0.08L46.82,1.05h-4.01v1.09h1.04h0.12l-0.03,0.12
				l-3.52,16.12l-0.02,0.08h-0.08H39.69z"/>
			<g id="Group-47" transform="translate(51.739130, 0.958899)">
				<path id="Fill-9" fill-rule="evenodd" clip-rule="evenodd" d="M4.62,16.16c0,0.63-0.26,0.97-0.74,0.97
					c-0.63,0-0.85-0.52-0.85-0.97V7.01c0-0.83,0.45-1,0.82-1c0.77,0,0.77,0.73,0.77,1V16.16z M7.52,5.75v-0.1h0.09h0.83V4.59H4.62
					v0.56v0.29L4.45,5.21C4.2,4.86,3.76,4.4,2.85,4.4C0.82,4.4,0.1,5.88,0.1,7.26v8.71c0,1.7,1.35,2.83,2.61,2.83
					c0.67,0,1.19-0.25,1.74-0.85l0.16-0.17v0.24v0.56h3.82v-1.07H7.61H7.52v-0.1V5.75z"/>
				<path id="Fill-11" fill-rule="evenodd" clip-rule="evenodd" d="M16.61,10.96V8.22c0-2.28-1.5-3.87-3.66-3.87
					c-2.21,0-3.82,1.63-3.82,3.87v6.9c0,2.2,1.53,3.73,3.71,3.73c2.18,0,3.77-1.57,3.77-3.73v-1.4h-2.96v3.21
					c0,0.34-0.39,0.71-0.75,0.71c-0.42,0-0.75-0.31-0.75-0.71V6.27c0-0.41,0.32-0.71,0.75-0.71c0.47,0,0.75,0.36,0.75,0.71v4.69
					H16.61z"/>
				<path id="Fill-13" fill-rule="evenodd" clip-rule="evenodd" d="M22.64,6.44v12.14h3.82v-1.07h-0.8h-0.09v-0.1V7.01
					c0-1.59-0.99-2.61-2.53-2.61c-0.73,0-1.5,0.27-1.85,0.65l-0.16,0.18V4.99V0.51h-3.73v1.07h0.77h0.09v0.1v15.74v0.1h-0.09h-0.77
					v1.07h4.57v-1.07h-0.74h-0.09v-0.1V6.44c0-0.4,0.39-0.78,0.8-0.78C22.28,5.66,22.64,6,22.64,6.44"/>
				<path id="Fill-15" fill-rule="evenodd" clip-rule="evenodd" d="M30.41,6.27c0-0.36,0.26-0.73,0.75-0.73
					c0.52,0,0.75,0.38,0.75,0.73v4.18h-1.5V6.27z M34.88,12.19V8.14c0-2.21-1.55-3.76-3.77-3.76c-2.22,0-3.71,1.51-3.71,3.76v6.98
					c0,2.18,1.53,3.7,3.71,3.7c2.22,0,3.77-1.52,3.77-3.7v-1.46h-2.96v3.24c0,0.41-0.32,0.71-0.75,0.71c-0.36,0-0.75-0.28-0.75-0.71
					v-4.7H34.88z"/>
				<path id="Fill-17" fill-rule="evenodd" clip-rule="evenodd" d="M41.05,6.44v12.14h3.82v-1.07h-0.8h-0.09v-0.1V7.01
					c0-1.59-0.99-2.61-2.53-2.61c-0.73,0-1.5,0.27-1.85,0.65l-0.16,0.18V4.99v-0.4h-3.73v1.07h0.77h0.09v0.1v11.66v0.1h-0.09h-0.77
					v1.07h4.57v-1.07h-0.74h-0.09v-0.1V6.44c0-0.4,0.39-0.78,0.8-0.78C40.68,5.66,41.05,6,41.05,6.44"/>
				<path id="Fill-19" fill-rule="evenodd" clip-rule="evenodd" d="M48.41,6.27c0-0.36,0.26-0.73,0.75-0.73
					c0.52,0,0.75,0.38,0.75,0.73v4.18h-1.5V6.27z M52.88,12.19V8.14c0-2.21-1.55-3.76-3.77-3.76c-2.22,0-3.71,1.51-3.71,3.76v6.98
					c0,2.18,1.53,3.7,3.71,3.7c2.22,0,3.77-1.52,3.77-3.7v-1.46h-2.96v3.24c0,0.41-0.32,0.71-0.75,0.71c-0.36,0-0.75-0.28-0.75-0.71
					v-4.7H52.88z"/>
				<path id="Fill-21" fill-rule="evenodd" clip-rule="evenodd" d="M59.14,7.7c0.79,0,1.6-0.62,1.6-1.65c0-1.07-0.61-1.73-1.6-1.73
					c-0.94,0-1.4,0.68-1.47,1.11l-0.09-0.01V4.54h-3.8V5.7h0.89v11.73h-0.89v1.19h4.75v-1.19h-0.87V6.4l0.09,0.32
					C57.93,7.34,58.44,7.7,59.14,7.7"/>
				<path id="Fill-23" fill-rule="evenodd" clip-rule="evenodd" d="M113.63,0.28c-0.88,0-1.79,0.61-1.79,1.62
					c0,0.96,0.95,1.62,1.79,1.62c0.85,0,1.77-0.62,1.77-1.62C115.39,1.11,114.77,0.28,113.63,0.28"/>
				<polygon id="Fill-25" fill-rule="evenodd" clip-rule="evenodd" points="71.73,18.59 75.84,18.59 75.84,17.41 74.98,17.41 
					74.98,1.27 75.84,1.27 75.84,0.09 72.57,0.09 72.57,1.27 73.43,1.27 73.43,13.75 69.04,0.09 64.77,0.09 64.77,1.27 65.63,1.27 
					65.63,17.41 64.77,17.41 64.77,18.59 68.09,18.59 68.09,17.41 67.18,17.41 67.18,5.06 				"/>
				<path id="Fill-27" fill-rule="evenodd" clip-rule="evenodd" d="M80.73,17.03c-0.59,0-0.8-0.5-0.8-0.92V6.96
					c0-0.63,0.26-0.95,0.78-0.95c0.64,0,0.72,0.51,0.72,0.95v9.15C81.42,16.7,81.18,17.03,80.73,17.03z M85.33,18.58v-1.16h-0.92
					V5.66h0.92V4.49h-3.91v0.76l-0.09-0.12c-0.26-0.36-0.7-0.83-1.64-0.83c-2.06,0-2.79,1.5-2.79,2.91v8.71
					c0,1.72,1.37,2.88,2.66,2.88c0.68,0,1.21-0.26,1.78-0.86l0.08-0.09v0.73H85.33z"/>
				<path id="Fill-29" fill-rule="evenodd" clip-rule="evenodd" d="M93.33,10.91V8.17c0-2.28-1.51-3.87-3.66-3.87
					c-2.21,0-3.82,1.63-3.82,3.87v6.9c0,2.2,1.53,3.73,3.71,3.73c2.18,0,3.77-1.57,3.77-3.73v-1.4h-2.96v3.21
					c0,0.34-0.39,0.71-0.75,0.71c-0.42,0-0.75-0.31-0.75-0.71V6.22c0-0.41,0.32-0.7,0.75-0.7c0.47,0,0.75,0.36,0.75,0.7v4.69H93.33z
					"/>
				<path id="Fill-31" fill-rule="evenodd" clip-rule="evenodd" d="M99.31,6.39v12.19h3.91v-1.16h-0.89V6.96
					c0-1.62-1.01-2.66-2.58-2.66c-0.74,0-1.53,0.28-1.89,0.67l-0.08,0.09V0.41h-3.83v1.16h0.87v15.84h-0.87v1.16h4.67v-1.16h-0.84
					V6.39c0-0.38,0.36-0.73,0.75-0.73C99.02,5.66,99.31,6.03,99.31,6.39"/>
				<path id="Fill-33" fill-rule="evenodd" clip-rule="evenodd" d="M109.34,7.65c0.79,0,1.6-0.62,1.6-1.65
					c0-1.07-0.61-1.73-1.6-1.73c-0.94,0-1.4,0.68-1.47,1.11l-0.09-0.01V4.49h-3.8v1.16h0.89v11.73h-0.89v1.19h4.75v-1.19h-0.87V6.36
					l0.09,0.32C108.13,7.29,108.65,7.65,109.34,7.65"/>
				<polygon id="Fill-35" fill-rule="evenodd" clip-rule="evenodd" points="111.37,4.49 111.37,5.52 112.24,5.52 112.24,17.42 
					111.37,17.42 111.37,18.58 116.04,18.58 116.04,17.42 115.2,17.42 115.2,4.49 				"/>
				<path id="Fill-37" fill-rule="evenodd" clip-rule="evenodd" d="M124.3,10.91V8.17c0-2.28-1.51-3.87-3.66-3.87
					c-2.21,0-3.82,1.63-3.82,3.87v6.9c0,2.2,1.53,3.73,3.71,3.73c2.18,0,3.77-1.57,3.77-3.73v-1.4h-2.96v3.21
					c0,0.34-0.39,0.71-0.75,0.71c-0.42,0-0.75-0.31-0.75-0.71V6.22c0-0.41,0.32-0.7,0.75-0.7c0.47,0,0.75,0.36,0.75,0.7v4.69H124.3z
					"/>
				<path id="Fill-39" fill-rule="evenodd" clip-rule="evenodd" d="M130.15,6.39v12.19h3.91v-1.16h-0.89V6.96
					c0-1.62-1.01-2.66-2.58-2.66c-0.74,0-1.53,0.28-1.89,0.67l-0.08,0.09V0.41h-3.83v1.16h0.87v15.84h-0.87v1.16h4.67v-1.16h-0.84
					V6.39c0-0.38,0.36-0.73,0.75-0.73C129.86,5.66,130.15,6.03,130.15,6.39"/>
				<path id="Fill-41" fill-rule="evenodd" clip-rule="evenodd" d="M134.95,4.52v1.14h0.89v11.79h-0.89v1.14H140v-1.14h-1.19V5.66
					H140V4.46h-1.24V1.4h-1.64C137.11,2.58,136.81,4.49,134.95,4.52"/>
				<path id="Fill-43" fill-rule="evenodd" clip-rule="evenodd" d="M143.58,6.22c0-0.36,0.26-0.73,0.75-0.73
					c0.52,0,0.75,0.38,0.75,0.73v4.18h-1.5V6.22z M148.04,12.15V8.09c0-2.21-1.55-3.76-3.77-3.76c-2.22,0-3.71,1.51-3.71,3.76v6.98
					c0,2.18,1.53,3.7,3.71,3.7c2.22,0,3.77-1.52,3.77-3.7v-1.46h-2.96v3.24c0,0.41-0.32,0.71-0.75,0.71c-0.36,0-0.75-0.28-0.75-0.71
					v-4.7H148.04z"/>
				<path id="Fill-45" fill-rule="evenodd" clip-rule="evenodd" d="M154.16,6.39v12.19h3.91v-1.16h-0.89V6.96
					c0-1.62-1.01-2.66-2.58-2.66c-0.74,0-1.53,0.28-1.89,0.67l-0.08,0.09V4.49h-3.83v1.16h0.87v11.76h-0.87v1.16h4.67v-1.16h-0.84
					V6.39c0-0.38,0.36-0.73,0.75-0.73C153.87,5.66,154.16,6.03,154.16,6.39"/>
			</g>
		</g>
	</g>
</g>
</svg>
