<?xml version="1.0" encoding="utf-8"?>
<!-- Generator: Adobe Illustrator 23.0.2, SVG Export Plug-In . SVG Version: 6.00 Build 0)  -->
<svg  preserveAspectRatio="xMinYMid meet" version="1.1" id="Ebene_1" xmlns="http://www.w3.org/2000/svg" xmlns:xlink="http://www.w3.org/1999/xlink" x="0px" y="0px"
	 viewBox="0 0 824.9 104.9" enable-background="new 0 0 824.9 104.9" xml:space="preserve">
<title>logo</title>
<rect fill="#F39200" width="824.9" height="104.9"/>
<path fill="#010202" d="M31.4,80.8c-6.9,0-12.2-1.1-15.8-3.3V25.6c4.67-2.28,9.81-3.41,15-3.3c17.9,0,23.3,13.7,23.3,29.4
	C53.9,66.9,48.6,80.8,31.4,80.8z M31.7,33.9c-0.34,0.03-0.68,0.09-1,0.2v34.4c0.39,0.12,0.79,0.18,1.2,0.2c4.6,0,6.6-3.7,6.6-17.4
	C38.5,38.5,37,33.9,31.7,33.9z"/>
<path fill="#010202" d="M78,80.8c-11.2,0-17.6-4.5-17.6-15.1V35.5h14.7v30.7c-0.16,1.6,1.01,3.03,2.62,3.19
	c0.16,0.02,0.32,0.02,0.48,0.01c0.86,0,1.71-0.17,2.5-0.5V35.4h14.7v42.1C90.9,79.8,84.6,80.8,78,80.8z"/>
<path fill="#010202" d="M143.4,79.9V48.7c0-2.3-1-3.6-3.5-3.6c-0.78-0.01-1.56,0.13-2.3,0.4v34.4h-14.4V48.7c0-2.3-1-3.6-3.5-3.6
	c-0.78-0.01-1.56,0.13-2.3,0.4v34.4H103V37.8c5-2.23,10.42-3.36,15.9-3.3c5.3,0,9.6,1.1,13.1,3.6c3.6-2.6,7.3-3.6,12.1-3.6
	c9,0,13.7,5.9,13.7,14.7v30.7H143.4z"/>
<path fill="#010202" d="M178.9,64.6c0.9,3.7,3.4,4.7,7.2,4.7c3.1-0.04,6.15-0.68,9-1.9l3.1,10c-4.52,2.3-9.53,3.43-14.6,3.3
	c-13.6,0-19.4-9.8-19.4-23.2c0-12.8,6.2-23,18.3-23c11.9,0,17.6,9,17.6,22.6c0,1.3-0.1,2.8-0.2,4.2L178.9,64.6z M185.7,53
	c0-5-0.9-8.3-3.6-8.3c-2.9,0-4.1,4.6-4.1,9.8v1l7.7-1.2L185.7,53L185.7,53z"/>
<path fill="#010202" d="M228.9,79.9l-7.8-23.1h-0.2v23.1h-14.7V15h14.7v40.5h0.2l8.3-20.2h14.4L234,55.5l10.7,24.4H228.9z"/>
<path fill="#010202" d="M248.1,79.9V15h14.7v64.9L248.1,79.9z"/>
<path fill="#010202" d="M283.9,64.6c0.9,3.7,3.4,4.7,7.2,4.7c3.1-0.04,6.15-0.68,9-1.9l3.1,10c-4.52,2.3-9.53,3.43-14.6,3.3
	c-13.5,0-19.4-9.8-19.4-23.2c0-12.8,6.2-23,18.3-23c11.9,0,17.6,9,17.6,22.6c0,1.3-0.1,2.8-0.2,4.2L283.9,64.6z M290.8,53
	c0-5-0.9-8.3-3.5-8.3c-2.9,0-4.1,4.6-4.1,9.8v1l7.7-1.2L290.8,53z"/>
<path fill="#010202" d="M351.6,79.9V48.7c0-2.3-1-3.6-3.5-3.6c-0.78-0.01-1.56,0.13-2.3,0.4v34.4h-14.4V48.7c0-2.3-1-3.6-3.5-3.6
	c-0.78-0.01-1.56,0.13-2.3,0.4v34.4h-14.4V37.8c5-2.23,10.42-3.36,15.9-3.3c5.3,0,9.6,1.1,13.1,3.6c3.6-2.6,7.3-3.6,12.1-3.6
	c9,0,13.7,5.9,13.7,14.7v30.7H351.6z"/>
<path fill="#010202" d="M413.9,79.9V48.7c0-2.3-1-3.6-3.5-3.6c-0.78-0.01-1.56,0.13-2.3,0.4v34.4h-14.4V48.7c0-2.3-1-3.6-3.5-3.6
	c-0.78-0.01-1.56,0.13-2.3,0.4v34.4h-14.4V37.8c5-2.23,10.42-3.36,15.9-3.3c5.3,0,9.6,1.1,13.1,3.6c3.6-2.6,7.3-3.6,12.1-3.6
	c9,0,13.7,5.9,13.7,14.7v30.7H413.9z"/>
<path fill="#010202" d="M449.4,64.6c0.9,3.7,3.4,4.7,7.2,4.7c3.1-0.04,6.15-0.68,9-1.9l3.1,10c-4.52,2.3-9.53,3.43-14.6,3.3
	c-13.5,0-19.4-9.8-19.4-23.2c0-12.8,6.2-23,18.3-23c11.9,0,17.6,9,17.6,22.6c0,1.3-0.1,2.8-0.2,4.2L449.4,64.6z M456.2,53
	c0-5-0.9-8.3-3.5-8.3c-2.9,0-4.1,4.6-4.1,9.8v1l7.7-1.2L456.2,53z"/>
<path fill="#010202" d="M497.5,45.8c-1.17-0.48-2.43-0.72-3.7-0.7c-0.78,0.03-1.56,0.16-2.3,0.4v34.4h-14.7V37.8
	c5.54-2.32,11.5-3.44,17.5-3.3c1.87,0,3.74,0.1,5.6,0.3L497.5,45.8z"/>
<path fill="#010202" d="M544.3,79.9l-3.1-13c-0.8-3.5-2.5-8.1-5-10.3v23.3H521V25.5c5.18-2.33,10.82-3.46,16.5-3.3
	c12.7,0,20.7,5.7,20.7,17.5c0,6.4-2.8,10.9-8.1,14.3v0.2c3.1,2.7,5.2,7.2,6.5,11.3l4.7,14.4H544.3z M537.9,32.7
	c-0.57,0.01-1.14,0.08-1.7,0.2v15.9c0.55,0.18,1.13,0.24,1.7,0.2c3.4,0,5.3-3.6,5.3-8.5S541.7,32.7,537.9,32.7z"/>
<path fill="#010202" d="M581.9,80.8c-11.4,0-17.8-4.9-17.8-14.6c0-10.1,6.7-14.5,20.2-16.3v-0.8c0-2.5-1.7-3.8-5-3.8
	c-3.48,0-6.91,0.71-10.1,2.1l-3-9.4c4.85-2.16,10.09-3.28,15.4-3.3c11.7,0,16.8,5.7,16.8,17.4v25.5
	C594.5,79.6,589.4,80.8,581.9,80.8z M584.2,58.2c-4.5,0.6-6.4,2.7-6.4,7.3c0,3.4,1.5,5.4,4.5,5.4c0.64-0.01,1.27-0.08,1.9-0.2V58.2z
	"/>
<path fill="#010202" d="M620.4,80.8c-8.6,0-13-5.9-13-14.3V46.8h-3.9V35.4h3.9v-9l14.6-4.3v13.3h5.1v11.4H622v19.7
	c-0.04,1.51,1.15,2.76,2.66,2.8c0.05,0,0.09,0,0.14,0c0.79,0.01,1.58-0.16,2.3-0.5v10.4C625.05,80.31,622.74,80.86,620.4,80.8z"/>
<path fill="#010202" d="M640.4,29.6c-4.2,0-7.6-3.4-7.6-7.6s3.4-7.6,7.6-7.6c4.2,0,7.6,3.4,7.6,7.6c0,0,0,0,0,0
	C648,26.2,644.6,29.6,640.4,29.6z M633.1,79.9V35.4h14.7v44.5H633.1z"/>
<path fill="#010202" d="M675.9,79.9V48.7c0-2.3-1-3.6-3.5-3.6c-0.78-0.01-1.56,0.13-2.3,0.4v34.4h-14.7V37.8
	c5.35-2.23,11.1-3.36,16.9-3.3c12.9,0,18.3,5.1,18.3,14.7v30.7H675.9z"/>
<path fill="#010202" d="M714.2,98.5c-5.37,0.14-10.69-1.02-15.5-3.4l3.4-10.8c2.9,1.54,6.12,2.36,9.4,2.4c4.3,0,6.3-1.7,6.3-5.8
	v-1.2c-1.48,0.52-3.03,0.79-4.6,0.8c-11.7,0-16.3-10.2-16.3-22.4c0-14.4,6.5-23.6,20.7-23.6c5.16-0.12,10.27,1.01,14.9,3.3v42.4
	C732.4,91.5,726.1,98.5,714.2,98.5z M717.8,44.9c-0.41-0.16-0.86-0.22-1.3-0.2c-3.5,0-5,4.4-5,13c0,8.1,1.4,12.4,4.9,12.4
	c0.48,0.03,0.95-0.04,1.4-0.2L717.8,44.9L717.8,44.9z"/>
<path fill="#010202" d="M753.5,64.6c0.9,3.7,3.4,4.7,7.2,4.7c3.1-0.04,6.15-0.68,9-1.9l3.1,10c-4.52,2.3-9.53,3.43-14.6,3.3
	c-13.5,0-19.4-9.8-19.4-23.2c0-12.8,6.2-23,18.3-23c11.9,0,17.6,9,17.6,22.6c0,1.3-0.1,2.8-0.2,4.2L753.5,64.6z M760.4,53
	c0-5-0.9-8.3-3.5-8.3c-2.9,0-4.1,4.6-4.1,9.8v1l7.7-1.2L760.4,53L760.4,53z"/>
<path fill="#010202" d="M801.3,79.9V48.7c0-2.3-1-3.6-3.5-3.6c-0.78-0.01-1.56,0.13-2.3,0.4v34.4h-14.7V37.8
	c5.35-2.23,11.1-3.36,16.9-3.3c12.9,0,18.3,5.1,18.3,14.7v30.7H801.3z"/>
<path fill="#FFFFFF" d="M27.9,78.1c-6.9,0-12.2-1.1-15.8-3.3V22.9c4.67-2.28,9.81-3.41,15-3.3c17.8,0,23.3,13.7,23.3,29.4
	C50.4,64.3,45.1,78.1,27.9,78.1z M28.2,31.3c-0.34,0.03-0.68,0.09-1,0.2v34.4c0.39,0.12,0.79,0.18,1.2,0.2c4.6,0,6.6-3.7,6.6-17.4
	C35,35.9,33.5,31.3,28.2,31.3z"/>
<path fill="#FFFFFF" d="M74.5,78.1c-11.2,0-17.6-4.5-17.6-15.1V32.8h14.7v30.7c-0.16,1.6,1.01,3.03,2.62,3.19
	c0.16,0.02,0.32,0.02,0.48,0.01c0.86,0,1.71-0.17,2.5-0.5V32.7H92v42.1C87.4,77.2,81.1,78.1,74.5,78.1z"/>
<path fill="#FFFFFF" d="M139.9,77.3V46.1c0-2.3-1-3.6-3.5-3.6c-0.78-0.01-1.56,0.13-2.3,0.4v34.4h-14.4V46.1c0-2.3-1-3.6-3.5-3.6
	c-0.78-0.01-1.56,0.13-2.3,0.4v34.4H99.5V35.2c5-2.23,10.42-3.36,15.9-3.3c5.3,0,9.6,1.1,13.1,3.6c3.6-2.6,7.3-3.6,12.1-3.6
	c9,0,13.7,5.9,13.7,14.7v30.7L139.9,77.3z"/>
<path fill="#FFFFFF" d="M175.4,62c0.9,3.7,3.4,4.7,7.2,4.7c3.1-0.04,6.15-0.68,9-1.9l3.1,10c-4.52,2.3-9.53,3.43-14.6,3.3
	c-13.6,0-19.4-9.8-19.4-23.2c0-12.8,6.2-23,18.3-23c11.9,0,17.6,9,17.6,22.6c0,1.3-0.1,2.8-0.2,4.2L175.4,62z M182.2,50.4
	c0-5-0.9-8.3-3.6-8.3c-2.9,0-4.1,4.6-4.1,9.8v1l7.7-1.2L182.2,50.4L182.2,50.4z"/>
<path fill="#FFFFFF" d="M225.4,77.3l-7.8-23.1h-0.2v23.1h-14.7V12.4h14.7v40.5h0.2l8.3-20.2h14.4l-9.8,20.2l10.7,24.4L225.4,77.3z"
	/>
<path fill="#FFFFFF" d="M244.6,77.3V12.4h14.7v64.9H244.6z"/>
<path fill="#FFFFFF" d="M280.4,62c0.9,3.7,3.4,4.7,7.2,4.7c3.1-0.04,6.15-0.68,9-1.9l3.1,10c-4.52,2.3-9.53,3.43-14.6,3.3
	c-13.5,0-19.4-9.8-19.4-23.2c0-12.8,6.2-23,18.3-23c11.9,0,17.6,9,17.6,22.6c0,1.3-0.1,2.8-0.2,4.2L280.4,62z M287.3,50.4
	c0-5-0.9-8.3-3.5-8.3c-2.9,0-4.1,4.6-4.1,9.8v1l7.7-1.2L287.3,50.4z"/>
<path fill="#FFFFFF" d="M348.1,77.3V46.1c0-2.3-1-3.6-3.5-3.6c-0.78-0.01-1.56,0.13-2.3,0.4v34.4h-14.4V46.1c0-2.3-1-3.6-3.5-3.6
	c-0.78-0.01-1.56,0.13-2.3,0.4v34.4h-14.4V35.2c5-2.23,10.42-3.36,15.9-3.3c5.3,0,9.6,1.1,13.1,3.6c3.6-2.6,7.3-3.6,12.1-3.6
	c9,0,13.7,5.9,13.7,14.7v30.7L348.1,77.3z"/>
<path fill="#FFFFFF" d="M410.4,77.3V46.1c0-2.3-1-3.6-3.5-3.6c-0.78-0.01-1.56,0.13-2.3,0.4v34.4h-14.4V46.1c0-2.3-1-3.6-3.5-3.6
	c-0.78-0.01-1.56,0.13-2.3,0.4v34.4H370V35.2c5-2.23,10.42-3.36,15.9-3.3c5.3,0,9.6,1.1,13.1,3.6c3.6-2.6,7.3-3.6,12.1-3.6
	c9,0,13.7,5.9,13.7,14.7v30.7L410.4,77.3z"/>
<path fill="#FFFFFF" d="M445.9,62c0.9,3.7,3.4,4.7,7.2,4.7c3.1-0.04,6.15-0.68,9-1.9l3.1,10c-4.52,2.3-9.53,3.43-14.6,3.3
	c-13.5,0-19.4-9.8-19.4-23.2c0-12.8,6.2-23,18.3-23c11.9,0,17.6,9,17.6,22.6c0,1.3-0.1,2.8-0.2,4.2L445.9,62z M452.7,50.4
	c0-5-0.9-8.3-3.5-8.3c-2.9,0-4.1,4.6-4.1,9.8v1l7.7-1.2L452.7,50.4z"/>
<path fill="#FFFFFF" d="M494,43.2c-1.17-0.48-2.43-0.72-3.7-0.7c-0.78,0.03-1.56,0.16-2.3,0.4v34.4h-14.7V35.2
	c5.54-2.32,11.5-3.44,17.5-3.3c1.87,0,3.74,0.1,5.6,0.3L494,43.2z"/>
<path fill="#FFFFFF" d="M540.8,77.3l-3.1-13c-0.8-3.5-2.5-8.1-5-10.3v23.3h-15.2V22.9c5.18-2.33,10.82-3.46,16.5-3.3
	c12.7,0,20.7,5.7,20.7,17.5c0,6.4-2.8,10.9-8.1,14.3v0.2c3.1,2.7,5.2,7.2,6.5,11.3l4.7,14.4L540.8,77.3z M534.4,30.1
	c-0.57,0.01-1.14,0.08-1.7,0.2v15.9c0.55,0.18,1.13,0.24,1.7,0.2c3.4,0,5.3-3.6,5.3-8.5S538.2,30.1,534.4,30.1L534.4,30.1z"/>
<path fill="#FFFFFF" d="M578.4,78.1c-11.4,0-17.8-4.9-17.8-14.6c0-10.1,6.7-14.5,20.2-16.3v-0.8c0-2.5-1.7-3.8-5-3.8
	c-3.48,0-6.91,0.71-10.1,2.1l-3-9.4c4.85-2.16,10.09-3.28,15.4-3.3c11.7,0,16.8,5.7,16.8,17.4v25.5C591,77,585.9,78.1,578.4,78.1z
	 M580.7,55.6c-4.5,0.6-6.4,2.7-6.4,7.3c0,3.4,1.5,5.4,4.5,5.4c0.64-0.01,1.27-0.08,1.9-0.2V55.6z"/>
<path fill="#FFFFFF" d="M616.9,78.1c-8.6,0-13-5.9-13-14.3V44.1H600V32.7h3.9v-9l14.6-4.3v13.3h5.1v11.4h-5.1v19.7
	c-0.04,1.51,1.15,2.76,2.66,2.8c0.05,0,0.09,0,0.14,0c0.79,0.01,1.58-0.16,2.3-0.5v10.4C621.55,77.61,619.24,78.16,616.9,78.1z"/>
<path fill="#FFFFFF" d="M636.9,27c-4.2,0-7.6-3.4-7.6-7.6s3.4-7.6,7.6-7.6c4.2,0,7.6,3.4,7.6,7.6c0,0,0,0,0,0
	C644.5,23.6,641.1,27,636.9,27z M629.6,77.3V32.8h14.7v44.5H629.6z"/>
<path fill="#FFFFFF" d="M672.4,77.3V46.1c0-2.3-1-3.6-3.5-3.6c-0.78-0.01-1.56,0.13-2.3,0.4v34.4h-14.7V35.2
	c5.35-2.23,11.1-3.36,16.9-3.3c12.9,0,18.3,5.1,18.3,14.7v30.7L672.4,77.3z"/>
<path fill="#FFFFFF" d="M710.8,95.9c-5.37,0.14-10.69-1.02-15.5-3.4l3.4-10.8c2.9,1.54,6.12,2.36,9.4,2.4c4.3,0,6.3-1.7,6.3-5.8
	v-1.2c-1.48,0.52-3.03,0.79-4.6,0.8c-11.7,0-16.3-10.2-16.3-22.4c0-14.4,6.5-23.6,20.7-23.6c5.16-0.12,10.27,1.01,14.9,3.3v42.5
	C728.9,88.9,722.7,95.9,710.8,95.9z M714.3,42.3c-0.41-0.16-0.86-0.22-1.3-0.2c-3.5,0-5,4.4-5,13c0,8.1,1.4,12.4,4.9,12.4
	c0.48,0.03,0.95-0.04,1.4-0.2L714.3,42.3L714.3,42.3z"/>
<path fill="#FFFFFF" d="M750,62c0.9,3.7,3.4,4.7,7.2,4.7c3.1-0.04,6.15-0.68,9-1.9l3.1,10c-4.52,2.3-9.53,3.43-14.6,3.3
	c-13.5,0-19.4-9.8-19.4-23.2c0-12.8,6.2-23,18.3-23c11.9,0,17.6,9,17.6,22.6c0,1.3-0.1,2.8-0.2,4.2L750,62z M756.9,50.4
	c0-5-0.9-8.3-3.5-8.3c-2.9,0-4.1,4.6-4.1,9.8v1l7.7-1.2L756.9,50.4z"/>
<path fill="#FFFFFF" d="M797.9,77.3V46.1c0-2.3-1-3.6-3.5-3.6c-0.78-0.01-1.56,0.13-2.3,0.4v34.4h-14.7V35.2
	c5.35-2.23,11.1-3.36,16.9-3.3c12.9,0,18.3,5.1,18.3,14.7v30.7L797.9,77.3z"/>
</svg>
