<svg version="1.1" xmlns="http://www.w3.org/2000/svg" viewBox="0 0 27 32"><path fill="#00f" d="M13.47 31.43C6.45 31.43.74 25.97.74 19.25V1.21H26.2v18.04c0 6.72-5.71 12.18-12.73 12.18zM.8 1.28v17.97c0 6.67 5.68 12.1 12.66 12.1s12.65-5.42 12.65-12.1V1.28H.82z"/><path fill="#000" d="M.1 1.23v19.13C.77 25.7 5.25 30.86 11 31.8c4.7.86 9.86-.96 12.8-4.57a12.93 12.93 0 0 0 3-9.23V1.25L25.8 0H1.15L.1 1.23z"/><path fill="red" d="M.78 3.77h25.38v2.28H.77V3.77z"/><path fill="#ff0" d="M.78 1.24h25.38v2.28H.77V1.24zm0 5.06h25.38v2.3H.77V6.3z"/><path fill="red" d="M.78 8.83h25.38v2.29H.77V8.83z"/><path fill="#ff0" d="M.78 11.36h25.38v2.29H.77v-2.29z"/><path fill="red" d="M.78 13.9h25.38v2.28H.77v-2.29z"/><path fill="#ff0" d="M.78 16.43h25.38v2.28H.77v-2.28z"/><path fill="red" d="M.78 18.96v.3c0 .67.05 1.33.17 1.98h25.04c.11-.64.17-1.31.17-1.99v-.3H.77z"/><path fill="#ff0" d="M1 21.49c.14.79.38 1.55.68 2.28h23.57c.31-.73.54-1.5.7-2.28H.99z"/><path fill="red" d="M1.8 24.02c.35.8.8 1.57 1.33 2.28H23.8c.53-.71.98-1.47 1.34-2.28H1.79z"/><path fill="#ff0" d="M3.33 26.55c.67.85 1.46 1.62 2.34 2.28h15.6c.87-.66 1.67-1.42 2.34-2.28H3.33z"/><path fill="red" d="M6.02 29.08a12.97 12.97 0 0 0 6.57 2.28h1.76a13 13 0 0 0 6.58-2.28H6.02z"/><path fill="#000" d="M12.77 2.4a.3.3 0 0 0-.33.26.3.3 0 0 1-.24.22c-.24.05-.23.34-.31.43-.12.13-.28.05-.4.05-.25.02-.59.1-.76.27-.19.17-.34.4-.38.57-.06.36-.03.44.11.67.15.26.5.5.61.2.13-.29.32-.55.5-.4.07.08.12.33.35.25.16-.06.28-.07.45 0s.43.37.47.48c-.1-.03-.2-.07-.37-.1-.2-.02-.52 0-.94.12-.52.15-.63.17-1.04.07-.3-.08-.6-.54-.64-.7-.1-.47-.34-.24-.34.01 0 .39.27.83.5 1.01.29.26 1 .37 1.43.23.3-.14.63-.3.97-.31.14 0 .35.05.41.08.27.19.03.23-.4.17-.1-.01-.12.02-.25-.07a.52.52 0 0 0-.16.12c-.07.1.02.23.1.31l.2.22c.13.11.38.22.48.26.33.08.38.06.22.48-.2.5-.6.96-.88.7-.09-.07-.18-.06-.2-.04-.03.54.52.63.67.64.03 0 .01.32-.04.7-.05.36-.44.77-.87.6-.14-.05-.25-.14-.32-.07 0 .26.37.57.6.63.05.34-.32.56-.56.63-.55.16-.84 0-1.05-.33-.22-.39-.71-.57-1.09-.36-.67.37-1.2-.01-1.28-.58-.03-.22.22-.7.22-.85a.71.71 0 0 0-.19-.43c-.26-.29-.22-.14-.25-.68-.02-.56.28-.57.6-.73.2-.1.67-.16.7-.89.02-.74-.43-.98-1.02-1.02a9.27 9.27 0 0 1-2.07-.74c-.5-.2-.9-.52-1.32-.82l-.58-.5c-.32-.27-.57-.57-.64-.61-.25-.19-.54.15-.5.7.02.28.06.61.21.87a6.36 6.36 0 0 0 1.76 1.7c.17.12 1.3.7 1.27.73-1.12-.15-2.45-.93-3.05-1.31s-.69-.7-.89-.59c-.18.1.6.83.98 1.11.63.5 1.31.84 2.08 1.03l.6.18c-.14.07-.42.22-1.13.18-.69-.04-2.4-1.03-2.57-1.19-.28-.24-.66-.16-.66.06s.06.53.14.79c.37.67.77.89 1.9 1.47.34.18.92.38.92.41s-.45.09-.73.05a5 5 0 0 1-1.68-.61c-.4-.24-.5-.08-.1.16.38.2.38.24.58.32s.78.39 1.34.5c1.22.22 1.41.27 1.16.34-.76.17-2.65-.34-3.04-.46-.43-.17-.85.03-.79.44.06.26.24.47.55.65.4.23 1.54.73 2.04.9.24.07 1.3.37 1.3.4 0 .1-.35.18-.9.32a9.3 9.3 0 0 1-1.44.17c-.69.03-1.1-.14-1.1.05 0 .13 1.09.38 2.64.1l.75-.13c.72-.17.12.11-.38.47-.7.51-1.69.92-2.65 1.2-.47.14-.7.25-.73.28s-.14.16.02.3c.27.26.95.57 1.43.57.4 0 1.2-.18 1.92-.52.38-.21.9-.61 1.08-.6a15.67 15.67 0 0 1-3.8 2.94c-.03.06-.03.16.09.17.64-.15 1.23-.6 1.76-.96.38-.24 1-.69 1.37-.98.37-.26.7-.66.87-.75s-.63 1.06-1.12 1.74c0 0-1.94 2.33-2.4 2.72-.18.16-.75.54-.83.64-.28.36-.25.47.11.77.31.27 1.38-.06 2.07-.55.62-.51 1.06-.9 1.33-1.22.4-.46.73-.96 1.13-1.44.32-.32 1.2-1.73 1.29-1.83.02.04-.87 1.6-.95 1.77-.2.4-1.27 2.03-1.4 2.12.05.18.12.13.28-.01-.02-.03.3-.31.65-.8.35-.47.82-1.12 1.15-1.74.09-.2.55-.95.65-1.02-.05.2-.37 1.04-.37 1.04.05.05-1.2 2.24-1.39 2.44-.04.04-.2.32-.24.38l-.24.4c-.17.27-.19.33-.12.47.03.09.15.17.24.2.26.08.95-.2 1.45-.73.44-.36.76-1 1.08-1.53s.71-1.61 1.26-2.51c.15-.02-.1 1.56-.3 1.96-.16.35-.46.87-.34.9.14.04.5-.5.73-1.2.15-.46.3-1.49.38-1.49.03 0 .03.25.03.41 0 .16.11.82.41.7.31-.12.41-.44.54-.9.13-.24.17-.66.25-.83.24-.1.43 1.48.43 1.8.03.29-.4.88-1.04 1.47-.3.27-.57.5-.62.53l-.61.36c-.14.05-.64.33-1.09.43-.22.05-.56-.04-.62.04-.08.09.03.43.25.63.08.08.18.14.17.21-.02.1-.26.2-.71.54l-.52.42-.48.34c-.13.08-.14.04-.32.04-.25-.01-.32-.08-.68-.18s-.8-.32-1.1-.57c-.78-.51-1.12-.46-1.62.06 0-.01-.16.34-.15.51s.09.31.09.31c.15.17.33.26.4.29.15.07.45-.05.3-.28-.15-.23.01-.4.17-.42.14-.01.01.2.07.29.06.08.18.1.32.1.5 0 .73.08 1.05.5.05.08-.68.63-1.3.9-.33.13-.6.3-.77.47a.96.96 0 0 0-.25.58c-.01.25.18.58.46.68.17.07.42.03.5 0 .09-.03.1-.18-.02-.35-.06-.2 0-.22.06-.33s.31-.02.33.04c0 .03.15.05.21-.02.09-.09.01-.14.03-.19l.2-.36c.08-.09.56-.35.61-.3.05.04-.05.16-.15.37-.06.13-.24.48-.49.92-.32.59-.36.93-.13 1.3.12.19.42.36.49.37.32.04.63-.08.53-.44-.42.08-.4-.49-.02-.43.1.02.27.1.15-.33-.06-.2 0-.33.13-.63.13-.37.37-.84.5-1.09s.12-.32.16-.36c.05-.04.33-.1.71-.1.49-.02.77.04 1.03.44.1.17.26.16.37.1.18-.1.2-.28.29-.29.12 0 .27.15.17.27-.02.21-.1.32.11.3 0-.01.23-.12.33-.24.24-.3.3-.66.07-.95-.16-.2-.54-.34-.75-.28a.86.86 0 0 1-.62-.03c-.1-.04-.48-.05-.47-.08 0-.02 1.2-.59 1.43-.71.13-.08.27-.05.36.07.12.23.41.7.63.57.04-.02-.05-.4.02-.51.29-1.13 1.2-1.93 2.14-2.55.17.05.48.74.52 1.21s-.06.88-.36 1.13c-.56.42-.92-.08-1.01-.16-.2.13-.14.55-.07.77.07.23.42.7 1 .73.18-.01.26-.06.37-.09-.03.4-.03.85-.25 1.2-.34.43-.92.85-1.5.63-.4-.24-.32-.6-.18-.97-.28-.04-.67.26-.75.55-.1.34-.14.54.06 1.04-.6-.26-1.05-1-1.83-.96-.85-.05-1.76.73-1.74 1.77 0 .2-.01.38.02.4.05.18.14.34.26.47.24.2.87.26.57 0-.11-.09-.1-.4-.1-.58.1-.33.33-.57.67-.6.36 0 .7.18.94.58-.17.06-.54.42-.7.74a1.32 1.32 0 0 0 .18 1.54c.25.36 1.17.64 1.38.14-.49.02-.71-.53-.7-.92.09-.77 1.01-.87 1.68-.8.5.09.99.02 1.28-.18s.6-.84.8-1.15c.28.42.36.94.29 1.5-.1.63-1 1.27-1.38.47-.65 1.1.27 1.95 1.42.96-.11.46-.23.62-.18 1.03s.48 1.06.74 1.06c.28 0 .6-.62.7-1.04s-.03-.7-.16-1.09c.86.75 2.09.02 1.35-1.02-.47.76-1.28.33-1.44-.4 0-.47.05-1.08.33-1.47.25.43.43.94.94 1.16.64.16 1.11-.13 1.67.11.52.3.48.6.46.97-.01.24-.24.44-.6.55.48.47 1.04.24 1.42-.21.32-.46.28-.42.32-.82.03-.45-.46-.98-.6-1.17.13-.14.44-.34.76-.34.78-.05.9.83.55 1.38.81-.15 1.16-.8 1.06-1.54-.13-.8-.64-1.34-1.4-1.39a1.4 1.4 0 0 0-1.13.38c-.2.17-.4.3-.61.37.23-.48.18-1.05-.25-1.39-.26-.25-.64-.3-.75-.27.02.1.3.26.28.55-.07.35-.44.61-.82.63a1.1 1.1 0 0 1-.96-.53c-.33-.4-.29-.86-.28-1.33.25.05.82.18 1.18-.5.04-.14.22-.7.1-.9-.23.11-.44.48-.87.1-.3-.25-.37-.82-.37-1.08s.07-.85.42-1.2c1.2.77 1.69 1.92 1.7 2.55-.06.42.2.39.55.03.23-.25.3-.25.54-.22.15.01.27.15.62.3 1.04.46 1.1.6 0 .58-.89-.01-1.21.14-1.21.6 0 .47.4.67.6.3.05-.1.15-.2.2-.21.13-.05.26.01.3.18.04.12.12.18.23.18.08 0 .15-.03.17-.07.1-.17 1-.3 1.6-.32.05.01.16.1.22.2s.46.92.52 1.46c.01.1-.08.3-.16.42-.2.28-.08.48.16.41.2.05.43.26.19.5-.51.23.1.45.54.33.09-.07.37-.23.41-.35.12-.33.17-.55-.03-.91-.19-.51-.65-1.39-.58-1.66.31.15.61.34.74.63.04.08.03.4.05.44.03.14.18.18.3.08.25-.2.55.04.39.3-.07.1-.17.22-.14.28.13-.01.28.18.41.18.48.01.68-.42.67-.9 0-.21-.24-.47-.36-.56l-.42-.27a5.8 5.8 0 0 1-.69-.53c-.22-.17-.43-.31-.61-.5.06 0 .25-.04.45-.08.56-.1.6-.24.75-.41.13-.14.18-.2.32-.2.24 0 .29.26.2.48-.11.22.14.2.37.08.27-.13.38-.3.4-.6s-.14-.53-.33-.68c-.25-.2-.46-.19-.72-.16-.18.03-.36.1-.44.15l-.62.38c0 .04-.15.14-.37.22-.51.17-.77.18-1.08.13-.5-.07-.8-.37-1.16-.6-.36-.22-.7-.54-1.04-.81.32-.22.63-.56.39-.63a4.56 4.56 0 0 1-2.33-1.33 3.15 3.15 0 0 1-.74-1.57c-.15-.5-.06-.86.12-1.35.25-.49.22.14.42.64.25.72.7 1.6 1.12 2.26 0 0 .21.25.34.19l-.92-2.04a5.76 5.76 0 0 1-.36-1.29c-.05-.4 0-.37.29.01.25.39.66 1.22.87 1.64l.55 1.01c.15.26.76 1.17.95 1.43.41.55 1.02 1.06 1.35 1.13.5.1.6-.3.25-1.1-.25-.61-1.23-1.87-1.41-2.95-.07-.4-.24-.97-.17-1.02.06-.03.42.79.64 1.23.07.14.3.6.61 1.06.4.49.7 1.08 1.1 1.55.35.46.56.32.4.1a29.8 29.8 0 0 1-1.65-2.79c-.06-.15-.62-1.2-.64-1.27 0-.03-.12-.22-.1-.3.05.02 1.1 1.44 1.47 1.94.22.3.6.81.84 1.1s.8.88.92 1.01c.21.24.87.8 1.31.96.32.1.57.19.91.19.48 0 .56-.04.64-.15.14-.2.11-.34-.3-.72-.53-.5-1.2-1.24-1.6-1.68s-.38-.41-1.01-1.2c-.57-.73-.95-1.17-1.42-1.83.07-.03.53.54 1.75 1.42.68.43 2.15 1.35 2.36 1.12.09-.16-.82-.46-1.73-1.13s-2.08-1.75-2.06-1.84c.03.03 1.2.73 1.93.89.7.15 1.32.13 1.75-.07s.42-.44.42-.55c0-.1-.11-.15-.3-.24a8.05 8.05 0 0 1-2.37-.95c-.24-.14-1.75-1.1-1.26-.99.84.26 1.68.5 2.55.5.55 0 1.07-.08 1.05-.16-.02-.09-.53-.12-.96-.17-1.15-.13-2.87-.58-2.85-.69.02-.05.29 0 .94-.04s1.97-.31 2.81-.97c.5-.48.7-.93.46-1.14-.27-.25-.22-.17-.85.05a6.3 6.3 0 0 1-2.3.44c-.4 0-.53.01-.96-.16.64-.08 2.07-.54 2.78-.85.31-.14.85-.5.8-.57-.1-.1-3.08 1.04-3.82.88 0-.07 1.34-.53 1.7-.63.45-.12 2.1-1.14 2.28-1.61.19-.48.17-.83.06-.97-.3-.37-.54.06-.82.2-.75.35-2.14 1.24-3.13.93a11.4 11.4 0 0 0 2.53-1.52c.57-.47 1-.88.88-.98-.2-.1-.87.53-1.4.9-.51.35-.73.63-2.23 1.13-.18 0-.07-.07.4-.36.58-.25 2.3-1.63 2.72-2.85.14-.4.05-1.1-.07-1.1-.33-.33-.75.36-1 .57a17 17 0 0 1-2.48 1.74 4.7 4.7 0 0 1-1.25.48c-.5.1-.8.24-.96.46-.28.55-.2 1.46.27 1.49.49.03.55.9.23 1.18 0-.02-.66.5-.74.66-.05.13-.21.3-.2.52s.19.53.17.83c-.01.29-.2.57-.44.55a.74.74 0 0 1-.39-.17c-.37-.27-.56-.2-1 .03-.41.23-.56.22-.73.13-.18-.1-.26-.35-.27-.6-.01-.32.01-.24.18-.28.25-.06.57-.21.68-.44.22-.42.13-.52-.14-.32-.19.13-.53.03-.62-.2-.08-.35.06-.58.1-.85-.03-.4-.01-.5.19-.47.28.05.87-.53.72-.7-.02-.02-.23.09-.33.09-.31 0-.44-.16-.43-.5l.13-.4.07-.32c0-.22 0-.28.18-.26.14.02.5-.1.54-.38.02-.06-.02-.1-.17-.1-.42 0-.35-.2-.26-.9-.16-.6-.1-.6.25-.82.13-.1.88-1.1.42-.97a2.8 2.8 0 0 1-1.04.38c-.5.03-.6.07-.34-.2.2-.24.04-.57-.17-.27-.15.22-1.3.12-2.03-.03a5.5 5.5 0 0 0-.78-.15z"/><path fill="#fff" d="M13.53 3.33c.08 0 .1-.01.1.12-.19.22.33.74.62.12l.2.11c-.17.35-.56.45-.8.32-.23-.13-.3-.5-.12-.67z"/><path fill="red" d="M12.34 3.1c.28 0 .55.46.69 1.28.04.26 0 .43.07.6.08.17.17.37.29.5.23.25.2.8.2.97 0 .16-.05.2-.36.17-.1.04-.55-.09-.67-.17-.2-.15-.36-.22.18-.19.3.01.53-.04.62-.15.08-.12 0-.25-.05-.54-.1-.48-.9-1.11-1.41-.99-.3-.37-.69-.33-.95-.02-.2.23-.16.26-.28.05-.1-.19-.09-.4.08-.63.18-.24.3-.27.77-.35.35-.06.48 0 .56-.14.1-.19.15-.38.26-.38zm5.64 17.49c.64.45 1.52 1.1 2.35 1.5.15.05.43.07.65.05a4.33 4.33 0 0 0 1.5-.47c.16-.2.61-.46.86-.46.32 0 .53.19.53.5 0 .16.03.22-.02.27-.2.26-.19-.11-.2-.15-.1-.2-.29-.27-.45-.26s-.2.04-.36.22c-.2.25-.27.3-.77.43-.34.08-.52.09-.66.1-.38.02-.38.35-.01.28.13.15.62.43.8.61.18.18.46.49.68.56s.49.33.53.41c.14.25.13.53 0 .65-.22.2-.35.17-.25-.1.09-.26-.19-.6-.54-.58-.13 0-.2.17-.24-.09-.02-.1-.12-.31-.16-.37-.06-.1-.17-.16-.22-.21-.18-.2-.9-.59-1.02-.52-.09.1.02.2.15.59l.41 1.26c.36.55.34.83.17 1.09-.14.15-.33.2-.4.17.09-.26.11-.54-.13-.75-.37-.08-.23-.18-.13-.5.12-.34-.32-1.2-.47-1.7-.2-.15-.42-.55-.95-.9s-1.23-.65-2.25-1.29c-.04-.03-.07-.26-.07-.36l.67.02zM8.6 20.5c.18.04.38.04.53.14.03.07-.02.28-.05.32-.1.14-.2.11-1.23.69l-1.12.62c-.03.03 0 .17.07.17s.83 0 1.01.07c.18.07.4.1.63.08.47-.05.76.07.76.37 0 .13-.07.3-.1.3-.04 0-.08-.18-.17-.25a.67.67 0 0 0-.34-.09c-.06 0-.2.02-.25.1-.07.11-.05.25-.11.2l-.29-.23c-.32-.23-.77-.31-1.33-.26 0 0-.4.01-.47.06-.08.05-.21.33-.21.33-.29.48-.86 1.68-.8 1.87l.08.24c-.17-.02-.5.29-.45.52.04.2.14.26.23.34-.09.02-.22-.01-.37-.16-.17-.19-.21-.5-.02-1 .1-.27.37-.66.46-.9s.33-.7.44-.85c.09-.11.18-.12.23-.22.07-.14-.06-.26-.09-.23-.1.15-.66.38-1.08.59-.3.15-.48.44-.5.5-.01.03 0 .12-.04.15s-.15-.03-.2-.02c-.33.07-.43.2-.43.43.01.15.02.17-.03.23-.16.08-.28-.14-.32-.3-.08-.33.17-.72.6-.84a6.39 6.39 0 0 0 1.59-.97c.2-.2.24-.32.51-.36.18-.02.54-.05.84-.29.3-.22.75-.52 1.35-.93.4-.28.52-.42.67-.42zm-5.1.28c.18.01.33.01.52.14.37.26.59.4 1.36.77.17.08.52.12.31.19-.46.13-.42.22-.76-.11a1.49 1.49 0 0 0-.63-.3c-.15-.02-.32.01-.36-.19-.04-.17-.33-.26-.38-.26-.15 0-.33.15-.42.35-.07.14-.04.23-.07.28-.09.12-.2-.18-.17-.28.05-.2.08-.3.26-.45.18-.14.17-.14.35-.14z"/><path fill="red" d="M19.37 22.43c.1 0 .32.2.4.27.08.06-.1.1-.46.13-.12 0-.41.04-.47.07-.45.22-.4.23-.66.03-.22-.17-.5-.17-.7.07-.11.12-.14.23-.17.22-.05-.02-.14-.18-.09-.33.12-.31.45-.38.91-.32.1.02.56.02.75-.01.12-.02.43-.13.49-.12z"/><path fill="#000" d="M12.55 3.79c-.14 0-.28.31 0 .37.1.02.14.16.14.22s.06.28.1.29c.15.06.14-.14.12-.4-.03-.29-.22-.48-.36-.48z"/></svg>