<svg version="1.1" xmlns="http://www.w3.org/2000/svg" viewBox="0 0 29 32"><path fill="#fcdd09" d="M.41 15.22h28.3c0 10.28-5.15 16-14 16.28-9.44-.28-14-6.57-14.3-16.28z"/><path fill="#0f47af" d="M.41.36h28.3v14.86H.4V.36z"/><path fill="none" stroke="#000" stroke-width=".46" stroke-miterlimit="4" stroke-linecap="butt" stroke-linejoin="miter" d="M.4.52v14.75c.15 21.5 28.2 22.05 28.34 0V.4H.4z"/><path fill="#000" d="M.41 15.22h28.3"/><path fill="#fcdd09" d="M5.84 1.5a35.97 35.97 0 0 0 17.43 0v3.43a15.1 15.1 0 0 0-7.14 0c-.57 2.86-.57 6 0 8.86-1.14-.29-2-.29-3.14 0 .57-2.86.57-6 0-8.86a15.1 15.1 0 0 0-7.15 0z"/><path fill="#da121a" d="M14.03 21.02v-2.46c0-.69-1.09-.4-1.32.4-.4-.41-.85-.86-.57-1.49s1.49-.68 1.89.17c-.06-.57-.17-1.37.63-1.82.68.45.63 1.25.57 1.82.4-.85 1.48-.8 1.88-.17s-.17 1.09-.57 1.49c-.23-.8-1.3-1.18-1.31-.4v2.46zm2.9 4.4l1.74 1.74c.48.48 1.05-.49.64-1.22.58.01 1.22 0 1.46.65s-.57 1.54-1.46 1.21c.45.37 1.1.85.85 1.74-.81.16-1.34-.44-1.7-.89.32.89-.49 1.62-1.21 1.45s-.65-.89-.65-1.45c.73.4 1.75-.08 1.21-.65l-1.73-1.74zm.21-2.88l2.33-.77c.65-.22.04-1.16-.8-1.13.27-.51.55-1.08 1.24-1s1.12 1.19.43 1.84c.52-.24 1.25-.6 1.93.02-.22.8-1 1-1.56 1.12.94.11 1.23 1.16.76 1.74s-1.09.17-1.6-.08c.7-.47.72-1.6-.02-1.37l-2.34.77z"/><path fill="#da121a" stroke="#000" stroke-width=".17" stroke-miterlimit="4" stroke-linecap="round" stroke-linejoin="round" d="M11.78 23.57L9.4 22.9c-.66-.18-.68.94.03 1.37-.5.28-1.05.6-1.58.15s-.26-1.61.67-1.77c-.56-.1-1.36-.2-1.59-1.1.63-.53 1.38-.26 1.92-.05-.72-.62-.37-1.65.34-1.86s1 .46 1.28.95c-.83 0-1.49.93-.74 1.16l2.36.66zm1.52 2.75l-1.68 1.79c-.47.5.52 1.03 1.23.6.01.58.04 1.22-.6 1.48s-1.55-.52-1.26-1.42c-.35.46-.81 1.12-1.7.9-.2-.8.4-1.34.83-1.72-.88.35-1.63-.44-1.5-1.17s.88-.67 1.44-.69c-.38.74.14 1.75.69 1.2l1.68-1.8z"/><path fill="#fff" stroke="#000" stroke-width=".17" stroke-miterlimit="4" stroke-linecap="butt" stroke-linejoin="miter" d="M17.45 23.83a2.87 2.87 0 1 1-5.75 0 2.87 2.87 0 0 1 5.75 0z"/><path fill="#000" d="M15.17 23.51l.67-.43v1.4l-.65-.4zm-1.05.57l-.66.43v-1.39l.65.4z"/><path fill="#fff" stroke="#000" stroke-width=".29" stroke-miterlimit="4" stroke-linecap="butt" stroke-linejoin="miter" d="M15.25 23.8a.6.6 0 1 1-1.2 0 .6.6 0 0 1 1.2 0z"/></svg>