<svg version="1.1" xmlns="http://www.w3.org/2000/svg" viewBox="0 0 31 32"><path fill="#000" d="M30.8.33A172.17 172.17 0 0 1 .44.64C.23 1.06.4 1.88.35 2.4c0 2.52.06 5.05.2 7.51.11 2.22.29 4.46.67 6.63.14 1.12.43 2.34.66 3.5l.19.89c.08.23.22.62.21.74.25.64.42 1.35.7 2 .38.98.8 1.9 1.42 2.75.02.03.2.33.29.4.15.17.1.22.37.43.28.34.64.65.94.96a14.12 14.12 0 0 0 3.65 2.28c.77.37 1.62.62 2.46.81 1.65.31 3.36.47 5.06.29.86-.08 1.73-.29 2.56-.5.74-.25 1.57-.53 2.3-.91a12.9 12.9 0 0 0 3.78-2.8 14.22 14.22 0 0 0 3.02-5.4 45.17 45.17 0 0 0 1.43-7.71c.53-4.62.62-9.28.54-13.94z"/><path fill="#ff0" d="M29.81.85h.02c.04.04.08 2.5.08 4.97 0 4.75-.19 7.62-.73 11.43a29.57 29.57 0 0 1-1.05 5.14c-.25.85-.7 1.91-.96 2.27l-.03.05-.04.04v.01l-.04.06c0 .02-.07.17-.19.36l-.36.56-.06.08-.05.08-.02.01-.15.2-.1.1-.08.1v.02l-.2.21-.01.02c-.27.3-.55.6-.75.77l-.47.43c-.63.58-1.25.98-2.32 1.49a12.46 12.46 0 0 1-3.3 1.04 16.08 16.08 0 0 1-2.38.35 13.52 13.52 0 0 1-2.99-.03c-.58-.05-.83-.09-1.38-.2-.52-.1-2.17-.56-2.68-.74a9.74 9.74 0 0 1-1.72-.8 15.66 15.66 0 0 0 .94-.2c.21-.05.48-.1.59-.09.19 0 .3.03.9.2.94.26 2.4.23 2.98-.06.17-.08.4-.26.53-.4v-.02l.04-.04.02-.02v-.01a.5.5 0 0 0 .05-.07c.1-.21.1-.27 0-.4-.12-.13-.15-.2-.05-.24l.43-.07c.24-.03.5-.08.58-.1.2-.07.33-.13.41-.2l.03-.03c.09-.09.12-.21.11-.4v-.23l.25-.15c.1-.07.2-.15.25-.22l.02-.02a.44.44 0 0 0 .06-.09c.12-.22.1-.61-.05-1.07-.26-.82-.35-2.18-.31-4.73.01-1 .04-1.92.06-2.05a.43.43 0 0 1 .1-.27v-.02a4.2 4.2 0 0 1 .47-.47l.06-.07.01-.01c.1-.1.12-.18.14-.3.03-.13.04-.36.03-.52l-.02-.7v-.4h-.75c-.58.01-.76 0-.8-.04a2.56 2.56 0 0 1-.2-.99c0-.41.06-1.2.1-1.3s.01 0 .01 0c.05-.05.17-.15.3-.23a2.05 2.05 0 0 0 .5-.45l.02-.01.03-.05a3 3 0 0 0 .4-.8c.21-.66.22-1.21.03-1.89a2.7 2.7 0 0 0-1.94-1.82 3.78 3.78 0 0 0-2.03.2c-.02 0-.04-.1-.06-.23a1.24 1.24 0 0 0-.28-.66c-.06-.05-.08-.13-.08-.29 0-.3-.09-.55-.33-.94l-.2-.35.05-.27a1 1 0 0 0 0-.43c-.1-.24-.11-.53-.05-.63.1-.1.16-.1.27.03.12.12.14.12.26 0l.04-.03V4.2a.82.82 0 0 0 .24-.57c.01-.23-.06-.35-.24-.43-.13-.06-.16-.1-.18-.24a2.3 2.3 0 0 0-.16-.46l-.13-.28-.29.3c-.16.18-.33.33-.38.35-.06.01-.18-.01-.34-.09-.22-.1-.28-.15-.5-.45a2.3 2.3 0 0 0-.28-.35l-.03.03-.03.04-.11.17-.33.5-.01.02c-.04.05-.09.07-.16.07s-.2.04-.27.08-.17.08-.21.06c-.04 0-.19-.15-.32-.3l-.27-.3-.02.02-.01.01a3.4 3.4 0 0 0-.4 1.04l-.01.01c-.03.03-.06.04-.1.04s-.07.02-.1.05c-.12.14-.1.58.08.85.07.11.18.24.24.28l.1.07V4.7l.01.01v-.17c0-.1.03-.18.07-.24l.01-.02c.1-.08.25-.05.37.12.1.14.1.12.07.98 0 .21-.02.3-.05.35L8 5.76c-.1.06-.22.18-.33.32a1.47 1.47 0 0 0-.17.25c-.08.16-.1.26-.1.58 0 .27 0 .35-.05.43l-.02.02-.05.05v.01l-.03.03-.02.02v.01l-.02.02c-.06.08-.12.2-.15.29-.08.22-.07.38.02.8.01.07.01.1 0 .14a.19.19 0 0 1-.05.03.27.27 0 0 0-.08.07l-.01.02-.02.02a.88.88 0 0 0-.15.43c0 .07-.03.15-.06.2h-.02l-.05.07-.06.07-.01.01-.18.2-.15.2-.07.07v.02l-.04.05h-.01a9.55 9.55 0 0 0-.67 1.34l-.09.23c-.05.05-.09-.06-.24-.36-.17-.35-.2-.45-.22-.73a2.54 2.54 0 0 0-.97-1.79c-.1-.06-.1-.07-.05-.3a.8.8 0 0 1 .1-.27l.03-.03.02-.02.11-.12.15.17c.19.22.38.31.56.28a.2.2 0 0 0 .13-.07c.05-.06.03-.13-.08-.17-.1-.04-.32-.33-.37-.49v-.09l.03-.01c.07-.03.11 0 .26.22.08.11.27.18.41.15.13-.03.22-.09.26-.15.06-.07.03-.14-.1-.17a3.65 3.65 0 0 1-.7-.29c.04-.04.16-.12.32-.2a1.32 1.32 0 0 0 .36-.23c0-.02-.11-.08-.25-.12l-.25-.08-.02.01-.08.1-.02.03-.02.01-.05.07-.06.09-.02.02v.01l-.18.25-.05.07-.01.02-.06.07c-.13.16-.28.28-.3.24-.02 0 .03-.52.08-.87a.93.93 0 0 1 .17-.42l.06-.08.01-.01.07-.1.06-.06v-.01l.06-.06.05-.06c.06-.05.1-.08.12-.08.02 0 .07.06.1.14.08.15.3.31.45.31.07 0 .16-.05.26-.16.1-.1.23-.19.31-.21.1-.03.2-.1.26-.17L6.1 6c.11-.16.14-.37.02-.52l-.09-.13.1-.17c.07-.17.07-.2.02-.32a.6.6 0 0 0-.12-.19c-.08-.07-.36-.08-.47-.02-.05.03-.1.03-.17-.02-.12-.08-.44-.07-.57 0l-.03.04-.02.02-.01.01a.52.52 0 0 0-.1.18.5.5 0 0 1-.07.17l-.01.01a.18.18 0 0 1-.05.04.35.35 0 0 0-.07.07l-.02.01c-.12.15-.12.38 0 .75.01.04 0 .1-.05.16v.01l-.03.02v.02l-.03.03-.15.16.02-.29.1-1c.05-.53.06-.67.11-.74a.6.6 0 0 0 .18-.15l.03-.04.03-.02c0-.02.02-.03.03-.04L4.69 4l.01-.02.03-.03v-.01l.01-.02.02-.02.02-.02h.01c.05-.06.1-.09.16-.1a.5.5 0 0 0 .29-.2.4.4 0 0 0 .09-.23c0-.12-.03-.19-.14-.3-.13-.12-.15-.16-.14-.35 0-.19-.01-.23-.12-.31-.1-.1-.14-.1-.36-.08-.31.03-.34.03-.52 0-.12-.02-.2 0-.27.07v.02c-.02 0-.02.01-.03.02a.53.53 0 0 0-.08.25c0 .11-.02.17-.05.21a.28.28 0 0 1-.07.06.35.35 0 0 0-.1.1c-.13.17-.14.45 0 .68a.7.7 0 0 0 .24.2c.1.05.22.15.29.25l.1.17-.01.69c-.02.63-.1 1.3-.14 1.4-.04 0-.13-.26-.13-.35 0-.04.04-.13.09-.21.12-.22.12-.53 0-.66-.06-.06-.13-.1-.16-.1s-.05-.06-.05-.13c0-.3-.15-.4-.47-.36-.15.02-.2.01-.27-.06a.44.44 0 0 0-.5-.05.32.32 0 0 0-.09.08v.01a.66.66 0 0 0-.12.48c.01.09.01.14-.01.17l-.03.03a.33.33 0 0 0-.05.05l-.03.03a.66.66 0 0 0-.08.6c.08.18.25.31.42.31.1 0 .16.03.23.11.2.27.48.3.67.1l.04-.05a.67.67 0 0 0 .08-.12l.02-.04c.02-.03.04-.02.07 0 .08.07.18.39.21.67a3.13 3.13 0 0 1-.12 1.1c-.15 0-.16-.42-.03-.84.03-.11.05-.22.03-.26a1.08 1.08 0 0 0-.3-.31l-.02.02c-.05.04-.08.38-.05.6l.02.17-.1-.08a1.09 1.09 0 0 1-.18-.28c-.08-.16-.1-.18-.22-.18a.44.44 0 0 0-.28.11.49.49 0 0 0-.07.07v.01c-.1.1-.06.18.08.2.08 0 .14.05.19.13.06.11.13.16.35.21.07.02.18.2.17.25a.24.24 0 0 1-.13-.05c-.26-.17-.4-.2-.5-.14a.38.38 0 0 0-.1.08l-.04.06c-.08.1-.14.23-.11.29.02.06.04.06.2 0 .13-.04.22-.05.48 0 .17.02.36.06.4.08.17.07.22.33.15.67l-.02.07c-.02 0-.05-.06-.14-.2-.2-.36-.28-.44-.44-.44a.24.24 0 0 0-.2.1l-.02.02c-.1.13-.14.38-.14.76 0 .58.14.98.49 1.47l.2.3-.05.46a9.6 9.6 0 0 1-.12.8c-.08.67-.35 1.89-.52 2.3-.05.15-.05.16.01.16.02 0 .05-.03.1-.08l.02-.04a3.6 3.6 0 0 0 .22-.3l.1-.13c.2-.33.23-.46.28-1l.06-.5.2-1.28.01-.18.1.06c.23.11.26.19.37.87l.14 1.07c.1.95.19 1.25.48 1.61.2.24.27.41.22.5-.08.06-.3.08-1.08.08H3.2v.02h-.02l.02.2c.04.77.1 1.3.16 1.47.04.13.13.25.3.41.14.12.27.27.29.34a6.01 6.01 0 0 1-.06 1.41l-.02.02a.42.42 0 0 1-.07.07.57.57 0 0 0-.1.1l-.04.06v.01l-.05.06c-.07.11-.13.24-.16.31-.03.13.01.32.17.77l.1.26-.25.36-.38.55-.01.02-.04.05h-.01l-.03.05c-.12.13-.16.07-.21-.06-.16-.39-.73-3.7-.93-5.4A76.72 76.72 0 0 1 1.4 9.6a182.95 182.95 0 0 1 .02-7.57l.05-.88v-.01c.05-.05.22-.03 1.24.09a85.08 85.08 0 0 0 6.7.5c1.18.06 3.09.1 5.75.1h2.57l-.16.58-.32 1.16-.17.6.13.18c.24.35.38.82.3.95l-.03.02-.04.03-.03.03-.01.03-.02.01a.77.77 0 0 0-.04.07c-.06.12-.08.24-.08.92 0 .85.03 1.01.21 1.18l.1.1v1.82l-.23.09c-.14.05-.27.12-.3.15l-.01.01c-.09.1-.07.53.03.63.04.05.06.08.05.1a.43.43 0 0 1-.04.04.35.35 0 0 1-.11.06h-.01v.01c-.02 0-.04.16-.04.35 0 .33 0 .35.11.43l.11.09-.08.09a.43.43 0 0 0-.04.04c-.06.08-.07.15-.07.37 0 .27.01.3.14.4.08.07.2.15.27.17.25.09.27.18.27 1.69v1.35l-.1.04a.27.27 0 0 0-.07.07c-.11.13-.25.42-.25.55 0 .14.16.28.3.25.1-.02.12 0 .14.07v3.13l-.12.04a2.26 2.26 0 0 0-.57.33c0 .02.1.1.22.18.21.13.23.16.23.3 0 .1.03.22.07.28.08.11.05.27-.06.45l-.02.03-.01.01-.02.03-.01.01-.03.03v.02l-.14.15v.01l.25.25.26.25.03 7.55h.42v-1.43l-.01-3.78-.02-2.34.13-.11a.44.44 0 0 1 .2-.12c.08 0 .26.19.37.38.2.34.58 1.22.58 1.34s.13.11.28-.01c.15-.12.16-.13.24-.06a9.03 9.03 0 0 1 .84.95l.01-.01c.07-.07.4-.81.6-1.34l.19-.47.41-1.23c.2-.63.4-1.18.43-1.23v-.01c.1-.08.45-.16 1.72-.38.24-.04.29-.04.32.01.04.07.05.08-.03.2l-.1.14-.02.01c0 .02-.02.03-.03.05l-.06.07-.17.18a15.7 15.7 0 0 1-1.27 1.3v.01c-.12.15-.16.26-.24.65-.05.27-.08.48-.06.48s.1-.05.17-.12c.07-.07.14-.11.16-.1s.08.18.12.35.15.48.23.7c.21.62.35 1.1.35 1.26a.6.6 0 0 1-.1.3l-.2.33-.06.06-.07.1c-.01 0-.02 0-.02.02l-.02.01-.1.1-.1.12-.27.25-.12-.06a.89.89 0 0 1-.24-.22c-.17-.23-.35-.38-.48-.4a1.6 1.6 0 0 0-.68.14.4.4 0 0 0-.08.08l-.02.02-.03.03a.79.79 0 0 0-.14.46c0 .16-.01.26-.04.3l-.03.02a.79.79 0 0 0-.2.1.64.64 0 0 0-.16.15c-.17.2-.2.52-.07.86.06.15.1.2.16.19.1-.02.21-.02.4.02.12.02.18 0 .3-.09.2-.13.24-.13.16 0a1.2 1.2 0 0 0-.09.65c.02.09.1.22.2.33l.16.17.09-.09c.05-.04.23-.15.4-.23.22-.1.33-.16.4-.25l.01-.01.01-.02.01-.01a.7.7 0 0 0 .08-.15c.04-.11.04-.17-.02-.34-.06-.19-.08-.3-.05-.34.02-.01.04-.02.07-.01.06 0 .1.06.13.18.03.1.09.23.13.3.08.14.31.27.42.24.04-.01.14-.03.23-.03.08 0 .12-.01.14-.05.02-.02.02-.06.02-.14 0-.1.03-.22.07-.27.07-.14.07-.29 0-.53-.05-.12-.06-.16-.05-.2l.06-.05c.05-.05.33-.2.61-.33s.53-.28.55-.3l.01-.01a.5.5 0 0 0 .03-.2c0-.07 0-.11.03-.14V26a2.5 2.5 0 0 1 .45-.16.64.64 0 0 0 .24-.08v-.02c.02-.02 0-.1-.04-.19a26 26 0 0 1-.45-1.37 4 4 0 0 1-.04-1.52c.06-.35.25-.95.54-1.72l.23-.63c.11-.31.2-.52.27-.62l.02-.02.04-.02c.14 0 .18.17.2.74.03.62.07.77.24 1.02.14.2.3.26.51.18.1-.04.2-.1.26-.18l.01-.01.01-.02.02-.01c.17-.24.22-.65.21-1.4a20.7 20.7 0 0 0-.15-2.34c-.05-.7 0-1.33.13-1.72.08-.25.5-1.17.86-1.87.25-.5.46-1.1.46-1.3 0-.14-.05-.15-.11-.07l-.01.01a6.6 6.6 0 0 1-.51 1.03l-.01.01c-.02 0 .07-.3.18-.63s.24-.75.28-.93c.11-.52.11-1.66 0-2.17-.03-.1-.09-.12-.12-.07a6.29 6.29 0 0 1-.63 1.99c-.3.64-.67 1.66-.8 2.12a7.17 7.17 0 0 0-.15 2.35 347.22 347.22 0 0 1 .26 3.77c0 .42-.01.57-.09.8a.91.91 0 0 1-.1.23l-.01.01c-.2.23-.39-.2-.4-1.02-.02-.49-.07-.9-.14-.97a.43.43 0 0 0-.15-.1l-.1-.04.03-2.14.04-2.52c0-.22 0-.39-.03-.4l-.04.02a12.85 12.85 0 0 0-.38.85 2.4 2.4 0 0 1-.2.42l-.02.01-.01.02c-.11.12-.12.12-.31.07-.11-.03-.3-.1-.4-.17s-.22-.12-.23-.12c-.02 0-.14.07-.27.16a3.48 3.48 0 0 1-1.18.46c-.05.04-.02.16.08.46.12.38.21.53.5.81.22.2.28.29.33.47.07.24.22.55.5 1.05l.13.28c-.08-.03-.48-.3-.51-.35a43.48 43.48 0 0 0-3.3-.41c-.19 0-.44.16-1.08.7l-.1.09-.01.01.22-.02.22-.01-.02.83c-.03.86-.06 1.36-.1 1.88l-.02.28-.44-.46a5.67 5.67 0 0 1-.63-.76c-.12-.15-.17-.26-.17-.3.03 0 .1.05.2.16l.17.2.15-.08c.1-.04.17-.1.23-.17 0-.02.01-.02.02-.03l.02-.04a.8.8 0 0 0 .13-.4l.02-.27h-.11c-.08 0-.17-.05-.28-.15a14.5 14.5 0 0 0-.45-.46c-.2-.22-.73-.39-.9-.28-.03.02-.05-.1-.05-.34a22.07 22.07 0 0 0-.01-.69c.02 0 .05.01.1.07.13.14.23.13.37-.02a.7.7 0 0 1 .27-.18.7.7 0 0 0 .37-.2v-.01c.04-.05.07-.1.08-.15a.66.66 0 0 0 0-.23c-.04-.16-.05-.24-.04-.27h.03c.07 0 .18.21.2.4 0 .13.03.16.14.2.07.02.18.08.23.13.12.1.36.18.44.13l.02-.02c.03-.02.04-.07.02-.12 0-.05.01-.2.05-.32.1-.28.07-.47-.06-.6-.08-.07-.11-.13-.08-.18.07-.08.31-.14.8-.22a10.4 10.4 0 0 0 1.87-.4h.01c.03-.06-.08-.4-.19-.59l-.1-.16-.5.01c-.52.02-.9-.03-1.15-.17a3.5 3.5 0 0 0-.3-.13l-.23-.09-.36.21c-.55.32-.7.34-.85.12a2.14 2.14 0 0 0-.27-.28l-.2-.18-.32.04c-.25.03-.34.02-.35-.02-.01-.02-.03-.48-.03-1v-.96l.2-.05c.25-.05.26-.05.65.23a9.78 9.78 0 0 0 1.17.8c.06.06.38.24.43.24v-.01a.82.82 0 0 0-.1-.25 3.12 3.12 0 0 1-.32-.91c-.02-.14-.02-.2 0-.23a.19.19 0 0 1 .06-.03c.23-.05.35-.09.4-.16.06-.07.07-.15.07-.28l-.02-.23-.18-.05c-.22-.05-1.14-.39-1.28-.46-.14-.08-.17-.22-.14-.62.03-.41-.02-.62-.18-.74a2.08 2.08 0 0 0-.44-.19L18 9.5l-.02-.24-.01-.88v-.63l.59-.02c.33-.02.69-.06.8-.1a11 11 0 0 0 3.02-1.26c.68-.48 1.09-.8 1.64-1.24a7.46 7.46 0 0 1 1.49-.98c.9-.44 1.14-.5 1.8-.5.5 0 .7.04.62.16a6.97 6.97 0 0 1-1.32.64l-1.27.5c-.68.27-1.22.6-1.49.93l-.05.06a1.02 1.02 0 0 0-.1.16c-.03.08-.08.25-.1.38-.05.21-.04.25.05.45.24.48.73.61 1.99.55 1.62-.08 2.06-.09 2.33-.02.27.07.48.18.65.33.07.06.1.07.1.04.06.01-.1-.25-.3-.42a2.32 2.32 0 0 0-.8-.52c-.3-.1-.92-.14-1.6-.09-.61.04-1.4 0-1.48-.06a.24.24 0 0 1-.04-.35c.1-.1.6-.31.9-.38.71-.17 2.03-.6 2.57-.83a2.29 2.29 0 0 0 .8-.7c.12-.22.2-.53.2-.75 0-.19-.14-.8-.24-1a1.04 1.04 0 0 0-.27-.3c-.31-.24-.78-.34-1.55-.34-.85 0-1.38.1-2.31.48-.55.21-1.9.89-2.58 1.3-.9.51-1.6.87-2.05 1.03-.21.08-.6.19-.84.24-.92.2-1.13.18-1-.11a14.07 14.07 0 0 0 .3-.69c.05-.08.05-.12-.02-.35l-.15-.48-.16-.58a13.08 13.08 0 0 1-.28-1.04.12.12 0 0 1-.02-.07l.3-.01.79-.04 1.13-.05c2.49-.09 5.1-.3 7.68-.63 1.08-.14 1.98-.24 2.1-.24z"/><path fill="#00acff" d="M26.95 2.36h.33c.55.04.72.08.98.28.36.25.54.88.44 1.44-.05.25-.08.3-.3.51-.12.13-.3.27-.4.32a8.11 8.11 0 0 1-1.67.57l-.62.18c-1.16.31-1.56.55-1.56.9 0 .21.07.3.35.42.2.09.27.09 1.64.1 1.04 0 1.45.02 1.5.05.08.05.03.05-.3.06l-.83.02-1.22.03c-.73 0-.8 0-1-.1-.36-.15-.49-.37-.41-.72.05-.23.18-.4.45-.61.47-.37.97-.61 2.06-.99.4-.13.83-.3.97-.36.31-.14.7-.4.75-.48.06-.1.13-.03.16.15.05.3.14.18.14-.19 0-.14-.02-.24-.06-.28-.04-.03-.06-.08-.06-.1s-.06-.07-.14-.1c-.56-.27-1.5-.2-2.3.18-.63.3-.92.47-1.54.94a28.35 28.35 0 0 1-.94.7 9.26 9.26 0 0 1-4.48 2.07l-.39.06a2.5 2.5 0 0 1-.76-.14c-.11-.1-.16-.34-.16-.78.01-.54.08-.8.22-.83.06-.02.28-.04.5-.06.35-.03.48-.05.9-.15.08-.01.44-.13.79-.24.57-.2 1.4-.59 1.81-.87a14.65 14.65 0 0 1 1.08-.64l.37-.2.43-.24a7.22 7.22 0 0 1 3.27-.9zm-17.45.1c.01-.01.09.07.16.17l.13.18-.07.2c-.04.11-.06.23-.04.28.03.06.05.06.18-.08.16-.16.26-.19.45-.1.12.05.16.18.12.37-.04.2-.1.25-.18.16a.3.3 0 0 0-.5.09c-.06.18-.05.62.02.79.11.26.46.39.71.25.29-.14.43-.74.29-1.21l-.07-.22.14-.22c.2-.3.3-.38.36-.31.06.05.07.46.02.61l-.04.1.15-.07c.3-.15.51.07.38.39-.06.13-.07.14-.12.08-.18-.25-.47-.15-.62.22a1.7 1.7 0 0 0-.03.78c.03.1 0 .4-.05.44 0 0-.2-.02-.4-.07a4.1 4.1 0 0 0-1.6.02c-.5.12-.5.12-.53.04a.74.74 0 0 1 .01-.28c.04-.19.03-.26-.05-.52-.12-.4-.33-.62-.56-.62-.15 0-.32.1-.32.2 0 .03-.04 0-.09-.05s-.08-.14-.08-.18c0-.13.15-.26.33-.29.1-.01.16-.03.16-.04l-.04-.14c-.04-.1-.04-.19 0-.38.03-.13.07-.24.09-.24.04 0 .14.1.36.35l.14.16.01.46c0 .4.02.48.12.67.06.12.15.25.2.28.17.1.42.09.61-.04.22-.15.25-.21.25-.54 0-.43-.15-.63-.43-.57a.56.56 0 0 0-.22.1c-.09.09-.09.09-.15 0-.17-.25 0-.62.27-.56.07 0 .2.07.27.13l.13.1v-.1A.7.7 0 0 0 9.31 3c-.07-.13-.07-.14.04-.33.07-.1.13-.2.15-.2z"/><path fill="#ff0b00" d="M4.67 2.5a.1.1 0 0 1 .05.02c.14.1.16.3.05.45v.01L4.74 3c-.08.07-.21.07-.28 0-.06-.06-.06-.31 0-.4.05-.06.13-.1.2-.1zm-.61.05c.03 0 .06.02.12.08.12.12.14.25.04.39v.01l-.02.01v.01l-.03.03c-.1.09-.18.07-.26-.05-.08-.11-.06-.28.02-.4A.25.25 0 0 1 4 2.58a.17.17 0 0 1 .07-.03z"/><path fill="#fff" d="M17.76 2.71c.03.02.05.07.07.14.09.35.11.47.14.48l.06.22.07.25.02.1v.02c.04.11.05.2.05.23a3.4 3.4 0 0 1-.3.79c-.05.06-.06.06-.1-.05l-.2-.47-.14-.34.15-.67c.08-.37.16-.68.18-.7z"/><path fill="#ff0b00" d="M4.86 3.11c.06 0 .13.02.18.07.06.07.1.3.1.35h-.06v.03l-.01.01c-.07.06-.36.05-.41-.03s-.04-.25.03-.35c.05-.05.1-.07.17-.08zm-1.11.03c.16 0 .2.06.2.3 0 .08 0 .13-.02.16a.19.19 0 0 1-.07.04c-.23.09-.32.02-.31-.24 0-.11.01-.18.04-.22.03-.03.08-.04.16-.04zm.55.38c.1 0 .15.03.2.12.09.14.1.2.01.31L4.47 4c-.22.23-.46.12-.46-.21a.3.3 0 0 1 .04-.17c.06-.06.14-.1.24-.1z"/><path fill="#ff0" d="M10.05 3.87c.04 0 .07.03.12.09.1.11.1.12.18.04.13-.11.21-.05.21.14 0 .08-.01.15-.05.2l-.01.02-.03.03c-.22.24-.49.08-.49-.29 0-.1.02-.18.04-.21 0-.02.02-.02.03-.02zm-.97.05c.07 0 .15.04.17.11.03.09-.03.31-.1.42h-.01l-.02.02c-.2.17-.44.03-.44-.26V4.1c.02-.01.05 0 .09.01.09.04.14.04.17 0l.02-.1.02-.05a.14.14 0 0 1 .1-.03z"/><path fill="#ff0b00" d="M2.6 4.68c.09 0 .18.04.25.12.13.13.16.35.07.47a.17.17 0 0 1-.03.03c-.23.16-.45 0-.45-.34 0-.1.02-.19.04-.23a.18.18 0 0 1 .12-.05zm2.47.08c.14 0 .3.13.3.23 0 .04-.05.12-.1.19l-.03.04-.03.03-.06.03c-.25-.01-.35-.3-.25-.45.05-.04.1-.07.17-.07zm-1.75.01c.09 0 .14.07.14.2 0 .09-.01.19-.03.22l-.01.04c-.08.09-.25.1-.29 0-.03-.1 0-.32.07-.4 0-.02.01-.02.02-.03a.25.25 0 0 1 .1-.03zm2.43.04c.19 0 .25.07.21.26 0 .05-.03.1-.06.14v.01a.1.1 0 0 1-.03.03c-.11.06-.29.05-.32-.02a.83.83 0 0 1 0-.24c0-.07 0-.11.02-.14.02-.03.06-.03.14-.03h.04zm-1.01.49c.09-.01.18.03.21.1.06.11.04.27-.03.36l-.01.01v.01a.17.17 0 0 1-.06.04c-.14.06-.16.06-.24-.06s-.08-.28-.02-.4a.2.2 0 0 1 .15-.07zm-1.14.05c.06 0 .09.03.13.13.05.12.05.16 0 .29a.6.6 0 0 1-.06.1v.01a.14.14 0 0 1-.05.04c-.16.06-.28 0-.35-.18a.23.23 0 0 1 .01-.23l.02-.03a.44.44 0 0 1 .14-.08.6.6 0 0 1 .16-.05zm-1.21.08c.1 0 .21.05.27.14s.07.13.01.28a.5.5 0 0 1-.05.12v.01a.21.21 0 0 1-.14.04c-.2.02-.29-.1-.29-.35 0-.09 0-.13.03-.17a.18.18 0 0 1 .06-.04.28.28 0 0 1 .1-.03zm3.34.05c.1 0 .17.04.23.13s.06.2 0 .3h-.01l-.01.02a.28.28 0 0 1-.05.04c-.11.08-.13.08-.25-.05-.11-.12-.13-.27-.08-.36l.01-.01a.16.16 0 0 1 .06-.05.35.35 0 0 1 .1-.02z"/><path fill="#fff" d="M9.63 5.53c.93 0 1.36.14 1.36.42a3.5 3.5 0 0 1-.04.52 4.7 4.7 0 0 1-.31 1.21c-.05.1-.11.22-.16.27-.04.05-.07.1-.07.13 0 .05-.2.24-.32.3-.1.05-.47.05-.65 0a1.17 1.17 0 0 1-.48-.41 4.65 4.65 0 0 1-.22-.48c-.11-.3-.15-.47-.19-.83l-.06-.62c-.03-.16-.02-.19.1-.3.17-.16.44-.21 1.04-.21z"/><path fill="#ff0b00" d="M5.23 5.77c.18 0 .29.19.14.38l-.01.02-.03.03c-.19.19-.28.15-.35-.15-.01-.07-.01-.12.01-.16H5l.02-.02c.07-.07.15-.1.21-.1z"/><path fill="#000" d="M18.1 5.8c-.04 0-.07.03-.1.07-.03.06-.03.15 0 .31.03.13.05.37.04.55v.36c.01.11.15.03.2-.11.06-.17.06-.82 0-1.02-.03-.1-.1-.15-.15-.16z"/><path fill="#ff0b00" d="M3.06 5.88c.2 0 .3.3.18.47a.34.34 0 0 1-.17.08c-.16.02-.26-.1-.26-.33 0-.06.01-.11.04-.15.04-.05.11-.07.21-.07z"/><path fill="#000" d="M10.35 5.88h-.06c-.14.03-.3.1-.3.15 0 .01.18.02.4.02s.4 0 .4-.02c0-.06-.28-.15-.44-.15zm-1.19.04h-.04c-.18.02-.46.18-.42.24.01.02.04.02.06.01s.22-.04.42-.05l.38-.03-.14-.1a.4.4 0 0 0-.26-.07z"/><path fill="#fff" d="M8.23 6.03l.05.13c.2 1.2.3 1.5.61 1.98.1.14.09.5-.02.64s-.14.13-.15-.01c-.01-.58-.02-.63-.06-.6-.02.02-.03.08-.03.17H8.6c-.02.01-.02.04 0 .06l.01.03v.12l.01.33H8.5c-.1 0-.12-.01-.1-.05.02-.03.03-.23.03-.44s.02-.43.04-.47c.02-.04.02-.07 0-.07-.04 0-.08.07-.1.18-.03.1-.04.22-.04.35.02.46.01.5-.09.5-.07-.02-.09-.04-.08-.1a6 6 0 0 0 .02-.44c.01-.25.04-.4.1-.54.05-.11.07-.2.06-.2-.12 0-.27.5-.24.8.02.27-.04.48-.15.48H7.9c-.02-.02-.02-.04 0-.1.03-.1.03-.15 0-.47a.67.67 0 0 1 .2-.63c.07-.08.1-.12.06-.12-.2 0-.4.45-.37.78v.04l.03.09c.03.1.03.18 0 .27-.05.15-.03.12-.14.16-.12.04-.13-.06-.01-.16.07-.07.07-.08.02-.17a.92.92 0 0 1-.07-.36c-.01-.3.06-.46.28-.57.1-.04.1-.06.05-.07-.1-.02-.27.09-.37.25-.06.1-.08.18-.06.36.01.13.04.28.07.34.04.08.02.13-.07.29-.06.1-.12.2-.14.2h-.06a.21.21 0 0 0-.09.06c-.08.07-.14.08-.14 0 0-.06.24-.31.3-.31l.07-.04.02-.04v-.01a.6.6 0 0 0-.08-.2c-.2-.43-.1-.82.23-.97a.5.5 0 0 0 .1-.05c.05-.03.06-.03.03-.04.03-.05 0-.12-.05-.3a1.3 1.3 0 0 1 .01-.65c.05-.09.44-.43.5-.43zm2.93.05l.03.04a3.33 3.33 0 0 1 .1.18c0 .03.02.05.03.08v.01a1.69 1.69 0 0 1 .12.55 2.25 2.25 0 0 1-.03.23c-.03.05-.03.07.02.1l.01.02s.02 0 .03.02h.03c0 .01 0 .02.02.02.09.05.15.1.19.18l.02.03c.05.11.06.27.06.53l-.01.38-.02.05a.9.9 0 0 1-.18.32l-.01.01c-.01 0 0 0 0 0-.02 0-.01-.09.02-.2.11-.44.04-.95-.15-1.17-.11-.13-.12-.17-.12-.47 0-.32-.03-.5-.08-.5l-.01.08c-.04-.03-.04-.02-.01.07v.73l.12.12c.2.18.28.63.18 1.09a1.39 1.39 0 0 0-.03.22v.01c.02.04-.13.13-.16.1-.02-.02 0-.1.02-.19.06-.2.06-.72 0-.9-.04-.18-.15-.35-.2-.33l.01.08.02.04c0 .03.02.07.04.1.05.1.07.15.08.23v.36c0 .37-.08.66-.14.6-.01 0 0-.24.03-.51.06-.54.02-.71-.14-.74-.08-.02-.08-.01-.02.06.04.04.08.14.1.22.01.08 0 .36-.03.6l-.01.03c-.01.03-.01.05 0 .07l-.02.07v.06c-.02.1-.04.16-.05.16-.07 0-.08-.18-.04-.56a3.58 3.58 0 0 0 .03-.33c0-.17-.02-.27-.06-.27a4.56 4.56 0 0 0-.07 1.07c-.01.1-.05.12-.09.02a1.96 1.96 0 0 1 0-.42c.03-.26.02-.34-.01-.3a.87.87 0 0 0-.06.29.88.88 0 0 0-.03.25v.05l-.03.12c-.1 0-.14-.15-.12-.43.02-.24.06-.37.2-.63.22-.46.29-.67.35-1.22l.06-.48z"/><path fill="#000" d="M8.19 6.12c-.05 0-.15.13-.25.3a.73.73 0 0 0-.05.23.12.12 0 0 0-.03.04c-.02.06-.01.06.02.03l-.01.36h-.01c-.01 0-.02.01-.02.04 0 .02.01.03.03.04l.01.13v.02c0 .02.01.05.03.07.03.07.05.06.05 0 0-.05 0-.11-.02-.19a1.05 1.05 0 0 1 0-.44c.05-.27.09-.37.21-.5.05-.05.07-.1.06-.13h-.02zm2.17.25c-.19 0-.33.03-.31.08 0 .03.05.05.08.04s.07.02.07.05c0 .04.04.1.1.13.12.08.16.08.26-.03.05-.06.06-.1.02-.1-.02-.01-.05-.04-.05-.06s.02-.03.04-.02c.02.01.07 0 .12-.01h.02c.07-.04.04-.05-.15-.07l-.2-.01zm-1.25.03c-.25 0-.36.03-.25.1.03.01.06.06.06.09s.04.1.09.14c.04.05.1.08.11.08.08 0 .22-.13.22-.2 0-.05.03-.08.09-.1h.1l-.1-.06a.85.85 0 0 0-.32-.05zm-.89 0s-.02 0-.03.02v.01a.42.42 0 0 0-.05.12l-.01.03v.01c-.04.21-.04.54.01.73.02.08.06.15.09.15s.03-.03 0-.09a3.05 3.05 0 0 1 .02-.94c0-.03 0-.04-.03-.04zm1.78.75a.32.32 0 0 0-.12.03c-.1.04-.15.04-.2 0-.13-.05-.16.03-.05.1.13.1.27.09.34-.02.05-.07.06-.1.02-.11zm-.3.5a.57.57 0 0 0-.24.05l-.14.05.16.09c.1.05.21.09.27.09.13 0 .47-.25.34-.25a15.9 15.9 0 0 1-.38-.03zm16.88.28c-.22.01-.54.1-.6.19h-.01v.01c-.05.05-.04.08.05.15.07.05.1.09.1.1-.02.01-.1-.02-.24-.1-.32-.17-.68-.3-.99-.33-.21-.03-.25-.02-.47.1l-.23.13-.52-.02c-.47-.03-.68-.01-.8.12v.01l-.01.01a.66.66 0 0 0-.1.31c-.03.2-.03.2.13.26.1.04.14.09.12.13-.02.01-.06.03-.12.03s-.1.02-.11.05c-.03.03-.04.08-.05.22-.04.35 0 .38.77.53l.36.07.12-.12c.1-.1.14-.11.24-.08.2.07.28.23.27.52 0 .15-.04.34-.07.45a3.53 3.53 0 0 1-.33.7c-.03.04-.05.04-.05-.01 0-.02-.12-.16-.25-.3-.54-.6-.88-.7-2.38-.78a4.9 4.9 0 0 1-1.53-.23c-.06-.01-.08-.01-.1.01-.03.02 0 .09.08.2.13.18.26.3.53.48.38.25.49.27 1.67.3.65.02 1.14.05 1.23.08.28.08.61.45.54.58-.07.07-.4.05-.53-.04-.08-.06-.28-.2-.3-.3 0-.01-.07-.16-.16-.17-.15-.03-.22-.08-.31.01a.32.32 0 0 0-.04.05c-.15.2-.08.57.15.68.05.03.08.06.08.07-.12.04-.26-.04-.44-.27-.22-.27-.28-.29-.93-.3-.25 0-.37.01-.43.09l-.01.02c-.05.06-.06.19-.07.4l-.02.34-.2.09c-.13.04-.2.08-.24.13l-.01.01c-.06.07-.04.17.02.37.12.36.2.52.4.8.2.25.2.3.11.51-.07.14-.07.15 0 .22.1.12.44.29.66.34.24.05.64.06.92.03l.21-.04.15.25c.08.13.19.28.24.33.09.09.13.1.33.08a3.8 3.8 0 0 0 1.12-.45c.1-.07.21-.12.24-.12s.13.05.25.1c.25.13.36.13.49 0h.01l.01-.02.01-.01.01-.02.02-.02a6.97 6.97 0 0 0 .6-1.16.83.83 0 0 1 .28-.2c.15-.07.23-.11.27-.17a.4.4 0 0 0 .07-.17c.03-.11.05-.43.04-.88v-.7l.13-.22c.12-.18.13-.23.13-.51 0-.17-.04-.44-.08-.61-.06-.23-.07-.33-.04-.39.08-.15.28-.9.3-1.1v-.19h-.16c-.09 0-.22.02-.28.04-.12.03-.12.03-.1-.1l.06-.36.02-.22h-.22z"/><path fill="#fff" d="M13.42 8.08a1.9 1.9 0 0 1 .41.05h.02l.07.02c.03 0 .05.03.06.06v.13c-.02.3-.05.37-.23.45-.15.08-.18.08-.3.02-.3-.12-.4-.1-.73.06l-.33.16c-.04.03-.33-.21-.33-.27 0-.1.16-.31.3-.4a2.1 2.1 0 0 1 1.06-.28z"/><path fill="#000" d="M9.77 8.1c-.08 0-.14.01-.14.03s.05.05.12.05c.06 0 .13-.02.14-.04.02-.03-.03-.05-.12-.05z"/><path fill="#ff0b00" d="M14.37 8.15c.2 0 .86.45.86.59 0 .03-.06.13-.13.23l-.02.02-.02.01-.01.02c-.06.07-.12.1-.16.1-.15 0-.32-.07-.37-.15a.7.7 0 0 0-.23-.15c-.12-.06-.16-.1-.14-.15l.05-.14c.05-.22.07-.32.1-.36.02-.02.04-.02.07-.02z"/><path fill="#fff" d="M10.31 8.44c.05 0 .06.1.06.32 0 .24.01.29.08.33a.2.2 0 0 1 .06.03c.05.06 0 .13-.2.22-.11.06-.3.12-.42.13-.37.04-.83-.16-.93-.4-.04-.1-.04-.13.04-.2a.39.39 0 0 0 .09-.2l.02-.18c.02-.06.04-.06.12 0a1.1 1.1 0 0 0 .94.02c.04 0 .08-.02.11-.06h.03z"/><path fill="#ff0" d="M25.07 8.6c.37 0 .48.06.6.33.1.24.14.47.11.53-.02.02-.05-.02-.1-.13-.1-.17-.17-.2-.25-.1l-.01.02a.14.14 0 0 0-.02.02l-.04.04-.07.08c-.12.12-.44.13-.49.01v-.02h.1c.1.01.16 0 .2-.06.04-.05.05-.15.04-.32 0-.13-.03-.25-.04-.26s-.1-.03-.21-.04c-.14 0-.2-.02-.2-.05l.04-.03.34-.02z"/><path fill="#fff" d="M3.02 8.6c.05 0 .1.03.14.08l.01.03a4.99 4.99 0 0 1 .4.94v.23l-.01.13c-.03.18-.05.4-.05.5s-.02.2-.04.23c-.03.05-.04.04-.04-.03 0-.06-.07-.17-.15-.26-.2-.22-.39-.72-.42-1.1-.03-.38.05-.7.16-.74z"/><path fill="#ff0" d="M26.91 8.9c.07 0 .05.26-.01.43a.56.56 0 0 1-.06.1c-.07.07-.13.07-.22.01a.5.5 0 0 0-.13-.07v.02c-.04 0-.03.25.01.45l.03.19c-.06 0-.18-.4-.18-.57 0-.1 0-.18.04-.22v-.01c.05-.04.11-.05.21-.04.11.02.15.01.2-.05l.01-.01.01-.02a.36.36 0 0 0 .06-.16c0-.02 0-.04.02-.05h.01z"/><path fill="#ff0b00" d="M11.81 8.95c.04-.01.07 0 .11.04.03.03.06.05.09.05l.08.07h.01l.07.1c.09.07.11.11.09.15-.03.03-.07.06-.1.06a.59.59 0 0 0-.18.12c-.17.14-.18.14-.39.05-.15-.06-.15-.07-.13-.23l.05-.2a.35.35 0 0 1 .13-.14.46.46 0 0 1 .08-.04.42.42 0 0 1 .1-.03z"/><path fill="#fff" d="M13.94 9.01l.15.01c.14.03.28.1.34.18.05.05.12.1.22.1l.1.04c.17.06.24.1.28.18l.04.15v.03c0 .11-.02.23-.08.35-.08.14-.08.16-.04.2 0 .03.02.04.04.03a.48.48 0 0 1 .1.25.8.8 0 0 1-.04.23 1 1 0 0 1-.1.18.42.42 0 0 0-.07.2.77.77 0 0 0-.02.2v.08c-.02.2-.1.35-.26.43-.12.06-.21.02-.1-.05.1-.05.28-.37.28-.48 0-.1-.04-.11-.07-.04l-.03.12c-.03.09-.1.2-.18.29-.21.22-.26.13-.06-.11l.14-.22a.43.43 0 0 0 .06-.12l.02-.07c.04-.12.1-.21.13-.21.09 0 .18-.38.12-.53-.06-.16-.13-.14-.08.03v.27l-.01.02-.06.16v-.24c-.01-.36-.1-.63-.2-.66-.05 0-.14-.08-.2-.16s-.18-.17-.28-.21c-.16-.07-.18-.07-.37-.01-.2.06-.2.06-.35-.04a.66.66 0 0 0-.19-.1c-.05 0-.45.2-.45.23l-.02.1c-.02.06-.02.06.03 0 .16-.19.36-.2.62-.02-.01.02 0 .04.04.05h.04c.08.04.14.05.18.04l.03-.01h.02c.05-.02.14-.03.21-.04.16-.02.2-.01.31.1l.04.03c0 .05.08.1.13.1l.06.04h.02l.07.04c.06.04.07.1.08.23 0 .12-.02.31-.05.44l-.03.11-.01.03v.02l-.05.18c-.03.13-.3.44-.5.56-.07.05-.22.1-.33.13l-.29.06a.26.26 0 0 1-.16-.02 2.59 2.59 0 0 1-.54-.6c-.1-.17-.11-.5-.05-.85.07-.34.03-.47-.06-.24-.03.07-.07.11-.09.1-.05-.06-.02-.41.04-.53.07-.15.08-.14-.02-.16-.3-.08-.45.57-.2.9.09.12.1.01.03-.13a.6.6 0 0 1-.02-.56l.05-.07.03-.04c.01.03 0 .14 0 .28-.02.23-.01.3.03.36l.03.04v.02c.02.03.02.09 0 .19v.05l-.02.15c-.04.2-.05.47-.04.6.02.2.02.24-.03.24-.17 0-.24-.66-.1-.82.07-.07.08-.08.02-.08-.1 0-.16.15-.18.33v.02a.2.2 0 0 0 0 .09v.08c-.01.03.01.14.06.24.04.13.04.15-.02.11-.09-.06-.18-.31-.18-.48 0-.17.12-.42.22-.46.05-.02.04-.06-.04-.21a.67.67 0 0 1-.03-.63c.07-.17.31-.35.42-.32h.04c.02 0 .03-.01.03-.03a.48.48 0 0 0 .05-.13c.06-.22.21-.34.35-.27.05.02.15.05.22.05s.16.04.2.07a.4.4 0 0 0 .1.05h.08c.03-.02-.02-.07-.13-.12-.07-.03-.1-.06-.08-.07.03-.01.1 0 .15.04a.1.1 0 0 0 .06.04c.06.03.08.02.13-.03a.43.43 0 0 1 .27-.1zm1.56.02l.08.1.02.03c.08.12.17.29.23.44a2 2 0 0 1 .1.64v.03c0 .12 0 .22-.02.28l-.01.02a.33.33 0 0 1-.16.04c-.24-.02-.3-.05-.36-.2a2.51 2.51 0 0 0-.1-.22c-.03-.06-.02-.15.03-.32.07-.27.05-.5-.05-.58-.06-.05-.05-.07.05-.17a.96.96 0 0 1 .07-.07.36.36 0 0 1 .12-.03zm-11.76.01c.13-.02.44.35.68.84l.08.17c.06.15.1.3.13.47a5.4 5.4 0 0 1 .06.5l.02.27-.18.12-.2.11c-.01 0-.05-.06-.07-.14a.85.85 0 0 0-.39-.46l-.15-.1-.01-.01.02-.37c.03-.31.08-.5.13-.48l.01.01c.01.01.06 0 .1-.02.11-.06.1-.22-.04-.38a1.04 1.04 0 0 1-.24-.42c0-.07.02-.1.05-.11z"/><path fill="#000" d="M13.95 9.06c-.03 0-.04.01-.01.06 0 .02.04.04.07.04l.03.02.26.16c.08.06.17.13.2.13v-.02c.02 0-.03-.06-.11-.14a1.01 1.01 0 0 0-.44-.25z"/><path fill="#ff0b00" d="M8.31 9.14l.2.01.12.01.16.08.06.07c.06.05.1.13.1.18 0 .12.07.17.15.1.09-.07.17-.02.2.13.03.1.09.16.1.11.01 0 .02-.01.02-.04a.3.3 0 0 1 .1-.06c.09-.05.1-.04.18.08l.1.17c0 .05.05.03.08-.02a.18.18 0 0 0 .04-.1.3.3 0 0 1 .05-.16l.02-.02a.14.14 0 0 1 .09-.04c.04 0 .12.04.2.1l.12.11v-.02h.01v-.15c0-.07 0-.11.02-.14l.01-.02a.4.4 0 0 1 .1-.06c.13-.06.18-.07.34-.03.17.05.18.06.17.16l-.1.31a2 2 0 0 0-.11.31.44.44 0 0 1-.06.15c-.04.05-.1.06-.2.05-.13 0-.19.02-.3.12-.17.15-.22.15-.4.02-.26-.19-.56-.23-.75-.11-.1.05-.14.06-.2.02a2 2 0 0 0-.44-.24c-.11-.01-.23-.08-.23-.14 0-.14-.04-.32-.1-.5-.03-.1-.06-.23-.06-.3 0-.03 0-.05.02-.08.04-.04.1-.06.2-.06z"/><path fill="#000" d="M12.9 9.19c-.08 0-.15.01-.16.04h-.02l.01.03c0 .02.06.02.17 0h.09l.12.02v.01c.03.04 0 .05-.08.03-.15-.02-.35.04-.35.12v.03c0 .02.03.02.07 0a.7.7 0 0 1 .43-.02l.02.01c.1.06.16.08.19.08l.07.03c0 .03.03.03.08 0l.07-.01c.1-.05.07-.12-.04-.09a.27.27 0 0 1-.2-.04c-.1-.06-.11-.1-.07-.09l.07.03h.01c.02.02.05.03.08.03l.07.02v-.01c.05-.02 0-.06-.13-.12-.14-.07-.35-.1-.5-.1zm.97.01c-.06 0-.11.02-.14.03l-.02.02c0 .02.07.04.14.04.08 0 .2.04.28.1l.09.07.08.07c.07.06.14.1.18.1l.07.03c.06 0 .03-.07-.06-.12a2.35 2.35 0 0 1-.27-.19c-.14-.1-.22-.14-.35-.14z"/><path fill="#000" d="M13.94 9.41c-.08 0-.14.02-.14.05v.01c.02.02.04.03.06.02h.06l.06.02H14a.92.92 0 0 1 .11.06c.05.03.1.06.15.11l.07.06c.06.06.11.1.13.1h.03a.2.2 0 0 0 .07.03.7.7 0 0 1 .17.1.23.23 0 0 1 .02.1c0 .04.02.09.04.09s.04-.04.04-.09c0-.04.02-.07.04-.08v.02l.01-.02c.02 0 .04-.03.04-.06V9.9l.02-.03h.02c.09 0-.03-.42-.12-.42a.8.8 0 0 1-.12-.02c-.1-.03-.11.01-.06.05 0 .02.02.02.04.03l.05.02.05.02.06.07h-.12l-.13-.01.1.09.1.08v.02l.03.06c0 .03-.03.03-.1-.01-.05-.04-.12-.07-.16-.07s-.17-.08-.28-.18c-.17-.15-.24-.19-.36-.19z"/><path fill="#00acff" d="M7.7 9.46c.04 0 .08.06.14.15.14.25.12.49-.03.65a.7.7 0 0 0-.18.36c-.05.22-.05.22-.28.3-.26.09-.83.12-1 .06-.09-.04-.11-.07-.1-.15.01-.1.13-.19.41-.3l.12-.04-.13-.2a.83.83 0 0 1-.1-.22c.04-.05.33-.04.45.01.16.07.17.02.05-.19-.07-.11-.1-.19-.06-.2.06-.05.24 0 .42.12l.03.02.01.01a.8.8 0 0 0 .13.07l.03-.22c.01-.15.04-.23.09-.23z"/><path fill="#fff" d="M11.4 9.83h.04l.17.01c.14.04.17.08.14.17 0 .04 0 .12.03.22-.01 0-.02 0-.02.02s.01.04.03.04l.02.08c.05.16.07.23.05.28l-.01.02-.02.02a.73.73 0 0 0-.13.27V11c-.06.2-.08.45-.01.56v.13c-.03.02-.08.01-.14-.02-.23-.09-.43-.6-.44-1.08 0-.25.13-.66.23-.73a.15.15 0 0 1 .05-.03z"/><path fill="#ff0b00" d="M17.43 9.9c.06-.01.14.02.3.09l.23.1-.07.12a.6.6 0 0 1-.02.05l-.03.04a.31.31 0 0 1-.08.06c-.1.06-.2.06-.36-.01-.15-.07-.16-.13-.08-.34a.47.47 0 0 1 .04-.08.1.1 0 0 1 .07-.04zm1.15.08l.08.01c.05.03.04.19 0 .25l-.02.02c-.16.06-.26.02-.32-.11l-.05-.13.17-.02.14-.02z"/><path fill="#000" d="M13.11 10.15c-.16 0-.18 0-.18.05s.2.05.29 0c.06-.04.05-.05-.1-.05zm.92.14H14c-.02 0-.02.01-.01.03l.1.08.03.01a.8.8 0 0 0 .16.08l.01.01h.02c.04 0 .06-.01.03-.06-.04-.06-.24-.15-.33-.15zm-.79.08l-.1.01-.2.04c0 .01 0 .07.05.13.03.06.1.1.15.1.13 0 .24-.1.21-.21-.01-.06-.03-.08-.1-.07z"/><path fill="#ff0b00" d="M20.36 10.39a4.13 4.13 0 0 0 1.21.12c.63 0 .85.01 1.11.08.44.1.56.16.6.25.02.02.02.04.02.05h-.08a11.65 11.65 0 0 0-1.36-.08c-.88-.01-.9-.01-1.13-.12-.22-.11-.4-.25-.4-.3h.03z"/><path fill="#ff0" d="M8.15 10.43h.08c.26.05.76.34.76.45v.01l-.02.02a.36.36 0 0 1-.06.05c-.12.07-.63.1-.8.05-.17-.06-.22-.13-.22-.32a.3.3 0 0 1 .05-.18.29.29 0 0 1 .21-.08zm16.81.09c.05 0 .1.23.07.54-.03.3-.16.7-.3.9v.02l-.02.01-.02.02c0 .02-.02.03-.03.04-.06.05-.1.08-.08.02.15-.3.21-.55.32-1.35l.04-.2h.02z"/><path fill="#000" d="M13.96 10.57c-.03 0-.03.16 0 .26v.01c0 .04.01.08.04.09h.02c.08.03.2 0 .22-.07l.06-.08h.06c.04 0-.36-.2-.4-.2z"/><path fill="#fff" d="M9.42 10.57c.12 0 .3.08.5.2l.19.1.02.02c.06.05.08.06.1.02.04 0 .05-.02.05-.07 0-.06.13-.2.2-.23.02 0 .03.02.05.05.03.06.04.21.05.49a3.9 3.9 0 0 0 .04.5c0 .04.03.09.07.14l.02.02a1.66 1.66 0 0 0 .2.2l.01.02c.15.14.28.25.32.27l.2.15c.03.06.08.1.12.1l.11.1.03.02.03.02.08.06a3.29 3.29 0 0 1 .26.22c.1.12.09.2-.04.24a.34.34 0 0 1-.13.04l-.36-.29a6 6 0 0 0-.94-.68 2.46 2.46 0 0 1-.45-.55 5.53 5.53 0 0 0-.3-.43c-.17-.19-.28-.27-.42-.3-.1-.01-.14-.04-.16-.14a.49.49 0 0 1 0-.2v-.03a.28.28 0 0 1 .15-.05z"/><path fill="#ff0b00" d="M15.39 10.76c.15 0 .54.13.56.2.03.1-.03.3-.12.43v.01l-.03.03c-.05.05-.11.09-.15.09-.1 0-.43-.14-.5-.2-.09-.07-.1-.13 0-.27l.05-.07a1.73 1.73 0 0 0 .13-.2l.05-.01zm2.17.09c.26 0 .27 0 .25.1 0 .05-.05.15-.1.21l-.02.02-.02.03c-.05.05-.1.06-.17.06-.27-.01-.3-.04-.28-.27a.2.2 0 0 1 .03-.09c.04-.05.13-.06.31-.06z"/><path fill="#000" d="M13.35 10.93c-.04 0-.05.01-.05.04 0 .02.02.06.05.07.08.03.22.01.22-.03 0-.03-.06-.06-.13-.07a.39.39 0 0 0-.09-.01z"/><path fill="#00acff" d="M7.58 11.07c.05 0 .1 0 .12.02.06.07-.4.36-.95.6-.64.27-.9.33-.94.23-.04-.12.12-.25.52-.44.46-.21.5-.23.73-.29a11.96 11.96 0 0 0 .52-.12z"/><path fill="#fff" d="M9.38 11.15c.07 0 .45.42.48.53.01.05.04.09.05.09s.07.08.12.17l.08.16c0 .03 0 .05.04.05l.08.1.05.05c.05.04.07.06.07.04l.22.17h.01l.12.09.12.09a8.85 8.85 0 0 1 .35.28h.01c.14.12.23.22.25.27 0 .02 0 .03.01.02 0 .05.03.08.07.08.05 0 .14.06.22.14l.13.1.02.01h.15l.08-.03.39-.23c.4-.25.64-.37.76-.37.04 0 .08-.03.08-.06 0-.06-.04-.06-.25-.05a.9.9 0 0 0-.28.04l-.07.03c-.06 0 .1-.5.18-.56.03-.02.23-.07.43-.11.31-.06.37-.06.47-.01a.3.3 0 0 0 .1.06l.05.04h.01l.01.01a2.07 2.07 0 0 1 .55 1.62c-.02.27-.08.57-.2.95l-.13.48v.02l-.03.1-.02.07a3.3 3.3 0 0 0-.08.61c0 .37-.06.5-.32.7-.21.16-.65.6-.88.9l-.09.12.15.14.15.14-.28.15c-.4.2-.46.24-.49.52-.02.02-.02.07-.01.12a.83.83 0 0 1-.11.36c-.06.07-.08.15-.1.35v.03l-.01.19c-.02.37-.05.54-.18.93-.15.45-.15.5-.14.97 0 .56-.02.68-.2.76l-.18.09a.41.41 0 0 1-.16.04c-.04 0-.08.02-.08.04s-.02.03-.05.03h-.07c-.07-.02-.13-.02-.13 0 0 .07-.12.06-.15 0-.04-.13.07-.57.22-.87.22-.43.22-.48.14-.87a9.02 9.02 0 0 1-.19-1.66c0-.38.06-.62.19-.8l.22-.34c.08-.13.34-.42.57-.64.22-.23.4-.42.4-.44s-.11.04-.26.11a1.3 1.3 0 0 1-.33.15c-.1 0-.15-.14-.21-.53-.05-.3-.04-.38 0-.48.03-.07.06-.27.07-.46.03-.35.16-.72.31-.85.05-.05.22-.12.39-.16l.4-.11h.02s.01 0 0 0a11.4 11.4 0 0 0 .3-.1c.36-.1.47-.17.59-.3.1-.1.06-.18-.07-.1a5 5 0 0 1-1.54.4c-.5.03-.57 0-.95-.38a8.1 8.1 0 0 1-1.3-1.69c-.07-.16-.15-.2-.55-.26-.27-.04-.44-.16-.53-.37-.11-.23-.17-.7-.09-.74a.2.2 0 0 1 .08-.03 1.14 1.14 0 0 1 .13.01c.09.02.19.05.3.1l.04.02c.07.03.13.06.17.06.09.01.1-.02.05-.1s-.02-.2.05-.2z"/><path fill="#000" d="M13.09 11.2h-.03c-.03.03.1.17.2.2s.15.04.26-.01c.14-.06.14-.12 0-.12a1.2 1.2 0 0 1-.27-.05.52.52 0 0 0-.16-.02z"/><path fill="#ff0b00" d="M7.99 11.38c.05 0 .1 0 .14.02.08.04.13.13.24.45.12.31.19.44.3.56.1.09.2.16.23.16l.13.04.27.07c.2.03.23.06.3.24.04.12.05.14.1.42.04.2.03.36-.03.45h-.01a.2.2 0 0 1-.1.07c-.14.03-.25-.07-.4-.4a1.07 1.07 0 0 0-.17-.28l-.02.02c-.02 0-.04.14-.04.37 0 .21-.03.43-.06.47l-.02.04c-.05.07-.12.04-.21-.09a5.37 5.37 0 0 1-.46-.9c0-.03-.02-.04-.05-.03l-.02.01c-.03.02-.04.16-.04.46 0 .26-.02.42-.05.47-.03.03-.07 0-.14-.1a2.6 2.6 0 0 1-.38-.87c-.02-.14-.08-.23-.1-.18a8.68 8.68 0 0 0 .01 1.03 4.72 4.72 0 0 1-.7-1.66l-.02-.18.37-.2.44-.22c.03-.02.1-.05.15-.1a.54.54 0 0 1 .33-.14z"/><path fill="#fff" d="M4.78 11.53l.03.01.05.07a.3.3 0 0 0 .04.06c.04.1 0 .2-.13.3-.22.2-.43.16-.43-.07 0-.06.06-.13.17-.22l.14-.1.1-.05a.1.1 0 0 1 .03 0zm10.42.1c.04 0 .07 0 .11.02a1.18 1.18 0 0 1 .27.12c.05.05.03.13-.05.28l-.01.03-.03.03c-.1.16-.34.4-.4.4l-.18.04c-.15.03-.33 0-.33-.07 0-.02.03-.05.08-.1l.03-.02c.2-.13.3-.27.42-.51l.1-.22z"/><path fill="#ff0b00" d="M17.35 11.75l.1.01.28.04c.1 0 .12.02.1.09a.53.53 0 0 1-.08.2l-.03.03a.35.35 0 0 1-.12.1c-.14.07-.2.06-.27-.06-.07-.1-.08-.19-.04-.34l.02-.05.04-.02zm-12.22.23h.02c.05.04.4.73.46.94.06.18.1.23.12.17a.38.38 0 0 0 .05-.12.74.74 0 0 1 .1-.2l.03-.03.05-.07a.8.8 0 0 1 .27-.23c.07-.03.13-.04.14-.03l.04.18c.04.27.16.7.25.9.08.2.1.26.04.36a.93.93 0 0 1-.04.04v.01l-.06.05c-.2.2-.89.55-1.22.62a2.2 2.2 0 0 1-.3.05c-.11 0-.26-.16-.34-.38a4.3 4.3 0 0 1-.26-1.51l-.03-.32.17-.09c.1-.04.25-.15.34-.22l.17-.12z"/><path fill="#fff" d="M7.65 14.41l.18.02.39.06a2.6 2.6 0 0 0 .42.04h.56c.01.01.03.02.07.02.03 0 .05 0 .07-.02h.06c0 .01 0 .02.03.02.01 0 .03 0 .04-.02h.06c.02.02.05.02.06 0h.09c.48 0 .66.01.76.04l.01.02c.01 0 0 0 0 0a.9.9 0 0 1 .07.02c.19.09.2.25.05.3-.18.04-1 .07-1.33.04a3.5 3.5 0 0 1-1.59-.47c-.05-.04-.06-.06-.01-.06z"/><path fill="#ff0b00" d="M18.39 14.74c.18 0 .28.18.2.33-.06.06-.3.11-.46.1-.11-.02-.11-.02-.06-.17a.51.51 0 0 1 .05-.12h.01v-.02h.02a.29.29 0 0 1 .24-.12zm-10.68.1c.07 0 .06.48-.02.62a.41.41 0 0 1-.03.05.19.19 0 0 1-.15.06c-.17 0-.39-.13-.45-.27-.04-.08-.04-.15 0-.2v-.01c.05-.07.16-.12.32-.16l.33-.1z"/><path fill="#00acff" d="M5.73 14.95c.07 0 .1.03.12.13.03.16.1.3.23.44 0 .02.01.02.02.03l.38.34c.15.1.2.06.09-.09-.05-.06-.08-.12-.08-.15s-.03-.1-.07-.16c-.07-.1-.07-.1 0-.08l.24.07c.22.06.55.22 1.14.54l.3.14a5 5 0 0 0 1.28.4c.18.03.3.04.34.01.06-.03 0-.06-.25-.15-.3-.1-.7-.3-.66-.34.02-.02 1.13-.08 1.4-.07.14 0 .38.04.52.08.56.15.52.46-.09.76a3 3 0 0 1-1.31.25c-.25 0-.45.02-.45.02l.22.12c.3.14.8.14 1.2.02.14-.05.28-.1.32-.1s.13-.04.22-.08a.53.53 0 0 1 .2-.06c.08.03-.38.4-.66.53a1.2 1.2 0 0 1-.67.15c-.43.01-.74-.05-1.26-.26a37.1 37.1 0 0 1-2.49-1.25c-.07 0-.3-.34-.4-.56-.14-.37-.07-.68.17-.68z"/><path fill="#ff0b00" d="M8.35 15.05c.04 0 .07.04.1.1.1.26.1.48 0 .6a.22.22 0 0 1-.04.03c-.11.08-.4-.04-.47-.19-.03-.07-.01-.16.06-.26a1.04 1.04 0 0 1 .17-.17c.08-.08.14-.11.18-.11zm2.75.09c.13 0 .15.05.07.17l-.02.02-.04.05-.1.1c-.3.27-.45.29-.54.06-.05-.11-.07-.19-.04-.23.03-.04.08-.06.15-.07a21.03 21.03 0 0 0 .51-.1zm-2.05.03c.03 0 .12.07.2.15.16.15.2.3.11.42a.44.44 0 0 1-.14.11c-.1.06-.16.06-.33-.01-.12-.06-.16-.12-.13-.27 0-.04.04-.1.08-.17l.05-.07.04-.06.05-.05.07-.05zm.81 0c.06 0 .33.3.36.4.01.06 0 .1-.02.14h-.01c0 .02-.02.02-.03.03-.2.16-.56.02-.5-.2.02-.1.1-.26.16-.34l.04-.03z"/><path fill="#ff0" d="M18.86 15.44c.04.02.03.08 0 .13h-.01l-.02.03a.27.27 0 0 1-.07.05.48.48 0 0 1-.42-.02.49.49 0 0 0-.18-.06c-.06 0-.08-.03-.06-.07a.18.18 0 0 1 .05-.04c.05-.02.12-.01.23.04.19.1.24.1.36 0 .04-.04.1-.07.12-.07z"/><path fill="#fff" d="M4.71 15.77c0 .02 0 .02.02 0h.11c.49 0 .5.06.7.44l.13.26-.14.23-.2.36c-.09.13-.3.6-.48 1.03-.07.2-.13.29-.2.3-.15.04-.26.03-.29-.04a2.93 2.93 0 0 1-.02-.47c0-.34-.01-.42-.07-.47l-.34-.3-.25-.24v-.01l-.03-.49c-.02-.4-.01-.5.04-.54.03-.03.2-.05.51-.05h.17l.11-.01h.23z"/><path fill="#ff0b00" d="M17.83 15.8a.4.4 0 0 1 .24.08c.05.04.07.27.02.34l-.02.03a.22.22 0 0 1-.27.04.54.54 0 0 0-.21-.06c-.1 0-.11-.02-.1-.1.03-.1.06-.17.1-.23a.3.3 0 0 1 .24-.1z"/><path fill="#fff" d="M14.93 15.84h.55a5.9 5.9 0 0 1 .57.04v.07l.01.17v.34l.01.57-.2.19-.4.35-.2.16-.02 1.3c-.01.72-.03 1.37-.05 1.45s-.04.11-.04.08c-.01-.2-.34-.88-.6-1.22-.15-.2-.27-.4-.27-.43s.05-.14.1-.24a4.97 4.97 0 0 0 .55-2.6l-.01-.24z"/><path fill="#fff" d="M14.45 16.33c.02 0 .05.02.08.05l.05.07.02.03c.06.1.07.19.04.58-.02.43-.04.49-.25 1.04-.27.66-.4.82-.76.95-.3.1-.9.14-1.02.05-.1-.07-.13-.28-.06-.38.02-.03.22-.15.45-.26.4-.2.66-.4.79-.65.09-.17 0-.2-.17-.06-.13.11-.42.25-.53.25-.17 0 .49-.74.9-1.01a.65.65 0 0 0 .26-.27c.09-.25.14-.37.2-.39z"/><path fill="#ff0b00" d="M19.98 16.62c.05 0 .07.01.1.05.07.1.08.36.01.5a.5.5 0 0 1-.02.04v.01h-.01c-.05.06-.1.04-.17-.03-.07-.09-.2-.35-.2-.44l.01-.02a.38.38 0 0 1 .16-.08l.12-.03zm-1.63.08c.03 0 .12.02.18.06.16.08.17.25.03.45 0 .02-.02.03-.03.04a.73.73 0 0 0-.12.22.1.1 0 0 1-.01.04.06.06 0 0 1-.09 0c-.08-.05-.23-.42-.2-.51 0-.05.04-.1.07-.16l.04-.05.02-.03c.04-.04.08-.06.11-.06z"/><path fill="#00acff" d="M6.12 16.95c.16 0 .36.06.68.22.3.14.58.37.52.42-.01.02-.12.06-.23.1s-.3.13-.42.2c-.53.32-.65.37-.93.39-.24.02-.29.04-.29.1 0 .08.08.1.42.13.2.02.56-.09.99-.3.7-.32.84-.34 1.71-.19a11.72 11.72 0 0 0 .48.08c.24.03.41.04.65.03.18 0 .34.01.34.02 0 .05-.31.47-.36.49a2 2 0 0 1-.3-.04c-1.12-.25-1.46-.28-1.48-.14-.02.07.11.13.82.35.66.21.78.27.83.38l.12.44c.04.18.18.55.3.81l.23.52c0 .02-.08.01-.2 0-.2-.03-.87-.33-.87-.4 0-.05-.29-.17-.35-.15-.08.03-.04.15.1.32.06.08.22.21.45.36l-.03.02.04-.01a16.17 16.17 0 0 0 .46.3c.14.09.14.14.01.4-.15.29-.14.46.04.7.24.32.25.33.42.3.14 0 .17 0 .23.12l.07.13.2-.02a13.03 13.03 0 0 0 .61-.06l.18-.02-.16.45a8.71 8.71 0 0 1-1.35 2.56c-.2.2-.23.2-.48-.1A10.9 10.9 0 0 1 8 22.4c-.02-.03-.32.07-.32.1s.5 1.49.6 1.74c.1.26.22.52.33.77l.02.04c.43.9.9 1.62 1.09 1.62.2 0 .47-.23.67-.57l.14-.21c.03-.02.35-.62.72-1.35a6.87 6.87 0 0 0 .6-1.61c.1-.18.18-.66.2-1.15.03-.44.06-.6.16-.87.07-.2.16-.48.2-.65.13-.59.29-.72 1.05-.85.37-.06.37-.06.4-.1.14-.13.53.3.76.86.18.41.45 1.74.55 2.73l.11.82c.02.12.04.28.04.39 0 .24.09.64.23 1.1.13.41.11.59-.05.72-.2.15-.25.12-.29-.17a5.24 5.24 0 0 0-.08-.53 23.39 23.39 0 0 1-.33-2.04 17.7 17.7 0 0 0-.3-1.95c-.06-.37-.07-.38-.17-.36l-.13.05c-.01.01 0 .2.05.42l.12.66c.14.94.23 1.78.3 2.6a38.72 38.72 0 0 0 .23 2.15c0 .09-.16.15-.46.18l-.23.02v-.16a14 14 0 0 1-.13-1.57 52.15 52.15 0 0 0-.24-2.94c-.02-.32-.02-.32-.13-.31l-.1.01v2.75c-.01 1.74 0 2.76.03 2.8.02.02.05.03.07.02.06-.04.05.04-.04.18-.14.23-.64.5-1.22.65a6.1 6.1 0 0 1-1.59.06c-.65-.15-.83-.22-.83-.35 0-.03.15-.15.32-.27.33-.22.93-.66 1.14-.83.12-.1.12-.24.02-.24-.03 0-.28.13-.55.29-.67.38-1.35.7-1.5.7a9.3 9.3 0 0 1-1.73-.48c-.52-.17-.97-.3-1-.29-.11.07-.01.16.42.37.26.13.61.27.8.32l.39.12.3.13.24.11c0 .07-.3.19-.57.24-.6.11-1.1.06-1.53-.16-.22-.11-.24-.18-.1-.25.12-.05.18-.2.08-.2-.13 0-.8-.37-1.17-.66a3.4 3.4 0 0 1-1.19-1.31c-.25-.45-.36-1.04-.2-1.04.03 0 .06.05.08.12.11.54.58 1.4.71 1.3.07-.03.05-.12-.05-.28a1.6 1.6 0 0 1-.27-.9c0-.28.07-.68.18-.92.3-.68.6-1.43.6-1.5-.02-.04-.07-.07-.15-.08-.13-.01-.13 0-.26.33a11.54 11.54 0 0 1-.46 1c-.2.28-.32.26-.79-.17-.3-.28-.57-.83-.57-1.16 0-.19.17-.54.35-.73.22-.23.47-.17.48.1 0 .22-.08.33-.27.42-.2.09-.23.16-.1.26.16.11.47.01.64-.21.06-.09.17-.23.24-.3a4.24 4.24 0 0 0 .43-.57v-.01l.17-.2.35-.4.36-.41c.18-.2.2-.25.07-.32-.08-.04-.15.02-.8.66-.38.39-.72.7-.75.7-.13 0-.6-1.05-.59-1.36 0-.2.4-.75.67-.92l.09-.06.03-.02.18.18.02.02v.03l.05.02.07.1.05.08c0 .09-.45.3-.61.29-.25-.02-.28.02-.13.16.19.18.4.13.8-.15.14-.1.37-.24.52-.31s.28-.16.28-.19c0-.06 0-.06-.36-.06-.23 0-.27-.02-.34-.11a.86.86 0 0 1-.15-.57c.07-.4.74-1.42 1.01-1.54a.37.37 0 0 1 .14-.02z"/><path fill="#fff" d="M11.24 17.47c.08 0 .14.03.17.12.04.1 0 .15-.2.44a2.95 2.95 0 0 0-.43.78.8.8 0 0 0-.06.22c-.07.3-.05.63.1 1.75l.09.61-.1.23-.01.05c-.14.34-.3.65-.4.8-.1.14-.14.15-.2.05-.02-.04-.04-.06-.04-.04 0 .05-.16-.14-.16-.2 0-.03-.02-.06-.04-.06-.13 0 .02-.44.28-.83a.9.9 0 0 0 .17-.43c0-.1-.14-.52-.41-1.26-.15-.4-.17-.5-.15-.68.03-.22.07-.3.4-.7.4-.53.77-.83.99-.85z"/><path fill="#000" d="M13.87 17.97c-.03 0-.07.05-.07.1 0 .07 0 .07.06 0 .04-.03.06-.08.05-.09a.04.04 0 0 0-.04-.01zm.02.33c-.05 0-.14.08-.11.12.01.03.05.02.09-.02.04-.04.05-.08.04-.1h-.02zm-.05.36c-.04 0-.08.07-.1.18-.02.09-.02.1.03.09.07-.03.13-.21.09-.26h-.02z"/><path fill="#ff0b00" d="M18.36 18.89c.08 0 .15.01.18.05.12.11.17.31.12.42l-.02.04c-.04.04-.09.05-.18.05-.16 0-.18-.01-.24-.17-.04-.09-.12-.18-.17-.2l-.1-.05.11-.07c.08-.05.2-.08.3-.08z"/><path fill="#000" d="M11.72 19.16c-.05 0-.15.22-.15.32 0 .04.01.05.04.05 0 .02.03 0 .04-.03a.36.36 0 0 0 .06-.06c.08-.11.08-.28 0-.28z"/><path fill="#ff0b00" d="M19.3 19.61c.03 0 .05.02.08.05.1.1.16.35.1.44-.07.07-.17.06-.25-.03-.08-.1-.08-.2 0-.37l.05-.07c.01-.02.02-.02.03-.02zm-1.4.24c.1 0 .15.06.2.17.08.15.07.16 0 .3l-.04.04v.02h-.01c-.12.16-.25.12-.47-.12l-.2-.22.23-.11a.67.67 0 0 1 .29-.08zm.05 1.3c.07 0 .14.03.18.08.09.1.1.3.02.4l-.01.02c-.1.09-.24.08-.43-.02-.15-.07-.19-.14-.12-.24a.26.26 0 0 1 .02-.03.8.8 0 0 1 .07-.07.42.42 0 0 1 .27-.14zm3.46 4.71h.14l-.01.26c0 .12-.02.2-.05.24-.04.03-.1 0-.18-.04a.48.48 0 0 0-.2-.06c-.12 0-.12-.1-.01-.22a.59.59 0 0 1 .04-.05c.1-.1.18-.13.27-.13z"/><path fill="#ff0" d="M21.89 26.67c.04 0 .06.02.04.05a.48.48 0 0 1-.1.07c-.17.11-.22.11-.35 0l-.09-.06h.11c.08 0 .21-.02.28-.04a.38.38 0 0 1 .11-.02z"/><path fill="#ff0b00" d="M20.85 26.82h.01c.07.03.18.22.2.36l-.01.08a.53.53 0 0 1-.17.08c-.1.04-.22.1-.26.15l-.01.02-.01.02c-.07.06-.16.08-.16.02l-.02-.15a.5.5 0 0 1 .08-.36v-.01l.03-.02a.56.56 0 0 1 .11-.1.47.47 0 0 1 .2-.09zm2.34.45c.05 0 .1.03.16.1.1.1.12.28.05.45a.31.31 0 0 1-.03.07c-.04.04-.08 0-.17-.1-.14-.13-.18-.28-.12-.43l.02-.04a.1.1 0 0 1 .09-.05z"/><path fill="#000" d="M5.5 27.71l.1.1-.05-.05a.84.84 0 0 1-.05-.05z"/><path fill="#ff0b00" d="M21.77 27.8c.16 0 .27.1.27.26 0 .09 0 .14-.04.2l-.02.03-.17.14c-.1.08-.2.14-.21.14-.07 0-.13-.12-.16-.28-.01-.14 0-.2.1-.34l.02-.04.02-.03c.06-.06.1-.08.19-.08z"/></svg>