<svg version="1.1" xmlns="http://www.w3.org/2000/svg" viewBox="0 0 24 32"><path fill="#dc281e" d="M6.11 4.1v-.7h.96v.72z"/><path fill="#000" d="M7.1 4.12h-.07l.01-.7h-.9v.68h-.06v-.74H7.1z"/><path fill="#dc281e" d="M7.97 4.1v-.7h.96v.72z"/><path fill="#000" d="M8.95 4.12H8.9v-.7H8v.68h-.06v-.74h1.02z"/><path fill="#dc281e" d="M15 4.1v-.7h.97v.72z"/><path fill="#000" d="M16 4.12h-.07v-.7h-.89v.68h-.06v-.74H16z"/><path fill="#dc281e" d="M16.67 4.1v-.7h.96v.72z"/><path fill="#000" d="M17.66 4.12h-.07l.01-.7h-.9v.68h-.06v-.74h1.02z"/><path fill="#f4f0e8" d="M.83 8h22.21v13.44c-.12 4.43-5.12 10.24-10.91 10.37C5.76 31.68.96 25.92.83 21.44V8z"/><path fill="#000" d="M12.13 31.94a11.8 11.8 0 0 1-8.08-3.6C2.02 26.32.77 23.75.7 21.45V7.87h22.47v13.57c-.07 2.23-1.32 4.8-3.37 6.88-2.2 2.24-4.99 3.56-7.67 3.62zM.96 8.13v13.31c.06 2.22 1.29 4.74 3.27 6.73 2.2 2.2 5.01 3.45 7.9 3.51 2.6-.06 5.34-1.34 7.5-3.53 2-2.04 3.22-4.55 3.28-6.72V8.13H.96z"/><path fill="#dc281e" d="M23.14 4.1v3.77H.74V4.1h22.4z"/><path fill="#000" d="M23.17 7.9H.7V4.08h22.47V7.9zM.77 7.85H23.1V4.13H.77v3.71z"/><path fill="#000" d="M.74 6.37h22.4v.06H.74v-.06zm0 .77h22.4v.06H.74v-.06z"/><path fill="#dc281e" d="M.1.13h1.6v.64h.96V.13h1.28v.64h.96V.13h1.28v.96h-.64V4.1H.74v-3H.1V.12z"/><path fill="#000" d="M5.57 4.13H.7v-3H.06V.1h1.67v.64h.9V.1h1.34v.64h.9V.1H6.2v1.02h-.64v3.01zm-4.8-.06H5.5V1.06h.64v-.9H4.93V.8H3.9V.16H2.7V.8H1.66V.16H.13v.9h.64v3z"/><path fill="#000" d="M.75 3.36h4.8v.07H.75v-.07zm0-.7h4.8v.06H.75v-.06zm0-.83h4.8v.06H.75v-.06zm0-.77h4.8v.06H.75v-.06z"/><path fill="#000" d="M3.08 2.7h.07v.7h-.07v-.7zm-.06-1.6h.06v.76h-.06v-.77zm-.96 2.3h.06v.7h-.06v-.7zm2.3 0h.07v.7h-.07v-.7zm-2.4-1.53h.6v.81h-.6v-.81zm2.25-.02h.6v.82h-.6v-.82z"/><path fill="#dc281e" d="M8.88.13h1.6v.64h.96V.13h1.29v.64h.95V.13h1.28v.96h-.64V4.1h-4.8v-3h-.64V.12z"/><path fill="#000" d="M14.36 4.13H9.49v-3h-.64V.1h1.67v.64h.9V.1h1.34v.64h.9V.1H15v1.02h-.64v3.01zm-4.8-.06h4.73V1.06h.64v-.9h-1.21V.8h-1.03V.16h-1.21V.8h-1.03V.16H8.92v.9h.64v3z"/><path fill="#000" d="M9.53 3.36h4.8v.07h-4.8v-.07zm0-.7h4.8v.06h-4.8v-.06zm0-.83h4.8v.06h-4.8v-.06zm0-.77h4.8v.06h-4.8v-.06z"/><path fill="#000" d="M11.86 2.7h.07v.7h-.07v-.7zm-.06-1.6h.06v.76h-.06v-.77zm-.96 2.3h.06v.7h-.06v-.7zm2.3 0h.06v.7h-.06v-.7zm-2.4-1.53h.6v.81h-.6v-.81zm2.25-.02h.6v.82h-.6v-.82z"/><path fill="#dc281e" d="M23.78.13h-1.6v.64h-.96V.13h-1.28v.64h-.96V.13H17.7v.96h.64V4.1h4.8v-3h.64V.12z"/><path fill="#000" d="M23.17 4.13H18.3v-3h-.64V.1h1.35v.64h.9V.1h1.34v.64h.9V.1h1.66v1.02h-.64v3.01zm-4.8-.06h4.73V1.06h.64v-.9h-1.53V.8h-1.03V.16h-1.21V.8h-1.03V.16h-1.21v.9h.64v3z"/><path fill="#000" d="M23.14 3.36h-4.8v.07h4.8v-.07zm0-.7h-4.8v.06h4.8v-.06zm0-.83h-4.8v.06h4.8v-.06zm0-.77h-4.8v.06h4.8v-.06z"/><path fill="#000" d="M20.8 2.7h-.06v.7h.06v-.7zm.06-1.6h-.06v.76h.06v-.77zm.96 2.3h-.06v.7h.06v-.7zm-2.3 0h-.06v.7h.06v-.7z"/><path fill="#000" d="M21.92 2.69h-.6v.81h.6v-.8zm-2.25-.02h-.6v.81h.6v-.81zM.74 4.83h22.4v.07H.74v-.07zm0 .77h22.4v.07H.74V5.6z"/><path fill="#000" d="M20.67 4.1h.07v.77h-.07V4.1zm-2.17 0h.06v.77h-.06V4.1zm-2.24 0h.06v.77h-.06V4.1zm-2.44 0h.07v.77h-.07V4.1zm1.22.77h.06v.76h-.06v-.76zm2.36 0h.07v.76h-.06v-.76zm2.12 0h.06v.76h-.06v-.76zm2.3 0h.07v.76h-.07v-.76zm-1.15.76h.07v.77h-.07v-.77zm-2.17 0h.06v.77h-.06v-.77zm-2.24 0h.06v.77h-.06v-.77zm0 1.54h.06v.7h-.06v-.7zm1.19-.74h.06v.7h-.06v-.7zm2.07-.03h.06v.77h-.06V6.4zm2.3 0h.07v.77h-.07V6.4zm-1.15.77h.07v.7h-.07v-.7zm-2.17 0h.06v.7h-.06v-.7zM11.97 4.1h.06v.77h-.06V4.1zm-8.83 0h.06v.77h-.06V4.1zm2.11 0h.06v.77h-.06V4.1zm2.3 0h.07v.77h-.07V4.1zm2.5 0h.06v.77h-.06V4.1zm-1.22.77h.07v.76h-.07v-.76zm-2.37 0h.07v.76h-.07v-.76zm-2.04 0h.06v.76h-.06v-.76zm-2.44 0h.07v.76h-.07v-.76zm1.16.76h.06v.77h-.06v-.77zm2.09.03h.06l.02.74h-.07l-.01-.74zm2.32-.03h.07v.77h-.07v-.77zm1.28.77h.07v.77h-.07V6.4zm-2.37 0h.07v.77h-.07V6.4zm-2.05 0h.07l.01.79h-.06l-.02-.79zm-2.43 0h.07v.77h-.07V6.4zm1.16.77h.06v.7h-.06v-.7zm2.11 0h.06v.7h-.06v-.7zm2.3 0h.07v.7h-.07v-.7z"/><path fill="#009a3d" d="M19.88 18.74c-1.53.82-1.94-.28-2.47-.98-.5.84-.38 1.46-.02 2.52a1.98 1.98 0 0 0-1.12-.55c-.04-.74.2-1.51.4-2.2-1.92.66-2.43-.57-2.52-1.7.02-.78.13-1.44-.28-1.85.39-.06.77-.23 1.16.37-.04-.53-.12-1.17.5-1.54.73-.4.77-.56.9-1.1.44.01.62.39.72.9.29-1.22 1.92-.85 2.47-1.65-.03 1.26 1 1.53.93 2.61.34-.12.66-.14.96-.01-.14.36-.36.73-.16 1.09.45.92.15 1.5-.55 1.75.52-.06.9.14 1.22.47-1.3.6-1.1 1.08-2.15 1.87z"/><path fill="#000" d="M17.39 20.38a.1.1 0 0 1-.07-.03c-.36-.37-.73-.45-1.07-.53-.05 0-.07-.04-.08-.09a6.3 6.3 0 0 1 .35-2.07c-.7.21-1.26.18-1.68-.1-.45-.3-.73-.9-.8-1.72v-.02l.02-.34c.02-.62.05-1.12-.28-1.44-.02-.03-.03-.07-.02-.1a.1.1 0 0 1 .07-.06c.06 0 .1-.02.15-.03.29-.05.6-.11.92.2-.03-.48.02-1 .56-1.33.7-.38.74-.52.87-1.04.01-.04.05-.07.1-.07.42 0 .62.32.73.66.26-.5.81-.66 1.3-.81.44-.13.85-.25 1.07-.56.03-.04.07-.06.1-.04s.08.05.07.1c-.02.6.24.99.48 1.34.22.32.45.66.46 1.14.32-.1.62-.1.9.03a.1.1 0 0 1 .04.12c-.01.06-.04.1-.06.17-.12.3-.24.57-.1.85.24.48.3.9.15 1.24a1 1 0 0 1-.39.46c.33.05.62.22.9.5.02.03.03.05.02.08s-.02.06-.05.07c-.75.33-.98.64-1.27.98-.2.25-.42.53-.86.86l-.01.01c-1.4.76-1.94-.05-2.38-.7l-.13-.18c-.4.73-.28 1.28.06 2.32a.1.1 0 0 1-.04.11l-.04.02zm-1.03-.72c.27.06.55.13.83.33-.28-.92-.33-1.5.14-2.28.02-.02.04-.04.08-.04s.06.01.08.04l.21.3c.45.67.9 1.31 2.12.65.41-.32.62-.58.82-.83.28-.34.52-.64 1.2-.98-.3-.28-.64-.4-1.04-.35-.05 0-.1-.02-.1-.08s.02-.1.07-.1c.32-.12.53-.3.64-.54.11-.28.07-.65-.14-1.08-.18-.34-.05-.68.09-1l.03-.09c-.24-.07-.5-.06-.8.06-.03 0-.06 0-.09-.02s-.03-.05-.03-.08c.02-.5-.2-.81-.43-1.15a2.4 2.4 0 0 1-.5-1.22c-.26.23-.64.34-1 .45-.59.17-1.15.33-1.3.98a.1.1 0 0 1-.09.08.09.09 0 0 1-.09-.08c-.1-.52-.26-.76-.54-.8-.13.49-.2.67-.94 1.07-.54.32-.49.88-.45 1.38v.07c.01.04-.02.08-.06.1s-.09 0-.1-.04c-.31-.46-.59-.42-.91-.36.27.37.24.88.22 1.46l-.02.33c.04.54.2 1.24.7 1.58.4.26.97.26 1.7 0 .03 0 .07 0 .1.03s.03.06.02.1c-.21.65-.44 1.4-.42 2.1z"/><path fill="#000" d="M16.84 17.37c-.01 0-.01 0 0 0a.07.07 0 0 1-.07-.07c.1-1.12.62-1.63 1.12-2.13.5-.5.97-.96.98-2.05 0-.03.03-.06.07-.06.03 0 .06.03.06.06 0 1.14-.53 1.65-1.02 2.14-.49.48-.99.98-1.08 2.06 0 .03-.03.05-.06.05z"/><path fill="#009a3d" d="M4.22 18.79c1.53.82 1.94-.28 2.47-.98.5.84.38 1.46.02 2.53.37-.38.75-.47 1.12-.55.04-.75-.2-1.52-.4-2.22 1.92.67 2.43-.56 2.52-1.68-.02-.79-.13-1.45.29-1.86-.4-.05-.78-.23-1.17.37.04-.53.12-1.17-.5-1.54-.73-.4-.77-.56-.9-1.1-.44.01-.62.39-.72.9-.28-1.22-1.92-.85-2.47-1.65.04 1.26-1 1.53-.93 2.62a1.24 1.24 0 0 0-.95-.02c.14.36.35.73.16 1.09-.46.92-.16 1.5.55 1.75a1.4 1.4 0 0 0-1.23.47c1.3.6 1.11 1.08 2.15 1.87z"/><path fill="#000" d="M6.71 20.43l-.05-.01a.1.1 0 0 1-.04-.12c.34-1.02.45-1.58.06-2.31l-.13.18c-.44.64-.98 1.45-2.38.7A4.3 4.3 0 0 1 3.3 18c-.28-.35-.52-.65-1.26-.98-.03-.01-.06-.04-.06-.07s0-.06.02-.08c.27-.28.57-.45.9-.5a1.07 1.07 0 0 1-.39-.46c-.14-.34-.09-.76.15-1.24.14-.28.02-.55-.1-.85l-.07-.17c-.02-.05 0-.1.05-.12.27-.12.57-.13.9-.03.01-.48.23-.82.45-1.14.24-.36.5-.73.48-1.35 0-.04.03-.08.07-.1s.08 0 .1.04c.22.32.63.44 1.07.57.5.14 1.05.3 1.3.81.12-.35.32-.65.74-.66a.1.1 0 0 1 .1.07c.13.51.16.65.86 1.04.54.32.59.85.56 1.32.32-.3.63-.24.92-.19.05 0 .1.02.14.03.04 0 .07.03.08.06s0 .07-.02.1c-.33.32-.31.82-.28 1.44l.01.34v.02c-.06.83-.33 1.42-.8 1.72-.4.28-.97.31-1.67.1.2.65.39 1.37.35 2.07 0 .05-.03.08-.08.1a1.86 1.86 0 0 0-1.1.54zm-.02-2.71a.1.1 0 0 1 .08.04c.47.78.42 1.36.14 2.28.29-.2.57-.27.83-.33.02-.71-.2-1.45-.4-2.1-.02-.04 0-.08.02-.1s.07-.04.1-.02c.72.25 1.3.25 1.69-.01.51-.34.66-1.05.7-1.58l-.01-.33c-.03-.58-.05-1.09.22-1.46-.32-.06-.6-.1-.9.36-.03.04-.07.05-.11.04s-.07-.06-.07-.1v-.07c.05-.5.1-1.06-.44-1.38-.73-.4-.81-.58-.94-1.08-.28.04-.44.29-.54.8-.01.05-.05.09-.1.09a.1.1 0 0 1-.1-.08c-.14-.64-.7-.8-1.28-.98-.36-.11-.74-.22-1-.45-.05.54-.29.9-.5 1.22-.24.34-.46.66-.43 1.15 0 .03-.01.06-.04.08s-.06.03-.09.02c-.3-.12-.55-.13-.8-.06l.04.08c.13.33.27.66.09 1.01-.21.43-.26.8-.14 1.08.1.25.31.43.64.54a.1.1 0 0 1 .06.1.11.11 0 0 1-.1.08c-.4-.04-.73.07-1.04.35.68.33.93.63 1.2.98.2.25.41.51.82.83 1.24.66 1.66.03 2.13-.65l.2-.3c.01-.04.04-.05.07-.05z"/><path fill="#000" d="M7.26 17.42c-.03 0-.06-.02-.06-.05-.09-1.08-.59-1.58-1.07-2.06-.5-.5-1.02-1-1.03-2.14 0-.03.03-.06.07-.06.03 0 .06.03.06.06 0 1.09.49 1.55.99 2.05.5.5 1.01 1 1.11 2.13 0 .04-.02.07-.06.07z"/><path fill="#009a3d" d="M9.21 25.8c1.16 1.3 1.92.4 2.65-.08-.52 1.17-.12 2.03-.12 2.93.4-.46.68-.94 1.05-.9-.5-.65-.54-1.28-.13-1.99 1.58 1.29 2.46.28 2.91-.75.25-.74.37-1.4.9-1.64-.34-.2-.65-.48-1.22-.05.22-.49.52-1.07.06-1.62-.56-.62-.54-.8-.49-1.34-.41-.14-.7.15-.97.6.14-1.25-1.52-1.46-1.76-2.4-.4 1.2-1.46 1.11-1.77 2.15a1.24 1.24 0 0 0-.9-.34c.02.4.1.8-.21 1.09-.74.7-.66 1.36-.08 1.83a1.4 1.4 0 0 0-1.3.03c1.02 1 .67 1.4 1.38 2.48z"/><path fill="#000" d="M11.74 28.75h-.03a.1.1 0 0 1-.06-.1c0-.26-.04-.52-.07-.79a3.85 3.85 0 0 1 .08-1.88l-.03.03c-.64.46-1.42 1.04-2.48-.14l-.01-.01c-.3-.47-.42-.8-.52-1.1-.14-.43-.26-.8-.85-1.36-.02-.02-.04-.05-.03-.08s.02-.06.05-.07c.35-.18.68-.23 1.01-.17-.13-.17-.2-.37-.21-.57-.02-.36.17-.74.56-1.11.22-.21.2-.51.2-.84l-.01-.18c0-.05.04-.1.08-.1.3-.01.58.08.86.28.17-.45.5-.68.81-.91.35-.26.72-.52.91-1.11a.11.11 0 0 1 .1-.07.1.1 0 0 1 .08.07c.1.37.44.63.81.9.42.3.88.64.96 1.2.22-.28.51-.5.91-.37a.1.1 0 0 1 .07.1c-.05.53-.07.67.46 1.27.4.49.26 1 .08 1.44.4-.19.67-.02.92.13l.13.07c.04.02.05.05.05.09s-.02.06-.05.08c-.42.19-.57.66-.75 1.26l-.1.33c-.36.8-.8 1.26-1.34 1.39-.5.11-1.05-.06-1.64-.52-.33.63-.27 1.18.17 1.78.03.03.03.08 0 .1a.1.1 0 0 1-.09.05c-.24-.03-.45.24-.72.57a7.08 7.08 0 0 1-.3.34zm.12-3.12a.1.1 0 0 1 .06.02.1.1 0 0 1 .03.11c-.35.8-.27 1.44-.18 2.07l.06.57.09-.1c.23-.3.45-.56.7-.63a1.7 1.7 0 0 1-.04-1.95l.07-.05c.03 0 .05 0 .08.03.58.47 1.11.66 1.57.55.47-.12.87-.54 1.2-1.27l.1-.31c.17-.55.32-1.04.7-1.3-.29-.16-.53-.3-.97.03a.1.1 0 0 1-.12 0 .09.09 0 0 1-.03-.11l.03-.07c.2-.45.44-.97.05-1.45-.55-.62-.57-.82-.52-1.33-.28-.06-.51.12-.79.57-.02.04-.06.06-.1.05s-.07-.06-.07-.1c.07-.66-.39-1-.88-1.37-.3-.22-.62-.45-.8-.76-.21.5-.57.75-.88.97-.33.24-.64.47-.79.94 0 .03-.03.06-.06.07s-.06 0-.09-.02c-.24-.2-.48-.3-.73-.32v.09c.02.35.03.7-.25.98-.35.33-.52.66-.5.97 0 .26.15.5.42.72a.1.1 0 0 1 .02.12.1.1 0 0 1-.12.04 1.26 1.26 0 0 0-1.1-.02c.53.53.66.9.8 1.32.1.3.21.63.5 1.06.93 1.05 1.55.6 2.2.11l.31-.22.03-.01z"/><path fill="#000" d="M12.56 25.56h-.02a.07.07 0 0 1-.05-.08c.28-1.04-.02-1.68-.31-2.3-.3-.63-.62-1.29-.24-2.35.01-.04.05-.06.08-.04s.05.04.04.08c-.36 1.02-.07 1.62.23 2.26.3.63.62 1.3.33 2.38 0 .03-.03.05-.06.05z"/><path fill="#dc281e" d="M10.23 5.7c.56-1.27 2.98-1.25 3.44 0v2.13h-3.44V5.71z"/><path fill="#000" d="M13.73 7.9h-3.56V5.67c.28-.63 1.02-1.02 1.9-.99.81.03 1.45.41 1.66 1v2.2zm-3.44-.13h3.31V5.72c-.23-.63-.95-.88-1.54-.9-.81-.02-1.5.33-1.76.9v2.05z"/><path fill="#000" d="M10.2 5.94l.04-.12.78.3-.05.12-.77-.3zm.93-1.02l.11-.06.37.7-.12.07-.36-.71zm1.32.68l.4-.7.11.07-.4.69-.1-.07zm.45.64l.74-.34.05.11-.74.35-.06-.12z"/><path fill="#000" d="M10.97 6.07c.2-.81 1.85-.75 1.99 0V7.8h-2V6.07z"/></svg>