<svg version="1.1" xmlns="http://www.w3.org/2000/svg" viewBox="0 0 28 32"><path fill="#fff" d="M.4.4H28v15.76c0 4.6-3.62 13.15-13.8 15.44C4 29.3.4 20.76.4 16.16z"/><path fill="#000" d="M.4 14.85l1.3.79v1.64l1 .6v-1.65l.32.2v-7.5l2.1-2.16c-.65-.27-.45-1.12.2-1.12s.8.85.2 1.12l2.43 2.16v10.45l1.64.99v-1.9h.99V3.34h.99v.99h.98v-.99h1.05v.99h1.12v-.99h1.12v.99h.98v-.99h.99v15.11h.99v1.9l1.64-.98V8.93l2.1-2.16c-.59-.27-.46-1.12.2-1.12s.79.85.2 1.12l2.43 2.16v7.43l.33-.2V18l.98-.59v-1.77l1.18-.73.14 1.25c0 6.24-4.28 12.82-13.8 15.44C4.67 28.98.4 22.08.4 16.16z"/><path fill="#da121a" d="M16.08 9.28H17V7.31c0-.6-.92-.6-.92 0zm-.03 13.25h.92v-1.57c0-.6-.92-.6-.92 0zM3.55 8.74H5.9L5.13 7.1zM4 9.2h.67v.53H4V9.2zm2.04 0h.53v.53h-.53V9.2z"/><path fill="#da121a" d="M3.35 9.2h.4v.79h1.18v-.8h.79v.8h.85v8.6l-1.25-.78v1.64l-.98-.6v-1.63l-.99-.6z"/><path fill="#000" d="M4.73 14.06h.92v-1.5c0-.6-.92-.6-.92 0z"/><path fill="#da121a" d="M21 8.68h2.36l-.79-1.64zm.45.46h.66v.53h-.66v-.53zm2.05 0h.52v.53h-.53v-.53z"/><path fill="#da121a" d="M20.8 9.14h.4v.79h1.17v-.79h.8v.79h.85l.03 8.6-.92.6v-1.39l-1.58.92v1.38l-.72.46v-3.9z"/><path fill="#000" d="M22.18 14h.92v-1.5c0-.6-.92-.6-.92 0z"/><path fill="#da121a" d="M10.84 3.61h.46v.99h1.51v-.99h.53v.99h1.64v-.99h.6v14.85h-.93v.8h-1.11v-.8h-1.32v.8h-1.11v-.8h-.33z"/><path fill="#da121a" d="M9.54 29.53c.74.39 1.47.76 2.21.99.09-1.69.12-3.51.28-4.83.1-.96 1.4-2.18 3.48-1.18v-5.78h-.6v.78h-1.57v-.78h-.85v.78h-1.65v-.78h-.98zm11.09-4.76l1.19-.72v1.18l-1.19.72z"/><path fill="none" stroke="#da121a" stroke-width=".39" stroke-miterlimit="4" stroke-linecap="round" stroke-linejoin="round" d="M8.15 24.77v1.58l.94.61"/><path fill="#da121a" d="M8.02 19.91l1.18.72v1.12l-1.18-.72zm10.78.92l1.37-.85v1.38l1.78-1.06v-1.38l.85-.52v1.38l1.64-.99v-1.38l.92-.59c.03 1.52.12 3.05-.07 4.57l-1.9 1.21v1.65l-1.18.72v-1.64l-1.97 1.24v1.65l-1.38.85zm.06 6.7l5.91-3.67c-.77 2.9-3.35 4.68-5.91 5.84zM2.64 23.2c1.6 1.14 5.11 3.35 5.11 3.35v2.1c-2.02-1.56-4.09-3.33-5.11-5.45zM.6 15.44l.78.46v1.64l1.64.99v-1.7l.99.65v1.64l1.7.99v-1.64l.86.52v1.64l1.18.73v3.09l-1.44-.92v1.7l-1.32-.85v-1.64l-1.97-1.25v1.64l-.85-.52a13.79 13.79 0 0 1-1.58-7.17z"/><path fill="#da121a" d="M23.85 22.8l1.32-.85c-.05.8-.26 1.4-.26 1.4s-.41.31-1.06.63zM13 25.15l.04 5.8c-.3-.07-.6-.16-.91-.3l.16-3.98c.05-1.1.55-1.68.7-1.52zm3.1-9.12h.92v-1.97c0-.59-.92-.59-.92 0z"/><path fill="#000" d="M13.67 9.27h.92V7.3c0-.6-.92-.6-.92 0zm-2.26 6.74h.92v-1.97c0-.6-.92-.6-.92 0zm2.28 0h.92v-1.97c0-.6-.92-.6-.92 0zm-2.33-6.74h.92V7.3c0-.59-.92-.59-.92 0zm-1.15 13.25h.92v-1.57c0-.6-.92-.6-.92 0zm1.93 0h.92v-1.57c0-.6-.92-.6-.92 0zM14 22.5h.91v-1.58c0-.59-.92-.59-.92 0z"/><path fill="#da121a" d="M17.4 22.52h.91v-1.57c0-.6-.92-.6-.92 0zm-1.6 2.68l-.05 5.8c.3-.07.61-.16.92-.3l-.17-3.98c-.04-1.1-.55-1.68-.7-1.52zM4.67 23l-1.32-.86v1.19l1.31.85zm3.08 1.9l-1.11-.65v1.18l1.11.66z"/><path fill="none" stroke="#000" stroke-width=".39" stroke-miterlimit="4" stroke-linecap="butt" stroke-linejoin="miter" d="M.4.4H28v15.76c0 4.6-3.62 13.15-13.8 15.44C4 29.3.4 20.76.4 16.16z"/></svg>