<svg version="1.1" xmlns="http://www.w3.org/2000/svg" viewBox="0 0 28 32"><path fill="#18140c" stroke="#000" stroke-width=".99" stroke-miterlimit="4" stroke-linecap="butt" stroke-linejoin="miter" d="M13.39 31.44a13.55 13.55 0 0 1-10.9-6.5 13.5 13.5 0 0 1-2-6.3V.57h27.27v8.88c0 5.14 0 9.04-.02 9.25A13.59 13.59 0 0 1 20.25 30a13.9 13.9 0 0 1-4.86 1.41c-.22.02-1.68.04-2 .03z"/><path fill="#fdca00" d="M9.89 4.68c0-.03-.04-.05-.05-.03-.02.02 0 .05.03.05l.02-.02zm-.54-1.51c.04-.01.04-.02.01-.02l-.07-.01c-.02-.01-.03 0-.03.02 0 .03.03.04.1.01zm-1.01-.19c0-.01-.01-.02-.02 0l-.02.01.02.01c.02 0 .02 0 .02-.02z"/><path fill="#0762bc" stroke="#000" stroke-width="1" stroke-miterlimit="4" stroke-linecap="butt" stroke-linejoin="miter" d="M9.43 18.44a6.7 6.7 0 0 0 2.08-.9 9.6 9.6 0 0 1 1.69-.82 2.4 2.4 0 0 1 1-.16c.35 0 .43 0 .67.06.49.1 1.12.34 1.76.65 1.07.53 1.73.84 2.11.97a3.2 3.2 0 0 0 2.5-.04c.33-.13.5-.22 1.25-.63 1.58-.84 2.08-1.02 2.82-1.02.59 0 1.14.15 2 .54l.26.1c.02 0 .02-.45.02-1.33v-1.34l-.25-.12c-.5-.24-1-.42-1.46-.52-.2-.05-.29-.06-.6-.06-.4 0-.6.04-1.03.18a7.9 7.9 0 0 0-1.27.57c-1.18.62-1.56.8-2 .95a3.7 3.7 0 0 1-2.29-.06c-.39-.13-.57-.2-2.33-1.04a5.55 5.55 0 0 0-1.96-.6c-.7-.04-1.33.16-2.58.84a8.64 8.64 0 0 1-2.23.97 3.53 3.53 0 0 1-1.12.02 7.94 7.94 0 0 1-2.22-.86c-1.58-.79-2.11-.96-2.9-.96-.49 0-.92.08-1.48.28-.3.1-1 .4-1.13.48l-.09.05v1.32l.01 1.35a.9.9 0 0 0 .27-.1c.62-.3 1.33-.54 1.83-.63a4.18 4.18 0 0 1 2.33.4c.13.05.56.26.96.46 1.39.7 1.85.88 2.47 1 .27.04.68.04.91 0z"/><path fill="#f4f0e8" d="M10.1 2.9c0-.05-.19-.37-.23-.39l-.07.05c-.09.1-.2.12-.32.06-.08-.06-.1-.14-.06-.24.02-.04.03-.07.02-.08l-.22-.03c-.2-.02-.2-.02-.2.02l.16.3c.23.34.3.38.72.37.21 0 .21 0 .2-.05zm4.25 28.33c.03-.03.03-.61.04-3.56v-3.51h5.2l5.88-.02.7-.02v-.14l-11.77-.02v-3.64l-.04-3.65-.09-.02h-.06l-.02 7.3-6.05.01c-6.62 0-6.12 0-6.07.12l.01.06 12.1.03.01 3.52c0 2.56.01 3.53.03 3.55.03.03.1.03.13-.01z"/><path fill="#f4f0e8" d="M12.22 31.14c.02-.01.03-.53.02-2.55v-2.54H7.88c-4.2-.01-4.37 0-4.37.03 0 .11.98 1.18 1.61 1.75a13.3 13.3 0 0 0 6.89 3.3l.18.03.04-.02zm4.48-.1a13.33 13.33 0 0 0 8.03-4.97c0-.04-.12-.04-4.32-.03h-4.33v5.07c.02.04.14.02.62-.07zm-5.93-9.05l1.47-.02v-2.3l-.01-2.33c-.02-.03-.08 0-.89.45-.62.35-.99.52-1.35.64-.4.13-.55.16-.98.16-.44 0-.62-.03-1.02-.15-.46-.13-.76-.26-1.97-.86a12.4 12.4 0 0 0-1.57-.7 3 3 0 0 0-1.13-.2c-.52 0-1.02.1-1.67.36-.25.1-.96.42-1 .46a12.9 12.9 0 0 0 .66 4.48 1028.2 1028.2 0 0 0 9.46.01zm16.18 0a12.62 12.62 0 0 0 .67-4.09v-.5l-.13-.07c-.26-.13-.73-.33-1-.43a3.14 3.14 0 0 0-2.24-.02c-.35.12-.8.34-1.72.85-.91.49-1.46.72-1.96.83-.27.06-.94.05-1.23-.01a8.48 8.48 0 0 1-2.11-.83 6.4 6.4 0 0 0-1.12-.5c-.03 0-.03.32-.03 2.39 0 1.88 0 2.38.02 2.39a624.24 624.24 0 0 0 10.84-.01z"/><path fill="#18140c" d="M.66.77L.7 14.38c3.2-1.9 5.6.06 8.25.79 3.6-2.45 7.29-1.98 11.01-.02 2.65-.63 5.88-2.8 7.6-.91L27.5.86.67.76zm8.42 1.29a2.32 2.32 0 0 1 .37.03c0 .01 0 .05-.02.09-.05.1-.03.18.06.23.11.07.23.05.32-.06.02-.03.05-.05.07-.04.04.02.23.33.23.4 0 .04 0 .05-.2.05-.43 0-.5-.03-.72-.38a1.52 1.52 0 0 1-.17-.3c0-.01 0-.02.06-.02z"/><path fill="#fc0" d="M1.73.73H.66A.06.06 0 0 0 .6.77 2218.92 2218.92 0 0 0 .66 14.4l.28-.1c1.6-.73 2.51-.83 3.71-.42.45.16.6.22 2.22 1.02a6.42 6.42 0 0 0 1.88.61c.16.01.63-.02.78-.05.5-.1.98-.31 1.84-.78 1.4-.75 1.89-.95 2.6-1.04.15-.02.25-.02.45 0 .68.07 1.28.26 2.14.68a21.99 21.99 0 0 0 .83.38 8.3 8.3 0 0 0 2.02.77c.25.05.68.06.92.02a5.26 5.26 0 0 0 1.58-.57l.5-.26.61-.32a4.65 4.65 0 0 1 2.36-.7c.58.04 1.16.2 1.97.56.12.06.23.1.25.09.03-.01.03-.78.03-6.77L27.62.75 14.15.74H1.71zm1.82.3c.03 0 .4.24.5.33a.8.8 0 0 1 .22.3c0 .02.04.08.08.13.13.15.18.28.18.46 0 .25-.1.41-.33.55-.12.07-.12.08-.12.17l-.02.28c-.03.36.07.62.32.86.36.33.7.49 2.33 1.07l.94.35-.14.04a5.4 5.4 0 0 0-1.54.53c-.54.27-1.06.48-1.35.54l-.07.02V6.5a.83.83 0 0 0-.02-.21c-.03-.09-.1-.16-.16-.16l-.34.13-.3.12.02-.17c.05-.17.09-.45.09-.63 0-.19-.06-.54-.1-.57-.04-.05-.1 0-.11.1-.06.3-.25.48-.58.53l-.25.06c-.15.06-.8.03-.82-.04 0-.02.04-.05.13-.09.07-.03.18-.1.23-.15l.1-.1-.03-.1a.62.62 0 0 1 .42-.8c.1-.03.12-.05.12-.08.02-.11-.13-.23-.32-.25-.1-.01-.1 0-.19.1a.84.84 0 0 1-.2.16c-.1.05-.13.06-.3.06s-.2 0-.3-.06a.8.8 0 0 1-.18-.16c-.07-.08-.08-.09-.14-.08a.8.8 0 0 0-.19.1c-.08.04-.13.06-.14.05-.03-.03.16-.4.28-.57l.15-.22a.64.64 0 0 1 .33-.27c.29-.07.56.03.73.28.07.1.1.12.14.12.07 0 .15-.08.2-.2.04-.06.04-.07-.02-.17a1.4 1.4 0 0 0-.2-.27l-.13-.15-.14.02a.65.65 0 0 1-.47-.08.66.66 0 0 1-.27-.64.33.33 0 0 0 .01-.13c0-.03-.25-.11-.35-.11-.08 0-.11-.03-.07-.07.04-.04.37-.18.51-.22a.98.98 0 0 1 .42 0c.06 0 .16.03.22.04.18.03.33.14.42.28.07.12.07.13.07.31 0 .17 0 .2-.06.3l-.05.14c0 .01.03.05.08.07l.14.1c.1.08.19.12.3.12.12 0 .13-.01.21-.08l.09-.09-.08-.09a.57.57 0 0 1-.16-.42c0-.24.08-.38.29-.54.08-.06.11-.1.11-.13 0-.07-.06-.28-.11-.4-.06-.12-.07-.16-.03-.16zm7.42.25l.04.14.01.1h.26a3 3 0 0 0 1.08-.23c.03-.01.03 0 .02.05-.02.09-.13.3-.2.41-.11.17-.13.18-.26.18-.17 0-.27.03-.36.11-.17.15-.16.29.03.49a.5.5 0 0 1 .14.22c.06.19.03.25-.12.36-.23.17-.2.36.1.57.1.07.13.07.33.1.36.03.49.08.58.25l.1.15c.06.09.06.12-.03.21-.08.08-.15.1-.37.15-.11.03-.12.03-.16.11-.1.22-.02.42.2.51.11.05.35.1.49.1h.2c.1.02.1.06 0 .23-.12.23-.33.33-.79.38l-.25.02-.02.1c-.04.29-.1.53-.21.94-.14.5-.14.55-.04.67.08.1.16.12.37.12h.18l-.02.07c-.06.3-.2.54-.34.63a.53.53 0 0 1-.5 0c-.16-.09-.42-.3-.56-.47a.82.82 0 0 0-.13-.14 6.92 6.92 0 0 1-.5.57c-.29.3-.34.38-.34.49 0 .07.01.1.08.16.1.08.26.14.39.14l.07.01a.5.5 0 0 1-.17.12.88.88 0 0 1-.56.17.4.4 0 0 1-.25-.08c-.19-.12-.35-.38-.5-.82a.6.6 0 0 0-.1-.2c-.03-.02-.16.08-.75.56a7.9 7.9 0 0 1-1.4 1.01c-.56.32-1.24.51-1.55.44a.38.38 0 0 1-.18-.1c-.12-.13-.1-.16.12-.26.4-.16.76-.46 1.22-1 .27-.32.35-.44.33-.46-.02-.02-.17.04-.44.17a8.8 8.8 0 0 1-3.26.97c-.53.02-.83-.05-1.14-.25a.85.85 0 0 1-.3-.3c-.1-.16-.2-.4-.18-.43a3.11 3.11 0 0 0 1.03.14c.5 0 .9-.07 1.36-.24.28-.1.95-.45 1.12-.6.08-.06.08-.12 0-.1a6.9 6.9 0 0 1-1.8.02C2.32 7.78 2 7.48 1.91 6.9a1.96 1.96 0 0 1 0-.49l.15.11c.35.3.75.46 1.3.49a6.56 6.56 0 0 0 2.72-.76A4.93 4.93 0 0 1 8.9 5.7c.17 0 .2 0 .3-.05.16-.08.2-.2.09-.32-.04-.05-.1-.07-.4-.14-.42-.1-.53-.14-.58-.26-.05-.1-.05-.16 0-.22.03-.05.07-.06.17-.07l.13-.02.07-.12c.04-.07.09-.12.1-.12l.16.18c.09.1.15.17.17.16.02 0 .05-.05.07-.1s.06-.1.07-.1l.2.17c.09.1.18.17.2.17s.05-.07.1-.16c.04-.08.08-.15.09-.14l.11.19c.06.1.11.18.13.19.05.01.19-.03.25-.1.04-.02.08-.09.1-.14a.32.32 0 0 0 .02-.22 1.49 1.49 0 0 0-.35-.68l-.06-.07h-.27c-.17 0-.27 0-.27-.02a.4.4 0 0 1 .08-.11c.09-.1.1-.15.07-.17a.97.97 0 0 0-.26.08l-.25.1c-.01 0-.02-.08-.02-.17 0-.1 0-.17-.02-.18-.01-.01-.09.05-.17.13-.09.09-.16.15-.17.14l-.05-.17c-.06-.17-.1-.24-.14-.24-.02 0-.08.08-.15.17l-.14.17a.5.5 0 0 1-.07-.14c-.1-.2-.1-.2-.2-.23a.5.5 0 0 1-.3-.3.29.29 0 0 1 0-.19.93.93 0 0 0 .02-.2c-.01-.23.12-.3.52-.32.14 0 .27-.02.28-.03l.04-.12c.02-.22.17-.39.4-.47.16-.06.65-.07 1.15-.02l.4.04.23-.1c.12-.07.19-.1.22-.1zm5.9.09c.1 0 .25.09.32.2.05.08.06.12.07.27 0 .1.01.18.02.19s.08-.05.15-.11c.28-.27.6-.44.95-.51.15-.03.57-.02.66.01l.05.02-.05.04-.19.1c-.2.12-.43.35-.48.48-.06.12-.08.28-.05.3l.26-.12a3.55 3.55 0 0 1 1.57-.54c.51 0 .86.4.9 1.03l.02.17-.1-.07c-.35-.26-.8-.35-1.18-.23-.22.06-.48.2-.71.36-.2.15-.29.2-.58.28-.31.1-.62.14-.98.14-.61 0-.88-.1-1.5-.54-.53-.36-.7-.44-1.11-.43-.4 0-.63.08-.85.28-.24.23-.27.48-.1.82.07.16.11.21.3.4.17.17.24.22.4.3l.39.14c.2.05.25.05.62.05.33 0 .46 0 .68-.05a8.8 8.8 0 0 0 1.2-.31 8.24 8.24 0 0 1 1.4-.34 14.24 14.24 0 0 1 3.4-.38l-.08-.27a1.1 1.1 0 0 1-.09-.53c0-.3.03-.43.15-.63.1-.15.19-.27.2-.25l.07.2c.07.26.2.5.32.62.13.11.23.16.42.2.07 0 .17.04.2.07.1.07.18.23.2.41 0 .14.01.16.08.23.09.1.18.15.28.15.09 0 .21-.05.23-.08.01-.02 0-.1-.04-.19a1 1 0 0 1-.06-.34c0-.2.02-.23.14-.41.06-.09.3-.3.32-.28l.06.2c.11.4.23.62.46.8.14.12.21.21.24.34.04.12.02.35-.04.5l-.04.13.08.32a3.01 3.01 0 0 1 .08 1.37.82.82 0 0 1-.3.41c-.2.13-.3.15-.86.17a13 13 0 0 1-1.96-.12c-.9-.1-.9-.1-.92-.06-.02.06.15.35.3.5.24.24.48.32 1.07.35l.42.04c.13.04.34.2.42.3.14.2.19.24.32.26.42.05 1.6-.07 1.95-.2.08-.03.1 0 .08.14-.04.33-.25.66-.58.9a.46.46 0 0 0-.12.11c0 .05.1.2.2.3.12.12.25.18.42.18a2 2 0 0 0 .43-.1c.07-.02.04.03-.16.27-.3.35-.5.62-.49.66 0 .02.12.08.35.17.2.08.35.15.35.16s-.14.1-.34.2-.35.18-.36.2c-.02.06.04.5.08.65.04.12.07.16.18.27.1.1.15.14.24.16l.16.04c.05 0 .05 0 .02.03-.04.05-.24.19-.34.22a.7.7 0 0 1-.4.04c-.12-.03-.12-.03-.17.03a.64.64 0 0 0-.1.3c0 .11.09.26.24.41l.16.14-.05.04c-.1.08-.3.1-.44.06a1.23 1.23 0 0 1-.24-.12.56.56 0 0 0-.18-.1l-.04.32-.03.31h-.24c-.2.01-.25 0-.32-.03a.29.29 0 0 1-.16-.24c-.01-.12-.02-.12-.3-.16a5 5 0 0 0-1.6.13l-.04.11a.54.54 0 0 1-.23.35.52.52 0 0 1-.44.05c-.13-.04-.14-.04-.25 0-.15.05-.27.1-.36.18-.1.08-.12.09-.14.06a1.7 1.7 0 0 1 .31-.68c.05-.08.1-.15.1-.17 0-.07.13-.25.22-.31.08-.05.13-.06.26-.07.14 0 .16 0 .28.06.15.08.2.08.36 0 .14-.06.23-.24.15-.3a6.1 6.1 0 0 0-.6-.24l-.12.07c-.12.1-.22.12-.41.11-.14 0-.17-.01-.27-.08a.74.74 0 0 1-.17-.17l-.06-.1h-.12l-.24.06a.38.38 0 0 1-.13.02c-.03-.03.08-.16.25-.32.1-.08.24-.22.32-.3.2-.2.25-.22.47-.22.16 0 .18 0 .3.07.12.08.2.19.25.33.02.08.03.08.17.12.4.1.62.08.73-.04.04-.04.07-.09.07-.11 0-.07-.1-.25-.17-.31-.1-.09-.16-.1-.25-.06-.27.1-.64-.13-.68-.43-.01-.07-.02-.1-.09-.12a1.24 1.24 0 0 0-.37-.1c-.03 0-.06-.01-.07-.03 0-.03.35-.2.55-.25.09-.02.2-.07.24-.1s.12-.06.18-.07c.38-.08.74.25.7.62-.02.1-.01.1.14.33l.19.27c.05.06.23.14.31.14.1 0 .2-.08.26-.21.06-.1.07-.16.1-.63l.05-.51-.06-.16a2.2 2.2 0 0 0-.26-.52 2.4 2.4 0 0 0-.55-.53 2.78 2.78 0 0 0-.89-.25c-.14-.02-.14-.02-.38.36-.16.26-.2.32-.2.25 0-.06-.16-.33-.26-.44-.22-.24-.4-.34-.96-.49a2.63 2.63 0 0 1-1.47-.87c-.42-.5-.6-.64-.82-.64-.27 0-1.18.38-2.65 1.09l-.69.32c-.19.08-.46.23-.62.32a3.8 3.8 0 0 1-2.49.5h-.27c-.01 0 0 .09.04.2.08.23.12.53.09.56-.02.02-.04.01-.07-.02-.16-.14-.48-.2-.65-.12-.1.05-.1.03-.05.27.02.18 0 .43-.05.64-.05.17-.14.36-.17.35a.76.76 0 0 1-.09-.17.88.88 0 0 0-.28-.4c-.1-.08-.24-.1-.31-.04a2.1 2.1 0 0 0-.17.58l.1.42c.13.45.14.44-.14.44h-.19l-.15-.1c-.16-.11-.24-.2-.45-.5a.82.82 0 0 0-.16-.2c-.02 0-.02.05-.02.14l.01.4c0 .2 0 .29-.05.4-.04.12-.12.27-.15.27l-.07-.08c-.1-.15-.35-.38-.48-.44-.14-.06-.36-.09-.4-.04-.02.02-.02.16 0 .54v.52l-.1-.07c-.1-.1-.33-.2-.51-.26-.24-.06-.9-.04-.95.04-.01 0 0 .07.02.13.07.22 0 .47-.2.66l-.18.2c-.08.1-.44.39-.49.39-.03 0-.03-.04.03-.2.07-.2.07-.23-.03-.3-.23-.14-.33-.29-.35-.5l-.02-.14-.1-.03a1.6 1.6 0 0 0-.58 0c-.1.03-.1.03-.1.14a.65.65 0 0 1-.34.5c-.1.05-.13.05-.29.05-.15 0-.2 0-.3-.06a.4.4 0 0 0-.26-.04c-.14.01-.33.07-.44.14-.1.05-.13.02-.08-.07.1-.17.27-.42.36-.51a.4.4 0 0 0 .1-.18.64.64 0 0 1 .34-.45.6.6 0 0 1 .27-.05c.14 0 .18 0 .3.07l.15.08.08-.04c.1-.05.13-.1.13-.17 0-.04-.11-.15-.21-.2-.1-.05-.67-.24-.7-.23a.48.48 0 0 0-.1.13.56.56 0 0 1-.56.27c-.18-.01-.28-.06-.42-.21l-.13-.13h-.15l-.25.03c-.18.04-.18.01-.03-.15.08-.08.2-.2.27-.24a.8.8 0 0 0 .21-.23.63.63 0 0 1 1.05-.06c.04.06.09.13.1.17.01.05.03.07.13.1.39.13.9.13 1.03 0l.05-.04-.05-.05c-.03-.03-.08-.04-.26-.06-.32-.03-.49-.13-.6-.35-.05-.1-.06-.14-.06-.31 0-.23-.01-.25-.22-.37l-.13-.09c0-.03.1-.04.36-.05.2 0 .28 0 .39-.04a.6.6 0 0 1 .26-.04c.18.01.28.06.42.2.13.13.18.28.16.5l-.01.15.15.12c.21.17.3.2.53.2.4 0 .57-.1 1.4-.85.19-.16.44-.37.56-.45.26-.18.6-.44 1.15-.9.23-.18.42-.33.44-.33.01 0 .05.07.07.15.16.42.36.7.6.81a.5.5 0 0 0 .31.07c.26 0 .53-.12.8-.34.14-.12.17-.19.09-.27C10.6 9 10.58 9 10.48 9c-.16 0-.32-.03-.38-.08-.04-.04-.04-.04 0-.11.02-.07.6-.7.64-.72.01 0 .12.08.24.2.15.15.25.22.35.27.35.17.6.14.82-.11.15-.15.23-.33.3-.63l.03-.18-.05-.05c-.05-.05-.05-.05-.25-.04-.2.01-.28 0-.32-.06-.03-.05 0-.19.1-.57.1-.36.15-.55.19-.79.01-.07.01-.08.1-.08a6.87 6.87 0 0 1 1.48-.14c.78-.02 1.07-.02 1.84 0 1 .03 1.71.02 2.04-.03.28-.04.57-.11.93-.22a7.4 7.4 0 0 1 3.56-.16c.76.16 1.18.21 1.63.19.34-.01.52-.05.7-.13a.68.68 0 0 0 .33-.31c.04-.11.04-.38 0-.56-.05-.17-.11-.22-.4-.37-.36-.18-.74-.3-1.2-.36a7.96 7.96 0 0 0-1.32 0c-.32.04-1.13.21-2.92.6-2.13.47-2.53.53-3.29.53-.74 0-1.21-.11-1.64-.4a2.1 2.1 0 0 1-.82-1.28c-.17-.66.08-1.18.68-1.42.25-.1.51-.14 1.07-.16.48-.02.54-.02.93.02.23.03.5.05.6.04.15 0 .16 0 .24-.08.08-.08.08-.09.08-.26v-.17h.09zm1.15 6.42c.03 0 .1.05.2.14.24.22.53.36.76.36a1 1 0 0 0 .23-.05c.14-.04.14-.04.2 0a3.53 3.53 0 0 0 1 .42 6.05 6.05 0 0 1-2.7 1.22c-.12.02-.12.02-.17.13-.13.28-.1.72.09 1.08l.07.12c.01.02.12.02.24.03.15 0 .24.02.31.05.32.15.46.37.57.9.1.52.09.48.2.6.11.12.24.19.41.21.06 0 .11.02.11.04 0 .04-.14.15-.24.2-.1.05-.13.05-.31.05-.22 0-.41-.05-.63-.16-.1-.05-.13-.03-.1.11.06.21 0 .68-.09.7-.01.01-.06-.04-.1-.12a3.5 3.5 0 0 0-.86-.89c-.14-.08-.16-.07-.18.1-.03.2-.12.39-.24.46-.07.05-.1.06-.11.04a4.63 4.63 0 0 1-.12-.15 1.08 1.08 0 0 0-.66-.4c-.12-.01-.13 0-.16.17-.04.2-.13.33-.26.4-.07.03-.07.03-.11-.03a1.3 1.3 0 0 0-.39-.36c-.17-.07-.46-.1-1.15-.13-.62-.02-.66-.03-.76-.07-.13-.07-.17-.07-.3 0a.88.88 0 0 1-.2.08c-.11.02-.12.03-.18.16-.05.1-.1.15-.17.2-.1.07-.12.08-.26.09s-.18 0-.27-.05l-.1-.05-.1.05c-.07.02-.15.08-.2.11-.16.14-.16.09 0-.29l.13-.34c.06-.24.23-.4.44-.43.16 0 .24.01.36.1l.11.07.09-.05c.12-.06.24-.18.24-.23 0-.11-.15-.16-.58-.18l-.32-.02-.07.07a.5.5 0 0 1-.38.16c-.17 0-.29-.06-.42-.2-.11-.11-.16-.12-.4-.06-.18.06-.17.06-.17 0 0-.03.24-.28.54-.56.2-.19.26-.22.46-.2.2 0 .33.07.43.24.04.07.08.11.11.12a2.12 2.12 0 0 0 .65-.06c.12-.06.14-.11.07-.22-.06-.1-.13-.14-.21-.11a.66.66 0 0 1-.41-.02.5.5 0 0 1-.3-.44c0-.15-.02-.16-.22-.18a.77.77 0 0 1-.15-.04c-.05-.04.29-.2.59-.27.4-.1.65-.03.78.25.04.09.1.13.53.43l.47.33 1.5-.02.07-.07c.1-.1.14-.26.13-.49-.01-.2-.06-.32-.23-.58-.23-.37-.27-.83-.08-1.08.18-.25.59-.39 1.12-.39.36 0 .52-.07.64-.28a1 1 0 0 0 .12-.47v-.1l.1.04c.05.04.1.06.17.06a2 2 0 0 0 .6-.16l.22-.09z"/><path fill="#e83629" d="M21.08 13.71c.1-.05.2-.09.32-.1l.2-.07c.07-.04.1-.06.11-.12.03-.1 0-.17-.13-.22-.16-.07-.34 0-.47.17a1 1 0 0 0-.17.35c0 .03.06.03.14 0zm-15.6-.18l.16-.2c.06-.1.07-.14.07-.24 0-.14-.05-.21-.16-.27-.08-.04-.09-.04-.15 0-.08.05-.14.2-.1.3.03.08.03.3 0 .38a.22.22 0 0 0 0 .1c0 .05.01.05.05.03.02 0 .08-.06.13-.1zm-2.85-.27c.13-.03.2-.04.37-.05.15 0 .2-.02.26-.1.08-.08.03-.21-.11-.29-.19-.09-.4 0-.59.28-.13.19-.12.2.07.16zm18.65-1.22c.11-.03.15-.07.15-.18 0-.11-.06-.17-.22-.22-.13-.04-.21-.02-.36.08-.1.06-.26.22-.26.26 0 .02.26.06.31.04a.4.4 0 0 1 .15.02c.14.03.13.03.23 0zm-18.89-.33c.08-.05.1-.11.05-.21-.05-.1-.07-.12-.2-.17-.15-.05-.34.02-.54.19-.14.13-.13.15.03.15l.29.04c.18.04.3.05.37 0zm19.96-.81c.07-.07.06-.24-.03-.34-.09-.1-.28-.14-.47-.1-.12.03-.31.12-.3.15l.13.07.23.1c.18.12.26.16.34.15.04 0 .08-.02.1-.03zm-18.42-.18c.05-.02.09-.12.09-.22-.01-.18-.17-.32-.4-.34a4.8 4.8 0 0 1-.17-.03c-.09-.01-.18.02-.18.06l.11.12c.06.05.15.15.2.22.13.18.23.23.35.19zm7.57 2.62c.06-.03.2-.07.31-.1.18-.04.21-.06.27-.12.03-.04.06-.08.06-.1 0-.07-.05-.14-.13-.18-.08-.03-.11-.03-.21-.02s-.14.03-.2.1c-.15.13-.31.47-.24.47l.13-.05zM11.4 12c.05-.06.05-.08 0-.2-.05-.14-.32-.2-.49-.12l-.23.18c-.17.18-.16.19.14.19h.38c.14 0 .16 0 .2-.05zm.91-1.06a.26.26 0 0 0 .1-.08l.05-.07-.06-.11a.38.38 0 0 0-.27-.22c-.08-.03-.19 0-.44.09-.14.05-.15.09-.01.14l.3.14c.26.14.25.14.33.11z"/><path fill="#010100" d="M9.92 4.89c0-.03-.02-.06-.04-.09-.04-.04-.05-.04-.08 0-.03.05-.03.1-.01.13.03.03.12 0 .13-.04zM9.4 4.8c0-.04-.1-.12-.14-.1-.04.01-.04.06 0 .1.05.02.14.02.14 0zm-.53-.15c0-.02 0-.05-.03-.07-.04-.04-.05-.04-.08-.01s-.03.03 0 .06c.04.04.09.05.1.02zm1-1.03c.02-.03-.03-.08-.08-.08-.03 0-.05.03-.05.06 0 .04 0 .04.05.04.04 0 .07 0 .08-.02zm-.5-.2c.1-.04.09-.09-.02-.13-.1-.04-.14-.02-.14.07 0 .1.03.12.16.06zm-.47-.14c.04-.04.04-.06.02-.08-.03-.04-.15-.05-.15-.01-.01.14.04.18.13.09zm-.53-.07c.04-.06.02-.1-.06-.09-.06.01-.07.07-.04.12.04.04.06.03.1-.03zm10.49 4.87a1.6 1.6 0 0 1-.62-.38c-.08-.07-.16-.12-.19-.12s-.13.03-.23.08c-.2.1-.39.15-.55.18-.1 0-.11 0-.18-.05-.05-.05-.07-.08-.07-.14 0-.1.07-.16.28-.24.75-.28.84-.3.99-.22.09.04.26.21.48.48l.24.28.1.1c0 .02-.04.03-.08.03h-.17z"/><path fill="#e83629" d="M2.77 5.63a.38.38 0 0 0 .26-.26c.04-.1.04-.12 0-.17-.04-.08-.05-.1-.14-.1-.09-.01-.16.04-.3.2-.07.07-.17.17-.22.2-.16.12-.13.16.14.16.1 0 .2-.02.26-.03zM1.44 3.99l.21-.05c.05.02.27-.06.31-.11a.18.18 0 0 0 .02-.19c-.04-.06-.23-.15-.3-.13-.17.03-.33.18-.45.4-.07.15-.06.15.2.08zm.78-1.89c.07-.04.08-.06.07-.18 0-.14-.15-.27-.34-.3-.11 0-.48.11-.5.17 0 .02.03.04.1.06l.22.1c.21.13.32.19.35.19l.1-.04zm1.85-.03c.14-.1.17-.34.05-.52-.09-.13-.41-.35-.4-.27l.01.1c.04.14.05.22.05.4 0 .15.05.25.12.3.07.05.09.05.17 0z"/><path fill="#010100" d="M11.7 3.43c-.06-.07-.04-.12.07-.2.06-.04.12-.1.14-.16.04-.1.05-.27.02-.36-.08-.18-.1-.21-.2-.3-.11-.11-.12-.17-.02-.24.05-.03.09-.04.25-.04.22 0 .26.02.33.17.07.16.03.56-.08.78a.98.98 0 0 1-.32.33c-.11.08-.13.08-.19.02z"/><path fill="#ce2606" d="M10.04 4.59a4.6 4.6 0 0 0-2.12-.4c-.67-.01-.88-.04-1.1-.14a.74.74 0 0 1-.45-.6c-.03-.2.01-.58.07-.63 0-.01.05.04.13.15.24.37.57.6 1 .71a3 3 0 0 0 .64.05c.28.01.57.03.7.05.44.06.82.23 1.09.47.2.18.37.47.28.46l-.25-.12z"/></svg>