<svg version="1.1" xmlns="http://www.w3.org/2000/svg" viewBox="0 0 27 32"><path fill="#fff" stroke="#000" stroke-width=".37" stroke-miterlimit="4" stroke-linecap="butt" stroke-linejoin="miter" d="M.18 19.5c0 6.77 5.9 12.3 13.17 12.3 7.26 0 13.16-5.53 13.16-12.3V.19H.18z"/><path fill="#2a57c6" d="M15.14 2.23c-.08-.01-.18-.01-.24-.05-.02-.07-.12-.03-.14-.1-.06-.06-.13-.1-.17-.17.1.1.27.15.4.08l.1-.08c.15-.23.02-.58-.25-.65-.13-.03-.3-.02-.38.1.02-.14-.1-.24-.23-.27-.18-.09-.45-.07-.55.13-.12.2-.08.47.1.6-.14.11-.3.3-.24.5.1.21.4.27.59.16.13-.08.12-.25.14-.38.07.11.11.24.2.34.06.1.11.23.22.3-.12 0-.22.13-.15.24.03.05.09.08.14.08a.2.2 0 0 0-.05.2c.32-.07.64-.17.98-.17a7.1 7.1 0 0 1 2 .2c.06.06.13.15.22.1.11-.03.2-.13.18-.25-.08 0-.05-.02-.01-.06.1-.11-.05-.25-.17-.25-.02-.01.06-.05.07-.07.14-.16.3-.3.38-.5.02.21.25.4.46.32.2-.12.3-.42.13-.6a.3.3 0 0 0-.13-.08c.22-.11.27-.45.07-.6-.15-.15-.42-.2-.55-.01a.5.5 0 0 0-.08.28c-.07-.06-.13-.14-.23-.17a.48.48 0 0 0-.4.05.35.35 0 0 0-.02.44c.08.16.27.26.44.2-.05.11-.2.12-.27.2-.2.1-.41.13-.62.09-.2.02-.43-.07-.53-.26a1 1 0 0 1-.08-.35c.12.22.46.23.63.07.14-.13.16-.4-.01-.5-.14-.1-.32-.05-.47-.02-.08.04 0-.01.03-.04.1-.06.11-.2.04-.28a.64.64 0 0 0-.48-.28c-.2 0-.44.2-.36.4.01.05.05.1.05.13-.14-.05-.3-.15-.44-.06a.37.37 0 0 0-.16.5c.01.07.07.14.13.18l.29.04c.1 0 .2-.09.22-.19.06.22-.06.5-.3.52h-.5z"/><path fill="#000" d="M7.4 21.81c-.05.08-.11.17-.07.28.03.13.16.22.23.33.07.07.16.13.26.13s.22.02.32-.02c.03.02.03.06.04.08a1.45 1.45 0 0 0-.57-.02c-.17.03-.35-.06-.5-.13-.07-.06-.37-.02-.45 0-.2.39-1.01.48.02 1.47.14-.02.36-.03.49 0 .1 0 .3.06.4-.02.06-.05.14-.16.2-.22.04.02.17-.01.2.04-.18-.02-.24.15-.44.33-.05.08-.05.19-.1.26l-.14.31c-.04.08.03.15.06.22.03.06.11.11.13.19.02.18.78.31.98.07.2-.22.2-.66.21-.79s.18-.15.26-.22a2.8 2.8 0 0 0 .77-1.75c0-.02-.17-.11-.17-.15-.1-.07-.1-.24-.23-.3-.1-.05-.19-.12-.3-.14-.1-.02-.17-.1-.25-.15-.1-.09-.16-.22-.29-.25a.4.4 0 0 0-.3-.02.88.88 0 0 0-.77.48z"/><path fill="#ed1b24" d="M8.14 21.8c.07-.08.12-.19.08-.3.03-.02.08-.04.12-.02.1.06.13.17.2.24l.16.15c.14.07.33.03.48.13.1.07.12.2.21.27.06.06.2.15.26.2-.2.85-.64 2-1.26 2.6-.03.02-.07.04-.1.02-.04-.05-.04-.13-.04-.2.25-.11-.27-.3-.36-.32-.09 0-.14.08-.2.12-.05.03-.09.09-.08.14-.05-.01-.15 0-.17-.2.05-.1.09-.2.15-.28a.7.7 0 0 0 .12-.3c.01-.08.1-.12.16-.14.16-.02.31-.16.44-.31-.15-.1-.24-.1-.3-.15-.09-.02-.12-.05-.21-.05-.08 0-.16.05-.17.13-.01.09-.06.16-.1.24-.02.05-.1.09-.15.05-.15-.05-.31-.02-.47-.04a.5.5 0 0 1-.17-.22l.1-.05.08.03c.08-.01.19-.07.13-.16-.07-.15-.04-.52-.21-.74.01-.05.07-.1.12-.07.09.03.18.05.26.09.13.04.26.05.4.04.14-.02.3-.04.43.03l.37.11c0-.07 0-.16.02-.25.01-.02.04-.02.06-.04.02-.04.06-.06.1-.07-.01-.06-.05-.12-.1-.13h-.27l-.27.03c-.08-.01-.19-.07-.26-.07-.1-.02-.07-.08-.14-.15-.04-.04-.06-.1-.08-.16 0-.06.06-.1.1-.15.08-.06.18 0 .27-.02.15 0 .2.1.3-.04z"/><path fill="#2a57c6" d="M6.24 1.93c.67 0 1.21.63 1.21 1.4s-.54 1.4-1.21 1.4-1.22-.62-1.22-1.4.55-1.4 1.22-1.4zm0-.9c-1.1 0-2 1.03-2 2.3s.9 2.3 2 2.3 2-1.03 2-2.3-.9-2.3-2-2.3z"/><path fill="#2a57c6" d="M6.69 6.42l-.07-1.08-1.05.03-.2 1.03-.1 19.38c-.01.18-.1.06-.18.02-1.44-1.6-2.04-3.98-2.76-6.1l.81 2.32s.55-.64.7-.79c.31-.31.18-.5.11-.74-.08-.25-1.7-3.12-1.8-3.18-.1-.15-.4-.29-.55-.24-.58.15-.77 3.33-.85 3.85-.03.31.04.55.36.79.37.3.78.42.78.42.5 1.46 1.43 3.8 2.8 5.35.14.14 1.16 1.38 1.27 1.36 3.82-2 5.2-5.58 4.75-9.88.2 2.25.02 2.79-.02 3.1a5.8 5.8 0 0 0 1.28-.9c.19-.28-.03-.8-.19-1.55s-.58-1.83-.68-2.05c-.1-.22-.43-.45-.55-.4-.6.27-1.46 2.47-1.88 3.8-.02.05-.06.25.11.3l1.2.58-.24-.13c0 1.03-.48 1.88-.93 2.78-.5.76-1.07 1.8-2.08 1.88.03-6.65-.04-19.95-.04-19.95z"/><path fill="#2a57c6" d="M10.2 7.68c.25-.06.43-.21.42-.45v-.78H1.4l-.02.74c0 .18.13.44.53.49z"/><path fill="#ed1b24" d="M22.73 1.24c-1.08.39-.8 2.22-1.08 1.95-.2-.6.25-2.33-.37-.8-.22.48.18 2.53-.31 1.22-.19-.68.09-2.1-.37-.58-.33.7 1.27 3.15-.32 1.3-.09.59.3 1.02.9 1.62.34.33.14.93.25 1.33.1 1.21.71 2.3 1.29 3.38-.46.61-.94 2.88-1.33 1.41-.28-.5-.5-2.4-1.1-2.32.88 1.54.4 4.36 1.75 5.45.97 1.24 1.73 3-.17 2.4-.8-.66-1.3-1.57-2.06-2.28-.57-.9-1.8-2.15-2.08-2.73.63-.09 1-.06.9-.78-1.21 1.2-1.3-1.76-.37-1.29 1.88.26-1.14-.45.42-1.59.04-.23-.28-.77.08-.99.1-.07.25.05.46-.04-.5-.43-.7-2.03-.74-2.84.18.12.4.27.48.21-.65-.88-.2-1.97-1.09-1.9-.2-.05-3.28-.81-3.78.34-1.5-.18-1.05 2.28.24 1.66 1.2-.04 1.01-.56 1.84 1.55.22.4-2.5-.25-1.79 1.1.75-.06.13.88-.55.22-.98.04-1.96.8-2.21-.56-.6.92 1.14 1.32-.1 1.57-2.58-1.03-1.47-1.28-2.61-1.51H6.8c-.27.19.1.69.12 1.58.2.32.39-.09.48.1.19.4.05 1.22-.32 1.44.67.61 1.11-1.45 1.17-.37.18.86.08 1.12-.57 1.56-.13.03-.08-.36-.2-.44-.68 1.33 2.1.97.9 1.97-1.02.07-1.2.64-1.72.66-.42.01-.54-.54-.92-.53-.29-.9-1.18-.7-.94.2-.87.76 1 .42.15 1.01-.69-.29-1.58.05-.73.7-.67.83.24 1.1.8.18 1.09-.18-1.05.88.32.9-.21 1.07 1.03.58.62-.18.46-.37.54-.32.82-.3-.2.32.33 1.06.73.3.98.58.28-.88 1.05-.72.5.35.53.18.85.73.43-.28-.6-1.03-.46-.96.39.2 1.43.06 1.92.63.29-.53-1.06-.93-.02-.81.49 0 1.78 1.03.86-.18-.8-.72 1.9.89 2.24.06-.54.21-1.48-.73-.62-.7 1.09.69 2.36.93 3.54 1.4 1.05.47 1.14 1.41-.08 1.57-1.62 1.18-2.36.61-2.75.98-.59.53-1.46 1.08-2.07.77-.08 1.03 1.2-.13 1.07.85.13 1.54-.66 2.4-2.34 2.34l-.73 2.36c.92-.45.04.55.6.47 1.09-1.9.44.47 1.23.6.04-.02-.33-.36-.13-.82.55-.64.78-.48.76.28-.24.66 1.22 1.6 1.33.83-1.52-.06.18-2 .45-.9 1.09 1.29-.22-.94.69-1.2.62-.96-.18-1.36 1.33-2.95.42-.48 2.33-1.97 2.03-1.56-.64 1.2-.27 3.27-1.36 4.01 1.25.24 1.3-1.99 2-.87.47.7.51 2.8-.34 2.82-.47-.3-1.4-1.08-1.28-.03-.32-.08-.5.6-.12.71.3.12.89-.03 1.17 0-.6.94-.97.17-1.6.69-.11.07-.57.09.4.35.05.46-1.57.8-.05 1.03.76.22.28-.54 1.33-.55.45-.35.89-.63.6.2-.63.97-.3.88.23.9-.22 1.09 1.6.19.54-.64.68-.37.77-1.83 1.42-.81 1.64.36.86-1.75-.43-1.3.66-.38.6-.42 1-.36.03-.57.01-.81 0-.85.25.39.97.74 1.38.6-.63-.14-.6-.47-.94-.76-.74-.93 1.99.75 2.3-.72-.27.03-1.23.77-2.04-.57.83.53 2.98-.26 2.48-1.18-.24.77-.8.96-1.6.83-.74-.13-1.71-.54-1.99-1.05-.7-1.42-.02-2.03.33-3.6 1.26.58 2.5-.32 2.47-1.79a12.2 12.2 0 0 1 1.14-3.74c.28-1.9.76-3.24.7-3.65-.77.92-.95 2.45-1.2 3.59-.42-.44-.84-1.29-1.28-2.14.07-.16.16-.38.27-.69.37-1.3.8-2.67.63-4.05.48-.22 1.66-1.17 1.1-2.07-.42 1.35-.77 1.05-.4.3.3-.68.07-2.62-.15-.65-.9 1.46.44-1.4-.6-1.91.05.44.25 1.68-.24 2.03.01-.45.01-2.06-.78-2.38.17.48.11 2.2-.11 3.66 1 1.68.63 2.6.3 3.91-.19.39-.3.83-.37 1.21a6.03 6.03 0 0 0-.56-.9c-.53-1.26-1.2-2.94-.2-4.1.43-1.25-.16-2.58.31-3.83zm-7.06 2.74c.9.06.84.6 0 .5-.69-.08-.62-.53 0-.5zM8.82 10.8c.05.54-.07.68.33.77-.06.4-.2.57-.4.72-.22.08-1.02.07-.68-.16.6-.11.75-.81.75-1.33zm14.26.55c.46.92.85 1.85.85 2.89.17.94-.94 1.76-1.27.5-.7-.91.35-2.36.42-3.4z"/><path fill="#000" d="M16.25.6c-.21 0-.4.14-.47.27-.04.08-.01.16 0 .24-.14-.03-.27-.06-.4 0-.1.04-.17.13-.24.2a.73.73 0 0 0-.25-.11c-.12-.03-.24-.02-.36-.04-.1-.03-.15-.12-.24-.14a.76.76 0 0 0-.5.02.5.5 0 0 0-.28.32c-.03.15.09.29.07.43-.02.11-.11.2-.13.32-.02.15.05.33.19.42.08.05.19.05.28.04.14-.01.27-.07.4-.13.06.09.15.17.16.28-.01.07-.04.12-.06.18.03.06.08.11.1.17-.07.14-.22.2-.31.32-.06.05-.1.13-.16.16l-.58.18a.51.51 0 0 0-.3.21c-.05.07-.02.16-.02.25.02.14-.1.26-.1.4-.01.1-.01.2.02.3.06.11.16.18.23.27.11.13.17.3.21.45.03.13.13.27.26.3.07-.06.12-.19.22-.19.06 0 .08.06.11.1.09.12.3.2.44.17.05-.1.19-.3.35-.3.12-.02.22.07.32.11.02-.08.07-.1.18-.08.18.03.18.22.21.35-.22-.05-.45-.1-.69-.09-.2 0-.4.06-.59.13-.24.07-.5.07-.75.06-.18-.01-.36 0-.53-.04a1.5 1.5 0 0 1-.45-.24c-.12-.1-.26-.17-.38-.29-.08-.08-.17-.17-.3-.18-.12-.01-.26 0-.34.09-.1.13-.12.34 0 .48.23.29.57.5.94.54.3.07.6.06.9.06.29-.03.57-.08.86-.1.28-.04.56-.04.84-.04.14 0 .28.04.4.07.04 0 .08.05.05.08l-.2.29c-.04-.07-.07-.15-.14-.18a.51.51 0 0 0-.24-.08c-.13.03-.19.18-.27.28l-.16-.2c-.1.11-.16.26-.23.4-.03.06-.03.14-.03.22 0 .08-.07.14-.1.22 0 .08 0 .15-.02.23 0 .04-.03.09-.02.14.05.1.15.17.26.2a.9.9 0 0 1 .23.03c-.12.18-.39.18-.58.12-.12-.06-.23-.14-.35-.18a.63.63 0 0 0-.47.08c-.19.1-.38.2-.6.24a.8.8 0 0 1-.7-.12c-.12-.09-.16-.24-.2-.37-.05-.1-.04-.18.02-.3-.1-.03-.2 0-.27.08a.54.54 0 0 0-.06.5c.05.14.08.28.17.39.09.12.2.23.3.33-.08.12-.22.16-.35.18-.06-.01-.12-.05-.19-.08l-.66-.31c-.13-.07-.3-.08-.43-.14l-.25-.13c-.11-.05-.1-.18-.17-.27-.12-.16-.3-.3-.4-.47h-2.8v.6c.03.2.1.4.2.57l.07.4-.08.01c0 .13.11.2.2.29.06.06.15.05.24.06a.45.45 0 0 1 .08-.2c.02.13.02.26.05.38.03.09.05.18.03.27-.03.2-.06.42-.2.58-.07.08-.18.07-.28.09.04.1.1.2.2.24.18.06.37-.01.53-.1l.4-.3c.07.13.1.28.1.43 0 .16.03.32 0 .48a.4.4 0 0 1-.14.2l-.35.32a.39.39 0 0 1-.05-.23.57.57 0 0 0-.1-.32.5.5 0 0 0-.18.23.72.72 0 0 0-.02.32c.02.08 0 .15-.01.22.1.07.15.2.26.25.08.05.15.12.22.19.07.06.16.09.25.12.2.06.38.18.58.25-.12.14-.24.28-.4.36-.17.07-.35.1-.52.18-.18.07-.36.18-.55.21a1 1 0 0 0-.45.22c-.06.04-.08.1-.1.16l-.16-.02c-.03-.08-.05-.17-.11-.22l-.2-.09c-.03-.06-.04-.14-.1-.2-.05-.06-.14-.06-.21-.11-.07-.12-.12-.25-.2-.35a.68.68 0 0 0-.72-.17c-.09.04-.12.15-.2.2l-.25.86c0 .16 0 .34.1.47.1.16.33.13.5.17-.03.03-.05.08-.1.1a.57.57 0 0 1-.33-.04 1.15 1.15 0 0 0-.42-.07c-.09.01-.16.08-.24.13-.16.1-.26.27-.38.41l.25.89c.02.06.01.13.07.16.09.08.21.08.32.12.07.03.14.07.22.05a.98.98 0 0 0 .26-.1c.12-.08.14-.24.2-.37.03-.07.11-.07.18-.07 0 .07.04.17-.04.21a.54.54 0 0 0-.24.32c0 .08.03.14.04.22l.54.65c.18.02.42.04.55-.12.16-.2.12-.47.1-.71.12-.09.25-.18.39-.24a.28.28 0 0 1 .22 0c.06.19.07.4.2.57.04.07.14.1.21.07.16-.04.3-.12.44-.2.05-.02.1-.05.14-.03l.16.14a.88.88 0 0 0 .23-.07c.07-.03.1-.1.12-.17l.17-.43c.03-.08.06-.16.1-.22a.3.3 0 0 1 .19 0 1 1 0 0 1 .4.2c.07.06.16.1.2.19.04.1.08.2.1.32.04-.01.09-.01.13-.03a.3.3 0 0 0 .1-.25 1 1 0 0 0-.18-.48c.17-.02.35 0 .52-.03.12-.01.23 0 .35.03.12.02.25.06.35.15.09.1.2.18.24.32h.05c.07-.09.13-.2.12-.33 0-.15-.14-.26-.18-.41.21-.03.44-.04.63.06.14.07.3.08.41.19.05.08.07.18.11.27h.06c.04-.14.06-.29.06-.44a.24.24 0 0 0-.08-.17c-.1-.1-.2-.19-.27-.3.23.07.46.13.68.23.18.08.39.07.57.12.11.02.22.06.34.05.15-.02.31-.02.44-.11.1-.08.22-.16.31-.26h-.28c-.13-.02-.27-.02-.4-.07a.73.73 0 0 1-.3-.26c-.05-.1-.01-.22.04-.31.13.13.3.25.5.3.14.04.29.09.4.18.1.06.17.14.27.18l.4.14c.18.1.38.16.6.19.11.01.18.12.29.15.1.03.2.1.3.09.1 0 .2.03.3.06.1.04.22.02.33.07.15.08.3.16.45.26.1.08.17.18.27.26.1.09.22.11.32.18.08.06.1.17.03.24-.06.06-.14.1-.2.17-.12.13-.27.22-.43.3-.2.1-.43.16-.63.28a4.1 4.1 0 0 0-.38.2c-.15.08-.27.2-.42.28-.17.1-.37.14-.57.15-.17 0-.33-.09-.5-.07-.2.04-.37.17-.56.27-.15.05-.23.22-.37.3-.13.08-.22.21-.35.29-.17.09-.34.16-.52.23-.31.1-.43.06-.74-.09-.05.26 0 .33.07.46s.47.2.58.2l.31-.03c-.05.2-.03.42-.03.64 0 .12.09.23.08.35.01.13-.1.23-.14.32-.09.18-.15.38-.22.57-.05.13-.16.2-.25.3a.54.54 0 0 1-.28.12l-.27.11c-.11.06-.25.08-.37.1-.23.05-.49.1-.72.01-.23.87-.47 1.8-.8 2.56.14-.03.28-.03.42-.01 0 .1 0 .22.03.33.04.1.11.18.19.26.06.05.15.1.23.05.03-.07 0-.15-.02-.22-.04-.11 0-.24.05-.35.06-.11.18-.15.3-.18.06-.04.12.01.17.07.05.22-.1.44-.02.65.04.16.12.33.28.38.2.06.4.04.59-.02-.16-.05-.34-.1-.41-.27-.04-.13.03-.28.08-.4.04-.12.15-.15.24-.2.1-.03.18-.03.28-.03 0 .22-.09.44-.02.65a2 2 0 0 0 .84.84c.17.06.37.06.53-.01.14-.06.17-.24.22-.37-.1 0-.2.04-.3.05-.12.02-.24-.07-.3-.16-.05-.08-.04-.17-.04-.26-.02-.1-.03-.2.03-.3.04-.09.15-.12.23-.18l.33-.18c.04-.04.09-.02.13-.04.03.11.06.2.12.3.1.14.2.29.36.36.1.06.22.11.34.11.05-.07.03-.16.01-.24-.03-.12-.11-.25-.13-.38s0-.26.01-.37a.7.7 0 0 1 .23-.42c.15-.15.24-.35.38-.5a.7.7 0 0 0 .15-.3c.06-.18.02-.36 0-.55-.01-.2-.07-.39-.03-.59 0-.13.1-.22.16-.33.1-.22.33-.33.49-.5.09-.11.2-.16.3-.27.06-.1.12-.17.2-.24.16-.15.31-.32.5-.45l.2-.14c.15-.13.34-.24.53-.32.04.1-.02.2-.04.3-.05.18-.04.37-.08.55-.02.13-.04.26-.03.39.02.17.02.35.03.52 0 .14-.06.27-.1.4-.02.11-.04.24-.08.35-.1.3-.27.59-.54.77-.1.06-.2.1-.26.19.07.09.2.07.32.09.08 0 .17.02.26-.02s.14-.09.2-.14c.08-.08.19-.08.26-.15l.17-.17c.12-.09.2-.22.32-.31.09-.1.13-.24.27-.26.13-.04.24.08.31.17.19.35.35.73.28 1.12-.04.26.02.52-.06.76-.03.16-.02.33-.05.5-.02.07-.08.1-.13.14a.45.45 0 0 1-.43-.05c-.12-.06-.12-.2-.23-.28-.15-.1-.33-.11-.5-.17a.52.52 0 0 0-.5.15l-.17.6c-.13.06-.18.2-.24.3l.19.22c.07.1.13.2.25.23.13.01.28.05.4-.04.08-.06.2-.08.3-.04.04.02.1.06.1.11 0 .11-.08.17-.15.22-.08.06-.19.04-.28.04-.1 0-.18-.05-.27-.1-.14.03-.25.12-.37.2-.11.05-.26.03-.37.1-.06.04-.14.08-.16.15 0 .06.03.1.04.15l.03 1.03c.1.07.2.15.31.17.24.03.48.1.72.07.07-.02.11-.07.15-.13.1-.15.2-.31.35-.4l.42-.06c.11-.02.2-.1.3-.13l.25.02c0 .07.02.15-.01.2-.08.08-.17.15-.22.24-.02.1-.02.19-.06.26-.02.1-.1.18-.15.26l.52.59c.1.03.17.1.28.13.23.01.47-.08.68-.19.05-.03.07-.1.1-.16.05-.1.12-.19.12-.3s-.04-.2-.07-.3c-.06-.09-.17-.12-.24-.2l.03-.09.22-.26c.1-.1.15-.25.26-.35l.2-.2c.1-.07.19-.11.3-.15.11.17.28.28.46.3h.33c.11-.04.19-.1.28-.15.13-.1.18-.24.24-.39.05-.1-.04-.25.02-.36l-.43-.56c-.07.04-.14-.01-.2-.03-.13-.06-.26-.02-.4-.02.05-.1.09-.2.2-.22.13-.04.26.03.38.03s.19.04.3.08c-.04-.17-.24-.19-.28-.33-.05-.13.02-.26.04-.4l.2.08c.1.08.19.15.3.19.16.05.35.14.53.14.17 0 .3-.09.44-.12.06-.02.13-.06.1-.13-.1 0-.19.01-.28.03a.7.7 0 0 1-.64-.38.6.6 0 0 1-.12-.4c.15.06.32.12.48.14a2 2 0 0 0 .67.04c.22-.06.46-.12.66-.24.17-.1.31-.2.4-.35.04-.13 0-.26-.01-.4a.2.2 0 0 0-.17.08c-.15.17-.33.3-.55.3-.15.02-.3 0-.44 0-.13-.02-.24-.1-.35-.17a1.1 1.1 0 0 1-.4-.37.46.46 0 0 1 .21 0c.26.06.52.1.76 0l.48-.14c.16-.08.33-.11.5-.19.08-.03.14-.14.21-.22.15-.16.22-.37.28-.57a.18.18 0 0 0-.02-.16c-.04-.08-.07-.19-.18-.23-.04.19-.1.34-.19.48a.89.89 0 0 1-.22.24c-.2.15-.44.22-.7.26a.33.33 0 0 1-.13-.04.95.95 0 0 1-.35-.09 2.48 2.48 0 0 0-.53-.1c-.17 0-.31-.08-.46-.14-.13-.07-.28-.09-.39-.2-.05-.06-.15-.11-.2-.18-.06-.12-.08-.23-.13-.32-.04-.09-.1-.18-.13-.27s-.07-.22-.13-.32c-.05-.13-.15-.25-.15-.4a1.3 1.3 0 0 1 .08-.54c.04-.09.05-.22.13-.3.05-.12.07-.23.09-.34.04-.13.1-.24.13-.35l.11-.46c.02-.11.11-.2.22-.24.31-.04.6.04.9-.04.13-.03.26-.05.37-.1.13-.06.26-.12.37-.2.15-.11.28-.26.37-.43.07-.14.16-.28.18-.44.06-.22.1-.44.13-.66.04-.14.02-.28.04-.42.03-.17.09-.34.1-.51.05-.33.16-.64.23-.96.04-.2.13-.37.18-.56l.11-.37c.04-.1.12-.2.17-.29.11-.22.18-.46.28-.7.07-.21.09-.44.1-.67.06-.3.12-.6.15-.89l.08-.58c0-.11.04-.21.07-.32.02-.12.02-.25.08-.37l.16-.51c.06-.2.1-.39.13-.58v-.12c-.2.1-.39.24-.5.44-.18.28-.22.63-.35.93-.05.12-.12.24-.16.36-.06.16-.1.32-.13.49-.04.2-.07.4-.07.61-.04.23-.06.46-.12.69-.01.04-.01.1-.07.11a4.82 4.82 0 0 1-.05-.1l-.3-.66-.5-.94c-.05-.1-.13-.18-.13-.3a.89.89 0 0 1 .1-.42c.07-.24.16-.47.22-.72.03-.14.09-.26.1-.4.06-.23.16-.44.2-.67.03-.2.03-.39.07-.58l.1-.81c.03-.17.08-.33.08-.5 0-.25.04-.51.19-.7.09-.1.16-.23.27-.3.15-.1.26-.24.37-.37a.8.8 0 0 0 .22-.48c.02-.2.02-.4-.02-.6-.02-.16-.07-.34-.22-.43-.07.22-.04.48-.16.7a.8.8 0 0 1-.3.32c.06-.13.15-.25.2-.4.06-.2.1-.42.13-.64.02-.2 0-.42 0-.62a.87.87 0 0 0-.31-.68c-.02.11-.04.23-.02.35 0 .16-.04.32-.07.48-.02.22-.1.44-.24.6l.07-.3c.04-.2.06-.4.08-.61.03-.2.01-.41 0-.62a1.05 1.05 0 0 0-.13-.4c-.08-.12-.19-.2-.28-.28a.6.6 0 0 0-.24-.12c.06.17.13.32.17.5a4.03 4.03 0 0 1-.15 1.38h-.07c.03-.17.05-.35.05-.53.02-.2-.02-.41-.05-.61a.9.9 0 0 0-.11-.31c-.13-.25-.3-.47-.52-.65a.62.62 0 0 0-.31-.14c.07.17.09.36.1.54.03.26 0 .52.05.78.05.2.03.42.03.64.02.16-.05.32-.09.47-.04.15-.05.3-.1.46-.05.26-.08.53-.07.8.02.2.08.4.19.59l.31.47c.08.11.13.24.13.37.02.17 0 .34 0 .5-.02.22.02.43-.02.63-.03.23-.02.46-.07.67-.08.2-.08.42-.15.62l-.2.65-.17.34c-.05 0-.07-.06-.09-.1-.1-.2-.24-.35-.33-.54-.13-.3-.28-.6-.35-.91-.1-.3-.15-.6-.2-.9 0-.15-.08-.3-.1-.45-.01-.15-.03-.3-.01-.44 0-.13-.06-.26 0-.4.05-.12.18-.2.25-.33.19-.3.3-.63.37-.97.08-.35.04-.7.02-1.05 0-.14-.02-.27-.04-.41-.03-.15-.03-.3-.05-.45l-.04-.44c-.02-.4.18-.76.24-1.15-.2.02-.37.18-.5.33-.14.15-.27.3-.35.49-.05.1-.09.23-.13.34-.1.26-.09.54-.13.81a2.6 2.6 0 0 1-.05-1c.04-.23.17-.44.24-.66-.15 0-.22.16-.31.26a2.2 2.2 0 0 0-.37.58c-.08.22-.11.45-.11.68-.02.13-.04.26-.02.4.04.14.07.29.05.44-.14-.19-.16-.44-.22-.67a.97.97 0 0 1 0-.38c0-.19.1-.36.06-.55a.73.73 0 0 0-.35.46c-.08.17-.11.35-.15.52-.04.13-.04.27-.04.4.02.15.08.28.1.42.03.16.12.3.2.44.05.15.16.28.16.46-.14-.12-.29-.23-.36-.4-.06-.08-.06-.18-.08-.27a.5.5 0 0 0-.16-.2c-.11.13-.08.31-.1.46-.01.25.1.48.19.7.05.13.16.25.27.36l.37.32c.04.03.08.06.08.1.03.23.05.46.1.68.08.31.06.64.15.94.1.3.15.63.26.94l.13.42c.17.38.31.78.52 1.15.07.18.14.36.26.53.09.11 0 .24-.08.35l-.33.57c-.07.13-.15.25-.2.39-.08.19-.13.39-.22.58a.85.85 0 0 1-.12-.3c-.03-.16-.1-.3-.16-.46-.13-.44-.26-.87-.44-1.3l-.15-.3c-.06-.1-.15-.2-.22-.29-.08-.08-.13-.18-.22-.22-.13-.06-.26-.1-.4-.13.05.1.12.16.18.23.18.22.31.47.36.75.06.18.12.35.13.54l.11.48.1.68c.01.26.01.52.05.78l.06.4a3 3 0 0 0 .18.7c.06.22.15.43.28.63.05.1.14.18.22.27l.14.17c.1.08.15.2.23.29l.2.26c.16.2.33.4.48.63.05.1.07.23.1.34a.7.7 0 0 1-.03.57.42.42 0 0 1-.22.22c-.1.04-.2.03-.3.03s-.2 0-.29-.06c-.11-.07-.22-.13-.3-.22-.23-.23-.38-.5-.57-.76-.07-.13-.2-.22-.29-.33-.1-.14-.24-.24-.35-.35-.17-.12-.26-.3-.4-.45-.13-.14-.19-.32-.32-.48-.13-.18-.27-.34-.39-.53-.09-.14-.22-.27-.33-.4a6.9 6.9 0 0 0-.42-.53c-.15-.18-.32-.33-.48-.49-.04-.04-.1-.09-.06-.14.06-.1.16-.17.27-.22.1-.04.2-.1.27-.19.07-.08.09-.19.09-.29s-.06-.2-.07-.3a.88.88 0 0 1-.48.29.58.58 0 0 1-.38-.52c-.02-.22-.03-.46.1-.66.05-.07.1-.17.2-.2.08 0 .17.03.26.04a.9.9 0 0 0 .55-.1.37.37 0 0 0 .17-.15c.05-.1.13-.2.17-.3-.1 0-.17.06-.24.1-.13.07-.28.03-.39-.07-.11-.11-.26-.23-.3-.41-.01-.16.08-.3.15-.44.06-.14.2-.22.28-.35.05-.08.09-.17.07-.26 0-.1-.07-.17-.1-.26 0-.07.03-.13.05-.2.03-.08.03-.18.05-.28.11 0 .22.03.31.01.1-.03.17-.08.24-.13.08-.04.1-.11.13-.17-.09-.02-.2-.01-.3-.04-.07-.05-.12-.13-.2-.2-.07-.08-.09-.2-.1-.32-.03-.13-.04-.26-.03-.38.02-.21-.01-.42-.01-.62l-.17-.78c.17.1.39.1.57.03-.1-.14-.24-.23-.37-.35-.1-.1-.14-.25-.18-.38-.07-.28 0-.57 0-.85.02-.17-.07-.33-.2-.45-.08-.08-.21-.08-.3-.16a.43.43 0 0 1 0-.44.45.45 0 0 1 .2-.14c.1.02.17.1.26.07a.65.65 0 0 0 .33-.16c.08-.08.08-.2.08-.3-.02-.12-.11-.22-.13-.34 0-.1.04-.19.05-.28a.38.38 0 0 0-.07-.34.53.53 0 0 0-.54-.14c-.13.04-.2.1-.31.16-.13.06-.3.02-.43.08a.57.57 0 0 0-.22.15.54.54 0 0 0-.07.32c.04.13.16.2.24.3-.03.13-.19.19-.3.18a1.4 1.4 0 0 1-.46-.1c-.08-.03-.08-.12-.1-.2.12 0 .26 0 .37-.07.12-.05.18-.18.2-.3.02-.12.02-.25-.07-.33-.1-.1-.25-.1-.38-.12-.05-.12-.08-.24-.16-.33-.1-.12-.26-.27-.43-.27zm-.03.19c.07 0 .15.01.2.05.1.07.2.14.24.26.02.07-.06.11-.11.16a.3.3 0 0 0-.11.16c.05.03.1.01.15-.01.1-.05.21-.05.32-.06.13-.01.26.12.22.25-.01.1-.08.21-.18.24-.1.03-.23.04-.33-.02-.08-.05-.1-.15-.16-.22-.04 0-.08.02-.07.07 0 .17.03.35.1.52.08.1.2.17.31.22.13.05.27.02.4.05.15.02.3-.03.45-.07.1-.03.16-.1.24-.14.1-.04.15-.15.17-.25-.1 0-.22.04-.32 0a.49.49 0 0 1-.22-.31c0-.09.03-.2.11-.23.11-.02.24-.04.34.02.07.04.1.1.16.15l.12.01c0-.08-.01-.18.03-.26.04-.09.13-.16.23-.15.15.01.31.1.33.26a.3.3 0 0 1-.18.35c-.07.02-.13.07-.15.13.08 0 .15-.02.22 0 .1.05.17.16.15.27-.04.11-.1.23-.2.27a.3.3 0 0 1-.24-.1c-.09-.07-.09-.18-.12-.27-.1-.01-.11.12-.16.18-.1.14-.2.26-.33.38-.08.09-.23.13-.23.27-.14 0-.26-.07-.4-.07a1.9 1.9 0 0 1-.4-.07c-.09-.03-.19-.02-.28-.05-.06-.06-.07-.15-.14-.19-.1-.04-.23-.07-.32 0-.08.04-.08.13-.1.2-.2 0-.4.04-.6.04l-.51.09-.02-.16c-.06-.06-.13-.08-.17-.15-.1-.17-.22-.33-.3-.51-.04-.07-.1-.1-.14-.15l-.05.32c0 .09-.09.16-.17.18-.12.01-.25 0-.34-.08-.07-.06-.08-.16-.05-.24a.65.65 0 0 1 .3-.3c-.11-.1-.24-.21-.23-.36 0-.16.11-.36.29-.36.14 0 .3.03.38.15.05.07.03.21.05.3.05-.06.1-.19.19-.22a.36.36 0 0 1 .38.07c.12.12.14.33.04.46-.05.07-.15.08-.23.06-.07-.02-.13-.08-.2-.1-.03-.01-.06 0-.1.01.05.16.2.25.3.36.07.06.16.07.25.08.17.04.35.02.53.03.1 0 .2-.01.28-.08.17-.13.22-.38.15-.58-.01-.04-.07-.06-.1-.03-.04.06-.03.15-.1.18-.1.04-.23.06-.32 0-.09-.05-.11-.16-.14-.25-.04-.16.11-.33.27-.33.13.02.26.13.4.11.01-.13-.14-.25-.07-.38.05-.1.17-.16.3-.16zm6.48.49c-.17.3-.26.66-.26 1 .02.2 0 .4.02.59.03.44.09.87.07 1.31 0 .27-.05.53-.13.79-.03.14-.1.26-.18.39-.08.13-.22.2-.3.34-.09.14-.09.31-.09.47 0 .21-.02.42.04.63.03.17.03.34.07.5.06.24.1.47.19.7.07.2.09.44.18.65.1.24.18.5.35.71.1.14.2.26.28.41.07.17.18.31.27.47.08.14.13.3.24.43.15.21.22.48.39.7.05.08.09.19.15.28.16.3.3.61.44.93.02.06.07.08.1.14l.23.4c.18-.37.28-.78.33-1.2a2.2 2.2 0 0 1 .13-.75l.11-.3c.17-.35.24-.73.4-1.09.06-.15.14-.3.26-.42 0 .33-.12.62-.25.92l-.06.23c-.02.08-.07.15-.1.24 0 .15 0 .3-.03.46-.07.32-.1.64-.16.96-.08.24-.11.48-.17.72-.05.18-.11.36-.18.53l-.3.56c-.13.24-.18.5-.27.75-.06.16-.04.32-.1.48-.05.19-.13.37-.16.57-.02.12 0 .23-.02.35-.02.1-.06.2-.07.32-.04.2-.02.4-.06.6-.04.34-.18.65-.35.94-.15.15-.3.31-.5.39-.13.06-.27.04-.4.06s-.26.04-.4.02a3.36 3.36 0 0 0-.56-.07c-.1 0-.2-.07-.28-.02a.5.5 0 0 0-.12.31c.01.17-.06.3-.06.44 0 .11-.02.22-.06.31-.03.13-.07.28-.12.4l-.1.32-.14.32c-.08.13-.1.3-.11.44-.02.16.07.35.16.5.08.09.11.22.17.3.07.14.1.28.18.41.04.06.06.13.08.19.01.09.07.16.13.24.05.09.14.13.23.16.17.1.35.2.54.26.1.04.22.04.31.06.19.03.39-.02.55.05.15.04.3.04.43.08.18.05.37 0 .53-.06s.33-.07.44-.2a.94.94 0 0 0 .19-.2c.04-.08.07-.17.13-.26l.05-.02c0 .07.02.16 0 .24l-.13.22c-.07.16-.27.24-.42.31-.22.08-.42.2-.63.26-.18.05-.36.04-.55 0-.17-.04-.31-.11-.48-.11-.15 0-.27.02-.4 0 .01.1.05.2.09.3.04.1.13.18.2.25.13.13.31.2.48.3.22.1.46.1.72.13.13.01.24-.06.37-.12.09-.03.16-.1.23-.16 0 .16-.14.26-.27.35-.15.09-.33.13-.52.16-.13.02-.25-.01-.4 0s-.28-.09-.44-.09c-.2 0-.45-.03-.63-.1-.17-.1-.26-.28-.39-.41.02.16.08.3.15.44.07.18.17.35.3.5.12.16.27.35.47.47.1.06.2.06.3.12-.2.01-.4-.08-.57-.15a1.67 1.67 0 0 1-.87-.81c0 .09.02.2.08.3.03.05.09.1.09.2-.02.2-.13.4-.04.6 0 .04.02.08.04.11-.1-.03-.17-.09-.26-.09-.1.02-.18-.03-.28-.02-.1.12-.22.24-.36.35-.06.06-.15.06-.22.08.03.04.09.09.16.07.22 0 .43 0 .65-.02.05 0 .1.02.16.08l.37.7c-.02.13 0 .3-.11.39-.08.07-.17.05-.26.05s-.22.04-.31-.02a.38.38 0 0 1-.17-.14c-.05-.13-.18-.23-.2-.37-.2.02-.3.2-.44.33-.02-.02-.06-.06-.1-.06-.03.08.02.15-.01.23a.6.6 0 0 1-.15.35c-.07.07-.18.07-.28.07-.1 0-.18-.07-.3-.11.05.05.06.1.12.13.07.03.17.03.26.07a1.1 1.1 0 0 0-.2.24c-.08.1-.19.18-.15.3.05.14.24.16.3.29a.5.5 0 0 1 .05.28c0 .07-.08.13-.15.18-.13.11-.3.13-.46.17-.05 0-.1-.02-.15-.04 0-.13.08-.24.06-.35 0-.11-.11-.17-.17-.24-.09 0-.16.04-.24.06s-.14 0-.22 0c.06-.12.13-.23.15-.35.02-.08.02-.13.07-.19.1-.1.2-.18.22-.33 0-.15.02-.3.06-.44.02-.08-.04-.13-.07-.2-.08.03-.17.07-.24.12l-.24.28c-.11.05-.25.15-.39.11-.09-.04-.13-.13-.22-.17a1.08 1.08 0 0 0-.24-.03c-.06.16-.13.35-.16.53-.05.13-.16.24-.3.24-.15 0-.29-.04-.43-.05a.53.53 0 0 1-.32-.13c.08-.3.46-.4.64-.56.08-.13-.01-.5-.23-.51-.2-.04-.21.03-.39.02.1-.12.25-.08.37-.13.14-.06.27-.2.43-.15a.9.9 0 0 0 .5.02.71.71 0 0 0 .33-.33c.04-.08.1-.15.16-.23a.91.91 0 0 1-.33-.05c-.15-.07-.32-.02-.47.05a.5.5 0 0 1-.3.02c-.07-.02-.1-.07-.13-.13-.05-.07-.12-.13-.15-.22 0-.07.02-.13.03-.2l.39-.63.29.08c.08.02.16.02.23.05.09.06.12.19.2.24l.22.11c.1.06.23.08.36.11a.4.4 0 0 0 .35-.05c.13-.19.13-.44.15-.66.04-.19.07-.4.07-.58.02-.18.08-.36.1-.55 0-.11.01-.24-.04-.33-.1-.18-.13-.37-.22-.53-.08-.12-.19-.2-.26-.32-.1-.1-.17-.27-.31-.33.2-.05.3-.26.4-.44.08-.28 0-.55-.1-.83-.05-.13-.16-.24-.17-.39-.02-.07.01-.13.01-.18-.05 0-.1.04-.09.09 0 .22.13.39.2.57.08.24.13.48.08.72-.08.15-.15.3-.3.37a.3.3 0 0 1-.31-.1l-.1.17c-.02.08 0 .17-.03.24-.04.11-.07.22-.13.33-.1.19-.22.37-.39.5-.05.04-.13 0-.19-.02a.53.53 0 0 1-.29.24l-.21.04c.17-.08.28-.22.4-.35.14-.17.23-.37.29-.6.04-.23.17-.43.21-.67.05-.17.04-.34.05-.5.02-.15 0-.3.01-.43.03-.27.06-.55.14-.8.06-.15.14-.3.23-.45.08-.18.1-.37.09-.55-.09.07-.2.1-.27.22-.05.05-.13.11-.18.18-.08.11-.2.19-.3.28-.11.1-.25.15-.37.22-.08.06-.17.1-.25.15-.11.05-.17.18-.26.26-.06.05-.13.1-.18.16-.07.1-.17.19-.24.28-.06.09-.16.1-.23.18s-.15.13-.2.22a.5.5 0 0 1-.14.15c-.13.05-.18.18-.26.3-.07.09-.19.12-.27.22-.03.01-.04.07-.05.1-.01.1-.06.17-.05.26 0 .13-.04.26-.02.4.04.21.07.45.01.7-.18.3-.45.56-.65.86a1 1 0 0 0 .13 1.03c.06.07.08.17.04.24a.62.62 0 0 1-.3-.24c-.04-.11-.11-.18-.13-.3 0-.07 0-.14-.02-.22 0-.09-.08-.16-.06-.24a.34.34 0 0 0-.05-.2.53.53 0 0 0-.14.13c-.1.11-.2.18-.26.31-.03.06-.06.11-.11.13-.14.1-.27.17-.38.3-.1.09-.1.26-.07.37l.08.38c0 .04.04.04.06.06.13.1.31.13.47.09l.02.04-.15.16c-.12 0-.26.04-.36-.05-.11-.06-.23-.11-.31-.2-.11-.13-.24-.24-.34-.4-.09-.12-.1-.29-.1-.43 0-.13 0-.26.02-.4.03-.14.09-.29.1-.43.01-.04-.03-.08-.07-.08-.1.08-.18.15-.3.19-.14.07-.32.07-.43.2-.15.15-.29.35-.28.57.02.2.16.33.28.48a.63.63 0 0 1-.37-.46c-.07-.31-.02-.66.08-.96-.16.02-.33.04-.48.11a1 1 0 0 0-.37.28c-.1.1-.08.27-.1.4a.92.92 0 0 1-.03-.44c.05-.11.15-.2.23-.3.03-.01 0-.05 0-.09-.1.02-.2.04-.3.08-.05.05-.09.13-.15.16a.77.77 0 0 1-.3.08c.36-.7.57-1.59.69-2.21.04.03.21.03.27.05.07 0 .14-.04.21-.05.15 0 .3-.06.44-.08.17 0 .3-.1.47-.14.09-.02.19-.02.26-.1.12-.1.33-.13.4-.3.11-.25.2-.5.33-.77.03-.07.1-.12.13-.2l-.02-.2c-.03-.11-.02-.24-.02-.35 0-.1-.05-.15-.06-.22a.87.87 0 0 1 .04-.39c.25.02.45-.17.68-.24l-.02-.04c-.23 0-.43.17-.67.12-.09 0-.18.03-.27.05-.17.02-.33.06-.5.04-.1-.02-.22.02-.3-.06-.08-.09-.08-.22-.08-.35l.2.17c.05.04.11.02.16.02.13-.02.27-.04.39-.08.1-.05.22-.07.32-.13.16-.09.33-.16.47-.3.1-.1.26-.16.35-.29.05-.05.1-.1.16-.13.11-.05.22-.12.33-.16a.73.73 0 0 1 .36-.01c.1 0 .16.08.25.1.1.04.2 0 .3-.02.18-.03.37-.1.53-.2.11-.06.2-.16.27-.26a.44.44 0 0 1 .19-.1l.25-.12c.08-.05.13-.13.2-.17.18-.11.38-.13.57-.21.18-.07.34-.2.48-.34.08-.05.18-.1.21-.2.02-.1-.05-.17-.11-.23a.91.91 0 0 1-.16-.2c-.17-.23-.44-.33-.69-.46-.08-.04-.13-.13-.22-.15-.1-.02-.17-.09-.27-.1-.17-.02-.32-.11-.48-.13-.13-.02-.27-.02-.39-.1-.06-.03-.08-.13-.17-.13-.1 0-.22.02-.32-.01a.62.62 0 0 1-.22-.13c-.07-.06-.16-.04-.24-.06-.11 0-.2-.07-.29-.13l-.2-.1c-.06-.06-.12-.14-.22-.16-.11-.02-.23 0-.34-.05-.16-.07-.27-.21-.38-.33l-.4.07c-.12.02-.24-.03-.35-.08.11.15.27.26.4.4.05.06.05.13.1.18l.19.2a2 2 0 0 0 .27.12c.11.05.24.04.36.04-.1.09-.24.1-.37.11-.19 0-.36-.1-.55-.12-.33-.05-.63-.2-.94-.32-.15-.05-.3-.13-.45-.14-.3-.01-.6 0-.9.01-.12 0-.24 0-.35.04.4.04.8 0 1.18.12.09.03.2.1.2.2-.01.08.06.13.1.18l.18.16c.05.05.04.13.04.2-.1-.05-.17-.14-.27-.2-.12-.06-.24-.14-.38-.19a2.04 2.04 0 0 0-.78-.07c-.11 0-.22-.06-.33-.03-.08.01-.16.02-.23.06.1.05.2.04.3.08.18.08.34.2.46.34.1.1.14.26.09.4-.1-.11-.14-.26-.26-.34a1.18 1.18 0 0 0-.38-.17c-.09-.01-.17-.07-.26-.07-.21 0-.42.08-.63.06-.15.02-.25-.12-.38-.18-.07-.04-.15-.02-.22-.02.02.04.04.1.1.13.15.1.28.24.41.37.14.12.21.31.15.5 0-.07 0-.15-.04-.2-.1-.13-.2-.26-.34-.35a.8.8 0 0 0-.4-.16c-.13-.02-.25-.01-.37-.06-.1-.04-.18-.1-.29-.1l.11.27c.03.08.03.17.04.25.02.15-.05.28-.11.4-.03.05-.05.11-.11.12-.1-.01-.11-.12-.14-.2-.17.01-.36.04-.48.17-.05.05-.05.12-.06.18-.1.02-.23.02-.3-.07-.07-.11-.07-.26-.06-.4.05-.17.24-.23.37-.35-.07 0-.15.01-.22-.02-.1-.05-.14-.14-.2-.22.03.12.06.24.04.37-.01.05-.04.1-.1.1-.14 0-.22-.15-.35-.13-.06 0-.04.09-.1.1-.1.06-.12.19-.2.26-.05.01-.12 0-.15.05s-.07.1-.05.17c.03.12.07.24.14.34a.64.64 0 0 1-.3.26.42.42 0 0 1-.23.04L5 16.47c.02-.06.06-.1.09-.16.01-.05.03-.1.07-.14.12-.12.27-.2.4-.29.04-.02.04-.06.06-.1a.67.67 0 0 1 .07-.18c-.12.04-.24.1-.36.16-.16-.04-.33-.02-.5-.02-.02.12-.03.25-.08.36-.04.1-.14.12-.23.13-.15.02-.29-.06-.42-.11a.97.97 0 0 1 0-.27l-.1-.64c-.05-.05-.03-.13.03-.16l.3-.2c.16-.01.32.04.47.1.11.03.25.03.35-.05.06-.04.15-.06.17-.14.03-.09.08-.16.13-.25.02-.04 0-.09-.03-.13-.03-.04-.06-.1-.12-.1-.08 0-.12.08-.19.1-.12.01-.24 0-.36-.01-.06 0-.1-.12-.1-.25l.23-.8c0-.06.05-.12.1-.15.13-.01.27 0 .4.03.2.1.24.34.32.53.06 0 .14-.01.19.03.05.06.05.15.12.19.05.04.12.07.16.13.02.08-.02.18.05.24.1.1.25.08.38.07.26-.04.46-.22.67-.35.18-.11.37-.18.56-.26.16-.07.33-.07.5-.09a.56.56 0 0 0 .27-.25c.06-.1.18-.12.26-.2.1-.09.2-.17.28-.27a5 5 0 0 0-.17 0l-.01-.05c-.16-.02-.3-.07-.45-.15-.1-.06-.23-.07-.34-.12a.83.83 0 0 0-.23-.04.47.47 0 0 1-.02-.06c-.1 0-.15-.1-.23-.15-.08-.06-.2-.1-.2-.21-.03-.13-.08-.25-.07-.38.01-.06.04-.12.06-.17 0 .08 0 .15.02.22.02.09.07.15.12.22.05.07.1.15.17.2.15.08.33.12.5.12.15-.01.3.02.46-.02.2-.05.41-.06.6-.15.15-.07.3-.17.4-.3.15-.22.37-.37.5-.6-.17.12-.34.23-.54.27-.1.02-.21-.02-.32-.01-.11 0-.22-.05-.33-.07 0-.1 0-.2.04-.3.03-.05-.01-.1-.03-.15-.1-.16-.17-.34-.33-.44 0 .11 0 .23.02.34.02.13-.03.26-.05.4a.41.41 0 0 1-.11.21c-.07.06-.05.15-.1.22a.5.5 0 0 1-.12.14c-.06.04-.13.05-.2.07-.11.03-.22.07-.34.09-.05.02-.08-.04-.11-.08a.9.9 0 0 1 .34-.18c.2-.07.32-.28.34-.48v-.44c0-.13-.1-.24-.1-.37.01-.35-.11-.69-.14-1.03-.08.2-.15.4-.2.6-.05.15-.14.3-.23.43-.06.1-.12.22-.22.3-.1.07-.27.11-.38.01.08-.03.17-.05.22-.11.09-.1.17-.2.2-.34.03-.12.07-.25.07-.37 0-.13-.01-.25-.04-.37-.02-.07-.07-.12-.1-.18-.05-.08-.07-.17-.12-.24l-.18-.14c-.01.08 0 .18-.1.23-.05.04-.11-.02-.16-.06.05-.04.13-.07.12-.15 0-.17-.04-.34-.1-.5l-.17-.45V7.8h2.1l.03.14c.18.02.37.04.54.1.16.07.24.25.32.4.03.05.1.07.16.1.1.05.18.12.27.16.15.07.32.08.46.17l.24.12c.12.05.2.16.33.2.08.02.14.09.22.11.06 0 .12-.04.18-.06.28-.12.58-.12.86-.2-.09-.07-.22-.1-.29-.2-.07-.11-.18-.17-.28-.23-.16-.12-.32-.26-.36-.46a.89.89 0 0 1 .04-.36c.05.1.04.24.1.36.1.16.22.32.4.4.09.02.17 0 .25.02.14.02.26-.04.4-.06.17-.03.32-.13.5-.15.1 0 .2-.06.32-.06h.27c.16.03.25.2.42.23a.6.6 0 0 0 .56-.24c.05-.06.03-.15.03-.23l.07-.05.05.05a.4.4 0 0 1 .28-.16l.32-.05c.26-.04.52-.02.78-.04.2-.03.38-.1.57-.13.1-.02.17-.1.24-.17.04-.04.08-.05.15-.08.06-.07.1-.3.19-.33.02-.14 0-.29.01-.44 0-.07.1-.1.13-.18a.52.52 0 0 1 .1-.2c.07-.08.07-.19.15-.25.07-.05.04-.15 0-.21l-.08-.01c0 .14-.13.23-.21.33-.06.07-.14.12-.2.17a.57.57 0 0 0-.11.16l-.09.18c-.02.11 0 .22-.03.33-.02.09-.02.18-.06.27-.05.1-.1.23-.22.26-.25.07-.51.09-.77.14-.1.03-.2.03-.3.04-.16.02-.33.07-.5.08-.1 0-.2 0-.3.05-.13.06-.28.08-.43.1a.33.33 0 0 1-.26-.07c.01-.07.03-.15.03-.23 0-.07.04-.15.12-.15a.6.6 0 0 1 .3 0c.09.02.18-.04.28-.07.1-.02.17-.08.26-.14.07-.05.17-.01.26-.02l.16-.1c.1.01.2.1.3.08a.78.78 0 0 0 .18-.07c.07-.04.07-.08.1-.17-.03-.18-.04-.3.03-.36.02-.18 0-.3.04-.47.05-.18.06-.37.06-.54-.05-.17-.08-.22-.17-.26-.08-.04-.14-.11-.23-.11l-.22-.02c-.1 0-.18.06-.27.07-.04-.02-.08-.05-.13-.06-.1-.02-.18.03-.26.03-.07 0-.13-.04-.2-.04-.06.01-.11.06-.18.07-.08-.01-.15-.05-.22-.08-.06-.02-.1-.08-.16-.1-.13.03-.23.13-.35.19l-.03-.1a.95.95 0 0 1-.26-.06c-.1-.04-.2-.05-.29-.1-.07-.05-.17-.07-.22-.15-.08-.09-.06-.21-.04-.31l.1-.02c-.02-.15 0-.3-.03-.46-.02-.07.05-.11.1-.16.08-.07.2-.06.3-.1.16-.03.32-.12.5-.1.04 0 .06-.04.1-.06.04.17.18.28.33.35.13.06.31.13.46.15 0 .05.12.14.17.2.03.04.06.1.12.1l.28.05c.2 0 .4 0 .6-.08l.04-.07c.07 0 .15-.01.21.02.07.04.14.09.21.08.08-.01.17-.02.22-.09a.94.94 0 0 1-.49-.15c-.08-.05-.13-.15-.2-.21-.1-.03-.2-.04-.27-.1-.07-.06-.09-.16-.1-.24-.13 0-.27-.01-.4.05-.08.07-.15.18-.27.2-.2.04-.43.05-.61-.05-.11-.05-.17-.16-.22-.27.05-.06.07-.15.12-.21.1-.08.22-.12.33-.16.42-.14.88-.15 1.32-.13.35.02.7.03 1.04.1.14.04.27.12.4.2l.05.09-.03.21c.11-.01.1-.16.15-.23.06-.12.22-.15.34-.11.1.04.22.09.27.2.09.16.18.35.1.53-.05.16-.07.35-.23.45a.94.94 0 0 1-.5 0v.14c.2.1.42-.04.63-.03 0 .2 0 .38.05.57.06.2.1.4.11.61.02.17.02.35.08.52.03.15.03.3.07.46.02.07-.02.14-.04.22.02.12.08.24.11.36.08.2.22.38.43.45a.31.31 0 0 1-.3.01c-.1-.05-.14-.17-.22-.26-.04-.08-.13-.13-.16-.2-.13-.2-.14-.44-.2-.66-.02.22 0 .45.08.65.03.1.1.17.17.23-.02.07-.05.14-.05.21 0 .26-.02.52-.04.78 0 .08.04.15.07.22.06-.04.1-.1.15-.14 0 .1-.06.2-.13.28-.1.08-.22.07-.32.12a.98.98 0 0 0-.18.58c.04.17.15.32.26.45.06.06.1.14.17.18.1.07.26.1.37.15l-.02.05c-.13.04-.28.01-.4 0-.12 0-.2-.1-.3-.15-.33-.26-.5-.66-.7-1.01.07.21.17.4.25.61.04.1.1.2.11.32-.02.14-.12.26-.15.4l-.1.33c-.02.16-.02.32-.01.49 0 .12.08.23.14.33.05.09.1.16.19.21.09.06.18.12.28.14.17.02.38-.07.43-.23l.06-.12c.03.17.03.4-.15.5-.28.18-.66.27-.97.13a2.71 2.71 0 0 1-.74-.61c.15.25.33.49.57.64.1.07.22.1.33.14.1.1.14.26.24.38.12.15.26.28.4.42.15.17.28.37.44.53l.23.28a8 8 0 0 1 .4.56c.06.1.15.2.2.31.11.2.26.35.4.51.1.14.25.23.36.35.16.12.3.26.4.42.04.08.08.15.15.21.1.1.17.24.26.36l.24.26c.09.1.14.22.24.31.05.05.13.07.2.1.1.03.17.09.28.1.16.01.33.02.5 0 .14 0 .29-.07.38-.19.05-.06.11-.1.13-.19.02-.15 0-.3.02-.46a.84.84 0 0 0-.22-.58l-.24-.36c-.06-.11-.15-.2-.22-.31-.1-.16-.26-.3-.35-.46l-.19-.24c-.1-.14-.22-.25-.31-.39-.1-.1-.13-.23-.19-.35-.09-.2-.18-.4-.22-.62l-.01-.34c-.02-.13-.08-.25-.06-.38 0-.11-.05-.21-.07-.33-.02-.2-.04-.4-.08-.6-.03-.12-.02-.24-.05-.36-.04-.26-.13-.52-.17-.78-.02-.15-.11-.28-.15-.42a1.2 1.2 0 0 0-.18-.44.7.7 0 0 1-.07-.19c.14.13.3.27.36.46.1.23.2.47.26.72l.2.72c.02.09.04.18.1.25.07.12.1.26.16.39.06.1.08.23.13.34a.6.6 0 0 0 .19.2.4.4 0 0 0 .14-.24c.04-.13.1-.27.13-.4.13-.37.35-.7.54-1.04a.8.8 0 0 1 .14-.18c.02.08.06.16.13.21.06.06.06.15.11.22.02.02.04.05.02.08-.04.15-.11.3-.18.45-.04.08-.06.18-.08.27-.09.22-.14.44-.18.67l-.1.51a1.3 1.3 0 0 0-.05.38c0 .13 0 .27.02.4.07.38.26.75.5 1.05.07.1.1.23.24.27.1.03.25.06.35-.03.03-.03.09-.03.14-.05.06-.12.15-.24.2-.37.08-.18.14-.38.17-.57l.04-.4a6.24 6.24 0 0 0-.11-.83l-.11-.36c-.08-.29-.22-.55-.32-.83a.59.59 0 0 0-.07-.17c-.1-.16-.17-.33-.26-.5-.09-.15-.2-.3-.27-.47a3.33 3.33 0 0 0-.2-.41c-.12-.2-.21-.4-.32-.6-.04-.05-.05-.1-.07-.16-.19-.37-.4-.73-.48-1.14l-.17-.6c-.05-.24-.07-.47-.13-.7-.02-.13-.05-.27-.05-.41a7.86 7.86 0 0 0-.1-.7l.02-.37c-.07 0-.13 0-.18-.02a.45.45 0 0 1-.13-.15c-.05-.07-.15-.1-.2-.16l-.28-.26-.15-.25c-.03-.06-.09-.13-.09-.21 0-.13-.05-.25-.03-.37.05.09.05.2.12.28.06.1.15.17.23.26.09.11.23.14.35.22l.09-.09c0-.08-.02-.16-.04-.24l-.07-.26c-.03-.08-.1-.16-.15-.24-.02-.06-.02-.13-.06-.2-.03-.1-.09-.19-.14-.28-.04-.16-.04-.33-.04-.5-.02-.13.06-.25.06-.37.01-.14.05-.28.09-.41a.43.43 0 0 1 .09-.15c.02.17-.06.34-.07.51-.02.14-.04.28.01.4.06.22.11.45.24.65.1.16.2.31.28.49 0-.23 0-.46.02-.7-.02-.16-.02-.33-.08-.49-.02-.11 0-.23-.02-.35a.77.77 0 0 1 .04-.4c.08-.17.13-.34.22-.5a.33.33 0 0 1 .1-.12c-.02.12-.08.24-.08.36-.02.18-.02.35-.02.53 0 .17.06.34.1.5.03.16.1.3.12.46.02-.12.02-.24.06-.36.09-.25.07-.52.13-.77l.16-.64c.1-.16.17-.33.3-.45.1-.1.2-.21.33-.26zm.68.04c.16.07.26.23.33.37.06.11.18.17.22.3.04.12.11.24.11.38 0 .27 0 .53-.02.8.02.26.06.52.06.78.11-.1.15-.23.2-.35.1-.26.15-.53.24-.8.04-.14.02-.28.02-.43a2 2 0 0 0-.13-.65c.11 0 .18.1.2.2.06.14.11.29.13.45.02.2-.02.39-.03.58 0 .13-.06.26-.08.4-.02.33-.16.65-.2.98.09-.06.15-.15.24-.21.09-.07.18-.14.24-.25.05-.1.13-.2.13-.33.01-.12.09-.23.1-.36.02-.14-.01-.3.04-.44.04.08.04.18.06.27.04.23-.02.46-.06.69-.01.14-.03.29-.09.43l-.15.47-.14.45c.14-.09.3-.2.42-.32.22-.2.3-.5.33-.8.06.2.04.41 0 .61-.03.17-.07.35-.2.48l-.15.2-.24.24c-.07.08-.14.16-.23.22-.13.08-.28.17-.4.28l.08.3c.02.08.02.16.02.24 0 .22 0 .44-.05.65-.02.08-.02.16-.02.24-.02.1-.06.19-.06.29l-.05.32c-.06.19-.08.38-.11.57-.04.11-.04.23-.08.34-.03.12-.05.25-.09.37-.04.18-.11.34-.17.52-.05.18-.14.34-.2.52l-.05.01c-.08-.07-.11-.16-.17-.24-.07-.1-.17-.22-.11-.34.05-.17.17-.32.22-.49.11-.3.22-.59.26-.9.05-.19.05-.38.1-.57.05-.22.06-.45.08-.68.02-.1 0-.21 0-.32 0-.26.02-.53 0-.79a.58.58 0 0 0-.1-.24c-.17-.19-.28-.41-.43-.62a1.37 1.37 0 0 1-.08-.47c0-.1-.01-.19 0-.28.02-.12.08-.24.1-.36 0-.11.05-.23.07-.34l.1-.45a.47.47 0 0 0 0-.22c-.03-.15 0-.3-.04-.44 0-.1.01-.22-.02-.32-.04-.1-.02-.2-.04-.29-.02-.22-.11-.42-.11-.65zm-8.15.56c.18.06.36.1.55.12a.3.3 0 0 1-.18.15.73.73 0 0 1-.57-.06c.03-.1.13-.14.2-.21zm.97.78c.05 0 .1.05.1.1-.06.06-.15.03-.18-.03 0-.03.02-.05.05-.06l.03-.01zm-1.51.16c.03 0 .07 0 .1.02 0 .05-.02.1-.08.13s-.14-.04-.12-.1a.12.12 0 0 1 .1-.05zm1.25.05H16c.34.01.68 0 1.01.08.14.03.28.03.42.07.17.04.33.12.5.18-.02.07-.1.1-.17.12-.06-.05-.1-.1-.18-.12a7.93 7.93 0 0 0-1.54-.2 3.9 3.9 0 0 0-1.36.17.49.49 0 0 1 .23-.18c.19-.04.39-.08.59-.1l.44-.02zm1.85.02c.07 0 .14.03.17.1-.02.07-.12.1-.17.04-.04-.03-.04-.09-.05-.13h.05zm-2.27 1.16c.07 0 .14.02.2.04.04 0 .03.06.04.09-.08 0-.16-.04-.23-.06-.01.1.05.2.13.24.09.02.18.02.26.01.08-.04.09-.13.12-.2l.22.14c-.1.05-.18.1-.28.12h-.29a.41.41 0 0 1-.3-.1c-.04-.06-.08-.14-.05-.2a.25.25 0 0 1 .18-.08zm2.92.49c.02.14.07.29.15.41.09.12.22.2.31.3a.93.93 0 0 1-.3-.18.37.37 0 0 1-.14-.22c-.04-.08-.04-.16-.07-.24l.05-.07zm-6.65.99c.07 0 .14.02.2.06l.35.29c.23.16.48.33.77.36.21.02.43.05.65.03H14c.19 0 .36-.08.55-.09l.44-.02c.2.01.4.05.6.08.17.02.34.05.5.12.06.05.06.15.06.22-.22-.03-.39-.18-.6-.2-.15-.02-.3-.06-.45-.05h-.2c-.25 0-.51.04-.77.08-.55.1-1.1.1-1.65 0-.12-.01-.22-.09-.31-.15-.15-.09-.3-.19-.42-.3a.34.34 0 0 1-.12-.2c-.01-.08.01-.18.09-.21a.22.22 0 0 1 .09-.02zm4.24.18c.05 0 .1 0 .14.03.02.18 0 .37.01.56a.86.86 0 0 1-.13-.2h-.18c.04-.12 0-.24-.02-.35a.7.7 0 0 1 .18-.04zM8.95 11.5l.15.09c-.07.2-.15.39-.25.57-.03.05-.06.1-.12.11h-.34c-.1-.01-.21.01-.31-.03-.03 0-.05-.02-.05-.05.1-.04.21-.05.3-.11.12-.06.2-.16.3-.23.12-.1.25-.2.32-.35zm.55.21l.14.01v.22c-.17.1-.32.22-.51.25-.1.01-.2.05-.3.05.15-.16.26-.36.45-.47a.44.44 0 0 1 .22-.06zm13.71.21c.02 0 .04 0 .04.02.1.12.11.27.16.4.15.42.24.86.28 1.3.02.2-.02.4-.04.6-.01.23.02.48-.07.7-.06.12-.17.18-.26.25-.07.06-.18.01-.24-.05a1.84 1.84 0 0 1-.24-.41c-.07-.18-.2-.34-.2-.53 0-.18-.05-.36-.02-.54.04-.18.04-.37.08-.55a2.8 2.8 0 0 1 .35-.98c.03-.07.05-.17.13-.2h.03z"/><path fill="#000" d="M6.49 3.62c-.27 0-.62 0-.76.09-.1.06-.08.09-.17.18-.04.43-.46.68-.47 1.02.02.1.08.17.11.28l-.36-.32c-.3.22-.54.32-.73.63.06.25.01.68.12.89h1.23v-.74h1.17v.74H8.2c.15 0-.2-.18-.03-.44.1-.18.26-.43.29-.62.04-.24-.13-.48-.12-.63-.05-.13-.4-.3-.4-.3a1.9 1.9 0 0 1-.38.42c-.26.17-.09.14-.43.27-.18.08-.18.2-.27.2-.22.08-.08.08-.06-.1-.01-.15-.06-.3-.06-.45.21-.17.37-.44.5-.67-.28-.27-.4-.6-.75-.46z"/><path fill="#ed1b24" d="M6.57 3.83c.17.03.33.17.33.33.05.15-.16.41-.25.35-.56-.36-.11.1-.16.2.21.06.16.48 0 .76-.13.04-.45.14-.34-.1.33-.27-.15-.47-.33-.54-.16.04-.4.2-.42.4.09.09-.12.08-.1-.07-.17-.22 0-.42.14-.6.14-.17.14-.39.24-.56.1-.16.3-.14.46-.14.15.01.28.03.43-.03zm1.35.9l-.17.03c0 .07-.12.15-.17.22-.06.01-.1.15-.15.12-.08.02-.29.1-.33.18-.1.16.04.24 0 .31-.19-.2-.28-.03-.34.01v.78h1.2l-.08-.08c-.24 0-.75.08-.46-.42.17.26.35.25.39.22.07-.05 0-.14.04-.19.15-.1.29-.38.39-.5.1-.12-.1-.27-.11-.4.02-.17-.05-.26-.21-.28zm-2.67.67c.06.23.05.2.04.26.02.08.03.18-.01.26-.04.06-.2.05-.26.02-.1-.06-.18-.15-.29-.15-.09 0-.15.06-.2.13a.6.6 0 0 0-.08.22c0 .05.07.08.08.13 0 .05-.07.07-.1.02-.06-.08-.05-.2-.07-.29 0-.07.04-.14-.01-.2a.43.43 0 0 1 .08-.3c.06-.08.08-.18.17-.2a.76.76 0 0 0 .22-.18l.43.28z"/><path fill="#0f0" d="M11.7 7.86l.02-.02-.01.02zM22.8 1.2c-.02.02-.04.03-.04.05 0-.02.01-.05.03-.05z"/><path fill="#000" d="M18.06 3.56a.24.24 0 0 0-.2.11c-.02.08 0 .17.03.25.02.08.1.1.13.18 0 .03-.03.05-.04.08-.07-.01-.15-.1-.19-.05-.03.05-.08.21-.04.28.02.02.03.06.06.05.1-.01.22.02.3-.06.07-.08.16-.16.18-.28a.77.77 0 0 0-.03-.45.32.32 0 0 0-.2-.11zm.04.26c.05.02.08.07.1.1.05.07.02.14.01.2-.12-.04-.13-.2-.11-.3zm-4.63.29c-.04.02-.09.06-.07.1.01.05.05.09.04.14-.01.04 0 .08.02.11h.08c0 .04 0 .07.03.1l.1.01c.02-.05 0-.1.05-.14 0-.06.01-.14-.03-.2-.06-.05-.13-.12-.22-.12z"/><path fill="#fff" d="M13.59 5.25c.06-.06.33.03.33.1.03.12-.06.27-.14.31-.12-.08-.23-.27-.2-.4zm1.03.17l-.15.34c-.27-.05-.22-.26-.21-.37.13-.1.25-.06.36.04zm1.32-.03c-.03.15-.12.16-.18.24a.28.28 0 0 1-.12-.25c.14-.13.19-.04.3.01zm-.95-.06l.34.02c0 .07-.08.26-.14.27-.23-.02-.19-.16-.2-.28zm1.1 1.34c-.02.07.14.32.01.36-.09.05-.25.07-.2 0-.08-.09-.02-.3.19-.36zm-.41.07c.05 0 .08.25.07.3-.04.04-.2.03-.24.05-.19-.08.05-.29.17-.35zm-.64.06c.08.02.13.14.18.21l-.01.14c-.12 0-.16.13-.28.08 0-.05-.03-.08-.04-.13.04-.08.1-.24.15-.3zm-.44.13c.07.08.16.21.13.34l-.22.02c-.06.02-.03-.1 0-.15.01-.03.05-.2.1-.21z"/><path fill="#2a57c6" d="M21.46 26.29c.04.17.2.44.4.44s.27-.31.5-.27c.23.05.48.23.48.23s-.03-.53-.3-.62c-.23-.1-1.06-.17-1.08.22zm-2.45 2.89c.02-.46-.18-.59-.33-.51s-.33.25-.35.47c-.05.22.06.72.59.78-.22-.28-.1-.72.1-.74zm-2.08-1.53c.19-.16.18-.62-.11-.57-.15-.02-.4.13-.52.24-.59.55-.53.94-.1 1.6.12-.68.15-.86.73-1.27zm.08-1.97c.53-.18.42-.31.36-.66-.54-.2-1.23.15-1.2.77.33-.37.92-.27.84-.1zm-9.49-.83c.12.43.46.85.95.81 0 0-.4-.5-.34-.59s.1-.3-.04-.36c-.23-.08-.58-.1-.57.14zm-.49-1.8c0-.06-.26-.48-.41-.45-.3.13-.81.74-.58 1.18.1.13.23.13.23.13s.06-.42.21-.46c.15-.03.2.06.36-.07.38-.15.2-.2.19-.33zm.45-1.22s.58.15.64.02c.06-.11.15-.35-.03-.46-.18-.1-.52-.3-.7-.22-.18.09-.59.22-.62.42-.03.19.04.3.04.3.03-.22.64-.3.67-.06zm-.38-5c.23.39.03.4-.29.65.56.1.9-.06 1.1-.7-.3-.36-.51-.1-.81.05zm-2.05-.23c-.42.56-.1.91.1 1.22-.01-.65.29-.54.32-.69.1-.48-.34-.6-.42-.54zm-.95-.77c.16-.28.13-.4.05-.48-.12-.12-.22-.1-.34-.05-.67.14-.61 1.42-.15 1.61-.1-.41-.1-.75.05-.8.15-.07.43-.22.4-.28zm.73-2.04c.32-.48.1-.49-.11-.49-.2 0-.53.13-.66.3-.15.2-.25.67-.01.9 0 0 .09-.52.33-.52s.23.14.32.05.02-.09.13-.24zm11.4-7.48s-.79-.3-1.28-.25c-.47.04-1.21.3-1.77.17-.52-.12-.61-.27-.87-.46-.18-.13-.38-.37-.64-.3-.24.06-.07.57.28.8.32.18.7.22.89.24.4.02 1.24-.04 1.51-.07 1.38-.2 1.1.23 1.76.26M5.6 4.9c.17-.03.29-.14.4-.09.08.05.17.23.26.35-.24.56-.4.75.23 1.23-1.09 0-1.15-.9-.89-1.48z"/><path fill="#2a57c6" d="M7.1 5.5c-.3.34-.4.46-.82.53.36.22.85.32 1.23.01.19-.55-.06-.7-.4-.55zm-2.03.49c.24.05.41.18.67.17 0 0-.03.16-.2.21-.37.12-.78.09-.89.02-.26-.38.05-.68.42-.4z"/></svg>