<svg version="1.1" xmlns="http://www.w3.org/2000/svg" viewBox="0 0 32 32"><path fill="#000" d="M.68 0h30.64c-.48 5.37-.8 8.63-1.43 15.57C28.76 28.4 21.2 32.07 16 32c-5.92.06-12.98-4.16-14-16.41C1.56 10.04 1.13 5.37.69 0z"/><path fill="#ff0" d="M1.36.67c.24 3.35.77 9.61 1.13 14.04h26.93c.37-4.26.8-9.02 1.21-14.04H1.37z"/><path fill="red" d="M2.56 15.58c.94 11.67 7.73 16 13.46 15.95 5.03.06 12.28-3.64 13.33-15.96l.07-.86H2.5l.06.87zM13.78 3.47s-.61-.38-1.05-.46c-.2-.04-.44.03-.54.05-.33.04-.53.27-.74.29s-.41-.08-.41-.08.05.35.32.35.45-.27.68-.35c.09-.03.4-.16.72-.1.54.1 1.24.41 1.24.41l-.22-.11zm4.44 0s.61-.38 1.06-.46c.2-.04.43.03.53.05.33.04.53.27.74.29s.41-.08.41-.08-.05.35-.32.35c-.28 0-.45-.27-.68-.35-.09-.03-.4-.16-.72-.1-.53.1-1.24.41-1.24.41l.23-.11z"/><path fill="#000" d="M17.7 14.67c0-1.02.01-2.13.1-3.13.32.93.53 1.9 1.04 2.73.18.3.62.14.5-.22-.35-1.02-.96-1.95-1.06-3.05.43.83.65 1.77 1.31 2.47.53.6 1.34 1.2 2.18.94.33-.1.43-.53.24-.8-.48-.73-1.14-1.35-1.59-2.1 1.1.9 1.88 2.17 3.15 2.9.43.22.73-.14.45-.37-.33-.27-.73-.45-1.08-.7a9 9 0 0 1-2.58-2.94c.94.97 1.76 2.1 2.95 2.78.6.35 1.26.65 1.94.83.88.24 2.16.3 2.73-.05a.98.98 0 0 0 .52-.76c-.08-.42-.52-.58-.88-.69-1.65-.45-3.4-.74-4.77-1.84 1.89.72 4.07 1.76 5.88 1.47.72-.12.5-.57.1-.56-.88.03-1.75.05-2.59-.15a10 10 0 0 1-3.95-1.8c.84.3 1.57.8 2.42 1.07 1.22.4 2.54.8 3.83.44.39-.15.86-.36.95-.81.1-.39-.17-.86-.58-.86-1.54-.06-3.13-.07-4.6-.63.54 0 1.06.08 1.58.18 1.16.17 2.37.2 3.49-.18.04-.01.36-.17.3-.37-.06-.21-.34-.2-.37-.2-.86.16-1.71.43-2.6.33-1.23-.09-2.5-.2-3.67-.65 1.72.01 3.47.77 5.17.2 1.65-.44 2.17-2.36.74-2.28-.08 0-1.64.3-2.21.4-.7.15-1.4.25-2.13.15 1.61-.49 3.7-.2 4.92-1.53.06-.07.18-.22.1-.38-.07-.15-.5-.11-.78.07a9.95 9.95 0 0 1-6 1.44c1.9-.32 4.04-.35 5.57-1.68.63-.45 1.15-1.28.8-2.06-.12-.5-.69-.55-1.07-.38-1.12.5-2.04 1.37-3.16 1.86-.65.28-1.31.53-2.01.66.88-.54 2.1-.88 2.44-1.96.01-.04-.02-.18-.08-.22-.08-.05-.18-.1-.27-.06-.16.07-.63.68-.97 1-.58.57-1.35.92-2.06 1.29.42-.36.88-.71 1.19-1.18.16-.34.38-.91.11-1.08s-.66-.05-.85.22c-.32.5-.48 1.23-.92 1.66-.48.32-1.03.39-1.5.72-.16.13-.32.37-.21.58.11.3.3.56.4.86.06.2.02.42.06.62.1-.18.22-.35.34-.51.07.5.26.92-.04 1.49-.3.56-1.14.64-1.77.66.09-.1.17-.18.27-.26-.67-.24-1.4-.53-1.66-1.24l.5.1c-1-1.21-.27-2.5.13-3.05.2-.28.53-.42.81-.5.3-.08.6-.07.6-.1.04-.03.03-.04.02-.1s-.67 0-.67 0 .5-.58 1.1-.6c.62-.03.78.22.78.22s.35-.33.1-.58c-.24-.26-.58-.23-.73-.21-.16.03-.29 0-.29 0s.04-.28-.31-.38c-.36-.11-1.2.1-1.57.19s-.73.08-.73.08l.22.3.34.04s-.49.3-.82.57c-.34.27-.4.46-.4.46l.42-.16s-.38.3-.62.9c-.13.33-.1.3-.34 1.3-.24-1-.22-.97-.34-1.3-.24-.6-.62-.9-.62-.9l.42.15s-.05-.19-.4-.46c-.33-.26-.82-.56-.82-.56l.34-.04.22-.3s-.35 0-.73-.09-1.22-.3-1.56-.19c-.36.1-.32.39-.32.39s-.13.02-.29 0c-.15-.03-.5-.05-.73.2s.1.58.1.58.16-.24.78-.21c.61.02 1.1.6 1.1.6s-.66-.04-.67 0c0 .05-.02.07.01.1.02.02.32.02.6.1.3.08.62.22.82.5.4.54 1.13 1.83.14 3.05l.49-.11c-.26.72-1 1-1.65 1.25l.26.25c-.63-.02-1.46-.09-1.77-.66-.3-.56-.11-.99-.04-1.49l.35.51c.03-.2 0-.43.06-.61.1-.3.28-.57.4-.87.1-.2-.05-.44-.22-.57-.47-.34-1.01-.4-1.5-.73-.43-.42-.59-1.16-.91-1.65-.2-.28-.6-.4-.86-.23s-.05.75.12 1.08c.3.47.77.82 1.19 1.18-.72-.37-1.48-.72-2.07-1.3-.33-.3-.8-.92-.96-.98-.1-.04-.2 0-.27.05-.06.04-.1.19-.08.23.33 1.08 1.56 1.42 2.44 1.96a9.02 9.02 0 0 1-2.02-.67C5.9 3.26 4.98 2.4 3.86 1.9c-.39-.18-.96-.12-1.06.37-.37.79.15 1.61.78 2.07 1.54 1.32 3.68 1.35 5.57 1.68a9.94 9.94 0 0 1-6-1.45c-.28-.18-.7-.22-.79-.06s.05.3.12.38c1.2 1.33 3.3 1.04 4.9 1.53a6 6 0 0 1-2.11-.15c-.58-.11-2.14-.4-2.21-.4-1.43-.08-.91 1.84.73 2.29 1.7.57 3.45-.19 5.18-.2a13 13 0 0 1-3.68.65c-.88.1-1.74-.17-2.6-.32-.03 0-.3-.02-.36.19-.07.2.25.36.3.38 1.12.37 2.33.34 3.49.17a8.3 8.3 0 0 1 1.57-.17c-1.47.56-3.04.57-4.59.62-.41 0-.69.47-.58.86.09.45.56.66.94.81 1.29.37 2.62-.03 3.84-.44.85-.28 1.58-.78 2.41-1.06a10.3 10.3 0 0 1-3.95 1.8c-.84.2-1.71.17-2.58.14-.42-.01-.62.44.1.56 1.8.3 3.99-.75 5.87-1.47-1.37 1.1-3.12 1.39-4.76 1.84-.37.11-.8.27-.89.7.03.33.24.58.52.75.57.34 1.85.29 2.73.05a8.38 8.38 0 0 0 1.95-.82c1.18-.7 2-1.82 2.94-2.79a8.95 8.95 0 0 1-2.58 2.94c-.35.25-.74.43-1.08.7-.28.23.03.59.45.36 1.27-.72 2.05-1.98 3.15-2.89-.45.75-1.1 1.37-1.58 2.1-.2.27-.1.7.23.8.85.27 1.65-.34 2.18-.94.66-.7.88-1.64 1.31-2.47-.1 1.1-.7 2.03-1.06 3.06-.12.34.31.5.5.21.51-.83.72-1.8 1.04-2.73.1 1 .11 2.12.11 3.13h3.39v-.01z"/><path fill="#fff" d="M13.28 2.56c0 .08-.12.14-.28.14s-.27-.06-.27-.14c0-.07.12-.13.27-.13s.28.06.28.13zm5.44 0c0 .08.12.14.28.14s.27-.06.27-.14c0-.07-.12-.13-.27-.13-.16 0-.28.07-.28.13zm.03 16.49l-.61.64v10.47h-4.28V19.69l-.61-.64z"/><path fill="#000" d="M18.2 30.21h-4.4v-10.5l-.59-.62.08-.08.63.66V30.1h4.17V19.67l.62-.66.08.08-.6.62z"/><path fill="#fff" d="M13.86 19.7h4.28v10.46h-4.28V19.69z"/><path fill="#000" d="M18.2 30.21h-4.4V19.64h4.4V30.2zm-4.29-.1h4.18V19.74H13.9v10.37zM13.2 15.9h.1v3.15h-.1V15.9z"/><path fill="#fff" d="M17.55 15.9v1.38h-.98V15.9h-1.18v1.38h-.94V15.9h-1.2v3.15h5.5V15.9z"/><path fill="#000" d="M18.8 19.1h-5.6v-3.25h1.3v1.38h.83v-1.38h1.29v1.38h.87v-1.38h1.32v3.25zm-5.5-.1h5.4v-3.04h-1.1v1.37h-1.1v-1.37h-1.07v1.37H14.4v-1.37h-1.1V19z"/><path fill="#fff" d="M16.02 31.53a11.3 11.3 0 0 0 5.06-1.17l-.28-7.37.08-.87h-1.2v1.42h-.8v-1.42H17.5v1.42h-.8v-1.42h-1.38v1.42h-.8v-1.42h-1.38v1.42h-.8v-1.42h-.92l-.2 8.41c1.59.7 3.23 1.02 4.8 1z"/><path fill="#000" d="M16.15 31.58h-.13c-1.64.02-3.3-.33-4.82-1l-.03-.01.2-8.5h1.03v1.42h.7v-1.43h1.48v1.43h.7v-1.43h1.48v1.43h.7v-1.43h1.48v1.43h.7v-1.43h1.3l-.08.93.28 7.4-.03.02a11.38 11.38 0 0 1-4.96 1.17zm-.13-.1c1.68.02 3.41-.38 5-1.16l-.27-7.34.07-.82h-1.08v1.43h-.91v-1.43h-1.27v1.43h-.92v-1.43h-1.26v1.43h-.92v-1.43H13.2v1.43h-.9v-1.43h-.82l-.2 8.33c1.5.66 3.14 1 4.75.99z"/><path fill="#fff" d="M12.34 19.05l-.62.64v7.62H7.45V19.7l-.62-.64z"/><path fill="#000" d="M11.78 27.36H7.39v-7.65l-.6-.62.08-.08.63.66v7.59h4.17v-7.6l.63-.65.08.08-.6.62z"/><path fill="#fff" d="M11.72 30.74V19.7H7.45v8.21a12.22 12.22 0 0 0 4.27 2.84z"/><path fill="#000" d="M11.78 30.82l-.08-.03a12.28 12.28 0 0 1-4.3-2.84v-8.32h4.38v11.19zM7.5 27.88a12.12 12.12 0 0 0 4.17 2.78V19.74H7.5v8.14zM6.78 15.9h.1v3.15h-.1V15.9z"/><path fill="#fff" d="M11.14 15.9v1.38h-1V15.9H8.98v1.38h-.93V15.9h-1.2v3.15h5.5V15.9z"/><path fill="#000" d="M12.39 19.1H6.78v-3.25h1.31v1.38h.83v-1.38h1.28v1.38h.88v-1.38h1.3v3.25zm-5.5-.1h5.4v-3.04h-1.1v1.37h-1.1v-1.37H9.02v1.37H7.98v-1.37h-1.1V19zm2.25 3h.89v1.67h-.89V22z"/><path fill="#fff" d="M25.17 19.05l-.62.64v7.32h-4.27V19.7l-.62-.64z"/><path fill="#000" d="M24.6 27.07h-4.38V19.7l-.6-.62.08-.08.63.66v7.29h4.17v-7.3l.63-.65.07.08-.6.62z"/><path fill="#fff" d="M24.55 27.81V19.7h-4.27v11.02a12.2 12.2 0 0 0 4.27-2.9z"/><path fill="#000" d="M20.22 30.8V19.64h4.39v8.2l-.02.01a12.32 12.32 0 0 1-4.3 2.91l-.07.03zm.11-11.06v10.9a12.25 12.25 0 0 0 4.17-2.85v-8.05h-4.17zm-.72-3.84h.1v3.15h-.1V15.9z"/><path fill="#fff" d="M23.96 15.9v1.38h-.98V15.9H21.8v1.38h-.93V15.9h-1.2v3.15h5.5V15.9z"/><path fill="#000" d="M25.22 19.1h-5.61v-3.25h1.31v1.38h.83v-1.38h1.28v1.38h.88v-1.38h1.31v3.25zm-5.5-.1h5.4v-3.04h-1.1v1.37h-1.1v-1.37h-1.07v1.37h-1.04v-1.37h-1.1V19zm2.25 3h.89v1.67h-.89V22zM2.1 14.5h27.5v.32H2.1v-.31z"/></svg>