<svg version="1.1" xmlns="http://www.w3.org/2000/svg" viewBox="0 0 25 32"><path fill="#da121a" d="M.4.4h24.41v14.92c0 7.46-4.4 13.56-12.2 16.27C4.81 28.9.41 22.78.41 15.32V.41z"/><path fill="#000" d="M12.61 31.81l-.07-.02a18.96 18.96 0 0 1-9.12-6.43A16.65 16.65 0 0 1 .2 15.32V.2h24.82v15.12c0 3.73-1.12 7.2-3.22 10.04a18.97 18.97 0 0 1-9.12 6.42l-.07.03zM.61.61v14.71c0 7.42 4.48 13.42 12 16.06 7.52-2.64 12-8.64 12-16.06V.61h-24z"/><path fill="#fff" d="M5.9 10.73l.9.02c.49-.97.94-2.06 1.42-3.4.5-1.4 1.92-2.6 4.24-2.56 2.32.03 3.5 1.13 4.12 2.5l1.75 3.8.69.06.06-.62C18.45 9.35 18 7.84 17.15 6.4c-.86-1.47-2.46-2.44-4.64-2.5S7.83 5.18 7.14 7.88a6.28 6.28 0 0 1-1.19 2.39c-.55-.23-.33.15-.05.46z"/><path fill="#000" d="M19.02 11.25H19l-.7-.06c-.03 0-.06-.02-.07-.06l-1.75-3.8c-.73-1.6-2.05-2.42-4.03-2.44-2.4-.04-3.71 1.27-4.15 2.5-.47 1.32-.91 2.4-1.42 3.4a.1.1 0 0 1-.09.06l-.9-.02a.1.1 0 0 1-.08-.04c-.27-.3-.36-.5-.28-.62.07-.1.23-.08.37-.03.44-.59.84-1.16 1.13-2.3A5.23 5.23 0 0 1 9.2 4.77c.97-.66 2.15-1 3.3-.97 2.11.05 3.8.96 4.73 2.54.5.84.85 1.69 1.2 2.5.24.59.47 1.15.73 1.63l.02.06-.06.63c-.02.05-.06.1-.11.1zm-.63-.26l.54.05.05-.5c-.25-.5-.48-1.03-.73-1.62-.34-.81-.7-1.65-1.18-2.48-.9-1.52-2.51-2.38-4.56-2.44a5.25 5.25 0 0 0-5.27 3.9 6.2 6.2 0 0 1-1.2 2.42c-.03.04-.08.05-.13.03l-.19-.06c.02.06.09.17.23.33l.8.02c.48-.98.92-2.04 1.38-3.32.46-1.3 1.84-2.68 4.34-2.64 2.03.03 3.44.9 4.2 2.57l1.72 3.74z"/><path fill="#fff" d="M5.67 10.22l.3.51c.26.11.53.12.8.08a37.5 37.5 0 0 1 5.72-.57c2.03-.02 4.82.43 6.33 1.22.1-.39.14-.75.35-.97.55-.35.38.13.12.76.07-.01.92-.07.95.14.03.26-.28.32-.62.41-.05.7-.1 1.3-.37 1.5-.27 1.62-.42 3.01-.78 4.69-.06.83.01 1.8-.54 2.15l-.68 3.96c.23 2.57-3.71 2.55-5.24 2.52-1.43-.03-4.25.1-4.39-2.46l-.53-4.05a2.39 2.39 0 0 1-.43-2l-.68-5.13c-1.07-.4-.56-1.26-.52-1.98-.27.01-.93.26-.91-.02-.07-.55 1.04-.35.85-.68-.17-.33.17-.4.27-.08z"/><path fill="#000" d="M12.58 26.74h-.55l-.27-.01a8.1 8.1 0 0 1-2.6-.34 2.33 2.33 0 0 1-1.63-2.2L7 20.15a2.52 2.52 0 0 1-.44-2.05l-.66-5.05c-.84-.35-.71-1-.6-1.56l.07-.38-.17.04c-.28.06-.54.11-.66 0a.19.19 0 0 1-.07-.17c-.04-.39.36-.49.63-.55l.24-.07v-.01c-.12-.2-.07-.31-.04-.37a.2.2 0 0 1 .2-.08c.09.02.2.09.26.27l.28.48c.21.08.44.1.71.05 1.42-.26 3.85-.55 5.74-.56 1.92-.02 4.65.38 6.27 1.16l.03-.13c.07-.3.13-.56.32-.75 0-.01 0-.02.02-.02.14-.1.33-.18.44-.09.13.11.08.34-.12.83.24-.01.65-.02.8.1.07.05.09.1.09.14.05.33-.29.42-.6.5h-.03c-.05.7-.1 1.24-.37 1.48l-.24 1.54c-.15 1.03-.3 2-.53 3.12l-.02.44c-.04.7-.07 1.43-.53 1.76l-.67 3.9c.06.59-.1 1.09-.47 1.49-.94 1-3.06 1.12-4.3 1.12zM5.48 10.9c.03 0 .06.02.08.03a.1.1 0 0 1 .03.07c-.01.18-.05.36-.08.53-.12.58-.21 1.07.53 1.35.03.02.06.05.06.08l.68 5.13v.04c-.16.65 0 1.37.41 1.92.02.02.02.04.02.05l.53 4.05c.13 2.32 2.57 2.35 4.02 2.36l.27.01c1 .02 3.67.07 4.72-1.06.33-.36.47-.82.42-1.35v-.03l.67-3.95c.01-.03.03-.06.05-.07.4-.26.44-.95.48-1.62l.02-.46v-.01c.23-1.12.38-2.09.53-3.12l.25-1.58c0-.02.02-.04.04-.06.22-.17.28-.77.32-1.4v-.02c.01-.04.04-.08.08-.09l.1-.03c.32-.08.46-.14.44-.27-.08-.09-.67-.08-.83-.05-.04 0-.08 0-.1-.04s-.03-.06-.01-.1c.07-.17.26-.62.23-.74-.02.01-.08.02-.2.1-.13.14-.19.38-.25.64l-.07.27c0 .02-.03.05-.05.06s-.06.02-.1 0c-1.54-.8-4.4-1.22-6.28-1.2-1.87.02-4.29.3-5.7.57-.33.04-.6.02-.85-.08l-.05-.04-.3-.52v-.02c-.04-.1-.08-.13-.1-.14 0 .02 0 .07.04.15s.04.15.02.19c-.05.11-.2.15-.38.2-.31.07-.5.13-.48.33V11c0 .02 0 0 0 0 .05.05.35-.01.49-.04l.3-.06zm-.14-.53z"/><path fill="#000" d="M9.06 13.26l.05-.04.16.16-.04.05-.17-.17zm-.96-1.79s2.52-.33 4.3-.34c2.14 0 4.62.56 4.62.56-.13-.43-.07-.62.24-.89.76.03 1.45.31 1.68.37.37 2.23-5.7 1.83-7.64 1.8-1.67-.03-5.5.1-5.42-2.2.7.04 1.7 0 2.3-.15-.33.6-.1.43-.08.85z"/><path fill="#000" d="M7.6 19.5c0 .07-.07.13-.16.13s-.15-.06-.15-.14c0-.08.07-.14.15-.14s.16.06.16.14zm1.7.62c0 .08-.07.14-.15.14s-.16-.06-.16-.14c0-.08.07-.14.16-.14s.15.06.15.14zm2.03.38c0 .08-.07.14-.16.14s-.15-.06-.15-.14c0-.08.06-.14.15-.14s.16.07.16.14zm2.36-.1c0 .09-.07.15-.16.15s-.15-.07-.15-.14c0-.08.06-.15.15-.15s.16.07.16.15zm1.75-.3c0 .08-.06.14-.15.14s-.16-.06-.16-.14c0-.08.07-.14.16-.14s.15.06.15.14zm1.66-.43c0 .08-.07.14-.16.14s-.15-.07-.15-.14c0-.08.06-.14.15-.14s.16.06.16.14zm.74-6.7c0 .07-.07.13-.16.13s-.15-.06-.15-.14c0-.08.06-.14.15-.14s.16.07.16.14zm-1.55.3c0 .09-.07.15-.15.15s-.16-.07-.16-.15.07-.14.16-.14.15.06.15.15zm-2.17.26c0 .08-.07.14-.15.14s-.16-.07-.16-.15c0-.08.07-.14.16-.14s.15.07.15.15zm-2.36-.05c0 .08-.06.14-.15.14s-.16-.07-.16-.14c0-.08.07-.14.16-.14s.15.06.15.14zm-2.48-.18c0 .08-.07.14-.15.14s-.16-.06-.16-.14.07-.14.15-.14.16.06.16.14zm-1.93-.41c0 .08-.07.14-.16.14s-.15-.07-.15-.14c0-.08.07-.14.15-.14s.16.06.16.14z"/><path fill="#000" d="M11.97 25.6a7 7 0 0 1-4.28-1.25c-.05-.04-.06-.1-.02-.15s.1-.05.14-.02c.37.28.77.51 1.2.69l-.3-4.05a10 10 0 0 1-1.69-.64.11.11 0 0 1-.04-.13.11.11 0 0 1 .13-.05c1.66.82 3.85 1.2 6.17 1.04 2.01-.12 3.87-.62 4.86-1.31.04-.03.1-.02.14.03s.02.1-.03.14c-.5.35-1.24.66-2.1.9l-.41 3.93c.56-.2 1.04-.44 1.4-.68.05-.03.1-.02.14.03s.02.11-.03.14a10.18 10.18 0 0 1-5.28 1.37zm-1.05-.26c.51.06 1.03.07 1.53.04l-.04-4.1c-.55 0-1.1-.02-1.62-.07l.13 4.13zm1.69-4.07l.05 4.1c.45-.03.9-.09 1.33-.17l.1-4.01c-.27.02-.52.05-.79.06l-.7.02zm-3.4 3.68a7 7 0 0 0 1.5.37l-.12-4.13v-.01c-.58-.07-1.14-.17-1.67-.31l.3 4.08zm5.07-3.8l-.1 4c.48-.1.93-.21 1.35-.36l.42-3.95c-.52.14-1.08.24-1.67.31zm-2.17-1.33c-2.23 0-4.17-.51-5.4-1.42-.05-.03-.06-.1-.02-.14s.09-.06.14-.02c.47.34 1.01.62 1.62.83l-.53-5.19a9.69 9.69 0 0 1-1.9-.71.11.11 0 0 1-.05-.14.11.11 0 0 1 .13-.05l.17.08v-.23c-.01-.25-.02-.5.11-.84.02-.05.08-.07.14-.05s.07.08.05.13c-.11.29-.1.52-.1.76v.33c2.8 1.25 7.07 1.34 11.9.26l-.01-.04v-.27c0-.45 0-1.04.3-1.41.03-.05.1-.06.14-.02s.05.1.02.14c-.24.32-.24.9-.24 1.29l-.01.27.64-.15c.05-.02.1.02.12.07s-.02.11-.08.12c-.72.18-1.43.34-2.15.47l-.62 5.05a8.24 8.24 0 0 0 1.92-.9c.05-.03.1-.01.14.04s.02.1-.03.14c-1.4.92-3.61 1.52-5.9 1.6h-.5zm-1.51-.3c.58.07 1.18.1 1.79.08v-5.23h-.36c-.6 0-1.16-.02-1.7-.07l.27 5.22zm2-5.15v5.23c.6-.02 1.2-.08 1.8-.17l.3-5.2c-.72.08-1.42.13-2.1.14zm-3.93 4.76c.54.17 1.12.3 1.72.37l-.27-5.22c-.7-.08-1.37-.18-2-.34l.55 5.2zm6.24-4.92l-.31 5.19c.58-.1 1.14-.23 1.67-.4l.63-5.08c-.68.12-1.35.22-2 .29zm-8.89-1.9a.1.1 0 0 1-.1-.07.72.72 0 0 0-.33-.5c-.04-.02-.06-.1-.03-.14s.1-.06.14-.03c.22.13.37.36.41.63.02.05-.02.1-.08.11h-.01zm13.62-.4a.4.4 0 0 1-.3-.12c-.16-.16-.15-.43-.13-.54 0-.06.06-.1.11-.09s.1.06.09.12c-.01.12 0 .3.07.38.05.04.12.06.21.05.06 0 .11.03.11.09.01.05-.03.1-.09.1l-.07.01zM8.4 11.58a.1.1 0 0 1-.1-.1 1.9 1.9 0 0 1 .07-.91c.02-.05.08-.07.14-.05s.07.08.05.13c-.1.23-.08.56-.05.82 0 .06-.04.11-.09.11H8.4zm-2.94-.37l-.04-.01c-.05-.03-.07-.09-.04-.14.07-.14.06-.37-.02-.67a.1.1 0 0 1 .06-.13.1.1 0 0 1 .13.07c.1.36.11.63.01.82-.03.04-.06.06-.1.06zm13.2-.68a.11.11 0 0 1-.08-.03c-.33-.39-.63-1.1-.98-1.92-.4-.95-.87-2.04-1.46-2.76-.04-.04-.03-.11.01-.15s.1-.02.14.02c.61.74 1.08 1.84 1.5 2.82.33.77.63 1.5.94 1.86a.1.1 0 0 1 0 .14.11.11 0 0 1-.07.02z"/><path fill="#000" d="M10.48 25.43a.07.07 0 0 1-.07-.05c-.2-.88-.23-1.56-.25-2.12 0-.04.02-.07.06-.07.04 0 .07.03.07.07.02.56.06 1.23.26 2.1 0 .03-.02.07-.06.08v-.01zm-.9-.23a.07.07 0 0 1-.07-.05 7.23 7.23 0 0 1-.13-1.83.07.07 0 0 1 .14 0c-.02.44-.03.98.13 1.8 0 .03-.02.07-.06.08h-.01zm-.53-.24c-.03 0-.05-.02-.07-.04a15 15 0 0 1-.42-1.59c0-.03.02-.07.06-.08s.07.02.08.05c.06.36.2.87.41 1.57.02.03 0 .07-.04.09h-.02zm6.12-.3h-.02c-.03-.02-.05-.05-.04-.08.08-.3.15-.73.2-1.34 0-.03.03-.07.07-.06.04 0 .07.03.06.08a7.53 7.53 0 0 1-.2 1.36c0 .02-.03.04-.07.04zm-6.42-.08a.07.07 0 0 1-.06-.04A4.34 4.34 0 0 1 8.23 23v-.02c0-.04.02-.08.05-.08.04 0 .08.02.08.06v.02c.07.46.13.89.44 1.5.02.03 0 .07-.03.09h-.02zm-.65 0a.07.07 0 0 1-.06-.05c-.28-.85-.38-1.36-.47-1.85l-.02-.1c0-.04.02-.08.06-.08s.07.02.08.05l.02.1c.09.49.17 1 .46 1.83.01.04 0 .08-.04.09H8.1zm8.36-.32h-.01c-.04 0-.06-.05-.06-.08.18-.78.2-1.85.22-2.88v-.18a.07.07 0 0 1 .14 0v.18a15.52 15.52 0 0 1-.23 2.9c0 .03-.02.06-.06.06zm-6.5-.04c-.02 0-.05-.02-.06-.04a5.1 5.1 0 0 1-.15-.94c0-.04.03-.07.06-.07s.07.02.07.06c.02.28.05.53.15.92 0 .03-.02.07-.05.08h-.01zm4.99-.48h-.01c-.04-.01-.07-.05-.05-.08.07-.26.12-.53.1-.7 0-.04.03-.07.07-.08.03 0 .06.03.07.06.02.2-.03.44-.11.75a.08.08 0 0 1-.07.05zm1.2-.08h-.01a.08.08 0 0 1-.07-.07c.13-.99.15-1.61.17-2.21l.02-.55a.07.07 0 0 1 .14 0l-.02.55c-.02.6-.05 1.23-.17 2.22 0 .03-.03.06-.07.06zm.73-.02h-.01c-.04 0-.06-.04-.06-.07.05-.32.3-1.92.32-2.82a.07.07 0 0 1 .14 0 24.7 24.7 0 0 1-.33 2.84c0 .03-.02.05-.06.05zm-8.07-.39c-.02 0-.05-.01-.06-.04a12.55 12.55 0 0 1-.76-2.63c0-.03.02-.07.06-.08.03 0 .07.02.08.06.13.65.3 1.55.75 2.6.02.03 0 .07-.03.09H8.8zm.5-.19a.08.08 0 0 1-.07-.04 8.43 8.43 0 0 1-.43-1.72c-.01-.03.02-.07.05-.07.03-.01.08.02.08.05.08.55.2.94.3 1.28.05.14.1.28.13.41 0 .04-.01.08-.05.09h-.01zm-.34-.11c-.03 0-.05-.01-.06-.04a4.82 4.82 0 0 1-.4-1.65c0-.04.02-.07.06-.07.03 0 .07.03.07.07.02.5.15 1.04.4 1.6 0 .04 0 .08-.04.09h-.03zm5.77-.06h-.02c-.03 0-.05-.05-.05-.08.16-.57.2-.99.23-1.39v-.1c.02-.02.04-.06.08-.05.04 0 .07.03.06.07v.1c-.04.4-.08.83-.24 1.4 0 .03-.03.05-.06.05zm-4.24-.07c-.02 0-.05-.01-.06-.04a4.37 4.37 0 0 1-.36-1.64c0-.04.03-.06.07-.06s.07.02.07.06c.02.45.07.94.34 1.6.02.02 0 .07-.03.08h-.03zm-.62-.05c-.02 0-.04-.01-.06-.04a6 6 0 0 1-.34-1.79c0-.03.02-.07.06-.07.03 0 .07.02.07.06.07.66.14 1.35.34 1.74.01.03 0 .07-.04.09l-.03.01zm-1.8-.08c-.03 0-.05-.01-.07-.04a7.65 7.65 0 0 1-.5-2.26c0-.03.02-.06.06-.07.04 0 .07.02.08.06.09.91.27 1.72.5 2.2 0 .04 0 .08-.04.1l-.04.01zm7.38-.07c-.04 0-.06-.04-.06-.08l.06-.85c0-.04.03-.07.07-.06.04 0 .07.03.06.07l-.06.86c0 .03-.03.06-.07.06zm-4.78-.13a.07.07 0 0 1-.06-.05c-.15-.43-.21-.83-.27-1.15l-.02-.16c-.01-.03.02-.07.05-.08.04 0 .08.02.08.06l.03.15c.05.32.11.71.26 1.13a.1.1 0 0 1-.04.1h-.03zm4.45-.08l-.03-.01c-.03-.01-.05-.05-.04-.09.1-.26.15-.66.16-1.2a.07.07 0 0 1 .14 0 3.7 3.7 0 0 1-.17 1.24c-.01.04-.04.06-.06.06zm.54-.76l-.01-.01a.07.07 0 0 1-.05-.09c.05-.13.07-.32.08-.5V21c0-.04.04-.07.08-.06.04 0 .07.03.06.07v.07c-.02.18-.03.37-.09.53a.07.07 0 0 1-.06.05zm.1-2.4h-.02a.07.07 0 0 1-.04-.08c.05-.17.1-.54.15-.88.01-.03.05-.06.08-.05s.06.04.05.07c-.06.44-.1.74-.16.9 0 .02-.03.04-.06.04zm-5.83-.02c-.03 0-.06-.02-.07-.06a1.6 1.6 0 0 0-.05-.32l-.03-.12c0-.03.02-.07.05-.08s.08.02.09.06c0 .04 0 .07.02.1.02.07.04.15.06.36 0 .03-.03.07-.07.07zm-.44-.38c-.04 0-.06-.03-.07-.06l-.1-.76c0-.03.02-.06.07-.07.03 0 .06.02.07.06l.1.75c0 .04-.02.07-.07.08zm7.49-.34h-.01c-.04 0-.07-.04-.06-.08.12-.53.21-1.27.3-1.99l.1-.81c0-.04.04-.06.08-.06.03 0 .06.04.06.07l-.1.82c-.1.72-.18 1.47-.3 2 0 .04-.04.06-.07.06zm-8.8-.03a.07.07 0 0 1-.05-.05c-.24-.7-.29-1.32-.34-1.9l-.02-.25c0-.04.02-.07.06-.08.04 0 .07.03.07.06l.02.25c.05.58.1 1.18.33 1.88.02.03 0 .07-.04.08l-.02.01zm-.73-.01a.07.07 0 0 1-.07-.06l-.3-1.9c-.01-.04.02-.08.05-.08.03-.01.07.02.07.05l.3 1.91c.02.04-.01.08-.04.08h-.01zm8.12-.06h-.01c-.04 0-.06-.04-.05-.08.05-.23.07-.67.1-1.1v-.28c0-.04.04-.07.08-.06.04 0 .07.03.06.07l-.01.28a7.1 7.1 0 0 1-.1 1.13c-.02.02-.04.05-.07.05zm1.86-.2h-.01a.07.07 0 0 1-.05-.08v-.03c.05-.23.1-.47.15-.95 0-.03.03-.06.07-.06.03 0 .07.04.06.08-.05.48-.1.72-.14.96v.03c-.01.02-.05.05-.08.05zm.42-.24l-.03-.01c-.03-.02-.05-.06-.03-.09.1-.22.04-.6-.01-.97l-.03-.2c0-.03.02-.07.06-.07.03 0 .07.02.07.05l.03.2c.06.39.12.8 0 1.05 0 .02-.04.03-.06.03zm-1.8 0l-.03-.01c-.04-.02-.05-.06-.03-.09.09-.18.12-.6.15-1l.02-.32c0-.04.03-.07.07-.06.05 0 .07.03.07.07l-.02.31c-.03.45-.07.87-.17 1.07a.1.1 0 0 1-.06.03zm-7.12-.04c-.04 0-.06-.03-.07-.06l-.18-1.12c-.11-.7-.23-1.43-.35-2.51 0-.04.02-.07.06-.08.03 0 .07.02.07.06.12 1.09.24 1.81.36 2.51L9 17.85c.01.03-.02.07-.05.07l-.01.01zm-1.2-.04c-.02 0-.04-.02-.05-.05-.1-.21-.14-.63-.18-1.09l-.04-.47c0-.04.02-.07.06-.08s.07.02.08.06l.04.48a4 4 0 0 0 .16 1.05c.02.03 0 .07-.03.09h-.03zm2-.02c-.03 0-.06-.03-.07-.06l-.1-.87-.07-.67c-.01-.03.02-.07.06-.07.03-.01.07.02.07.06l.08.67c.02.29.06.58.1.87 0 .03-.02.07-.06.07zm-2.81-.2a.07.07 0 0 1-.07-.05 8.97 8.97 0 0 1-.11-.87l-.02-.13c0-.03.02-.06.06-.07.04 0 .07.02.08.06l.01.12c.03.26.06.53.12.87 0 .03-.02.07-.06.08h-.01zm2.38-.51a.07.07 0 0 1-.06-.05c-.24-.69-.3-1.35-.38-2l-.06-.55c0-.04.02-.07.06-.08.04 0 .07.02.08.06l.06.56c.07.63.14 1.3.37 1.96.01.04-.01.08-.05.1h-.02zm6.1-.25a.07.07 0 0 1-.06-.08l.12-.68c.1-.5.2-1.01.28-1.81 0-.03.04-.06.07-.06.04 0 .06.04.06.07a23.5 23.5 0 0 1-.46 2.56zm2.7-.15c-.02 0-.03 0-.04-.02-.04-.01-.04-.06-.02-.09.1-.16.14-.4.11-.77 0-.04.03-.06.06-.07.05 0 .07.03.08.06.02.39-.02.66-.14.85-.02.03-.04.04-.06.04zm-2.13-.26h-.01a.07.07 0 0 1-.06-.08c.1-.53.17-1.23.2-2.1 0-.03.03-.06.06-.06.04 0 .07.03.07.07-.02.86-.09 1.58-.2 2.11 0 .04-.03.06-.06.06zm-9.07-.1c-.02 0-.05 0-.06-.03-.08-.2-.1-.37-.1-.53l-.02-.13c0-.04.02-.07.06-.08.04 0 .07.02.08.06l.01.15c.02.15.02.3.1.48.01.03 0 .07-.04.08h-.02zm10.8 0a.07.07 0 0 1-.08-.07v-.4c-.02-.64-.02-1.29-.14-2.14 0-.04.02-.08.06-.08.04 0 .08.02.08.06.11.87.13 1.52.13 2.15l.01.4c0 .04-.03.07-.07.07zm-1.44-.04h-.03c-.03-.02-.04-.06-.02-.1.16-.32.2-.92.23-1.45 0-.04.04-.07.08-.06.04 0 .07.04.06.08a4.5 4.5 0 0 1-.25 1.5.14.14 0 0 1-.07.03zm1.69-.05h-.02a.07.07 0 0 1-.04-.1c.15-.47.2-1.23.25-1.96l.01-.25c0-.04.04-.07.08-.06.04 0 .07.03.06.07l-.02.25a8.98 8.98 0 0 1-.25 2c-.02.03-.04.05-.07.05zm-10.18-.27c-.02 0-.06-.02-.06-.05-.14-.55-.26-1.2-.34-1.92-.01-.04.02-.07.06-.08s.07.02.07.06a15 15 0 0 0 .34 1.9c0 .04-.01.08-.05.09h-.02zm10.66-.13a.07.07 0 0 1-.07-.07l.12-2.06c0-.04.03-.06.07-.06.04 0 .07.04.06.08l-.11 2.05c0 .03-.04.06-.07.06zm-3.33-.02h-.02c-.04-.02-.06-.06-.05-.1.14-.35.23-.86.26-1.33 0-.05.02-.07.06-.07s.07.03.07.06c-.02.5-.11 1.02-.26 1.4 0 .03-.03.04-.06.04zm-5.7 0a.07.07 0 0 1-.07-.05l-.21-1.34c-.01-.03.01-.07.05-.07.03-.01.07.02.07.05l.21 1.34c.01.03-.02.07-.05.07zm-2-.16a.07.07 0 0 1-.06-.04c-.17-.36-.3-.93-.4-1.72-.02-.04.01-.07.05-.08.04 0 .07.02.08.06.1.79.23 1.34.4 1.68 0 .04 0 .08-.04.1H7.4zM7 15.69a.07.07 0 0 1-.07-.06 7.16 7.16 0 0 0-.6-1.92c-.01-.04 0-.08.04-.1s.07 0 .1.03c.24.46.44 1.13.6 1.97 0 .03-.03.07-.06.08H7zm-.3-.27a.07.07 0 0 1-.08-.06c0-.21-.07-.39-.14-.57l-.1-.23c0-.04.01-.08.05-.1s.07.02.09.05l.08.22c.07.2.15.39.16.62 0 .05-.03.08-.07.08zm11.18-.22h-.02a.08.08 0 0 1-.05-.09c.1-.34.09-.68.06-1.03l-.02-.32c0-.04.03-.07.07-.07.03 0 .07.03.07.07 0 .1 0 .21.02.32.02.36.05.72-.07 1.08 0 .02-.03.04-.06.04zm-8.25-.1c-.04 0-.06-.03-.07-.07l-.1-.64c0-.04.02-.08.06-.08.03 0 .07.02.07.06l.1.64c0 .03-.02.08-.06.08z"/></svg>