<svg version="1.1" xmlns="http://www.w3.org/2000/svg" viewBox="0 0 25 32"><path fill="#0039a6" d="M24.65.6c.26 4.77.84 9.42-.34 14.09L.94 14.6C.72 10-.06 5.51.52.62c7.3.64 15.69.58 24.13-.01z"/><path fill="#f4f0e8" d="M1.02 14.62l23.37.07c-1.92 9.1-6.42 14.07-11.97 16.83-5.96-2.96-10.47-7.7-11.4-16.9z"/><path fill="none" stroke="#000" stroke-width=".44" stroke-miterlimit="4" stroke-linecap="butt" stroke-linejoin="miter" d="M.67.66c8.04.62 15.82.57 23.94 0a43.2 43.2 0 0 1-.4 14.79c-1.85 8.34-6.15 13.47-11.4 16.25-5.87-2.78-10.53-7.9-11.77-16.25C.43 10.5.08 5.89.67.66z"/><path fill="#dc281e" d="M10.52 18.06c-.25-.56 1.05-.92 1.8-.95.25-.09.42-.4.48-.66.12.22.13.45.41.68.55.2 1.83.51 1.73 1.16l.77.45c.5-.3 1.06.46 1.3 1.2.27.06.14.29.89.3-.22.1-.54.42-.58.63.14.7.14 2-.45 2l-.4.81c.37.38-.07 1.37-.48 1.64-.04.28-.03.7.11.97-.22-.15-.66-.18-.87-.22-1.01.6-1.8.84-2.3.09l-.8.06c-.38.62-1.63.33-2.3-.27a2.6 2.6 0 0 0-.86.27c.12-.21.2-.47.2-.92-.29-.47-1.18-1.2-.5-1.68l-.26-.76c-.78-.21-.43-1.32-.36-2.06a1.85 1.85 0 0 0-.58-.82c.3.06.63-.11.91-.28.36-.7.79-1.48 1.38-1.28z"/><path fill="#ffd200" d="M9.96 20.81l1.45.34c.17-.33.22-.72.98-.67l.41-1.45.33 1.47c.26.15.57.14.72.68l1.61-.05-1.42.62c.08.59.05 1.07-.28 1.24l.58 1.18c-.4-.3-.75-.59-1.1-.88-.45.2-.91.31-1.42-.02l-1.18.89.58-1.2c-.35-.31-.28-.68-.1-1.05z"/><path fill="#009a3d" d="M15.05 17.88c-.05.61-.6.76-.77.91-.4.57.4 1.15.77.88.3-.26-.1-.57.83-1.08.2-.09.4-.79.34-1.2-.44-.03-1.19.22-1.17.5zm-4.69-.28c.05.6.6.75.77.9.4.57-.4 1.15-.77.88-.3-.26.1-.57-.83-1.08-.2-.09-.4-.79-.34-1.2.44-.03 1.2.22 1.17.5zm6.95 5.37c-.6.06-.85-.46-1.03-.6-.63-.28-1.06.6-.72.92.3.25.54-.2 1.2.62.13.19.85.25 1.25.12-.05-.44-.43-1.13-.7-1.06zm-9.43-.06c.61.06.86-.45 1.04-.59.62-.3 1.05.6.72.92-.3.24-.54-.2-1.21.62-.12.18-.85.24-1.25.12.06-.44.44-1.14.7-1.07zm5.14 3.79c-.35-.5-.01-.97.02-1.2-.04-.69-1.02-.64-1.14-.2-.07.39.43.39.03 1.37-.1.19.18.86.48 1.15.36-.26.8-.92.6-1.13z"/><path fill="#009a3d" opacity=".99" d="M11.75 22.07c0 .1-.1.2-.2.2s-.2-.1-.2-.2.08-.2.2-.2.2.1.2.2zm.55-1.15c0 .1-.09.2-.2.2s-.2-.1-.2-.2.1-.19.2-.19.2.09.2.2zm.72-.11c0 .1-.1.2-.2.2s-.2-.1-.2-.2.09-.19.2-.19.2.09.2.2zm.53.45a.2.2 0 0 1-.4-.01c0-.1.1-.18.2-.18s.2.08.2.19zm-.51.35c0 .1-.09.2-.2.2s-.2-.1-.2-.2.09-.19.2-.19.2.09.2.2zm-1.23 1.16c0 .1-.09.2-.2.2s-.2-.1-.2-.2.1-.19.2-.19.2.09.2.2zm.67.05a.2.2 0 0 1-.4-.01c0-.1.09-.18.2-.18s.2.08.2.19zm.62.02c0 .1-.08.19-.2.19s-.2-.09-.2-.2c0-.1.1-.18.2-.18s.2.08.2.19zm.63-.91a.2.2 0 0 1-.4-.01.2.2 0 0 1 .4.01zm-.09.57c0 .11-.09.2-.2.2s-.2-.09-.2-.2a.2.2 0 0 1 .4.01zm-.62-.24c0 .1-.1.2-.2.2s-.2-.1-.2-.2.09-.2.2-.2.2.1.2.2zm-.56-.11a.2.2 0 0 1-.4-.01c0-.1.09-.18.2-.18s.2.08.2.19zm-.86-.63c0 .11-.1.2-.21.2s-.2-.1-.2-.2.09-.19.2-.19.2.09.2.2zm.84-.06c0 .1-.1.19-.2.19s-.2-.09-.2-.2c0-.1.09-.18.2-.18s.2.08.2.19z"/><path fill="#ffd200" d="M4.39 6.14c.31.41.25.6 1.54.71.88.01 1.73.01 2.23-.12-.58.86-1 1.78-1.5 2.67-.66-.06-.59-.26-.45-.81-.3.05-.37.5-.52.81 0-.46.15-1.02-.08-1.37-.28.3-.33.63-.45.95l-.15-1.16c-.22.18-.43.35-.6.69-.04-.31-.17-.55-.05-.99-.12.15-.12.35-.4.35-.18-.15.23-.45-.44-.35.03-.17.5-.24.4-.54-.19-.12-.9.75-1.1.52.04-.33-.09-.65-.09-.65-.06-.28.86.06 1.18-.14-.19-.25-1.3-.22-1.18-.58.17-.1.35-.16.38-.5.18-.23.74.79.94.65.05-.26-.38-.47-.32-.74.22 0 .45.08.67-.1.32.11-.13.52-.01.7z"/><path fill="#ffd200" d="M3.38 11.3c.13-.14.24-.12.4-.5.18-.09.35.16.3.47.01.3.43.07.66.05.68-.43 1.33-1.23 1.97-2l.65-1.25-.8-.31c.6-.05 1.2-.59 1.64-1.04l-.42-.13c-.29-.17 1.04-.92 1.85-1.09-.5-.02-1.26.32-1.5-.07A.33.33 0 0 1 8.34 5c.4-.08 1.01.2 1.16-.42.08-.6-.75-.47-.92-.48-.52.05-.38-.16-.42-.65-.78-.51.55-.4.84-.6-.06-.12.07-.25.18-.24 1.03.03 2-.14 1.34.65.3.36.36.75.39 1.15.04.17.11.3.27.24-.12.23-.17.47-.12.7.08.27.27.33.48.35-.35.74.54.75.5 1.58l-.09-.54c2.09.02 4.12.15 6.3-.06.7-.07 1.63-.3 2.29-.68.85-.53.53-1.18.35-1.65-.2-.54-1.04-.57-1.85-.25l-2.3.87c-.76.35-.1.89.31.72l2.57-1.11c1.28-.42 1.5.76.7 1.35.15-.71-.03-.83-.2-.9-.07 1.06-.63.98-1.17.95.49-.2.6-.42.39-.84-.92.41-1.94 1.23-3 1.17-.86-.06-.21-1.25-.3-1.17l-2.14.78c-.8.24-1.38-.05-1.76-.3-.6-.42-.63-1.35-.42-1.67.54-.69 1.33-.65 1.97-.63.42-.12.69-.64 1.1-.39.57.4 1.04.57 2.07.04-.48.36-.91 1.14-1.63 1.1-.66-.01-1.25.14-1.74-.33-.77-.03-1.34.41-1.3.77.02.37.05.82.78.9 1.13.1 2.65-.56 3.57-.95 1.2-.54 2.35-1.07 3.65-1.12.82-.03 1.46.7 1.54 1.43.12 1-.36 1.63-.9 1.85-.9.44-1.65.59-2.87.45.62.25.15 1.43.37 2.18.61.03 1.26-.74 1.48-.72.35.02.53.12.47.62.36.03.71.04.96-.37.09.35-.1.7-.47 1.05.35-.04.76.16 1.02-.29 0 .7-.47.63-.78.81-.01.2-.01.37.15.32.32-.06.65-.22 1-.53-.11.5-.4.88-.85.92.15.3.32.58.75.6-.5.45-.78.1-1.1-.08-.06.4-.25.78-.09 1.25-.54-.17-.34.44-.48.7-.3-.24-.7-.04-.85-.13.07-.22.5-.7.42-.83-.15-.03-.64.54-.72.76-.06.16-.13.72-.37.61-.03-.2-.15-.36-.42-.45.03-.15.87-.25.7-.59-.24-.18-1 .7-1.11.47.15-.2-.08-.33-.19-.6.06-.2.97.09.92-.18-.18-.15-.72.03-.68-.19.17-.14.2-.23.16-.55.18-.43.63.36.95.32.3.03.69-.38.52-1.23-.33-.94-.88-.66-1.51-.34-.54.3-1.15.5-1.34.19-.12-.22-.24-.27-.36-.8-.42-.47-.33-.76-.57-1.32-.17-.32-.68-.43-1.3-.23-1.56.85-2.79 1.48-4.46 1.41.01-.59.52-.53.71-1.07-.15.4-.44.4-.67.58-.27.22 0 1.06-.64.84-.21.37-.31.72.1.96-.73.21-.73-.4-1.02-.69.22.36-.14.91-.3 1.43-.18-.71-.28-.73-.5-.92.06.59-.04 1-.27 1.27-.23-.11-.29-.53-.35-.95-.24.24-.42.86-.57 1.4-.14-.36-.08-.93-.42-.94-.13.6-.27.96-.4 1.04-.02-.45-.16-.7-.4-.8-.13.23-.03.9-.51.44-.07.27-.05.75-.27.66-.2-.63-.38-.5-.69-.24-.23-.02.18-.38.08-.51-.32-.17-.65.7-.87.68-.06-.32-.07-.6-.23-.68-.05-.16.4-.26.42-.47-.11-.1-.19-.04-.26.02.1-.16 0-.31-.06-.47.3-.13.6.31.9.21-.04-.27-.35-.27-.59-.34z"/><path fill="#ffd200" d="M12.48 10.4c.61.44.85-.24 1.35-.79 1.01-.8 1.29.14 2.03-1 .19.46.33.98.59 1.34-.69.1-1.63.15-1.53 1.03.16 0 .47-.14.66-.34 0 .25-.1.56-.45.68.42.08.66.2.91.05-.27.45-.79.51-1.3.58.25.12.45.3.87.26-.35.44-.7.26-1.06.16l.19.88c-.2 0-.38-.25-.56-.59-.03.2-.05.4-.26.4-.83-.07-.93.96-1.19.72-.17-.32-.28-.41-.54-.36-.03-.27.31-.21.21-.29-.27-.12-.53.25-.8.53-.07-.2.01-.5-.34-.54.24-.12.38-.16.44-.25-.26.02-.57.29-.8.07.17-.22.12-.44.08-.66.3-.28.95.33 1.1.25.13-.33-.61-.26-.61-.51.33-.09.32-.27.43-.45.39-.07.46.38.6.72.34-.12.8.2 1.04-.52.13-.3.13-.71.03-1.07-.67.5-.87.27-1.09-.3z"/><path fill="#dc281e" d="M7.03 3.36c-.29-.1-.92.44-1 1.08-.07.42.45.65.87.67.91 0 1.52-.38 2.31-.36.22-.1.34-.29.25-.38-.73.1-1.68.34-2.32.25-.88-.16 0-1.14-.1-1.26zm3.94 8.98c.09.17.1.33-.03.49-.31-.1-.42.2-.61.32-.14-.74.27-.75.64-.8zm.43.78c.15.1.24.24.2.44-.32.07-.27.37-.38.57-.47-.58-.12-.78.18-1.01zm.48-1.49c-.03.18-.12.31-.32.37-.2-.27-.45-.1-.69-.12.34-.67.67-.44 1-.26zm.84 2.09c-.08-.25-.22-.33-.42-.3.05.33-.03.44-.23.56.39.15.5.04.65-.26zm5.52-1.9c.08.16.04.31-.08.47-.32-.09-.5.1-.7.23-.08-.65.4-.72.78-.7zm-.34 1.03c.08.16.28.3.15.47-.32-.1-.45.12-.64.37-.06-.64.12-.7.48-.84zM3.8 10.8c-.02.18-.1.32-.3.39-.21-.26-.46-.08-.7-.08.31-.69.66-.47 1-.3zm-.63.65c.08.17.1.2-.03.36-.3-.03-.4.18-.6.3-.05-.61.26-.6.63-.66zm-.16.92c.15.1.24.24.2.44-.32.07-.28.37-.4.57-.46-.59-.1-.79.2-1zm1.66.58c-.11-.24-.28-.42-.45-.22.1.33-.04.51-.26.64.5.15.6-.09.7-.42zm13.87.59c.19-.02.5.22.38.38-.32-.02-.36.34-.55.47-.02-.44-.1-.69.17-.85zm1.71-.11c-.15-.11-.3-.17-.47-.07-.02.22.09.38-.24.62.64-.01.59-.36.7-.55zM3.1 5.67c.12.27-.08.31-.22.38-.32-.09-.58-.2-.77-.08.28-.63.63-.4 1-.3zm1.22-.2c-.14.11-.3.15-.48.05.04-.33-.26-.38-.42-.56.71-.25.79.15.9.51zm-1.56 1.4c.09.16.18.36.05.52-.32-.09-.48 0-.67.27-.03-.62.26-.68.62-.8zm1.19.89c0-.23-.06-.25-.26-.24-.12.3-.3.4-.52.48.43.25.64.09.78-.24z"/><path fill="#f4f0e8" d="M8.5 4.45c.1-.08.08-.16.12-.34h-.27c-.02.13.06.28.15.34z"/><path fill="none" stroke="#000" stroke-width=".44" stroke-miterlimit="4" stroke-linecap="butt" stroke-linejoin="miter" d="M1.05 14.67l23.23-.02"/></svg>