<svg version="1.1" xmlns="http://www.w3.org/2000/svg" viewBox="0 0 30 32"><path fill="#fff" d="M.37.55h28.92l-1.54 19.7c-.92 6.15-6.15 11.38-12.92 11.38s-12-5.23-12.61-11.38z"/><path fill="#078930" d="M1.6 12.86c3.32.37 5.48 2.22 5.85 6.16s3.69 7.38 7.38 7.38 7.45-3.45 7.7-7.38 2.4-5.79 5.72-6.19l-.5 7.42c-1.23 7.07-6.77 11.38-12.92 11.38S2.53 26.4 2.22 20.25z"/><path fill="#da121a" d="M17.1 8.17c-.63.3-1 1.55-.24 1.82l.73.22c-.4.6-1.37.8-2.07.71-.39-.02-.39-.76-.6-.6-.2.21-.34.1-.6-.05-.42-.13-.1.36-.04.56.41.13.83.18 1.24.1-.73.12-1.02-.05-1.52-.09-.15.24-.26.58-.56.55-.36.23.35.74.74.39.28-.43.57-.04 1.01-.47-.02.2-.44.25-.66.37.32.24-.1.84.12.98.63.35.44-.36.93-.43.38.02.25.34.65.32.25.02.5-.12.35-.45.46.35.67.57 1.15.16-.14-.1-.27-.17-.52-.31.68.47 2.23.6.87-.22.44.14 1.13.63 1.18-.02l-.46-.25c.7.37 1.18.45 1.1-.09l-.48-.2c.51.19 1 .64 1.63-.11-1.1.17-.75-.64-1-.78s-1.29 0-1.17-.73c.1-.73.82-.98 1.66-.8-1.04-1.18-2.8-.89-3.44-.58z"/><path fill="#da121a" d="M11.78 10.08l1.86-3.03c2.43-.67 4.63-.78 7.35-.85 1.35.03 2.72.08 3.95.03.9-.02 1.28-.76.4-1.28s-2.84-.2-4.25-.18c-1.42.02-3.05.07-4.36-.33s-1.65-1.87-2.58-2.06c.07-.37.26-.7 1.19.3l-.49-.54c.4-.53 1.6 1.58 2.49 1.68-.53-.25-1.07-.96-1.63-1.35-.26-.56.61-.25 1.09.2-.35-.43.2-.56.5-.23l1.19 1.2c.72.72 1.68.54 2.84.48-1.36-.97-1.34-1.69-2.25-1.33 1.22-1.77 1.99 1.27 3.72 1.36-.99-.83-.88-1.71-2.13-1.67.06-.45.42-.5 1-.35s1.42 1.95 2.5 2c-.74-.9-.32-1.04-1.6-1.41.4-.3.95-.26 1.35.06s.46 1.17.99 1.32c1.33.37 2.12 1.25 1.27 2.11s-2.83.7-4.18.67a5.4 5.4 0 0 0-2.36-.46c.83.02 1.5.13 2.36.48.38.54 1.91 1.22 2.34.98s.98-.6 1.75-.48 1.08-.34 1.54-.58c.06.78-.32 1.22-1.21 1.26.49-.03.97.13 1.46-.23-.1.69-.76.8-1.3.87.36.04.68.11 1.19 0-.1.48-.46.75-.96.52.23.13.5.2.82.16-.1.55-.4.6-.74.5.68.22.78.57.15.84.55.63.48 1.1-.08 1-.38-.31-.54-.37-.68.13l-.05-.67c-.02.34.03.56-.26 1.06-.17.3-.91.03-.73-.2.4-.48 0-.51-.14-.72l.59-.26c-.79.55-1.64.07-1.15-.16.54-.13 1-.36 1.15.14.02-.6-.2-.91-.37-1.33-.47-.69-1.03-.54-1.75-.1s-1.36.22-1.9-.07c-.56-.3-.94-.76-1.42-1s-1.04-.94-2.1-.67-2.25.66-3.37 1.14c-1 .37-2.04 1.23-3 1.05z"/><path fill="#da121a" d="M3.42 9.34c.23.15.47.35.71.18 0 .26.55.75-.36.64a5.7 5.7 0 0 0 3.65-.64c.03-.36.14-.72.78-1.04-.78.8-.64-.16-.68-.8v.83c-.23-.04-.5-.25-.58-1.3l.09.7c-.41.2-.6-.38-.6-1.3l.02.75c-.43.14-.5-.52-.5-1.33l-.02.57c-.45.22-.4-.45-.37-1.12l-.17.53c-.49-.3-.15-.79-.03-1.62 0 .33-.09.63-.29.87.07-.43-.3-.36-.49-.5.19-.82-.36-.45-1-.43-.36.09-.15-.56.08-.59.16-.1.33-.18.28-.51.2.11.4.15.61.14-.35-.03-.47-.16-.67-.37-.45-.22-.3-.86-.1-.69.26.2.62.12.8-.01.11-.23.24.92.58 1.13-.1-.38-.41-.76-.13-1.13.31-.19 1.1.1.92.29-.43.4-.33 1.31-.8.84 1.1.63 3.33 3.29 4.31 3.1l1.17-.33c-.37 0-.9.15-.72-.35 1.45.02 1.51.04 1.46-.79-.15-.93-1.17-.75-1.9-.95-.12-.03-.28-.66.12-.74-.26-.04-.44-.17-.13-.35l1.04-.42c1.01-.12 2.25-.04 2.21.47.02-.35.41-.41.56-.34.53.32.7 1.12-.14 1.63.42.21.84.42.45.92l-.3-.3c.33.4.63.8.43 1.39l-.44-.47c.46.64.6 1.4.16 1.68l-.3-.73c.03.65.58.92-.03 1.61l-.34-.65c.15.65.42 1.2-.25 1.52l-.16-.68c-.06.57.04 1.22-.6 1.48l-.02-.78c-.09.49-.02.98-.9 1.1l.19-.65c-.58 1.32-.7.92-.73.23-.11 1.13-.4 1.24-1.42.98.5.2 1.09.4-.26.56l-.54-.37c1.03.9-.12.49-.7 0l.52.42c0 .3-.67.2-1.29-.3l.44.31c-.48.4-.73-.22-1.09-.19-.13 0-.3.33-.48.33-.22 0-.33-.32-.62-.31-.29-.03-.38 1.24-1 .5.13-.2-.02-.53-.14-.81.37-.14.4-.27.49-.4-.8.65-.46-.02-1.26.34-.37.06-.26-.25-.28-.45.5-.04.52-.35.59-.63l.53.14c-.87-.14-.35-.53-.36-.82z"/><path fill="#0f47af" d="M9.01 5.08c-.7-.07-.79-.3-.78-.6.1-.91.44-.25.69.04s1.6.42 2.06.53c.47.1.3.31.3.4-.72-.25-1.56-.3-2.27-.37zm-3.7-3.55c.41.17.86.32.69.95-.34.11-.5-.05-.58-.3.16-.15.07-.38-.1-.65zm5.1 1.12c.06-.28-.14-.53-.34-.79.04.75-.72.11-.23-.13-.23-.27.2-.77.46-.22.17-.28.79-.05.35.58-.23.3.96.12.75-.08-.38-.2-.5-.8.16-.52-.12-.5.71-.47.52.06.74.07.22.32 0 .53-.16.15.83.36.72.12-.06-.27-.2-.7.4-.44.14-.64 1.03.07.3.3.59.39-.54.53-.68.76a3.88 3.88 0 0 0-2.4-.17z"/><path fill="#fff" d="M11.53 3.58c-.05.08-.24.06-.42-.04s-.29-.26-.24-.34c.05-.08.24-.07.42.04s.28.25.24.34z"/><path fill="#0f47af" d="M3.36 1.88c.43-.12.87-.27 1.12.33-.2.29-.42.26-.65.1.04-.2-.17-.33-.47-.43zm-.51 2.37c0-.6.45-1.06 1.09-.91.12.33-.2.55-.46.65-.23-.24-.38.07-.63.26zm1.18.49c.2.4.4.83 1 .6.08-.35-.09-.5-.36-.55-.12.17-.36.1-.64-.05zM2.98 9.12c.47-.24 1-.45 1.12.35-.21.28-.47.19-.57.02.04-.2-.26-.26-.56-.37zm-.94 1.69c.08-.68.63-.95 1.23-.69.07.34-.31.53-.58.58-.1-.22-.36-.03-.65.11zm1.52 1.65c-.19-.41-.41-.83.15-1.16.31.14.32.37.2.62-.2 0-.3.22-.35.53zm9.31-.74c.08-.68.52-1.1 1.12-.85.06.35-.25.47-.53.52-.1-.22-.31.2-.6.33zm1.05-1.79c.54-.25.82-.03 1.04.36-.2.29-.43.17-.65 0 .1-.22-.1-.25-.39-.36zm.06 3.02c-.22-.46.05-1.01.6-1.32.27.22.06.73-.11.94-.23-.1-.37.09-.5.38zm9.98-2.09c.3-.59.81-.6 1.16-.14 0 .35-.25.17-.53.16-.06-.23-.32-.1-.63-.02zm.86 1.67c-.3-.42-.03-.93.33-1.2.37.16.43.52.08.76-.29-.1-.39.37-.4.44zm2.49-.23c-.79.3-.87-.28-.98-.72.28-.21.44-.02.61.2-.1.23.27.45.37.53z"/><path fill="#fff" d="M9.54 4.17c.04.22.08.5.2.5s.15-.26.19-.41l.04.51c.02.2.23-.26.28-.41.06.11.06.29.19.3s.12-.4.22-.23c.09.18.15.39.27.36s.12-.2.08-.3c-.62-.29-.98-.26-1.46-.32zm.42 1.64c.04-.22.08-.43.2-.41s.15.26.19.42c0 0 .02-.45.12-.45s.15.24.2.4c.06-.11.06-.25.19-.23s.12.36.22.2.02-.27.15-.23.13.1.09.2c-.62.21-.87.1-1.35.1z"/><path fill="#da121a" d="M18.93 21.64c-.6.47-1.06 1-1.51 1.53l-1.92-2.74.48 3.39a6.33 6.33 0 0 0-2.15 0l.4-3.4-2.08 2.74a6.14 6.14 0 0 0-1.52-1.53l2.76-2.12-3.16.94c.08-.75.03-1.36-.14-2.15l3.28.14-2.73-1.98a6.6 6.6 0 0 0 1.52-1.53l2.1 2.6-.43-3.25c.7.08 1.42.12 2.15 0l-.52 3.27 1.96-2.62c.52.6.95 1.05 1.51 1.53l-2.67 2.03 3.22-.84c-.07.8-.02 1.42.15 2.15l-3.33-.34z"/><path fill="#fff" d="M14.84 19.68a.72.72 0 1 1-.02-1.44h.01a.72.72 0 1 1 .02 1.44z"/><path fill="none" stroke="#000" stroke-width=".37" stroke-miterlimit="4" stroke-linecap="butt" stroke-linejoin="miter" d="M.37.55h28.92l-1.54 19.7c-.92 6.15-6.15 11.38-12.92 11.38s-12-5.23-12.61-11.38z"/></svg>