<svg version="1.1" xmlns="http://www.w3.org/2000/svg" viewBox="0 0 28 32"><path fill="#0039a6" stroke="#000" stroke-width=".38" stroke-miterlimit="4" stroke-linecap="butt" stroke-linejoin="miter" d="M.38.38h26.87v23.75c0 7.5-7.81 6.87-11.56 6.87-.63 0-1.25 0-1.88.63-.62-.63-1.25-.63-1.87-.63-3.75 0-11.57.63-11.57-6.88z"/><path fill="#ffd200" d="M4.5 5.75c1.22.24 1.5-.25 1.7-.1.48 1.45 2.01 1.87 3.33 2.45.98.46 2.35.74 2.96.28.4-.3 1.04-1.08.3-1.24-.7-.15-.96-.68-.37-.88.35-.11.98.51 1.46.08.34-.3.43-.86-.04-1.14a2.83 2.83 0 0 0-1.57-.12c-.35.22-.73-.15-.66-.45l.33-.8c-.37.27-.53-.04-.08-.4.17-.11.53-.14.88.04-.01-.16-.29-.37.08-.46 1.2.12 2.3.17 3.51-.04.3 0-.01 1.56.16 2.1.12.27.54.93.06.82-.24-.01-.05.57.14.6.17.11.62.97.46 1.1-.13.12-.27.2-.44-.02-.15.74.41 2.07.23 2.14-.4-.02-.34-.66-.57-.5-.29.17.54 1.34.2 1.41-.64.17-.54.92-.25 1.74.42.9.53 1.92 1.48 2.77.5.31 1.11.58 1.97.4.63-.2 1.08-.62.63-1.87l-.95-4c-.27-1.1-.88-1.72-.24-3.34.93-1.9 1.3-1.4 1.69-1.45 2.31.01.79-1.65 1.57-2 .3-.04.1.74.1 1.13.23-.4.78-.94.2.84-.13.2-.85.39-.87.58.02.17.74-.26.93.07.06.33-.9.32-1.28.24-.47-.05-1.05-.26-1.08-.07-.06.23 1.25.38 1.1.64-.29.37-1.76.17-.76-.07-.82-.35-1.14.16-1.3.47.58-.07 0 .7.1 1.09l.62 2.4 1.09 4.08c-.02.44.23.55.27 1a4 4 0 0 1-1.35 1.11c-.67.43-2.02-.03-2.66-.51.6.3.07.85-.03 1.29l.06 1.49c.13 1.13.87.85 1.35 1.2.52.35.76-1.15 1.24-.82.32.27-.6 1.15-.36 1.42.27.27.53-1.01.74-.88.47.29-.09.83-.08 1.07.07.6-.55.7-.34.98.18.16.6-.52.76-.26.23.45-1 1.06-.76 1.48.16.23.85-.95 1-.69-.07 1.28-1.1.75-.95 1.17.12.38.52-.12.74.16.1.36-.93.58-1 1.01-.26-.31-.4 0-.6.08.55.68-.48.4-.89.48-.6-.94-1-1.71-.9.09-.26-.17-.77-1.22-.75-1.94.63.13 1.94.02 1.36-.87l-.67-.77c-.48-.55-1.02-.36-1.53-.38-1.33-.05-.54-2.43-1.19-2.72-.72-.32-1.87-.66-2.12-.46-.25.23.48.32.38.67-.2.16-1.36-.35-1.4.08-.09.53 1.28.18 1.17.64-.13.42-1.06-.32-1.32.22.4.68.82.1 1.41.68-.44.55-1.33.07-1.46.57.36.5 1.13-.03 1.1.38-.04.47-1.13.06-1.46.5.01.4 1.63-.05 1.64.3-.13.6-1.28.12-1.6.56-.3.2-.76-.37-.98.06-.12.6.98.37.64.8-.27.38-.55-.39-.88.13-.3-.22-.73-.45-.68.22-.43.67-.65.62-.84.46-.28.41-.38.1-.5-.2-.22.42-.56 0-.84.25-.24.27-.34-1.35-.63-1.16-.44.31-.34-.33-.5-.45.38-.1.7-.4.84-1.1.48-.02 1.06.38 1.82.09 1.01-.35.7-3.86 1.06-4.63.72-1.2 4.48-.38 4.72-1.6.01-.49-.56-.68-1.52-.74-.52 0-1.28-.93-1.84-.63-.46.2.9.54.55.82-.36.28-1.08-.7-1.35-.26-.32-.42-.55-.33-.76-.19-.25.32 1.01.57.8.85-.2.15-.84-.37-1.05.06-.3-.83-.67-.62-1.02-.6-.29.1.9.75-.06 1.06-.25-.5-.53-.77-.84-.33-.22-.33-.44-.17-.67-.04-.12.53-.45.73-1.1.39l-.7-.82c-.18.66-.35.31-.53.39l-.03-1.39c.32-.4.57-1.13.94-.57.2.22 1.3 0 1.82-.17l2.42-.9 1.26-.6c-.5-.67-.97-1.35-1.02-.3-.52.46-.62-1.32-.98-1.37-.6-.04.53 1.33.17 1.28-.2.16-.62-.6-.75-.97 0-1.04-.33-.85-.53-.93-.22-.06.04.23.2.57.13.33.09.75-.04.75-.16.06-.17-.28-.44-.5-.26-.2-.62-.23-.82-1.07-.3-.64-.9-.27-1.33-.36-.6-.13-.39-1.22-.7-1.56-.26-.2-.1-1.57.06-1.59z"/><path fill="#000" d="M12.92 8.34c-.47.44-.96 1-1.42 1.4.08.07.12.14.35-.12l.8-.7c.45-.35.29-.4.27-.58zm-.71-3.45c0 .05-.03.09-.08.09s-.08-.04-.08-.1c0-.04.04-.08.08-.08s.08.04.08.09zm-.27-.05c0 .05-.04.1-.08.1s-.09-.05-.09-.1.04-.09.09-.09.08.04.08.1zm.22-.16c0 .05-.04.1-.08.1s-.09-.05-.09-.1.04-.09.09-.09.08.04.08.1zm.3.05c0 .05-.05.1-.1.1s-.07-.05-.07-.1.03-.09.08-.09.08.04.08.1zm.15-.37c0 .05-.04.1-.08.1s-.09-.05-.09-.1.04-.09.09-.09.08.04.08.1zm-.25.13c0 .05-.04.1-.09.1s-.08-.04-.08-.1c0-.05.04-.09.08-.09s.09.04.09.1zm-.31 0c0 .06-.04.1-.09.1s-.08-.04-.08-.1c0-.04.04-.08.08-.08s.08.04.08.09zm.08-.69c0 .1-.08.16-.17.16s-.17-.07-.17-.15c0-.09.07-.16.17-.16s.17.07.17.16zM7.57 8.94c.04.13.08.23.12.43m-.83-.82c.05.17.11.3.09.68m6.15-5.26l-.18-.29m.11.13l-.38.17m-.09-.3l-.21.01m1.02-.25c-.55-.08-.33.53-.01.44m.56-.22h-.24m-.77.22c-.2.9.1 1.14.8.87m.8-1.23h-.06m0 .24c-.25-.08-.37.15-.27.22m-2.09 4.86c-.3.3-.74.04-.96.55zm4.42-1.9c-.1-.49-.18-.98-.16-1.47zm-1.07-2.13c.26-.38.41.88.4.91 0 0-.17.41-.43.6-.07-.58.23-1.02.03-1.5zm-.16-1.43c.06-.14.75-.17.9.07.06.35-.3.6-.46.82-.14-.2.16-.47.03-.66-.06-.1-.28-.04-.47-.23zm-1.43 1.3c.25-.25.5-.44.82-.1.28.5-.02.85-.1 1.11-.07-.58-.3-.92-.72-1zm2.22 1.3c-.13.85-.2 3.27-.34 4.64-.04.37.11.61.1.96.1-.02.12.12.1-.87 0-.9.27-1.65.33-2.6.08-1.63-.07-2.03-.2-2.12zm-2.63 1.04c-.47.44-.2.67-.66 1.07.08.07.1.1.33-.15.22-.12.57-.69.54-.86 0 0-.04-.1-.21-.06zm.36 1.83c-.25.6-.52 1.34-.72 1.86.1.03.16.07.27-.26.17-.17.3-.58.45-.95.1-.4.1-.57 0-.65zm-.94.37c-.74.4-.81.55-1.15 1.32.08.07.4-.2.57-.59l.34-.32c.45-.36.29-.35.24-.4zm.85 3.73c-.19-.2-.17-.97-.26-1.37.19-.23.39-.87.48-.93.26.11-.11 1-.1 1.26-.03.51.06.8-.12 1.04zm1.14-.83c-.07-.32-.35-.57-.35-.98.12-.34.03-.92.28-1.37-.03.8 0 .9.02 1.16.02.47.2.94.05 1.19zm.44-1.34c0-.16-.2-.64-.23-1.15-.04-.64.08-1.33.08-1.6.04-.21-.09-.56-.07-.9.02-.3.17-.6.33-.76.11.88-.04 1.77-.05 2.02-.01.2.1.87.11 1.4 0 .48-.06.9-.17.99zm-1.42-2.56c-.01-.36.22-.56.22-.97.12-.34.1-.52.43-.86-.06.88-.23.82-.18 1.07-.14.5-.24.56-.47.76zm-1 1.7c0-.37.23-.76.23-1.17.13-.34.27-.69.6-1.03-.07.89-.34 1.13-.29 1.38-.14.5-.3.62-.54.82zm1.23.17c0-.4-.05-.89.06-1.26.21-.5.38-1.34.57-1.98a21.15 21.15 0 0 0 0 2.02c-.46.7-.41.93-.63 1.22zm-5.84-.83c.3.3.14.42.41.67m.6-.2c-.05.5.3.46.3.72m.73-.1s.33.3.17.61"/><path fill="#f4f0e8" d="M12.11 5.2c-.06.25.12.33.24.4 0-.3.05-.36.09-.5zm.15 1.1c-.06-.26.1-.33.21-.41.01.3.06.25.1.4zm.27-1.21c-.06.25.12.4.23.48.17-.25.07-.36.1-.51zm.41-.03c-.06.25.13.41.25.49.16-.13.12-.24.1-.45zm-.09 1.29c-.07-.25.14-.36.26-.39.17.25.07.36.09.51z"/><path fill="#da121a" d="M17.92 25.6c-.6-.56-.44-1.13-.19-1.5.8 1.11.58.4.2 1.5zm-1.27-.34c-.35-.75.18-1.22.56-1.48.04 1.41-.13.65-.56 1.48zm-10.2-.28c-.45-.89-.35-1.57.03-1.84.3.17.35.84.5 1.14-.36-.07-.36.31-.54.7zm-.83-.72c-.25-.9-.16-1.42.32-1.53.19.42.29.41.36.8-.3-.2-.42.28-.68.73zm10.66.18c-.34-.76.12-1.19.5-1.24.01 1.42-.1.13-.5 1.24zm-10.6-1.87c.24-.8.95-1.18 1.4-.73-.86 1.05-.16.2-1.4.73zm-.84-5.9c-.44-.82-.46-1.32-.14-1.65.25.13.52.43.7.78-.37 0-.36.63-.56.88zm-1.26-.96c.06-.93.21-1.47.65-1.58.13.38.12 1.05.04 1.34-.3-.2-.39-.01-.7.24zm.2-1.7c.24-.8.69-.78 1.14-.72-.91 1.08-.3.3-1.14.71zm.79-8.5c.63-.54 1.22-.15 1.57.15-1.35.4-.67.05-1.57-.16zM3.9 9.2c-.06-.96.2-1.54.64-1.65.02.37.25.87.27 1.2-.43-.4-.6.34-.91.45zm-.44-1.85c.16-.83.56-1.42 1-1.53-.07.4-.28.98-.15 1.25-.3-.2-.55.18-.85.28zm6.36-2.7c.57-.86 1.17-.32 1.26.06.21.67.73 1.17 1.5.88.9-.18.96.06 1.48.15.2 0-.12.59-.2.5-.59-.48-1.46-.44-1.74-.23-.32.33-.66.38-1.13.37-.8.02-1.57-.81-1.17-1.73zm5.96-1.6c-.22-.5.25-1.05-.26-1.11-.53 0-.34.71-.74.75-.25-.02-.18-.79-.6-.83-.45 0-.21.85-.5.8-.25.05-.4-.78-.73-.75-.56.19 0 .8.05 1.14.85.08 1.72.2 2.78 0z"/><path fill="#ffd200" d="M21.33 14.74c.37-.22 1.31-.81 1.28-1.75-.24-.64-1.55-.37-2.32-.44-.9-.06-2.01.12-2.54-.45-.26-.27-.43-.94.34-1.75.32-.27.79-.58 1.37-.65l.1.6c-.33-.16-.57.03-.67.33-.2-.11-.35-.08-.42.3-.06.62.14.76.44.8l2.35.05c1.05.02 2.09 0 2.27.8.2 1.39-1.35 2-2.06 2.84"/><path fill="#ffd200" d="M22.52 8.39c.15-.35-.28-.72-.05-1.05.1-.05.02.37.28.24.14-.06-.46-.68-.06-.76.3-.06.36 1.26.68 2.04.13.36.01.55-.12.73-.39-.53-.47-.06-.7-.04.18.07.67.01.44.34-.25.35-.77-.1-1.16-.16-.29.18.28.46-.24.5l-1.35.02-.16-.64c1.4.24 1.84-.33 2.44-1.22z"/><path fill="#000" d="M20.96 12.22l-.12.17m-.24-.22l-.12.17m-.09-.15l-.12.17m-1.07-.37c-.21.1-.24-.02-.27-.14m-2.46 2.16c0-.01.18.4.43.55m.26.32s.18.32.43.47m2.08.57c.15-.03.29-.07.4-.14m-1.02.17c.13.02.27.1.41.01m-.7-.07a.96.96 0 0 1-.3-.08m-.25-.1c-.17 0-.26-.1-.35-.21m-3.51-.9c.16.12.14.3.1.6m-3.27-1.12l-.36-.11m-4.28 1.28l-.03.22m-.23.06c-.13.2-.1.28-.14.4m-.11-.5c-.12.06-.22.21-.3.5m-.05-.53c-.17.1-.15.23-.19.36m.34-1.36l-.1.42m-.2-.45c-.08.11-.17.22-.18.4m-.18-.29a.52.52 0 0 0-.1.38m-.14-.45c-.3.23-.31.57-.36.9m.94-1.44c-.15-.13-.2-.03-.29.01M5 13.64c-.05.06-.04.19-.06.31m1.97.55c.09-.07.23.3.37.2.14-.07.23.07.3.2 0 .18-.23.15-.35.1-.11-.07-.12-.28-.32-.28-.09-.08-.1-.14 0-.22zm.8-.3c.08-.05.17.12.25.2l.3.2c-.05.1-.34.16-.43.1-.1-.08-.04-.2-.2-.22-.07-.1 0-.21.08-.27zm.96-.18c.12.06.12.01.26.15l.28.17c-.02.33-.34.14-.45.08-.12-.06-.1-.15-.3-.16-.06-.1.08-.3.21-.24zm5.08.1c.11.02.17.1.14.29l.03.3c-.15.1-.28.01-.3-.1-.02-.11.05-.3-.07-.43.02-.11.09-.07.2-.06zm-.74-.4c.14-.02.16.18.18.4 0 .17 0 .34.13.45-.12.19-.23 0-.31-.13-.1-.13-.06-.31-.1-.52-.03-.14-.03-.18.1-.2zm-1.38-.3c.14-.01.18.08.2.21.06.12.11.3.07.38-.1.2-.23 0-.3-.12-.08-.13-.08-.33-.19-.51-.03-.14.14.02.22.05zm.74-.1c.13-.03.18.13.28.42-.01.22.06.42.15.62.11.28-.14.19-.4-.12-.15-.14-.09-.2-.11-.33-.03-.28-.09-.55.09-.59zm-2.5.05c.14-.02.24.07.3.3l.19.33c-.11.19-.3.12-.39 0-.08-.13-.1-.38-.3-.5-.03-.14.07-.1.2-.13zm4.6-1.29c-.19.36.05.52-.11.83m5.84-2.99l.41.06m.64-.03l-.35-.02m1.97 3.14a.93.93 0 0 1-.26.38m.25-.74l-.24.19m.07-.52l-.3.28m-.15-.4c-.05.1-.05.21-.28.26m-.2-.26c.03.13-.01.2-.13.23m-.13-.26l-.13.24m-.16-.24l-.1.23m-2.76-.77c.04.17.14.24.27.26m-.33-.95c-.1.06-.16.19-.1.46"/><path fill="#f4f0e8" d="M13.45 3.66c0 .08-.07.15-.17.15s-.17-.07-.17-.15c0-.09.08-.16.17-.16s.17.07.17.16z"/><path fill="#fff" d="M24.35 20.42a.6.6 0 1 1-1.19 0 .6.6 0 0 1 1.19 0zm-.53-2.28c.18.25 1.31.5.93 1.18.7-.56.94.32 1.2.44-.2.19 0 1.5-.95 1.13.88.5-.06 1.12-.06 1.37-.19-.12-1.06.44-1.12-.44-.2.88-.94.32-1.25.44.08-.31-.94-.94-.07-1.37-.93.31-.68-.94-.87-1.13.25-.12.44-.94 1.25-.44-.56-.8.75-.93.94-1.18z"/><path fill="#f4f0e8" d="M23.85 22.7c.24-.06 0-.39.03-.5 0-.14.13-.4-.1-.4-.22 0-.1.25-.1.39s-.14.53.17.5zm-2.2-1.47c-.06-.24.34-.16.43-.23.13-.05.31-.29.4-.08.1.2-.18.2-.3.25-.13.07-.43.36-.54.06zm4.23-.03c.05-.24-.35-.16-.44-.23-.13-.05-.32-.29-.4-.08-.1.2.18.2.3.25.13.07.42.36.54.06zm-.58-2.51c-.2-.15-.3.24-.4.3-.11.09-.4.15-.26.31.14.18.26-.07.36-.16.12-.08.5-.22.3-.45zm-3.01.03c.2-.15.3.23.4.29.1.1.4.15.25.32-.14.17-.26-.08-.36-.16-.12-.08-.5-.22-.3-.45z"/><path fill="#fff" d="M14.42 27.04a.6.6 0 1 1-1.2 0 .6.6 0 0 1 1.2 0zm-.54-2.28c.2.25 1.32.5.94 1.18.7-.56.94.32 1.2.44-.2.2 0 1.5-.95 1.13.88.5-.06 1.12-.06 1.37-.19-.12-1.06.44-1.13-.43-.18.87-.93.3-1.25.43.09-.31-.93-.93-.06-1.37-.94.31-.69-.94-.87-1.13.25-.12.43-.93 1.25-.43-.57-.82.75-.94.93-1.2z"/><path fill="#f4f0e8" d="M13.92 29.32c.24-.06 0-.39.03-.5-.01-.14.13-.4-.1-.4-.22 0-.1.25-.1.39-.01.14-.15.53.17.5zm-2.21-1.47c-.05-.24.34-.16.44-.23.13-.05.31-.29.4-.08.09.2-.19.2-.3.25-.13.07-.43.36-.54.06zm4.23-.02c.05-.24-.34-.17-.43-.24-.13-.05-.32-.29-.4-.08-.1.2.18.2.3.25.12.07.42.36.53.07zm-.58-2.52c-.2-.15-.3.24-.4.3-.1.09-.4.15-.25.31.14.18.26-.07.36-.16.12-.08.5-.22.3-.45zm-3 .03c.19-.15.3.23.4.29.1.1.4.16.25.32-.14.18-.26-.08-.36-.16-.12-.08-.5-.22-.3-.45z"/><path fill="#fff" d="M4.3 20.33a.6.6 0 1 1-1.2 0 .6.6 0 0 1 1.2 0zm-.54-2.28c.19.25 1.32.5.94 1.18.69-.56.94.32 1.19.44-.19.19 0 1.5-.94 1.13.88.5-.06 1.12-.06 1.37-.2-.12-1.07.44-1.13-.44-.19.88-.94.32-1.25.44.09-.31-.94-.94-.06-1.37-.94.3-.69-.94-.88-1.13.25-.12.44-.94 1.25-.44-.56-.81.75-.93.94-1.18z"/><path fill="#f4f0e8" d="M3.8 22.6c.24-.05 0-.38.02-.49 0-.14.13-.4-.09-.4s-.1.25-.1.38c-.01.15-.15.54.17.52zm-2.21-1.46c-.05-.24.34-.17.43-.23.13-.05.32-.3.4-.09.1.2-.18.2-.3.26-.12.07-.42.36-.53.06zm4.23-.03c.05-.24-.34-.16-.44-.23-.13-.05-.31-.29-.4-.08-.09.2.19.2.3.25.13.07.43.36.54.06zm-.58-2.51c-.2-.15-.3.23-.4.29-.1.1-.4.16-.25.32.14.18.25-.08.36-.16.11-.08.5-.22.29-.45zm-3 .03c.19-.15.3.23.4.29.1.1.4.15.25.32-.14.17-.26-.08-.37-.16-.11-.08-.5-.22-.29-.45z"/></svg>