<svg version="1.1" xmlns="http://www.w3.org/2000/svg" viewBox="0 0 30 32"><path fill="#fcdd09" d="M.33.57v17.68c0 7.47 6.56 13.53 14.58 13.53S29.5 25.8 29.48 18.32V.57z"/><path fill="#0f47af" d="M.4 18.03h29L29.49.57H.33z"/><path fill="#da121a" d="M11.2 19.29c0 .52.12.94.42 1.22-.43.13-.83.33-1.08.87-.33.68-.74 1.02-1.25.92.65.5.6 1.1.48 1.49s-.2.88.07 1.36c-.21.44-.5.53-.77.76.42.16.85.1 1.27.04.21.4-.08 1.02.75 1.16.46.35.61.8.37 1.38.47 0 .88-.3 1.45.18.4.25.8.29 1.2 0 .38.17.4.62.49 1 .23-.42.42-.78.53-1.02.44.26.88.14 1.31-.13.4-.24.8-.43 1.26-.32.08-.49.36-.78.74-.98.54-.36.52-.72.68-1.09.2-.4.61-.25.97-.27-.22-.67-.48-.82-.75-.91.1-.35.4-.39.09-1.05s-.09-1.31.48-1.48c-.87-.18-.97-.46-1.07-1.04-.07-.75-.48-1.03-1.01-1.13.1-.35.2-.69.37-1.03-.44.03-.68.22-.99.34a1.2 1.2 0 0 0-1-.36c-.96-.01-1.3-.36-1.5-.78-.26.63-.86.52-1.34.53s-.94.35-1.12.74c-.37.04-.73-.08-1.05-.4z"/><path fill="#000" d="M14.61 20.39s-.1 1.26-.13 1.99l-1.23.85-2.26-.38c0 .05 1.54.46 2.3.7l.55 1.1-1.27 2.3c.13 0 .94-1.35 1.41-2.02l1.02-.12 1.73 2.13c.14.16-1.3-2-1.34-2.06 0 0 .42-1.07.48-1.08l2.18-.67c.15 0-1.86.3-2.18.4l-1.14-1.13s-.1-2.12-.12-2.01z"/><path fill="#000" d="M11.03 18.97c-.1.54 0 1.32.44 1.66l.61-.17.85 1.05-.7-1.2c-.05-.28.08-.53.14-.8-.14 0-.41.51-.33.78l-.57.15c-.35-.45-.26-.71-.26-1.16.37.29.74.37 1.04.39.4-.24-.9-.48-1.22-.7z"/><path fill="#fcdd09" d="M9.11 25.92c.43.26.83.52 1.3.2-.05-.23.2-.74.12-.8-.28 0-.52-.18-.75-.35-.25.42-.4.78-.84.93l.17.02z"/><path fill="#000" d="M8.92 25.9c.46.29 1.05.5 1.51.21l.15-.65 1.26-.45-1.35.25c-.28-.05-.46-.25-.68-.4-.06.12.4.44.64.53l-.05.67c-.53.18-.94 0-1.36-.16.4-.25.68-.7.8-.98.03-.08-.06.01-.03-.07-.21.45-.5.8-.89 1.06z"/><path fill="#fc0" d="M14.56 29.88c.38-.32.78-.72.66-1.28a1.4 1.4 0 0 1-.6-.37l-.05-.03-.04.05c-.1.26-.4.36-.64.5.3.4.63.73.61 1.21l.06-.08z"/><path fill="#000" d="M14.5 29.98c.42-.34.83-.82.72-1.37l-.55-.36.03-1.36-.24 1.37c-.15.25-.4.35-.62.5.1.1.56-.14.72-.34l.6.32c-.03.57-.3.7-.59 1.04a2 2 0 0 0-.5-1c-.06-.06-.17.04-.23-.02.33.36.56.77.66 1.22z"/><path fill="#fcdd09" d="M20.34 26.02c-.15-.48-.37-1-.93-1.09a1.4 1.4 0 0 1-.56.42l-.04.05.03.05c.2.2.18.52.23.8.46-.15.9-.34 1.33-.15l-.06-.08z"/><path fill="#000" d="M20.4 26.11c-.15-.52-.44-1.08-.98-1.18l-.54.39-1.98-.3 1.92.5c.17.23.18.5.24.77.12-.05.07-.57-.04-.8l.4-.42c.51.23.61.5.82.9-.46-.08-.84.03-1.1.16-.09.03 0 .12-.09.16.46-.18.91-.25 1.36-.18z"/><path fill="#fcdd09" d="M18.52 19.17s-1-.06-1.27.45l.2.6c.2-.02.54.03.75.06.06-.4.17-.81.32-1.11zm-2.4 4.68v.01c0 .9-.7 1.62-1.57 1.62s-1.57-.72-1.57-1.62v-.03c0-.9.7-1.62 1.57-1.62s1.57.72 1.57 1.62v.02z"/><path fill="#000" d="M14.3 22.91c.39.04.34.37.02.44.1.05.4.04.4-.2s-.22-.29-.41-.24zm-1.47-2.16c-.46-.92.1-1.23.48-1.22.53-.06 1.1-.1 1.34-.46-.13.27-.18.6-1.3.62-.71.1-.57.57-.52 1.06zm3.62.21c.58-.86.13-1.18-.31-1.27s-1.08-.24-1.29-.62c.1.28.28.65 1.22.77.6.12.5.65.38 1.12zm-5.25 3.87c-1 .2-1.13-.42-1.03-.78.08-.55.19-1.1-.08-1.45.22.2.52.34.24 1.44-.08.73.4.72.87.79zm1.15-3.5c-.66-.79-1.15-.37-1.29-.02-.26.48-.51.99-.93 1.1.3-.03.62.04 1.06-1 .37-.63.74-.32 1.16-.08zm1.97 6.33c-.13 1.03-.73.95-1.01.73-.46-.26-.91-.54-1.3-.4.25-.15.47-.39 1.35.25.6.32.75-.14.96-.57zM11.6 25.4c-.9.37-.68.98-.42 1.22.34.42.71.82.67 1.26.08-.3.24-.58-.54-1.34-.43-.57-.05-.82.3-1.14zm6.34.18c.75.52.47 1.06.2 1.25-.37.33-.76.65-.79 1.07-.02-.3-.13-.6.68-1.18.47-.46.17-.77-.09-1.14zm-2.74 1.7c-.04 1 .51 1.04.8.88.44-.16.89-.36 1.21-.15-.2-.18-.36-.45-1.24 0-.59.19-.65-.28-.77-.73zm1.69-5.91c.7-.75 1.17-.3 1.28.05.24.5.46 1.02.87 1.15-.29-.04-.62.01-1-1.05-.33-.65-.72-.36-1.15-.15zm1.01 3.54c.97.27 1.15-.36 1.06-.72-.05-.55-.13-1.11.16-1.44-.23.19-.54.32-.32 1.43.05.73-.43.69-.9.73z"/><path fill="#000" opacity=".26" d="M5.57 4.08c-.62-.67-1.53-.23-1.63.06.51.03.94.1 1.09.61.37-.03.7-.34.54-.67zm-.89 2.27c-.85.31-.8 1.32-.58 1.53.23-.46.46-.83 1-.76.1-.35-.05-.78-.42-.77zm2.48 1.42c-.3.85-1.31.82-1.52.6.45-.24.82-.47.74-1 .36-.12.79.03.78.4zm-3.8 7.04c-.74.04-.96.86-.83 1.08.3-.3.56-.55.97-.36.17-.26.16-.64-.14-.72zm2.05 1.24c-.72.19-.76 1.04-.6 1.23.23-.36.45-.66.88-.56.12-.29.03-.66-.28-.68z"/><path fill="#fff" opacity=".29" d="M20.85 6.83l.75.49.45.36.67.55.29.36.27.53-.42-.62-.66-.56-.7-.53-.44-.33-.21-.25z"/><path fill="#fff" opacity=".28" d="M18.67 4c-.45 1.26.12 2.4 1.58 3.42-1.4-.8-2.21-1.78-1.72-3.18l.14-.24z"/><path fill="#fcdd09" d="M10.44 8.7C8.3 7.6 7.54 6.13 7.38 4.5c.68-.19.22-.38.12-.57h-.96c-.21.15-.48.3.14.45l-.1.89-.34.2-1.16-.92c.32-.6.04-.6-.42-.42l-.64.5c-.2.33-.12.5.34.44l.08.34.47.03L5 6l.32.15-.18.15-.42-.22-.34.27c-.31-.12-.68-.55-.87 0l.32.94c.4.38.69.18.94-.22h.55l.56-.1c-.3.14-.63.26-.42.66l.4.55c.81.24.73-.32.94-.62v1.26l.71-.32c-.14.44-.53.68-.12 1.55.12-.53.6-.4.96-.52-.15.22-.23.46 0 .74l.32-.14.13.41c-.32.26-.65.33-.97.25.47.51.94.26 1.41.3l-.17.22 1.08.1a2.1 2.1 0 0 1-1.53.64c.06.13.04.26.35.4-1.45.76-2.97 1.8-4.17 1.5l-.12-.57c.55-.52-.01-.48-.18-.64l-.94.03c-.64.49-.2.64.18.81l.5.99-.97.07c-.73-.43-.93-.17-1.01.25l.3.81c.44.78.5.02.7-.15l.2.23.25-.15h.82l.32-.35-.27.52c-.24.04-.54.02-.4.37l.55.82c.44.05.47-.26.46-.6l.35-.27.62-.74c-.03.2-.22.41.05.62l.51.07c.98.15.38-.57.05-.79l.55.03.24-.12.1-.42c.4.17.7.45.84.89.1-.37.01-.73-.15-1.09l.47.67v-.7c.43.22.92.35.97.94.3-.43.1-.8-.1-1.16l.42.5c.3-.3.18-.61.24-.92.25.33.65.3.72 1.04l.12-.72.32.57.15-.5c.5.9 1.6 1.47 2.44 1.98s1.08 1.18 1.34 1.76h2.85c-.15-1.12-1.02-2.62-1.62-3.46s-1.1-1.1-1.18-1.7c.66.06 1.3.03 1.77-.82-.97.37-1.57.2-1.36-1.13.53.23.99-.03 1.39-.72-.36.08-.7.3-1.12-.37.37-.06.38-.48.35-.94.4.21 1.01.06 1.06-.56-.6.14-.76-.1-.76-.47.47-.52-.04-.68-.22-.96.2-.03.44.1.59-.55-.38.24-.55.06-.6-.37l.38.13c-.02-.4-.33-.56-.6-.77.9-.71.22-1.56-.2-.96-1.03-.2-2.07-.24-3.1-.22-.4.23-.53.46-.6.69h-.64v.44l.22.12c-.06.72.4.63.92.45l.27-.15h.59c.45.17 1 1 .2 1.65l-.42-.14-.32.17-.7.02.03.67.3-.22h.96l-.42.44-.91.27c-.88.08-1.1-.37-1.4-.74-.23.15-.37.44.14.72-.41-.01-.72.03-.87.15z"/><path fill="#da121a" d="M4.72 4.08c-.61-.67-1.53-.23-1.63.06.51.03.94.1 1.09.61.37-.03.7-.34.54-.67zm2.74-.18c.04-.9-.91-1.24-1.19-1.1.33.38.59.72.33 1.2.28.23.74.25.86-.1zM3.7 6.42c-.85.3-.8 1.31-.58 1.52.24-.45.46-.82 1-.76.1-.35-.04-.78-.41-.76zm2.6 1.35c-.29.85-1.3.82-1.5.6.44-.24.8-.47.74-1 .35-.12.78.03.77.4zM4.43 12.7c-.2-.73-1.05-.75-1.24-.58.36.22.66.43.57.86.3.12.66.02.67-.29zm-1.91 2.11c-.75.04-.97.86-.84 1.08.3-.3.56-.55.97-.36.17-.26.16-.64-.13-.72zm2.01 1.33c-.72.2-.76 1.04-.6 1.23.23-.36.44-.65.88-.56.12-.28.03-.66-.28-.67zm2.53-.21c.04.75-.76 1.04-1 .94.28-.33.5-.62.28-1 .24-.2.62-.23.72.06zm6.1-11.77l-.69-1c-.61.2-.58-.29-.3-.48.22-.16.44-.28.76-.31s.43.2.25.6c.3.85 1.1.56 1.07-.12-.22.07-.56-.6.1-.48-.26-.63.71-.79.54 0 .57-.04.52.47.18.51.03 1.17 1.28.68 1.13.24-.36-.48-.14-.69.16-.72s.61.23.79.38c.17.14.42.62-.32.45l-.75 1.14a19.2 19.2 0 0 0-2.92-.21z"/><path fill="#e6e6e6" d="M13.46 5.17l.15-.16c.24-.1.47-.06.67.09v.11c-.32.28-.57.25-.82-.05z"/><path fill="#000" d="M13.41 4.71c.13-.08.26-.04.4-.03s.3.21.41.34c-.15-.12-.29-.15-.46-.13s-.23.16-.32.29l.28-.16c-.03.16.03.22.16.28.17 0 .2-.15.15-.26.11.02.15.06.22.14-.08.15-.22.2-.35.21s-.3-.12-.4-.21c.07.19.26.29.41.3s.3-.09.4-.24l.05-.06.2.02-.1-.08c-.2-.23-.36-.62-.56-.66s-.4.09-.49.25z"/><path fill="#e6e6e6" d="M12.34 6.03a.6.6 0 0 0 .2.37c0-.13 0-.27.1-.4-.11-.04-.23-.04-.3.03zm.45-.06a.6.6 0 0 0 .29.31.7.7 0 0 1 0-.43c-.12 0-.24.03-.3.12zm-.17 1.39a.61.61 0 0 1 .08-.41c.05.13.1.26.23.36-.12.1-.22.1-.3.05zm.45.01a.6.6 0 0 1 .07-.42c.05.13.1.26.24.36-.12.1-.22.1-.3.06z"/><path fill="#da121a" d="M14.3 6.67c-.3-.19-.96-.19-1.7-.14-1.04.09-1.85 0-1.72-1.2-.84.4-.94 2.13 1.15 1.8a8.1 8.1 0 0 1 2.27-.46z"/><path fill="#000" d="M16.2 4.41c-.14.1-.32.11-.49.15-.16.11-.1.12.03.24.18-.06.37-.1.54-.17-.05.2-.12.27-.26.39.02.3-.07.43-.34.53.14-.12.19-.2.2-.37-.55-.02-.06-.22-.3-.48l-.25.03c.25-.25.57-.29.88-.32zm.47 2.39c-.2-.02-.25-.05-.35-.08-.11-.2-.2-.39-.38-.54.02.22.16.57.27.69s.36.06.46-.07zm-.41.38c.09.07.18.14.21.23s0 .6.13.84c.12.23.59.28.9.23-.19-.11-.56-.08-.74-.26-.2-.3-.12-.87-.18-.93s-.21-.1-.32-.1zM11.32 8.5c.2.12.24.23.45.31l.43.03s-.16.14-.27.12c-.34-.2-.52-.08-.6-.47zm-.57.16l-.51.18a2.1 2.1 0 0 1-.79-.09l-.12-.1c.06.35.37.59.5.7s.15.07.32.06c.18-.02.83.06.95.2s.37.09.57-.02c-.12.23-.26.35-.46.26s-.63-.3-1.03-.27c-.48.4-1 .98-1.55 1.16l.38-.38c.32-.25.65-.54.96-.8-.22-.07-.37-.18-.56-.36s-.16-.5-.18-.77c.43.32 1.18.3 1.52.23zm-1.56 2.57c-.02-.22.86-.68 1.12-.8s.4 0 .63.18c-.23-.1-.43-.14-.65-.06-.38.15-.95.75-1.1.68zm.85.27c.14.02.28-.09.42-.25a.43.43 0 0 1 .36.04s-.15-.16-.25-.17-.5.25-.53.39zm-1.12.86c.42.07 1.11-.1 1.3-.15s.13-.17.28-.3c.15-.13.62-.25.94-.37l-.39.34c-.13.33-.17.65-.42.9l-.24.23.43-.11c.34-.25.5-.56.6-.93v.8c.11.44.43.58.5 1.07 0 0-.13.23.02.13s.4-.32.33-.6c-.06-.28-.16-.12-.25-.25-.28-.34-.12-.71.18-.99-.2.33-.22.62.01.93l.01-.33c.08-.27.24-.33.46-.45-.2.2-.2.37-.23.63.2.63.66.82 1.23.98l-.25-.37c-.12-.22-.19-.41-.17-.65s.2-.44.08-.7c.23.25.16.36.07.65l.07.36c.08-.1.23-.15.21-.35-.02-.34.02-.59.1-.9l.01.36c.26.45.75.61.9 1.09.18-.46 0-.36-.12-.67-.3-.4-.24-.7-.17-1.16.29.99.57 1.14 1.48 1.3l-.5.04-.41-.14-.35-.32.24.33c.07.28-.02.5-.1.76l-.13.2-.16-.39c-.13-.24-.37-.36-.59-.5-.05.2-.14.36-.26.53.05.2.1.2.15.3.14.13.25.19.43.2-.19.13-.36.13-.58.14-.46 0-.81-.17-1.17-.45-.05.27-.17.37-.37.53l-.28.1-.16.13-.2.36c-.13-.24-.22-.53-.38-.75l-.27-.3c.29.17.58.34.66.65.2-.13.27-.2.3-.43-.04-.2-.3-.31-.45-.48s-.11-.34-.1-.56c-.12.23-.25.28-.49.33s-.48.06-.72.07c.12-.2.28-.36.45-.51l.06-.33s-.17.13-.27.18c-.1.05-1.07.17-1.32-.18zm5.98-1.03c-.07.6.43.83.76.95s.7.04.85 0l-.73-.18c-.35-.39-.28-.82-.28-1.3-.13.39-.05.98 0 1.14s.26.27.26.27c-.53-.23-.73-.35-.86-.88zm.49-1.47c.06.4.17.76.49 1 .24.25.7 0 .9-.13-.2.05-.38.1-.68 0s-.54-.55-.71-.87zm.42-1.16c-.02.32.03.6.16.87 0 0 .08.26.13.28s.31.24.31.24l-.2-.31a4.96 4.96 0 0 1-.4-1.07z"/><path fill="#000" d="M13.23 9.79c-.01.35-.28.62-.42.83s-.15.28-.07.43c.08.15.32.3.37.59.13-.3-.21-.66-.23-.75s.04-.21.04-.21c.23-.47.5-.46.3-.9zm-.21-.27c-.1.33-.45.56-.62.69s-.14.03-.14.2.2.52.16.86c.16-.37-.11-.6.07-.98.16-.14.43-.31.5-.4s.06-.23.03-.37zm-.19-.2c-.16.24-.41.25-.7.39s-.18.4-.17.7l-.07.16c.24-.21.05-.57.32-.73s.56-.18.62-.51zm.91.39c0 .3-.15.5-.31.73-.17.43.17.53.23.9.08-.32-.2-.54-.15-.84.16-.31.34-.49.23-.79zm.36-.15c.07.24-.03.43-.13.64-.08.39.29.37.42.63l-.01-.18c-.16-.14-.32-.19-.28-.43s.2-.44 0-.66zm.41-.15c.09.3-.13.53-.14.82.07.25.35.3.43.45.02-.24-.23-.2-.32-.45s.28-.54.03-.82zm.21-.52c.15.2.12.41.1.65.07.38.4.24.62.43-.1-.28-.4-.18-.52-.45-.07-.37.04-.5-.2-.63zm.26-.49c.14.2.11.41.1.65.05.36.46.3.61.43-.14-.29-.39-.19-.52-.45 0-.21.05-.4-.08-.58l-.11-.05zm.13-.74c.14.22.09.34.1.64s.45.34.62.53c-.02-.35-.44-.27-.52-.54s-.01-.53-.2-.63zm.31-1.03c.14.4.03.55.13.83.14.2.4.08.59.25-.02-.27-.28-.23-.46-.34-.2-.35.12-.58-.26-.74zm-3.14 8.08c.5-.02 1.26.09 1.38-.53-.33.38-.74.39-1.21.4-.1 0-.12.09-.17.13zm.35.37c.48 0 1.02 0 1.1-.53l-.16.18c-.25.22-.66.21-.8.21-.1.02-.1.1-.14.14zm.56.31c.43.02.72-.1.76-.54-.14.32-.48.37-.63.4s-.1.1-.13.14zm.51.39c.43.02.71-.1.76-.53-.15.31-.34.38-.67.4-.1.03-.06.08-.1.13zm.56.31c.4.02.55-.16.58-.53-.1.28-.22.38-.5.4-.08.04-.05.08-.08.13zm.43.41c.34.02.39-.23.4-.52-.03.24-.14.32-.23.38-.08.05-.15.1-.17.15z"/><path fill="#ffce00" d="M21.06 7.7c-.76.47-1.54 1.28-1.36 2.68-.58-.78-1.64-.67-2.06-.06 1.99-.06 2.33 2.35 3.4 3.65.18.21.03 3.32-.4 4.06h1.24c.35-.37.67-.94 1.19-1.06 1.11-.2 1.4-.88 1.45-1.69-.44.43-.86.9-1.43.87-.52.09-.81.4-1.05.75l.07-1.16c.26-.35.63-.55 1.03-.72 1.34-.16 1.3-1.07 1.38-1.9-.23.46-.36 1.05-1.03 1.03-.5.24-1.03.4-1.45.94l.02-1.24c-1.46-1.81-2.54-3.65-.6-5.74l-.08-.4z"/><path fill="#ffce00" d="M18.94 2.52c-.02.52.07 1.04-.35 1.53-.73 1.48.5 2.89 2.44 3.83s2.5 3.16.55 5.5l.05.86.54-.27a8.11 8.11 0 0 0 1.48-3.2c2-.4 1.62-1.64 1.83-2.72-.24.54-.23 1.1-1.01 1.58-.5-.1-.75.33-1.07.59-.01-1.38-.67-1.95-1.38-2.5.67-.65 1.18-1.06 1.88-1.2 1.08-.1 2.16-.17 2.02-2-.03-.56-.13-1.12.17-1.68-.62.1-.77.53-.83 1.01-.04.6-.04 1.23-.42 1.6.03-.33-.06-.67-.32-1-.18-.48.1-.83.27-1.22-.47.25-.81.6-.8 1.02.02.7.04 1.3-.24 1.68.03-.27-.1-.53-.27-.8a2 2 0 0 1 .17-1.23c-.25.16-.7.5-.56 1.28.16.46-.08.8-.23 1.16.04-.75-.38-.98-.93-1.06.81.8 0 1.46-.39 2.13-1.14-.6-1-.84-.85-1.73-.19.28-.5.5-.35.96-.44-.22-.29-.59-.2-.94.37-.37.2-.83.13-.96.02.46-.49.8-.74 1.2-.2-.23-.28-.74.27-1.2.35-.38.23-.76.12-1.13-.02.45-.37.76-.69 1.08a.73.73 0 0 0-.27.45c-.06-.14-.23-.32-.13-.42 1-.92.55-1.57.1-2.2z"/><path fill="#fc0" d="M21.46 13.25c.39.22.52.68.48 1.21l-.49-.15z"/><path fill="#000" d="M18.73 19.04c-.62.06-1.27.06-1.57.52l.15.65-1.03 1.71 1.2-1.58c.27-.06.53.04.8.08 0-.14-.57-.29-.83-.22-.03-.23-.02-.41-.12-.6.42-.39.52-.27 1.12-.37-.25.4-.3.75-.3 1.05.01.09.12.06.12.15.04-.48.25-1.04.46-1.39z"/><path fill="#fcdd09" d="M11.19 19.25s.67.2 1.06.4a1.2 1.2 0 0 0-.19.66c-.2.06-.36.1-.56.13-.22-.34-.39-.6-.31-1.19z"/><path fill="#000" d="M13.98 22.45c.38.04.33.37 0 .44.1.05.4.04.41-.2s-.22-.3-.41-.24zm.76.07c.38.03.33.36.01.44.1.05.4.03.4-.2s-.22-.3-.41-.24zm.04.78c.38.03.33.36.01.43.1.05.4.04.4-.2s-.22-.29-.4-.24zm.44-.28c.38.04.33.37.02.44.1.05.39.03.4-.2s-.23-.3-.42-.24zm.19.57c.38.04.33.37.01.44.1.05.4.03.41-.2s-.23-.3-.42-.24zm-1.01.14c.37.03.32.36 0 .44.1.05.4.03.4-.2s-.22-.3-.4-.24zm.48.17c.38.03.33.36.01.43.1.05.4.04.4-.2s-.22-.29-.41-.24zm.46.38c.38.04.33.37.01.44.1.05.4.04.4-.2s-.22-.29-.4-.24zm-.44.18c.38.04.33.37.01.44.1.05.4.04.4-.2s-.22-.3-.41-.24zm-.63-.05c.38.04.33.37.01.44.1.05.4.04.41-.2s-.23-.29-.42-.24zm.28.56c.38.04.33.37.01.44.1.05.4.04.41-.2s-.23-.29-.42-.24zm-.6-.09c.37.04.32.37 0 .44.1.05.4.04.41-.2s-.22-.29-.41-.24z"/><path fill="none" stroke="#000" stroke-width=".44" stroke-miterlimit="4" stroke-linecap="butt" stroke-linejoin="miter" d="M.36.42V18.1c0 7.48 6.56 13.54 14.59 13.54s14.58-5.99 14.57-13.46V.42z"/></svg>