<svg version="1.1" xmlns="http://www.w3.org/2000/svg" viewBox="0 0 30 32"><path fill="#ffd200" d="M14.9 15.6v15.59c-9.31-.17-13.39-7.74-13.56-15.6h13.55z"/><path fill="#f4f0e8" d="M14.9 15.6v15.59c9.3-.17 13.32-7.8 13.55-15.6H14.9z"/><path fill="none" stroke="#000" stroke-width="1.4" stroke-miterlimit="4" stroke-linecap="butt" stroke-linejoin="miter" d="M1.28 15.6h27.11M14.84 1.67l.05 29.38"/><path fill="#f4f0e8" d="M14.08 2.13a103.2 103.2 0 0 1-13.1-.91c.03 4.53 0 8.96.27 13.2l12.5.14z"/><path fill="#ffd200" d="M15.6 14.9l-.07-12.98c4.42-.13 8.84-.28 13.26-.6.12 4.54-.24 9.14-.47 13.56z"/><path fill="#18140c" d="M14.9 3.32a11.33 11.33 0 0 0 3.93 4.17c-.5 1.04-1.2 1.45-1.52 3.43 4.42-4.66 9.5-2.5 6.92 3.07l-1.25 2.9c-.42 1.6 1.1 1.68 2.24.68-.23 2.25-3.76 4.03-5.13.44l-.6-2.33c-.73-2-2.06.4-2.13 1.46.32.37.34.82.18 1.34.07.38.02.76-.1 1.13.42 1.53 1.89 1.75 3.06.86-.4 2.34-1.82 2.8-3.63 2.07l.6 1.59A7.08 7.08 0 0 0 15 26.28a5.32 5.32 0 0 0-2.3-2.17l.56-1.48c-2.21 1.05-3.2.02-3.62-1.98.97.55 1.93.82 2.82-1-.09-.33-.19-.6 0-1.12-.05-.52-.06-.96.18-1.35-.38-2.36-1.64-2.57-2.09-1.44-.14.36-.25.84-.31 1.39-.89 4.99-5.08 2.98-5.16.86 1.53 1.16 2.9.23 1.44-2.38 0 0-1.26-2.55-1.21-2.73-1.08-2.8.85-5.4 4.35-4.15 1.25.38 2.37 1.74 3.26 2.73-.3-1.39-1.2-2.63-1.98-3.93a10.84 10.84 0 0 0 3.94-4.24z"/><path fill="#dc281e" d="M12.09 7.75c1.68 2.61 2.61 10.15 2.28 9.59l-.43-.01a14.28 14.28 0 0 0-1.2-4.75 6.44 6.44 0 0 0-3.3-3.14c-1.2-.48-2.97-.77-3.62.7-.48 1.54.12 2.65.63 3.86.55 1.28 1.57 2.77 1.37 4.24-.15.7-.66 1.02-1.85.79.58.94 2.06 1.02 2.8.1.89-1.17.6-2.74 1.2-3.94.52-1.04 1.56-.88 2.1-.37.73.57 1 1.7 1 2.57-.07.17.1.45-.06.57-.23.19-.15.38.06.51.13.08.1.28-.02.37-.24.2-.13.35 0 .44.01.33-.12.46-.1.68-.25 1.13-1.07 1.96-2.73 1.53.47 1.52 1.77 1.28 2.6.45a3.3 3.3 0 0 0 .93-1.98c.01-.02.4-.02.5-.04-.02.8-.46 3.35-.8 4.1.65.42 1.03.73 1.58 1.3.57-.5.96-.8 1.6-1.3-.23-.61-.9-4.1-.8-4.09h.53c.09.41.2 1.2.6 1.65.58.7 1.52.97 2.16.7.26-.14.66-.43.87-.96-1.15.54-2.74.07-3.03-1.44-.01-.02.02-.57.02-.57.14-.04.28-.32.05-.5-.04-.04-.02-.37-.02-.37.14-.04.2-.36-.02-.47a3.16 3.16 0 0 1-.06-.6c-.14-.66.2-1.39.46-1.96.32-.8 1.3-1.42 2-1 .84.58.89 1.61 1.11 2.58.25 1.02.63 2.29 1.82 2.53.76.07 1.27.06 1.73-.53-1.41.18-1.77-.34-1.84-1.2-.12-1.09.65-2 .97-2.97.63-1.42 1.64-3.06 1.06-4.68-.48-1.1-1.93-1.36-3.02-1.02-1.93.46-3.86 3.27-4.08 3.79-.32.74-.9 2-1.05 4.43 0 .04-.51.05-.51.02.07-1.58 1.23-8.38 2.17-9.66a14.12 14.12 0 0 1-2.82-3.5c-.77 1.38-1.96 2.57-2.82 3.52z"/><path fill="#18140c" d="M14.9 6.3l.36 11.04-.53-.02zm1.37 11.04a8.73 8.73 0 0 1 2.57-5.48c1.28-1.4 3.86-1.66 3.3 1.06-.94 3.12-1 5.08-.24 5.88-.6-.63-1.18-1.34-.2-5.72.25-1.91-.7-2.41-2.66-.77a7.4 7.4 0 0 0-2.5 5.05zm-2.65-.09a8.73 8.73 0 0 0-2.56-5.47c-1.3-1.4-3.87-1.66-3.3 1.06.94 3.12 1 5.08.23 5.88.61-.63 1.18-1.34.2-5.72-.25-1.91.7-2.41 2.66-.77a7.4 7.4 0 0 1 2.5 5.05zm1.04 2.58l.36 4.42.28-4.43zm1.86 0c.4 1.6 1.36 2.09 2.16 2.02-1-.26-1.77-.92-1.89-2.06l-.33.03zm-2.98.08c-.56 1.73-1.52 2.28-2.28 2.17a2.7 2.7 0 0 0 1.96-2.17s.29-.01.32.01z"/><path fill="#18140c" d="M12.9 17.34l4.18.02.02.57h-4.26zm-.09 1.04l4.26-.02c.12.12.18.25-.02.37h-4.26c-.5-.15-.24-.24.02-.35zm-.16.81l4.57.02.04.63-4.67-.02z"/><path fill="none" stroke="#000" stroke-width=".47" stroke-miterlimit="4" stroke-linecap="butt" stroke-linejoin="miter" d="M.6 1.1a168 168 0 0 0 28.46 0l-.63 14.5c-.51 11.98-7.39 15.53-13.61 15.53S1.55 27 1.14 15.59L.61 1.11z"/></svg>