<svg version="1.1" xmlns="http://www.w3.org/2000/svg" viewBox="0 0 27 32"><path fill="#ed1c24" d="M.27.36h25.88c0 5.75.13 11.5.06 17.24-.1 3.12-1.62 6.03-3.76 8.24a14.24 14.24 0 0 1-4.52 2.95c-1.62.8-3.18 1.72-4.6 2.84-2.99-2.47-7.06-3.34-9.69-6.3a13.27 13.27 0 0 1-3.3-8.37C.25 11.43.3 5.89.27.36z"/><path fill="#000" d="M13.32 31.87l-.1-.1a23.61 23.61 0 0 0-4.28-2.6c-1.93-1-3.92-2.02-5.43-3.72a13.44 13.44 0 0 1-3.35-8.49C.11 13.54.1 10.06.1 6.68V.36h.17V.18h26.06v.18c0 2.19.02 4.41.04 6.56.03 3.5.06 7.12.02 10.68a12.82 12.82 0 0 1-3.81 8.37 14.39 14.39 0 0 1-4.58 3c-1.8.9-3.3 1.82-4.57 2.82l-.1.1zm-9.54-6.65c1.46 1.64 3.43 2.66 5.33 3.64 1.44.74 2.93 1.5 4.22 2.55a27.17 27.17 0 0 1 4.52-2.78h.01c1.7-.7 3.2-1.69 4.46-2.9a12.39 12.39 0 0 0 3.71-8.13c.04-3.56 0-7.17-.02-10.67-.02-2.1-.04-4.26-.04-6.39H.45L.46 6.7c0 3.36 0 6.85.06 10.27a13.1 13.1 0 0 0 3.26 8.26z"/><path fill="#fbbd09" d="M1.33 10.88l8.38.04-.04 7.4-.3 1.11-.49.93-.61.9-1.01.94-.84.57-.81.45-1.12-.5-1.3-1.06-1.06-1.35-.52-1.1-.26-1.31-.02-7.01z"/><path fill="#231f20" d="M5.6 23.23l-1.11-.5-1.3-1.06-1.07-1.35-.52-1.1-.26-1.33-.02-7h.01v-.02l8.4.04v.01l-.04 7.4-.3 1.11-.5.94-.61.9-1.01.95-.83.57-.83.45zm-1.1-.53l1.1.5.82-.43.83-.57 1.01-.94.62-.9.5-.93.3-1.1.03-7.39-8.36-.03.02 7 .26 1.3.51 1.1 1.07 1.34 1.3 1.05z"/><path fill="#ed1c24" d="M1.46 15.4l-.09-.5.53-.17.1.33-.05 1.8-.17.06-.25-.09-.18-.2.14-.57-.18-.33.15-.33z"/><path fill="#231f20" d="M1.78 16.93l-.26-.09-.19-.21.15-.56-.19-.35.15-.32-.08-.51.55-.18.1.35-.05 1.8-.18.07zm-.25-.11l.25.08.15-.05.06-1.79-.1-.31-.5.16.1.5-.16.31.18.34-.14.56.16.2z"/><path fill="#ed1c24" d="M2.02 18.67l-.5-.1.45-.6.17.16.62 1.77-.17.15-.41.06-.02-.62-.48-.17.34-.65z"/><path fill="#231f20" d="M2.16 20.13l-.02-.63-.48-.17.34-.64-.5-.1.48-.64.18.18.62 1.77-.18.16-.44.07zm-.46-.81l.47.16.02.62.4-.06.16-.15-.61-1.75-.16-.15-.43.57.5.1-.35.66z"/><path fill="#ed1c24" d="M1.93 11.87l-.17-.4.73-.12-.55 1.92-.43-.02-.07-.4.36-.34-.27-.38.4-.26z"/><path fill="#231f20" d="M1.95 13.28l-.46-.02-.07-.4.36-.35-.28-.38.4-.26-.16-.4.77-.14-.56 1.95zm-.43-.04l.4.01.55-1.89-.7.13.17.38-.4.27.27.37-.37.35.08.38z"/><path fill="#ed1c24" d="M6.51 22.21l.22-.25.3.03-.05.42-.4.02-.21.3-.38-.18-.3.3-.29-.45.25-.15.4.1.12-.1.34-.04z"/><path fill="#231f20" d="M5.68 22.87l-.3-.47.27-.16.4.1.12-.09.33-.04.22-.26.33.04-.06.45-.4.01-.22.3-.38-.17-.3.3zm-.26-.46l.27.42.3-.3.37.18.21-.3h.4l.05-.41-.3-.03-.2.26-.34.05-.13.08-.4-.1-.23.14z"/><path fill="#ed1c24" d="M4.6 11.87l-.06-.38.25-.12.15.15.1.42.16.23.28.15.52.05.4.07-.07.22-.67-.01-.4-.13-.28-.12-.25-.27-.13-.26z"/><path fill="#231f20" d="M6.33 12.67l-.68-.01-.39-.13-.3-.13-.24-.27-.14-.25-.05-.4.26-.13.15.16.11.42.16.23.27.14.52.05.41.08-.08.24zm-.67-.04h.65l.07-.18-.4-.08-.5-.05-.3-.15-.15-.24-.11-.42-.14-.14-.22.12.05.37.13.25.24.26.3.12.38.14z"/><path fill="#fff" d="M6.58 11.94l-.1-.4.6-.07.05.41-.55.06z"/><path fill="#231f20" d="M6.57 11.95l-.1-.43.62-.07.05.44-.57.06zm-.07-.4l.09.37.53-.05-.05-.39-.57.07z"/><path fill="#000" d="M1.86 10.72c-.58 0-.62 0-.64.03-.02.02-.02.05-.02.1v2.33c.01 3.21.02 4.6.04 4.8l.02.29a3.48 3.48 0 0 0 .12.71l.05.19a3.14 3.14 0 0 0 .35.88c.04.08.1.2.2.35l.1.15a2.92 2.92 0 0 0 .2.3l.01.04.07.08.09.12.11.15.19.22.23.25.33.31.2.2.33.24.3.2a5.23 5.23 0 0 0 1.07.55c.15.05.29.12.33.16.04.03.06.04.1 0a25.3 25.3 0 0 1 .84-.46c.27-.15.4-.23.52-.32l.21-.17.2-.16.37-.3a5.98 5.98 0 0 0 1.3-1.66l.1-.17a4.95 4.95 0 0 0 .64-2.18c.02-.35.03-.48.04-1.09v-5.99c0-.04 0-.07-.02-.09-.03-.02-.04-.03-.33-.03H6.06l-3.4-.02h-.8zm4.74.3h.04c.04 0 .04.01.02.02a.88.88 0 0 1-.1.02.54.54 0 0 0-.23.1c-.06.06-.24.1-.77.2-.2.04-.27.08-.31.15-.03.04-.03.06-.01.22.01.2.03.23.12.33.08.08.21.13.33.1.21-.05.32-.04.39.02l.1.14L6 12.3l-.24-.03a.99.99 0 0 1-.5-.15c-.14-.1-.2-.22-.23-.45a.53.53 0 0 0-.1-.27c-.08-.1-.18-.12-.28-.07-.19.1-.23.3-.12.57.07.16.15.29.28.42.12.1.2.16.36.23l.08.03h-.12l-.16-.02c-.04-.01-.09.03-.1.07-.01.06 0 .22.01.27.05.1.12.16.25.16.06 0 .13.02.18.05l.2.15c.02.03.02.03 0 .08-.05.08-.24.14-.38.11-.2-.04-.24-.03-.39.11a.5.5 0 0 1-.18.14c-.1.04-.14.04-.27 0a.39.39 0 0 1-.19-.1l-.1-.13-.08-.1a2.99 2.99 0 0 0-.4-.42l-.2-.18-.09-.11a.97.97 0 0 1-.19-.56 1 1 0 0 0-.14-.52.73.73 0 0 0-.37-.3.37.37 0 0 0-.25 0 1.7 1.7 0 0 1-.2.04c-.3.03-.39.06-.42.08-.04.02-.02.12.01.19.07.1.14.25.14.25s-.03.03-.07.04l-.11.08c-.03.03-.07.04-.09.05-.04.03-.05 0-.05-.08l-.01-.1v-.4c0-.26.01-.37.03-.38.02-.03.19-.04.72-.03h2.3L6.58 11h.03zm1.68 0H9.5v1.12l-.01.04-.05-.07a.72.72 0 0 0-.51-.33c-.18-.02-.4.06-.44.16-.05.08 0 .19.1.2.03 0 .05.01.05.02 0 .03-.07.07-.12.07-.05 0-.06-.01-.1-.05a.28.28 0 0 1-.09-.21c0-.1.01-.1.18-.28.21-.21.25-.28.18-.35-.02-.02-.05-.03-.12-.03-.08 0-.4.03-.58.06h-.4a.65.65 0 0 1-.17-.1l-.2-.14-.12-.07-.01-.01a.1.1 0 0 1-.04-.01c-.02-.01.15-.01 1.21-.02zm-5.96.41c.05 0 .05.02.05.05a.3.3 0 0 1-.13.23l-.09.05-.04.01-.07.03c-.06 0-.06 0-.1-.05-.07-.11-.12-.2-.1-.22 0-.02.02-.03.14-.05.2-.04.29-.05.34-.05zm2.4.04h.02c.03 0 .06.02.08.05.03.04.06.1.1.26.06.24.1.3.19.4.12.13.31.2.66.23.1 0 .24.03.3.04l.14.04c.05.01.05.07 0 .09-.06.03-.4 0-.71-.08a4.3 4.3 0 0 0-.4-.1.85.85 0 0 1-.27-.25 1.47 1.47 0 0 1-.16-.27.68.68 0 0 1-.03-.33c.01-.05.05-.08.09-.08zm2.06.1a.2.2 0 0 1 .14.05c.06.04.07.09.02.12a.5.5 0 0 1-.17.02h-.13v-.03c-.02-.03-.01-.05.01-.07a.26.26 0 0 1 .13-.08zm-4.82.38s.03 0 .05.03c.09.08.07.28-.03.39-.08.07-.1.07-.17 0a.85.85 0 0 1-.16-.17c-.03-.03-.03-.03.04-.1a.95.95 0 0 1 .27-.15zm-.44.38c.01 0 .02 0 .02.02l.06.08c.05.05.06.07.06.1-.01.04-.12.15-.13.13l-.02-.17c-.01-.14 0-.16.01-.16zm7.54.05c.03 0 .08.08.1.14.03.08.03.1.03.3a1.26 1.26 0 0 1-.07.4c-.01.08-.04.12-.13.33l-.06.13-.07.14a.6.6 0 0 0-.07.16c0 .03-.07.16-.12.24-.06.09-.1.18-.17.32a.75.75 0 0 1-.09.2c-.07.14-.11.27-.16.45l-.06.25a2.58 2.58 0 0 0 .02 1.12l.04.17c0 .03.02.08.04.11.07.17.12.42.1.58a.58.58 0 0 1-.1.26c-.08.07-.2.05-.32-.05l-.08-.06v-.17a.5.5 0 0 0-.04-.22.98.98 0 0 0-.26-.35.78.78 0 0 1-.22-.3 1.49 1.49 0 0 1-.15-.46c-.02-.17-.03-.2 0-.28l.01-.12c0-.05.06-.26.09-.28l.04.02c.03.04.03.19 0 .25-.03.05-.03.21-.01.23.04.02.07 0 .1-.04l.1-.17.15-.23a1.17 1.17 0 0 0 .19-.58c0-.04 0-.04.02-.04l.06.02c.04 0 .05 0 .09-.05a.52.52 0 0 0 .07-.11c.03-.07.04-.1.05-.27v-.36c-.02-.3-.01-.43.02-.47.02-.03.02-.03.05 0a.4.4 0 0 1 .06.09c.02.04.03.05.07.05.06 0 .07-.02.13-.14.04-.07.05-.1.05-.2 0-.12 0-.15-.02-.23-.04-.12-.03-.14.06-.14.1-.01.18-.06.27-.15.09-.09.12-.15.15-.33 0-.08.02-.15.03-.16h.02zm-7.24.24h.01l.06.03c.12.13.08.38-.07.48a.36.36 0 0 1-.19.06.8.8 0 0 1-.12-.27c0-.02.03-.05.08-.1l.14-.13c.04-.05.06-.07.09-.07zm-.23.71c.07 0 .18.01.24.04.09.04.14.08.27.21.16.16.24.37.24.62v.17c.03.06.1.13.17.16a1.05 1.05 0 0 1 .14.1c.02 0 .2.13.23.17.06.07.15.25.17.33.01.04-.04.17-.08.2a.6.6 0 0 1-.17.06.5.5 0 0 0-.22.09l-.11.07c-.08.03-.15-.07-.21-.3a1.15 1.15 0 0 0-.17-.44c-.07-.1-.09-.12-.14-.14-.06-.03-.07-.03-.1-.01-.05.03-.3.1-.31.08-.02-.02-.05-1.34-.02-1.39 0-.01.03-.02.07-.02zm7.92.46c.01 0 .02.71.02 1.83 0 2.54 0 2.5-.08 2.83a6.2 6.2 0 0 1-1.1 2.44 4.1 4.1 0 0 1-.42.48l-.24.24c-.1.1-.42.39-.5.44-.09.06-.1.07-.1.03 0-.07.2-.3.35-.42.17-.13.28-.25.38-.42.1-.18.13-.27.22-.65.15-.55.24-.78.38-.93.09-.08.1-.12.09-.17-.01-.05-.1-.13-.17-.17s-.15-.11-.17-.16c-.03-.06-.08-.08-.2-.08a.27.27 0 0 0-.13.03l-.1.03c-.11.03-.2.06-.25.09-.03.01-.06.02-.07 0-.04-.02-.03-.04.01-.09a3.57 3.57 0 0 1 .23-.28c.06-.06.08-.07.2-.04.04.01.13.02.2.01.3 0 .5-.12.83-.48.14-.14.23-.27.3-.42.14-.28.17-.38.15-.57 0-.14-.03-.22-.12-.4l-.06-.15-.04-.08a2.92 2.92 0 0 1-.21-.4 1.6 1.6 0 0 1-.06-.45c0-.24.03-.47.12-.73a3.96 3.96 0 0 1 .29-.7c.04-.06.08-.16.16-.43l.09-.23zM1.82 14.8c.02 0 .03.03.03.08s0 .1-.03.16a.3.3 0 0 1-.1.16c-.1.08-.15.1-.18.06-.05-.05-.1-.27-.07-.31.02-.04.3-.16.35-.15zm-.23.7l.05.01c.05.03.09.12.08.2-.01.06-.06.17-.1.19-.02.01-.04 0-.12-.1a.5.5 0 0 1-.1-.12c0-.02.12-.15.15-.17l.04-.02zm0 .77l.1.03c.1.04.13.08.16.2.02.11.02.16 0 .24-.02.07-.03.07-.06.07a.44.44 0 0 1-.1-.03c-.09-.03-.21-.14-.22-.2 0-.05.09-.31.12-.31zm3.14.1l.05.06c.09.15.13.22.24.37a8.03 8.03 0 0 0 .37.5c-.01.03-.12.06-.28.08a13.39 13.39 0 0 1-1.6-.01.97.97 0 0 0-.3.18c-.07.07-.04.13.1.28.11.12.12.15.1.25-.06.3-.3.6-.5.68-.08.03-.11.03-.15 0-.03-.03-.04-.04-.05-.2a.62.62 0 0 0-.11-.36.76.76 0 0 0-.37-.24l-.2-.06c-.03-.01-.07-.02-.09-.01-.05 0-.14.12-.22.26-.07.14-.12.2-.14.2a4.05 4.05 0 0 1-.03-.77l.01-.65c.02-.04.03-.03.17.01.12.04.2.03.34-.02s.15-.05.19-.01.03.07-.02.17-.05.12 0 .16c.03.03.03.03.2.03h.29a.4.4 0 0 0 .31-.12c.07-.07.14-.12.18-.12v.13c-.02.05 0 .1.05.1.03.01.06 0 .17-.13l.18-.17c.1-.06.24-.18.26-.2 0-.03.04-.06.06-.08l.03-.05.1.01c.2.04.4-.03.57-.2a.6.6 0 0 1 .1-.07zm-2.8 1.72l.04.03.04.07a.4.4 0 0 1 0 .24c-.03.11-.03.11-.17.1a.48.48 0 0 1-.14-.03c-.03-.03.08-.24.2-.38l.04-.03zm-.28.6h.08l.1.02c.04 0 .04.03 0 .15a.6.6 0 0 0-.05.11c0 .03-.03.08-.05.06a1.02 1.02 0 0 1-.08-.27v-.07zm.39.12l.03.02c.04.03.08.11.1.19.03.17.03.18 0 .26-.03.07-.04.08-.08.08-.07 0-.28-.06-.29-.1 0-.01.01-.05.05-.12l.1-.19c.04-.1.07-.14.09-.14zm3.04.06l.1.03c.05.03.17.06.26.09.19.06.2.07.17.18 0 .04-.02.1-.04.13l-.08.16-.09.16-.17.36a.95.95 0 0 0-.04.5.6.6 0 0 0 .16.24c.12.1.15.12.31.14l.15.01.12-.01c.12 0 .18-.03.42-.1l.18-.04.16-.05c.15-.06.18-.06.22-.03.05.05.03.13-.08.28a.84.84 0 0 0-.09.13.95.95 0 0 1-.26.2 4.83 4.83 0 0 1-.6.24c-.1.06-.3.22-.38.33a1.2 1.2 0 0 0-.17.34.5.5 0 0 1-.01.1v.12c.02.08.1.22.15.28l.04.07.02.04c.02.02.03.06.04.1l.03.1c.02 0 .01.03-.02.05-.03.01-.05 0-.14-.03l-.15-.05c-.16-.06-.9-.45-1.06-.56a6.07 6.07 0 0 1-.5-.4 8.2 8.2 0 0 1-1.1-1.18 3.62 3.62 0 0 1-.37-.58c0-.02.04-.05.08-.05l.12-.03.15-.03c.07-.01.1-.03.21-.13a.35.35 0 0 1 .12-.08l.09-.04c.05-.02.2-.02.32 0 .1.02.18.05.3.13s.12.1.1.3c0 .15 0 .17.03.2s.08.03.2 0c.1-.01.13-.03.24-.1.18-.1.3-.25.35-.46l.04-.13c0-.01.03-.07.03-.13.03-.12.13-.42.2-.56.07-.1.19-.24.24-.24zm-3.14.64l.09.01c.1.02.1.02.07.18l-.01.13c0 .05-.01.08-.02.08l-.04-.07-.07-.14c-.04-.08-.07-.16-.05-.19h.03zm.38 0c.05 0 .1.02.14.06.07.09.12.2.12.27l-.01.08a1.1 1.1 0 0 1-.27.08c-.03 0-.04 0-.05-.03-.02-.06 0-.39.01-.42.01-.02.04-.04.06-.04zm4.52 2.54l.04.01c.02.01.03.03.03.13 0 .16-.02.17-.15.13-.06-.01-.08-.04-.1-.11-.02-.05.03-.1.1-.14l.08-.02zm-.47.27h.03l.08.02c.02.02-.12.27-.14.27a.73.73 0 0 1-.18-.12c-.02-.03-.02-.03.02-.08a.25.25 0 0 1 .19-.09zm-.72.04c.04 0 .1.01.14.03a.3.3 0 0 1 .08.05c.03.03.03.03 0 .08-.02.05-.14.19-.16.19s-.2-.26-.2-.28c0-.04.06-.06.14-.06zm.37.28a.1.1 0 0 1 .06.02l.03.03-.08.05-.15.1-.09.05c0-.01.14-.19.19-.23l.04-.02z"/><path fill="#000" d="M9.48 2.37h1.68l.02 1.4.9-.01.05-1.37 1.42.03-.03 1.34h.9l.03-1.38L16 2.4v1.4h.87l.05-1.39 1.7.02V6.3l-.67 2.81-.19.15-.03.83 1-.02v1.43h.73l.04-1.43h1.14l.14.2v1.2l.67.02.03-1.34.92-.05.19.12-.03 1.29h.65l.04-1.41.8-.01.22.15.01 2.8-1.22 4.3 1.25 5.97-.45.25H9.14l1.5-5.72v-7.13l-.53-2.3-1.54.03.08-.8-.8-.88-.91-.04.02-.6.32-.08-.01-.7-.24.11-.3-.32 2.76-2.3v-.46z"/><path fill="#231f20" d="M23.87 23.65H9.02l1.54-5.81-.02-7.11-.5-2.23-1.57.04.08-.86-.75-.83-.95-.05.02-.75.32-.07v-.5L7 5.57l-.41-.44L9.4 2.8v-.47l.05-.04h1.8l.02 1.4H12l.04-1.38 1.6.03-.03 1.35.72-.01.03-1.38 1.74.02-.02 1.39h.7l.05-1.38 1.87.01v3.99l-.68 2.85-.18.14-.02.69.98-.02v1.44h.56l.04-1.44 1.27.01.19.26-.01 1.14.5.01.03-1.33 1.02-.05.26.16-.02 1.24h.47l.04-1.4.91-.02.29.19.01 2.86v.01l-1.22 4.28 1.25 6.01-.52.3zm-14.62-.18h14.58l.37-.2-1.23-5.94 1.22-4.3-.01-2.74-.16-.11h-.69l-.04 1.42h-.82l.02-1.33-.12-.07-.8.04-.03 1.34-.86-.02v-1.25l-.1-.14h-1l-.04 1.43h-.91v-1.44l-1 .02.04-.96.2-.15.65-2.77V2.51L17 2.5l-.05 1.37H15.9l.02-1.39-1.38-.01-.03 1.37-1.08.02.03-1.35-1.24-.03-.05 1.36-1.08.01-.01-1.4h-1.5v.42L6.86 5.14l.19.2.3-.12.02.9-.32.07-.02.45.85.04.86.95-.08.73 1.52-.04.54 2.4.01 7.14-1.48 5.61z"/><path fill="#fff" d="M15.22 19.19v-.5h-1.67v.5h.78zm-3.45-2.48h1.67v-.5h-1.67zM17 19.2v-.5h-1.67v.5h.9zm.9.61v-.5h-1.68v.5H17zm-6.13-1.85h1.67v-.5h-1.67zm6.13.62v-.5h-1.68v.5H17zm-3.57 0v-.5h-1.67v.5h.78zm1.78 0v-.5h-1.67v.5h.78zm3.68-1.24h1.67v-.5H19.8zm2.57.62v-.5h-1.68v.5h.9zm-3.46-1.24h1.67v-.5H18.9zm1.67 2.48v-.5H18.9v.5h.9zm.9-.62v-.5h-1.68v.5h.9zM18 10.63h.54v.5H18zm-.9 4.84h1.68v-.5h-1.67zm1.68 3.72v-.5h-1.67v.5H18zM14.44 7.42h1.67v-.5h-1.67zm.9-.62H17v-.5h-1.68zm-3.57 8.67h1.67v-.5h-1.67zm.89-9.29h1.67v-.5h-1.67zm5.35-.5h.43v.5H18zm-.9 1.12h1.2l.11-.5h-1.3zm-.88.62h1.67v-.5h-1.67zm-2.68-.62h1.67v-.5h-1.67zm-1.78 4.96h1.67v-.51h-1.67zm.89-4.34h1.67v-.5h-1.67zm-.9 6.81h1.68v-.5h-1.67zm0-1.23h1.68v-.51h-1.67zm.9-1.86h1.67v-.51h-1.67zm0-2.48h1.67v-.5h-1.67zm0 1.24h1.67v-.51h-1.67zm7.02 8.67v-.5h-1.67v.5h.9zm-8.8-4.96h1.67v-.5h-1.68zm0 1.24h1.67v-.5h-1.68zm0-2.47h1.67v-.51h-1.68zm0 3.71h1.67v-.5h-1.68zm0-4.95h1.67v-.51h-1.68zm.89-1.86h1.67v-.5h-1.67zm-.9 8.05h1.68v-.5h-1.68zm.9-6.81h1.67V10h-1.67zm2.56 9.29v-.51h-1.67v.5h.78zm1.78 0v-.51h-1.67v.5h.78zm-.89.62v-.51h-1.67v.5h.78zm1.78 0v-.51h-1.67v.5h.9zm-6.13-.63h1.68v-.5h-1.68zm0-1.23h1.68v-.5h-1.68zm.9-10.53h1.67v-.5h-1.67zm1.67 12.39v-.51h-1.67v.5h.78zm7.13-9.91v-.3l-.04-.05h-.95v.35h.21zm-.89.11h-.1l-.02.5h.12zm-3.45 4.22h1.67v-.5h-1.67zM18 4.44h.43v.5H18zm-.11 7.43h-1.68v.5h1.68zm0 1.24h-1.68v.5h1.68zm-.78-7.55h1.32v-.5h-1.32zm1.67 6.2v-.16h-.24v-.35h-1.43v.5H18zm-5.24-6.2h1.67v-.5h-1.67zm2.68.62h1.67v-.5h-1.67zm-3.57-1.23h1.67v-.51h-1.67zm-1.79 1.23h1.68v-.5h-1.68zm.9-.62h1.67v-.5h-1.67zm1.67 1.24v-.5h-1.67v.5h.78zm1.9-1.24H17v-.5h-1.68zm-.9.62h1.67v-.5h-1.67zm-2.67 13h1.67v-.5h-1.67zM18 17.34h1.67v-.5H18zm5-.5h-1.43v.5h1.31v-.07zM14.45 9.9h1.67v-.51h-1.67zm4.46 8.05h1.67v-.5H18.9zm.9-7.32v.5h.8v-.5zm-4.47-6.81v.5h1.68v-.5h-.05v.06H15.8v-.06zm-4.88 5.57l.11.5h.2v-.5zm.43-5.69H11v-.5h-.13zm-.12 6.82h.9V10h-1.08l.12.5zm7.25-3.1h.15l.12-.5h-.27zm-1 1.86v-.5h-1.68v.5h.9zm.1-1.24h.9l.12-.5h-1.01zm0 1.24h.48v-.12l.2-.16.05-.23h-.72zm-.1 1.24V10h-1.68v.5h.9zm.55-.62l.02-.51h-1.35v.5H17zm-1.33-1.24h1.64l.03-.11v-.4h-1.67zm-1.79 2.48h1.67v-.51h-1.67zM9.87 22.9v-.5H9.5l-.14.5zm.9-15.48v-.5H9.08v.5h.78zm-1.68.12h.78v.5H9.1zm1.67 14.75v-.51h-1.1l-.13.5h.34zM9.1 4.95h1.67v-.51H9.1zm-.34 2.61l-.07.71h.3v-4.9L6.88 5.1l.15.14.34-.14v1l-.32.08v.36l.82.05zm.58 15.46l-.1.34 1.53.01v-.35zm.54-1.36v-.5h-.03l-.14.5zm.9-.61v-.51H10l-.14.5zm.88-3.1v-.5h-.9v.39l-.04.11h.05zM9.1 3.82h.78v.5H9.1zm2.56 16.6v-.5h-1.48l-.13.5h.72zm-.89-17.95H9.58h.3zm12.6 19.82h.43l-.1-.51h-.33zm-.9-1.13v.5h1.22l-.1-.5zm-9.8-8.78h1.67v-.51h-1.67zm4.46 4.33h1.67v-.5h-1.67zm1.67 1.24v-.5h-1.67v.5H18zm-.9-.62v-.5h-1.67v.5H17zm-1.66-1.24h1.67v-.5h-1.67zm-.12 1.24v-.5h-1.67v.5h.78zm-.89.62v-.5h-1.67v.5h.78zm1.78 0v-.5h-1.67v.5h.9zm-1.67-2.48h1.68v-.5h-1.68zM17 13v-.51h-1.67v.5h.9zm0-1.24v-.51h-1.67v.5h.9zm-2.56.62h1.67v-.51h-1.67zm3.46-1.24v-.51h-1.68v.5H17zm-3.46 2.47h1.67v-.5h-1.67zm.9-5.57H17v-.5h-1.68zm1.66 6.2v-.52h-1.67v.51h.9zm-2.56.61h1.67v-.5h-1.67zm-1.78 2.48h1.67v-.5h-1.67zm.89-5.57h1.67v-.51h-1.67zm.9 4.33h1.66v-.5h-1.67zm-.9-5.57h1.67V10h-1.67zm0-1.24h1.67v-.5h-1.67zm.9-.62h1.66v-.5h-1.67zm-.9-.62h1.67v-.5h-1.67zm1.78 8.67h1.68v-.5h-1.68zm-1.78-2.48h1.67v-.5h-1.67zm-.9-.62h1.68v-.5h-1.67zm0 2.48h1.68v-.5h-1.67zm0-1.24h1.68v-.5h-1.67zm.9.62h1.67v-.5h-1.67zm0 1.24h1.67v-.5h-1.67zm0-3.71h1.67v-.51h-1.67zm5-2.48v-.35l-1 .01v-.17h-.43v.5H18zM18 16.09h1.67v-.5H18zm-6.36-8.05v-.5H9.98v.5h.78zM9.1 6.3h.78v.5H9.1zm1.33 2.98h1.24v-.5H10.3zm2.13 13v-.5h-1.68v.5h.79zm-.9.62v-.5H9.98v.5h.78zM9.98 4.33h1.68v-.48l-.65.01v-.04H9.98zM9.1 6.17h1.67v-.5H9.1zm0-1.12h.78v.5H9.1zm6.13 17.84v-.5h-1.67v.5h.78zm1.78 0v-.5h-1.67v.5h.9zm.9-.61v-.51h-1.68v.5H17zm.89.61v-.5h-1.67v.5H18zm-4.46-.61v-.51h-1.67v.5h.78zm1.78 0v-.51h-1.67v.5h.78zm-2.67.61v-.5h-1.67v.5h.78zM11 3.1v-.51H9.98v.5h.78zm3.51.62h1.3l.02-.51h-1.3zm6.95 9.9v-.5H19.8v.5h.9zm-2.56.62h1.67v-.5H18.9zm0-1.23h1.67v-.51H18.9zm2.68 3.1h1.65l.02-.09v-.43h-1.67zm-.12-3.72v-.51H19.8v.5h.9zm-1.67 2.47h1.67v-.5H19.8zm.9.62h1.67v-.5h-1.68zm-9.7-13h-.12.13zm4.34.1v.52h.5v-.51zm3.46 17.86v-.51h-1.67v.5H18zM15.22 3.08v-.51h-.69v.5zm4.46 19.2v-.51h-1.67v.5h.9zM17 3.7h.9v-.5h-.92l-.02.5zm5.36 6.8v-.3l-.04-.01-.75.04v.28zM17 3.1v-.51l-.02.5zm5.36 8.67v-.51h-.81l-.01.34-.86-.02v.19h.9zm1 3.1h.22l.14-.52h-.36zm-1.78 8.16v.4l1.67.01v-.41zm-1.79 0v.4h1.67v-.4zm-8.91 0v.35l1.67.01v-.36zm7.13 0v.39h1.67v-.4zm-5.35 0v.36l1.67.01v-.37zm1.78 0v.37l1.67.01v-.38zm1.79 0v.38h1.67v-.38zm7.73.16l-.03-.16h-.57v.41h.44zm-.6-12.55v.5h.74v-.5zm-.9 3.1v.5h1.3l.14-.5zm.85-2.48l-.01.35h-.83v.16h1.63v-.51zm.66-1.07l-.63.01-.01.33h.77v-.25zm-.61 1.69v.5h.75v-.5zm0 1.24v.5h.57l.14-.5zm.75-.62h-1.64v.5h1.64v-.01zM9.3 3.09h.56v-.51H9.6v.27zM23.9 22.9l-.1-.5h-1.34v.5h.89zM10.17 8.23l.1.43h.48v-.5H9.1v.1zm11.4 6.62h1.67v-.5h-1.67zm.89.62h.93l.15-.5h-1.08zm.78 6.81v-.5h-1.67v.5h.89zm-1.79 0v-.5H19.8v.5h.9zm.9.62v-.5h-1.68v.5h.9zm1-7.27v-.05zm-2.68-1.4h1.68v-.5h-1.68zM9.1 3.7h1.67v-.5H9.18l-.09.07zm12.49 6.93v.5h.81l.01-.5zm-1 12.27v-.5H18.9v.5h.9zm2.67-10.52v-.51h-1.67v.5h.89zm0 1.23v-.5h-1.67v.5h.89zM20.68 13h1.68v-.51h-1.68zm1.79 3.2v.51h.58l.14-.5zM16.23 4.95h1.67v-.51h-1.67zm3.45 7.43v-.51h-1.67v.5h.9zm2.79 6.3v.5h.76l-.1-.5zM14.5 3.84l-.96.02v.46h1.67v-.5h-.71zm-1.85-.13h.69l.01-.51h-.7zm5.78-.63v-.5h-1.32v.5H18zm2.13 8.68v-.51h-1.02v.35h-.65v.16h.9zM18.01 3.2h.43v.5H18zm-.9 1.13h1.33v-.51h-1.32zm-4.9-1.25h1.15l.01-.5h-1.15zM9.97 5.56h1.68v-.5H9.98zm2.57 1.86v-.5h-1.68v.5h.79zM9.98 6.8h1.68v-.5H9.98zm2.57-3.1v-.5h-.35l-.01.5zm-1.68 4.96h1.68v-.5h-1.68zm2.57-4.33v-.47h-.1v-.04h-1.16v.03h-.41v.48h.78zm-2.56.62h1.67v-.51h-1.68zm11.48 15.48v-.51h-1.68v.5h.9zm.89-.63v-.5h-1.67v.5h.89zm-2.57-.61h1.68v-.5h-1.68zm2.44-.62l-.1-.5h-1.45v.5h.9zm-3.44 1.23v-.5h-1.67v.5h.9zm.9.63v-.51H18.9v.5h.9zm.88-.63v-.5H19.8v.5h.9zm1-2.36v.51H23l-.09-.5zm-4.45-2.59h1.67v-.5h-1.67zM17.1 13h1.68v-.51h-1.67zm2.57.61v-.5H18v.5h.9zm-2.56.62h1.67v-.5h-1.67zm3.56 2.48h1.68v-.5h-1.68zm-1.78-1.24h1.67v-.5H18.9zm.9.62h1.66v-.5H19.8zM14.43 4.95h1.67v-.51h-1.67zM17 21.66v-.5h-1.67v.5h.9zm-4.45-.61v-.51h-1.68v.5h.79zm3.56 0v-.51h-1.67v.5h.78zm-2.67.61v-.5h-1.67v.5h.78zm5.35 0v-.5h-1.67v.5H18zm-4.46-.61v-.51h-1.67v.5h.78zm.9.61v-.5h-1.68v.5h.78zm2.67-.61v-.51h-1.68v.5H17zm5.46-.51v.5h.2l-.08-.5zm-.9-.62v.5h1l-.1-.5zm.79 1.13v-.51h-1.67v.5h.89zm-.9.61v-.5h-1.67v.5h.9zm-1.78 0v-.5H18.9v.5h.9zm.9-.61v-.51h-1.68v.5h.9zm-1.79 0v-.51h-1.67v.5h.9zm-8.92-9.3h.9v-.5h-.93v.5zm.9 9.91v-.5H9.97v.5h.78zm-.9-8.66h.9v-.51h-.92v.5zm0 1.85v-.5h-.02v.5zm0-.62h.9v-.5h-.92v.5zm-.03-3.1h.03v-.5h-.03v.04zm.14-1.23h1.68v-.51h-1.68zm-.1 2.48v-.51h-.03v.5zm0 1.23v-.5h-.03v.5zm0 5.58h.89v-.5H10.5l-.13.5zm0-.62v-.5h-.09l-.14.5zm0-3.1h.89v-.5h-.92v.5zm0 4.33v-.5h-.43l-.13.5zm0-3.7v-.52h-.03v.51zm0 1.23v-.5h-.02v.5zm0-.62h.89v-.5h-.92v.5z"/><path fill="#000" d="M9.63 6.34h8.88l-.68 2.88h-7.59l-.16-.7-.46-.03V6.34z"/><path fill="#000" d="M17.9 9.31h-7.72l-.17-.7-.48-.04.01-2.32h9.08L17.9 9.3zm-7.59-.17h7.45l.64-2.71H9.72L9.7 8.41l.44.03.16.7z"/><path fill="#fff" d="M11.22 6.54c.01.02.03 2.5 0 2.51 0 .02-.06.02-.21.02h-.2V6.56c0-.02.02-.03.07-.03h.34zm1.57 0l.01.75v1.77c-.01.02-.4.02-.41 0V6.58c0-.04.01-.05.06-.05h.34zm1.7 1.26v1.27H14l-.01-.14V7.29l.01-.74c.01-.02.04-.03.25-.02h.25V7.8zm1.6-1.24v.93l.01.26.02.77c0 .44 0 .54-.02.55s-.06.02-.25.01l-.25-.01V7.8c0-1.17 0-1.24.02-1.26.03-.02.44-.02.47 0zm1.4.02c.01.01.02.58.02 1.25v1.23l-.03.01c-.04.02-.39.01-.4 0s-.04-2.32-.02-2.45v-.07h.35c.07 0 .08 0 .09.03zm-8.1.38c.02 0 .03.04.07.19l.03.12v.02c-.03 0-.29-.25-.31-.3-.02-.03-.02-.03.03-.04h.18zm8.85.2l-.05.25-.13.5c0 .06-.04.18-.05.27l-.05.2a8.8 8.8 0 0 1-.15.6c-.06.15-.07.11-.07-.34 0-.4 0-.41.04-.57a5.7 5.7 0 0 1 .17-.58 1 1 0 0 1 .2-.3c.07-.04.09-.05.09-.02zm-7.67.96v.94l-.14.01c-.13 0-.14 0-.16-.02-.04-.07-.03-.3.01-.85.03-.26.08-.55.15-.74.02-.08.14-.3.14-.28v.94zm6.26-.7c0 .24 0 .23-.13.22-.07 0-.1 0-.1-.02 0-.08.19-.44.22-.41v.21zm-4.68-.01c0 .22 0 .22-.13.22-.1 0-.1-.02-.1-.07.03-.1.18-.34.22-.34l.01.19zm1.58 0c0 .15 0 .2-.02.21l-.13.01c-.11 0-.12 0-.12-.03 0-.09.2-.4.25-.38 0 0 .02.08.02.2zm1.63-.16l.01.17v.18l-.01.04h-.12c-.12 0-.12 0-.13-.03 0-.07.19-.4.24-.4l.01.04zm-3.23.55c.02.03.03.2 0 .23 0 .02-.03.03-.16.03l-.17-.01c-.02-.01-.02-.02-.02-.04l.05-.2a.77.77 0 0 1 .3 0zm1.59.01v.25c-.02 0-.07.02-.2.02-.15 0-.18 0-.19-.03l.04-.2.03-.05h.15l.17.01zm3.1.01v.25a.77.77 0 0 1-.31-.02c-.02-.01-.02-.04 0-.12a.37.37 0 0 1 .04-.12.8.8 0 0 1 .27.01zm-1.47 0s.01.04 0 .14v.12h-.28c-.1 0-.1-.01-.1-.04 0-.05.04-.2.06-.22s.28-.02.32 0zm-3.32.41c.04 0 .08 0 .1.02l.01.1c.01.16.01.16-.21.16l-.2-.01a.53.53 0 0 1 0-.22c.02-.04.02-.04.1-.05h.2zm1.69.01v.25h-.47v-.08c.01-.14.03-.16.11-.17.09-.02.34-.01.36 0zm1.64.03v.24c0 .02-.25.01-.38 0-.1 0-.1 0-.07-.15 0-.04.02-.1.03-.1.02-.02.07-.02.22-.02h.2v.03zm1.46 0v.24h-.18c-.15 0-.18 0-.19-.02-.01-.02 0-.2.02-.24 0-.01.05-.02.18-.02h.18v.05zm-4.7.4c.02.01.02.06.02.19v.2c-.02.02-.04.02-.24.02-.2 0-.23 0-.23-.03 0-.1.01-.35.03-.38h.43zm1.58 0c.01 0 .02.06.02.2v.19c0 .01-.07.02-.26.02h-.26l.01-.18c.02-.27-.01-.24.25-.24l.24.01zm1.66.21c0 .18 0 .2-.02.2h-.46a.07.07 0 0 1-.04-.04c0-.05.02-.32.04-.34 0-.02.05-.02.24-.02h.23v.2zm1.46-.18l.01.19c0 .13 0 .16-.02.17a.96.96 0 0 1-.4 0 .6.6 0 0 1 0-.18c0-.21 0-.2.23-.2.13 0 .17 0 .18.02z"/><path fill="#000" d="M9.58 2.85v5.58l-1.11-.04.23-.83-.93-.72-.87-.03.05-.7.36-.12-.04-.67-.25.12-.2-.33 2.76-2.26z"/><path fill="#fff" d="M8.83 8.15c.11.1.16.16.15.17a.8.8 0 0 1-.33 0 1.2 1.2 0 0 1 0-.29l.02-.04.17.16zm-.22-1.26c.03 0 .09.06.26.22l.34.34.27.27.14.15.04.14.04.18.01.06c.02.06-.01.07-.12.07h-.1l-.12-.12-.14-.13-1.02-1a1.02 1.02 0 0 1-.14-.16l.03-.02h.51zm.68-.49l-.01.18c-.01.01-.32.02-1.1.02H7v-.15c0-.2 0-.2.07-.2h2.22v.15zm-1.7-1.08a14.36 14.36 0 0 0 0 .65h-.15l-.14.01v-.61l.04-.04.24-.2.01.2zm.54-.64c.02.04.01 1.27 0 1.28a1.09 1.09 0 0 1-.3 0 2.46 2.46 0 0 1-.01-.53v-.52c.02-.02.28-.24.3-.24l.02.01zm.54-.43v1.7l-.15.01h-.14V4.45l.07-.05.2-.16.02.01zm.62-.47v2.15c0 .02-.04.03-.19.03h-.17c-.03-.02-.04-1.83-.02-1.93.01-.03.02-.07.04-.08l.25-.21.06-.05.03.09zm-.01-.66c.01.14.01.14-.25.37A78.49 78.49 0 0 1 7.5 4.8l-.16.14c-.05.04-.1.1-.14.12l-.13.1a.23.23 0 0 1-.09.06c-.02 0-.1-.07-.1-.1l.22-.2.15-.13a8.59 8.59 0 0 0 .48-.42 3.58 3.58 0 0 0 .35-.3 14.27 14.27 0 0 1 .48-.4l.31-.28.4-.34v.07zm-.17 4.01c.1.12.16.16.17.14a.8.8 0 0 0 0-.32.98.98 0 0 0-.29 0c-.02 0-.04 0-.04.02s.07.08.16.16z"/><path fill="#000" d="M17.68 12.44h6.66l-.52 2.5-6.14.04v-2.54z"/><path fill="#fff" d="M22.47 14.32c0 .02-.04.24-.09.4l-.02.06h-.17a.7.7 0 0 1-.18 0c-.02-.02-.02-.04-.01-.08.01-.09.06-.29.08-.34s.04-.05.24-.05c.12-.02.15-.01.15.01zm-1.38.06l-.03.15c0 .04-.03.1-.04.14-.03.12-.03.12-.25.11h-.2v-.12l.1-.32.02-.04h.4v.09zm-1.38-.08c.02.04-.09.46-.12.47h-.39c-.02 0-.03-.02-.03-.04 0-.03.12-.4.14-.42.01-.02.05-.02.25-.02l.16.01zm2.86-.46c.02.01 0 .13-.03.22l-.02.07h-.34c-.01-.02.01-.11.07-.23l.04-.09.14.01.14.02zm-1.35-.03c.01.02-.05.28-.07.3 0 .02-.02.02-.04.02h-.33c-.02-.02-.02-.04 0-.11l.08-.16.04-.06h.15l.17.01zm-1.39.01c.01.02-.04.25-.06.3l-.16.01c-.24 0-.24 0-.15-.18.07-.16.07-.16.24-.16.1.01.13.02.13.03zm4.2-.5a3.85 3.85 0 0 1-.15.59l-.03.13-.05.15-.05.2-.11.37a.8.8 0 0 1-.27.02c-.06 0-.06-.02 0-.22.19-.55.38-.95.6-1.2.05-.07.07-.08.07-.04zm-4.08.01c-.01.1-.05.28-.07.3 0 .02-.02.03-.12.02-.11 0-.12 0-.11-.03 0-.04.06-.12.18-.24.1-.1.14-.11.12-.05zm1.4-.03c0 .01 0 .06-.02.1s-.02.1-.03.15l-.04.1c0 .01-.05.02-.13.02-.14 0-.15 0-.1-.09.05-.1.26-.32.31-.32l.01.04zm1.36 0c0 .08-.08.34-.1.35h-.22c-.02-.03.07-.17.2-.3.1-.1.13-.11.12-.04zm-4.15.01c0 .03-.02.14-.05.23l-.07.32-.06.2-.03.16-.11.45c-.03.1-.03.1-.2.1l-.12-.01v-.08c0-.14.11-.56.22-.82.09-.22.2-.39.32-.52.1-.1.11-.1.1-.03z"/><path fill="#fff" d="M20.48 12.5v.1l.01.05.15-.01.01-.16h1.27c.02.02.03.03.03.1v.08h.08l.08-.02v-.07l.03-.08c.03-.01.14-.02.6-.01h.57l.02.08c0 .09 0 .1.08.1l.07-.01v-.05l.01-.09.01-.03h.34c.25 0 .33 0 .34.02v.26c-.01.03-.01.03-.3.03h-.35c-.05.02-.05.02-.1.23l-.05.2-.02.08-.03.11-.12.5-.08.35-.05.21-.06.25-.01.05h-.43v-.04c0-.06.02-.15.1-.5l.12-.48a20.24 20.24 0 0 0 .2-.9c.01-.07.05-.07-.81-.04h-.11l-.01.05-.04.17-.13.57a40.8 40.8 0 0 1-.3 1.16h-.36c-.06 0-.07.04.17-.95l.14-.54c.1-.36.1-.42.06-.46-.02-.02-.07-.02-.44-.03-.32 0-.42 0-.44.02a.73.73 0 0 0-.06.23l-.06.23-.13.52-.05.22-.08.3-.06.29c-.05.19-.03.17-.24.17h-.21c-.04-.01-.04-.01.06-.43.1-.37.14-.58.15-.62l.03-.12a12.41 12.41 0 0 0 .16-.75c0-.05 0-.06-.04-.06h-.46c-.49 0-.46 0-.5.14l-.03.14-.07.27a25.83 25.83 0 0 1-.37 1.42c-.02.02-.33.02-.36 0-.03 0-.03-.03 0-.19.03-.07.06-.23.09-.35l.2-.83c.13-.55.14-.57.11-.6a3.2 3.2 0 0 0-.7-.04h-.2v-.03c-.03-.06-.03-.22 0-.23 0-.01.16-.02.55-.02H19v.05c.01.12.01.13.1.13.05 0 .06 0 .06-.04l.01-.09.01-.04h.22c.48-.02 1.08 0 1.08.01v.01z"/><path fill="#000" d="M12.19 23.63h4.9v-3.12c0-3.34-4.9-3.34-4.9 0v3.12z"/><path fill="#fff" d="M13.58 23.07a.94.94 0 0 0-.19.2l.05.01h2.44c.03 0 .02-.04-.08-.12l-.09-.1h-1.23l-.72-.01c-.11 0-.15 0-.18.02zm.33-.35c-.09.09-.11.12-.1.13l.83.01h.83c.01-.01-.01-.05-.1-.14l-.1-.1-1.26-.01-.1.11z"/><path fill="#fff" d="M15.83 22.91c.16.17.33.33.47.5-.02.05-.11.02-.16.03H13.2c-.08 0-.33.02-.18-.1.3-.3.6-.6.93-.9.12-.02.25 0 .38-.01h1.02l.47.48zm.98-2.3a49.44 49.44 0 0 1 0 2.8c0 .03-.27.03-.3.02a79.23 79.23 0 0 1 0-2.81.67.67 0 0 1 .3 0zm-4.03 0l.01 1.27v1.51c-.06.06-.17.04-.25.04-.12 0-.06-.15-.08-.22v-2.57c.03-.09.17-.04.23-.05.03 0 .07 0 .09.02zm3.96-.8c.04.14.07.29.08.42 0 .03-.01.05-.04.06-.1 0-.2.02-.28 0-.03-.11-.05-.33-.07-.5l.3-.03.01.05zm-3.86-.03c-.01.15-.05.31-.08.44 0 .02 0 .05-.02.06h-.27c-.03-.02-.03-.05-.03-.08.02-.15.01-.3.08-.42h.32zm1.95-.1c.28.06.49.33.49.61.02.2 0 .38 0 .58l-.01 1.3c-.03.1-.19.02-.27.05h-.96c-.08-.05-.03-.2-.04-.28v-1.77c0-.16.12-.3.24-.4a.63.63 0 0 1 .55-.1zm.1-1.47a2.22 2.22 0 0 1 1.67 1.23s-.24 0-.32.03c-.14-.05-.18-.25-.3-.34a1.85 1.85 0 0 0-1.94-.5c-.49.13-.83.5-1 .8-.1.05-.24.02-.35.02 0-.14.13-.26.2-.38a2.15 2.15 0 0 1 2.04-.86z"/><path fill="#000" d="M17.7 14.95a.09.09 0 0 1-.1-.08v-5.8a.09.09 0 0 1 .19 0v5.8c0 .04-.04.08-.1.08zm-4.68-4.32h.66v2.67h-.66v-2.67z"/><path fill="#fff" d="M13.48 12.45l-.01.77-.1.01c-.07 0-.08 0-.09-.03a9.07 9.07 0 0 1 .03-1.1c.02-.12.08-.34.12-.41.05-.1.05-.04.05.76z"/><path fill="#000" d="M15.69 10.63h.67v2.67h-.67v-2.67z"/><path fill="#fff" d="M16.15 12.45v.77l-.1.01c-.08 0-.08 0-.1-.03a9.07 9.07 0 0 1 .03-1.1c.03-.12.09-.34.13-.41.04-.1.05-.04.04.76z"/><path fill="#000" d="M19.93 18.2h.89v3.57h-.9v-3.56z"/><path fill="#fff" d="M20.37 18.88h.22v2.23h-.22v-2.23z"/></svg>