<svg version="1.1" xmlns="http://www.w3.org/2000/svg" viewBox="0 0 27 32"><path fill="#191a21" d="M26.63 18.88V0H0v18.88c0 8.33 13.11 13.06 13.11 13.06.12.09.32.02.32.02 14.2-5.57 13.2-13.08 13.2-13.08z"/><path fill="#fff" d="M13.28 31.01S.95 26.44.95 18.9V.96h24.74v17.93s.6 7.22-12.41 12.12z"/><path fill="#191a21" d="M4.27 21.54l.3-.24c.09-.07.8.12.73.13-.07.02.51 1.1 1.84 1.14 0 0-.08 1.28 1.15 2.21 0 0 .57.47 1.25.18 0 0 .96-.84-.75-1.47 0 0 1.93-.64 1.98 1.25 0 0-.06 1.1-1.62 1.3 0 0-1.12.16-2.09-.62L5.8 24.2s-.43-.44-.63-.49c0 0-.22-.06-.13-.28 0 0 .95.04.68-.37l-1.44-1.51zM8.5 6.34s.2.03.15.23c0 0-.01.06-.17.03 0 0-.12-.06-.1-.2 0 0 .05-.07.12-.06zm.3.26s-.06.19-.3.14c0 0-.18 0-.24-.23 0 0-.15-.34.26-.31 0 0 .32.06.27.4zm3.42 18.65c.3-.1 1.46-.3 1.46-.3-1.38 1.55-.16 2.56-.16 2.56a6.95 6.95 0 0 1 1.02-1.7c.05.24.22.72.22.72.21.48.71.62.71.62-.23-2.28.84-2.2.84-2.2 1.3 0 1.59.83 1.59.83.27-.46.17-1.08.17-1.08-.19-.96-1.25-1.02-1.25-1.02.26-.56 1.5-.83 1.5-.83-1.32-.76-2.44-.04-2.44-.04l-.25-1.13c.05-.02.08-.12.08-.12.06-.25-.17-.75-.26-1.15-.08-.4.44-.27.44-.27.7.1.62 1.22.62 1.22.76-.3.62-1.46.62-1.46-.05-.52-.53-1.12-.53-1.12-.19-.36.34-.35.34-.35.8 0 1.06.9 1.06.9.3.91-.51 2.07-.51 2.07 1.96-.4 1.44-2.69 1.44-2.69-.1-.32.3-.22.3-.22 1 .22.92 2.53.92 2.53 1.15-1.22.83-2.76.42-3.2s-.48-.7-.48-.7c-.2-.48.33-.28.33-.28 1.55.96 1.18 2.47 1.18 2.47.75-.8.56-2.07.56-2.07-.3-1.51-1.67-1.5-1.67-1.5-.6 0-.56-.3-.56-.3-.02-.36.88-.34.88-.34 1.61-.08 1.55 1.53 1.55 1.53 1.08-1 .59-2.56.59-2.56-.3-1.22-1.86-1.26-2.33-.93-.43.3-.6.17-.6.17-.15-.29.17-.58.17-.58 1.46-1.25 2.95.59 2.95.59a1.39 1.39 0 0 0-.57-1.75c-.42-.23-.39-.49-.39-.49-.04-.24.73-.69.73-.69-.71-.53-1.63-.29-1.63-.29-1.78.43-2.28 2.1-2.48 2.61-.08.2-.1.24-.16.26-.03 0-.14-.05-.06-.28.1-.32.03-1.14.03-1.14 6.25-4.78 1.35-7.67 1.35-7.67.13.16 1.41 2.9-.89 4.1-2.3 1.2-3.02 2.8-3.02 2.8-1.12-1.05-.3-2.07-.3-2.07.87-1.19 2.4-.6 2.4-.6 0-1.08-.94-1.55-.94-1.55-1.36-.75-2.77.42-2.77.42-2.31 1.76.04 5.27.04 5.27.3.28.04.37.04.37-.61.21-1.78-.33-1.78-.33-.76-.43-.13-.88-.13-.88.34-.3.43-.8.43-.8-.38.24-1.1.2-1.1.2-.5-.03-.02-.3-.02-.3.72-.33.76-1.2.76-1.2-.15.21-.75.44-.75.44-.6.2-.74-.15-.74-.15-.17-.2.47-.7.47-.7.7-.64.56-1.25.56-1.25-1.16 1.19-1.69.2-1.69.2-.46-.81.92-1.3.92-1.3 1.75-.67 2.64-3.33 2.64-3.33-.58.56-2.57 1.03-2.57 1.03-.03-.24.5-.87.5-.87-.89-.06-1.82.67-1.82.67-.1-.23.1-.75.1-.75-.95.04-1.86.85-1.86.85l-.02-.02c-.14-.18.04-.77.04-.77-1.1.5-1.7 2.45-1.7 2.45-2.11.34-2.03 2.02-2.03 2.02C6.32 6.73 7 7.33 7 7.33c.63.48-.07.75-.07.75-.69.2-1.33 0-1.33 0 .04.44.4.6.96.9.56.3.3.63.3.63-.15.2-.13.49-.13.49.18.6.43.58.43.58l.37.06c.46.1.29.4.29.4-.66.65-.8 1.15-.8 1.15-.83 2.14.54 3.14.81 3.35.28.2.7.67.7.67.44.43.56 1.38.56 1.38.16.82-.06 1.12-.06 1.12-.27.2-.65-.03-.65-.03-.6-.28-1.07-.74-1.07-.74-.63-.89-.57-.7-.5-1.88.1-1.76-.7-2.08-.7-2.08-1.52-.48-1.5.68-1.5.68.82-.2.71.59.71.59-.52-.65-1.43-.41-1.43-.41-.89.4-.68 1.33-.68 1.33 1.3-.5 1.42.53 1.42.53-1.19.52-1.04 1.88-1.04 1.88.02.34.18.43.18.43.06-.59.67-.94.67-.94 1.08-.52 1.55.32 1.55.32.48.72-.68 1.46-.68 1.46l-.02.13s.51.02.67.19l.23-.06s.33-.03.63-.2c.38-.2.41-.21.59-.18 0 0 .37.11.33.5 0 0-.01.19-.2.5 0 0 .28.1.46-.04 0 0 .17-.14.22-.25 0 0 .16-.32.44-.1l.9.66s.39.3.84.06c0 0 .38-.22.44-.38l.02-.12s.02-.03.06-.05c0 0 .41-.28.38-.64 0 0 .02-.3-.07-.43-.08-.12-.05-.27-.05-.27l.01-.13s-.04-.19.37-.04c0 0 1.04.57 1.87 1.17 0 0 .3.27.3.47 0 0-.04.2.12.27l.54.56s.19.2.2.45c0 0 .21.94.17 1.9 0 0-2.47-.14-2.53 1.02z"/><path fill="#e12824" d="M4.67 21.7s0-.2.1-.2l.32.02s.41.72 1.38 1.26c0 0-.07.25-.56.28 0 0-.58-.8-1.24-1.35zm10.1 0s.33-.2.71-.02l.26 1.45s.82-.55 1.88-.29c0 0-1.2.6-1.15.98 0 0 1.2.22 1.37.72 0 0 .1.37.04.64 0 0-.83-.44-1.34-.45 0 0-.55-.06-.76.24 0 0-.67.91-.62 1.53 0 0-.58-.4-.19-1.26 0 0-1.21.9-1.4 1.73 0 0-.56-.5-.04-1.36 0 0 .46-.65.9-.9 0 0-1.11-.1-1.93.28 0 0 .07-.54.51-.65 0 0 1.57-.29 2.5-.15 0 0-.17-.26-.46-.32 0 0-.07-1.98-.27-2.18zM3.9 18.4s-.08-1.05.92-1.41c0 0 .97-.45 1.83.41 0 0 .23.3.3.55s1.1 1.18 2.29 1.3l1.26 1.34s.22.23.02.34c0 0-.28.27-.78-.03l-.82-.6s-.53-.29-.88.14c0 0-.03-.73-.57-.77 0 0-.3.01-.6.17s-.67.2-1.02.07c0 0 .64-.5.43-1.36 0 0-.37-.87-1.37-.71 0 0-.55.1-1.01.55zm1.05-1.66s-.4-.9-1.4-.85c0 0-.2-.53.44-.72 0 0 1.07-.34 1.63 1.15 0 0 .26-1.31-.6-1.94 0 0 .46-.43 1.13-.02 0 0 .87.43.36 2.54 0 0-.74-.3-1.56-.16zm3.22-7.8s.37-.07.4.39c0 0-.03.55-.54.76 0 0-.43.3-.7-.01 0 0-.33-.4.22-.91 0 0 .46-.25.62-.24zM5.1 7.38s.08-.77 1.11-1.23c0 0 .78-.35 1.3-.02 0 0 .68.33.75 1.09 0 0 .13.78-.52 1.2 0 0-.63.33-1.24.09 0 0 .66-.06.96-.59 0 0 .26-.6-.5-.84 0 0-.85-.38-1.86.3zm2.38-2.33s.35-.97.63-1.1c0 0 .02.78.2.84 0 0 .8-1.03 1.65-1.08 0 0-.1.68.02.89 0 0 1.2-.9 1.55-.88 0 0-.5.9-.39 1.05 0 0 .93-.47 1.18-.49.25-.02.7-.15.76-.2 0 0-.58 1.2-.9 1.37 0 0-.76.58-1.37.76 0 0-.16.12-.41.05 0 0-1.3-.72-1.56-.81-.27-.1-1.17-.25-1.36-.4z"/></svg>