<svg version="1.1" xmlns="http://www.w3.org/2000/svg" viewBox="0 0 29 32"><path fill="#078930" d="M.35.41h27.77v18.3c0 8.2-7.9 12.94-13.89 12.94C7.61 31.65.35 26.92.35 18.71V.41z"/><path fill="#000" d="M14.23 31.81a15.1 15.1 0 0 1-9.53-3.43 12.62 12.62 0 0 1-3.26-4.11A12.57 12.57 0 0 1 .19 18.7V.25h28.09v18.46c0 1.98-.46 3.85-1.35 5.56a13.2 13.2 0 0 1-3.4 4.11 15.29 15.29 0 0 1-9.3 3.43zM.51.57V18.7c0 8 6.98 12.79 13.72 12.79 5.76 0 13.73-4.45 13.73-12.79V.57H.5z"/><path fill="#fff" d="M2.24 25.34c1.58.95 4.1-.95 5.37-.95s2.2.95 3.47.95 1.89-.95 3.15-.95 2.21.95 3.47.95 2.21-.95 3.48-.95 1.89.95 3.15.95 1.5-.35 2.21-.63c-.66.97-1.92 2.7-2.52 2.84-1.27 0-1.58-.95-2.84-.95s-2.21.95-3.48.95-2.2-.95-3.47-.95c-1.26 0-1.89.95-3.15.95s-2.21-.95-3.47-.95-1.58.95-2.84.95c-1.1.08-1.78-1.33-2.53-2.2z"/><path fill="#000" d="M4.67 27.65c-.83 0-1.42-.8-1.98-1.57-.18-.24-.34-.47-.52-.68-.03-.03-.03-.08 0-.12a.09.09 0 0 1 .12-.02c.97.59 2.33.04 3.52-.43a5.68 5.68 0 0 1 1.8-.52c.65 0 1.21.24 1.77.48s1.09.46 1.7.46c.6 0 1.06-.23 1.53-.46.48-.24.97-.48 1.62-.48.65 0 1.22.24 1.78.48s1.08.46 1.7.46 1.14-.23 1.7-.47c.54-.23 1.12-.48 1.77-.48.65 0 1.14.25 1.62.5s.93.45 1.53.45c.9 0 1.27-.18 1.68-.39.15-.08.31-.16.5-.23.04-.02.08 0 .1.03.03.03.03.07.02.11-1.24 1.8-2.11 2.77-2.59 2.88h-.01c-.66 0-1.08-.25-1.48-.49-.39-.23-.76-.46-1.37-.46-.6 0-1.14.23-1.7.47-.54.23-1.12.48-1.77.48s-1.22-.25-1.77-.48c-.56-.24-1.09-.47-1.7-.47-.6 0-1.06.23-1.53.46-.48.24-.97.5-1.63.5-.65 0-1.21-.26-1.77-.49-.56-.24-1.09-.47-1.7-.47-.6 0-.98.22-1.37.46-.4.24-.8.5-1.46.5-.05-.02-.08 0-.1 0zm-2.1-2.06l.27.38c.56.76 1.14 1.55 1.92 1.49.61 0 .98-.23 1.38-.47.4-.23.81-.48 1.47-.48.65 0 1.21.24 1.77.48s1.09.47 1.7.47c.6 0 1.06-.23 1.53-.47.48-.23.97-.48 1.63-.48.65 0 1.21.24 1.77.48s1.08.47 1.7.47 1.14-.23 1.7-.47c.54-.23 1.12-.48 1.77-.48.66 0 1.07.24 1.47.48.4.24.76.46 1.36.47.4-.1 1.2-1 2.27-2.53l-.18.09c-.41.21-.81.42-1.76.42-.65 0-1.14-.25-1.62-.49s-.93-.46-1.53-.46a4.2 4.2 0 0 0-1.7.47c-.55.23-1.13.48-1.78.48s-1.21-.25-1.77-.48c-.56-.24-1.09-.47-1.7-.47-.6 0-1.06.23-1.53.46-.48.24-.97.49-1.62.49-.65 0-1.22-.25-1.78-.48-.56-.24-1.08-.47-1.7-.47-.43 0-1.06.25-1.72.51-1.1.44-2.33.92-3.33.6z"/><path fill="#fff" d="M22.34 13.57a8.1 8.1 0 1 1-16.21 0 8.1 8.1 0 0 1 16.21 0z"/><path fill="#000" d="M14.23 21.77a8.21 8.21 0 1 1 .02-16.42 8.21 8.21 0 0 1-.02 16.42zm0-16.22a8.03 8.03 0 0 0 0 16.04 8.03 8.03 0 0 0 0-16.04z"/><path fill="#000" d="M14.35 14.26a.79.79 0 1 1 0-1.57.79.79 0 0 1 0 1.57zm0-1.38c-.33 0-.6.27-.6.6s.27.6.6.6a.6.6 0 1 0 0-1.2z"/><path fill="#000" d="M14.4 18.94a.99.99 0 0 1 .38-.5c.14-.11.07-.35 0-.5-.12-.27.55-.33.56-.58 0-.44-.19-.56-.31-.82 0 .26 0 .5-.08.55-.12.08-.3.02-.36.27v-3.15h-.38v3.15c-.07-.25-.23-.27-.32-.33-.1-.08-.06-.24-.13-.49-.12.25-.31.38-.31.82.04.27.76.37.57.57-.12.13-.13.38 0 .5s.31.2.38.51z"/><path fill="#fff" d="M9.86 6.78a2.35 2.35 0 0 0-1.64-.75 2.27 2.27 0 0 0-2.34 2.21 2.3 2.3 0 0 0 1.01 1.97z"/><path fill="#000" d="M6.84 10.28a2.4 2.4 0 0 1-1.06-2.05 2.35 2.35 0 0 1 2.44-2.3c.65.02 1.25.3 1.7.78l-.13.13c-.42-.44-.98-.7-1.58-.72a2.17 2.17 0 0 0-2.24 2.12c-.02.75.35 1.46.97 1.89l-.1.15z"/><path fill="#078930" d="M9.85 6.79A2.27 2.27 0 0 1 6.9 10.2a7.76 7.76 0 0 1 2.96-3.42z"/><path fill="#000" d="M8.15 10.67h-.07a2.41 2.41 0 0 1-1.23-.39l-.07-.04.03-.08a7.9 7.9 0 0 1 3-3.46l.22-.13-.07.2a2.37 2.37 0 0 1-1.8 3.9zm-1.13-.5c.33.19.7.3 1.07.3a2.18 2.18 0 0 0 1.75-3.56 7.7 7.7 0 0 0-2.82 3.26z"/><path fill="#fff" d="M18.8 6.87a2.4 2.4 0 0 1 1.67-.7 2.27 2.27 0 0 1 2.27 2.28 2.3 2.3 0 0 1-1.07 1.94z"/><path fill="#000" d="M21.73 10.46l-.1-.16a2.18 2.18 0 0 0-1.15-4.04c-.6 0-1.17.24-1.6.67l-.13-.13a2.43 2.43 0 0 1 1.72-.73 2.38 2.38 0 1 1 1.26 4.39z"/><path fill="#078930" d="M18.81 6.88c-.37.42-.6.97-.6 1.57a2.27 2.27 0 0 0 3.46 1.94 7.76 7.76 0 0 0-2.86-3.5z"/><path fill="#000" d="M20.47 10.81a2.37 2.37 0 0 1-1.76-3.95l-.07-.2.23.14a7.9 7.9 0 0 1 2.89 3.54l.03.08-.07.04c-.38.23-.8.35-1.24.35zm-1.64-3.8a2.18 2.18 0 0 0 2.73 3.34A7.63 7.63 0 0 0 18.82 7z"/><path fill="#fff" d="M19.92 19.36c.33.5.48 1.12.36 1.76a2.27 2.27 0 0 1-4.36.37z"/><path fill="#000" d="M18.05 23.05a2.4 2.4 0 0 1-2.22-1.52l.18-.07a2.18 2.18 0 0 0 4.19-.35c.1-.59-.02-1.2-.36-1.7l.16-.1c.37.55.5 1.2.38 1.84a2.37 2.37 0 0 1-2.32 1.9z"/><path fill="#078930" d="M19.9 19.36a2.27 2.27 0 0 0-3.99 2.13 7.76 7.76 0 0 0 4-2.13z"/><path fill="#000" d="M15.86 21.6l-.03-.08a2.35 2.35 0 0 1 .9-2.8 2.35 2.35 0 0 1 1.78-.35c.59.11 1.1.45 1.47.94l-.06.04.05.08a7.87 7.87 0 0 1-4.03 2.16h-.08zm2.19-3.08a2.17 2.17 0 0 0-2.13 1.76c-.08.36-.05.74.06 1.1a7.72 7.72 0 0 0 3.8-2.02 2.25 2.25 0 0 0-1.73-.84z"/><path fill="#fff" d="M16.71 5.83c.08-.6-.07-1.23-.47-1.74a2.24 2.24 0 0 0-3.18-.4 2.3 2.3 0 0 0-.88 2.02z"/><path fill="#000" d="M16.8 5.84l-.19-.02a2.18 2.18 0 1 0-4.35-.11h-.18a2.36 2.36 0 0 1 4.23-1.7c.4.53.57 1.18.49 1.83z"/><path fill="#078930" d="M16.7 5.83c-.1.55-.4 1.07-.87 1.44a2.27 2.27 0 0 1-3.65-1.56 7.76 7.76 0 0 1 4.52.12z"/><path fill="#000" d="M14.45 7.84c-.1 0-.2 0-.3-.02a2.35 2.35 0 0 1-2.06-2.1v-.08l.07-.02a7.9 7.9 0 0 1 4.57.12l.27.09-.22.07a2.37 2.37 0 0 1-2.33 1.94zM12.3 5.78c.06.38.2.73.44 1.02a2.17 2.17 0 0 0 3.05.4c.42-.33.7-.78.82-1.3a7.7 7.7 0 0 0-4.31-.12z"/><path fill="#fff" d="M21.45 17.31a2.29 2.29 0 0 0 2.72-3.25 2.3 2.3 0 0 0-1.86-1.2z"/><path fill="#000" d="M22.15 17.51c-.25 0-.49-.03-.73-.1l.06-.19a2.18 2.18 0 1 0 .83-4.27l.02-.18a2.37 2.37 0 1 1-.18 4.74z"/><path fill="#078930" d="M21.45 17.3a2.3 2.3 0 0 1-1.28-1.1 2.27 2.27 0 0 1 2.14-3.34 7.76 7.76 0 0 1-.86 4.44z"/><path fill="#000" d="M21.41 17.39a2.4 2.4 0 0 1-1.33-1.14 2.37 2.37 0 0 1 2.23-3.48h.08l.01.09a7.91 7.91 0 0 1-.87 4.48l-.1-.02-.02.07zm.8-4.43a2.18 2.18 0 0 0-.8 4.23 7.67 7.67 0 0 0 .8-4.23z"/><path fill="#fff" d="M6.2 12.82c-.6.05-1.2.32-1.61.81A2.27 2.27 0 0 0 7 17.29z"/><path fill="#000" d="M6.33 17.48a2.38 2.38 0 0 1-.14-4.75l.01.18c-.6.05-1.15.33-1.54.79a2.16 2.16 0 0 0 .24 3.07c.58.49 1.36.64 2.08.43l.06.17c-.24.07-.48.11-.71.11z"/><path fill="#078930" d="M6.2 12.84a2.27 2.27 0 0 1 .8 4.45 7.76 7.76 0 0 1-.81-4.45z"/><path fill="#000" d="M6.96 17.39l-.04-.07a7.9 7.9 0 0 1-.82-4.5l.04-.28.11.2a2.37 2.37 0 0 1 .8 4.63l-.09.02zm-.67-4.46a7.68 7.68 0 0 0 .77 4.23 2.18 2.18 0 0 0-.77-4.23z"/><path fill="#fff" d="M8.86 19.63a2.38 2.38 0 0 0-.28 1.78 2.27 2.27 0 0 0 2.75 1.66 2.3 2.3 0 0 0 1.63-1.5z"/><path fill="#000" d="M10.79 23.23a2.37 2.37 0 0 1-2.3-1.8 2.43 2.43 0 0 1 .3-1.85l.15.1a2.25 2.25 0 0 0-.26 1.7 2.18 2.18 0 0 0 4.2.16l.17.06a2.4 2.4 0 0 1-2.26 1.63z"/><path fill="#078930" d="M8.87 19.63c.32-.46.8-.82 1.38-.97a2.27 2.27 0 0 1 2.7 2.9 7.75 7.75 0 0 1-4.08-1.93z"/><path fill="#000" d="M13.02 21.67l-.08-.01A7.9 7.9 0 0 1 8.8 19.7l-.18-.16h.2a2.37 2.37 0 0 1 4.23 2.06l-.04.07zM9 19.61a7.68 7.68 0 0 0 3.88 1.85A2.18 2.18 0 0 0 9 19.62zM14.4 8c.12.3.26.41.38.5.14.1.07.34 0 .5-.12.26.55.32.56.57 0 .44-.19.57-.31.82 0-.25 0-.5-.08-.55-.12-.08-.3-.02-.36-.27v3.16h-.38V9.57c-.07.25-.23.28-.32.33-.1.08-.06.24-.13.49-.12-.25-.31-.38-.31-.82.04-.26.76-.37.57-.57-.12-.13-.13-.38 0-.5s.31-.2.38-.5zm5.42 5.5a.99.99 0 0 1-.5-.39c-.1-.14-.34-.06-.5 0-.26.12-.32-.55-.57-.56-.45 0-.57.19-.82.31.25 0 .5 0 .55.09.07.1.01.3.27.36h-3.16v.37h3.16c-.26.07-.28.23-.34.32-.07.1-.23.06-.48.13.25.12.37.31.82.31.26-.04.36-.75.56-.57.14.12.38.13.5 0s.2-.31.51-.37zm-10.95 0a.99.99 0 0 0 .5-.39c.11-.14.34-.06.5 0 .27.12.32-.55.58-.56.44 0 .56.19.82.31-.25 0-.5 0-.55.09-.08.1-.02.3-.27.36h3.15v.37h-3.15c.25.07.28.23.33.32.08.1.24.06.49.13-.25.12-.38.31-.82.31-.27-.04-.37-.75-.57-.57-.13.12-.38.13-.5 0s-.2-.31-.51-.37zm1.75 3.98c.3-.14.48-.12.62-.1.18.02.28-.2.35-.37.1-.27.62.15.8-.02.3-.32.25-.54.33-.81-.17.18-.34.35-.43.34-.13-.03-.23-.2-.45-.05l2.17-2.3-.28-.25-2.17 2.29c.13-.23.03-.36 0-.46-.03-.13.12-.21.24-.44-.26.1-.49.06-.8.38-.14.22.31.79.03.8-.18.02-.36.2-.35.37.01.18.1.35-.06.63zm7.53-7.94a.98.98 0 0 0-.07.62c.03.18-.19.3-.35.37-.26.11.18.61.02.8-.3.32-.53.28-.8.38.18-.18.34-.37.32-.46-.03-.13-.2-.22-.08-.44l-2.17 2.29-.28-.26 2.18-2.3c-.23.15-.36.05-.47.03-.13-.02-.2.13-.42.27.08-.27.03-.5.34-.82.21-.16.8.26.8-.02 0-.17.17-.36.35-.36.18 0 .36.08.63-.1zm.15 7.72c-.15-.3-.12-.48-.11-.62.02-.18-.2-.29-.37-.35-.26-.1.16-.63-.01-.8-.33-.3-.55-.25-.82-.34.18.18.35.35.34.44-.02.13-.19.22-.05.45L15 13.86l-.26.28 2.3 2.17c-.23-.12-.37-.02-.47 0-.12.04-.2-.11-.43-.24.1.27.05.5.38.8.22.15.78-.3.8-.02.01.18.19.35.36.35.18-.02.36-.11.63.06zm-7.95-7.53c.31.13.48.1.62.07.18-.03.3.19.37.35.11.26.6-.18.8-.02.32.3.28.53.38.8-.19-.18-.37-.34-.46-.32-.13.03-.22.2-.45.08l2.3 2.17-.26.27-2.29-2.17c.14.22.05.36.03.46-.03.13.12.2.26.42-.27-.08-.49-.03-.81-.34-.17-.21.26-.8-.02-.8-.18 0-.36-.17-.37-.34 0-.19.09-.37-.1-.63z"/></svg>