<svg version="1.1" xmlns="http://www.w3.org/2000/svg" viewBox="0 0 28 32"><path fill="#fff" d="M.4.4h27.13v1.03H.4V.4z"/><path fill="#000" d="M27.52 1.53H.41a.1.1 0 0 1-.1-.1V.4C.3.36.34.3.4.3h27.11c.06 0 .1.04.1.1v1.02a.1.1 0 0 1-.1.1zM.51 1.33h26.91V.5H.51v.81z"/><path fill="#fff" d="M13.97 1.43l13.6 17.72-.04 1.6L13.97 3.12.4 20.75v-1.7L13.97 1.43z"/><path fill="#da121a" d="M13.97 3.12l13.55 17.63c-1.01 6.44-7.11 10.84-13.55 10.84S2.1 27.88.4 20.75L13.97 3.12z"/><path fill="#000" d="M13.97 31.7c-3.28 0-6.26-.97-8.63-2.78A14.18 14.18 0 0 1 .3 20.77v-.04l.02-.04L13.96 2.95l13.67 17.77v.04a12.52 12.52 0 0 1-4.79 7.9 14.54 14.54 0 0 1-8.88 3.04zM.5 20.77c1.63 6.71 6.65 10.72 13.46 10.72 6.69 0 12.46-4.6 13.45-10.71L13.97 3.27.5 20.77z"/><path fill="#0f47af" d="M13.97 1.43H.4v17.62L13.97 1.43z"/><path fill="#000" d="M.3 19.35V1.32h13.87L.3 19.36zM.5 1.53v17.22L13.77 1.54H.51z"/><path fill="#0f47af" d="M13.97 1.43h13.55v17.62L13.97 1.43z"/><path fill="#000" d="M27.63 19.35L13.76 1.32h13.87v18.03zM14.17 1.53l13.25 17.22V1.54H14.17z"/><path fill="#fff" d="M2.78 20.07h22.37s-6.62 3.42-7.12 3.73-.55.72-.33 1.02c.21.29 1.35 1.35 1.35 1.35v1.5h-1.42l-1.36-1.5-1.5 1.5h-1.62l-1.35-1.5-1.36 1.5H9.02v-1.5l1.22-1.35c.32-.35.38-.65-.34-1.02l-7.12-3.73z"/><path fill="#000" d="M19.05 27.77h-1.42a.11.11 0 0 1-.08-.04l-1.28-1.4-1.42 1.4a.1.1 0 0 1-.07.04h-1.63a.11.11 0 0 1-.07-.04l-1.28-1.4-1.28 1.4a.1.1 0 0 1-.08.04H9.02a.1.1 0 0 1-.1-.1v-1.5c0-.03 0-.05.02-.07l1.22-1.35c.16-.17.22-.3.2-.41-.03-.14-.2-.3-.51-.45l-7.12-3.73c-.04-.02-.06-.07-.05-.12a.1.1 0 0 1 .1-.07h22.37c.05 0 .09.03.1.07.02.05-.01.1-.05.12-.07.03-6.63 3.42-7.11 3.72-.23.14-.37.32-.4.5-.03.13 0 .26.09.37.2.27 1.33 1.33 1.34 1.34a.1.1 0 0 1 .03.07v1.5a.1.1 0 0 1-.1.1zm-1.38-.2h1.28V26.2a22.43 22.43 0 0 1-1.34-1.33.68.68 0 0 1-.12-.53c.03-.17.14-.42.49-.64.43-.27 5.34-2.8 6.75-3.54H3.2l6.76 3.54c.38.2.57.39.61.6.04.22-.1.43-.25.57L9.13 26.2v1.35h1.28l1.32-1.46c.05-.04.12-.04.15 0l1.33 1.46h1.54l1.47-1.46a.1.1 0 0 1 .07-.03c.03 0 .05.02.07.04l1.33 1.45z"/><path fill="#fff" d="M10.13 17.49c.26-.3 5.35-5.75 5.35-5.75l-1.06-1 1-1.14 1 .94.44-.38.64.62-.3.51.62.58.3 1.26-1.46-.27-.52-.5-5.35 5.78c-.32.38-.92-.36-.66-.65z"/><path fill="#000" d="M10.59 18.36a.58.58 0 0 1-.36-.15c-.24-.21-.37-.57-.18-.79.24-.29 4.66-5 5.3-5.68l-1-.93a.1.1 0 0 1 0-.14l1-1.14c.01-.02.04-.03.07-.03s.05 0 .07.03l.93.88.37-.32c.05-.03.1-.03.14 0l.64.62a.1.1 0 0 1 .02.13l-.25.44.55.53.03.04.3 1.26a.1.1 0 0 1-.02.1c-.02.02-.06.03-.1.02l-1.46-.27a.23.23 0 0 1-.05-.03l-.45-.42-5.28 5.7a.3.3 0 0 1-.27.15zm-.39-.8c-.1.11.01.35.17.5.06.05.23.17.35.04l5.35-5.79c.02-.02.04-.03.07-.03s.05 0 .07.03l.5.47L18 13l-.27-1.08-.59-.56a.1.1 0 0 1-.02-.12l.25-.44-.51-.5-.37.32a.1.1 0 0 1-.14-.01l-.91-.87-.87.98 1 .94a.1.1 0 0 1 0 .14c-.05.05-5.1 5.45-5.35 5.74z"/><path fill="#fff" d="M17.15 18.24l-.44.47-4.23-4.27c-.3-.28-.37-.95-.34-1.4l.2-1.26c.03-.27-.15-.52-.33-.74l-.99-1.1.53-.5 1.3 1.5c.2.28-.07 1.4-.1 2.09-.03.53.15.88.35 1.08l4.05 4.13z"/><path fill="#000" d="M16.7 18.8a.15.15 0 0 1-.07-.02l-4.22-4.26c-.33-.3-.41-.98-.38-1.48l.2-1.27c.03-.23-.13-.45-.3-.66l-.99-1.09a.1.1 0 0 1 0-.14l.53-.5.07-.02c.02 0 .06.01.08.03l1.3 1.5c.16.2.11.66 0 1.38-.03.27-.07.55-.08.78-.03.57.2.87.33 1l4.05 4.13a.1.1 0 0 1 0 .14l-.45.47a.16.16 0 0 1-.06.02zm-4.46-5.74c-.03.47.06 1.07.3 1.31l4.17 4.2.3-.32-3.98-4.06a1.47 1.47 0 0 1-.39-1.16c.02-.24.05-.53.1-.8.05-.47.13-1.06.03-1.21L11.54 9.6l-.37.36.92 1.02c.2.24.38.5.36.81v.01l-.21 1.26z"/><path fill="#fff" d="M9.77 11.13l.45-.42 1.17 1.22c.2.2 1.5.16 2.01.15.34 0 .75.58.99.82l-.44.46c-.32-.24-.45-.62-.94-.62h-1.56c-.38 0-1.68-1.61-1.68-1.61z"/><path fill="#000" d="M13.95 13.47l-.06-.02c-.1-.08-.18-.17-.26-.26-.17-.18-.31-.34-.6-.34h-1.56c-.42-.01-1.53-1.36-1.76-1.65l-.02-.03c-.01-.04 0-.1.04-.12l.43-.4c.05-.04.1-.03.15.01l1.17 1.21c.15.15 1.32.14 1.76.13h.18c.3 0 .62.36.87.64l.19.2a.1.1 0 0 1 0 .15l-.44.46-.09.02zm-.93-.83c.38 0 .57.21.75.4a2 2 0 0 0 .17.18l.3-.32-.13-.14c-.2-.25-.5-.58-.71-.58h-.17c-1.08.02-1.74 0-1.92-.18l-1.1-1.15-.3.28c.53.64 1.32 1.5 1.55 1.5h1.56v.01z"/><path fill="#fff" d="M14.63 14.05l.46-.45 3.33 3.36-.47.46-3.32-3.37z"/><path fill="#000" d="M17.95 17.52a.1.1 0 0 1-.07-.03l-3.32-3.37a.1.1 0 0 1 0-.14l.46-.46c.02-.02.05-.03.08-.03s.05.02.07.03l3.33 3.37c.02.02.02.05.02.08l-.02.07-.47.46-.08.02zm-3.18-3.47l3.18 3.22.32-.32-3.17-3.21-.33.3zm2.86 13.65a.1.1 0 0 1-.1-.1v-1.32l-1.16-1.27v1.16c0 .05-.05.1-.1.1s-.1-.04-.1-.1V25l-1.29 1.29v1.31a.1.1 0 0 1-.2 0v-1.25h-1.36v1.25a.1.1 0 0 1-.2 0v-1.31L11.9 25v1.17c0 .05-.05.1-.1.1s-.1-.04-.1-.1V25l-1.23 1.28v1.31a.1.1 0 0 1-.2 0v-1.25H9c-.05 0-.1-.05-.1-.1s.05-.1.1-.1h1.32l1.46-1.54 1.47 1.54h1.47l1.54-1.54 1.4 1.54h1.3c.06 0 .11.04.11.1s-.05.1-.1.1h-1.26v1.25a.1.1 0 0 1-.1.1zm-3.05-1.83h-.55c-.05 0-.1-.05-.1-.1s.05-.1.1-.1h.55c.05 0 .1.04.1.1s-.05.1-.1.1zm.2-.61h-1.02c-.05 0-.1-.05-.1-.1s.05-.1.1-.1h1.02c.05 0 .1.04.1.1s-.05.1-.1.1zm.61-.55h-1.83c-.05 0-.1-.04-.1-.1s.04-.1.1-.1h1.83c.05 0 .1.05.1.1s-.04.1-.1.1zm.34-.47h-2.98a.1.1 0 0 1 0-.2h2.98c.05 0 .1.04.1.1s-.05.1-.1.1zm.68-.54H12c-.05 0-.1-.05-.1-.1s.04-.1.1-.1h4.4c.06 0 .1.04.1.1s-.04.1-.1.1zm-6.78 0a.1.1 0 0 1-.1-.1v-3.46c0-.06.04-.1.1-.1s.1.04.1.1v3.46a.1.1 0 0 1-.1.1zm8.67-.07a.1.1 0 0 1-.1-.1v-3.4c0-.05.05-.1.1-.1s.1.05.1.1v.45h5.53a.1.1 0 0 1 0 .2h-5.52v.34h4.5a.1.1 0 0 1 0 .2h-4.5v.34h3.49c.05 0 .1.05.1.1s-.05.1-.1.1h-3.5v.28h2.55c.05 0 .1.05.1.1s-.05.1-.1.1H18.4v.34h1.52a.1.1 0 0 1 0 .2H18.4v.65a.1.1 0 0 1-.1.1zm-9.28-.27a.1.1 0 0 1-.1-.1v-1.84c0-.05.04-.1.1-.1s.1.05.1.1v1.84a.1.1 0 0 1-.1.1zm7.12-.27h-4a.1.1 0 0 1 0-.2h4c.05 0 .1.04.1.1s-.05.1-.1.1zm-7.73 0a.1.1 0 0 1-.1-.1v-1.63c0-.06.04-.1.1-.1s.1.04.1.1v1.63a.1.1 0 0 1-.1.1zm-.55-.27a.1.1 0 0 1-.1-.1v-1.1c0-.05.05-.1.1-.1s.1.05.1.1v1.1a.1.1 0 0 1-.1.1zm-.47-.27a.1.1 0 0 1-.1-.1v-.82c0-.05.04-.1.1-.1s.1.04.1.1v.81a.1.1 0 0 1-.1.1zm8.4-.07h-2.98c-.05 0-.1-.05-.1-.1s.05-.1.1-.1h2.99c.05 0 .1.04.1.1s-.05.1-.1.1zm-8.94-.2a.1.1 0 0 1-.1-.1v-.89c0-.05.04-.1.1-.1s.1.05.1.1v.88a.1.1 0 0 1-.1.1zm-.68-.35a.1.1 0 0 1-.1-.1v-.6c0-.06.04-.1.1-.1s.1.04.1.1v.6a.1.1 0 0 1-.1.1zm9.22-.06h-2.17c-.05 0-.1-.05-.1-.1s.05-.1.1-.1h2.17c.05 0 .1.04.1.1s-.04.1-.1.1zm-.34-.55h-1.42c-.06 0-.1-.04-.1-.1s.04-.1.1-.1h1.42c.05 0 .1.05.1.1s-.04.1-.1.1zm1.12-8.82a.1.1 0 0 1-.07-.03l-.7-.65a.1.1 0 0 1 0-.14.1.1 0 0 1 .14-.01l.7.65a.1.1 0 0 1 0 .14c-.02.03-.04.04-.07.04zm1.11-1.03c-.03 0-.05 0-.07-.02l-.87-.84c-.04-.04-.04-.1 0-.15s.1-.04.14 0l.87.84a.1.1 0 0 1 0 .14c-.02.03-.04.03-.07.03z"/><path fill="#000" d="M13.97 31.8c-3.49 0-6.94-1.26-9.46-3.44a12.3 12.3 0 0 1-4.3-9.64V.2h27.52v18.5a12.37 12.37 0 0 1-4.31 9.65 14.6 14.6 0 0 1-9.45 3.44zM.6.6v18.1c0 8.24 6.88 12.68 13.36 12.68s13.35-4.44 13.35-12.68V.61H.61z"/></svg>