<svg version="1.1" xmlns="http://www.w3.org/2000/svg" viewBox="0 0 26 32"><path fill="#dc281e" opacity=".99" d="M.35.35h12.66v15.12H.35V.35z"/><path fill="#000" opacity=".99" d="M13.15 15.61H.21V.21h12.94v15.4zM.5 15.33h12.38V.5H.49v14.84z"/><path fill="#ffd200" opacity=".99" d="M13.01.35h12.66v15.12H13.01V.35z"/><path fill="#000" opacity=".99" d="M25.81 15.61H12.87V.21h12.94v15.4zm-12.66-.28h12.38V.5H13.15v14.84z"/><path fill="#f4f0e8" opacity=".99" d="M.35 15.47h25.32c0 9.5-3.52 16.18-12.66 16.18C4.57 31.65.35 24.97.35 15.47z"/><path fill="#000" opacity=".99" d="M13.01 31.79c-2.08 0-3.97-.4-5.6-1.21a10.93 10.93 0 0 1-4-3.38C1.3 24.38.2 20.32.2 15.47v-.14h25.6v.14c0 5.04-.98 8.99-2.92 11.73-2.16 3.05-5.48 4.59-9.88 4.59zM.5 15.6c.04 9.96 4.72 15.9 12.52 15.9 4.3 0 7.55-1.5 9.64-4.47 1.9-2.67 2.86-6.51 2.88-11.43H.49z"/><path fill="#000" d="M14.96 13.62l.44-.1c.1-.16.12-.37.4-.4.34.23 1.02-.08.86-.47a3.3 3.3 0 0 1-.43-1.32c-.03-.3.49-1.42.74-1.56a6.9 6.9 0 0 1 2.68-.5l-.01 1.62c-.58.18-1.3.07-1.55.96.17.3.55.46.5.9-.43-.05-.95 1.16-.86 1.48-.5.27-.59.06-.73-.1-.36.9-.64.6-.93.42-.24-.12-.14-.3-.21-.45-.16.55-.05.33-.43.71-.12-.3-.38-.22-.67.09.1-.45-.14-.97.2-1.28z"/><path fill="#ffd200" d="M14.7 15.02l.03-.12a1.7 1.7 0 0 0 0-.5c-.01-.3-.04-.59.2-.8l.02.02v-.03l.43-.1.05-.11c.07-.13.14-.28.37-.3h.03c.19.14.5.08.67-.06.13-.1.18-.23.13-.36-.2-.4-.42-.84-.43-1.33a3.2 3.2 0 0 1 .76-1.59 6.9 6.9 0 0 1 2.7-.51h.04l-.01 1.69h-.03l-.4.1c-.48.09-.93.16-1.12.83.05.09.13.16.2.25.17.17.34.35.3.66l-.01.03h-.04c-.12-.02-.25.1-.34.2-.3.35-.54 1.02-.48 1.23v.03l-.02.01c-.47.26-.6.1-.73-.04L17 14.2c-.14.34-.28.52-.44.57s-.31-.05-.45-.14l-.07-.04c-.18-.1-.2-.22-.2-.33v-.01l-.02.08c-.06.2-.06.21-.18.33l-.2.19-.03.03-.02-.05c-.04-.1-.1-.15-.16-.16-.12-.02-.27.07-.45.26l-.08.08zm.27-1.36c-.2.18-.18.45-.16.73.01.13.02.27.01.41.16-.15.32-.22.44-.2.07.01.14.07.19.16l.15-.14c.11-.11.11-.11.16-.3l.06-.22.03-.09.04.09c.03.05.03.1.03.16.01.1.02.2.17.27l.07.05c.13.1.26.18.4.13.13-.04.27-.23.4-.57l.03-.05.03.04a.4.4 0 0 1 .05.06c.12.13.23.25.62.05-.05-.28.2-.93.5-1.27.12-.15.24-.23.36-.23.02-.25-.13-.4-.28-.57-.07-.09-.16-.18-.21-.28l-.01-.02v-.01c.2-.72.7-.81 1.18-.9l.37-.08.01-1.57a7.33 7.33 0 0 0-2.62.5 3.19 3.19 0 0 0-.74 1.53c.01.48.22.9.42 1.3.06.17.02.32-.15.45-.19.15-.52.22-.74.07-.2.03-.24.13-.3.26l-.07.13-.01.01-.43.1z"/><path fill="#000" d="M13.77 8.05c.26-.18.37-.45.55-.64.04.38.2.6.63.5.22.04.36-.53.55-.52.12.24.22.49.43.43.1-.02.02-.4.34-.52.52.5 1.07.23 1.56.2l-1.47-1.36c-.62.22-1.53.5-1.73.7l.79-.34c-.22-.11-.2-.22-.67-.34-.19-.03-.4.14-.48.41-.1.16-.28.07-.5.13-.29.06-.25.72-.33 1.05.16-.1.3-.33.46-.26-.18.18-.45.49-.13.56z"/><path fill="#ffd200" d="M13.81 8.1l-.05-.02c-.1-.02-.16-.06-.17-.13-.04-.14.13-.33.24-.43-.07 0-.13.07-.21.13-.05.05-.1.1-.16.12l-.07.05.02-.08c.03-.09.04-.2.05-.33.04-.33.08-.7.31-.75.09-.02.16-.02.23-.02.12 0 .2 0 .25-.08.07-.27.3-.47.5-.43.33.08.43.16.53.24l.1.07.63-.22.34-.12h.02l1.54 1.43h-.08l-.34.05c-.39.07-.82.14-1.23-.24-.16.07-.2.22-.23.34-.02.09-.03.16-.1.17-.22.06-.33-.18-.44-.41l-.01-.02c-.07.02-.14.13-.21.24-.1.15-.18.3-.32.28-.19.04-.34.03-.45-.05-.1-.07-.18-.2-.22-.4l-.1.16c-.1.15-.21.3-.37.41v.04zm.03-.65l.08.01.05.02-.04.04c-.16.13-.3.3-.28.4.01.04.05.07.1.08.17-.1.27-.25.37-.39.05-.08.1-.15.17-.22l.05-.06v.08c.02.2.09.35.2.43.1.07.23.07.4.04h.01c.09.01.17-.12.26-.25.09-.14.17-.28.3-.27h.01l.03.05c.1.22.2.43.37.38.03-.01.04-.07.05-.12.02-.14.07-.33.28-.41h.04c.39.39.8.31 1.19.24l.27-.04-1.4-1.28-.32.1-.56.2.03.03-.86.36-.04-.05c.1-.1.37-.22.7-.34l-.07-.06c-.1-.07-.19-.15-.5-.22-.16-.04-.36.15-.42.38v.02c-.07.11-.2.11-.31.12-.07 0-.14 0-.22.02-.18.04-.23.39-.25.7l-.03.23.07-.06c.08-.08.17-.16.27-.16z"/><path fill="#000" d="M14.85 3.15c.02.39.06.76.67.66l-.07.73c.41.15.67.05.85 1.47.13-.54.49-.85 1.09-1.25l-1.1-1.69c.17-.23.16-.55.14-.88-.2-.06-.26-.24-.29-.47-.3.06-.61.09-.83-.09-.47.12-.95.22-1.13.53.39.05.52.13.58.3a1.2 1.2 0 0 0-.58.83l.67-.15z"/><path fill="#ffd200" d="M16.33 6.02h-.07c-.15-1.25-.36-1.3-.69-1.4l-.14-.05h-.03l.07-.72c-.2.03-.36 0-.47-.09-.14-.12-.18-.33-.2-.57l-.68.15.02-.05c.12-.48.34-.7.57-.83-.06-.14-.16-.21-.55-.26l-.06-.01.03-.05c.2-.32.68-.44 1.16-.54h.03c.2.17.5.14.8.09h.04v.03c.04.26.12.4.26.43h.03v.02c.02.34.02.66-.14.9l1.11 1.7-.01.02c-.63.42-.96.71-1.08 1.23zm-.85-1.5l.11.03c.34.1.57.16.72 1.3.15-.44.48-.73 1.03-1.1l-1.1-1.68.02-.02c.16-.21.16-.52.13-.84-.2-.07-.25-.27-.28-.45-.3.05-.6.08-.81-.1-.43.1-.87.21-1.07.47.35.05.5.14.56.33v.02l-.01.03c-.22.13-.44.3-.55.74l.65-.14v.04c.02.23.04.45.17.56.1.08.26.1.47.07l.04-.01-.08.75z"/><path fill="#000" d="M18.54 7.82c.76-.19 1.68-.7 2.45-1.41.15.95.33 2.33.64 2.54.41.34 1.12.44 1.65.36.47-.03.9-.69.87-1.15-.05-.91-.6-1.3-.84-1.55-.48-.45-.93-.99-1.48-1.56-.5-.56.2-2.35 1.18-2.35 1.17-.05 1.93.56 1.9 1.56.01.64-.39 1-.83 1.23-1.7.36-1.75-1.78-.6-2.04.37 0 .74.83.18 1.32-.22-.72-.43-.6-.52-.44-.07.15-.3.68.44.79 1.43.09.9-1.81.16-1.92-1.51-.28-1.88 1.13-1.12 2.07.34.35 1.16 1.03 1.8 1.8.57.67.3 1.7-.4 2.34-.95.7-1.5.14-2.1.2-.3.03-.1.8-.02 1.15.18.5.86.33 1.28.73.18.21-.18.7-.42 1.66-.1.23.25.26.13.68-.06.26-.47.04-.52.28.12.41-.01.6-.2.76-.14.17-.38.32-.6.2-.13-.05-.22-.05-.34-.34-.16.32-.35.36-.54.5-.12-.45.07-.68.13-1.02-.08.42-.18.83-.5.79-.1-.24.07-.67-.38-.62.1-.36.29-.52.42-.7.24-.33.64.49.9.04.3-.26.47-.9.24-1.05-.64-.46-1.82-.6-1.94-.92-.13-.3-.26-.71.07-.89-.09-.8.2-1.46-.26-2.4-.24-.42-.62-.42-.83-.64z"/><path fill="#ffd200" d="M20.68 15.3l-.01-.04a1.2 1.2 0 0 1-.05-.34.3.3 0 0 1-.3.13h-.02v-.03a.66.66 0 0 1-.06-.26c0-.12-.02-.23-.08-.3-.04-.03-.11-.05-.22-.03h-.05l.02-.04c.07-.29.2-.45.33-.59l.1-.12c.14-.18.31-.07.47.03.1.07.22.14.3.12.05-.01.1-.05.13-.12h.01c.2-.18.35-.55.32-.8 0-.07-.02-.16-.09-.2-.3-.22-.73-.37-1.11-.5-.43-.14-.77-.25-.84-.43-.1-.23-.29-.71.07-.92-.03-.26-.02-.5 0-.75.01-.49.04-1-.27-1.61a1.1 1.1 0 0 0-.53-.45 1.15 1.15 0 0 1-.3-.2l-.03-.03.04-.03c.8-.2 1.7-.72 2.44-1.4l.05-.04v.06l.06.32c.14.9.3 2.01.57 2.2a2.3 2.3 0 0 0 1.63.36c.45-.04.85-.67.84-1.12a1.93 1.93 0 0 0-.72-1.42l-.12-.1c-.3-.28-.59-.6-.9-.94l-.58-.63c-.28-.32-.19-.94.03-1.42s.64-1 1.18-1c.65-.02 1.18.15 1.53.5.28.27.43.65.41 1.1.02.54-.27.96-.85 1.26-.87.2-1.3-.26-1.4-.74-.13-.55.13-1.22.77-1.36h.01c.17 0 .35.15.44.4.1.28.1.69-.23.99l-.05.03-.01-.05c-.13-.45-.25-.53-.32-.53s-.11.06-.14.11c-.03.08-.13.3-.03.5.07.12.22.2.45.23.69.04.83-.37.86-.62.05-.54-.31-1.16-.71-1.22-.62-.11-1.08.05-1.32.44-.26.44-.17 1.1.23 1.58l.39.38c.4.37.94.88 1.4 1.41.61.72.28 1.78-.4 2.4-.67.49-1.15.37-1.57.27a1.51 1.51 0 0 0-.55-.07.13.13 0 0 0-.08.04c-.12.17.01.7.08 1l.02.07c.09.26.33.33.6.4.23.06.47.13.66.3.12.15.04.39-.11.77-.1.24-.21.55-.31.94-.04.08 0 .13.05.2.07.1.15.23.08.47-.03.16-.18.17-.3.18s-.2.01-.22.1c.12.43-.03.63-.2.79-.16.18-.42.33-.65.2l-.03-.01c-.1-.04-.2-.07-.3-.28-.1.2-.24.28-.37.35l-.14.1v.02zm.04-.54a.87.87 0 0 0 0 .43l.11-.07a.84.84 0 0 0 .38-.38l.04-.08.03.07c.1.24.17.27.27.3l.04.02c.2.11.43-.03.57-.19.17-.14.3-.3.19-.72v-.02c.02-.14.16-.15.28-.16.13 0 .22-.02.24-.12.06-.22-.01-.32-.07-.41-.05-.08-.1-.15-.06-.27.1-.38.21-.7.3-.94.14-.35.23-.58.14-.7-.18-.15-.4-.22-.63-.28-.29-.08-.56-.15-.66-.46l-.02-.07c-.08-.32-.2-.86-.07-1.05a.17.17 0 0 1 .13-.08c.2-.01.38.03.57.08.42.1.87.2 1.51-.27.65-.59.97-1.61.4-2.3-.47-.53-1-1.03-1.4-1.4l-.4-.38c-.42-.51-.52-1.2-.24-1.66.25-.41.76-.59 1.4-.48.46.07.81.78.76 1.3-.05.47-.4.72-.94.69-.26-.04-.43-.13-.5-.28-.12-.2-.01-.47.03-.55.06-.11.14-.16.21-.15.13.01.25.19.36.53a.81.81 0 0 0 .18-.87c-.08-.21-.23-.35-.37-.35-.59.13-.84.77-.72 1.28.1.45.5.86 1.31.69.56-.3.82-.68.81-1.2.02-.42-.12-.79-.38-1.05-.34-.33-.86-.5-1.48-.47-.51 0-.92.49-1.12.95-.25.54-.26 1.1-.04 1.34l.59.64c.3.34.6.65.9.93l.1.1a2 2 0 0 1 .74 1.46c.02.49-.41 1.16-.9 1.2-.49.07-1.23 0-1.67-.37-.29-.2-.46-1.29-.6-2.25l-.05-.26a6.06 6.06 0 0 1-2.35 1.37l.23.14c.2.09.4.2.56.48.32.63.29 1.15.27 1.64-.02.25-.02.5 0 .76v.02l-.02.02c-.3.15-.2.49-.05.84.05.15.41.27.8.4.38.13.8.28 1.12.5.07.04.12.14.12.25.03.28-.14.67-.34.85a.3.3 0 0 1-.18.15c-.12.02-.24-.05-.36-.13-.16-.11-.28-.18-.37-.05l-.1.13c-.1.12-.22.26-.3.5.1 0 .16.02.22.07.09.07.1.2.11.34 0 .08.02.16.04.22.13 0 .22-.08.3-.24 0-.08.03-.15.06-.23l.04-.17.03-.11.07.01-.03.11-.14.41z"/><path fill="#000" d="M16.32 6.11c.2-.4.27-1.05 1.8-1.55.05-.08-.13-.3 0-.35.5-.07 1.31-.16 1.3-.65-.23-.53-.91-.4-1.38-.44l-.1-.66c.18-.03.32-.07.33-.16l-.36.05c-.03-.25.14-.38.41-.46.5-.41 1.39-.16 2.19-.03.23.25.46.36.65.82.3 1.74.07 3.31-.27 3.66-.63.52-1.22.95-2.48 1.42a3.93 3.93 0 0 1-2.1-1.65z"/><path fill="#ffd200" d="M18.41 7.8a3.96 3.96 0 0 1-2.13-1.67l-.01-.01V6.1a.58.58 0 0 0 .08-.18c.19-.4.43-.95 1.75-1.4a.39.39 0 0 0-.03-.1c-.03-.09-.07-.2.03-.24l.11-.02c.5-.07 1.18-.17 1.18-.6-.19-.4-.64-.4-1.05-.4H18l-.12-.73.04-.01c.13-.02.22-.04.27-.08l-.33.05v-.03c-.03-.24.1-.4.43-.5.44-.36 1.15-.22 1.84-.09l.37.07h.02l.18.18c.17.15.34.3.48.65.29 1.72.08 3.32-.28 3.69-.62.52-1.2.95-2.49 1.43v.01zm-2.05-1.69c.4.6.92 1.2 2.06 1.62a7.1 7.1 0 0 0 2.46-1.41c.3-.31.55-1.84.26-3.63-.14-.32-.3-.46-.47-.61l-.17-.18-.36-.06c-.67-.13-1.37-.26-1.79.07l-.01.01c-.28.08-.4.2-.4.39l.38-.06-.01.05c-.02.11-.18.16-.33.18l.1.6c.08.02.17.02.27.02.43 0 .91 0 1.12.45 0 .5-.71.6-1.24.68l-.1.02c-.03.01-.03.05 0 .15.04.07.06.13.03.18v.01l-.02.01c-1.32.42-1.54.96-1.71 1.35l-.07.16zm-.66-2.9h-.04c-.14-.1-.23-.2-.31-.3-.13-.15-.25-.28-.5-.33a.07.07 0 0 1-.06-.09c.01-.03.05-.06.09-.06.29.07.43.22.57.38.08.1.17.19.28.28.03.02.03.06.01.1l-.04.02z"/><path fill="#ffd200" d="M19.09 2.47a.32.32 0 0 1-.32-.21c-.03-.11-.01-.27.16-.38.03-.02.08-.02.1.02s.01.08-.02.1c-.1.05-.13.14-.1.22.02.07.1.12.19.12a.15.15 0 0 0 .1-.12.29.29 0 0 0-.03-.18l-.05-.06c-.02-.02-.02-.06 0-.09s.06-.03.09-.01c.03.02.05.04.07.08l.12.13.26.1c.04.02.06.06.04.1s-.06.05-.1.03l-.27-.11v.02c-.02.12-.1.2-.21.23h-.03zm-2.89.73c-.02 0-.04 0-.06-.03L16 2.96c-.24-.33-.51-.7-.57-1.1 0-.03.02-.07.06-.07.04 0 .08.02.08.06.05.36.3.72.54 1.03l.16.22c.02.04.02.08-.02.1h-.04z"/><path fill="#ffd200" d="M15.95 2.42a.52.52 0 0 1-.38-.14c-.02-.03-.02-.07 0-.1s.07-.03.1 0c.15.14.33.1.48.08h.1c.05 0 .08.02.08.05 0 .05-.03.07-.06.08-.03 0-.06 0-.1.02h-.22zm2.3 2.25h-.12c-.05 0-.1-.05-.1-.11s.05-.1.12-.1c.4.01 1.15-.04 1.78-.56.27-.23.34-.7.4-1.1.03-.34.08-.63.22-.8.03-.05.1-.07.14-.02.05.03.05.1.02.14-.1.14-.14.41-.18.7-.07.46-.13.96-.46 1.25-.63.5-1.37.6-1.82.6z"/><path fill="#ffd200" d="M16.75 6.67h-.04a.11.11 0 0 1-.07-.14c.36-1.07 1.13-1.24 1.94-1.42l.35-.07c1-.28 1.83-1.15 2.08-1.65.1-.21.08-.3.08-.32v-.04c-.04-.48-.42-.86-.6-1.04l-.01-.01c-.05-.05-.05-.1 0-.15s.1-.04.14 0l.02.01c.2.2.6.61.65 1.16.04.12 0 .28-.09.48a3.9 3.9 0 0 1-2.22 1.76l-.35.07c-.78.18-1.46.33-1.78 1.3a.1.1 0 0 1-.1.06z"/><path fill="#ffd200" d="M17.24 7.15l-.03-.01a.11.11 0 0 1-.07-.13c.31-.95.89-1.08 1.5-1.22.18-.04.38-.09.57-.16h.01c.83-.28 2.09-.7 2-2.13 0-.06.04-.11.1-.12s.1.04.11.1c.1 1.59-1.3 2.07-2.14 2.35-.21.08-.41.13-.6.17-.6.13-1.07.24-1.34 1.07a.1.1 0 0 1-.1.07z"/><path fill="#ffd200" d="M17.8 7.64h-.05a.13.13 0 0 1-.05-.15c.4-.87 1.01-1.03 1.65-1.2l.53-.16h.01c.39-.13 1.29-.44 1.28-1.71 0-.06.05-.1.1-.1.06 0 .11.04.11.1 0 1.42-1.02 1.78-1.42 1.91l-.55.16c-.63.16-1.16.3-1.52 1.08a.1.1 0 0 1-.1.07zm-3.93 0h-.03c-.03-.02-.05-.06-.03-.1.14-.3.43-.95.9-.8.03.01.05.05.05.09a.08.08 0 0 1-.1.05c-.35-.11-.6.46-.72.73a.09.09 0 0 1-.07.03zM20.2 2.4l-.05-.01c0-.01-.15-.14-.16-.45 0-.05.03-.07.07-.07.04 0 .07.02.07.07.01.25.11.35.11.35.03.03.03.07.01.1a.06.06 0 0 1-.05.02zM15 6.6h-.02a1.84 1.84 0 0 0-.56-.1c-.04 0-.07-.03-.06-.08 0-.04.03-.07.07-.06.22.01.44.04.6.1.04.02.06.06.04.1-.02.03-.04.05-.07.05zm5.31 7.78l-.04-.02a.08.08 0 0 1-.01-.1c.15-.2.31-.17.43-.15h.12c.04 0 .07.03.07.07 0 .04-.02.07-.06.08l-.15-.02c-.12-.02-.2-.03-.3.1a.06.06 0 0 1-.05.04zm-4.95.22c-.02 0-.05-.02-.07-.05 0-.02-.15-.56 0-.87.01-.03.05-.05.09-.03s.05.05.03.09c-.1.21-.02.62.02.76 0 .04-.02.08-.05.09l-.02.01z"/><path fill="#000" d="M19.34 3.45c.06.14.01.36-.18.36-.58.04-1.44.14-1.79.1-.28-.06-.48-.27-.48-.5 0-.22 0-.62.46-.6.43-.01.55.49.3.6-.1-.34-.42-.33-.4-.1.05.1.04.14.33.24a6.5 6.5 0 0 0 1.76-.1z"/><path fill="#ffd200" d="M17.61 3.95l-.24-.01c-.28-.05-.5-.28-.52-.53 0-.15 0-.38.15-.52a.5.5 0 0 1 .36-.11c.25 0 .4.15.45.32.04.16-.03.3-.15.35l-.04.02-.01-.04c-.05-.18-.17-.26-.25-.24-.05 0-.08.05-.08.11l.02.03c.03.06.05.1.29.18.5.09 1.28-.03 1.68-.08l.09-.02v.03c.05.1.03.23-.02.31a.2.2 0 0 1-.2.1l-.4.03c-.38.03-.82.07-1.13.07zm-.3-1.1c-.11 0-.2.03-.27.1-.12.12-.12.33-.12.46 0 .22.2.42.45.46.27.04.86 0 1.37-.06l.4-.03c.06 0 .1-.02.14-.07a.29.29 0 0 0 .03-.21h-.03c-.41.06-1.18.17-1.72.09-.26-.09-.3-.14-.33-.22l-.02-.03v-.01c-.01-.1.04-.19.13-.2.11-.02.25.06.32.25.07-.05.1-.14.07-.25a.36.36 0 0 0-.38-.27h-.03z"/><path fill="#f4f0e8" opacity=".99" d="M19.12 2.02c0 .03-.03.07-.07.07S19 2.06 19 2.02s.03-.07.07-.07.06.03.06.07z"/><path fill="#ffd200" opacity=".99" d="M19.05 2.16c-.07 0-.13-.06-.13-.14s.06-.14.13-.14.14.06.14.14c0 .08-.06.14-.14.14zm0-.14zm0 0z"/><path fill="#dc281e" d="M5.63 22.5h5.27l-.19 1.41H5.63c-.36 0-.36 1.41.7 1.41-.35.7-.68.86-1.4.7-1.06-.7-.71-1.4 0-2.1-.71 0-1.41.34-2.12-.71.7-1.05 1.4-.7 2.11-.7-1.05-.7-1.05-1.76-.02-2.18.7-.23 1.08.07 1.43.77-1.4 0-1.06 1.4-.7 1.4z"/><path fill="#000" d="M5.37 26.15c-.13 0-.28-.02-.46-.06l-.02-.01c-.44-.29-.66-.6-.7-.93-.03-.35.14-.72.56-1.17l-.24.02c-.58.06-1.17.12-1.75-.76a.08.08 0 0 1 0-.07c.58-.88 1.18-.83 1.75-.76l.18.01c-.44-.36-.67-.8-.63-1.22.04-.41.33-.75.8-.94.8-.26 1.19.13 1.53.8.01.03 0 .05 0 .07s-.04.04-.06.04c-.34 0-.59.08-.75.25s-.2.35-.2.5c0 .29.15.51.25.51h5.27l.06.03c.02.02.02.03.01.05l-.19 1.4c0 .04-.03.07-.07.07H5.63c-.07 0-.14.14-.14.36 0 .22.07.44.19.6.15.21.37.31.65.31.02 0 .05.02.06.04s.02.05 0 .07c-.28.56-.56.79-1.02.79zm-.42-.2c.65.15.95.02 1.27-.56a.9.9 0 0 1-.66-.36 1.16 1.16 0 0 1-.21-.69c0-.3.1-.5.28-.5h5.02l.17-1.26h-5.2c-.2 0-.38-.31-.38-.66 0-.24.08-.46.24-.6.17-.17.41-.26.74-.28-.35-.66-.71-.83-1.3-.64-.43.17-.68.47-.71.83-.05.42.24.88.76 1.23.02.01.03.05.02.07s-.03.05-.07.05l-.43-.02c-.54-.06-1.06-.11-1.6.66.54.76 1.06.71 1.6.66l.43-.03c.03 0 .06.01.07.04s0 .06-.02.08c-.47.47-.67.84-.64 1.18.03.27.23.54.62.8z"/><path fill="#dc281e" d="M20.04 22.5h-5.27l.1 1.41h5.17c.36 0 .36 1.41-.7 1.41.35.7.68.86 1.4.7 1.06-.7.71-1.4 0-2.1.71 0 1.41.34 2.12-.71-.7-1.05-1.41-.7-2.11-.7 1.05-.7 1.05-1.76.02-2.18-.7-.23-1.08.07-1.43.77 1.4 0 1.05 1.4.7 1.4z"/><path fill="#000" d="M20.3 26.15c-.47 0-.74-.24-1.02-.8-.02-.02-.01-.05 0-.07s.03-.04.06-.04c.28 0 .5-.1.65-.3.12-.17.2-.39.2-.61 0-.22-.08-.36-.15-.36h-5.17c-.03 0-.07-.03-.07-.06l-.1-1.41c0-.02 0-.04.02-.06s.04-.02.05-.02h5.27c.1 0 .24-.22.24-.52 0-.14-.03-.34-.2-.5s-.4-.24-.75-.24c-.02 0-.05-.02-.06-.04s-.01-.05 0-.07c.34-.67.72-1.06 1.51-.8.49.2.78.53.82.94.04.42-.2.87-.63 1.23l.18-.02c.58-.05 1.17-.12 1.75.76v.08c-.58.88-1.18.82-1.75.76l-.25-.02c.42.45.6.81.57 1.17-.04.33-.26.64-.7.92l-.02.01a1.5 1.5 0 0 1-.45.07zm-.85-.77c.32.59.62.72 1.27.57.39-.26.59-.52.62-.81.03-.33-.17-.71-.64-1.19-.02-.02-.03-.04-.02-.07s.04-.04.07-.04c.14 0 .28 0 .43.02.54.06 1.06.1 1.6-.66-.54-.77-1.06-.72-1.6-.66l-.43.03c-.03 0-.06-.02-.07-.05s0-.06.02-.08c.52-.34.8-.8.76-1.23-.03-.36-.29-.65-.72-.82-.58-.2-.93-.02-1.29.63.32.02.57.11.74.28.16.16.24.37.24.6 0 .35-.18.66-.39.66h-5.2l.1 1.27h5.1c.17 0 .29.2.29.5 0 .25-.08.5-.22.69a.87.87 0 0 1-.66.36z"/><path fill="#dc281e" d="M13.5 19.35v2.1h-1.4v-2.1c0-.35-1.41-.35-1.41.7-.7-.35-.87-.67-.7-1.4.7-1.06 1.4-.7 2.1 0 0-.7-.35-1.41.7-2.12 1.06.7.71 1.41.71 2.11.7-1.05 1.76-1.05 2.17-.02.24.7-.06 1.08-.76 1.43 0-1.4-1.4-1.05-1.4-.7z"/><path fill="#000" d="M13.5 21.52h-1.4c-.05 0-.07-.03-.07-.07v-2.1c0-.07-.14-.14-.36-.14a1 1 0 0 0-.6.19.76.76 0 0 0-.32.65c0 .02-.01.05-.03.06s-.05.02-.07 0c-.73-.36-.92-.72-.74-1.48v-.02c.3-.44.6-.66.93-.7.36-.03.72.14 1.17.57l-.02-.25c-.06-.58-.12-1.17.76-1.75a.08.08 0 0 1 .08 0c.88.58.82 1.18.76 1.75l-.02.18c.36-.44.8-.67 1.23-.63.4.04.74.33.93.8.27.8-.12 1.2-.8 1.53-.02.01-.05 0-.07 0s-.03-.04-.03-.06c0-.34-.09-.6-.25-.76s-.36-.2-.5-.2c-.3 0-.52.15-.52.25v2.11c.01.04-.01.07-.06.07zm-1.33-.14h1.26v-2.03c0-.2.31-.39.66-.39a.8.8 0 0 1 .6.24c.17.17.26.41.28.74.66-.36.83-.71.64-1.3-.17-.43-.47-.68-.83-.71-.42-.05-.88.23-1.23.76-.01.02-.05.03-.07.02s-.05-.03-.05-.07l.02-.43c.06-.54.1-1.06-.66-1.6-.76.54-.71 1.06-.66 1.6l.03.43c0 .03-.01.06-.04.07a.08.08 0 0 1-.08-.02c-.47-.47-.84-.67-1.18-.64-.29.03-.56.23-.82.62-.14.65-.01.95.57 1.27a.9.9 0 0 1 .36-.66c.2-.14.44-.21.7-.21.29 0 .49.1.49.28v2.03z"/><path fill="#dc281e" d="M13.5 27.5v-2.03c-.45.09-.92.1-1.4 0v2.02c0 .35-1.41.35-1.41-.7-.7.35-.87.67-.7 1.4.7 1.06 1.4.7 2.1 0 0 .7-.35 1.41.7 2.12 1.06-.7.71-1.41.71-2.11.7 1.05 1.76 1.05 2.17.02.24-.7-.06-1.08-.76-1.43 0 1.4-1.4 1.05-1.4.7z"/><path fill="#000" d="M12.8 30.38l-.04-.02c-.88-.58-.82-1.18-.76-1.75l.02-.25c-.45.43-.82.6-1.17.57-.34-.04-.64-.26-.93-.7v-.02c-.17-.76 0-1.12.74-1.48.02-.02.04-.01.07 0 .02.01.03.03.03.06 0 .28.1.5.3.65.17.12.39.2.61.2.22 0 .36-.08.36-.15v-2.02c0-.02.01-.04.03-.05.02-.02.04-.02.06-.02.43.1.88.1 1.38 0 .02 0 .04 0 .05.02l.03.05v2.02c0 .1.22.24.52.24.14 0 .34-.03.5-.2s.24-.41.24-.75c0-.02.02-.05.04-.06s.05-.02.07 0c.67.34 1.07.72.8 1.51-.2.49-.53.77-.94.82-.42.04-.87-.2-1.22-.64v.19c.07.57.13 1.16-.75 1.75l-.04.03zm-.7-2.25h.02c.03.02.05.04.05.07l-.03.42c-.06.55-.1 1.07.66 1.6.77-.53.72-1.05.66-1.6-.01-.14-.03-.28-.03-.43 0-.02.02-.05.05-.07.03 0 .06 0 .08.03.34.52.8.8 1.23.76.36-.03.65-.3.82-.72.2-.58.02-.94-.63-1.29a1.1 1.1 0 0 1-.28.74.83.83 0 0 1-.6.24c-.35 0-.66-.18-.66-.39v-1.93a3.5 3.5 0 0 1-1.27 0v1.93c0 .17-.2.28-.5.28-.25 0-.5-.07-.68-.21a.9.9 0 0 1-.36-.66c-.59.32-.72.61-.57 1.27.26.38.52.59.81.62.33.03.71-.17 1.18-.64.01-.02.03-.02.05-.02z"/><path fill="#f4f0e8" d="M2.26 13.72l.44-.1c.1-.16.12-.38.4-.41.34.24 1.02-.07.86-.47a3.3 3.3 0 0 1-.43-1.31c-.03-.3.5-1.42.75-1.56a6.9 6.9 0 0 1 2.68-.5l-.02 1.62c-.58.17-1.3.07-1.54.95.17.3.55.47.5.91-.43-.05-.95 1.15-.86 1.48-.5.26-.6.05-.73-.1-.36.9-.64.6-.94.42-.24-.13-.14-.3-.21-.45-.15.55-.04.33-.43.71-.12-.3-.38-.22-.67.09.1-.45-.14-.97.2-1.28z"/><path fill="#000" d="M2.07 15.07h-.04c-.02-.02-.04-.05-.03-.08.03-.16.02-.33 0-.5-.02-.29-.04-.6.2-.82l.03-.01.41-.1.05-.09c.07-.13.14-.3.4-.32l.05.01c.17.13.46.07.63-.06.07-.06.18-.17.11-.32-.2-.41-.41-.84-.43-1.34-.02-.3.49-1.44.78-1.62a6.86 6.86 0 0 1 2.73-.52c.03 0 .06.03.06.07l-.01 1.62c0 .03-.03.06-.05.07l-.4.09c-.47.08-.9.17-1.09.8.05.08.12.15.2.23.15.16.34.36.3.68-.01.04-.05.07-.08.07-.12-.02-.23.1-.31.19-.3.34-.53 1-.47 1.2 0 .04 0 .06-.04.08-.45.25-.62.11-.74-.02-.14.31-.28.48-.45.53-.17.06-.33-.05-.48-.15l-.07-.04a.37.37 0 0 1-.19-.2c-.04.14-.06.17-.18.27l-.19.18c-.01.02-.04.02-.06.02-.02 0-.04-.02-.05-.04-.03-.08-.08-.13-.13-.14-.1-.02-.25.07-.42.25l-.04.01zm.22-1.28c-.17.17-.16.42-.14.7l.02.33c.14-.13.28-.18.4-.16.05.01.13.05.19.14l.12-.12c.11-.1.11-.1.16-.28l.06-.21c0-.03.03-.05.06-.05s.05.01.07.04c.03.06.03.13.04.18 0 .1.01.16.14.23l.08.05c.12.09.24.17.36.13.13-.04.26-.22.4-.56 0-.02.03-.03.05-.04s.05 0 .06.02a.4.4 0 0 1 .05.06c.11.13.2.23.56.05-.03-.3.21-.94.5-1.27.13-.15.25-.23.36-.24 0-.23-.12-.36-.27-.52a1.14 1.14 0 0 1-.22-.28c0-.02-.02-.04 0-.05.2-.74.7-.83 1.2-.92l.33-.07.02-1.51a7.25 7.25 0 0 0-2.56.49l-.02.02a3.23 3.23 0 0 0-.7 1.5c0 .47.21.88.41 1.28.07.18.02.35-.15.49-.2.15-.55.22-.78.07-.16.03-.2.12-.26.24l-.07.14-.04.02-.43.1z"/><path fill="#f4f0e8" d="M1.13 8.14c.12-.28.31-.44.49-.63.04.38.2.6.64.5.2.04.35-.53.55-.52.1.23.21.48.42.43.11-.02.03-.4.34-.53.52.5 1.06.3 1.55.27L3.61 6.28c-.63.23-1.47.47-1.68.66l.8-.34c-.23-.12-.2-.23-.68-.34-.16-.04-.26.09-.47.4-.1.16-.28.08-.5.13-.3.07-.28.55-.35.88.16-.1.32-.15.48-.08-.13.16-.15.44-.08.56z"/><path fill="#000" d="M1.13 8.21a.07.07 0 0 1-.06-.03.61.61 0 0 1 .03-.54c-.1-.02-.2.01-.34.09a.06.06 0 0 1-.08 0 .07.07 0 0 1-.03-.08l.05-.24c.04-.3.1-.62.36-.69.1-.02.17-.02.24-.02.12 0 .18 0 .22-.07.2-.3.31-.5.55-.44.33.08.43.16.53.24l.1.08.38-.13.5-.17.07.01L5.16 7.6c.02.02.03.05.02.08s-.03.04-.06.05c-.1 0-.18.02-.28.03-.4.04-.85.1-1.29-.3-.13.07-.16.2-.18.32-.02.1-.04.19-.13.2-.24.07-.37-.18-.48-.41a.92.92 0 0 0-.16.2c-.1.16-.2.32-.34.3-.2.04-.36.03-.48-.05a.56.56 0 0 1-.21-.36l-.02.02a1.4 1.4 0 0 0-.35.48c-.01.02-.03.04-.05.04l-.02.01zm.49-.77h.02c.03 0 .04.04.05.06.02.2.07.33.17.4.09.06.21.07.38.03h.03c.06.01.15-.12.22-.23.1-.15.19-.3.32-.29.03 0 .05.02.06.04l.01.04c.12.23.2.39.33.36l.03-.1c.02-.13.07-.34.3-.42l.07.01c.4.39.81.33 1.2.28l.14-.01-1.36-1.25-.47.15-.33.12-.04.03-.8.34a.07.07 0 0 1-.08-.03c-.02-.03-.01-.06 0-.09.11-.1.36-.2.67-.32l-.03-.02c-.09-.07-.17-.14-.48-.2-.1-.04-.18.04-.39.37-.08.13-.21.14-.34.14-.07 0-.14 0-.2.02-.19.04-.23.3-.27.57l-.01.1a.55.55 0 0 1 .42-.01c.02 0 .03.03.04.05s0 .04-.01.06a.5.5 0 0 0-.1.28c.08-.13.19-.24.29-.34.03-.05.07-.08.11-.12l.05-.02zm1.6.4z"/><path fill="#f4f0e8" d="M2.15 3.24c.02.4.07.76.68.66l-.08.74c.41.15.7.1.88 1.52.13-.55.47-.9 1.07-1.3L3.59 3.17c.17-.23.17-.55.14-.88-.2-.06-.25-.24-.28-.47-.31.06-.62.09-.83-.09-.48.11-.96.22-1.14.53.4.05.52.12.58.3a1.2 1.2 0 0 0-.58.83l.67-.15z"/><path fill="#000" d="M3.62 6.23c-.03 0-.06-.03-.07-.06-.15-1.25-.37-1.32-.7-1.42l-.13-.04a.08.08 0 0 1-.05-.07L2.74 4c-.2.03-.36 0-.46-.1-.16-.11-.2-.32-.2-.55l-.6.13c-.02 0-.04 0-.06-.02l-.02-.07c.11-.47.34-.69.56-.83-.05-.1-.17-.17-.5-.21-.02 0-.04-.03-.06-.05v-.07c.2-.33.7-.45 1.18-.56l.07.01c.19.16.47.13.77.08.02 0 .04 0 .06.02l.02.04c.03.25.1.37.24.4.02.01.05.04.05.07.02.33.02.65-.13.9l1.07 1.64c.02.03.02.07-.02.1-.64.42-.92.76-1.03 1.25 0 .04-.02.06-.06.06zm-.8-1.64l.06.02c.38.12.62.24.77 1.24.18-.42.51-.71.94-1.01L3.53 3.2a.09.09 0 0 1 0-.07c.15-.2.15-.5.13-.8-.18-.07-.24-.26-.27-.43-.3.04-.58.06-.8-.1-.39.09-.79.18-.99.4.33.06.46.15.52.34.01.03 0 .06-.03.08-.2.12-.4.29-.52.67l.56-.12.06.01c.02.01.02.04.02.05.02.23.03.44.16.54.1.07.23.09.44.05.02 0 .04 0 .05.02l.02.06-.06.68z"/><path fill="#f4f0e8" d="M5.76 7.87a6.06 6.06 0 0 0 2.5-1.39c.16.95.36 2.36.67 2.58.42.33 1.13.43 1.65.36.48-.04.9-.7.88-1.16-.06-.91-.5-1.2-.75-1.31-1.1-.42-1.78.46-1.32 1.43.18.33 1.03.17.92-.55-.32.26-.5.34-.56 0-.07-.28.08-.73.53-.52.81.49.31 1.56-.43 1.57-.64 0-.85-.4-.9-.87-.12-1.12.43-1.51 1.39-1.58L9.13 5.17c-.5-.56.08-2.34 1.18-2.36 1.5-.01 1.79.64 1.9 1.56.01.64-.3 1.1-.83 1.24-1.7.36-1.75-1.78-.6-2.04.37-.01.74.83.18 1.32-.22-.72-.42-.6-.52-.44-.07.14-.29.68.44.78 1.44.1.9-1.8.16-1.92-1.5-.27-1.88 1.14-1.12 2.08.34.34 1.16 1.03 1.8 1.8.52.54.3 1.7-.4 2.33-.95.71-1.5.15-2.1.2-.3.04-.09.82-.01 1.15.17.5.85.33 1.28.73.17.22-.19.71-.43 1.67-.1.23.25.26.13.68-.05.26-.47.04-.52.28.03.27 0 .59-.17.74-.15.17-.34.28-.56.16-.13-.05-.27-.14-.39-.43-.15.32-.34.36-.52.5-.13-.45.1-.6.14-.93-.08.41-.23.76-.54.72-.1-.24-.05-.47-.48-.53.1-.36.38-.49.51-.66.25-.34.65.48.9.03.3-.26.47-.9.24-1.05-.64-.46-1.82-.6-1.94-.92-.13-.3-.26-.71.07-.89-.09-.8.2-1.45-.26-2.4-.24-.43-.7-.48-.9-.7z"/><path fill="#000" d="M8.04 15.27h-.02c-.02-.01-.04-.04-.04-.06a1.64 1.64 0 0 1-.05-.23.38.38 0 0 1-.3.08.06.06 0 0 1-.05-.04 1.6 1.6 0 0 1-.05-.17c-.05-.17-.08-.28-.37-.33l-.05-.02c-.02-.01-.01-.04 0-.06a.98.98 0 0 1 .36-.53c.06-.05.11-.1.15-.16.15-.21.36-.08.51.02.1.06.2.14.28.11.04 0 .07-.04.1-.1h.02c.19-.17.33-.53.32-.77 0-.06-.02-.15-.08-.17-.3-.22-.73-.37-1.1-.5-.45-.14-.79-.26-.87-.45-.1-.24-.3-.73.07-.96a5.1 5.1 0 0 1 0-.73c.02-.5.04-.98-.26-1.6a1.15 1.15 0 0 0-.57-.46 1.17 1.17 0 0 1-.34-.22c0-.02-.02-.04 0-.07 0-.02.02-.04.04-.05a5.98 5.98 0 0 0 2.48-1.37c.02-.02.05-.02.07-.01s.05.03.05.05l.03.18c.13.86.34 2.17.61 2.36.41.33 1.11.42 1.6.34.44-.03.84-.65.81-1.08-.05-.93-.52-1.17-.7-1.26-.47-.18-.9-.11-1.15.17-.26.28-.29.73-.07 1.17.06.12.26.16.45.1a.5.5 0 0 0 .34-.48c-.16.12-.28.18-.39.14-.11-.04-.16-.17-.17-.27-.04-.2 0-.45.16-.58.09-.07.24-.13.47-.02.38.22.53.59.43.98a.97.97 0 0 1-.89.72c-.58 0-.9-.3-.97-.93-.06-.52.02-.9.24-1.18.22-.26.57-.41 1.06-.47L9.09 5.21c-.27-.3-.27-.9 0-1.5.26-.6.73-.97 1.24-.98 1.47-.01 1.85.62 1.97 1.63.01.68-.32 1.17-.88 1.3-.9.2-1.34-.28-1.45-.76-.12-.56.15-1.26.8-1.4h.02c.2-.01.38.15.48.41.11.3.1.72-.25 1.03-.02.02-.04.02-.06.02s-.04-.03-.05-.05c-.14-.47-.26-.51-.28-.52-.03 0-.07.03-.1.1-.04.07-.13.29-.04.45.06.11.2.2.43.22.65.04.8-.36.82-.6.05-.5-.3-1.12-.68-1.18-.6-.1-1.05.04-1.28.43-.25.43-.16 1.05.22 1.53l.4.38c.4.37.94.88 1.4 1.42.21.22.31.55.3.93a2.23 2.23 0 0 1-.7 1.51c-.7.52-1.18.4-1.6.29-.19-.04-.36-.1-.54-.08-.02 0-.03.02-.05.04-.1.15.02.7.08.96l.01.07c.09.25.32.31.6.38.21.07.46.13.66.32.14.17.05.4-.1.8-.09.25-.2.56-.3.94-.03.07 0 .1.05.17.07.1.16.24.08.5-.04.19-.2.2-.33.2-.12.01-.17.03-.18.07.04.4-.03.66-.19.8-.2.22-.43.29-.64.18a.63.63 0 0 1-.36-.35.73.73 0 0 1-.34.3l-.14.1h-.07zm.53-.64c.02 0 .05.02.06.04a.7.7 0 0 0 .34.4h.01c.16.09.31.04.47-.15.16-.14.17-.45.15-.7v-.01c.04-.17.2-.18.32-.2.13 0 .19-.01.2-.08.06-.21 0-.3-.06-.4-.06-.07-.12-.15-.07-.29.1-.38.22-.7.31-.95.13-.33.2-.55.14-.65-.18-.16-.4-.22-.6-.27-.29-.08-.58-.16-.69-.48l-.01-.08c-.1-.43-.2-.88-.06-1.07a.2.2 0 0 1 .15-.1c.2 0 .39.03.58.08.42.1.85.2 1.48-.26.39-.35.64-.9.65-1.41.02-.34-.08-.63-.26-.83-.46-.54-1-1.04-1.4-1.4l-.4-.39c-.43-.53-.52-1.23-.24-1.7.25-.43.77-.61 1.42-.5.49.08.85.8.8 1.34-.03.24-.18.78-.98.73-.27-.04-.45-.14-.53-.3-.13-.22-.01-.49.02-.58.07-.12.16-.18.25-.17.14.01.26.18.37.5a.78.78 0 0 0 .13-.8c-.08-.19-.21-.33-.34-.33-.55.13-.8.75-.69 1.24.1.43.48.83 1.28.66.49-.13.78-.55.77-1.16-.12-.95-.46-1.51-1.83-1.5-.45.01-.87.35-1.12.9-.23.52-.23 1.09-.01 1.34l1.21 1.26c.02.02.03.05.01.07 0 .03-.03.04-.06.04-.53.04-.9.18-1.1.44-.2.24-.27.59-.22 1.07.06.56.31.8.83.8.39 0 .67-.31.74-.61a.7.7 0 0 0-.35-.82c-.13-.06-.24-.06-.31 0-.12.09-.15.3-.12.44.02.1.05.16.09.17.07.03.28-.14.36-.2.02-.02.05-.02.07-.02s.04.03.04.06c.07.43-.17.67-.42.76-.26.08-.53.01-.63-.16-.24-.5-.2-1 .1-1.33.3-.33.79-.4 1.3-.2h.01c.31.15.73.47.78 1.37.02.5-.41 1.2-.93 1.23-.5.08-1.25 0-1.7-.37-.3-.2-.47-1.22-.67-2.44v-.04A6.37 6.37 0 0 1 5.88 7.9l.2.11c.2.1.47.24.63.53a3 3 0 0 1 .27 1.67c-.01.24-.02.49 0 .75 0 .03 0 .05-.03.07-.25.13-.2.41-.04.8.05.13.42.26.78.38.38.13.82.28 1.13.5.08.06.13.15.14.29.02.28-.14.68-.35.87-.06.08-.12.14-.2.15-.13.03-.25-.04-.38-.13-.19-.12-.26-.15-.32-.06-.05.07-.11.12-.17.17a.88.88 0 0 0-.3.4c.3.07.35.24.4.4l.03.12c.1 0 .2-.06.27-.18l.07-.2c.02-.06.05-.13.06-.2l.02-.09c.01-.04.04-.06.09-.06.03.01.06.05.05.08l-.02.1c-.03.14-.08.29-.14.4a.68.68 0 0 0 0 .3l.05-.03c.13-.09.25-.16.36-.38a.15.15 0 0 1 .07-.03z"/><path fill="#f4f0e8" d="M3.62 6.21c.2-.4.27-1.05 1.8-1.55.06-.08-.12-.3 0-.35.5-.08 1.32-.16 1.31-.65-.24-.54-.97-.4-1.45-.38l-.05-.76.35-.12-.37.09c-.03-.25.2-.48.48-.56a6.19 6.19 0 0 1 2.12.04c.23.25.47.36.66.82.28 1.74.07 3.31-.28 3.66a7.5 7.5 0 0 1-2.47 1.42 4.01 4.01 0 0 1-2.1-1.66z"/><path fill="#000" d="M5.72 7.93H5.7a4.02 4.02 0 0 1-2.13-1.68.08.08 0 0 1-.01-.07l.08-.17c.17-.4.4-.96 1.73-1.4l-.03-.08c-.03-.08-.09-.23.05-.28h.01l.1-.02c.49-.07 1.15-.17 1.15-.56-.2-.4-.74-.36-1.19-.33l-.18.01a.08.08 0 0 1-.08-.06l-.05-.76-.02-.03c-.03-.3.25-.55.53-.64h.02a6.3 6.3 0 0 1 2.18.07l.18.17c.17.16.34.32.49.66v.02c.3 1.73.08 3.35-.29 3.72-.6.5-1.2.96-2.5 1.43h-.02zM3.7 6.2c.38.58.9 1.16 2.01 1.59a7.16 7.16 0 0 0 2.44-1.4c.3-.3.54-1.82.25-3.58a1.6 1.6 0 0 0-.45-.61l-.18-.17A6.03 6.03 0 0 0 5.71 2c-.2.06-.4.21-.42.4l.27-.07c.04-.01.07.01.09.05s-.01.07-.05.08l-.3.1.06.64h.11c.46-.04 1.1-.09 1.34.43v.02c.01.52-.73.64-1.26.71l-.1.02.03.1c.03.07.06.14.02.2 0 .02-.02.04-.04.04-1.3.43-1.52.95-1.68 1.34l-.07.14zM3 3.31l-.04-.01a2.11 2.11 0 0 1-.3-.26c-.17-.17-.32-.32-.58-.37a.07.07 0 0 1-.06-.09c0-.03.04-.06.08-.05.3.06.48.23.66.4.09.09.18.17.29.25.02.02.03.06 0 .1 0 .02-.03.03-.05.03z"/><path fill="#000" d="M6.39 2.57c-.24 0-.3-.2-.33-.33L6 2.1c-.02-.04-.01-.07.02-.09.04-.01.08 0 .1.03l.05.16c.05.16.08.23.2.23.12-.02.13-.12.15-.26l.02-.15c.01-.03.05-.05.07-.05.04 0 .06.03.07.06l.02.18.24.1c.03.01.05.05.03.09-.01.03-.05.05-.09.03l-.24-.11c-.03.1-.08.2-.23.25h-.04zM3.5 3.3c-.02 0-.04 0-.05-.03l-.12-.16c-.25-.35-.57-.8-.62-1.21-.01-.04.02-.08.06-.08.04 0 .08.02.08.06.05.4.36.81.6 1.15l.11.16c.03.04.02.08-.02.1H3.5z"/><path fill="#000" d="M3.26 2.52a.52.52 0 0 1-.38-.14c-.03-.03-.03-.07 0-.1s.07-.03.1 0c.14.14.32.1.47.08l.1-.01a.1.1 0 0 1 .09.06c0 .04-.03.07-.07.08l-.09.01-.22.02zm2.3 2.25h-.12c-.06 0-.11-.05-.1-.11s.05-.11.11-.1c.4.01 1.15-.04 1.79-.56.26-.23.33-.7.38-1.1.05-.34.09-.64.23-.81.03-.04.1-.05.15-.02s.05.11.01.15c-.1.14-.14.41-.18.7-.07.45-.13.96-.46 1.24-.63.52-1.36.6-1.81.6z"/><path fill="#000" d="M4.05 6.77h-.03a.11.11 0 0 1-.07-.14C4.3 5.56 5.07 5.4 5.89 5.21l.34-.08c1-.27 1.84-1.14 2.08-1.64.1-.21.09-.3.08-.33v-.03c-.04-.48-.42-.86-.6-1.04l-.01-.02c-.04-.04-.04-.1 0-.14s.1-.05.15 0l.01.01c.2.2.6.61.65 1.16.05.12.01.28-.09.48a3.9 3.9 0 0 1-2.22 1.76l-.35.07c-.78.18-1.46.33-1.78 1.29a.1.1 0 0 1-.1.07z"/><path fill="#000" d="M4.54 7.24h-.03a.11.11 0 0 1-.07-.14c.31-.95.9-1.07 1.5-1.21.19-.05.38-.09.57-.16.7-.24 2-.67 1.92-2.17-.01-.05.04-.1.1-.1s.1.03.1.09C8.76 5.2 7.3 5.69 6.6 5.93c-.2.07-.4.12-.6.17-.6.13-1.07.23-1.34 1.07-.02.04-.06.07-.1.07z"/><path fill="#000" d="M5.1 7.74l-.04-.01C5 7.7 4.98 7.64 5 7.59c.4-.87 1-1.04 1.64-1.2l.53-.16h.02c.38-.13 1.28-.44 1.28-1.72 0-.05.04-.1.1-.1.06 0 .1.05.1.1.01 1.43-1.02 1.78-1.42 1.92l-.54.16c-.64.16-1.16.3-1.52 1.08a.1.1 0 0 1-.1.06zm-3.92 0l-.03-.01c-.04-.02-.05-.06-.04-.1.14-.3.43-.94.9-.8.04.02.06.06.05.1a.08.08 0 0 1-.09.05c-.35-.12-.6.45-.73.73a.09.09 0 0 1-.06.03zM7.5 2.5c-.02 0-.04 0-.05-.02 0-.01-.18-.22-.2-.53 0-.04.04-.07.08-.07.03 0 .07.03.07.07.01.26.15.44.16.44.02.03.02.08 0 .1l-.06.01zM2.3 6.7h-.02a1.84 1.84 0 0 0-.56-.1c-.04 0-.07-.04-.06-.08s.04-.07.08-.06c.21.01.43.03.6.1.03.02.05.06.03.1-.01.03-.04.04-.06.04zm5.19 7.9l-.04-.01a.08.08 0 0 1-.02-.1c.19-.25.57-.28.73-.29.04 0 .07.03.08.06s-.03.07-.06.08c-.16.01-.5.04-.63.23-.01.02-.03.03-.06.03zm-4.81.25c-.04 0-.06-.02-.07-.06s-.11-.88.03-1.18c.01-.04.05-.05.09-.04s.05.06.03.1c-.1.21-.04.87-.02 1.1.01.03-.02.07-.06.08z"/><path fill="#f4f0e8" d="M6.65 3.55c.05.14 0 .36-.19.35-.57.05-1.43.15-1.78.1-.28-.05-.49-.27-.49-.5 0-.22 0-.6.47-.59.42-.01.54.42.28.53-.14-.26-.41-.25-.39-.03.05.1.04.13.33.23a6.2 6.2 0 0 0 1.77-.09z"/><path fill="#000" d="M4.92 4.09l-.25-.02c-.3-.05-.54-.3-.55-.56 0-.15 0-.4.16-.54.09-.09.21-.13.38-.12.28-.01.45.15.49.31a.3.3 0 0 1-.17.35c-.04.01-.07 0-.1-.03-.06-.13-.17-.17-.22-.15-.03 0-.04.04-.03.07v.02c.03.06.05.1.27.17.52.07 1.28-.03 1.68-.09h.06c.03-.01.06 0 .08.04.04.1.02.24-.04.33a.24.24 0 0 1-.21.11l-.4.03c-.4.03-.84.07-1.15.07zm-.3-1.1c-.11 0-.2.03-.25.08-.11.1-.11.32-.11.44 0 .2.19.39.42.43.26.03.85-.02 1.36-.07.15 0 .28-.02.4-.03h.02c.04 0 .07-.01.1-.05.02-.04.03-.1.02-.15-.41.05-1.19.16-1.72.08h-.02c-.26-.08-.3-.13-.35-.23l-.01-.03v-.03c-.02-.14.05-.22.13-.24.1-.03.23.02.34.16.04-.04.05-.1.04-.14-.03-.1-.14-.22-.34-.21l-.03-.01z"/><path fill="#f4f0e8" opacity=".99" d="M6.42 2.12c0 .03-.03.07-.06.07s-.06-.03-.06-.07c0-.04.02-.07.06-.07.03 0 .05.03.06.07z"/><path fill="#000" opacity=".99" d="M6.36 2.26a.14.14 0 0 1-.1-.04.17.17 0 0 1-.04-.1c0-.08.06-.14.14-.14.03 0 .07.01.09.03.03.03.04.07.04.1 0 .08-.06.15-.13.15zm0-.14z"/><path fill="#f4f0e8" d="M8.06.84a.3.3 0 0 0-.27.15.3.3 0 0 0-.2-.06c-.15 0-.24.1-.24.24 0 .1.05.18.16.22 0 .07-.05.14-.13.19h-.33c-.07-.05-.12-.1-.12-.18.17.03.26-.15.27-.24 0-.13-.08-.21-.23-.22-.04-.1-.15-.18-.28-.18s-.25.08-.28.18c-.15.01-.23.12-.23.24s.09.23.24.23l.04-.01a.23.23 0 0 1-.13.18H6c-.08-.04-.13-.11-.13-.19a.2.2 0 0 0 .17-.2c0-.13-.1-.25-.25-.25a.34.34 0 0 0-.2.07C5.56.9 5.46.86 5.33.86a.38.38 0 0 0-.27.14c.24.15.6.58.65.9a7.64 7.64 0 0 1 2.1.03c.04-.33.26-.8.5-.96-.05-.09-.14-.13-.24-.13z"/><path fill="#000" d="M7.81 1.99a7.23 7.23 0 0 0-2.07-.02c-.04 0-.07-.02-.08-.06a1.6 1.6 0 0 0-.62-.86C5.02 1.05 5 1.02 5 1s0-.04.02-.06c.07-.1.17-.15.31-.17.13 0 .23.05.3.13A.36.36 0 0 1 5.8.86c.18 0 .32.13.32.3 0 .13-.06.22-.16.27l.07.07h.28c.02 0 .03-.02.05-.03a.29.29 0 0 1-.24-.29c0-.16.1-.27.24-.3A.36.36 0 0 1 6.7.69c.15 0 .27.07.34.19.15.02.25.13.25.28 0 .07-.05.18-.14.25a.24.24 0 0 1-.1.05c0 .02.02.03.04.05h.29l.06-.08a.28.28 0 0 1-.15-.26c0-.09.02-.16.08-.22s.14-.1.23-.1c.06 0 .12.02.17.05a.4.4 0 0 1 .29-.13c.12 0 .23.06.32.15.01.02.02.04.01.06l-.03.05c-.22.16-.43.6-.47.9 0 .04-.03.06-.07.06zm-1.2-.23c.4 0 .77.04 1.15.08.06-.3.24-.69.45-.88A.24.24 0 0 0 8.06.9c-.1 0-.18.04-.21.11 0 .02-.03.03-.05.03h-.06A.22.22 0 0 0 7.6.98c-.06 0-.1.02-.13.05a.17.17 0 0 0-.04.12c0 .08.03.13.1.15.04 0 .06.03.06.07 0 .1-.06.19-.16.25h-.4a.3.3 0 0 1-.17-.23l.02-.06c.01-.02.04-.02.07-.01.04 0 .07 0 .1-.03.05-.04.08-.1.09-.14 0-.09-.06-.14-.16-.15A.07.07 0 0 1 6.9.96a.21.21 0 0 0-.19-.13c-.1 0-.2.06-.22.13 0 .03-.04.05-.06.05-.1.01-.16.07-.16.17s.07.16.16.16l.05-.01c.02 0 .04 0 .05.02.02.01.02.04.02.06a.3.3 0 0 1-.17.23h-.4c-.1-.06-.16-.15-.16-.25 0-.03.02-.06.05-.07.08-.02.12-.07.11-.15 0-.07-.05-.16-.18-.16-.05 0-.1.02-.15.04-.01.02-.03.03-.05.02l-.05-.04a.24.24 0 0 0-.2-.1.29.29 0 0 0-.18.05c.23.17.52.52.6.84.3-.04.57-.06.84-.06z"/><path fill="#f4f0e8" opacity=".99" d="M12.8 25.7a2.23 2.23 0 1 1 0-4.47 2.23 2.23 0 0 1 0 4.46zm0-4.23a2 2 0 0 0 0 4 2 2 0 0 0 0-4z"/><path fill="#0039a6" d="M10.8 23.67c.2.18 1.33-.06 1.55-.38-.05-.4-.64-1.13-.99-1.12-.4.1-.69 1.09-.57 1.5z"/><path fill="#000" d="M11.08 23.8c-.13 0-.26-.02-.33-.08l-.03-.03c-.08-.3.02-.87.24-1.24.11-.2.25-.32.38-.35h.02c.39 0 1 .74 1.06 1.19 0 .01 0 .03-.02.04-.15.23-.66.4-1.09.45l-.23.02zm-.22-.18c.05.03.2.05.45.02.42-.06.85-.21.97-.37-.07-.4-.62-1.03-.91-1.03-.1.03-.2.12-.29.28-.18.31-.29.84-.22 1.1z"/><path fill="#0039a6" d="M14.81 23.71c-.2.19-1.34-.04-1.56-.37.06-.4.65-1.13 1-1.12.47.1.68 1.1.57 1.5z"/><path fill="#000" d="M14.53 23.85c-.09 0-.17 0-.25-.02-.42-.05-.93-.22-1.08-.44a.13.13 0 0 1-.02-.05c.07-.45.67-1.19 1.06-1.19h.02c.15.03.3.15.4.34.24.38.3.96.22 1.25l-.02.03c-.07.06-.2.08-.33.08zm.29-.14zm-1.5-.38c.14.15.56.31.97.36.26.04.4.02.46-.02.07-.26 0-.79-.2-1.1-.07-.11-.17-.24-.31-.28-.28 0-.83.63-.91 1.04z"/><path fill="#0039a6" d="M12.02 21.63c-.12.26.4 1.29.76 1.42.38-.17.99-.95.89-1.28-.27-.43-1.29-.35-1.65-.14z"/><path fill="#000" d="M12.78 23.12l-.02-.01c-.25-.1-.55-.54-.7-.94-.09-.19-.16-.44-.1-.57l.04-.03c.39-.24 1.45-.3 1.74.16v.02c.12.39-.53 1.2-.92 1.36h-.04zm-.7-1.44a.9.9 0 0 0 .1.44c.16.4.42.76.6.85.36-.18.9-.88.83-1.17-.26-.38-1.18-.31-1.53-.12z"/><path fill="#0039a6" d="M12.23 25.42c.26-.12.52-1.19.33-1.52-.39-.13-1.3.08-1.44.4-.12.56.7 1.05 1.11 1.12z"/><path fill="#000" d="M12.23 25.49h-.01a1.83 1.83 0 0 1-1.04-.66.7.7 0 0 1-.13-.55v-.01c.17-.35 1.11-.58 1.54-.44a.1.1 0 0 1 .04.04c.14.24.07.77-.06 1.14-.06.19-.16.41-.3.47h-.04zm-1.04-1.17c-.03.14 0 .28.1.42.21.32.67.54.93.6a.89.89 0 0 0 .21-.37c.13-.38.17-.83.08-1.02-.39-.1-1.2.12-1.32.37z"/><path fill="#0039a6" d="M14.6 24.5c-.07-.27-1.13-.73-1.5-.6-.18.36-.2 1.37.14 1.53.35.06 1.27-.5 1.36-.93z"/><path fill="#000" d="M13.3 25.5h-.09c-.1-.06-.17-.16-.22-.32a2.1 2.1 0 0 1 .06-1.32c0-.01.02-.03.04-.03.25-.1.76.06 1.14.26.18.1.4.24.44.4v.02c-.1.45-.94 1-1.37 1zm-.03-.13c.33.04 1.16-.48 1.26-.86-.03-.06-.14-.16-.36-.29-.37-.2-.81-.3-1-.27-.12.26-.16.83-.05 1.19.04.12.08.2.15.23z"/></svg>