<svg version="1.1" xmlns="http://www.w3.org/2000/svg" viewBox="0 0 21 32"><path fill="#078930" d="M.96 14.71h18.92v8.11c0 5.4-5.13 6.76-9.46 8.92C6.37 29.58.96 28.23.96 22.82z"/><path fill="#fff" stroke="#000" stroke-width=".27" stroke-miterlimit="4" stroke-linecap="round" stroke-linejoin="round" d="M5.81 23.07c-1.16.14-2.19 1.23-2.22 2.32s.76 1.93 1.34 2.08 1.81-.04 2.4-.76l2.02 1.73.58-.72-2.79-2.01c-.67.6-1.81 1.16-2.33.38s.22-2.21 1-3.01zm9.75-6.53l.03-.51-.83.03.05.48-.64.17-.23-.47-.71.55.3.35-.32.53-.49-.23-.22.84.47.11-.03.65-.51.09.3.82.47-.2.34.43-.3.4.7.56.3-.47.54.2-.01.46.78-.01-.01-.47.56-.2.26.5.67-.54-.35-.35.39-.5.54.28.32-.84-.52-.1-.02-.72.53-.1-.27-.89-.51.27-.39-.53.37-.36-.73-.57-.3.48zm0 .88l-.22 1.02 1.03-.43.16.76h-1.08l.76.7-.6.49-.43-1.03-.49 1.03-.65-.54.82-.65-.98-.16.27-.7.81.53-.21-1.02z"/><path fill="#fff" d="M.96 7.96h18.92v6.75H.96V7.96z"/><path fill="#da121a" stroke="#000" stroke-width=".27" stroke-miterlimit="4" stroke-linecap="butt" stroke-linejoin="miter" d="M.96 9.04h2.7v1.62h2.7V9.04h2.71v1.62h2.7V9.04h2.7v1.62h2.71V9.04h2.7V12h-2.7v1.62h-2.7V12h-2.7v1.62h-2.7V12H6.36v1.62h-2.7V12H.97z"/><path fill="#fff" stroke="#000" stroke-width=".27" stroke-miterlimit="4" stroke-linecap="round" stroke-linejoin="round" d="M14.61 18.13h1.16v1.2h-1.16v-1.2zM.96 14.71H2.8a7.14 7.14 0 0 1 2.1 2.5c.53.96.76 1.95 1.1 2.12s2.08-.14 3.3.12c1.24.27 2.21 3.05 3.03 3.45s2.62-.19 3.6.29 1.99 2.04 2.81 3.28a6.24 6.24 0 0 1-1.96 1.87c-.92-.88-1.6-2.17-2.79-2.6s-2.34.62-3.47.1-1.11-2.8-2.05-3.4-2.89.24-4.3-.22-2.28-3.45-3.2-4.53z"/><path fill="#fff" stroke="#000" stroke-width=".27" stroke-miterlimit="4" stroke-linecap="butt" stroke-linejoin="miter" d="M2.64 3.9V1.52l-.7-.27V.28h.65v.27h.59V.28h.6v.27h.59V.28h.6v.27h.59V.28h.65v.97l-.65.27V3.9m3.31.01V1.53l-.7-.27V.3h.64v.27h.6V.3h.6v.27h.59V.3h.6v.27h.59V.3h.65v.97l-.65.27v2.38m3.06-.02V1.52l-.7-.27V.28h.64v.27h.6V.28h.6v.27h.59V.28h.6v.27h.59V.28h.65v.97l-.65.27V3.9"/><path fill="#fff" d="M1.44 3.92h17.34v3.5H1.44v-3.5z"/><path fill="#000" d="M1.72 7.39V4.55h1.14V3.9h.43v.65h1.67V3.9h.44v.65h1.67V3.9h.38v.65h1.68V3.9h.32v.65h1.68V3.9h.37v.65h1.57V3.9h.43v.65h1.63V3.9h.43v.65h1.62V3.9h.43v.65h.92V7.4h.65V4.55h1.13v-1.3H18.7v.65h-.48v-.65h-1.68v.65h-.43v-.65h-1.57v.65h-.38v-.65h-1.67v.65h-.38v-.65h-1.57v.65h-.43v-.65H8.58v.65H8.1v-.65H6.48v.65h-.5v-.65H4.32v.65h-.43v-.65H2.26v.65h-.43v-.65H.2v1.3h.86v2.82z"/><path fill="none" stroke="#000" stroke-width=".27" stroke-miterlimit="4" stroke-linecap="butt" stroke-linejoin="miter" d="M10.73 5.37a.5.5 0 1 1-1 0 .5.5 0 0 1 1 0z"/><path fill="none" stroke="#000" stroke-width=".4" stroke-miterlimit="4" stroke-linecap="butt" stroke-linejoin="miter" d="M11.93 6.47c0 .17-.19.31-.42.31s-.41-.14-.41-.3c0-.17.18-.31.41-.31s.42.13.42.3zm-2.51.03c0 .17-.18.31-.4.31s-.4-.14-.4-.3c0-.18.17-.31.4-.31s.4.13.4.3z"/><path fill="#000" d="M11.18 7.36H9.34s-.22-1.57.87-1.62c.76 0 1.02.92.97 1.62zm-8-5.4h.7v.92h-.7v-.92zm1.13-.01h.7v.92h-.7v-.92zm3.89-.8l4.15-.01-.47.49H8.8zm1.2.81h.7v.92h-.7v-.92zm1.14 0h.7v.92h-.7v-.92zm3.65-.82l4.14-.01-.45.5h-3.13zm1.21.82h.7v.92h-.7v-.92zm1.13 0h.7v.92h-.7v-.92zM1.98 1.14l4.14-.01-.5.5H2.57z"/><path fill="none" stroke="#000" stroke-width=".27" stroke-miterlimit="4" stroke-linecap="round" stroke-linejoin="round" d="M1.67 4.5c.7-.06 1.54.23 1.98.9.48-.77 1.31-.9 1.9-.9s1.4.15 1.83.91c.65-.81 1.93-1.03 2.88-1.03.92 0 2.45.22 2.99 1.03.43-.76 1.23-.96 1.88-.96s1.3.22 1.83.92c.24-.76 1.14-.87 1.73-.87m-17.02.54c.54-.14 1.62.47 1.62.75v.87c0 .21.7.21.7 0v-.87c0-.32.81-.76 1.57-.75s1.46.43 1.46.75v.87c0 .21.7.21.7 0v-.87c0-.32 1.42-.9 2.49-.91s2.7.59 2.7.91v.87c0 .21.7.21.7 0v-.87c0-.27.82-.75 1.52-.75s1.51.48 1.51.75v.87c0 .21.65.21.65 0v-.87c0-.32.87-.86 1.35-.78m-9.8 1.16c.08-.33.38-.7.8-.83m-1 2.02c-.01-.2 0-.5.02-.69m2.99-.53a1.32 1.32 0 0 0-.91-.81m1.15 2.08c-.02-.27-.02-.53-.06-.73M1.03 16.92c.46-.2 1.87.94 2.7 1.64m1.59 2.2c-.38.83-1.24 1.14-1.97.8m4.6-.36c-1.65.2-3.46 1.03-4.56-1.54 1.06.39 2.16 1.07 3.08.34m2.33 2.8c.4.46.78.72 1.15.72L9.7 21.8l.45.69-.18-1.12.6.86a4.5 4.5 0 0 0-.53-2.3m1.34 5.19c.97.17 1.73-.34 2.24-.68m3.58 3.46c-.61-1.07-1.22-1.7-1.99-2.63-.65-.78-2.23-.91-3.15-1.82.94.07 1.66.14 2.02-.4M.98 17.18c1.44.92 2.8 3.6 4.37 3.58 1.84-.04 3.23.31 4.1 1.85.5.91 1.03 2.03 1.71 2.38.84.5 2.72.5 3.32.97m3.34 1.49c-1.5-2.73-3.37-3.06-5.32-3.09-1.7-.03-2.04-1.67-2.87-2.67-.77-1.7-2.66-1.58-4.4-1.89-.93-.17-1.88-1.9-2.7-2.81-.51-.57-.73-1.12-1.57-1.7m.82-.53c1.73 1.33 2.58 4 3.92 4.63 1.35.64 3.1-.57 4.48 2.35a4.17 4.17 0 0 0 4.45 1.91c.81-.17 2.64 2.26 3.74 3.39a12.12 12.12 0 0 0-2.3-3.77"/><path fill="none" stroke="#000" stroke-width=".76" stroke-miterlimit="4" stroke-linecap="round" stroke-linejoin="miter" d="M.54 7.71l19.6.03"/><path fill="none" stroke="#000" stroke-width=".43" stroke-miterlimit="4" stroke-linecap="butt" stroke-linejoin="miter" d="M.96 7.96v14.86c0 5.4 5.14 6.49 9.38 8.8 4.4-2.31 9.54-3.4 9.54-8.8V7.95"/><path fill="#000" d="M15.36 18.69a.19.19 0 1 1-.38 0 .19.19 0 1 1 .38 0z"/><path fill="none" stroke="#000" stroke-width=".43" stroke-miterlimit="4" stroke-linecap="butt" stroke-linejoin="miter" d="M.96 14.71h18.92"/><path fill="#fff" d="M8.77 7.3h.57v.55h-.57V7.3zm2.41 0h.57v.56h-.57V7.3z"/></svg>