<svg version="1.1" xmlns="http://www.w3.org/2000/svg" viewBox="0 0 19 32"><path fill="#010202" d="M18.35 8.59a.2.2 0 0 0-.01.07v.02l.02 11.66c0 .42 0 .84-.02 1.26a9.83 9.83 0 0 1-1.06 4.13 9.94 9.94 0 0 1-1.76 2.38c-.8.8-1.7 1.5-2.68 2.07-.83.5-1.73.96-2.66 1.36q-.63.26-1.15.45l-.06.02-.06-.02A21.5 21.5 0 0 1 5.17 30a13.1 13.1 0 0 1-2.58-2.27 9.24 9.24 0 0 1-2.24-5.22 21.11 21.11 0 0 1-.08-2.66v-.9Q.3 13.83.3 8.71v-.03c0-.08 0-.09-.09-.1a.23.23 0 0 1-.17-.15.52.52 0 0 1-.01-.36.3.3 0 0 1 .19-.2.78.78 0 0 1 .25-.07c.08 0 .08 0 .08-.08V5.7a.15.15 0 0 0-.05-.12L.2 5.3a.13.13 0 0 1-.04-.1l.01-1.46c0-.07 0-.07.08-.08h.18c.03 0 .05-.01.05-.03V1.54c0-.05-.03-.1-.07-.13-.07-.04-.13-.1-.19-.15a.1.1 0 0 1-.05-.09V.08C.17.01.2 0 .24 0h.62c.06 0 .06 0 .06.06v.37C.92.48.92.5.98.5h.42c.03 0 .05-.02.05-.04V.08c0-.05 0-.07.06-.07h.69c.02 0 .04.02.04.05v.38c0 .05 0 .07.06.07h.4c.03 0 .04-.02.04-.04V.05c0-.03.02-.05.04-.05h.72c.03 0 .05.02.05.05v.38c0 .07 0 .07.06.07h.28c.05 0 .06 0 .05-.05V.07c0-.05.02-.06.07-.06h.66c.03 0 .05.02.05.05V1.2a.1.1 0 0 1-.04.08l-.19.17a.12.12 0 0 0-.04.1L4.42 3.6c0 .09 0 .09.07.09h.15c.07 0 .07 0 .07.07v.68c0 .13 0 .13.13.13h.42c.03 0 .05-.02.05-.04v-.57c0-.08 0-.08.09-.08h.81c.08 0 .08 0 .08.08v.53c0 .07 0 .07.07.07h.47c.1 0 .08 0 .08-.09v-.7c0-.08 0-.08.08-.08h.2c.02 0 .04-.02.04-.04V1.58c0-.06-.03-.1-.07-.14l-.21-.15a.1.1 0 0 1-.05-.09V.05a.05.05 0 0 1 .07-.04h.66c.06 0 .06 0 .06.06v.39c0 .02.02.04.05.04h.43c.02 0 .04-.02.04-.04V.08c0-.05.01-.06.06-.06h.7c.05 0 .06 0 .06.05v.36c0 .08 0 .08.08.08h.32c.09 0 .08.01.08-.07V.06c0-.02.02-.04.04-.04h.68c.05 0 .06.02.06.07v.37c0 .03.02.05.05.05h.35c.03 0 .05-.02.05-.06V.06a.04.04 0 0 1 .06-.04h.7c.03 0 .05.01.05.04V1.2a.1.1 0 0 1-.04.08l-.2.17a.12.12 0 0 0-.03.1V3.6c0 .06 0 .06.08.06h.17c.07 0 .07 0 .07.07v.69c0 .12-.02.11.11.11h.51a.05.05 0 0 0 .05-.07v-.53c0-.07 0-.07.08-.07h.8c.08 0 .08 0 .08.07v.55c0 .06 0 .07.07.07h.55c.07 0 .07 0 .07-.08v-.72c0-.08 0-.08.07-.08h.17c.03 0 .05-.02.05-.04V1.56a.15.15 0 0 0-.1-.14l-.2-.16a.1.1 0 0 1-.05-.08V.08c0-.05.01-.07.06-.07h.59c.07 0 .07 0 .07.07v.38a.04.04 0 0 0 .06.04h.4c.05 0 .06-.02.06-.06V.05c0-.02.02-.04.05-.04h.68a.05.05 0 0 1 .04.06v.38c0 .04 0 .06.05.06h.35c.05 0 .05-.02.05-.05V.07a.05.05 0 0 1 .07-.04h.66c.02 0 .04.02.04.04v.38c0 .07 0 .07.06.07h.27c.03 0 .05-.02.05-.04V.1c0-.07 0-.07.07-.07h.7a.05.05 0 0 1 .05.06v1.12a.1.1 0 0 1-.04.08l-.17.17a.13.13 0 0 0-.04.1V3.6c0 .07 0 .07.08.07h.23c.02 0 .04.02.04.04v.44l.03 1.22c0 .04-.02.08-.05.1l-.26.27a.12.12 0 0 0-.04.09v1.93c0 .06 0 .06.07.06.14.01.28.05.4.1.08.05.15.12.19.22l.02.12c0 .17-.14.31-.3.33z"/><path fill="#f4f0e8" d="M17.85 17.6l.01-.04.01-.04a.1.1 0 0 0-.01-.05.1.1 0 0 0-.1-.02.34.34 0 0 0-.12.06.61.61 0 0 1-.5.08l-.18-.01c-.2 0-.37.05-.53.14l-.05.03a.13.13 0 0 1-.2-.1l-.15-.43c-.28-.77-.58-1.42-.9-2.06l-.29-.47c-.17-.3-.32-.63-.43-.99a1.89 1.89 0 0 1-.06-.91.61.61 0 0 1 .09-.22c.06-.1.17-.18.3-.18h.04c.07 0 .14.01.2.03.07.02.13.09.13.17a.2.2 0 0 1-.03.11.6.6 0 0 1-.18.19l-.22.12c-.1.04-.1.08-.01.13l.1.06a1.19 1.19 0 0 0 .49.06.5.5 0 0 0 .33-.13c.04-.04.08-.08.13-.05s.04.1.03.14c-.04.2-.1.39-.13.57a4.64 4.64 0 0 0-.15.95c0 .14.02.27.05.4.09.42.37.68.8.78a1.01 1.01 0 0 0 .45.01.45.45 0 0 0 .33-.27.95.95 0 0 0 .05-.4 2.09 2.09 0 0 0-.12-.71c0-.05.02-.1.05-.12a.9.9 0 0 1 .22-.19.38.38 0 0 0 .1-.08.05.05 0 0 0 .02-.04.05.05 0 0 0-.03-.05.27.27 0 0 0-.13-.04h-.1c-.15 0-.28.03-.4.07a.3.3 0 0 0-.18.25 1.9 1.9 0 0 0 0 .6l.02.13-.02.18c-.03.1-.09.13-.17.06l-.04-.02c-.28-.21-.34-.43-.22-.75.05-.18.14-.35.21-.51.14-.32.24-.68.25-1.07.01-.37-.09-.68-.37-.94-.04-.03-.04-.05 0-.09.1-.11.19-.24.25-.38a.64.64 0 0 0 .05-.42.57.57 0 0 0-.37-.37 2.02 2.02 0 0 0-.55-.14 2.2 2.2 0 0 1-.46-.08.91.91 0 0 1-.34-.2c-.12-.1-.14-.2-.05-.38a.2.2 0 0 1 .17-.1h.04c.1 0 .2.02.29.06l.41.17a1.23 1.23 0 0 0 .35.09c.1 0 .2-.04.28-.1.1-.1.19-.21.24-.35a.26.26 0 0 0-.02-.25.1.1 0 0 0-.17-.04c-.13.12-.3.12-.46.12a1.5 1.5 0 0 1-.47-.08 1.39 1.39 0 0 0-1.05.1c-.3.13-.41.37-.38.75.02.22.17.4.37.46.16.05.34.1.52.11.16.02.29.06.4.12.11.05.19.16.19.3v.03a.3.3 0 0 1-.22.28c-.1.03-.21.05-.33.06-.2.01-.38.05-.55.1a.95.95 0 0 0-.6.52 2.11 2.11 0 0 0 .09 1.8l.31.6c.37.66.78 1.48 1.14 2.32a3.28 3.28 0 0 1 .23.75v.02c0 .04-.03.07-.07.07a3.36 3.36 0 0 0-1.02.3c-.1.03-.15.02-.19-.04a.2.2 0 0 1 .03-.23.35.35 0 0 1 .12-.06.5.5 0 0 0 .1-.05c.05-.03.04-.06 0-.1a.3.3 0 0 0-.1-.05.77.77 0 0 0-.38-.03.44.44 0 0 0-.36.38 1.18 1.18 0 0 0 .06.63c.02.07.06.14.11.2a.37.37 0 0 0 .5.07l.21-.14c.13-.09.27-.18.43-.25a.73.73 0 0 1 .28-.1c.08 0 .15.03.2.08a.2.2 0 0 1 .08.12.85.85 0 0 1-.01.36c-.04.26-.1.52-.17.78 0 .03-.03.06-.06.06h-1.16a.06.06 0 0 1-.07-.06.95.95 0 0 0-.17-.3 8.57 8.57 0 0 0-1.5-1.47.72.72 0 0 1-.17-.18.1.1 0 0 1 .06-.16.4.4 0 0 1 .11 0h.05a.5.5 0 0 0 .12-.01.17.17 0 0 0 .13-.2c0-.06-.02-.1-.04-.15v-.02c0-.02 0-.03.02-.04a.28.28 0 0 0 .07-.29 1.89 1.89 0 0 0-.28-.59c0-.01 0-.03.02-.04a.22.22 0 0 0 .02-.17.85.85 0 0 0-.1-.28c-.04-.1-.08-.17-.13-.25a.86.86 0 0 0 .4-.49.2.2 0 0 0 .01-.06.16.16 0 0 0-.03-.1c-.07-.1-.12-.23-.17-.36a.5.5 0 0 1-.03-.15c0-.1.03-.13.13-.14l.09-.01c.07 0 .13-.07.13-.15 0-.02 0-.05-.02-.07a3.31 3.31 0 0 1-.15-.75v-.05c0-.09.05-.17.12-.2a.52.52 0 0 0 .26-.34.05.05 0 0 0-.04-.05 1.73 1.73 0 0 1-.21-.18.68.68 0 0 1-.13-.17.19.19 0 0 1 .02-.22 1.16 1.16 0 0 0 .22-.6.04.04 0 0 0-.04-.04.78.78 0 0 1-.23-.08.44.44 0 0 1-.22-.48c0-.02.02-.05.04-.05.07 0 .13-.06.14-.12.09-.32.33-.5.56-.7l.02-.02.02-.01a.43.43 0 0 0-.2-.14 1.35 1.35 0 0 0-.36-.08 2.57 2.57 0 0 0-.39 0h-.01a.22.22 0 0 1-.19-.1 2.1 2.1 0 0 1-.37-.77c-.02-.1-.02-.1-.1-.12h-.1a.5.5 0 0 0-.46.3.08.08 0 0 1-.1.03h-.1c-.16 0-.3.04-.4.13a.06.06 0 0 1-.05.01c-.02 0-.04 0-.05-.02a3.18 3.18 0 0 0-.49-.35 1.43 1.43 0 0 0-.37-.15.5.5 0 0 0-.22 0c-.07.01-.07.05-.03.1.13.16.23.36.28.58a.62.62 0 0 1 0 .2c0 .1-.07.2-.17.24-.1.03-.18.07-.26.12a.39.39 0 0 0-.19.27c0 .04-.03.03-.05.03a1.08 1.08 0 0 0-.72.24l-.37.29a.51.51 0 0 0-.2.3 1.46 1.46 0 0 0-.04.67c.02.06.06.13.11.18.09.1.18.17.28.24a.11.11 0 0 1-.08.05c-.12.05-.26.08-.41.1l-.87.06h-.02c-.06 0-.13 0-.19-.02a.57.57 0 0 1-.43-.35 1.16 1.16 0 0 1-.07-.52v-.13h-.03a.56.56 0 0 0-.56.62c.04.35.25.64.55.78.18.09.38.14.6.15a3.92 3.92 0 0 0 .84-.07 15.55 15.55 0 0 1 .43-.1.2.2 0 0 1 .19.14c.06.12.11.26.14.41l.04.18c.03.12.12.16.22.1.08-.06.17-.1.27-.13h.08c.1 0 .19.04.26.1a.18.18 0 0 1-.02.28.31.31 0 0 1-.2.07h-.02c-.1 0-.2 0-.3-.02a.26.26 0 0 1-.07-.04.36.36 0 0 0-.37 0 .74.74 0 0 1-.52.08 2.3 2.3 0 0 1-.3-.07c-.02 0-.06-.04-.06-.08 0-.05-.02-.1-.04-.13a.16.16 0 0 0-.14-.07.16.16 0 0 0-.12.05.4.4 0 0 0-.14.31V14c0 .04 0 .09-.02.13 0 .05-.06.1-.12.1l-.06-.02a.45.45 0 0 1-.18-.14 1.2 1.2 0 0 1-.2-.3 1.85 1.85 0 0 0-.64-.78l-.49-.3a.4.4 0 0 1-.2-.2.91.91 0 0 0-.19-.3.13.13 0 0 1-.02-.05.6.6 0 0 0-.24-.3.63.63 0 0 1-.17-.2.98.98 0 0 1-.11-.4v-.15a.3.3 0 0 1 .05-.16.49.49 0 0 0 .04-.42 1.6 1.6 0 0 0-.18-.45c-.12-.22-.35-.3-.6-.3h-.03c.02.02.04.04.06.04a.18.18 0 0 1 .1.27c-.07.12-.15.22-.25.3l-.03-.09a.39.39 0 0 0-.09-.15.15.15 0 0 0-.16-.04.54.54 0 0 1-.4-.03c-.25-.11-.47 0-.56.29.26.06.45.27.49.53-.03 0-.03-.01-.05-.03a.16.16 0 0 0-.22-.03l-.23.12a.39.39 0 0 1-.16.03h-.04a.36.36 0 0 0-.32.19c-.05.1-.1.2-.1.32h.03c.1 0 .19.01.28.03.17.02.33.08.47.17a.9.9 0 0 1 .22.23c.03.03.04.06.04.1s-.01.07-.03.1a.69.69 0 0 1-.15.16 2.1 2.1 0 0 1-.26.17h-.01v.01a1.48 1.48 0 0 0 .74.3c.09 0 .17-.03.24-.07a.19.19 0 0 1 .3.06l.08.25V13a.1.1 0 0 1-.02.07.56.56 0 0 0-.1.22c0 .05.06.1.11.1.19.05.3.2.4.33l.02.05v.17c0 .08.04.14.11.16.06.02.1.06.13.1.04.03.06.08.06.13 0 .16.03.3.08.43 0 .03.03.06.07.07a3.64 3.64 0 0 1 .57.36c.04.05.03.08-.03.1l-.22.02a.91.91 0 0 0-.6.42.4.4 0 0 0-.05.18c0 .08.03.14.08.18l.07.05c.11.07.11.07.2-.04a.52.52 0 0 1 .35-.2l.16-.02h.12a.13.13 0 0 1 .1.16c0 .04 0 .09-.02.13-.08.17-.17.32-.28.45a.07.07 0 0 1-.06.03l-.03-.01a3 3 0 0 0-.58-.08h-.07c-.1 0-.22.01-.32.03a.62.62 0 0 0-.22.08.84.84 0 0 1-.41.12.52.52 0 0 1-.41-.2 1.3 1.3 0 0 0-.16-.18.43.43 0 0 0-.58-.02 1.8 1.8 0 0 0-.38.4c-.07.1-.1.2-.1.32l.01.06c.15-.02.28-.09.45-.09a.11.11 0 0 1-.07.08c-.38.17-.47.5-.49.87v.02c0 .04 0 .08.02.12 0 .03.04.03.06 0l.05-.06a.36.36 0 0 1 .28-.14c.06 0 .08.01.08.07v.02c0 .1 0 .19-.03.28v.1c0 .12.03.24.08.34.06.11.17.2.3.23a1 1 0 0 1 .1-.32.14.14 0 0 1 .15-.08.1.1 0 0 0 .09-.06l.15-.15a.3.3 0 0 1 .17-.04c.13 0 .25.09.3.2a2.64 2.64 0 0 0 .28.62.5.5 0 0 0 .08-.1l.1-.12a.9.9 0 0 1 .78-.37h.01c.05 0 .1.03.1.08a.16.16 0 0 0 .28.02.18.18 0 0 1 .19-.08c.3.02.6.02.93.05.1 0 .18.03.26.06a1.5 1.5 0 0 0 .22.07 2.65 2.65 0 0 1 .7-.19c.04 0 .07.02.1.05.07.07.1.07.19 0 .1-.07.2-.15.29-.24.04.05.08.1.13.12.03.03.07.05.11.05l.07-.02a.42.42 0 0 1 .2-.05h.02c.1 0 .16.07.16.16l.01.14c0 .04.02.08.03.11a.1.1 0 0 0 .1.07 1.54 1.54 0 0 1 .3-.04h.03c.27 0 .52.1.72.24.22.17.41.38.56.61l-9.1.01V8.71c0-.07 0-.07.08-.07h17c.14 0 .13-.02.13.13V19.8a.2.2 0 0 1 0 .1.2.2 0 0 1-.05-.1v-2.02l.01-.04c0-.04 0-.08-.02-.12zm-9.22 4.33h.1a16.89 16.89 0 0 1 4.41.64q.74.22 1.57.54l.17.08a.17.17 0 0 1 .08.18.5.5 0 0 1-.05.18 2 2 0 0 1-.43.6A8.87 8.87 0 0 1 9 26.45h-.05a.77.77 0 0 1-.23-.03c-.1-.04-.12-.1-.07-.19a.54.54 0 0 1 .08-.1l.06-.06c.08-.07.13-.14.1-.24a.34.34 0 0 0-.25-.2h-.03a.2.2 0 0 0-.14.05.71.71 0 0 0-.2.23 1.3 1.3 0 0 1-.2.3.72.72 0 0 1-.2.17.37.37 0 0 1-.19.05h-.02a6.72 6.72 0 0 1-1.56-.3 5.44 5.44 0 0 1-3.01-2.37 1.26 1.26 0 0 1-.19-.48c0-.06.04-.12.1-.15l.64-.28a12.1 12.1 0 0 1 2.22-.63 21.64 21.64 0 0 1 2.1-.24l.7-.01z"/><path fill="#dc281e" d="M11.9 13.35c-.16-.08-.32-.14-.41-.3a.1.1 0 0 0-.1-.08.1.1 0 0 0-.11.11c0 .03 0 .05.02.07.04.07.08.13.14.17l.18.15a.2.2 0 0 1 .06.13.2.2 0 0 1-.11.17c-.19.06-.24.2-.26.37a.61.61 0 0 0 .05.33.44.44 0 0 1-.02.44.12.12 0 0 0-.02.08c0 .14.07.26.17.34l.35.27a.46.46 0 0 1 .16.4v.04c0 .05-.03.1-.08.12h-.02a.12.12 0 0 1-.11-.07 2.55 2.55 0 0 1-.2-.25c-.09-.13-.17-.26-.27-.37a.53.53 0 0 0-.12-.12.19.19 0 0 1-.08-.2v-.1a.07.07 0 0 0-.02-.06.24.24 0 0 1-.07-.16.08.08 0 0 0-.02-.06.5.5 0 0 1-.19-.3l-.05-.19a.05.05 0 0 0-.06-.04.14.14 0 0 0-.13.12v.13a1.44 1.44 0 0 1 .02.32c0 .1-.07.2-.16.26-.21.13-.44.25-.64.4a.05.05 0 0 1-.1-.03v-.11c.01-.1.03-.17.07-.25a.09.09 0 0 0 .03-.06.1.1 0 0 0-.02-.06.12.12 0 0 0-.06-.02.11.11 0 0 0-.08.03.43.43 0 0 0-.13.15 1.2 1.2 0 0 0-.15.5.4.4 0 0 1-.14.3.5.5 0 0 0-.13.22 1.7 1.7 0 0 0-.07.38v.05a.17.17 0 0 1-.11-.1.68.68 0 0 1-.09-.55l.06-.19a.08.08 0 0 0-.02-.1h-.03a.1.1 0 0 0-.08.04.28.28 0 0 0-.05.08 1.14 1.14 0 0 0-.1.66l.02.19h-.01a.06.06 0 0 1-.06-.03.47.47 0 0 1-.16-.25.73.73 0 0 1 .02-.48.1.1 0 0 0 .02-.06v-.02h-.01a.1.1 0 0 0-.08.05 1 1 0 0 0-.25.36c0 .02-.01.04-.03.05a.06.06 0 0 1-.06-.04.37.37 0 0 1-.03-.34.7.7 0 0 1 .4-.4c.03-.02.09-.01.08-.06a.1.1 0 0 0-.08-.08.21.21 0 0 0-.2.01.99.99 0 0 0-.48.76c0 .1-.06.14-.16.08l-.1-.07a.4.4 0 0 1-.26.18.65.65 0 0 0-.31.26.18.18 0 0 1-.12.1.41.41 0 0 1-.22 0 .1.1 0 0 1-.07-.09c0-.03.03-.05.06-.05.22-.06.34-.22.46-.39a.25.25 0 0 1 .26-.1h.23c.02 0 .03 0 .04-.03a.06.06 0 0 0-.03-.05l-.03-.02a.5.5 0 0 0-.56.07 2.2 2.2 0 0 1-.26.24.93.93 0 0 1-.66.18c-.02 0-.03 0-.03-.02l.13-.15c.09-.09.17-.18.24-.28.12-.14.26-.25.42-.34a.26.26 0 0 0 .15-.2.08.08 0 0 0-.08-.08h-.13c-.14.05-.26.1-.37.18l-.27.17a1.27 1.27 0 0 1-.9.2c-.17-.02-.33-.05-.5-.05l-.11-.01c-.24 0-.46.07-.64.2a.07.07 0 0 1-.05.01c0-.08.04-.15.1-.2a.8.8 0 0 1 .27-.14c.17-.06.36-.1.55-.12a5.26 5.26 0 0 1 .64-.02c.1 0 .2-.03.3-.08l.32-.2c.14-.09.31-.18.5-.26.05-.01.08-.05.08-.09a.07.07 0 0 0-.07-.07h-.24a.72.72 0 0 1-.18-.04.08.08 0 0 1-.07-.05c0-.04.03-.06.07-.07.11-.05.25-.1.38-.13l.6-.16a1.24 1.24 0 0 1 .62 0 .93.93 0 0 0 .54-.03c.2-.05.37-.13.53-.23a.83.83 0 0 0 .18-.14.3.3 0 0 0 .1-.22.3.3 0 0 0-.13-.25.46.46 0 0 0-.25-.09 1.04 1.04 0 0 0-.43.06c-.1.03-.14 0-.13-.12a.34.34 0 0 0-.05-.23v-.03c0-.02 0-.05.03-.05a.4.4 0 0 1 .21-.05h.03c.1 0 .21.02.3.07a.82.82 0 0 0 .61.02c.04 0 .08-.04.08-.09a3.46 3.46 0 0 1-.03-.38c0-.05.02-.1.04-.15 0-.02 0-.03.02-.04.02 0 .04.02.04.04l.02.08c0 .06.02.11.04.17 0 .03.04.06.07.06.04 0 .07-.03.08-.06a.5.5 0 0 0 0-.38 1.51 1.51 0 0 0-.5-.56.04.04 0 0 0-.04.03.82.82 0 0 0 0 .18v.08c-.2-.13-.35-.31-.44-.53a.65.65 0 0 0-.07-.15.07.07 0 0 0-.07-.05.08.08 0 0 0-.06.03.21.21 0 0 0-.06.2.66.66 0 0 1 .01.2.2.2 0 0 1-.13.18.24.24 0 0 1-.24-.05.4.4 0 0 1-.11-.2l-.07-.26a.38.38 0 0 0-.07-.11.12.12 0 0 1 0-.16c.04-.06.09-.1.14-.15l.45-.32.16-.11a.42.42 0 0 1 .11-.06.24.24 0 0 1 .27.06.6.6 0 0 1 .12.18.75.75 0 0 0 .83.4c.07-.01.08-.01.05-.1-.03-.15-.1-.28-.18-.4a.63.63 0 0 0-.39-.25.35.35 0 0 1-.12-.04.08.08 0 0 1-.05-.08c0-.02 0-.04.02-.05a.48.48 0 0 1 .35-.2.2.2 0 0 1 .17.1l.04.06a.13.13 0 0 0 .2.03c.1-.07.1-.08.19-.01.22.15.49.27.77.34 0 .04-.03.07-.06.1a.56.56 0 0 0-.1.17c-.03.07-.02.1.05.12a.62.62 0 0 0 .34-.04.1.1 0 0 0 .05-.05l.07-.15a.5.5 0 0 1 .07-.1.12.12 0 0 1 .21.04.2.2 0 0 1 0 .16.62.62 0 0 1-.49.43c-.16.03-.22.14-.14.3l.11.15a.4.4 0 0 1 .07.23v.16l.02.13c0 .04.04.07.08.07.03 0 .06-.02.07-.04a.1.1 0 0 0 .03-.03.71.71 0 0 0 .05-.26v-.02l-.01-.03c0-.05.02-.09.06-.1.02-.02.03-.04.03-.07s-.01-.04-.03-.06a.1.1 0 0 1 .01-.14.7.7 0 0 1 .18-.2.13.13 0 0 0 .04-.1.55.55 0 0 1 .06-.18c.06-.1.13-.11.2-.03.08.09.13.2.16.31.02.05.04.09.08.12.1.1.24.18.38.23a.2.2 0 0 0 .1.02h.09l.02-.02.03.01v.07a.22.22 0 0 1-.16.1c-.1.02-.2.07-.26.14l-.03.01a.05.05 0 0 1-.04-.02l-.05-.1a.09.09 0 0 0-.08-.06.1.1 0 0 0-.07.07.46.46 0 0 0 0 .3c.03.08.07.15.12.21l.1.15a.46.46 0 0 1 .07.33.4.4 0 0 0 .01.16c.01.06.05.12.11.14.04.02.06.05.06.09v.05c0 .15.02.3.06.45a.62.62 0 0 0 .08.2v.02h-.05a.24.24 0 0 1-.09-.09.73.73 0 0 1-.11-.31v-.07c0-.1-.03-.18-.09-.25a.3.3 0 0 1-.06-.2v-.06c0-.05-.02-.1-.07-.12a.06.06 0 0 1-.02-.04v-.01a.35.35 0 0 0-.03-.12.05.05 0 0 0-.05-.03.05.05 0 0 0-.05.04.24.24 0 0 0-.01.1c-.02.17 0 .31 0 .47zM9.16 5.2H.44c-.17 0-.14 0-.14-.14v-.94c0-.1 0-.1.1-.1h.46c.07 0 .07 0 .07.09v.52c0 .07 0 .08.08.08h.94c.08 0 .08 0 .08-.07v-.51c0-.08 0-.08.08-.08h.6c.07 0 .07 0 .08.08v.5c0 .1 0 .1.08.1h.9c.08 0 .08 0 .08-.1v-.51c0-.07 0-.08.08-.08h.5c.08 0 .08 0 .08.08v.52c0 .08 0 .08.08.08h.77c.09 0 .09 0 .09-.1v-.49c0-.09 0-.09.08-.09h.49c.07 0 .07 0 .07.08v.53c0 .07 0 .07.08.07h.81c.07 0 .07 0 .07-.06v-.54c0-.07 0-.07.08-.07h.56c.07 0 .07 0 .07.08v.52c0 .08 0 .09.08.09h.91c.08 0 .08 0 .08-.07v-.53c0-.07 0-.07.08-.07h.52c.07 0 .08 0 .08.07v.5c0 .1 0 .1.08.1h.98c.08 0 .08 0 .08-.08V4.1c0-.08 0-.08.08-.08h.58c.07 0 .07 0 .07.08v.53c0 .07 0 .07.08.07h.84c.07 0 .07 0 .07-.07V4.1c0-.08 0-.08.07-.08h.48c.07 0 .07 0 .07.08v.51c0 .09 0 .09.09.09h.84c.09 0 .09 0 .09-.09V4.1c0-.08 0-.08.07-.08h.54c.07 0 .08 0 .08.07v.53c0 .08 0 .08.08.08h.9c.08 0 .08 0 .08-.08v-.53c0-.08 0-.08.08-.08h.46a.05.05 0 0 1 .05.07v.52c0 .08 0 .08.08.08h.86c.07 0 .08 0 .08-.08v-.52c0-.08 0-.08.07-.08h.53c.07 0 .07 0 .07.08v1.01s0 .08-.08.08h-8.8z"/><path fill="#f4f0e8" d="M.56 15.25l.01 5.71c0 .57.04 1.13.1 1.69.22 1.76.96 3.4 2.06 4.7a12.6 12.6 0 0 0 2.52 2.26c.89.61 1.86 1.16 2.88 1.63l.8.35a.15.15 0 0 0 .12 0 22.3 22.3 0 0 0 3.54-1.66 14 14 0 0 0 2.54-1.88 8.89 8.89 0 0 0 2.79-5.06c.11-.65.17-1.34.17-2.04V8.72c0-.12-.02-.1.12-.1l.02-.01c.02 0 .04.02.04.04v11.99c0 .5 0 .99-.05 1.48a9.1 9.1 0 0 1-2.56 5.65c-.78.8-1.66 1.5-2.62 2.09a20.46 20.46 0 0 1-4.05 1.93l-.06-.01A22.03 22.03 0 0 1 5.7 30.1c-.9-.57-1.78-1.26-2.55-2.05A9.23 9.23 0 0 1 .58 23.1a13.91 13.91 0 0 1-.18-2.38L.37 8.77v-.08l.01-.07a.22.22 0 0 1 .13 0c.02 0 .03 0 .03.02v.07l.03 6.55z"/><path fill="#dc281e" d="M3.42 13.13l.04-.08a.14.14 0 0 0-.08-.2.3.3 0 0 0-.07-.02.05.05 0 0 1-.05-.05v-.03a.1.1 0 0 0-.08-.1.18.18 0 0 1-.07-.1l-.04-.03v-.02c.07-.1.06-.14-.03-.21l-.02-.01c-.1-.07-.1-.07-.17.02a.38.38 0 0 1-.11.12.1.1 0 0 1-.14-.02l-.04-.04c-.04-.03-.07-.08-.07-.14s.03-.1.07-.13l.1-.08c.02-.02.03-.05.03-.07s-.01-.06-.04-.07a.42.42 0 0 0-.14-.07.56.56 0 0 1-.34-.27.08.08 0 0 0-.07-.05l-.1.02a.25.25 0 0 1-.11 0 .1.1 0 0 1-.08-.12c.03-.1.08-.19.14-.26a.1.1 0 0 1 .08-.04h.01c.06 0 .1.02.15.04.1.06.2.13.28.21a.11.11 0 0 0 .13.05.15.15 0 0 0 .1-.12.36.36 0 0 0 0-.1.8.8 0 0 0-.2-.42c-.08-.1-.07-.17.03-.25a.62.62 0 0 1 .1-.07.14.14 0 0 1 .2.05c.04.07.07.14.08.22l.1.42a.5.5 0 0 0 .06.17.1.1 0 0 0 .14.03.18.18 0 0 0 .07-.06.8.8 0 0 0 .1-.3.05.05 0 0 0-.03-.05.29.29 0 0 1-.1-.06.13.13 0 0 1-.04-.1c0-.06.04-.1.1-.12a.42.42 0 0 1 .36.03c.1.06.12.16.07.28-.03.1-.07.18-.12.26a.18.18 0 0 0-.03.1l.02.08c.07.15.11.32.11.5v.02c0 .06.03.1.08.12.04.03.1.05.15.06.11.02.2.09.27.18.07.1.14.2.18.33.04.11.1.2.16.27.1.11.23.2.37.26a2.36 2.36 0 0 1 .8.77c.04.05.07.11.07.18 0 .03.03.06.05.08.05.04.1.08.13.13a.1.1 0 0 1 .03.07.1.1 0 0 1-.02.05.1.1 0 0 1-.1.04.92.92 0 0 1-.24-.07.24.24 0 0 0-.08-.04c-.09-.02-.13.01-.12.1l.04.16.08.18.02.07c0 .06-.04.1-.09.12a.46.46 0 0 1-.11.03.8.8 0 0 0-.36.18.2.2 0 0 1-.13.05h-.02a.4.4 0 0 1-.26-.09.14.14 0 0 1-.06-.09.6.6 0 0 0-.2-.32.34.34 0 0 1-.11-.27v-.01c0-.06-.01-.07-.06-.08h-.01a.22.22 0 0 0-.12.03c-.07.04-.1.04-.15-.04-.05-.1-.1-.2-.02-.3a.07.07 0 0 0 .03-.06.08.08 0 0 0-.04-.07.04.04 0 0 1-.02-.03v-.02a.16.16 0 0 0-.1-.15c-.03-.02-.04-.04-.02-.07l.02-.03a.05.05 0 0 0-.03-.04.16.16 0 0 1-.08-.11v-.01a.5.5 0 0 0-.08-.09c-.01-.03.02-.06 0-.1a.14.14 0 0 0-.07-.07c-.03-.03-.06-.04-.1-.06zm12.52.5a.58.58 0 0 1-.01.25l-.1.56c0 .04-.02.09.03.1s.05-.03.06-.06a2.89 2.89 0 0 0 .3-1.35v-.04a.56.56 0 0 0-.06-.25 1.4 1.4 0 0 0-.46-.53.37.37 0 0 0-.15-.08.05.05 0 0 0-.05.05c0 .05-.02.08-.03.12-.02.05-.07.06-.1.02-.15-.2-.35-.17-.56-.14a.93.93 0 0 0-.47.24.67.67 0 0 0-.21.48v.05c0 .24.04.47.11.68.1.28.2.52.33.76.2.4.42.8.62 1.24.24.46.46 1.02.65 1.6a4.46 4.46 0 0 1 .21 1.6c-.02.31-.09.62-.2.9 0 .03-.03.07-.07.09h-.17s-.02-.01-.02-.03a3.63 3.63 0 0 0 .2-1.18c0-.19-.07-.26-.25-.3h-.09a1.84 1.84 0 0 0-.6.15.46.46 0 0 1-.2.04l-.1-.01c-.03 0-.05-.02-.06-.05 0-.02.02-.04.04-.05a1.67 1.67 0 0 1 .86-.23.97.97 0 0 0 .28-.01c.1-.02.12-.05.1-.16a8.61 8.61 0 0 0-.63-1.91c-.21-.47-.49-.97-.76-1.48a6.22 6.22 0 0 1-.39-.82 1.95 1.95 0 0 1-.13-.63c-.01-.59.27-1.04.9-1.23.2-.06.43-.1.67-.11.1 0 .19-.02.27-.04.07-.02.08-.03.04-.1a.4.4 0 0 1 .02-.34.05.05 0 0 1 .06-.02.3.3 0 0 0 .1.02c.1.01.14-.02.1-.12a.48.48 0 0 0-.28-.26 1.53 1.53 0 0 0-.27-.07c-.23-.04-.45-.06-.66-.11a1.4 1.4 0 0 1-.25-.08.46.46 0 0 1-.25-.56.79.79 0 0 1 .47-.52.32.32 0 0 1 .13 0l.04.01-.02.04-.12.07a.66.66 0 0 0-.32.5c0 .05.02.1.05.14.05.07.11.13.19.17.17.1.37.18.57.23l.65.17c.18.02.32.18.32.36v.05c0 .11-.03.23-.08.33A.5.5 0 0 1 16 12a.45.45 0 0 0-.12.1c-.04.03-.03.05.02.09a1.01 1.01 0 0 1 .55.9c-.01.26-.05.51-.13.75-.1.34-.22.64-.36.92a.65.65 0 0 0-.06.3c0 .05 0 .1.02.15a.5.5 0 0 0 .34.39.6.6 0 0 1 .2.1.15.15 0 0 1 .06.16.1.1 0 0 1-.1.1h-.05a.44.44 0 0 1-.23-.08 1.13 1.13 0 0 1-.3-.27l-.15-.2a.75.75 0 0 1-.12-.4v-.05c0-.4.08-.8.21-1.16l.02-.03.04-.03zm-10.7 4.42a.03.03 0 0 0-.04-.03h-.04a.77.77 0 0 0-.2.03c-.07.01-.08.05-.04.1.06.07.13.13.22.17a.21.21 0 0 0 .11 0 2.37 2.37 0 0 1 .64.06c.03 0 .07.02.1.04.03.01.06.04.06.07-.01.04-.04.06-.07.06l-.26.05a4.4 4.4 0 0 1-1.04-.03.3.3 0 0 1-.1-.06.58.58 0 0 0-.41-.1 1.31 1.31 0 0 0-.33.04.1.1 0 0 1-.03 0 .27.27 0 0 1-.05-.47.06.06 0 0 1 .04-.02l.04.01a.1.1 0 0 0 .12 0 .12.12 0 0 0 .05-.15.14.14 0 0 0-.12-.07h-.02a.73.73 0 0 0-.4.25.22.22 0 0 0-.03.2l.02.13v.04c-.01.1-.1.17-.2.17a.33.33 0 0 1-.13 0A.18.18 0 0 1 3 18.4a.62.62 0 0 1 0-.25v-.06l-.01-.07a.07.07 0 1 0-.13-.05.13.13 0 0 0-.04.03.36.36 0 0 1-.19.14c-.1.04-.23.08-.36.1h-.03c-.16.03-.21.08-.23.25a.34.34 0 0 1-.24-.15.15.15 0 0 1-.04-.1c0-.03.01-.06.03-.08a.5.5 0 0 1 .29-.25 5.34 5.34 0 0 0 .82-.31.08.08 0 0 0 .04-.07v-.02a.09.09 0 0 0-.08-.05.9.9 0 0 0-.3.05l-.18.06-.05.01h-.06a.3.3 0 0 0-.2-.04.14.14 0 0 0-.13.15l-.02.14a.11.11 0 0 1-.18.05 1 1 0 0 1-.2-.3.12.12 0 0 1-.01-.05c0-.06.04-.1.1-.1l.06-.01.11.01c.12.03.26.04.4.04h.02a.1.1 0 0 0 .1-.04.18.18 0 0 1 .11-.05c.1 0 .18 0 .27-.03a.42.42 0 0 0 .17-.08.63.63 0 0 1 .28-.1.9.9 0 0 0 .16-.05c.05-.02.1-.06.13-.12a.15.15 0 0 1 .1-.08.4.4 0 0 1 .32 0c.06.03.06.04.05.1v.03c-.02.11.02.15.14.12l.11-.04a6.06 6.06 0 0 1 1.31-.36h.02a.2.2 0 0 1 .18.11c.07.12.2.16.34.12a2.8 2.8 0 0 1 .57-.12h.09c.06 0 .12.05.14.11a.2.2 0 0 1-.05.22.66.66 0 0 1-.15.1l-.24.12a.23.23 0 0 1-.2.03.07.07 0 0 1-.06-.07v-.03a.1.1 0 0 0-.01-.06.1.1 0 0 0-.08-.04h-.02a.06.06 0 0 0-.06.06.45.45 0 0 0-.01.2c0 .09.03.17.04.27 0 .03 0 .06-.05.06-.05.01-.1.04-.12.08l-.06.09v-.09a.7.7 0 0 1-.16.14h-.01a.03.03 0 0 1-.03-.02c-.02-.03-.04-.03-.06-.01a.23.23 0 0 1-.13.08c0 .01-.03.02-.03-.02z"/><path fill="#f4f0e8" d="M10.3 27.25c.11-.1.24-.16.37-.2a.7.7 0 0 1 .57.07l.15.09a.44.44 0 0 0 .53-.08l.25-.28c.06-.07.13-.14.2-.19a.45.45 0 0 1 .5-.02l.15.1c.03.03.04.06.04.1 0 .03 0 .06-.02.08a.14.14 0 0 1-.2.05l-.06-.05a.3.3 0 0 0-.36.01.73.73 0 0 0-.2.22.78.78 0 0 1-.66.38.58.58 0 0 1-.33-.1l-.1-.07a.45.45 0 0 0-.47-.04 1.3 1.3 0 0 0-.22.14.06.06 0 0 0-.02.05v.03c.03.08.04.16.04.25v.05c0 .3-.16.57-.4.73-.19.12-.4.2-.64.24a2.44 2.44 0 0 1-.86 0 1.72 1.72 0 0 1-.63-.25.91.91 0 0 1-.28-.28.6.6 0 0 1-.08-.47.74.74 0 0 1 .62-.62 1.41 1.41 0 0 1 .89.1c.1.04.18.11.25.2.01.02.04.03.06.04h.02c.16 0 .31-.02.46-.06a.86.86 0 0 0 .1-.05c.09-.04.09-.05.02-.14a.74.74 0 0 0-.26-.18c-.12-.05-.25-.1-.39-.11l-.64-.1a1.38 1.38 0 0 1-.37-.1.35.35 0 0 1-.22-.41c.01-.05.02-.1.04-.13a2 2 0 0 1 .26-.5.16.16 0 0 1 .13-.08h.01c.05 0 .1.03.12.07l.02.06c0 .03-.01.06-.03.08l-.15.2a.76.76 0 0 0-.12.32c0 .08.05.15.13.18.1.04.21.06.33.07.2.03.4.04.6.08l.27.07c.21.06.4.2.53.38z"/><path fill="#dc281e" d="M13.89 19.82h-.11c-.7 0-1.41-.03-2.12-.02h-.25a.09.09 0 0 1-.07-.04.07.07 0 0 1 0-.03c0-.03 0-.05.02-.06a.13.13 0 0 0 .03-.09v-.04l-.04-.11-.02-.1c0-.03 0-.06.02-.09v-.03a.06.06 0 0 0-.03-.05.33.33 0 0 1-.17-.23c-.03-.08-.03-.07-.11-.07l-.06.01a.2.2 0 0 1-.07-.01.64.64 0 0 1 .1-.06c.07-.04.11-.12.01-.16a.11.11 0 0 1-.02-.02c-.06-.05-.06-.05 0-.1a.11.11 0 0 0 .05-.08c-.1-.02-.1-.02-.06-.11l.03-.05a.1.1 0 0 0-.08-.13h-.07a.2.2 0 0 1-.14-.17.33.33 0 0 0-.15-.25c-.08-.05-.08-.08-.02-.16.04-.04.05-.04.08 0 .03.06.07.1.13.12.1.06.2.1.32.13.06.01.1.02.08.08 0 .04.03.04.06.04.05 0 .1-.03.15-.04.03.09.09.16.16.21a.1.1 0 0 1 .04.1v.03c0 .05.04.1.1.1h.02c.03 0 .05.02.05.04.02.06.07.1.12.1h.02c.02 0 .04.03.04.05v.03c0 .07.05.12.12.12h.01l.11.01v.02c0 .03-.04.06-.02.1a.1.1 0 0 0 .12.01.94.94 0 0 0 .11-.05v.04a.1.1 0 0 0 .17.1c.05-.02.1-.05.12-.1l.02-.03-.01-.03a.17.17 0 0 0-.12-.09c-.02 0-.03 0-.03-.02 0-.05-.03-.05-.07-.07a.17.17 0 0 1-.1-.12.08.08 0 0 0-.07-.07.3.3 0 0 1-.16-.13 3.41 3.41 0 0 1-.3-.56c-.03-.08 0-.1.08-.09.15.04.26.15.3.29.05.2.18.35.3.5.08.09.15.16.24.22.03.04.07.06.12.08.1.04.18.1.22.2l.06.07c.28.18.5.42.67.7l.15.24zM9.1 1.26H7.07c-.08 0-.08 0-.08-.08v-.9c0-.06 0-.06.06-.06h.44c.04 0 .06.02.06.05v.35c0 .07 0 .08.07.08h.63c.07 0 .08 0 .08-.09V.27c0-.03.02-.06.05-.06h.47c.03 0 .05.02.05.05v.37c0 .06 0 .07.07.07h.58c.07 0 .07 0 .07-.08V.28c0-.07 0-.07.08-.07h.37c.07 0 .07 0 .07.08v.34c0 .06 0 .06.07.06h.56c.03 0 .05-.02.05-.04V.29c0-.08 0-.08.08-.08h.27c.03 0 .05.02.05.05v.95c0 .03-.02.05-.04.05H9.1zm-6.75 0H.4c-.1 0-.1 0-.1-.1V.3C.3.2.3.2.38.2h.37A.05.05 0 0 1 .8.27v.3C.8.64.8.64.87.64h.62c.07 0 .07 0 .07-.07v-.3A.05.05 0 0 1 1.63.2h.44c.03 0 .05.02.05.05v.31c0 .07 0 .07.08.07h.6c.06 0 .07 0 .07-.07v-.3c0-.06 0-.06.06-.06h.39c.04 0 .06.02.06.05v.3c0 .07 0 .08.07.08h.5A.05.05 0 0 0 4 .57V.28c0-.07 0-.07.08-.07h.22c.07 0 .07 0 .07.07v.91s0 .07-.08.07H2.35zm13.62 0h-1.93c-.12 0-.1.01-.1-.12V.3c0-.08 0-.08.07-.08h.3c.08 0 .08 0 .08.08v.35c0 .04.02.06.05.06h.66c.06 0 .06 0 .07-.06V.29c0-.07 0-.07.07-.07h.38c.03 0 .05.02.05.05v.35c0 .07 0 .08.08.08h.57c.08 0 .08 0 .08-.07V.26a.05.05 0 0 1 .06-.05h.38c.06 0 .06 0 .06.07v.34c0 .07 0 .08.08.08h.5c.07 0 .07 0 .08-.09V.3c0-.07 0-.07.08-.08h.32c.05 0 .08.01.08.07v.93c0 .06 0 .06-.08.06H16z"/><path fill="#f4f0e8" d="M17.85 17.6c.01 0 .04-.02.04.01v2.29a.1.1 0 0 1-.04 0h-1.78v-.06a3.77 3.77 0 0 0 .22-1.1v-.02c0-.13.07-.24.18-.3a.72.72 0 0 1 .3-.08l.27-.02a1 1 0 0 0 .54-.3c.1-.11.2-.24.28-.37z"/><path fill="#dc281e" d="M8.03 18c-.03-.07 0-.13-.02-.19a.27.27 0 0 0-.16.07c-.03.02-.05.02-.06-.03a.16.16 0 0 1-.02-.05c0-.19-.05-.37-.07-.56a1.13 1.13 0 0 1-.02-.39c.01-.02-.02-.03-.04-.03h-.09a.06.06 0 0 1-.06-.08.68.68 0 0 1 .29-.3c.03-.02.06 0 .06.03v.02c0 .05 0 .1.02.15.04.1.11.12.2.04a.77.77 0 0 0 .07-.13h.01a5.17 5.17 0 0 1 .52.64c.02.05.04.06.08.02a.4.4 0 0 0 .12-.16c.02-.05.03-.05.09-.04.06.02.1.05.14.09a.19.19 0 0 1 .04.23l-.14.23a.54.54 0 0 0-.06.4c.03.1.05.21.05.33v.02a.3.3 0 0 1-.18.27l-.06.02-.05-.02a.08.08 0 0 1-.02-.06l.01-.04.06-.14v-.08a.07.07 0 0 0-.06-.06h-.02a.06.06 0 0 0-.06.03.62.62 0 0 0-.05.15.92.92 0 0 1-.06.25.32.32 0 0 1-.05.09.07.07 0 0 1-.06.03h-.03l-.28-.12c-.09-.06-.1-.12-.03-.22l.12-.14a.24.24 0 0 0 .07-.14c0-.06.02-.1.06-.14h.01a.13.13 0 0 0 .01-.13.11.11 0 0 0-.13 0 .6.6 0 0 0-.12.11.11.11 0 0 1-.06.06z"/><path fill="#db281e" d="M14.36 8.47h-3.87a.12.12 0 0 1-.1-.1c0-.05.04-.1.08-.1a.35.35 0 0 1 .13-.01h7.65a.1.1 0 0 1 .08.1.1.1 0 0 1-.1.11h-3.88zm-10.32 0H.3c-.06 0-.11-.05-.11-.11s.05-.11.1-.11h7.47a.6.6 0 0 1 .08 0c.05.01.1.06.1.11a.13.13 0 0 1-.1.1.35.35 0 0 1-.1 0h-3.7z"/><path fill="#dc281e" d="M12.05 17.32l.16.03h.02c.03 0 .06-.02.06-.05v-.05a.2.2 0 0 0 0-.07.5.5 0 0 0-.12-.16c-.2-.22-.47-.37-.77-.43a1.2 1.2 0 0 1-.72-.44l-.12-.16a.47.47 0 0 1-.07-.2.83.83 0 0 0-.14-.36.6.6 0 0 0 .23-.2l.2-.2a.18.18 0 0 1 .1-.02.2.2 0 0 1 .12.04.1.1 0 0 1 .02.06v.02l-.02.15a1.22 1.22 0 0 0 0 .36c.03.19.14.35.28.46.13.1.26.2.41.26.2.08.37.17.51.28.26.19.35.46.31.78 0 .04-.01.08-.03.1a.12.12 0 0 1-.14.06.6.6 0 0 1-.33-.2.16.16 0 0 1-.02-.03zm-1.99-1.15v-.25c0-.07.02-.14.05-.2a.17.17 0 0 1 .12-.1l.01.15c.03.27.1.51.23.73 0 .01.05.04.01.07h-.03a.07.07 0 0 1-.05-.02.33.33 0 0 0-.09-.06.1.1 0 0 0-.05-.01.1.1 0 0 0-.1.09c0 .08-.02.15-.1.17a2.12 2.12 0 0 0-.32.57.74.74 0 0 0-.05.2c0 .07.02.13.05.18.08.14.13.32.13.5v.07l-.03.12a.1.1 0 0 1-.1.08.1.1 0 0 1-.06-.03.23.23 0 0 1-.07-.05 4.02 4.02 0 0 1-.47-.74c-.02-.07 0-.11.08-.13.11-.03.2-.13.2-.26v-.43l.01-.26a.31.31 0 0 1 .08-.15.86.86 0 0 0 .16-.24c.04-.08.06-.09.13-.06l.23.1z"/><path fill="#0039a6" d="M5.6 11.66a1.92 1.92 0 0 0 0 .39c.04.28.27.5.55.54a3.4 3.4 0 0 0 1.48-.08 1.26 1.26 0 0 1 .4-.01 1.78 1.78 0 0 1 .82.24l.06.06v.06l-.03.02h-.02l-.1-.04a2.44 2.44 0 0 0-1.5-.05 3.89 3.89 0 0 1-.97.08c-.24 0-.47-.09-.66-.23a.76.76 0 0 1-.28-.45v-.07c0-.06 0-.12.03-.17a.62.62 0 0 1 .24-.32zm3-3.5a.61.61 0 0 0 .22.12.1.1 0 0 0 .1-.1.63.63 0 0 0 0-.3.1.1 0 0 0-.08-.1h-.02a.11.11 0 0 0-.1.06l-.05.08c-.08-.11-.08-.56 0-.7l.05.08a.1.1 0 0 0 .19-.04.53.53 0 0 0-.02-.37.07.07 0 0 0-.07-.05l-.05.01a.86.86 0 0 0-.08.06c-.03-.02-.01-.04-.01-.06 0-.14.03-.28.08-.41a.2.2 0 0 1 .2-.15h.02c.08 0 .14.06.15.14v1.95c0 .08 0 .08-.09.08h-.36c-.08 0-.09 0-.09-.08l.01-.22zm1.07-1.23a1.07 1.07 0 0 0-.1-.06.08.08 0 0 0-.05-.03.07.07 0 0 0-.07.06.55.55 0 0 0-.02.37c0 .04.05.07.1.07a.1.1 0 0 0 .06-.03.39.39 0 0 0 .08-.1c.07.13.08.57 0 .7a.8.8 0 0 1-.08-.09.1.1 0 0 0-.09-.05.1.1 0 0 0-.1.1.59.59 0 0 0 0 .33c.01.04.05.07.1.07a.34.34 0 0 0 .2-.1h.02v.25c0 .03-.02.05-.05.05h-.43a.04.04 0 0 1-.03-.03V6.5c0-.11.02-.15.1-.17l.06-.02c.06 0 .12.03.15.08l.04.07c.05.13.08.27.08.42v.05z"/><path fill="#dc281e" d="M2.39 3.93h-.73c-.08 0-.08 0-.08-.09v-.22c0-.07 0-.09.08-.09h1.49c.03 0 .05.02.05.05v.29c0 .03-.02.05-.05.05h-.77zm6.7 0h-.7c-.08 0-.08 0-.08-.09v-.2c0-.1 0-.1.1-.1h1.4c.08 0 .08 0 .09.09v.2c0 .1 0 .1-.11.1h-.7z"/><path fill="#db281e" d="M2.4 2.9h-.62c-.09 0-.09 0-.1-.08s0-.17 0-.26c0-.04.03-.06.06-.06h1.31c.06 0 .07 0 .07.07v.27c0 .06 0 .07-.07.07H2.4z"/><path fill="#dc281e" d="M1.6 3.44H.99c-.07 0-.07 0-.08-.08v-.28c0-.07 0-.07.08-.07h1.25c.03 0 .04.01.04.04v.34c0 .03-.02.05-.04.05h-.65z"/><path fill="#0039a6" d="M12.3 10.05c.19 0 .38.02.56.04h-.02c.03 0 .06.02.07.04v.02c0 .02-.01.05-.03.06-.07.06-.14.1-.22.15l-.17.08c-.05.02-.08.06-.08.1v.01c0 .1-.02.2-.06.28a.29.29 0 0 1-.1.14.06.06 0 0 1-.04.02l-.04-.01c-.16-.12-.34-.2-.5-.3a.32.32 0 0 1-.07-.05.05.05 0 0 1-.02-.04c0-.02.01-.04.04-.05a.34.34 0 0 1 .1-.02.8.8 0 0 0 .22-.06c.05 0 .1-.06.1-.12a.1.1 0 0 0-.03-.07c-.05-.14-.04-.18.12-.2a1.33 1.33 0 0 1 .19 0z"/><path fill="#dc281e" d="M3.05 3.44H2.5c-.1 0-.1 0-.1-.1V3.1c0-.1 0-.1.1-.1h1.11c.08 0 .08 0 .08.09v.3c0 .03-.02.05-.05.05h-.59zm12.95.1h.61c.08 0 .08 0 .09.07v.25c0 .06 0 .07-.07.07H15.4c-.07 0-.07 0-.07-.08v-.24s0-.08.07-.08h.63zM8.52 1.5h.53c.08 0 .09 0 .09.09v.27c0 .06 0 .07-.07.07H7.99c-.09 0-.09 0-.09-.09v-.27c0-.06 0-.07.07-.07h.55zM15.29 3h.54c.07 0 .07 0 .07.07v.28c0 .07 0 .08-.07.08h-1.08c-.07 0-.07 0-.07-.08v-.28c0-.08 0-.08.08-.08h.53zM1.74 1.93h-.5c-.1 0-.1 0-.1-.1v-.28c0-.03.02-.05.05-.05h1.12c.03 0 .05.02.05.05v.32c0 .06-.04.06-.08.06h-.54zm1.33 0h-.52c-.06 0-.07 0-.07-.07v-.28c0-.08 0-.08.08-.08h1.02c.1 0 .1 0 .1.1v.24s0 .09-.1.09h-.51zm6.79 0h-.51c-.07 0-.08 0-.08-.08v-.28c0-.06 0-.07.07-.07h1.02c.07 0 .08 0 .08.08v.27c0 .08 0 .08-.08.08h-.5zm-.71.47h-.59c-.07 0-.07 0-.07-.08v-.25a.04.04 0 0 1 .05-.05h1.18c.1 0 .1 0 .1.1v.2s-.02.08-.08.08h-.6z"/><path fill="#db281e" d="M15.97 2.9h-.5c-.08 0-.08 0-.08-.07v-.26c0-.06 0-.07.07-.07h1.02c.1 0 .1 0 .1.1v.23s0 .08-.09.08h-.52z"/><path fill="#dc281e" d="M16.62 3.44h-.45c-.1 0-.1 0-.1-.1v-.26s0-.07.08-.07h.95c.03 0 .05.02.05.04v.34c0 .03-.02.05-.05.05h-.5zm-4.23 11.45v.06c0 .05-.02.07-.07.04a.3.3 0 0 1-.12-.12.81.81 0 0 1-.07-.17.2.2 0 0 0-.1-.13c-.04-.02-.07 0-.07.05a.49.49 0 0 1 0 .18.1.1 0 0 1-.07.09c-.03 0-.06-.04-.06-.11 0-.1-.04-.18-.1-.24a.9.9 0 0 1-.19-.43v-.03c0-.04 0-.09.04-.1s.05.04.06.08c.01.06.04.11.07.16a.1.1 0 0 0 .08.05h.02a.08.08 0 0 0 .05-.08v-.02c0-.07 0-.14.02-.2a.4.4 0 0 1 .02-.07c0-.03.03-.05.06-.05.04 0 .06.02.07.05l.03.1c0 .04.02.08.05.1l.1.1a.4.4 0 0 1 .13.3c0 .12 0 .23.02.35zm2.96-12.96h-.45c-.08 0-.08 0-.08-.07v-.29a.06.06 0 0 1 .06-.06h.96c.04 0 .06.02.06.06v.29s0 .09-.08.09h-.46zm1.24-.42h.43c.06 0 .06 0 .07.07v.3c0 .03-.03.06-.06.06h-.9a.06.06 0 0 1-.06-.08v-.29c0-.06 0-.06.07-.07h.45z"/><path fill="#db281e" d="M7.3 8.06h-.5c-.07 0-.07 0-.07-.08v-.2c0-.07 0-.09.08-.09h.98c.1 0 .1 0 .1.09v.2c0 .08 0 .09-.09.09h-.5z"/><path fill="#dc281e" d="M9.99 3.44h-.4c-.08 0-.08 0-.08-.08V3.1s0-.08.07-.09h.81c.08 0 .08 0 .08.08v.29c0 .07 0 .07-.08.07h-.42z"/><path fill="#db281e" d="M10.07 4.57h-.33a.05.05 0 0 1-.05-.05v-.44a.05.05 0 0 1 .06-.05h.64c.04 0 .06.02.06.05v.42c0 .06-.02.07-.07.07h-.31zM1.28 6.53H.81c-.08 0-.08 0-.08-.08v-.23c0-.03.02-.06.05-.06h.98c.09 0 .09 0 .09.1v.2s0 .07-.07.08h-.5z"/><path fill="#dc281e" d="M8.15 3h.4c.06 0 .06 0 .06.07v.31c0 .03-.02.06-.05.06h-.82a.05.05 0 0 1-.05-.05v-.34c0-.03.02-.05.05-.05h.41zM1.48 4.57h-.3a.05.05 0 0 1-.06-.06v-.42c0-.04.02-.06.06-.06h.6c.04 0 .06.02.06.05v.43c0 .03-.02.05-.05.05h-.32z"/><path fill="#db281e" d="M6.03 8.06H5.6c-.08 0-.08 0-.08-.07v-.24a.05.05 0 0 1 .06-.06h.86c.1 0 .1 0 .1.1v.2s0 .07-.07.07h-.44z"/><path fill="#dc281e" d="M8.27 4.57h-.29a.05.05 0 0 1-.06-.06v-.43c0-.03.03-.06.05-.06h.61c.02 0 .05.03.05.05v.44a.05.05 0 0 1-.07.06h-.3zm6.93-.54h.27c.07 0 .07 0 .07.07v.4c0 .06 0 .07-.06.07h-.56a.05.05 0 0 1-.06-.06v-.43c0-.03.03-.06.06-.06h.28zm-11.88.54h-.29a.05.05 0 0 1-.05-.05v-.44a.06.06 0 0 1 .07-.06h.56c.03 0 .05.03.05.05v.44c0 .03-.02.05-.05.05h-.29z"/><path fill="#db281e" d="M16.29 8.06h-.43a.05.05 0 0 1-.05-.05v-.26c0-.04.02-.06.05-.06h.82c.1 0 .1 0 .1.1v.2s0 .06-.07.06h-.42zm-2.2 0h-.39c-.08 0-.08 0-.08-.1v-.19s0-.08.09-.08h.83c.03 0 .05.02.05.05V8a.05.05 0 0 1-.06.06h-.42zm2.76-1.9h.42c.06 0 .06 0 .06.08v.21c0 .07 0 .08-.07.08h-.82c-.06 0-.07-.01-.07-.08v-.22c0-.07 0-.07.08-.07h.4zm-10.3.37h-.4c-.07 0-.07 0-.07-.07v-.24a.05.05 0 0 1 .05-.05H7c.03 0 .05.02.05.05v.25c0 .06 0 .06-.07.07h-.41zM7.13 6h-.36c-.08 0-.08 0-.08-.07v-.28c0-.03.03-.06.06-.06h.75c.03 0 .06.03.06.06v.29c0 .04-.03.06-.06.06h-.4zm9.14 0h-.36c-.07 0-.07 0-.07-.07v-.28c0-.03.02-.06.05-.06h.75c.04 0 .06.03.06.06v.3c0 .03-.03.05-.06.05h-.38zM1.76 8.06h-.39c-.08 0-.08 0-.08-.07v-.2c0-.1 0-.1.1-.1h.76c.07 0 .07 0 .08.07V8s0 .08-.07.08h-.4zM14.19 6h-.37a.05.05 0 0 1-.05-.06v-.29c0-.03.03-.05.05-.05h.75c.03 0 .06.02.06.05v.33c0 .03-.03.05-.06.05h-.38zm-1.02 0h-.35c-.07 0-.07 0-.07-.07v-.28c0-.03.02-.06.05-.06h.74c.03 0 .06.03.06.06v.29c0 .04-.03.06-.06.06h-.37z"/><path fill="#dc281e" d="M14.68 3.93h-.36c-.07 0-.07 0-.07-.08V3.6a.05.05 0 0 1 .06-.06h.79a.05.05 0 0 1 .04.07v.28c0 .03-.02.05-.05.05h-.4z"/><path fill="#db281e" d="M12.13 5.58h.37c.03 0 .06.03.06.06v.29a.06.06 0 0 1-.07.06h-.7c-.07 0-.07 0-.07-.07v-.28c0-.06 0-.07.07-.07h.35z"/><path fill="#dc281e" d="M7.75 3.93h-.38a.05.05 0 0 1-.06-.06v-.28c0-.03.03-.06.06-.06h.78c.03 0 .05.02.05.05v.29a.06.06 0 0 1-.07.05h-.38z"/><path fill="#db281e" d="M10.46 3.93h-.37c-.06 0-.06 0-.07-.07v-.27a.05.05 0 0 1 .06-.05h.76c.03 0 .06.02.06.05v.28a.06.06 0 0 1-.08.06h-.38zm6.37.64h-.27a.06.06 0 0 1-.05-.07v-.42c0-.04.02-.06.05-.06h.52a.05.05 0 0 1 .06.07v.43c0 .03-.02.05-.05.05h-.26zm-1.07 1.96h-.38c-.07 0-.07 0-.08-.07v-.23a.06.06 0 0 1 .07-.06h.78c.07 0 .07 0 .07.07v.24c0 .03-.02.06-.05.06h-.41zM4.84 8.06h-.36c-.08 0-.08 0-.09-.07v-.22c0-.07.01-.07.07-.08h.75c.1 0 .1 0 .1.1V8c0 .04-.02.06-.05.06h-.42zM1.8 6.71h.42c.07 0 .07 0 .08.08v.2c0 .03-.03.06-.06.06h-.88c-.07 0-.07 0-.07-.07v-.2c0-.07 0-.07.07-.07h.43zm13.94.48h.43c.07 0 .07 0 .07.07v.22c0 .02-.02.04-.04.04h-.87c-.1 0-.1 0-.1-.09v-.17s.02-.06.08-.07h.45zm-.5-1.6h.34c.04 0 .07.02.07.05v.29a.06.06 0 0 1-.08.06h-.72a.06.06 0 0 1-.05-.05v-.28s0-.08.07-.08h.34z"/><path fill="#0039a6" d="M9.52 9.02c.1.02.18.06.25.12l.3.21a.6.6 0 0 1 .06.07c.02 0 .03.03.03.05 0 .01 0 .03-.02.04l-.03.07a.14.14 0 0 0 0 .14l.1.29c-.02.02-.05.02-.08.02a.48.48 0 0 1-.47-.41V9.6c0-.03.01-.06.03-.08a.15.15 0 0 0 0-.19 1.2 1.2 0 0 0-.16-.27l-.03-.03h.02z"/><path fill="#db281e" d="M5.03 5.58h.33c.07 0 .08 0 .08.08v.26c0 .07 0 .07-.09.07h-.66a.05.05 0 0 1-.05-.05v-.3c0-.03.02-.06.05-.06h.34zM6.05 6h-.32c-.08 0-.08 0-.08-.08v-.26c0-.06 0-.07.07-.07h.67c.06 0 .07 0 .07.07v.28A.05.05 0 0 1 6.4 6h-.35zm-3.99-.4h.32c.06 0 .07 0 .07.06v.28c0 .03-.02.05-.05.05h-.7a.05.05 0 0 1-.05-.06v-.28c0-.06 0-.06.07-.07h.35zm15.2 0h.33c.07 0 .08 0 .08.06v.26s0 .08-.09.08h-.65c-.05 0-.06-.02-.05-.07v-.26c0-.07 0-.08.07-.08h.33zm-6.4 2.47h-.37c-.07 0-.07 0-.07-.07v-.22s0-.08.09-.08h.72c.08 0 .09 0 .09.07v.25a.05.05 0 0 1-.07.05h-.38zM3.06 6h-.32c-.06 0-.07 0-.07-.07v-.27a.06.06 0 0 1 .06-.06h.66c.04 0 .06.02.06.05v.31c0 .04-.02.06-.05.06h-.34zm9.92 2.07h-.38a.05.05 0 0 1-.05-.06v-.24s0-.07.06-.07h.74c.04 0 .06.02.06.05V8s0 .06-.07.06h-.37zm1.64-1.53h-.36c-.06 0-.06 0-.07-.07s0-.15 0-.23v-.01c0-.03.03-.05.05-.05h.77c.03 0 .06.02.06.05v.23s0 .08-.08.08h-.37zm-2.7 1.53h-.38a.05.05 0 0 1-.05-.05v-.25s.01-.08.08-.08h.75c.03 0 .06.02.06.05v.25s0 .06-.07.06h-.36z"/><path fill="#dc281e" d="M1.03 3.93H.7a.05.05 0 0 1-.06-.06v-.29c0-.03.02-.05.05-.05h.7c.03 0 .05.02.05.05v.29a.06.06 0 0 1-.07.06h-.34z"/><path fill="#db281e" d="M11.14 5.58h.31c.07 0 .07 0 .08.07v.29c0 .03-.03.05-.05.05h-.68a.05.05 0 0 1-.05-.07v-.29c0-.03.02-.05.04-.05h.35zm3.48-2.67h-.32a.05.05 0 0 1-.05-.05v-.31c0-.02.02-.05.05-.05h.67c.04 0 .06.02.06.05v.3c0 .03-.03.06-.05.06h-.35z"/><path fill="#0039a6" d="M11.54 9.7c.05 0 .1-.02.14-.04l.03-.01c.02 0 .04.01.05.03a.29.29 0 0 1 .05.24.19.19 0 0 1-.25.14.44.44 0 0 1-.3-.4.55.55 0 0 0-.06-.24.88.88 0 0 1-.06-.18.1.1 0 0 1 .05-.08.3.3 0 0 1 .3.01.17.17 0 0 1 0 .26.16.16 0 0 0-.05.22.1.1 0 0 0 .12.04z"/><path fill="#db281e" d="M7.1 7.05h-.39c-.07 0-.08 0-.08-.08v-.21c0-.03.02-.05.05-.05h.85c.02 0 .04.01.04.04V7c0 .03-.02.05-.04.05H7.1zM3.83 8.06h-.35c-.07 0-.07 0-.07-.06v-.23c0-.08 0-.08.08-.08h.72c.03 0 .05.02.05.04v.29c0 .04-.03.04-.07.04h-.36zM2.5 6.16h.37c.03 0 .06.03.06.06v.26c0 .03-.03.06-.06.06h-.73a.06.06 0 0 1-.05-.06v-.24c0-.06 0-.07.07-.07h.36zm3 0h.34c.06 0 .07.01.07.08v.24c0 .03-.02.06-.05.06h-.74a.05.05 0 0 1-.06-.06v-.24c0-.07 0-.07.07-.07h.36zm7.07.37h-.35c-.07 0-.07 0-.07-.07v-.24a.06.06 0 0 1 .06-.05h.73a.06.06 0 0 1 .06.07v.22s0 .07-.07.07h-.36z"/><path fill="#dc281e" d="M16.16 2.03h.33c.09 0 .09 0 .09.1v.23c0 .03-.03.06-.06.06h-.72a.05.05 0 0 1-.05-.07v-.26c0-.03.02-.05.04-.05h.37zM3.73 3.93H3.4a.05.05 0 0 1-.06-.05v-.3c0-.03.02-.05.05-.05h.69c.03 0 .05.02.05.05v.28c0 .04-.02.06-.05.06h-.33z"/><path fill="#db281e" d="M7.69 2.9h-.31l-.01.01a.05.05 0 0 1-.06-.05v-.3a.05.05 0 0 1 .07-.06h.64c.03 0 .05.03.05.06v.3a.05.05 0 0 1-.06.05L7.7 2.9zm8.58 4.14h-.36c-.07 0-.08 0-.08-.07v-.2a.06.06 0 0 1 .07-.06h.79c.03 0 .05.02.05.04V7a.06.06 0 0 1-.07.05h-.41zm1-3.5h.32c.07 0 .07 0 .07.06v.28a.06.06 0 0 1-.08.05h-.66a.06.06 0 0 1-.06-.07v-.27a.06.06 0 0 1 .07-.06h.33zM4.02 5.98H3.7a.06.06 0 0 1-.06-.05v-.29a.06.06 0 0 1 .08-.06h.62c.05 0 .07.01.07.06v.31c0 .03-.02.05-.05.05h-.33zm11.17 2.07h-.36a.05.05 0 0 1-.05-.05v-.26c0-.04.02-.06.05-.06h.68c.1 0 .1 0 .1.1v.2s0 .07-.07.07h-.33zM1.1 6H.78a.05.05 0 0 1-.05-.05v-.32c0-.03.02-.05.05-.05h.64c.03 0 .06.02.06.05v.28c0 .06-.01.06-.08.06h-.3zm1.88 1.06h-.39c-.06 0-.06 0-.07-.07s0-.13 0-.2 0-.07.09-.07h.76c.03 0 .05.02.05.05V7c0 .05-.02.06-.07.06h-.37z"/><path fill="#da281e" d="M16.86 7.53h-.37c-.07 0-.07 0-.08-.08v-.2c0-.03.03-.05.05-.05h.77c.08 0 .08 0 .08.07v.19s0 .07-.07.07l-.38.01z"/><path fill="#e30917" d="M10.96 19.61v.04c0 .05.01.1.04.14a.22.22 0 0 1-.1.01h-.43a.05.05 0 0 1-.04-.05l.01-.03c.06-.1.04-.14-.07-.14a.1.1 0 0 1-.1-.08v-.04c0-.1.05-.17.13-.2a.19.19 0 0 1 .25.03l.07.08c.01.04.04.06.08.06l.06-.03a.54.54 0 0 0 .15-.15l.05-.06a.05.05 0 0 1 .05-.03h.04a.07.07 0 0 1 .02.1.32.32 0 0 1-.07.1c-.05.06-.11.1-.17.14a.27.27 0 0 0-.1.1.05.05 0 0 0 0 .04.05.05 0 0 0 .08.03l.09-.06z"/><path fill="#db281e" d="M13.6 6.17h.32c.07 0 .08 0 .08.07v.24c0 .03-.03.06-.06.06h-.7a.05.05 0 0 1-.05-.06v-.26c0-.03.02-.06.04-.06h.36zM2.3 7.53h-.38c-.08 0-.08 0-.08-.08v-.17a.06.06 0 0 1 .06-.05h.8c.07 0 .08 0 .08.07v.17c0 .07 0 .07-.07.07l-.4.01zm4.24 0h-.41a.05.05 0 0 1-.06-.05v-.21c0-.03.03-.05.05-.05h.8c.1 0 .1 0 .1.1v.14s-.02.07-.08.07h-.4zm8.1 0h-.34c-.1 0-.1 0-.1-.1v-.19a.05.05 0 0 1 .06-.05h.76c.04 0 .06.03.06.05v.23c0 .03-.03.06-.06.06h-.38z"/><path fill="#dc281e" d="M2.33 2.03h.34c.03 0 .05.02.05.05v.28c0 .03-.02.05-.05.05h-.69a.05.05 0 0 1-.05-.06v-.27a.05.05 0 0 1 .06-.05h.34z"/><path fill="#28170b" d="M3.52 6.16h.31c.08 0 .09.01.09.1v.19c0 .07-.02.08-.1.09h-.6c-.1 0-.1 0-.1-.1v-.22c0-.03.02-.05.05-.05h.34z"/><path fill="#db281e" d="M17.3 2.5h.3c.06 0 .06.01.06.08v.28c0 .03-.02.05-.05.05h-.63a.05.05 0 0 1-.04-.05v-.3c0-.03.02-.06.05-.06h.31zM1.2 7.54H.81c-.08 0-.08 0-.08-.07v-.2a.05.05 0 0 1 .06-.05h.76c.1 0 .1 0 .1.08v.17c0 .03-.02.06-.05.06h-.42zm10.84-.49h-.36c-.07 0-.07 0-.07-.06v-.22c0-.03.02-.06.05-.06h.76c.03 0 .05.03.05.06V7c0 .03-.02.06-.06.06h-.37zm3.19-.33h.35c.07 0 .07 0 .08.06V7a.05.05 0 0 1-.07.04h-.75a.06.06 0 0 1-.06-.05v-.2c0-.08 0-.08.07-.08h.36zm-2.68.82h-.36c-.07 0-.07 0-.07-.08v-.2a.05.05 0 0 1 .06-.05h.75c.03 0 .05.02.05.05v.21s0 .07-.07.07h-.36z"/><path fill="#dc281e" d="M14.64 2.03h.33a.05.05 0 0 1 .05.06v.27c0 .03-.01.05-.04.05h-.68a.05.05 0 0 1-.06-.04v-.29c0-.03.02-.05.05-.05h.35z"/><path fill="#db281e" d="M2.84 8.06H2.5a.05.05 0 0 1-.05-.04v-.28a.05.05 0 0 1 .06-.05h.66c.03 0 .06.03.06.06V8a.05.05 0 0 1-.07.06h-.32z"/><path fill="#dc281e" d="M6.04 6.7h.37c.03 0 .05.03.05.06v.23a.05.05 0 0 1-.06.06h-.73A.05.05 0 0 1 5.62 7v-.24c0-.03.02-.05.05-.05h.37z"/><path fill="#db281e" d="M11.43 7.2h.35c.07 0 .07 0 .07.06v.21c0 .03-.02.06-.05.06h-.71c-.1 0-.1 0-.1-.1v-.18c0-.04.03-.06.06-.06h.38zm2.15 0h.35c.07 0 .07 0 .07.07v.2c0 .03-.02.06-.05.06h-.74a.06.06 0 0 1-.06-.06v-.22c0-.03.03-.05.05-.05h.38z"/><path fill="#dc281e" d="M9.07 3h.25c.07 0 .07 0 .07.07v.32c0 .03-.02.05-.05.05h-.56a.05.05 0 0 1-.05-.05v-.35a.05.05 0 0 1 .07-.05h.28zM7.7 2.03h.32c.03 0 .05.02.05.05v.29c0 .02-.02.04-.05.04h-.66a.05.05 0 0 1-.05-.04v-.29a.05.05 0 0 1 .07-.05h.33z"/><path fill="#db281e" d="M4.5 6.53h-.3c-.07 0-.08 0-.08-.06v-.26c0-.03.02-.05.05-.05h.66c.03 0 .05.03.05.05v.26c0 .04-.02.06-.05.06h-.34z"/><path fill="#dc281e" d="M16.67 18.12a.32.32 0 0 0 .16-.11c.05-.07.03-.1-.05-.11h-.03a.73.73 0 0 0-.21.03.5.5 0 0 1 .31-.18 1.39 1.39 0 0 1 .45-.03l.15.01c.08.01.11.06.07.12a.58.58 0 0 1-.4.28 1.53 1.53 0 0 1-.42 0l-.03-.03z"/><path fill="#db281e" d="M7.58 6.53h-.3c-.07 0-.07 0-.07-.07v-.24c0-.03.02-.05.05-.05h.64a.05.05 0 0 1 .05.06v.26c0 .03-.02.05-.05.05h-.31zm6.6.51h-.34c-.07 0-.07 0-.08-.06v-.22c0-.03.03-.05.05-.05h.72c.03 0 .05.02.05.05V7a.06.06 0 0 1-.07.06h-.34zM10.57 2.5h.27c.04 0 .06.03.06.06v.3c0 .03-.02.05-.05.05h-.56a.05.05 0 0 1-.05-.05v-.3c0-.03.02-.05.05-.05h.28z"/><path fill="#da281e" d="M13.08 7.04h-.33c-.07 0-.07 0-.07-.07v-.21c0-.03.02-.05.05-.05h.73c.02 0 .04.02.04.05V7c0 .03-.02.06-.05.06h-.36z"/><path fill="#db281e" d="M3.42 7.22h.36c.06 0 .07 0 .07.07v.16c0 .08 0 .08-.07.08h-.73s-.07 0-.07-.07v-.18c0-.06 0-.07.07-.07h.37z"/><path fill="#dc281e" d="M5 6.7h.33c.07 0 .07 0 .08.08v.2c0 .06 0 .06-.07.06h-.67c-.08 0-.08 0-.08-.08v-.18s0-.07.07-.07H5z"/><path fill="#0039a6" d="M11.24 10.18v.02c0 .05-.03.1-.07.12a.32.32 0 0 1-.24.04.89.89 0 0 1-.39-.2c-.07-.1-.05-.16.06-.18a.71.71 0 0 0 .18-.06.87.87 0 0 1 .11-.04.26.26 0 0 1 .34.18l.02.12z"/><path fill="#db281e" d="M5.5 7.53h-.35c-.08 0-.08 0-.08-.09v-.16c0-.03.02-.05.06-.05h.7c.08 0 .08 0 .08.07v.17s0 .07-.07.07h-.36zM8.05 6h-.24s-.08 0-.08-.06v-.29a.05.05 0 0 1 .07-.05h.53c.03 0 .05.02.05.05v.3c0 .02-.02.05-.06.05h-.26zm-3.6 1.54H4.1c-.07 0-.08 0-.08-.07V7.3c0-.07 0-.08.08-.08h.69c.07 0 .08 0 .08.08v.16s-.01.07-.08.07h-.35z"/><path fill="#dc281e" d="M17.3 2.41h-.28c-.07 0-.07 0-.07-.07v-.25c0-.03.02-.05.05-.05h.62c.03 0 .05.02.05.05v.28c0 .03-.03.05-.05.05h-.32z"/><path fill="#db281e" d="M3.99 7.05h-.34A.05.05 0 0 1 3.6 7v-.24a.05.05 0 0 1 .06-.05h.68c.03 0 .05.02.05.04V7c0 .03-.02.05-.04.05h-.36zM.94 2.9H.7s-.07 0-.07-.07v-.29c0-.03.02-.05.05-.05h.52c.04 0 .06.02.06.06v.29c0 .05-.02.06-.07.06H.95zm8.57 0h-.26a.06.06 0 0 1-.05-.06v-.29a.06.06 0 0 1 .06-.06h.49c.04 0 .06.02.06.05v.31a.06.06 0 0 1-.07.05h-.23z"/><path fill="#dc281e" d="M10.58 2.03h.27c.03 0 .05.02.05.05v.28c0 .03-.02.05-.04.05h-.57a.05.05 0 0 1-.05-.04v-.29c0-.03.03-.05.06-.05h.29z"/><path fill="#db281e" d="M11.57 6.17h.28c.03 0 .06.02.06.05v.26c0 .03-.03.06-.06.06h-.58a.05.05 0 0 1-.05-.07v-.24c0-.03.02-.06.05-.06h.29zm5.72.87h-.32a.05.05 0 0 1-.05-.05v-.23c0-.03.02-.05.05-.05h.63c.03 0 .06.02.06.05V7a.05.05 0 0 1-.07.05h-.32zM8.8 2.91h-.25a.05.05 0 0 1-.06-.05v-.3c0-.03.03-.06.05-.06h.51c.03 0 .05.02.05.05v.31c0 .03-.02.05-.04.05H8.8zm-4.97 0H3.6s-.07 0-.07-.07v-.26c0-.07 0-.08.07-.08h.47c.03 0 .05.02.05.05v.32c0 .03-.02.06-.05.06h-.26zm7.23 3.8h.28c.07 0 .07 0 .07.07v.21c0 .03-.02.06-.05.06h-.62a.05.05 0 0 1-.05-.06v-.23c0-.03.02-.05.04-.05h.32zm6.25 1.35h-.26c-.07 0-.07 0-.07-.07v-.24a.05.05 0 0 1 .06-.06h.54c.04 0 .06.02.06.05v.27c0 .03-.02.06-.05.06h-.29zm-6.63-1.53h-.25c-.07 0-.07 0-.07-.06v-.25c0-.03.02-.05.05-.05h.53c.04 0 .06.02.06.05v.26a.05.05 0 0 1-.07.05h-.27z"/><path fill="#dc281e" d="M.95 2.41H.68a.05.05 0 0 1-.05-.06v-.27c0-.03.02-.05.05-.05h.54c.03 0 .06.02.06.05v.28c0 .03-.02.05-.05.05H.95zm2.87 0h-.25a.05.05 0 0 1-.05-.05v-.27a.05.05 0 0 1 .07-.05h.47c.03 0 .06.02.06.05v.27c0 .04-.03.06-.06.06h-.24z"/><path fill="#db281e" d="M7.55 7.53h-.26c-.08 0-.08 0-.08-.08v-.18c0-.03.02-.05.05-.05h.57c.03 0 .05.02.05.05v.22a.05.05 0 0 1-.06.04h-.27zM10.33 6h-.19a.05.05 0 0 1-.06-.05v-.31a.06.06 0 0 1 .07-.06h.38c.03 0 .06.03.06.06v.28c0 .07 0 .07-.07.07h-.17z"/><path fill="#e20917" d="M2.48 17.06h-.05a1.5 1.5 0 0 1-.6-.12.44.44 0 0 1-.12-.07.11.11 0 0 1 0-.19.21.21 0 0 1 .25-.03c.14.08.26.16.37.27l.14.14z"/><path fill="#db281e" d="M7.53 1.51h.16c.04 0 .06.02.06.05v.33c0 .03-.02.05-.05.05h-.34a.04.04 0 0 1-.05-.05v-.33a.05.05 0 0 1 .06-.05h.16zm-6.9.2v-.16a.05.05 0 0 1 .05-.04h.29c.03 0 .05.02.05.05v.31c0 .03-.02.05-.05.05H.68a.05.05 0 0 1-.05-.04v-.17zm17.03 0v.17c0 .03-.02.06-.04.06h-.3a.04.04 0 0 1-.05-.05v-.33c0-.03.02-.05.04-.05h.31c.03 0 .05.02.05.05v.15zM15.68 10a1.67 1.67 0 0 1 .58-.23c.06 0 .1.03.13.07v.03c0 .04-.02.08-.05.1a.8.8 0 0 1-.16.14.26.26 0 0 1-.17.03.6.6 0 0 1-.33-.16zm-1.06-8.27v.15c0 .04-.02.06-.05.06h-.27a.05.05 0 0 1-.05-.05v-.33c0-.03.02-.05.04-.05h.28c.03 0 .06.02.06.05l-.01.17zM.92 8.06H.8c-.07 0-.07 0-.07-.06v-.26a.05.05 0 0 1 .06-.05h.27c.04 0 .07.02.07.06v.24s0 .07-.07.08H.92zm16.41-4.84v-.17a.05.05 0 0 1 .06-.05h.23c.03 0 .05.02.05.05v.33c0 .03-.03.06-.05.06h-.24a.05.05 0 0 1-.05-.05V3.2z"/><path fill="#d9281e" d="M4.12 1.72v.16c0 .03-.02.06-.05.06h-.23a.05.05 0 0 1-.05-.05v-.33a.05.05 0 0 1 .06-.05h.22c.03 0 .05.02.05.05v.16z"/><path fill="#db281e" d="M8.57 6.36v.02l-.17.36c0 .02-.02.04-.05.04l-.03-.01-.15-.07a.05.05 0 0 1-.04-.05l.01-.03.17-.37c0-.02.02-.04.04-.04l.03.01.17.07c.02 0 .03.02.04.04z"/><path fill="#0039a5" d="M1.96 12.55a.84.84 0 0 0 .3-.25l.05-.03.04.02c.05.04.08.08.11.13a.67.67 0 0 1 .1.2c0 .04-.04.07-.07.07a.3.3 0 0 1-.15 0 1.53 1.53 0 0 1-.38-.14z"/><path fill="#da281e" d="M10.9 3.22v.16c0 .04-.02.06-.05.06h-.21a.05.05 0 0 1-.06-.05v-.34c0-.03.02-.05.05-.05h.22a.05.05 0 0 1 .05.07v.15zm0-1.5v.16c0 .04-.02.06-.05.06h-.22a.04.04 0 0 1-.05-.05v-.33c0-.03.02-.05.04-.05h.23c.03 0 .05.02.05.05v.16z"/><path fill="#0039a5" d="M10.72 9.36c.16 0 .23.06.25.22l.01.1v.02c0 .04-.02.06-.05.06a.46.46 0 0 1-.38-.2.13.13 0 0 1 .1-.19h.04a.4.4 0 0 1 .03 0z"/><path fill="#da281e" d="M.92 7.05H.77A.04.04 0 0 1 .73 7v-.25c0-.02.02-.04.04-.04h.31c.02 0 .04.01.04.04V7c0 .03-.02.05-.04.05H.92zm8.26-.92h-.16a.05.05 0 0 1-.05-.05v-.21c0-.04.03-.06.06-.06h.3c.04 0 .06.02.06.05v.2c0 .04-.02.06-.05.06h-.16zM4.12 3.22v.17c0 .03-.02.05-.04.05h-.21a.04.04 0 0 1-.04-.04v-.35c0-.03.02-.05.04-.05h.2c.03 0 .05.02.05.05v.17z"/><path fill="#0039a5" d="M1.33 17.56l.2.34c.03.04.02.06-.01.07l-.1.02c-.1.02-.2.05-.3.1l.01-.04a.7.7 0 0 1 .2-.49z"/><path fill="#da281e" d="M14.53 3.23v.16c0 .03-.02.05-.05.05h-.18a.04.04 0 0 1-.04-.04v-.36A.04.04 0 0 1 14.3 3h.18c.02 0 .04.02.04.04v.18z"/><path fill="#0039a5" d="M1.61 18.41l.03.01c.09.03.16.07.24.12.05.04.05.05.01.1l-.14.21a.05.05 0 0 1-.09.02.36.36 0 0 1-.15-.3v-.03c.01-.05.05-.1.1-.1z"/><path fill="#da281e" d="M10.75 7.36v.1c0 .06 0 .07-.06.07h-.22a.05.05 0 0 1-.06-.06v-.23c0-.03.02-.05.05-.05h.24a.05.05 0 0 1 .05.06v.1z"/><path fill="#0039a5" d="M2.99 18.6l.3.04c.08 0 .1.03.08.09 0 .03-.02.05-.04.07a.74.74 0 0 1-.2.2c-.03.02-.05.02-.07 0a.63.63 0 0 1-.07-.4z"/><path fill="#db281e" d="M10.22 6.67c0 .03-.02.05-.05.05l-.19.05h-.02a.05.05 0 0 1-.05-.05l-.06-.24a.05.05 0 0 1 .04-.08c.06 0 .13-.02.19-.04.02 0 .05 0 .05.03l.07.28z"/><path fill="#0039a5" d="M2.25 10.22l.1.01c.1.04.11.06.06.15-.04.05-.06.14-.13.14A.36.36 0 0 1 2 10.4c-.04-.05-.04-.08.02-.12a.38.38 0 0 1 .23-.07zm-.97 1.13c.1-.13.22-.23.4-.23.06 0 .06 0 .06.06v.05c0 .07 0 .13-.02.2 0 .04-.02.05-.08.04a.45.45 0 0 1-.11-.04.78.78 0 0 0-.23-.07zm2.14-1.34c.1.09.2.2.26.32l.03.1c0 .02-.02.03-.03.03l-.3-.01c-.07 0-.1-.04-.07-.1 0-.03.02-.04.03-.06l.08-.26z"/><path fill="#db281e" d="M9.98 6.13l-.18.2-.04-.02-.2-.17c-.02-.01-.03-.02-.03-.04s.01-.02.02-.03l.14-.16.04-.01.03.01.2.17.01.03z"/><path fill="#da281e" d="M8.18 12.4a.17.17 0 0 1 .13-.13.5.5 0 0 1 .37.04c.08.03.14.11.14.2-.18-.04-.4-.08-.62-.1zM2.87 2.2v-.11a.05.05 0 0 1 .05-.05c.25 0 .2-.03.2.18v.15c0 .03-.02.05-.05.05h-.15a.05.05 0 0 1-.06-.04v-.15z"/><path fill="#db281e" d="M7.54 3.22v.18c0 .03-.02.05-.05.05h-.01c-.2 0-.17.02-.18-.16v-.23c0-.03.02-.05.05-.05.17 0 .17-.01.17.17v.05z"/><path fill="#d8271e" d="M8.38 7.95c0 .18.03.16-.16.16h-.07a.05.05 0 0 1-.05-.06v-.22c0-.03.02-.05.05-.05h.06c.19 0 .16-.03.16.15z"/><path fill="#0039a5" d="M1.25 17.03c.08-.14.14-.26.3-.33l.12.26c.03.1 0 .12-.07.1l-.12-.02a.36.36 0 0 0-.22 0z"/><path fill="#da281e" d="M10.08 6.91c.18 0 .15-.02.15.16 0 .15.02.14-.14.14h-.12a.05.05 0 0 1-.05-.05v-.21a.05.05 0 0 1 .06-.05h.1z"/><path fill="#db281e" d="M10.08 7.68c-.17 0-.15.03-.15-.14 0-.16-.02-.14.14-.14s.16 0 .16.16c0 .14.01.13-.12.13h-.03z"/><path fill="#da281e" d="M8.1 7.44c0-.16-.02-.13.15-.13.14 0 .14-.02.13.13 0 .17 0 .17-.17.17h-.06a.04.04 0 0 1-.04-.05v-.12z"/><path fill="#d8271e" d="M10.1 7.85c.15 0 .13-.02.13.16v.06c0 .02-.01.04-.04.04h-.21a.05.05 0 0 1-.05-.04V7.9c0-.03.02-.05.04-.05h.13z"/><path fill="#da281e" d="M8.85 6.06a.2.2 0 0 1-.02.02l-.18.13-.03.02a.04.04 0 0 1-.04-.03l-.01-.01c-.12-.16-.12-.16.03-.27.12-.08.1-.08.17.03l.05.07.02.04z"/><path fill="#db281e" d="M.63 3.22v-.17c0-.03.02-.05.05-.05h.06c.05 0 .07.02.07.07v.31c0 .03-.03.05-.06.05H.67a.04.04 0 0 1-.04-.04v-.17z"/><path fill="#d8271e" d="M17.65 6.36v.09c0 .02-.01.05-.03.06a.19.19 0 0 1-.15 0 .05.05 0 0 1-.02-.05v-.23c0-.04.03-.07.06-.07h.08c.03 0 .06.03.06.06v.13z"/><path fill="#d9281e" d="M8.23 7.16c-.14 0-.12.02-.12-.13s-.01-.12.13-.12.14-.02.14.15c0 .1 0 .1-.1.1h-.04z"/><path fill="#d3261d" d="M1.85 2.23v.14s-.04.06-.07.05-.09 0-.09-.05v-.29c0-.04.02-.05.1-.05.04 0 .06.03.06.06v.14z"/><path fill="#da281e" d="M15.4 2.21v-.12a.05.05 0 0 1 .06-.05h.05c.04 0 .06.02.06.05v.28a.05.05 0 0 1-.07.05h-.06a.04.04 0 0 1-.05-.04V2.2z"/><path fill="#d7271d" d="M7.7 6.87v-.08c0-.07 0-.09.09-.08s.08.01.09.08v.18s-.03.08-.1.07-.08 0-.08-.07v-.1z"/><path fill="#da281e" d="M12.7 12.88v.01a.2.2 0 0 1-.04.1.09.09 0 0 1-.1.05.06.06 0 0 1-.04-.07l-.02-.26c0-.05.02-.06.06-.05a.2.2 0 0 1 .13.22zm4.93-5.52v.09c0 .03 0 .05-.03.06a.19.19 0 0 1-.13 0 .05.05 0 0 1-.03-.04v-.22c0-.03.03-.06.06-.06h.07c.04 0 .06.03.06.06v.11z"/><path fill="#d7271d" d="M10.57 6.88v.09a.08.08 0 0 1-.11.07.06.06 0 0 1-.06-.05v-.23c0-.05.04-.06.08-.06s.08 0 .08.06v.12z"/><path fill="#d7271e" d="M10.08 8.47H10c-.07 0-.07 0-.07-.07s0-.08.07-.08h.18s.06.04.06.08 0 .08-.06.07h-.1z"/><path fill="#d3261d" d="M16.85 15.7a1.48 1.48 0 0 0 .08-.58c.04.03.07.07.07.13a.96.96 0 0 1-.01.31.17.17 0 0 1-.13.14z"/><path fill="#d6271d" d="M15.5 12.68l.02.06-.02.05a.86.86 0 0 1-.22.28.16.16 0 0 1-.16.03c0-.03 0-.04.02-.05.15-.1.26-.22.35-.36z"/><path fill="#d4271d" d="M16.9 14.9a.14.14 0 0 1-.08-.13 1.11 1.11 0 0 1 0-.28.2.2 0 0 1 .1-.15h.06a1.34 1.34 0 0 0-.07.56z"/><path fill="#d5271d" d="M8.25 8.32h.05a.08.08 0 0 1 .07.13l-.04.02h-.2a.04.04 0 0 1-.04-.04c-.02-.08 0-.1.1-.1h.04z"/><path fill="#ebe9e1" d="M9.6 10.93a.52.52 0 0 1-.21-.06c-.06-.03-.07-.06-.04-.1a.09.09 0 0 1 .08-.05c.02 0 .04 0 .05.02.07.04.1.11.12.2z"/><path fill="#d7271d" d="M13.97 18.35a.42.42 0 0 1 .01-.3.22.22 0 0 1 .06-.07l.05-.02h.01l.02.03v.02c0 .04-.02.08-.03.11a.67.67 0 0 1-.1.23z"/><path fill="#7a130f" d="M5.24 18.05l.03.02-.03.02H5.2c0-.02.01-.02.03-.03z"/><path fill="#001d53" d="M9.52 9.02H9.5c-.01 0-.02 0-.02-.02l.04.01z"/><path fill="#010202" d="M3.65 23.22v.02c0 .12.09.21.2.22l.1.02a2.5 2.5 0 0 0 .57-.04c.08-.02.1-.04.11-.15v-.02a.1.1 0 0 0-.08-.1.41.41 0 0 0-.15 0l-.27.02h-.05a.4.4 0 0 1-.1-.01c-.07-.02-.07-.07-.03-.1a3.34 3.34 0 0 1 .57-.2c.56-.16 1.1-.27 1.64-.36q.6-.1 1.19-.16c.38-.04.82-.07 1.26-.07h.21a25.78 25.78 0 0 1 2.92.33q.6.1 1.2.23a.1.1 0 0 1 .07.03c-.05.1-.1.24-.14.37a.92.92 0 0 0-.03.31c0 .11.07.2.16.26.02.02.05.03.08.03s.05 0 .07-.02a.1.1 0 0 0 .07-.13.42.42 0 0 0-.06-.13.5.5 0 0 1-.08-.13v-.06c0-.08.06-.14.14-.14.04 0 .07.03.08.06l.02.12v.03c0 .05.02.06.06.06h.71c.03 0 .06-.03.06-.06 0-.06 0-.1.02-.15 0-.03.03-.05.06-.05.02 0 .04.01.05.03a.15.15 0 0 1 .04.16.27.27 0 0 1-.16.18 14.1 14.1 0 0 1-1.98.54q-.84.17-1.6.24a14.48 14.48 0 0 1-2.3.06l-1-.07c-.34-.03-.7-.05-1.04-.1l-1.03-.15a6.19 6.19 0 0 1-1.2-.33 1.76 1.76 0 0 1-.4-.22q-.2-.16.03-.28a.15.15 0 0 1 .07-.03z"/><path fill="#010202" d="M8.9 25.19h-.03a13.77 13.77 0 0 1-3.18-.36 4.25 4.25 0 0 1-.93-.32l-.65-.3a.52.52 0 0 1-.1-.05.1.1 0 0 1-.04-.13c.03-.04.06-.04.12 0l.64.26c.58.2 1.19.34 1.82.4a26.52 26.52 0 0 0 3.28.11c.29 0 .6-.03.9-.08.14-.03.33-.04.53-.06a8.3 8.3 0 0 0 2.6-.63l.04.02v.02l-.02.04a5.33 5.33 0 0 1-.76.36c-.61.23-1.27.41-1.96.52-.73.1-1.5.17-2.3.17z"/><path fill="#020202" d="M9.26 25.8v.03c0 .04-.04.08-.1.09a.09.09 0 0 1-.08-.08.54.54 0 0 0-.48-.33.52.52 0 0 0-.37.15l-.15.17a.42.42 0 0 1-.1.09l-.05.01a.1.1 0 0 1-.05-.01.08.08 0 0 1-.02-.1l.03-.06c.16-.19.34-.35.59-.4a.75.75 0 0 1 .72.27c.04.05.07.11.07.18z"/><path fill="#030404" d="M13.9 23.15l-.17.02h-.43a1.16 1.16 0 0 1-.16-.23c-.02-.04 0-.06.03-.05.3.07.53.15.77.25h-.03v.01z"/><path fill="#010202" d="M4.43 13.55c.06.04.14.07.22.08.12.03.12.04.07.15h.16v.01c0 .04-.01.06-.03.09l.1.02c.05.01.08.04.05.08s0 .05.03.06a.5.5 0 0 1 .09.05c.07.05.07.07.02.15l.06.03a.07.07 0 0 1 .05.1v.03c0 .05.02.1.04.13.03.04.05.1.07.15a.22.22 0 0 1-.08.01.35.35 0 0 1-.16-.03 1 1 0 0 1-.3-.2c-.19-.2-.36-.42-.49-.66a5.28 5.28 0 0 1-.23-.48c-.08-.2-.17-.36-.25-.5a.79.79 0 0 0-.19-.25.42.42 0 0 1-.1-.37c0-.03.02-.05.04-.07a.08.08 0 0 1 .12 0c.03.02.05.06.06.1.02.06.08.11.14.13.04 0 .06.02.06.06v.05c0 .06.04.11.1.12.01 0 .03.02.03.04v.02c0 .04 0 .07.03.1.02 0 .03.03.03.05v.02a.1.1 0 0 0 .06.13c.02.01.03.03.03.05v.01c.02.09.04.16.08.23.02.04.04.08.08.1a.16.16 0 0 1 .04.24v.03zm-.1 4.14a.22.22 0 0 1 .11-.15c.29-.23.62-.27.95-.32a.7.7 0 0 1 .26 0c.03 0 .06.02.08.03.03.01.05.04.05.08 0 .02 0 .03-.02.05a.74.74 0 0 1-.23.24c-.15.1-.34.17-.53.2a3 3 0 0 1-.43.03h-.09a.3.3 0 0 1-.13-.03.2.2 0 0 0-.09-.01h-.09c-.07-.01-.1-.05-.09-.1a.11.11 0 0 1 .14-.08l.1.05zm4.64 9.9a.91.91 0 0 0-.24.08.36.36 0 0 0-.18.3v.02c0 .1.05.19.14.24a.59.59 0 0 0 .61 0c.1-.06.18-.18.18-.32v-.01a.05.05 0 0 1 .06-.05c.23-.01.44-.06.62-.16.04-.02.05 0 .05.04l.02.12c0 .16-.07.3-.18.4a.97.97 0 0 1-.39.23 2.1 2.1 0 0 1-1.4-.02.78.78 0 0 1-.25-.14.41.41 0 0 1-.12-.47c.04-.19.2-.34.4-.36a1.15 1.15 0 0 1 .58.04l.06.03.03.01z"/><path fill="#050606" d="M9.11 27.85h.03a.1.1 0 0 1 .05.01.1.1 0 0 1 .01.04c0 .02 0 .05-.03.06a.28.28 0 0 1-.3.05.06.06 0 0 1-.05-.06c0-.02.02-.04.03-.05a.32.32 0 0 1 .14-.05c.04 0 .08 0 .1-.02z"/><path fill="#f3efe7" d="M9.15 22.88c.12 0 .18.07.15.17l-.07.27-.02.11c0 .06.01.12.03.17.02.02.02.06.02.1v.02a.1.1 0 1 1-.17.06.27.27 0 0 1-.07-.1.89.89 0 0 1 0-.7c.02-.05.06-.1.12-.1zm-1.49.46a1 1 0 0 1 .05-.31.34.34 0 0 1 .07-.1.14.14 0 0 1 .17-.03.1.1 0 0 1 .07.1l-.01.05-.08.27a.46.46 0 0 0 .02.28.3.3 0 0 1 .02.1v.01a.1.1 0 0 1-.1.1.1.1 0 0 1-.09-.03.37.37 0 0 1-.08-.16.89.89 0 0 1-.04-.27v-.02zm-2.9 0c0-.1.03-.21.06-.31a.31.31 0 0 1 .06-.1.13.13 0 0 1 .1-.05c.03 0 .06 0 .08.02a.1.1 0 0 1 .05.15c-.03.09-.06.17-.07.26a.49.49 0 0 0 .01.29c.02.03.02.06.02.1v.03a.1.1 0 0 1-.16.06.26.26 0 0 1-.09-.12.78.78 0 0 1-.05-.3v-.02zm.46 0a.9.9 0 0 1 .09-.38.14.14 0 0 1 .16-.08.12.12 0 0 1 .1.16 2.42 2.42 0 0 0-.08.39c0 .05 0 .11.03.16a.37.37 0 0 1 .02.12.1.1 0 0 1-.06.1.1.1 0 0 1-.13-.03.38.38 0 0 1-.08-.14.97.97 0 0 1-.04-.26zm.4 0c0-.11.03-.21.06-.3a.32.32 0 0 1 .06-.12.15.15 0 0 1 .22 0l.02.07v.04a6.64 6.64 0 0 0-.1.39c0 .07.02.13.04.2l.01.06v.02a.1.1 0 0 1-.06.09.1.1 0 0 1-.11-.02.3.3 0 0 1-.08-.12.76.76 0 0 1-.05-.3v-.02zm3.78 0c0-.1.02-.19.05-.28.01-.05.04-.1.08-.14a.15.15 0 0 1 .21 0 .11.11 0 0 1 .02.12l-.07.24a.49.49 0 0 0 .03.32l.01.1a.1.1 0 0 1-.05.1.1.1 0 0 1-.04 0 .1.1 0 0 1-.08-.03.32.32 0 0 1-.07-.11.78.78 0 0 1-.06-.3v-.02zm-.86.02v-.02a1 1 0 0 1 .05-.3.33.33 0 0 1 .06-.12.15.15 0 0 1 .22 0 .1.1 0 0 1 .02.11 4.46 4.46 0 0 0-.1.4c0 .06.02.12.04.17l.02.1a.1.1 0 0 1-.05.08.1.1 0 0 1-.11-.02.3.3 0 0 1-.08-.11.75.75 0 0 1-.06-.3v-.01zm3.05 0c0-.12.02-.22.05-.32a.4.4 0 0 1 .05-.1.14.14 0 0 1 .19-.05.1.1 0 0 1 .05.16 2.46 2.46 0 0 0-.08.38l.03.16.02.1v.01a.1.1 0 0 1-.06.1.1.1 0 0 1-.05.01.1.1 0 0 1-.08-.04.4.4 0 0 1-.09-.16.98.98 0 0 1-.04-.26zm-.42.01c0-.12.02-.23.06-.34a.3.3 0 0 1 .07-.12.14.14 0 0 1 .17-.01.1.1 0 0 1 .07.1.1.1 0 0 1-.01.04c-.03.1-.06.2-.07.3a.44.44 0 0 0 .01.25.2.2 0 0 1 .03.1v.02a.1.1 0 0 1-.05.1.1.1 0 0 1-.12-.03.46.46 0 0 1-.1-.24l-.03-.17zm1.03-.5c.12 0 .18.08.15.18l-.07.24a.49.49 0 0 0 .02.31l.01.1a.1.1 0 0 1-.06.1h-.04a.1.1 0 0 1-.07-.03.26.26 0 0 1-.07-.1.88.88 0 0 1 .02-.71c.01-.05.06-.1.12-.1zm-5.77.47c0-.1.02-.2.05-.3a.3.3 0 0 1 .07-.12.15.15 0 0 1 .22.01.12.12 0 0 1 0 .11 2 2 0 0 0-.08.4c0 .05 0 .1.03.15l.01.1v.02a.1.1 0 0 1-.06.1.1.1 0 0 1-.11-.02.32.32 0 0 1-.08-.1.74.74 0 0 1-.06-.3v-.03zm3.9 0v-.01c0-.1.02-.2.05-.28a.32.32 0 0 1 .07-.13.14.14 0 0 1 .18-.03.1.1 0 0 1 .04.16 2.51 2.51 0 0 0-.1.38c0 .06.02.11.04.16l.01.1v.02a.1.1 0 0 1-.06.09.1.1 0 0 1-.11-.02.3.3 0 0 1-.08-.1.75.75 0 0 1-.06-.31v-.03zm-4.1-.46h.01a.13.13 0 0 1 .12.17 2.55 2.55 0 0 0-.09.38l.03.16a.45.45 0 0 1 .03.11c0 .05-.03.08-.06.1a.1.1 0 0 1-.14-.05.47.47 0 0 1-.1-.2.95.95 0 0 1 .05-.54.26.26 0 0 1 .08-.12.1.1 0 0 1 .07-.04zm1.88.47v-.02c0-.1.01-.2.04-.3a.33.33 0 0 1 .07-.11c.03-.03.07-.05.1-.05s.09.02.12.05a.1.1 0 0 1 .02.1 6.74 6.74 0 0 0-.1.4c0 .07.02.13.04.19l.01.08v.02a.1.1 0 0 1-.05.09.1.1 0 0 1-.11-.02.3.3 0 0 1-.08-.1.72.72 0 0 1-.06-.3v-.04zm2.65.01c0-.11.02-.22.06-.33a.36.36 0 0 1 .06-.1.14.14 0 0 1 .19-.03.1.1 0 0 1 .05.15 2.87 2.87 0 0 0-.08.38c0 .06 0 .11.03.17a.3.3 0 0 1 .03.1.1.1 0 0 1-.06.1.1.1 0 0 1-.13-.04.48.48 0 0 1-.1-.23l-.02-.16z"/><path fill="#f4f0e8" d="M12.4 23.37c0-.12.02-.23.05-.33a.35.35 0 0 1 .06-.11.14.14 0 0 1 .1-.05c.03 0 .06 0 .08.02.04.02.07.06.07.1a2.58 2.58 0 0 0-.1.44c0 .05.02.1.04.15a.31.31 0 0 1 .03.13c0 .04-.03.07-.06.1a.1.1 0 0 1-.13-.04.48.48 0 0 1-.1-.23l-.02-.16z"/><path fill="#f3efe7" d="M9.87 23.31c0-.1.02-.18.05-.27a.34.34 0 0 1 .06-.11.14.14 0 0 1 .19-.04.11.11 0 0 1 .04.15 2.55 2.55 0 0 0-.08.38c0 .05 0 .1.02.15.02.03.03.07.03.12a.1.1 0 0 1-.17.06.31.31 0 0 1-.07-.1.82.82 0 0 1-.06-.37z"/><path fill="#f4f0e8" d="M7.46 22.87h.02a.13.13 0 0 1 .12.18l-.08.27a.47.47 0 0 0 .03.29l.01.08v.01a.1.1 0 0 1-.18.08.37.37 0 0 1-.09-.16.97.97 0 0 1 .02-.6.27.27 0 0 1 .06-.1.11.11 0 0 1 .09-.04z"/><path fill="#f3f0e8" d="M6.82 23.36c0-.12.02-.22.05-.32a.32.32 0 0 1 .07-.12.14.14 0 0 1 .18-.02.1.1 0 0 1 .05.14 2.62 2.62 0 0 0-.1.4c0 .04.02.1.04.14a.26.26 0 0 1 .01.14.1.1 0 0 1-.1.09.1.1 0 0 1-.06-.02.28.28 0 0 1-.08-.1.75.75 0 0 1-.06-.32z"/><path fill="#f0ede5" d="M9.82 24.32H9.8a.05.05 0 0 1-.05-.04v-.02a.12.12 0 0 1 .08-.07l.16-.09a.66.66 0 0 0 .2-.14.23.23 0 0 1 .09-.06l.03-.01s.02 0 .03.02v.04a.38.38 0 0 1-.04.07c-.11.13-.25.23-.41.3l-.06.03z"/></svg>