<svg version="1.1" xmlns="http://www.w3.org/2000/svg" viewBox="0 0 29 32"><path fill="#000" stroke="#000" stroke-width=".42" stroke-miterlimit="4" stroke-linecap="butt" stroke-linejoin="miter" d="M.26.37H28.5v17.77c0 6.28-5.23 13.6-13.6 13.6S.26 24.42.26 18.14z"/><path fill="#f4f0e8" opacity=".99" d="M6.77 7.74L5.5 6.64l-1.4.93.28-1.7-1.48-.79 1.57-.6-.08-1.71 1.28 1.1 1.41-.93-.29 1.7 1.49.79-1.57.6zm12.03 0l-1.28-1.1-1.41.93.29-1.7-1.49-.79 1.57-.6-.07-1.71 1.28 1.1 1.4-.93-.28 1.7 1.48.79-1.57.6zm-6.2 4.43l-1.28-1.1-1.41.92.29-1.69-1.48-.79 1.56-.6-.07-1.71 1.28 1.1 1.4-.93-.28 1.7 1.48.78-1.57.6zm11.43-.25l-1.29-1.1-1.4.93.28-1.7-1.48-.78 1.57-.6-.07-1.72 1.28 1.1 1.4-.92-.28 1.69 1.48.79-1.57.6zm-6.79 11.14l-.77-.73-5.44 5.44c.1.5.43.64.82.7z"/><path fill="#f4f0e8" opacity=".99" d="M12.4 22.93l.89-.83 5.46 5.4c-.1.46-.52.66-.97.83z"/><path fill="#f4f0e8" d="M9.96 22.82a9.75 9.75 0 0 1 2.97-3.15l1.4 1.27c-1.19.93-2.2 1.94-3 3.05zm5.44-1.7l1.26-1.42 2.36 2.2.67 1.78-1.52.02z"/><path fill="#f4f0e8" opacity=".99" d="M1.1 13.19h26.57v4.49H1.1v-4.5z"/><path fill="none" stroke="#f4f0e8" stroke-width=".4" stroke-miterlimit="4" stroke-linecap="butt" stroke-linejoin="miter" d="M.94.97h26.88V18.1c0 6.04-4.98 13.09-12.94 13.09S.94 24.13.94 18.09z"/></svg>