<svg version="1.1" xmlns="http://www.w3.org/2000/svg" viewBox="0 0 27 32"><path fill="#0f47af" d="M.41 15.68V.41h26.32v15.27z"/><path fill="#da121a" d="M26.73 15.68c.07 4.52-.2 6.35-1.24 8.63-1.93 4.26-6.22 7.31-11.86 7.31-5.16 0-9.5-3.03-11.67-6.8C.53 22.37.4 19.46.4 15.69z"/><path fill="#fcdd09" d="M19.88 11.08c-.1.02-.05.26 0 .31.16.29.34.67.5.95.15.36.07.64 0 1.01l-.5.95c-.11.2-.14.35 0 .31.63-.19 3.66-1.39 4.67-1.76zm-1.73 1.13v1.26c0 .45.95.45.95 0v-1.26c0-.44-.95-.44-.95 0zm-7.34 1.27c-1.51.38-3.3.9-4.63 1.2-.77.17-1.8-.4-1.77-1.2m6.4-1.28c-1.51-.37-3.3-.9-4.62-1.2-.77-.18-1.82.35-1.78 1.15"/><path fill="#fcdd09" d="M3.15 12.21c-.5 0-.64 1.26 0 1.26h14.4c.2.1.41.07.62 0 0 0 .02-1.24 0-1.26a.62.62 0 0 0-.62 0zm15.95 0v1.26l4.6-.63z"/><path fill="#fff" d="M9.86 15.65l-.01 3.13c0 1.39 2.2 2.71 3.72 2.71s3.73-1.32 3.73-2.71v-3.1"/><path fill="#fcdd09" d="M11.21 25.03c.13.12-.64.98.25 1.57.57.38 1.4 0 1.58-.88h.38c-.5 1.45-1.67 2.77-2.97 2.08-.5-.26-.77-1.13-.5-1.76.3-.72 1.16-1.11 1.26-1.01zm4.8 0c-.13.12.64.98-.26 1.57-.56.38-1.38 0-1.57-.88h-.38c.5 1.45 1.66 2.77 2.96 2.08.5-.26.78-1.13.5-1.76-.29-.72-1.15-1.11-1.25-1.01zm-2.97-1.96c-.57 0-.57.88 0 .88h1.14c.69 0 .69-.88 0-.88zm.06.88v.7h1.01v-.7zm-.31.7a.54.54 0 0 0 0 1.07h1.7c.7 0 .7-1.07-.06-1.07zm.63 1.07a6.31 6.31 0 0 1-.95 2.59c.2.57.7 1.45 1.14 1.96.44-.51.95-1.4 1.13-1.96a6.32 6.32 0 0 1-.94-2.59zm4.11-1.98c.18 0 .24 1.15 1.3.94.67-.14.98-.98.49-1.74l.27-.27c.66 1.38.77 3.14-.63 3.57-.55.17-1.35-.25-1.6-.9-.3-.71.03-1.6.17-1.6zm3.4-3.39c0 .18 1.15.24.93 1.3-.13.67-.98.98-1.74.49l-.26.26c1.38.67 3.13.79 3.57-.62.17-.54-.25-1.34-.9-1.6-.7-.3-1.6.03-1.6.17zm-3.48.71c-.4.4.22 1.03.62.63l.8-.8c.5-.5-.13-1.12-.62-.63zm.66.58l.5.5.71-.72-.49-.5zm.27.72c-.53.53.22 1.3.76.76l1.2-1.2c.5-.5-.26-1.26-.8-.72zm1.2.3c.67.95.94 1.57 1.16 2.51.54.27 1.52.54 2.19.58a6.88 6.88 0 0 0-.58-2.19 6.3 6.3 0 0 1-2.5-1.16zm-9.94 1.08c-.17 0-.23 1.15-1.29.94-.67-.14-.98-.98-.5-1.74l-.26-.27c-.67 1.38-.78 3.14.63 3.57.55.17 1.34-.25 1.6-.9.3-.71-.03-1.6-.17-1.6zm-3.4-3.39c0 .18-1.14.24-.93 1.3.14.67.99.98 1.74.49l.27.26c-1.38.67-3.13.79-3.57-.62-.17-.54.25-1.34.9-1.6.7-.3 1.6.03 1.6.17zm3.5.71c.4.4-.23 1.03-.63.63l-.8-.8c-.5-.5.12-1.12.62-.63zm-.68.58l-.49.5-.71-.72.49-.5zm-.27.72c.54.53-.22 1.3-.75.76l-1.2-1.2c-.5-.5.26-1.26.8-.72zm-1.2.3a6.31 6.31 0 0 0-1.16 2.51c-.53.27-1.51.54-2.18.58.04-.67.3-1.65.57-2.19a6.3 6.3 0 0 0 2.5-1.16zM17.1 9.92L14.69 9l-1.04 2.36L12.6 9l-2.4.93.92-2.4-2.36-1.05 2.35-1.05-.93-2.4 2.4.91 1.05-2.35 1.05 2.34 2.4-.93-.91 2.41 2.35 1.04-2.34 1.06z"/><path fill="#fcdd09" d="M15.38 15.65c0 .76-.7 1.74-1.77 1.74s-1.8-.98-1.8-1.74h-3l-.02.66h1.78c.16.53.38.85.73 1.23L8.96 20.3l.75.7 2.36-2.9c.4.2.66.35 1.05.44l-.01 4.53h1v-4.54c.32-.07.8-.24 1.09-.41l2.32 2.86.68-.69-2.27-2.67c.4-.41.53-.72.64-1.27l1.79-.04-.01-.65z"/><path fill="#fcdd09" d="M20.33 18.13c.13-.12.98.65 1.58-.25.38-.57-.02-1.29-.9-1.48l-.02-.46c1.46.5 2.8 1.65 2.12 2.95-.27.5-1.13.77-1.77.5-.71-.3-1.11-1.16-1.01-1.26zm-1.97-1.8c.02.63.87.6.87.03v-.7h-.89zm.87.01l.69.02v-.7l-.7-.01zm.69.23a.54.54 0 0 0 1.07 0v-.91h-1.07zm1.07-.63c1.14.19 1.8.43 2.62.93a7.15 7.15 0 0 0 1.95-1.22H21zM6.88 18.13c-.13-.12-.98.65-1.58-.25-.38-.57-.02-1.44.86-1.63v-.38c-1.45.5-2.74 1.72-2.06 3.02.27.5 1.13.77 1.77.5.71-.3 1.11-1.16 1.01-1.26zm1.93-1.81c0 .5-.88.5-.88-.07v-.6h.88zm-.88-.07h-.7v-.6h.7zm-.7.32a.54.54 0 0 1-1.07 0v-.91h1.07zm-1.07-.7c-1.14.2-1.74.5-2.56 1a7.07 7.07 0 0 1-1.94-1.2l4.5-.01z"/><path fill="none" stroke="#000" stroke-width=".38" stroke-miterlimit="4" stroke-linecap="butt" stroke-linejoin="miter" d="M.38.38h26.5v18.3c0 6.32-5.04 12.94-13.25 12.94S.38 25 .38 18.68z"/></svg>