<svg version="1.1" xmlns="http://www.w3.org/2000/svg" viewBox="0 0 26 32"><path fill="#dc281e" d="M.33.39h25.25v19.76c0 6.58-6.04 11.52-12.63 11.52S.33 26.73.33 20.15V.39z"/><path fill="#000" d="M12.95 31.84c-3.24 0-6.48-1.22-8.89-3.34a11.07 11.07 0 0 1-3.9-8.35V.22h25.58v19.93c0 3.17-1.38 6.13-3.9 8.36a13.64 13.64 0 0 1-8.89 3.33zM.5.55v19.6C.5 26.4 6.1 31.5 12.95 31.5s12.46-5.1 12.46-11.36V.55H.5z"/><path fill="#000" d="M6.1 17.1h14.26v.06H6.1v-.06z"/><path fill="#f4f0e8" d="M12.8 1.48l.83 1.65v1.65l6.31 7.13v-1.64h1.1v3.29h-.82v3.57h.54v3.57h-.54v1.1h1.64v1.64h1.92V21.8h1.63c-1.11 6.08-6.97 9.88-12.33 9.88-5.62-.03-11.65-3.9-12.6-9.88H2.1v1.65h2.2V21.8h1.65v-1.1H5.4v-3.56h.55v-3.57h-.83v-3.3h1.1v1.65l5.76-7.13.04-1.59.79-1.7z"/><path fill="#000" d="M13.08 31.75a14.1 14.1 0 0 1-8.1-2.72A11.25 11.25 0 0 1 .39 21.8l-.01-.09h1.8v1.65h2.04V21.7h1.64v-.93h-.55v-3.73h.55v-3.4h-.82v-3.47H6.3v1.5l5.6-6.93.03-1.57.88-1.88.9 1.82v1.63l6.15 6.95v-1.5h1.27v3.45h-.83v3.4h.55v3.73h-.55v.94h1.65v1.64h1.76v-1.64h1.8v.1a11.8 11.8 0 0 1-4.61 7.26 13.36 13.36 0 0 1-7.82 2.68zM.58 21.88c1.02 6.04 7.14 9.69 12.5 9.72 5.11 0 11.06-3.63 12.23-9.71h-1.44v1.64h-2.09v-1.65h-1.65v-1.26h.55v-3.4h-.55v-3.73h.83v-3.13h-.94v1.78l-6.47-7.32V3.15l-.74-1.47-.71 1.53-.04 1.6-.01.02-5.92 7.31v-1.8H5.2v3.14h.82v3.73h-.54v3.4h.54v1.27H4.38v1.64H2.02v-1.65H.57z"/><path fill="#000" d="M19.94 12h-2v-1.65h-1.76v1.64H14.1v-1.64h-2.04v1.64H9.98v-1.64H7.95v1.64H6.22v-.16h1.56v-1.65h2.36v1.65h1.76v-1.65h2.36v1.65H16v-1.65h2.1v1.65h1.83zm-14 1.48h14.28v.16H5.94v-.16zm0 3.57h14.28v.16H5.94v-.17zm0 3.56h14.28v.17H5.94v-.17zm14.36 2.91h-2.1v-1.65h-2.03v1.65H14.1v-1.65h-2.04v1.65h-1.8v-1.65H8.21v1.65H5.86V21.8h.17v1.57h2.03V21.7h2.36v1.65h1.48V21.7h2.36v1.65h1.76V21.7h2.36v1.65h1.75v-1.57h.17zM1.72 25.28h22.34v.16H1.72v-.16zM3.2 27.2h19.55v.16H3.2v-.16zm2.56 2.2h14.5v.16H5.75v-.17z"/><path fill="#000" d="M5.04 25.36h.16v1.92h-.16v-1.92zm4.11 0h.17v1.92h-.17v-1.92zm4.12 0h.17v1.92h-.17v-1.92zm3.84 0h.17v1.92h-.17v-1.92zm4.12 0h.17v1.92h-.17v-1.92zm-14 1.92h.17v2.1h-.17v-2.1zm4.12 0h.17v2.11h-.17v-2.1zm3.85 0h.16l.01 2.16h-.17v-2.16zm4.11 0h.17v2.16h-.17v-2.16zm-10.16 2.2h.17v1.64h-.17v-1.64zm4.12 0h.17v2.18h-.17v-2.18zm3.84 0h.17v1.67h-.17v-1.67zM7.17 14.1H9.1v2.2H7.17v-2.2z"/><path fill="#000" d="M9.09 16.39H7.17a.08.08 0 0 1-.08-.09v-2.2c0-.04.03-.07.08-.07h1.92c.04 0 .08.03.08.08v2.2c0 .04-.03.08-.08.08zm-1.84-.17h1.76V14.2H7.25v2.03zm3.21-2.12h1.92v2.2h-1.92v-2.2z"/><path fill="#000" d="M12.38 16.39h-1.92a.08.08 0 0 1-.08-.09v-2.2c0-.04.04-.07.08-.07h1.92c.05 0 .08.03.08.08v2.2c0 .04-.03.08-.08.08zm-1.84-.17h1.76V14.2h-1.76v2.03zm3.18-2.12h1.92v2.2h-1.92v-2.2z"/><path fill="#000" d="M15.64 16.39h-1.92a.08.08 0 0 1-.08-.09v-2.2c0-.04.04-.07.08-.07h1.92c.05 0 .09.03.09.08v2.2c0 .04-.04.08-.09.08zm-1.84-.17h1.76V14.2H13.8v2.03zm3.12-2.12h1.92v2.2h-1.92v-2.2z"/><path fill="#000" d="M18.84 16.39h-1.92a.08.08 0 0 1-.08-.09v-2.2c0-.04.04-.07.08-.07h1.92c.05 0 .09.03.09.08v2.2c0 .04-.04.08-.09.08zM17 16.22h1.76V14.2H17v2.03zM12.05 3.36v-.17l1.58.03v.16l-1.58-.02z"/><path fill="#000" d="M12.72 3.3h.17l.01 1.44h-.17V3.3z"/><path fill="#000" d="M12.02 4.84v-.16l1.66.02v.17l-1.66-.03z"/><path fill="#f4f0e8" d="M2.8 9.17c-.61 0-.53-1.31 0-1.37.42-.15.83.14.82.82.72-.7 1.14-1.55.82-2.74-.02-.44-1.1.38-1.1-.55 0-.82 1.05-.06 1.1-.55a3.2 3.2 0 0 1 0-.83c-.54-.05-.68-.44-.82-.82-.2.38-.18.92-.82.82-.86-.19-.68-1.37 0-1.37h4.67c.54 0 .7 1.18 0 1.37-.66.15-.65-.36-.83-.82-.18.46-.43.77-.82.82v.83c.07.6 1.33-.17 1.37.55-.04 1.04-1.33.07-1.37.54-.16 1.18.3 1.99.82 2.75.19-.32.17-.84.83-.82.87.02.7 1.37 0 1.37H2.8z"/><path fill="#000" d="M2.8 9.25c-.3 0-.48-.24-.5-.63-.03-.4.14-.86.48-.9a.64.64 0 0 1 .6.07c.18.13.29.35.32.63.73-.78.93-1.57.67-2.53v-.01c0-.03 0-.04-.02-.05-.03-.03-.18 0-.3.01-.2.04-.45.08-.62-.06-.1-.1-.16-.24-.16-.46 0-.17.05-.3.14-.38.15-.13.38-.1.58-.08.28.03.36.02.38-.08a3.46 3.46 0 0 1 0-.75c-.45-.07-.62-.37-.75-.68l-.03.09c-.1.32-.24.67-.8.6a.79.79 0 0 1-.64-.89c.04-.31.26-.65.66-.65h4.67c.27 0 .5.24.54.6s-.1.8-.52.93c-.6.13-.72-.24-.83-.61l-.03-.07c-.18.39-.42.6-.73.67v.74c.03.19.2.2.57.16.25-.02.52-.04.67.1.08.06.13.16.14.3-.01.23-.07.39-.2.48-.2.17-.51.1-.78.05-.15-.03-.32-.06-.38-.02 0 0-.02 0-.02.04a3.5 3.5 0 0 0 .73 2.57l.05-.12c.1-.28.24-.63.8-.62.47.01.67.39.67.75 0 .4-.26.8-.68.79H2.8v.01zM3 7.84a.53.53 0 0 0-.17.03H2.8c-.24.04-.37.4-.35.74.02.23.11.48.34.48h4.67c.32 0 .5-.32.5-.64.01-.27-.12-.56-.5-.57-.44-.01-.54.23-.64.5-.03.1-.07.2-.12.28-.02.02-.04.04-.07.04s-.05-.01-.07-.04c-.5-.74-1-1.58-.84-2.8a.2.2 0 0 1 .08-.16c.11-.08.3-.05.51 0 .24.04.5.1.65-.02.08-.06.12-.18.13-.35a.26.26 0 0 0-.07-.19c-.11-.09-.34-.07-.56-.05-.31.03-.7.06-.74-.3v-.84c0-.05.03-.08.07-.08.33-.05.57-.3.76-.78a.08.08 0 0 1 .08-.05c.03 0 .06.02.07.05l.1.27c.11.37.18.6.63.5.33-.1.44-.45.4-.75-.03-.23-.16-.46-.38-.46H2.8c-.3 0-.47.26-.5.5-.02.27.1.61.52.7.42.06.5-.17.61-.49.03-.1.07-.2.12-.29.02-.02.05-.04.08-.04s.06.02.07.05c.14.4.26.73.75.77.02 0 .05.01.06.04.01.01.02.03.01.06-.03.25-.03.51 0 .8v.02c-.03.3-.33.26-.56.24-.18-.03-.36-.04-.45.04-.06.05-.08.14-.08.26 0 .16.03.27.1.33.1.09.3.06.49.02.17-.02.33-.05.43.02.04.04.07.1.07.16.29 1.06.02 1.96-.84 2.81a.07.07 0 0 1-.09.02c-.03-.01-.05-.04-.05-.08 0-.31-.1-.56-.26-.69A.63.63 0 0 0 3 7.84z"/><path fill="#000" d="M4.43 3.87h1.44v.17H4.43v-.17zm.03 1.07L4.4 4.8c.4-.14 1.07-.14 1.43 0l-.06.15a2.34 2.34 0 0 0-1.31 0zm.72 1.11c-.26 0-.53-.05-.78-.15l.06-.16c.44.18.97.19 1.35.02l.07.15c-.2.09-.45.14-.7.14zm.04 1.25c-.3 0-.6-.08-.73-.21l.11-.12c.2.2.98.23 1.21 0l.12.12c-.15.14-.43.2-.7.2zm-.12.67c-.36 0-.7-.02-.87-.09l.06-.15c.32.11 1.38.1 1.86-.02l.04.16c-.25.07-.69.1-1.1.1z"/><path fill="#000" d="M4.36 5.82V5.8a1.5 1.5 0 0 1 0-.94l.15.06c-.11.3-.06.57 0 .85v.02l-.15.03zm1.51.06l-.14-.08c.14-.28.1-.61.02-.93l.16-.04c.08.35.14.72-.04 1.05z"/><path fill="#f4f0e8" d="M18.69 9.15c-.61.01-.53-1.3 0-1.37.42-.14.82.15.82.82.71-.7 1.14-1.55.82-2.74-.02-.43-1.1.39-1.1-.55 0-.81 1.05-.06 1.1-.55a3.2 3.2 0 0 1 0-.82c-.54-.05-.68-.44-.82-.82-.2.38-.18.91-.82.82-.87-.2-.69-1.37 0-1.37h4.66c.55 0 .7 1.17 0 1.37-.65.14-.64-.36-.82-.82-.18.46-.44.77-.82.82v.82c.06.6 1.32-.17 1.37.55-.04 1.05-1.33.08-1.37.55-.16 1.18.3 1.98.82 2.75.19-.33.17-.84.82-.83.87.02.72 1.38 0 1.37H18.7z"/><path fill="#000" d="M18.68 9.24c-.28 0-.48-.25-.5-.63-.03-.41.15-.86.49-.91a.64.64 0 0 1 .6.08c.17.13.28.35.31.63.73-.78.93-1.57.68-2.53v-.02l-.02-.04c-.04-.04-.18-.01-.3 0-.21.05-.46.09-.62-.06-.11-.1-.16-.24-.16-.45 0-.18.04-.3.14-.38.14-.13.37-.1.58-.08.27.03.36.02.38-.09a3.46 3.46 0 0 1-.01-.75c-.44-.07-.62-.37-.74-.67l-.03.08c-.11.32-.24.68-.8.6a.79.79 0 0 1-.64-.88c.03-.32.25-.66.66-.66h4.66c.28 0 .5.24.55.6s-.1.81-.52.93c-.6.13-.72-.24-.84-.6l-.02-.07c-.19.38-.43.6-.73.66v.75c.02.18.2.19.56.16.26-.03.52-.05.68.09.08.07.12.17.13.3-.01.24-.07.39-.2.49-.2.16-.5.1-.78.05-.15-.03-.32-.07-.37-.03a3.5 3.5 0 0 0 .71 2.62l.05-.13c.1-.28.23-.63.79-.61.48 0 .68.38.67.74 0 .4-.26.8-.68.8h-4.67zm.21-1.42a.53.53 0 0 0-.18.04h-.01c-.24.03-.37.4-.35.74.01.23.1.47.33.47h4.68c.31 0 .5-.32.5-.63.01-.27-.12-.56-.51-.58-.43 0-.53.23-.63.51-.03.1-.07.2-.12.28-.02.02-.04.04-.07.04s-.05-.01-.07-.04c-.51-.75-1-1.58-.83-2.8a.2.2 0 0 1 .08-.16c.1-.08.3-.05.5 0 .24.04.5.1.65-.02.08-.07.13-.19.13-.36 0-.08-.02-.14-.07-.18-.1-.1-.33-.07-.55-.05-.32.02-.7.06-.74-.31v-.83c0-.05.03-.08.07-.09.32-.04.57-.29.75-.77a.08.08 0 0 1 .08-.06c.03 0 .07.03.08.05l.1.28c.1.37.18.6.63.5.33-.1.44-.45.4-.75-.04-.23-.17-.47-.39-.47H18.7c-.3 0-.47.27-.5.51-.02.27.1.6.51.7.43.06.5-.17.62-.49.03-.1.07-.2.12-.29.02-.03.04-.04.08-.04s.06.02.07.05c.14.4.26.73.75.77l.06.03a3.57 3.57 0 0 0 .01.86v.03c-.03.3-.33.26-.56.23-.18-.02-.36-.04-.45.05-.06.04-.09.13-.09.25 0 .16.04.28.1.33.11.1.32.06.5.03.17-.03.33-.06.43.02.04.04.07.09.07.16.29 1.06.02 1.96-.84 2.81-.02.02-.06.03-.1.02-.02-.01-.04-.05-.04-.08 0-.32-.1-.56-.26-.7a.63.63 0 0 0-.27-.06z"/><path fill="#000" d="M20.32 3.86h1.43v.16h-1.43v-.16zm.02 1.07l-.05-.16c.4-.13 1.07-.13 1.43 0l-.06.16a2.34 2.34 0 0 0-1.31 0zm.73 1.11c-.26 0-.53-.05-.79-.16l.06-.15c.45.18.98.18 1.35.01l.07.15c-.2.1-.44.14-.7.14zm.04 1.24c-.3 0-.6-.08-.73-.2l.11-.12c.2.2.97.23 1.2 0l.12.11c-.14.15-.42.21-.7.21zm-.13.68c-.35 0-.69-.03-.86-.1l.05-.15c.33.11 1.39.1 1.86-.01l.04.16c-.24.06-.68.1-1.09.1z"/><path fill="#000" d="M20.25 5.8l-.01-.01c-.06-.3-.13-.6 0-.95l.16.06c-.12.31-.06.58 0 .86v.01l-.15.03zm1.5.07l-.14-.08c.15-.28.1-.62.03-.93l.16-.04c.08.34.13.72-.05 1.05z"/></svg>