<svg version="1.1" xmlns="http://www.w3.org/2000/svg" viewBox="0 0 28 32"><path fill="#e60000" d="M.23 16.34v1.84l.02.97.06.77.13.74.17.73.23.71.26.69.26.58.25.5.6 1.02.45.68.48.66.64.74.37.4.3.28.6.56.88.7.68.48.7.44.6.32.6.3.49.21.48.18.7.24.7.2.82.18.82.12.8.07.82.02.8-.02.82-.08.82-.12.82-.15.72-.19.7-.22.63-.24.64-.28.63-.31.6-.33.83-.54.8-.57.85-.75.45-.43.35-.37.2-.23.45-.52.46-.63.44-.67.37-.6.39-.76.34-.78.26-.76.2-.65.14-.68.12-.84.04-.73.02-1.01v-1.86H.22z"/><path fill="#e60000" d="M14.14 31.57l-.8-.02-.81-.07-.8-.12-.83-.18-.7-.2-.69-.23-.48-.19-.47-.2-.6-.3-.6-.32-.7-.43-.67-.48-.88-.7-.6-.55-.28-.28-.37-.4-.63-.74-.5-.65-.44-.68-.6-1.01-.24-.5-.26-.58-.26-.67-.22-.71-.17-.72-.13-.73-.06-.76-.02-.98v-1.72h27.6v1.75l-.02 1.02-.04.72-.12.82-.15.68-.19.65-.26.75-.33.77-.4.76-.35.6-.44.65-.46.64-.44.5-.21.24-.34.36-.45.43-.85.74-.8.57-.82.53-.59.33-.62.3-.64.29-.63.24-.69.22-.71.18-.82.16-.81.12-.8.07-.8.03zm.8.17l.83-.07.82-.12.83-.16.72-.19.7-.22.65-.24.65-.28.63-.31.6-.34.83-.53.8-.59.87-.74.45-.44.35-.36.21-.25.44-.51.48-.65.44-.67.36-.6.4-.77.34-.78.27-.77.19-.66.14-.69.13-.84.05-.73.01-1.03v-1.95H.23v.09h-.1v.11-.1h.1v-.01h.1-.1l.1.01v.1h-.2v1.72l.02.99.05.77.14.75.18.74.22.71.26.7.27.58.25.5.6 1.04.45.68.5.66.64.74.37.4.3.3.6.55.88.72.69.48.7.43.6.33.62.3.48.21.5.2.69.22.72.2.82.18.82.13.82.07.82.02.8-.03zM.35 16.34z"/><path fill="#fefefe" d="M28.02 16.05V.25H.23v15.8l3.66.1 3.6.04H11l3.47-.02 6.83-.07 6.71-.05z"/><path fill="#e60000" d="M15.95 10.42l.62.41 1.56.34 1.4-.03 1.25.4 1.28 1 1.3-.33.76-.07.17.69-.54.72-.42.19-.37.08-.7.1-.24 1.03.34.73.5.58-6.25-.02.66-1.22-1.2-.5h-1.5l-1.7-.47-1.24-.54L10.4 13l-2.2-.4h-.63l-.55.24-1.04 1.21-.52.58H5l-.08.45-.37.4-.75.25-.05-.2.37-.73 3.07-3.28.93-.04 1.05.13.67-.16-.6-.9-1.12-.72-.3-.02-.79.43-1.32.78-.66.67-.1.26-.48.41-.8 1.35-.3-.01.15-1.18.36-.69 2.14-1.85.83-.77.54-.37.7-.03 2.18.42.65-.73 1.63-1.19.86-.8.27-.33.1-.15.63.08.75.37.44.03.62-.17L16 7.36l-.37 1.97.08.72z"/><path fill="#e60000" d="M12.41 6.14l.62-.02.61-.13h.52l1.35.41.67-.2.41-.52.87-.51.51-.76.71.28.97.42 1.74.3h2.13l-1.07-.4.35-.53.02-.26-.73.17-.6.45h-.84l-.6-.38.68-.65-.5-.05-1.37.28-.68-.18.03-.75-.78.2-.35.19-.59-.2-.44-.48.78-.05 1.81-.02.84-.03 1.8-.2.47-.3.2-.38-.43.18-.31.18-.27-.1-.08-.62-.39.36-.58.47-.63.08-.28-.16.31-.75-.3-.04-.97.71-.65.13-.14-.06.12-.63-.35.01-.94.94-.32-.29-.52-.82-.26.07-.13.1.47.94-.42.13-.62-.3-.47-.53-.41-.1v.1l.18.5.75.8-.42.5-1.03.43-.9.25-.33.3.05.47.82.46-.08.15z"/><path fill="#000" d="M13.94 31.72l-.61-.02-.62-.05-.6-.08-.6-.1-.6-.14-.6-.17-.58-.18-.57-.22-.57-.24-.55-.27-.54-.28-.53-.31-1.02-.7L5 28.2l-.89-.85-.82-.91-.38-.48-.36-.5-.34-.51-.31-.53-.3-.54-.26-.55-.24-.56-.22-.57-.18-.59-.16-.59-.14-.6-.1-.6-.05-.86-.01-.86v-1.7h27.8l.02.93v.93l-.03.94-.08.93-.14.92-.21.9-.29.9-.18.42-.2.43-.47.9-.53.85-.59.82-.65.77-.7.71-.75.67-.8.61-.84.56-.87.5-.9.44-.94.37-.96.31-.98.24-1 .16-1 .1h-1zm3.55-15.68l-.2-.01h-.24l.02-.22.04-.15.07-.11.08-.06.1-.02.1.02.17.1.12.16.03.08-.01.08-.05.07-.09.04-.14.02zm4.77.02l-.42-.03h-3.5l.03-.22-.05-.29-.09-.31-.13-.3-.15-.25-.16-.17-.08-.05h-.07l-.06.02-.06.06.21.3.02.08-.04.04h-.07l-.11-.02-.3-.1-.77-.3-.35-.1-.27-.02-.45.05h-.46l-.45-.03-.44-.08-.44-.12-.43-.14-.83-.36-.13-.03-.06-.05.01-.07.05-.1.22-.2.29-.2.26-.2.15-.13v-.03h-.05l-.13.02-.21.07-.16.12-.16.1-.16.06-.17.04-.36.02-.38-.05-.76-.2-.38-.07-.37-.05h-.22l-.21-.01-.39-.11-.66-.3-.3-.1-.16-.02-.15.01-.15.05-.16.09-.17.14-.17.2-.33.23-.28.28-.47.61-.23.28-.24.22-.27.15-.15.03-.16.01-.05.21-.1.22-.17.22-.18.18-.18.13-.17.06-.07-.01-.06-.04-.04-.06-.03-.1.3-.47.34-.43.36-.42.4-.4.79-.78.39-.4.37-.41.14-.16.16-.13.17-.08.17-.05.38-.04.41.03.42.06.41.03.41-.02.2-.05.18-.07.52-.03.11-.01.02-.01v-.02l-.02-.01-.03-.02-.12-.05-.4-.15-.04-.45.04-.45.11-.43.19-.4.24-.37.3-.35.33-.3.36-.26 1.04-.84 1.03-.85.1-.18.12-.13.13-.08.13-.02h.14l.15.05.31.14.33.15.34.11.17.03.17-.02.16-.06.17-.1v.45l-.08.46-.22.92-.1.46-.08.47v.46l.07.47.1.18.1.17.28.27.34.2.38.16.4.1.42.06.42.02.39-.01.48-.04.47.02.47.09.44.14.42.2.4.24.39.29.34.32h.05v.06l-.03.05-.01.08.02.2.15.56.07.31.01.31-.02.15-.04.15-.08.13-.1.13-.05.16v.15l.03.15.06.15.18.25.19.22.13.16.03.07-.01.04-.06.02-.1.02zm.9-2.35l-.06-.02-.18-.17-.15-.18-.2-.18-.38-.3-.09-.1v-.02l.03-.02h.19l.4.08.07-.11.1-.1.23-.18.27-.1.27-.05.23.02.1.04.06.07.04.09v.1l-.02.14-.07.16-.3-.24-.09-.03-.08-.02-.08.03-.08.07.23.12.12.15.04.16-.04.13-.1.08h-.14l-.16-.1-.17-.25-.04-.02-.03.02v.1l.09.36.03.17-.02.1h-.03zM3.6 13.48l-.04-.04-.02-.1.03-.42.04-.24.07-.23.21-.4.28-.37.33-.33.74-.6.37-.31.35-.32.65-.58.33-.27.35-.22.36-.14.2-.04.19-.01.2.02.21.05.22.09.22.13.6.08.23.07.18.1.12.15.02.19-.08.24-.2.3.01.3-.01.2-.05.1-.08.01-.1-.05-.12-.11-.28-.33-.34-.38-.18-.18-.18-.13-.2-.1-.17-.03-.18.04-.18.13-.69.38-.7.38-.33.2-.33.22-.3.24-.28.28-.08.2-.08.24-.06.1-.07.07-.1.02-.13-.02-.28.47-.38.65-.17.22-.06.06-.06.02zm9.1-7.37l-.17-.13-.1-.12-.02-.1.03-.07.08-.06.11-.04.27-.04.26.03.1.04.05.05v.07l-.05.1-.13.1-.22.11-.2.06zm2.77.02l-.45-.04-.45-.12-.42-.16-.33-.16-.22-.13-.22-.1-.33-.06-.39-.07-.38-.08-.3-.12-.12-.08-.07-.09-.03-.1.03-.13.09-.15.15-.16.28-.1.29-.08.6-.14.27-.08.27-.13.23-.17.19-.25.22-.03.26-.09.5-.17.17-.02.07.02.03.05.02.07-.02.1-.14.34.11.27.07.08.07.05.16.04.16-.03.37-.1.2-.01.18.07-.11.19-.07.2-.02.18.02.15.06.08.1.01.14-.1.17-.24.24-.1.2-.06h.14l.1.03.04.07.02.1-.03.11-.06.13-.19.26-.27.23-.16.08-.16.05-.17.02-.17-.02-.08.22-.12.18-.15.14-.18.09-.2.05-.2.01zm7.1-.73l-1.15-.06-.57-.07-.56-.1-.56-.14-.55-.17-.53-.2-.52-.26-.7-.28-.67-.27-.32-.09-.3-.04-.3.01-.29.09-.02-.12v-.14l.05-.12.1-.07.04-.09.01-.11-.09-.27-.17-.3-.2-.3-.19-.3-.1-.23v-.1l.03-.08.08-.05.14-.02.11.4.16.37.21.35.25.3.3.27.33.2.38.14.42.06.35-.22.26-.15h.06l.01.02v.05l-.06.17-.12.28.1.17.15.12.17.08.18.04.2.01.2-.01.43-.08.74-.17h.26l.08.04.04.07-.28.1-.19.1-.1.1-.04.12.04.11.08.1.14.1.17.08.42.13.45.04.22-.03.2-.06.17-.08.13-.12.33-.2.25-.14.18-.06h.11l.02.08-.05.14-.15.2-.24.27.11.1.16.1.34.11.1.04h.01v.02l-.05.01h-.09l-.3.02zM16.2 2.75l-.02-.05.02-.08.14-.22.24-.25.26-.23.23-.15.09-.04h.05l.02.05-.02.1-.21.38.11.15.14.07.18.01.2-.05.2-.09.22-.11.4-.27.35-.24.12-.07.08-.02.03.03-.03.11-.25.49.13.15.15.09.15.05.17-.01.16-.04.18-.06.33-.2.56-.4.18-.1h.05l.03.06-.07.2-.02.13.04.08.07.05.1.01.14-.01.27-.08.24-.09.09-.03h.05v.01l-.06.06-.3.25-.64.14-.64.09-.65.04-.64.02-1.32.01-.65.02-.65.04zm-1.54.29l-.15-.01-.16-.06-.15-.09-.16-.11-.27-.28-.2-.29-.1-.23V1.9l.03-.04h.08l.12.07.38.33.1.15.17.15.21.1.41.11.12.05.02.02v.03l-.05.03-.09.04-.3.1zm1.57 13.07l-.18-.01-.2-.06-15.6-.01V.23h27.78v15.8h-3.71L23.08 16l-.2-.04-.18-.08-.14-.1-.12-.14-.1-.15-.07-.17-.07-.36v-.36l.09-.31.07-.13.08-.1.1-.09.1-.04.16.03h.16l.35-.07.34-.16.31-.24.25-.28.17-.32.05-.17.01-.18-.02-.17-.05-.17-.18-.12-.18-.07-.18-.03-.18.01-.38.1-.37.15-.37.11-.17.03h-.18l-.18-.05-.17-.1-.17-.14-.16-.22-.36-.28-.4-.22-.41-.16-.43-.12-.46-.07-.45-.04h-.45l-.45.03h-.48l-.49-.1-.45-.16-.2-.11-.2-.13-.16-.15-.14-.17-.1-.2-.09-.2-.04-.22v-.23l.05-.26.1-.27.11-.42.08-.48.11-1.02.1-.47.08-.22.1-.19.11-.17.16-.15.18-.11.21-.08.14-.06.12-.07.2-.19.3-.4.14-.13.09-.04.1-.01.1.02.13.05.32.23.55.24.57.17.59.11.6.07 1.2.08.6.03.6.05.28-.07.17-.07.05-.06-.02-.06-.25-.1-.39-.12-.4-.12-.16-.06-.11-.07-.05-.09.04-.09.14-.1.25-.11.05-.18V4.2l-.03-.09-.08-.05-.1-.02-.12.02-.32.1-.34.15-.35.18-.53.26-.32.02-.27-.03-.2-.08-.13-.11-.04-.13.02-.07.05-.07.19-.13.33-.1.02-.21-.05-.13-.13-.07-.18-.02-.23.01-.25.05-.56.12-.55.1h-.23l-.2-.03-.14-.08-.08-.14v-.22l.1-.3-.11-.08-.11-.03H18l-.14.01-.28.1-.3.1-.3.09-.14.01-.15-.01-.13-.05-.13-.08-.12-.14-.1-.18 2.44-.05 1.21-.05 1.21-.11.15-.02.14-.05.27-.16.22-.22.15-.23.06-.19-.01-.07-.04-.04-.08-.01-.12.02-.36.2-.14.11-.1.07h-.08l-.06-.02-.05-.16-.01-.23-.02-.2-.03-.09-.05-.05h-.07l-.1.04-.14.1-.17.16-.06.16-.1.14-.1.11-.14.09-.3.11-.29.03-.12-.02-.1-.04-.06-.06-.04-.08.02-.1.06-.11.12-.14.2-.14-.13-.15-.13-.08-.14-.02-.15.02-.14.05-.15.09-.31.21-.3.23-.29.16-.12.03h-.13l-.11-.06-.1-.12.16-.18.1-.14.06-.1v-.1l-.04-.05-.08-.03-.23.02-.28.1-.3.17-.24.23-.09.13-.05.15-.15.13-.13.05-.13-.02-.11-.08-.11-.13-.1-.16-.33-.68-.08-.1-.08-.06h-.07l-.08.09-.07.18-.09.28.15.34.03.13v.1l-.04.1-.05.06-.08.03-.08.02-.2-.02-.22-.12-.2-.2-.17-.27-.27-.16-.22-.1-.16-.03h-.11l-.07.06-.02.09v.11l.05.15.18.32.24.35.29.3.3.2-.11.2-.14.15-.16.12-.19.1-.41.13-.44.1-.42.12-.19.07-.17.09-.14.11-.12.15-.08.18-.03.23.01.13.04.1.12.17.16.11.17.1.15.08.1.1.03.08v.09l-.06.23.08.1.1.06.25.04.24-.01.23-.04h.18l.01.04-.03.07-.07.1-.3.3-1.36 1.14-.7.56-.7.54h-.47l-.48-.05-.97-.17-.47-.03-.22.01-.22.04-.21.07-.2.1-.2.15-.17.19-.8.7-.82.7-.4.36-.38.37-.36.39-.33.42-.1.33-.11.42-.07.43-.03.37.04.27.05.09.07.02.1-.03.13-.1.15-.17.19-.25.22-.23.15-.23.2-.46.1-.22.13-.2.19-.2.27-.16.07-.19.1-.17.26-.3.31-.25.36-.21.77-.4.37-.2.33-.23.25.06.28.11.3.16.27.2.25.2.18.24.12.25.02.12v.13l-.32.08h-.34l-.68-.08-.33-.03-.33.01-.3.1-.13.08-.14.12-.4.48-.43.45-.89.9-.43.45-.42.46-.38.48-.34.5-.11.17-.05.12.04.1.08.05.13.02h.16l.4-.1.4-.2.18-.11.15-.14.11-.15.06-.15v-.16l-.06-.16.19.03.17-.02.16-.05.14-.1.26-.28.25-.35.24-.38.27-.35.15-.15.16-.13.18-.1.2-.06 1.14.1 1.17.16.58.11.56.16.53.21.51.28.49.3.5.23.52.16.53.11.54.08.55.04 1.1.05h.25l.2.04.14.08.11.1.07.12.04.14v.15l-.03.15-.06.15-.09.13-.11.12-.13.09-.16.07-.17.03zm-1 15.79l.99-.11.98-.17.97-.25.94-.3.93-.38.89-.44.86-.5.62-.42.6-.44.59-.48.55-.51.53-.54.51-.57.48-.59.44-.61.4-.64.37-.66.33-.68.29-.69.24-.7.2-.74.15-.74.1-.75.07-2.41V0H.05L0 .04V10.9l.02 8.5.1.79.15.78.21.77.25.75.3.74.34.72.38.7.42.68.46.65.5.63.52.6.55.58.59.54.61.5.64.48.65.45.86.51.89.46.92.38.94.3.97.24.98.17.99.1.99.02 1-.03z"/><path fill="#f4f0e8" d="M16.4 22.44l.08-.08.07-.1.07-.19v-.2l-.01-.2h.08l.06.02.04.1v.37l-.02.1-.1.21-.13.19-.16.13-.35.24-.2.15-.2.13-.23.1-.24.06-.17.02h-.18l-.15-.07-.05-.06-.02-.09.05-.04h.06l.16.07.18.06.09-.02.08-.07.14-.03.11-.07.09-.08.06-.11.07-.24.02-.25.18.1.18.04h.1l.08-.04.08-.07.07-.1v.02zm-5-.72l.11-.04.06.01.01.06-.01.1-.03.21.02.1.07.08.22.26.13.1.15.07.13-.07.14-.09.06-.01.04.01.01.05v.27l.05.14.1.13.13.1.14.07.16.05h.16l.15-.04.13-.06.06.02v.08l-.07.12-.22.04h-.23l-.23-.05-.2-.1-.3-.16-.15-.1-.12-.12-.18-.1-.17-.12-.14-.15-.1-.19-.09-.15-.01-.17v-.35zm.49-1.8l.26-.04h.27l.53-.02h.5l.16-.03.15-.64.13-.65.02-.2.07-.24.05-.08.05-.04.07.02.06.1.18.86.17.86.15.04h.45l1.03.02.06.02.01.03-.03.08-.09.09-.1.03-1.37.52.73 1.52-.04.1-.05.03-.07-.04-.09-.07-.17-.2-.15-.14-.39-.4-.34-.33-.62.6-.61.6-.07-.07-.01-.1.08-.23.14-.24.1-.22.4-.81-1.59-.61-.03-.06v-.06zm4.89-.65l.02-.16-.01-.14-.06-.15-.09-.12-.1-.1-.12-.11-.03-.05v-.04l.05-.02h.1l.14.08.12.1.16.27.23.57.07.3.04.17v.16l.04.33-.02.17-.08.15-.04.09-.06.06-.12.05-.05-.01-.01-.04v-.07l.05-.1.09-.1.03-.1v-.12l-.03-.11-.13-.22-.17-.17-.16-.05-.09-.07.01-.1.12-.12.09-.1.02-.06-.01-.07zm-5.79.17l.15-.44.1-.21.13-.2.04-.07.06-.06.15-.07h.07l.05.01.02.05-.02.08-.12.07-.1.08-.06.1-.04.12-.03.26.04.25.12.1.09.13.01.05-.01.05-.06.03-.1.02-.19.14-.15.2-.08.21v.12l.03.11.11.12.04.12v.05l-.04.02-.05-.02-.08-.06-.13-.11-.07-.15-.03-.16.02-.17.04-.36.1-.36v-.05zm1.76-1.88l.05-.11.07-.08.21-.1.25-.05.23-.06.35-.03h.35l.35.03.34.09h.1l.1.03.2.13.05.08.02.07-.04.06-.1.03-.17-.13-.2-.1-.21-.05-.22.02-.09.03-.08.06-.14.16-.06.06-.06.01-.05-.05-.07-.13-.12-.1-.15-.05h-.17l-.15.04h-.09l-.08.04-.14.1-.14.1h-.06l-.06-.04-.02-.06zm-.26-.15v.2l.05.2.1.18.15.14.27.22.11.12.07.16.1.15v.14l-.06.12-.12.1-.14.05h-.14l-.13-.05-.1-.14-.18-.24-.17-.27-.2-.23-.12-.08-.15-.05-.16-.01-.16.02-.15.07-.13.09-.11.11-.1.14-.13.3-.02.12-.09.1-.25.15-.1.08-.07.07.01.08.1.1.08.13.05.13.02.3-.08.57.02.14.06.1.09.1.1.06.13.04.12.02.13-.03.12-.05.2-.12.21-.15.22-.1.12-.02.12.03.16.04.1.08.06.11.02.13-.03.12-.08.12-.11.08-.15.05-.18.06-.2.05-.38.01-.13.07-.09.1-.06.11-.04.14v.14l.02.14.04.14.06.12.1.15.13.13.26.26.1.06.05.1-.01.27v.12l.01.08.07.01.14-.07.2-.06.19.02.18.08.18.1.21.09.23.05h.23l.2-.09.1-.1.03-.12.01-.27v-.4l-.02-.18-.09-.18v-.12l.04-.12.06-.11.08-.1.1-.06.1-.04h.12l.12.03.1.08.07.1.05.1.03.1-.02.24-.08.23.01.77.08.1.1.08.1.04.12.02.24-.03.23-.08.22-.13.25-.08h.25l.12.05.11.08.08-.03.04-.05v-.14l-.03-.17v-.08l.01-.08.33-.3.17-.19.12-.2.1-.24v-.26l-.03-.13-.06-.11-.08-.1-.1-.07h-.3l-.3-.05-.28-.11-.25-.16-.05-.11v-.1l.03-.1.06-.1.2-.12.1-.02h.11l.19.04.16.09.16.1.17.1.15.07.15.04h.15l.15-.07.14-.2.08-.23-.06-.24-.03-.26.01-.26.07-.24.12-.11.06-.12v-.05l-.04-.04-.16-.08-.13-.06-.1-.1-.07-.13-.05-.14-.07-.15-.08-.15-.1-.13-.14-.1-.14-.08-.16-.05h-.16l-.17.03-.12.06-.1.08-.17.2-.13.23-.14.22-.09.12-.11.08-.13.04h-.14l-.12-.05-.1-.08-.06-.12v-.16l.11-.2.15-.2.37-.32.15-.22.05-.13.03-.14v-.13l-.05-.12-.08-.1-.13-.06-.12-.07-.14-.04-.28-.04-.27-.04-.13-.04-.13-.06-.11-.12-.11-.04-.12.01-.11.05-.24.14-.12.06-.13.02-.28.03-.28.06-.13.04-.11.07-.1.1-.05.12v-.01z"/><path fill="#f4f0e8" d="M16.56 22.43l-.15-.15.05-.06.06-.17v-.18l-.03-.3h.22l.1.03.06.08.02.09v.41l-.03.12-.1.22-.06.1-.08.11-.18.14-.35.24-.2.15-.22.14-.24.11-.25.06-.18.03-.2-.01-.11-.03-.1-.06-.07-.1-.04-.15.06-.09.07-.04h.11l.17.08.16.05h.04l.07-.07.15-.04.09-.05.07-.07.05-.08.07-.22.01-.4.32.18.15.03h.06l.05-.03.07-.04.24-.33v.3h-.1l-.06-.07.08-.07.15.14-.27.23v-.23h.1l.08.06-.08.11-.1.08-.11.05-.12.01-.21-.05-.06-.03v.1l-.09.27-.07.12-.1.1-.14.08-.14.04-.08.07-.14.02-.2-.06-.15-.07h-.02.02l-.09-.05.1-.03.02.06.02.04.04.02.05.02h.16l.16-.02.22-.05.21-.1.2-.12.2-.15.35-.23.15-.13.06-.07.04-.1.1-.18.02-.08v-.36l-.01-.02h-.07v-.1l.1-.01.02.2v.23l-.09.22-.08.11zm-5.03-.65l-.03-.2h.08l.09.05.02.12-.02.1-.03.2.02.06.05.06.21.25.12.09.1.04.08-.05.14-.08.08-.02h.07l.07.04.04.11-.02.12v.14l.06.12.07.1.11.08.13.07.13.03h.14l.13-.02.14-.07h.1l.07.05.03.1-.01.08-.1.18-.29.05h-.25l-.24-.05-.23-.1-.31-.17-.15-.1-.11-.12-.18-.1-.18-.13-.16-.18-.11-.19-.06-.08-.03-.1-.02-.19.02-.42.2-.08.04.2-.05.02v.43l.03.05.04.07.1.17.14.15.15.11.19.1.12.13.13.09.3.15.19.1.2.03h.21l.17-.02.04-.07v-.02l.1-.02-.06.08h.01l-.11.06-.18.04h-.18l-.18-.05-.17-.08-.14-.12-.12-.15-.06-.17v-.28l-.01-.03.1-.03-.05.09-.02-.02.05-.08v.1l-.03.01-.13.07-.18.1-.2-.1-.16-.11-.22-.27-.09-.09-.03-.14.03-.24.02-.08-.01-.04.1-.02-.06.09-.02-.01.06-.1v.11h-.02zm.63-1.8l-.02-.2.8-.02h.49l.1-.02.12-.58.13-.64.02-.21.08-.25.07-.12.1-.07h.1l.07.05.09.15.18.87.16.8.07.02h.45l1.04.02.1.04.06.09-.01.1-.05.07-.11.1-.12.04-1.27.48.7 1.46-.06.17-.07.06-.09.01-.1-.05-.11-.09-.17-.2-.15-.14-.66-.66-.55.54-.7.67-.14-.18-.02-.14.03-.14.06-.13.14-.25.1-.21.35-.72-1.51-.58-.05-.06-.03-.07.01-.07h.1l-.02-.1.27-.05.02.21-.37.06v-.12h.2v.04-.01l1.67.64-.45.92-.1.22-.14.24-.05.1-.02.09v.05l.05.05-.08.07-.07-.08.61-.6.69-.68.41.41.4.4.15.14.17.2.07.06.05.02-.04.1-.01-.1-.02.01.01-.04-.76-1.57 1.56-.6.06-.05.01-.01v-.02l.1.01-.08.06-1.01-.02h-.31l-.17-.01-.21-.06-.2-.92-.15-.84-.05-.06v-.1l.06.08-.03.03-.04.05-.06.21-.02.2-.13.66-.16.7-.23.05-.18.01h-.87l-.26.01zm4.74-.86h-.2l-.02-.14-.04-.1-.08-.12-.1-.1-.12-.1-.05-.08-.01-.07.02-.08.11-.05h.16l.17.1.13.12.18.28.24.59.07.32.04.16.01.16.03.36-.02.2-.1.16-.04.1-.07.08-.1.05-.1.02-.1-.02-.06-.11.01-.12.07-.13.08-.09.02-.07v-.08l-.02-.09-.12-.2-.14-.14-.16-.04-.08-.06-.05-.08-.02-.1.04-.09.12-.13.08-.08v-.08l.02-.16h.2l-.02.16.02.08-.04.1-.11.12-.1.1v.01l.03.02.17.05.2.2.14.24.04.14v.15l-.05.13-.08.1-.04.08v.02l-.02-.03h-.02l.02-.01.03-.03.04-.04.04-.06.07-.14.02-.14-.03-.33-.01-.15-.04-.15-.07-.3-.22-.56-.16-.24-.09-.09-.1-.06h-.06l-.03.02-.04-.1.1.04-.02.01-.1-.03.11-.03v.02l-.1.03.1-.06.01.03.12.1.1.12.11.14.07.17.01.18zm-5.66-.08l-.2-.08.11-.22.13-.2.04-.08.09-.09.19-.09h.1l.1.04.05.07.01.07-.04.14-.14.08-.07.07-.06.08-.03.1-.03.22.04.2.1.1.1.14.03.1-.03.11-.1.07-.1.01-.17.12-.13.17-.07.2v.08l.02.06.05.04.07.09.05.17-.03.1-.05.05-.07.03-.1-.03-.1-.08-.14-.13-.09-.18-.03-.19.02-.18.03-.37.05-.19.05-.17v-.05l.16-.46.19.08-.15.42v.06l-.06.17-.04.17-.03.36-.02.15.03.14.05.12.11.1.06.04.04.01-.03.1-.03-.1h.02l.02.1-.07-.08.02-.01.07.07-.1-.02v-.02l-.02-.09-.03-.04-.08-.06-.04-.16v-.14l.09-.26.17-.22.23-.16.1-.01-.08-.1-.13-.11-.06-.31.03-.28.06-.14.08-.12.1-.1.1-.06v-.02.02l.09-.06-.04.1-.02-.01h-.03l-.12.05-.04.04-.03.07-.13.19-.1.2zm1.65-1.54l-.18-.1.1-.11.12-.07.13-.04.25-.06.23-.06.37-.03h.35l.37.03.33.09h.1l.14.03.12.07.1.1.08.1.03.12-.03.08-.06.06-.17.05-.21-.16-.18-.09-.18-.04-.2.02-.06.02-.06.04-.13.16-.08.07-.06.03h-.1l-.1-.09-.06-.13-.09-.08-.11-.03h-.14l-.15.04h-.08l-.05.03-.14.1-.16.1-.12.01-.11-.07-.04-.07v-.07l.06-.16.17.11-.03.08v-.02.01l-.08.05.05-.09.03.02.11-.07.16-.11.1-.05h.1l.16-.04.19-.01.18.06.16.14.06.13.04.03-.06.08v-.1l.04-.04.14-.16.1-.08.12-.04.25-.03.24.06.22.11.14.1h.02l-.02.02v-.01l-.04-.06-.07-.06-.08-.04-.08-.03h-.1l-.35-.1-.34-.02h-.33l-.34.03-.22.06-.24.06-.1.03-.08.05-.05.05zm-.5.13l.06.22.12.2.15.15.27.22.1.11.07.15.05.08.02.05.01.04v.03l-.05.1-.08.07-.11.04h-.1l-.1-.04-.03-.03-.04-.08-.18-.24-.17-.27-.21-.25-.15-.1-.17-.06-.2-.01-.17.03-.17.08-.14.1-.13.12-.11.16-.14.32v.06l-.01.03-.07.08-.24.15-.12.08-.1.12.02.16.12.12.06.1.04.11.02.27-.08.59.03.16.07.13.1.11.13.09.15.04.15.02.15-.03.14-.06.21-.13.21-.15.1-.05.08-.04h.09l.11.02.14.03.07.06.04.07.01.1-.03.08-.05.08-.08.07-.14.04-.18.06-.18.05-.18.01h-.22l-.16.09-.11.11-.08.15-.03.15-.01.17.02.15.05.15.07.14.1.16.14.15.28.26.06.03.04.08v.24l-.02.13.04.15.17.03.17-.08.08-.04.07-.01.17.02.16.07.18.1.23.09.25.06.25-.01.24-.1.13-.13.05-.16v-.68l-.03-.21-.07-.17v-.08l.03-.1.04-.1.07-.07.08-.06.08-.02h.08l.09.03.07.05.06.07.04.09.02.09-.01.2-.09.23.01.82.11.15.12.09.13.05.14.02.27-.03.24-.1.23-.12.22-.07h.2l.1.04.15.1.15-.06.08-.1v-.18l-.04-.17v-.06l.02-.03.3-.3.18-.19.13-.22.1-.26.01-.3-.04-.15-.06-.13-.1-.12-.14-.1h-.32l-.28-.05-.26-.1-.22-.14-.03-.06-.01-.06.02-.07.05-.06.08-.06.08-.04.08-.02h.17l.08.03.15.09.16.1.18.1.15.08.17.04.19-.01.19-.08.18-.23.08-.27-.06-.27-.03-.25.01-.23.06-.21.11-.1.07-.16v-.1l-.06-.1-.19-.08-.12-.06-.07-.08-.06-.1-.05-.13-.06-.17-.1-.16-.12-.14-.14-.12-.17-.09-.18-.05-.18-.01-.2.04-.14.07-.12.1-.17.21-.14.24-.14.21-.07.1-.09.06-.1.03h-.1l-.1-.03-.06-.06-.04-.08v-.1l.1-.18.14-.18.36-.33.17-.24.06-.15.02-.15v-.16l-.05-.16-.11-.12-.15-.08-.13-.07-.15-.05-.29-.03-.27-.04-.1-.03-.11-.06-.12-.12-.16-.05-.15.01-.13.06-.24.14-.1.05-.12.02-.27.03-.3.05-.15.06-.13.08-.1.12-.08.14.1.04.1.02v-.04l-.01-.03-.2.03v.22l.2-.02v-.2h-.1l-.1.04.1-.03-.1-.02v.02l.2.06.05-.11.07-.08.1-.06.1-.04.28-.05.27-.03.14-.02.15-.07.23-.14.09-.04h.08l.06.02.12.1.14.09.15.04.29.04.27.04.11.03.11.06.12.06.05.07.03.08.01.1-.02.13-.05.11-.14.2-.36.32-.16.2-.13.25v.2l.08.16.13.11.16.06h.16l.16-.05.15-.1.1-.13.14-.23.13-.22.15-.19.08-.06.11-.05.14-.04.14.01.13.04.13.07.11.1.1.11.08.13.06.15.05.14.08.15.12.12.16.07.12.06-.03.07-.13.12-.07.29-.02.27.04.27.05.23-.06.19-.12.15-.11.05h-.12L17 21l-.14-.07-.16-.09-.16-.1-.18-.11-.1-.04h-.12l-.13-.01-.13.04-.12.06-.1.09-.1.1-.04.14.01.14.07.15.28.19.3.11.32.05h.27l.08.05.06.08.04.1.03.1v.23l-.1.21-.1.19-.16.17-.34.33-.04.12v.1l.04.17v.1l-.08-.05-.14-.06-.15-.02h-.15l-.27.09-.22.13-.21.08-.22.02h-.09l-.08-.04-.07-.06-.05-.06-.01-.73.08-.22.01-.26-.03-.14-.05-.13-.1-.1-.11-.1-.16-.05h-.15l-.14.05-.12.09-.1.1-.06.14-.04.14v.16l.08.18.02.17v.63l-.04.1-.05.06-.17.07h-.2l-.2-.04-.2-.09-.18-.1-.2-.08-.23-.03-.12.03-.11.04-.1.06h.02v-.09l.02-.14-.01-.16-.06-.14-.07-.07-.06-.02-.25-.24-.11-.12-.1-.15-.05-.1-.04-.13-.01-.12v-.12l.03-.11.05-.1.07-.07.09-.05h.17l.2-.01.21-.05.19-.07.16-.04.15-.11.09-.15.04-.16-.02-.16-.08-.15-.14-.1-.18-.05-.14-.03-.15.01-.13.05-.12.07-.2.15-.21.11-.1.05-.1.02-.1-.01-.1-.03-.09-.06-.07-.07-.04-.09-.02-.1.08-.57-.02-.31-.05-.16-.1-.15-.08-.08.02-.03.1-.06.26-.17.1-.12.04-.09v-.06l.12-.28.09-.12.1-.1.12-.08.12-.05.14-.03.13.01.13.05.1.07.18.2.16.27.18.24.05.09.08.08.17.07h.2l.16-.07.14-.12.08-.16.02-.1-.02-.1-.04-.1-.06-.07-.08-.16-.12-.14-.27-.22-.13-.13-.1-.16-.04-.16-.2.02z"/><path fill="#000" d="M14.16 22.23l.11.09.06.1.02.13v.13l-.06.28-.01.14v.14l-.03.13.02.13.07.27.06.25-.01.12-.06.12-.08.1-.08.02-.1-.01-.08-.06-.08-.08-.05-.1-.01-.12.03-.1.06-.14.04-.14.02-.3-.05-.59-.05-.18v-.17l.03-.07.05-.06.08-.04h.1zm2.79-.76l-.13-.05-.15-.04-.31-.04-.15-.03-.12-.06-.09-.1-.04-.14.1-.1.13-.03.12.03.13.07.27.18.14.07.13.04.27.01h.31l.13.04.1.07.04.1v.15l-.12.16-.1.07-.12.01-.11-.03-.22-.17-.21-.2zm-4.96-.6l.14.03.07.06.02.09-.04.1-.07.08-.1.07-.12.04h-.27l-.14.04-.24.12-.23.17-.21.18-.13.03-.12-.04-.1-.08-.07-.11-.03-.13.02-.12.1-.09.15-.04.32.02.3-.05.29-.11.27-.17.05-.01.04-.04.05-.03.05-.02zm2.5 1.35l-.1-.14-.12-.07-.14-.02-.15.04-.13.09-.1.11-.06.14v.17l.1.23.02.25v.5l-.04.14-.07.1-.1.07-.13.04h-.27l-.26-.05-.41-.21-.22-.06h-.1l-.13.03-.16.1h-.06l-.03-.03-.04-.13.04-.17.01-.1-.02-.07-.1-.14-.15-.11-.12-.13-.18-.19-.13-.22-.07-.25.01-.25.04-.13.07-.1.08-.05.1-.05.22-.03.23-.02.2-.05.2-.07.17-.1.13-.16.01-.15-.05-.12-.1-.1-.13-.06-.15-.04h-.14l-.15.05-.11.08-.26.18-.15.08-.15.05-.15.01-.15-.02-.13-.08-.1-.14-.05-.14v-.14l.03-.3.03-.3v-.15l-.04-.16-.2-.25-.02-.06v-.05l.06-.05.1-.05.18-.1.13-.14.08-.18.07-.18.08-.15.1-.12.14-.11.14-.08.16-.05h.16l.16.03.15.08.11.1.1.12.16.26.17.25.1.12.12.09.16.03.14-.03.1-.07.06-.11.03-.14v-.14l-.06-.14-.1-.12-.16-.16-.19-.16-.17-.16-.07-.1-.04-.12-.06-.15v-.13l.05-.13.08-.1.1-.1.13-.06.28-.07.15.02.14-.02.25-.1.25-.12.25-.09.24.16.27.1.27.06.3.02.15.04.13.08.1.1.07.12.03.14v.14l-.05.14-.09.13-.2.21-.22.2-.18.22-.08.12-.05.14.04.17.08.11.1.06.14.02.14-.02.13-.07.11-.1.08-.12.14-.26.17-.24.1-.1.12-.09.14-.05.15-.02.15.02.14.05.13.07.12.1.18.24.11.28.03.1.06.08.19.13.17.1.06.06.01.08-.1.1-.07.1-.08.26v.27l.04.26.04.16-.02.14-.13.28-.16.1-.18.02-.18-.04-.17-.08-.18-.1-.17-.12-.19-.09-.1-.02h-.1l-.18.04-.12.08-.08.11-.02.14.02.13.07.12.12.1.17.04.2.07.2.04.42.01.11.11.07.12.05.14v.14l-.05.3-.12.26-.15.16-.18.15-.15.15-.05.08-.02.1.02.2-.03.16-.03.05-.05.02-.08-.02-.1-.08-.15-.04h-.14l-.25.1-.25.13-.13.05-.13.01-.09.05-.11.01-.1-.02-.11-.04-.09-.07-.07-.08-.03-.1V23l.01-.21.08-.2.03-.11-.02-.1-.09-.17zm.7-3.33l-.06-.12v-.12l.05-.11.09-.1.22-.2.19-.19.15-.16.11-.2.1-.21.15-.17.1-.11.13-.05.12.01.1.06.08.09.02.11-.04.12-.1.12-.1.12-.12.1-.24.14-.24.17-.1.1-.08.13-.08.17-.12.16-.16.12-.08.02h-.1zm-2.34-.5l.15.13.05.15-.01.06-.04.06-.08.05-.1.03-.13-.1-.1-.12-.16-.27-.2-.24-.12-.1-.16-.05-.16-.13-.15-.14-.13-.17-.07-.2.03-.08.05-.06.06-.03.07-.01.16.02.15.07.16.19.1.21.12.22.17.17.34.33zm-1.06-1.44l-.35.04-.14.08-.05.06-.02.09-.04.1v.1l.07.2.06.19-.01.08-.05.06-.24.12-.18.19-.13.23-.07.26-.07.11-.1.1-.23.14-.16.1-.07.12.01.13.11.13.1.12.05.13.03.14v.15l-.04.3-.02.3.1.13.02.12-.04.1-.07.11-.18.21-.06.12-.01.14.05.14.07.11.1.09.12.06.25.12.23.11.03.2.08.19.11.17.14.14.15.13.13.15.06.18v.1l-.04.1.04.2.08.09.12.02.14-.01.31-.08h.16l.14.04.41.25.22.09h.12l.12-.02.12-.05.08.01.07.04.05.07.1.17.13.16.13.07h.13l.11-.03.1-.08.18-.2.13-.19.22.05.22-.03.2-.07.2-.12.11-.1.13-.05.13-.01.13.01.27.05.26.02.08-.1.04-.14v-.28l.02-.13.04-.12.09-.1.15-.07.12-.1.09-.12.11-.27.05-.14.07-.11.1-.08.12-.04.14-.04.12-.06.11-.1.1-.12.05-.13.01-.13-.02-.13-.08-.12-.14-.1-.07-.1-.02-.12.03-.12.06-.27v-.14l-.03-.14-.03-.14v-.14l.08-.26.12-.24.13-.23-.07-.09-.1-.07-.2-.12-.18-.14-.07-.08-.04-.1-.07-.25-.13-.22-.18-.17-.22-.13-.04-.08v-.11l.06-.26.02-.15v-.13l-.05-.11-.12-.1-.12-.05-.12-.01-.22.03-.2.1-.2.1-.08-.14-.1-.11-.13-.1-.13-.06-.3-.07h-.31l-.16.02-.15-.03-.3-.15-.14-.05-.14-.02-.13.05-.14.13-.13.04-.14.02h-.28l-.3-.01-.13.02-.14.06-.08.05-.08.08-.14.19-.07.05-.07.03-.08-.04-.09-.1-.1-.06-.12-.03zM9.5 19.4l-.01 1.1-.44-.19-.04-.02-.03-.01H6.1l-.14.07-.21.11-.2.13-.06.05-.01.04v.06l-.01.67.01.6.3.55-.09.04-.06-.01-.1-.02-.6-.17-.07-.04-.03-.05v-.19l.01-4.57.36-.11.36-.1h.23l-.04.11-.09.15-.17.28-.01.07-.01.14v1.04l.03.14.05.05.1.06.28.16.15.08.08.01h2.77l.07-.01.07-.03.1-.05.31-.13zm-4.97-1.5v4.65l.08.06.22.05.64.15.66.1.01-.12-.05-.18-.1-.3-.15-.41-.05-.24-.01-.27v-.52l.02-.08.06-.05.14-.07.32-.1h2.52l.44.15.3.1.18.02.1-.1v-1.63l-.07-.04-.03-.02h-.08l-.2.03-.25.09-.39.14H6.32l-.17-.04-.16-.06-.2-.23v-.76l.02-.19.06-.16.05-.1.02-.06.02-.06.03-.1.07-.2.03-.1v-.1l-.04-.2-.77.16-.72.2-.03.1v.47zm17.84-.59l.1-.02.13.03.71.2.01.58v.62l-.02 3.62-.23.08-.25.06-.22.06-.08.01h-.16l.04-.1.08-.16.17-.28.02-.07v-1.29l-.06-.05-.2-.14-.2-.11-.15-.07-.19-.02H19.3l-.16.02-.16.06-.32.14v-1.1l.31.14.16.06.17.03h2.75l.06-.03.09-.05.2-.11.2-.13.07-.1.01-.13v-1.04l-.03-.14-.08-.14-.16-.27-.04-.07-.01-.09h.01zm.02.88v.82l-.02.05-.06.06-.17.1-.28.09h-2.53l-.44-.16-.31-.1-.2-.01-.06.06v1.64l.07.1.16-.02.1-.01.11-.04.17-.06.4-.15h2.53l.32.1.21.2v.82l-.03.16-.06.15-.05.15-.11.37-.1.4.1.01.11-.02.21-.05.86-.18.22-.06.07-.1.03-.06v-5.14l-.06-.04-.08-.02-.15-.03-.65-.15-.61-.12-.04.02-.02.06.03.17.12.35.05.15.06.16.07.16.03.18z"/><path fill="#fefefe" d="M11.45 29.02l-.01.1.01.1.08.28.15.47 2.26.01 2.5-.01h.04l.03-.06.08-.3.05-.18.03-.12.01-.11.02-.18-.11.03-.15.07-.29.2h-.07l-.13.02h-1.06l-.1-.01-.06-.06-.09-.12-.15-.28-.08-.15-.01-.18v-2.67l.01-.07.03-.06.05-.11.13-.3h-1.09l.15.32.05.14.03.17v2.56l-.02.18-.04.1-.07.13-.11.21-.1.14-.1.06h-1.15l-.15-.03-.27-.16-.14-.09-.08-.03-.08-.01z"/><path fill="#f4f0e8" d="M11.33 29.11l.02.14.08.28.17.54h4.85l.08-.02.07-.1.09-.32.05-.18.02-.12.02-.12.04-.32-.27.06-.17.09-.27.18h-.17l-.37.02-.68-.01h-.07v-.02l-.1-.12-.14-.27-.07-.13-.01-.16v-2.7l.04-.05.05-.11.18-.45h-1.4l.21.47.05.13.02.14v2.56l-.01.16-.03.08-.07.12-.11.2-.08.13h-.02l-.03.02h-1.13l-.12-.02-.25-.14-.14-.1-.1-.04-.2-.04-.01.12-.02.1h.2l.02-.07v-.02h-.1l-.01.09.06.01.06.03.14.09.29.17.17.02h1.17l.09-.02.08-.06.1-.16.12-.2.08-.14.04-.13.02-.2v-2.57l-.03-.19-.06-.15-.08-.19h.78l-.07.17-.05.1-.03.08-.02.08v2.69l.01.21.09.17.16.29.1.13.04.05.06.04h.12l.7.01h.37l.14-.01.1-.02.3-.2.13-.07.1-.02-.02-.1-.1-.01-.02.17-.01.11-.03.1-.05.19-.07.28-.03.04.08.06-.02-.1h-.06l-2.45.01h-2.19l-.12-.4-.08-.27-.01-.09h-.2z"/><path fill="#000" d="M11.45 29.02l.2.08.18.12.18.1.1.02h1.21l.16-.13.13-.2.09-.21.06-.21-.01-2.7-.04-.16-.1-.17-.06-.15.01-.05.05-.03h1.01l-.13.3-.1.29.01 2.74.06.18.09.17.22.3.2.04h.65l.42-.02.19-.05.17-.11.1-.08.13-.04h.04l.03.02v.05l-.02.09-.08.4-.06.2-.1.17h-4.76l-.14-.42-.1-.44v-.05l.01-.05zm1.73-3.98l.03.24.07.23.17.44v2.58l-.09.24-.15.2-.06.06-.07.01h-.73l-.18-.03-.78-.28-.3.02.08.4.1.4.14.67.15.07.16.01h4.91l.08-.06.06-.08.06-.2.03-.24.05-.21.1-.4.03-.2.01-.2h-.18l-.19.05-.18.08-.19.05-.35.12-.17.04h-.82l-.1-.1-.07-.14-.1-.29v-2.54l.13-.34.06-.18.02-.18.04-.17v-.08l-.03-.04-.85-.02-.85.02-.03.03v.03-.01z"/><path fill="#f4f0e8" d="M23.32 18.73v-1.2l-.44-.14-.44-.1-.04.03-.01.03.03.09.1.18.14.22.04.12v1.14l-.02.09-.05.08-.13.1-.33.2-.13.04h-2.77l-.16-.03-.17-.09-.15-.07h-.06l-.05.03v1.03l.38-.16.2-.05.21-.01H22l.18.06.17.1.31.2.04.2v1l-.04.19-.09.16-.16.27-.01.06v.04l.05.02h.1l.37-.1.36-.1.03-.05.01-.07v-.15l.02-3.37h-.02zM9.5 19.4l-.18.07-.17.08-.18.07h-2.8l-.18-.06-.17-.08-.31-.22-.03-.2v-.99l.03-.19.1-.16.15-.25.02-.11-.03-.03h-.08l-.18.03-.19.04-.37.11-.06.04-.02.07v4.68l.04.07.08.04.18.04.58.15.06-.04-.02-.06-.08-.14-.2-.38-.01-.66v-.65l.14-.12.16-.1.34-.17h2.86l.5.21.02-1.08z"/><path fill="#000" d="M14.52 20.74l.07.1.06.13.35.76-.07-.02-.06-.06-.12-.14-.27-.27-.14-.15-.06-.11.03-.08.07-.06.11-.08h.01v-.01l.02-.01zm-1.34 1v-.02l.02-.02.05-.11.14-.32.27-.53h.02v.01h.01v.01l.02.01.02.01.08.05.1.14v.02l-.03.05-.1.13-.2.2-.28.29-.05.05-.06.02zm.85-.94H14l-.04-.03-.11-.08-.1-.13-.04-.18.03-.15.06-.11.16-.11.1-.02h.1l.08.04.08.05.11.17.02.1v.1l-.04.1-.07.1-.1.1-.07.04-.15.01zm1.64-.73l-.22.1-.35.12-.53.14.02-.21-.05-.17 1.13.02zm-2.9.1l-.13-.03-.08-.03-.04-.04.01-.01h1.11l-.04.14v.23l-.83-.25zm1.34-1.57l.02.01v.04l.03.12.04.33.09.6v.16h-.39l-.02-.02v-.06l.01-.1.05-.37.05-.37.06-.34h.05zm-2.22 1.32v.1l.06.04.27.1 1.3.49-.29.56-.1.21-.19.39-.1.22-.07.21.01.05.03.04h.06l.08-.06 1.18-1.18.02.03v.04l.01.01.01.02.08.09.99.98.04.05.06.02.05-.07.02-.04-.01-.05-.04-.1h-.01v-.02l-.01-.01v-.02l-.1-.2-.21-.43v-.02l-.01-.01v-.02l-.35-.69.31-.12 1.2-.45.1-.16-.09-.03-.13-.02-.26.01-1.03-.01-.14-.02-.07-.03-.03-.08-.02-.14-.08-.42-.23-1.11-.02-.06-.03-.03-.07-.01-.07.02-.04.1-.05.23-.08.43-.08.43-.1.45-.02.13-.03.07-.07.03h-.66l-.5.02H12l-.1.05v-.01z"/><path fill="#fefefe" d="M15.19 18.9l.19-.03.1-.1.1-.11.1-.11.04-.13.1-.14.12-.1.03-.05v-.01l.02-.03.06-.02.13-.07.04-.01h.02l.02-.01.01-.01.02-.02.03-.03.09-.07.13-.13.1-.12.08-.14.02-.14-.03-.07-.06-.07-.08-.03h-.1l-.17.06-.15.15-.14.17-.13.3-.3.3-.16.17-.06.05h-.01v.01l-.18.19-.05.08-.01.13v.05l.02.03.05.05z"/><path fill="#000" d="M16.36 18.4l.03.1.08.04.06.03h.02l.02.02.03.05.2.28-.01.19-.01.16v.14l-.27.28.05.07.1.02.18.09.13.13.04.05.03.02.01.03v.07l.03.1.06.09.02.09-.06.12-.09.09-.03.06-.02.07v.12l.08-.02.08-.05.12-.15.08-.17.03-.12-.07-.65-.05-.12-.04-.15v-.15l-.03-.06-.04-.04-.05-.09-.06-.18-.1-.25-.18-.2-.11-.1-.13-.05-.08.01-.04.04z"/><path fill="#fefefe" d="M11.44 17.36l.04.15.08.13.2.2.09.08.05.04.02.01h.01v.01h.05l.04.02.13.07.11.1.2.22.02.04v.07l.01.02.02.03.09.11.1.12.1.1.27-.12-.01-.14-.04-.06-.08-.09-.03-.02-.02-.02-.02-.01-.02-.04-.37-.36-.1-.1-.05-.07-.04-.03-.01-.04-.02-.07-.07-.12-.02-.07-.02-.04v-.02l-.03-.02h-.01l-.02-.03-.04-.05-.09-.1-.26-.1h-.1l-.08.05-.06.07-.02.08z"/><path fill="#000" d="M11 19.44l-.02.1-.03.09-.04.1-.03.17-.04.54.06.17.05.09.02.02v.01l.25.18.05-.08-.04-.09-.17-.21-.04-.12.05-.08.06-.1v-.08l-.01-.03.01-.02.03-.04.16-.16.17-.11.02-.01h.07l.03-.02.07-.03-.01-.08-.03-.05-.12-.1-.07-.05-.02-.04v-.04l-.02-.1-.02-.17v-.19l.02-.07.05-.07.1-.09.05-.08.08-.05.09-.05-.06-.14-.1.01-.07.04-.13.13-.1.12-.05.04v.02l-.02.03-.02.05-.06.16-.07.21-.04.05-.02.02-.04.05v.15z"/><path fill="#fefefe" d="M13.88 22.46v.1l.03.05.03.07.02.16.03.52-.01.28-.07.22-.04.05-.02.07.01.13.05.12.06.1.02.02.01.01.1.03h.12l.03-.02h.01v-.03l.02-.02.06-.08.08-.15-.02-.12-.05-.11-.05-.14-.03-.22v-.21l.03-.43.01-.16.03-.09.04-.13-.1-.12-.12-.13-.11.01-.1.05-.05.08-.02.1z"/><path fill="#000" d="M14.52 4.4h-.04l-.02-.01V4.2l.03-.03h.06l.03.03.02.06v.03l-.02.04v.06h-.07zm-.42-.34h.04l.02.03-.01.07-.02.1.02.1.2.24.08.05.07.01.07-.02.06-.04.1-.14.06-.13.12.06.08.02.06.01.09.07.13.1.11.08.06.03.07-.01.12-.24-.14-.04h-.29l-.07-.01-.06-.04-.03-.08-.03-.15-.03-.08-.05-.07-.06-.07-.07-.05-.1-.09-.11-.06h-.13l-.17.04-.2.15-.2.18-.05.1-.01.08.03.08.1.04.08-.03.03-.09v-.1l.03-.1zm-2.7 17.66v.54l.04.09.06.07.02.05.01.04.02.03.05.06.14.13.1.1.06.05h.06l.04.01.07.06.13.12.06.06.09.05.36.19.11.06.1.02h.1l.13.03.06.02h.04l.04-.01.07-.03.1-.03h.07l.01-.01.02-.04.06-.18-.22.07-.14.05h-.13l-.18-.05-.14-.06-.12-.08-.1-.1-.07-.14-.02-.17.01-.11v-.08l-.04-.05h-.05l-.04.02-.06.07-.19.09-.11-.04-.09-.06-.15-.15-.15-.18-.1-.2.03-.2.05-.12-.01-.04-.05-.01-.16.05zm5.25.24v.12l-.03.07-.05.07-.08.1-.1.12-.2.18-.12.03-.13-.03-.05-.02-.02-.02h-.01l-.03-.03-.13-.06-.03.09v.07l.02.07v.08l-.05.15-.07.12-.1.09-.13.07-.23.08-.14.03-.14-.04-.2-.12-.04.08.07.18h.1l.09.03.07.03h.09l.2-.05.18-.02.08-.06.2-.1.27-.17.15-.14.08-.06.03-.02h.03l.01.01h.02l.06-.05.12-.1.1-.1.08-.07.03-.05.02-.02v-.06l.05-.06.07-.17v-.5l-.12-.04h-.06l-.04.04.02.06.03.05.03.14zm-3.9-4.4l.02.06.03.03.03.04.1-.06.14-.1.03-.03.02-.02.02-.02.44-.1h.05l.1.03.16.08.15.25.06.01.04-.02.02-.02.01-.01v-.01l.02-.03.09-.14.06-.06.08-.03.19-.05.22.04.21.06.03.03.01.02.03.02.06.04.04.02.04.03.09.07.05-.06.04-.07-.01-.1-.05-.05-.25-.13-.12-.02-.1-.02-.12-.04-.2-.05-.28-.02-.53.01-.16.01-.1.02h-.04l-.02.01h-.02l-.03.02-.05.02-.1.03-.16.03-.15.06-.13.07-.04.05-.02.1z"/><path fill="#fefefe" d="M17.3 21.29l-.21-.01-.21-.05-.24-.12-.23-.15-.15-.07-.09-.03-.13.04-.06.07-.03.1.03.1.09.08.15.04.04.01h.03l.02.03h.01l.04.01.16.01.07.02.07.03.14.02.15.05.18.18.1.1.1.07.11.07.06.01.09-.03.18-.18.09-.1v-.07l-.02-.07-.09-.1-.12-.06-.17-.02-.16.02zm-5.31-.43l-.05.02h-.02l-.02.03-.04.02-.12.06-.23.14-.13.08-.14.05-.33.03-.24-.02h-.1l-.11.08-.07.05-.06.07v.09l.08.14.17.16.1.04.08-.03.09-.05.09-.06.01-.01.01-.02.03-.03.01-.02.05-.03.08-.1.1-.08.35-.1.18-.03h.08v-.01h.01l.03-.01.05-.02.05-.01.11-.03.07-.05.05-.06.02-.07-.03-.12-.07-.08-.15-.02z"/><path fill="#000" d="M13.97 9.75h.1l.07-.04.1-.12.02-.02.04-.02.1-.1.07-.16v-.1l-.03-.11-.04-.06-.01-.04-.02-.04v-.29l.04-.12.05-.08v-.09l-.1-.2-.07.07-.04.1-.1.15-.01.02-.01.01v.02l-.02.02-.04.06h-.01v.01h-.01v.03l-.07.2-.03.14v.07l.04.14.02.35-.05.09v.04l.01.07zm-.84-.56l.03.18v.22l-.1.16.01.1.09.04h.05l.13-.07.05-.02.02-.02.03-.02.06-.06.02-.02h.02l.03-.04.04-.05.02-.04h.01V9.5l.01-.02V9.3l-.03-.09-.04-.05-.02-.05-.01-.15v-.1l.03-.07.06-.15-.02-.07-.07-.04-.15.07-.07.06-.02.06-.02.06-.03.09-.05.08-.03.04v.03l-.02.07v.01l-.01.01-.01.01v.06z"/><path fill="#fefefe" d="M14.03 20.8h.15l.07-.05.1-.1.07-.1.04-.1v-.1l-.02-.1-.1-.17-.09-.05-.09-.04h-.09l-.1.02-.15.1-.07.12-.03.15.04.18.1.13.1.08.05.02h.02z"/><path fill="#000" d="M12.68 9.72l-.08-.12-.02-.1-.01-.17v-.19l.03-.11v-.07l-.03-.04-.11.01-.08.07-.08.16-.08.18-.04.2.02.1.02.1v.31l-.02.03-.01.04-.04.04-.01.09.03.03h.05l.07-.06.1-.04.07-.04.07-.06.15-.36zm-.43 1.11v.14l.01.07.02.04.04.09-.06.2v.12l.04.04.07.01.07-.04.08-.08.11-.15.07-.09.03-.11-.03-.2-.02-.15.02-.15.02-.07.03-.04.03-.04v-.12l-.02-.11-.12.02-.07.07-.1.2-.06.07-.12.18-.03.04v.02l-.01.05zm-.53-2.2v.1l.01.07v.05l.01.01h.01l.01.02v.03l-.05.18-.06.14v.12l.05.01h.03l.06-.03v-.01h.02l.1-.08.16-.23.05-.1.02-.14v-.23l-.03-.12.01-.06.06-.1.05-.1.02-.14-.02-.08-.04-.05-.03-.03h-.03l-.01.03-.01.08-.04.08-.04.05-.01.01-.01.02-.02.03-.08.1-.06.05-.04.06-.01.07v.02h-.01l-.01.02-.06.15zm1.46 2.74l.05.03h.03l.02-.02.05-.03.21-.16.09-.09.07-.12.04-.1.01-.1-.05-.18-.05-.2v-.12l.01-.14v-.05l-.02-.01-.09.01-.12.11-.06.1-.03.08-.01.22v.18l.01.15-.01.12-.07.15-.05.05-.03.04v.08zm-.14-3.23v.2l.02.08v.04l-.02.07-.05.25.09.02.09-.04.05-.04.03-.02v-.03l.02-.05.06-.06.04-.04.02-.05V8.4l.01-.3-.01-.2-.02-.2.02-.1-.01-.1-.06-.07-.09.02-.05.05-.02.1-.01.04-.06.06-.02.04-.02.08-.01.32zm-2.12 2.8l.05.03.03.01h.04l.06-.04.3-.22.1-.16.02-.13-.03-.2-.01-.12-.02-.12v-.08l.01-.09.04-.15-.1.03-.12.08-.1.11-.04.13-.01.23v.17l.02.1-.02.08-.15.16-.06.07v.11zm3.06-2.73l.09-.02.06-.04.07-.14.03-.24.06-.19.03-.07V7.5l.03-.02.01-.02.02-.02.07-.1.02-.09v-.2l.01-.21h-.1l-.06.06-.1.16-.11.12-.05.07-.03.13v.25l.02.23-.04.09-.05.07-.03.08.05.1zm-3.46 1.61l.13.05.07-.01.09-.07.01-.03.01-.01v-.01l.02-.01.02-.03.05-.04.04-.06.07-.06.08-.08v-.07l-.03-.13v-.29l.06-.13.08-.14-.07-.06-.24.2-.1.13-.06.16-.02.15v.12l-.01.12-.1.16-.05.03-.01.02-.02.03-.02.06z"/><path fill="#fefefe" d="M14.11 18.6h-.05l-.06.33-.05.38-.05.37-.01.1v.06l.02.02h.37l.02-.05-.02-.12-.08-.6-.04-.32-.03-.12v-.03l-.02-.02z"/><path fill="#000" d="M10.63 10.3l-.03-.07-.06-.06-.1.07-.06.1-.04.15-.1.16-.03.04-.01.03-.01.02-.01.05-.02.11.01.06.03.05.02.1v.09l.04.03.11.03.09-.02.05-.05.04-.08.04-.1v-.05l-.02-.06-.05-.15v-.15l.03-.13.08-.17zm3.6.66h.07l.05-.04.1-.11.11-.3.02-.12-.02-.12-.14-.33h-.08l-.04.03-.05.15-.08.2v.14l.01.11.01.13-.02.15v.05l.06.06zm-.62-4.09l.01.1.03.06.02.05v.08l.04.25.13-.05.09-.1.06-.28V6.9l-.01-.04-.02-.05v-.04l.01-.07.08-.32-.08-.04-.1.11-.05.1-.1.19-.02.03h-.01l-.02.01-.01.01-.04.03v.05zm-.96 1.4l.14-.12.05-.15v-.39l-.01-.03v-.06l.02-.04.01-.05.02-.09-.03-.05h-.05l-.08.04-.18.15-.04.06v.09l.03.17.07.1.02.06-.01.08-.04.05-.02.07.03.06.07.05z"/><path fill="#fefefe" d="M12.52 20.07l.04.04.08.03.13.04.84.25v-.1l-.02-.06v-.07l.05-.14h-1.12zm2.05.36l.53-.14.35-.12.22-.1-1.13-.02.05.17-.02.21zm-.05.31l-.02.01v.01l-.12.08-.07.06-.03.08.06.1.14.16.27.27.12.14.06.06.07.02-.35-.76-.06-.12-.07-.11zm-1.34.99l.07-.02.05-.06.27-.28.2-.2.1-.13.03-.04.01-.03-.1-.14-.08-.05-.03-.01v-.01h-.01v-.01h-.01l-.02-.02-.27.53-.14.33-.05.1-.01.03v.01z"/><path fill="#000" d="M11.4 11.46l.11.05.11-.04.08-.12.02-.2v-.1l.01-.07.02-.04.04-.08.01-.28-.05.05-.03.05-.05.1-.06.05-.1.1-.07.1-.02.1v.2l-.01.04-.01.02v.03l-.01.05z"/><path fill="red" d="M22.39 13.33l.07.1.05.14.04.03h.06l.05-.03v-.1l-.02-.12-.05-.08-.1-.08-.1.03-.01.04.01.07z"/><path fill="#000" d="M12 4.91l.05.01h.02l.02-.03.02-.06.05-.09.04-.03.01-.01.02-.01h.01l.01-.02.02-.04.02-.05-.12.02-.07.08-.08.1-.01.13z"/><path fill="#fefefe" d="M14.52 4.4h.05v-.02l.01-.04.02-.04v-.03l-.02-.06-.03-.02-.06-.01-.03.03v.18h.02l.04.01z"/></svg>