<svg version="1.1" xmlns="http://www.w3.org/2000/svg" viewBox="0 0 26 32"><path fill="#4d87ca" stroke="#000" stroke-width=".4" stroke-miterlimit="4" stroke-linecap="round" stroke-linejoin="round" d="M.4.4h25.68v17.56c0 9.98-7.52 13.64-12.84 13.64C8.16 31.6.4 27.94.4 17.96V.4"/><path fill="#fcdd09" d="M3.1 6.19c1.6-3.2 5.92-1.53 5.92 1.46S4.69 12.31 3.1 9.12c1.6 1.86 4.52.86 4.52-1.47S4.7 4.33 3.1 6.2zm22.97 4.51l-2.42-1.2-.96 2.52-.17-2.7-2.66.44 2.25-1.5-1.7-2.09 2.4 1.2.97-2.52.17 2.7 2.66-.44-2.25 1.5z"/><path fill="#fff" d="M13.68 2.2l-1.14 10.97-.33.8v12.04h10.05V17.7h.4l-2.47-3.2h-5.05v-.53l-.34-.8z"/><path fill="#fff" d="M13.68 2.26l.46-.93h-.93zm0 0l.93.47V1.8zm0 0l-.94.47V1.8z"/><path fill="#000" d="M14 17.63h.67v-2.2c0-.33-.13-.6-.33-.79-.2.2-.33.46-.33.8zm-1.32 0h.66v-2.2c0-.33-.13-.6-.33-.79-.2.2-.33.46-.33.8zm.52 8.35h.94v-2.6c0-.33-.27-.6-.46-.79-.2.2-.47.46-.47.8zm2.64-5.48h.53v-1.67c0-.33-.07-.67-.27-.87-.2.2-.26.54-.26.87zm1.2 0h.53v-1.67c0-.33-.07-.67-.27-.87-.2.2-.26.54-.26.87zm1.19 0h.53v-1.67c0-.33-.07-.67-.26-.87-.2.2-.27.54-.27.87zm1.2 0h.53v-1.67c0-.33-.07-.67-.26-.87-.2.2-.27.54-.27.87zm1.77 0h.52v-1.67c0-.33-.06-.67-.26-.87-.2.2-.27.54-.27.87z"/><path fill="#fff" d="M20.2 12.96l.41-.83h-.83zm0 0l.83.41v-.83zm0 0l-.84.41v-.83z"/><path fill="#fcdd09" d="M3.05 15.54h7.89v6.42A3.9 3.9 0 0 1 6.99 26a3.93 3.93 0 0 1-3.94-4.05v-6.42"/><path fill="#da121a" d="M6.84 16.93c-.16.07-.35-.08-.5-.42-.13-.33-.52.08-.35.34.16.24.58.18.88.21z"/><path fill="#000" d="M4.24 16.44c.33-.02.37-.08.54.16.44.1.47.28.38.65-.05.2.48.6.75.82.12.1.36.32.35.06-.01-.14.19-.32.43-.2-.05-.26.12-.27.3-.25.1-.3.26.03.41-.01.03-.16-.13-.18-.22-.21-.28-.08-.33-.2-.33-.4s-.1-.25-.1-.36c0-.27.57-.15.84-.1.22-.3.53-.2.81-.2.3.01.42-.03.61-.1.08-.02.1.2 0 .38-.11.18.04.45-.13.58.08.27-.03.46-.17.5.07.2.06.52-.2.6.06.23 0 .5-.24.59.05.24-.03.42-.32.49-.04.48-.11 1 0 1.55.17.74.65 1.18 1.1.93.37-.22-.3-1.53-.09-2.13.25-.73.6-1.15.86-1.74.13-.32.13-.64-.15-.74-.25-.08-.37.1-.45.29.43-.04.4.4 0 .82-.16.16-.23.5-.4.67.05-.55 0-1.6.5-1.98.3-.22.73-.1.87.4.06.2.01.53-.11.8-.16.32-.42.5-.45.76.4-.43.4-.1.23.46.28-.17.28.12.05.44.5-.22.08.46-.07.62.14-.02.24-.17.37-.24a1.5 1.5 0 0 1-.34.83c-.17.2-.2.45-.44.68-.3.3-.77.44-1.06.24-.27-.19.25.73-.07 1.22-.06-.16-.1-.34-.2-.25.08.26.23.63-.25.67.1.28.02.78-.29.55-.04.21-.1.49-.32.57-.1.04-.08.1-.16.15-.08.05-.04.17.05.3-.24-.02-.22-.33-.27-.51-.14-.49-.43.11-.6-.15-.15-.22-.23.1-.3.2-.13-.17-.02-.4.22-.56-.05-.13.1-.2.23-.27-.2.01-.18-.16-.2-.25-.04-.27-.24-.13-.36-.17.2-.35.4-.02.6-.07.2-.05.36.05.45.3.07.21.52-.28.31-.48-.35-.35-.43-.7-.43-1.05 0-.47.26-.75.23-1.12-.03-.3-.22-.47-.43-.59-.32-.18-.38-.42-.44-.74-.22.3-.46.54-.78.32-.23.34-.74.37-.77-.03-.13.42-.36.03-.56.4-.06-.1-.1-.24.06-.38.08-.08-.12-.04-.26-.14-.2-.16-.25.15-.36.23-.03-.2 0-.43.22-.46.25-.05.16-.22.31-.34-.16-.16.08-.42-.3-.5.15-.12.37.01.51.13.17-.12.35-.15.4.18.04.44.51.39.72.32.35-.13.72-.48.85-.79-.3.12-.95.06-.8-.17 0-.18-.41 0-.43-.06-.06-.17.34-.23.3-.34-.7-.09-.6-.25-.42-.42-.12-.09-.29.28-.43.07-.15-.06-.2-.01-.38.18-.08-.23.1-.23.15-.32.05-.09-.02-.14.12-.25-.12 0-.13-.12-.2-.2-.08-.1-.16-.07-.31-.02.16-.17.17-.23.44-.26.1-.01.28.1.18-.22-.04-.12.2-.18-.17-.34z"/><path fill="#000" d="M3.92 20.9c.15-.08.3-.04.45.11.08.08.18-.1.31.04.15.17.25-.2.12-.35.2-.01.29.1.28.36.16.1.3.23.11.59.2.29.36.36.52.44.24.13.51.2.31-.4-.05-.16-.23-.27-.24-.55-.01-.63.45-.52.72-.44.36.11.34.46.27.76-.04.21-.14.48-.12.83.02.35-.17.72-.55.8-.25.05-.75.13-.4-.36-.45 0-.77-.06-.5-.37-.44 0-.58-.12-.47-.34-.11 0-.22.1-.35-.08-.1-.13-.22.03-.33.1-.05-.3.37-.29.25-.54-.05-.1-.2-.12-.15-.25.08-.2-.07-.29-.23-.34z"/></svg>