<svg version="1.1" xmlns="http://www.w3.org/2000/svg" viewBox="0 0 27 32"><path fill="#000" d="M.33.33c.02 6.45 0 12.89.04 19.33.49 4.97 3.96 9.5 8.67 11.2a13.4 13.4 0 0 0 13.67-2.67 13.26 13.26 0 0 0 4.32-10.48L27.06.33H.33z"/><path fill="#fff" d="M.85.85h11.88V4.1H.85V.85zm13.81 0h11.88V4.1H14.66V.85zM.85 6.06h11.88v3.6H.85v-3.6zm13.81 0h11.88v3.6H14.66v-3.6z"/><path fill="#0072b8" d="M13.45 10.17c0 6.92.03 13.84-.03 20.75-.3.51-1.47.01-2.1.01A12.9 12.9 0 0 1 1.29 21.6C.66 19.3.9 16.88.86 14.52V10.2l12.6-.02z"/><path fill="gold" d="M21.02 10.17c1.84.01 3.68-.01 5.52.01-.02 3.1.02 6.2-.07 9.3a12.9 12.9 0 0 1-12.5 11.7c-.08-5.2-.03-10.4-.04-15.6V10.2c2.37-.02 4.74 0 7.1-.03z"/><path fill="#000" d="M20.84 11.18c-.33 0-.73.07-.59.48v5.39c-.3.05-.1-.4-.15-.58l-.02-3.35c-.8-.12-1.46.44-1.84 1.08l-1.88 2.85c-.52 0-1.05 0-1.57.02l-.45.81.47.8c.34 0 .7-.02 1.04 0-.2 1.64-.57 3.29-.46 4.95.17.6.59 1.3 1.27 1.35.15.63.35 1.3.86 1.75v2.32c.35-.63.93-.97 1.63-.71.7-.08.86-.95.9-1.53.04-2.71.02-5.43.04-8.14.3-.06.1.4.16.57 0 1.75-.03 3.5.04 5.24.2.52.82.58 1.14 1.05.63.49 1.49.06 1.86-.55.12-.75 1.09-.62 1.23-1.34-.04-.65.92-.77.64-1.5-.46-2.67-.8-5.36-1.52-7.97-.4-.96-1.42-1.45-1.9-2.35-.18-.31-.53-.71-.9-.64zM6.9 11.4c-.5.02-1 0-1.5.05a.45.45 0 0 0-.4.5c.03.12-.08.08-.16.09H3.7c-.02-.21-.05-.47-.28-.56-.25-.08-.52-.04-.78-.06h-.88v.54l.66.43v1.78l-.7.5v.48c.53-.01 1.06 0 1.59-.04.25 0 .38-.24.37-.47.03-.06-.02-.2.08-.18H5c-.03.26.11.58.4.63.49.09 1 .05 1.5.06v-.54l-.7-.43v-1.79l.7-.42v-.56zm5.9 0c-.51.02-1.03 0-1.54.05-.24.02-.39.26-.4.48.02.11-.08.1-.16.1H9.55c.02-.2-.01-.43-.21-.54-.26-.09-.54-.05-.81-.07l-.88-.01v.55l.66.43v1.77l-.67.49-.03.5c.52-.01 1.04.02 1.56-.04.2-.01.39-.18.37-.4l.02-.26h1.3c-.03.3.2.64.51.66.47.06.94.02 1.41.01l.02-.5-.73-.46V12.4l.73-.45v-.54z"/><path fill="#da251c" d="M20.82 11.6c.54.03.68.65.98 1 .19.38.86.6.87.95-.46.19-1.01.35-1.37.65.6-.08 1.18-.34 1.8-.35.36.35.39.92.5 1.39-.47 0-1.03-.34-1.55-.4-.24-.09-1.15-.14-.5 0 .73.2 1.42.51 2.1.83.17.47.18 1.02.3 1.51l.88 5.36c-.14.6-.5-.1-.51-.38-.26-.76-.47-1.53-.76-2.27.04.41.2.97.3 1.44.1.66.3 1.3.4 1.97.05.4-.35.8-.73.7-.43-1.43-.78-2.87-1.2-4.3-.09.02.08.64.1.9.2 1.2.47 2.39.73 3.57.04.5-.25 1.13-.8 1.2-.5.16-.98-.17-1.15-.63-.12-.23-.03-.5-.06-.75-.02-1.73-.03-3.45-.06-5.17.23.06.41.82.65.94.28-.4.35-.86.4-1.32.44-.34.96-.05 1.44-.02.48-.06.44-.8.23-1.11-.4-.4-1 .21-1.47-.07-.22 0-.3-.11-.26-.33 0-.2.06-.41-.12-.56-.17-.22-.4-.69-.5-.13-.14.23-.23.7-.4.79-.12-1.17-.2-2.35-.34-3.53-.05-.62-.14-1.25-.14-1.87l.24-.02z"/><path fill="#fff" d="M1.92 11.62c.48.01.95-.01 1.43.03.16.1.15.33.16.5-.03.1.03.1.12.1h1.54c0-.17-.03-.34.04-.5.13-.19.4-.1.6-.13h.91c.02.14-.02.28-.16.33l-.55.35L6 14.25c.23.15.46.28.67.44.05.05.11.27 0 .25H5.4c-.11-.12-.26-.24-.23-.42v-.24H3.52c-.03.2-.01.4-.08.59-.16.1-.39.04-.58.06h-.94c-.03-.16.1-.27.23-.35l.46-.34v-1.95c-.21-.14-.43-.27-.63-.43-.08-.05-.05-.16-.06-.24zm5.91 0c.47.01.95-.02 1.42.03.2.1.12.36.13.54 0 .1.14.04.21.05h1.48c.03-.18-.07-.43.11-.56.19-.09.4-.04.6-.06h.84c.05.2-.12.33-.28.4-.12.13-.42.16-.44.35v1.9c.23.15.48.28.69.46.12.15-.01.24-.15.2H11.3c-.12-.1-.28-.24-.24-.42v-.23H9.4c-.05.2.08.59-.2.62-.46.04-.93.03-1.4.04-.03-.21.21-.3.34-.42.1-.12.36-.16.35-.34V12.3c-.21-.17-.5-.27-.65-.5v-.17z"/><path fill="#000" d="M3.51 12.62v1.18h1.66v-1.18H3.5zm5.87 0v1.18h1.7v-1.18h-1.7z"/><path fill="#0072b8" d="M9.55 12.8l1.3.01v.4l.02.38H9.55v-.8zm-5.87 0H5v.8H3.7v-.8z"/><path fill="#da251c" d="M19.67 13.44c.04.98.01 2 .03 3 0 3.48.01 6.96-.02 10.43-.05.38-.57-.2-.88-.13-.48-.07-1.04-.15-1.29-.64-.47-.82-.5-1.8-.63-2.7-.12-.97-.17-1.94-.3-2.9-.04 1.34.01 2.68-.02 4.02-.55-.15-.81-.82-.76-1.35.06-1.8.2-3.59.43-5.36.1-.51.54-.87.8-1.3l.97-1.26c.01.53-.56 1.02-.67 1.37.33-.34.86-.61.9-1.14-.02-.53.23-.98.53-1.39.19-.34.53-.62.9-.65z"/><path fill="#000" d="M19.24 13.87c-.09.03-.09.14-.1.22-.04.3-.03.6 0 .9.07.45.22.89.35 1.32.05.11.08-.06.06-.1-.08-.63-.13-1.26-.18-1.88-.02-.15-.02-.3-.08-.43a.05.05 0 0 0-.05-.03z"/><path fill="#da251c" d="M20.58 14.82c.01.03.12 1.2.17 1.94l.02.2c0 .04-.02.06-.04.08h-.16v-1.13c0-.62.01-1.11.02-1.1z"/><path fill="#000" d="M7.53 15.6a2.5 2.5 0 0 0-1.45.42 2.83 2.83 0 0 0-1.11 3.57c.4.93 1.32 1.61 2.32 1.72.52 0 1.07 0 1.54-.27a2.89 2.89 0 0 0 1.62-2.79 2.77 2.77 0 0 0-.96-1.93 2.65 2.65 0 0 0-1.96-.72z"/><path fill="gold" d="M7.58 15.77a2.72 2.72 0 0 1 2.66 2.2 2.73 2.73 0 0 1-2.84 3.18 2.69 2.69 0 1 1-.3-5.32c.15-.04.32-.03.48-.06z"/><path fill="#fff" d="M21.66 16.31c.07.11.2.2.22.33 0 .75 0 1.5-.02 2.25 0 .12-.03.25-.1.36-.02.07-.1.08-.1 0l-.34-.6v-1.56l.34-.78z"/><path fill="#000" d="M7.59 16.82a1.61 1.61 0 0 0-1.53 1.05 1.67 1.67 0 0 0 .73 2.01c.45.26 1.04.29 1.51.06a1.66 1.66 0 0 0 .9-1.81c-.06-.2-.12-.4-.24-.57a1.65 1.65 0 0 0-1.38-.75z"/><path fill="#0072b8" d="M7.55 17c.54-.02 1.1.28 1.33.78a1.46 1.46 0 0 1-.98 2.1c-.34.05-.7.04-1.01-.14a1.48 1.48 0 0 1-.6-1.94c.23-.47.73-.8 1.26-.8z"/><path fill="#fff" d="M20.08 17.25h1.04v.55h-1.04v-.55zm-4.79.01h.93c-.08.11-.16.22-.2.35l-.03.17-1.36.02.28-.5c.05-.04.12-.03.17-.04h.2zm8.23.13c.07-.01.14.02.16.09.05.13.04.27.04.41-.01.1-.02.2-.05.28-.04.06-.12.04-.18.04-.27-.05-.53-.14-.8-.17-.13.01-.26.05-.39.09l-.26.08.01-.73c0-.06.04-.1.1-.07.23.08.48.13.72.1.2-.02.4-.09.6-.12h.05zm-8.22.51h.68l-.08.56h-.96c-.1-.18-.21-.35-.3-.53-.02-.03.03-.01.05-.02h.61zm4.78 0h1.04v.56h-1.04v-.55z"/><path fill="#da251c" d="M20.57 18.66h.22l.03 1.92.04 2.94c.03 1 .03 1.01-.04 1.01-.04 0-.1-.04-.15-.08l-.09-.1v-2.84l-.02-2.83.01-.01z"/><path fill="#000" d="M17.31 18.67c0 .1.07.22.1.32.26.63.58 1.22.9 1.81l.16.35c.1.2.17.44.33.6.05.07.18.2.17.03.02-.32 0-.67-.15-.96-.1-.18-.23-.34-.31-.53-.1-.1-.16-.22-.24-.34-.29-.44-.6-.86-.93-1.26l-.01-.01-.02-.01zm-.21 1.83c.04.19.13.37.2.56.27.7.6 1.38.93 2.05.17.35.3.72.44 1.09.07.1.14.35.27.34.06-.23.01-.47-.01-.7-.05-.39-.25-.73-.43-1.07-.15-.23-.26-.48-.42-.71-.32-.5-.61-1.03-.95-1.53-.01 0-.02-.04-.04-.03zM5.06 21.74v.53l.66.44v1.77l-.69.49v.47l1.73-.03c.13-.1.2-.26.22-.43.03-.06 0-.18.06-.2H8.3c-.02.18.03.39.2.5.07.05.14.15.23.15h1.47v-.5l-.72-.47v-1.74l.72-.45v-.53c-.5 0-1.02-.03-1.52.03-.21.03-.42.21-.38.44 0 .08.03.19-.09.15h-1.2c-.03-.22-.06-.49-.3-.57-.35-.08-.72-.04-1.07-.05h-.57z"/><path fill="#fff" d="M5.24 21.9c.45.02.91 0 1.37.04.2.04.18.27.18.43.02.06-.04.19.06.16h1.63c0-.15 0-.31.04-.46.14-.18.39-.12.58-.14l.94-.02c-.01.1.04.24-.07.3-.2.15-.43.27-.65.4v1.96c.23.16.48.29.69.47.03.05.08.23-.01.22-.4 0-.8.02-1.19-.02-.23-.01-.34-.25-.32-.46 0-.06.02-.16-.01-.2H6.8c0 .2.03.41-.05.6-.17.11-.41.05-.61.08l-.93.01c-.03-.16.1-.27.23-.35l.46-.34V22.6c-.2-.14-.42-.26-.6-.42-.09-.07-.03-.2-.06-.28z"/><path fill="#000" d="M6.79 22.95v1.14h1.7v-1.14h-1.7z"/><path fill="#0072b8" d="M7 23.12h1.3v.8H7v-.8z"/><path fill="#e83629" d="M17.94 26.98l.08.02c.04.01.23.05.42.07.72.1 1.02.26 1.02.52 0 .1-.03.15-.12.25-.07.07-.11.1-.2.1h-.11a2.87 2.87 0 0 0-.64-.09.73.73 0 0 0-.28.06c-.07.04-.14.06-.15.05l-.02-.5v-.48z"/></svg>