<svg version="1.1" xmlns="http://www.w3.org/2000/svg" viewBox="0 0 26 32"><path fill="#da2724" d="M.3 19.12V.38h25.16v18.74a12.58 12.58 0 0 1-25.16 0z"/><path fill="#f1e900" d="M2.06 2.77v1.51a2.02 2.02 0 0 1 0 3.9v1.76h1.26a1.76 1.76 0 0 1 3.52 0H8.1V8.2a2.02 2.02 0 0 1 0-3.96V2.77h-1v1.45H5.95V2.77H4.2v1.45H3.07V2.77h-1zm15.6 0v1.51a2.02 2.02 0 0 1 0 3.9v1.76h1.26a1.76 1.76 0 0 1 3.52 0h1.26V8.2a2.02 2.02 0 0 1 0-3.96V2.77h-1v1.45h-1.14V2.77H19.8v1.45h-1.13V2.77h-1.01zM9.8 21.76v1.51a2 2 0 0 1 0 3.9v1.76h1.26a1.76 1.76 0 0 1 3.52 0h1.26V27.2a2.01 2.01 0 0 1 0-3.95v-1.48h-1.01v1.44H13.7v-1.44h-1.76v1.44H10.8v-1.44h-1z"/><path fill="#fff" d="M16.53 16.3a3.65 3.65 0 0 1-7.3 0v-5.1h7.3v5.1z"/></svg>