<svg version="1.1" xmlns="http://www.w3.org/2000/svg" viewBox="0 0 26 32"><path fill="#da121a" stroke="#000" stroke-width=".35" stroke-miterlimit="4" stroke-linecap="butt" stroke-linejoin="miter" d="M.35.35h24.8v18.9c0 5.9-4.13 12.4-12.4 12.4S.35 25.15.35 19.25z"/><path fill="#078930" d="M15.16 11.96h3.54c-.59-.4-.2-1.19-.64-1.77-.15-.2-.37-.37-.6-.53v-.89c.4-.38.65-.94.3-1.41-.38-.52-.45-1.86-.83-2.6-.27.7-.48 2.09-.82 2.6-.28.4-.07 1.04.3 1.41v.89c-.27.13-.46.28-.6.53-.31.57 0 1.32-.65 1.77zM11.45 9.5h2.48c-.71-.23.06-.94-.83-1.53.41-.12.47-.65 0-.77.16-.1.47-.18.47-.3s-.36-.16-.59-.23l-.06-2.36h-.47l-.06 2.36c-.17.08-.59.12-.59.23s.34.2.47.3c-.47.12-.4.65 0 .77-.88.59-.11 1.3-.82 1.53zm-.65 4.35l1.94-1.06 1.95 1.06z"/><path fill="#fff" d="M10.09 13.9h5.3v5.56h-5.3V13.9zm1.59-4.4h2.12v3.19h-2.12V9.5z"/><path fill="#fcdd09" d="M17.38 4.36a.4.4 0 1 1-.82 0 .4.4 0 0 1 .82 0z"/><path fill="#fff" d="M15.4 11.96h3.01v7.5H15.4v-7.5zm-5.2 1.94l2.57-2.07 2.51 2.08h-.53l-2-1.12-2.02 1.12z"/><path fill="#000" d="M12.46 19.05V16.2c0-.18-.3-.47-.53-.59 0-.23.47-.59.82-.77.36.18.83.53.83.77-.3.12-.53.41-.53.6v2.83h.77v-3.43c0-.3-.56-.8-1.06-1-.54.23-1.07.7-1.07 1v3.43zm-.43-7.65h.53v-.78c0-.35-.53-.35-.53 0zm.89 0h.53v-.78c0-.35-.53-.35-.53 0zm3.6 2.17h.77v-.89c0-.35-.77-.35-.77 0zm-.4 1.83h.53v-.77c0-.36-.53-.36-.53 0zm1.06-.01h.53v-.77c0-.35-.54-.35-.54 0z"/><path fill="#000" d="M13.17 15.54a.41.41 0 1 1-.83 0 .41.41 0 0 1 .83 0zm-6.1 9.16a11.8 11.8 0 0 1 4.07-4.5l.98 1.11-1.51 1.5 2.06 1.86 1.93-2.15-1.18-1.06 1.15-1.28 1.23 1.11.27-.3 1.01.9-.24.27c1.27.98 1.2 1.28 1.73 2.75-1.64-.31-1.71-.35-2.87-1.4l-1.94 2.15 2.75 2.55c-.02.64-.36.96-.88 1.16l-2.86-2.62-2.37 2.63c-.71 0-.9-.5-1.1-.98l2.38-2.63-2.06-1.86-1.34 1.65z"/><path fill="#fcdd09" d="M11.78 1.47l.33-.18c-.14-.13-.07-.25-.09-.38.11.03.16.1.2.18.03-.06.02-.13.17-.23.03.08.05.2.06.3.07-.13.14-.23.21-.2.02.14.07.2-.04.31-.02.45.1.94.33.67.26-.3.51-.43.73-.32.36.18.51.7.2 1.11-.08-.26-.18-.45-.28-.5a.66.66 0 0 0-.08.46c-.1.01-.15-.17-.22-.26-.12.26-.25.25-.44.32v1h-.3v-1c-.22-.06-.31-.34-.34-.67l-.05-.43z"/><path fill="#fcdd09" d="M13.1 4.14a.4.4 0 1 1-.82 0 .4.4 0 0 1 .82 0z"/><path fill="#078930" d="M6.83 11.96h3.54c-.59-.4-.21-1.19-.65-1.77-.15-.2-.36-.37-.59-.53v-.89c.4-.38.65-.94.3-1.41-.38-.52-.45-1.86-.83-2.6-.27.7-.48 2.09-.83 2.6-.27.4-.06 1.04.3 1.41v.89a1.3 1.3 0 0 0-.6.53c-.3.57.01 1.32-.64 1.77z"/><path fill="#fcdd09" d="M9.04 4.36a.4.4 0 1 1-.81 0 .4.4 0 0 1 .81 0z"/><path fill="#fff" d="M7.07 11.96h3v7.5h-3v-7.5z"/><path fill="#000" d="M8.19 13.57h.76v-.89c0-.35-.76-.35-.76 0zm-.4 1.83h.53v-.77c0-.35-.53-.35-.53 0zm1.05-.01h.53v-.77c0-.35-.53-.35-.53 0z"/><path fill="#fcdd09" d="M1.46 1.73h5.67v3.54C7.07 6.75 5.6 8.22 4.3 9.05c-1.26-.8-2.84-2.3-2.84-4.08z"/><path fill="#0f47af" d="M6.26 4.22a1.98 1.98 0 1 1-3.95 0 1.98 1.98 0 0 1 3.95 0z"/><path fill="#fcdd09" d="M2.23 3.8h4.25v.7H4.71v.71h.7c-.01 1.3-1.24 1.99-2.53 2 .7-.72.97-1.64.94-2.7H2.23z"/></svg>