<svg version="1.1" xmlns="http://www.w3.org/2000/svg" viewBox="0 0 29 32"><path fill="#fff" d="M26.98 18.2l1.4-17.1H.6L2 18.2c.23 3.6 1.38 6.4 3.47 8.54 2.1 2.12 5.99 4.13 9.02 4.16 3.03-.03 6.91-2.04 9.02-4.16 2.1-2.14 3.23-4.95 3.47-8.55z"/><path fill="#1167a3" d="M28.37 1.1H14.26v13.17H27.3L28.37 1.1z"/><path fill="#f3e226" d="M17.73 7.34a4.62 4.62 0 0 0 6.7 4.13l-.45.03a4.16 4.16 0 1 1 .44-8.3 4.63 4.63 0 0 0-6.7 4.13z"/><path fill="#f3e226" d="M23.98 4.34l-.86 1.52-1.75-.02.89 1.5-.89 1.5 1.75-.02.86 1.52.85-1.52 1.75.02-.89-1.5.9-1.5-1.76.02z"/><path fill="#1167a3" d="M3.27 10.11l1.97-1.96 1.96 1.96-1.96 1.96-1.97-1.96zm.98 0l.99.98.98-.98-.98-.98-.99.98z"/><path fill="#1167a3" d="M3.15 3.18v1.16h.7v-.46h.46v.46h.23v.46h-.23v.46h-.46V4.8h-.7v1.15h1.62v2.12l.02.05.01.02.01.02h.01v.01l.01.01.01.01.02.01v.01h.01l.01.01.01.01.02.01.02.01h.02v.01h.61v-.01h.01l.02-.01.01-.02h.02V8.2h.02l.01-.02.01-.01.01-.01v-.01l.01-.01v-.01h.01l.02-.06V2.89H5.7v-.03h-.01v-.01l-.01-.01v-.01l-.02-.02-.01-.02h-.01l-.01-.01-.02-.01v-.01H5.6l-.01-.01h-.01l-.01-.01-.03-.01H5.5v-.01h-.53l-.04.02H4.9v.01l-.02.01-.01.01-.01.01h-.01v.01l-.01.01-.01.01-.01.02-.01.02H4.8v.01l-.01.03-.01.03v.26z"/><path fill="#1167a3" d="M4.49 7.8h1.5c.09 0 .17.09.17.18v.57c0 .1-.08.17-.18.17h-1.5a.18.18 0 0 1-.17-.17v-.57c0-.1.08-.17.18-.17zm-1.57 3c0 .13.1.23.23.23h.47c.12 0 .23-.1.23-.22V9.4c0-.12-.1-.22-.23-.22h-.47c-.12 0-.23.1-.23.23v1.39zm3.01 1.62c.13 0 .23-.1.23-.23v-.46c0-.13-.1-.23-.23-.23H4.54c-.13 0-.23.1-.23.23v.46c0 .13.1.23.23.23h1.39zm4.97-2.31L8.94 8.15l-1.96 1.96 1.96 1.96 1.96-1.96zm-.98 0l-.98.98-.98-.98.98-.98.98.98z"/><path fill="#1167a3" d="M11.02 3.18v1.16h-.7v-.46h-.46v.46h-.23v.46h.23v.46h.47V4.8h.69v1.15H9.4v2.12l-.02.05v.02h-.01l-.01.02-.01.01-.01.01v.01h-.01l-.01.01-.01.01-.02.01v.01h-.01l-.02.01-.01.01h-.03v.01h-.59l-.01-.01H8.6l-.01-.01-.02-.02h-.02V8.2h-.02v-.02h-.01l-.01-.01v-.01l-.01-.01v-.01l-.01-.01h-.01l-.01-.06V2.89l.01-.03.01-.01v-.01l.02-.01V2.8h.01l.01-.02.02-.01.01-.01.01-.01h.01v-.01h.02v-.01l.04-.01h.03l.02-.01h.52l.04.02h.02v.01l.01.01h.01l.01.01v.01h.02v.01l.01.01v.01l.02.02.01.02.01.01v.03h.01v.03l.01.02v.24z"/><path fill="#1167a3" d="M8.19 7.8h1.5c.1 0 .17.09.17.18v.57c0 .1-.08.17-.18.17h-1.5a.18.18 0 0 1-.17-.17v-.57c0-.1.08-.17.18-.17zm3.06 3c0 .13-.1.23-.23.23h-.46a.23.23 0 0 1-.23-.22V9.4c0-.12.1-.22.23-.22h.46c.13 0 .23.1.23.23v1.39zm-3.01 1.62a.23.23 0 0 1-.23-.23v-.46c0-.13.1-.23.24-.23h1.38c.13 0 .23.1.23.23v.46c0 .13-.1.23-.23.23H8.24zm-.69-3c0-.13-.1-.23-.23-.23h-.46c-.13 0-.24.1-.24.23v1.39c0 .12.1.22.24.22h.46c.12 0 .23-.1.23-.22V9.4z"/><path fill="#da2724" d="M5.47 26.74c2.05 2.07 5.8 4.04 8.79 4.15V16.58H1.86L2 18.19c.24 3.61 1.38 6.4 3.47 8.55z"/><path fill="#131516" d="M27.06 17.27l.34-4.16H1.59c.1 1.39.22 2.77.33 4.16h25.14z"/><path fill="#131516" d="M16.57 1.1h-4.16v29.52c.72.17 1.42.27 2.08.27.66 0 1.37-.1 2.08-.27V1.1z"/><path fill="none" stroke="#000" stroke-width=".41" stroke-miterlimit="4" stroke-linecap="butt" stroke-linejoin="miter" d="M26.98 18.2l1.4-17.1H.6L2 18.2c.23 3.6 1.38 6.4 3.47 8.54 2.1 2.12 5.99 4.13 9.02 4.16 3.03-.03 6.91-2.04 9.02-4.16 2.1-2.14 3.23-4.95 3.47-8.55z"/><path fill="#fff" d="M4.25 10.11l.99.98.98-.98-.98-.98zm5.67 0l-.98.98-.98-.98.98-.98z"/></svg>