<svg version="1.1" xmlns="http://www.w3.org/2000/svg" viewBox="0 0 29 32"><path fill="#030303" d="M0 0h29.13v1.07a.33.33 0 0 0-.03.13v.04c-.02.99-.09 1.97-.14 2.96l-.1 1.98-.16 3.07-.1 1.9-.14 2.6-.09 1.83-.13 2.69-.03.66c0 .47-.07.92-.17 1.36a16.4 16.4 0 0 1-2.94 6.48c-.66.9-1.47 1.7-2.38 2.35-1.05.77-2.2 1.42-3.44 1.93a13.03 13.03 0 0 1-4.97.92 13.96 13.96 0 0 1-7.4-2.6 12.5 12.5 0 0 1-1.47-1.15c-.69-.65-1.3-1.39-1.83-2.19a16.62 16.62 0 0 1-2.21-4.82c-.17-.6-.3-1.19-.37-1.79-.03-.3-.04-.56-.05-.81L.8 15.49l-.14-2.8-.17-3.41-.15-2.79-.09-1.73zm14.64 16v15.4c0 .1 0 .1.11.1a12.85 12.85 0 0 0 3.8-.7 15.3 15.3 0 0 0 3.64-1.92c1-.68 1.83-1.5 2.53-2.43a15.95 15.95 0 0 0 2.77-5.98 7 7 0 0 0 .2-1.47c0-.21.03-.4.04-.6l.14-2.66.1-1.85.14-2.67.09-1.83.16-3.06.1-2q.09-1.82.2-3.62c0-.19 0-.19-.19-.19H14.82c-.21 0-.18-.03-.18.18V16zm-.4.01V.67c0-.23.02-.2-.21-.2H.54c-.1 0-.1 0-.1.1l.1 1.86.12 2.26.11 2.26L.9 9.2l.1 2.27.11 2.23.14 2.85.1 2.03.03.66c.05.54.14 1.03.27 1.5a16.07 16.07 0 0 0 2.73 5.75 9.82 9.82 0 0 0 1.67 1.8c1.1.89 2.32 1.65 3.65 2.22 1.33.59 2.76.94 4.26 1.02.27.01.24.02.24-.2l-.01-15.32z"/><path fill="#f3efe7" d="M14.64 16V.7c0-.2-.03-.18.18-.18h13.62c.2 0 .2 0 .18.19l-.19 3.6-.1 2-.16 3.06-.1 1.83-.13 2.67-.1 1.85-.13 2.66-.03.59c-.02.5-.09.97-.2 1.42a16 16 0 0 1-2.8 6.06 10.7 10.7 0 0 1-2.47 2.4 15.9 15.9 0 0 1-3.76 1.97 11.95 11.95 0 0 1-3.72.67c-.1 0-.1 0-.12-.1V16zm2.63 2.63c-.03-.01-.04 0-.03.03-.05 0-.1.02-.12.06l-.77.64a.5.5 0 0 1-.14.1c-.03.04-.03.09.04.1h.08c.03 0 .05.02.05.05v4.55a.06.06 0 0 0 .07.05h4.86c.24-.02.48 0 .72 0h2.34c.2 0 .2 0 .2-.2v-4.32c0-.13 0-.14.12-.15.08 0 .08-.05.05-.1a.48.48 0 0 1-.13-.08l-.7-.58a.2.2 0 0 0-.1-.08c-.02-.03-.03-.06-.07-.04.01-.03 0-.04-.03-.03 0-.03-.01-.03-.03-.03 0-.03-.01-.03-.03-.03a.04.04 0 0 0-.04-.04c-.32-.26-.6-.56-.92-.84a.59.59 0 0 1-.23-.46V9.67s.01-.06.04-.06c.08 0 .07-.05.06-.1l-.26-1.6-.2-1.24h-.02l-.3 1.94h-.03l-1.27-7.33h-.03l-1.29 7.29a.1.1 0 0 1-.05-.07l-.1-.62-.19-1.18v-.02a.04.04 0 0 0-.02-.04c-.02 0-.02.03-.02.05l-.15 1.04-.27 1.74c-.01.06-.05.14.07.14.02 0 .03.02.03.04v7.75c0 .08-.04.15-.1.2l-.6.56a6.1 6.1 0 0 1-.5.44zm2.89 6.91a.22.22 0 0 0-.33-.21.17.17 0 0 1-.08.02.18.18 0 0 1-.1-.03 2.2 2.2 0 0 0-2.08 0 .18.18 0 0 1-.17 0 .22.22 0 0 0-.31.24v.04c0 .05-.02.08-.05.11a2.22 2.22 0 0 0-.66 2.04c0 .05-.01.08-.04.11a.22.22 0 0 0 .11.38c.06.01.1.06.13.11.32.64.93 1.1 1.64 1.22a.2.2 0 0 1 .18.1.21.21 0 0 0 .38 0 .2.2 0 0 1 .16-.1 2.23 2.23 0 0 0 1.64-1.2.2.2 0 0 1 .15-.12.22.22 0 0 0 .12-.36.18.18 0 0 1-.05-.16 2.22 2.22 0 0 0-.6-1.94c-.07-.06-.17-.11-.1-.21z"/><path fill="#e73629" d="M14.23 16v15.33c0 .22.03.21-.2.2a12.33 12.33 0 0 1-4.28-1 15.72 15.72 0 0 1-3.69-2.25 9.85 9.85 0 0 1-1.67-1.8 16.04 16.04 0 0 1-2.7-5.68 9.25 9.25 0 0 1-.28-1.53l-.03-.7-.1-2.02-.15-2.85-.1-2.23L.9 9.2.8 6.95.66 4.7.54 2.44.44.57c0-.1 0-.1.1-.1h13.49c.23 0 .2-.03.2.2V16zM8.54 1.5h-.02l-.05.2c-.06.27-.19.5-.37.7a.58.58 0 0 0-.13.61l.11.36a.53.53 0 0 1-.12.54l-.12.11a.6.6 0 0 0-.1.61c.02.07.07.13.13.16.15.06.16.17.15.3a1.36 1.36 0 0 0 0 .2c0 .05-.01.09-.08.08s-.1.03-.09.1v1.89a.3.3 0 0 1-.1.23c-.39.37-.76.76-1.15 1.14a.34.34 0 0 0-.11.25v7.92c0 .1-.04.2-.1.25L4.26 19.5a.33.33 0 0 0-.1.23v4.29c0 .21-.02.18.19.18h8.43a.06.06 0 0 0 .06-.08v-4.4c0-.1-.04-.18-.1-.24l-2.16-2.38a.28.28 0 0 1-.08-.2V8.96a.24.24 0 0 0-.08-.22c-.4-.38-.77-.77-1.16-1.15a.32.32 0 0 1-.1-.23V5.43a.06.06 0 0 0-.05-.06c-.13-.03-.13-.04-.13-.16v-.08a1.38 1.38 0 0 0 0-.13c0-.1.07-.17.15-.2.12-.05.2-.17.2-.3v-.03a.6.6 0 0 0-.2-.52.54.54 0 0 1-.15-.67l.08-.26a.61.61 0 0 0-.15-.66 1.15 1.15 0 0 1-.3-.54l-.09-.33zm3.6 24.07c0-.21-.13-.32-.32-.24a.18.18 0 0 1-.16-.02 2.2 2.2 0 0 0-2.07 0 .22.22 0 0 1-.19 0 .21.21 0 0 0-.3.23v.04a.2.2 0 0 1-.07.14 2.21 2.21 0 0 0-.63 2.02c0 .04-.02.08-.04.1a.22.22 0 0 0-.07.16c0 .11.08.2.19.22.05 0 .1.04.11.08.33.66.95 1.12 1.68 1.23a.2.2 0 0 1 .16.1.2.2 0 0 0 .37.02.25.25 0 0 1 .2-.13c.72-.12 1.3-.57 1.62-1.18.03-.08.08-.13.15-.14a.21.21 0 0 0 .13-.35.25.25 0 0 1-.05-.25 2.23 2.23 0 0 0-.65-1.91.13.13 0 0 1-.05-.15z"/><path fill="#030303" d="M18.84 6.72l.19 1.18.1.61c0 .03.02.06.05.07l1.28-7.3h.03l1.3 7.34h.02l.31-1.94h.03l.2 1.24.25 1.6c.01.06.02.1-.06.1-.04 0-.05.03-.05.06v7.58c0 .19.09.35.22.46.32.27.6.57.93.83v.01c0 .02 0 .03.03.03 0 .02.01.03.02.03h.01c0 .02.01.03.02.03h.01c0 .02.01.03.02.03h.01c0 .03.01.06.05.03-.02.06.03.08.06.1.18.18.37.34.54.52a.35.35 0 0 0 .35.12c.01.05.01.1-.06.1-.13.01-.13.01-.13.14v4.32c0 .18 0 .18-.2.18H21.3l-1.15.01c-1.21-.02-2.43 0-3.64 0h-.09a.06.06 0 0 1-.05-.08v-4.54a.05.05 0 0 0-.07-.05h-.06c-.08 0-.07-.05-.05-.1a.34.34 0 0 0 .33-.12l.6-.57a.22.22 0 0 0 .1-.11c.01 0 .02-.01.02-.03.02 0 .03-.02.03-.03v-.01l.47-.41.6-.57c.06-.04.1-.12.1-.2V9.63a.05.05 0 0 0-.03-.05c-.12 0-.08-.08-.07-.14l.27-1.73.16-1.05c.01 0 .01.02.03.01zm1.62 1.41c.04.03.06.07.07.11l.26.69.29.76c0 .06.04.1.1.1h.5c.05 0 .09 0 .09-.05s0-.09-.06-.09a.05.05 0 0 1-.06-.05v-.02l.02-.1c.03-.22.08-.43.04-.66l-.62-3.55-.58-3.29c0-.02 0-.06-.04-.06l-.01.06-.42 2.33-.8 4.64a.45.45 0 0 0 0 .17l.06.44c.01.04.03.1-.04.1s-.07.05-.06.1c.01.07.06.05.1.05h.48c.06 0 .11-.04.12-.1l.17-.45zm.03.3h-.03l-.05.12-1.2 3.14a.6.6 0 0 0-.03.2v2.21c0 .04.02.07.06.07h.51c.04 0 .06-.03.06-.06v-.23c0-.04.03-.07.07-.07h1.19a.07.07 0 0 1 .07.09v.2c0 .04.02.06.05.06h.52c.03 0 .06-.03.06-.06v-2.2a.64.64 0 0 0-.05-.25l-.93-2.48-.3-.78zm-1.92 8.43v7.17a.08.08 0 0 0 .1.07h.28c.13 0 .13 0 .14-.13V9.7a.06.06 0 0 0-.08-.06h-.26c-.2 0-.18-.02-.18.17v7.06zm3.3 0v7.18c0 .03.02.06.06.06h.27c.2 0 .18.01.18-.19V9.69a.06.06 0 0 0-.08-.06h-.26c-.2 0-.18-.02-.18.17v7.06zm-2.7 4.77v2.39a.07.07 0 0 0 .09.07h.42s.12 0 .13-.13v-2.99a2 2 0 0 1 .38-1.15c.06-.1.14-.17.23-.25l.05-.02c.02 0 .05 0 .06.02l.07.06c.33.34.53.8.53 1.3v.03c.02.97.01 1.95.01 2.92v.13a.07.07 0 0 0 .08.07h.42s.13 0 .13-.13v-4.67c0-.12 0-.12-.12-.12h-2.34c-.12 0-.12 0-.13.13v2.32zm2.6-5.62v-1.24c0-.13 0-.13-.12-.13H19.3c-.12 0-.12 0-.12.12v2.45c0 .12 0 .13.12.13h2.35c.12 0 .12 0 .13-.13V16zm2.33 6.43V20.9c0-.13 0-.13-.13-.13h-1.35c-.13 0-.13 0-.13.13v3.06c0 .13 0 .13.14.13h1.41c.04 0 .06-.03.06-.06v-1.6zm-5.64-.02v-1.51c0-.14 0-.14-.15-.14H17c-.14 0-.14 0-.14.13v3.06c0 .13 0 .13.14.13h1.42a.06.06 0 0 0 .06-.08v-1.6zm-.8-3.52c.26.52.5 1.03.78 1.52v-2.73a.14.14 0 0 0-.1.06l-1.77 1.66a.28.28 0 0 0-.1.2v4.42c.01.02.03.04.05.04.16.04.22 0 .22-.17v-3.07c0-.1.03-.21.08-.3l.75-1.51.09-.15zm5.63 0l.04.08.83 1.65c.03.05.04.11.04.18V24c0 .07.03.1.1.1h.12c.03 0 .05-.04.05-.07v-4.42a.24.24 0 0 0-.07-.17l-1.78-1.68a.12.12 0 0 0-.1-.06v2.72h.03zm-2.82.17h1.18c.12 0 .12 0 .12-.12v-1.38c0-.1 0-.1-.12-.1h-2.37c-.1 0-.11 0-.11.12v1.37c0 .12 0 .12.12.12h1.17zm-.55 3.94v.96c0 .11 0 .11.11.11h.92a.08.08 0 0 0 .08-.1V22a.08.08 0 0 0-.1-.08h-.88c-.12 0-.12 0-.12.12v.97zm.55-1.2h.49a.08.08 0 0 0 .08-.1v-.7a2 2 0 0 0-.1-.64 1.63 1.63 0 0 0-.39-.64c-.07-.07-.08-.07-.15 0a1.9 1.9 0 0 0-.48 1.14v.85a.08.08 0 0 0 .1.08h.46zm-2.82-2.71l-.77 1.55h1.54zm5.64 0l-.77 1.54h1.54zm-2.81-4.58h1.23a.07.07 0 0 0 .06-.09v-.04c0-.14 0-.14-.13-.14h-.53a.07.07 0 0 1-.07-.07V14c0-.11 0-.11-.11-.11h-.78c-.24 0-.24 0-.24.23 0 .14 0 .14-.15.14h-.49c-.03 0-.08 0-.09.02a.32.32 0 0 0 0 .21c.02.05.08.02.13.02h1.16zM19.19 9.5l-.18-1.15c-.06-.38-.11-.75-.2-1.12a66 66 0 0 0-.33 2.03c-.01.07-.07.16-.02.22s.14 0 .22 0h.5zm2.95-2.27h-.03c-.12.75-.25 1.5-.36 2.27h.64c.1 0 .1 0 .08-.11l-.35-2.16zm-.99 2.61l.6 1.57.02-.01V9.94a.07.07 0 0 0-.08-.07h-.54zm-1.36 0h-.5c-.13 0-.13 0-.13.13v1.43h.03zm.36 15.67c-.06.1.03.15.09.2a2.22 2.22 0 0 1 .6 1.99c0 .04 0 .08.04.12a.22.22 0 0 1-.12.37.2.2 0 0 0-.14.12 2.2 2.2 0 0 1-1.65 1.2.2.2 0 0 0-.17.1.21.21 0 0 1-.4 0 .2.2 0 0 0-.15-.1 2.23 2.23 0 0 1-1.65-1.19c-.03-.07-.08-.1-.14-.12a.22.22 0 0 1-.12-.38.15.15 0 0 0 .05-.1v-.04a2.22 2.22 0 0 1 .65-2 .14.14 0 0 0 .04-.15.22.22 0 0 1 .31-.24.18.18 0 0 0 .18-.01 2.22 2.22 0 0 1 2.07 0c.02.02.05.03.1.03l.08-.02a.22.22 0 0 1 .32.2v.02zm-1.54 2.46a.68.68 0 1 0-.68-.68c0 .38.3.68.68.69zm.23 1.29c.42-.18.74-.78.34-1.29-.06-.07-.07-.08-.14-.03a.74.74 0 0 1-.65.1.73.73 0 0 1-.25-.11.05.05 0 0 0-.04-.02.05.05 0 0 0-.05.03.9.9 0 0 0-.2.48c-.03.36.15.61.42.82.02.02.04.04.06.04.02 0 .03 0 .04-.02v-.49c.01-.12.1-.21.22-.22.14 0 .24.1.25.23v.51zm.72-3.7c-.43-.11-1.04.2-1.02.8 0 .13 0 .13.12.14a.8.8 0 0 1 .56.31c.02.04.06.07.1.07.02 0 .04 0 .05-.02a.9.9 0 0 1 .47-.06.1.1 0 0 0 .09-.05.8.8 0 0 0 .14-.44c0-.18-.04-.34-.1-.49l-.15.22-.19.25a.24.24 0 0 1-.3.02.23.23 0 0 1-.06-.3c.03-.05.06-.1.1-.13zm.98 2.11a.84.84 0 0 0-1.16-.7c-.06.02-.04.06-.03.1a.75.75 0 0 1-.1.66.11.11 0 0 0-.04.08c0 .03.02.06.04.08.1.11.16.25.2.4 0 .06.05.1.1.1a.82.82 0 0 0 .37.01c.2-.05.37-.14.52-.27l-.24-.08-.29-.1a.23.23 0 0 1-.12-.29.23.23 0 0 1 .28-.14l.14.04zm-3.75.45a.97.97 0 0 0 .67.3c.07 0 .14 0 .2-.02a.1.1 0 0 0 .1-.09c.03-.16.1-.3.2-.42.02-.02.03-.05.03-.08s0-.05-.03-.07a.77.77 0 0 1-.13-.58c0-.06.06-.12.02-.17a.31.31 0 0 0-.18-.07h-.04c-.4-.1-.89.2-.98.75l.14-.04a5.66 5.66 0 0 1 .43-.12.23.23 0 0 1 .23.23c0 .08-.04.16-.11.2a.69.69 0 0 1-.13.04l-.4.14zm.47-2.29a.67.67 0 0 0-.08.2.84.84 0 0 0 .1.7.1.1 0 0 0 .08.07h.13c.12 0 .24.02.35.06l.05.01c.05 0 .09-.03.11-.07a.7.7 0 0 1 .35-.25c.06-.01.1-.06.1-.11v-.08c0-.14.03-.28.08-.4l.01-.04a.11.11 0 0 0-.04-.1.92.92 0 0 0-.83-.3l-.01.04.1.15.19.26.03.12c0 .07-.03.13-.08.17a.24.24 0 0 1-.3.01.42.42 0 0 1-.1-.1zm2.4-.38c-.52-.4-1.58-.4-2.1-.02l.04.01c.37-.03.7.04.95.33.05.06.08.04.11 0 .18-.2.43-.32.7-.33l.3.01zm-3.15 2.27l.02-.02c.1-.36.26-.67.63-.83.05-.02.04-.05.02-.08a.84.84 0 0 1-.1-.22 1.07 1.07 0 0 1 .07-.73.1.1 0 0 0 .02-.07.1.1 0 0 0 0-.04c-.5.37-.84 1.23-.66 1.99zm4.19 0c.22-.7-.14-1.64-.64-1.98.16.38.19.75-.04 1.11.4.16.6.48.68.87zm-4.02.48c.18.6 1.02 1.22 1.68 1.22a.13.13 0 0 0-.07-.06 1.23 1.23 0 0 1-.47-.54 1.03 1.03 0 0 1-.06-.24c0-.05-.02-.08-.08-.07-.36.08-.65-.04-.92-.28-.02 0-.04-.04-.07-.03zm2.8.3c0 .2-.08.4-.2.55-.12.15-.27.28-.44.37.6.05 1.65-.71 1.7-1.22-.3.26-.64.4-1.06.3zm-.73.65v-.31l-.01-.1c-.02-.06-.07-.1-.13-.1s-.1.04-.12.1a.3.3 0 0 0-.02.1v.6c0 .05.01.09.03.12.02.05.06.07.11.07.04 0 .09-.02.1-.06a.22.22 0 0 0 .03-.1v-.32zm-1.43-3.76a.13.13 0 0 0-.12.1v.04c0 .03 0 .06.02.09.14.19.27.39.42.57a.13.13 0 0 0 .19.04.13.13 0 0 0 .05-.1.13.13 0 0 0-.02-.09l-.43-.58a.15.15 0 0 0-.1-.06zm2.72.16v-.03a.13.13 0 0 0-.06-.1.1.1 0 0 0-.07-.03l-.07.02a.27.27 0 0 0-.07.08l-.36.49c-.07.1-.07.19 0 .24s.14.02.22-.08c.14-.17.26-.34.38-.51a.18.18 0 0 0 .04-.1zm-2.84 2.09h-.06l-.64.22a.2.2 0 0 0-.05.02.13.13 0 0 0-.06.1l.01.05c.02.05.07.09.12.09h.02l.1-.02.57-.2a.38.38 0 0 0 .1-.03.12.12 0 0 0 .04-.16.12.12 0 0 0-.12-.09zm2.84 0h-.02a.13.13 0 0 0-.12.1v.02c0 .07.04.12.1.14l.67.2.05.02c.06 0 .11-.04.13-.1V28a.13.13 0 0 0-.1-.13c-.22-.09-.44-.16-.66-.23h-.03z"/><path fill="#e73629" d="M17.23 18.65a.22.22 0 0 1-.08.1c-.2.2-.42.39-.6.59a.34.34 0 0 1-.34.11c.05-.02.1-.05.14-.09q.38-.33.77-.64a.14.14 0 0 1 .12-.07zm7.52.8l-.07.01a.35.35 0 0 1-.28-.13c-.17-.18-.36-.34-.54-.52-.03-.02-.08-.04-.06-.1a.2.2 0 0 1 .12.08l.7.58c.03.03.07.06.12.08zM18.84 6.72c-.02.01-.03-.01-.04-.02s0-.05.02-.04a.04.04 0 0 1 .02.06z"/><path fill="#e73629" d="M23.8 18.72c-.03.02-.04 0-.05-.04.03 0 .04.01.06.04zm-.08-.06a.02.02 0 0 1-.03-.03c.02 0 .04 0 .03.03zm-.06-.06a.03.03 0 0 1-.04-.03v-.01c.02 0 .04.02.04.04zm-6.37-.02c0 .03 0 .04-.03.04 0-.02.02-.04.03-.04z"/><path fill="#e73629" d="M23.69 18.63a.02.02 0 0 1-.03-.03c.02 0 .03 0 .03.03zm-6.43 0c0 .01 0 .03-.02.03-.01-.04 0-.04.02-.04zm6.49.05a.02.02 0 0 1-.03-.02c.02-.01.04 0 .03.02z"/><path fill="#030303" d="M8.54 1.5l.08.31c.05.22.16.4.3.55a.62.62 0 0 1 .15.67L9 3.3a.54.54 0 0 0 .15.66.6.6 0 0 1 .2.53c0 .14-.08.25-.2.3a.2.2 0 0 0-.12.24v.18c0 .11 0 .11.1.14.04 0 .06.03.06.06v1.93c0 .1.04.17.1.23l1.15 1.15c.06.04.1.1.1.18v6.77l-.02 1.21c0 .09.03.15.08.2l2.17 2.4c.07.06.1.15.1.24v4.42c0 .03-.02.06-.06.06H4.38c-.2 0-.19.02-.19-.19v-4.3c0-.09.04-.17.1-.23l2.13-2.36c.06-.06.1-.15.1-.24V8.96c0-.1.04-.19.11-.25l1.15-1.14a.3.3 0 0 0 .1-.22v-1.9c0-.06.02-.1.09-.1s.08-.03.08-.08a1.36 1.36 0 0 1 0-.2c.01-.13 0-.24-.15-.3a.24.24 0 0 1-.15-.15.6.6 0 0 1 .1-.6l.12-.13a.53.53 0 0 0 .12-.54L7.97 3a.58.58 0 0 1 .14-.62c.18-.18.3-.42.36-.68l.05-.21h.02zm1.9 18.5v-4c0-.13 0-.13-.13-.13H6.75c-.14 0-.13-.01-.13.12v8.04a.08.08 0 0 0 .1.07h1.07c.05 0 .08-.01.07-.07v-2.41c0-.1.02-.19.04-.28.07-.34.26-.64.52-.84.1-.09.1-.09.21 0 .33.25.55.64.56 1.08v2.39c0 .11 0 .11.11.11h.97c.19 0 .16.01.16-.16v-3.94zm0-6.39v-1.99c0-.19.02-.16-.16-.16h-3.5c-.18 0-.16-.03-.16.16v3.99c0 .18-.02.16.16.16h3.58c.05 0 .1-.01.08-.07v-2.09zM6.5 17.2l-.06.06-2.08 2.3a.28.28 0 0 0-.08.19v3.3c0 .04.03.06.06.06h2.01c.18 0 .16.02.16-.16v-5.66a.3.3 0 0 0-.01-.1zm4.06 0a.15.15 0 0 0-.03.12v5.67c0 .13 0 .13.14.13h1.95c.13 0 .12 0 .12-.12v-3.24c0-.1-.04-.18-.1-.24l-2.02-2.25-.07-.09zM8.54 8.87h-1.8c-.14 0-.13-.02-.13.13v2.2c0 .17 0 .15.15.15h3.62c.03 0 .05-.02.05-.04V8.92a.05.05 0 0 0-.05-.05H8.54zm-1.86-.1h3.66a.12.12 0 0 0-.05-.06L9.21 7.63a.37.37 0 0 1-.13-.28V5.56c0-.12 0-.1-.1-.1h-.3l-.03-.01a.08.08 0 0 0-.08.1v.6c0 .03.03.1-.04.1-.09 0-.05-.08-.05-.12v-.6c0-.05-.01-.08-.07-.08h-.39a.06.06 0 0 0-.05.07v1.86c0 .09-.04.17-.1.23-.4.37-.77.75-1.18 1.16zm1.86-6.96a1.5 1.5 0 0 1-.38.62.5.5 0 0 0-.11.56l.1.3a.63.63 0 0 1-.16.68l-.12.12a.41.41 0 0 0 .15.64.1.1 0 0 1 .07.1v.41c0 .05.01.08.07.07h.06c.07 0 .17.03.22-.02s.01-.14.02-.22V4.8c0-.02.02-.04.04-.04h.02c.02 0 .04.02.04.04v.49c0 .03.03.05.06.05h.24s.08-.03.08-.08v-.39c0-.07.04-.12.1-.13.1-.03.18-.11.2-.22.02-.18 0-.35-.15-.48a.91.91 0 0 1-.07-.07.62.62 0 0 1-.14-.65l.11-.34a.5.5 0 0 0 0-.35.54.54 0 0 0-.16-.22.97.97 0 0 1-.27-.41 1.06 1.06 0 0 1-.05-.17zm.54 21.3v-.9c0-.1 0-.1-.1-.1h-.9c-.1 0-.1 0-.1.1V24c0 .07 0 .1.09.1h.92c.08 0 .1-.03.1-.1l-.01-.88zm1.45.12v.78c0 .06.02.09.08.08h2.1c.03 0 .06-.02.06-.05v-.76c0-.04-.01-.07-.05-.07h-2.05a.24.24 0 0 0-.13.02zm-6.24 0v.8c0 .04.02.06.06.06h2.11c.04 0 .06-.02.06-.05v-.78a.06.06 0 0 0-.07-.05H4.38a.2.2 0 0 0-.1.02zm4.23-1.22h.22a1.4 1.4 0 0 0 .35-.02v-.35a1.35 1.35 0 0 0-.5-1.04c-.01-.02-.04-.03-.06-.03l-.07.03a1.3 1.3 0 0 0-.36.45 1.83 1.83 0 0 0-.13.91c0 .06.03.07.08.07h.48zm3.62 3.55v.03c0 .05.03.1.07.12a2.24 2.24 0 0 1 .64 1.97c0 .07.02.12.06.17a.2.2 0 0 1-.12.34.2.2 0 0 0-.16.13c-.32.62-.9 1.06-1.6 1.18-.1 0-.17.06-.21.12a.2.2 0 0 1-.36 0 .19.19 0 0 0-.14-.1 2.25 2.25 0 0 1-1.7-1.23c-.02-.06-.07-.1-.12-.1a.22.22 0 0 1-.12-.38.16.16 0 0 0 .05-.12v-.02a2.21 2.21 0 0 1 .63-1.99.2.2 0 0 0 .07-.15v-.02a.21.21 0 0 1 .3-.23.22.22 0 0 0 .2-.01 2.21 2.21 0 0 1 2.07 0c.02.02.05.03.09.03l.06-.01c.2-.08.33.03.33.24zm-1.52 1.06a.68.68 0 1 0 0 1.37.68.68 0 0 0 0-1.37zm.52 1.28c-.34.24-.69.24-1.02 0-.4.46-.28 1.16.28 1.35v-.54c.03-.1.13-.18.24-.18.12 0 .21.1.23.21a1.6 1.6 0 0 1 0 .15v.38c.48-.24.77-.87.28-1.4zm1.46-.21a.63.63 0 0 0-.1-.3.82.82 0 0 0-1.04-.43c-.07.01-.09.03-.06.12a.73.73 0 0 1-.11.67.1.1 0 0 0 .01.14c.1.11.16.25.2.4.01.06.05.1.1.1.06.02.13.02.2.02.27 0 .5-.11.66-.3l-.24-.08c-.08-.03-.16-.05-.24-.1a.23.23 0 0 1-.12-.29.24.24 0 0 1 .29-.13l.12.04zm-3.34-1.88a1.33 1.33 0 0 0-.1.56c.01.14.06.27.13.38a.1.1 0 0 0 .1.04.9.9 0 0 1 .45.06l.06.01c.05 0 .09-.03.11-.07a.8.8 0 0 1 .5-.29c.07 0 .17.03.19-.05a.52.52 0 0 0 0-.2l-.01-.09c-.05-.37-.5-.75-1.02-.62l.14.19.17.22a.23.23 0 0 1-.02.27.22.22 0 0 1-.24.07.3.3 0 0 1-.14-.1c-.08-.14-.17-.26-.28-.42zm-.46 2.33c.15.13.34.23.55.27a.85.85 0 0 0 .36-.02c.04 0 .07-.03.08-.07.05-.2.14-.37.27-.51a.78.78 0 0 1-.15-.8.05.05 0 0 0-.04-.05.86.86 0 0 0-.64-.02.9.9 0 0 0-.51.6l-.02.06c0 .02 0 .04.02.06l.1-.03.37-.12a.23.23 0 0 1 .31.21c0 .1-.06.19-.15.22a.75.75 0 0 1-.11.04zm2.83-2.61a1.42 1.42 0 0 0-.54.07.84.84 0 0 0-.33.25.1.1 0 0 0-.03.07.1.1 0 0 0 0 .04.93.93 0 0 1 .09.48c0 .06.04.1.09.1a.7.7 0 0 1 .37.26c.02.04.06.06.1.06a.1.1 0 0 0 .06-.02 1 1 0 0 1 .36-.07h.12a.1.1 0 0 0 .1-.06c.17-.3.15-.6.01-.92l-.24.32c-.13.18-.27.23-.4.14s-.1-.23.02-.4zm.43.17c.18.39.23.76-.02 1.12a1 1 0 0 1 .46.34c.11.16.2.34.23.54.25-.54-.15-1.73-.67-2.02zm-2.85 0c-.5.29-.9 1.53-.64 2.03.08-.42.27-.75.68-.9-.24-.38-.2-.75-.04-1.13zm.4-.26c.4-.06.77.04 1.05.37.28-.35.65-.41 1.07-.4-.67-.43-1.67-.35-2.12.02zm2.97 2.72c-.14.12-.3.22-.48.3a1.04 1.04 0 0 1-.6 0c-.01.45-.27.71-.62.94.83-.05 1.54-.7 1.7-1.25zm-2.15 1.24c-.35-.22-.62-.47-.64-.88 0-.04-.02-.05-.06-.04l-.2.03c-.29 0-.55-.11-.75-.3a.11.11 0 0 0-.08-.04 2.07 2.07 0 0 0 1.73 1.22zm-.53-3.3c0-.05-.02-.1-.06-.13l-.35-.5a.35.35 0 0 0-.06-.07.12.12 0 0 0-.16 0 .13.13 0 0 0-.05.1l.01.05.05.08.36.5.08.08.07.02c.07 0 .12-.06.12-.13v-.01zm1.48-.03v.03a.13.13 0 0 0 .12.13c.03 0 .06-.01.08-.03a.23.23 0 0 0 .05-.05l.4-.55a.25.25 0 0 0 .03-.07l.01-.05a.12.12 0 0 0-.06-.1.11.11 0 0 0-.15.01.3.3 0 0 0-.06.06l-.37.5a.2.2 0 0 0-.05.1zm-2.81 2.02l.07-.02.6-.2.07-.03a.13.13 0 0 0 .06-.16.11.11 0 0 0-.13-.08c-.3.07-.55.15-.79.25 0 0-.03.04-.03.09a.1.1 0 0 0 0 .04c.02.06.08.1.14.1zm4.15 0h.03c.07 0 .13-.06.13-.13a.13.13 0 0 0-.1-.13 13.63 13.63 0 0 0-.73-.23c-.06 0-.11.03-.13.09v.02c0 .06.04.12.1.14h.04l.57.19c.03.02.06.02.1.02zm-2.2 1.01v.38c0 .07.05.13.12.13h.01c.08 0 .14-.06.14-.14v-.73a.14.14 0 0 0-.13-.14.14.14 0 0 0-.13.15l-.01.33z"/><path fill="#e73629" d="M20.46 8.13l-.42 1.1-.17.45a.13.13 0 0 1-.12.1h-.47c-.04 0-.1.02-.1-.05 0-.05 0-.1.06-.1s.05-.06.05-.1l-.07-.44a.45.45 0 0 1 0-.17l.82-4.63.41-2.33.01-.06c.05 0 .04.04.05.06l.58 3.3c.2 1.18.4 2.36.63 3.54.04.23-.01.44-.04.66l-.02.12v.03c0 .02.02.05.05.05h.01c.07 0 .06.04.06.09s-.04.06-.08.06h-.5a.1.1 0 0 1-.1-.1l-.28-.76-.26-.7a.16.16 0 0 0-.07-.1z"/><path fill="#e73629" d="M20.5 8.42l.29.77.94 2.48a.6.6 0 0 1 .04.24v2.19c0 .04-.02.07-.06.07h-.5a.05.05 0 0 1-.06-.05v-.25a.07.07 0 0 0-.09-.07H19.9a.07.07 0 0 0-.07.08v.2c0 .04-.03.07-.06.07h-.51a.06.06 0 0 1-.07-.08v-2.18a.6.6 0 0 1 .05-.23l1.19-3.14.06-.13zm.36 3.6v-1.23a.68.68 0 0 0-.18-.46c-.2-.2-.21-.21-.41 0a.8.8 0 0 0-.17.49v2.45c0 .1 0 .12.12.12h.5c.14 0 .15 0 .15-.15l.01-1.22zm-2.3 4.84V9.8c0-.2-.02-.17.18-.17h.27a.06.06 0 0 1 .07.08v14.27c0 .12 0 .12-.13.13h-.32a.08.08 0 0 1-.07-.1v-7.15zm3.31 0V9.81c0-.2-.02-.18.18-.18h.27c.04 0 .07.02.07.06v14.23c0 .2.02.19-.19.19h-.27a.06.06 0 0 1-.06-.06v-7.19zm-2.7 4.78V19.3c0-.13 0-.13.13-.13h2.34c.13 0 .14 0 .14.12v4.67c0 .12 0 .12-.13.12h-.44a.07.07 0 0 1-.07-.1v-3.04c0-.5-.2-.96-.53-1.3l-.08-.07a.05.05 0 0 0-.05-.03l-.06.03a1.5 1.5 0 0 0-.23.25c-.23.32-.37.71-.38 1.13v3c0 .12 0 .12-.14.12h-.44a.07.07 0 0 1-.07-.1V21.6zm2.6-5.63v1.23c0 .13 0 .13-.12.13H19.3c-.12 0-.13 0-.13-.13v-2.46c0-.13 0-.13.13-.13h2.35c.13 0 .13 0 .13.13v1.23zm-2.2.17v.93c0 .07.02.1.1.1h.42a.08.08 0 0 0 .08-.1v-1.83a.55.55 0 0 0-.16-.38c-.1-.11-.15-.11-.26 0-.1.1-.16.23-.16.38v.91zm1.8 0v-.9a.54.54 0 0 0-.2-.42c-.07-.07-.1-.07-.17 0-.13.1-.2.26-.2.44v1.79c0 .1 0 .11.1.11h.34c.12 0 .13 0 .13-.13v-.89zm2.73 6.27v1.59c0 .04-.03.06-.06.06h-1.41c-.14 0-.14 0-.14-.13v-3.06c0-.14 0-.14.13-.14h1.35c.12 0 .13 0 .13.12v1.54zm-1.14-.06v.6c0 .1 0 .1.1.1h.47c.1 0 .1 0 .1-.11v-1.14c0-.2-.1-.38-.26-.5l-.08-.02a.1.1 0 0 0-.07.03.61.61 0 0 0-.25.47v.57zm-4.5.04v1.62c0 .04-.03.06-.06.06H17c-.14 0-.14 0-.14-.13v-3.06c0-.13 0-.13.14-.13h1.33c.15 0 .15 0 .15.14v1.51zm-1.14-.04v.62a.08.08 0 0 0 .1.08h.51a.08.08 0 0 0 .08-.1v-1.17a.6.6 0 0 0-.25-.47c-.03-.02-.05-.03-.09-.03s-.05 0-.08.03a.62.62 0 0 0-.25.48v.56z"/><path fill="#e73629" d="M17.66 18.9l-.08.16-.76 1.5a.63.63 0 0 0-.07.3v3.09c0 .16-.06.2-.22.16a.05.05 0 0 1-.05-.05v-4.42c0-.08.04-.16.1-.2a228.91 228.91 0 0 0 1.87-1.75v2.73c-.28-.5-.52-1-.8-1.53zm5.63.01l-.76 1.53-.03-.01V17.7c.04 0 .08.02.1.05l1.8 1.7c.04.04.07.1.07.17v4.41c0 .04-.03.06-.06.06h-.1c-.07 0-.1 0-.1-.09v-3.19a.45.45 0 0 0-.04-.18l-.83-1.65c0-.02-.02-.03-.05-.07zm-2.82.18H19.3c-.12 0-.12 0-.12-.12V17.6c0-.13 0-.13.11-.13h2.37c.11 0 .11 0 .12.1v1.4c0 .11 0 .11-.13.11h-1.18zm.9-.82v-.36a.06.06 0 0 0-.06-.07h-.57a.06.06 0 0 0-.07.07v.7c0 .04.03.07.07.07h.55a.06.06 0 0 0 .07-.08v-.35zm-1.1 0v-.36a.06.06 0 0 0-.07-.07h-.56a.07.07 0 0 0-.07.09v.67c0 .04.03.07.06.07h.55c.07 0 .09-.04.09-.1v-.32zm-.35 4.75v-.96c0-.12 0-.13.13-.13h.9a.08.08 0 0 1 .08.1v1.99a.08.08 0 0 1-.1.08h-.9c-.1 0-.1 0-.1-.1v-.98zm.56-1.2H20a.08.08 0 0 1-.07-.1c0-.28-.02-.55 0-.82a1.9 1.9 0 0 1 .47-1.16c.08-.07.09-.07.16 0 .17.18.3.4.38.65.06.2.1.4.1.63v.7a.08.08 0 0 1-.1.08h-.45z"/><path fill="#e73629" d="M17.66 19.12l.77 1.55h-1.55zm5.63 0l.78 1.55h-1.55zm-2.81-4.57h-1.16c-.05 0-.11.02-.13-.03a.33.33 0 0 1 0-.21c0-.04.06-.02.09-.02h.5c.13 0 .13 0 .14-.14 0-.23 0-.23.23-.23h.78c.11 0 .11 0 .11.1v.19c0 .04.03.07.07.07h.54c.13 0 .13 0 .13.13v.05c0 .04-.03.07-.06.07h-1.23zM19.2 9.52h-.5c-.08 0-.18.03-.23-.02s0-.15.02-.22c.1-.67.2-1.35.33-2.03.09.38.13.75.2 1.13s.11.75.17 1.14zm2.95-2.26l.34 2.15c.02.1.02.11-.09.11h-.64c.1-.76.23-1.52.35-2.26zm-1 2.6h.56c.04 0 .07.04.07.07v1.49l-.03.01-.6-1.56zm-1.35 0l-.6 1.57h-.02V10c0-.12 0-.12.12-.12h.5zM18.62 28a.68.68 0 1 1 .7-.69.7.7 0 0 1-.7.7z"/><path fill="#e73629" d="M18.86 29.29v-.5a.24.24 0 0 0-.24-.24c-.12.01-.22.1-.22.23v.5a.07.07 0 0 1-.1-.02c-.27-.2-.45-.46-.43-.82a.9.9 0 0 1 .2-.49l.05-.02.04.02c.07.06.16.1.25.12a.75.75 0 0 0 .64-.1c.08-.06.1-.05.14.02.4.51.08 1.11-.35 1.28zm.73-3.7l-.21.3a.36.36 0 0 0-.08.12.23.23 0 0 0 .06.3.23.23 0 0 0 .3-.02l.17-.23.16-.22a1.14 1.14 0 0 1 .1.56.81.81 0 0 1-.13.38.08.08 0 0 1-.08.04h-.01a.9.9 0 0 0-.48.06l-.04.01a.12.12 0 0 1-.1-.06.78.78 0 0 0-.57-.3c-.12-.03-.12-.03-.12-.15-.02-.62.6-.93 1.03-.81zm.98 2.11l-.34-.1a1.52 1.52 0 0 0-.2-.05c-.1 0-.18.06-.22.14v.08c0 .1.05.18.13.21l.3.1.24.08c-.15.13-.32.22-.51.27a.8.8 0 0 1-.37 0 .12.12 0 0 1-.1-.1.95.95 0 0 0-.19-.4l-.03-.09c0-.03.01-.06.03-.08a.75.75 0 0 0 .11-.67c0-.04-.03-.08.05-.1.1-.05.2-.07.32-.07.45 0 .81.35.84.79zm-3.75.46l.4-.14.14-.05a.22.22 0 0 0-.12-.42h-.05l-.37.13-.13.04c.09-.56.57-.85.98-.76h.04a.3.3 0 0 1 .2.08c.03.05-.02.12-.03.18a.77.77 0 0 0 .13.59c.02 0 .04.04.04.07s-.02.05-.04.07a.96.96 0 0 0-.2.42c0 .05-.05.09-.1.1a.83.83 0 0 1-.54-.05.98.98 0 0 1-.31-.23zm.46-2.3l.25.35.1.1a.24.24 0 0 0 .3 0 .23.23 0 0 0 .05-.3l-.18-.25-.11-.16a.1.1 0 0 1 .02-.03.93.93 0 0 1 .82.3.1.1 0 0 1 .04.08l-.01.06a.95.95 0 0 0-.08.47.1.1 0 0 1-.08.1.7.7 0 0 0-.35.25.13.13 0 0 1-.17.05.87.87 0 0 0-.46-.06.1.1 0 0 1-.1-.07.84.84 0 0 1-.08-.7.65.65 0 0 1 .08-.2z"/><path fill="#e73629" d="M19.69 25.48l-.3-.02a.96.96 0 0 0-.7.32c-.04.04-.07.07-.12.01-.25-.28-.58-.35-.94-.33h-.04c.51-.4 1.57-.39 2.1.02zm-3.17 2.26a2.1 2.1 0 0 1 .65-2 .11.11 0 0 1-.02.12 1.07 1.07 0 0 0-.05.73c.02.08.05.15.1.22.02.02.02.05-.02.07-.37.15-.54.47-.63.83l-.02.02zm4.19 0c-.09-.4-.27-.71-.68-.87.23-.37.2-.74.04-1.12.5.35.85 1.29.64 1.99zm-4.02.47c.04-.01.05.02.07.04.27.23.57.35.93.27.06-.01.07.02.08.07a1 1 0 0 0 .06.24c.1.23.25.42.46.55.03 0 .06.03.08.06-.65 0-1.5-.62-1.68-1.23zm2.8.3c.43.11.77-.04 1.07-.3-.04.51-1.1 1.28-1.72 1.23.18-.1.34-.22.46-.37a1 1 0 0 0 .2-.56zm-.73.66v.31c0 .04 0 .08-.03.11a.13.13 0 0 1-.22 0 .29.29 0 0 1-.02-.13v-.61l.01-.1a.13.13 0 0 1 .25 0l.01.1v.32zm-1.43-3.76c.04 0 .08.02.1.06a17.92 17.92 0 0 1 .46.66c0 .05-.02.09-.05.1a.13.13 0 0 1-.19-.04l-.42-.56a.15.15 0 0 1-.03-.12c.01-.06.07-.1.13-.1zm2.72.14c0 .04-.02.07-.04.1l-.37.51c-.08.1-.15.13-.22.08s-.07-.13 0-.24l.36-.49a.3.3 0 0 1 .07-.08l.07-.02c.02 0 .05 0 .07.02.04.02.06.06.06.1v.02zm-2.84 2.1h.02c.05 0 .1.03.12.08v.05c0 .04-.02.08-.05.1a.35.35 0 0 1-.09.04l-.57.19a.32.32 0 0 1-.1.02h-.02a.13.13 0 0 1-.12-.09V28c0-.05.02-.09.06-.1a.23.23 0 0 1 .05-.03l.64-.21.06-.01zm2.83 0h.04l.67.22a.13.13 0 0 1 .1.17.14.14 0 0 1-.2.08L20 27.9a.14.14 0 0 1-.1-.16.13.13 0 0 1 .13-.1z"/><path fill="#f3efe7" d="M10.44 20v3.94c0 .18.02.16-.16.16H9.3c-.11 0-.11 0-.11-.1v-1.47l-.01-.95a1.4 1.4 0 0 0-.55-1.08c-.11-.08-.11-.08-.21 0a1.42 1.42 0 0 0-.57 1.12V24c0 .06-.03.07-.08.07H6.69a.08.08 0 0 1-.07-.1v-8c0-.14-.01-.12.13-.12h3.57c.13 0 .12 0 .12.12v4zm-1.57-1.87v-1.37a.9.9 0 0 0-.25-.62c-.09-.08-.1-.08-.18 0a.93.93 0 0 0-.25.64v2.72c0 .1 0 .1.1.1h.45c.1 0 .12.02.11-.12v-1.35zm-.98 0v-1.36a.9.9 0 0 0-.21-.59c-.13-.14-.13-.14-.26 0a.92.92 0 0 0-.2.62v2.73c-.01.06.02.08.07.08h.45s.15.02.15-.14v-1.33zm1.96 0v-1.37a.92.92 0 0 0-.23-.6c-.1-.1-.13-.1-.23.01a.92.92 0 0 0-.22.6v2.73c0 .1 0 .1.1.1h.47c.1 0 .1 0 .1-.1v-1.38zm.59-4.51v2.03a.9.9 0 0 0 0 .05c0 .07-.03.08-.08.08H6.78c-.19 0-.16.03-.16-.16v-4c0-.18-.02-.16.17-.16h3.5c.19 0 .17-.02.17.17v2zm-2.37.2V12.5a.83.83 0 0 0-.21-.56c-.18-.2-.19-.2-.38 0a.86.86 0 0 0-.21.57v2.62c0 .12 0 .13.12.13h.57c.12 0 .11 0 .11-.11v-1.32zm.92-.01v1.35c0 .1 0 .1.1.1h.59c.11 0 .11 0 .11-.1v-2.65c0-.26-.12-.5-.31-.66-.1-.07-.1-.07-.2 0a.84.84 0 0 0-.3.66v1.31zm-2.5 3.4a.32.32 0 0 1 .03.15v5.6c0 .19.02.17-.17.17h-2a.06.06 0 0 1-.06-.08v-3.3c0-.08.03-.14.07-.2l2.08-2.29a.63.63 0 0 1 .06-.06zm-1.56 4v.8c0 .11 0 .11.12.11h.84c.12 0 .12 0 .12-.13v-1.52c0-.33-.2-.61-.47-.75a.13.13 0 0 0-.07-.02l-.05.01c-.3.15-.48.4-.49.74v.76zm5.64-4.02l.07.1 2.03 2.24c.06.06.1.14.1.23V23c0 .13 0 .12-.14.12h-1.97c-.14 0-.14 0-.14-.13v-5.7c0-.04.01-.07.03-.1zm1.56 4.02v-.74c0-.35-.18-.59-.48-.75a.12.12 0 0 0-.11-.01c-.25.1-.49.43-.49.7v1.65a.08.08 0 0 0 .1.07h.88c.1 0 .1 0 .1-.1v-.82zM8.54 8.88h1.84c.03 0 .06.02.06.04v2.39c0 .03-.03.05-.05.05H6.76c-.16 0-.15.02-.15-.14V9c0-.14-.01-.13.14-.13h1.79zm-.47 1.5V9.9c0-.26-.13-.5-.32-.65-.02-.02-.05-.04-.08-.04s-.06.02-.08.04a.84.84 0 0 0-.32.62c-.02.35 0 .7 0 1.04v.01c0 .04.02.06.05.06h.71a.05.05 0 0 0 .06-.07v-.52zm.91-.01v.53c0 .04.03.07.07.07h.65c.08 0 .1-.03.1-.1V9.9a.9.9 0 0 0-.33-.66c-.02-.03-.05-.05-.09-.05s-.06.02-.08.04a.86.86 0 0 0-.32.64l-.01.5zm-2.3-1.58l1.18-1.17c.06-.06.1-.14.1-.24V5.5c0-.03.03-.06.06-.06h.39c.06 0 .07.03.07.09v.6c0 .04-.04.12.05.12.07 0 .04-.07.04-.11v-.62a.08.08 0 0 1 .1-.08h.3c.1 0 .12 0 .12.11v1.79c0 .11.05.21.13.28L10.3 8.7c.03.02.04.05.05.08H6.68zm1.86-6.97l.06.16a1 1 0 0 0 .26.43c.06.06.12.13.15.22A.51.51 0 0 1 9 3l-.12.34a.62.62 0 0 0 .15.64l.07.07c.15.13.17.3.14.5-.02.1-.1.19-.21.21a.13.13 0 0 0-.1.15v.39c0 .06-.02.09-.08.09H8.6a.06.06 0 0 1-.05-.06v-.46a.05.05 0 0 0-.05-.04.04.04 0 0 0-.05.04v.25c0 .08.04.18-.01.22s-.16.01-.24.02h-.06c-.06 0-.07-.02-.07-.08v-.42a.1.1 0 0 0-.08-.1.41.41 0 0 1-.15-.64L7.96 4a.63.63 0 0 0 .17-.69l-.1-.3a.5.5 0 0 1 .12-.55c.17-.17.3-.38.38-.62z"/><path fill="#f3efe7" d="M9.09 23.12v.89c0 .07-.02.1-.1.1h-.92c-.08 0-.1-.04-.1-.1v-1.78c0-.1 0-.1.1-.1H9c.1 0 .1 0 .1.1v.9zm1.45.12a.22.22 0 0 1 .13-.02h2.04c.04 0 .05.03.05.07v.75c0 .04-.02.06-.05.06h-2.1c-.06 0-.08-.03-.08-.09v-.77zm-6.25 0a.2.2 0 0 1 .12-.02h2.06c.03 0 .05.03.05.06v.77c0 .03-.02.06-.06.06H4.35a.06.06 0 0 1-.06-.07v-.79zm4.23-1.22h-.47c-.05 0-.08 0-.09-.07v-.18c0-.26.04-.5.14-.72.08-.17.2-.32.34-.45.02-.02.05-.03.08-.03s.05.01.06.03a1.35 1.35 0 0 1 .5 1.05v.03a2.43 2.43 0 0 1-.01.33l-.21.01h-.34zm2.1 4.61a.68.68 0 1 1-.68.69v-.01c0-.38.3-.68.68-.68z"/><path fill="#f3efe7" d="M11.13 27.92c.49.52.2 1.15-.28 1.38v-.39a1.55 1.55 0 0 0 0-.15.23.23 0 0 0-.21-.2c-.12 0-.2.07-.23.17a.47.47 0 0 0-.01.16v.4c-.56-.2-.69-.9-.28-1.36.34.25.68.25 1.03.01zm1.45-.22l-.37-.11a.53.53 0 0 0-.19-.05c-.1 0-.18.06-.22.15v.07c0 .1.05.17.13.2.07.04.16.06.24.09l.24.08a.87.87 0 0 1-.87.27.1.1 0 0 1-.08-.09 1 1 0 0 0-.2-.41.1.1 0 0 1-.04-.08.1.1 0 0 1 .03-.07.73.73 0 0 0 .1-.68c-.01-.08 0-.1.08-.12a.82.82 0 0 1 1.04.43c.05.09.09.19.1.3zm-3.33-1.87l.3.4c.03.05.08.1.13.11l.08.02c.07 0 .13-.04.17-.09a.23.23 0 0 0 .01-.27c-.04-.08-.1-.15-.15-.22l-.13-.18c.51-.13.96.25 1 .62l.02.1a.52.52 0 0 1 0 .2c-.03.07-.12.03-.18.04a.75.75 0 0 0-.5.3.13.13 0 0 1-.18.05.9.9 0 0 0-.44-.06h-.01a.1.1 0 0 1-.09-.05.84.84 0 0 1-.12-.36v-.07c0-.18.03-.35.1-.51zm-.46 2.33l.4-.14a.92.92 0 0 0 .13-.04.23.23 0 1 0-.17-.43l-.36.12-.1.03-.02-.06c0-.02 0-.04.02-.05a.9.9 0 0 1 .52-.61.85.85 0 0 1 .64.02c.02 0 .04.02.04.05l-.01.03a.8.8 0 0 0 .15.77c-.12.14-.21.32-.26.5 0 .05-.04.08-.08.08a.78.78 0 0 1-.35.02c-.22-.04-.4-.13-.56-.27zm2.82-2.6l-.25.35q-.2.27-.01.4c.12.09.26.04.39-.14l.24-.32c.14.32.16.62-.02.9a.1.1 0 0 1-.1.08h-.01l-.1-.01a.91.91 0 0 0-.36.07h-.04a.12.12 0 0 1-.1-.06.7.7 0 0 0-.37-.27c-.06 0-.1-.04-.1-.1v-.02l.01-.07a.95.95 0 0 0-.09-.4v-.04a.1.1 0 0 1 .03-.07c.09-.11.2-.2.34-.25a1.31 1.31 0 0 1 .55-.07z"/><path fill="#f3efe7" d="M12.04 25.73c.52.28.9 1.47.67 2.01-.04-.2-.12-.38-.23-.54a1 1 0 0 0-.45-.34c.23-.37.19-.74 0-1.13zm-2.85 0c-.17.4-.2.76.04 1.13-.42.16-.6.48-.69.9-.26-.5.14-1.74.64-2.02zm.38-.26c.46-.37 1.46-.44 2.13-.01-.43-.03-.8.03-1.07.38-.27-.33-.64-.43-1.05-.37zm2.99 2.72c-.17.54-.88 1.2-1.7 1.25.34-.23.6-.5.62-.94a1.03 1.03 0 0 0 .6-.01c.18-.08.34-.18.48-.31zm-2.16 1.24c-.71 0-1.48-.59-1.73-1.23l.08.05c.2.18.46.3.75.3l.21-.04c.03 0 .05 0 .05.05.03.41.29.66.64.88zm-.51-3.3a.13.13 0 0 1-.2.1.24.24 0 0 1-.08-.07l-.36-.5a.32.32 0 0 1-.04-.07.12.12 0 0 1 .04-.16.12.12 0 0 1 .16 0l.07.07.36.49a.2.2 0 0 1 .06.13zm1.47-.03a.2.2 0 0 1 .05-.1l.37-.51a.28.28 0 0 1 .06-.07.12.12 0 0 1 .07-.03.1.1 0 0 1 .07.03.12.12 0 0 1 .05.15.25.25 0 0 1-.04.06l-.4.55a.2.2 0 0 1-.05.04.12.12 0 0 1-.15 0 .13.13 0 0 1-.05-.13zm-2.82 2.02h-.02a.14.14 0 0 1-.12-.08.11.11 0 0 1 .06-.15 5.17 5.17 0 0 1 .76-.25c.05 0 .1.03.1.08a.13.13 0 0 1-.05.16.3.3 0 0 1-.07.02l-.6.2h-.07zm4.16 0c-.02 0-.06 0-.09-.02l-.57-.18a.1.1 0 0 1-.04-.02.14.14 0 0 1-.1-.16.13.13 0 0 1 .18-.09l.68.22a.13.13 0 1 1-.05.26zm-2.2 1.02v-.33l-.01-.02c0-.07.06-.13.13-.14.07 0 .13.07.13.14v.72c0 .08-.06.14-.13.14h-.01a.13.13 0 0 1-.12-.13v-.38z"/><path fill="#030303" d="M20.86 12.02v1.23c0 .14 0 .14-.15.14h-.5c-.11 0-.11 0-.11-.12v-2.45c0-.18.06-.35.17-.48.19-.22.22-.22.4 0 .11.12.18.28.18.45v.02l-.01 1.21zM20.2 12v1.2c0 .1 0 .1.1.11h.31c.12 0 .12 0 .12-.12v-2.36a.67.67 0 0 0-.18-.47c-.08-.08-.1-.08-.18 0a.68.68 0 0 0-.18.47V12zm-.63 4.2v-.9c0-.16.06-.3.16-.4.1-.1.15-.1.25.01.1.1.15.23.16.37v1.85c0 .04-.04.07-.08.07h-.4c-.08 0-.1-.04-.1-.1l.01-.92zm.08-.04v.7c0 .3 0 .3.3.28h.02a.08.08 0 0 0 .09-.1V15.3a.5.5 0 0 0-.12-.33c-.07-.08-.1-.08-.17 0a.5.5 0 0 0-.12.33v.86zm1.71.04v.89c0 .13 0 .13-.13.13h-.33s-.1 0-.11-.11v-1.8a.6.6 0 0 1 .2-.44c.08-.06.1-.06.18 0 .12.1.2.25.2.42v.91zm-.08-.04v-.85a.52.52 0 0 0-.11-.33c-.08-.1-.1-.1-.18 0a.5.5 0 0 0-.11.31v1.79c0 .04.03.06.06.06h.25c.1 0 .1 0 .1-.1l.01-.9zm1.67 6.24v-.56c0-.2.1-.37.25-.48.02-.02.05-.03.08-.03s.06 0 .08.03a.6.6 0 0 1 .26.49v1.14c0 .1 0 .11-.1.11h-.47c-.1 0-.1 0-.1-.1v-.6zm.61 0v-.53a.57.57 0 0 0-.2-.43.1.1 0 0 0-.15 0 .52.52 0 0 0-.2.38v1.15c0 .04.03.07.07.07h.42a.08.08 0 0 0 .08-.1l-.01-.53zm-6.25 0v-.56c0-.2.1-.37.25-.48a.12.12 0 0 1 .17 0c.15.1.24.27.25.46v1.2a.08.08 0 0 1-.1.08h-.5a.08.08 0 0 1-.07-.1c.02-.2 0-.4 0-.6zm.06-.03v.57a.08.08 0 0 0 .1.08h.38c.04 0 .07-.03.07-.08v-1.11a.5.5 0 0 0-.2-.4c-.02-.03-.04-.04-.07-.04s-.05.01-.07.03c-.12.1-.2.25-.2.41-.02.17-.02.34-.02.51zm4-4.1v.37c0 .03-.03.06-.07.06h-.56a.06.06 0 0 1-.07-.08v-.69c0-.04.03-.07.06-.07h.6c.04 0 .07.03.07.07v.34zm-.1.01v-.24l.01-.02a.06.06 0 0 0-.07-.05h-.4a.06.06 0 0 0-.06.07v.5c0 .04.03.07.06.07h.38c.04 0 .07-.03.07-.07v-.25zm-1.02 0v.32c0 .06-.02.1-.09.1h-.54a.06.06 0 0 1-.07-.06v-.71a.07.07 0 0 1 .08-.07h.54c.04 0 .07.03.07.06v.36zm-.09 0v-.25a.06.06 0 0 0-.08-.06h-.39a.06.06 0 0 0-.07.06v.51c0 .04.03.07.06.07h.4c.04 0 .07-.03.07-.06v-.27zm-11.31-.14v1.36c0 .14-.02.12-.12.12h-.45c-.1 0-.1 0-.1-.11v-2.75a.9.9 0 0 1 .24-.62c.08-.1.1-.1.18 0a.9.9 0 0 1 .24.61v1.37zm-.35-1.95l-.05.07a.88.88 0 0 0-.19.54v2.67c0 .03.03.05.05.05h.32s.1 0 .1-.12v-2.63c0-.23-.1-.43-.24-.58zm-.64 1.95v1.33c0 .17.01.15-.15.15h-.44c-.06 0-.1 0-.08-.07v-2.76a.9.9 0 0 1 .2-.58c.12-.15.13-.14.26 0 .13.15.2.35.2.57v1.38zm-.55 1.38h.35c.08 0 .1-.03.1-.1v-2.63c0-.2-.07-.37-.18-.52-.06-.07-.08-.08-.14 0a.86.86 0 0 0-.17.52v2.63c0 .03 0 .06.02.1zm2.52-1.39v1.38c0 .1 0 .1-.1.1h-.47c-.1 0-.1 0-.1-.1v-2.74c0-.22.08-.43.21-.59.1-.12.13-.12.23 0a.9.9 0 0 1 .22.6v1.35zm-.32-1.92a.17.17 0 0 0-.04.02.3.3 0 0 0-.04.04.9.9 0 0 0-.17.53v2.59c0 .12 0 .12.1.12h.25c.1 0 .1 0 .1-.11v-2.62a.8.8 0 0 0-.23-.58zm-1.45-2.37v1.31c0 .13 0 .12-.12.12H7.4c-.13 0-.13 0-.13-.13v-2.62c0-.21.08-.41.21-.56.2-.21.2-.2.37 0 .13.14.21.34.21.55v1.33zM8 13.78v-1.24a.8.8 0 0 0-.25-.58c-.08-.07-.09-.07-.17 0a.77.77 0 0 0-.25.57v2.52c0 .1 0 .1.1.1h.46c.1 0 .1 0 .1-.1v-1.27zm.99.03v-1.32a.8.8 0 0 1 .3-.64c.08-.08.1-.08.18 0 .19.15.31.4.31.66v2.64c0 .1 0 .1-.11.1h-.6c-.1 0-.1 0-.1-.1v-1.34zm.72-.03v-1.25c0-.24-.1-.45-.27-.59-.02-.02-.04-.03-.07-.03s-.05.01-.06.03a.8.8 0 0 0-.24.4 1.38 1.38 0 0 0-.03.4v2.3c0 .12 0 .12.1.12h.44c.13 0 .11 0 .11-.12v-1.26zm-4.79 7.43v-.77c.01-.34.2-.57.49-.73l.05-.01c.03 0 .05 0 .07.02.28.14.47.42.47.75V22c0 .13 0 .13-.13.13h-.84c-.12 0-.12 0-.12-.11v-.8zm.98-.04v-.74a.72.72 0 0 0-.37-.6l-.06-.02a.1.1 0 0 0-.05.02c-.21.13-.37.31-.38.57v1.56c0 .04.03.07.07.07h.74a.08.08 0 0 0 .07-.1l-.01-.76zm6.23.04v.8c0 .1 0 .11-.1.11h-.91a.08.08 0 0 1-.07-.1v-1.61c0-.27.24-.6.5-.7l.04-.02c.02 0 .04 0 .06.02.3.16.47.4.48.75v.75zm-.98-.06v.8a.07.07 0 0 0 .1.07h.69c.1 0 .1 0 .1-.1v-1.5c0-.26-.16-.45-.38-.6l-.06-.01c-.03 0-.04 0-.06.02a.72.72 0 0 0-.37.62v.7zM8.07 10.38v.53c0 .03-.02.06-.05.06h-.68a.06.06 0 0 1-.06-.06V9.86a.83.83 0 0 1 .32-.62c.03-.02.05-.04.09-.04s.06.02.08.04c.19.16.3.39.32.65v.5zm-.72-.06v.46c0 .06 0 .1.09.1h.51c.04 0 .07-.03.07-.07v-.9c0-.22-.1-.41-.25-.55-.07-.07-.09-.07-.16 0a.75.75 0 0 0-.25.55c-.02.13-.01.27-.01.4zm1.64.05v-.5a.85.85 0 0 1 .32-.63.1.1 0 0 1 .16 0c.2.16.32.4.33.67v.96c0 .08-.02.1-.1.1h-.65a.06.06 0 0 1-.07-.06v-.54zm.74-.04v-.44a.78.78 0 0 0-.27-.55.08.08 0 0 0-.12 0 .76.76 0 0 0-.27.57v.86c0 .07.01.1.09.1h.48c.08 0 .1-.03.1-.1v-.44z"/><path fill="#e73629" d="M20.2 11.99v-1.16a.7.7 0 0 1 .19-.47c.07-.09.1-.09.17 0 .11.12.18.28.18.46v2.36c0 .12 0 .12-.12.12h-.3s-.1 0-.1-.11v-.97l-.01-.24zm-.54 4.16v-.86a.5.5 0 0 1 .12-.33c.07-.08.1-.08.17 0 .07.1.11.2.11.33v1.76a.08.08 0 0 1-.1.09c-.3 0-.3.01-.3-.29v-.7zm1.63 0v.88c0 .1 0 .1-.1.1h-.24a.06.06 0 0 1-.06-.05v-1.79c0-.12.04-.23.11-.32s.1-.09.18 0c.07.09.11.2.11.33v.85zm2.28 6.23v.57c0 .05-.03.08-.07.08h-.41a.07.07 0 0 1-.07-.07V21.8c0-.15.08-.28.19-.37a.1.1 0 0 1 .15 0c.12.1.2.26.2.43v.53zm-6.2-.02v-.52a.6.6 0 0 1 .2-.41.09.09 0 0 1 .15 0c.12.1.2.23.2.4v1.11a.08.08 0 0 1-.1.08h-.38a.08.08 0 0 1-.07-.1l.01-.55zm3.92-4.08v.26c0 .03-.03.06-.06.06h-.41a.06.06 0 0 1-.06-.08v-.5c0-.04.02-.06.06-.06h.39c.04 0 .06.03.06.06v.26zm-1.1-.01v.26c0 .04-.03.07-.06.07h-.4a.06.06 0 0 1-.06-.07v-.51c0-.04.02-.07.06-.07h.39a.06.06 0 0 1 .07.09v.23z"/><path fill="#f3efe7" d="M8.52 16.18c.15.15.24.36.24.58v2.64c0 .11 0 .11-.1.11h-.31a.05.05 0 0 1-.05-.04v-2.69c0-.2.06-.39.17-.53a.41.41 0 0 1 .05-.08zm-1.19 3.33a.2.2 0 0 1-.02-.1V16.8c0-.2.07-.38.17-.52.06-.08.08-.08.14 0 .1.14.16.31.16.5v2.65c0 .07-.01.1-.1.1h-.35zm2.19-3.31a.8.8 0 0 1 .22.56v2.64c0 .1 0 .1-.1.11h-.25c-.1 0-.1 0-.1-.12v-2.6c0-.2.06-.38.16-.53a.45.45 0 0 1 .04-.04l.04-.02zM8 13.78v1.27c0 .1 0 .1-.1.1h-.47c-.1 0-.1 0-.1-.1v-2.54c0-.22.1-.42.25-.56.07-.07.09-.07.17 0a.8.8 0 0 1 .25.57v1.26zm1.7 0v1.26c0 .12.02.12-.1.12h-.44c-.11 0-.11 0-.11-.12v-2.31a1.52 1.52 0 0 1 .02-.4.78.78 0 0 1 .24-.39c.02-.02.04-.03.07-.03s.04.01.06.03c.16.14.26.35.26.58v1.26zm-3.8 7.39v.78a.08.08 0 0 1-.1.07h-.72a.07.07 0 0 1-.07-.07V20.4c0-.26.17-.44.39-.57l.05-.02a.1.1 0 0 1 .06.02.7.7 0 0 1 .38.6c.02.26 0 .5 0 .75zm5.24-.02v-.7c0-.27.16-.5.38-.62l.06-.02a.1.1 0 0 1 .06.02.7.7 0 0 1 .38.6v1.48c0 .1 0 .1-.1.1h-.72a.07.07 0 0 1-.07-.08v-.78zm-3.8-10.83V9.9c0-.22.1-.41.24-.55.08-.06.09-.06.16 0 .15.14.25.33.25.55v.9c0 .04-.03.07-.07.07h-.51c-.08 0-.08-.03-.08-.1v-.45zm2.37 0v.45c0 .07-.01.1-.1.1h-.47c-.08 0-.1-.03-.1-.1v-.86c0-.23.11-.43.27-.57a.08.08 0 0 1 .13 0c.16.13.26.33.27.55v.44z"/></svg>