<svg version="1.1" xmlns="http://www.w3.org/2000/svg" viewBox="0 0 27 32"><path fill="#f1e900" d="M.7 18.7c0 7.02 5.71 12.7 12.74 12.7s12.73-5.68 12.73-12.7V.6H.71v18.1z"/><path fill="#00f" d="M.7.6h25.47v15.88H.71V.59z"/><path fill="#da2724" d="M15.06 5.38a.55.55 0 1 0 .89.65l2.04-2.81a.55.55 0 0 0-.89-.65l-2.04 2.8z"/><path fill="#da2724" d="M13.92 6.53l1.29.93 2.15-2.96-1.29-.93zm-2.99-.51c.18.25.52.3.77.12.24-.17.3-.52.12-.76l-2.04-2.8a.55.55 0 1 0-.89.65l2.04 2.8z"/><path fill="#da2724" d="M11.67 7.46l1.3-.93-2.16-2.96-1.29.93zm-1.4 2.68a.55.55 0 0 0-.34-1.04l-3.3 1.07a.55.55 0 1 0 .34 1.04l3.3-1.07z"/><path fill="#131516" d="M10.54 9.48l.17-.06v.03l.01.04.01.03v.25l-.02.03v.03l-.02.03v.03l-.02.02-.02.03-.01.03-.02.02-.02.03-.02.02-.02.02-.02.03-.02.02-.03.02-.02.02-.03.01-.03.02-.02.02h-.03l-.03.02-.03.01-.06-.17.02-.01.02-.01.03-.01.02-.01.02-.01.01-.02.02-.01.02-.01.02-.02.01-.01.02-.02.01-.02.01-.02.02-.01v-.02l.02-.02V9.8l.01-.02.01-.02v-.02l.01-.03V9.7l.01-.02V9.5l-.02-.02zm0 0zm-.58-.3l-.06-.17h.03l.03-.02h.07l.03-.01h.13l.03.01h.03l.03.01.03.01.02.01.03.02h.03l.03.02.02.02.03.02.02.02.03.02.02.02.02.02.02.02.02.03.02.02.02.03.02.02.01.03.02.03v.03l.02.03-.17.06-.01-.02-.01-.02-.01-.02-.01-.03-.01-.01-.02-.02-.01-.02-.01-.02-.02-.01-.01-.02-.02-.01-.02-.02-.02-.01-.01-.01-.02-.01-.02-.01-.02-.01-.02-.01-.02-.01h-.02l-.03-.01h-.02l-.02-.01h-.18l-.03.02zm-3.31 1.08l-.06-.18L9.9 9.01l.06.18-3.31 1.07zm-.3.57l-.17.06v-.03l-.01-.04-.01-.03v-.25l.02-.03v-.03l.02-.03v-.03l.02-.02.02-.03.01-.03.02-.02.02-.03.02-.02.02-.03.02-.02.02-.02.03-.02.02-.02.03-.02.03-.01.02-.02.03-.01.03-.01.03-.01.06.17-.02.01-.02.01-.03.01-.02.01-.01.01-.02.02H6.5l-.02.02-.01.02-.02.01-.02.02v.02l-.02.01-.01.02-.02.02v.02l-.02.02v.02l-.01.02v.02l-.01.02v.03l-.01.02v.15l.01.03v.02zm0 0zm.58.3l.06.17h-.03l-.03.02h-.07l-.03.01h-.12l-.03-.01h-.03l-.03-.01-.03-.01-.03-.01-.03-.02H6.5l-.02-.02-.03-.02-.03-.02-.02-.02-.02-.01-.03-.03-.02-.02-.02-.02-.02-.02-.02-.03-.02-.03-.01-.02-.02-.03-.01-.03-.01-.03-.02-.03.18-.06v.02l.01.02.01.03.02.02v.02l.02.01.01.02.02.02.01.01.02.02.02.01.01.02.02.01.02.01.02.01.02.01.02.01.02.01.02.01h.02l.02.01h.02l.02.01h.18l.03-.02zm3.31-1.08l.06.18-3.31 1.07-.06-.18 3.31-1.07z"/><path fill="#da2724" d="M11.87 9.88l-.5-1.51L7.9 9.5l.49 1.5zm2.12 2.16c0-.3-.25-.55-.55-.55-.3 0-.55.25-.55.55v3.47a.55.55 0 1 0 1.1 0v-3.47z"/><path fill="#da2724" d="M14.23 10.44h-1.59v3.66h1.6zm2.72-1.34a.55.55 0 0 0-.34 1.04l3.3 1.07a.55.55 0 0 0 .34-1.04l-3.3-1.07z"/><path fill="#da2724" d="M15.5 8.37l-.49 1.51 3.48 1.13.5-1.51z"/><path fill="#f1e900" d="M6.63 6.33c.46 0 .87-.04 1.14-.34.27-.31.31-1.17.43-1.4.12-.22.54-.81 1.14-.62s.82.64 1.02 1.05c.19.41.28.8.48.9.17.08.38.08.62-.1.25-.17.3-.37.29-.56-.03-.22-.37-.43-.7-.73-.34-.32-.69-.67-.69-1.3s.69-.84.94-.88c.26-.05 1.08.18 1.46.02s.54-.54.68-.98c.14.43.3.81.68.98.38.16 1.2-.07 1.46-.02.25.04.94.25.94.88s-.35.98-.69 1.3c-.33.3-.67.5-.7.73-.02.19.04.38.3.55.23.19.44.18.61.1.2-.08.3-.48.48-.89.2-.4.43-.85 1.03-1.05s1 .4 1.13.62c.12.23.16 1.09.43 1.4.27.3.68.34 1.14.34-.37.26-.68.54-.72.94-.04.41.43 1.13.47 1.38.04.26.05.97-.55 1.17-.6.2-1.04-.03-1.44-.25-.4-.22-.7-.49-.92-.44-.19.04-.36.16-.44.45-.1.28-.04.47.1.61.14.17.54.13 1 .19.44.05.94.13 1.3.64.38.51-.05 1.08-.23 1.27-.18.18-.98.48-1.2.84-.2.35-.12.75.03 1.19-.37-.28-.72-.48-1.13-.4-.4.1-.93.77-1.16.88s-.92.34-1.29-.16c-.37-.51-.29-1-.2-1.45.08-.45.24-.82.13-1-.1-.17-.26-.3-.56-.28-.3-.02-.47.1-.56.27-.11.2.05.56.13 1 .1.45.17.95-.2 1.46s-1.05.27-1.28.16c-.24-.11-.77-.78-1.17-.88-.4-.08-.76.12-1.13.4.15-.44.24-.84.03-1.2-.21-.35-1.02-.65-1.2-.83-.17-.19-.6-.76-.24-1.27.37-.5.87-.59 1.32-.64.45-.06.85-.02 1-.19.13-.14.2-.33.09-.61-.08-.29-.25-.4-.44-.45-.21-.05-.52.22-.91.44-.4.22-.85.45-1.45.25s-.59-.91-.55-1.17.5-.96.47-1.38c-.04-.4-.35-.68-.72-.94z"/><path fill="#131516" d="M15.85 9.64c.1.5.42.87 1.27 1 .88.12 1.2.45 1.3.65.13.19.1.42-.22.73-.3.3-.8.56-1.12.62-.33.06-.65 0-.83-.25.18.26.13.57-.02.87-.16.3-.56.67-.94.87s-.62.16-.77-.01c-.15-.17-.36-.57-.22-1.44.14-.85-.1-1.27-.55-1.52a.62.62 0 0 0-.62 0c-.45.25-.7.67-.55 1.52.14.87-.07 1.27-.22 1.44s-.38.21-.77.01a2.5 2.5 0 0 1-.94-.87c-.16-.3-.2-.61-.02-.87-.18.26-.5.31-.83.25a2.46 2.46 0 0 1-1.12-.62c-.31-.3-.35-.54-.23-.74.12-.2.43-.51 1.3-.65.86-.12 1.19-.49 1.28-1a.6.6 0 0 0-.19-.58C10.47 8.71 10 8.6 9.23 9c-.8.4-1.24.33-1.45.24-.2-.09-.31-.3-.24-.73s.3-.92.54-1.16.52-.38.82-.29c-.3-.1-.45-.38-.5-.7a2.5 2.5 0 0 1 .25-1.27c.2-.38.4-.49.63-.44.22.05.63.25 1.02 1.04.39.77.84.97 1.34.9a.58.58 0 0 0 .5-.36c.22-.46.17-.95-.44-1.55-.64-.62-.7-1.07-.68-1.3.02-.22.19-.39.62-.45s.97 0 1.28.15c.3.15.52.38.52.7 0-.32.22-.55.52-.7.3-.14.85-.22 1.28-.15.43.06.6.23.62.46s-.04.67-.68 1.3c-.61.6-.66 1.08-.45 1.54.1.21.28.34.5.37.51.06.96-.14 1.35-.9.4-.8.8-1 1.02-1.05.22-.05.43.06.63.44.2.4.3.93.25 1.27-.05.33-.2.6-.5.7.3-.1.59.05.82.29s.47.73.54 1.16c.07.43-.04.64-.24.73-.22.09-.66.17-1.45-.24-.76-.4-1.24-.3-1.61.05a.6.6 0 0 0-.2.6zm-4.13-3.46a.97.97 0 0 1-.49.2c-.48.03-.75-.53-.93-.86-.13-.25-.6-.89-.94-1-.35-.1-.63.16-.78.43-.14.27-.34 1.24-.53 1.84-.2.59-.6 1.5-.65 1.79-.04.3.03.69.37.8.35.12 1.1-.12 1.36-.25.33-.16.88-.46 1.25-.15.09.08.2.21.28.46.04.12.07.41.04.52-.12.47-.74.56-1.1.62-.28.05-1.03.3-1.25.59-.2.3-.04.64.18.87.2.21 1.07.7 1.58 1.07.5.37 1.24 1.04 1.5 1.17.29.14.67.19.89-.1.22-.3.22-1.09.18-1.37-.06-.37-.17-.98.24-1.23.1-.07.26-.13.52-.13s.42.07.52.13c.4.25.3.86.24 1.23-.04.28-.04 1.07.18 1.37.22.29.6.24.88.1.27-.13 1-.8 1.51-1.17.51-.36 1.37-.86 1.58-1.07.22-.23.39-.57.18-.87-.22-.3-.97-.54-1.25-.6-.36-.05-.98-.14-1.1-.6a.94.94 0 0 1 .04-.54c.08-.24.2-.37.28-.45.37-.3.92-.01 1.26.15.25.13 1 .37 1.35.26s.41-.5.37-.8c-.04-.3-.45-1.21-.65-1.8-.19-.6-.39-1.57-.53-1.83-.15-.28-.43-.55-.78-.44-.34.11-.8.75-.94 1-.18.33-.45.89-.93.86a.95.95 0 0 1-.5-.2.95.95 0 0 1-.33-.41c-.18-.45.26-.88.52-1.15.2-.2.67-.84.66-1.2 0-.37-.34-.55-.65-.6-.3-.05-1.28.05-1.9.06-.64 0-1.62-.11-1.92-.06-.3.05-.65.23-.65.6 0 .36.46 1 .66 1.2.26.27.71.7.53 1.15a.91.91 0 0 1-.34.4z"/><path fill="#da2724" d="M13.44 6l-.57 1.76-1.85-.01 1.5 1.08-.58 1.76 1.5-1.09 1.5 1.1-.58-1.77 1.5-1.08h-1.85z"/><path fill="#da2724" d="M14.4 8.54a.95.95 0 1 1-1.91 0 .95.95 0 0 1 1.9 0z"/><path fill="#fff" d="M14.04 8.54a.12.12 0 0 1-.24 0 .12.12 0 0 1 .23 0zm-.96 0a.12.12 0 0 1-.24 0 .12.12 0 0 1 .24 0zm.62-.26a.1.1 0 0 0 .16 0 .12.12 0 0 0 0-.16.12.12 0 0 0-.16 0 .11.11 0 0 0 0 .16zm-.51.51c.04.05.04.12 0 .17a.12.12 0 0 1-.17 0 .12.12 0 0 1 0-.17.12.12 0 0 1 .17 0zm.25-.61a.12.12 0 0 0 0-.24.12.12 0 0 0-.12.12c0 .07.05.12.12.12zm0 .72c.07 0 .12.05.12.11 0 .07-.05.12-.12.12a.12.12 0 1 1 0-.24zm-.25-.62a.12.12 0 0 0 0-.17.12.12 0 0 0-.17 0 .12.12 0 0 0 0 .17c.04.05.12.05.17 0zm.51.51a.12.12 0 0 1 .16 0c.05.04.05.12 0 .17a.12.12 0 0 1-.16 0 .12.12 0 0 1 0-.17zm-.14-.25a.12.12 0 0 1-.24 0 .12.12 0 0 1 .24 0z"/><path fill="none" stroke="#000" stroke-width=".33" stroke-miterlimit="4" stroke-linecap="butt" stroke-linejoin="miter" d="M.7 18.7c0 7.02 5.71 12.7 12.74 12.7s12.73-5.68 12.73-12.7V.6H.71v18.1z"/><path fill="#da2724" d="M13.44 30.39c.74-.32 1.17-.97 1.29-2 .12-1.04-.69-2.75-.57-4.15.12-1.4 1.14-3.57 1.14-4.57 0-1.33-1.86-1.43-1.86-2.43 0 1-1.86 1.1-1.86 2.43 0 1 1.02 3.18 1.14 4.57.12 1.4-.69 3.1-.57 4.15.12 1.03.55 1.68 1.3 2z"/><path fill="#da2724" d="M15.59 29.39c.65-.05 1.12-.24 1.43-.57.31-.34.55-.98.41-1.41-.42-1.26-1.81-.83-2.52-1.6a1.43 1.43 0 0 1-.32-1.14c.13-1.22.68-2.16 2-2 .39.05.81.4 1 .72s.29.9.29 1.28c0 .39-.1.71-.29 1 .9-.31 1.65-.78 2.01-1.43.36-.65.52-1.73.29-2.43a2.85 2.85 0 0 0-1.76-1.6c-.7-.17-1.77.17-2.4.6a3.8 3.8 0 0 0-1.29 1.86c-.33.84-.85 2.25-.71 3.15.14.88 1.26 1.54 1.57 2.14.31.6.58 1.14.29 1.43zm-4.29 0c-.66-.05-1.13-.24-1.44-.57-.31-.34-.55-.98-.41-1.41.42-1.26 1.81-.83 2.52-1.6.26-.28.37-.68.33-1.14-.14-1.22-.69-2.16-2.01-2-.38.05-.81.4-1 .72-.2.3-.29.9-.3 1.28.01.39.1.71.3 1-.9-.31-1.64-.78-2-1.43a3.43 3.43 0 0 1-.3-2.43 2.84 2.84 0 0 1 1.76-1.6c.7-.17 1.77.17 2.4.6a3.8 3.8 0 0 1 1.29 1.86c.33.84.85 2.25.71 3.15-.14.88-1.26 1.54-1.57 2.14-.31.6-.57 1.14-.29 1.43z"/><path fill="#da2724" d="M11.78 24.53h3.32c.19 0 .34.15.34.34v.17c0 .2-.15.35-.34.35h-3.32a.34.34 0 0 1-.35-.35v-.17c0-.19.16-.34.35-.34z"/></svg>