<svg version="1.1" xmlns="http://www.w3.org/2000/svg" viewBox="0 0 31 32"><path fill="#da121a" stroke="#000" stroke-width=".44" stroke-miterlimit="4" stroke-linecap="butt" stroke-linejoin="miter" d="M.86 1.85a72.7 72.7 0 0 1 28.8 0c-6.72 9.13-2.4 12.96.48 8.64a40.6 40.6 0 0 1-6.24 17.77c-.47 0-.95-.48-1.43-1.44-1.44 1.44-3.36 1.92-5.76 2.88-.97.48-.97.96-1.45 1.92-.48-.96-.48-1.44-1.44-1.92-1.92-.96-3.84-1.44-5.28-2.88-.48.96-.96 1.44-1.44 1.44-3.73-5.72-5.76-9.6-6.72-17.77 2.88 4.33 7.2.49.48-8.63z"/><path fill="#fcdd09" d="M15.45 28.6c-.73.2-1.18-2.26-.78-3.77-1.57 1.91-2.94.94-2.45-1.09-.93-1.64-.2-2.35 2.1-1.05-2.35-2.34-1.22-3.63.85-2.75 2.1-.83 2.66.26 1.26 2.65.86-.5 2.8-1.9 2 1.09 1.17 2-1.6 2.95-2.81 1.18-.7 1.96.43 3.52-.17 3.74zm5.52-17.26c-.73.2-1.17-2.26-.78-3.77-1.57 1.91-2.93.94-2.45-1.09-.93-1.64-.2-2.35 2.1-1.05-2.35-2.34-1.21-3.63.86-2.75 2.1-.83 2.65.25 1.25 2.65.86-.5 2.8-1.9 2 1.08 1.17 2.01-1.6 2.96-2.81 1.2-.7 1.95.44 3.51-.17 3.73zm-11.39 0c-.72.2-1.17-2.26-.78-3.77-1.56 1.91-2.93.94-2.44-1.09-.94-1.64-.21-2.35 2.1-1.05-2.35-2.34-1.22-3.63.85-2.75 2.1-.83 2.65.25 1.26 2.65.85-.5 2.8-1.9 2 1.08 1.16 2.01-1.6 2.96-2.82 1.2-.7 1.95.44 3.51-.17 3.73z"/><path fill="#fff" d="M12.58 11.46h5.37v4.31c0 1.73-1.24 2.79-2.69 2.79s-2.68-1.06-2.68-2.78z"/></svg>