<svg version="1.1" xmlns="http://www.w3.org/2000/svg" viewBox="0 0 27 32"><path fill="#000" d="M14.65 32h-2.8a11.4 11.4 0 0 1-4.82-1.44Q1.69 27.66.2 21.7c-.13-.5-.08-1.03-.2-1.53V.43C0 .07.06 0 .42 0Q13.3.02 26.18 0c.36 0 .43.07.43.43q-.02 9.86 0 19.73a11.95 11.95 0 0 1-1.43 4.79q-2.83 5.22-8.64 6.8c-.62.16-1.26.14-1.88.25z"/><path fill="#fefefe" d="M13.3 11.44l12.26-.01c.42 0 .51.1.5.5-.05 2.62.1 5.23-.08 7.84a12.76 12.76 0 0 1-10.03 11.4A12.75 12.75 0 0 1 .66 20.28c-.18-1.32-.1-2.66-.1-3.99 0-1.47.01-2.94-.01-4.41 0-.38.1-.45.46-.45h12.3z"/><path fill="#ef000b" d="M13.25 11.11l-12.15.01c-.46 0-.56-.13-.56-.57q.03-4.73 0-9.46c0-.42.1-.55.54-.55q12.22.02 24.45 0c.45 0 .54.14.54.56q-.03 4.75 0 9.5c0 .4-.1.52-.52.52h-12.3z"/><path fill="#010101" d="M18.21 14.04c-.31.57-.1 1.04.24 1.48s.57.91.47 1.48c-.07.47-.29.83-.76.95a.89.89 0 0 1-1.03-.41c-.27-.42-.3-.88.04-1.25.28-.3.36-.54.25-.98-.15-.56.29-.97.8-1.27zm-9.16-.07c-.42.66-.2 1.11.12 1.55s.56.88.5 1.43c-.07.52-.39.94-.83 1.02a.92.92 0 0 1-1.01-.46c-.26-.47-.24-.92.12-1.3.23-.24.36-.42.19-.79-.2-.45.14-1 .9-1.45zm-4.79.1c-.28.65.05 1.13.4 1.62.32.43.47.91.34 1.46-.1.41-.35.72-.78.8a.9.9 0 0 1-.99-.4c-.25-.38-.33-.8-.04-1.16s.43-.65.3-1.17c-.14-.47.27-.88.76-1.16zm5.22 10.98c-.4.79.02 1.25.36 1.75.3.44.45.93.26 1.47-.13.38-.35.66-.78.73-.41.05-.76-.08-.97-.44s-.3-.77-.03-1.12.45-.67.33-1.18c-.12-.48.24-.88.83-1.24zm4.2-11.11c-.46.73-.14 1.2.2 1.7.34.45.55.95.37 1.54-.13.42-.36.71-.8.78a.9.9 0 0 1-.97-.44c-.24-.38-.31-.81 0-1.15s.39-.65.3-1.13c-.1-.55.3-.94.9-1.3zm-7.05 5.62c-.34.6-.09 1.05.24 1.5.35.49.62 1 .43 1.63-.12.41-.33.72-.79.8a.91.91 0 0 1-1-.47c-.23-.43-.23-.85.1-1.21.26-.29.34-.52.24-.94-.14-.61.28-1.01.8-1.3zm4.63.06c-.32.63-.02 1.09.31 1.54.31.41.49.87.39 1.4-.08.45-.3.8-.74.9-.42.11-.8 0-1.04-.39-.27-.41-.32-.87.03-1.24.27-.3.42-.54.24-.98-.18-.4.24-.98.8-1.23zm9.28-.06c-.34.58-.1 1.04.23 1.49.36.48.62 1 .44 1.63-.12.42-.34.73-.79.8a.9.9 0 0 1-.98-.43c-.25-.4-.3-.83.02-1.2.28-.3.39-.56.28-1.01-.15-.59.29-.98.8-1.27zm-4.58-.03c-.4.65-.12 1.13.23 1.6.37.5.58 1.03.35 1.65s-.77.88-1.31.64-.81-.96-.48-1.44c.28-.4.49-.73.33-1.27-.12-.4.27-.84.87-1.19zm6.88-5.5c-.33.61-.07 1.08.27 1.54.36.48.6 1 .4 1.63-.14.43-.4.73-.86.77h-.12a.9.9 0 0 1-.81-.5c-.22-.4-.24-.83.08-1.16.28-.3.36-.54.25-.98-.15-.58.28-.97.8-1.29zm-5.17 11.12c-.27.58-.02 1.02.3 1.45.35.47.6.97.43 1.58-.1.41-.3.74-.77.82-.4.07-.76-.03-1-.4-.25-.39-.32-.82 0-1.2.27-.32.42-.57.28-1.07s.24-.92.74-1.19z"/><path fill="#fee100" d="M21.52 5.5c.23.18.24.4.1.64-.12.22-.2.45-.01.68a.43.43 0 0 0 .47.13c.27-.07.3-.3.28-.53 0-.08 0-.18.13-.17s.1.1.09.19c-.04.26.04.45.3.53a.44.44 0 0 0 .48-.12c.18-.2.12-.42 0-.63-.1-.18-.15-.38-.03-.58s.31-.2.5-.17c.22.05.11.21.09.34l-.1.77c-.1.71-.1.71-.87.71l-4 .01c-.33 0-.46-.1-.46-.43s-.09-.69-.1-1.03c-.03-.17-.09-.37.2-.38.24 0 .4.09.44.34a.66.66 0 0 1-.1.44c-.13.2-.16.43.03.62a.44.44 0 0 0 .48.12c.25-.09.3-.3.28-.55V6.4c0-.06.05-.11.1-.12.15.03.1.15.1.24 0 .22.06.38.27.45a.44.44 0 0 0 .48-.1.45.45 0 0 0 .07-.54c-.12-.27-.28-.53.01-.8.25-.16.5-.18.74 0zm-15.7.01c.19.18.24.38.11.61s-.22.49 0 .72a.43.43 0 0 0 .47.1c.3-.1.27-.36.27-.6a.22.22 0 0 1 .05-.08c.21 0 .15.15.15.25v.05c0 .18.12.34.29.4a.43.43 0 0 0 .48-.12.43.43 0 0 0 .07-.53c-.08-.16-.18-.33-.14-.53.05-.25.2-.35.44-.34.29.02.22.21.21.38l-.09.66c-.1.8-.1.8-.9.8-1.29 0-2.57-.02-3.85 0-.39.01-.6-.05-.59-.52.01-.3-.07-.61-.1-.92-.02-.17-.17-.4.19-.4.27 0 .42.1.46.37a.72.72 0 0 1-.13.45c-.1.2-.12.4.04.57a.44.44 0 0 0 .48.13c.23-.07.33-.24.31-.48 0-.09-.09-.23.09-.24s.12.13.12.22c-.02.23.04.42.28.48a.43.43 0 0 0 .48-.13c.16-.2.13-.4.03-.59-.14-.27-.23-.52.06-.73.24-.19.49-.17.73 0z"/><path fill="#fee200" d="M13.71 5.53c.17.21.16.43.03.67-.13.2-.18.41.01.62a.44.44 0 0 0 .47.13c.26-.07.33-.27.3-.52-.01-.09-.04-.19.1-.19s.1.1.1.18c-.01.24.03.45.3.53l.13.02c.13 0 .26-.07.33-.17.16-.2.1-.41 0-.63-.1-.2-.15-.39-.02-.6.12-.18.28-.18.46-.15.24.03.16.23.14.36-.05.38-.13.75-.15 1.14-.02.28-.16.33-.4.32h-4.46c-.3 0-.4-.1-.4-.38-.03-.35-.1-.69-.14-1.03-.02-.14-.13-.32.08-.4a.42.42 0 0 1 .4.03.42.42 0 0 1 .18.45c-.04.14-.13.28-.17.43-.07.29.01.53.33.58.32.05.5-.09.51-.43 0-.1-.1-.28.1-.28s.09.19.1.28c0 .22.1.37.31.43l.13.02a.45.45 0 0 0 .4-.68c-.14-.26-.23-.5-.02-.77a.62.62 0 0 1 .83 0z"/><path fill="#fee300" d="M13.33 5c-.13 0-.23 0-.26-.17-.06-.31-.28-.3-.52-.23-.11.04-.2.25-.33.03-.1-.18-.22-.36-.08-.57.09-.15.23-.24.4-.18.43.18.64.22.3-.34-.22-.37.25-.46.37-.7.01-.05.05-.07.1-.07s.08.02.1.06c.11.25.58.34.36.71-.35.57-.12.51.3.33.17-.06.31.04.4.18.14.2.02.4-.08.57-.13.22-.22 0-.33-.03-.23-.08-.46-.1-.52.22 0 .1-.08.17-.18.17h-.02zm7.81-2.31c.2.24.56.52.5.62-.24.59-.14.72.5.62.24-.04.27.31.19.54s-.18.34-.45.14c-.16-.12-.42-.1-.48.2a.2.2 0 0 1-.24.2c-.15 0-.25-.02-.29-.21-.05-.3-.29-.27-.48-.19-.14.05-.23.23-.37 0-.1-.18-.16-.36-.06-.54a.37.37 0 0 1 .45-.17c.11.03.21.21.36.06.18-.19-.05-.27-.1-.4-.18-.46.35-.52.44-.87zm-15.68.03c.2.35.78.52.3 1.08-.1.15.15.24.34.13a.35.35 0 0 1 .5.1c.14.18.08.37-.02.54-.07.13-.1.23-.3.1-.24-.17-.44-.2-.58.19-.08.26-.36.25-.46-.02-.1-.31-.29-.31-.51-.22-.12.05-.21.22-.34.02s-.17-.38-.06-.58a.36.36 0 0 1 .4-.17c.13.02.25.25.4.07s-.06-.27-.13-.39c-.09-.16-.03-.29.09-.41l.4-.42z"/><path fill="#fdd301" d="M13.34 7.8h2.13c.14 0 .4-.1.4.17 0 .3-.26.22-.43.22h-4.25c-.17 0-.44.09-.45-.2-.02-.33.27-.18.42-.2h2.17z"/><path fill="#fdd401" d="M21.18 7.8h2.17c.14 0 .35-.08.36.17s-.19.21-.34.21h-4.44c-.15 0-.34.03-.32-.21s.22-.17.35-.17h2.22zm-15.66 0h2.17c.14 0 .34-.05.32.2-.02.22-.18.19-.3.19H3.25c-.15 0-.35.04-.35-.2-.01-.25.2-.18.33-.19h2.28z"/><path fill="#fdd701" d="M21.2 8.63h2.08c.14 0 .38-.1.4.18 0 .32-.26.22-.42.22H19.1c-.17 0-.44.1-.45-.2 0-.35.3-.19.47-.2h2.07zm-15.74.4H3.28c-.15 0-.33.06-.35-.19s.18-.2.32-.2h4.41c.13 0 .3-.04.3.17s-.17.23-.33.23H5.45z"/><path fill="#fdd901" d="M13.25 9.03h-2.07c-.16 0-.38.07-.37-.21 0-.26.2-.19.35-.19h4.3c.13 0 .34-.07.35.19 0 .28-.22.2-.38.2h-2.17z"/><path fill="#fee400" d="M5.46 7.4h2.38c.11 0 .28-.03.29.12s-.16.15-.28.15H3.09c-.12 0-.32.05-.31-.15 0-.14.19-.11.3-.11h2.38zm18.4.13c-.15.2-.34.13-.5.14h-4.4a1.66 1.66 0 0 1-.36-.02.47.47 0 0 1-.13-.12l.15-.11a.58.58 0 0 1 .21-.01h4.65c.13 0 .28-.04.38.14z"/><path fill="#fee500" d="M15.98 7.6h-5.36v-.14h5.36v.13z"/><path fill="#fedd00" d="M24.1 2.95a11.25 11.25 0 0 1-.07 1.87c-.01.07-.03.18-.2.18-.12 0-.23 0-.25-.17-.03-.2-.15-.3-.37-.23-.09.03-.16.24-.27.04a.43.43 0 0 1-.01-.49c.08-.11.19-.2.34-.13.44.24.47.05.36-.32-.11-.36.14-.53.47-.75zM2.52 2.94c.33.25.6.43.43.87-.08.23-.03.44.3.25.15-.08.29-.08.41.06s.1.28.06.43a.31.31 0 0 1-.04.1c-.42-.18-.62.2-.9.34-.15.06-.17-.11-.2-.24a11.13 11.13 0 0 1-.06-1.84z"/><path fill="#fedf00" d="M16.2 3.02v1.72c0 .13-.02.25-.18.25-.14 0-.28.03-.32-.17-.02-.22-.15-.29-.36-.21-.08.03-.18.23-.27.01-.06-.14-.11-.29-.01-.44.08-.12.19-.24.33-.16.52.28.44-.06.4-.37s.11-.51.42-.63zm-5.79 0c.38.16.47.4.41.73-.06.29-.05.52.34.3.15-.1.26-.04.36.08.12.16.09.32.02.49-.13.24-.22 0-.31-.03-.2-.03-.32.03-.34.23s-.16.18-.3.17c-.16 0-.2-.11-.2-.24V3.02z"/><path fill="#fee100" d="M18.19 2.96c.38.2.6.4.5.8-.1.33-.05.48.32.29a.26.26 0 0 1 .36.08.44.44 0 0 1 .03.5c-.1.21-.22-.01-.33-.04a.23.23 0 0 0-.32.18c-.03.2-.15.26-.32.22-.2-.04-.13-.21-.14-.34l-.1-1.7z"/><path fill="#fee000" d="M8.43 2.95l-.1 1.8c-.01.1 0 .24-.18.25-.11 0-.23.02-.27-.15-.04-.2-.13-.33-.36-.25-.1.04-.2.21-.3.04a.45.45 0 0 1 .02-.5c.1-.12.2-.18.36-.1.43.22.43.02.35-.32-.1-.37.13-.57.5-.77z"/><path fill="#fee500" d="M23.75 8.5h-5.17v-.1h5.16zm-15.72 0H2.86v-.1h5.17v.1zm2.71-.13h5.12v.1h-5.12zm.02.87h5.1v.1h-5.1z"/><path fill="#fee400" d="M7.97 9.33H2.9v-.08h5.07v.08zm15.74 0h-5.07v-.1h5.07z"/><path fill="#fdd401" d="M12.89 5.32a.52.52 0 0 1 .84 0 .91.91 0 0 1-.84 0z"/><path fill="#fee300" d="M5 5.3c.3-.27.7-.26.83.03a.86.86 0 0 1-.84-.03zm15.78.03c.12-.29.51-.3.83-.03a.87.87 0 0 1-.84.03z"/><path fill="#f33a08" d="M12.89 5.32h.83l-.01.2h-.82z"/><path fill="#f33b08" d="M20.78 5.33l.83-.03-.1.2-.73.02zM5 5.3l.83.03v.18h-.74z"/><path fill="#fdd001" d="M2.48 5.25c.4-.14.4-.14.78 0-.27.08-.47.07-.78 0z"/><path fill="#fdd101" d="M24.14 5.24a1.17 1.17 0 0 1-.77.01c.24-.2.44-.15.77-.01z"/><path fill="#fbbb02" d="M14.85 5.59c0 .13-.13.17-.2.19-.15.03-.17-.11-.16-.2a.17.17 0 0 1 .2-.17c.1.01.16.08.16.17z"/><path fill="#faae03" d="M18.98 5.22a.83.83 0 0 1-.73.02c.25-.2.44-.16.73-.02z"/><path fill="#fdd301" d="M16.28 5.2a.82.82 0 0 1-.71.05c.2-.21.4-.14.7-.06zm-5.13 0c-.33.15-.52.1-.78.1.24-.26.44-.18.78-.1z"/><path fill="#faae03" d="M8.42 5.24c-.32.08-.51.12-.74-.01.22-.17.42-.16.74.01z"/><path fill="#fdd501" d="M22.69 5.55v.03c0 .08-.06.14-.13.16h-.06a.16.16 0 0 1-.15-.15v-.02c0-.08.07-.15.15-.15h.03c.08 0 .14.05.16.13z"/><path fill="#fcc702" d="M12.12 5.6a.16.16 0 0 1-.19.12c-.1 0-.17-.04-.16-.14 0-.1.08-.17.17-.17.1 0 .18.08.18.18v.01z"/><path fill="#fdd501" d="M4.1 5.42c.09 0 .16.07.16.15v.01c0 .01 0 0 0 0a.16.16 0 0 1-.21.16.15.15 0 0 1-.13-.19.15.15 0 0 1 .18-.13z"/></svg>