<svg version="1.1" xmlns="http://www.w3.org/2000/svg" viewBox="0 0 27 32"><path fill="#fff" d="M13.45.13L.13.17v18.4c0 7.37 5.94 13.3 13.31 13.3V.12z"/><path fill="#000" d="M13.51 31.93h-.06c-3.59 0-6.95-1.38-9.47-3.9S.07 22.15.07 18.57V.1L13.5.07v31.86zM.21.24v18.33c0 7.27 5.9 13.2 13.17 13.23V.2L.2.24z"/><path fill="#fcdd09" d="M13.45.13l13.3.04v18.4c0 7.37-5.93 13.3-13.3 13.3V.12z"/><path fill="#000" d="M13.45 31.93h-.07V.07L26.82.1v18.46a13.3 13.3 0 0 1-13.38 13.36zM13.5.2v31.6a13.25 13.25 0 0 0 13.2-13.23V.24L13.5.2z"/><path fill="#000" d="M5.31.17v11.66H.14v3.03H5.3V29.1c1.02.78 2.15 1.42 3.36 1.88V14.86h4.78v-3.03H8.66V.18H5.31zm8.14 5.14h13.44v5.31H13.44v-5.3zm0 10.62v5.31h13.04c.17-.86.27-1.76.27-2.67v-2.64H13.44zm0 10.69v5.25c4.33 0 8.17-2.05 10.6-5.25h-10.6z"/><path fill="#000" d="M13.45 32c-3.6 0-6.99-1.4-9.52-3.93A13.35 13.35 0 0 1 0 18.57V.04h12.38c.7-.05 1.44-.05 2.14 0h12.37v18.53c0 3.6-1.4 6.98-3.93 9.5A13.34 13.34 0 0 1 13.44 32zM.27.3v18.27a13.18 13.18 0 0 0 26.35 0V.3H14.5c-.69-.05-1.42-.05-2.11 0H.27z"/></svg>