<svg version="1.1" xmlns="http://www.w3.org/2000/svg" viewBox="0 0 28 32"><path fill="#da121a" stroke="#000" stroke-width=".39" stroke-miterlimit="4" stroke-linecap="butt" stroke-linejoin="miter" d="M.39.38V18.9c.06 5.39 5.56 12.71 13.8 12.71 8.17 0 13.85-6.81 13.79-12.7V.37H.39z"/><path fill="#fff" stroke="#000" stroke-width=".3" stroke-miterlimit="4" stroke-linecap="butt" stroke-linejoin="miter" d="M7.38 10.98c.08.01.1.29.11.62 0 .3-.13 1.05-.09 1.1.05.06.27.04.45.02.22-.04 1.98-.77 2.18-.84.2-.06.62 0 .63.01.03.05-.08.5-.02.58.04.05.2.28.29.28.07 0 .03-2.12-.02-2.13s-.22.17-.2.37c.03.18-.13.25-.1.42.01.04-.18.13-.39.18-.4.1-.56.16-1.04.27-.47.1-1.2.4-1.21.37-.03-.03.5-1.27.62-1.58.1-.27.53-.58.58-.64.06-.07.03-.3-.03-.32-.09-.02-1.42.78-1.53.85-.1.07-.32.43-.23.44z"/><path fill="#fff" stroke="#000" stroke-width=".3" stroke-miterlimit="4" stroke-linecap="round" stroke-linejoin="round" d="M4.63 13.35c-.31-.48-.53-2.5-.5-3.12s.55-1.8 1.24-2.36C6.04 7.33 8 6.8 8.27 6.55c.29-.26.55-.48.54-.83 0-.38-.4-1.2-.45-1.33-.05-.11-.05-.45-.14-.65-.1-.2-.46-.5-.6-.85.1.07.6.2.69.15.09-.05.4-.33.6-.37.2-.05.56-.04.78.11 0 .2.06.4.1.5-.07.2-.46.42-.55.54-.11.15-.02.96 0 1.27.02.31.71 1.56.81 1.94.1.37.1.83.05 1.22-.06.4-.44.87-.61 1.17a3.2 3.2 0 0 1-.67.71c-.23.2-.89.33-1.03.51-.13.18-.45.67-.74 1-.29.3-.63.52-.88.83v4.67l-.22-.04-.05-2.71s-.19-1.07-.2-2.12c.2-.52.76-1.1.8-1.27-.45.24-.66.51-.9.88-.1-.05-.01-.57-.06-.52-.07.07-.26.63-.36.88-.11 0-.03-.5-.07-.45-.03.04-.11.53-.18.77-.14-.03-.2-.59-.23-.54-.08.15-.04.95-.07 1.33z"/><path fill="#fff" stroke="#000" stroke-width=".3" stroke-miterlimit="4" stroke-linecap="butt" stroke-linejoin="miter" d="M9.7 2.79c.38-.03.72-.02 1.1.09-.7.1-.65.3-1.03.4-.04-.17-.09-.32-.07-.5z"/><path fill="#fff" stroke="#000" stroke-width=".3" stroke-miterlimit="4" stroke-linecap="round" stroke-linejoin="round" d="M9.11 3.18c-.05-.12-.03-.24.16-.23.03.02-.08.04-.12.1s0 .17-.04.14m-1.07 8.09l.05-.13m-.15-.2l.14-.13m.13.08l.1-.15m-1.73.77l.07-.1m.26-.36c.02-.02.02-.05.07-.08l.13-.02m-.11.35l.1-.07c.06-.05 0-.03.1-.12M9.24 8.8l-.02.12m.37-.55l-.02.12m.11-.76c-.07.05-.1.06-.09.16m-.23.3c0 .13-.03.18-.13.23m-.16.13l-.06.18m-.04.57h-.14m-.3.36s0 .02-.15.16M7 9.38c-.37.45-.62.85-1.19 1.03M8.1 7.75c.14.1.33.3.38.59.2 1.13-1.07 1.88-1.83 2.05-.27.08-.62.02-.83.03m.83-1.13c-.48.4-.8.78-1.26.83m.79-1.04a4.9 4.9 0 0 1-1.08.77z"/><path fill="#fff" stroke="#000" stroke-width=".3" stroke-miterlimit="4" stroke-linecap="butt" stroke-linejoin="miter" d="M21.5 11.06c-.09.02-.11.3-.12.62 0 .31.14 1.06.1 1.1-.06.06-.27.05-.46.02-.21-.03-1.98-.77-2.18-.83a1.6 1.6 0 0 0-.63 0c-.03.05.08.5.02.58-.04.06-.2.28-.28.28-.07 0-.04-2.12.01-2.13s.23.18.2.37c-.02.19.14.25.1.43 0 .04.19.12.4.17.4.1.56.17 1.03.27.47.11 1.2.4 1.22.38.02-.04-.5-1.28-.62-1.58-.1-.28-.53-.58-.59-.65-.06-.06-.03-.3.04-.31.08-.02 1.41.77 1.52.85.1.06.32.42.24.43z"/><path fill="#fff" stroke="#000" stroke-width=".3" stroke-miterlimit="4" stroke-linecap="round" stroke-linejoin="round" d="M24.24 13.43c.32-.47.54-2.5.5-3.11s-.55-1.8-1.24-2.36c-.66-.54-2.62-1.08-2.9-1.32-.28-.26-.54-.49-.54-.84.01-.38.4-1.2.46-1.33.05-.1.05-.44.13-.64.1-.22.46-.51.6-.85-.09.06-.6.19-.68.14-.1-.05-.41-.33-.6-.37-.21-.04-.57-.04-.79.12 0 .2-.06.4-.09.5.07.2.45.41.55.54.1.14.02.95 0 1.26-.03.32-.72 1.56-.82 1.94-.1.37-.1.83-.04 1.22.05.4.44.87.6 1.17.15.25.43.51.68.72.23.2.88.32 1.02.5.13.18.45.67.75 1 .28.31.63.52.88.83-.02 1.06-.01 4.67-.01 4.67l.22-.04.06-2.7s.18-1.08.2-2.13c-.2-.51-.76-1.1-.81-1.26.46.23.66.5.9.88.1-.05.02-.57.07-.52.07.07.25.62.36.88.1 0 .02-.51.07-.46.03.04.1.53.18.77.14-.03.2-.59.22-.54.09.16.04.95.07 1.33z"/><path fill="#fff" stroke="#000" stroke-width=".3" stroke-miterlimit="4" stroke-linecap="butt" stroke-linejoin="miter" d="M19.18 2.87a3.12 3.12 0 0 0-1.11.1c.7.1.65.29 1.03.39.04-.17.09-.31.08-.49z"/><path fill="#fff" stroke="#000" stroke-width=".3" stroke-miterlimit="4" stroke-linecap="round" stroke-linejoin="round" d="M19.76 3.27c.06-.13.03-.25-.15-.23-.04.01.07.03.11.1s0 .16.04.13m1.08 8.1l-.06-.13m.15-.2l-.13-.14m-.13.09l-.11-.16m1.74.77l-.07-.1m-.27-.36c-.01-.02-.02-.05-.07-.07l-.13-.03m.11.35l-.1-.07c-.05-.05 0-.03-.1-.12m-2.04-2.32l.03.13m-.38-.55l.02.1m-.1-.75c.07.05.09.07.08.16m.23.31c0 .12.03.18.14.22m.15.13l.06.19m.04.56h.15m.3.36s0 .02.14.16m1.38-.44c.38.46.62.86 1.2 1.03m-2.29-2.66a.97.97 0 0 0-.38.6c-.2 1.13 1.08 1.87 1.83 2.05.28.07.63.01.83.02m-.83-1.13c.48.4.8.79 1.26.83m-.79-1.03c.3.27.67.55 1.09.76z"/><path fill="#fcdd09" stroke="#000" stroke-width=".2" stroke-miterlimit="4" stroke-linecap="butt" stroke-linejoin="miter" d="M10.04 27.75h8.78l.02-8.88h-8.8z"/><path fill="#000" d="M3.56 16.5v-.76l.36-.67.99.66v1.2l.64.5.35-.9.87.64v1.28l.69.4.24-.98.98.76.06 1.18.6.4.15-.93.53.4.02 1.48z"/><path fill="#fcdd09" stroke="#000" stroke-width=".3" stroke-miterlimit="4" stroke-linecap="butt" stroke-linejoin="miter" d="M3.55 23.04l6.5 4.64V21.2l-6.5-4.68z"/><path fill="none" stroke="#000" stroke-width=".3" stroke-miterlimit="4" stroke-linecap="butt" stroke-linejoin="miter" d="M8.55 21.31v-1.18m0 3.51V22.5m0 3.4v-1.07m-1.87-4.94v-1.15m0 3.48v-1.14m0 3.39V23.4m-1.92-4.96v-1.06m0 3.39v-1.15m0 3.4v-1.07M9.26 23v-1.14m0 3.47v-1.14m-1.8-2.53V20.5m0 3.48v-1.15m-1.9-2.62v-1.14m0 3.47V21.4m3.7 5.76v-.73m-1.8-.54v-.81m-1.9-.62v-.82m-2-1.51l6.5 4.89m-6.5-5.97l6.5 4.88m-6.5-6.05l6.5 4.89m-6.5-6.05l6.5 4.88m-6.5-6.05l6.5 4.89"/><path fill="#000" d="M25.36 16.5v-.76l-.36-.67-.98.66v1.2l-.65.5-.35-.9-.87.64v1.28l-.68.4-.25-.98-.98.76v1.21l-.66.37-.15-.93-.53.4-.02 1.48 6.48-4.66z"/><path fill="#fcdd09" stroke="#000" stroke-width=".3" stroke-miterlimit="4" stroke-linecap="butt" stroke-linejoin="miter" d="M25.37 23.04l-6.48 4.64-.02-6.48 6.5-4.68z"/><path fill="none" stroke="#000" stroke-width=".3" stroke-miterlimit="4" stroke-linecap="butt" stroke-linejoin="miter" d="M20.37 21.31v-1.18m0 3.51V22.5m0 3.4v-1.07m1.88-4.94v-1.15m0 3.48v-1.14m0 3.39V23.4m1.91-4.96v-1.06m0 3.39v-1.15m0 3.4v-1.07M19.66 23v-1.14m0 3.47v-1.14m1.8-2.53V20.5m0 3.48v-1.15m1.9-2.62v-1.14m0 3.47V21.4m-3.7 5.76v-.73m1.8-.54v-.81m1.9-.62v-.82m2.01-1.51l-6.5 4.89m6.5-5.97l-6.5 4.88m6.5-6.05l-6.5 4.89m6.5-6.05l-6.5 4.88m6.5-6.05l-6.5 4.89"/><path fill="#fcdd09" d="M19.51 20.66l-.09-.68-.47.32v.77zm.95-.66v-.74l.8-.66.12.7zm1.85-1.4l-.01-.74.88-.57.17.6zm1.91-1.37v-.68l1-.74.02.7z"/><path fill="#fcdd09" stroke="#000" stroke-width=".2" stroke-miterlimit="4" stroke-linecap="butt" stroke-linejoin="miter" d="M10.93 16.91l-.07-11.9h7.03v11.84z"/><path fill="#000" d="M10.4 4.62l.46.84h7.13l.42-.9V2.14h-.98v1.04h-.71V2.15H15.6v1.04h-.71V2.15h-.98v1.04h-.72V2.15h-.97v1.04h-.78V2.15H10.4z"/><path fill="#fcdd09" d="M10.6 4.55h7.61V2.86h-.65v.78h-.97v-.78h-.85v.78h-.98v-.78h-.71v.78h-.98v-.78h-.71v.78h-1.04v-.78h-.72z"/><path fill="#000" d="M9.43 18.4l.6.63h8.8l.49-.56v-2.54h-.98v.78h-.71v-.78h-1.04v.79h-.79v-.79h-.97v.78h-.85v-.78h-.97v.78h-.72v-.78h-.97v.78h-.78v-.78H9.43z"/><path fill="#fcdd09" d="M9.63 18.21l9.52-.02.02-1.61h-.74v.73h-.94v-.72h-.78v.71h-1.04v-.71h-.71v.71h-1.1v-.71h-.72v.71h-.98v-.71h-.71v.71H10.4v-.71h-.78z"/><path fill="none" stroke="#000" stroke-width=".2" stroke-miterlimit="4" stroke-linecap="butt" stroke-linejoin="miter" d="M14.3 16.8v-1.23m2.42-1.11v-1.22m-2.42 1.22v-1.22m-2.41 1.22v-1.22m4.83-1.2v-1.13m-2.42 1.14V10.9m-2.41 1.14V10.9m4.83-1.15V8.58M14.3 9.76V8.58m-2.4 1.18V8.58m4.83-1.16V6.33m-2.42 1.1v-1.1m-2.41 1.1v-1.1m3.66 9.2V14.5m-2.41 1.05V14.5m2.41-1.28v-1.13m-2.41 1.13v-1.13m2.41-1.2V9.75m-2.41 1.13V9.75m2.41-1.2V7.4m-2.41 1.14V7.4m2.41-1.07v-.88m-2.41.88v-.88m-2.28.86h7.12M10.87 7.4h7.12m-7.12 1.16h7.12m-7.12 1.17h7.12m-7.12 1.16h7.12m-7.12 1.15h7.12m-7.12 1.17h7.12m-7.12 1.25h7.12m-7.12 1.08h7.12m-1.32 6.57v1.22m-4.74-1.21v1.21m4.74 1.15v1.27m-4.74-1.27v1.27m4.74.98v.93m-4.74-.93v.93m6-6.76v1.19m0 3.64v1.02m0-3.43v1.18m-7.17 1.23v1.02m0-3.43v1.18m0-3.6v1.19m5.85-2.19v1.02m-4.68-1.02v1.02M18 18.99v.93m-7.16-.95v.95m3.51.02v.87M15.58 19v.93M13.02 19v.93m-2.96-.02l8.8.02m-8.8 1l8.8.03m-8.8 1.15l8.8.02m-8.8 1.2l8.8.02m-8.8 1.14l8.8.02m-8.8 1.23l8.8.02m-8.8.98l8.8.02m-7.92-8.43v-1.08m6.76 1.08v-1.07m-1.52 1.07v-1.08m-1.66 1.08v-1.05m-1.75 1.05v-1.08m-3.14.11l9.52-.02m-2.43-.77v-1m.06-11v-.9m-1.51.9v-.9m-1.67.9v-.9m-1.75.88v-.87m-1.32 0h7.77m-6.4 12.9l-.01-1"/><path fill="#fcdd09" stroke="#000" stroke-width=".2" stroke-miterlimit="4" stroke-linecap="butt" stroke-linejoin="miter" d="M12.58 27.75v-5.92c0-.85.96-1.56 1.73-1.56s1.78.71 1.78 1.56v5.92z"/><path fill="#fcdd09" d="M9.4 20.64l.1-.68.47.32v.77zm-.94-.66v-.74l-.8-.66-.13.7zM6.6 18.6l.02-.75-.89-.58-.16.6zm-1.9-1.38v-.69l-1-.73v.7z"/></svg>