<svg version="1.1" xmlns="http://www.w3.org/2000/svg" viewBox="0 0 29 32"><path fill="#fff" stroke="#000" stroke-width=".63" stroke-miterlimit="4" stroke-linecap="round" stroke-linejoin="miter" d="M.34.32v17a14.33 14.33 0 0 0 28.67 0v-17z"/><path fill="#d32" d="M14.86 15.18h13.86v2.14c0 7.74-6.27 14.02-14.02 14.02"/><path fill="#fd0" d="M10.5 4.44a2.62 2.62 0 1 1-5.24 0 2.62 2.62 0 0 1 5.24 0z"/><path fill="#d32" stroke="#000" stroke-width=".37" stroke-miterlimit="4" stroke-linecap="round" stroke-linejoin="round" d="M12.94 11.24l-1.25-3.12h-.65c-.37-.7-1.08-1.16-1.67-1.6L8.8 5.36c-.26-.58-1.63-.58-1.87-.08L6.41 6.4c-.42.27-1.1.56-1.8 1.42a4.55 4.55 0 0 0-.87 2.31v8.38c0 .99 1.03 3 1.46 2.95l.04-4.36c0 1.32 1.42 2.76 2.44 3.13 1.3-.53 2.52-2.08 2.52-3.18v4.41c.85-.41 1.43-1.94 1.43-2.95l.02-2.9c-.91.44-1.54-.33-1.35-1.44-.29-.68-.28-1.2-.28-2.13h2.47z"/><path fill="#fd0" stroke="#000" stroke-width=".37" stroke-miterlimit="4" stroke-linecap="round" stroke-linejoin="round" d="M10.98 8.1v3.13H9.67l.3.81h2.56l.4-.8h-1.21V8.1z"/><path fill="none" stroke="#000" stroke-width=".37" stroke-miterlimit="4" stroke-linecap="round" stroke-linejoin="round" d="M9.7 11.23l1.36-3.16m-.86 18.46l-.02-12.73M5.24 26.47V12.85M4.22 6.38h.52M4.5 26.8V4.32c0-1.67-2.34-1.27-2.06.16.08.39.5.89 1.04.66.7-.3.3-1.37-.3-1.03-.07.05-.26.18-.16.34.11.2.3.09.22-.07"/><path fill="#fff" stroke="#000" stroke-width=".37" stroke-miterlimit="4" stroke-linecap="round" stroke-linejoin="round" d="M4.49 11.73c1.06 0 1.19 1.52 0 1.52-.85 0-.95-1.14-.62-1.48.19-.2.45-.37.62-.42z"/><path fill="none" stroke="#000" stroke-width=".37" stroke-miterlimit="4" stroke-linecap="round" stroke-linejoin="round" d="M10.54 12.57h.35m.3.75h.18l.04-.74H12m-.63 1.28H11m-4.16-8.4c.59.53 1.5.6 2.02 0m-2.43.89c.82.8 2.05.75 2.88.05M4.75 7.75c.98.98 1.02 2.44 1.07 3.49.1 2.13.17 4.68 1.9 6.18 1.69-1.47 1.81-3.45 1.9-6.12.08-2.04.31-2.75 1.15-3.6"/><path fill="none" stroke="#000" stroke-width=".37" stroke-miterlimit="4" stroke-linecap="round" stroke-linejoin="round" d="M10.3 14.18c.06.08.43.55.72.57-.03-.6.57-.33.83-.12.6-.69.64-1.6.64-2.59m-1.07 3.67c.39-.17.64-.51.43-1.07"/><path fill="#06a" stroke="#000" stroke-width=".53" stroke-miterlimit="4" stroke-linecap="round" stroke-linejoin="round" d="M14.62.4h14.31v15.02H14.62z"/><path fill="none" stroke="#000" stroke-width=".63" stroke-miterlimit="4" stroke-linecap="butt" stroke-linejoin="round" d="M14.6.42v31"/><path fill="#000" stroke="#000" stroke-width=".37" stroke-miterlimit="4" stroke-linecap="butt" stroke-linejoin="round" d="M7.72 24.14l-2.49 2.19v.35h4.97v-.39z"/><path fill="#fd0" stroke="#000" stroke-width=".37" stroke-miterlimit="4" stroke-linecap="butt" stroke-linejoin="round" d="M23.75 7.59h3.67V5.78h-1.07v.95h-.9v-.95h-.98V4.7h.97v-.86h.91v.86h1.07V2.92h-3.67"/><path fill="#fd0" stroke="#000" stroke-width=".4" stroke-miterlimit="4" stroke-linecap="round" stroke-linejoin="round" d="M23.53 19.11V1.84h-.8v17.27"/><path fill="#fd0" stroke="#000" stroke-width=".37" stroke-miterlimit="4" stroke-linecap="round" stroke-linejoin="round" d="M23.13 19.69l-3.72 3.72 3.72 3.72 3.71-3.72-3.7-3.72zm0 1.12l2.6 2.6-2.6 2.6-2.6-2.6 2.6-2.6z"/><path fill="#fd0" stroke="#000" stroke-width=".37" stroke-miterlimit="4" stroke-linecap="round" stroke-linejoin="round" d="M22.35 19.13h1.56v.79h-1.56v-.8z"/><path fill="#fff" stroke="#000" stroke-width=".32" stroke-miterlimit="4" stroke-linecap="round" stroke-linejoin="round" d="M24.35 13.12v2.8c.06 1.14.78 1.98 1.88 1.98s1.88-.93 1.88-1.98v-2.8z"/><path fill="#fd0" stroke="#000" stroke-width="1.32" stroke-miterlimit="4" stroke-linecap="butt" stroke-linejoin="round" d="M26.23 13.16v4.71m-1.83-2.44h3.65"/><path fill="#fd0" stroke="#fff" stroke-width=".5" stroke-miterlimit="4" stroke-linecap="round" stroke-linejoin="round" d="M25.58 13.53v3.82m-.82-1.28h2.93m-.81 1.28v-3.82m.82 1.24h-2.93"/><path fill="#fd0" stroke="#000" stroke-width=".79" stroke-miterlimit="4" stroke-linecap="butt" stroke-linejoin="round" d="M24.37 15.43h3.7m-1.84-2.3v4.82"/><path fill="#fd0" stroke="#000" stroke-width=".37" stroke-miterlimit="4" stroke-linecap="butt" stroke-linejoin="round" d="M19.91 7.59h-3.67V5.78h1.07v.95h.91v-.95h.97V4.7h-.97v-.86h-.91v.86h-1.07V2.92h3.67"/><path fill="#fd0" stroke="#000" stroke-width=".4" stroke-miterlimit="4" stroke-linecap="round" stroke-linejoin="round" d="M20.13 19.11V1.84h.8v17.27"/><path fill="#fd0" stroke="#000" stroke-width=".37" stroke-miterlimit="4" stroke-linecap="round" stroke-linejoin="round" d="M20.53 19.69l3.72 3.72-3.72 3.72-3.71-3.72 3.71-3.72zm0 1.12l-2.6 2.6 2.6 2.6 2.6-2.6-2.6-2.6z"/><path fill="#fd0" stroke="#000" stroke-width=".37" stroke-miterlimit="4" stroke-linecap="round" stroke-linejoin="round" d="M21.31 19.13h-1.56v.79h1.56v-.8z"/><path fill="#fff" stroke="#000" stroke-width=".32" stroke-miterlimit="4" stroke-linecap="round" stroke-linejoin="round" d="M19.31 13.12v2.8c-.05 1.14-.78 1.98-1.88 1.98s-1.87-.93-1.87-1.98v-2.8z"/><path fill="#fd0" stroke="#000" stroke-width="1.32" stroke-miterlimit="4" stroke-linecap="butt" stroke-linejoin="round" d="M17.43 13.16v4.71m1.83-2.44h-3.65"/><path fill="#fd0" stroke="#fff" stroke-width=".5" stroke-miterlimit="4" stroke-linecap="round" stroke-linejoin="round" d="M18.08 13.53v3.82m.82-1.28h-2.93m.81 1.28v-3.82m-.81 1.24h2.92"/><path fill="#fd0" stroke="#000" stroke-width=".79" stroke-miterlimit="4" stroke-linecap="butt" stroke-linejoin="round" d="M19.3 15.43h-3.71m1.84-2.3v4.82"/><path fill="#fff" stroke="#000" stroke-width=".32" stroke-miterlimit="4" stroke-linecap="round" stroke-linejoin="round" d="M5.84 22.64v2.8c.05 1.14.78 1.98 1.88 1.98s1.87-.93 1.87-1.98v-2.8z"/><path fill="#000" stroke="#000" stroke-width="1.19" stroke-miterlimit="4" stroke-linecap="butt" stroke-linejoin="miter" d="M5.71 25.02h3.72"/></svg>