<svg version="1.1" xmlns="http://www.w3.org/2000/svg" viewBox="0 0 24 32"><path fill="#fff" d="M.37 9.66H23.9v10.2c0 8.05-6.8 11.77-11.76 11.77S.68 27.9.37 19.87z"/><path fill="#078930" d="M.37.43H23.9v9.23H.37V.43z"/><path fill="#0f47af" d="M7.34 14.05c.22-.3.41-.72 1.14-.53.27.07.42.37.7.88.3.5 1.1-.08 1.75-.5.12-.11.35.38.14.56-.38.34-.86.38-1.31.46-.34.06-.77.14-1.06-.36-.36-.64-.82-.61-1.36-.5z"/><path fill="#da121a" d="M18.06 18.12c-.74-.93-.67-1.65-.77-2.42.26.4.49.33.69.07.38.4.66.36.9.17-.37-.07-.4-.3-.55-.47.3.07.61.3.83-.07-.62-.06-.89-.58-1.36-.8-.6-.27-.87.4-.88.77.06.68 0 1.63.25 2.07l1.18 2.09c.23.55.48 1.1.63 1.86-.04-.77.29-1.43-.92-3.27z"/><path fill="#0f47af" d="M11.07 10.9c.58-.05 1.12 0 1.33.86.22-.08.3-.35.64-.45.2-.06.25-.22.44-.15.18.08.22.48.15.76-.05.18-.18.1-.09.52.61-.42 1.1-.39 1.45.02-.86.12-1.36.47-1.39 1.13-.81-.18-1.63-.59-2.45-.96.47-.55.32-1.14-.08-1.73zM4.22 15c.27-.31.7-.63 1.06-.21.11.14-.34.55-.37.44-.09-.44-.49-.17-.7-.24z"/><path fill="#fcdd09" d="M4.7 2.4c.25-.2.44.06.09.37-.15.13-.02.76.14.67.36-.2.7.26.31.69a8.35 8.35 0 0 0 4.49 2.14c.3.4.59.84 1.06 1.05-.98-.7-1.85-2.04-1.1-3.74.36-.78 1.43-1.51 2.5-1.4s2.17.57 2.45 2.12-.97 1.97-2.05 2.19a5.88 5.88 0 0 0 3.56-1.85c.54-.6 1.5-2.17 1.2-2.45-.5-.46-.34-1.1.13-.7 1.33 1.14 2.73 2.2 4.1 3.37.57.49-.05.52-.5.38a2.34 2.34 0 0 0-1.63.12l-2.77 1.22c-1.3.57-2.67.85-3.98.9a13 13 0 0 1-3.97-.65 7.7 7.7 0 0 1-3.9-2.45c-.35.23-.92-.08-.6-.44.18-.2-.31-.36-.5-.27-.22.1-.75-.03-.32-.34z"/><path fill="#078930" d="M11.09 3.28c-.82.58-1.2 1.8-.3 2.72.6.63 1.5.82 2.28.22.7-.54.96-1.43.63-2.12-.44-.91-1.79-1.4-2.61-.82z"/><path fill="#0f47af" d="M11.23 6.75c.03-.49.24-.48.46-.4.13-.13.27-.27.43-.05.2-.11.37-.17.4.25.03.44-.02.75-.1 1.17.08.34.36.38.6.48.1-.24.28-.46.58-.38s.55.47.36.76c-.19.3-.7.32-.82-.06-.57.13-.88-.17-1.16-.57-.25.37-.58.61-1 .44-.32.53-1.09.28-.99-.31s.87-.66.99-.03c.34.02.6-.09.73-.36-.33-.22-.51-.45-.48-.94z"/><path fill="#da121a" d="M10.07 14.41c-.37-.09-.16-.34-.1-.42-.15.13-.52.01-.44-.15.33-.33.64-.45.93-.5.01-.28.35-.53.7-.7.81.32 1.57.75 2.43.91.42.25.25.69.67 1.35-.17.03-.41-.27-.63-.65.15.5.26 1.08.5 1.48-.17 0-.35-.27-.52-.46.26.52.3 1.03.36 1.55l-.27-.73c.06.35.11.59.17 1.17-.12-.08-.18-.53-.26-.83l.1 1.7c-.14.07-.15-.24-.22-.4-.03.41-.05.84-.15 1.02-.15-.23-.16-.72-.23-1.1-.06.42-.13.95.17 1.6s1.75.86 2.25 1.34c.28.26.55.52.58.96.05.68.47.99 1.06 1.04.6.05 1.12-.2 1.3-.7.26-.75-.26-1.51-.52-2.24-.37-1.15-1.01-1.81.49-2.33 0-.49.63-.93 1.25-.26.38.41.45 1.06 1.23.78-.3.47-.93.12-1.32-.2.5.46 1.04.98.6 1.51-.13-.62-.35-.81-.7-.73s-.76 0-1.03-.63c-.53.22-.66.58-.36 1.24s.93 1.6.87 2.56-.48 1.17-.9 1.4a1.8 1.8 0 0 1-1.77-.14c-.26-.19-.55-.22-.42.35s.35.7.84.8c.5.1.96.14 1.02.78-.33-.13-.66-.35-.99-.28.47.73 1.3.22 1.77 1.13l-.74-.18c.79.51.82 1.37.49 1.36-.3.04-.27.28-.33.52 0 .18.1.63-.15.5-.17-.08-.33-.1-.49.1-.2.15-.28-.2-.33-.4-.02.47-.08.82-.28.67-.17-.13-.34-.15-.51-.08l.23-.53c-.15.18-.32.8-.44.46 0-.25-.08-.2-.12-.25-.27-.5.74-.14.8-.74s-.86-1.27-.98-1.07c-.1.42-.5.43-.5.43.04-1 .22-.82-.73-1.25l-.2-1.27c-.02.42.1.96-.14 1.2-.24-.75.05-1.05-.63-1.17-.18-.33-.02-.84.02-1.29-.15.3-.42 1.35-.65 1.4-.1-.08-.04-.45-.07-.68-.15.4-.3 1-.46 1.1-.15-.23-.12-.58-.12-.9-.3.46-.14 1.17-.3 1.45-.14-.05-.24-.39-.33-.68 0 .8 0 1.58-.28 1.72l-.2-1c-.09.37-.17.75-.26.88l-.12-.89c.14.74-.1.96-.32 1.2-.02-.34-.06-.44-.1-.55-.13.4-.3.63-.47.74-.4.06-.36.32-.54.2-.08-.02-.13-.15-.2-.23.03.25.03.93-.16.7-.16-.23-.3-.19-.41-.1-.26-.4.02-.41.02-.63-.15.18-.45.83-.47.49-.05-.34-.26-.33-.38-.44.16-.36.72-.38.7-.45 0 0-.52.26-.61.15.12-.22.17-.24.02-.47-.15-.37.68.2 1.25-.4s1.07-.82.95-1.28c-.4-.29-.38.23-.48.53-.05-.48-.5-1 .59-1.04.31-.02-.16-1.31 1.57-1.07.49.06 1.82-.25 1.88-.64s-.52-.65-.9-.76c-.99-.26-2.16-.44-2.98-.86-.13.15-.21.27-.35.3-.06-.3-.03-.6.14-.9-.33.32-.59.72-1 .93-.1-.29-.04-.55-.03-.82-.14.16-.18.5-.2.9L8 19.95c-.07.33-.1.75-.22.96-.1-.12-.16-.42-.22-.68-.06.32-.05.65-.2.98-.01-.25-.24-.5-.47-.75.05.38.27 1.24 0 1.08-.23-.3-.35-.48-.66-.49-.26-.42-.6.49-.72.25-.12-.26-.25-.24-.42-.2-.24-.1.19-.24.28-.37-.17.1-.51.44-.5.2.09-.2-.15-.2-.22-.32-.12-.22.38-.19.57-.28-.16-.05-.63.19-.47-.15.06-.14-.09-.26-.06-.4.09-.25.3-.07.5.07.2.12.53.12.84-.15s1.15-.57 1.32-.83c.34-.5 1.2-.6 1.44-1.2-.34.27-.75.46-1.32.44-.01-.2-.06-.28-.44-.1.2-.25.38-.32-.44-.23.18-.33-.01-.29-.63-.26.37-.26.35-.26-.13-.36 0-.2.15-.5-.36-.33-.22.08-.68.37-.68.19 0-.26-.02-.3-.21-.41-.12-.06.18-.13.3-.19-.17 0-.68.14-.58-.05.11-.2 0-.26-.04-.4-.05-.17.38-.02.55-.03-.16-.09-.57-.17-.5-.3.05-.1.15-.13.1-.34-.07-.29.76.13.76.13s-.37-.24-.24-.24.27-.26.33-.49c.03-.15.26-.07.3.36.01.17.86.57 1.31.83.57.32 1.07.76 1.72.84s1.28-.6 1.78-.6c.06-.26.37-.34.68-.43.17-.3.58-.38.59-.9 0-.3-.28 0-.45.21s-.31.2-.47.3c-.16.1-.38-.06-.47-.34-.07-.18.45-.24.81-.49.23-.15.06-.54-.11-.48-.24.05-.76.43-.89.4z"/><path fill="#0f47af" d="M3.61 15.84c.2-.4.5-.68.86-.48.11.14-.02.44-.05.32-.2-.22-.58.22-.8.16zm.12.73c.03-.4.2-.63.6-.57.17.04.1.46.01.4-.25-.18-.41.1-.62.17zm.39.23c.14.39.51.33.78.18.16-.1-.16-.42-.23-.33-.16.27-.32.18-.55.16zm-.06 3.62c.01-.4.16-.62.62-.64.18.03.16.6.06.53-.35-.28-.48.03-.68.1zm.42.98c-.21-.34-.15-.52.22-.84.17-.07.37.35.25.35-.35.06-.35.32-.47.5zm.82.46c-.35-.2-.31-.47-.2-.86.12-.14.56.2.46.26-.27.17-.24.39-.26.6zm.66-.18c.34.23.69.12.88-.24.08-.16-.45-.49-.45-.37 0 .45-.17.53-.43.6zm1.4 4.75c-.1-.39.02-.65.42-.82.18-.02.3.53.18.5-.35-.14-.43.19-.6.32zm.39.91c-.28-.3-.22-.54.03-.89.14-.1.46.34.34.36-.35.06-.29.33-.37.53zm1.05.37c-.37-.17-.4-.5-.3-.85.1-.15.62.12.52.19-.4.22-.22.45-.22.66zm.82-.46c.38-.13.38-.43.27-.79-.09-.15-.52.12-.42.2.28.17.16.38.15.6zm6.02 1.25c-.23-.34-.04-.63.24-.84.16-.08.37.36.25.36-.35 0-.38.3-.5.48zm1.18.32c-.4-.1-.62-.23-.52-.76.07-.17.54 0 .45.1-.34.28.02.44.06.65zm1.21-.27c-.4.02-.7-.08-.74-.62.01-.26.58-.24.52-.07-.24.38.12.5.22.69zm.38-.75c.28-.3.26-.55-.04-.93-.24-.13-.49.33-.35.36.45.06.3.36.39.56z"/><path fill="none" stroke="#000" stroke-width=".37" stroke-miterlimit="4" stroke-linecap="butt" stroke-linejoin="miter" d="M.37.37H23.9v19.5c0 8.04-6.8 11.76-11.76 11.76S.37 27.9.37 19.87z"/></svg>