<svg version="1.1" xmlns="http://www.w3.org/2000/svg" viewBox="0 0 27 32"><path fill="#f4f0e8" d="M.26.26h26.36v17.4H.26z"/><path fill="#0039a6" d="M11.9 6.9c-.95-.31-2.78-.02-3.57.08-.49.02-1.16-.2-1.35-.76-.1-.46.07-.87.95-1.13-.1.31-.27.62-.01.94.2.22.41.55 1.75.33a4.6 4.6 0 0 1 1.79.06c.43.11.67.22.44.48zm.25-5.46c.26.67.3 1.35.33 2.01l2.38.48c.46-.2 1.1-.6.74.16l.32.04c.37-.49 1.17-1.22 1.1-1.46-.2-.31-.42-.17-.64-.06-.43-.16-.63 0-.6.25.03.27-.2.42-.41.38-.23 0-.56-.32-.14-.53.28-.25.2-.51-.17-.64 0-.36-.15-.52-.4-.58-.22-.02-.4.14-.53.36-.4-.1-.53.06-.5.35.24.2.16.38-.18.53-.37-.08-.43-.28-.4-.52.31-.46-.1-.4-.29-.5-.2-.37-.4-.2-.61-.27z"/><path fill="#dc281e" d="M20.45 17.55c.44-.4.94-1.71.7-2.26-.4-.62-.57-1.26-1.53-1.7-.9-.19-1.02.24-.94.82-.33.06-.48-.18-.6-.49l-.08.69c-.53-.21-.66-.61-.66-1.08-.26.03-.52.05-.67.34.05-.43-.36-.82.8-1.31-.26-.46.16-.52.27-.76.14.58.64.6 1.04.8-.25-.65-.42-1.69-.16-2.09a2.2 2.2 0 0 1 1.83-1.07c.64 0 .97.28 1.25.5.19-.15.4-.26.74-.17.44.44.89.8 1.52.53l-.27.49.78 1.01-.76-.2c.36.79-.04 1.08-.39 1.41.1-.34-.23-.67-.43-1.01-.4.2-.57.39-.56.58 0-.5-.57-1.16-.9-1.75-.11-.2-.1-.4.04-.55-.95-.63-1.5-.39-1.99 0-.35.29-.58.68-.57 1.27.02 1 1.78 2.14 2.52 3.37.08-1.05-.19-2.3-1.6-4.17-.54-.63-.89-1-1.1-1.74-.1-.27.04-.59.18-.91-.39-.45-.3-.9-.23-1.35.12-.4.16-.8-.02-1.26.17.05.35.02.53.3.13-.19.18-.56.15-1.06.16.02.32.08.43.46l.25-.9c.17.16.34.29.45.69l.18-.94c.32.13.4.48.47.86l.25-1.03c.18.27.42.5.35 1.13l.43-.86c.11.37.34.7.06 1.17l.6-.54c.19.59-.08.96-.4 1.3.2.37.14.74 0 1.11-.16-.43-.4-.61-.77-.52.27.57.1.77.02 1.05-.24-.44-.49-.81-.88-.53a1 1 0 0 1 .24.86c-.56-.48-.91.12-1.33.4-.9-.12-.3.71-.15 1.26l1.25 1.65a5.99 5.99 0 0 1 1.17 3.26 6.11 6.11 0 0 1-.88 2.93M5.81 7c.16.25.38.47.3.82-.27.7.2 1.1.52 1.56 1.03.76 1.8.92 2.63 1.19l6.55 2.18c-.18.58.1 1.11.38 1.64a13.66 13.66 0 0 0 2.83 3.05c-1.3-.06-1.73-.75-4.57.13a9.3 9.3 0 0 0-3.96-2.73l.08-.43-1.05.52-.12-.54c-.81.6-1.8.66-2.77.8l.02.37-.68-.27.49.72c-.4-.1-.78.1-1.17.37.1-.38-.09-.65-.36-.88l-.56.55c.14.37.17.56-.12.62-.38-.5-.48-.81-.97-1.16.55-.04.62-.22.7-.5-.28-.05-.56-.17-.84.12.2-.49.17-.93-.1-1.32.43-.15.82.44 1.17.3.18-.27-.27-.5-.52-.73.45-.12.86-.33 1.01-.86l.43.35c-.01.29-.24.51.43 1 1.24-.12 2.71-1.07 2.6-1.37-.17-.59-1.2-.6-1.78-.82l.3-.43-.65.08.13-.4-.56-.24-.08.66c-.32-.18-.58-.47-1.1-.31.16-.31.24-.57.03-.63-.38.03-.55.28-.68.57a1.9 1.9 0 0 0-.59-1.27c.44-.1 1.02-.16 1.04-.37.04-.26-.28-.28-.6-.3.32-.3.52-.65.52-1.1.26.13.5.47.76.38.14-.23-.07-.64-.13-.96.35-.05.7-.01 1.04-.36z"/><path fill="#dc281e" d="M8.93 9.9c.43-.2 1.01-.2 1.21-.75l.7-.43c1.24-.8.22-1.1-.6-1.33-.03-.2-.06-.4.04-.62.3-.01.6-.07.91.04.14.28.3.67.69.5.16-.41-.06-.78-.08-1.17l-1.58-.29c-.4-.37-.16-.67-.08-1l.06-.7c.18-.1 1.53-.4 1.83-.68 1.28-.19 1.89 0 2.81.5.26-.14.49-.36.9-.26l-.26.48.43-.08c.14.32-.07.7.63.92l-.55.35c.28.15.42.48.94.35l-.51.4c.76.24.16 1.64.78 2.04l-.57.02c0 .45.02.9.41 1.1l-.6-.1c.04.77.15 1.35.35 1.71l-.64-.2c-.07.82-.03 1.46.21 1.8l-.93-.45c.33.43.67.86.29.94-.39-.19-.78-.32-1.11-.96.12.49.56.71-.3 2.03-.87-.86-.46-1.65-.48-2.46-.13.53-.75 1.12-1.02 1.94a2.06 2.06 0 0 1-.4-1.8c-.7.33-1.25.9-1.88 1.33.12-.57.36-1.51.45-1.78-.64.53-1 .69-1.62 1.13.17-.64-.25-1.33.53-1.93-.45.04-.77-.16-.96-.58z"/><path fill="#f4f0e8" d="M12.04 4.2c0 .1-.14.22-.02.23.2.04.6.25.33-.1zm.72.07c-.1-.06-.32.28-.23.28.17 0 .55.05.56-.04zm-2.4 1.62c.07.11-.02.28.2.39l.22-.33zm.67.14c-.12 0 0 .18.08.28.14-.05.2-.13.21-.22z"/><path fill="#0039a6" d="M3.37 9.94c-.55.26-.57.82-.53 1.31.53-.73.45-.58.87-.48.08-.35-.08-.62-.34-.83zm.71-1.79c-.57-.24-.9.07-1.24.43.9-.1.64 0 .84.37.2-.2.36-.5.4-.8zM5.7 7.14c-.22-.57-.79-.42-1.28-.43.68.6.55.29.41.69a1 1 0 0 0 .87-.26zm-.33 4.07c-.21.57-.77.65-1.26.66.68-.6.54-.5.4-.9.33-.08.65-.02.86.24zm-.71 1.49c-.4-.46-.95-.33-1.41-.15.85.3.56.31.57.74.42.03.66-.34.84-.6zm-1.51 1.34c-.62.01-.88.46-.92 1.04.79-.44.6-.38.93-.1.22-.29.07-.63-.01-.94zm.37 1.62c-.44.42-.3.76-.1 1.2.27-.85.34-.28.73-.4.04-.43-.3-.7-.63-.8zm2.78.22c.23.57-.13 1-.5 1.33.12-.9.05-.72-.32-.92.21-.21.54-.3.82-.4z"/><path fill="#0039a6" d="M.26 17.66c0 6.92 4.35 14.08 12.54 14.08 9.22 0 13.82-7.16 13.82-14.08-1.1 0-1.47-.71-2.88-.64-1.36-.03-2.85.75-3.73.64-.88.09-2.08-.66-2.89-.65-1.35.02-3.08.62-4.05.57-.85.04-2.38-.62-3.22-.58-1.05.06-2.46.75-3.3.66-1.05.07-1.82-.64-3.07-.6-1.33.02-1.8.77-3.22.6z"/><path fill="#000" d="M10.28 21.3c0 .11.17.34.23.54.08.14.08.48.13.53a.56.56 0 0 0 .14-.61c-.05-.18-.35-.47-.5-.45z"/><path fill="#f4f0e8" d="M2.85 21.92a17.47 17.47 0 0 1 6.67-1.54c3.53.04 7.15.99 10.68 1.35.21.66.16 1.27.12 1.89-2.04-.03-3.95.38-5.89.7-2.42.29-4.8.84-7.37.25-1.6-.28-2.45-.93-3.57-1.44.49-.38-.26-.8-.64-1.21z"/><path fill="#dc281e" d="M10.42 24.88c.3.24.51.49.74.73 1-.16 1.93-.39 2.99-.47-.31-.2-.51-.44-.73-.67-.06.02-.12.02-.18.1.1.3.2.3.16.31s-.41-.34-.53-.28c-.03.04.13.32.1.34-.01.02-.3-.32-.44-.3-.07.06.14.34.13.36-.03.04-.4-.3-.52-.29-.06.03.12.35.11.36-.06.04-.37-.37-.46-.35-.06.07.06.41.04.41-.02 0-.26-.33-.47-.4-.04.15.2.52.22.51s-.52-.45-.6-.41c-.11.01.31.49.24.5 0 0-.35-.32-.53-.46a.32.32 0 0 0-.26.01zm5.84-3.78c.28-.21.5-.4.9-.63.3.2.7.21 1.05.34-.28.14-.5.31-.68.5l-.18-.03c-.21-.04.2-.3.2-.3s-.42.33-.58.24c-.2 0 .22-.3.22-.3 0-.02-.42.25-.42.25-.43.02.1-.29.1-.3s.01.02-.4.27zm7.33-.07c-.22.59-.63 1.14-.95 1.67.4.43.85 1.05.94 1.67a8.4 8.4 0 0 0-3.3-.73l.08-.26c.01-.03 1.41.15 1.38.11-.04-.05-1.01-.12-1.34-.19-.07-.01-.03-.2-.03-.2 0-.14 1.44.07 1.43.03 0-.03-1.2-.1-1.43-.2 0 0-.02-.15-.01-.16.12-.1 1.27-.08 1.3-.1.1-.04-1.25.05-1.3-.08-.03-.04-.05-.13-.03-.15.1-.06 1.25-.14 1.27-.15s-1.18.12-1.28 0c-.02-.02-.03-.14-.03-.14.41-.15.96-.13 1.43-.19-.48.02-1.17.12-1.46.04l-.1-.31c.8-.05 2.34-.04 3.42-.66zM7.5 22.55c.97.08 1.96-.1 2.9-.28l-.6 1.19-2.3-.13s-.03-.1 0-.1c.86-.06 1.92-.09 1.58-.1H7.5c-.05-.01-.02-.25-.02-.25s1.71-.02 1.66-.05c-.04-.03-1.65-.03-1.65-.03s-.02-.17.01-.25zm2.23-2.25l.77-.91 3.57.3-.8.89c-.08-.02-.14 0-.22-.11.08-.38.21-.39.16-.4s-.46.46-.6.4c-.04-.04.12-.4.1-.43-.03-.02-.33.43-.5.42-.1-.07.13-.44.1-.47-.02-.04-.42.43-.58.42-.07-.04.11-.45.1-.46-.07-.04-.4.49-.51.48-.07-.08.03-.52 0-.51-.02 0-.27.43-.5.53-.07-.18.2-.65.2-.65s-.56.62-.67.58c-.13-.01.32-.64.24-.64 0 0-.38.42-.59.6-.1.06-.18 0-.27-.05zm6.34 3.72c.3.27.53.48.95.75.35-.22.8-.2 1.2-.33-.3-.18-.51-.4-.73-.61l-.2.02c-.24.04.2.36.2.36s-.41-.3-.55-.3c-.17.06.1.34.1.34-.02.01-.3-.34-.45-.3-.1 0 .15.34.15.34s-.17-.2-.44-.32z"/><path fill="#000" d="M4.72 23.22l-.92-.08c.62-.17-.03-.53-.07-.78.43.18 1.04.36.98.86zm1.93-2.2c.39.99.43 2.22.45 3.06.12-.09.2-1.09.17-2.14a.97.97 0 0 0-.62-.92zm1.1.32c0 .1.16.32.2.56.05.23-.03.48.02.54a.57.57 0 0 0 .22-.58c-.03-.18-.29-.51-.44-.52zm.32 1.99c-.05.1.02.35-.05.57-.05.22-.23.42-.21.49a.6.6 0 0 0 .47-.43c.04-.17-.07-.56-.21-.63zm1.09.24c-.08.07-.1.34-.24.53-.11.2-.34.35-.35.42.23.03.43-.07.56-.28.1-.15.14-.57.03-.67zm.96-.23c-.06.08-.05.35-.15.56-.09.23-.3.4-.29.47.23 0 .41-.13.52-.36.07-.17.04-.58-.08-.67zm-1.5-1.87c.01.1.2.3.27.52.08.22.04.49.1.54a.56.56 0 0 0 .14-.61c-.06-.18-.36-.47-.5-.45zm-.65-.96c.05.1.3.2.44.4.16.16.22.42.29.45.1-.2.06-.42-.1-.61-.11-.15-.5-.31-.63-.24zm1.49.41c.01.1.2.3.26.52.09.22.05.49.1.54a.56.56 0 0 0 .14-.6c-.05-.18-.35-.48-.5-.46zm.82.42c0 .1.2.3.26.52.09.22.05.49.1.54a.56.56 0 0 0 .14-.6c-.05-.18-.35-.48-.5-.46zm.21-.66c.04.1.29.21.42.4.16.18.21.45.28.48.1-.2.08-.43-.07-.62-.12-.15-.5-.33-.63-.26zm.77 1.26c0 .1.17.31.21.55.06.23 0 .49.04.54a.57.57 0 0 0 .2-.59c-.03-.18-.3-.5-.45-.5zm.84.46c-.02.1.13.33.14.56.04.24-.06.49-.02.55.2-.12.3-.32.27-.57-.01-.18-.24-.53-.4-.55zm-.65.9c-.04.09.03.35-.03.58-.04.23-.21.44-.19.51a.57.57 0 0 0 .43-.45c.04-.18-.07-.58-.21-.65zm-.75-.54c-.04.1.06.35.02.58-.01.24-.16.46-.13.53a.57.57 0 0 0 .38-.5c.02-.17-.13-.57-.27-.61zm.93-1.61c0 .1.2.3.26.53.08.22.04.48.1.54a.56.56 0 0 0 .14-.61c-.06-.18-.35-.47-.5-.46zm.92.49c.01.1.2.3.27.53.08.22.04.48.1.53a.56.56 0 0 0 .14-.6c-.06-.18-.36-.48-.5-.46zm1.42-.1c.01.1.2.29.27.52.08.22.04.48.1.54a.56.56 0 0 0 .14-.61c-.06-.18-.35-.47-.5-.45zm-.35.66c-.03.1.1.34.08.58 0 .23-.12.47-.09.54a.6.6 0 0 0 .34-.53c0-.18-.18-.56-.33-.6zm-.52 1.06c-.05.09 0 .36-.09.58-.06.23-.25.42-.23.5a.6.6 0 0 0 .47-.42c.06-.17-.01-.59-.14-.66zm-.99.3c-.05.1 0 .36-.08.58-.05.23-.24.43-.22.5a.57.57 0 0 0 .46-.42c.05-.18-.03-.59-.16-.66zm.6-2.66c.04.1.27.23.39.44.13.19.16.46.22.5a.57.57 0 0 0 0-.63c-.1-.16-.47-.37-.6-.32zm1.84 1.89c-.02.1.1.34.1.57.02.24-.1.48-.06.55.2-.1.32-.3.31-.55 0-.18-.2-.55-.35-.57zm.63-.37c0 .1.2.3.26.53.08.22.05.48.1.53a.56.56 0 0 0 .14-.6c-.06-.18-.35-.47-.5-.46zm-.4-1.19c.01.1.2.3.27.53.08.22.04.48.1.53a.56.56 0 0 0 .14-.6c-.06-.18-.35-.47-.5-.46zm.94.57c0 .11.2.3.26.53.09.22.05.49.1.54a.56.56 0 0 0 .14-.61c-.05-.18-.35-.47-.5-.45zm1.15.47c-.01.1.15.32.17.56.04.23-.04.48 0 .54a.57.57 0 0 0 .25-.57c-.03-.18-.27-.52-.42-.53zm.81-.19c-.02.1.13.33.15.56.04.23-.05.49-.01.55.2-.12.29-.32.26-.57-.02-.18-.25-.53-.4-.55zm.88.32c-.03.1.08.35.05.58 0 .24-.14.47-.11.54a.57.57 0 0 0 .36-.51c.01-.19-.15-.57-.3-.61zm.8-.03c-.02.1.1.35.08.58 0 .24-.12.48-.09.54a.56.56 0 0 0 .34-.52c0-.19-.18-.56-.33-.6zm-.74-.69c.03.1.25.25.36.47.12.2.13.47.2.5.13-.18.14-.4.02-.62-.09-.16-.43-.4-.58-.35zm-1.96-.26c.03.1.27.23.38.43.14.2.17.46.24.5a.57.57 0 0 0-.02-.63c-.1-.15-.46-.36-.6-.3zm-.28 1.48c-.04.09.04.35-.02.58-.03.23-.2.45-.18.52a.57.57 0 0 0 .42-.47c.04-.18-.08-.58-.22-.64zm-2.35.33c-.05.1.01.36-.05.59-.05.23-.22.43-.2.5.22-.04.38-.2.44-.44.04-.18-.06-.58-.2-.65zm5.42-1.6c.02.1.24.27.33.49.11.2.1.47.17.52.14-.18.16-.4.06-.63-.08-.16-.42-.41-.56-.38zm-8.76 2.59c-.1.05-.29.39-.48.53-.03.08.21.13.25.1.14-.1.3-.5.23-.63zM7.6 24c-.1.02-.38.4-.6.5-.04.06.2.08.24.07.16-.09.4-.43.36-.58zm10.14-.83c-.08.06-.2.43-.36.6-.02.1.24.1.26.07.12-.15.2-.56.1-.67zm.47-1.11c-.1-.04-.36-.45-.55-.6-.03-.07.29-.06.32-.03.14.12.3.5.23.63zm-2.66 1.5c-.1.05-.35.45-.54.6-.03.07.27.06.3.03.14-.11.3-.5.24-.63zm.57-1.84c-.09-.04-.3-.44-.49-.58-.03-.08.23-.08.26-.05.14.11.3.5.23.63zm-1.87-.31c-.1-.05-.33-.48-.52-.62-.03-.08.26-.04.29-.01.14.11.3.5.23.63zm-2.23-.36c-.1-.03-.4-.4-.61-.5-.05-.07.24-.1.27-.08.16.09.39.44.34.58zm-2-.13c-.1-.02-.43-.37-.65-.45-.06-.07.22-.12.26-.1.16.07.42.4.4.55zm-2.41.24c-.1-.02-.36-.32-.57-.42-.05-.07.18-.17.22-.15.16.08.4.43.35.57z"/><path fill="#dc281e" d="M19.06 9.58l.34-.01.47.66-.26.16a2.48 2.48 0 0 1-.55-.81z"/><path fill="#000" d="M10.56 19.8c-.1.04-.34.36-.53.5-.04.09.26.11.3.09.05-.16.3-.46.23-.6zm.43.04c-.1.04-.28.34-.47.48-.1.04.15.01.23.05.14-.11.12-.29.24-.54zm.31.12c-.1.05-.15.3-.34.44-.03.08.23-.06.29.08.14-.11.13-.39.05-.52zm.44.07c-.09.04-.2.22-.38.41-.03.08.33-.01.33.02 0-.18.06-.25.05-.43zm.52-.03c-.1.05-.31.26-.48.43-.04.08.37.11.4.09-.03.03.14-.38.08-.52z"/><path fill="#000" d="M12.68 20.08c-.1.05-.28.22-.47.36-.04.08.32.14.35.11.1.03.08-.24.12-.47z"/><path fill="#000" d="M13.21 20.1c-.1.05-.4.28-.6.42-.03.08.51.1.51.1-.1-.11.05-.35.1-.52zm-2.02 5.16c-.1-.04-.37-.26-.57-.39-.03-.07.26-.12.3-.1.07.15.33.35.26.5zm.35-.06c-.1-.05-.34-.29-.54-.42-.1-.02.2.02.3-.03.14.1.11.2.24.44zm.28-.1c-.1-.03-.2-.24-.4-.37-.03-.07.2.1.25-.05.06.14.21.29.15.43zm.41-.05c-.1-.04-.23-.2-.4-.39-.05-.07.14.07.2 0 .1-.12.2.21.2.4zm.41-.04a2.2 2.2 0 0 1-.46-.35c-.04-.07.25-.07.28-.05-.03-.02.24.26.18.4zm.72-.15c-.1-.04-.16-.17-.36-.3-.04-.08.1-.07.14-.05.1-.03.17.12.22.35zm-.38.09c-.1-.04-.23-.23-.43-.36-.03-.07.37-.1.37-.1-.1.13 0 .3.06.46z"/></svg>