<svg version="1.1" xmlns="http://www.w3.org/2000/svg" viewBox="0 0 28 32"><path fill="#fff" d="M.37.37h26.97v19c0 6.13-6.13 12.27-13.49 12.27S.37 25.5.37 19.37v-19z"/><path fill="#000" d="M13.85 31.82c-1.8 0-3.58-.36-5.28-1.07a14.46 14.46 0 0 1-4.35-2.81C1.66 25.53.18 22.4.18 19.37V.2h27.35v19.18c0 3.04-1.48 6.16-4.04 8.57a14.48 14.48 0 0 1-4.35 2.81c-1.7.7-3.48 1.07-5.28 1.07zM.55.55v18.82c0 6.32 6.34 12.08 13.3 12.08s13.3-5.75 13.3-12.08V.55H.56z"/><path fill="#0f47af" d="M10.9 4.77c.1.55 2.44.87 3.5 1.12.17.19.18.42-.03.46-1.13-.32-2.56-.42-3.66-.76-.62-.26-.77-.72-.76-1.06 0-.32.7-.33.94.24z"/><path fill="#000" d="M14.37 6.45l-.03-.01c-.55-.16-1.18-.27-1.8-.37-.63-.1-1.3-.22-1.85-.39h-.01c-.76-.32-.83-.91-.83-1.15 0-.15.11-.27.28-.3.28-.06.67.1.84.5v.01c.08.38 1.68.7 2.63.88.3.07.6.12.82.18.02 0 .04 0 .05.03.13.14.18.31.13.44-.03.1-.1.15-.22.18h-.01zm-3.62-.94c.55.16 1.2.27 1.84.38.6.1 1.23.2 1.79.36.04 0 .05-.04.06-.04.01-.05-.01-.15-.08-.24l-.79-.16c-1.5-.3-2.65-.57-2.76-1.02-.15-.34-.46-.42-.63-.38-.05.01-.13.04-.13.12-.01.2.05.7.7.98z"/><path fill="#fff" d="M13.33 6.71c-.08-.34.06-.44-.18-.53-.21.08-.25.28-.36.43l.54.1zm.43.12c-.08-.35.06-.45-.11-.56-.13.05-.27.32-.38.43l.49.13zm.5.12c-.08-.34-.07-.57-.2-.58-.2-.01-.2.34-.3.47l.5.11zm-.48-1.94c.08.34-.02.51.22.6.22-.08.25-.37.35-.5l-.57-.1zm-.4-.08c.07.34.03.46.2.57.13-.05.2-.38.32-.5l-.52-.07zm-.53-.1c.07.33.12.58.27.6.18 0 .18-.4.28-.54l-.55-.07zm-.54 1.64c.2-.29.18-.45.35-.48.02.3.08.47.15.62l-.5-.14zm.13-1.71c.07.34.09.67.24.77.03-.33.21-.56.33-.67l-.57-.1z"/><path fill="#000" d="M14.25 7.05h-.01l-.5-.11a.08.08 0 0 1-.06-.04l-.4-.1-.46-.1h-.03l-.5-.14c-.03-.01-.05-.03-.06-.06s0-.06.01-.08c.08-.1.12-.2.15-.27.05-.12.1-.23.26-.26.02 0 .05 0 .07.02s.04.04.04.07c0 .17.03.3.06.4a.59.59 0 0 1 .31-.3h.07c.19.08.2.19.2.3a.6.6 0 0 1 .23-.2.1.1 0 0 1 .08 0c.1.07.13.15.14.23.05-.08.11-.14.21-.14.19.02.21.2.25.41 0 .08.02.16.04.25 0 .03 0 .06-.03.09s-.04.03-.07.03zm-.37-.27l.26.06a4.27 4.27 0 0 0-.1-.38c-.05 0-.08.11-.11.2-.01.05-.03.08-.05.12zm-.45-.13l.22.05v-.2l-.01-.12c-.05.05-.1.13-.15.2a.4.4 0 0 1-.06.07zm-.5-.1l.29.05v-.18c0-.1 0-.12-.06-.15-.1.05-.15.14-.2.25-.02 0-.02.02-.02.02zm-.48-.13l.2.06a1.23 1.23 0 0 1-.06-.32.39.39 0 0 0-.04.08l-.1.18zM14 5.7h-.03a.35.35 0 0 1-.23-.23.22.22 0 0 1-.13.12.1.1 0 0 1-.08-.01.39.39 0 0 1-.18-.26c-.05.1-.11.2-.24.2-.13-.02-.2-.13-.26-.3-.04.09-.08.2-.1.32 0 .03-.02.06-.05.07s-.06.01-.09 0c-.14-.1-.18-.31-.23-.59 0-.08-.03-.16-.05-.24 0-.03 0-.06.03-.08.02-.03.05-.03.08-.03l.37.06h.04l.55.08a.1.1 0 0 1 .07.05l.43.06c.02 0 .04.01.05.03l.4.06c.03 0 .05.02.06.05s0 .07-.01.1a.48.48 0 0 0-.08.16c-.06.14-.14.31-.31.38zm-.1-.53v.1c.02.16.02.2.1.24.08-.05.12-.16.17-.27l.03-.08-.28-.05-.02.06zm-.4-.13l.01.12c.02.13.03.18.07.22l.1-.18.03-.06-.01-.07-.2-.03zm-.51-.03c.04.17.09.3.14.32.04 0 .07-.15.1-.23 0-.05.02-.09.03-.13l-.21-.03-.06.07zm-.44-.13l.02.11.06.29c.05-.12.1-.23.16-.3v-.06l-.24-.04z"/><path fill="#da121a" d="M19.3 1.57c1.4-.37 1.53 1.03 1.9 2.08.29-.5.1-1.23.05-1.9.66.15 1.5 1.87.76 2.8-.4.71-1 .95-.36 1.68 1.08 1.29 2.2 1.64 3.23 3 .33-.41.48-1.6 1.26-1.04-.64.95.07.94-.47 1.94.3-.12.63-.67.9-.27.24.7-.85.48-.68 2.83.05.7-.21 1.6-.18 2.84l-1.06.03.25-3.92c.17-1-.53-1.83-1.31-2.66l-2.9-2.56c-.38-1.14-1.44-.59-1.91-1.56-.6-1.28-.3-2.6.42-2.44-.01 1.32.34 1.12.77 1.95-.5-1.1.18-1.88-.67-2.8z"/><path fill="#000" d="M24.66 15.65c-.02 0-.05 0-.07-.03l-.02-.06.25-3.92c.17-.96-.51-1.77-1.28-2.6L20.65 6.5l-.02-.04c-.2-.57-.55-.68-.93-.81-.37-.12-.75-.25-.98-.74-.42-.9-.44-1.9-.07-2.36a.56.56 0 0 1 .6-.21.1.1 0 0 1 .07.1c0 .85.13 1.02.37 1.3l.04.06c-.04-.26-.04-.5-.03-.73 0-.5 0-.95-.44-1.43l-.02-.04a.1.1 0 0 1 .04-.11h.02c1.26-.34 1.57.7 1.84 1.6l.09.3c.1-.35.04-.77 0-1.18l-.06-.45a.1.1 0 0 1 .04-.08.1.1 0 0 1 .08-.02c.35.08.75.56.96 1.16.26.7.2 1.35-.14 1.79-.1.18-.23.34-.33.48-.3.39-.47.6-.04 1.07.5.61 1.03 1.02 1.54 1.4.54.42 1.1.84 1.62 1.51l.16-.33c.14-.33.3-.7.6-.78.17-.04.36 0 .56.15.04.03.05.08.03.13-.32.46-.3.67-.26.9.02.2.05.4-.08.73h.01c.16-.13.32-.27.5-.24.1 0 .19.07.26.17l.01.03c.11.32-.02.49-.18.7-.24.3-.6.75-.5 2.16.03.33-.01.7-.07 1.13-.06.49-.13 1.04-.1 1.71 0 .03-.01.05-.03.07s-.04.03-.07.03l-1.08.02zm.34-3.99l-.23 3.8h.87c-.02-.65.05-1.19.1-1.66.06-.42.1-.78.08-1.1-.11-1.47.28-1.96.53-2.29.14-.19.22-.29.16-.5-.05-.06-.08-.09-.13-.1-.1 0-.23.1-.36.2-.1.09-.2.18-.3.22-.04 0-.08 0-.1-.03s-.04-.07-.02-.1c.24-.46.21-.7.19-.91-.03-.24-.06-.5.24-.97-.12-.07-.23-.1-.33-.07-.21.05-.36.39-.49.67-.08.18-.16.35-.25.47a.1.1 0 0 1-.07.04.09.09 0 0 1-.08-.04 8.15 8.15 0 0 0-1.66-1.58 8.7 8.7 0 0 1-1.57-1.42c-.52-.6-.26-.93.04-1.32.1-.13.22-.28.31-.46l.01-.01c.3-.39.35-1 .12-1.62-.16-.46-.44-.85-.7-.99l.03.3c.07.53.13 1.1-.1 1.5a.1.1 0 0 1-.1.05c-.03 0-.06-.02-.07-.06a8.28 8.28 0 0 1-.17-.53c-.27-.9-.5-1.7-1.47-1.52.4.5.39.95.38 1.44 0 .4-.01.8.2 1.27.02.04 0 .1-.04.12s-.1 0-.12-.04c-.14-.26-.27-.41-.38-.55-.23-.3-.4-.5-.4-1.36a.36.36 0 0 0-.34.16c-.29.35-.33 1.26.09 2.16.2.43.53.53.88.65.4.13.82.27 1.04.9l2.87 2.54c.81.86 1.52 1.71 1.34 2.74z"/><path fill="#da121a" d="M3.6 4.45c.65.02.58-.44.35-1 .37-.32.84.34 1.3.89-.4-.52-.87-1.06-.5-1.46-.69.7-1.23-.14-.83-.49.29-.04.76.57.78-.54.33-.2.64.03.66.92.03.3.4.66.74.93.05-.34-.46-.77.36-1-.51 0-1.06-.04-.78-.68.37-.03.6.3.87-.3.65-.47.68.57.5 1.12.06 2.08 2.02 2.9 3.37 4.1l1.69.74c.27.1.91-.36-.02-.75.01-.22-.08-.6.13-.48.7.26 1.31.4 1.87.46.7.21.35-1.76.05-1.85l-1.57-.26c-.34 0-.76-.95-.68-1.08 0-.12.36-.2.63-.29.24-.07-.13-.5.16-.45 1.32-.18 2.58 0 3.82.45.52 1.12.9-.12 1.15.04.42.98.26 1.4-.16 1.54.45.22.74 1.03 1.4.5-.15 1.88-1.03.96-1.53.61.34.8.81 1.45 1.55 1.45-.32.63-.85.85-1.83.16.2.73.57 1.24 1.38 1.13-.31.57-.29 1.66-1.83.54.7.48.5 1.63 1.9 1.04-.38.64-.53 1.68-2.06.43.47.67.2 1.33 1.25 1.26-.4.94-.74 1.11-1.5.39.6.6.67 1.22 1.48 1.33-.3.36-.64.63-1.3.1 1.03 1.64 1.97 3.3 3.4 4.87 1.07 1.36 3.6 3.28 4.97.75.6-1.31-.98-3.36-2.3-4.81-1-1.25-2.28-2.4-2.22-4.77.3-2.4 1.7-3.9 2.83-5.54a2.8 2.8 0 0 0-.07-2.82c1.74.38 1.5 1.45 1.34 2.57.62-.85.45-1.85.07-2.89 1.11.51 2.49 1.29.74 3.3.45-.08.9-.63 1.34-1.31.2 1.12-.35 2.23-1.65 2.93-.67.27-1.57-.66-2.5.9-.5.82-1.02 1.63-1.05 2.99.51-.29 1.05-.98 1.68-.61-.68.76-1.32 1.36-1.05 2.1.43-.45.7-1.12 1.34-.77-.53.63-.56 1.44-.43 2.3.1.86 1.42 2.08 2.04 3.08.59.76.87 1.38.99 2.08.5 1.85-1.25 3.4-2.24 3.5a4.68 4.68 0 0 1-4.16-1.59c-.8-.82-1.4-1.7-2.05-2.4.57.95 1.12 2.02 1.06 2.97.02 1.43.81.88 1.36.63.1.9-.06 1.52-.9 1.4.8.24 1.73 1.08 2.26-.02.11.93.02 1.9-1 1.65 1.36.41 2.65.9 2.06 1.98-.32-.23-.12-.81-1.31-.45.77.43.9 1.48.29 2.17-.02-.53-.64-.76-1.24-1 .63.63.3 1.12.25 1.8l-.7-.94c.18.54.06 1.09-.54 1.63l-.54-.95c.3.45-.14.9-.4 1.36-.3.23-.74.3-.9-.41-.02 1-.29 1.32-.77.95.12-.89-.4-.69-.86-.59-.31.42-.63.74-1.06.2-.34.37-.66 1.29-1.06.43.52-.36.02-.65-.2-.9-.09-.38-.05-.86.88-.2.25.26.98.06 1.13-.11-.74.22-1.2.35-1.5-.72-.23.89-.93.57-1.21.22.43-.02.5-.34.52-1.04.1-.8.63-.22.92.36.29.4.56.49 1.13.46-.61-.13-.5-.71-.1-1.31-.68.42-1.22.52-.98-.73.52.3.82.15.81-.63.17-.36.9.31.66 1.31-.01.62 1.34.42 1.58-.38.26-1.53-.49-2.21-.97-3.46-.21.4-.42.8-1.09.72.94-1.39-1.12-2.6-.18-4.72-1.37-.1-1.88.57-1.94 1.74.36.17.72.13 1.08 0-.12.84-.55 1.23-1.4 1 .55.33.71.81 1.9.9-.33.77-.63 1.2-1.63.35.48.72 1.18 1.43-.09 2.08.3-.9-.33-1.21-1.04-1.47.72.77.34 1.27-.13 1.74.09-.79-.45-1.17-1.2-1.42.17.55.26 1.1-.34 1.47-.52-1.13-1.35-1.13-1.44-1.61-.11-.8-.33-.73-.5-1.1.05.5.94 1.27-.14 1.38-.28-.81-.6-.67-.95-.3-.53.3-.28-.5-.31-.9-.02.66.08 1.5-.93.48.93 1.05-.55 1.6-.56 1.2.2-.86-.07-1.05-.5-1.27-.36-.83 1.24-.07 1.71-.68-.47-.01-1.23.48-1.22-.4-.13.8-.95 1.26-1.17.38.33-.18.62-.45.25-.92-.15-.62.65-.21 1.06.02.34.23.72.44 1.54.43-.95-.37-1.5-.72-1-1.29-.43.6-1.38.5-1.17-.27.34-.05 1.03.44.65-.72.03-.35.89-.19 1.05.9.18.38 1.55.45 2.44.2.78-.2.66-.57.52-1.22-.66-2.04-.05-1.98.36-2.5 1-.88 2.44-1.27 3.52-1.61-.14-1.41-1.44-1.54-.88-2.76-.4.14-1.02.7-1.15-.07.18-.32.4-.81-.03-1.44-.03.54-.13.92-.63 1.06-.5-1.43-2-1.2-3.05-2.22.22.42.9.76.5 1.27-.62-.05-.6-.63-1.2-.59a2.36 2.36 0 0 1-1.42-.7c.45.52.86 1.51 0 .9-.31-.57-.42-.14-.81.07-.42.07-.45-.24-.37-.68-.3.67-.55.13-.81-.32.56 1.42-.63 1.57-.77.81.02-.38.08-.79-.2-.95-.04-.94 1.14.08 1.45-.27-.5-.1-1.03.06-.93-.9-.62 1.1-.95.68-1.06.37.24-.27.54-.23.61-1.27.47-.2.73.55 1.09.95-.29-.4-.74-.8-.14-1.06-1.17.04-.48-.51-.7-.79.5.1 1.02.2 1.11-.52.53 0 .45.62.46 1.15.34 1 1.16.86 1.83.84 1.09.01 1.83-.43 2.63-1.11-.5.11-.99 1.02-1.48.22.26-.04.05-.33.64-.92-.56.47-1.11.27-1.45.74-.14-1.15.62-.93.59-1.91-.28.72-.6 1.05-1 .8.13-.58.53-.72.24-1.99.06.8-.02 1.36-.64 1.03.26-.62.18-.98-.52-.78-.15.08-.72-.17-.54-.64-.25.57-.66.83-1.01.05z"/><path fill="#000" d="M13.73 31.08h-.03c-.15 0-.28-.14-.4-.4a.1.1 0 0 1 .03-.12c.12-.08.18-.16.19-.24 0-.13-.14-.26-.26-.38l-.15-.15a.06.06 0 0 1-.02-.04.9.9 0 0 1-.02-.4 1.1 1.1 0 0 1-.66-.38c-.03-.03-.03-.06-.01-.1a.09.09 0 0 1 .08-.05c.33-.02.42-.22.43-.95v-.02c.04-.28.13-.44.28-.46.35-.06.73.64.82.79.18.26.36.37.67.4a.47.47 0 0 1-.1-.14c-.1-.25-.01-.55.12-.82-.3.15-.53.17-.68.06-.2-.14-.24-.47-.13-1.05 0-.03.02-.06.05-.07s.05-.01.08 0c.23.14.4.17.5.11.12-.07.18-.3.18-.65v-.05a.25.25 0 0 1 .33-.13c.32.11.67.73.5 1.5 0 .17.15.23.28.25.36.05.97-.18 1.12-.67.18-1.08-.14-1.71-.52-2.45-.13-.24-.25-.5-.37-.77-.19.34-.45.67-1.09.6-.03-.01-.06-.03-.07-.06s-.01-.06 0-.1c.43-.62.2-1.22-.05-1.9-.29-.75-.61-1.6-.18-2.68-.54-.02-.95.1-1.22.34-.29.26-.46.67-.5 1.26.29.12.6.1.96-.03.03-.01.06 0 .1.02.02.02.03.05.03.08-.08.5-.25.83-.52 1a.98.98 0 0 1-.6.14l.07.07c.32.27.62.53 1.46.59.03 0 .05.02.07.04s.02.06 0 .09c-.16.4-.35.78-.69.86-.18.04-.38-.01-.63-.15.22.33.4.67.32 1.02-.07.29-.32.53-.75.75-.03.02-.08.01-.1-.01s-.04-.06-.04-.1c.23-.7-.13-1-.67-1.23.46.67.08 1.16-.35 1.6-.03.02-.07.03-.1.01s-.06-.05-.05-.1c.06-.58-.24-.98-.97-1.26.13.52.16 1.03-.43 1.4-.03.01-.05.02-.08.01s-.05-.02-.05-.05a2.5 2.5 0 0 0-.98-1.1c-.2-.14-.37-.26-.44-.44-.08.14-.27.23-.57.26a.09.09 0 0 1-.1-.06c-.1-.32-.23-.5-.36-.53-.1-.03-.25.06-.43.27l-.02.02c-.06.03-.23.12-.36.03l-.06-.05a.27.27 0 0 1-.08.06c-.11.04-.25.01-.42-.11a.7.7 0 0 1-.08.57c-.17.3-.55.45-.77.39-.11-.03-.18-.1-.18-.2v-.03c.2-.8-.03-.96-.45-1.16-.02-.01-.04-.03-.04-.05a1.24 1.24 0 0 1-.06-.17h-.08c-.12 0-.43-.03-.55-.55-.01-.04 0-.08.04-.1.23-.13.35-.25.37-.38.03-.11-.02-.25-.15-.41l-.01-.04c-.05-.18-.02-.31.08-.39.2-.16.66.06 1.11.3v.02c.26.16.53.32.98.38-.4-.2-.68-.4-.74-.66-.02-.05-.02-.1-.02-.14a.82.82 0 0 1-.73.05c-.25-.13-.34-.39-.25-.71.01-.04.03-.06.07-.07.1-.02.22 0 .33.02.13.03.28.05.33 0 .03-.04.07-.17-.08-.62v-.04c.01-.14.12-.24.29-.25.31-.01.8.33.93 1.14.18.3 1.45.38 2.33.14.66-.18.6-.45.47-1.04l-.02-.07c-.55-1.7-.23-2 .14-2.35.08-.07.17-.15.24-.25h.01a8.62 8.62 0 0 1 3.25-1.53l.24-.08c-.08-.55-.35-.9-.59-1.2-.28-.37-.56-.72-.36-1.32l-.1.05c-.25.13-.51.27-.73.16-.12-.07-.21-.2-.25-.44 0-.01 0-.04.02-.06.16-.27.3-.63.12-1.08-.06.36-.2.7-.67.83-.05.01-.1-.01-.1-.05-.3-.81-.9-1.06-1.6-1.35a5.78 5.78 0 0 1-.84-.39c.17.23.28.5.03.82a.1.1 0 0 1-.08.03c-.33-.02-.5-.2-.65-.34s-.27-.26-.53-.24h-.02a2.22 2.22 0 0 1-1-.36c.15.28.24.56.13.7-.13.14-.4-.02-.6-.15l-.02-.03c-.1-.2-.17-.24-.2-.24-.04-.01-.11.05-.19.12-.08.07-.18.15-.3.22h-.02c-.18.04-.31.01-.4-.08-.07-.07-.1-.18-.11-.34a.26.26 0 0 1-.15.06c-.11.01-.21-.06-.3-.17.03.35-.08.54-.16.64a.5.5 0 0 1-.51.15c-.22-.06-.38-.25-.43-.51v-.14c.03-.33.05-.63-.16-.75-.02-.02-.04-.04-.04-.07-.01-.22.04-.36.15-.44.13-.1.3-.08.5-.03a.74.74 0 0 1-.13-.38c-.24.34-.45.49-.65.47-.23-.02-.35-.26-.4-.41a.09.09 0 0 1 .01-.1l.18-.15c.19-.14.36-.28.41-1.05 0-.04.03-.07.06-.08.24-.11.45 0 .62.19.02-.05.04-.1.07-.13-.22-.02-.36-.07-.44-.16-.1-.13-.07-.28-.04-.4.03-.11.05-.2 0-.26-.02-.04-.02-.08 0-.1s.05-.06.09-.05l.05.01c.3.06.58.1.76-.02.1-.08.16-.22.2-.43a.1.1 0 0 1 .09-.08c.55 0 .54.57.54 1.03v.2c.28.82.92.79 1.55.76h.19a3.1 3.1 0 0 0 1.57-.38H7.6c-.15-.04-.3-.15-.43-.37-.02-.02-.02-.05 0-.09s.03-.04.06-.05c.06-.01.06-.02.1-.14.04-.09.07-.2.16-.35l-.37.12c-.26.06-.46.12-.62.34a.1.1 0 0 1-.1.04.1.1 0 0 1-.06-.08c-.08-.6.08-.85.25-1.07a.59.59 0 0 1-.16.09.52.52 0 0 1-.46-.07.12.12 0 0 1-.05-.1c.04-.17.1-.3.16-.44.07-.15.14-.3.17-.5a.36.36 0 0 1-.12.13c-.14.09-.32.07-.56-.06-.04-.02-.06-.07-.04-.11.14-.32.17-.55.09-.65-.07-.08-.24-.08-.49 0-.12.05-.34 0-.5-.14a.52.52 0 0 1-.15-.22c-.11.16-.25.24-.38.25-.22 0-.41-.17-.58-.54a.09.09 0 0 1 0-.09.08.08 0 0 1 .08-.04h.01c.2 0 .32-.04.38-.12.08-.12.05-.37-.12-.76a.08.08 0 0 1 .03-.1c.09-.09.2-.12.3-.1.13 0 .25.07.37.17a.71.71 0 0 1-.04-.28.6.6 0 0 1-.43.06.54.54 0 0 1-.38-.4.5.5 0 0 1 .15-.5l.04-.02c.1-.02.22.03.32.06.1.05.2.08.26.05.04-.03.12-.14.14-.57a.1.1 0 0 1 .04-.08c.15-.1.31-.1.44-.03.23.13.35.49.36 1.03.01.18.2.42.53.71l-.03-.08c-.05-.15-.1-.32 0-.48a.5.5 0 0 1 .12-.15c-.21-.02-.41-.08-.5-.24-.1-.13-.09-.32.02-.56a.09.09 0 0 1 .08-.05c.12 0 .22.02.32.04.2.05.3.07.47-.3l.03-.03c.26-.19.43-.14.53-.07.28.2.24.87.11 1.28.05 1.54 1.2 2.39 2.31 3.21.35.25.7.52 1.02.8l1.67.73c.1.04.29-.04.34-.16.04-.13-.1-.3-.43-.42a.08.08 0 0 1-.05-.1V6.7c0-.18-.01-.33.08-.4a.22.22 0 0 1 .19.02 6.78 6.78 0 0 0 1.85.46c.09.03.18.03.24-.15.17-.46-.09-1.45-.24-1.52l-1.55-.26c-.22 0-.43-.28-.55-.5 0 0-.3-.5-.22-.7.03-.14.27-.22.64-.33l.06-.02c.02 0 .03-.02 0-.15-.03-.1-.05-.2.01-.26a7.86 7.86 0 0 1 4.02.42c.02 0 .04.02.05.05.15.32.27.4.35.42.11.02.24-.12.35-.23.12-.13.27-.29.42-.18l.03.04c.26.6.32 1.03.19 1.32a.6.6 0 0 1-.24.27c.1.07.17.15.25.23.28.28.5.5.9.18.03-.03.06-.03.1 0s.04.05.04.08c-.06.68-.21 1.07-.48 1.19-.29.13-.62-.08-.9-.3.38.73.8 1.07 1.31 1.07.03 0 .06.01.08.04s.02.06 0 .09c-.17.34-.39.54-.66.6-.3.08-.65 0-1.07-.26.23.64.61.9 1.19.82.04 0 .07.01.09.04.01.03.02.06 0 .1-.05.1-.1.2-.14.33-.11.3-.23.62-.54.72-.2.06-.44 0-.75-.14l.1.16c.25.44.43.75 1.29.38.04-.02.08 0 .1.03s.04.07.02.1l-.16.3c-.16.33-.33.68-.68.75-.27.07-.6-.04-1.02-.33l.1.25c.13.4.22.64.86.6.03 0 .06 0 .08.03s.03.06.01.1c-.24.56-.45.82-.7.87a.57.57 0 0 1-.37-.04l.04.04c.26.37.44.64.94.7a.1.1 0 0 1 .07.07c.02.03.01.07-.01.1-.26.29-.56.57-1.07.33l.23.36a27.2 27.2 0 0 0 2.94 4.16c.61.78 1.98 2.05 3.27 1.94.63-.05 1.15-.45 1.55-1.18.44-.98-.33-2.56-2.3-4.7v-.01l-.43-.52c-.92-1.1-1.86-2.23-1.8-4.3v-.01c.25-2 1.25-3.38 2.22-4.71l.62-.86c.47-1 .44-1.9-.07-2.74a.1.1 0 0 1 0-.1c.02-.03.07-.04.1-.04 1.55.35 1.6 1.26 1.47 2.2.33-.78.1-1.63-.18-2.4-.01-.03 0-.07.02-.1a.1.1 0 0 1 .1-.01c.74.34 1.45.75 1.6 1.44.11.49-.07 1.05-.57 1.7.34-.24.67-.7.94-1.12.02-.03.05-.05.1-.04a.1.1 0 0 1 .07.07c.22 1.2-.4 2.34-1.7 3.04-.24.1-.5.06-.75.02-.55-.08-1.11-.17-1.72.85l-.04.06c-.47.78-.91 1.51-.98 2.7l.23-.17c.4-.3.87-.65 1.39-.34.02 0 .04.03.04.06s0 .06-.02.08l-.2.21c-.54.6-.98 1.1-.87 1.65l.16-.2c.3-.39.62-.78 1.17-.47.03 0 .05.03.05.06s0 .05-.02.07c-.44.52-.56 1.2-.41 2.23.06.52.62 1.2 1.15 1.87.31.39.64.8.87 1.17.57.72.87 1.35 1.01 2.1.27.99-.08 1.8-.43 2.29a3.04 3.04 0 0 1-1.88 1.33 4.8 4.8 0 0 1-4.24-1.61 18.51 18.51 0 0 1-1.47-1.72c.38.74.68 1.5.64 2.22 0 .45.08.72.23.81.2.13.53-.03.8-.17l.19-.1a.09.09 0 0 1 .08.02c.03 0 .04.04.05.06.08.66 0 1.08-.23 1.32a.7.7 0 0 1-.3.17c.05.03.1.06.17.08.64.29 1.18.54 1.54-.21.02-.04.06-.06.1-.05s.08.04.08.08c.1.8 0 1.35-.28 1.61a.66.66 0 0 1-.23.14c.8.27 1.46.58 1.66 1.07.1.26.08.56-.1.87 0 .02-.03.04-.05.04-.03 0-.06 0-.08-.02a.58.58 0 0 1-.2-.27c-.12-.2-.21-.38-.83-.22.28.22.47.54.53.9.08.46-.06.93-.39 1.3-.02.03-.06.03-.1.02s-.06-.04-.06-.08c0-.38-.39-.6-.85-.79.25.4.19.76.11 1.14-.02.14-.05.28-.06.44-.01.04-.04.07-.07.08s-.08 0-.1-.03l-.46-.6c.03.47-.18.9-.65 1.32-.02.02-.05.02-.07.02a.11.11 0 0 1-.07-.04l-.29-.5c-.05.22-.2.45-.34.67l-.15.24-.02.03c-.2.16-.43.22-.62.15a.54.54 0 0 1-.28-.23c-.05.42-.16.67-.34.76-.15.07-.34.02-.55-.14-.03-.02-.04-.05-.04-.09.04-.27.01-.44-.07-.52-.1-.1-.33-.04-.55.02l-.1.01c-.17.24-.39.5-.66.5-.15 0-.3-.08-.45-.24l-.16.23c-.19.29-.35.53-.57.53zm-.23-.41c.08.14.15.22.22.23.12 0 .28-.23.41-.42l.25-.33a.1.1 0 0 1 .08-.04c.02 0 .04.02.06.04.13.17.26.25.37.25.2-.01.37-.22.55-.45a.1.1 0 0 1 .05-.04l.12-.02c.27-.06.54-.13.72.03.13.11.17.32.14.63.13.09.23.12.31.08.1-.04.25-.23.27-.99a.1.1 0 0 1 .08-.1c.05 0 .08.03.1.08.06.27.17.43.31.48.13.04.28 0 .43-.12l.15-.23c.22-.33.43-.64.28-.94l-.03-.07c-.03-.04-.02-.1.03-.12s.1-.01.12.03l.05.08.44.77c.47-.45.6-.93.43-1.45 0-.05.01-.1.05-.11s.08-.01.11.02l.57.75.04-.23c.09-.45.15-.81-.3-1.25-.02-.03-.03-.08 0-.12s.06-.05.1-.04h.02c.54.22 1.1.43 1.24.86.2-.3.28-.65.22-1a1.22 1.22 0 0 0-.61-.87.1.1 0 0 1-.05-.1.1.1 0 0 1 .06-.08c.87-.27 1.07-.05 1.24.26l.08.13a.8.8 0 0 0 .04-.6c-.22-.53-1.16-.85-2.1-1.15a.09.09 0 0 1-.06-.1c.02-.06.07-.08.11-.07.3.06.51.03.66-.1.2-.19.3-.6.25-1.17-.44.6-1.07.3-1.64.05-.2-.08-.4-.18-.58-.23-.05-.01-.08-.06-.07-.11s.05-.08.1-.08c.29.04.49 0 .62-.13.18-.18.24-.52.2-1.04l-.06.03c-.33.16-.7.35-.98.17-.22-.13-.32-.45-.33-.97.06-.93-.5-2-1.05-2.91-.02-.04 0-.1.03-.12s.1-.03.12 0c.3.33.6.7.91 1.08.36.43.73.88 1.15 1.33a4.61 4.61 0 0 0 4.08 1.55c.5-.05 1.25-.5 1.76-1.25.32-.47.65-1.22.4-2.13a4.47 4.47 0 0 0-.97-2.05h-.01c-.22-.37-.55-.77-.86-1.16-.55-.68-1.12-1.39-1.19-1.95-.1-.7-.15-1.58.38-2.29-.35-.13-.54.09-.85.47-.09.11-.18.23-.28.33-.02.03-.05.03-.08.03s-.06-.03-.07-.06c-.27-.71.26-1.3.87-1.98l.1-.12c-.37-.15-.71.11-1.07.39-.14.1-.27.2-.4.27-.03.02-.06.02-.1 0s-.04-.05-.04-.08a5.48 5.48 0 0 1 1.02-2.96l.04-.07c.67-1.12 1.35-1.02 1.9-.93.25.03.47.06.65 0 1.12-.62 1.72-1.57 1.63-2.6-.37.54-.8 1.06-1.26 1.14-.03 0-.08 0-.1-.04s0-.07.02-.1c.63-.73.9-1.35.78-1.85-.12-.55-.67-.92-1.3-1.22.32.89.5 1.89-.15 2.77-.03.04-.07.05-.11.03a.1.1 0 0 1-.06-.1l.02-.13c.16-1.02.3-1.9-1.08-2.29.45.85.44 1.74-.03 2.73l-.63.88c-.95 1.3-1.94 2.66-2.19 4.62-.05 2.01.87 3.11 1.77 4.19l.42.51c2.02 2.2 2.8 3.86 2.32 4.91-.43.8-1 1.23-1.7 1.28-1.36.12-2.79-1.2-3.43-2a27.48 27.48 0 0 1-2.95-4.19l-.44-.71c-.03-.04-.02-.09.02-.12s.08-.03.11 0c.52.43.8.3 1.06.05-.46-.12-.67-.41-.9-.75a3.73 3.73 0 0 0-.46-.58c-.04-.03-.04-.09 0-.13s.1-.03.13 0c.34.33.58.46.76.42.17-.04.34-.23.52-.64-.65 0-.77-.33-.9-.71a2.1 2.1 0 0 0-.27-.6.1.1 0 0 1 .01-.12.1.1 0 0 1 .12 0c.54.43.92.61 1.2.55.27-.06.41-.35.56-.66a.57.57 0 0 1 .05-.08c-.82.27-1.06-.15-1.29-.56-.12-.2-.24-.42-.44-.56 0-.01-.01-.02-.03-.02-.04-.03-.05-.09-.01-.13s.08-.05.12-.03c.02 0 .02.02.04.03.5.35.85.5 1.09.43.22-.07.32-.33.42-.6l.08-.21c-.86.03-1.16-.67-1.31-1.21a.09.09 0 0 1 .03-.1.08.08 0 0 1 .1 0c.48.33.87.46 1.16.4a.79.79 0 0 0 .47-.4c-.78-.08-1.22-.87-1.49-1.49-.02-.03 0-.08.03-.1.03-.03.08-.04.1-.01l.2.14c.27.2.6.45.83.35.17-.08.29-.37.35-.85-.43.23-.73-.07-.97-.3-.13-.12-.24-.24-.36-.3a.1.1 0 0 1-.05-.09c0-.03.03-.06.06-.08a.46.46 0 0 0 .3-.24c.1-.23.04-.6-.18-1.12-.04.02-.11.1-.16.14-.14.15-.3.33-.52.3-.17-.04-.33-.2-.47-.5a7.69 7.69 0 0 0-3.74-.43h-.04l.02.08c.02.1.07.32-.13.37h-.06c-.16.05-.47.14-.51.2v.03c-.02.08.13.48.35.76.1.11.18.18.25.18h.01l1.57.27h.01c.3.09.52 1.25.38 1.73-.08.25-.25.36-.47.3a7.38 7.38 0 0 1-1.89-.47.34.34 0 0 0 0 .2v.14c.54.24.5.52.46.63-.08.2-.37.34-.57.26l-1.69-.74-.02-.01c-.32-.28-.68-.54-1.02-.8-1.15-.85-2.34-1.73-2.4-3.37l.01-.03c.13-.38.13-.97-.05-1.1-.08-.05-.2 0-.29.07-.2.44-.41.43-.67.37a1.16 1.16 0 0 0-.2-.04c-.06.15-.07.26-.02.33.1.16.46.17.73.17.04 0 .09.04.1.08s-.03.09-.07.1c-.2.05-.33.13-.38.21-.05.1 0 .22.03.35a.8.8 0 0 1 .05.36c0 .03-.02.06-.05.07s-.07 0-.1 0c-.5-.4-.74-.73-.77-1 0-.47-.1-.79-.27-.88-.06-.04-.13-.04-.21 0-.01.38-.08.58-.22.67-.13.1-.28.02-.43-.03a.7.7 0 0 0-.2-.06c-.07.07-.09.18-.07.3.04.13.13.23.26.26.15.04.35-.04.53-.23a.1.1 0 0 1 .13 0 .1.1 0 0 1 .01.12c-.29.32.08.8.44 1.25l.07.09c.03.04.02.1-.01.13s-.1.02-.13-.01l-.14-.18c-.3-.36-.62-.74-.86-.76-.04 0-.08 0-.11.02.12.32.22.66.06.88-.08.1-.2.17-.38.19.1.2.23.31.34.3.13 0 .28-.17.38-.45v-.02a.09.09 0 0 1 .12-.05c.05.02.08.08.06.12v.01c-.07.2.01.32.1.4.12.11.27.14.3.12l.01-.01c.34-.1.56-.08.68.06.13.15.13.4-.01.76.13.06.22.07.28.03.14-.08.19-.42.15-1-.01-.05.03-.09.08-.1s.09.03.1.07c.21.95.05 1.3-.1 1.63l-.13.33c.09.05.17.05.25.03.2-.07.38-.34.56-.82a.1.1 0 0 1 .1-.06c.05 0 .08.05.09.09 0 .5-.17.72-.33.92-.15.19-.3.37-.28.79.16-.14.36-.2.57-.25.24-.07.49-.14.74-.35.04-.03.1-.03.13 0s.03.1 0 .14c-.31.31-.39.53-.44.68-.03.09-.05.17-.12.22.08.1.17.17.25.18.17.03.36-.1.56-.26.16-.12.33-.24.5-.28.05-.01.09.01.1.05s.02.09-.01.11c-.8.7-1.55 1.15-2.69 1.13h-.17c-.63.04-1.41.07-1.74-.9v-.25c0-.48-.02-.78-.29-.84-.04.22-.12.37-.25.47-.21.16-.5.12-.8.07a.5.5 0 0 1-.03.24c-.02.12-.04.2 0 .25.05.05.19.11.6.1a.1.1 0 0 1 .09.07c0 .04-.02.08-.06.1-.13.06-.21.13-.24.2-.01.07 0 .13.04.21l.1.13.08.12.05.08.14.18c.03.05.02.1-.02.13s-.09.02-.12-.02l-.2-.26c-.07-.1-.14-.18-.18-.27-.2-.3-.36-.46-.55-.41-.06.8-.28.97-.48 1.13l-.11.09c.03.08.11.23.22.24.1 0 .31-.07.65-.66.01-.04.06-.06.1-.05s.07.06.07.1c-.07.7.18.72.57.76l.28.04c.03 0 .05.03.07.06s0 .07-.02.1c-.17.19-.47.09-.77-.01-.22-.07-.48-.15-.59-.07-.04.03-.07.11-.07.24.25.18.23.53.2.88v.1c.04.19.14.32.3.36.1.04.23 0 .31-.09s.24-.37-.02-1.03c-.02-.05 0-.1.04-.12s.1 0 .13.04l.05.08c.12.22.28.5.4.5.02 0 .1-.03.2-.26.01-.04.06-.06.1-.05s.08.07.07.1c-.06.3-.05.47.02.55.05.04.11.05.22.03.1-.05.18-.12.25-.19.1-.1.21-.19.34-.16.11.02.2.1.31.31.27.19.34.16.34.16.04-.07-.14-.56-.48-.94-.03-.04-.03-.1.01-.13s.1-.04.13 0c.55.5.94.63 1.37.67.33-.02.5.14.66.3.13.13.25.25.49.29.18-.26.02-.46-.25-.75a1.63 1.63 0 0 1-.29-.38c-.02-.04 0-.1.03-.11s.09-.03.12 0c.41.4.9.6 1.38.8.69.28 1.34.55 1.66 1.37.37-.15.46-.46.49-.95 0-.04.03-.08.06-.1s.08.02.1.05c.42.64.23 1.17.04 1.51.03.14.08.23.15.27.13.07.36-.05.56-.16l.32-.14c.03-.01.07 0 .1.03s.03.06 0 .1c-.29.62-.05.92.27 1.33.27.34.57.72.63 1.37a.1.1 0 0 1-.06.1l-.31.1c-1.02.31-2.28.7-3.17 1.48l-.25.27c-.33.3-.6.56-.09 2.15l.02.08c.14.6.23 1.03-.6 1.26-.85.23-2.32.21-2.55-.26v-.02c-.1-.7-.5-1-.75-1-.07 0-.1.03-.11.07.13.42.14.66.03.79-.12.13-.32.1-.5.06l-.2-.03c-.05.2.01.36.16.43.21.1.56.04.8-.22a.79.79 0 0 1 .06-.08.1.1 0 0 1 .13-.02.1.1 0 0 1 .02.13l-.07.09c-.08.12-.11.23-.09.32.07.3.6.54 1.12.75.04.01.06.06.05.1 0 .04-.04.07-.1.07-.83.02-1.22-.2-1.58-.44-.67-.37-.86-.36-.91-.32-.03.03-.04.09-.02.18.15.2.2.38.17.55-.04.21-.23.37-.4.46.08.23.2.35.35.35a.2.2 0 0 0 .11-.03l.02-.02c.04-.07.12-.1.2-.13.14-.14.26-.36.3-.61 0-.05.05-.08.1-.08s.09.04.09.09c0 .2.03.32.1.38.12.1.36.05.59 0 .15-.03.3-.07.44-.07.04 0 .07.02.08.06a.1.1 0 0 1-.01.1c-.25.31-.76.3-1.16.29h-.43a.6.6 0 0 1-.17.12l.03.13c.45.23.73.47.52 1.34 0 .01.01.03.04.03.13.04.43-.08.57-.3.15-.25.08-.55-.21-.87-.03-.04-.03-.1 0-.13s.1-.03.13 0c.45.46.61.47.65.45s.08-.1.1-.19l.01-.3.02-.12v-.25c0-.05.04-.08.09-.09.05 0 .09.04.09.09v.25c0 .16 0 .3-.03.44 0 .09.02.17.05.19.02.01.06 0 .15-.04.16-.17.37-.36.6-.31.19.04.34.22.47.58.2-.03.32-.09.36-.17.07-.12-.05-.36-.17-.58-.09-.18-.18-.35-.2-.52 0-.04.03-.08.07-.1s.1 0 .1.05c.06.11.12.18.17.25.13.16.26.32.35.87.03.16.18.27.39.41.3.2.69.48 1 1.08.45-.33.36-.79.2-1.3 0-.03 0-.07.03-.1s.06-.03.1-.01c.53.18 1.22.5 1.26 1.27.38-.41.55-.81-.03-1.44a.1.1 0 0 1 0-.1c.02-.05.06-.06.1-.05.67.25 1.31.56 1.15 1.37.27-.16.42-.34.47-.53.08-.34-.17-.7-.45-1.1l-.15-.21a.1.1 0 0 1 .02-.13.1.1 0 0 1 .12 0c.4.34.7.48.91.43.21-.05.36-.27.52-.64-.8-.08-1.12-.35-1.44-.61a2.9 2.9 0 0 0-.37-.29c-.04-.02-.06-.07-.04-.11s.07-.06.11-.05c.36.1.65.08.85-.05.2-.13.34-.37.41-.72-.38.1-.7.09-1-.05a.1.1 0 0 1-.06-.09c.04-.67.22-1.14.56-1.45s.82-.42 1.48-.38c.03 0 .06.02.08.05s.01.05 0 .08c-.47 1.07-.15 1.92.13 2.66.25.66.5 1.28.13 1.95.49 0 .66-.32.84-.68a.1.1 0 0 1 .09-.05c.03 0 .06.03.08.06.13.34.28.64.43.93.38.74.74 1.43.55 2.58-.18.6-.9.88-1.33.81-.28-.04-.44-.2-.43-.45v-.02c.16-.69-.17-1.21-.38-1.28a.08.08 0 0 0-.1.02c.01.42-.08.68-.26.79-.15.08-.34.07-.57-.05-.09.54 0 .7.08.75.08.06.28.06.77-.24.03-.03.08-.02.11 0s.04.09.02.12c-.26.4-.37.75-.28.95.05.11.15.19.33.23a.1.1 0 0 1 .07.1.1.1 0 0 1-.08.08c-.63.03-.92-.09-1.2-.5h-.02c-.23-.46-.5-.73-.61-.7-.07 0-.11.12-.14.3-.01.56-.05.97-.42 1.09.14.12.33.21.5.2l.02-.02a.3.3 0 0 1 .16-.05c.11-.08.2-.22.25-.44a.09.09 0 0 1 .1-.06c.03 0 .07.03.08.06.1.4.24.65.42.75.23.12.55.03.95-.1.04 0 .08.02.1.05s.02.08 0 .1c-.13.15-.48.27-.79.28a.7.7 0 0 1-.48-.15c-.32-.23-.5-.3-.6-.3l-.13.05c-.04.06-.04.18 0 .34l.12.12c.15.15.33.32.31.53.02.1-.05.2-.19.3zm.08-1.52l.25.12c-.05-.09-.1-.19-.14-.3a.84.84 0 0 1-.11.18zm-8.5-5.9h.22a.38.38 0 0 1-.06-.04.5.5 0 0 1-.1-.14l-.1.18h.04zm6.9-19.48zm0-.03zm.01-.01z"/><path fill="#0f47af" d="M12.59 2.94a9.24 9.24 0 0 1 3.88.45L17 2.7c.4.65 1.4-.26.15-.53.92-.6-.51-1.3-.5-.2-.6-.76-1.2.25-.21.46-.23.45-1.48.17-1.37-.34.77.22.94-.78.04-.58.25-.89-.84-1.03-.61-.03-.79-.53-.82.77-.12.5-.15.71-1.29.64-1.4.09.77.21.94-1.07-.09-.54.15-1.1-1.15-.77-.64.06-1.06-.15-.54 1.13.14.61.13.28.31.65.2.73z"/><path fill="#000" d="M16.47 3.48h-.03a8.98 8.98 0 0 0-3.85-.45.1.1 0 0 1-.1-.07c0-.03 0-.08.04-.1.03-.07-.1-.34-.18-.52-.2.12-.41.1-.59-.03-.17-.13-.25-.38-.17-.56.03-.09.15-.26.5-.26-.09-.23-.07-.44.07-.6s.35-.2.53-.11c.1.04.31.19.3.6.37-.14.54-.03.62.05.12.12.13.33.02.5a.54.54 0 0 1-.5.26c.1.14.32.22.52.22.22 0 .46-.08.57-.3a.4.4 0 0 1-.37-.18.48.48 0 0 1 .04-.57c.06-.05.2-.15.47-.05-.03-.36.12-.5.2-.55.13-.09.3-.08.44.02s.26.3.2.62c.35-.04.49.11.53.18.08.13.08.3-.02.43s-.29.24-.57.2c.03.12.2.23.35.28.25.1.58.1.75 0-.26-.1-.43-.27-.44-.47-.02-.17.08-.33.23-.39s.35-.01.52.13c.07-.35.3-.43.4-.45.22-.04.47.08.55.29.04.09.09.3-.17.54.41.13.49.34.5.46 0 .18-.13.34-.32.4a.5.5 0 0 1-.53-.15l-.46.59c0 .03-.03.04-.05.04zm-2.91-.66c1.07 0 1.9.11 2.88.46l.48-.63c.02-.02.05-.04.08-.04s.05.02.07.05c.1.15.25.22.4.17.11-.04.2-.13.19-.22-.01-.14-.21-.27-.54-.34-.04-.01-.06-.04-.08-.08 0-.04 0-.07.05-.1.21-.13.3-.3.25-.43-.05-.12-.21-.2-.35-.17-.17.03-.27.21-.27.48 0 .04-.02.07-.06.09s-.08 0-.1-.03c-.16-.2-.32-.28-.45-.23a.2.2 0 0 0-.12.2c0 .17.18.3.45.35.03 0 .05.02.06.05v.08c-.15.3-.65.33-1.05.19-.35-.12-.53-.36-.48-.6 0-.02.02-.05.04-.06L15.1 2c.25.07.41 0 .48-.1.05-.07.06-.16.02-.22-.07-.1-.25-.13-.47-.08-.03 0-.06 0-.09-.02s-.03-.06-.02-.09c.08-.3-.01-.48-.11-.56a.21.21 0 0 0-.24-.02c-.11.08-.15.29-.08.56 0 .03-.01.07-.04.1s-.07.02-.1 0c-.18-.13-.34-.15-.42-.07s-.08.23-.01.33c.06.1.17.12.32.07a.1.1 0 0 1 .1 0 .1.1 0 0 1 .02.1c-.07.36-.39.6-.8.6-.4 0-.71-.21-.77-.5 0-.04.01-.07.04-.1s.05-.03.08-.01c.3.08.43-.1.46-.15.06-.1.07-.22 0-.28-.08-.1-.28-.07-.54.06a.08.08 0 0 1-.09 0 .08.08 0 0 1-.04-.1c.04-.29-.03-.5-.18-.56a.28.28 0 0 0-.32.07c-.11.12-.1.31.04.53.02.03.02.07 0 .1s-.06.04-.1.04c-.25-.04-.42.02-.48.14-.04.11 0 .26.12.35.13.1.3.09.46-.04a.1.1 0 0 1 .14.03v.01c.12.26.23.5.24.66l.85-.03z"/><path fill="#fff" d="M14.78 3.97a.35.35 0 1 1-.7 0 .35.35 0 0 1 .7 0z"/><path fill="#000" d="M14.75 3.85c0 .12-.1.22-.22.22s-.21-.1-.21-.22a.22.22 0 0 1 .43 0z"/><path fill="#000" d="M17.68 29.63c-.05 0-.1-.04-.1-.09v-.03c0-.09 0-.19-.04-.22-.03-.02-.1-.02-.2 0a.1.1 0 1 1-.05-.17c.16-.04.28-.04.36.03.11.08.12.22.13.35v.03c0 .06-.04.1-.1.1zm.3-.48a.1.1 0 0 1-.09-.06.22.22 0 0 1 0-.07c-.05-.19-.09-.36-.52-.33-.05 0-.09-.04-.1-.09s.04-.1.1-.1c.58-.04.65.3.69.49l.01.05a.1.1 0 0 1-.06.11h-.02zm-2.46-.02c-.05 0-.08-.04-.09-.09s.03-.1.09-.1l.52-.05c.05 0 .1.04.1.09s-.03.1-.09.1l-.52.05zm1-.27c-.05 0-.1-.03-.1-.08s.03-.1.08-.1l.53-.07c.05-.01.1.03.1.08s-.03.1-.08.1l-.52.07h-.02zm2.58-.3c-.05 0-.08-.03-.09-.08-.01-.17-.03-.39-.1-.44 0-.01-.01-.02-.03-.02-.05.01-.1-.03-.1-.08s.03-.1.08-.1c.07 0 .13.01.18.06.12.1.14.33.15.57.01.04-.03.09-.09.1zm-1-.14h-.03c-.05-.02-.08-.07-.06-.11.1-.35.27-.6.57-.78a.1.1 0 0 1 .12.03.1.1 0 0 1-.03.13c-.17.11-.38.28-.48.67-.02.03-.06.06-.1.06zm.99-.56a.1.1 0 0 1-.1-.09c0-.27.12-.38.22-.48.12-.1.23-.21.14-.71 0-.05.03-.1.08-.1s.1.02.1.07c.1.56-.02.72-.2.88-.08.08-.15.15-.15.35 0 .04-.04.09-.09.09zm1.09-1.38a.09.09 0 0 1-.1-.1c0-.34-.17-.5-.52-.5-.05 0-.1-.05-.1-.1s.05-.1.1-.1c.45.02.69.26.7.7 0 .06-.04.1-.09.1zm-.57-1.36c-.2 0-.37-.04-.54-.1-.05-.02-.07-.08-.05-.13s.08-.07.13-.05c.19.08.39.1.63.08.05 0 .1.03.1.08s-.03.1-.08.1c-.06.02-.13.02-.2.02zm-2.34-.08a.1.1 0 0 1-.09-.06 6.14 6.14 0 0 1-.3-.92 1.83 1.83 0 0 0-.3-.77c-.03-.04-.03-.1.01-.13s.1-.02.13.02c.2.25.27.5.35.85.06.25.13.53.28.88a.1.1 0 0 1-.05.13h-.03zm2.17-.5a.9.9 0 0 1-.47-.15c-.04-.03-.06-.08-.03-.12s.08-.06.12-.04c.23.13.33.12.43.12h.1c.04 0 .09.05.08.1 0 .05-.04.1-.1.09h-.13zm.26-.52c-.4-.05-.56-.1-.7-.15l-.16-.05a.08.08 0 0 1-.06-.11c.01-.05.06-.08.1-.06l.18.05c.15.05.29.1.66.15a.1.1 0 0 1 .08.1c-.01.04-.05.07-.1.07zm-9.3-.34a.1.1 0 0 1-.08-.06c-.02-.05 0-.1.05-.12l.48-.16c.05-.02.1.01.12.06.01.05-.02.1-.06.11l-.48.16h-.03zm1.36 0a2.3 2.3 0 0 1-.4-.05c-.04 0-.08-.05-.07-.1s.05-.09.1-.08c.42.07.7.03.83-.1.16-.18.1-.52.03-.85l-.03-.12c0-.05.03-.1.08-.11s.1.02.1.07l.03.12c.08.38.16.77-.06 1.02-.13.13-.33.2-.61.2zm-2.47-.1c-.05 0-.09-.03-.1-.07 0-.05.03-.1.08-.1l.82-.15c.05 0 .1.03.1.07s-.02.1-.07.1l-.82.15h-.01zm7.13-.9h-.02c-1.1-.19-1.12-.87-1.14-1.52 0-.23-.01-.49-.08-.72a.1.1 0 1 1 .18-.04c.06.25.08.5.08.76.02.65.04 1.18 1 1.34.04 0 .08.06.07.1 0 .05-.04.09-.09.09zm-8.94-.12l-.27-.01a.09.09 0 0 1-.09-.1c0-.05.05-.09.1-.08.34.01.67.01 1.15-.14.05-.02.1.01.11.06s0 .1-.06.12a3.3 3.3 0 0 1-.94.15zm10.76-.4a.1.1 0 0 1-.1-.07c-.04-.45-.16-.74-.27-1.01-.15-.37-.29-.71-.21-1.36a.09.09 0 0 1 .17.01c-.06.61.06.92.2 1.28.11.27.24.58.3 1.06a.1.1 0 0 1-.09.1zm-8.91-.26a.1.1 0 0 1-.1-.07.1.1 0 0 1 .07-.1c.4-.1.48-.25.59-.4l.05-.07c.03-.05.08-.05.13-.02s.04.08.01.13l-.04.06c-.11.17-.24.35-.69.48h-.02zm2.24-.82h-.03c-.05-.02-.07-.08-.05-.12a3.2 3.2 0 0 1 2.8-2.18l-.06-.31c-2 .29-3.12.61-4.04 1.66a.09.09 0 0 1-.13.01.09.09 0 0 1 0-.13c.95-1.1 2.14-1.44 4.14-1.73h.02l-.02-.09v-.09c-1.75-.04-4 .27-4.77.96a.09.09 0 0 1-.13 0 .09.09 0 0 1 0-.13c.9-.8 3.44-1.04 4.87-1a2.33 2.33 0 0 0-.09-.46l-.24.01c-1.52.08-3.23.17-4.46 1.13a.1.1 0 0 1-.13-.01.1.1 0 0 1 .02-.13c1.27-1 3.01-1.09 4.55-1.17l.32-.02c.03 0 .08.03.09.06.09.25.12.54.15.84.05.44.1.9.35 1.17.15-.47.27-1.1-.07-1.65a.1.1 0 0 1 .03-.13.1.1 0 0 1 .13.03c.41.67.22 1.43.04 1.95-.02.05-.07.07-.12.06a.1.1 0 0 1-.06-.08l-.05-.02a1.25 1.25 0 0 1-.3-.55c-.87.12-2.07.48-2.67 2.07-.01.03-.05.05-.09.05zm9.14-.57a9.93 9.93 0 0 1-1.46-1.43l-.67-.74c-.04-.03-.03-.09 0-.13.04-.03.1-.03.13 0l.67.75a10 10 0 0 0 1.38 1.39c.04.03.05.08.01.13a.08.08 0 0 1-.06.03zm4.14-.1a.09.09 0 0 1-.07-.04.1.1 0 0 1 .02-.13c.49-.35.65-1.1.49-2.29-.01-.05.03-.1.08-.1s.1.03.1.08c.17 1.25-.01 2.06-.56 2.46a.1.1 0 0 1-.06.02zm-13.77-.04c-.02 0-.03 0-.05-.02-.04-.02-.06-.08-.03-.12.4-.75 1.22-1.28 2.44-1.56a.1.1 0 1 1 .04.18c-1.16.27-1.94.76-2.32 1.47-.02.03-.05.05-.08.05zm12.16-5.47h-.01c-.26-.03-.47-.43-.7-.9l-.15-.27c-.02-.05 0-.1.04-.13s.1 0 .12.04l.14.28c.18.35.4.78.56.8a.1.1 0 0 1 .08.1c0 .05-.04.09-.08.09zm-10.99-1.46a.1.1 0 0 1-.09-.07c-.24-1.28 0-1.66.27-2.1.21-.34.45-.72.52-1.6a.1.1 0 0 1 .1-.08.1.1 0 0 1 .09.1 3.2 3.2 0 0 1-.48 1.55v.01c.06.39.18.49.32.6.1.1.24.2.3.45a.1.1 0 1 1-.17.04c-.05-.2-.14-.26-.25-.35a.83.83 0 0 1-.35-.52c-.23.38-.39.75-.18 1.86.01.05-.03.1-.07.1zm10-.2a.1.1 0 0 1-.08-.06c-.16-.4-.16-.75-.13-1.09 0-.05.04-.1.1-.08.04 0 .09.04.08.1-.02.33-.02.64.12 1 .02.05 0 .1-.04.12h-.04zm-10.9-.25c-.02 0-.05 0-.06-.02a.1.1 0 0 1-.02-.13c.44-.52.41-.9.38-1.2-.01-.18-.03-.36.08-.52.07-.1.14-.19.22-.27.27-.34.53-.65.48-1.35 0-.05.04-.1.09-.1s.1.04.1.08c.05.78-.25 1.13-.53 1.48-.07.09-.14.17-.2.27-.08.1-.07.22-.05.4.02.31.06.75-.42 1.32-.02.03-.04.04-.07.04zm3.56-.3h-.01c-.03-.01-.05-.02-.06-.04-.36-.5-.37-.84-.38-1.15-.01-.2-.02-.38-.14-.58a.56.56 0 0 1-.15.1c-.27.17-.42.33-.45.49-.04.22.15.45.36.7l.09.11c.03.03.02.1-.01.13-.04.03-.1.03-.13 0l-.09-.12c-.23-.28-.45-.55-.4-.85.05-.22.22-.42.55-.61.24-.14.2-.3.09-.59-.1-.26-.23-.6.06-.92.04-.03.1-.04.13 0s.04.09 0 .13c-.2.24-.12.47-.02.73.06.15.14.34.09.51.2.28.2.51.21.76.01.27.02.55.29.96.22-.23.24-.52.26-.83.03-.45.06-.96.87-1.1 0-.32-.14-.83-.4-1.02-.04-.03-.04-.09-.01-.13s.08-.05.13-.02c.37.28.49.97.46 1.26 0 .04-.03.08-.08.08-.74.1-.76.48-.79.94-.02.35-.05.74-.4 1.03l-.07.03zm6.63-.16a.1.1 0 0 1-.09-.06v-.02c-.06-.2-.13-.46-.18-.9-.01-.05.03-.1.08-.1s.1.02.1.07c.05.43.12.68.18.88v.01a.1.1 0 0 1-.06.12h-.03zm-4.72-.04h-.02c-.36-.09-.58-.5-.77-.96a.1.1 0 0 1 .05-.12.1.1 0 0 1 .12.04c.16.39.37.79.65.86.05 0 .08.06.06.1a.1.1 0 0 1-.09.08zm8.7-.23h-.01a.09.09 0 0 1-.08-.1c.06-.37.11-.75.05-1.46 0-.05.03-.1.09-.1.05 0 .1.03.1.09.06.72 0 1.12-.05 1.5-.02.04-.06.07-.1.07zm-14.89 0l-.06-.03-.33-.29c-.5-.43-.96-.84-1.78-1.02-.05-.01-.08-.06-.07-.1s.06-.09.11-.08c.86.2 1.37.63 1.86 1.06l.34.3c.03.02.04.09 0 .12a.13.13 0 0 1-.07.03zm.53-.32a.1.1 0 0 1-.08-.05 1.23 1.23 0 0 0-.24-.31c-.25-.26-.52-.56-.15-1.34a.08.08 0 0 1 .07-.05c.7-.1.89-.38.91-.78-.24.44-.65.65-1.21.63-.47.23-.87.27-1.18.14s-.55-.44-.7-.93c-.01-.03 0-.06.03-.09s.06-.03.09-.02c.5.17.83.2 1.05.06.19-.11.31-.34.36-.7a.12.12 0 0 1 .05-.07c.02-.01.05-.02.08 0 .41.15.82.15 1.27.02a.1.1 0 0 1 .12.06.1.1 0 0 1-.06.12c-.45.13-.87.13-1.29 0-.07.36-.21.6-.43.73-.25.14-.57.15-1.03.01.14.34.31.55.53.64.27.12.62.07 1.05-.14l.04-.01c.64.02 1.04-.27 1.21-.9a.11.11 0 0 1 .1-.06c.04 0 .08.03.09.08.06.58.04 1.23-1 1.38-.29.64-.1.85.13 1.09.1.1.2.21.27.36.03.05 0 .1-.04.12l-.04.01zm6.16-.92h-.03c-.44-.14-.7-.55-.94-.91l-.06-.1c-.03-.03-.01-.09.03-.12s.1-.02.13.03l.05.08c.22.34.47.72.84.84.05 0 .08.06.06.11a.09.09 0 0 1-.08.07zM6.37 9.96h-.6l-.63-.02c-.05 0-.1-.04-.1-.1s.05-.08.1-.08h.63c.5.03 1.02.04 1.64-.05.05 0 .1.02.1.08a.1.1 0 0 1-.08.1c-.38.06-.73.07-1.06.07zm14.63 0h-.02a.12.12 0 0 1-.08-.12c.24-1.24.44-2.04 1.09-2.82.03-.04.1-.05.13-.02s.04.1.01.13c-.6.73-.8 1.43-1.05 2.74 0 .05-.03.08-.08.08zm-5.69-1.2c-.05 0-.09-.03-.09-.09.02-.45-.08-.67-.18-.83-.02-.05 0-.1.04-.13s.1 0 .12.04c.13.24.22.48.2.93 0 .05-.04.09-.09.09zm-.65-.16a.1.1 0 0 1-.1-.1l.01-.72c0-.05.04-.09.1-.09.04 0 .09.04.09.1l-.01.71a.1.1 0 0 1-.1.1zm1.03-.17a.1.1 0 0 1-.1-.1c0-.46-.08-.74-.25-.92-.03-.03-.03-.09 0-.13.04-.03.1-.03.13 0 .26.27.3.7.3 1.05 0 .06-.03.1-.08.1zm-1.73-.03a.1.1 0 0 1-.1-.1v-.67c0-.04.03-.09.09-.09.05 0 .09.05.09.1l.01.67a.1.1 0 0 1-.1.1zm-3.24 0l-1.16-.06c-.05 0-.1-.05-.09-.1s.05-.09.1-.08l1.16.06c.05 0 .09.05.08.1 0 .04-.04.08-.09.08zm2.71-.2a.1.1 0 0 1-.1-.1l.03-.5c0-.05.04-.1.1-.09.04 0 .09.04.08.1l-.02.5c0 .04-.04.09-.09.09zm-4.8-.18A.1.1 0 0 1 8.59 8c-.04-.03-.05-.08-.01-.13.12-.17.25-.31.37-.43a1.9 1.9 0 0 0-.6-.58c-.04-.03-.06-.08-.04-.13s.08-.06.12-.03c.22.11.43.32.66.62.06-.06.12-.1.18-.14-.8-.65-1.61-1.32-2.2-1.95a.09.09 0 0 1 .01-.13.1.1 0 0 1 .13 0c.59.63 1.43 1.32 2.23 1.98L9.6 7 8.23 5.9c-.03-.04-.04-.1 0-.14s.08-.04.12 0l1.44 1.18c.23-.07.44-.08.64-.07.05 0 .1.04.1.09s-.05.1-.1.1c-.49-.02-1.07.08-1.7.94l-.1.02zm7.52 0a.1.1 0 0 1-.07-.04 5.04 5.04 0 0 1-.6-1.18c-.01-.05.01-.1.06-.12s.1 0 .11.05c.21.55.4.92.57 1.14.03.05.02.1-.02.13a.12.12 0 0 1-.05.02zm-3.23-.16a.1.1 0 0 1-.1-.1l.02-.37c0-.05.05-.1.1-.09.05 0 .1.05.09.1l-.02.37a.1.1 0 0 1-.1.1zm3.36-.4c-.04 0-.07-.01-.08-.05-.13-.23-.5-.94-.13-1.28.01-.02.05-.03.07-.03.3.03.53-.04.7-.22a.54.54 0 0 0 .09-.1c-.2.08-.35.08-.48 0 0 0-.02 0-.03-.02v.03a.1.1 0 0 1-.1.08.1.1 0 0 1-.09-.1c.02-.08.02-.17.02-.26-.08-.22-.1-.56-.05-1.06 0-.05.03-.08.07-.09.04 0 .08.01.1.05l.1.15a.53.53 0 0 1 .2-.14c.05-.02.1 0 .12.06s0 .1-.05.11a.35.35 0 0 0-.12.08c.15.06.32.03.47 0l.37-.52c.03-.04.09-.05.13-.02s.05.09.02.13l-.35.49c.06.39.02.91-.3 1.24a1 1 0 0 1-.8.28c-.15.18-.09.53.18 1.04.03.05.01.1-.03.13 0 .02-.02.02-.03.02zm.15-1.97c.03.06.07.1.1.14.13.07.33-.03.49-.13l.02-.01c.06-.2.07-.44.05-.63a.86.86 0 0 1-.56-.02c-.07.16-.08.4-.1.62v.03zm-.07-.77v.04l.01-.03zm-1.7 2.54h-.05c-.05-.02-.06-.08-.05-.13.27-.6.2-1.2.07-1.44-.04-.06-.08-.1-.1-.1-.06 0-.1-.05-.09-.1s.05-.1.1-.09c.07 0 .17.05.25.2.18.32.22.99-.05 1.6a.1.1 0 0 1-.09.06zm6.8-.45c-.02 0-.04 0-.05-.02-.25-.17-.43-.56-.61-.99l-.11-.24a.1.1 0 0 1 .04-.13.1.1 0 0 1 .13.05l.1.24c.17.38.34.77.55.9.04.04.05.1.02.14a.08.08 0 0 1-.07.05zm2.83-.98a2.3 2.3 0 0 1-.56-.07.1.1 0 1 1 .04-.18c.84.22 1.54-.08 2.36-1 .03-.03.09-.04.13 0s.04.1 0 .13c-.5.57-1.12 1.12-1.97 1.12zm-3.3-.71a.1.1 0 0 1-.06-.04.09.09 0 0 1 0-.12c.56-.54.7-1.04.83-1.57l.05-.18a.08.08 0 0 1 .11-.06c.05 0 .08.06.06.1l-.05.2A3.13 3.13 0 0 1 21 5.12zm3.4-.13a.1.1 0 0 1-.06-.17c.42-.34.97-1.08 1.12-1.67.01-.05.06-.08.11-.06s.08.06.07.1A3.94 3.94 0 0 1 24.38 5zm-4.36-.06H20a2.08 2.08 0 0 1-1.14-1.1c-.03-.05 0-.1.04-.13s.1 0 .12.04c.26.52.57.83 1.05 1.01.04.02.06.08.04.12a.08.08 0 0 1-.08.06zm-4.73-.02h-.02c-.24-.05-.37-.17-.44-.32-.42.05-.71 0-.9-.18-.16-.15-.24-.37-.23-.67 0-.05.04-.1.09-.09.05 0 .1.04.09.1-.01.24.05.42.16.53.14.12.38.16.7.13l-.02-.09-.02-.05a.1.1 0 0 1 0-.06c.08-.2.1-.35.05-.43s-.16-.11-.3-.14c-.18-.05-.38-.09-.52-.25-.03-.04-.03-.1 0-.13s.1-.03.14 0c.1.13.26.16.42.2.17.04.34.08.42.23.07.13.06.3-.03.55v.03l.06.14.03.06v.03c.06.1.15.2.33.23a.1.1 0 0 1 .07.11c0 .05-.03.07-.08.07zm8.3-.24c-.01 0-.03 0-.04-.02-.04-.02-.06-.08-.04-.12.5-.97.39-1.4.27-1.87l-.07-.34c0-.04.02-.1.07-.1s.1.03.1.07l.08.32c.12.48.25.97-.29 2-.01.04-.04.06-.08.06zm-3.12-.05l-.04-.01c-.04-.03-.06-.08-.04-.13.47-.9.18-1.67-.08-2.17-.03-.05-.01-.1.04-.13.04-.02.1 0 .12.05.16.31.65 1.27.09 2.35-.03.02-.06.04-.09.04z"/><path fill="#0f47af" d="M15.32 31.11c-.2-.8.18-1.06.33-1.27.48-.18.9.31.65.55-.28.18-.64.13-.98.72zm-2.15-4.61a1.88 1.88 0 0 1 1.52-.47c.29.31-.08.86-.34.77-.28-.18-.8-.4-1.18-.3zm-1.72 2.36c.4-.94 1.1-.99 1.53-.98.17.13.04 1.09-.37.9a1.57 1.57 0 0 0-1.17.08zm.85 2.06c.26-.98.78-1.03 1.22-1.1.25 0 .16.93-.17.85a1.27 1.27 0 0 0-1.05.25zm-5.78-5.57c.95-.16 1.2-.6 1.28-.92-.01-.52-.63-.61-.76-.29-.05.33-.2 1-.52 1.21zm-2.68-4.42c.6-1 1.4-.64 1.61-.34.15.39-.36.75-.58.56-.2-.35-.65-.18-1.03-.22zm-.88 2.48c.06-1.1.81-1.14 1.22-1.3.2.05.27.83 0 .9-.53-.05-.97.12-1.22.4zm1.4 1.97c-.25-.89.05-1.17.37-1.47.21-.14.67.68.35.8-.27.09-.56.21-.72.67zm.1-12.85c.97-.06.9-.79.98-1.03 0-.44-.73-.4-.8-.06.01.34.1.83-.17 1.09zM1.93 7.19a1.46 1.46 0 0 1 1.73-.12c.3.3-.3.58-.56.5-.18-.36-.8-.5-1.17-.38zm-.8 2.66c.15-1.2.87-1.17 1.29-1.3.2.06-.02.98-.41.94-.4-.1-.62.1-.88.36zm.4 1.69c.3-.87.71-.92 1.15-.99.25 0 .16.93-.18.85-.27-.08-.58-.15-.98.14zm2.75-5.76c.78.27 1.2-.13 1.4-.27.22-.47-.24-.62-.5-.4-.2.27-.53.63-.9.67zm1.1-4.3c.8-.28 1.04-.03 1.25.1.15.4-.32.62-.53.43-.2-.27-.34-.5-.71-.54zm-2.1.44c.8-.46 1.08-.13 1.46.1.07.2-.43.64-.65.46-.34-.36-.43-.52-.8-.56zM2.8 4.55c.3-.87.72-.92 1.15-.99.25.01.16.94-.17.86-.28-.08-.59-.15-.98.13z"/><path fill="#000" d="M15.32 31.2h-.01a.1.1 0 0 1-.08-.06c-.2-.73.1-1.06.27-1.27l.07-.08.04-.03c.34-.13.65.02.79.23.1.16.1.34-.03.47h-.01c-.1.07-.2.1-.29.14-.22.08-.44.16-.66.56a.1.1 0 0 1-.09.05zm.39-1.28l-.07.08c-.14.17-.34.39-.27.88.21-.3.44-.38.64-.45.09-.03.17-.06.24-.1.08-.1.03-.2 0-.23a.47.47 0 0 0-.54-.18zm-3.41 1.1l-.05-.02c-.03-.03-.05-.06-.04-.1.27-1.01.82-1.1 1.26-1.17h.05c.05 0 .14.02.19.14.08.19.05.6-.11.79a.26.26 0 0 1-.28.1c-.3-.09-.65 0-.97.24a.07.07 0 0 1-.05.01zm1.22-1.1h-.03c-.38.06-.78.12-1.03.8.3-.16.63-.2.9-.13.02 0 .05.01.1-.04a.75.75 0 0 0 .07-.6l-.01-.03zm-2.07-.96a.1.1 0 0 1-.07-.03.09.09 0 0 1-.01-.1c.4-.94 1.08-1.05 1.62-1.05.02 0 .04 0 .06.02.16.13.12.64-.04.9-.1.17-.26.23-.42.16a1.47 1.47 0 0 0-1.1.08l-.04.02zm.65-.34a1.91 1.91 0 0 1 .55.08c.03.02.1.05.2-.08.13-.2.13-.55.09-.65-.46 0-.96.1-1.31.73.15-.06.3-.08.47-.08zm2.32-1.72c-.03 0-.06 0-.1-.02h-.01c-.26-.17-.77-.38-1.1-.3a.08.08 0 0 1-.1-.04c-.03-.04-.02-.1.02-.11.77-.64 1.52-.5 1.6-.49l.04.03c.2.22.15.51.01.7-.1.15-.24.23-.36.23zm-.03-.18c.07.02.16-.04.23-.15.09-.13.13-.32.03-.45a1.71 1.71 0 0 0-1.17.27c.36.03.72.21.91.33zM4.36 25.47c-.04 0-.08-.03-.09-.06-.26-.94.07-1.25.39-1.55l.01-.02h.01c.04-.03.13-.07.24 0 .17.1.38.46.36.7 0 .13-.06.21-.16.25-.28.1-.53.21-.67.62-.02.04-.05.06-.1.06zm.43-1.49c-.27.27-.51.5-.4 1.12.17-.29.42-.4.66-.48.01-.01.05-.02.05-.08a.76.76 0 0 0-.27-.54h-.04zm1.73 1.46a.1.1 0 0 1-.09-.06c-.02-.04 0-.08.04-.1.2-.14.38-.56.49-1.16v-.02c.08-.18.27-.27.48-.24.22.04.45.23.46.56v.03c-.13.53-.58.85-1.36.99h-.03zm.62-1.28c-.06.34-.18.76-.35 1.04.52-.14.82-.4.93-.78-.01-.24-.17-.35-.3-.37-.11-.02-.23 0-.28.11zm-4.18-.66h-.04a.08.08 0 0 1-.06-.1c.06-.98.65-1.17 1.08-1.31l.2-.07.06-.01c.18.05.25.34.25.6 0 .26-.1.44-.25.48h-.03c-.48-.04-.9.1-1.15.37-.01.03-.03.04-.06.04zm1.2-1.3l-.17.06c-.36.12-.8.26-.92.91.28-.2.67-.29 1.1-.26.05-.03.09-.15.09-.3 0-.2-.05-.36-.1-.41zm.86-.9a.32.32 0 0 1-.2-.07l-.02-.03c-.1-.2-.3-.2-.62-.18-.11 0-.23.02-.34 0a.11.11 0 0 1-.07-.05c-.02-.03-.02-.06 0-.08.34-.56.72-.69.99-.7.35-.01.64.17.77.35l.01.02c.1.25-.04.5-.22.63-.1.07-.2.1-.3.1zm-.07-.21c.06.04.16.02.26-.05.11-.08.22-.23.16-.41a.77.77 0 0 0-.61-.26c-.28 0-.54.17-.75.47h.16c.28-.02.6-.04.78.25zm-.48-8.47c-.04 0-.07-.03-.09-.06a.1.1 0 0 1 .02-.1c.2-.18.17-.51.16-.8v-.24c.04-.24.32-.35.55-.33.25.01.41.18.42.4v.04a.69.69 0 0 0-.04.15c-.05.31-.15.89-1.02.94zm.28-1.17v.2c.01.24.03.53-.08.77.53-.1.6-.48.65-.76l.04-.16c-.01-.18-.19-.21-.25-.22-.16-.02-.33.05-.37.17zm-3.24.18a.1.1 0 0 1-.05-.02c-.03-.02-.04-.06-.03-.1.32-.91.77-.98 1.2-1.05h.04c.04 0 .13.02.18.14.09.2.05.6-.11.8a.27.27 0 0 1-.28.1c-.28-.09-.55-.14-.9.11a.07.07 0 0 1-.05.02zm1.16-1c-.38.06-.7.11-.97.69.3-.14.57-.08.82-.01.01 0 .04 0 .09-.05a.75.75 0 0 0 .08-.6l-.02-.02zm-1.55-.68l-.04-.02a.09.09 0 0 1-.05-.09c.14-1.08.72-1.22 1.15-1.33a4.27 4.27 0 0 0 .26-.06c.13.04.17.23.1.5-.07.32-.27.66-.56.63-.34-.09-.53.07-.8.34a.09.09 0 0 1-.06.03zm1.26-1.3c-.04 0-.1.03-.15.04-.38.1-.8.2-.97.9.2-.16.43-.28.76-.2.13.01.24-.17.27-.25.1-.21.11-.42.1-.5zm.82-.98c-.05 0-.1 0-.14-.02A.1.1 0 0 1 3 7.61c-.15-.3-.72-.43-1.05-.33-.04.01-.09 0-.1-.04s-.02-.09.01-.12A1.54 1.54 0 0 1 3.71 7l.01.01c.12.12.14.26.06.39-.1.17-.37.27-.58.27zm-.06-.19c.16.03.41-.07.48-.18.02-.04.04-.09-.03-.16a1.38 1.38 0 0 0-1.31-.08c.34.02.7.16.86.42zm1.63-1.52c-.16 0-.33-.02-.53-.1-.05 0-.07-.05-.07-.09s.04-.08.08-.08c.27-.02.55-.24.85-.63l.01-.01c.17-.15.41-.17.57-.06.16.12.19.33.08.56 0 .02-.02.03-.04.04l-.08.05a1.4 1.4 0 0 1-.87.32zm-.17-.2c.46.07.75-.14.94-.27l.06-.04c.06-.15.05-.26-.03-.32-.07-.05-.22-.05-.33.04-.21.29-.43.48-.64.6zM2.8 4.64a.1.1 0 0 1-.05-.01c-.03-.03-.05-.07-.03-.1.31-.92.77-.99 1.2-1.06h.03c.05 0 .14.02.19.14.08.2.05.6-.11.8a.26.26 0 0 1-.28.1c-.29-.09-.56-.14-.9.12l-.05.01zm1.15-.98c-.37.05-.7.1-.96.68.3-.14.57-.08.82-.02 0 0 .04.02.08-.04a.75.75 0 0 0 .08-.6l-.02-.02zm.26-1.05a.25.25 0 0 1-.18-.06l-.14-.14c-.24-.27-.33-.37-.62-.4-.04 0-.08-.03-.08-.07 0-.04.01-.08.04-.1.75-.43 1.1-.2 1.42.01l.13.08.04.05c.06.17-.1.38-.29.51a.55.55 0 0 1-.32.12zm-.06-.2c.06.04.18 0 .28-.07.13-.09.21-.21.22-.27L4.55 2c-.27-.19-.51-.34-1-.12.18.06.3.2.48.39l.12.13zm2.13-.24a.4.4 0 0 1-.25-.08v-.02C6 2.05 5.97 2.03 5.96 2c-.18-.23-.3-.4-.6-.43-.04 0-.08-.04-.08-.08s.02-.08.06-.1c.76-.25 1.06-.06 1.27.09l.06.04c.02.02.03.02.03.04.08.2.03.41-.14.53a.56.56 0 0 1-.29.08zm-.13-.22c.08.05.2.04.3-.02a.27.27 0 0 0 .1-.29l-.04-.02c-.17-.1-.36-.24-.8-.15.17.1.28.26.4.42l.04.06z"/><path fill="#000" d="M.29 12.3h3v2.45h3V12.3H9.3v2.45h3V12.3h3v2.45h3.01V12.3h3v2.45h3.01V12.3h3v4.9h-3v2.46h-3V17.2h-3v2.46H15.3V17.2h-3v2.46h-3V17.2h-3v2.46h-3V17.2H.28v-4.9z"/><path fill="#000" d="M24.34 19.69h-3.06v-2.46h-2.95v2.46h-3.06v-2.46h-2.94v2.46H9.26v-2.46H6.32v2.46H3.25v-2.46h-3v-4.96h3.06v2.45h2.95v-2.45h3.06v2.45h2.95v-2.45h3.06v2.45h2.94v-2.45h3.07v2.45h2.94v-2.45h3.07v4.96h-3v2.46zm-3-.07h2.94v-2.45h3v-4.84h-2.94v2.45h-3.06v-2.45h-2.95v2.45h-3.06v-2.45h-2.94v2.45H9.26v-2.45H6.32v2.45H3.25v-2.45H.31v4.84h3v2.46h2.95v-2.46h3.06v2.46h2.95v-2.46h3.06v2.46h2.94v-2.46h3.07v2.46z"/></svg>