<svg version="1.1" xmlns="http://www.w3.org/2000/svg" viewBox="0 0 26 32"><path fill="#fc0" stroke="#000" stroke-width=".31" stroke-miterlimit="4" stroke-linecap="butt" stroke-linejoin="miter" d="M12.9 31.8a28.7 28.7 0 0 1-3.57-1.5 18.77 18.77 0 0 1-3.08-2.01 23.42 23.42 0 0 1-1.85-1.8 18.35 18.35 0 0 1-2.56-3.91 18.26 18.26 0 0 1-1.46-5.16c-.1-.57-.1-1.23-.1-9.25v-8h20.97l4.8.03v7.98c0 4.39-.01 7.96-.03 7.94-.02-.04-.03.04-.09.78a22.75 22.75 0 0 1-.55 2.92l-.14.52c-.08.34-.43 1.28-.66 1.82a21.6 21.6 0 0 1-1.5 2.72l-.34.48a16.75 16.75 0 0 1-3.78 3.69 19.76 19.76 0 0 1-5.07 2.55c-.77.28-.7.27-.98.19z"/><path fill="#e83629" stroke="#000" stroke-width=".31" stroke-miterlimit="4" stroke-linecap="butt" stroke-linejoin="miter" d="M2.67.15L.28.17v6.22c.02.17.07-.16.14-.32.35-1.18 1.7-1.98 2.91-2.02A3.16 3.16 0 0 1 6 5.39a2.95 2.95 0 0 0 3.95.5c.6-.43.94-1.17 1.64-1.48a3.11 3.11 0 0 1 3.85.78 3.08 3.08 0 0 0 2.8 1.3c.97-.06 1.8-.7 2.35-1.47a3.13 3.13 0 0 1 3.67-.6c.8.4 1.59 1.19 1.76 2.07.05.24-.08-.53 0-.75 0-1.85.01-3.7-.03-5.55C18.22.16 10.45.15 2.67.15z"/><path fill="#e83629" opacity=".99" d="M14.44 16.18l2.29-5.93 4.64-1.01-1 4.47zm-1.27-.43L10.6 9.94l2.57-4 2.46 3.86zm-1.22.54l-5.93-2.3-1.01-4.63 4.47.99zm-.55 1.23L5.59 20.1l-4-2.56 3.86-2.46zm.54 1.34l-2.3 5.93L5 25.8l1-4.47zm1.29.37l2.57 5.81-2.56 4-2.46-3.86zm1.28-.5l5.93 2.29 1.01 4.64-4.47-1zm.53-1.27l5.8-2.57 4 2.56-3.86 2.47z"/><path fill="#e83629" opacity=".99" d="M13.97 19.33l-.71 9.66-.74-9.65-7.42 6.3 6.3-7.37-9.7-.75 9.63-.82-6.3-7.34 7.48 6.26.66-9.66.85 9.67 7.3-6.33-6.22 7.38 9.63.75-9.63.85 6.28 7.3z"/></svg>