<svg version="1.1" xmlns="http://www.w3.org/2000/svg" viewBox="0 0 24 32"><path fill="#0f47af" d="M.3.28h23.85V18.9c0 9.31-6.97 12.8-12.22 12.8C6.7 31.7.3 28.21.3 18.9V.3z"/><path fill="#000" d="M11.93 31.88a11.9 11.9 0 0 1-7.9-2.96C1.47 26.62.13 23.14.13 18.9V.11h24.2v18.8c0 4.22-1.46 7.68-4.2 10.02a12.84 12.84 0 0 1-8.2 2.95zM.47.46V18.9c0 8.73 5.75 12.63 11.46 12.63 5.8 0 12.05-3.95 12.05-12.63V.46H.48z"/><path fill="#000" d="M9.2 11.11c.07-.18.75-1.34.75-1.34h4.37l.7 1.34v3.2h-.24v.3h-.93v-.3h-3.6v.3h-.82v-.3h-.24v-3.2z"/><path fill="#000" d="M14.79 14.6h-.95v-.28h-3.6v.29h-.82v-.3H9.2v-3.2c.07-.18.75-1.33.76-1.34h4.36l.7 1.34v3.2h-.23v.3zm-.93-.01h.92v-.3H15v-3.18l-.7-1.33H9.95c-.04.07-.68 1.16-.75 1.33v3.2h.23v.29h.8v-.3h3.63v.29z"/><path fill="#fcdd09" d="M9.37 11.34v2.8h5.47v-2.8H9.37zm5.06.35v2.04H9.78v-2.04h4.65z"/><path fill="#fcdd09" d="M14.26 13.55v-1.68h-4.3v1.69h4.3zm.58-2.44L14.2 9.9h-4.13l-.7 1.22h5.47zM9.59 6.02c-.35-.58-2.08-3.11-2.14-3.7.53-.28 1.14.07 1.13.78.39-.09.86.48.68.88-.22.47 1 .17 1.04-.3.04-.42-.34-.32-.46-.65-.08-.23.09-.45.34-.51.22-.05.64.01.67.34.03.31-.41.35-.16.64.27.31.93.3 1.01-.19.02-.12.17-.58-.16-.43-.36.16-.48-.75.02-.54.62.25.02-.55.64-.58.6 0 .13.71.58.56.52-.17.36.73 0 .5-.4-.24-.3.19-.28.45.06.62.97.78 1.05.35.14-.23-.1-.22-.05-.54.04-.29.23-.47.52-.46.42.01.54.35.45.6-.13.38-.32.14-.38.56-.08.55 1.06.8.9.14-.2-.6.2-.82.72-.74-.25-.82.75-1.14 1.1-.8-.05.58-1.87 3.06-2.3 3.65-.64.68-4.43.83-4.92 0z"/><path fill="#000" d="M11.83 6.68a8.6 8.6 0 0 1-.9-.04c-.5-.06-1.14-.2-1.38-.53l-.03-.04-.4-.64c-.86-1.33-1.7-2.66-1.75-3.1V2.3l.05-.03a.82.82 0 0 1 .82 0c.25.14.41.41.43.75.19 0 .39.1.54.3.18.23.23.5.13.72 0 .01-.03.07 0 .08.02.04.18.06.4-.02s.48-.24.5-.41c0-.19-.06-.24-.18-.3a.58.58 0 0 1-.28-.3.41.41 0 0 1 .03-.36.5.5 0 0 1 .37-.27.78.78 0 0 1 .6.1c.1.08.16.18.17.3.02.18-.08.3-.15.37-.1.1-.12.13-.03.23.13.15.37.22.58.16a.4.4 0 0 0 .3-.31v-.06c.05-.23.04-.29.03-.3l-.09.02a.27.27 0 0 1-.33-.09c-.12-.15-.13-.4-.03-.54.03-.05.15-.17.38-.07.14.06.17.04.17.04.02-.01.02-.1.02-.15 0-.17.02-.46.4-.47.4 0 .43.28.44.44 0 .05.01.13.03.14 0 0 .02.01.1-.01.24-.08.35.04.38.1.1.14.06.39-.06.51-.1.1-.23.11-.35.04-.12-.07-.16-.06-.16-.06-.04.02-.01.25 0 .34a.4.4 0 0 0 0 .08c.04.32.34.5.6.52.06 0 .26 0 .3-.18v-.02c.06-.08.04-.1 0-.17-.03-.07-.09-.16-.06-.34.05-.34.28-.55.6-.54.26 0 .4.12.47.22.1.14.12.32.06.48-.07.2-.17.27-.24.3-.07.05-.12.07-.14.25-.03.19.14.3.2.35.17.1.39.12.49.05.06-.05.08-.13.06-.25-.12-.34-.05-.54.04-.65.13-.15.35-.23.63-.2a.74.74 0 0 1 .37-.8c.31-.19.71-.17.92.04l.02.02v.05c-.05.48-1.19 2.12-2.18 3.49l-.14.19v.01c-.37.39-1.6.6-2.74.6zm-2.2-.75l.03.05c.14.23.6.4 1.3.49 1.37.16 3.1-.09 3.5-.5l.14-.19c.5-.7 2.02-2.8 2.14-3.37-.16-.12-.46-.11-.68.02a.58.58 0 0 0-.26.72l.04.13-.14-.02c-.28-.04-.5 0-.6.13-.11.14-.07.34-.02.5.06.25-.06.38-.13.43-.18.13-.47.08-.66-.04-.21-.12-.32-.32-.3-.51.05-.25.13-.31.23-.37.07-.04.12-.06.17-.22a.38.38 0 0 0-.04-.33c-.07-.1-.18-.14-.33-.15-.24 0-.4.14-.44.4a.3.3 0 0 0 .05.24c.04.07.1.16 0 .32-.04.2-.22.3-.47.3-.33-.02-.7-.26-.75-.68l-.01-.08c-.03-.2-.05-.42.07-.5.1-.07.24 0 .34.05.05.04.1.04.14 0 .08-.08.1-.24.05-.32-.03-.05-.1-.06-.2-.02-.07.02-.17.04-.24-.01-.08-.05-.1-.16-.1-.26-.01-.17-.03-.28-.27-.29-.22 0-.23.12-.23.31 0 .11 0 .23-.1.29-.07.04-.17.04-.33-.03-.09-.03-.15-.03-.18.01-.05.08-.04.25.03.34.05.07.09.05.13.04.11-.05.2-.05.26 0 .12.1.07.32.03.47l-.01.05a.55.55 0 0 1-.41.44.76.76 0 0 1-.75-.2c-.2-.22-.07-.37.02-.46.06-.07.12-.14.11-.23a.24.24 0 0 0-.1-.18.6.6 0 0 0-.46-.08.4.4 0 0 0-.26.19.23.23 0 0 0-.01.21c.04.11.11.16.2.21.13.08.28.18.25.46-.02.28-.34.48-.6.56-.21.07-.47.1-.59-.03-.04-.04-.08-.12-.01-.26.09-.19 0-.4-.11-.54-.14-.17-.33-.26-.47-.23l-.1.02v-.1c0-.32-.13-.57-.35-.7a.63.63 0 0 0-.6-.02c.12.5 1.15 2.1 1.7 2.96l.38.58zm2.13 12.68v-1.28c-.11-.13-.33-.27-.38-.43a.44.44 0 0 1 .06-.3c.06-.12.06-.13.03-.16.02.11-.16.16-.1-.05-.06-.05-.09-.07 0-.13.11-.09.2-.2.35-.17.02.03 0 .12-.06.11-.02.04 0 .02.05.05.02.03.07.24.07.24l.01-.63a.1.1 0 0 1 .14.02c.03.04.03.05.03.45 0 .5 0 .49.14.28.15-.25.45-.19.55.02.06.13.04.28-.03.34-.09.06-.11.03-.1-.07v-.08c-.1.08-.17.33-.27.29-.09-.05-.06.1-.13.03-.05-.02-.04.01-.07.07-.03.05 0 1.4 0 1.4h-.29z"/><path fill="#fcdd09" d="M12.95 19.5a1.05 1.05 0 1 1-1.05-1.05c.58 0 1.05.47 1.05 1.05z"/><path fill="#000" d="M11.9 20.63a1.13 1.13 0 1 1 0-2.27 1.13 1.13 0 1 1 0 2.27zm0-2.1a.96.96 0 1 0 0 1.93.96.96 0 0 0 0-1.92z"/><path fill="#fcdd09" d="M21.53 24.72v-8.14h-4.65v8.14h4.65z"/><path fill="#000" d="M21.62 24.8h-4.83v-8.3h4.83v8.32zm-4.65-.17h4.48v-7.97h-4.48v7.97z"/><path fill="#fcdd09" d="M16.88 24.72v-4.65h-2.33v4.65h2.33z"/><path fill="#000" d="M16.97 24.8h-2.5v-4.82h2.5v4.83zm-2.33-.17h2.15v-4.48h-2.15v4.48z"/><path fill="#fcdd09" d="M16.88 20.07v-1.75c-.02-.02-1.75 0-1.75 0l-.58 1.75h2.33z"/><path fill="#000" d="M16.97 20.15h-2.54l.64-1.92h.06c1.77-.01 1.78 0 1.81.03l.03.02v1.87zm-2.3-.17h2.12V18.4h-1.6l-.52 1.58z"/><path fill="#fcdd09" d="M8.88 18.33H7.02v1.86c.02.02.3.02 1.1.02.92 0 1.15 0 1.17-.02l-.41-1.86z"/><path fill="#000" d="M8.8 20.3h-.68c-1.1 0-1.11 0-1.15-.04l-.03-.02v-1.98h2l.44 1.97-.03.04c-.04.02-.04.03-.55.03zm-1.69-.19l1 .02h.44l.64-.01-.37-1.7h-1.7v1.7z"/><path fill="#fcdd09" d="M2.86 16.46h4.13v8.26H2.86v-8.26z"/><path fill="#000" d="M7.08 24.8H2.77v-8.43h4.3v8.44zm-4.14-.17H6.9v-8.08H2.94v8.08z"/><path fill="#fcdd09" d="M7.3 16.47H2.47l.87-1.4c.58-3.14 1.07-6.15 1.55-9.25.4 3.1.96 6.11 1.54 9.14l.87 1.51z"/><path fill="#000" d="M7.45 16.56H2.31l.94-1.52c.5-2.73.97-5.5 1.56-9.24h.17c.38 3 .92 5.9 1.54 9.12l.93 1.64zm-4.83-.18h4.53l-.8-1.4c-.58-3.01-1.09-5.75-1.46-8.55-.55 3.45-1 6.07-1.47 8.66v.02l-.8 1.27z"/><path fill="#000" d="M2.51 16.56c-.03 0-.07-.02-.08-.05s0-.07.02-.1l1.53-1.43c.18-1.18.27-2.35.36-3.49.1-1.28.2-2.61.44-3.94 0-.04.04-.07.08-.07s.08.03.09.07c.16 1.13.28 2.28.4 3.39.14 1.33.28 2.7.5 4.04L7.3 16.4c.03.03.04.07.02.1s-.05.05-.08.05l-2.38.01H2.51zm.23-.18h4.3l-1.34-1.3-.02-.05a81.9 81.9 0 0 1-.5-4.08c-.1-.92-.2-1.86-.32-2.8-.17 1.13-.26 2.25-.35 3.34a44.44 44.44 0 0 1-.36 3.54l-.03.05-1.4 1.3zm.99 6.36c0-1.04 2.38-1.04 2.38 0v1.92H3.73v-1.92z"/><path fill="#fcdd09" d="M9.31 24.72v-4.65H7v4.65h2.3z"/><path fill="#000" d="M9.4 24.8H6.9v-4.82h2.5v4.83zm-2.33-.17h2.16v-4.48H7.07v4.48z"/><path fill="#000" d="M7.69 21.06c0-.41.93-.41.93 0v.99h-.93v-1z"/><path fill="#fcdd09" d="M9.31 20.07h5.24v4.65H9.31v-4.65z"/><path fill="#000" d="M14.64 24.8H9.23v-4.82h5.4v4.83zm-5.24-.17h5.06v-4.48H9.4v4.48z"/><path fill="#000" d="M13.77 24.8H10.1v-1.82c0-1.39 1.05-1.55 1.83-1.55s1.84.16 1.84 1.55v1.83zm-3.5-.17h3.32v-1.65c0-.95-.51-1.37-1.66-1.37s-1.65.42-1.65 1.37v1.65zm10.07-1.74v1.9h-2.37v-1.9c0-1.12 2.34-1.15 2.37 0z"/><path fill="#fcdd09" d="M19.44 10.18c-.3 0-.35 0-.35.7 0 .63.12.63.35.63.4 0 .29-.11.29-.64s.06-.7-.3-.7zm-.7 0c-.35 0-.3.23-.3.7s-.1.63.3.63c.35 0 .35-.05.35-.64 0-.64 0-.7-.35-.7z"/><path fill="#000" d="M19.44 11.6c-.16 0-.27-.02-.33-.12-.06.09-.17.12-.37.12-.16 0-.26-.03-.32-.1-.08-.08-.08-.2-.06-.38v-.42c0-.24 0-.41.1-.52.07-.06.16-.1.3-.1.18 0 .28.04.35.11.06-.08.17-.1.34-.1.1 0 .21.01.3.08.08.1.08.25.08.5v.2l.01.27c.01.17.02.28-.06.37-.08.08-.19.09-.34.09zm0-1.34c-.25 0-.26 0-.26.61 0 .56.06.56.26.56.11 0 .18-.01.2-.03.03-.02.02-.12.02-.24l-.02-.29v-.2c0-.19 0-.33-.04-.37-.02-.03-.07-.04-.16-.04zm-.7 0a.28.28 0 0 0-.16.04c-.05.06-.05.2-.04.4v.18l-.02.25c0 .13 0 .23.02.26.02.02.09.04.2.04.17 0 .2-.02.23-.05.03-.07.03-.24.03-.5 0-.61 0-.61-.26-.61z"/><path fill="#fcdd09" d="M18.16 11.52c-.3 0-.3.29-.3.7 0 .28-.93 1.1-.9 1.77-.07.48.18.93.47 1.32-.22.33-.61.86-.85 1.27.59-.47 1.92-1.46 1.92-1.46-.64-.52-.64-.58-.46-1.16.17-.4.52-1.17.58-1.75a3.1 3.1 0 0 0 0-.7h-.46zm1.57 0c-.41-.02-.3.4-.3.7 0 .4.59 1.33.82 1.74.23.46-.06.81-.47 1.16.46.25 1.52 1.05 2.04 1.46-.15-.4-.98-1.33-.78-1.53.36-.64.43-1.5-.23-2.04-.4-.35-.56-.51-.56-.8-.06-.7-.26-.68-.52-.7zm-.75-.01c-.34.01-.35.41-.35.7 0 .47-.35 1.17-.59 1.75-.17.46-.11.64.47 1.16l-1.92 1.46h5.23a28.44 28.44 0 0 0-2.03-1.46c.64-.64.63-.72.46-1.16-.35-.58-.81-1.28-.81-1.75 0-.29.1-.7-.32-.7h-.15z"/><path fill="#000" d="M21.82 16.66h-5.23c-.02 0-.04 0-.06-.02s-.03-.03-.03-.06l.01-.05c.18-.31.46-.7.67-1.01l.15-.21c-.37-.49-.51-.91-.45-1.33-.02-.43.33-.9.6-1.28.15-.2.3-.4.3-.49 0-.4 0-.78.37-.78h.48a.1.1 0 0 1 .08.08v.01c.06-.06.15-.1.26-.1h.15c.13 0 .23.03.3.1l.02.02v-.01c.08-.07.18-.1.3-.1h.03c.3.02.52.08.57.77 0 .25.14.39.53.75.74.6.6 1.53.25 2.15l-.02.01s-.03.05.08.26l.35.55c.16.23.3.46.37.61v.03c.01.03 0 .07-.03.08a.05.05 0 0 1-.05.03zm-4.97-.17h4.71a25.7 25.7 0 0 0-1.8-1.28l-.02-.01a.08.08 0 0 1-.04-.07c0-.03 0-.06.02-.07.22-.22.36-.37.44-.49.08-.13.1-.26.07-.4l-.06-.18-.12-.21c-.33-.54-.7-1.14-.7-1.57v-.47l-.05-.1a.24.24 0 0 0-.18-.05H19c-.16 0-.23.12-.26.3a3.33 3.33 0 0 1-.28 1.33l-.27.65-.05.12-.09.3c-.01.22.12.4.53.77a.1.1 0 0 1 .03.06c0 .04-.01.06-.04.08l-1.71 1.3zm4.21-.6c.2.13.34.24.46.33l-.13-.2c-.3-.45-.58-.84-.42-1.02.3-.56.44-1.4-.2-1.92-.4-.35-.6-.54-.6-.87-.05-.59-.18-.6-.41-.6h-.03c-.08 0-.13 0-.17.04a.23.23 0 0 0-.04.1v.46c0 .34.44 1.08.7 1.52l.1.18.01.02a.9.9 0 0 1 .08.21c.05.19.04.33-.09.52-.09.16-.23.31-.38.45.28.17.71.48 1.13.78zm-2.72-4.3l-.17.01h-.01c-.19 0-.2.16-.2.61 0 .14-.14.34-.34.6-.26.35-.58.8-.57 1.17V14c-.05.38.1.77.46 1.25a.1.1 0 0 1 0 .1 21.1 21.1 0 0 1-.59.86l1.44-1.1c-.43-.35-.54-.5-.5-.83.02-.1.05-.22.1-.36l.15-.38.17-.38c.12-.32.22-.66.25-.95 0-.09 0-.21.02-.33l-.01-.28h-.2zm.64-.08z"/><path fill="#fcdd09" d="M19.08 7.73c-.18-.01-.34.43-.55.59-.21.2-.13.54 0 .76-.12.31-.5.76-.42 1.1h1.93c.1-.32-.29-.78-.37-1.1.06-.44.29-.59-.15-.93-.16-.12-.22-.43-.44-.42z"/><path fill="#000" d="M20.1 10.28l-2.06-.02-.01-.07c-.06-.26.11-.57.26-.84l.15-.27c-.15-.27-.2-.6.03-.83.08-.06.15-.18.22-.28.12-.17.23-.34.39-.33.18 0 .28.14.36.27.04.07.08.12.13.16.36.28.33.46.25.73l-.05.28c.02.09.08.2.15.32.14.26.3.56.2.81l-.02.06zm-1.9-.18h1.77c.02-.18-.1-.4-.22-.62-.07-.13-.14-.26-.17-.37v-.03c.02-.12.04-.23.07-.32.06-.23.1-.32-.19-.54A.79.79 0 0 1 19.3 8c-.08-.12-.13-.2-.21-.19h-.01c-.06 0-.17.15-.24.26-.07.11-.15.23-.25.3-.18.2-.07.5.03.65l.02.03-.02.04-.17.34c-.11.22-.25.46-.25.66zm.77-5.34l.06-1.83c-.11-.13-.34-.22-.39-.38-.02-.08 0-.19.06-.31s.06-.12.03-.15c.03.11-.15.16-.09-.05-.07-.05-.1-.07 0-.13.1-.09.2-.2.34-.18.03.03 0 .13-.05.12-.03.04 0 .02.04.05.03.03.07.24.07.24l.02-.63a.1.1 0 0 1 .14.02c.03.03.03.05.03.45 0 .5 0 .49.14.28.15-.25.45-.19.55.02.05.13.04.28-.04.34-.08.05-.1.03-.09-.07v-.08c-.1.08-.18.33-.27.29-.1-.05-.07.09-.14.03-.05-.02-.04-.02-.07.04a28 28 0 0 0-.05 1.93h-.3z"/><path fill="#fcdd09" d="M11.52 8.14c-1.22 0-2.5.46-3.55-.12-.34.14-.57.14-.87 0-.4.22-.93.12-.93-.29s.64-.45.93-.29c.3-.23.57-.2.81-.06 1.1-.64 2.39-.23 3.61-.23.02 0 .13-.23.26-.23s.27.23.27.23c1.05-.1 2.09-.13 4.48-.58.12.1-.12.53.11.53s.4.24.4.4h.53c0-.12.06-.4.12-.4s.11.17.11.4c.24 0 .47 0 .47.12s-.23.12-.47.12c.02.15-.05.4-.11.4s-.13-.31-.12-.4h-.52c0 .17-.18.4-.4.4-.25 0 .08.59-.12.59a18.66 18.66 0 0 0-4.4-.58c.01 0-.13.23-.3.23-.08 0-.22-.24-.3-.24z"/><path fill="#000" d="M16.51 8.8a18.93 18.93 0 0 0-4.34-.57c-.05.08-.18.23-.34.23-.07 0-.15-.07-.22-.14l-.1-.1c-.37 0-.76.05-1.13.1-.83.1-1.68.2-2.42-.2a1.1 1.1 0 0 1-.87 0 .88.88 0 0 1-.79.01.45.45 0 0 1-.23-.4.4.4 0 0 1 .22-.36.97.97 0 0 1 .8-.02.7.7 0 0 1 .82-.06c.8-.45 1.7-.37 2.57-.29.33.03.66.06 1 .07.04-.08.15-.23.29-.23.13 0 .25.14.3.22l.6-.05c.86-.08 1.92-.17 3.82-.52h.04l.03.02c.1.07.08.2.06.33 0 .05-.02.15 0 .17h.01c.26 0 .43.23.48.41h.38c.01-.14.06-.4.2-.4s.18.26.19.4c.24 0 .47.02.47.2s-.23.2-.47.2a.7.7 0 0 1-.1.36.12.12 0 0 1-.1.05.1.1 0 0 1-.07-.04.85.85 0 0 1-.12-.37h-.37c-.05.2-.24.4-.49.4-.02.04 0 .15.01.21.03.14.05.25 0 .32a.14.14 0 0 1-.12.06zm-4.57-.74h.2c1.14.04 2.82.15 4.38.58l-.02-.17c-.02-.14-.05-.27.02-.35a.16.16 0 0 1 .14-.05c.18 0 .32-.2.32-.33v-.08h.7v.09l.03.24a.58.58 0 0 0 .03-.23l-.02-.1h.1c.1 0 .32 0 .37-.03-.05-.04-.26-.04-.38-.04h-.08v-.08c0-.11-.01-.2-.03-.24a1 1 0 0 0-.04.25v.07h-.69v-.07c-.02-.14-.14-.33-.33-.33a.18.18 0 0 1-.14-.06c-.06-.08-.04-.2-.03-.3l.01-.16a34.32 34.32 0 0 1-4.43.57H12l-.02-.04c-.06-.08-.16-.18-.2-.18-.03 0-.08.03-.17.16l-.05.05-.02.01h-.02c-.35 0-.7-.03-1.05-.06-.9-.08-1.75-.16-2.52.28l-.05.03-.04-.03c-.25-.15-.48-.14-.72.05l-.04.04-.05-.03a.79.79 0 0 0-.68 0c-.09.05-.12.12-.12.22s.05.2.14.25c.17.1.44.09.66-.03l.04-.02.04.02c.28.13.48.13.8 0l.05-.01.03.01c.7.4 1.5.3 2.35.2.39-.05.77-.09 1.16-.09.08 0 .15.07.22.14a.5.5 0 0 0 .1.1c.07 0 .15-.08.19-.14l-.09-.1zm4.69.17zm2.47-1.21a.54.54 0 0 1-.52-.53c.01-.3.25-.51.52-.52.36.01.55.27.53.53a.54.54 0 0 1-.53.52z"/><path fill="#fcdd09" d="M19.87 4.36a.78.78 0 0 1-.76.75.78.78 0 0 1-.76-.75.78.78 0 0 1 .76-.76.8.8 0 0 1 .76.76z"/><path fill="#000" d="M19.1 5.18a.86.86 0 0 1-.82-.82.86.86 0 0 1 .83-.83c.46.02.83.39.83.82a.86.86 0 0 1-.83.84zm0-1.5c-.35 0-.65.3-.68.68 0 .35.31.66.69.68.35 0 .66-.3.68-.69 0-.36-.3-.65-.69-.68z"/><path fill="#000" d="M20.05 4.54H18.2c-.1 0-.19-.08-.19-.18s.08-.19.19-.19h1.86c.1 0 .19.08.19.19s-.08.18-.19.18z"/><path fill="#000" d="M19.12 5.36a.17.17 0 0 1-.17-.18V3.56c0-.1.07-.18.17-.18s.18.08.18.18v1.62c0 .1-.09.18-.18.18z"/><path fill="#000" d="M19.1 7.8a.17.17 0 0 1-.17-.18V5.23c0-.1.07-.17.17-.17s.18.07.18.17v2.4c0 .09-.08.17-.18.17zM5.7 4H4.15a.23.23 0 0 1 0-.45H5.7a.23.23 0 0 1 0 .45zm0 1.1H4.15a.22.22 0 0 1 0-.43H5.7a.22.22 0 0 1 0 .44z"/><path fill="#000" d="M4.9 6.51a.17.17 0 0 1-.18-.17V3.78c0-.1.07-.18.17-.18s.18.08.18.18v2.56c0 .1-.08.17-.18.17zm6.92 15.01h.23v3.2h-.23v-3.2zm3.43-.17c0-.41.93-.41.93 0v.99h-.93v-1zm4.71-3.78c.12-.41.76-.41.87 0v.98h-.87v-.98zm-2.32 0c.11-.41.75-.41.87 0v.98h-.87v-.98zM5.7 17.33c.12-.4.76-.4.88 0v1h-.87v-1zm-1.21 0c.11-.4.75-.4.87 0v1h-.87v-1zm-1.23 0c.12-.4.76-.4.88 0v1h-.88v-1zm3.85-9.22a.09.09 0 0 1-.09-.09v-.55c0-.05.04-.1.08-.1.05 0 .1.05.1.1v.55c0 .05-.04.1-.09.1zm.84 0a.09.09 0 0 1-.09-.1l-.02-.6c0-.06.04-.1.1-.1.04 0 .08.04.08.1l.02.6c0 .06-.04.1-.1.1zm9.78-.06a.08.08 0 0 1-.08-.08l-.01-.26-.57-.02c-.05 0-.1-.04-.1-.09s.05-.08.1-.08l.55.02-.01-.32c0-.05.03-.09.08-.1s.09.04.1.09v.33h.43c.04 0 .08.05.08.1s-.04.08-.08.08l-.41-.01.01.25c0 .05-.03.1-.08.1zm-8.36-2.4c-.03 0-.04 0-.06-.02-.04-.04-.04-.1 0-.13.53-.6 1.56-.98 2.73-1 1.2-.01 2.28.35 2.86.97.04.03.03.1 0 .12s-.1.03-.13 0c-.55-.6-1.57-.94-2.73-.92-1.13.02-2.1.37-2.6.94a.08.08 0 0 1-.07.04zm6.04-.85l-.05-.01a6.56 6.56 0 0 0-6.54-.02c-.04.02-.1.01-.12-.03-.02-.05 0-.1.04-.12a6.73 6.73 0 0 1 6.72.02c.04.02.05.08.03.12a.1.1 0 0 1-.08.04zM4.72 3.54v-.81a1.5 1.5 0 0 1-.31-.48c-.02-.07 0-.18.06-.3s.06-.13.03-.16c.02.11-.16.16-.1-.05-.07-.05-.09-.07 0-.13.11-.08.2-.2.35-.17.02.03 0 .13-.06.11-.02.04 0 .02.05.06.02.02.07.23.07.23l.02-.62a.1.1 0 0 1 .14.02c.03.03.03.05.03.45 0 .5 0 .49.14.28.15-.25.45-.2.55.02.05.13.04.28-.04.34-.08.05-.1.03-.09-.07v-.09c-.1.1-.18.34-.28.3-.08-.05-.06.09-.13.03-.05-.02-.05 0-.08.05s0 1 0 1h-.35z"/></svg>