<svg version="1.1" xmlns="http://www.w3.org/2000/svg" viewBox="0 0 26 32"><path fill="#dc2b19" d="M.19.19h25.17v7.02H.19V.19z"/><path fill="#008ee0" d="M12.78 7.2v24.61A12.52 12.52 0 0 1 .19 19.22V7.21h12.59z"/><path fill="#fbdd00" opacity=".97" d="M12.78 7.2v24.61c7 0 12.58-5.58 12.58-12.59V7.21H12.77z"/><path fill="#fff" d="M6.2 19.12c-.88 0-.88-1.16 0-1.16v-2.08c-.3 0-.66-.1-.66-.62 0-.7.63-.58 1.09-.58 1.91-.01 2.89-1.22 2.89-2.7 0-1.83-1.4-2.62-2.6-2.62-1.37 0-2.34 1.1-2.34 1.84 0 2.24 3.01 1.81 3 .85 0-.96-.63-.96-.94-.96-.4 0-.5-.15-.5-.44 0-.34.17-.47.64-.47.89.02 1.74.64 1.73 1.53 0 1.26-1.15 2.1-2.4 2.1-1.54 0-2.44-.95-2.43-2.66 0-1.35 1.56-2.63 3.19-2.64 2.08 0 3.55 1.46 3.57 3.44-.02 1.48-.6 2.45-1.67 3.1-.66.37-1.18.67-1.18 1.47v1.44c.8 0 .8 1.16 0 1.16V27h-1.4v-7.88z"/><path fill="#000" d="M17.83 7.2v10.25h-5.05v1.78h5.05v11.6c.67-.3 1.3-.64 1.9-1.03V19.23h5.7v-1.78h-5.7V7.21h-1.9z"/><path fill="#fff" d="M14.6 4.68v1.26h-3.47V4.68H7.65v1.26H4.17V4.68H.2V1.96h3.99v1.58h3.47V1.96h3.48v1.58h3.48V1.96h3.48v1.58h3.48V1.96h3.79v2.72h-3.8v1.26H18.1V4.68h-3.5zm0 1.27V4.68"/><path fill="none" stroke="#000" stroke-width=".62" stroke-miterlimit="10" stroke-linecap="butt" stroke-linejoin="miter" d="M.31.31V19.2a12.45 12.45 0 1 0 24.93 0V.3H.3z"/></svg>