<svg version="1.1" xmlns="http://www.w3.org/2000/svg" viewBox="0 0 30 32"><path fill="#fefefe" d="M.36.37h28.8v16.76c0 19.35-28.8 19.35-28.8 0V.37z"/><path fill="#2b2828" d="M14.76 31.93a15.1 15.1 0 0 1-10.1-3.7c-3-2.7-4.59-6.54-4.59-11.1V.1h29.37v17.04c0 4.56-1.59 8.4-4.6 11.1a15.03 15.03 0 0 1-10.08 3.7zM.64.64v16.48c0 9.78 7.32 14.23 14.12 14.23s14.12-4.45 14.12-14.23V.65H.64z"/><path fill="#fff500" d="M14.76.37h14.4v16.76c0 9.68-7.2 14.4-14.4 14.4V.37z"/><path fill="#2b2828" d="M14.76 31.81h-.28V.1h14.96v17.04c0 4.56-1.59 8.38-4.6 11.04a15.14 15.14 0 0 1-10.08 3.64zM15.04.65v30.6c6.72-.13 13.84-4.55 13.84-14.12V.65H15.04z"/><path fill="#2b2828" d="M14.76 10.72h14.4v7.2h-14.4v-7.2z"/><path fill="#db3931" d="M2.78 24.84v-1l.6-3.12V7.67l-1.2-1.09V3.47h1.2v1.57h1.99V3.47h1.2v1.57h2.25V3.47h1.16v1.57h2.06V3.47h1.13v3.11l-1.13 1.09v13.05l.57 3.11v1.01h-2.33v-4.12l-1.72-2.1H6.83l-1.72 2.1v4.12H2.78z"/><path fill="#2b2828" d="M12.73 24.97h-2.57v-4.2L8.5 18.73H6.9l-1.66 2.02v4.2H2.66V23.8l.6-3.1V7.72l-1.2-1.08v-3.3H3.5v1.58h1.73V3.34H6.7v1.58h2V3.34h1.42v1.58h1.8V3.34h1.38v3.3l-1.12 1.08V20.7l.56 3.1v1.16zm-2.32-.25h2.07v-.88l-.56-3.1V7.61l1.12-1.09V3.59h-.87v1.58H9.86V3.59h-.92v1.58h-2.5V3.59H5.5v1.58H3.26V3.59H2.3v2.93l1.2 1.1v13.12l-.6 3.1v.88h2.07v-4.05l1.8-2.18h1.84l1.8 2.18v4.05z"/><path fill="#2b2828" d="M5.74 10.1h1.4v4.2h-1.4v-4.2zm2.52 0h1.38v4.2H8.26v-4.2z"/><path fill="#000" d="M10.03 23.06h-.19v-.97h-.37v.97h-.19v-.97H8.9v.97h-.18v-.97h-.38v.97h-.19v-.97h-.37v.97h-.19v-.97h-.37v.97h-.2v-.97h-.37v.97h-.19v-.97H6.1v.97h-.2v-.97h-.37v.97h-.2v-.97h-.27v-.18h.28v-1.6h.19v1.6h.37v-2.29h.19v2.29h.37v-2.97h.2v2.97h.37v-3.29h.19v3.29h.37v-3.29h.19v3.29h.37v-3.29h.2v3.29h.37v-2.97h.18v2.97h.38v-2.29h.19v2.29h.37v-1.6h.2v1.6h.27v.18h-.28v.97zm1.99-15.3a18.6 18.6 0 0 0-8.62 0l-.05-.18a18.8 18.8 0 0 1 8.7 0l-.03.18zm1.12-1.08a20.57 20.57 0 0 0-10.93 0l-.05-.19c3.62-.99 7.13-.99 11.03 0l-.05.18z"/></svg>