<svg version="1.1" xmlns="http://www.w3.org/2000/svg" viewBox="0 0 28 32"><path fill="#000" d="M12.25 1.37c.01-.71-.67-.3-.4-.06-.11.27-.61-.05-.14-.44 1.04-.74 1.5 1.44-.2 1.02-1.45-.43-3.08-.7-4.48.04-1.83.73-3.58 2.54-5.3 2.54-1.72-.24-.63-2.52.5-1.12.35.98-.96.62-.5.2.64.31.24-.47-.1-.36-1.16.42.04 1.8.96.8.86-2.04-2.89-2.17-2.3-.1.33 1.68.3 3.92-.03 5.37-.01 1.4.83 1.4 1.38 1.18.3-.12.74-1.12-.33-1.3-.57.1-.4.67-.19.5.3-.23.59.28.03.35-.85-.42-.2-1.19.21-1.01 2.72.57 3.03 6.95-.41 7.84-.81 6.75 2 11.36 6.88 12.6.94.28 2 .39 2.96.4 2.75-.13 1.24 2.2.44 1.1-.31-.64.4-.57.38-.36-.44.52.68.41.5-.07-.55-1.51-2.85.52-.62 1.26 1.64.03 2.75.07 4.33-.05 2.72-.17.74-2.94-.05-1.3-.15.8.86.38.48.15-.12-.08.55-.3.26.33-.87.75-1.92-1.17.15-1.15 3.44-.03 7.16-1.4 8.95-4.48 1.51-2.4 1.88-5.5 1.72-8.25-3.3-1.03-3.64-6.27-1.2-7.99 1.85-.9 1.05 1.8.5.73-.04-.11.05-.33.17-.28.68.3.29-.8-.41-.27-1.2 1.3 1.65 2.27 1.33.16-.14-1.1 0-3.92-.1-5.92-.32-1.75-2.9-.82-2.2.27.2.38.73.65 1.22.42.37-.22.2-.82-.26-.83-.23 0-.4.07-.09.48-.05.28-.98-.79.25-.77 1.42.29.6 2.17-1.28 1.11-2.32-.86-4.13-3.16-6.96-2.81-.77.12-2.75 1.51-2.75-.08.57-1.14 1.52.2.82.22.36-.6-.4-.5-.43-.07.01.54.64.42.95.07.56-.84-.26-1.42-1.34-1.02-.96.18-2 .12-2.89-.06-.94-.47-1.42.03-1.56.61-.16.67.96 1.06 1.13.31z"/><path fill="#0f47af" d="M1.07 5.02c3.3.95 5.5-3.92 9.5-2.73 3.07.52 2.37-.65 2.62-1.07h1.79c-.16 1.44 1.14 1.31 2.47.95 5.01-.62 4.74 3.03 9.5 2.8l.03 3.34c-2.96.13-5.23 6.33-.4 9.22-.27 3.03.55 5.65-3.73 9.91l-17.75.11c-2.58-2.61-3.85-4.88-3.51-10.18 4.75-2.18 2.3-9.3-.52-8.95z"/><path fill="#078930" d="M4.4 27.32l.5-.7c.56.36.82.14 1.1-.08l.08 1.12 2.2-.51c.14-.3.4-.3.62-.4l.34.23c.21-.18.43-.29.67-.28l-.1.44c.22-.17.46-.38.62-.35.03.15.1.17.14.44.43-.58.82-.55 1.24-.82l-.23.76c.7-.53.83-.04 1.2 0l1.85-.71c.14.1.04.34.05.57.26-.14.57-.32.75-.38l-.1.47c.16-.17.31-.34.52-.45-.1.27-.02.42 0 .59.27-.12.44-.36.83-.31l-.06.34.96-.37c-.01.06-.02.18-.02.42l.76-.07h.82c.42-.42.53-.3 1.13-.16l.54.2a.76.76 0 0 1 .3-.31l.16.2 1.05-.32v.43c.2-.1.33-.24.57-.22.13.09.3.13.37.33-2 1.51-4.47 2.34-7.57 2.3-.42.35-.77.75-.03 1.72 0 0-3.5.13-3.48.08.6-.5.34-1.5-.07-1.65-3.63-.2-6.4-.8-7.7-2.52z"/><path fill="#000" d="M12.48 31.67c-.37 0-.38-.02-.42-.08a.12.12 0 0 1 0-.13l.04-.05c.34-.28.31-.69.29-.86-.04-.25-.17-.48-.3-.54-4.21-.23-6.61-1.02-7.79-2.57a.18.18 0 0 1 0-.2l.5-.7c.04-.07.13-.08.2-.04.45.3.64.16.91-.05l.03-.02c.04-.02.1-.03.14-.01.04.02.07.07.08.12l.06.95 1.98-.46c.13-.23.34-.3.51-.35l.15-.05c.04-.02.1-.02.13.01l.26.17c.24-.17.47-.25.69-.24.04 0 .08.02.1.06s.03.07.03.11l-.02.07c.15-.1.3-.16.42-.14.06 0 .1.05.11.1l.04.1.04.08c.25-.26.48-.35.71-.45.14-.05.26-.1.38-.18.05-.04.11-.03.16 0s.07.1.05.15l-.13.42c.33-.15.53-.06.74.07.08.04.14.08.21.1l1.81-.7c.04-.02.1-.01.13.01.16.11.15.29.13.44.2-.12.4-.23.55-.27.05-.01.1 0 .13.03.04.04.06.08.04.13v.02l.23-.15c.05-.03.1-.01.15.02s.06.1.03.15a.55.55 0 0 0-.02.33l.05-.04c.17-.1.37-.24.7-.2.03.01.07.02.1.06.01.03.03.07.02.1l-.01.11.73-.28c.04-.02.1 0 .13.03.04.03.06.09.04.14l-.01.23.61-.06h.77c.38-.35.57-.33 1.02-.2l.2.05h.02l.44.16a.87.87 0 0 1 .29-.27.14.14 0 0 1 .16.04l.11.13.96-.3c.04 0 .1 0 .13.03s.05.07.05.11v.19a.77.77 0 0 1 .44-.13c.02 0 .05 0 .07.02l.09.06c.12.06.27.14.34.34.03.06 0 .13-.04.16a11.92 11.92 0 0 1-7.6 2.33c-.35.29-.67.6.02 1.5.03.04.03.1.01.15s-.06.07-.11.07l-1.74.06-1.47.01zm-7.92-4.34c1.15 1.44 3.5 2.18 7.56 2.4h.04c.24.1.43.4.5.78.05.33-.02.64-.18.88.57 0 1.92-.04 2.92-.07-.6-.9-.23-1.34.2-1.7a.14.14 0 0 1 .1-.03h.18c2.84 0 5.2-.73 7.2-2.21a.67.67 0 0 0-.17-.12l-.07-.04c-.12 0-.2.05-.32.12l-.15.1c-.04.01-.1.01-.14-.02s-.07-.07-.06-.11v-.25l-.87.26a.14.14 0 0 1-.14-.04l-.08-.1a.93.93 0 0 0-.15.19.14.14 0 0 1-.17.06l-.53-.2a4.9 4.9 0 0 0-.21-.05c-.42-.1-.48-.13-.79.18a.13.13 0 0 1-.1.04h-.8l-.76.07c-.04 0-.07 0-.1-.03s-.05-.06-.05-.1v-.22l-.75.3c-.05.01-.1 0-.14-.03s-.05-.08-.04-.13l.02-.19c-.13.02-.24.09-.36.16-.08.05-.15.1-.25.14a.15.15 0 0 1-.12 0 .14.14 0 0 1-.07-.1l-.02-.1a1.5 1.5 0 0 1-.04-.21l-.22.24c-.04.05-.11.06-.17.03s-.09-.09-.07-.15l.04-.21a6.01 6.01 0 0 0-.5.27.14.14 0 0 1-.12 0 .12.12 0 0 1-.07-.11l.01-.26c0-.05.02-.11 0-.15l-1.73.66c-.02.01-.04.02-.06.01-.14-.01-.25-.08-.35-.14-.2-.12-.34-.2-.75.11-.05.04-.1.04-.16 0s-.07-.1-.05-.15l.13-.44-.12.06c-.27.1-.51.2-.78.57-.04.04-.1.06-.15.04s-.1-.06-.1-.11c-.02-.15-.05-.2-.08-.27l-.02-.04c-.1.04-.25.16-.36.23l-.08.07a.15.15 0 0 1-.16 0 .13.13 0 0 1-.06-.14l.06-.24a.98.98 0 0 0-.4.23.15.15 0 0 1-.17 0l-.29-.18a.46.46 0 0 1-.1.03c-.17.06-.3.1-.38.27a.14.14 0 0 1-.1.08l-2.2.51a.14.14 0 0 1-.11-.02.11.11 0 0 1-.06-.1l-.05-.87c-.23.14-.52.24-.95 0l-.36.55z"/><path fill="#000" d="M8.19 26.15c.29-.76.29-1.3.44-1.46.77.08 2.81-.15 3.37-.49.35 1.1.76 1.72.61 2.58-.13.38-.23 1.12.32 1.13.21 0 .3.3.48.4.98.4 1.86-.5.64-1-.55-.57-.46-2.37-.34-3.16.53.02.61-.33 1.22.03 1.3.61 2.18-.25 1.26-1.66-.67-1.8-1.33-3.5-1.77-5.43.09-.7.1-.66-.04-1.45.86 0 3.58-.52 3.3.88-.34.66-1.05 1.37-.11 1.85.45.1.35 1.01.29 1.28-.08.15.5.03.39-1.17-.12-.62-.42-.52-.38-1.01 2.47-1.22 1.65-3.1.07-2.68-.62-.49-.72-1.17-2.3-.61-1.63-.3-1.89.08-2.2.15-.72-1-.86-.97-.66-2.25.21.25.34.5.6.82.93 1.17 2.68-.04 1.6-1.74-.5-.73-.72-.47-.98-1.49-.92-1.82-2.03-1.27-2.1-1.79.08-.25.02-.21.25-.57.14.05.32.27.39.2.4-.49.45-.8.5-1.1.29-1.42-1.1-1.46-1.12-1.5-.14-.88-2.05-.68-2.23.25-.71.13-.6.45-.8.75-.3.43-.19.9.05 1.22-1.02.96-2.65.8-3.02 2.81-.39-.63.15-1.75-.47-2.27.03-.3.3-.2.64-.44.1-.07-.06.79.45.98.26-.3.18-.6.2-.9.3.17.86.31.96.26l-.2-.62c.71-.2.7-.93.7-.93-1.16.03-.84.5-1.23.76 0 0 .16-.83.4-1.12-.55.07-.93.4-.9 1.19-.03 0-.1.02-.14-.02-.1-.1.3-.46-.27-.46-.18.01.4-1.02 1.58-1.27.68.37 1.21-.38 1.33-.85-.14-.13-.42.05-.42-.04.12-.34.45-.81.53-.77.27.14.9.13.76-.23-.04-.08 0-.16.03-.36.08-.2-.94.81-.47-.34-.05-.13-.4.02-.44.05-.46.33-.2.35-.27.75-.2.3-.52.83-.55 1.07-.26.35-.57-.06-.92.1.31-.2.25-.91.15-1.13-.11.3-.89.41-.88.96l-.62-.6c.1.21-.48 1.19.35 1.78.09.08-.2.47-.2.34-.02-.87-.7-.94-.7-1.07.1.51-.32.73.39 1.7-.02.09-.15.18-.27.25-.01-1.1-.62-1.3-.7-1.53-.02.36-.23.7-.18 1.08-.26.07-.14.05-.4.03-.07 0-.67-.2-.12.57.14.15.68.36.88.25.34-.2.45.33-.03.15-.1-.03-.29 0-.35.12-.79 1.37-.48 1.53-.48 1.67-.02.3-.3.52-.5.72.13.46.36 1.05.55.99.14-.8.36-1.21.47-1.2.19.02.16.49.14.88-.16.98.44 2.03.8 2.19-.11 1.93 1.04 1.79 1.43 2.04-.4.44-.27 1.2 0 1.65-.26 1.22-1 2.23-1.54 3.3-.42 1.4-1.55 2.62-1.43 4.13.15.26.24.56 1.09.47a2 2 0 0 1 .75.05c.46.17.97.02 1.38-.12.23 1.1-.16 1.79-.6 2.13-.12.3-.49.42-.7.8-.27 1.16 1.1.88 1.64.3.6-.25.92-.62.61-1.24zm1.93-18.8c.01.4-.22.63-.3.67-.45.35-.96.28-1.42.52-.92.83-1.51 1.69-1.64 1.58-.1-.07.11-.55 1.26-1.55.54-.42.73-.46 1.23-.86.23-.04.89-.7.87-.36zm-1.89 4.2c.36 1 1.09 1.61-.1 2.02-.51-.19-1.19-.5-1.27-1.11.54-.32.92-.56 1.37-.92z"/><path fill="#fff" d="M5.01 9.63a.92.92 0 0 1-.26-.38c.03-.03.03-.1.07-.12.1-.07.08-.14.02-.21.05-.04.1-.12-.02-.13-.26-.04-.38-.08-.47-.1-.11-.05-.11-.14-.04-.13.1.02.29.09.5.11.06 0 .13-.03.07-.11-.17-.09-.27-.07-.33-.11-.12-.05-.11-.01-.2-.11-.05-.12.02-.2.2-.09.12.05.2.12.32.16.13-.06.11-.14.04-.17-.09-.1-.22-.18-.33-.26-.22-.11-.04-.27.1-.14l.4.31c.07.09.04.2.01.29-.05.2-.13.4-.1.62-.03.12.17.4.18.05 0-.25.07-.42.18-.67.05-.58-.2-.57-.42-.67-.15-.1-.25-.23-.17-.26.1-.09.42.14.6.35.12.12.15.24.14.25.03.48-.01 1.03.02 1.4.04.25-.45.26-.51.14zM9.84 8.4l-1.28.42c-.58.57-1.07 1.15-1.65 1.69-.26.32-.36.32-.6.22-.18-.09-.25-.24-.43-.36l-.83.2c0 .43 0 .86.17 1.25.11.22.26.46.48.6.18.07.4.06.59.06.27-.02.51-.17.75-.3.47-.28.88-.64 1.33-.93.04-.04.08-.05.09 0 .04.18.07.37.14.53.13.33.31.64.42.98.08.21.24.38.44.5.37.25.77.47 1.23.49.47.03.96 0 1.4-.17.13-.04.26-.14.24-.29.04-.51.08-1.03.2-1.54 0-.09.11-.22.02-.26-.12-.08-.27-.17-.25-.33 0-.16 0-.35-.15-.46-.1-.1-.28-.16-.3-.32-.03-.26-.24-.33-.37-.48-.04-.07-.04-.24-.1-.29-.18-.04-.35-.1-.34-.4-.09-.06-.2.15-.43-.17-.27-.19-.49-.44-.73-.66h-.01zm2-.14c.15.33.95.44 1.19 1.86.03.13.3.17.37.35.05.15.28.18.39.27.26.24.54.51.67.86.07.16.1.42-.07.2-.28-.25-.19-.4-1.03-.98-.2.1-.46.33-.61.48.1.45.58 1.05.8 1.37.19.22.4.45.71.48.94-.1.95-1.37.63-1.74-.4-.44-.68-.55-.95-1.07-.25-.45-.4-.96-.72-1.37-.27-.39-.7-.19-1.38-.73zM10.12 5.1c-.05-.12.1-.2.15-.27.13-.12.32-.14.49-.17.2-.03.4-.04.6-.02.1.04.17.14.26.22.12.1-.08.13-.16.12-.28.02-.56.04-.83.08-.16.03-.32.07-.48.05h-.03zm2.13 1.92c.18-.8.14-1.5-.1-1.64 1.08-.08.72 1.29.42 1.86-.1-.03-.33-.19-.32-.23z"/><path fill="#fff" d="M11.77 6.47c-.06-.23.18-.34.32-.26.13.12.12.32.06.33-.24-.33-.22-.03-.38-.07z"/><path fill="#fff" d="M10.94 8.05c-.56-.32-.82-1.24-.75-1.84.06-.31.2-.61.37-.88 1.03-.2 1.57-.01 1.54.56-.37.1-.36.13-.48.24-.17.2-.18.6-.16.86-.16.02-.48.1-.08.3.53.07.33-.35.35-.59.15.06.18.15.42.04-.07.21-.26.7-.37.88-.21.02-.23-.03-.35-.1-.14-.14-.34-.1-.32.12.01.07-.14-.01-.17.03 0 .13.43.15.29.42-.04.05-.23-.01-.3-.04zm.1-1.35c.39-.4-.41-.26-.51-.06.07.09.41.15.5.06zm.2-.47c-.02-.16-.28-.26-.45-.28-.2-.02-.6.2-.08.17.27-.02.54.28.52.1zm-2.16.03c.16-.58.41-.77 1.17-.81-.42.6-.36 1.22-.24 1.68-.76-.08-1.21-.25-.93-.87zm1.65 2.62c-.19-.4-.4-.45-.62-.7 0-.06.22-.14.23-.3.13 0 .1.16.2.22.19.14.4.2.62.25.47.02.46.65-.12.56-.1-.02-.16.08-.3-.03z"/><path fill="#fff" d="M11.63 8.4c-.01-.17-.2-.46-.17-.45.05-.2.48.61.23.5a.1.1 0 0 1-.06-.05zm1.51 2.2c-.28.03-.47.27-.65.46 0 .09.11.05.16.03.2-.08.4-.17.52-.35.03-.04.03-.14-.03-.14zm-8.12-.41c-.22-.07-.11-.26.07-.15.26-.03.24-.03.42-.08.12-.07.24.03.07.13-.23.12-.43.1-.56.1z"/><path fill="#fcdd09" d="M4 10.53a2.84 2.84 0 0 1-.28-.72c.24-.26.61-.75.66-.84.07-.1.11-.01.22.01.12.02.12.03-.13.34-.1.13-.19.36-.26.49-.14.2-.2.77-.22.72z"/><path fill="#fff" d="M6.13 10.19c-.03-.26.11-.49.18-.72.2-.5.54-.96 1.03-1.22.2-.08.43-.16.64-.28.48-.25.92-.55 1.34-.9.13.03.5.08.32.26-.36.3-.79.5-1.17.78-.67.43-1.37.9-1.77 1.61-.11.2-.2.4-.29.6-.1.15-.26-.02-.27-.13zm6.4.48a.65.65 0 0 1-.33-.31c-.14-.18-.15-.23-.02-.27.06 0 .07-.02.08-.08 0-.03.1-.06.07-.16-.07-.15.04-.2.15-.17.03-.05-.03-.12-.04-.12-.13-.02-.22-.04-.28 0-.12.09-.09.14-.09.35 0 .05-.08.03-.06.05-.21-.27-.08-.54.18-.5.12.01.08-.1.08-.08-.56-.22-.51.18-.51.38 0 .07-.09-.04-.07 0-.2-.26.12-.7.36-.52.05.03.08-.03.08-.08 0-.1-.07-.09-.08-.1-.2-.09-.25.01-.36.04-.14.13-.2.16-.28.28-.06.06-.13-.02-.1-.07 0-.03.23-.44.43-.5a.5.5 0 0 1 .38.03c.33.19.21.28.33.41.04.05.08.09.08.14 0 .12.09.15.08.2 0 .1.06.16.09.2.04.08-.07.18.02.26s.13.22.2.4c0 .08-.08.11-.14.15-.08.04-.1.15-.24.07zm3.3-5.03c.42-.31.99-.46 1.63-.51.89-.04 1.79-.04 2.54-.57.5.3 1.02.6 1.74.73.89.06 1.78.19 2.23.61a12.6 12.6 0 0 0-.79 4.06c-.1 1.27-.7 1.79-1.32 2.25-.8.33-1.45.6-2.07 1.2-.77-.75-1.7-.97-2.48-1.37-.9-.67-1.09-1.62-1.08-2.54.07-1.31.03-2.6-.4-3.86z"/><path fill="#000" d="M19.8 13.63a.2.2 0 0 1-.15-.07 5.18 5.18 0 0 0-1.72-1.01c-.24-.1-.48-.2-.71-.32l-.03-.02c-1.06-.8-1.18-1.93-1.17-2.71v-.02a9.66 9.66 0 0 0-.4-3.77.2.2 0 0 1 .04-.18 3.4 3.4 0 0 1 1.79-.6v-.01h.16c.83-.04 1.61-.07 2.27-.54a.21.21 0 0 1 .22 0c.48.28.97.58 1.66.7.92.07 1.85.2 2.35.67a.2.2 0 0 1 .05.23 12.16 12.16 0 0 0-.77 4 2.96 2.96 0 0 1-1.42 2.39l-.04.02c-.78.33-1.4.59-2 1.17a.2.2 0 0 1-.14.07zm-2.38-1.77l.67.3c.57.24 1.16.49 1.7.97.6-.54 1.24-.8 1.96-1.1.62-.46 1.13-.94 1.23-2.09.09-1.45.25-2.7.74-3.97-.44-.32-1.25-.42-2-.47h-.01a4.78 4.78 0 0 1-1.7-.7c-.73.47-1.57.5-2.38.53h-.16c-.6.06-1.06.18-1.4.4.44 1.34.43 2.71.36 3.77 0 1.12.3 1.85 1 2.36z"/><path fill="#0f47af" d="M17.9 11.15c-.14.05-.39.2-.29.55.16-.04.33-.1.49-.27l-.2-.28z"/><path fill="#000" d="M17.56 11.8l-.02-.07c-.12-.44.22-.6.32-.64l.05-.03.27.38-.03.04a.98.98 0 0 1-.5.29l-.09.02zm.31-.57c-.1.06-.24.17-.2.39a.75.75 0 0 0 .34-.2l-.14-.19z"/><path fill="#0f47af" d="M17.14 9.43c-.14.05-.38.2-.29.56.16-.05.33-.1.5-.28l-.21-.28z"/><path fill="#000" d="M16.8 10.07l-.02-.06c-.11-.44.22-.6.33-.64l.04-.03.27.38-.03.04a.98.98 0 0 1-.5.29l-.09.02zm.31-.56c-.1.06-.24.17-.2.39a.75.75 0 0 0 .34-.2l-.13-.19z"/><path fill="#0f47af" d="M17.27 9.15c-.13-.04-.41-.07-.55.29.15.05.32.11.55.06v-.35z"/><path fill="#000" d="M17.1 9.6c-.15 0-.27-.05-.4-.09l-.07-.03.02-.07c.14-.34.43-.39.64-.32l.05.01v.46l-.05.01a.83.83 0 0 1-.18.02zm-.29-.2a.8.8 0 0 0 .4.04V9.2c-.1-.01-.29-.01-.4.2z"/><path fill="#0f47af" d="M17.62 8.88c-.13-.15-.6-.3-.8.1.14.08.45.2.68.18l.12-.28z"/><path fill="#000" d="M17.46 9.23c-.25 0-.55-.12-.68-.2L16.72 9l.03-.05c.1-.21.28-.27.4-.3.2-.02.43.08.52.19l.02.03-.15.36h-.08zm-.55-.28c.14.07.36.14.54.14l.09-.2a.55.55 0 0 0-.38-.1.38.38 0 0 0-.25.16z"/><path fill="#0f47af" d="M17.55 6.2c-.06-.12-.37-.45-.71-.3.07.15.26.42.46.54l.25-.25z"/><path fill="#000" d="M17.3 6.53l-.04-.03c-.21-.13-.4-.41-.49-.57l-.03-.06.07-.03c.38-.17.72.18.8.33l.01.04-.31.32zm-.36-.6c.08.14.2.32.35.42l.17-.16c-.08-.1-.28-.3-.52-.25z"/><path fill="#0f47af" d="M17.9 6.4c.03-.13.03-.57-.32-.7-.05.16-.1.48-.04.71l.35-.01z"/><path fill="#000" d="M17.49 6.48l-.02-.05c-.07-.25-.01-.59.04-.75l.02-.07.07.03c.38.14.4.6.35.78l-.01.05-.45.01zm.13-.69c-.03.15-.05.37-.02.55h.24c.01-.13 0-.41-.22-.55z"/><path fill="#da121a" d="M17.14 6.26h.89c-.07.3-.05.6.38.92.17.17.36.31.58.41-.06.1-.2.14-.36.17l.24.28-.6.57c-.34-.36-.27-.53-.23-.69-.27-.2-.24-.43-.31-.62l-.38-.01c-.19-.26-.23-.62-.23-1.02h.02z"/><path fill="#000" d="M18.26 8.7l-.04-.04c-.33-.35-.3-.55-.26-.71a.76.76 0 0 1-.25-.48l-.03-.1-.37-.01-.02-.03c-.21-.3-.24-.7-.24-1.06v-.04l.07-.04h1l-.02.09c-.06.25-.06.53.35.84.2.2.37.33.57.4l.08.04-.05.07c-.06.1-.17.15-.3.17l.21.24-.7.67zm-.88-1.48l.4.01v.04c.03.06.04.11.05.16.03.15.07.3.24.43l.03.03v.07c-.04.13-.08.27.16.55l.51-.48-.27-.31.12-.03c.1-.01.2-.04.26-.08a1.96 1.96 0 0 1-.51-.38c-.43-.33-.46-.64-.42-.9h-.76c0 .31.03.64.2.89z"/><path fill="#0f47af" d="M18.3 11.7c-.05.12-.11.4.22.58.07-.15.16-.3.13-.54l-.34-.04z"/><path fill="#000" d="M18.55 12.38l-.07-.03c-.32-.18-.33-.46-.24-.68l.02-.05.45.06v.05a.95.95 0 0 1-.12.57l-.04.08zm-.2-.6c-.03.1-.04.27.14.4.06-.1.1-.22.1-.38l-.24-.02z"/><path fill="#0f47af" d="M18.1 10.8c-.13-.02-.58.01-.68.38.17.03.5.05.72-.03l-.04-.35z"/><path fill="#000" d="M17.75 11.27a1.4 1.4 0 0 1-.34-.03l-.07-.02.02-.07c.1-.38.56-.45.75-.42l.05.01.06.45-.05.02c-.13.05-.28.06-.42.06zm-.23-.15c.15.02.37.03.55-.02l-.03-.23c-.13 0-.42.03-.52.25z"/><path fill="#da121a" d="M20.58 9.63c.17.22.03.43-.01.66-.52.03-.7.32-.54.76-.62.02-.87.43-1.29.67h-.55c-.22-.2-.08-.36-.11-.54l-.16-.06a.71.71 0 0 1 .44-.43c.24.51.52.43.8.02.4-.46.12-.46-.31-.37.16-.21.28-.47.65-.46l.06-.42.32.2.7-.03z"/><path fill="#000" d="M18.77 11.79h-.6l-.02-.02c-.18-.15-.16-.3-.14-.42v-.12l-.18-.08.03-.07a.78.78 0 0 1 .48-.46l.06-.02.03.06c.1.2.2.3.3.31.1.01.24-.1.39-.3.2-.24.17-.3.17-.3s-.04-.05-.42.04l-.18.04.11-.15.06-.08c.13-.19.28-.4.59-.4l.07-.47.38.23.71-.02.02.03c.15.19.1.38.05.55l-.04.16v.05h-.06c-.24.02-.4.09-.48.2-.08.1-.08.27 0 .47l.03.08-.1.01c-.4.02-.64.2-.88.4-.12.09-.23.19-.37.26l-.02.02zm-.55-.14h.5c.13-.07.23-.15.34-.24.24-.19.48-.39.88-.43-.06-.2-.05-.38.04-.5.1-.15.28-.24.53-.26l.04-.12c.04-.15.08-.27 0-.4l-.68.02-.25-.15-.06.38h-.06c-.25 0-.38.13-.5.3.2-.04.34-.04.4.06s0 .23-.19.45c-.18.25-.35.38-.51.36-.15-.01-.27-.12-.38-.33a.62.62 0 0 0-.32.3l.13.05v.04c.02.07.01.14 0 .2 0 .1-.02.18.08.27z"/><path fill="#0f47af" d="M18.65 6.6c.02.27.19.26.43.25h.59v-.22l-.48.02c-.18.03-.21-.05-.22-.14-.02-.5-.35-.07-.32.1z"/><path fill="#000" d="M18.97 6.89c-.18 0-.33-.03-.35-.27-.03-.1.06-.27.15-.34.07-.05.1-.04.13-.03.07.03.1.12.1.26.01.08.03.13.18.11l.52-.03v.3h-.72zm-.29-.28c.03.22.14.22.39.2h.56v-.15l-.44.03c-.2.03-.24-.07-.26-.17 0-.18-.04-.2-.05-.2-.02-.02-.05 0-.07.01-.07.06-.14.2-.13.28z"/><path fill="#0f47af" d="M20.99 11.77c-.06.12-.12.4.21.58.08-.15.16-.3.13-.54l-.34-.04z"/><path fill="#000" d="M21.23 12.45l-.06-.03c-.33-.18-.34-.47-.24-.68l.02-.05.45.06v.05a.95.95 0 0 1-.13.57l-.04.08zm-.2-.6c-.03.1-.04.27.14.4.06-.11.1-.22.1-.38l-.23-.03z"/><path fill="#0f47af" d="M17.41 9.7c-.05.13-.12.4.21.59a.92.92 0 0 0 .14-.55l-.35-.04z"/><path fill="#000" d="M17.65 10.38l-.06-.03c-.32-.17-.34-.46-.24-.67l.02-.05.45.05v.06a.95.95 0 0 1-.13.57l-.04.08zm-.2-.6c-.02.1-.04.27.15.41.05-.11.1-.22.1-.38l-.24-.03z"/><path fill="#0f47af" d="M18.37 10.73c.04-.28-.4-.57-.72-.22.38.05.32.3.43.36l.3-.13z"/><path fill="#000" d="M18.07 10.95l-.03-.02c-.05-.04-.07-.09-.1-.14-.04-.1-.08-.2-.3-.22l-.13-.01.09-.1a.5.5 0 0 1 .58-.14c.17.08.28.26.26.42l-.01.04-.36.17zm-.27-.48c.19.07.24.19.28.27l.02.05.21-.1c0-.1-.07-.18-.18-.24a.33.33 0 0 0-.33.02z"/><path fill="#da121a" d="M19.75 5.85c.52.08.78.33 1.08.55-.1.1-.23.21-.18.32.03.19.14.19.22.29-.14.06-.25.09-.4.22.1.15.18.24.28.35-.14.06-.32.05-.35.24.25.14.41.28.18.48 1.13.58.82.86.82 1.2.14.42.3.3.48-.06.03-.7-.22-.96-.45-1.25-.58-.81-.19-.94.03-1.2l.35-.3c.34-.33.2-.53-.1-.69.22-.1.73-.14.7.34.47-.05.6.2.56.57-.18-.01-.5-.4-.47.2-.04.18-.02.38-.54.42l-.36.02c.02.3.11.54.36.81.05-.15.82-.69.89.27-.28-.04-.65-.22-.48.44.14.33.04.52-.12.78.4 0 .32.58-.16.84.02-.68-.2-.7-.55-.32-.03.44.23.63.45.93-.04.1-.19.1-.34.09.07.08.03.27-.29.44l-.38-.03v.25a1.43 1.43 0 0 0-.8.07c-.3-.3-.2-.42-.22-.6.78.1 1.13-.42.5-.72.08-.51.32-1.1-.14-1.49-.37 0-.63-.08-.73-.25-.05-.15.18-.25.32-.37a.98.98 0 0 0-.57.65c-.08-.07-.14-.08-.19-.36-.1.11-.12.27-.2.44-.07-.02-.13-.02-.13-.33-.08.18-.13.48-.24.53-.03-.13-.07-.24-.18-.26l-.56.18c.03.13 0 .16-.08.33l-.38-.01c-.13-.27-.19-.55.16-.97.6-.07.95-.54 1.3-.86l-.22-.24c.15-.07.42-.1.27-.3.17.04.38-.02.59-.07.07-.12.39-.32-.03-.3-.11 0-.23.03-.2-.19.5.1.54-.54.07-.55-.1-.04-.1-.2-.08-.38.12.01.25.01.3.03 0-.1 0-.18.2-.18h.01z"/><path fill="#000" d="M20.16 12.2l-.04-.03c-.24-.24-.23-.39-.23-.53v-.11l-.02-.1.1.02c.4.06.68-.07.73-.23.03-.13-.07-.26-.28-.36l-.05-.02v-.05l.06-.27c.1-.43.19-.84-.14-1.13-.42-.02-.66-.11-.77-.3-.07.1-.1.2-.12.27l-.03.1-.08-.07-.03-.02a.35.35 0 0 1-.14-.21l-.05.1-.07.19-.03.05-.07-.02c-.05-.02-.1-.04-.12-.1-.04.14-.1.26-.18.3l-.08.04-.02-.08c-.03-.13-.06-.2-.12-.21l-.48.16c.02.08-.01.14-.05.23l-.04.08-.02.04-.47-.02-.02-.04c-.15-.32-.18-.62.16-1.04l.02-.02h.03c.48-.06.79-.36 1.07-.66l.14-.14-.24-.26.09-.04.11-.04a.54.54 0 0 0 .17-.08c0-.01 0-.03-.03-.07l-.1-.13.16.02c.14.03.32-.02.5-.06h.04l.07-.1a.4.4 0 0 0 .07-.08h-.14c-.07 0-.15.01-.21-.05-.04-.05-.05-.12-.03-.21l.01-.07.07.01c.12.02.22 0 .27-.08a.22.22 0 0 0 .03-.2c-.03-.05-.09-.13-.25-.13h-.02c-.15-.07-.13-.28-.12-.46v-.07l.08.01h.08l.14.02c0-.04.02-.07.04-.1.05-.05.11-.07.22-.07h.04c.46.08.73.28.98.47l.13.1.06.04-.1.1c-.06.06-.15.15-.13.2v.01c.03.1.06.13.12.17l.1.1.05.06-.08.04-.09.04a.99.99 0 0 0-.24.13c.07.1.13.18.2.25l.1.12-.08.03-.12.04c-.1.03-.16.04-.18.1.15.08.27.18.28.31a.3.3 0 0 1-.06.19c.83.44.85.72.8 1.06l-.03.15c.07.2.12.2.13.2.02 0 .08 0 .21-.27.03-.63-.17-.88-.39-1.14l-.04-.06c-.52-.73-.29-.96-.07-1.17l.1-.1v-.02l.36-.31c.12-.13.18-.23.17-.32s-.1-.17-.26-.25l-.11-.07.11-.06c.14-.07.42-.13.62 0 .08.05.16.15.17.32.2 0 .35.04.44.14.11.1.16.28.14.51l-.01.07h-.07a.55.55 0 0 1-.2-.08c-.05-.03-.13-.07-.16-.06 0 .01-.05.04-.04.26v.06c-.04.2-.11.38-.6.43l-.29.01c.03.25.11.43.28.63.1-.12.35-.27.56-.24.17.02.37.15.4.62v.08l-.08-.01-.12-.02c-.11-.02-.24-.05-.28 0-.03.03-.06.1 0 .38.14.31.07.51-.07.74.1.03.17.1.2.2.05.22-.1.56-.44.75l-.1.05v-.11c0-.42-.08-.48-.1-.5-.02 0-.1-.01-.32.2-.01.31.13.5.3.69l.14.18.03.03-.02.03c-.05.12-.18.15-.3.15v.06c-.02.07-.1.22-.36.36l-.02.01-.32-.02v.25l-.1-.02a1.37 1.37 0 0 0-.76.07l-.06.06zm-.13-.6v.05c0 .11 0 .21.16.39.28-.1.52-.1.73-.07v-.25l.43.03c.22-.11.26-.22.27-.26l-.01-.06-.1-.13.16.01c.12.02.2.02.25-.02l-.11-.14c-.18-.22-.34-.42-.32-.8v-.02l.01-.02c.2-.22.36-.3.48-.26.12.05.18.2.19.5.2-.17.3-.4.27-.53-.03-.09-.09-.12-.18-.12h-.13l.07-.1c.16-.26.25-.42.12-.72-.07-.27-.06-.43.02-.51.1-.1.27-.07.41-.04h.03c-.03-.18-.1-.37-.27-.39-.21-.03-.45.18-.47.23l-.04.11-.08-.08a1.3 1.3 0 0 1-.38-.85v-.07l.42-.03c.42-.03.44-.16.47-.3V7.1c0-.2.04-.32.11-.38.09-.06.2 0 .3.05.03.01.05.03.08.03 0-.15-.03-.25-.1-.32-.07-.08-.2-.1-.4-.09h-.08v-.07c0-.14-.03-.23-.1-.29a.5.5 0 0 0-.36-.03c.13.09.19.18.2.28.02.14-.05.28-.21.44l-.35.31-.11.12c-.2.19-.37.35.09.98l.04.05c.22.28.45.56.42 1.25v.01l-.01.02c-.12.26-.23.37-.35.36-.14 0-.21-.18-.26-.3l-.01-.02v-.02l.02-.18c.05-.26.09-.5-.8-.96l-.09-.05.08-.07c.06-.05.09-.1.08-.14 0-.08-.15-.17-.25-.22l-.04-.02v-.05c.03-.2.18-.23.3-.26l-.22-.28-.03-.05.04-.04c.13-.1.23-.15.32-.19a.37.37 0 0 1-.16-.25c-.05-.12.05-.23.14-.33l-.06-.05a1.9 1.9 0 0 0-.92-.44h-.01c-.09 0-.11.03-.12.03v.09l.02.11-.11-.04-.2-.02h-.02c-.01.09-.01.2.02.24.16 0 .29.08.35.2.05.12.04.26-.04.36s-.19.14-.33.14l.01.03h.12c.12 0 .24 0 .27.1s-.04.15-.1.22c-.03.04-.07.07-.08.1l-.02.02-.08.02c-.14.04-.3.07-.44.08v.07c-.03.1-.15.14-.26.17l.2.21-.06.05-.18.18c-.3.3-.62.63-1.13.7-.3.37-.24.61-.15.83l.3.02v-.04c.06-.1.07-.13.04-.2l-.02-.06.06-.02c.35-.1.44-.14.55-.18l.02-.02h.03c.1.02.16.1.2.2l.07-.22.07-.2.13.03c0 .14.02.2.04.23 0-.03.02-.06.04-.1.04-.1.07-.2.14-.29l.1-.11.03.15c.02.15.05.22.08.25.08-.2.26-.47.58-.59l.07.12-.11.08c-.12.08-.2.14-.2.2.1.13.31.2.68.21h.02l.02.02c.41.34.3.84.2 1.28 0 .08-.03.15-.04.22.25.13.36.31.3.5-.01.2-.29.38-.76.33z"/><path fill="#000" d="M19.68 6.33c.02-.1.36-.1.35 0 0 .11-.23.1-.23.07z"/><path fill="#000" d="M19.87 6.46c-.07 0-.1-.03-.1-.06h.07l-.01-.02c.01 0 .1.01.14-.01.03-.02.03-.03.03-.05 0-.01-.09-.04-.19-.02-.06 0-.1.02-.1.04l-.06-.01c.01-.1.17-.11.27-.1.1.01.15.05.15.1-.01.08-.1.12-.2.12zm.35.34v-.08c.1-.01.16-.02.18-.13 0-.12-.02-.14-.03-.15s-.03 0-.11.06l-.04-.06c.05-.04.12-.09.18-.06.05.02.07.1.07.22-.03.16-.14.18-.23.2h-.02z"/><path fill="#0f47af" d="M20.16 12.11c.04.16.06.32.22.46.08-.15.18-.31.18-.55l-.4.1z"/><path fill="#000" d="M20.4 12.68l-.07-.06a.72.72 0 0 1-.22-.45l-.02-.1.53-.14v.09c.01.24-.1.42-.17.56l-.05.1zm-.15-.52c.02.1.04.2.11.29.06-.1.11-.21.13-.35l-.24.06z"/><path fill="#0f47af" d="M19.96 11.5c-.13-.03-.58 0-.68.36.17.04.5.06.72-.02l-.04-.35z"/><path fill="#000" d="M19.6 11.96a1.4 1.4 0 0 1-.33-.03l-.07-.02.02-.07c.1-.38.56-.45.75-.42l.05.01.05.45-.04.02c-.13.05-.29.06-.42.06zm-.22-.15c.15.02.37.03.55-.02l-.03-.24c-.13 0-.42.04-.52.26z"/><path fill="#0f47af" d="M19.96 11.84c-.13.04-.38.19-.29.55a1 1 0 0 0 .5-.27l-.21-.28z"/><path fill="#000" d="M19.63 12.48l-.02-.07c-.12-.44.22-.6.32-.64l.05-.02.26.37-.03.05a.98.98 0 0 1-.5.28l-.08.03zm.3-.56a.35.35 0 0 0-.2.38.75.75 0 0 0 .34-.19l-.13-.2z"/><path fill="#0f47af" d="M17.07 6.81c-.13.05-.48.33-.39.7.16-.06.33-.1.5-.28l-.11-.42z"/><path fill="#000" d="M16.63 7.6l-.02-.08c-.1-.4.26-.7.43-.77l.07-.03.13.53-.02.02a.98.98 0 0 1-.5.3l-.09.02zm.39-.68c-.12.07-.3.26-.28.5a.83.83 0 0 0 .35-.21l-.07-.3z"/><path fill="#0f47af" d="M17.14 6.47c-.17-.24-.7-.14-.69.33.3-.23.44 0 .57-.03l.12-.3z"/><path fill="#000" d="M16.39 6.94V6.8a.5.5 0 0 1 .33-.5c.18-.06.37-.01.47.13l.02.03-.14.37h-.04a.25.25 0 0 1-.17-.03c-.1-.04-.2-.08-.37.05l-.1.09zm.33-.31c.08 0 .15.02.2.04l.06.03.08-.22a.27.27 0 0 0-.29-.06.33.33 0 0 0-.23.24.53.53 0 0 1 .18-.03z"/><path fill="#0f47af" d="M19.75 5.23c.2.08.42.09.51.45.12-.01.2-.06.25-.14-.02-.17.09-.24.3-.23.23.14 0 .48 0 .48s0 .21.22.19c.26-.03.52 0 .52 0-.1.15-.37.38-.65.41a2.8 2.8 0 0 0-1.16-.55.99.99 0 0 1 .02-.61z"/><path fill="#000" d="M20.88 6.46l-.02-.01a2.64 2.64 0 0 0-1.13-.54h-.05l-.01-.05c-.04-.17-.08-.39.02-.66l.05.02.01-.07h.1l-.01.04.03.01c.16.06.34.12.44.4.05-.01.1-.04.13-.08 0-.08.01-.15.06-.2.06-.06.17-.1.32-.1h.02l.01.02c.07.04.11.1.13.17.02.16-.07.32-.1.38 0 .02.01.06.04.09.03.02.06.03.11.02.26-.03.52 0 .53 0l.1.02-.05.09c-.1.16-.4.4-.7.44l-.03.01zm-1.09-.68c.42.07.81.32 1.12.54a1 1 0 0 0 .5-.28c-.1-.01-.23-.01-.37.01a.3.3 0 0 1-.22-.06c-.09-.08-.09-.19-.09-.2v-.02l.02-.02c.03-.05.1-.2.09-.3a.15.15 0 0 0-.05-.08c-.1 0-.16.01-.2.04-.01.03-.02.07-.01.11v.03l-.02.02a.37.37 0 0 1-.3.18h-.06l-.01-.06c-.06-.26-.2-.3-.36-.36l-.03-.02a.98.98 0 0 0-.01.47zm4.23 10.25c-.55.09-1.02.75-1.59.76-.68.26-1.17 1-1.11 1.74.01.85.37 1.64.43 2.48-.24.43-.9.32-1.31.5a7.84 7.84 0 0 0-3.35 2.06c-.52.45-.9 1.02-1.33 1.53-.13.3.7-.1.27.34-.14.25-.8.75-.46.9.62-.22 1.23-.55 1.9-.58.39.07 1.12-.33 1.28.09-.13.52-.33 1.08-.82 1.32-.12.44.56.1.48.8.12.4.8 1.34.82.46a.97.97 0 0 1 1.43.03c.13-.5 1.07-.22 1.17-.65-.65-.32-1.15-.43-1.03-.84.29-.42.05-1.14.46-1.43.92-.86 2.13-1.63 2.52-2.89.24-.8-.3-1.6-.59-2.3a1.84 1.84 0 0 1-.03-1.65c.43-.64 1.17-1.38 1.51-2.07-.3.01-1.37.68-.94-.02.03-.14.44-.48.3-.58zm-3.97 9.7c.22.24.15 1.14.03 1.14-.01.09-.12 2.09-.94.18-.04-.49.45-1.33.9-1.31z"/><path fill="#020203" d="M22.02 18.03c-.04-.05.02-.43.08-.54a.77.77 0 0 1 .25-.23c.06-.04.07-.04.1 0 .08.08-.19.65-.36.76-.04.03-.06.03-.07.01z"/><path fill="#020203" d="M22.3 17.69l.01-.1c0-.06-.07-.09-.14-.06-.04.01-.05.03-.05.1l.02.08.07.02c.05 0 .07-.01.09-.04z"/><path fill="#fff" d="M18.79 28.08c-.13-.54-.34-.64-.62-.83l.24-.2c.2-.03.26-.3.45-.8.2-.58.26-.75.2-.8a4.66 4.66 0 0 0-.88 0c-.39.01-.81.08-1.02.13-.28.06-.66.13-.86.23-.2.08-.48.23-.5.2a2 2 0 0 1 .34-.4c.18-.18.31-.27.41-.27.08 0 .28-.04.45-.1.17-.05.6-.29.81-.1.12.12.32.05.45 0 .27-.14.42-.01.59-.03.22-.01.38-.08.56-.03.2.06.35-.02.5-.07.26-.08.5-.2.86-.4.62-.33 1-.6 1.2-1.03.22-.46.25-.66 0-.97-.14-.2-.26-.28-.22-.36.32-.35.06-.25-.16-.07s-.14.28.04.54c.34.28.1.82-.47 1.35-.21.2-.56.35-.83.5-.93.44-.82.34-.25-.14.24-.2.27-.38.16-.38-.02 0-.2.1-.36.23s-.33.34-.46.43c-.25.18-.55.19-.5.04l.12-.12c.19-.37-.06-.24-.21 0a1.3 1.3 0 0 1-.71.26c-.2 0-.22-.05-.03-.23.08-.08.22-.15.27-.24.3-.45-.1-.31-.47.16-.4.33-.81.47-1.03.47-.16 0-.17-.03-.06-.22.37-.41.2-.36-.05-.25-.55.52-.22 0 .15-.4 1.36-1.45 2.82-2.34 4.27-2.6.43-.07.71-.18.81-.3.12-.16.1-.4-.11-1.28-.36-1.5-.36-1.97 0-2.5.23-.34.41-.48.67-.52.16-.03.23-.06.44.13.13.12.31.35.37.44.14.18.08.18-.1.36-.26.32-.5.79-.6 1.17-.15.6 0 1 .4 1.97.46 1.08.4 1.3.05 2.03a6.41 6.41 0 0 1-1.57 1.88c-.32.29-.67.53-.73.65-.09.14-.1.47-.18.9-.15.85-.18.98.22 1.17.15.07.55.17.55.2s-.38.03-.5.04c-.2-.03-.3.04-.32.12-.08.07-.11.02-.32-.09-.12-.06-.23-.06-.24-.07.33-.51.36-1.03.38-1.43 0-.51-.03-.66-.11-.78-.13-.2-.43-.24-.6-.17s-.55.67-.72 1c-.16.51-.2.56.13 1.11.1.18.24.2.26.42.01.05-.28.1-.38.27-.09-.05-.19-.15-.2-.21zm3.43-10.18c.43-.57.38-.83.06-.6-.16.1-.24.25-.28.53-.1.17.12.4.22.07z"/><path fill="#e7e7e7" d="M23.05 16.8l.3.22c-.03-.14 0-.2.21-.53-.22.06-.35.2-.5.3zm.55.47l.16.3c.24-.2.43-.4.48-.59-.28.1-.5.2-.64.3z"/><path fill="#fff" d="M4.68 22.78c-.15.12-.5.6-.26.94.33-.12.7-.48.97-.01.21.36 1.13.48 1.5.26.65-.3.45-.27.86.06.74.24 1.65.42 2 .26.17-.13.58-.15.74-.13.38.07.51.04 1.06-.18.39-.37 1.65-.07 2.2-.1.48-.07.66-.21 1.1-.41.68-.3 1.4.1.87.61.76.15.8-.8-.02-.86-.75-.33-1.5.8-2.41.38-.65-.1-.85-.23-1.36.04-.18.1-.5.24-.8.05-.4-.23-.9-.1-1.17.14-.53.3-1.63.22-1.63-.52-.23-.28-.76 0-1.17.17-.4.2-.9.59-1.3.08-.56-.67-.35-.63-1.2-.78zm1.24-10.05c.24 0 .5-.06.68-.14.09.72.87.86 1.33 1.15-.44.55-.54.65-.58.64-.25-.07-1.98-.4-1.43-1.66zm2.75.83l-1.7 1.6c0 .01.01.15.06.12.2-.13 1.01-1.09 1.4-1.4.2-.15.08.08.06.1-.13.2-.3.38-.45.57-.28.31-.64.62-.98 1 .08.39.92.82 1.2.54.22-.11.75-1.38.89-1.58.22-.25.25.22.21.06-.14.56-.6 1.02-.58 1.59 0 .22.13.44.35.5.31.12.66.03.97-.06a.71.71 0 0 0 .44-.46c.15-.38.04-1.08.39-1.38.1.5-.13 1.14-.07 1.54.33.85 1.41.68 1.64.2.09-.1-.4-1.57-.4-1.68-.02-.39.2-.17.17-.19.26.54.34 1.22.66 1.72.83 1.33 1.51.2.88-.68-.2-.32-1.08-1.43-1.15-1.61-.8.43-2.87.73-3.72-.46-.17-.19-.28 0-.26-.04zm7.57.82c-.78.13-.33.2-.93.1-.32-.15-1.35-.19-1.62.14.14.27.34.57.65.65.92.26 1.87-.04 2.82.03.42.1.99.51.95.99 0 .23-.38.7-.59 1.09-.25.46 0 .68.13.66-.23-.17.15-1.05.82-1.15.35-.21.67-.59.7-1.03.1-.31-.1-.7-.46-.72-.48.1-.99.03-1.35-.38-.39-.3-.42-.5-1.13-.38z"/><path fill="#fff" d="M14.04 22.64a66.2 66.2 0 0 1-.48-3.5 5.36 5.36 0 0 1 .1-1.83.79.79 0 0 1 .3-.08l.24-.03.15.58c.19.75.67 2.27 1.16 3.65.2.6.46 1.24.48 1.3.03.13-.22.04-.6.04-.3 0-.34.04-.69.16-.26.09-.55.23-.58.23s-.03-.28-.09-.55zM12.8 16.8c-.15.3-.45.39-.7.48.01 1.28-.05 2.51-.27 3.92-.06.64-.11 1.28-.09 1.9 0 .08.02.17.11.15.79-.57 1.34-.01 1.9.07.1.01.12-.1.1-.16-.21-1.2-.5-2.4-.63-3.58-.2-.91-.05-1.62 0-2.39-.13-.1-.23-.25-.38-.34h-.04zm-3.37 6.46c.34-1.39 1.16-2.89 1.2-4.4.03-.56-.16-.58-.32.23-.34 1.69-1.1 2.96-1.36 4.27-.32-.52-.29-.66-.87-.61-.65.06-.92.3-1.5.54.05-.39.04-.46.21-1.03.26-.87.38-1.38.35-1.43-.08-.13-.21.13-.53 1.11-.2.57-.37 1.07-.4 1.1s-.17-.06-.34-.21c-.45-.39-.63-.45-1.01-.4-.25.05-.32.05-.32-.01 0-.04.19-.45.41-.9.23-.45.53-1.13.68-1.5.15-.38.48-1.05.8-1.6.3-.52.63-1.17.73-1.44l.19-.49c.14.02.34.09.47.07-.1.86-1.26 2.11-1.47 2.65a7.28 7.28 0 0 0 1.97-2.8c.2.39.24.41.7.65-.54 1.85-1.3 3.64-1.73 5.3 1.08-1.86 1.5-3.37 2.1-5.17.51-.11.84-.18 1.15-.51.36.38.68.67 1.23.64l.02.27c0 1.83-.44 3.17-.57 4.96l-.05.67c-.75-.3-1.16.28-1.65.33-.1 0-.12-.06-.09-.25zm1.62-5.95c-.03-.2-.17-.24-.21-.04-.18.36-.13 1.72.13 1.22-.05-.37.02-.51.08-1.17zm-3.14 9.05c0-.07.02-.1.03-.08.02.02.02.07 0 .11-.01.04-.03.03-.03-.03zm4.55-2.14c-.14 0-.14.09-.13.18.42.8.6 2.17.5 2.44-.08.2-.07.43-.09.6 0 .08.15.2.22.2.3-.03.53.24.73.47.06.07.16.1.05-.09-.08-.24.1-.17.15-.12.24.32.55.38.1-.03-.12-.07-.06-.24.08-.13.34.35.6.35.17.03-.4-.43-.43-.43-.5-.55-.27-.34-.29-.51-.4-.93a7.96 7.96 0 0 1 .04-1.86c0-.14.04-.2-.1-.21h-.83z"/><path fill="#fff" d="M7.57 24.43c-.01.6-.07 1.5-.54 1.93-.24.3-.43.4-.73.64-.12.09-.2.26.05.1.05-.01.02.06.04.06-.24.15-.16.32.11.06.13-.11.17.02.05.09-.27.24-.13.34.13.03.08-.06.2.01.08.11-.18.16-.3.34.03.22.19-.1.35-.24.53-.36l.62-.4c.11-.1.08-.66.1-.98.05-.39.23-.83.31-1.14.1-.25-.02-.22-.3-.27-.3-.05-.48-.29-.48-.1zm1.38-11.22c.95.92 2.4.94 3.37.55.1-.04.1-.13-.06-.07-1 .35-2.4.3-3.2-.53-.05-.06-.18-.1-.12.05z"/><path fill="#fcdd09" d="M5.37 7.02c.09-.22.38-.43.62-.53.35-.17.36.25.2.43-.13.15-1.02.8-.82.1zm1.1 0c.08 0 .27.36.24.45 0 .15-.12.67-.16.55-.3-.13-.39-.94-.08-1zm.2-.28c-.26-.04-.04-.88.56-.96-.18.29-.29.85-.56.96zm.42.56c-.81-.66.45-.68.58.08 0 .16-.52-.02-.58-.08zm1.03-1.17c.1.02-.12.36-.21.44-.1.15-.48.21-.64.15-.04-.35.57-.71.85-.6zm-3.72.82a2.27 2.27 0 0 1-.42-.47c0-.08.43-.03.58-.07.2-.05.52.56.6.46-.25.2-.61.1-.76.07zm.35-.96c0-.19.06-.56.1-.55.22.02.57.94.4 1.29-.22-.12-.53-.52-.5-.74zm.75-.28c-.08-.16-.08-.7-.02-.73.05-.03.42.36.47.58.1.6-.14.99-.45.15zm.49-1.79c.71.39.8 1.92.18 1.33-.3-.14-.24-1.3-.18-1.33zm.75.83c-.1-.02-.17-.53-.01-.71.11-.12.47-.41.6-.51.13.35-.24 1.24-.59 1.22zm.07.35c0-.1.29-.43.46-.52.39-.17.8.18.18.33-.1.03-.5.2-.59.22-.05.02-.05.01-.05-.05zm2.07-.83c.05.14-.4.73-.67.75-1.15.28.45-1.02.67-.75zm.14-1.65c.16-.06.39-.16.2.11-.07.1-.14.37-.16.43-.4.29-.28-.44-.04-.54zm.2.68c-.02-.04.61-.28.55-.35.02.2-.04.59-.55.35z"/></svg>