<svg version="1.1" xmlns="http://www.w3.org/2000/svg" viewBox="0 0 29 32"><path fill="#0039a6" stroke="#000" stroke-width=".48" stroke-miterlimit="4" stroke-linecap="butt" stroke-linejoin="round" d="M.32.48c9.6 2.4 18.4 2.4 28 0v19.6c0 5.6-8.4 11.6-13.95 11.6-5.65 0-14.05-6-14.05-11.6z"/><path fill="#000" d="M8.24 13.47a4.88 4.88 0 0 0 1.61 1.87 3.4 3.4 0 0 0-1.45 1.67c.51.54 1.56.73 2.26 1a4.72 4.72 0 0 0-.07 2.18c.74-.06 1.45.01 2.48-.52.28.65.79 1.37 1.41 1.82.73-.37 1.18-1.14 1.44-1.92.75.36 1.61.62 2.36.68.19-.62.12-1.4.01-2.46a7.07 7.07 0 0 0 2.2-.72 3.78 3.78 0 0 0-1.36-1.89c.4-.54.96-1.02 1.21-1.89a4.87 4.87 0 0 0-2.3-.92c.22-.61.2-1.37.02-2.22a6.3 6.3 0 0 0-2.38.63c-.53-.67-1-1.3-1.52-1.73-.63.38-.95 1.21-1.43 1.82a4.93 4.93 0 0 0-2.09-.84 5.42 5.42 0 0 0-.2 2.52c-.75.12-1.62.35-2.2.92z"/><path fill="#f4f0e8" d="M8.68 16.96c.25-.62.64-1.07 1.21-1.44.55.34.89.54 1.17.77-.27.58-.46.97-.6 1.4a3.65 3.65 0 0 1-1.78-.73zm10.19-1.88c-.5-.42-.9-.7-1.47-.68-.7.04-1.05.15-1.04.82 0 .61.75.8 1.19.79.49 0 1-.6 1.32-.93z"/><path fill="#ffd200" d="M14 13.54l.25-.06.06.78.15-.02.07-.75.28.03-.2.75.17.02.28-.69.24.11-.38.65.15.1.5-.57.2.2-.6.48.1.13.67-.38.12.24-.7.3.05.15.75-.19.04.3-.77.05v.18l.76.05-.04.26-.76-.14-.05.13.7.33-.13.23-.64-.44-.1.12.56.58-.23.19-.43-.67-.14.1.35.73-.27.1-.2-.77-.15.04.1.8-.27.02-.01-.79h-.15l-.11.8-.27-.07.24-.76-.15-.05-.35.72-.24-.15.46-.64-.14-.12-.55.58-.17-.19.62-.5-.08-.12-.7.42-.12-.26.77-.24-.06-.18-.8.1-.01-.27.8.03-.01-.17-.77-.13.04-.28.74.27.05-.14-.71-.32.11-.22.67.41.09-.14-.63-.47.2-.2.53.56.11-.09-.42-.63.24-.14.3.71.16-.06z"/><path fill="#f4f0e8" d="M9.99 15.26c.46-.47.83-.78 1.41-.8.7-.03 1.06.06 1.1.72.05.61-.67.86-1.11.89-.5.03-1.06-.51-1.4-.81zm8.01-2.7c-.65-.08-1.14-.1-1.6.24-.58.42-.8.7-.43 1.25.34.51 1.06.26 1.43.01.4-.27.51-1.05.6-1.5zm.12 5.15c-.16-.63-.32-1.1-.8-1.4-.6-.39-.94-.5-1.32.04-.36.5.14 1.1.5 1.34.4.28 1.17.1 1.62.02zm-2.22 1.74c.27-.6.43-1.07.24-1.61-.24-.67-.45-.97-1.08-.76-.6.18-.55.94-.42 1.36.15.47.86.8 1.27 1zm-2.84.07c.58-.31.99-.58 1.18-1.13.22-.67.24-1.03-.38-1.26-.57-.22-1.02.4-1.17.81-.18.46.18 1.16.37 1.58z"/><path fill="#f4f0e8" d="M10.73 17.74c.64.15 1.12.22 1.63-.06.6-.35.87-.6.56-1.2-.28-.54-1.03-.37-1.42-.17-.43.23-.63 1-.77 1.43zm4.99-6.84c-.57.32-.98.6-1.16 1.14-.22.67-.24 1.03.38 1.26.57.22 1.02-.4 1.17-.82.17-.46-.2-1.15-.39-1.57zm-2.93.2c-.23.62-.35 1.1-.13 1.62.28.65.5.94 1.12.7.58-.22.5-.99.34-1.4-.18-.45-.92-.73-1.33-.92zm-2.17 1.44c.12.65.25 1.12.71 1.46.57.42.91.55 1.32.03.39-.48-.07-1.1-.42-1.37-.38-.3-1.15-.17-1.6-.12zm-2.08 1.01c.5-.43 1.06-.66 1.73-.73.34.56.55.88.7 1.22-.5.4-.86.65-1.18.97a3.66 3.66 0 0 1-1.25-1.46zm2.31-3.26c.66.06 1.2.3 1.72.74-.16.63-.25 1-.4 1.35-.63-.1-1.05-.17-1.51-.18a3.65 3.65 0 0 1 .19-1.91zm3.35-.99c.54.39.9.88 1.12 1.51-.47.46-.74.74-1.04.96-.5-.4-.82-.68-1.21-.92.25-.6.7-1.29 1.14-1.55zm3.68 1.07c.19.63.17 1.24-.04 1.88-.65.08-1.03.13-1.4.13-.15-.62-.25-1.04-.4-1.47a3.65 3.65 0 0 1 1.84-.54zm2.25 2.99a3.04 3.04 0 0 1-1.18 1.46c-.56-.33-.9-.52-1.19-.75.26-.58.44-.97.58-1.41.65.09 1.42.35 1.79.7zm.03 3.6a3.1 3.1 0 0 1-1.8.53c-.28-.6-.45-.94-.55-1.3.54-.33.92-.55 1.28-.83.48.45.96 1.1 1.07 1.6zM18.11 20c-.66 0-1.23-.19-1.8-.57.11-.64.16-1.03.27-1.38.64.02 1.07.05 1.52.02.16.64.2 1.45 0 1.92zm-7.32-.06a3.03 3.03 0 0 1 .19-1.87c.65-.03 1.04-.05 1.4-.02.1.63.17 1.06.3 1.5-.6.28-1.4.48-1.9.39zm3.71 1.27a3 3 0 0 1-1.07-1.55c.48-.44.76-.71 1.06-.92.48.4.8.7 1.19.95a3.6 3.6 0 0 1-1.19 1.52z"/><path fill="#ffd200" d="M19.38 9.24c.57-1.07 1.56-1.6 2.46-1.51 1.31.05 3.08 2.28 4.37 3.29-.58 1.87-.42 4.55-1.44 5.56-.6.6-1.87.81-2.76.4-1.03-.47-1.46-1.46-1.68-2.43 1.26.08 1.39-.45 1.57-.96.72-.1 1.4-.47 1.15-1.34-.34-1.12-1.13-.86-1.74-.27-.62-.95-1.19-.39-1.76.2-.44-.76-.68-1.98-.17-2.94z"/><path fill="#000" d="M22.74 8.7c.38.19-1.14 2.35-1.28 2.25-.13-.11 1-2.38 1.28-2.24zm3.01 2.47c.17.4-2.4 1.02-2.43.85-.03-.17 2.31-1.13 2.43-.85zm-1.27 4.63c-.26.33-2.05-1.61-1.92-1.73.13-.1 2.11 1.48 1.92 1.72z"/><path fill="#ffd200" d="M21.8 18.57c1.18.3 1.92 1.14 2.05 2.04.26 1.29-1.5 3.53-2.17 5.02-1.95-.13-4.52.65-5.74-.1-.73-.44-1.23-1.63-1.03-2.58.2-1.11 1.06-1.77 1.95-2.2.22 1.23.77 1.23 1.31 1.29.26.68.79 1.25 1.58.8 1-.6.57-1.3-.16-1.75.78-.82.1-1.24-.6-1.66.63-.61 1.77-1.13 2.82-.86z"/><path fill="#000" d="M23.11 21.7c-.09.43-2.54-.55-2.47-.71.07-.15 2.54.41 2.47.72zm-1.68 3.52c-.35.26-1.56-2.1-1.4-2.17.15-.06 1.64 1.98 1.4 2.17zm-4.8-.15c-.39-.18 1.08-2.37 1.22-2.28.14.11-.93 2.4-1.22 2.28z"/><path fill="#ffd200" stroke="#000" stroke-width=".16" stroke-miterlimit="4" stroke-linecap="round" stroke-linejoin="round" d="M6.95 18.62c-1.18.3-1.92 1.14-2.05 2.04-.26 1.28 1.5 3.52 2.17 5.02 1.95-.13 4.52.65 5.74-.1.73-.44 1.23-1.63 1.04-2.58-.21-1.11-1.07-1.77-1.96-2.2-.22 1.23-.77 1.23-1.3 1.29-.27.68-.8 1.25-1.58.8-1-.6-.57-1.3.15-1.75-.78-.82-.1-1.24.6-1.66-.63-.61-1.76-1.13-2.82-.86z"/><path fill="#000" d="M5.64 21.76c.09.41 2.54-.56 2.48-.72-.08-.15-2.55.41-2.48.72zm1.69 3.51c.34.26 1.55-2.1 1.4-2.17-.16-.06-1.65 1.98-1.4 2.17zm4.79-.15c.39-.18-1.08-2.38-1.22-2.28-.13.11.93 2.4 1.22 2.28z"/><path fill="none" stroke="#000" stroke-width=".2" stroke-miterlimit="4" stroke-linecap="round" stroke-linejoin="round" d="M9.18 23.36l.06.83m.41-.79l.12.83m.27-.85l.31.77m.24-.83l.33.77m.55-1.36l.5.67m-.19-1.13l.53.65m-.26-.97l.52.65m-.42-1.1l.68.47m-4.56 1.11l-.63.55M8 22.58l-.64.54m.45-1.04l-.76.36m.79-.79l-.85.22m1.11-1.24h-.87m1.07-.33l-.9-.2m1.14-.24l-.84-.22m1.07-.21l-.8-.35"/><path fill="#ffd200" stroke="#000" stroke-width=".16" stroke-miterlimit="4" stroke-linecap="round" stroke-linejoin="round" d="M9.36 9.26C8.79 8.19 7.8 7.66 6.9 7.75c-1.31.05-3.08 2.28-4.37 3.29.58 1.87.43 4.55 1.44 5.56.6.6 1.88.8 2.76.4 1.03-.47 1.46-1.46 1.68-2.43-1.25.08-1.39-.45-1.57-.96-.72-.1-1.4-.47-1.15-1.35.35-1.11 1.13-.86 1.74-.26.62-.95 1.19-.39 1.76.19.45-.75.68-1.97.17-2.93z"/><path fill="#000" d="M6 8.72c-.38.19 1.15 2.35 1.28 2.24.13-.1-1-2.37-1.28-2.24zm-3.01 2.47c-.17.4 2.4 1.02 2.43.85.03-.17-2.3-1.14-2.43-.85zm1.27 4.62c.26.34 2.05-1.6 1.93-1.72-.14-.1-2.12 1.48-1.93 1.72z"/><path fill="none" stroke="#000" stroke-width=".2" stroke-miterlimit="4" stroke-linecap="round" stroke-linejoin="round" d="M5.28 12.54l-.8.26m.87.2l-.77.32m.88.06l-.68.5m.86.02l-.66.5m1.45.22l-.53.64m1.05-.44l-.51.66m.88-.48l-.5.66m.98-.67l-.32.77m-2.14-4.17l-.68-.48m1.1.1l-.67-.49m1.11.19l-.53-.66m.96.59l-.41-.77m1.46.78l-.2-.84m.56.96l-.02-.92m.52 1.05v-.87m.46 1l.15-.86"/><path fill="#ffd200" stroke="#000" stroke-width=".16" stroke-miterlimit="4" stroke-linecap="round" stroke-linejoin="round" d="M10.25 8.8c-.85-.87-1.05-1.98-.7-2.81.46-1.23 3.12-2.23 4.47-3.16 1.6 1.12 4.2 1.8 4.86 3.07.4.75.2 2.03-.46 2.75-.76.83-1.83.95-2.82.86.46-1.17-.01-1.46-.44-1.79.13-.71-.02-1.48-.93-1.5-1.17-.01-1.16.81-.78 1.57-1.1.3-.73 1.02-.36 1.73-.85.2-2.08.05-2.84-.73z"/><path fill="#000" d="M10.76 5.44c.3-.32 1.88 1.8 1.74 1.9-.14.09-1.96-1.68-1.74-1.9zm3.27-2.13c.43-.04.24 2.6.07 2.58-.17-.02-.38-2.55-.07-2.58zm4.01 2.62c.25.36-2.15 1.47-2.22 1.31-.06-.16 2.05-1.56 2.22-1.3z"/><path fill="none" stroke="#000" stroke-width=".2" stroke-miterlimit="4" stroke-linecap="round" stroke-linejoin="round" d="M14.62 5.91l.48-.68m-.06.89l.53-.64m-.21.86l.68-.5m-.24.83l.69-.48m-.24 1.45l.77-.31m-.74.86l.78-.28m-.73.69l.79-.28m-.94.73l.83-.06M13.7 5.67l-.26-.79m-.24 1.08l-.26-.8m-.15 1.13l-.47-.7m.27 1.08l-.62-.62m.3 1.63l-.74-.45m.75.83l-.87-.3m.85.81l-.84-.26m.81.74l-.87-.12"/></svg>