<svg version="1.1" xmlns="http://www.w3.org/2000/svg" viewBox="0 0 19 32"><path fill="#231f20" d="M16.27 8.8c-.21.2-.6.4-1.07.2-.33-.14-.52-.4-.6-.6-.04-.14-.01-.4.05-.44.17-.11.11.1.15.2 0 .03.13.05.25 0a.81.81 0 0 0 .3-.38c.16-.46-.14-.7-.31-.78-.15-.08-.3-.09-.3-.1-.03-.02-.03-.2-.11-.33s-.15-.15-.25-.25c-.03-.03-.08-.16-.12-.21-.07-.09-.13-.1-.15-.11-.03-.02-.1.03-.22.04 0 0-.13.13-.24.2s-.24.11-.35.26c-.14.2-.07.39-.1.41s-.47-.07-.7.22c-.23.26-.2.55-.08.77s.2.28.3.24c.15-.08.13-.27.28-.25.26.03.36.86-.69 1.1-.9.2-1.54-.28-1.7-.58-.21-.38-.1-.64-.03-.71.12-.1.13.52.57.45.13-.02.37-.19.47-.4.03-.07.2-.2.3-.33.31-.38.73-.43.66-.72-.06-.24-.37-.41-.7-.7-.31-.24-.5-.6-.64-.67-.12-.05-.25-.05-.27-.09 0-.02 0-.06-.04-.18s-.13-.17-.19-.26c-.05-.06-.13-.09-.16-.16v-.46a7.2 7.2 0 0 1 2.7.52c1.94.67 3.03 1.65 3.03 1.67s-.23.16-.52.22c-.18.03-.3.2-.32.32-.02.21.19.35.31.68.12.3.08.42.16.57s.21.23.37.18c.2-.07.17-.1.26-.1.05 0-.04.32-.3.55zm-2.25.65c-.13 0-.32.04-.35 0 0-.03.06-.08.12-.13s.1-.1.12-.1c.03.02.1 0 .12.01s.08.07.18.1c.1.03.22.09.21.1-.01.05-.28.02-.4.02zm-4.3.03h-.55c0-.08.12-.13.23-.25s.2-.25.31-.25c.1 0 .23.2.34.26.08.03.12.11.19.14.07.03.13.06.12.08-.01.05-.33.01-.64.02zm-.78-5.01c0 .02-.13.2-.2.28s-.22.22-.26.33c-.05.12-.05.3-.07.31s-.2.01-.32.06c-.25.11-.4.4-.57.68-.29.5-.5.54-.52.68-.05.29.3.4.55.68.1.12.26.24.3.3s.18.31.32.33c.4.06.61-.51.73-.4.08.06.02.29-.16.57s-.55.73-1.5.57c-.8-.13-1.14-1-.85-1.04.15-.02.19.13.28.18s.26.05.37-.17a.78.78 0 0 0-.07-.8c-.22-.3-.63-.27-.66-.3s.02-.1-.13-.3c-.1-.14-.14-.1-.24-.2s-.2-.25-.27-.26a.53.53 0 0 0-.16.04l-.17.17c-.08.07-.23.18-.32.31-.09.14-.1.27-.12.3s-.81.03-.6.88c.12.47.57.6.67.38.04-.09.06-.32.24-.2s.17.74-.59 1.06c-.59.26-1.23.11-1.55-.2-.4-.38-.39-.58-.33-.58.08 0 .1.23.3.3.18.07.4.07.48-.07s.11-.4.25-.68c.13-.3.44-.54.41-.75-.01-.12-.19-.28-.33-.33-.23-.07-.6-.28-.6-.3s1.17-1.03 2.99-1.66c1.68-.6 2.68-.52 2.7-.5s.01.3 0 .33zm-2.47 5c0 .02-.3.01-.46.01s-.38.03-.4-.03c0-.02.09-.08.17-.15s.14-.15.17-.15c.02 0 .13.04.26.14s.27.16.26.19zm12.3 2.22c-.04 0-1.55.06-1.59.01 0 0 .06-.08.06-.21 0-.18-.14-.28-.1-.36.02-.06.31-.21.27-.54-.04-.31-.3-.51-.28-.55s.17-.19.16-.43c-.01-.23-.12-.27-.1-.39s.41-.7.43-.7c.02-.02.35 0 .39-.04s.22-.24.34-.48c.12-.24.25-.47.22-.53s-.23-.24-.23-.3c0-.05.18-.46.42-.76s.57-.6.46-.78c-.1-.19-.35-.2-.46-.16s-.36.2-.74.3c-.33.08-.5.1-.6.15s-.15.12-.18.12c-.08 0-.26-.2-.44-.31s-.4-.24-.4-.34c0-.1.02-.08.06-.15s.14-.45-.2-.59c-.34-.14-.53.08-.58.15s-.05.12-.08.13c-.08 0-.22-.12-.56-.3s-.46-.24-.48-.28c-.02-.04.02-.35 0-.44s-.2-.37-.44-.34c-.23.04-.35.2-.39.24s-.07.19-.1.2c-.02 0-.2-.09-.63-.22s-.56-.1-.6-.18c-.04-.07.02-.33-.09-.49s-.21-.26-.56-.15c-.15.05-.32.32-.3.4 0 .08-.13.12-.46.05-.32-.08-.35-.08-.39-.11s-.11-.18-.1-.21c0-.04.2-.28.18-.73-.04-.57-.45-.67-.47-.74s-.04-.27-.01-.28c.03-.02.18.04.27.06s.16.03.18 0c.01-.01 0-.23.03-.45s.02-.41 0-.44c-.04-.03-.19.03-.32.04s-.24.06-.26.04c-.01-.02.02-.2.04-.3s.08-.25.06-.27c-.03-.02-.26 0-.45 0S9.33-.01 9.3.02c-.02.02.02.23.02.3s.03.23 0 .25c-.01 0-.15-.03-.24-.07s-.22-.02-.24 0c-.02.02-.02.27-.02.39v.52c.02.01.23-.03.3-.04s.22-.04.23-.02c.02.03 0 .24-.01.25s-.57.23-.66.78c-.1.6.26.78.26.8s-.04.1-.1.13c-.04.02-.77.12-.82.1s-.1-.07-.13-.09c-.02-.01-.14-.33-.35-.36s-.47.09-.53.28c-.05.19.02.37 0 .38l-.62.13c-.28.08-.48.17-.53.16s-.28-.42-.54-.37c-.26.05-.4.26-.41.43s.08.31.06.32l-.56.3c-.24.12-.47.26-.5.26-.05 0-.14-.1-.19-.15s-.27-.15-.46-.08c-.18.08-.3.3-.28.51s.12.24.11.26c-.01.03-.25.19-.44.3s-.37.28-.41.25c-.05-.04-.12-.13-.19-.15l-.9-.15c-.31-.05-.72-.26-.8-.25S0 5.53 0 5.72s.06.27.2.42c.14.14.36.38.53.62s.32.49.3.51c0 .02-.11.17-.12.2s.1.3.18.5c.08.18.17.42.2.45s.14.1.24.1c.09.02.2.04.22.06s.1.27.24.46c.13.18.22.36.23.43s.01.16-.02.18c-.02.02-.03.24-.03.27s.05.25.02.26c-.02.02-.28.19-.27.46.02.4.33.48.34.53.01.12-.12.26-.15.33s-.02.23-.04.25-1.71.01-1.74.04c-.03.02.32 12.18.33 12.46 0 .23-.27 2.9 2.14 4.68C5.06 30.6 9.62 32 9.62 32s5-1.01 7.51-3.53c1.74-1.73 1.75-3.02 1.8-3.9s.22-12.54.2-12.58a1.8 1.8 0 0 0-.37-.3z"/><path fill="#c72624" d="M2.94 23.98c-.02.01-.62 1.4-.69 1.4-.07.02-.31-.14-.35-.2-.05-.06-.04-.12-.08-.16s-.12-.04-.2-.07c-.08-.04-.13-.07-.17-.07s-.1.04-.15.06c-.06.02-.23.03-.32.19-.1.18-.05.32-.05.32s.1-.16.21-.2c.1-.05.18-.06.2 0 0 .05-.1.05-.15.1-.02.02-.06.28.04.37.07.07.21.05.3-.02.05-.06.02-.14.1-.16.04 0 .15.06.25.12s.19.05.19.1c0 .03-.14.15-.3.24-.16.08-.34.11-.37.13s-.06.1-.1.15c-.04.05-.1.14-.1.17s.07.1.08.13c0 .03-.04.2.05.4.12.27.24.25.24.25s-.06-.1-.06-.2.06-.2.05-.22-.04-.11 0-.13c.03-.02.08.06.12.07s.24 0 .28-.14c.05-.19-.05-.3-.01-.34s.1.02.15-.03c.06-.04.16-.2.19-.2s-.01.33-.09.6c-.06.22-.27.34-.29.37s-.01.15-.04.23c-.03.12-.1.18-.08.23s.09.01.11.04c.02.03 0 .25.21.46.28.28.48.17.48.17s-.23-.13-.26-.23c-.05-.13-.02-.2-.03-.23-.02-.04-.02-.07.01-.07s.17.07.3 0a.34.34 0 0 0 .15-.35c-.03-.2-.3-.19-.33-.24-.03-.08.04-.12.06-.24s.09-.6.16-.65c.04-.03.54.04.58.1s0 .19.16.28c.17.1.32.03.37-.04s0-.22.05-.23c.06-.01.2.03.27.11s.1.25.1.25.19-.1.04-.47c-.12-.3-.43-.3-.45-.35s0-.12-.02-.14c-.02-.02-.07 0-.15 0s-.14-.06-.18-.05c-.06.02-.08.1-.16.14-.14.09-.5 0-.56-.1-.04-.05.13-.37.22-.63s.17-.46.2-.47c.04-.02.2 0 .26-.09s.1-.13-.1-.36c-.08-.1-.1-.13-.13-.14s-.07 0-.12.01c-.05.01-.06 0-.1.03zm4.44-.18c.06.03.1.32.23.63.17.4.7 1.39.85 1.4.26 0 .3-.19.31-.21s.02-.09.04-.1c.02-.02.13-.04.19-.07s.11-.06.14-.06.12.02.13.04c0 .03-.03.06-.03.08.02.06.17-.03.32.21.15.23.04.45.04.45s-.07-.18-.13-.24c-.13-.12-.25-.06-.26-.03-.01.04.1.05.11.08s.04.17-.08.24c-.1.07-.28 0-.31-.05s0-.1-.08-.1c-.02 0-.06.03-.1.06s-.13.05-.14.09c0 .04.12.26.32.47.2.2.45.31.47.33s.04.16.08.28c.05.13.1.23.08.27s-.06.07-.08.09c-.01.02-.03.04-.03.07s.07.19-.04.41c-.13.27-.4.3-.4.3s.15-.22.17-.43c.01-.14-.03-.32-.1-.3s0 .1-.03.13c-.02.03-.2.04-.26-.1a.43.43 0 0 1 .03-.31c.03-.05.1-.07.08-.15 0-.07-.1-.16-.2-.26-.11-.1-.18-.28-.21-.28-.08 0-.04.12-.03.17.02.09.01.2.03.33s.04.27.07.3c.03.03.1.04.1.15 0 .05-.04.12-.05.25s0 .21-.03.27c-.04.07-.23.07-.25.08-.02.02-.06.16-.23.26-.3.18-.52.06-.52.06s.18-.07.3-.23c.09-.12.14-.34.08-.35-.07-.02-.04.11-.08.13s-.24-.05-.29-.19c-.05-.14.03-.25.1-.34.08-.1.3-.12.34-.16s.04-.19.04-.38c0-.21-.04-.23-.04-.3 0-.1.03-.09.01-.12-.02-.03-.11-.03-.16-.07s-.08-.11-.12-.15c-.04-.03-.2-.06-.33-.08s-.33-.1-.36-.08c-.05.04.05.14-.07.27-.11.12-.36.09-.45-.03s-.1-.27-.08-.28.1-.03.07-.08c-.02-.04-.19-.06-.3.04-.14.12-.2.21-.2.21s-.09-.17.18-.48c.2-.22.33-.2.35-.2s.11 0 .12-.02c.01-.02.02-.12.05-.12.06-.02.17.03.25.04s.24.05.27.1c.03.04.07.16.25.27.16.1.28.16.35.05.05-.09 0-.2-.02-.25a9.42 9.42 0 0 0-.73-1.2c-.04-.04 0-.14-.06-.15-.04 0-.06.03-.1.03s-.14-.02-.14-.06c0-.04.02-.2.16-.37s.18-.22.22-.25a.35.35 0 0 1 .2 0z"/><path fill="#f1c527" d="M3.76 19.31l.1-.05c.06-.04.08-.03.11-.03s.13.93.14 1.2c.02.54-.3.87-.36.83-.05-.03-.05-.4-.01-.77s0-.53 0-.85c.01-.19 0-.31.02-.33zm-.89-.23c.02-.02.04-.01.08-.03s.06-.04.09-.04.1.15.26.25c.19.11.28.07.31.1s.04.5-.05 1.4c-.15 1.52-.62 2.15-.78 2.09-.22-.09-.03-1.43.03-2.2s.04-1.53.06-1.57zm-1.05-.64c0-.02.06.02.12.03s.08 0 .11.02c.05.02.06.11.28.38.23.28.38.18.4.22s-.05 1.26-.15 2.3c-.16 1.54-.62 2.35-.9 2.35-.04 0-.03-.03-.07-.1s-.08-.06-.07-.13c.07-.28.13-1.2.2-2.1.13-1.6.08-2.9.08-2.97zm-1.06-.98c.01 0 .07 0 .09.02s.01.1.15.32c.14.2.12.22.29.24s.06-.01.15.04c.1.04.01.06.13.16s.13.08.15.12c.01.05-.05.2-.03.27.06.25-.03.7-.07 1.8-.12 3.53-.74 3.22-.78 3.2-.07-.04-.03-1.73-.02-2.56.03-1.22-.07-3.58-.06-3.6zm5.58 1.72c.03-.02.07.06.15.08s.15.01.17.03c.02.02 0 .45-.04.93s0 1 0 1.03c-.02.03-.2.06-.42-.4-.11-.26 0-.83.05-1.13s.07-.52.1-.54zm.45.09c.02-.03.08 0 .2-.08s.12-.18.16-.2c.03 0 .33-.02.35-.01s-.01.57-.01 1.47c0 1.19.14 2.1.06 2.14-.1.05-.38-.09-.59-.77a7.72 7.72 0 0 1-.17-2.55zm.86-.37c.03-.04.1-.09.15-.16s.1-.2.13-.22c.02-.02.2-.01.3-.05s.23-.2.25-.2c.02.02-.05 1.24.03 2.68.09 1.64.3 2.69.07 2.79-.4.17-.8-.96-.92-2.62-.06-.82-.03-2.2-.01-2.22zm1-.96c.1-.06.26 0 .45-.21s.13-.45.18-.47c.05-.03.15-.06.17-.04s.05 1.23.06 3.44c0 2.2.2 3.35 0 3.46-.16.1-.6-.16-.8-2.23-.13-1.47-.16-3.9-.06-3.95zM2.5 11.8c-.03-.01-.14-.04-.15-.18s.14-.17.18-.18l14.16-.06c.02 0 .04-.06.02-.07-.02-.02-.12-.03-.12-.03s-14 .08-14 .06c-.02-.02-.02-.1 0-.1s.26-.05.28-.08.09-.1.1-.43c0-.25-.01-.41-.05-.44s-.06-.05-.1-.06c-.05-.01-.2 0-.22-.02s-.02-.08 0-.09c.01-.01 14.27-.07 14.3-.05s.02.1 0 .11c-.01.02-.1.04-.14.05s-.16 0-.2.04a1.4 1.4 0 0 0-.08.41c-.02.14.04.35.08.4l.3.03c.02 0 0 .2 0 .22.02 0 .14.05.15.13.03.2-.06.26-.08.27l-14.42.06z"/><path fill="#231f20" d="M15.81 10.79c.07-.1.04-.27-.08-.32-.17-.06-.2.07-.24.02-.03-.04.19-.2.4-.08s.22.38.1.51-.34.2-.49.05c-.01-.02-.05-.02-.07-.05-.06-.13-.04-.3 0-.3.1 0 .01.1.07.2 0 0 .17.2.31-.03zm-3.58-.04c.08-.19-.02-.29-.04-.3-.03-.02-.14-.03-.17-.01s-.07.05-.1.01c-.03-.03.07-.1.2-.1.17-.01.3.11.36.2.06.1-.02.34-.16.42-.14.07-.27.08-.4-.01-.13-.1-.18-.33-.11-.36.03-.01.07.02.07.05s0 .13.07.18.23.03.28-.08zm-4.3.03c.1-.12.02-.21-.03-.28 0-.02-.13-.03-.17-.05-.03-.02-.07.03-.08-.02 0-.03.08-.11.24-.08.19.04.32.14.3.34s-.08.24-.14.29c-.07.04-.1.02-.14.04s-.17.06-.26 0c-.1-.04-.12-.1-.15-.15s-.07-.03-.05-.16c0-.07.05-.1.09-.09s0 .08 0 .1.05.03.09.08c.04.06.06.1.17.07.09-.02.08-.04.13-.1zm-3.8.08c.06-.08 0-.25-.06-.3-.08-.06-.13-.02-.15 0s-.03.05-.07.05c-.03 0-.05-.02-.04-.05s.05-.06.08-.08c.02-.02.03 0 .1-.02s.15-.07.27.07c.1.1.1.25.04.36-.08.14-.07.1-.12.15s-.11.06-.23.05c-.05 0-.08-.03-.11-.03s-.06 0-.09-.08-.05-.17-.03-.2.05-.04.08 0 0 .05 0 .08c.02.03.06.06.1.08s.12.02.15 0c.03-.01.05-.05.08-.08zm1 .12c-.01-.02 0-.54 0-.56s.09-.05.1-.07c.03-.02.08-.08.1-.08l.46.01c.13 0 .42-.02.44-.01.02 0 .1.02.1.04s.12.13.13.16c0 .04.02.48 0 .51l-.15.22h-.35c-.07 0-.24.02-.26.01l-.28-.02h-.1c-.02 0-.17-.19-.18-.2zm4.6-.78c.29-.02.58.1.66.27s.08.47-.14.62c-.22.15-.6.15-.9.02s-.24-.5-.2-.61.21-.28.58-.3zm3.8.72c-.01-.03.01-.16.01-.22s0-.16-.02-.18c0-.02.07-.12.12-.15.02-.02.08-.12.1-.12l.4-.01.43-.01c.02 0 .25.2.25.23l-.02.27v.2c0 .02-.1.1-.13.12-.02.02-.06.1-.08.1l-.45.01h-.36a.94.94 0 0 1-.25-.24z"/><path fill="#f1c527" d="M14.05 9.47c-.12 0-.32.04-.34 0 0-.03.06-.08.12-.13s.1-.1.12-.1c.03.02.1 0 .11.01s.09.07.2.1c.09.03.2.1.2.1-.02.05-.28.02-.4.02zm-4.29.03c-.28 0-.55.02-.55 0 0-.08.11-.13.23-.24s.2-.26.31-.26c.1 0 .22.2.34.26.08.04.12.11.19.14.07.03.13.07.12.09-.02.04-.33 0-.64 0zm-3.25 0c0 .02-.3 0-.47 0s-.38.03-.4-.03c0-.02.1-.08.18-.15s.14-.15.16-.15c.03 0 .14.05.26.15s.28.15.27.18zm12.55-3.81c-.07-.09-.57.18-.82.25s-.76.15-.83.3c-.06.13.08.32.11.48.04.2-.1.37-.29.3-.27-.1-.14-.58-.35-.65-.12-.03-.34.17-.62.3s-.45.08-.51.22c-.05.09.02.22.18.53.18.33.15.7.3.73.16.04.32-.24.4-.23.17 0 .16.1.22.3.07.22-.44 1.17-1.29 1.1-.87-.06-1.14-.73-1.17-1.02s.1-.52.35-.53c.25-.01.23.26.26.27s.46-.35.1-.78c-.08-.1-.34-.11-.5-.06s-.23.18-.25.22c-.05.07-.12-.04-.11-.08s.3-.25.3-.51c.01-.22-.25-.26-.3-.36-.04-.06-.04-.19-.12-.2s-.06.04-.16.12c-.1.07-.37.04-.45.28-.08.2.07.6.1.7s-.09.06-.1.02c-.04-.09-.28-.48-.76-.18-.42.26-.07.74-.02.73.02 0 .08-.18.23-.23.13-.05.35.02.46.25.18.4-.1 1.4-1.64 1.3s-1.68-1.29-1.52-1.58c.16-.29.4-.29.56-.19.17.11.06.39.29.46.2.07.36-.3.65-.63s.6-.4.6-.58c.01-.2-.42-.32-.64-.57-.2-.2-.36-.53-.55-.59-.24-.06-.3.32-.45.35-.41.06-.32-.32-.26-.4s.28-.21.27-.36c0-.08-.13-.18-.44-.56s-.32-.64-.51-.66c-.12-.02-.32.35-.54.62s-.39.41-.47.52c-.07.12-.05.22 0 .34s.05 0 .19.24c.18.32-.13.38-.24.32s-.33-.33-.42-.32c-.3.02-.35.3-.6.67s-.47.45-.47.57c0 .12.32.24.52.45.21.2.38.55.52.59s.3-.28.37-.33c.06-.05.26-.24.48-.14.42.2-.03 1.39-1.15 1.6-1.28.24-1.76-.73-1.81-.95s.04-.5.27-.54c.22-.04.31.26.39.28.09.02.33-.41-.08-.8-.14-.14-.56-.05-.6 0s-.06.18-.09.18-.1-.02-.08-.11c.03-.1.25-.32.1-.58-.1-.14-.27-.18-.3-.22s-.04-.12-.12-.11c-.05 0-.03 0-.1.08s-.16.05-.3.27c-.14.23.03.45.07.54s.11.09.06.16c-.03.05-.15-.08-.23-.13s-.22-.21-.52.03c-.34.27.02.89.21.81.1-.03.05-.3.24-.35.43-.13.54.45.37.85-.12.27-.6.73-1.23.78-1.43.1-1.83-1.18-1.75-1.32.11-.19.29-.2.42-.07.1.1.13.43.41.4.15-.01.15-.3.34-.7s.37-.44.35-.6c-.02-.15-.35-.21-.67-.39s-.58-.4-.74-.38c-.22.04-.1.48-.38.64-.15.1-.31-.03-.33-.21s.3-.41.2-.62c-.08-.15-.52-.06-.93-.17-.26-.07-.74-.32-.85-.2-.2.2.38.56.6.9.2.3.38.64.4.66s.2-.09.25-.07c.06 0 .22.21.38.56s.18.45.17.6c0 .16-.1.16-.1.2s.1.28.4.63c.3.35.63.35.67.36.07.01.11.07.03.1s-.41 0-.41 0-.17-.04-.23.14c-.1.26.13.22.13.22l14.35-.04s.17.03.18-.18-.2-.2-.3-.18c-.3.04-.36.02-.35-.04 0-.03.31-.1.6-.45.28-.35.38-.6.38-.61s-.14-.07-.15-.13c0-.05.03-.26.24-.69s.35-.56.44-.58c.1-.02.16.04.2.04s.08-.31.4-.7c.45-.55.6-.6.5-.7z"/><path fill="#231f20" d="M14.05 9.47c-.12 0-.32.04-.34 0 0-.03.06-.08.12-.13s.1-.1.12-.1c.03.02.1 0 .11.01s.09.07.2.1c.09.03.2.1.2.1-.02.05-.28.02-.4.02zm.57-.03c-.1-.05-.23-.1-.38-.23a1.59 1.59 0 0 1-.29-.38c-.03-.06 0-.1-.06-.1-.07 0-.05.07-.08.11-.06.09-.09.22-.3.4-.2.18-.34.21-.38.23s-.1.03-.08.08c.01.05.08.02.11.02h.75c.28 0 .59-.02.74 0 .06 0 .1-.02.1-.04 0-.1-.07-.05-.13-.09zm-4.86.06c-.28 0-.55.02-.55 0 0-.08.11-.13.23-.24s.2-.26.31-.26c.1 0 .22.2.34.26.08.04.12.11.19.14.07.03.13.07.12.09-.02.04-.33 0-.64 0zm.84-.04a1.88 1.88 0 0 1-.82-.92c0-.03 0-.15-.06-.15s-.06.07-.06.1-.07.21-.32.52c-.24.3-.66.48-.68.49s-.1-.02-.1.06c0 .05.09.03.11.03h1.93c.02 0 .1.01.1-.06s-.07-.06-.1-.07zm-4.1.04c0 .02-.3 0-.46 0s-.38.03-.4-.03c0-.02.1-.08.18-.15s.14-.15.16-.15c.03 0 .14.05.26.15s.28.15.27.18zm.33.01c-.02-.06-.22-.05-.5-.27s-.4-.51-.44-.52c-.04 0-.05.08-.05.1s-.04.2-.31.43c-.3.25-.59.25-.62.26s0 .07.02.09l1.76-.01.07-.03c.02-.02.08 0 .07-.05zm3.32-2.21l.06-.1s.06-.84 0-.97c-.08-.12-.17-.12-.2-.12h-.59c-.02 0-.11.07-.13.09s-.01 1.03.02 1.08c.03.04.33.03.42.03l.43-.01z"/><path fill="#f1c527" d="M2.14 13.48h.02l-.03-.01v.01zm.16.75l.13.03-.12-.04z"/><path fill="#f1c527" d="M9.5 15.03c-.09-.14-.05-.35-.2-.7-.08-.16-.19-.45-.47-.45-.24 0-.5.2-.56.28s-.1.3-.1.35c-.02.05-.33.13-.38.4-.04.28.14.37.16.39s.06.09.13.3c.07.26 0 .46-.02.5s-.08.04-.12.05c-.05 0-.28-.08-.5.1-.17.15-.18.38-.17.44s.06.12.05.16a1.18 1.18 0 0 1-.9.66c-.08 0-.14-.18-.17-.23s-.26-.13-.28-.18c-.04-.13.13-.62.17-.64.06-.03.09 0 .2.08.14.09.4-.16.34-.25-.03-.03-.08.08-.2.05-.14-.03-.24-.33-.21-.43.03-.1.06-.25.1-.29.06-.04.09.08.2.16.07.05.32-.13.28-.17-.03-.02-.22.06-.33-.37-.04-.16.01-.45.01-.48s-.1-.1-.05-.16c.01-.02.02-.02.04 0-.04-.16.12-.17.37-.75.37-.88.86-.21.75-.63-.13-.49.07-.71.16-.79-.01-.02 0-.05-.02-.08-.05-.09-.14-.09-.18-.08s-.1.06-.13.05c-.03 0-.06-.11-.26-.1-.1 0-.5.07-.95.25-.78.31-.99.22-1.02.25s.13.17.23.21c.09.04.2-.02.25.03s-.05.2-.17.42c-.22.4-.31.34-.31.38s.07.07.11.08c.05 0 .16-.06.2-.02s-.04.15-.15.42c-.13.33-.25.43-.25.45s.07.02.15.01.12-.05.15-.02c.04.05-.16.37-.23.7s-.06.52-.07.6c-.01.1-.13.12-.12-.01 0-.05.04-.28-.01-.57-.04-.18-.18-.62-.16-.65s.06-.02.1-.01c.05 0 .15-.02.13-.03 0 0-.1-.16-.24-.5-.12-.25-.16-.43-.14-.45.05-.05.13.04.17.05.09.04.15.04.17 0 .04-.07-.11-.09-.3-.44-.06-.1-.16-.37-.13-.4s.16.02.34-.05c.22-.09.2-.19.18-.22s-.3.01-1.18-.29a4.94 4.94 0 0 0-.95-.24c-.08 0-.12.1-.16.12s-.12-.05-.18-.03c-.07.02-.13.15-.15.17 0 0 .2-.08.3.68s0-.1.61.65c.61.73.49.7.44.83l.02.01c.05.05-.04.16-.06.18s.03.43-.06.65c-.07.15-.21.08-.25.13s.04.15.2.17c.17.02.2-.2.28-.13.04.03-.05.11 0 .36.05.28-.09.42-.15.5s-.2.06-.21.08c-.02.03.08.17.2.15.18-.02.17-.2.23-.17.1.05.12.66.09.78s-.16.1-.24.25c-.02.04.01.17-.1.2-.06.02-.1-.11-.13-.14s-.26-.1-.5-.25a.84.84 0 0 1-.35-.4l.13-.26c.02-.05-.02-.26-.1-.33-.3-.24-.46-.05-.5-.05s-.09-.2 0-.54c.1-.34.33-.35.39-.6s-.02-.26-.06-.33c-.05-.07-.04-.14-.15-.23-.06-.04-.13-.02-.17-.04s-.05-.05-.09-.08c-.07-.05-.01-.27-.46-.44-.4-.15-.63.16-.85.67-.22.52-.42.52-.43.54s.01.1.03.15c.04.09.23.04.26.09.01.03-.05.1-.07.77 0 .6-.16.91-.15.95s0 .1.16.1c.23-.02.2-.17.25-.17s.02.18.05.39c.03.2.06.29.12.36s.28-.04.32-.1.01-.1.1-.1c.09 0-.05.26.1.48.16.24.36.12.42.05.06-.06.05-.15.12-.15.2 0-.18.2.15.7.17.28.37.19.5.06.1-.1.12-.2.21-.2s.01.48.35.58c.31.1.44-.25.45-.27s-.04-.22-.07-.45c-.03-.22-.04-.5.02-.5s.08.5.16.83a15.7 15.7 0 0 1 .3 2.1c-.01.04-.21.25-.4.65-.18.4-.3.7-.33.74s-.15.05-.4.35c-.26.3-.4.6-.53.73-.18.17-.28.13-.29.14s.06.23.3.26c.39.05.47-.12.5-.12s.22.18.33.47c.13.32-.08.52-.02.57.04.03.25.03.38-.21s-.04-.5-.06-.68 0-.34.04-.33c.07 0 .05.22.1.37 0 .05.16.26.2.26.08-.02.14-.36.12-.47-.02-.16-.25-.46-.15-.5.04-.02.1.1.13.17s.17.17.23.13c.03-.01.07-.36.07-.45s-.07-.34-.06-.38c0-.04.12-.18.13-.2v-.24c0-.1-.05-.3-.04-.33s.04-.03.1 0c.06.05.13.62.11 1.15s.03 1.54-.32 1.91c-.32.34-.62.06-.64.03s.03-.13-.03-.1c-.06.04-.15.25-.05.5.15.36.77.28.9.21s.15-.26.21-.26c.1 0 .03.44-.25.98-.1.2-.55.82-1.04.72-.27-.05-.4-.2-.45-.36-.03-.1.07-.11 0-.16-.1-.08-.6.6.15 1.1.35.23 1.25-.11 1.54-.54.2-.3.14-.57.21-.56.13.02-.02.6-.3.86-.4.37-.97.45-1.27.65-.22.15-.5.44-.36.84s.67.5.6.36c-.03-.05-.3-.3-.05-.54.18-.19.72-.25.98-.4.37-.21.33-.54.4-.51s-.05.53-.3.95c-.39.63-.6.5-.63.57s.1.23.34.25c.23.02.32-.13.36-.09s-.01.13.03.26c.05.13.2.42.3.43.05.01.23-.1.3-.26.05-.16.09-.41.06-.47-.01-.03.08-.11.1-.07s.09.1.27.09c.15-.02.26-.08.25-.17-.01-.07-.37-.18-.59-.63-.19-.4-.29-.77-.22-.79.07-.03.08.49.61.75.25.13.6.2.71.44.11.23-.17.34-.18.37s.1.13.38.03c.47-.16.52-.63.23-.98-.32-.4-1.18-.54-1.52-1.1-.26-.44-.27-.83-.17-.85.15-.01-.06.65.6 1.08s1.41.07 1.56-.4c.19-.55-.16-.69-.22-.66-.03.02.01.21-.1.37-.14.23-.5.4-.94.1-.59-.4-.78-1.45-.74-1.48.03-.04.32.34.72.14.5-.25.28-.6.24-.61s-.1.19-.35.13c-.55-.13-.59-.9-.56-1.8.02-.77.1-1.5.18-1.48s0 .5.02.61c.02.07.11.2.11.26s-.03.15-.06.26c-.02.1-.06.27-.05.31s.08.23.1.24c.03 0 .22-.27.25-.37s0-.21.05-.2c.02 0 .06.02.06.17s-.13.25-.22.46c-.08.2-.02.5.01.52s.06-.08.1-.14c.05-.07.12-.05.2-.29.04-.07.1-.36.13-.29.1.15-.03.29-.1.46-.06.17-.21.64.02.84.16.14.36.08.39.04.04-.05-.11-.2-.12-.35 0-.1.07-.26.17-.37s.22-.23.29-.35c.01-.02.01-.1.03-.12s.26.11.5.05c.26-.06.3-.2.31-.22s-.23-.16-.39-.32c-.12-.13-.21-.3-.38-.5-.24-.27-.5-.4-.59-.56l-.26-.61a1.83 1.83 0 0 0-.34-.47c-.02-.02-.08.01-.09 0s.1-.85.25-1.39c.2-.73.2-1.55.2-1.58s-.01-.08.06-.04c.08.04.05.36.04.57s-.05.46-.05.5c0 .03.04.07.08.13s.28.12.4-.11c.09-.15.08-.41.12-.43s.12.2.26.27.38-.1.46-.33c.06-.2-.07-.42-.03-.47.06-.08.1.18.27.29.24.15.41-.07.48-.32.07-.24-.04-.47.02-.5s.02.07.22.22c.15.11.4-.05.44-.34.01-.14-.08-.42 0-.46.02-.01.2.19.34.1.14-.07.15-.23.15-.3s-.1-.41-.15-.64c-.05-.25-.05-.6-.08-.65-.02-.03-.1-.1-.05-.14.04-.04.12.06.18.08s.13-.03.15-.08c.03-.05-.06-.15-.14-.28z"/><path fill="#c72624" d="M3.43 13.76c-.61-.74-.52.1-.61-.65s-.3-.68-.3-.68c-.01.02-.35.03-.46.25-.15.34 0 .72.07.79h.03c.04-.02.06-.18.18-.2.3-.05.38.32.43.33.06 0 .17-.26.57.18.13.14.2.55.14.56-.04 0-.08-.1-.1-.12s-.49-.1-.69-.11a.68.68 0 0 0-.38.1l.12.05c.15.03.4.09.7.2.47.19.57.22.63.22.05 0 .07-.1.11-.09.05-.13.17-.1-.44-.83z"/><path fill="none" stroke="#c72624" stroke-width=".59" stroke-miterlimit="4" stroke-linecap="butt" stroke-linejoin="miter" d="M3.43 13.76c-.61-.74-.52.1-.61-.65s-.3-.68-.3-.68c-.01.02-.35.03-.46.25-.15.34 0 .72.07.79h.03c.04-.02.06-.18.18-.2.3-.05.38.32.43.33.06 0 .17-.26.57.18.13.14.2.55.14.56-.04 0-.08-.1-.1-.12s-.49-.1-.69-.11a.68.68 0 0 0-.38.1l.12.05c.15.03.4.09.7.2.47.19.57.22.63.22.05 0 .07-.1.11-.09.05-.13.17-.1-.44-.83z"/><path fill="#c72624" d="M7.64 13.22c.1.42-.38-.25-.75.63-.25.58-.41.6-.37.75.03.02.07.08.14.1.1.05.34-.08.78-.27s.72-.22.73-.27c0-.08-.4-.1-.61-.06s-.49.13-.53.15c-.04.02-.06.1-.11.1-.02 0-.01-.37.2-.67.1-.13.26-.24.38-.24s.17.07.22.06c.1-.01.12-.22.25-.31.2-.13.39.09.41.08s.1-.4-.03-.68c-.14-.3-.45-.14-.5-.14l-.05-.01c-.1.08-.29.29-.16.78z"/><path fill="none" stroke="#c72624" stroke-width=".59" stroke-miterlimit="4" stroke-linecap="butt" stroke-linejoin="miter" d="M7.64 13.22c.1.42-.38-.25-.75.63-.25.58-.41.6-.37.75.03.02.07.08.14.1.1.05.34-.08.78-.27s.72-.22.73-.27c0-.08-.4-.1-.61-.06s-.49.13-.53.15c-.04.02-.06.1-.11.1-.02 0-.01-.37.2-.67.1-.13.26-.24.38-.24s.17.07.22.06c.1-.01.12-.22.25-.31.2-.13.39.09.41.08s.1-.4-.03-.68c-.14-.3-.45-.14-.5-.14l-.05-.01c-.1.08-.29.29-.16.78z"/><path fill="#fff" d="M3.13 12.9v-.08c0-.04.14-.14.14-.14l.42.2.07.21-.24.2-.27-.07-.1-.18zm4.15-.12l.05.1c.01.05-.04.25-.04.25l-.23.17-.33-.15-.1-.24.52-.2.13.07z"/><path fill="#231f20" d="M3 12.56c.07-.02.05.1.1.11.05.02.08-.08.24-.05.19.02.37.2.55.32.16.11.23.13.3.14s.08.04.08.06c0 0-.03.04-.09.05-.1 0-.25-.09-.3-.08-.05.01-.07.14-.18.2a.55.55 0 0 1-.41 0c-.2-.11-.17-.34-.21-.37-.03-.01-.1 0-.1-.04s.12-.07.17-.02c.06.05.04.21.1.28s.19.12.28.08c.1-.04.12-.07.15-.15s-.01-.18-.04-.17-.05.1-.1.14c-.08.05-.17.06-.2-.01l.1-.08c.01-.03.04-.15 0-.18-.12-.09-.18-.03-.26-.03-.07 0-.17-.04-.2-.08s-.03-.11.03-.12zm4.5.11c-.02 0-.05.05-.1.08-.11.07-.13-.08-.27-.07-.22.01-.32.13-.49.18-.19.06-.32.05-.34.06-.04 0-.05.03-.05.04s.02.04.05.05l.27.03c.01 0 .14.18.22.23.09.06.18.1.27.08a.48.48 0 0 0 .26-.14c.07-.07.06-.15.07-.18.02-.03.08-.03.09-.05s-.03-.08-.07-.08a.3.3 0 0 0-.15.04c-.03.03.02.13-.04.2-.09.11-.23.14-.32.1-.15-.08-.15-.16-.15-.2v-.07l.1-.05c.02 0 .05.12.12.17.1.08.13.04.14.03l-.04-.15c-.02-.1.02-.1.03-.15 0-.02.03-.04.07-.04.03 0 .1.06.14.07.05.01.1 0 .13-.03l.07-.07c.01-.02.01-.08-.01-.08z"/><path fill="#c72624" d="M3.24 13.88c-.02-.02-.69-.16-.97-.22a4.66 4.66 0 0 1-1.21-.4c-.03-.02-.03.03-.02.06s.39.38 1.32.56c.37.07.92.18.93.17s-.03-.15-.05-.17zm3.82.18c-.02 0 .05-.12.08-.16l.1-.1c.02-.01.57-.09 1.04-.23.41-.12 1-.38 1.01-.36 0 .06-.1.17-.34.3s-.78.28-1.16.38-.7.18-.73.17zm2.69 8.07h3.06c.02.01-.01 8.54-.02 8.57s-.64.26-1.39.5c-.77.26-1.67.48-1.69.44s0-9.47.04-9.5zm-.03-2.7V12s3.11-.02 3.13 0 0 7.38-.02 7.4c-.02.01-3.08.04-3.1.02zM15.37 12h3.38c.03.01-.1 7.37-.13 7.4-.02.02-3.27.04-3.28.03s0-7.4.03-7.43zm-.07 10.1c.02 0 3.24-.04 3.26-.02.06.04 0 2.5-.04 2.82-.06.51-.08 1.44-.92 2.6-.84 1.15-2.3 2-2.33 1.98s.03-7.37.03-7.37z"/><path fill="#1082ce" d="M2.17 10.68c0-.39.52-.41.6-.33.06.07.04.24.04.33s0 .23-.03.3c-.06.13-.61-.02-.61-.3z"/><path fill="#c72624" d="M5.22 10.48a.3.3 0 0 1 .15-.1h.72c.05 0 .13.11.14.14.02.06 0 .34-.02.35-.05.05-.07.05-.12.08-.01.01-.71.04-.75 0-.07-.05-.1-.06-.12-.1v-.37z"/><path fill="#1082ce" d="M9.65 10.98c-.19 0-.48-.12-.41-.37.05-.2.16-.32.5-.3.3.01.5.2.4.46-.06.15-.25.22-.49.2z"/><path fill="#c72624" d="M14.45 10.32c.05 0 .1.12.11.14l-.01.36-.07.07c-.01 0-.7.04-.75.01-.02-.01-.1-.08-.1-.1v-.29l.1-.08c.04-.04.04-.09.06-.1l.66-.01z"/><path fill="#1082ce" d="M16.59 10.68c0-.22.14-.37.33-.37.2 0 .31.16.32.33 0 .15-.05.3-.25.35-.2.06-.4-.02-.4-.31zM1.53 7.3c.06.01.16.26.24.46.08.2.14.48.13.5-.01.03-.32.06-.36.04-.07-.04-.11-.23-.2-.37-.12-.19-.14-.37-.13-.4s.29-.23.32-.23zm1.98-2c.05-.01.08-.07.1-.1s.07-.06.08-.09c0-.03.03-.12-.06-.23-.06-.07-.05-.09-.16-.1s-.19 0-.24.1a.36.36 0 0 0-.01.3c.06.12.25.14.3.13zm1.61-1.17c0 .03.08.18.23.17.18-.02.3-.19.29-.32-.01-.12-.1-.24-.28-.25-.18-.01-.24.16-.25.24-.02.05.02.07.02.1s-.02.03-.01.06zm2.33-1c.15 0 .2.07.24.15.06.12.04.22-.04.31-.14.14-.34.03-.4-.03-.04-.05-.06-.26-.02-.33.03-.05.14-.1.22-.1zm1.54-.88s.04-.15.18-.29a.55.55 0 0 1 .29-.15v.44h-.47zm1.08-.47s.12.02.24.18c.15.18.13.27.13.27s-.36.02-.37 0v-.45zM9.05 2.87c.01-.02.45.03.67 0 .34-.05.61-.02.65.02.01.02-.13.4-.62.39-.54 0-.7-.4-.7-.4z"/><path fill="#f1c527" d="M8.95 2.4c.03-.03.52 0 .55-.02.03 0 .07-.03.08-.04s0-.57.02-.58c.02 0 .1 0 .17-.02s.16 0 .17.02-.02.59 0 .6h.2c.06-.02.12 0 .2 0h.13c.02.02.03.27-.03.31-.04.02-.4.02-.73.03-.37.02-.73.03-.74 0-.01-.04-.06-.28-.02-.3zM9.04.72c.02-.01.38.09.45.08s.1-.04.11-.06c.01-.02-.02-.05-.03-.09s0-.4-.04-.43l.25.01.23.01c0 .02 0 .14-.03.3-.01.14-.04.24-.02.27.03.05.2 0 .3-.02s.25-.04.26-.03c.01 0 .02.43 0 .44-.08.04-.42-.1-.5-.04-.06.04-.04.2-.03.27s.01.17 0 .18l-.21-.01h-.2c-.02-.01 0-.16 0-.25s.03-.19 0-.2c-.02-.02-.16 0-.27.02s-.25.04-.27.02V.96c0-.11-.02-.22 0-.24zm.43 2.77c.03-.03.15 0 .28 0l.3.01c.02.02.02.38 0 .4-.04.01-.09-.08-.14-.1-.08-.03-.1-.08-.16-.09s-.13.05-.18.1c-.04.04-.1.09-.1.07-.02-.05-.01-.16-.01-.23s0-.15.02-.16zm-.38.87c-.04-.01-.03-.22-.03-.5v-.43c.02-.04.12-.12.16-.1s.1.1.1.16.02.56 0 .61c-.04.05-.2.27-.23.26zm1.29.04c-.03 0-.18-.25-.21-.29-.03-.03 0-.23 0-.39s0-.26.02-.3c.02-.03.11-.12.18-.09s.04.03.05.07v.82c-.01.07 0 .16-.04.17z"/><path fill="#1082ce" d="M11.75 3.2c.1-.1.36-.11.44.04a.3.3 0 0 1-.05.36.27.27 0 0 1-.4 0c-.1-.1-.09-.28.01-.4zm2.23 1.06c.14.11.33.04.4-.1.04-.1.08-.25-.03-.33-.13-.1-.32-.07-.4.03s-.12.28.03.4zm1.98 1.02c.15.1.31 0 .37-.1.03-.06.07-.1.05-.19a.4.4 0 0 0-.15-.18c-.04-.02-.06-.02-.1-.02-.09 0-.15-.06-.25.08a.3.3 0 0 0-.02.33l.1.08zm1.98 2.99a.83.83 0 0 1-.28-.03c-.06-.03-.1-.02-.12-.03s-.04-.09-.02-.1c.06-.1.02-.13.15-.42.16-.35.24-.4.25-.43s.01-.07.04-.07.13.06.22.15.14.17.14.2c0 .04-.08.22-.15.36s-.2.35-.23.37zM9.4 7.03c0-.02-.02-.75 0-.76l.14-.08h.37c.02 0 .09.09.1.1v.75l-.06.06a.93.93 0 0 1-.48 0l-.06-.07z"/><path fill="#f1c527" d="M3.04 6.18c.01 0 1.08-.95 3.09-1.68 1.52-.55 2.8-.55 2.83-.57s-.01-.33-.01-.33-1.73.07-3.25.67c-1.55.61-3 1.7-3 1.7 0 .05.1.05.17.1.06.04.13.1.17.11zm12.7-.87a10.85 10.85 0 0 0-5.07-1.66.88.88 0 0 0-.02.28c.02.02.96.06 2.14.41.58.18 1.21.45 1.75.68.76.33 1.97 1.23 2 1.25s.14-.07.22-.09l.2-.02s-.52-.4-1.22-.85z"/><path fill="#fff" d="M9.75 19.6l3.2-.01c0-.01.04-7.55.06-7.58.01-.02 2.15 0 2.17.02s-.02 7.53 0 7.55c0 .02 3.42 0 3.43.02s-.01 2.33-.04 2.34l-3.42.03c-.02 0-.02 7.62-.04 7.63-.01 0-.4.24-.99.52s-1.19.55-1.19.5c0-.06.1-8.63.05-8.65s-3.21.01-3.25-.01c-.04-.02 0-2.33.02-2.35z"/></svg>