<svg version="1.1" xmlns="http://www.w3.org/2000/svg" viewBox="0 0 32 32"><path fill="#ffd200" stroke="#000" stroke-width=".39" stroke-miterlimit="4" stroke-linecap="butt" stroke-linejoin="miter" d="M.26.4h15.67v31.34C8.1 31.74.26 25.2.26 17.37z"/><path fill="#f4f0e8" stroke="#000" stroke-width=".39" stroke-miterlimit="4" stroke-linecap="butt" stroke-linejoin="miter" d="M31.6.4H15.94v31.34c7.84 0 15.68-6.53 15.68-14.37z"/><path fill="#dc281e" d="M9.39 21.83c-1.85 1.07-3.43 1.02-4.78.04a4.29 4.29 0 0 1-1.51-4.15c.48-2.3 2.41-3.27 4.56-3.3 1.42-.1 2.7-.02 4.2 1.03 1.46 1.2 1.26 2.68 1.35 3.89l-1.43-.02c.03-1.15-1-2.28-2.59-1.93-1.3.36-1.88 1.3-1.55 2.47.26 1.04.62 1.8 1.75 1.97zm2.41-1.49l-.03 1.5c-2.7.57-3.41 2.13-3.39 3.44.04 2.46 1.94 3.91 3.84 3.58-.7-1-1.26-1.4-1.13-3.58a2.55 2.55 0 0 1 2.18-2.06l-.09-2.88z"/><path fill="#dc281e" d="M14.06 20.37v3.2c-.92.56-2.04 2.48-1.64 4 .83 2.72 2.23 3.01 3.4 4.12l.01-11.34zm-.02-1.1v-2.81c-1.33-1.48-2.72-3.35-3.13-5.33-.57-2.73 1.8-5.5 2.56-6.29.55-.66.9-1.72 1.11-2.44.29-1.42 1-1.3 1.27-1.49l.06 18.39z"/><path fill="#009a3d" d="M4.15 15.74c-.04-.37-.11-.75.3-1.12.67.1 1.1-.17 1.64-.26l-.72-.78.74-.11.61.76.96-.13-.39-.79.68-.06 1.16 1.4-.5-.6c.98-.05 1.72-.36 1.9.53-.53-.06-1.05-.13-1.4.04.56.83.61.7-.16 1.53.19-.62 0-1.08-.65-1.66l-1.22.2-.33-.44c.8 1.24 1.37 1.16.52 2.47.1-1.04-.42-1.37-.8-1.86-2.25-.05-1.89.88-2.34.88z"/><path fill="#009a3d" d="M.83 14.51l2.03-.17.83-1.18.98-.37.46.8 3.08-.5c.17-.07-.03-1.91 1.3-2.86 1.15-.87.9-2.63.03-3.6-.08-.88-.1-1.85-.07-2.9.73-1.47 1.47-.9 1.97-.11.15-.52.34-1.42-.22-2.14-.34-.45-2.05-.6-3.14-.24-1.36.47-1.38 1.54-1.4 2.36l-.09 2.25-4.62 6.68.08.23z"/><path fill="#000" d="M4.87 8.44c.55-.15 1.24-.4 1.76-.55.43-.13.76.05.87.02-.03-.15 0-.3-.15-.44-.15-.07-2.3.6-2.48.97z"/><path fill="#f4f0e8" d="M8.38 2.15c0 .06-.07.1-.15.1s-.15-.04-.15-.1c0-.05.07-.1.15-.1s.15.04.15.1z"/><path fill="#000" d="M8.54 4.58c-.03.08-.06.16-.02.26.04.07.14.1.15.04.01-.08-.1-.2-.13-.3zm.12-.44c-.03.08-.06.17-.01.26.04.07.13.1.14.04.02-.08-.09-.2-.13-.3zm.5.06c-.03.1-.06.18-.02.27.04.07.14.1.15.04.01-.07-.09-.2-.13-.3zm-.86-.08a.32.32 0 0 0-.02.27c.04.06.14.09.14.03.02-.07-.08-.2-.13-.3zm-.28.4c-.03.08-.06.17-.02.26.04.07.14.1.15.04.01-.07-.1-.2-.13-.3zm.99.13c-.03.08-.06.17-.01.26.04.07.13.1.14.04.02-.07-.09-.2-.13-.3zm-.2.62c-.03.08-.06.17-.01.26.04.07.13.1.14.04.02-.08-.09-.2-.13-.3zm-.45-.07c-.02.07-.05.16-.01.26.04.07.14.09.14.03.02-.07-.08-.2-.13-.3zm-.39-.04c-.03.08-.06.16-.01.26.03.07.13.1.14.04.02-.08-.09-.2-.13-.3zm1.2.15c-.03.09-.06.17-.01.27.03.07.13.09.14.03.02-.07-.09-.2-.13-.3zm-.11.7c-.03.09-.06.17-.02.27.04.07.14.1.15.04.01-.08-.09-.2-.13-.3zm-.36-.03c-.02.08-.05.17 0 .27.03.06.13.09.14.03.01-.07-.1-.2-.13-.3zm-.42-.03c-.03.08-.06.17-.02.27.04.06.14.09.15.03.02-.07-.09-.2-.13-.3zm.25.68c-.03.09-.06.17-.01.27.03.07.13.09.14.03.02-.07-.09-.2-.13-.3zm.43.11c-.03.08-.06.17-.02.26.04.07.14.1.15.04.01-.08-.09-.2-.13-.3zm.41.1c-.03.09-.06.17-.02.27.04.07.14.1.15.04.01-.08-.1-.2-.13-.3zm-.42.56c-.03.1-.06.18-.02.27.04.07.14.1.15.04.01-.07-.1-.2-.13-.3zm.37 0c-.03.08-.06.17-.02.27.04.06.14.09.15.03.01-.07-.1-.2-.13-.3zm.39.01a.36.36 0 0 0-.01.27c.04.07.14.09.14.03.02-.07-.08-.2-.13-.3zM9.64 8c-.03.08-.06.17-.01.26.04.07.13.1.14.04.02-.07-.09-.2-.13-.3zm-5.7 1.74c.76-.3 2.14-.93 2.88-1.07.27 0 .37.1.43.07a.61.61 0 0 0-.22-.4c-.15-.07-2.94.96-3.1 1.4zm-.68 1.05c.83-.25 2.32-.82 3.07-1 .2.04.23.23.34.22.02-.12-.01-.4-.25-.5-.15-.07-3.01.84-3.16 1.28z"/><path fill="#dc281e" d="M11.31 20.68c-.74-.34-.35-1.11-.2-1.38l4.85.01v1.06h-4.5z"/><path fill="#0039a6" d="M16.02 4.72h15.5v4.14h-15.5V4.72zM16 13.14h15.5v4.13H16v-4.13zm.04 8.45l14.67-.02a14.1 14.1 0 0 1-2.47 4.17h-12.2z"/></svg>