<svg version="1.1" xmlns="http://www.w3.org/2000/svg" viewBox="0 0 28 32"><path fill="#000" d="M11.84.21a5.8 5.8 0 0 1 1.57.7c.73-.33 1.45-.67 2.28-.75.32-.07.7-.08 1-.05.92 0 1.64.33 2.41.62l1.27.58c.55.26 1.24.63 1.8.89.82.44 1.7.62 2.7.64a4.93 4.93 0 0 0 2.45-.82c.16.1.36.45.36.45-.42.3-.73.83-.8 1.34-.12.83-.15 1.84-.16 1.92 0 .18.08 14.16.05 14.93 0 .3-.13 1.54-.39 2.07-.77 2.37-2.9 4.04-5.07 5.1-1.04.51-2 1-3.03 1.4-.07.09-2.18.93-3.05 1.44-.35.16-1.32.78-1.64 1.33-.03-.05-.04 0-.2-.21-.79-.98-1.76-1.26-2.78-1.74-1.13-.53-2.3-1-3.42-1.52-1.95-1-3.94-2.15-5.28-4.2-.23-.31-.56-1.03-.65-1.2-.2-.45-.29-.84-.41-1.26-.05-.4-.14-.72-.1-1.06 0 0 .01-16.35-.03-16.86A2.5 2.5 0 0 0 0 2.47c.13-.16.46-.37.46-.37 1.01 1.01 2.66.9 3.84.39C5.63 1.99 6.8 1.2 8.13.68c.21-.1.45-.18.65-.28A8.1 8.1 0 0 1 10.5.02a5 5 0 0 1 1.34.2z"/><path fill="#e3001b" d="M16.53.49c-1.04 0-2.06.39-2.98.87.01 1.67-.02 3.35 0 5.03-.03 3.89 0 7.8 0 11.7-.01 1.32 0 2.66.58 3.87a13.23 13.23 0 0 0 5.77 6.16c2.11-.97 4.21-2.26 5.5-4.24 1.32-1.88.96-4.28 1.03-6.44-.01-3.54.09-7.09-.06-10.63.03-1.24-.1-2.55.34-3.72.02-.53-1.37.4-1.9.14-2.42 0-4.36-1.6-6.54-2.36a4.69 4.69 0 0 0-1.74-.38zm3.2 3c.01.08.1.04.14.07.19.1.3.22.36.43.08.08.1.14.17.08 0-.04.03-.13 0-.18 0 0 .03-.12.03-.23.06-.05.1-.06.2-.05.08.06.1.1.15.18l.15.2c.07.08.16.18.3.14.16-.1-.02-.42.2-.47.22-.06.28.1.4.2.04.1.05.07.07.21.11.01.27.02.38.07.11.03.2.15.26.24.01.13-.02.2-.1.3-.02 0-.06-.02-.08.02.07.04.1.2.21.2.02-.26.2-.64-.12-.82a.37.37 0 0 1-.3-.09v-.14c.06.03.09.06.13.11.26-.06.37.13.6.07.11.04.22.14.3.23l.27.13c-.03 0 .13.17.13.17.08.22-.06.57 0 .72.03.08.1.1.15.09.11-.08.05-.44.03-.44.05-.02.03-.1.1-.07.12.05.03.18.08.25 0 .07-.04.12-.03.2.04.04.13 0 .16-.04.18-.03.39 0 .5.14.01.12.08.17.05.31-.05.06-.02.09-.06.13.06.04.24.25.24.42.03.16-.06.4.08.47.03 0 .04 0 .07.05.01.06-.06.07-.1.07-.05-.11-.32-.02-.32-.02.15.03.1.23.16.35-.02.12-.07.4-.02.46 0 .2.06.43 0 .65-.06-.02-.03.16-.27.24-.17.12 0 .35-.09.5l-.23.62c-.1.1-.47.46-.39.57.02-.04.3-.13.3-.13.3-.05.54-.11.63-.18.06 0 0-.09.06-.07.06-.28.03-.58.03-.87.02-.19 0-.02.06-.25a.65.65 0 0 1 .28-.18c.17-.03.39-.01.47.13.2.06.06.34.2.45.06 0 .1.03.15.01.05.1-.07.1-.13.11-.03-.02-.1 0-.14-.01-.05-.04-.1-.12-.15-.18-.03-.01-.04.03-.08.01a6.47 6.47 0 0 0 .07.66s.1.16.15.17c0 .08.15.06.16.2 0 0 .1.14 0 .4.02.1-.01.11-.08.13 0 .06.09.14.18.14l.01-.01a.6.6 0 0 1 .13.56c-.04.07-.17.19-.15.3-.01 0 0 .1.1.1-.03.15.12.24 0 .42 0 0 0 .15-.1.24 0 .03 0 .08.03.09.05.09-.02.25.06.3.06.17-.06.39.11.49 0 0 .12.12-.15.46-.12 0-.27.15-.25.22-.03-.01-.12.14-.03.15.1-.05.14-.15.3-.13.1-.04.19.02.28.02 0 .13-.1.14-.14.26-.16.04-.17.44-.15.5.05.12.18-.05.18-.05h.09c.03.07.02.12-.04.22-.05.12-.06.6-.06.6.05.05.22-.05.18.09-.07.04-.15.08-.2.15-.12 0-.12.19-.16.27.07.05.13.08.16.12-.14.03-.34.18-.37.36-.03.02 0 .1-.18.26-.05.14-.29.17-.29.17l-.26.07-.2.86s-.16.47-.29.68c-.04.12-.34.58-.34.58-.01.07-.33.43-.33.54 0 0-.12.47-.03.67.03.28.26.56.27.56.1.06.18.2.18.2s.08.29-.06.6c-.05.1-.23.15-.35.2-.2.1-.79.53-.9.6.01.05-.18.09-.36.27-.12.13-.34.27-.41.44l-.05.2c.06.01.04.1.05.13-.12.09-.37-.05-.44.06-.13.1-.22.32-.48.25-.1.06-.14.15-.26.15-.04.04-.15-.02-.14.07-.05 0-.28.09-.28.12-.23-.06-.24.23-.47.12 0 0 .05-.27.05-.34-.05 0-.1-.05-.14-.01-.04.1-.15.26-.15.26-.11.05-.24.15-.26.21l-.27.06c-.38.01-.85.08-1.16-.06-.2-.01-.13-.14-.27-.12-.08-.1.06-.34.06-.37.01-.08.07-.2.1-.23 0-.1.26-.68.26-.68.05-.06.15-.12.2-.18 0 0 .4-.06.67.06.18.04.34-.1.44-.17.05.01.3-.18.3-.18.22.04.38-.07.56-.08 1.12-.68 1.49-.97 1.69-1.12.18-.15.05-.38 0-.55-.07-.27-.2-.4-.23-.43a2.38 2.38 0 0 0-.9-.58c-.14-.04-.12.25-.06.45.09.02.06.2.06.2l.04.35c-.06.12-.15.3-.25.4-.07.03-.63-.07-.63-.07l-.9-.12c-.15 0-.23-.03-.34.05-.05.12-.33 0-.34 0-.04.01-.02.14-.12.16-.03-.07-.1-.03-.2-.06-.1-.04-.46-.1-.6-.1-.17-.05-.5-.06-.57-.15-.1-.15-.02-.32-.1-.29-.16-.03-.1.06-.18.17l-.05.2a.47.47 0 0 0-.15.22c-.02.05-.34.13-.34.13l-.84-.03s-.62-.11-.66-.15c-.07-.16.05-.28.1-.4 0 0 .26-.69.33-.66.06-.12.18-.19.34-.18.18-.07.37-.16.51-.28a.72.72 0 0 1 .48-.18c.47 0 1.13.12 1.13.12l.94.15c.33.03.48.12.77.07.04-.07-.03-.19-.03-.19a2.8 2.8 0 0 1-.57-.83 2.2 2.2 0 0 1-.56-.65c.03-.1-.24-.58-.3-.68 0 0-.2-.46.12-.79.07-.07.49-.34.72-.62.09-.1.2-.2.16-.35-.12-.05-.31-.45-.34-.48-.08-.08-.73-.68-1.02-.99.01-.1-.15-.07-.16-.13a3.86 3.86 0 0 1-1.07-.5c-.08.02-.2-.05-.17.08.08.14.73.76.84.73.05.05.06.13.11.16.09.15-.15.23.04.33.13-.04.16-.17.25-.25l.13.03s.44.27.43.34c.2.2.38.43.5.7 0 0 .02.2-.05.27-.14-.01-.21.06-.34.1-.19.02-.62.19-.7.2-.07-.01-.15-.02-.22-.07 0-.06-.29-.28-.46-.25-.05-.04-.15-.04-.22-.05a.92.92 0 0 1-.25-.28c-.04-.05-.15-.3-.24-.42a6.7 6.7 0 0 0-.82-.9c-.1-.12-.19-.22-.3-.32-.05-.06-.1-.19-.13-.2 0 0-.01-.43.14-.58l.18-.15c.06-.1-.07-.11-.08-.17-.04 0-.27-.11-.33-.16-.15 0-.17-.13-.4-.21a1.14 1.14 0 0 1-.26-.34c0-.06 0-.14-.07-.14 0 0-.16-.18-.17-.22l-.05-.58c.06-.13.06-1.57.06-1.57v-.65c.03-.1.15-.16.22-.22.1-.04.72-.34.8-.4.17-.12.3-.12.43-.08.1.04.34.37.38.51.05.12.18.43.51.8.25.26.29.22.41.34.04-.04.36-.21.47-.4.6-.38.56-.04.72-.27.28-.38.7-.68.7-.68.33-.22.57-.16.57-.18.1 0 .31-.03.42-.13.02-.08.23-.1.26-.15.38-.04.73-.09 1-.3l.01-.07c-.18-.06-.43.07-.54-.1-.08-.07-.22-.16-.15-.3-.05-.06-.22-.1-.22-.1-.12-.07-.3 0-.37-.12-.21.01-.56-.1-.67.11-.04.02-.1 0-.13.06-.34.07-.42-.24-.71-.3-.06-.04-.08-.16-.09-.2.03-.04.01-.09.03-.13-.05-.09-.29-.19-.3-.19V6.3c.15-.17.4.01.58-.1a1.83 1.83 0 0 0-.34-.18c-.05-.16-.26-.12-.24-.3.1-.05.04-.22.06-.31.1-.14.4-.25.4-.25.14-.02.16-.2.3-.25.1-.07.28-.07.41-.04l.12.09.6-.06.72-.03c.06-.17-.16-.17-.22-.26-.04-.04.01-.14-.07-.16-.03-.16 0-.35-.03-.5 0 0-.14-.18-.22-.24 0 0-.4.01-.4-.15l.46-.02c0-.05.04-.04.09-.05zm-1.3 2.55c-.08 0-.17.02-.25.01-.02 0-.03 0-.03.02v.11c.02.02.04.02.06.02l.06-.03c0-.02.03-.02.04-.02.06 0 .11 0 .15.04.03-.02.06-.02.1-.03a.1.1 0 0 0 .07-.05.22.22 0 0 0-.12-.05l-.08-.02zm-3.66 3.82l-.02.47c0 .04.05.06.06.1.03.05 0 .12.02.18.07.03.02.1.05.16.06 0 .05.08.05.13 0 .06.02.13-.03.18-.05.02-.13.05-.1.12l.27.03c.05-.02.03.02.05.04.03 0 .1 0 .1-.04.03-.1-.03-.2-.06-.3-.03-.05.01-.12-.04-.16-.03-.06.01-.13-.02-.19-.05-.02-.06-.08-.05-.13.02-.06-.05-.08-.04-.13 0-.1-.08-.2-.12-.3 0-.06-.07-.1-.1-.16h-.02zm8.65.91l-.03.05c-.07.04 0 .2-.1.27-.1.2-.3.33-.37.54-.06.11-.11.18-.13.32-.1.1-.15.29-.32.33-.2.1-.09-.16-.15-.22-.16-.05-.3 0-.3.16-.1.12-.01.38.12.48.1.24.35.36.45.59.13.07.2.16.32.29.17.15.35.29.5.45.13.15.3.3.42.45.15.12.21.25.35.4.08.16.19.25.24.42.12.18.18.36.25.57.03.2.2.07.26-.03a4.7 4.7 0 0 0 0-.65c.01-.17-.09-.29-.12-.44-.05-.13-.25-.18-.31-.3-.16 0-.27-.12-.43-.14-.14-.1-.33-.1-.48-.22-.13-.16-.32-.3-.37-.5.02-.19-.15-.32-.02-.48l.01-.39c.02-.07 0-.17.03-.2l.03-.45c.1-.18.03-.47.08-.7.08-.07-.02-.29.06-.4v-.02c0-.05.02-.17 0-.18zm-9.16 13.96a.39.39 0 0 0-.24.08c-.2.18-.28.35-.41.57-.07.03-.17.03-.23-.04-.1-.12-.12-.23-.22-.35-.08-.14-.33-.23-.5-.22-.2.05-.38.08-.54.21-.18.18-.44.29-.52.55-.06.1-.14.2-.12.33-.03.17.07.32.2.4.13.11.2.26.26.37-.08.16-.3.3-.5.27-.24.02-.45.28-.43.53.03.23.08.39.19.6.13.2.2.42.44.54.22.21.44-.02.67-.03.24-.02.32.37.13.49-.12.28.16.51.41.53.23.05.46.07.7.07.2 0 .47.02.63-.1.24 0 .43-.25.39-.5.02-.18-.07-.26-.06-.38.01-.3.32-.21.5-.16.2.05.41 0 .59-.13a1 1 0 0 0 .29-.58c.11-.16.01-.44.09-.63-.03-.22-.13-.42-.37-.43-.2.02-.48-.08-.41-.24-.08-.17.3-.23.3-.45.1-.18.02-.38-.05-.54-.1-.18-.29-.31-.47-.44-.16-.08-.28-.21-.45-.25a.78.78 0 0 0-.27-.07zm-.2.32c.12 0 .25.07.36.15.18.01.2.26.35.3.17.1.38.18.47.36.14.21 0 .47-.18.64-.11.36.5.15.53.46.04.2.02.42-.1.59-.04.2 0 .44-.13.61-.07.25-.36.26-.57.24-.23-.08-.47.07-.33.3.08.25-.14.51-.36.52-.16.12-.4 0-.58-.01-.12-.1-.26.06-.39.03-.17-.03-.4-.1-.44-.27a.48.48 0 0 1-.07-.27c0-.38-.36-.18-.57-.21-.24-.02-.32-.3-.4-.48.1-.28-.27-.32-.28-.6-.08-.29.2-.57.5-.52.31-.03.23-.45-.01-.5-.16-.08-.3-.36-.13-.51.1-.14.26-.26.39-.31.27.03.26-.36.53-.37.1-.13.44-.18.57-.02.07.08.07.18.12.27.03.05.04.06.1.1.06.05.13.02.17-.04.08-.12.14-.37.25-.38a.28.28 0 0 1 .2-.08zm-1.08.16c-.05 0-.1.01-.14.04-.27.06-.35.37-.57.46-.2.05-.36.25-.48.36-.05.3.34.3.42.5.06.02.02.17.04.25-.08.18-.38.22-.58.2-.12.07-.16.3-.1.43.03.15.35.27.28.39l.01.26c0 .24.3.37.48.23.24-.17.47.2.35.34 0 .04-.04.06-.03.09.03.14.13.2.24.25.19.13.41.04.6 0 .17.08.45.2.65.06.22-.14.22-.39.15-.6-.05-.21.26-.36.43-.22.2.14.54.05.55-.24.05-.14-.1-.35.01-.53.13-.08.15-.23.16-.37.04-.16-.07-.27-.22-.27-.2.02-.38-.08-.35-.27.03-.18.3-.3.29-.52-.05-.17-.26-.25-.43-.31-.27.02-.18-.39-.43-.42-.12-.06-.22-.12-.35-.1-.23.02-.18.37-.35.48-.1.1-.41-.06-.38-.25.02-.12-.1-.24-.25-.24zm-.43.49c.08 0 .16.1.18.17.1.08.23.17.32.27.15.14.36-.03.54-.02.08 0 .1.1.2.06.03.1.13.04.16 0 .16-.11.28-.24.39-.4.05-.1.17-.06.09.04-.06.19-.22.33-.31.5.06.13.16-.13.24-.2.09-.08.15-.21.24-.3.18.1-.06.24-.12.36-.06.15-.18.3-.13.47.06 0 .05.11.1.14-.02.17.07.32.2.4.12 0 .22.13.36.12.05.02.14-.03.14.03 0 .08.01.16-.09.1-.17-.06-.35-.09-.53-.13-.1.1.05.12.12.13l.46.12c0 .16-.22.05-.32.08-.15-.1-.35-.06-.49.06-.06.13-.16.19-.27.3-.1.05-.18.12-.29.15-.04.08-.1.15-.08.26.02.1-.09.12-.05.24.03.08-.04.3-.1.21l.02-.71c-.03-.1-.13-.06-.12.03l-.01.71c-.12.02-.03-.16-.08-.23a1.63 1.63 0 0 1-.04-.38c-.1-.04-.05-.2-.13-.25-.12-.04-.25-.06-.34-.17-.07-.05-.07-.2-.21-.16-.14 0-.23.06-.35.09-.03.1-.09-.06-.12.03-.09.05-.23-.08-.09-.1.17-.06.35-.14.53-.18.1-.15-.12-.14-.19-.07-.14.03-.26.1-.4.16-.13.06-.07-.14.03-.12.16-.06.25-.2.42-.23.06-.06.14-.12.12-.22l.02-.22c.06-.05.1-.2.15-.3.03-.12-.06-.17-.09-.3-.1-.08-.14-.23-.21-.35-.09-.09.05-.04.03-.12.14.2.25.43.44.6.16-.07-.07-.2-.09-.29-.09-.13-.18-.26-.3-.36a.07.07 0 0 1 .05-.03z"/><path fill="#000" d="M11.98 2.9c-.54.38-.84.99-.9 1.63-.13-.02-.04-.24-.07-.36.03-.16.11-.3.13-.47.14-.34.44-.74.82-.85l.02.06zm-.01.84a2.3 2.3 0 0 0-.33.85c-.04.01-.05-.04-.08-.06 0-.42.15-.85.54-1.06.13.14-.1.15-.13.27z"/><path fill="#fff" d="M10.42.16h-.15C8.3.46 6.7 1.6 4.97 2.35c-.06.1-.24.04-.22.18h.1C6.1 2 7.3 1.32 8.51.78c.9-.33 1.9-.6 2.94-.43l-.01-.09c-.33-.06-.67-.1-1.02-.1zm6.06.08a6.9 6.9 0 0 0-2.52.55l-.32.17c-.05.05-.14.13-.1.2.5-.22 1.02-.43 1.54-.6 1.7-.57 3.27.08 4.8.8.98.47 1.9.97 2.92 1.37l.31.04c-.38-.14-.68-.28-1.1-.49-.45-.2-.87-.46-1.32-.65-1.04-.46-2.08-1.04-3.2-1.3a4.12 4.12 0 0 0-1.01-.08zM13.27 1.6c-.86.1-1.54.55-2.17 1.2-.3.36-.49.77-.58 1.26-.14.72.04 1.47-.04 2.21 0 .11-.03.16-.04.32-.15.48-.36.74-.94.98-.15.1-.46.16-.6.26A2.8 2.8 0 0 0 7.16 8.9c-.92 1.03-.6 2.46-.56 3.8-.06 1.88-2.24 1.57-3.15 2.8-.85.93-.89 2.22-.9 3.5.04.37-.07.7-.25 1-.26.28-.57.56-.99.57-.1 0-.08.04-.07.18-.01.54.1 1.03.23 1.5.1.38.23.77.4 1.13.2.42.41.71.63 1.06.16 0 .34.02.47-.03a3.66 3.66 0 0 0 2.38-1.46c.65-.93.72-2.14.74-3.33l.03-.05c-.04-.13 0-.3.01-.46.03-.93.92-1.66 1.7-2 .8-.39 1.67-.98 2.07-1.82.58-.95.12-2.3.39-3.4.38-1.55 2.28-1.01 2.98-2.3V1.6zm14.02.71c-.5.18-.99.4-1.52.54-.07.04 0 .07.02.1.3 0 .36-.08.6-.13.26-.08.5-.2.74-.33.06-.05.18-.06.18-.16l-.02-.02zM.35 2.54c.2.33.35.53.45.96.08.3.1.41.1.64.03 1.47.03 5.09-.02 5.41v10.68c-.01.97.14 1.9.57 2.65l.02-.02a9.56 9.56 0 0 1-.38-1.41c0-.18-.05-.34-.07-.5L1 10.47c-.05-.36 0-.75 0-1.16v-5.2C.95 3.73.9 3.26.71 2.93c-.1-.14-.2-.34-.37-.4zm19.47 1.19c.2.22.09.51.2.78.23.26.63.26 1 .24.13-.03.21.08.33.02v-.04c-.15-.06-.33-.01-.49-.05-.1-.04-.23.03-.32-.06 0-.03.02-.04.04-.06h.7c.03-.07-.02-.15 0-.22-.26-.11-.58-.04-.86-.06-.36 0-.3-.47-.6-.55zm.74.07l-.03.04c0 .04-.03.1.03.13-.06.23.18.08.27.14-.08-.08-.15-.24-.27-.3zm.97.03c-.12.01-.09.16-.13.25.07.33.07.68.22.97l-.06.06a.41.41 0 0 1-.1-.16l-.92-.05a.8.8 0 0 1-.25.12c-.58-.03-1.1.06-1.65.1-.03-.08-.1-.16-.19-.13-.19.14-.34.36-.6.36-.06.05-.16.1-.12.2.22.42.69.3 1.03.46.07.08.16.17.16.3 0 .14 0 .28-.03.43-.28.1-.58-.02-.9 0-.06.06-.08.13 0 .2.21.04.46.05.7.04.12.03.22.03.34 0 .2-.07.06-.31.12-.45.09-.27-.07-.47-.26-.66l.05-.05c.07.05.15.1.24.12.28.24.14.71.12 1.02.14.05.27.1.45.1v.02c.1-.04.08.07.15.04.06-.05.02-.15.03-.22.08-.15-.01-.35.08-.48.06-.13.28-.12.42-.12.18.2-.16.08-.2.2-.12.3-.13.62-.11.96.02.1.13.08.17.12.3-.07.6.15.87 0 .07-.44.55-.2.77-.46-.02-.1.03-.18.07-.25.07-.01.05.06.06.09.12.58-.6.34-.78.76-.06.04-.17.06-.2.12.17.09.37.03.54-.06.06-.04.16-.02.16.07-.19.2-.5.24-.75.15-.07 0-.09-.14-.19-.1-.04.05-.08.1-.08.16.03.02.05.08.08.06.15.11.41.05.59 0 .07.02.13-.06.18.05 0 .13-.17.08-.23.15-.29-.01-.63.13-.8-.17-.02-.06-.1-.03-.14.02-.05.09.02.2.1.28.04.05.13 0 .14.05.2.03.4-.06.5.14a.92.92 0 0 1-.65-.02c-.1-.1-.27-.19-.27-.32-.06-.15-.16 0-.25-.02-.42-.08-.61.37-1.01.32-.69-.02-1.06.76-1.44 1.21-.1.05-.2.23-.32.14-.05-.03.01-.05.03-.08a.53.53 0 0 0 .25-.26c-.07-.07-.17 0-.25 0-.61.37-1.02 1.24-1.73 1.55-.13.1-.25.24-.2.42-.05.22-.02.5-.02.75l.04.05.12-.24c.26-.28.63.01.95-.02.66 0 1.23.16 1.8.38.12-.03-.09-.11.05-.15.19.08.37.03.57-.02.1.02.18-.1.27 0a.5.5 0 0 1-.41.23c-.2-.14-.33.1-.52.08-.6-.2-1.23-.34-1.9-.34-.2.05-.35-.13-.55-.07-.17.1-.22.3-.27.46-.07.32-.4.55-.57.82-.01.11.01.22.06.31.42.43.88.85 1.18 1.33.2.17.15.44.41.6.3-.04.5.13.7.3.13.07.3.02.43 0 .18-.1.42-.13.62-.22-.09-.38-.37-.66-.64-.92-.16-.2-.32.03-.45.11-.09.08-.2 0-.26-.05a.7.7 0 0 1-.01-.35c-.08 0-.08.12-.17.12-.15-.05.05-.13.02-.22-.05 0-.09.1-.13.15-.22-.01-.03-.19-.07-.3-.26-.16-.4-.41-.62-.64-.05-.15.06-.24.13-.35.2-.05.3.1.45.13.46.33 1.02.43 1.55.6.22.01.4.16.6.23.33.04.26-.31.4-.5a.85.85 0 0 1 .37-.33c.02 0 .05.02.05.04-.39.2-.23.65-.5.9-.45.28-.73-.24-1.13-.19.18.27.4.5.66.7.23.15.27.45.47.6.18.16.3.3.48.42.18.07.44 0 .6-.15.02-.03.02-.1.09-.09.02.03.08.06.07.1a.66.66 0 0 1-.27.29c-.21.08-.37-.16-.58-.03-.09.07-.02.18-.06.24.03.02.01.05.02.09.07-.09.15-.22.25-.27.03.04.1.06.07.13-.12.12-.2.36-.4.32-.03 0-.07-.04-.1 0 0 .04 0 .08.03.11.18-.11.4.05.57.15.13.07.13-.1.19-.16.14-.22.36-.42.6-.57.13-.06.28-.14.3-.3.1-.12.08-.33.08-.46.13-.03.08.15.13.21.06.45-.33.72-.67.9-.34.28-.38.76-.3 1.2.05.18.2.33.26.5.17.1.05.24.12.36.12.58.56 1.1 1.12 1.3.49.24.7.75.8 1.22.1.21.34.14.5.24-.09.15-.37.09-.53.06-.43.32-.88.63-1.31.92-.28.12-.5.36-.8.44-.53-.1-.81.61-1.36.3-.17 0-.38-.1-.47.1-.15.31-.26.68-.38 1.01.1.11.27.14.43.16.38-.01 1 .15 1.2-.3 0-.13.1-.22.19-.31.12-.02.22.02.3.1.04.1.09.17.07.28.18-.06.07-.3.16-.44.14-.03.1.16.2.17.02-.08-.05-.22.06-.27.14.04.04.22.13.3.07.01.02-.07.06-.1.05-.1-.04-.3.07-.35.16.07.13.24.15.36.09-.03.08-.13.12-.2.06-.08-.05-.18.04-.26.22.04.01.32.18.37.06-.04.07-.12.12-.17.06-.12.06-.27.12-.38.15.03.09.32.25.23 0-.2.12-.35.25-.49.54-.48 1.13-.86 1.72-1.26.1-.13.07-.33.03-.5-.14-.04-.19-.22-.24-.36-.06-.13-.1-.32-.13-.5-.14-.47.13-.87.41-1.2.4-.71.76-1.47.74-2.37-.01-.05-.14-.1-.03-.15.09.05.17.19.23.25.14 0 .33.03.44-.1.04-.09.24-.2.08-.3.15-.12.19-.27.28-.43-.02-.05-.12-.04-.11-.1 0-.02.02-.02.04-.02a.7.7 0 0 0 .3-.64h-.03a.54.54 0 0 1-.26.36c-.16-.08.09-.2.06-.33 0-.36-.06-.77.17-1.06-.2-.02-.27.2-.35.33-.12-.03-.08-.17-.17-.22-.15-.51.57-.53.54-.97h-.04c-.1.1-.29.21-.44.27-.1.04-.15.15-.26.15-.04 0-.04-.07-.04-.1.1-.23.33-.34.56-.38.07-.07.16-.17.12-.27-.03.01-.06.06-.07.1-.3.17-.83.03-1.01.44-.07.03-.07-.05-.1-.06.02-.1.05-.21.13-.3.24-.23.6-.18.89-.27.08-.08.18-.14.12-.28-.48.41-1.1.09-1.67.1-.11-.05-.23.17-.3-.01.22-.19.6-.15.85-.1v.02c.3 0 .6.07.87-.06.22-.1.24-.36.27-.57a.48.48 0 0 0-.21-.28c0-.06.1-.11.15-.17.15-.13.08-.4.06-.55-.02-.07-.08-.15-.14-.15-.39.34-.89.1-1.35.13a.1.1 0 0 1-.15-.06c.4-.26 1 .07 1.37-.25.17-.16.06-.43-.02-.6 0 .01-.03.04-.04.03-.02.13-.13.24-.25.3-.12 0-.28.2-.38-.02.03-.07.1-.03.16-.04.12-.04-.02-.1.02-.14.18-.4-.1-.88.13-1.23.1.07.21-.05.31-.07.01-.06-.03-.1-.07-.14-.07-.04-.18-.09-.26-.03-.47.26-.07.81-.23 1.24-.1.3-.44.24-.69.29-.82.15-.53 1.1-.7 1.69-.04.58-.25 1.2-.04 1.77.18.37.6.44.96.52.32.14.68.48.7.83.06.35.03.68-.02 1.03-.1.12-.2.26-.37.23-.17-.05-.23-.23-.29-.36-.31-1.06-1.3-1.8-2.1-2.53-.45-.4-.77-.98-.56-1.58.08-.14.26-.3.43-.28a.5.5 0 0 1 .3.17c.04.06.04.17.1.17l.02-.2c0-.15-.11-.2-.2-.32l.02-.01c.14-.06.24.07.38.13v-.07c-.02-.12-.09-.26-.23-.23-.26-.05-.38.26-.59.28-.17-.06.02-.19.02-.28.1-.12.12-.33.3-.36.15.09-.05.18-.02.28a.7.7 0 0 1 .44-.04c.08.03.12.11.22.13.1-.19-.12-.23-.18-.35.02-.03.04-.04.07-.03.02 0 .04.01.03.03.11 0 .15.1.24.05a.16.16 0 0 0-.07-.19c-.06-.02-.12-.09-.18-.1-.17-.02-.26.14-.4.18-.06-.04-.1-.07-.1-.15.13-.17.23-.38.4-.54.07-.09.14.03.18.08-.05.09-.2.23-.18.3.07-.01.1 0 .16.08.14-.03.24.03.33.05-.03-.15-.2-.22-.3-.27 0-.03 0-.06.03-.07.06 0 .13 0 .16.04h.15v-.01c.12-.2-.15-.22-.18-.36.17-.08.22.1.36.07.02-.1-.03-.15-.09-.2-.1-.02-.17.02-.24.08-.07 0-.18.04-.2-.04.05-.23.26-.4.37-.64.12.05.16-.08.25-.1.2-.03.37-.03.5.12v-.07c-.06-.08-.1-.23-.22-.25a.18.18 0 0 0-.26.12c-.28-.14.08-.35.03-.56.06-.11-.03-.3.13-.35.23.18 0 .45.03.64.06-.09.12-.02.21-.02.06.01.13.18.2.1v-.05c-.05-.07-.1-.2-.2-.16-.05 0-.13-.06-.1-.12.15-.06.35 0 .47-.1.09-.1.26-.17.2-.33h-.05c.01.1-.1.13-.17.18-.18.02-.36-.01-.48-.15.1-.06.23-.02.35-.03.13-.06.27-.18.25-.33h-.04c-.14.19-.46.11-.61.3-.17-.05-.05-.25-.06-.38.06-.12-.13-.26.04-.3.22.04.11.3.14.44.16-.07.3-.1.43-.23-.06 0-.11.08-.18.07-.36-.14.18-.16.13-.35-.16.03-.3.07-.47.02-.16-.04-.08-.23-.15-.32.02-.07-.05-.17-.05-.24l-.04-.04c-.04-.09.06-.05.09-.1.22.12.17.38.27.58.37.06.33-.59.7-.47-.13-.2.1-.58-.21-.7-.21.07-.4.25-.63.25a.32.32 0 0 1-.13-.12c.22.02.4-.13.55-.29.07-.07.3.05.26-.15a.53.53 0 0 0-.26-.3c-.21-.05-.34.09-.49.19-.05.05 0 .17-.1.18a.82.82 0 0 0-.23-.47c0-.32.16-.67-.13-.9-.07-.03-.09.03-.08.08.36.28-.05.6.13.94.03.09.16.17.1.25-.14 0-.27-.2-.32-.3 0-.24 0-.46.12-.63 0-.05 0-.11-.04-.14-.05.1-.16.18-.17.3-.02.07.06.14 0 .2-.35-.19.02-.5-.06-.8-.04-.06-.07-.17-.16-.15.23.24-.06.52-.02.74.04.06.05.1.05.17-.05.05-.25-.31-.19-.54.07-.25-.05-.44-.16-.42-.03-.02-.24-.04-.22.03.18.03.27.28.24.34 0 .2-.18.15-.18.18.08.17.33.46.35.5-.02.16.05.34-.1.44-.05 0-.1.01-.14-.02.22-.57-.47-.88-.65-1.35-.08-.13-.1-.29-.23-.39h-.03zm.08.24c.07.12.13.25.17.39.16.25.42.47.52.73.03.07-.03.13-.07.16a.2.2 0 0 1-.14-.13v-.1c-.2-.3-.4-.57-.5-.92l.02-.13zm.47.11a.2.2 0 0 0-.09.03c.02.05.09.07.06.15.1.07.17.21.27.27.06-.05.02-.13.03-.2-.05-.12-.15-.25-.27-.25zm-1.27 1.1c.06.07.15-.06.21.02.32.2.22.59.49.8-.07.04-.13-.03-.2-.05-.07.12-.2.14-.33.18-.03-.07-.15.01-.14-.09.1-.04.2-.03.27-.12.02-.08-.03-.13-.07-.18-.08-.01-.12.15-.2.06a.44.44 0 0 1-.04-.33c.01-.02.04-.04.03-.07-.2-.08-.26.4-.48.18.02-.05.08-.04.1-.02.14-.12.18-.33.36-.39zm-1.12 0l.3.01c.06.02.15 0 .17.09l-.03.03c-.31-.04-.58 0-.88.03l-.03-.03c.14-.1.3-.13.47-.13zm-1.01.08c.08 0 .15.05.2.11.04.13-.12.14-.18.2-.06 0-.12 0-.17-.05 0-.07.08-.05.11-.1.04-.07-.09-.12 0-.15h.04zm3.35.32c.05 0 .05.03.08.06-.04.13-.22.29-.06.41.03.01 0 .06.01.08a.29.29 0 0 1-.25-.09c-.07-.06-.1-.16-.05-.24.03-.13.17-.19.27-.22zm2.04.03l.05.01.03.06c-.16.06-.2.26-.37.3h-.17c-.06.1.15.23-.03.3-.06 0-.1-.05-.15-.09-.07-.22-.27-.36-.39-.57.23-.04.36.2.5.33.21-.04.31-.35.53-.34zm-1.4.02c.03 0 .05.02.08.05-.07.07-.16.13-.12.23.06.1.04.23.1.32l.2.4c-.02.03-.06.05-.08.02-.16-.23-.55-.42-.4-.8.03-.09.14-.22.23-.22zm-2.03 0c.05.1.11.21.2.3-.04.06-.11 0-.16-.03-.07-.06-.08-.14-.1-.22l.06-.04zm3.64.41a.1.1 0 0 1 .1.07c0 .09-.1.02-.11.08a.5.5 0 0 1-.45.15c-.02-.02-.03-.05-.05-.05.04-.06.16-.07.24-.1.08-.05.18-.15.27-.15zm-5.95.2c-.14 0-.3.05-.45.05-.05-.02-.16-.09-.2 0-.04.05.02.08.02.12.22.08.47-.03.68.05l.05-.03c.01-.1-.1-.01-.12-.09a.55.55 0 0 1 .25-.05v-.03a.51.51 0 0 0-.16-.03h-.06zm6.06 0c.04 0 .08.01.12.05.05.14-.1.05-.14.12-.1.09-.22.17-.38.14l-.14-.1c.05-.07.23.04.3-.08.08-.02.16-.11.24-.12zm-4.77.18c.05 0 .11.02.13.08.02.05-.04.04-.06.06-.06-.03-.16 0-.2-.1.02-.02.07-.04.13-.04zm3.74.12c.03 0 .05.04.07.07-.04.2-.28.26-.44.35-.04-.02-.03-.06-.03-.09.15-.05.26-.22.38-.32h.02zm-3.8.15c.06 0 .13.04.18.04l.03.06c-.1.05-.21 0-.3-.05a.1.1 0 0 1 .09-.05zm3.9.1c.04-.01.06.03.1.05a.74.74 0 0 1-.52.34c-.02-.01-.03-.04-.02-.07.16-.05.29-.2.41-.32h.02zm-12.62.16c.11.05.02.18.02.28-.13.39-.5.7-.9.77-.05 0-.07-.06-.08-.08a.61.61 0 0 1 .21-.07c.34-.2.61-.56.75-.9zm13.65.01c-.05 0-.1.11-.01.13 0-.04.05-.08.01-.13zm-6.15.06c-.04.11.16.13.15.01h-.15zm5.13.06c.01.03.12.04.09.12-.11.13-.26.16-.38.27l-.09-.03.37-.36zm.1.3l.04.07c-.08.22-.33.28-.47.4-.04.04-.07 0-.1-.02.19-.12.33-.34.53-.45zm-12.3.07c.04 0 .05.03.07.05-.16.44-.52.93-1.04.98-.03-.02-.08-.02-.06-.07.43-.17.85-.53 1.03-.95zm12.3.3s.03.01.04.05c.05.17-.15.23-.24.3-.1.01-.2.13-.28.04.1-.13.29-.16.37-.33.02 0 .06-.05.1-.05zm-11.93.23c.05 0 .05.06.06.09-.08.41-.5.76-.9.89-.08-.01-.15.03-.17-.04.39-.17.8-.53 1-.93h.01zm11.84.2l.03.03c.02.15-.2.21-.32.27-.08.02-.2.07-.28-.01.06-.07.15-.05.2-.1.13-.06.25-.15.37-.2zm-8.45.2l-.68.36a.9.9 0 0 0-.4.25c0 .05.02.13-.03.16.01.54.1 1.02.03 1.55l-.03.05c.02.4-.2.86.18 1.16.07.4.53.48.82.7.07-.01.15.02.16-.08.1-.31.07-.76.03-1.12-.08-.08-.19-.07-.28-.11-.03.05-.08.02-.12.03-.1-.07-.12-.19-.1-.3 0-.08.08-.13.14-.18-.05-.18-.13-.34-.16-.54-.04-.1.01-.25-.05-.35.03-.18.03-.42.22-.48.37.27.43.77.57 1.18.01.1.03.23.1.28.2-.16.4-.28.62-.45.1-.15.3-.27.31-.44-.3-.25-.6-.6-.77-.95-.15-.28-.23-.63-.56-.72zm-2.95.12c.03-.01.05.03.07.04-.13.4-.43.8-.87.9-.1 0-.24.13-.32 0 .07-.05.14-.1.25-.1.34-.22.7-.45.86-.84h.01zm11.28.03c.1.03.03.12 0 .18a1.5 1.5 0 0 1-.56.22c-.03-.01-.09-.04-.08-.08.24-.05.44-.18.64-.32zm-14.93.2l.03.02v.05c-.68.3-1.12.98-1.25 1.7-.03.01-.05-.04-.07-.05.04-.52.22-1.01.58-1.35.21-.15.43-.35.7-.38zM23.14 9h.07c0 .03.03.04.04.06-.13.25-.45.24-.7.3-.05.01-.07-.04-.1-.07.23-.08.47-.15.69-.3zm-10.56.06c.03 0 .04.03.07.06-.12.55-.7.88-1.2.98-.05-.02-.17.04-.18-.06.01-.05.11 0 .15-.04.5-.11.89-.5 1.16-.94zm12.58 0v.14c.06-.02.03-.1.03-.14h-.03zm-10.26.01l.06.06c-.04.24-.33.2-.5.29a.16.16 0 0 1-.1-.13c.04-.02.06-.02.1 0 .17 0 .28-.18.44-.22zm8.86.12c-.12 0-.27.1-.34.17-.02.11-.1.21-.15.3h.01c.09.01.26-.02.32.11.15 0 .04-.18.11-.25l-.15-.16.04-.05c.07-.02.08.05.14.03.07.07.13.15.18.23.02-.08 0-.16 0-.25-.03-.1-.09-.13-.16-.13zm-.75.15c.02 0 .05 0 .06.03 0 .1-.1.16-.18.22a1.5 1.5 0 0 1-.69.08l-.03-.03c.15-.07.38-.05.53-.15.13.02.22-.15.31-.15zm-4 .01c.04 0 .1.02.14 0 .03.06.12.04.16.02.01.03.06.04.04.07-.13.1-.25-.04-.4 0-.02 0-.02-.03-.05-.02.02-.05.05-.07.1-.07zm6.15.04c.02.24.04.52-.01.76.03-.01.05-.07.08-.11-.02-.22.07-.5-.07-.65zm-10.08.07c.17.18.31.4.43.61.02.2.26.33.2.54-.08 0-.11-.08-.17-.12-.14-.3-.3-.66-.48-.98l.02-.05zm3.62.04c.08 0 .17.02.24 0 .01.06.08.02.12.03.02.04.08.06.06.11-.17.07-.4-.01-.57-.05.01-.08.07-.1.15-.1zm-4.3.23c.04.01.1.07.05.12.02.3.03.67.1.98-.04.07-.1-.02-.14-.05.02-.04-.06-.1-.03-.16-.04-.27-.06-.62.01-.89zm4.43.03c.04.03.06.07.03.1-.17.2-.41-.02-.62.09-.02-.02-.1-.03-.08-.08a.6.6 0 0 1 .55-.06c.03-.04.08-.04.12-.05zm3.87 0h.04l.04.04c-.13.27-.46.23-.73.27-.03 0-.06-.05-.09-.07.06-.06.14-.02.21-.05.2-.02.34-.17.52-.2zm-4.4.34c.1 0 .2.01.27.03.01.03.06.05.04.09-.2.07-.5.03-.71.09-.12-.13.1-.1.13-.18.08-.02.18-.03.27-.03zm4.14.03c.02 0 .04.01.04.05.02.15-.16.12-.24.19-.12 0-.28.02-.37-.04.15-.07.34-.11.5-.2h.06zm1.86.29a.7.7 0 0 1 .2.01l.02.05c-.15.06-.34.06-.48.18-.07-.01-.04-.07-.03-.12a.4.4 0 0 1 .3-.12zm-6.21 0a.2.2 0 0 1 .06.01c.1.1.23-.1.27.1-.26.19-.65.07-.89.32-.03-.04-.07-.06-.02-.1.1-.1.23-.27.41-.27.05-.03.1-.05.17-.06zm4.17.06l.01.06c0 .12-.12.16-.24.18-.15.02-.3.05-.45.04l-.07-.07c.07-.07.22-.03.3-.08.18 0 .3-.11.45-.13zm-5.53.1l.05.05c-.1.25-.4.45-.59.66-.03-.02-.07-.03-.05-.08.2-.21.37-.49.6-.63zm-6.7.28c.03 0 .04.03.06.04-.35.36-.41.83-.51 1.29-.14 0-.07-.18-.07-.26.05-.4.14-.84.52-1.07zm11.9.02a.1.1 0 0 1 .1.04c-.12.21-.4.23-.62.26-.08-.03-.15.05-.2-.04v-.02c.24-.08.49-.1.7-.24h.03zm-1.71 0c0 .02.03.03.04.05l-.2.19c-.32.02-.63.04-.87.25l-.1-.05c.03-.16.2-.23.33-.3.27-.02.54-.05.8-.14zm4.28.22l.1.02v.01l.2.01v.02l.21.02c.14 0 .21.1.34.04l.1-.08c.01.03.09.07.04.12-.29.2-.69.05-1 .02a1.8 1.8 0 0 0-.52.04l-.03-.04a.98.98 0 0 1 .56-.18zm-2.72.08c.04 0 .05.03.07.05-.06.2-.32.22-.49.28-.1 0-.21.1-.28-.03.22-.09.47-.17.69-.3h.01zm-5.09 0c.07.03.09.1.04.18-.12.13-.24.27-.39.35-.01-.02-.03-.05-.05-.05.1-.17.28-.33.4-.47zm7.94.35c.06.04.16.04.26.06.06.06.2 0 .27.06.1.06.23-.13.24.04-.2.07-.51.09-.72-.01-.26.02-.56-.05-.8.06-.02-.03-.09-.05-.04-.09.2-.17.52-.1.79-.12zm-3.05.09c.04 0 .07 0 .07.06a.93.93 0 0 1-.51.27c-.05 0-.07-.04-.1-.08.15-.08.3-.12.43-.25h.11zm.62.04h-.03c-.08.07-.2.1-.18.2.1-.03.2-.14.33-.08v-.03a.14.14 0 0 0-.12-.1zm-7.62.18c.05 0 .07.04.1.08 0 .03-.02.04-.03.06-.04-.03-.08-.03-.1-.08v-.06h.03zm9.68.05c.12-.01.24.06.38.03.03.05.11.01.17.03v.01c.17.03.32.03.47-.04.04.03.07.07.03.1-.44.23-.95-.13-1.4.08l-.05-.05c.07-.06.15-.17.28-.13a.23.23 0 0 1 .12-.03zm-9.7.18c.06 0 .11.03.15.07 0 .03-.03.04-.05.06-.05-.01-.15-.1-.12-.13h.03zm10.94.07l.05.05a.57.57 0 0 1-.22.22c-.5.15-.96-.24-1.45-.01l-.04-.05c.17-.16.44-.13.7-.13.3.05.7.19.96-.07zm-10.96.1c.08 0 .1.04.14.1l-.03.06c-.07-.03-.15-.06-.14-.15h.03zm6.92.21c.06 0 .07.04.1.07a.52.52 0 0 1-.39.3l-.03-.05.3-.32h.02zm.17.29l.05.05v.08l-.44.27c-.03 0-.1-.02-.07-.08.16-.09.3-.25.46-.32zm2.77.16c.03 0 .05.04.08.06V13c-.17.04-.4.03-.47.2-.02.07-.06.18-.01.26-.02.02-.06 0-.08.01-.11-.08-.12-.18-.1-.3.12-.17.35-.26.58-.26zm-2.67.06c.04 0 .07.05.1.07-.12.14-.28.32-.48.36l-.05-.04c.12-.12.31-.25.43-.39zm-5.78.28c.13.07-.02.16-.02.25-.07.07-.15.2-.26.22-.01-.02-.06-.05-.04-.1.12-.09.21-.25.32-.37zm.5 0c.28.08.57.14.84.29.21.06.3-.18.47-.24.1.04 0 .11 0 .16-.05.07-.17.12-.13.2.17-.07.33-.18.47-.3l.06.06c-.07.12-.21.22-.25.34.2-.02.36-.2.49-.36.12.04 0 .15-.02.2-.05.1-.21.17-.16.24.15-.07.27-.21.39-.3.08.17-.17.29-.2.41.15-.02.22-.15.34-.2.14.15-.24.2-.12.38-.2-.03-.35-.18-.55-.19-.64-.08-1.07-.5-1.68-.64-.01-.06.05-.02.05-.05zm7.95.39c.11.05.1.22.12.31-.07 0-.11-.08-.16-.12.01-.06-.03-.15.04-.19zm-.28.01c.12 0 .06.16.11.22-.07.07-.14-.04-.17-.08-.01-.06.01-.1.06-.14zm-17.38.08c.02 0 .04 0 .06.04-.12.53-.64.8-1.1.96-.04-.01-.1-.01-.07-.08.4-.14.84-.44 1.01-.85.02-.03.06-.07.1-.07zm9.1.1a7 7 0 0 1 .56.54v.06h-.06l-.5-.51v-.09zm9.02.3h.02c.08.1.14.18.25.24.01.05.1.1.03.14-.15-.06-.23-.18-.34-.3 0-.03 0-.09.04-.08zm-17.77.09l.03.05c-.2.47-.7.8-1.17.9l-.08-.07c.45-.2.9-.5 1.22-.88zm15.93.06l.05.06c-.06.13-.2.22-.3.3-.05 0-.12-.02-.1-.07.14-.07.21-.21.35-.3zm.16.19c.03 0 .06.02.07.05-.04.17-.23.24-.36.36-.03 0-.06 0-.08-.04.1-.1.25-.24.36-.37h.01zm-3.87.15c.04 0 .08.01.1.05-.05.14-.22.2-.34.27-.2 0-.42-.05-.5-.24l.2.04c.17-.06.43.08.54-.12zm4.05.01c.05 0 .05.06.07.09-.01.15-.17.2-.28.3-.12.03-.2.2-.33.14v-.06c.19-.12.4-.26.52-.46h.02zm-16.04.07c.03.02.11.05.07.11-.26.43-.67.76-1.14.8-.02 0-.03-.03-.06-.03.04-.1.16-.1.23-.13.38-.14.65-.46.9-.75zm16.2.18c.04.02.1.05.14.1-.05.13-.21.19-.32.28-.13.05-.25.24-.4.17.1-.15.29-.21.42-.36l.16-.2zm-4.04.04c.03 0 .06 0 .08.04-.12.15-.3.33-.53.26-.1-.02-.13-.13-.2-.18.12-.02.26.1.4.01.1 0 .17-.12.25-.13zm-11.84.18a.1.1 0 0 1 .04.1c-.26.43-.72.76-1.19.83-.02-.02-.07-.05-.03-.08.41-.22.83-.48 1.18-.85zm16.1.01c.03 0 .06.04.08.12-.21.2-.44.37-.7.47-.02-.02-.02-.05-.05-.04.06-.13.23-.13.33-.25.1-.04.24-.32.33-.3zm-6.41.12c.03 0 .07.02.07.06 0 .02-.01.04-.03.03-.04.02-.06-.01-.08-.04 0-.03.01-.05.04-.05zm2.35 0c.03 0 .04.01.06.03a.47.47 0 0 1-.22.27c-.17.04-.35.02-.46-.1v-.05c.14.08.27-.02.41-.02.07-.03.14-.12.21-.13zm4.2.12c.04 0 .07.04.09.08-.02.1-.14.2-.23.25-.14.06-.26.23-.4.18v-.06c.2-.13.34-.27.5-.45h.03zm-6.45.02c.04 0 .1.03.1.07-.03.07-.1.07-.15.02 0-.03 0-.1.05-.1zm2.47.1c.06 0 .1.06.08.12-.05.12-.18.19-.29.24-.14-.03-.25 0-.34-.12v-.05c.04 0 .11 0 .15.05.14-.07.32-.07.4-.23zm-2.34.04c.03 0 .05.04.07.05-.06.12.14.15.01.25.04.04.08-.01.1.05.02.04-.01.07-.04.09-.05.01-.1-.02-.14-.06.09-.07-.13-.16.02-.23-.03-.02-.07.01-.1-.04a.08.08 0 0 1 .07-.1h.01zm-.83.05h.03c.05.1.28.03.17.18-.08-.04-.2-.04-.24-.12-.02-.04 0-.05.04-.06zm-8.75.03l.04.07c-.3.43-.72.75-1.22.84-.02-.02-.06-.04-.05-.07.46-.2.84-.5 1.23-.84zm16.06.03l.07.09v.05c-.24.17-.46.35-.74.42l-.04-.04c.27-.11.45-.38.71-.52zm-19.6.04l.04.04c-.07.09-.2.15-.3.23-.5.46-.58 1.1-.76 1.72-.05 0-.08-.01-.1-.05 0-.38.13-.7.22-1.05.17-.35.5-.83.9-.9zm19.7.22c.03.03.1.09.1.15-.18.15-.4.25-.6.37l-.07-.03c.2-.15.37-.35.57-.5zm-5.1.05c-.13.49-.76.6-.92 1.07-.01.26 0 .5.16.67.06.4.37.74.7 1 .1.42.52.66.71 1.03-.04.1-.01.22-.13.29-.8-.03-1.6-.17-2.38-.3-.25-.03-.6-.07-.86.03a1.6 1.6 0 0 1-.87.38c-.25.23-.33.59-.46.9l.01.06c.38.13.82.12 1.23.12.35.02.3-.39.46-.58.1-.18.32-.17.52-.17.12.1-.04.2.01.31.04.06.07.16.14.14l-.02-.21c.06-.05.06-.15.15-.16.07.05 0 .13 0 .19.04.1.04.2.17.22.04-.02.03-.07.02-.11.04-.08.05-.2.15-.2.08.1-.04.3.12.38-.01-.15.08-.25.15-.35.07.06.08.15.08.24.01.06.07.15.15.15 0-.1-.05-.26.05-.34.1.06.14.21.27.27.04 0 .08.03.1 0v-.1c.18-.17.43.07.66-.01.44.05.87.14 1.3.17.12-.12.1-.3.17-.42-.12-.3-.26-.68-.1-1-.24-.33-.46-.7-.5-1.13-.2-.35-.46-.56-.42-1-.03-.13 0-.3-.03-.4-.22 0-.37-.24-.6-.15-.08-.02-.17-.09-.19-.17a2.1 2.1 0 0 1 .09-.75c.03-.07-.05-.06-.09-.06zm-10.68.1l.04.04v.06a2.3 2.3 0 0 1-1.44.86c-.02-.02-.07-.06-.03-.09.55-.14.98-.55 1.43-.87zm15.86.16c.06-.02.07.08.11.12-.02.08-.26.16-.1.28.03-.01.08-.09.13-.04.04.03.04.13 0 .18-.06 0-.11.07-.12.15v.08c.04 0 .1-.16.18-.06.11.25-.29.2-.2.42.05 0 .1-.09.14 0 .04.17-.3.22-.12.37.05.17-.3.22-.1.37-.05.16-.22.28-.25.46-.19.18-.15.44-.4.6-.1.16-.23.34-.32.52-.29-.16.13-.35.16-.52.01 0 .02 0 .03-.02-.12-.07-.25.03-.37.03l-.06-.05c.23-.11.52-.13.67-.35-.14-.03-.31.14-.42-.02.04-.08.1.02.15-.03.15-.13.42-.1.46-.34-.15-.05-.32.18-.45.02.22-.09.5-.12.62-.35-.16-.09-.3.15-.42 0 .18-.07.38-.17.49-.33l-.03-.03c-.13.06-.3.18-.43.09.18-.12.46-.18.51-.4-.12 0-.25.07-.37.13l-.07-.06c.16-.14.4-.2.47-.42l-.05-.04c-.16.06-.29.18-.47.19l-.05-.04c.19-.1.36-.24.52-.37l.01-.13c-.18-.01-.34.28-.5.1.23-.17.44-.29.65-.52zm-5.65.83c.06 0 .12.03.13.1-.05.05-.01.15-.09.2-.16-.06-.01-.17-.06-.3h.02zm1.17.48a.2.2 0 0 1 .06.15c-.16.11-.3.27-.48.33-.03-.01-.06-.06-.02-.1.15-.14.31-.23.44-.38zm1.05.06c.05-.01.12.04.14.1.01.11-.02.22-.09.28-.12-.06 0-.23-.1-.3 0-.05.01-.08.05-.08zm-14.67.06l.04.07c-.5.4-.65.99-.64 1.6-.14-.12-.04-.36-.1-.51 0-.22.09-.44.16-.63.1-.22.28-.47.54-.53zm13.61.2c.06 0 .09.04.13.07v.05l-.43.3-.11-.03c.1-.12.29-.24.4-.38h.01zm.13.24c.04 0 .06.04.09.06 0 .16-.16.16-.24.27l-.43.24c-.02-.03-.06-.03-.04-.1.23-.1.42-.28.62-.47zm.11.27c.04 0 .07.03.1.06v.06c-.2.21-.41.3-.67.39-.04-.02-.04-.08-.02-.1.22-.09.39-.26.56-.4h.03zm.13.24c.05 0 .09.04.1.09-.07.15-.26.23-.4.32-.11.01-.25.23-.33.07.22-.14.43-.36.63-.48zm.12.3l.06.06c-.03.16-.15.2-.27.28-.12 0-.26.22-.34.03.2-.13.35-.26.55-.37zm.05.28c.04 0 .08.06.12.09-.1.14-.29.22-.44.28-.03 0-.1-.01-.08-.07.17-.07.25-.22.4-.3zm.14.24l.05.06c.01.16-.18.2-.27.28-.07 0-.15.12-.2.02v-.05c.14-.08.26-.25.42-.3zm.1.21c.04.01.08.05.1.09v.07c-.19.13-.39.27-.6.3l-.05-.04c.19-.1.31-.26.5-.35l.05-.07zm2.77.28c.2.03-.01.2.08.33.03.27.1.54.25.76-.03.07-.1.03-.15.01a.55.55 0 0 1-.16-.33 1.12 1.12 0 0 1-.02-.77zm-2.76.06c.02 0 .05.01.06.05-.02.07-.11.12-.15.07-.02 0-.02-.03-.02-.04l.11-.08zm-.75.11h.03c.04.1.14.17.21.24.07-.01.1.05.15.1l-.03.03a1.33 1.33 0 0 1-.45-.25c-.04-.08.03-.12.1-.12zm-17.04.15c.04 0 .05.04.07.07a1.2 1.2 0 0 1-.55.68c-.22.05-.46.22-.66.05.07-.04.23.04.3-.08.37-.07.64-.4.81-.71h.02zm13.93.13c.02 0 .04.03.07.1.01.08-.05.13-.12.16-.06.02-.11 0-.14-.06.1.02.14-.2.2-.2zm-1.26.02c.08.1.1 0 .2.04.01.04.04.04.03.08-.06.03-.05.12-.12.1-.02-.16-.14.06-.18-.08 0-.05.01-.11.07-.14zm.37.02c.1.05.04.13 0 .21l-.03.04c-.06-.04-.12-.1-.05-.18l.08-.07zm2.23.04c.09 0 .18.02.26 0 .02.1.12 0 .19.05.2-.01.3.12.5.07.09.05.19.04.29.06v.02c.07.04.23-.04.25.07-.12.04-.31 0-.45-.02-.32-.06-.68-.09-1-.15-.07.02-.18.06-.23-.02l-.02-.02c.05-.05.13-.06.21-.06zm-2.07.05c.04-.01.04.04.06.06 0 .05 0 .1-.04.1s-.08 0-.08-.04c0-.05 0-.1.05-.12h.01zm.14.06c.03 0 .06.02.07.05v.05c-.06.03-.11-.02-.11-.08l.04-.02zm-12.95.16l.03.06c-.2.35-.39.7-.79.84-.16.02-.4.1-.53-.02.13-.11.36-.07.52-.16.3-.16.57-.49.77-.72zm10.3.08a10.41 10.41 0 0 1-2.24 4.56 12.3 12.3 0 0 1-3.54 2.96c1.54.82 4.32 2 4.73 2.24.4.24.9.56 1.22.8.97-.83 2.21-1.35 3.37-1.88.86-.4 1.76-.73 2.62-1.15a16.2 16.2 0 0 1-3.09-2.4 12.57 12.57 0 0 1-3.06-5.13zm-9.97.45c.15.07-.03.18-.03.27-.25.41-.66.77-1.16.7-.02-.04-.07-.06-.06-.1.52-.02.98-.4 1.25-.87zm20.15.21c.05 0 .05.03.07.05-.59.63-1.4 1.04-2.11 1.54-.09 0-.18.12-.25.01.6-.38 1.2-.8 1.78-1.24l.5-.35h.01zm-19.78.38l.06.06c-.1.41-.53.78-.92.91-.13.03-.3.08-.39-.04.13-.03.25-.07.37-.14.17-.07.33-.17.47-.3.16-.11.31-.32.4-.49zm.37.6l.03.03c-.14.41-.5.76-.92.87-.16 0-.36.02-.46-.07.16-.02.3-.07.46-.11.35-.11.64-.45.9-.72zm.4.4c.03 0 .03.05.05.07-.2.48-.7.79-1.16.88-.07-.01-.22.04-.24-.08a2.03 2.03 0 0 0 1.32-.86h.02zm13.94.54c.07-.02.12.07.04.14-.03.06-.11.06-.15 0-.04-.04.02-.07.04-.1a.08.08 0 0 1 .07-.04zm.21.1c.03 0 .04.02.06.05-.01.06-.02.11-.08.14-.04-.02-.1-.04-.08-.11.02-.05.07-.08.1-.08zm.18.05c.03 0 .06.02.07.07-.01.06-.02.12-.08.16-.06-.05-.06-.08-.06-.15 0-.04.03-.07.07-.08zm.2.1c.02 0 .03.03.05.04-.02.06 0 .13-.07.16-.04.02-.08-.03-.09-.07 0-.06.06-.1.1-.13zm-5.6.82c.27 0 .2.62.51.23a.83.83 0 0 1 .62.07c.24.08.4.23.62.38.27.24.5.59.36.99.14.09.44.03.42.28.02.13-.13.22-.21.3a.8.8 0 0 1 .33.61c.02.43-.12.8-.33 1.13-.16.2-.39.23-.63.25-.02.07.03.11.06.17 0 .14.07.36-.1.44a.57.57 0 0 1-.45-.12c-.06.13-.04.3-.16.4-.3.35-.8.26-1.22.32-.4-.02-.9-.15-1.05-.56 0-.02 0-.05-.03-.07-.13.03-.25.14-.41.07-.08-.05-.1-.16-.1-.27 0-.1.19-.2 0-.25-.39.01-.62-.48-.76-.76-.1-.3-.2-.68-.03-.96l.2-.2c-.12-.13-.29-.27-.24-.48.09-.25.6-.02.42-.32-.03-.13-.03-.32.06-.45.22-.53.8-.99 1.43-.97.07.1.2.05.27.15.08-.03.15-.17.2-.25.05-.08.13-.07.18-.13h.03z"/><path fill="#009136" d="M13.26 10.26c-.71.73-2.28.57-2.6 1.76-.22 1.19.18 2.52-.51 3.61-.64 1.22-2.05 1.63-3.1 2.4-.94 1.1-.43 2.66-.87 3.95a3.86 3.86 0 0 1-3.4 2.79c1.06 1.56 2.8 2.49 4.44 3.33.8-.27 1.54-.83 2.19-1.4a11.8 11.8 0 0 0 3.3-4.44c.75-1.88.5-3.92.55-5.9zM3.11 15.55c.65-1.04 2-1.12 2.86-1.89.77-.98.12-2.3.35-3.44.12-1.35 1.32-2.36 2.58-2.66 1.41-.21 1.47-1.65 1.3-2.78-.14-1.68 1.28-3.15 2.9-3.37 0-.46-1.51-.96-2.22-.93C8.6.54 6.76 2.07 4.68 2.8c-1.13.56-2.5.76-3.67.21.44 1.3.13 2.7.18 4.04-.01 4.43-.02 8.84.02 13.26 1.21.04 1.13-1.33 1.12-2.18.03-.9.14-1.89.78-2.58z"/><path fill="#fcef3c" d="M13.52 24.58c-.13 0-.1.18-.18.23.03.11.04.26.12.36.15-.04.14-.23.18-.36-.03-.08-.05-.17-.12-.23zM12.5 25.7l-.07.08.21.3.14.2.1.07.06-.02.01-.07-.25-.32-.13-.18-.07-.06zm1.96.03l-.04.13-.2.27-.13.2.09.02.13-.15.29-.38-.14-.1zm1.14.52c-.15.01-.19.13-.25.24l.13.07c.2.07.27-.12.42-.18.02-.18-.21-.09-.3-.13zm-2.08.03c-.01 0-.02 0-.03.03.06.03.1.1.17.07v-.09c-.05.03-.1-.01-.14 0zm-.16.01c-.08.02-.19.1-.26.05-.18.18-.47.36-.4.67.01-.02.05-.01.07-.04.13-.07-.01-.15.02-.26.02-.01.03-.06.07-.04.06.02.03.07.06.11.04-.08.22-.12.16-.22-.07-.03-.07-.12 0-.16.12-.03.08.12.15.16.07-.06.16-.1.2-.15 0-.1-.03-.12-.07-.12zm-2.05.06a.58.58 0 0 0-.24.08c-.03.1.07.15.11.2a.7.7 0 0 0 .54.04c.03-.12-.09-.19-.15-.26-.05-.05-.15.03-.17-.06h-.09zm2.55.04h-.03c-.02.09-.13.07-.1.16.08.06.15.04.23 0 .03.03.1.01.07.09.01.03 0 .07-.04.06-.02.05.04.04.04.08.1.01.15.1.25.07a.77.77 0 0 0-.29-.38c-.08.03-.07-.08-.13-.08zm-.3.19c-.07 0-.15.05-.22.07-.01.1.11.06.13.15l.15-.1c.01 0 .06 0 .04-.03-.02-.07-.06-.1-.1-.1zm-.37.16c-.03.11-.18.07-.15.21.12.16.19.02.28-.05.07-.1-.07-.05-.06-.15-.02 0-.06.02-.07-.01zm.64.06c-.08 0-.16.06-.21.09.05.01.1.1.17.12.07-.02.16-.05.2-.12-.02-.02-.08 0-.08-.06a.12.12 0 0 0-.08-.03zm-.36.17c-.06.08-.16.11-.19.2l.18.1.2-.15c-.02-.07-.12-.08-.2-.15zm.72.02c-.08 0-.16.1-.25.1l.12.13c.06.04.12.02.12-.05l.02.01c.04 0 .09 0 .12-.03.04-.07-.09-.08-.07-.16h-.06zm-1.26.06c-.05 0-.1.02-.13.07.06.05.03.19.14.17 0-.06.12-.06.1-.15a.14.14 0 0 0-.1-.09zm.9.19c-.07 0-.14.06-.21.08-.04.1.08.11.14.13.05-.04.16-.08.2-.15a.14.14 0 0 0-.13-.06zm.68.05l-.03.06.06.07.57.15.04-.12-.31-.09-.26-.06-.07-.01zm-1.83 0c-.04.09.07.17.09.24a.11.11 0 0 0 .05-.1c-.04-.06-.04-.16-.14-.14zm.47 0a.12.12 0 0 0-.1.09c-.08.1.08.08.1.15.12.04.1-.11.17-.15a.22.22 0 0 0-.17-.08zm1.1.09c-.02.06-.1.02-.16.03-.02.1-.18.04-.15.16.07 0 .15.08.19.08.03-.08.16-.18.13-.28zm-1.77.01l-.08.05-.1.03-.07.02-.04.03-.08.03-.2.07.07.12.59-.21.04-.08-.04-.04-.09-.02zm.99.08c-.04.08-.15.12-.13.2.1.08.18 0 .27-.05.02-.08-.1-.11-.14-.15zm-.55.1c-.02 0-.04.01-.06.05-.03.07.05.06.06.12.04.04.13.04.14-.02.02-.02.03-.06 0-.07-.04-.02-.1-.08-.14-.08zm.92.07h-.04c0 .1-.16.06-.1.18.13.2.23-.08.35-.1-.08 0-.13-.09-.21-.08zm-.63.13c-.04 0-.07.04-.09.09.09.01.17.1.25.06.04-.12-.12-.08-.15-.15zm.25.3l-.06.05-.01.75h.14v-.6l.02-.14-.1-.07zm1.32.56a.12.12 0 0 0-.1.06c-.01.11.1.17.12.25.02.04.1-.01.09.07.1-.03.1.11.2.04.06-.16-.1-.18-.09-.31-.05-.06-.14-.11-.22-.1zm-2.51.06c-.17.08-.37.18-.35.42l.13.01a.44.44 0 0 0 .3-.34c.03-.07-.05-.07-.08-.1z"/></svg>