<svg version="1.1" xmlns="http://www.w3.org/2000/svg" viewBox="0 0 29 32"><path fill="#f4f0e8" stroke="#000" stroke-width=".32" stroke-miterlimit="4" stroke-linecap="butt" stroke-linejoin="miter" d="M.64.64h27.52c.32 1.18.38 2.94.32 3.84A40.37 40.37 0 0 1 25.6 17.6a34.25 34.25 0 0 1-11.2 13.76A33.16 33.16 0 0 1 3.23 17.57 37.16 37.16 0 0 1 .33 4.48C.28 3.42.36 1.89.63.64z"/><path fill="#ffd200" d="M1.61 9.06l1.06-.93.45.55h1.5l.68.63-.02 1.55.6.64-.85.98-.57-.57-1.36-.07-.54.57-.82-.82.41-.66.05-1.22zm6.02-7.09L9.1 3.24l.6-.7.8.7-3.58 4.11-.66-.63 2.9-3.53L6.9 5.9 5.46 4.55l1-1.23.65.64-.44.56.18.2 1.13-1.4-.2-.16-.42.5-.63-.61z"/><path fill="#f4f0e8" d="M4.41 10.86l-1.2.02-.02-1.22 1.22-.01z"/><path fill="#dc281e" d="M13.95 19.85c.09-.15.5-.66 1.45-.85l1.11-.21c.1-.83.1-2.32-1.42-2.15a6.58 6.58 0 0 0-2.5 1.52c-.4.58-.93.83-1.35.36-.11.68.18.94.77.9-.43.44-.86.22-1.03-.04-.19.58.15.98.7.97-.16.35-.42.64-1.18.75l-.1.01c-.88.1-1.18-.45-1.15-.94.01-.38-.25-.51-.6-.4-.05.37-.28.49-.48.46-.16.48.12.7.44.66.31-.03.38.2.36.45-.19.13-.32.14-.49-.12-.16-.26-.55-.22-.7.07.16.23.17.56-.1.76.21.46.56.27.74.07.19-.2.42-.24.55-.09-.04.23-.18.35-.42.35-.23 0-.33.32-.26.57.24 0 .47.22.36.51.44.06.53-.22.56-.6.02-.26.66-.33.78-.35.1 0 .15-.01.17.04l.02.07c.02.13 0 .61.25.61.26 0 .52-.25.84-.71.29.26.43.65.25.94.38-.23.7-.84.62-1.35.21.19.38.5.29.77.3-.38.68-.83.51-1.24.47-.3.9-.65 1.15-1 .28-.41-.35-.4-.13-.8zm-1.75-5.29c-.5.25-.2-.24-.14-.8 1.6 0-.4-.48-.69-.83-.13 0-2.01 1.1-2.75 1.18a3.74 3.74 0 0 1-2.06-.48c-.43-.24-.56-.5-.6-.94-.04-.43-.44-.36-.52-.26.03.47-.1.56-.46.66-.05.3.19.61.47.6.28-.03.37.16.42.4-.1.2-.24.33-.44.1s-.51-.19-.62.13c.2.23.27.66.12.9.15.29.44.35.63.1.19-.25.42-.27.58-.04.01.41-.14.5-.28.52-.15.03-.3.26-.17.54.22-.11.54.14.5.47.2.05.5.02.43-.54s.29-.68.47-.7c.18 0 .31.03.3.15-.02.15 0 .67.22.68.1 0 .3-.09.5-.25.26-.19.55-.44.92-.44.1.56-.06.92-.34 1.07.55.08 1.06-.26 1.19-1.01.19.4.18.96-.23 1.22.6.02.94-.32 1-1.14.23.42.29.89 0 1.2.54-.03.82-.41.83-1.1l.25.03c.37-.26.59-.98.47-1.41z"/><path fill="#0039a6" d="M4.85 15.13c-.18-.19-.47-.18-.72.07-.12-.33.2-.8.66-.88.22.22.26.61.06.81z"/><path fill="#dc281e" d="M8.49 9.54c-.96-.73-1.33-1.67-1.06-2.11.02-.19-.16-.19-.43-.3-.81.83-1.3 1.66-1.71 2.04.19.28.7.97.88.67.19-.3.55-.1.61-.03.07.07.14.18.13.24 0 .07-.11.39.07.64.17.24.5.1.61.12.12.02.29.11.5.31-.05.36-.26.57-.58.57.26.52.77.49 1.08-.05.07.48-.12.8-.45.9.44.34.92.16 1.06-.29.05.44-.13.76-.52.88.48.37.96.2 1.09-.34l.35.3c.54.1 1.41.2 1.7 0-.27-.31-.92-1.47-.74-1.68.08.4.51.6.73.36.1-.1.16-.4.2-.53-1.05-.76-2.9-1.23-3.52-1.7z"/><path fill="#0039a6" d="M6.28 16.8c-.26 0-.46.21-.46.57-.32-.15-.43-.7-.16-1.1.31 0 .62.25.62.54zM5 13.1c-.05-.26-.3-.4-.65-.32.07-.35.59-.59 1.03-.41.07.3-.1.66-.37.73zm3.1 7.23c.03-.26-.16-.48-.51-.52.18-.3.75-.35 1.1-.04-.03.3-.31.59-.6.56zM7.65 22a.5.5 0 0 0-.7-.22c-.02-.36.43-.7.9-.64.14.28.05.74-.2.87zm1.22 1.46c-.27-.04-.55.17-.6.52-.3-.19-.33-.76 0-1.1.3.04.63.3.6.58zm1.76-.26c-.27-.03-.48.36-.5.71-.31-.17-.3-.75 0-1.12.32.02.51.12.5.4zm2.89 1.69c-.05-.26-.3-.41-.64-.34.07-.34.6-.57 1.04-.38.06.3-.12.66-.4.72zm.13 1.84c-.18-.2-.48-.27-.73-.01-.12-.33.2-.8.67-.9.21.23.26.7.06.9zm1.56 1.09c-.27 0-.43.26-.42.61-.32-.13-.46-.68-.2-1.08.3-.01.6.18.62.47zM7.88 16.3c-.27.03-.31.42-.26.77-.34-.1-.47-.55-.24-.97.24.03.5-.07.5.2z"/><path fill="#f4f0e8" opacity=".99" d="M12.76 5.03l-.12-.28.24-.01c.03.2.07.33.26.47-.15.07-.3-.03-.38-.18z"/><path fill="#0039a6" d="M5.57 8.98c-.11.15-.37.13-.59-.04s-.3-.42-.19-.56c.1-.15.37-.13.58.04s.3.42.2.56zM6 8.44c-.12.14-.4.12-.62-.05s-.32-.42-.2-.56.39-.12.61.04.32.42.2.56zm.39-.54c-.11.13-.4.11-.62-.05s-.31-.42-.2-.56.4-.13.62.04.31.42.2.56zm.51-.5c-.1.14-.38.12-.61-.04s-.32-.42-.2-.56.39-.13.62.04.31.42.2.56z"/><path fill="#dc281e" d="M21.54 20.6c.92-.42 1.72-1.47 1.5-3.24.92-.29 1.75-.43 1.12-1.93.59-.7.69-1.36-.08-1.97.72-1-.13-1.34-.8-1.77 2.11-2.6 1.8-6.83 4.17-9.11-.83.16-1.79.59-2.15 1.62.12-1.37-.48-2.27-1.02-2.66a6 6 0 0 1 0 2.73 3.76 3.76 0 0 0-1.95-1.98c1.71 2.83 1.91 6.56-.16 8.55-2.44-2.9-1.8-5.79-.3-8.51-.68.05-1.44 1.17-1.79 1.82.36-.66.32-1.85.29-2.43-.39.7-1.07 1.6-1.08 2.76-.61-1.01-1.3-1.52-1.91-1.65.61 1.1 1.51 2.06 1.58 3.71.1 2.89 1.07 3.65 2.1 5.18-1 .12-1.04.76-.97 1.46-.74.39-1.12 1.16-.35 1.77-.86 1.73 1.18 2.07 1.72 2.45 1.11 1.27.07 3.1-3.63.6-1.93-1.07-1.09-4.11-1.28-5.73-1.03-.28-2.62-.6-3.18-1.13-.54.09-1.44.94-1.97.97-.12 4.23 3.1 6.8 4.13 8.51l.24.7c.08.37-.38.92-.8.86.23.4.76.62 1.15.34-.13.4-.35.62-.85.57.56.56 1.25.55 1.53.04.19.1.37.16.5.2.13.38-.1 1.2-1.05 1.63-.9.41-1.35-.03-1.5-.57-.1-.37-.43-.42-.77-.18.06.38-.21.7-.44.74-.01.53.42.52.76.38s.48.03.53.32c-.16.2-.3.24-.56.04-.26-.2-.67-.03-.74.32.24.17.37.49.14.79.38.38.72.08.83-.2.1-.28.37-.37.56-.27.04.25-.1.37-.34.5-.22.1-.26.42-.1.64.26-.09.59.06.56.39.5-.1.5-.4.41-.79-.06-.27.61-.56.74-.61.1-.04.15-.07.2-.03.05.08.12.53.35.5.29-.02.9-.6 1.05-1.01.25.4.22.85.1 1.17.34-.25.96-1.06.7-1.64.3.3.54.83.35 1.24.3-.33.81-1.18.41-1.92.23-.56.36-2.03.13-2.17-.14-.08-.4-.06-.6-.24a8.3 8.3 0 0 1-.9-2.43c1.23.5 2.35 1.02 3.42.66z"/><path fill="#f4f0e8" d="M22.1 12.54c-1.04.39-1.86 3.61-.05 3.8 1.8-.1 1.37-3.3.06-3.8z"/><path fill="#dc281e" d="M17.07 9.9c.3-1.28-.16-1.85-.82-2.28.98.25 1.27-.69 1.15-1.28-.47.67-1.07.27-1.01-.24a.77.77 0 0 0 .37-.65.7.7 0 0 0-.74-.72.38.38 0 0 0-.08-.1H12.4a1.1 1.1 0 0 0-.28.38 4.35 4.35 0 0 0-1.29.07c-.18.1-.16.36-.04.5a.31.31 0 0 0-.1.17c-.02.07-.05.57-.04.68.02.1.05.42.35.4.22-.02.74-.12.84-.16.05-.03.1-.08.12-.14.24-.02.95-.04 1.16.09.21.12.31.3.31.73s-.05.7-.35.78-1.25.08-1.56-.02c-.08-.02-.24-.06-.33.04-.08.1-.01.2-.05.32a.56.56 0 0 1-.25.35c.11.14.31.23.52.2.06.14.23.22.57.02-.32.24-.35.67-.7.9-.36.22-.91-.06-.94-.52-.3.21-.42.75-.09 1.14.33.39.79.36.96.23-.24.5-1.01.83-1.46.5-.12.57.36 1.22 1.03 1 .12.63 1 .6 1.48.2s.66-.9.8-1.28c-.09.95.2 1.4.44 1.56.23.16.59.26.9.03.26.34.92.58 1.26.03.25.17.72.33 1.15.27.45-.06.87-.38.96-1.23.29-.24.5-.66.58-1.32-.75.88-1.56.64-1.27-.65z"/><path fill="#1b1a1c" d="M11.08 6.12c0-.04.03-.07.07-.07.04 0 .07.03.07.07a.07.07 0 1 1-.13 0m.18.34c0-.04.03-.07.06-.07.04 0 .07.03.07.07 0 .04-.03.07-.07.07a.07.07 0 0 1-.06-.07m.25-.28c0-.04.03-.07.06-.07.04 0 .07.03.07.07 0 .04-.03.07-.07.07-.03 0-.06-.03-.06-.07"/><path fill="#000" d="M13.24 5c-.02.23.21.47.4.1"/><path fill="#0039a6" d="M16.72 2.56a.46.46 0 0 0-.39-.23c-.2 0-.36.13-.43.32a.43.43 0 0 0-.3-.14c-.25 0-.45.22-.45.5 0 .22.13.4.31.47 0 .17-.08.32-.2.41h-.52a.53.53 0 0 1-.2-.39l.05.02c.25 0 .45-.23.45-.5s-.2-.49-.43-.5c-.05-.23-.23-.4-.44-.4s-.4.17-.45.4c-.24.02-.42.23-.42.5s.2.5.44.5l.05-.02a.54.54 0 0 1-.2.4h-.52a.53.53 0 0 1-.2-.42.5.5 0 0 0 .32-.47c0-.28-.2-.5-.45-.5a.42.42 0 0 0-.3.14.47.47 0 0 0-.44-.32c-.15 0-.3.08-.39.23l-.04.07c.4.33.82 1.21.9 1.92h3.4c.08-.7.5-1.59.9-1.92l-.05-.07m-6.48 5.22c.34.2.66.08 1.1-.1.19-.07.4-.15.66-.22.76-.22 1 .09 1.23.53.12-.12.15-.33.15-.62-.66-.57-1.28-.38-1.77-.22l-.14.04c-.36.11-.72.07-.89-.1-.16-.14-.35-.28-.59-.16-.09.04-.15.14-.15.26-.01.21.14.43.4.6m7.01 18.96c-.24.12-.2.48-.03.8-.36.01-.65-.45-.59-.93.28-.13.49-.12.62.13z"/><path fill="#f4f0e8" d="M12.6 5.05l.3.01c.02.22.05.29.11.43-.21-.07-.3-.25-.42-.44z"/></svg>