<svg version="1.1" xmlns="http://www.w3.org/2000/svg" viewBox="0 0 28 32"><path fill="#fff" d="M.38.38h26.77v19.13c0 5.73-6.37 12.1-13.38 12.1S.38 25.25.38 19.52z"/><path fill="#da121a" d="M.45 16.2h26.64l.08 2.42c.15 6.8-5.98 12.52-13.4 13.05C5.31 31.47.1 24 .4 19.14z"/><path fill="#fff" d="M9.7 18.24l1.11-.52.44.81a6.57 6.57 0 0 1 4.79.08l.53-.95 1 .58-.55.88c1.1.94 2.13 2.5 2.36 4.15h1.08v1.2h-1.08a5.87 5.87 0 0 1-2.3 4.14l.58 1.03-1.06.55-.54-1c-1.57.65-3.13.54-4.84.02l-.64 1.07-.95-.58.57-.95a6.61 6.61 0 0 1-2.36-4.27H6.7v-1.21h1.15c.27-1.87.99-3.27 2.33-4.24z"/><path fill="#da121a" d="M14.7 23.89a1.04 1.04 0 1 1-2.09 0 1.04 1.04 0 0 1 2.1 0zm-2.75-4.15a4.74 4.74 0 0 1 3.37.07l-1.06 1.87a2.7 2.7 0 0 0-1.23-.07zm-.06 8.36c1.02.37 2.4.34 3.48-.04l-1.05-1.79a5.1 5.1 0 0 1-1.4.03zm4.46-7.78a5.1 5.1 0 0 1 1.63 2.95h-2.1c-.11-.31-.4-.87-.61-1.11zm-5.48-.1a5.43 5.43 0 0 0-1.7 3.05h2.24c.1-.31.3-.94.51-1.18zm5.54 7.3a5.27 5.27 0 0 0 1.57-3.04h-2.04c-.11.3-.33.98-.55 1.23zm-5.51-.03a5.38 5.38 0 0 1-1.72-3.01h2.17c.1.3.44.91.66 1.15zm.4-23.96c.75-.46 3-.27 4.5-.08.27 0 1.62 3.13 1.43 5.19-.03 1.9-.77 3.48-1.35 5.12-.07.32.93 1.11 1.4 2.43h-5.36c-.17-.13-.46-.55-.76-.98-.45.07-.89.28-1.38-.34-.39-.7.12-1.03.3-1.5a8.55 8.55 0 0 0-2.6.12c-1.03-.06.3.63-.29.91l-.64-.05c-.4.06-.03-.79-.27-.77-.38-.01-.55.01-.82.12-.33.15-.17.45-.12.69.54-.54.8.97.04.89-.46-.05-.7-.05-.98-.19-.68-.44.07-.7.25-.92.15-.43-.44-.46-.5-.27-.19.5-.62.7-.94.5-.5-.38-.42-.82-.35-1.16.16-.52.56-.39.99-.16.35.2 1.34-.09.54-.53-.43-.3-.7-.6-.04-1.09.42-.12.9-.17.88.73.37.39-.3.45-.46.67l1.26-.64c.47-.28 1.61-.53 1.67-.83l.16-1.1c-.1-.63-.76-1.2-1.14-1.79-.2.38-.66.76-1 .3-.46-.7.64-.69.55-.87-.49-.7-.31-.44-1.13-.37.01.4-.6.78-.86.5-.23-.3-.25-.89 0-1.19.22-.19.61.13.8-.03.33-.32.19-.62-.07-.72-.49-.15-.9-.26-.88-.88.1-.5.77-1.02 1.45-.35.17.2.35.45.17.87-.08.19.34.96.53.88.1-.25 0-.76.42-.6-.4-.15-.87-.96.07-1.05.82.01.78.64.59.9-.36.57-.3 1.4-.02 1.64.88.78 1.76 1.4 2.64 1.87.56.24 2.75-.13 2.94-1.67l-.87.07c-.41.04-.4-.37-.39-.6.2-.12.16-.41.24-.63.11.18.15.43.35.52l.07-.55c.21.08.27.32.4.48.58-.3.87-.72.9-1.12-.04-.7-.48-.84-.93-.83-.21.04-.39.46-.58.5-.17-.03-.01-.33.02-.53-.15.1-.3.3-.45.54-.04-.12-.13-.28-.04-.57-.84.05-.52-1.35-.35-1.48z"/><path fill="#da121a" d="M19.93 14.19c-.58.39-1.13-.13-.8-.73s1.11-.39 1.3.12.17 1.13-.57 1.5c-.88.32-1.9-.1-2.4-1.1s-.51-2.2.24-3.19c.75-1 2.17-1.53 3.71-1.48 1.26.08 2.51.19 3.77 2.59a4.82 4.82 0 0 1-.96 4.29h-.89c.97-1 1.44-1.93 1.3-3.56-.18-.97-.87-2.04-2.45-2.57a4.46 4.46 0 0 0-3.76.78c-.88.85-.89 2-.57 2.8.47.95 1.5 1.43 2.08.54z"/><path fill="#da121a" d="M21.16 16.2h.9c.28-.74.38-1.55-.04-2.72-.38-1.28-1.56-2.95-2.23-4.52-.43-1.65-.12-3.05.89-3.73s2.76-.58 3.27.11c1.06 1.58-.25 2.62-1.08 2.62.66-.27 1.3-.72.38-1.4-.57-.39-1.73.62-1.02 1.57.59.62 1.61.74 2.59-.82.5-.92.13-2.34-.85-2.97a3.78 3.78 0 0 0-3.5.16c-.84.51-1.5 1.27-1.5 3.47.02 1.47.93 2.77 1.73 4.1.48 1.03 1.2 2.72.46 4.12z"/><path fill="#0f47af" d="M3.43 4.29C4.02 4 4.87 3.96 5 4.54c-.38.06-.65.17-.76.37.08-.41-.36-.38-.82-.62z"/><path fill="#da121a" d="M10.11 4.47c.06.66.06 1.33.78 1.38.74.03 1.6-.03 2.32.2.22.08.09.42-.09.35-.76-.28-1.38-.12-2.01-.06s-1.2.48-1.74.43c-.54-.04-.64-.47-.63-1.19s1.31-1.44 1.37-1.11z"/><path fill="#0f47af" d="M11.93 3.33c1.44-.15 2.6-.07 3.8.08.1-.76.38-1.6.65-2.42-.41.12-.88.07-1.3.47-.2.27.08.65.22.96.16.51-1.58.48-1.03-.01.82-.67-.06-.68-.4-1.38-.27.63-1.18.9-.49 1.27.76.47-1.37.62-.99.19.35-.32.56-.66.25-1.04-.28-.25-.8-.27-1.21-.35.2.76.45 1.53.5 2.23zm-5.9.87c.65.02 1.31.3 1.17.87-.36-.15-.64-.1-.82.03.25-.33-.05-.46-.35-.9zM3.25 6.88c.05.66.4 1.28.97 1.12-.13-.36-.22-.57-.1-.76-.32.27-.4-.18-.87-.36zm1.47 1.79c.36.62.93.75 1.34.32-.3-.14-.45-.23-.45-.46-.13.4-.36.15-.89.14zm1.47 6.47c.65-.01 1.1-.2 1.1-.79-.25.11-.51.02-.71.03.25.33 0 .45-.39.76zm-2.25.73c.67 0 1.3 0 1.29-.59-.38.03-.57-.06-.82-.18.17.38.02.44-.47.77zm-.9-4.5c.53-.37 1.37-.53 1.6.01-.36.12-.62.27-.7.48.02-.41-.41-.31-.9-.49zM2 14.57c-.02-.66.33-1.38.86-1.34-.1.36-.09.67.05.85-.34-.24-.5.17-.92.49z"/><path fill="none" stroke="#000" stroke-width=".38" stroke-miterlimit="4" stroke-linecap="butt" stroke-linejoin="miter" d="M.38.38h26.77v19.13c0 5.73-6.37 12.1-13.38 12.1S.38 25.25.38 19.52z"/></svg>