<svg version="1.1" xmlns="http://www.w3.org/2000/svg" viewBox="0 0 26 32"><path fill="#fff" stroke="#000" stroke-width=".3" stroke-miterlimit="4" stroke-linecap="butt" stroke-linejoin="miter" d="M.33.35L.3 14.29c0 6 6.9 13.5 12.64 17.38 5.67-3.87 12.58-11.38 12.58-17.38L25.55.35z"/><path fill="#da121a" stroke="#000" stroke-width=".3" stroke-miterlimit="4" stroke-linecap="butt" stroke-linejoin="miter" d="M1.53 1.55h22.82v12.6c-.1 4.54-4.8 11.56-11.41 16.22C7.08 25.82 2 20.15 1.54 14.16V1.55"/><path fill="#fff" d="M6.93 4.55h5.4v-1.2h1.5v15l-1.5-.14v-7.36h-5.4zm4.95 14.19l.66.7-2.49 2.35-.66-.7 2.5-2.35zm2.42-.07l-.67.7 2.5 2.36.66-.7-2.5-2.36z"/><path fill="#fff" d="M11.87 18.64c-.5 1.31 2.85 1.14 2.4 0-.3-.75-2.1-.75-2.4 0zm4.26 3.38l.65.69-2.64 2.49-.65-.7 2.64-2.48zm-5.73.08l-.63.66 2.67 2.52.62-.66-2.67-2.52z"/><path fill="#fff" d="M10.54 21.96a.89.89 0 1 1-1.78 0 .89.89 0 0 1 1.78 0zm3.59 3.11a.89.89 0 1 1-1.78 0 .89.89 0 0 1 1.78 0zm3.3-3.1a.89.89 0 1 1-1.78 0 .89.89 0 0 1 1.78 0z"/><path fill="none" stroke="#000" stroke-width=".48" stroke-miterlimit="4" stroke-linecap="butt" stroke-linejoin="miter" d="M6.93 6.35h1.2m-1.2 2.7h1.2m-1.2.9h1.2m-1.2-4.5h1.2M6.93 7.7h5.4M9.34 5.9v3.9"/></svg>