<svg version="1.1" xmlns="http://www.w3.org/2000/svg" viewBox="0 0 27 32"><path fill="#fff" d="M.13.13l.5 20.67c.35 14.76 25.71 14.76 26.06 0L27.2.13H.13z"/><path fill="red" d="M5.5 4.05s.41-1.4.2-1.68-.57-.6-.85-.41c-.28.2-.6.3-.57.56s.4 1.07.4 1.07l.81.46z"/><path fill="red" d="M8.86 4.85s-1.01-.09-1.75-.5-.99-.1-1.33-.4c-.35-.3-.21-.6-.7-.75s-.77.06-.91-.19.07-.43-.44-.64-.62-.15-.82 0c-.2.15-.67.65-.49.8s.82.47.94.37c.12-.1.57.27.4.3s-.6-.05-.85-.1c-.25-.06-.81.29-.76.49s.3.72.48.69c.18-.04.57-.4.77-.34s.85.11.63.2c-.2.09-.53.24-.4.43s.52.83.9.84c.39.02.86-.19.85-.34s.54.38.46.56c-.1.19-.06.73-.06.73s.3-.6.39-.49c.1.12.61.42.64.73s.09.62.09.62.33-.66.48-.48.43.62.4.83a.6.6 0 0 0 .14.4l.41-.7s.5.97.72 1.24.6.86.6.86-.24-1.03.61-.67c.14.05 1.48-1.94 1.6-2.15.24-.44-2.97-2.36-3-2.34z"/><path fill="#2a57c6" d="M4.95 2.4c.43-.08.54-.18.4-.33s-.5-.4-.71-.35c-.2.05-.63.36-.63.36l-.04.09s.35-.2.5-.03.14.3.28.31c.14.02.21.01.2-.05zm-2.33.3c.53-.1.75.2.52-.16s-.29-.37-.48-.36c-.2.01-.4-.17-.63.03s-.33.42-.33.42.29-.23.44-.15.45.27.48.22zM2.6 3.94c-.4-.04-.95.18-.99.33s.02.26.02.26.52-.07.68-.12.3-.4.29-.47zm1.33 1.23c-.21.39-.4.43-.87.23 0 0 .32.32.54.43s.78-.05.78-.05.2-.09 0-.23-.4-.31-.45-.38z"/><path fill="none" stroke="#000" stroke-width=".36" stroke-miterlimit="4" stroke-linecap="round" stroke-linejoin="round" d="M7.25 4.95s.46.09.7.3"/><path fill="red" d="M4.74 11.46s-1.18-1.08-1.58-1.1-.94.02-.9.32c.03.3-.04.57.23.7s1.31.36 1.31.36l.94-.27z"/><path fill="red" d="M7.5 9.7s-.68.63-1.52.87-.67.6-1.17.65c-.5.06-.74-.22-1.18.03s-.37.54-.7.49c-.34-.06-.4-.3-.91-.08s-.5.32-.47.54c.03.21.27.81.54.78s.94-.27.9-.4c-.03-.14.6-.22.54-.08s-.4.35-.6.48c-.2.14-.17.7.06.79s.91.22.98.08c.06-.14-.07-.6.1-.7s.6-.5.57-.3c-.04.19-.07.49.2.51s1.14.14 1.38-.1c.23-.25.3-.68.13-.76s.7-.14.84.02c.14.17.7.46.7.46s-.43-.54-.26-.54c.17 0 .77-.16 1.1 0s.68.3.68.3-.47-.6-.2-.6.87.08 1.07.22c.2.14.47.14.47.14l-.47-.68s1.28.24 1.68.24 1.2.11 1.2.11-1.17-.44-.31-.8c.13-.05-1.1-2.08-1.26-2.29-.3-.4-4.1.6-4.1.63zm16.17-.3s.9-1.74.9-2.47.14-1.77.14-1.77.74-.34.84-.61.3-.9.2-.95c-.1-.06-.1.42-.18.45s-.3-.11-.24-.29c.07-.17.25-1.03.15-1.35s-.12-.33-.2-.26c-.08.07.03 1.02-.1 1.1s-.37.24-.39.07c-.01-.18.24-.98.22-1.22-.02-.39-.28-.92-.37-.88-.14.08.05.44.05.56s.07.89-.13 1c-.2.1-.39.26-.39.1s.11-1.15-.2-1.5c-.23-.23-.5-.53-.55-.4s.23 1.44.16 1.74c-.06.3-.35.28-.36.83s.26 1.17.42 1.31c.15.13.35.34.35.34s.07 1.56-.19 2.11c-.25.56-.32.88-.45 1.08s-.27.34-.27.34l.59.67z"/><path fill="red" d="M21.47 15.49s1.52.17 1.78.07.9-.5.92-.82c.02-.3.4-1.12.6-1.5s.76-1.44.9-2c.13-.57.31-2.02.42-2.3s.47-.78.33-.71c-.13.07-.8.9-.84 1.06s-.22.75-.27 1.1c-.05.33-.11.5-.25.66s-.69-.88-.82-1.03c-.14-.15-1.88-2.06-2.13-3.48s-.2-1.7-.2-1.7.38-.17.48-.42.39-1.2.34-1.43c-.05-.23-.27-1.35-.14-1.75s.27-.53.15-.53c-.11 0-.56.26-.72.52-.16.26-.28 1.08-.27 1.2s.14.45.02.42c-.12-.02-.34-.67-.3-.96s.32-.77.21-.75c-.1.01-.65.6-.65.74s.02.96.05 1.07c.03.1.02.3-.07.22s-.3-.31-.33-.58c-.04-.28.06-.56.1-.65s0-.22-.09-.17c-.08.06-.48.8-.42.95s.34.83.5.98c.14.14.26.32.12.38s-.38-.06-.52-.26c-.13-.2-.3-.45-.28-.31s.05.65.25.9c.2.23.79.36.79.5s.03 1.3.34 2.12c.3.81 2.35 3.67 2.38 3.93s.32 1.94.15 2.1c-.17.17-.2.5-.5.45s-.8-.43-.9-.82c-.13-.4-.26-1.17-.03-1.57.15-.42.51-.73.7-1.13l-.44-.69s-.46.58-.76 1.02-.27.9-.49.76c-.22-.15-.59-1.68-.75-1.91s-.6-.8-.7-.75c-.08.06.1.33.13.56s.52 1.51.58 2.2c-.12 1.23 2.07 2.12 1.44 2.94-.84 1.1-1.48.75-.82 1.37z"/><path fill="none" stroke="#000" stroke-width=".16" stroke-miterlimit="4" stroke-linecap="round" stroke-linejoin="round" d="M21.72 4.6s.38-.21.48-.44.12-.42.12-.42"/><path fill="red" d="M11.09 9.24s1.33 2.57 3.4 2.96 2.54 3.14 4 3.04l3.08-.23s.16-1-.57-1.68c-.74-.67-1.68-1.81-2.15-2.54s-3.8-3.6-3.8-3.6L11.1 9.24z"/><path fill="#000" d="M11.09 9.24s1.1 2.39 3.4 2.96c.44.1 1.64.32 1.9.48 1.41.89 3.58 1.78 2.46-1.9-.25-.8-3.8-3.6-3.8-3.6L11.1 9.25z"/><path fill="red" d="M14.11 5.31s-.28.34-.52.38-.84-.16-1.08-.12c-.25.03-.7.3-1.13.26s-.8-.02-.9-.15c-.11-.14-.23-.63-.3-.6s.14.8.2.9c.06.1.3.16.22.24s-.92.47-1.54.54c-.62.07-.96.1-1.29-.07s-.74-.41-.75-.27c-.01.14.9.8 1.14.89s.72.26 1.17.19c.46-.07 1.14-.46 1.14-.46s-.83.43-1.11.46c-.29.03-1.28 1.55-1.81 1.68s-.94.25-1.16.16c-.23-.1-.55-.1-.67-.31s-.14-.4-.18-.34c-.04.05-.06.48.15.64s1.41.66 1.76.68c.36.02 1.57-.55 1.57-.55s-.37.67-.6.83c-.24.15-.57.25-.74.28s-.1.05-.1.05.86.14 1.2-.03 1-.89 1.22-.9c.2 0 .28.1.14.2s-.61.51-.52.85c.09.34 1.12.71 1.16.71s-.39-.51-.2-.76c.18-.24.9-.73.9-.7s-.4.4-.3.53c.1.13.23.32.24.23s.88-.65.93-.57c.05.08.2.34.33.34s.09-.49.2-.81c.12-.33.17-.53.22-.46s-.18 1.04-.18 1.36c0 .33.3.72.48.78s.56.23.93.16.57-.31.55-.42-.06-.15-.17-.11c-.1.04-.18.32-.43.26s-.44-.23-.32-.44c.12-.2.55-.48.55-.7s-.28-.7-.23-.77c.05-.08.2.8.37.84s.74.15.74-.1c0-.24-.16-.67-.2-.54s.03.37-.16.34c-.18-.03-.32-.33-.21-.47s.38-.22.5-.09c.12.14.23.36.65.34s.54-.12.42-.15c-.11-.02-.35.02-.52-.1s.25-.61.37-.52c.12.1.37.65.77.65s1.01-.32 1.03-.38c.02-.05-.24 0-.56-.1s-.53-.5-.48-.76c.05-.26.15-.73.38-.7s.66.14.9.05c.23-.1.5-.25.33-.23s-.34.15-.5 0c-.17-.15-.6-.44-.36-.84s.62-.34.52-.52c-.1-.17-.27-.78-.08-.81s.4-.02.55-.11c.15-.1-.3-.05-.3-.2s-.47-2-.28-2.05c.18-.04.35.14.4.06s-.44-.5-.47-.65c-.03-.15.08-.53.1-.8s-.8-.77-1.1-.76c-.28.01-3-.07-3.37.16s-.32.38-.57.42c-.25.04-.75 0-.85.1s-.32.42-.3.55c.01.14-.02.5.16.61s.78.31 1.04.31c.27 0 1.88-.15 2.04.03s.42.34.38.54c-.03.2.07.99-.2 1.1s-1.66.17-1.88.23c-.22.05-.3.17-.2.36s2.3.14 2.73-.13c.44-.27.62-.4.6-.48s.04-.58.26-.74c.22-.16.4-.37.4-.52"/><path fill="red" d="M16.9 1.37s.27-.27.52-.26.53.1.56.27c.04.17 0 .93-.17 1s-.51.09-.62 0"/><path fill="red" d="M17.44 1.57c-.02-.12.21-.11.21-.11s.1 0 .12.04c.02.06 0 .36-.12.41s-.26.14-.3.07c-.06-.07 0-.1.05-.1.23-.01-.14.14.18-.02.05-.02.32-.43-.14-.29z"/><path fill="#fff" d="M14.7 1.6c-.27.07-.42.1-.32.19s.17.19.34.16c.18-.02.5-.13.4-.17s-.34-.2-.42-.19zm-1.5 1.33s-.11.34-.03.4.37.04.47-.08c.1-.13.17-.32.17-.32h-.6zm.58-.02l.85.05s-.25.31-.33.33-.47-.37-.53-.38zm.92.05s.47-.08.54 0-.14.37-.22.35c-.09-.01-.32-.32-.32-.35zm.34 1.56s.36.1.45-.04-.22-.4-.32-.36c-.1.05-.12.37-.14.4zm-.12.01s.13-.4-.04-.36-.37.06-.37.2c0 .13.04.12.14.15s.28.04.27.01zm-.54.04s.17-.2 0-.25-.37-.17-.44-.08c-.06.08-.2.24-.11.3s.58.05.55.03zm-.74.12s.15 0 .08-.13-.06-.28-.18-.22c-.12.07-.17.22-.1.3s.25.08.2.05z"/><path fill="#2a57c6" d="M15.5 3.84s-.9-.3-1.46-.26-1.36.2-1.94.1c-.6-.1-1.15-.56-1.4-.58s-.55.04-.52.13c.03.1.08.29.47.45s.76.37.97.37c.22 0 1.38 0 1.68-.03s.54-.2.78-.14c.23.06.94.33 1.19.33s.34-.03.34-.03l-.1-.34zM2.76 10.87c.17-.33.13-.46-.1-.46s-.7.1-.77.27c-.07.16 0 .62 0 .62l.06.08s0-.35.27-.35.37.08.47 0c.1-.08.14-.13.07-.16zm-1.04 1.71c.2-.41.64-.38.13-.44s-.54-.02-.64.11c-.1.14-.4.16-.33.43s.23.46.23.46-.06-.32.1-.37.54-.14.5-.2zm1.24.72c-.27.25-.37.74-.23.85s.27.13.27.13.23-.38.26-.51-.23-.44-.3-.46zm2.02-.16c.26.36.2.52-.27.7 0 0 .5-.02.74-.1s.4-.54.4-.54.03-.2-.24-.14-.53.08-.63.08z"/><path fill="none" stroke="#000" stroke-width=".19" stroke-miterlimit="4" stroke-linecap="round" stroke-linejoin="round" d="M16.52 9.8s1.19.8 1.54 1.2.93 1.2 1.17 1.36c.24.15 1.09.98 1.19 1.03l.09.06M13.17 7.2s-.71.04-1 .2-.8.63-.8.63m.95-1s-.62.1-.81.21-.12.54-.48.67c-.35.14-1.35.31-1.54.56l-.19.25m1.6-1.78s-.67.44-.96.48l-.69.07m3.52-1.36l-1.28.12m3.58.4s.36.42.24.61-.17.56-.43.46c-.26-.1-.47-.17-.45-.1s.19.26.52.3c.33.03.7-.27.74-.43m1.04-1.55s.1.37.38.46.65.15.65.15m-2.07 1.9s-.4.6-.6.63-.4.18-.33.42m2.31-4.67s.02.83.19.98.42.4.57.32M17.3 3.2s0 .42-.1.48-.42.3-.47.42c-.04.12-.12.56-.3.71s-1.98.52-2.43.52c-.45 0-.7-.02-.6-.21m3.83-2.74s-.07.34.05.42m.26-.34s0 .26.05.36m.14 1.53s.07.44.29.62m-7.34 4.29s.76.1.95-.08.38-.63.38-.63M7.5 11.73c.09-.04 1.42.1 2.13-.04m-2.97-.87s.36-.24.72-.28m7.41-4.12s-.53.35-.9.12-.48.07.04-.23m2.04.19s0 .42.34.53.66.27.52.5"/><path fill="#000" d="M15.05 1.8c0 .07-.08.13-.17.13s-.16-.06-.16-.13c0-.08.07-.13.16-.13s.17.05.17.13z"/><path fill="#216bc6" stroke="#000" stroke-width=".27" stroke-miterlimit="4" stroke-linecap="butt" stroke-linejoin="miter" d="M.48 14.59l.15 6.2c.35 14.77 25.71 14.77 26.06 0l.15-6.2H.48z"/><path fill="#fff" d="M8.4 17.21c2.55-3.23 7.26-2.68 9.58.5 2.48 3.42-.37 7.63-3.6 7.91 0 0-.16.12-1.38-.24 0 0-.38-.8.01-.77 1.63.12 4.5-2.09 2.72-5.5-1.77-3.4-6.18-2.9-7.33-1.9z"/><path fill="#ffef31" d="M14.88 30.79c0 .4-.56.65-.95.65s-.95-.28-.95-.68l.33-4.51h1.24l.33 4.54z"/><path fill="#ffef31" d="M13.36 25.52h1.1a.42.42 0 1 1 0 .83h-1.1a.42.42 0 1 1 0-.83z"/></svg>