<svg version="1.1" xmlns="http://www.w3.org/2000/svg" viewBox="0 0 27 32"><path fill="#fff" d="M.4.52h26.14v19.12c0 6.28-5.1 12.11-12.75 12.11S.36 26.17.4 19.64V.52z"/><path fill="#da121a" d="M9.44 19.41l8.42-.03v11.7a14 14 0 0 1-8.4 0l-.02-11.67zM9.33.52h8.6v10.83h-8.6V.52z"/><path fill="#da121a" d="M.4 11.2h26.14v8.44H.4v-8.45z"/><path fill="#fcdd09" d="M12.52 3.38c0 .64-.57.45-.64.7V20.4c-.19.2-.38.39-.32.83-1.27-.95-3.2.16-3.7 1.34-1.08 2.8 1.47 5.68 3.7 6.31.96.32 1.6.32 2.23 1.28.64-.96 1.28-.96 2.24-1.28 2.86-.75 5.01-3.25 3.34-6.11-.57-1.29-2.8-2.56-3.67-1.54-.06-.39-.32-.7-.64-.83V10.07h4.47V5.3h-4.47V4.08c-.06-.32-.63-.07-.63-.7a4.01 4.01 0 0 0-1.9 0zm3.19 20.08c.63.64 1.45.46 2-.12l-.54.52c1.93 1.74-.69 4.34-3.37 4.39-2.87 0-5.47-2.88-3.69-4.4l-.5-.47c.62.75 1.64.57 1.96.08 1.27.96 2.86.96 4.14 0z"/><path fill="#000" d="M13.8 30.25a.09.09 0 0 1-.08-.04c-.5-.75-.98-.89-1.66-1.08-.17-.04-.34-.1-.52-.16A6.13 6.13 0 0 1 8 25.94a4.15 4.15 0 0 1-.23-3.41 3.2 3.2 0 0 1 2.03-1.67 2.13 2.13 0 0 1 1.65.18c0-.34.17-.52.33-.68V4.06c.04-.15.17-.2.3-.24.18-.06.34-.11.34-.44 0-.05.02-.08.07-.1a4.3 4.3 0 0 1 1.96 0c.04 0 .07.05.07.1 0 .3.14.35.31.4.13.05.3.1.33.28V5.2h4.37c.05 0 .1.04.1.1v4.77a.1.1 0 0 1-.1.1h-4.37v10.17c.27.13.5.4.6.7.27-.24.65-.33 1.1-.26 1 .14 2.19 1.04 2.58 1.93.67 1.14.78 2.3.33 3.36-.55 1.35-1.95 2.43-3.73 2.9l-.52.16c-.67.2-1.16.33-1.65 1.07-.03.04-.06.05-.09.05zm-3.35-9.28c-.22 0-.43.03-.6.08a3 3 0 0 0-1.9 1.55 4 4 0 0 0 .22 3.25 5.92 5.92 0 0 0 3.41 2.94c.19.07.36.11.52.16.66.2 1.18.34 1.69 1.04.5-.7 1.03-.85 1.69-1.04l.51-.15c1.73-.45 3.08-1.5 3.62-2.79.42-1 .3-2.11-.33-3.19v-.01a3.58 3.58 0 0 0-2.44-1.83c-.32-.05-.77-.03-1.06.32a.11.11 0 0 1-.1.03c-.04-.01-.06-.04-.07-.08a1 1 0 0 0-.58-.76c-.04 0-.06-.05-.06-.09V10.07c0-.05.05-.1.1-.1h4.37V5.4h-4.37a.1.1 0 0 1-.1-.1V4.1c-.02-.06-.07-.08-.19-.12-.16-.05-.41-.13-.44-.5a3.94 3.94 0 0 0-1.73 0c-.03.4-.3.48-.47.55-.1.03-.15.05-.16.08v16.31c0 .03-.02.05-.03.07-.18.19-.35.35-.3.75.01.03 0 .07-.04.1s-.07.01-.1-.01a1.7 1.7 0 0 0-1.06-.35zm1.43-.56zm1.89 7.93c-2.01 0-3.76-1.34-4.22-2.6-.27-.72-.13-1.4.4-1.9l-.1-.1a1.72 1.72 0 0 1-.33-.3.1.1 0 0 1 0-.12c.05-.03.1-.04.14 0l.3.28c.28.18.57.2.74.2.33-.02.63-.17.77-.39l.06-.04c.03-.01.05 0 .08.02 1.24.93 2.78.93 4.03 0a.1.1 0 0 1 .12 0 1.2 1.2 0 0 0 1.71.02l.15-.15c.04-.04.1-.04.14 0s.04.1 0 .13l-.16.16-.3.3c.6.58.78 1.3.5 2.05-.5 1.31-2.3 2.4-4 2.44h-.03zm-3.6-4.44v.01c-.7.59-.62 1.28-.44 1.77.44 1.19 2.1 2.47 4.04 2.47h.02c1.64-.03 3.36-1.06 3.82-2.31.19-.5.25-1.23-.52-1.91a.13.13 0 0 1-.03-.05 1.3 1.3 0 0 1-.43.08h-.03c-.33 0-.65-.13-.91-.37a3.43 3.43 0 0 1-4.12 0c-.19.23-.5.37-.86.39-.17 0-.37-.02-.54-.08z"/><path fill="#000" d="M15.7 7.53h3.83v.63H15.7v-.63z"/><path fill="#000" d="M17.61 9.44h-.63v-3.5l.63-.01v3.51zM9.5 31.03h-.2V27.6h.2v3.44zm8.53-.05h-.2V28.1h.2v2.88zm-2.41-7.48a2.96 2.96 0 0 1-.1-2.1 5.9 5.9 0 0 1-3.78 0c.25.66.16 1.6-.1 2.1l-.17-.09c.27-.53.33-1.56 0-2.14l.08-.04.04-.1c1.46.63 3.1.4 4.07 0l.04.1.08.04a2.66 2.66 0 0 0 0 2.14l-.16.1zm2.4-2.28h-.18v-1.61h8.65v.19h-8.46v1.42zM9.5 21.1h-.2v-1.3H.34v-.18H9.5v1.48zm4.03-.26a5 5 0 0 1-1.68-.34l.07-.17c1.26.44 1.99.44 3.12 0l.07.17c-.59.23-1.08.34-1.58.34zM26.6 11.2h-8.7v-1.1h.2v.9h8.5v.2zm-17.18 0H.4V11h8.83V.52h.2v10.67zm5.55-1.11V5.3h.19v4.78h-.2zm2.9-4.86l-.03-4.7h.2l.02 4.7h-.2zM15 4.12h-3.12v-.2H15v.2z"/><path fill="#000" d="M13.74 31.8c-3.92 0-7.5-1.42-10.08-4.02a11.56 11.56 0 0 1-3.47-8.24V.25h26.46v19.29c0 3.15-1.3 6.25-3.56 8.52a13.04 13.04 0 0 1-9.35 3.75zM.5.58v18.97a11.25 11.25 0 0 0 3.37 8.02 13.74 13.74 0 0 0 9.86 3.93c7.87 0 12.58-6.07 12.59-11.95V.57H.5z"/></svg>