<svg version="1.1" xmlns="http://www.w3.org/2000/svg" viewBox="0 0 28 32"><path fill="#0f47af" d="M.38 1.42H27.2l.31 16.95c0 8.02-7.09 13.26-13.56 13.26S.38 26.39.69 18.37L.4 1.42z"/><path fill="#000" d="M13.95 31.82c-3.64 0-7.36-1.61-9.95-4.3a12.24 12.24 0 0 1-3.5-9.15L.2 1.23h27.18v.18l.32 16.96c0 3.75-1.57 7.22-4.42 9.77-2.6 2.34-6 3.68-9.33 3.68zM.57 1.6l.3 16.77v.01a11.9 11.9 0 0 0 3.4 8.88 13.74 13.74 0 0 0 9.68 4.18c6.46 0 13.38-5.25 13.38-13.07l-.3-16.77H.56z"/><path fill="#fcdd09" d="M12.28 14.55h1.3v-1.3h1.1v1.3h1.3v.93h-1.3v2.59h-1.1v-2.6h-1.3v-.92z"/><path fill="#000" d="M14.69 18.16h-1.11a.1.1 0 0 1-.1-.1v-2.5h-1.2a.1.1 0 0 1-.09-.08v-.93c0-.05.04-.1.1-.1h1.2v-1.2c0-.04.04-.09.09-.09h1.1c.06 0 .1.05.1.1v1.2h1.2c.05 0 .1.04.1.1v.92a.1.1 0 0 1-.1.09h-1.2v2.5a.1.1 0 0 1-.1.09zm-1.02-.19h.93v-2.5c0-.04.04-.09.09-.09h1.2v-.74h-1.2a.1.1 0 0 1-.1-.09v-1.2h-.92v1.2a.1.1 0 0 1-.1.1h-1.2v.73h1.2c.06 0 .1.05.1.1v2.5z"/><path fill="#fff" d="M7.47 12.21c.47 1.11.72 2 1.07 2.84.25-.4.39-1.02.77-1.67.33-.59 1.14-.86.76.28-.46 1.4-.93 1.75-.51 3.34.22.86.64 1.94 1.2 2.62.38.45.9.61 1.14.84.3-.35-1.02-1.77-.65-3.39.3-1.29.62-1.31.7-.48.12 1.25.36 2.37.81 3.02.55.8 1.05 2 2.16 1.09 1.12-.93 1.5-2.43 1.42-4.02-.1-1.75.54-.78.63-.1.18 1.5-.22 2.9-.42 4.05.04-.81 1-1.1 1.55-1.63a4.74 4.74 0 0 0 1-3.39 8.52 8.52 0 0 0-.58-2c-.58-1.42.19-1.14.37-.64.25.65.5 1.09.75 2.13.52-.62.88-1.9 1.16-2.87.31-1.07.94-.98.79-.05-.13.77-.53 1.51-.67 2.02.42-.17.85-.7 1.11-1.25.69-1.47.92-.4.67.16-.16.37-.53.87-1.02 1.32-.83.77-1.3 1.45-1.25 1.98.95-.33 1.43-1.3 1.95-2.05.26-.38 1.02-.51.55.37-.42.82-.72 1.09-1.18 1.82-.39.61-.93.8-1.42 1.23-.57.5-1.19 1.25-.93 1.6.24.34 1.98-.98 2.81-1.7.93-.78 1.2-.3.81.15-.46.54-1 1.04-1.27 1.51-.67 1.18-1.6.9-2.44.93-.55.02-1.01-.06-1.6.3-.68.42-1 .69-1.05 1.42.46-.23.86-.87 1.39-1 .37-.1 1.56.29 2.58-.02-.26.3-.58.61-1 1.11-.7.82-1.27 1.21-2 .8-.62-.36-.75.35-.58.71.67 1.42-.32 1.38-.33 2.25 0 .93-.54 1.37-.67 1.58-.15.02-.04-.4-.07-.81-.07.09-.15 1.03-.2 1.55-.06.45-.43.86-.85 1.3-.19.2-.45.24-.88.12-.25-.07-.41-.67-.84-.9-.22-.14.04-1.27-.47-1.67-1.23-.94-.45-1.46-1.04-2.14-.28-.33-.18-1.17.07-1.63.14-.26-.05-.52-.42-.33-.58.32-1.14.65-1.76.19-.6-.44-1.02-1.28-1.49-2.1.51.27 1.06.53 1.49.5.5-.05.99-.26 1.39-.07.57.26 1.13 1.14 1.2.16.02-.18-.34-.35-1.06-.7-.68-.33-1.46-.05-2.18-.3-.78-.28-1.51-1.14-2.07-1.93-.46-.66-1-.96-1.42-1.37-.66-.65-.05-.82.37-.51.8.58 1.47 1.35 2.35 2.09.47.4 1.14.86 1.27.74.18-.16-.63-1.27-1.25-1.76-.88-.7-1.78-1.3-2.25-2.2-.33-.62 0-.9.51-.4.64.63 1.77 2.21 2.02 1.9.37-.43-.42-1.26-1.2-1.93-.58-.49-1.08-1.24-1.6-1.9-.69-.86.02-1.06.34-.75.6.6.97 1.54 1.45 1.88-.13-.65-.37-1.22-.6-2.27-.1-.45.13-1.12.61.03z"/><path fill="#000" d="M14.5 29.73a1.6 1.6 0 0 1-.45-.07c-.16-.05-.26-.2-.39-.4s-.26-.4-.47-.52c-.13-.08-.14-.3-.16-.6-.02-.38-.04-.86-.33-1.07-.76-.58-.78-1.03-.8-1.41-.02-.26-.03-.49-.25-.74-.31-.36-.22-1.23.06-1.74.05-.08.05-.18 0-.22-.06-.06-.17-.04-.3.03l-.06.03c-.57.3-1.15.62-1.8.14a5.7 5.7 0 0 1-1.33-1.79l-.19-.33a.1.1 0 0 1 .02-.1.1.1 0 0 1 .1-.03c.52.27 1.04.52 1.44.48.16-.01.32-.04.47-.08.35-.06.67-.12.97.02.18.08.36.22.52.34.16.13.37.3.45.26.02-.01.08-.07.1-.36.02-.1-.38-.3-.88-.55l-.13-.06a2.48 2.48 0 0 0-1.1-.18c-.36 0-.72 0-1.07-.13-.66-.23-1.35-.87-2.11-1.96-.3-.43-.64-.7-.96-.97a5.7 5.7 0 0 1-.45-.39c-.41-.4-.34-.62-.26-.7.14-.17.48-.14.75.05.46.34.87.73 1.3 1.14a25 25 0 0 0 1.05.96c.6.5 1.04.74 1.16.74a4.26 4.26 0 0 0-1.25-1.62l-.35-.27a6.44 6.44 0 0 1-1.93-1.97c-.18-.34-.18-.62-.02-.73s.4-.03.68.23c.2.2.44.48.69.77.41.48.98 1.14 1.18 1.14h.02c.24-.3-.18-.94-1.2-1.8a8.4 8.4 0 0 1-1.2-1.4l-.41-.52c-.47-.59-.3-.85-.2-.94.18-.15.49-.12.68.08.3.29.52.64.75 1 .16.25.31.49.47.67-.05-.2-.1-.4-.18-.64-.1-.37-.23-.79-.35-1.34-.06-.25-.03-.64.18-.7.19-.06.38.16.6.7.23.57.41 1.08.59 1.56.13.38.25.74.4 1.09l.22-.52c.12-.3.25-.64.45-.98.2-.36.59-.65.86-.53.14.06.27.27.08.88l-.33.85c-.31.78-.5 1.26-.19 2.44.1.4.5 1.74 1.2 2.6.22.26.5.42.73.56l.28.17c-.01-.15-.12-.4-.23-.66-.3-.67-.7-1.58-.46-2.6.26-1.14.5-1.12.57-1.12.16.01.26.22.3.65.15 1.41.41 2.42.8 2.98.08.1.15.23.23.35.3.47.61.95 1.02 1.02.24.03.49-.07.78-.3 1.26-1.04 1.45-2.72 1.38-3.94-.04-.73.04-1.07.25-1.09.26-.02.5.58.56.98.14 1.2-.08 2.32-.28 3.32.18-.2.43-.36.67-.52.2-.13.42-.28.59-.44.51-.5 1.14-2.04.97-3.31a8.55 8.55 0 0 0-.57-1.97c-.24-.57-.29-.94-.16-1.1.06-.07.14-.1.23-.08.18.02.38.23.47.46.06.17.13.33.2.48.16.4.33.81.5 1.48.42-.62.73-1.68.98-2.55l.05-.14c.16-.57.44-.9.71-.84.19.05.35.29.26.83-.08.5-.27.97-.44 1.4l-.16.41c.32-.21.65-.62.87-1.1.29-.62.53-.88.74-.78.24.1.26.66.1 1.02-.18.4-.57.91-1.05 1.36-.77.72-1.19 1.31-1.22 1.77.69-.3 1.1-.94 1.51-1.57l.27-.4c.16-.24.53-.42.74-.3.13.09.23.28-.03.77-.26.51-.48.81-.71 1.13-.15.2-.3.41-.48.7-.26.41-.6.64-.92.86-.17.12-.35.24-.51.38-.59.52-1.12 1.2-.92 1.48l.03.02c.34.04 1.61-.85 2.65-1.73.7-.59.97-.45 1.05-.36.14.13.1.4-.1.63l-.5.54c-.3.34-.6.65-.78.95-.57 1.03-1.37 1-2.08.98H19c-.4 0-.8 0-1.26.29-.59.36-.89.6-.98 1.16l.4-.34c.26-.24.53-.5.86-.58.15-.03.4 0 .7.03.53.07 1.24.15 1.88-.04.03-.02.08 0 .1.03a.1.1 0 0 1 0 .11l-.37.41c-.18.2-.39.42-.63.71-.7.81-1.32 1.26-2.12.8-.12-.06-.29-.12-.4-.02-.13.13-.14.45-.05.63.45.93.2 1.28-.05 1.62-.13.19-.26.37-.27.67 0 .79-.38 1.25-.58 1.5l-.1.13c-.02.03-.05.04-.08.05a.2.2 0 0 1-.12-.04l-.03.21-.05.5c-.06.46-.43.88-.86 1.35-.1.13-.28.2-.5.2zm-2.88-7c.09 0 .17.04.23.1.1.1.11.29.03.45-.24.43-.33 1.23-.08 1.52.26.3.27.58.29.85.01.37.03.75.73 1.28.34.27.38.82.4 1.21 0 .17.02.41.06.44.25.15.41.39.54.58.1.15.19.3.28.32.46.13.64.05.78-.1.42-.43.77-.83.82-1.24l.05-.48c.08-.77.12-1.04.18-1.12a.1.1 0 0 1 .1-.03.1.1 0 0 1 .06.08c.02.15 0 .3 0 .44v.21l.02-.04c.2-.24.54-.66.55-1.37 0-.37.16-.59.3-.79.23-.32.42-.6.03-1.43-.12-.25-.11-.65.1-.84.08-.08.28-.19.62 0 .61.35 1.1.15 1.88-.77.24-.3.45-.52.64-.72l.16-.18c-.58.12-1.2.04-1.66 0a2.14 2.14 0 0 0-.63-.04c-.28.07-.54.3-.78.54-.2.17-.39.36-.6.45-.03.02-.06.02-.09 0s-.04-.05-.04-.09c.07-.8.45-1.1 1.09-1.48.5-.31.92-.31 1.36-.32h.74c.71.02 1.39.04 1.9-.89.2-.32.49-.64.81-.98l.49-.54c.14-.18.16-.34.12-.38-.07-.07-.34-.03-.8.38-.09.07-2.1 1.77-2.75 1.77h-.03a.24.24 0 0 1-.16-.09c-.37-.5.63-1.45.94-1.73.17-.15.35-.27.53-.4.32-.21.63-.42.87-.8.18-.29.33-.5.48-.7.23-.32.44-.62.7-1.11.18-.32.16-.48.1-.52-.1-.06-.36.05-.5.24l-.26.4c-.42.65-.9 1.4-1.73 1.68h-.08l-.05-.08c-.04-.53.38-1.2 1.28-2.04.45-.42.84-.92 1-1.3.15-.32.09-.73 0-.77 0 0-.16-.05-.5.68-.3.63-.74 1.13-1.17 1.3a.1.1 0 0 1-.1-.01.12.12 0 0 1-.02-.1c.05-.19.14-.4.24-.65.16-.41.36-.88.43-1.36.06-.37-.01-.6-.12-.62-.1-.02-.34.18-.49.71l-.06.14c-.27.96-.62 2.15-1.13 2.76-.02.03-.05.04-.1.04s-.05-.04-.06-.07a9.18 9.18 0 0 0-.54-1.64l-.2-.49c-.07-.18-.23-.33-.33-.34h-.05c-.01.03-.1.2.18.92a9 9 0 0 1 .59 2.02 4.8 4.8 0 0 1-1.02 3.47c-.18.18-.4.32-.62.47-.38.26-.75.5-.87.88l-.04.23c0 .05-.06.08-.1.08a.09.09 0 0 1-.08-.1c0-.1.02-.19.05-.27l.1-.5c.2-.98.41-2.1.27-3.26-.05-.4-.29-.8-.37-.81 0 0-.12.08-.08.88.07 1.27-.13 3-1.45 4.1-.33.27-.63.38-.92.34-.49-.08-.82-.6-1.14-1.1l-.23-.35c-.4-.59-.68-1.62-.83-3.07-.03-.35-.1-.46-.13-.48 0 0-.18.06-.38.98-.23.96.16 1.84.44 2.48.2.46.33.77.18.95a.12.12 0 0 1-.06.04.1.1 0 0 1-.07-.03 2.08 2.08 0 0 0-.36-.24 2.92 2.92 0 0 1-.78-.6 7.81 7.81 0 0 1-1.23-2.66 3.3 3.3 0 0 1 .2-2.56c.1-.24.2-.51.31-.84.14-.43.1-.62.02-.65-.13-.06-.44.14-.62.45-.2.33-.33.67-.44.96-.11.27-.2.52-.33.71-.02.03-.05.05-.08.05s-.07-.03-.08-.06c-.18-.4-.32-.83-.48-1.27-.17-.49-.35-1-.6-1.57-.23-.58-.36-.58-.36-.58-.04.02-.11.24-.06.49.13.54.25.96.35 1.33.1.34.19.63.26.95a.1.1 0 0 1-.05.1.1.1 0 0 1-.1 0c-.27-.2-.5-.55-.73-.93a6.42 6.42 0 0 0-.72-.97c-.13-.13-.33-.14-.42-.06-.1.09-.08.31.21.69.14.17.28.35.4.53.38.49.77 1 1.2 1.36 1.14.97 1.55 1.66 1.21 2.06a.19.19 0 0 1-.15.07c-.27 0-.68-.45-1.33-1.21-.24-.3-.48-.57-.67-.76-.23-.23-.4-.25-.45-.22s-.07.2.08.5c.4.77 1.12 1.32 1.88 1.9l.35.28c.54.42 1.31 1.4 1.32 1.75a.2.2 0 0 1-.06.15c-.22.2-.97-.38-1.4-.74-.38-.32-.73-.64-1.05-.96-.44-.41-.84-.8-1.29-1.12-.21-.16-.44-.16-.5-.09-.04.06.01.22.25.46l.43.37c.32.26.68.56 1 1.01.73 1.04 1.4 1.68 2.02 1.9.32.1.67.11 1 .11.4 0 .8 0 1.19.2l.12.05c.72.35 1.02.5 1 .73-.02.3-.1.46-.22.52-.18.08-.4-.09-.64-.28a2.82 2.82 0 0 0-.48-.33c-.24-.11-.53-.06-.85 0-.16.04-.33.07-.5.08-.36.03-.8-.14-1.25-.36l.03.06c.4.7.78 1.36 1.28 1.73.55.42 1.06.14 1.6-.16l.06-.03a.44.44 0 0 1 .27-.08z"/><path fill="#fcdd09" d="M6.54 4.32c-.15-.72-.8-.4-1.67-.52-.46-.05-.63-.89-1.05-1.14-.07.93.18 1.43.24 1.63.26.89 1.23.56 1.53 1.1.08.12.14.3.07.71.2.08.4.05.6-.05-.43-.8.41-1.16.28-1.74z"/><path fill="#000" d="M5.9 6.25a.8.8 0 0 1-.27-.05c-.04-.02-.07-.07-.06-.1.07-.38.01-.55-.06-.67-.1-.2-.33-.26-.59-.33-.37-.1-.79-.22-.95-.78a.5.5 0 0 0-.04-.1c-.09-.26-.26-.75-.2-1.56 0-.03.02-.06.05-.07s.06-.01.1 0c.2.12.34.36.48.58.16.27.31.52.52.55.25.03.49.02.7.02.5 0 .92-.02 1.05.56.06.28-.07.51-.2.72-.16.3-.31.57-.09.98.02.03.02.05 0 .07l-.03.06a.87.87 0 0 1-.42.12zm-.14-.2c.13.02.25.01.38-.05-.2-.45-.02-.78.14-1.07.11-.2.21-.38.18-.58v-.01c-.09-.41-.34-.42-.88-.41-.22 0-.46 0-.72-.03-.3-.03-.48-.34-.66-.63-.1-.14-.19-.3-.3-.41-.02.67.13 1.07.21 1.3l.04.11c.13.46.47.56.82.66.28.07.56.15.7.42.08.12.15.32.1.7z"/><path fill="#fcdd09" d="M13.86 6.57c.19.09.37.15.56-.06-.13-1.21.35-1.47.16-1.95-.43-1.1-1.14-1.5-2.14-1.51.3.54.87.65.37 1.27-.63.78-.27 1.04.44 1.21.73.17.69.61.61 1.04z"/><path fill="#000" d="M14.14 6.75a.76.76 0 0 1-.32-.1c-.03-.01-.06-.05-.05-.09.08-.46.08-.79-.54-.94-.34-.08-.71-.2-.8-.48-.08-.23.02-.5.32-.87.3-.38.17-.5-.06-.76-.1-.12-.23-.25-.32-.42-.02-.03-.02-.06 0-.1s.04-.04.08-.04c1.1.02 1.81.52 2.22 1.57.1.25.04.44-.04.68-.08.3-.19.65-.12 1.3 0 .02 0 .04-.02.06-.12.14-.24.19-.35.19zm-.17-.23c.13.05.24.07.35-.05-.06-.65.05-1.03.14-1.31.07-.23.11-.38.04-.57-.37-.94-.95-1.39-1.88-1.44l.2.24c.25.25.47.5.07 1-.24.3-.34.53-.29.68.06.16.27.28.68.37.79.18.75.7.69 1.08z"/><path fill="#fcdd09" d="M21.48 6.22c.21.24.38.03.59-.1 0-.55-.16-.82 0-1.66.03-.23.9-.99 1.18-1.93-.6.65-1.6.74-2.25 1.05-.52.24-.97.98-.1 1.34.88.36.5.32.58 1.3z"/><path fill="#000" d="M21.67 6.42c-.08 0-.17-.03-.26-.14l-.02-.05c-.03-.3 0-.5 0-.66.03-.32.04-.34-.53-.56-.44-.19-.54-.45-.54-.65-.02-.37.31-.72.64-.87.21-.1.47-.18.72-.26.55-.17 1.1-.34 1.5-.77.03-.03.07-.03.1-.01s.06.06.05.1c-.18.62-.62 1.17-.91 1.54-.13.16-.26.32-.27.38-.1.55-.07.85-.03 1.16.01.15.03.3.03.48a.1.1 0 0 1-.05.08.8.8 0 0 0-.11.08c-.09.07-.2.15-.32.15zm-.1-.24c.1.1.15.07.31-.04a.77.77 0 0 0 .09-.07c0-.15-.02-.27-.04-.41a3.6 3.6 0 0 1 .03-1.22c.02-.1.12-.23.31-.46.22-.29.54-.68.75-1.13-.4.28-.87.42-1.3.56-.25.08-.5.15-.7.25-.27.13-.54.43-.53.7 0 .25.24.4.44.48.63.26.67.35.64.75 0 .14-.02.33 0 .6zM.18 1.28L1.31.18h25.28l.8 1.07-27.2.03z"/><path fill="#fcdd09" d="M5.84 6.15c-.4-.05-1.51-1.1-2.5-.2-.66.58-.61 1.63-.24 2.41.3.62.57 1.24 1.6 1.37.53.07 1.41-.03 1.33-.67.39.5 1.07.65 1.79.37C9 8.96 9.6 7.87 9.28 6.53c-.15-.66-.64-1.1-1.6-1.12-.74-.02-1.2.82-1.83.74z"/><path fill="#000" d="M5 9.84c-.1 0-.2 0-.3-.02-1.05-.13-1.36-.76-1.65-1.36l-.03-.06c-.37-.76-.45-1.88.25-2.52.8-.71 1.67-.26 2.2.01.16.09.3.16.39.18h.01c.28.02.52-.15.79-.34.29-.2.62-.42 1.02-.41 1.18.04 1.57.67 1.7 1.18.31 1.36-.27 2.52-1.52 3.01-.66.26-1.31.18-1.74-.23a.63.63 0 0 1-.16.27c-.21.22-.6.29-.95.29zm-.77-4.16c-.28 0-.56.09-.83.33-.64.58-.56 1.6-.21 2.3l.03.07c.28.59.55 1.14 1.5 1.26.39.05.9 0 1.11-.22a.4.4 0 0 0 .11-.35c0-.04.02-.08.06-.1s.08 0 .11.03c.37.48 1.02.6 1.68.35 1.17-.46 1.7-1.54 1.41-2.8-.15-.67-.67-1.02-1.52-1.04-.34-.01-.63.19-.91.38-.28.2-.58.4-.93.36h-.01a1.68 1.68 0 0 1-.45-.19 2.48 2.48 0 0 0-1.15-.38z"/><path fill="#000" d="M5.37 9.31c-.44 0-.86-.17-1.07-.27-.05-.02-.07-.07-.04-.12s.07-.07.12-.04c.6.28 1.2.32 1.6.1a.1.1 0 0 1 .13.03.1.1 0 0 1-.03.13c-.23.13-.48.17-.71.17zm2.1-.35a.09.09 0 0 1-.09-.06.1.1 0 0 1 .06-.12c.93-.28 1.17-.77 1.28-1.22.01-.04.06-.08.11-.06s.08.06.07.1c-.12.47-.38 1.04-1.4 1.35l-.03.01z"/><path fill="#fcdd09" d="M21.65 5.83c-.4-.05-1.51-1.11-2.5-.21-.66.6-.61 1.64-.24 2.42.3.61.57 1.24 1.6 1.37.53.06 1.41-.04 1.33-.68.39.5 1.07.66 1.79.37 1.18-.47 1.78-1.56 1.46-2.9-.16-.65-.64-1.09-1.6-1.12-.74-.02-1.2.82-1.84.75z"/><path fill="#000" d="M20.82 9.52c-.12 0-.22 0-.31-.02-1.05-.14-1.36-.76-1.65-1.36l-.03-.06c-.37-.76-.45-1.88.25-2.52.8-.72 1.67-.26 2.2.01.16.09.3.16.39.17h.01c.28.03.52-.14.79-.33.29-.2.62-.42 1.02-.41 1.18.04 1.57.66 1.7 1.18.31 1.36-.27 2.52-1.53 3.01-.66.26-1.3.17-1.73-.23a.63.63 0 0 1-.16.27c-.21.21-.6.29-.95.29zm-.78-4.17c-.28 0-.56.09-.83.33-.64.58-.56 1.6-.21 2.3l.03.07c.28.59.55 1.14 1.5 1.26.38.05.89 0 1.11-.22a.4.4 0 0 0 .11-.35c0-.04.02-.08.06-.1s.08 0 .1.03c.38.48 1.03.6 1.7.35 1.16-.46 1.7-1.54 1.4-2.8-.16-.67-.67-1.02-1.52-1.04-.35-.01-.63.19-.91.38-.29.2-.58.4-.93.36h-.02c-.11-.01-.25-.09-.44-.19-.31-.16-.72-.38-1.15-.38z"/><path fill="#000" d="M21.18 8.99c-.44 0-.86-.17-1.07-.27-.05-.02-.07-.07-.05-.12s.08-.07.13-.04c.6.28 1.2.32 1.6.1a.1.1 0 0 1 .13.03.1.1 0 0 1-.03.13c-.23.12-.48.17-.71.17zm2.1-.35a.09.09 0 0 1-.09-.07.1.1 0 0 1 .06-.12c.93-.28 1.17-.77 1.28-1.21.01-.05.06-.08.1-.07s.09.06.08.1c-.12.47-.38 1.04-1.4 1.35-.01.02-.03.02-.03.02z"/><path fill="#fcdd09" d="M13.82 6.4c-.4-.05-1.66-1.02-2.65-.12-.65.6-.7 1.76-.32 2.54.3.61.77 1.33 1.8 1.46.54.07 1.5-.03 1.43-.67.38.5 1.07.84 1.78.55A2.8 2.8 0 0 0 17.57 7c-.16-.65-.95-1.32-1.91-1.35-.75-.02-1.2.82-1.83.75z"/><path fill="#000" d="M12.95 10.39c-.12 0-.23 0-.31-.02-1.08-.14-1.58-.88-1.88-1.52-.38-.8-.36-2 .34-2.64.8-.72 1.77-.3 2.34-.04l.38.14c.28.03.53-.14.8-.33.3-.2.62-.42 1.03-.41 1.03.03 1.84.76 2 1.42a2.89 2.89 0 0 1-1.76 3.26c-.7.29-1.35-.01-1.74-.42a.55.55 0 0 1-.15.25c-.24.24-.7.31-1.05.31zm-.8-4.4c-.3 0-.63.1-.92.36-.63.58-.65 1.7-.3 2.42.3.6.75 1.29 1.74 1.42.35.04.95.01 1.2-.24.1-.1.13-.2.11-.34 0-.04.02-.08.06-.1s.08 0 .11.03c.33.42.97.82 1.68.54a2.7 2.7 0 0 0 1.64-3.06c-.13-.59-.87-1.24-1.81-1.27-.35-.02-.64.19-.92.38-.28.2-.57.4-.92.36-.1 0-.26-.08-.44-.16-.35-.15-.78-.34-1.23-.34z"/><path fill="#000" d="M14.22 29.16a.1.1 0 0 1-.08-.06c-.02-.05 0-.1.05-.12a.98.98 0 0 1 .52 0 .1.1 0 0 1 .08.11.1.1 0 0 1-.11.07.77.77 0 0 0-.43 0h-.02zm-.2-.29a.15.15 0 0 1-.12-.05c-.04-.06-.03-.13.02-.2.1-.12.33-.2.62-.06.04.02.07 0 .14-.02.08-.04.23-.1.36.08.04.04.04.1.02.14a.21.21 0 0 1-.16.1.24.24 0 0 1-.23-.1l-.01-.02a.32.32 0 0 1-.2-.01.55.55 0 0 0-.23-.06l.02.03c.03.04 0 .1-.04.12a.34.34 0 0 1-.18.05zm-.41-.74h-.04c-.05-.03-.07-.08-.05-.13.33-.78.38-1.62.16-2.52-.01-.05.02-.1.07-.11s.1.01.11.06c.23.94.17 1.83-.16 2.64-.02.03-.05.06-.1.06zm-.24-1.96a.09.09 0 0 1-.07-.03c-.1-.14-.18-.28-.26-.42h-.03c-.51-.13-.75-.53-.68-1.14v-.03a4.36 4.36 0 0 0-.28-.33c-.03-.04-.03-.1 0-.13s.1-.04.13 0c.42.42.64.84.86 1.24.13.24.25.47.4.7a.1.1 0 0 1-.01.12.1.1 0 0 1-.06.02zm2.12-.2a.1.1 0 0 1-.07-.04.09.09 0 0 1 0-.13c.3-.3.47-.61.62-.93.17-.35.34-.68.69-.93.04-.04.1-.02.13.01s.02.1-.02.13l-.17.15c.03.54-.1.8-.23.93-.1.1-.24.16-.37.15l-.04-.01c-.12.2-.27.43-.49.63 0 .03-.03.03-.05.03zm-.04-1a.1.1 0 0 1-.08-.05.72.72 0 0 1-.07-.4.1.1 0 0 1 .1-.07.1.1 0 0 1 .09.1c-.01.14.01.23.04.3a.1.1 0 0 1-.04.12h-.04zm-1.9-.08l-.02-.01a.1.1 0 0 1-.07-.11.5.5 0 0 0 0-.3.1.1 0 0 1 .06-.1.1.1 0 0 1 .12.05c.05.18.02.31 0 .4-.01.03-.05.07-.09.07zm-.23-.23h-.03a.1.1 0 0 1-.06-.11.5.5 0 0 0 0-.3c-.02-.04 0-.1.06-.1s.1 0 .11.06c.05.18.03.3.01.38a.1.1 0 0 1-.1.07zm2.31-.01a.1.1 0 0 1-.09-.06.75.75 0 0 1-.06-.38.1.1 0 0 1 .1-.08.1.1 0 0 1 .09.1c-.01.11 0 .2.04.3a.1.1 0 0 1-.04.11l-.04.01zm-2.57-.23h-.02a.1.1 0 0 1-.07-.12.5.5 0 0 0 0-.29.1.1 0 0 1 .06-.11.1.1 0 0 1 .12.06c.05.18.03.3 0 .39a.1.1 0 0 1-.09.07zm2.76-.03a.1.1 0 0 1-.08-.05.75.75 0 0 1-.07-.4.1.1 0 0 1 .1-.07.1.1 0 0 1 .09.1c-.01.14.01.23.04.3a.1.1 0 0 1-.04.12h-.04zm-2.97-.14h-.03a.1.1 0 0 1-.06-.12.5.5 0 0 0 0-.29c-.02-.05 0-.1.06-.1s.1 0 .12.05c.05.18.02.31 0 .4a.1.1 0 0 1-.09.06zm3.19-.12c-.03 0-.07-.02-.08-.05a.7.7 0 0 1-.12-.37c0-.05.04-.09.09-.1.05 0 .09.04.1.09 0 .14.04.22.09.28.03.04.02.1-.03.13a.1.1 0 0 1-.05.01zm-3.44-.09h-.03a.1.1 0 0 1-.07-.12.5.5 0 0 0 0-.29.1.1 0 0 1 .07-.11.1.1 0 0 1 .11.06c.05.18.03.3 0 .39a.1.1 0 0 1-.08.07zm3.62-.13a.1.1 0 0 1-.09-.05.76.76 0 0 1-.06-.4.1.1 0 0 1 .1-.07.1.1 0 0 1 .08.1c0 .11 0 .2.05.3a.1.1 0 0 1-.05.12h-.03zm-3.88-.06h-.02a.1.1 0 0 1-.07-.12.5.5 0 0 0 0-.29.1.1 0 0 1 .06-.12.1.1 0 0 1 .12.07.6.6 0 0 1 0 .38c-.01.05-.05.08-.09.08zm4.1-.2a.1.1 0 0 1-.1-.05.72.72 0 0 1-.06-.38.1.1 0 0 1 .1-.08.1.1 0 0 1 .09.1c-.01.14.01.22.04.29a.1.1 0 0 1-.04.12h-.04zm.21-.21a.1.1 0 0 1-.08-.06.72.72 0 0 1-.06-.39.1.1 0 0 1 .1-.08.1.1 0 0 1 .08.1c-.01.14.01.23.04.3a.1.1 0 0 1-.04.12h-.04zm.24-.13a.1.1 0 0 1-.09-.05.76.76 0 0 1-.06-.39.1.1 0 0 1 .1-.08.1.1 0 0 1 .09.1c-.02.14 0 .23.04.3a.1.1 0 0 1-.04.12h-.04zm-5.49-.83h-.01c-.46-.06-.6-.21-.75-.36-.18-.18-.35-.37-1.16-.45a.1.1 0 0 1-.08-.1.1.1 0 0 1 .1-.09c.88.1 1.09.32 1.27.51.14.15.25.26.64.3a.1.1 0 0 1 .08.11.1.1 0 0 1-.09.08zm5.94-.16c-.02 0-.04 0-.06-.03a.09.09 0 0 1 0-.12c.62-.7 1.07-.78 1.44-.83.26-.04.47-.07.67-.3.03-.04.1-.05.13-.02s.04.1.01.13c-.25.3-.5.33-.77.37-.36.05-.76.11-1.34.76a.1.1 0 0 1-.08.04zm-.97-.43h-.03a.1.1 0 0 1-.06-.1.68.68 0 0 1 .19-.35c.04-.03.1-.03.13 0s.03.1 0 .13c-.1.1-.13.19-.15.26 0 .03-.04.06-.08.06zm-.27-.16h-.03c-.05-.03-.07-.08-.05-.13.04-.08.1-.2.25-.3.04-.03.1-.02.13.02s.01.1-.03.13a.53.53 0 0 0-.18.23c-.02.03-.05.05-.08.05zm-3.68-.13a.1.1 0 0 1-.09-.08.47.47 0 0 0-.12-.26c-.03-.04-.02-.1.02-.13s.1-.02.13.01c.08.11.13.23.15.36a.1.1 0 0 1-.08.1zm3.48-.03h-.04c-.04-.02-.06-.08-.04-.12.03-.08.1-.2.24-.3.05-.04.1-.02.13.02s.02.1-.02.13a.53.53 0 0 0-.19.22.1.1 0 0 1-.08.05zm-3.2-.08a.1.1 0 0 1-.09-.08.5.5 0 0 0-.12-.26c-.03-.04-.02-.1.01-.13s.1-.03.13.01c.12.14.15.27.16.36a.1.1 0 0 1-.08.1zm2.92-.07h-.03c-.05-.02-.07-.08-.05-.13.04-.08.1-.2.25-.3.04-.03.1-.02.12.02s.02.1-.02.13a.53.53 0 0 0-.19.23c0 .03-.04.05-.08.05zM13 21.39a.1.1 0 0 1-.09-.08.5.5 0 0 0-.12-.27c-.03-.03-.02-.1.02-.12s.1-.03.13 0c.11.15.14.28.15.36a.1.1 0 0 1-.08.11zm2.37-.16h-.04c-.05-.02-.06-.08-.05-.12.04-.08.1-.2.25-.3.05-.04.1-.02.13.02s.02.1-.02.13a.53.53 0 0 0-.19.23.1.1 0 0 1-.08.04zm-2.11 0a.1.1 0 0 1-.1-.08.5.5 0 0 0-.11-.27c-.03-.03-.03-.1.01-.12s.1-.03.13 0c.12.15.14.28.15.36a.1.1 0 0 1-.08.11zm.23-.13a.1.1 0 0 1-.1-.08.5.5 0 0 0-.1-.26c-.04-.04-.03-.1 0-.13s.1-.02.13.01c.12.15.14.27.16.36a.1.1 0 0 1-.08.1zm1.63-.05h-.03c-.05-.02-.07-.08-.05-.13.04-.08.1-.2.25-.3.04-.03.1-.02.13.02s.01.1-.03.13a.53.53 0 0 0-.19.23.1.1 0 0 1-.08.05zm-3.06-.18a.1.1 0 0 1-.1-.08.27.27 0 0 0-.02-.1 1.2 1.2 0 0 1-.09-.5c0-.05.04-.1.1-.09.05 0 .1.04.09.1-.01.19.04.34.07.44l.04.13a.1.1 0 0 1-.08.1zM13.6 9.82c-.45 0-.95-.2-1.34-.39-.05-.02-.06-.07-.04-.12s.07-.07.12-.04c.8.37 1.35.45 1.7.26a.1.1 0 0 1 .13.03c.02.04.01.1-.03.12-.17.1-.35.14-.55.14zm1.84-.47a.09.09 0 0 1-.09-.07.1.1 0 0 1 .07-.12c.92-.28 1.16-.77 1.27-1.21a.1.1 0 1 1 .18.04c-.12.46-.38 1.03-1.4 1.34l-.03.02zM6.12 6.14a.1.1 0 0 1-.1-.1c0-.68-.4-1-.82-1.33l-.13-.11c-.1.02-.21.02-.38.02h-.07c-.04 0-.09-.04-.09-.1s.04-.09.1-.09h.24a2.64 2.64 0 0 1-.22-.23.68.68 0 0 1-.47-.24c-.03-.04-.03-.1.01-.13s.1-.03.13.01c.06.06.1.1.15.13a1.6 1.6 0 0 1-.21-.57c-.01-.05.02-.1.07-.1s.1.02.11.07c.1.48.37.77.66 1.02.06-.04.09-.12.14-.27.02-.05.07-.07.12-.05s.07.07.05.11a.9.9 0 0 1-.16.33l.07.06c.14.1.28.22.4.34.08-.07.11-.13.2-.38.02-.05.07-.07.12-.06s.07.07.05.12c-.1.3-.15.36-.25.46.2.25.36.56.37 1 0 .05-.04.08-.1.08zm7.8-.03a.1.1 0 0 1-.05-.02.08.08 0 0 1-.03-.07 7.1 7.1 0 0 0-.1-.78c-.13-.03-.27-.1-.47-.18L13.19 5c-.05-.02-.06-.07-.05-.12s.08-.07.13-.05l.09.04c.15.07.26.12.36.15l-.09-.34a.91.91 0 0 1-.5-.3c-.04-.04-.04-.1 0-.13a.1.1 0 0 1 .14 0c.1.12.2.18.3.22-.07-.2-.14-.35-.22-.49a.1.1 0 0 1 .03-.13.1.1 0 0 1 .13.03 3.02 3.02 0 0 1 .3.72l.03.13a.88.88 0 0 0 .07-.4c0-.04.05-.09.1-.09.04 0 .09.05.09.1 0 .33-.08.45-.14.56l-.03.05-.03.03.02.08c.1.02.22 0 .38-.06.05-.02.1.01.12.06s-.02.1-.07.12c-.16.06-.29.08-.4.08l.07.6c.08-.07.16-.19.24-.28l.11-.14c.03-.04.1-.04.13-.01s.04.1.01.13l-.1.13c-.16.19-.3.37-.45.4l-.03.01zm7.57-.68c-.05 0-.1-.04-.1-.09 0-.14 0-.28.03-.42l-.02-.01c-.15-.1-.31-.22-.47-.47a.1.1 0 0 1 .03-.13.1.1 0 0 1 .13.03c.12.2.24.3.38.38.04-.17.11-.33.2-.48l-.34-.14c-.05-.02-.06-.07-.04-.12.02-.05.07-.07.12-.05.17.08.27.13.36.15.22-.32.54-.57.92-.7.05-.02.1 0 .12.05s0 .1-.06.12c-.27.1-.52.27-.71.5l.26-.11.05-.02a.1.1 0 0 1 .12.05.1.1 0 0 1-.04.12l-.05.02c-.24.1-.38.16-.51.16-.06.1-.12.21-.16.32.1-.02.19-.11.3-.22l.03-.03c.04-.04.1-.03.13 0s.03.1 0 .14l-.03.03c-.16.14-.3.29-.5.28-.04.18-.06.36-.05.55a.1.1 0 0 1-.1.09z"/></svg>