<svg version="1.1" xmlns="http://www.w3.org/2000/svg" viewBox="0 0 28 32"><path fill="#390" stroke="#000" stroke-width=".88" stroke-miterlimit="4" stroke-linecap="butt" stroke-linejoin="miter" d="M.42 9.74c.05 3.37-.1 6.74.09 10.1.94 6.24 6.66 11.37 12.98 11.57 5.5.32 11-3 13.23-8.06.97-2.01 1.05-4.27.99-6.45L27.72.57H.42v9.17zm7.45-.48c.5.32-.46.28 0 0zm13.05 0c.48.32-.44.27 0 0zm-6.39 10.8c.5.32-.46.28 0 0z"/><path fill="#fcdd09" d="M7.55 8.86a.54.54 0 0 0-.2.03.18.18 0 0 0-.06.06c-.01.02-.05.03-.18.05-.1 0-.2.03-.24.05-.08.04-.17.14-.18.2-.02.05 0 .21.01.27s-.03.03-.06-.03c-.05-.14-.07-.18-.1-.2-.16-.07-.25.06-.17.23.1.19.24.28.41.29.1 0 .12 0 .09.03-.03.02-.03.04 0 .07.02.02.06.02.15.01.11 0 .15 0 .32.06l.2.06.03.08c.03.07.03.08 0 .1l-.3.18-.28.17c0 .03.08.06.15.06.09 0 .07.02-.16.15-.1.06-.15.1-.15.13 0 .02.06.06.1.06l.04.02a.7.7 0 0 1-.14.15c-.1.1-.14.15-.13.17 0 .03 0 .05-.07.08-.09.04-.1.08-.07.12.04.04-.04.05-.27.02a1.69 1.69 0 0 1-.26-.05c-.04-.02-.04-.06-.01-.28.02-.14.01-.17-.01-.24-.03-.06-.05-.08-.12-.12-.08-.04-.1-.04-.3-.03l-.2.01-.06-.06c-.07-.07-.11-.2-.13-.39v-.12l.06-.02c.28-.1.47-.3.5-.53 0-.1 0-.12-.06-.24-.06-.1-.08-.13-.16-.18-.1-.06-.1-.06-.25-.05a.75.75 0 0 0-.29.06c-.17.07-.25.09-.74.24a4.73 4.73 0 0 1-1.31.26c-.05.1.27.38.52.46.1.03.15.03.37.02l.28-.02c.05-.02.03.02-.02.05l-.16.13c-.3.29-.41.38-.73.59-.12.08-.23.17-.23.18-.01.04.03.09.14.13.07.04.11.04.29.04h.2l.14-.07c.14-.07.2-.12.37-.27.05-.05.1-.1.1-.08A59.72 59.72 0 0 1 3 13.13c0 .02.04.02.17.02.16-.01.18-.01.33-.1.18-.09.34-.23.48-.42l.32-.43c.03-.06.03 0 0 .08-.05.1-.11.36-.13.51l-.06.38a6.58 6.58 0 0 1-.6 2.08l-.07.25c.03.03.21 0 .34-.06.28-.13.38-.25.55-.6.16-.3.34-.78.57-1.54l.15-.44A10.6 10.6 0 0 1 5 14.22a34.9 34.9 0 0 1-.19 1.37c0 .05 0 .05-.04.05a.35.35 0 0 0-.25.16c-.05.1-.04.11.05.1h.1c.05.02.05.03.05.07l.01.09c.02.03-.15.14-.27.17-.07.01-.1.03-.1.06-.02.03-.04.03-.08.03a.14.14 0 0 0-.11.05c-.05.05-.05.07-.05.16 0 .1 0 .12.04.15.05.05.09.04.11-.03.02-.07.05-.07.1-.01.03.05.13.08.18.05l.06-.04c.13-.13.17-.14.3-.13l.13.02c.04.02-.03.1-.15.17-.12.06-.15.1-.15.16l-.04.08c-.09.08-.1.16-.04.28.08.15.12.17.14.06.01-.1.03-.1.12-.1.06 0 .08 0 .13-.06.04-.04.1-.1.14-.12s.1-.09.12-.13a.6.6 0 0 1 .46-.25l.22.05c.1.04.17.05.24.05.08 0 .09 0 .12-.07s.02-.07.17-.03c.04 0 .04 0 .04-.05 0-.07-.05-.18-.1-.2a.65.65 0 0 0-.25-.01.8.8 0 0 1-.26-.01c-.07-.02-.08-.04-.05-.07l.1-.13a.95.95 0 0 1 .1-.13l.14-.16.1-.14a4.23 4.23 0 0 0 .27-.34l.04-.04.04.1c.04.1.08.12.13.07.02-.03.02-.03.05 0 .06.06.08.04.09-.1a1 1 0 0 1 .13-.45c.07-.1.09-.12.1-.06a1 1 0 0 1-.08.55.39.39 0 0 1-.25.22c-.33.11-.45.2-.6.48-.08.15-.05.16.17.07a.8.8 0 0 1 .3-.04c.19 0 .2 0 .29-.05a.7.7 0 0 1 .1-.05c.02 0 0 .17-.01.34-.04.28-.16.56-.28.68-.43.39-.51.54-.51.92 0 .23.01.33.05.33.01 0 .06-.05.1-.11l.1-.14a3.35 3.35 0 0 0 .75-1.3c.02-.08.04-.02.06.21.03.37-.01.72-.14 1.05-.04.12-.14.28-.2.35-.05.06-.07.11-.03.11l.15-.03a.5.5 0 0 1 .13-.03c.01 0 .06.13.1.29s.1.31.13.36c.01.05.04.1.05.1.03 0 .06-.08.18-.46l.1-.29s.07 0 .14.03l.15.03c.04 0 .02-.06-.03-.1a1.83 1.83 0 0 1-.35-1.01 2.8 2.8 0 0 1 .04-.64c0-.01.03.04.07.15.14.42.4.85.71 1.18.02.01.06.07.1.14s.09.11.1.11c.03 0 .05-.1.05-.33 0-.38-.09-.54-.5-.92-.1-.1-.13-.14-.22-.4a1.98 1.98 0 0 1-.09-.62l.1.04c.1.05.11.06.3.06.15 0 .2 0 .3.04.22.09.25.07.17-.07-.15-.27-.27-.37-.6-.48a.4.4 0 0 1-.25-.22 1 1 0 0 1-.09-.55c.02-.06.04-.05.1.06a1 1 0 0 1 .14.44c.01.15.03.17.08.12.03-.04.03-.04.06-.01.04.04.09.02.1-.04l.06-.1.02-.03.06.06.1.13.2.26.13.17a6.68 6.68 0 0 0 .28.36l-.06.03a.85.85 0 0 1-.26 0c-.16 0-.21 0-.25.02-.06.03-.11.14-.1.2 0 .03 0 .04.05.03.13-.01.13 0 .15.05l.02.06h.12c.08 0 .16-.02.24-.05a.5.5 0 0 1 .36-.02c.1.04.2.11.3.23l.14.14c.04.03.1.07.12.1.04.07.04.07.12.07.1 0 .12 0 .12.07 0 .06.02.1.05.1.03 0 .12-.15.13-.22a.28.28 0 0 0-.08-.22c-.02-.01-.03-.04-.03-.06 0-.06-.03-.1-.12-.14-.1-.06-.21-.15-.2-.18 0 0 .06-.02.13-.02.12-.02.19 0 .27.08l.14.11c.05 0 .15-.05.16-.08.02-.05.07-.04.09.02.05.12.16.05.16-.1 0-.15-.06-.23-.17-.23-.04 0-.06 0-.07-.04-.01-.03-.03-.04-.05-.04a.78.78 0 0 1-.28-.12c-.08-.05-.08-.06-.05-.09a.08.08 0 0 0 .01-.07c-.01-.06.02-.07.14-.06.1 0 .11 0 .06-.1-.04-.07-.17-.16-.23-.16l-.03-.05a9.1 9.1 0 0 1-.1-.68l-.12-.89c-.02-.15-.04-1.16-.02-1.14l.17.51c.32 1 .5 1.47.7 1.75.07.1.26.24.4.3.13.06.3.09.33.05l-.21-.6-.28-.78a8.6 8.6 0 0 1-.21-1.17 2.87 2.87 0 0 0-.14-.63l-.05-.14.05.06.13.17.12.16.1.12c.15.2.26.29.47.4.1.05.13.05.28.06s.17 0 .17-.02a85.65 85.65 0 0 1-1.22-2.2l.1.08c.17.17.25.23.42.32.1.05.11.05.3.05s.21 0 .31-.05.15-.1.12-.14c0-.01-.12-.1-.25-.18s-.3-.2-.35-.25l-.21-.2a2.3 2.3 0 0 0-.3-.25l-.07-.06.06.01.34.02h.27l.15-.08c.1-.05.17-.1.26-.19.16-.16.19-.25.06-.23l-.25-.01c-.4-.06-.87-.19-1.55-.41a1.6 1.6 0 0 0-.5-.13.47.47 0 0 0-.17.02.85.85 0 0 0-.24.27c-.05.1-.04.26.04.39.1.14.28.28.47.33.05.02 0 .33-.06.46-.05.12-.08.13-.32.12-.17-.01-.2-.01-.28.02-.14.07-.17.15-.13.42.03.18.03.19 0 .21-.04.03-.2.06-.43.08l-.12.01v-.06c0-.07 0-.07-.07-.1-.08-.05-.1-.08-.06-.08.03 0 .04-.06.01-.08a1.19 1.19 0 0 1-.12-.36v-.15l.02-.05.02.06c.02.05.05.07.07.04l.05-.17.04-.17.08.04.1.06c.02 0 0-.1-.04-.29l-.03-.14.07-.01c.1 0 .14-.07.05-.15l-.05-.05.08-.04c.1-.06.15-.13.12-.16 0-.02-.04-.03-.08-.03a.13.13 0 0 1-.1-.04c-.03-.03-.04-.04-.02-.04.04 0 .09-.06.08-.1l-.06-.04a.35.35 0 0 1-.09-.05c-.04-.03-.04-.03 0-.07.04-.05.02-.09-.07-.13l-.08-.06.04-.05a.57.57 0 0 0 .07-.09c.03-.04.03-.04 0-.05l-.17.01-.14.03-.14-.04a2.43 2.43 0 0 0-.64-.08zm-.93 4.43c.01 0 .03.1.07.36.08.55.07.5.04.63a.74.74 0 0 1-.14.28c-.08.09-.34.35-.36.35-.02 0-.01.06.01.08.02.02.01.04-.02.08l-.04.05.05.04.04.03-.15.2a53.46 53.46 0 0 0-.52.72l-.04.05-.06-.14-.07-.15-.23-.08-.24-.08a.16.16 0 0 1-.07-.03l-.04-.03.08-.02c.29-.08.52-.3.71-.7a4.24 4.24 0 0 0 .34-1.3l.03.17c.04.3.11.73.13.75.02.02.18-.07.25-.14l.1-.16c.05-.1.06-.13.08-.45a12.91 12.91 0 0 1 .06-.51zm1.94 0l.01.04.03.3c.03.48.04.52.1.63.02.05.07.12.1.15.09.08.22.15.24.13.02-.01.07-.3.11-.63.03-.24.05-.3.06-.2l.1.55c.12.49.33.93.54 1.14.1.1.34.23.4.23.05 0 .06.02.03.04l-.26.1-.28.1c-.02.01-.05.08-.08.14l-.06.13c-.01.02-.06-.03-.21-.25a13.23 13.23 0 0 0-.4-.55l-.1-.13c0-.02 0-.04.03-.06l.04-.03-.04-.05c-.03-.04-.04-.06-.02-.08.02-.02.03-.08 0-.08 0 0-.27-.26-.35-.36a.74.74 0 0 1-.14-.27c-.03-.12-.03-.3.02-.35a.95.95 0 0 0 .06-.31c.04-.23.05-.33.07-.33zm1.54 2.78l.08.02c.08.03.09.02-.07.08l-.1.03c-.01 0 0-.03.05-.08l.04-.05zm-5.06 0c.02 0 .03.02.05.05.03.02.04.05.04.06v.02a.84.84 0 0 1-.19-.08s0-.02.05-.03l.05-.01z"/><path fill="#000" d="M7.55 8.86a.54.54 0 0 0-.2.03.18.18 0 0 0-.06.06c-.01.02-.05.03-.18.05-.1 0-.2.03-.24.05-.08.04-.17.14-.18.2-.02.05 0 .21.01.27s-.03.03-.06-.03c-.05-.14-.07-.18-.1-.2-.16-.07-.25.06-.17.23.1.19.24.28.41.29.1 0 .12 0 .09.03-.03.02-.03.04 0 .07.02.02.06.02.15.01.11 0 .15 0 .32.06l.2.06.03.08c.03.07.03.08 0 .1l-.3.18-.28.17c0 .03.08.06.15.06.09 0 .07.02-.16.15-.1.06-.15.1-.15.13 0 .02.06.06.1.06l.04.02a.7.7 0 0 1-.14.15c-.1.1-.14.15-.13.17 0 .03 0 .05-.07.08-.09.04-.1.08-.07.12.04.04-.04.05-.27.02a1.69 1.69 0 0 1-.26-.05c-.04-.02-.04-.06-.01-.28.02-.14.01-.17-.01-.24-.03-.06-.05-.08-.12-.12-.08-.04-.1-.04-.3-.03l-.2.01-.06-.06c-.07-.07-.11-.2-.13-.39v-.12l.06-.02c.28-.1.47-.3.5-.53 0-.1 0-.12-.06-.24-.06-.1-.08-.13-.16-.18-.1-.06-.1-.06-.25-.05a.75.75 0 0 0-.29.06c-.17.07-.25.09-.74.24a4.73 4.73 0 0 1-1.31.26c-.05.1.27.38.52.46.1.03.15.03.37.02l.28-.02c.05-.02.03.02-.02.05l-.16.13c-.3.29-.41.38-.73.59-.12.08-.23.17-.23.18-.01.04.03.09.14.13.07.04.11.04.29.04h.2l.14-.07c.14-.07.2-.12.37-.27.05-.05.1-.1.1-.08A59.72 59.72 0 0 1 3 13.13c0 .02.04.02.17.02.16-.01.18-.01.33-.1.18-.09.34-.23.48-.42l.32-.43c.03-.06.03 0 0 .08-.05.1-.11.36-.13.51l-.06.38a6.58 6.58 0 0 1-.6 2.08l-.07.25c.03.03.21 0 .34-.06a.95.95 0 0 0 .32-.22c.22-.23.45-.8.85-2.08l.1-.3a13.72 13.72 0 0 1-.28 2.8.35.35 0 0 0-.25.16c-.05.1-.04.11.05.1h.1c.04.02.05.03.05.07l.01.09c.02.03-.15.14-.27.17-.07.01-.1.03-.1.06-.02.03-.04.03-.08.03a.14.14 0 0 0-.11.05c-.05.05-.05.07-.05.16 0 .1 0 .12.04.15.05.05.09.04.11-.03.02-.07.05-.07.1-.01.03.05.13.08.18.05l.06-.04c.13-.13.17-.14.3-.13l.13.02c.04.02-.03.1-.16.17-.1.06-.14.1-.14.16l-.04.08c-.09.08-.1.16-.04.28.08.15.12.17.14.06.01-.1.03-.1.12-.1.06 0 .08 0 .13-.06.04-.04.1-.1.14-.12s.1-.09.12-.13a.6.6 0 0 1 .46-.25l.22.05c.1.04.17.05.24.05.08 0 .09 0 .12-.07s.02-.07.17-.03c.04 0 .04 0 .04-.05 0-.07-.06-.18-.11-.2a.65.65 0 0 0-.24-.01c-.2.01-.33 0-.33-.04 0-.02.19-.26.23-.3l.13-.16.1-.14a4.23 4.23 0 0 0 .27-.34l.03-.04.05.1c.04.1.08.12.13.07.02-.03.02-.03.05 0 .06.06.07.04.09-.11.01-.2.1-.43.2-.52.02-.03.02-.03.03.02a1 1 0 0 1-.08.55.39.39 0 0 1-.25.22c-.33.11-.45.2-.6.48-.09.15-.05.16.17.07a.8.8 0 0 1 .3-.04c.19 0 .2 0 .29-.05a.7.7 0 0 1 .1-.05c.02 0 0 .17-.02.35-.03.27-.15.55-.27.67-.43.39-.51.54-.51.92 0 .24.01.33.05.33l.1-.11c.05-.06.08-.13.1-.14a3.35 3.35 0 0 0 .75-1.3c.02-.08.04-.01.06.21.02.26 0 .54-.04.72a1.5 1.5 0 0 1-.3.67c-.05.07-.07.12-.03.12l.15-.03a.5.5 0 0 1 .13-.03c.01 0 .06.14.1.29l.13.36c.01.05.04.1.05.1.03 0 .06-.08.18-.46l.1-.29.14.03.15.03c.04 0 .02-.05-.03-.1a1.83 1.83 0 0 1-.35-1.01c-.01-.19.01-.59.04-.63 0-.02.03.03.07.14.14.42.4.85.71 1.18.02.01.06.07.1.14s.09.11.1.11c.03 0 .05-.1.05-.33 0-.38-.09-.53-.5-.92-.1-.09-.13-.14-.22-.4a1.98 1.98 0 0 1-.09-.62l.1.04c.1.05.11.06.29.06.16 0 .2 0 .3.04.23.09.26.08.18-.07-.15-.27-.28-.37-.6-.48a.4.4 0 0 1-.25-.22 1 1 0 0 1-.09-.55c.02-.06.04-.05.1.06a1 1 0 0 1 .14.44c.01.15.03.17.08.12.03-.04.03-.04.06-.01.04.04.09.02.1-.04l.05-.1.03-.03.06.06.1.13.2.26.13.17a6.68 6.68 0 0 0 .28.36l-.06.03a.84.84 0 0 1-.26 0c-.17 0-.21 0-.25.02-.06.03-.12.14-.1.2 0 .03 0 .04.05.04.13-.02.13-.02.15.04l.02.06h.12c.08 0 .15-.01.24-.05a.5.5 0 0 1 .36-.02c.1.04.2.11.3.23l.14.14c.04.03.1.07.12.1.04.07.04.07.12.07.1 0 .12 0 .12.07 0 .06.02.1.05.1.03 0 .12-.15.13-.22a.28.28 0 0 0-.08-.22c-.02-.01-.03-.04-.03-.06 0-.06-.03-.1-.12-.14-.1-.06-.21-.15-.2-.18 0 0 .06-.02.13-.02.12-.02.19 0 .26.08.1.09.14.11.15.11.04 0 .15-.05.16-.08.02-.05.07-.04.09.02.05.12.16.05.16-.1 0-.15-.06-.23-.17-.23-.04 0-.06 0-.07-.04-.01-.03-.03-.04-.05-.04a.78.78 0 0 1-.29-.12c-.07-.05-.07-.06-.04-.08a.08.08 0 0 0 .01-.08c-.01-.05.02-.07.14-.06.1 0 .11 0 .06-.1-.04-.07-.17-.15-.23-.15a8.3 8.3 0 0 1-.18-1.07c-.07-.56-.1-.95-.1-1.39v-.32l.07.2c.17.53.41 1.23.5 1.45.1.24.23.5.31.62.07.1.26.24.4.3.13.06.3.09.33.05l-.21-.6-.28-.78a8.6 8.6 0 0 1-.21-1.17 2.87 2.87 0 0 0-.14-.63l-.05-.14.05.06.13.17.12.16.1.12c.15.2.26.29.47.4.1.05.13.05.28.06s.17 0 .17-.02a85.65 85.65 0 0 1-1.22-2.2l.1.08c.17.17.25.23.42.32.1.05.11.05.3.05s.21 0 .31-.05.15-.1.12-.14c0-.01-.12-.1-.25-.18s-.3-.2-.35-.25l-.21-.2a2.3 2.3 0 0 0-.3-.25l-.07-.06.06.01.34.02h.27l.15-.08c.1-.05.17-.1.26-.19.16-.16.18-.25.06-.23a3.5 3.5 0 0 1-.71-.1c-.33-.08-.93-.26-1.3-.4a.7.7 0 0 0-.28-.05c-.08 0-.15 0-.18.02a.84.84 0 0 0-.24.27c-.05.1-.04.26.04.39.1.14.28.28.47.33.05.02.01.32-.06.46-.05.12-.08.13-.32.12-.17-.01-.2-.01-.28.02-.14.07-.17.15-.13.42.03.18.03.19 0 .21-.04.03-.2.06-.43.08l-.12.01v-.06c0-.07 0-.07-.07-.1-.08-.05-.1-.08-.06-.08.03 0 .04-.06.01-.08a1.19 1.19 0 0 1-.12-.36v-.15l.02-.05.02.06c.02.05.05.07.07.04l.05-.18.04-.16.09.05c.05.03.08.04.1.03l-.07-.39c-.01-.03 0-.04.05-.04.12 0 .15-.07.06-.14l-.05-.05.08-.04c.1-.06.15-.13.12-.17l-.08-.02a.13.13 0 0 1-.1-.04c-.03-.04-.04-.05-.02-.05.04 0 .09-.05.08-.08a.1.1 0 0 0-.06-.05l-.09-.05c-.04-.03-.04-.04 0-.07.04-.05.02-.09-.07-.13l-.08-.06.04-.05a.57.57 0 0 0 .07-.09c.03-.04.03-.05 0-.06-.01 0-.1 0-.17.02l-.14.03-.14-.04a2.43 2.43 0 0 0-.64-.08zm-.04.1h.22c.26.02.4.05.47.09l.13.02c.08 0 .08 0 .07.05 0 .05 0 .07.07.1.06.04.07.07.04.1-.01.01 0 .04.05.1.07.06.07.07.06.1-.03.06-.03.05.06.15.09.1.09.13 0 .13-.07-.01-.08.04-.02.12l.03.07h-.1l-.1-.01s0 .03.03.06c.05.04.12.23.1.26l-.04-.02c-.05-.04-.07-.02-.1.1l-.03.1-.04-.04c-.04-.05-.05-.03-.1.14a.79.79 0 0 0 0 .43c.04.17.05.16-.02.17l-.06.02c0 .01.02.06.06.1.04.06.06.1.05.12-.01.05.03.08.11.1.13.03.17.37.1.98l-.06.51-.07.49c-.03.19-.05.33-.07.34a.9.9 0 0 0-.05.32c0 .07.07.3.11.36.05.09.24.3.3.36.06.04.07.05.05.09-.02.03-.02.04.01.07l.04.06-.14.06a.65.65 0 0 0-.2.1c-.05.05-.1.07-.13.07-.05 0-.05 0-.09-.13a1.47 1.47 0 0 0-.07-.2 1.48 1.48 0 0 0-.28-.35c-.04.01-.06.5-.02.65.03.12.1.28.17.35.04.05.14.1.25.13a.8.8 0 0 1 .43.3c.04.05.02.06-.04.04a1.16 1.16 0 0 0-.25-.02h-.2l-.15-.1c-.15-.08-.2-.1-.2-.07l.01.08.04.3c0 .2.02.27.07.4.1.27.15.38.25.47.32.3.4.4.45.6.03.09.03.32.01.33a3.22 3.22 0 0 1-.84-1.44c-.06-.24-.1-.23-.16.05-.04.15-.04.23-.04.55 0 .35 0 .38.04.55a1.76 1.76 0 0 0 .22.54l-.08.02h-.08l-.1.28-.1.28s-.07-.13-.12-.28l-.1-.29h-.14l.07-.17c.04-.08.1-.24.13-.36.06-.2.06-.2.06-.57 0-.32 0-.4-.04-.56-.06-.27-.1-.28-.17-.04a3.2 3.2 0 0 1-.84 1.44 1 1 0 0 1 .01-.34c.05-.19.13-.3.45-.59.16-.14.3-.5.32-.79 0-.17.03-.35.05-.44.02-.06-.02-.05-.19.05l-.15.1h-.2c-.12 0-.23 0-.26.02-.06.02-.07.01-.04-.04a.8.8 0 0 1 .43-.3.57.57 0 0 0 .26-.13c.06-.07.14-.23.17-.35.03-.15.02-.64-.02-.65-.03-.01-.23.24-.28.34l-.08.21c-.03.12-.03.13-.09.13-.03 0-.07-.02-.12-.06a.65.65 0 0 0-.2-.11c-.08-.02-.14-.05-.14-.06l.04-.06c.03-.03.03-.04 0-.07-.01-.04 0-.05.05-.1.06-.04.25-.26.3-.35.05-.06.12-.3.12-.36l-.08-.65c-.12-.79-.12-.82-.14-1.04a4.03 4.03 0 0 1 0-.81c0-.04.04-.1.07-.12s.05-.06.05-.07c0-.01.03-.04.07-.05.07-.03.09-.07.04-.08-.04-.02-.03-.05.04-.12.09-.09.26-.3.26-.33l-.04-.02c-.06 0-.03-.04.1-.12l.15-.12c.04-.05.03-.09-.04-.1-.03 0-.05 0-.05-.02s.07-.05.16-.1c.1-.05.2-.1.22-.14l.05-.05-.03-.08c-.05-.13-.05-.13 0-.16.07-.04.11-.13.1-.22a1.58 1.58 0 0 0-.35-.6c-.08-.1-.09-.15 0-.2a.2.2 0 0 1 .08 0zm-.25.12l.08.1c.2.23.36.49.36.59 0 .06-.02.06-.08-.03-.14-.21-.53-.36-.74-.3-.1.04-.1.03-.1-.09 0-.17.1-.24.35-.26h.14zm-1.94.23c.1 0 .17.04.23.1.12.14.14.33.05.46a.73.73 0 0 1-.34.25c-.16.05-.17.08-.15.29.02.2.04.26.1.36.09.14.13.15.38.14.18-.01.22 0 .27.01.08.05.08.07.04.45 0 .1 0 .11.04.16.06.05.17.08.43.1l.16.01v.25l.01.52a10.86 10.86 0 0 1-.11 1.73c-.03.1-.16.27-.21.26-.02 0-.05-.14-.13-.72-.1-.67-.1-.71-.14-.71s-.03.01-.04.24c-.04.93-.28 1.7-.62 2.07l-.18.17c-.04.03-.1.04-.12.05-.06.03-.07 0-.05-.14l.15-1.14a10.97 10.97 0 0 0 .02-1.75c-.04-.01-.07.06-.27.69-.47 1.5-.66 1.92-.97 2.12-.1.07-.27.13-.29.11l.11-.33c.22-.58.32-.86.36-1.03.05-.2.13-.67.18-1.03.06-.42.09-.53.3-1 .08-.2.1-.3.1-.3-.01-.01-.03-.02-.05-.01l-.37.47c-.4.53-.5.65-.65.75-.16.1-.4.18-.4.13l.27-.48a67.27 67.27 0 0 0 1.05-1.9c.03-.07.03-.1-.05-.2-.02-.03-.03-.06-.02-.12.01-.06 0-.08-.01-.1-.04-.03-.05 0-.06.11 0 .09 0 .1.04.17l.04.08a3.94 3.94 0 0 1-.73.62c-.12.06-.13.06-.28.06-.15 0-.28-.03-.3-.07l.14-.1c.22-.14.37-.26.59-.46a4.07 4.07 0 0 1 .54-.46c.02-.04.02-.05 0-.07-.02-.02-.06-.01-.2.02a1.5 1.5 0 0 1-.44.03c-.23 0-.25-.01-.34-.05-.1-.06-.29-.2-.29-.23a9.73 9.73 0 0 0 1.94-.52c.11-.04.2-.06.28-.06zm4.53 0c.08 0 .21.04.53.15a8.37 8.37 0 0 0 1.7.42c0 .03-.17.17-.29.23l-.1.05h-.29c-.21 0-.31 0-.42-.03-.12-.03-.16-.03-.18-.01s-.02.03 0 .06a4.5 4.5 0 0 1 .52.45 3.91 3.91 0 0 0 .74.58c-.01.04-.14.07-.28.07-.25 0-.32-.04-.78-.44-.12-.1-.23-.2-.23-.22s0-.06.04-.11c.04-.08.05-.1.04-.16-.02-.1-.04-.13-.07-.1-.02 0-.02.03-.01.08 0 .07 0 .1-.05.17-.05.1-.05.1-.03.15l.03.07a43.52 43.52 0 0 0 1.3 2.32c0 .04-.14 0-.3-.07-.2-.1-.32-.23-.75-.8-.34-.46-.42-.54-.42-.45l.12.31c.2.48.22.53.3 1.12.1.71.16.96.47 1.8.1.23.16.43.15.44-.02.02-.14-.02-.24-.08-.2-.12-.35-.32-.5-.67-.1-.22-.33-.9-.44-1.25a10.6 10.6 0 0 0-.31-.9c-.01-.02-.03-.02-.05-.02a15.2 15.2 0 0 0 .2 3.04c-.01.02-.02.02-.12-.03a1.1 1.1 0 0 1-.37-.35 3.91 3.91 0 0 1-.49-1.83 2.32 2.32 0 0 0-.03-.33c-.04-.05-.06.04-.1.36a7.2 7.2 0 0 1-.18 1.07c-.04 0-.16-.12-.2-.2a2.08 2.08 0 0 1-.07-.58l-.06-.71a2.31 2.31 0 0 1 0-.49c.02-.29.03-.51.02-.68l-.01-.1.17-.01c.19-.01.33-.04.4-.08.06-.03.07-.08.06-.21-.04-.34-.04-.32.01-.38l.04-.05h.25c.22 0 .25 0 .3-.03.11-.1.18-.25.2-.51.01-.19 0-.2-.15-.25-.11-.03-.14-.05-.26-.17-.11-.11-.13-.13-.14-.21-.02-.17.08-.35.22-.41a.24.24 0 0 1 .1-.02zm-3.39.05h.02c.02.01.03.05.04.08.05.15.15.24.3.24l.23-.03c.27-.06.27-.06.27-.03 0 .02-.04.03-.15.06-.38.09-.56.05-.68-.15-.06-.09-.07-.16-.03-.17zm.74.39c.03 0 .07 0 .12.02.17.03.33.1.33.12 0 .02-.02.04-.05.04l-.04.02a3.12 3.12 0 0 0-.5-.15c0-.01.02-.03.06-.04l.08-.01zm-.58 3.54c.01 0 .03.09.07.36.08.55.07.51.04.63a.74.74 0 0 1-.14.28c-.08.1-.34.35-.36.35-.02 0-.01.06.01.08.02.02.01.04-.02.08l-.04.05.05.04.05.04-.16.2a53.46 53.46 0 0 0-.52.71l-.04.05-.06-.14-.07-.15-.23-.08-.24-.08a.16.16 0 0 1-.07-.03l-.04-.03.08-.02c.29-.08.52-.3.71-.7a4.24 4.24 0 0 0 .34-1.3l.03.17c.04.3.11.73.13.75.02.02.18-.07.25-.14l.1-.16c.05-.1.06-.13.08-.45a10.98 10.98 0 0 1 .06-.51zm1.94 0l.01.04.03.3c.03.48.04.52.1.63.05.11.12.18.24.25.06.03.1.04.1.03a3 3 0 0 0 .1-.58l.05-.28c.01-.04.02 0 .06.27.1.62.33 1.19.6 1.45.1.1.34.23.4.23.05 0 .06.02.02.04 0 .01-.12.06-.25.1l-.28.1-.08.14-.06.13c-.02.02-.06-.03-.21-.25a13.23 13.23 0 0 0-.4-.55l-.1-.13c0-.02 0-.03.03-.06l.04-.03-.04-.05c-.03-.04-.04-.06-.02-.08.02-.02.03-.08 0-.08l-.35-.35a.74.74 0 0 1-.14-.28c-.04-.12-.03-.3.02-.35a.93.93 0 0 0 .06-.3c.03-.24.05-.34.06-.34zm.19 1.93c.02 0 .07.04.13.13l.4.55.31.4c.03 0 .07-.07.14-.21.03-.07.06-.14.08-.14l.2-.08.19-.06.05.05c.07.07.09.1.06.14-.02.02-.04.02-.1 0-.1-.03-.16-.02-.2.01-.04.05-.16.3-.15.32.02.02.14-.01.35-.1l.17-.06.1.05.15.09c.05.02.05.03.06.15.01.13 0 .17-.04.14-.02 0-.07-.05-.13-.1-.1-.07-.1-.08-.23-.07-.16 0-.37.03-.38.06-.01.03.2.23.3.3.06.02.1.06.1.07l-.04.08a.18.18 0 0 0-.04.1c0 .06-.03.06-.08 0l-.1-.1a.6.6 0 0 1-.13-.13.7.7 0 0 0-.36-.25.47.47 0 0 0-.37.01c-.12.05-.23.08-.25.07l.04-.1c.06-.08.06-.08.16-.08.12 0 .25-.06.25-.11 0-.04-.15-.24-.65-.87l-.14-.2c0-.01.1-.06.15-.06zm-2.36 0c.05 0 .15.03.16.06 0 .01-.17.25-.4.53-.26.34-.39.52-.39.54.01.05.14.1.26.1.1 0 .1 0 .15.1.04.04.06.08.05.09a.82.82 0 0 1-.28-.08.34.34 0 0 0-.2-.03c-.2.02-.42.14-.5.28a.43.43 0 0 1-.11.12l-.12.1c-.07.07-.08.07-.08 0l-.04-.1c-.02-.03-.05-.05-.05-.07s.04-.05.1-.07c.1-.07.33-.29.3-.31a1.38 1.38 0 0 0-.38-.05c-.12 0-.14 0-.27.1-.13.12-.14.1-.12-.08 0-.1.01-.12.06-.14l.15-.08.1-.06.17.07a1 1 0 0 0 .35.1.9.9 0 0 0-.14-.3c-.04-.05-.05-.06-.11-.06l-.1.02c-.05.02-.12 0-.12-.03l.06-.1.07-.06.18.06.21.09.1.18.1.16c.02 0 .17-.2.42-.52a17.85 17.85 0 0 1 .43-.56zm3.71.85l.08.02c.08.03.09.02-.07.08l-.1.03c-.01 0 0-.03.05-.08l.04-.05zm-5.06 0c.02 0 .03.02.05.05.03.02.04.05.04.06v.02a.84.84 0 0 1-.19-.08s0-.02.05-.03l.05-.01z"/><path fill="#e7e7e7" d="M7.86 9.4c-.06-.02-.08-.11-.04-.16.03-.03.12-.02.15 0s.04.12.01.15c-.02.02-.08.03-.12.02z"/><path fill="#000" d="M4.8 17.09c.05-.04.06-.08.01-.1-.03-.01-.09.05-.09.1 0 .04.01.04.07 0zm5.63.01c0-.05-.04-.11-.07-.11-.05 0-.05.05-.01.09.05.05.08.05.08.01zm-4.09-.6c.08-.02.08-.05 0-.05s-.11.03-.1.06c.02.02.02.02.1 0zm2.57 0c0-.03-.1-.07-.13-.05-.04.01-.03.04.03.06.07.02.1.01.1-.02zm-4.54-.02l.01-.04c0-.05-.12-.05-.16 0a.14.14 0 0 0-.02.06c0 .01.14 0 .17-.02zm6.59.02l-.03-.05c-.02-.03-.04-.04-.09-.04-.07 0-.1.02-.07.06.03.03.2.05.2.03zm-6.13-.69c.05-.04.02-.07-.06-.06-.08 0-.1.04-.03.07.06.03.06.03.1 0zm5.59.01c.06-.03.05-.07-.03-.07s-.1.01-.08.06c.03.05.04.05.1.01zm-4.35-2.85c0-.05.1-.11.18-.12.1-.02.21.02.22.06 0 .03 0 .03-.04.03-.15-.04-.2-.04-.27 0-.06.06-.1.07-.1.03zm-.31-.12a.3.3 0 0 1-.02-.06.9.9 0 0 0-.2-.19.6.6 0 0 0-.17-.01c-.14 0-.17-.01-.14-.05.03-.03.28-.03.35 0 .08.04.23.19.24.26.02.09-.03.13-.06.05zm-.74-.53v-.04a.96.96 0 0 0-.04-.14c-.04-.14-.12-.23-.22-.26-.08-.02-.09-.07 0-.06.1 0 .16.04.22.13.05.09.1.27.1.33 0 .04-.04.06-.06.04zm-.42-.82v-.22c0-.24 0-.3-.1-.38-.04-.04-.05-.05-.04-.07.04-.03.13.04.17.12.04.07.04.1.04.3 0 .17 0 .22-.02.24-.03.03-.04.03-.05.01zM4.31 10c-.06-.05-.09-.25-.04-.29.04-.02.05.01.05.09 0 .03 0 .08.02.12.04.08.02.12-.03.08zM9 12.95c-.06-.05-.12-.05-.21-.02-.07.03-.1.02-.09-.03.02-.03.12-.06.2-.06.07 0 .16.04.2.09.05.07 0 .08-.1.02zm.35-.08c-.04-.06.1-.26.24-.32.09-.04.32-.05.35-.01s0 .04-.13.04a.7.7 0 0 0-.16.02c-.07.03-.2.16-.23.22s-.05.08-.07.05zm.75-.56c-.02-.02.03-.2.07-.3a.54.54 0 0 1 .1-.14c.06-.05.18-.08.21-.06.03.02-.01.06-.08.07-.1.02-.22.22-.22.35 0 .07-.05.12-.08.08zm.43-.83c-.02-.03-.03-.09-.03-.24 0-.18 0-.21.04-.29.05-.09.14-.15.17-.12.01.01 0 .04-.05.1-.09.1-.1.14-.09.38v.2l-.04-.03zm.28-1.48l.03-.09a.2.2 0 0 0 .02-.13l.01-.07c.03-.02.06.03.07.1 0 .1-.1.26-.13.19zm-3.76-.43c.04 0 .07-.02.07-.03 0-.02-.18-.02-.22 0-.06.03-.04.06.02.05l.13-.02zm-4.9-7.22V4.8l.01 2.49c.02.01.2.02 1.08.01h1.07l.02-3H7.5l.02 3h2.06l.01-3h3.08l.01 3h2.25l.01-3h3.28l.02 3h2.23l.01-3h3.1l.01 3h2.28V2.35H2.15z"/><path fill="#fcdd09" d="M2.29 2.48h23.44v4.7h-2l-.02-3.01h-3.36l-.02 3h-1.95l-.02-3h-3.55l-.02 3h-1.97l-.02-3H9.46l-.02 3H7.66l-.02-3H4.19l-.02 3H2.3v-4.7zm18.27 6.38a.54.54 0 0 0-.19.03.18.18 0 0 0-.06.06c-.02.02-.06.03-.19.05-.1 0-.2.03-.23.05a.45.45 0 0 0-.19.2c-.01.05 0 .21.02.27s-.04.03-.06-.03c-.05-.14-.08-.18-.11-.2-.16-.07-.25.06-.16.23.1.19.23.28.4.29.1 0 .13 0 .09.03-.02.02-.02.04 0 .07.03.02.06.02.16.01.1 0 .14 0 .31.06l.2.06.03.08c.03.07.03.08 0 .1-.01.02-.15.1-.3.18l-.28.17c0 .03.08.06.16.06s.06.02-.17.15c-.1.06-.14.1-.14.13 0 .02.05.06.1.06.02 0 .03.01.03.02l-.13.15c-.1.1-.14.15-.13.17 0 .03-.01.05-.08.08-.08.04-.1.08-.06.12.04.04-.05.05-.27.02a1.69 1.69 0 0 1-.26-.05c-.04-.02-.05-.06-.02-.28.02-.14.02-.17 0-.24-.03-.06-.05-.08-.12-.12-.09-.04-.1-.04-.3-.03l-.21.01-.06-.06c-.06-.07-.1-.2-.12-.39l-.01-.12.06-.02c.29-.1.48-.3.5-.53 0-.1 0-.12-.06-.24a.36.36 0 0 0-.16-.18c-.09-.06-.1-.06-.24-.05a.75.75 0 0 0-.3.06c-.17.07-.24.09-.74.24a4.73 4.73 0 0 1-1.31.26c-.04.1.27.38.52.46.1.03.15.03.37.02l.28-.02c.05-.02.03.02-.02.05a4.29 4.29 0 0 1-.88.72c-.13.08-.24.17-.24.18 0 .04.04.09.14.13.08.04.12.04.3.04h.2l.13-.07c.14-.07.2-.12.37-.27.05-.05.1-.1.1-.08a59.72 59.72 0 0 1-1.22 2.18c.01.02.04.02.18.02.16-.01.17-.01.32-.1.19-.09.34-.23.49-.42.2-.26.3-.4.31-.43.04-.06.04 0 0 .08-.04.1-.1.36-.13.51l-.05.38a6.58 6.58 0 0 1-.6 2.08c-.04.13-.08.24-.07.25.02.03.2 0 .34-.06.27-.13.37-.25.55-.6.15-.3.33-.78.57-1.54l.14-.44c.03-.05 0 1.02-.05 1.36a34.9 34.9 0 0 1-.18 1.37c0 .05-.01.05-.05.05-.08 0-.2.08-.24.16-.05.1-.04.11.04.1h.11c.04.02.05.03.05.07v.09c.03.03-.14.14-.27.17-.07.01-.1.03-.1.06-.02.03-.03.03-.08.03-.04 0-.07.02-.1.05-.05.05-.06.07-.06.16 0 .1 0 .12.04.15.05.05.1.04.12-.03.02-.07.05-.07.09-.01.04.05.14.08.18.05.02 0 .05-.02.06-.04.13-.13.18-.14.3-.13l.13.02c.05.02-.03.1-.15.17-.11.06-.14.1-.14.16l-.04.08c-.1.08-.1.16-.05.28.08.15.13.17.15.06.01-.1.02-.1.12-.1.06 0 .07 0 .13-.06l.13-.12.13-.13a.6.6 0 0 1 .46-.25l.21.05c.11.04.18.05.24.05.09 0 .1 0 .12-.07.04-.07.02-.07.18-.03.03 0 .04 0 .04-.05 0-.07-.06-.18-.11-.2a.65.65 0 0 0-.25-.01.8.8 0 0 1-.26-.01c-.07-.02-.08-.04-.04-.07l.1-.13.1-.13.13-.16.1-.14a4.23 4.23 0 0 0 .27-.34l.04-.04.04.1c.05.1.09.12.13.07.02-.03.03-.03.06 0 .05.06.07.04.08-.1a1 1 0 0 1 .14-.45c.06-.1.08-.12.1-.06a1 1 0 0 1-.09.55.39.39 0 0 1-.25.22c-.32.11-.44.2-.6.48-.08.15-.05.16.18.07a.8.8 0 0 1 .3-.04c.18 0 .2 0 .28-.05a.7.7 0 0 1 .1-.05c.02 0 .01.17-.01.34-.04.28-.15.56-.28.68-.42.39-.5.54-.5.92 0 .23 0 .33.04.33.02 0 .06-.05.1-.11l.1-.14a3.35 3.35 0 0 0 .75-1.3c.02-.08.04-.02.06.21.04.37 0 .72-.13 1.05-.05.12-.14.28-.2.35-.06.06-.08.11-.04.11l.15-.03a.5.5 0 0 1 .14-.03l.1.29a9.69 9.69 0 0 0 .18.45c.02 0 .05-.07.17-.45l.1-.29s.07 0 .14.03l.15.03c.04 0 .02-.06-.03-.1a1.83 1.83 0 0 1-.35-1.01 2.8 2.8 0 0 1 .04-.64c.01-.01.04.04.07.15.14.42.4.85.72 1.18l.1.14c.05.07.08.11.1.11.03 0 .04-.1.04-.33 0-.38-.08-.54-.5-.92-.1-.1-.13-.14-.22-.4a1.98 1.98 0 0 1-.09-.62l.1.04c.1.05.12.06.3.06.16 0 .2 0 .3.04.23.09.26.07.17-.07-.15-.27-.27-.37-.6-.48a.4.4 0 0 1-.25-.22 1 1 0 0 1-.08-.55c.01-.06.03-.05.1.06a1 1 0 0 1 .14.44c0 .15.03.17.08.12.02-.04.03-.04.06-.01.04.04.08.02.1-.04l.05-.1.03-.03.05.06.1.13.2.26.14.17a6.68 6.68 0 0 0 .27.36l-.06.03a.84.84 0 0 1-.26 0c-.16 0-.2 0-.25.02-.05.03-.11.14-.1.2 0 .03.01.04.05.03.13-.01.13 0 .16.05l.02.06h.11c.09 0 .16-.02.25-.05a.5.5 0 0 1 .35-.02c.11.04.21.11.3.23.04.05.1.11.15.14s.09.07.11.1c.04.07.05.07.12.07.1 0 .13 0 .13.07 0 .06.01.1.04.1s.12-.15.14-.22a.28.28 0 0 0-.08-.22c-.02-.01-.04-.04-.04-.06 0-.06-.03-.1-.12-.14-.1-.06-.2-.15-.2-.18l.13-.02c.12-.02.2 0 .27.08.1.09.13.11.15.11.04 0 .15-.05.16-.08.01-.05.06-.04.08.02.05.12.16.05.16-.1 0-.15-.06-.23-.17-.23-.04 0-.05 0-.07-.04 0-.03-.03-.04-.05-.04a.78.78 0 0 1-.28-.12c-.07-.05-.07-.06-.05-.09a.08.08 0 0 0 .02-.07c-.02-.06.01-.07.13-.06.11 0 .12 0 .06-.1-.04-.07-.16-.16-.22-.16-.01 0-.03-.02-.04-.05a9.1 9.1 0 0 1-.1-.68l-.11-.89c-.02-.15-.04-1.16-.03-1.14l.17.51c.32 1 .51 1.47.71 1.75.06.1.25.24.4.3.12.06.3.09.32.05l-.21-.6-.27-.78a7.7 7.7 0 0 1-.22-1.17 2.87 2.87 0 0 0-.14-.63l-.05-.14.05.06c.03.03.09.1.13.17l.12.16.1.12c.15.2.26.29.47.4.11.05.14.05.29.06s.16 0 .16-.02a85.65 85.65 0 0 1-1.22-2.2l.1.08c.17.17.26.23.43.32.09.05.1.05.3.05.18 0 .2 0 .3-.05.11-.05.15-.1.12-.14 0-.01-.12-.1-.25-.18s-.29-.2-.34-.25l-.22-.2a2.3 2.3 0 0 0-.3-.25l-.06-.06.06.01.33.02h.27l.15-.08c.11-.05.18-.1.27-.19.16-.16.18-.25.05-.23l-.25-.01c-.4-.06-.86-.19-1.54-.41-.34-.11-.4-.13-.5-.13a.47.47 0 0 0-.17.02.85.85 0 0 0-.24.27c-.06.1-.04.26.04.39.09.14.27.28.46.33.05.02.01.33-.05.46-.06.12-.09.13-.32.12-.18-.01-.2-.01-.28.02-.15.07-.17.15-.13.42.02.18.02.19-.01.21-.04.03-.2.06-.42.08l-.13.01v-.06c.01-.07.01-.07-.07-.1-.08-.05-.1-.08-.05-.08.03 0 .03-.06 0-.08a1.19 1.19 0 0 1-.12-.36v-.15l.02-.05.02.06c.02.05.06.07.08.04l.04-.17.04-.17.09.04c.05.02.08.06.1.06.01 0 0-.1-.04-.29l-.04-.14.07-.01c.11 0 .14-.07.05-.15l-.05-.05.08-.04c.1-.06.16-.13.13-.16-.02-.02-.05-.03-.09-.03a.13.13 0 0 1-.1-.04c-.03-.03-.03-.04-.01-.04.03 0 .08-.06.07-.1l-.06-.04a.35.35 0 0 1-.08-.05c-.05-.03-.05-.03-.02-.07.05-.05.03-.09-.06-.13l-.08-.06.04-.05a.57.57 0 0 0 .07-.09c.03-.04.03-.04 0-.05l-.17.01-.14.03-.13-.04a2.43 2.43 0 0 0-.65-.08zm-.92 4.43c.01 0 .03.1.06.36.08.55.08.5.04.63a.74.74 0 0 1-.13.28l-.36.35c-.02 0-.02.06 0 .08.02.02.02.04-.01.08l-.04.05.04.04.05.03-.15.2a53.46 53.46 0 0 0-.52.72l-.04.05-.07-.14-.07-.15-.22-.08-.25-.08a.16.16 0 0 1-.06-.03l-.04-.03.07-.02c.3-.08.52-.3.72-.7a4.24 4.24 0 0 0 .34-1.3l.03.17c.03.3.1.73.12.75.02.02.18-.07.25-.14.03-.03.08-.1.1-.16.05-.1.06-.13.08-.45a16.26 16.26 0 0 1 .06-.51zm1.93 0l.02.04.02.3c.04.48.05.52.1.63l.11.15c.09.08.22.15.24.13.01-.01.06-.3.1-.63.04-.24.05-.3.07-.2.04.3.07.42.1.55.11.49.32.93.54 1.14.1.1.33.23.4.23.05 0 .05.02.02.04l-.26.1-.27.1c-.02.01-.06.08-.08.14l-.07.13a13.23 13.23 0 0 0-.61-.8l-.09-.13c-.01-.02 0-.04.02-.06l.04-.03-.04-.05c-.03-.04-.03-.06-.01-.08.02-.02.02-.08 0-.08-.01 0-.28-.26-.36-.36a.74.74 0 0 1-.13-.27c-.04-.12-.03-.3.02-.35.01-.02.04-.13.06-.31.03-.23.05-.33.06-.33zm1.55 2.78l.07.02c.09.03.1.02-.07.08l-.09.03c-.02 0 0-.03.04-.08l.05-.05zm-5.07 0c.02 0 .04.02.06.05l.04.06v.02a1.2 1.2 0 0 1-.2-.08s.01-.02.05-.03l.05-.01z"/><path fill="#000" d="M20.56 8.86a.54.54 0 0 0-.19.03.18.18 0 0 0-.06.06c-.02.02-.06.03-.19.05-.1 0-.2.03-.23.05a.45.45 0 0 0-.19.2c-.01.05 0 .21.02.27s-.04.03-.06-.03c-.05-.14-.08-.18-.11-.2-.16-.07-.25.06-.16.23.1.19.23.28.4.29.1 0 .13 0 .09.03-.02.02-.02.04 0 .07.03.02.06.02.16.01.1 0 .14 0 .31.06l.2.06.03.08c.03.07.03.08 0 .1-.01.02-.15.1-.3.18l-.28.17c0 .03.08.06.16.06s.06.02-.17.15c-.1.06-.14.1-.14.13 0 .02.05.06.1.06.02 0 .03.01.03.02l-.13.15c-.1.1-.14.15-.13.17 0 .03-.01.05-.08.08-.08.04-.1.08-.06.12.04.04-.05.05-.27.02a1.69 1.69 0 0 1-.26-.05c-.04-.02-.05-.06-.02-.28.02-.14.02-.17 0-.24-.03-.06-.05-.08-.12-.12-.09-.04-.1-.04-.3-.03l-.21.01-.06-.06c-.06-.07-.1-.2-.12-.39l-.01-.12.06-.02c.29-.1.48-.3.5-.53 0-.1 0-.12-.06-.24a.36.36 0 0 0-.16-.18c-.09-.06-.1-.06-.24-.05a.75.75 0 0 0-.3.06c-.17.07-.24.09-.74.24a4.73 4.73 0 0 1-1.31.26c-.04.1.27.38.52.46.1.03.15.03.37.02l.28-.02c.05-.02.03.02-.02.05a4.29 4.29 0 0 1-.88.72c-.13.08-.24.17-.24.18 0 .04.04.09.14.13.08.04.12.04.3.04h.2l.13-.07c.14-.07.2-.12.37-.27.05-.05.1-.1.1-.08a59.72 59.72 0 0 1-1.22 2.18c.01.02.04.02.18.02.16-.01.17-.01.32-.1.19-.09.34-.23.49-.42.2-.26.3-.4.31-.43.04-.06.04 0 0 .08-.04.1-.1.36-.13.51l-.05.38a6.58 6.58 0 0 1-.6 2.08c-.04.13-.08.24-.07.25.02.03.2 0 .34-.06a.95.95 0 0 0 .31-.22c.22-.23.46-.8.86-2.08l.1-.3a13.72 13.72 0 0 1-.29 2.8c-.08 0-.2.08-.25.16-.04.1-.03.11.05.1h.11c.04.02.05.03.05.07v.09c.02.03-.14.14-.27.17-.07.01-.1.03-.1.06-.02.03-.03.03-.08.03s-.07.02-.11.05c-.05.05-.05.07-.05.16 0 .1 0 .12.04.15.05.05.1.04.11-.03.03-.07.06-.07.1-.01.03.05.14.08.18.05.02 0 .04-.02.06-.04.13-.13.18-.14.3-.13l.13.02c.04.02-.03.1-.15.17-.11.06-.14.1-.14.16 0 .02-.02.05-.05.08-.08.08-.1.16-.04.28.08.15.13.17.14.06.02-.1.03-.1.13-.1.06 0 .07 0 .13-.06l.13-.12.13-.13a.6.6 0 0 1 .45-.25l.22.05c.11.04.18.05.24.05.08 0 .1 0 .12-.07.04-.07.02-.07.18-.03.03 0 .04 0 .04-.05 0-.07-.06-.18-.12-.2a.65.65 0 0 0-.24-.01c-.19.01-.32 0-.32-.04 0-.02.18-.26.23-.3l.12-.16.1-.14a4.23 4.23 0 0 0 .27-.34l.04-.04.04.1c.05.1.09.12.13.07.02-.03.03-.03.06 0 .05.06.07.04.08-.11.01-.2.1-.43.2-.52.02-.03.03-.03.04.02a1 1 0 0 1-.09.55.39.39 0 0 1-.25.22c-.32.11-.45.2-.6.48-.08.15-.05.16.18.07a.8.8 0 0 1 .3-.04c.18 0 .2 0 .28-.05a.7.7 0 0 1 .1-.05c.02 0 .01.17-.01.35-.04.27-.15.55-.28.67-.42.39-.5.54-.5.92 0 .24 0 .33.04.33.01 0 .06-.05.1-.11l.1-.14a3.35 3.35 0 0 0 .75-1.3c.02-.08.04-.01.06.21.03.26.01.54-.04.72a1.5 1.5 0 0 1-.3.67c-.05.07-.07.12-.03.12l.15-.03a.5.5 0 0 1 .14-.03l.1.29.12.36c.02.05.04.1.06.1.02 0 .05-.08.17-.46l.1-.29.14.03.15.03c.04 0 .02-.05-.03-.1a1.83 1.83 0 0 1-.35-1.01c0-.19.02-.59.04-.63.01-.02.04.03.07.14.14.42.4.85.72 1.18l.1.14c.04.07.08.11.1.11.03 0 .04-.1.04-.33 0-.38-.08-.53-.5-.92-.1-.09-.13-.14-.22-.4a1.98 1.98 0 0 1-.09-.62l.1.04c.1.05.12.06.3.06.16 0 .2 0 .3.04.22.09.26.08.17-.07-.15-.27-.27-.37-.6-.48a.4.4 0 0 1-.25-.22 1 1 0 0 1-.08-.55c.01-.06.03-.05.1.06a1 1 0 0 1 .13.44c.02.15.04.17.09.12.02-.04.03-.04.05-.01.05.04.1.02.11-.04l.05-.1.03-.03.05.06.1.13.2.26.14.17a6.68 6.68 0 0 0 .27.36l-.06.03a.84.84 0 0 1-.26 0c-.16 0-.21 0-.25.02-.05.03-.11.14-.1.2 0 .03.01.04.05.04.13-.02.13-.02.15.04l.02.06h.12c.09 0 .16-.01.25-.05a.5.5 0 0 1 .35-.02c.11.04.21.11.3.23l.14.14c.04.03.1.07.12.1.04.07.05.07.12.07.1 0 .12 0 .12.07 0 .06.02.1.05.1.03 0 .12-.15.14-.22a.28.28 0 0 0-.09-.22l-.03-.06c0-.06-.03-.1-.12-.14-.1-.06-.2-.15-.2-.18l.13-.02c.12-.02.2 0 .27.08l.14.11c.05 0 .16-.05.17-.08.01-.05.06-.04.08.02.05.12.16.05.16-.1 0-.15-.06-.23-.17-.23-.04 0-.05 0-.07-.04 0-.03-.03-.04-.05-.04a.78.78 0 0 1-.28-.12c-.07-.05-.08-.06-.05-.08a.08.08 0 0 0 .02-.08c-.02-.05.01-.07.13-.06.11 0 .12 0 .06-.1-.04-.07-.16-.15-.22-.15-.02 0-.03-.03-.04-.06a8.3 8.3 0 0 1-.14-1.01c-.08-.56-.1-.95-.1-1.39v-.32l.07.2c.17.53.4 1.23.5 1.45.09.24.22.5.3.62.07.1.26.24.41.3.12.06.3.09.32.05l-.21-.6-.27-.78a7.7 7.7 0 0 1-.22-1.17 2.87 2.87 0 0 0-.14-.63l-.05-.14.05.06c.03.03.09.1.13.17l.12.16.1.12c.15.2.26.29.47.4.11.05.14.05.29.06s.16 0 .16-.02a85.65 85.65 0 0 1-1.22-2.2l.1.08c.17.17.26.23.43.32.09.05.1.05.3.05.18 0 .2 0 .3-.05.11-.05.15-.1.12-.14 0-.01-.12-.1-.25-.18s-.29-.2-.34-.25l-.22-.2a2.3 2.3 0 0 0-.3-.25l-.06-.06.06.01.33.02h.27l.15-.08c.11-.05.18-.1.27-.19.16-.16.18-.25.05-.23a3.5 3.5 0 0 1-.7-.1c-.34-.08-.94-.26-1.3-.4a.7.7 0 0 0-.29-.05c-.08 0-.15 0-.17.02a.84.84 0 0 0-.24.27c-.06.1-.04.26.04.39.09.14.27.28.46.33.05.02.01.32-.05.46-.06.12-.1.13-.32.12-.18-.01-.2-.01-.28.02-.15.07-.17.15-.13.42.02.18.02.19-.01.21-.04.03-.2.06-.42.08l-.13.01v-.06c.01-.07.01-.07-.07-.1-.08-.05-.1-.08-.05-.08.03 0 .03-.06 0-.08a1.19 1.19 0 0 1-.12-.36v-.15l.02-.05.02.06c.02.05.06.07.08.04l.04-.18.04-.16.09.05c.05.03.08.04.1.03l-.07-.39c0-.03 0-.04.06-.04.11 0 .14-.07.05-.14l-.05-.05.08-.04c.1-.06.16-.13.13-.17l-.09-.02a.13.13 0 0 1-.1-.04c-.03-.04-.03-.05-.01-.05.03 0 .08-.05.07-.08 0-.02-.03-.04-.06-.05l-.08-.05c-.05-.03-.05-.04-.02-.07.05-.05.03-.09-.06-.13l-.08-.06.04-.05a.57.57 0 0 0 .07-.09c.03-.04.03-.05 0-.06-.01 0-.09 0-.17.02l-.14.03-.13-.04a2.43 2.43 0 0 0-.65-.08zm-.04.1h.23c.25.02.4.05.47.09l.12.02c.09 0 .09 0 .08.05-.01.05 0 .07.07.1.06.04.07.07.04.1-.02.01 0 .04.05.1.06.06.07.07.05.1-.02.06-.03.05.06.15.1.1.1.13 0 .13-.07-.01-.08.04-.02.12l.04.07h-.1l-.1-.01s0 .03.03.06c.04.04.12.23.1.26l-.04-.02c-.05-.04-.08-.02-.1.1l-.04.1-.04-.04c-.03-.05-.05-.03-.1.14a.79.79 0 0 0 0 .43c.05.17.05.16-.01.17l-.06.02.05.1c.05.06.06.1.05.12 0 .05.03.08.12.1.13.03.16.37.1.98l-.07.51-.06.49-.07.34a.9.9 0 0 0-.06.32c0 .07.07.3.12.36.05.09.24.3.3.36.06.04.06.05.04.09-.02.03-.01.04.02.07l.03.06-.13.06a.65.65 0 0 0-.2.1c-.06.05-.1.07-.13.07-.05 0-.06 0-.1-.13a1.47 1.47 0 0 0-.07-.2c-.05-.11-.25-.36-.28-.35-.04.01-.05.5-.01.65.03.12.1.28.16.35.05.05.14.1.26.13a.8.8 0 0 1 .43.3c.03.05.02.06-.04.04a1.16 1.16 0 0 0-.25-.02h-.2l-.16-.1c-.14-.08-.2-.1-.2-.07l.02.08.03.3c.02.2.03.27.07.4.1.27.16.38.26.47.32.3.4.4.45.6.02.09.03.32 0 .33l-.35-.42a3.22 3.22 0 0 1-.48-1.02c-.07-.24-.11-.23-.17.05-.03.15-.04.23-.04.55 0 .35 0 .38.05.55a1.76 1.76 0 0 0 .21.54c0 .01-.03.02-.08.02h-.08l-.1.28c-.04.15-.1.28-.1.28l-.11-.28-.1-.29h-.16l.08-.17c.04-.08.1-.24.13-.36.05-.2.05-.2.05-.57 0-.32 0-.4-.04-.56-.05-.27-.1-.28-.17-.04a3.2 3.2 0 0 1-.83 1.44c-.03 0-.02-.24 0-.34.06-.19.14-.3.46-.59.15-.14.3-.5.31-.79.01-.17.04-.35.06-.44.01-.06-.03-.05-.2.05l-.15.1h-.2c-.11 0-.23 0-.25.02-.06.02-.08.01-.04-.04a.8.8 0 0 1 .43-.3.57.57 0 0 0 .25-.13c.06-.07.14-.23.17-.35.04-.15.02-.64-.02-.65a1.6 1.6 0 0 0-.28.34l-.07.21c-.04.12-.04.13-.1.13-.03 0-.07-.02-.12-.06a.65.65 0 0 0-.2-.11l-.14-.06.04-.06c.03-.03.03-.04.01-.07-.02-.04-.01-.05.04-.1.07-.04.26-.26.3-.35.05-.06.12-.3.12-.36l-.08-.65-.14-1.04a4.03 4.03 0 0 1 0-.81c.01-.04.04-.1.07-.12s.05-.06.05-.07c0-.01.03-.04.07-.05.07-.03.09-.07.04-.08-.04-.02-.03-.05.05-.12.08-.09.25-.3.25-.33 0-.01-.01-.02-.03-.02-.07 0-.04-.04.09-.12l.15-.12c.05-.05.03-.09-.03-.1-.03 0-.06 0-.06-.02s.08-.05.17-.1c.09-.05.19-.1.21-.14l.05-.05-.03-.08c-.05-.13-.05-.13 0-.16a.2.2 0 0 0 .1-.22 1.58 1.58 0 0 0-.34-.6c-.09-.1-.1-.15-.01-.2a.2.2 0 0 1 .09 0zm-.24.12l.08.1c.2.23.35.49.35.59 0 .06-.01.06-.07-.03-.14-.21-.53-.36-.74-.3-.1.04-.11.03-.11-.09 0-.17.1-.24.35-.26h.14zm-1.94.23c.1 0 .17.04.23.1.12.14.14.33.04.46a.73.73 0 0 1-.34.25c-.15.05-.17.08-.14.29.02.2.04.26.1.36.09.14.12.15.38.14.18-.01.22 0 .26.01.09.05.09.07.05.45-.01.1-.01.11.04.16s.17.08.43.1l.16.01v.77a9.2 9.2 0 0 1-.11 1.73c-.02.1-.16.27-.2.26-.03 0-.05-.14-.13-.72-.1-.67-.1-.71-.14-.71s-.03.01-.04.24c-.05.93-.28 1.7-.62 2.07a1.3 1.3 0 0 1-.19.17l-.11.05c-.07.03-.07 0-.05-.14l.14-1.14a10.97 10.97 0 0 0 .03-1.75c-.05-.01-.07.06-.27.69-.48 1.5-.66 1.92-.98 2.12-.1.07-.26.13-.28.11l.1-.33a9 9 0 0 0 .37-1.03c.05-.2.13-.67.18-1.03.05-.42.08-.53.29-1 .08-.2.11-.3.1-.3 0-.01-.03-.02-.04-.01l-.37.47c-.4.53-.5.65-.66.75-.16.1-.4.18-.4.13l.28-.48a67.27 67.27 0 0 0 1.05-1.9c.03-.07.02-.1-.05-.2-.03-.03-.03-.06-.02-.12 0-.06 0-.08-.02-.1-.03-.03-.04 0-.05.11-.01.09 0 .1.03.17l.05.08a3.94 3.94 0 0 1-.73.62c-.12.06-.14.06-.28.06-.15 0-.28-.03-.3-.07l.14-.1c.21-.14.36-.26.58-.46a4.07 4.07 0 0 1 .54-.46c.03-.04.03-.05 0-.07-.02-.02-.06-.01-.2.02-.16.03-.23.03-.43.03-.23 0-.26-.01-.34-.05-.11-.06-.3-.2-.3-.23a9.73 9.73 0 0 0 1.94-.52c.12-.04.2-.06.28-.06zm4.52 0c.09 0 .22.04.54.15a8.37 8.37 0 0 0 1.69.42c.01.03-.17.17-.28.23l-.11.05h-.28c-.22 0-.32 0-.43-.03-.12-.03-.15-.03-.17-.01s-.03.03-.01.06a4.5 4.5 0 0 1 .52.45c.25.23.32.28.56.44.1.07.19.13.18.14 0 .04-.14.07-.28.07-.24 0-.32-.04-.78-.44-.12-.1-.22-.2-.23-.22s.01-.06.04-.11c.05-.08.05-.1.04-.16-.01-.1-.04-.13-.07-.1-.01 0-.02.03-.01.08 0 .07 0 .1-.05.17-.05.1-.05.1-.02.15l.03.07a43.52 43.52 0 0 0 1.29 2.32c0 .04-.13 0-.29-.07-.2-.1-.33-.23-.75-.8-.35-.46-.42-.54-.42-.45 0 .02.05.16.12.31.2.48.21.53.3 1.12.09.71.15.96.47 1.8.09.23.15.43.15.44-.02.02-.14-.02-.25-.08-.2-.12-.34-.32-.5-.67-.1-.22-.33-.9-.44-1.25a10.6 10.6 0 0 0-.3-.9c-.02-.02-.04-.02-.06-.02-.02.01-.03.06-.02.64a15.2 15.2 0 0 0 .22 2.4c0 .02-.02.02-.11-.03-.12-.05-.28-.2-.38-.35a3.91 3.91 0 0 1-.48-1.83 2.32 2.32 0 0 0-.04-.33c-.03-.05-.06.04-.1.36a4.8 4.8 0 0 1-.18 1.07c-.04 0-.15-.12-.19-.2a2.08 2.08 0 0 1-.08-.58l-.06-.71a2.31 2.31 0 0 1 0-.49c.03-.29.03-.51.02-.68v-.1l.16-.01c.2-.01.34-.04.4-.08.06-.03.08-.08.06-.21-.03-.34-.03-.32.01-.38l.05-.05h.24c.23 0 .25 0 .3-.03.12-.1.18-.25.2-.51.02-.19 0-.2-.15-.25-.11-.03-.13-.05-.25-.17-.12-.11-.13-.13-.15-.21a.4.4 0 0 1 .23-.41.24.24 0 0 1 .1-.02zm-3.38.05h.02l.04.08c.04.15.15.24.29.24l.24-.03c.27-.06.27-.06.27-.03 0 .02-.04.03-.15.06-.38.09-.56.05-.69-.15-.05-.09-.06-.16-.02-.17zm.74.39l.12.02c.17.03.32.1.32.12 0 .02-.02.04-.04.04l-.05.02a3.12 3.12 0 0 0-.5-.15c0-.01.03-.03.07-.04l.08-.01zm-.58 3.54s.03.09.06.36c.08.55.08.51.04.63a.74.74 0 0 1-.13.28c-.08.1-.35.35-.36.35-.02 0-.02.06 0 .08.02.02.02.04-.01.08l-.04.05.04.04.05.04-.15.2a53.46 53.46 0 0 0-.52.71l-.04.05-.07-.14-.07-.15-.22-.08-.25-.08a.16.16 0 0 1-.06-.03l-.04-.03.07-.02c.3-.08.52-.3.72-.7a4.24 4.24 0 0 0 .34-1.3l.03.17c.04.3.1.73.12.75.02.02.18-.07.25-.14.03-.03.08-.1.1-.16.06-.1.06-.13.09-.45a10.98 10.98 0 0 1 .05-.51zm1.93 0l.02.04.02.3c.04.48.05.52.1.63a.6.6 0 0 0 .25.25c.05.03.09.04.1.03a3 3 0 0 0 .1-.58l.04-.28c.02-.04.02 0 .07.27.1.62.33 1.19.6 1.45.1.1.33.23.4.23.04 0 .05.02.02.04l-.26.1-.27.1-.09.14-.06.13a13.23 13.23 0 0 0-.61-.8l-.09-.13c-.01-.02 0-.03.02-.06l.04-.03-.04-.05c-.03-.04-.03-.06-.01-.08.02-.02.02-.08 0-.08l-.36-.35a.74.74 0 0 1-.13-.28c-.04-.12-.03-.3.02-.35.01-.02.04-.13.06-.3.03-.24.05-.34.06-.34zm.2 1.93c.02 0 .06.04.13.13l.4.55.3.4c.04 0 .08-.07.14-.21l.08-.14.2-.08.2-.06.04.05c.08.07.1.1.06.14-.02.02-.03.02-.09 0-.1-.03-.17-.02-.2.01-.05.05-.17.3-.15.32.01.02.14-.01.34-.1l.17-.06.1.05.15.09c.05.02.06.03.07.15 0 .13 0 .17-.05.14l-.13-.1c-.1-.07-.1-.08-.22-.07-.16 0-.38.03-.38.06-.01.03.2.23.3.3.06.02.1.06.1.07l-.04.08a.18.18 0 0 0-.04.1c0 .06-.04.06-.09 0l-.1-.1a.6.6 0 0 1-.13-.13.7.7 0 0 0-.36-.25.47.47 0 0 0-.36.01.74.74 0 0 1-.26.07l.05-.1c.06-.08.06-.08.16-.08.12 0 .24-.06.24-.11 0-.04-.15-.24-.65-.87l-.14-.2c0-.01.11-.06.16-.06zm-2.36 0c.05 0 .14.03.15.06 0 .01-.17.25-.39.53-.27.34-.4.52-.4.54.02.05.15.1.26.1.1 0 .1 0 .16.1.03.04.05.08.04.09a.82.82 0 0 1-.28-.08.34.34 0 0 0-.2-.03c-.19.02-.42.14-.5.28-.02.04-.07.1-.11.12s-.1.08-.12.1c-.06.07-.08.07-.08 0l-.04-.1-.04-.07c0-.02.04-.05.09-.07.1-.07.33-.29.3-.31a1.38 1.38 0 0 0-.38-.05c-.11 0-.14 0-.26.1-.14.12-.15.1-.13-.08.01-.1.02-.12.06-.14l.15-.08.1-.06.18.07c.2.08.32.11.34.1.02-.02-.07-.2-.13-.3-.04-.05-.06-.06-.12-.06l-.1.02c-.05.02-.12 0-.12-.03l.07-.1.06-.06.19.06.2.09s.07.1.1.18l.11.16c.02 0 .17-.2.41-.52a17.85 17.85 0 0 1 .43-.56zm3.7.85l.08.02c.09.03.1.02-.07.08l-.09.03c-.02 0 0-.03.04-.08l.05-.05zm-5.05 0c.02 0 .03.02.05.05l.04.06v.02a1.2 1.2 0 0 1-.2-.08s.01-.02.05-.03l.05-.01z"/><path fill="#e7e7e7" d="M20.87 9.4c-.05-.02-.07-.11-.03-.16.02-.03.12-.02.15 0s.03.12 0 .15c-.02.02-.08.03-.12.02z"/><path fill="#000" d="M17.8 17.09c.06-.04.07-.08.03-.1-.03-.01-.1.05-.1.1 0 .04.02.04.08 0zm5.65.01c0-.05-.05-.11-.08-.11-.04 0-.05.05 0 .09.04.05.08.05.08.01zm-4.09-.6c.08-.02.07-.05-.01-.05-.07 0-.1.03-.1.06.02.02.03.02.1 0zm2.57 0c0-.03-.1-.07-.14-.05-.04.01-.03.04.03.06.07.02.1.01.1-.02zm-4.54-.02v-.04c0-.05-.11-.05-.15 0a.14.14 0 0 0-.03.06c0 .01.15 0 .18-.02zm6.59.02l-.03-.05c-.02-.03-.04-.04-.1-.04-.07 0-.1.02-.06.06.02.03.19.05.19.03zm-6.13-.69c.04-.04.01-.07-.07-.06-.08 0-.1.04-.03.07.06.03.06.03.1 0zm5.58.01c.07-.03.06-.07-.02-.07s-.1.01-.08.06c.02.05.04.05.1.01zm-4.35-2.85c0-.05.1-.11.18-.12.1-.02.22.02.23.06 0 .03 0 .03-.05.03-.15-.04-.2-.04-.26 0-.07.06-.1.07-.1.03zm-.31-.12a.3.3 0 0 1-.01-.06.9.9 0 0 0-.2-.19.6.6 0 0 0-.17-.01c-.14 0-.17-.01-.14-.05.02-.03.28-.03.34 0 .09.04.23.19.24.26.02.09-.02.13-.06.05zm-.73-.53l-.01-.04a.96.96 0 0 0-.04-.14c-.04-.14-.12-.23-.21-.26-.09-.02-.1-.07 0-.06.09 0 .15.04.21.13s.11.27.1.33c0 .04-.03.06-.05.04zm-.42-.82v-.22c0-.24-.01-.3-.1-.38-.05-.04-.06-.05-.04-.07.03-.03.12.04.17.12.03.07.04.1.04.3 0 .17 0 .22-.03.24-.03.03-.04.03-.04.01zm-.29-1.5c-.06-.05-.1-.25-.04-.29.03-.02.05.01.04.09l.03.12c.03.08.02.12-.03.08zm4.69 2.95c-.07-.05-.13-.05-.22-.02-.06.03-.1.02-.08-.03.01-.03.11-.06.2-.06.07 0 .16.04.19.09.05.07 0 .08-.09.02zm.35-.08c-.04-.06.1-.26.24-.32.08-.04.31-.05.34-.01s0 .04-.12.04a.7.7 0 0 0-.17.02c-.06.03-.2.16-.22.22s-.05.08-.07.05zm.75-.56c-.02-.02.02-.2.07-.3a.54.54 0 0 1 .1-.14c.05-.05.17-.08.2-.06.04.02 0 .06-.07.07-.1.02-.23.22-.23.35 0 .07-.05.12-.07.08zm.42-.83c-.02-.03-.02-.09-.02-.24 0-.18 0-.21.04-.29.04-.09.13-.15.16-.12.02.01 0 .04-.05.1-.08.1-.1.14-.08.38v.2l-.05-.03zm.29-1.48c0-.01 0-.05.03-.09a.2.2 0 0 0 .02-.13v-.07c.03-.02.06.03.07.1.01.1-.1.26-.12.19zm-3.77-.43c.04 0 .07-.02.07-.03 0-.02-.18-.02-.22 0-.05.03-.04.06.02.05l.13-.02z"/><path fill="#fcdd09" d="M14.25 19.62a.54.54 0 0 0-.19.02.18.18 0 0 0-.07.06c0 .02-.05.03-.18.05-.1 0-.2.03-.24.05-.08.04-.17.14-.18.2-.01.05 0 .21.02.28s-.04.02-.06-.04c-.06-.14-.08-.18-.12-.2-.15-.07-.24.06-.15.23.1.19.23.29.4.29.1 0 .12.01.09.03-.03.02-.02.04 0 .07.02.02.06.02.15.01.11 0 .15 0 .32.06l.2.06.03.08c.03.07.03.08 0 .1l-.3.18a1.5 1.5 0 0 0-.28.17c0 .03.08.06.15.06.1 0 .07.02-.16.15-.1.06-.15.1-.15.13s.06.06.1.06l.04.02-.14.16c-.1.1-.13.14-.13.16.01.03 0 .05-.07.08-.09.04-.1.08-.07.12.04.04-.04.05-.27.02a1.69 1.69 0 0 1-.26-.05c-.04-.02-.04-.05 0-.28 0-.14 0-.16-.02-.23s-.04-.09-.12-.13c-.08-.04-.09-.04-.3-.03l-.2.01-.06-.05c-.06-.07-.1-.22-.12-.4L11.9 21l.06-.02c.29-.1.47-.3.5-.53 0-.1 0-.12-.06-.24-.06-.1-.08-.13-.16-.18-.09-.06-.1-.06-.25-.05a.75.75 0 0 0-.28.06c-.18.07-.25.1-.75.24a4.73 4.73 0 0 1-1.31.26c-.04.11.27.38.52.46.1.03.15.03.37.02l.28-.02c.05-.02.03.02-.02.05a4.29 4.29 0 0 1-.88.72c-.13.08-.24.17-.24.18 0 .04.04.09.14.13.07.04.11.04.29.04h.2l.14-.07c.14-.07.2-.12.37-.27l.1-.08a59.72 59.72 0 0 1-1.22 2.18c.01.02.04.02.18.02.16-.01.17-.01.32-.1.19-.09.34-.23.48-.42l.32-.43c.04-.06.04 0 0 .08-.04.1-.11.36-.13.51l-.06.38a6.58 6.58 0 0 1-.59 2.08.76.76 0 0 0-.07.25c.02.03.2 0 .34-.06.27-.13.37-.25.55-.59.15-.3.33-.8.57-1.55l.14-.44c.03-.05 0 1.02-.05 1.36a34.9 34.9 0 0 1-.19 1.37c0 .05 0 .05-.04.05-.08 0-.2.08-.25.16-.04.1-.03.11.05.1h.11c.04.02.05.03.04.07 0 .03 0 .07.02.09.01.03-.15.14-.28.17-.07.01-.1.03-.1.06-.02.03-.03.03-.08.03s-.08.02-.11.05c-.05.05-.05.07-.05.16 0 .1 0 .12.04.15.05.05.09.04.11-.03.03-.07.06-.07.1-.01.03.05.14.08.18.05.02 0 .04-.03.06-.04.13-.13.18-.15.3-.13l.13.02c.04.01-.03.1-.15.17-.12.06-.15.1-.15.16 0 .02-.01.05-.04.08-.08.08-.1.16-.04.28.08.15.13.17.14.05.02-.09.03-.1.12-.1.07.01.08 0 .14-.05.03-.04.09-.1.13-.12s.1-.09.12-.13a.6.6 0 0 1 .46-.25l.22.05c.11.04.17.05.24.05.08 0 .09 0 .12-.07s.02-.07.18-.03c.03 0 .03 0 .03-.05 0-.07-.05-.18-.1-.2a.65.65 0 0 0-.25-.01.8.8 0 0 1-.26-.01c-.07-.02-.08-.04-.04-.07 0-.02.05-.07.1-.13l.1-.13.13-.16.1-.14a4.23 4.23 0 0 0 .27-.34l.04-.04.04.1c.04.1.09.12.13.07.02-.03.03-.03.06 0 .05.06.07.04.08-.1a1 1 0 0 1 .13-.45c.07-.1.1-.12.1-.06a1 1 0 0 1-.08.55.4.4 0 0 1-.25.22c-.33.11-.45.2-.6.48-.08.15-.05.16.17.07.1-.03.15-.04.31-.04.18 0 .2 0 .28-.05a.7.7 0 0 1 .1-.05c.02 0 .01.17-.01.35-.04.27-.15.55-.28.67-.42.39-.5.54-.5.92 0 .24 0 .33.04.33.01 0 .06-.05.1-.11l.1-.14a3.35 3.35 0 0 0 .75-1.3c.02-.08.04-.01.06.21.03.37-.01.73-.14 1.06-.04.11-.13.27-.2.34-.05.06-.07.11-.03.11l.15-.03a.5.5 0 0 1 .13-.03c.01 0 .06.14.1.29l.13.36.05.1c.03 0 .06-.08.18-.46l.1-.29.14.03.15.03c.04 0 .02-.05-.03-.1a1.83 1.83 0 0 1-.35-1.01 2.8 2.8 0 0 1 .04-.63c.01-.02.04.03.07.14.14.42.4.85.72 1.18l.1.14c.04.07.08.11.1.11.03 0 .04-.1.04-.33 0-.38-.08-.53-.5-.92-.1-.09-.13-.14-.22-.4a1.98 1.98 0 0 1-.09-.62l.1.04c.1.05.12.06.3.06.15 0 .2 0 .3.04.22.09.25.08.17-.07-.15-.27-.27-.37-.6-.48a.4.4 0 0 1-.25-.22 1 1 0 0 1-.08-.55c.01-.06.03-.05.1.06a1 1 0 0 1 .13.44c.01.15.03.17.08.12.03-.04.04-.04.06-.01.05.04.1.02.11-.04l.05-.1.03-.03.05.06.1.13.2.26.14.17a6.68 6.68 0 0 0 .27.36l-.06.03a.85.85 0 0 1-.26 0c-.16 0-.21 0-.25.02-.06.03-.11.14-.1.2 0 .03 0 .04.05.04.13-.02.13-.02.15.04l.02.06h.12a.5.5 0 0 0 .24-.05.5.5 0 0 1 .36-.02c.1.04.21.11.3.23l.14.14c.04.03.1.07.12.1.04.07.05.07.12.07.1 0 .12 0 .12.07 0 .06.02.1.05.1.03 0 .12-.15.13-.22a.28.28 0 0 0-.08-.22l-.03-.06c0-.06-.03-.1-.12-.14-.1-.06-.2-.15-.2-.18l.13-.02c.12-.02.2 0 .27.08l.14.11c.05 0 .16-.05.16-.08.02-.05.07-.04.1.02.04.12.15.05.15-.1 0-.15-.06-.23-.17-.23-.04 0-.05 0-.07-.04 0-.03-.03-.04-.05-.04a.78.78 0 0 1-.28-.12c-.07-.05-.08-.06-.05-.09a.08.08 0 0 0 .02-.07c-.02-.06 0-.07.13-.06.11 0 .11 0 .06-.1-.04-.07-.16-.16-.22-.16-.02 0-.03-.02-.04-.05a9.1 9.1 0 0 1-.1-.68l-.11-.89c-.02-.15-.05-1.16-.03-1.14l.17.51c.32 1 .51 1.47.7 1.75.07.1.26.24.4.3.13.06.3.09.33.05l-.21-.6c-.11-.33-.25-.68-.27-.78a7.7 7.7 0 0 1-.22-1.17 2.87 2.87 0 0 0-.14-.63l-.05-.14.05.06c.03.03.09.1.13.17l.12.16.1.12c.15.2.26.29.47.4.1.05.14.06.29.06s.16 0 .16-.02a80.9 80.9 0 0 1-1.22-2.2l.1.08c.17.17.26.23.43.32.08.05.1.05.3.05.18 0 .2 0 .3-.05.1-.05.15-.1.12-.14 0-.01-.12-.1-.25-.18s-.3-.2-.35-.25l-.21-.2a2.3 2.3 0 0 0-.3-.25l-.06-.06.05.01.34.02h.27l.15-.08a.8.8 0 0 0 .26-.2c.16-.15.19-.24.06-.22l-.25-.01c-.4-.06-.87-.19-1.55-.41a1.6 1.6 0 0 0-.5-.13.47.47 0 0 0-.17.02.85.85 0 0 0-.24.27c-.05.1-.04.26.04.39.1.14.28.28.47.33.05.02.01.33-.05.46-.06.12-.1.13-.33.12-.17-.01-.2-.01-.28.02-.14.07-.16.15-.13.42.03.18.03.19 0 .22-.04.02-.2.05-.42.07l-.13.01v-.06c.01-.07 0-.07-.07-.1-.08-.05-.1-.08-.06-.08.03 0 .04-.06.02-.08a1.19 1.19 0 0 1-.13-.36v-.15l.02-.05.02.06c.02.05.06.07.07.04l.05-.17.04-.17.08.05a.3.3 0 0 0 .1.05c.02 0 0-.1-.04-.29l-.03-.14.07-.01c.11 0 .14-.07.05-.15l-.05-.05.08-.04c.1-.06.16-.13.12-.16 0-.02-.04-.03-.08-.03a.13.13 0 0 1-.1-.04c-.03-.03-.04-.04-.02-.04.04 0 .09-.06.08-.1l-.06-.04a.35.35 0 0 1-.09-.05c-.04-.03-.04-.03 0-.07.04-.05.02-.09-.07-.13l-.08-.06.04-.05a.57.57 0 0 0 .07-.09c.03-.04.03-.04 0-.05-.01 0-.09 0-.17.02l-.14.02-.14-.04a2.43 2.43 0 0 0-.64-.08zm-.92 4.42l.06.36c.08.56.08.51.04.64a.74.74 0 0 1-.13.27l-.36.36c-.02 0-.02.05 0 .08.02.01.01.03-.02.07l-.03.05.04.04.05.04-.15.2a53.46 53.46 0 0 0-.52.71l-.04.05-.07-.14-.07-.15-.23-.08-.24-.07a.16.16 0 0 1-.06-.04l-.04-.03.07-.02c.29-.08.52-.3.71-.7a4.24 4.24 0 0 0 .35-1.3l.03.18c.03.3.1.73.12.74.02.02.18-.07.25-.14.03-.03.08-.1.1-.16.05-.1.06-.13.08-.44a12.91 12.91 0 0 1 .06-.52zm1.93 0l.01.05.03.3c.04.48.04.51.1.62l.1.16c.1.07.23.15.24.13.02-.02.07-.3.11-.64.03-.24.05-.3.07-.2.04.3.06.43.1.56.11.48.32.92.54 1.13.1.1.33.23.4.23.04 0 .05.02.02.05l-.26.1a1.3 1.3 0 0 0-.27.1c-.02 0-.06.07-.09.13l-.06.13c-.01.02-.05-.03-.21-.25a13.23 13.23 0 0 0-.4-.55l-.1-.13c0-.02 0-.03.03-.06l.04-.03-.04-.05c-.03-.04-.03-.06-.02-.07.03-.03.03-.09 0-.09l-.35-.35a.74.74 0 0 1-.13-.28c-.04-.12-.03-.3.01-.35.02-.02.04-.13.07-.3.03-.24.05-.33.06-.34zm1.54 2.78l.08.02c.09.03.1.02-.07.09l-.1.03c-.01 0 0-.03.05-.09l.05-.05zm-5.06 0c.02 0 .03.02.06.05a.1.1 0 0 1 .03.07v.02c-.03 0-.17-.07-.19-.08 0-.01.01-.03.05-.04l.05-.01z"/><path fill="#000" d="M14.25 19.62a.54.54 0 0 0-.19.02.18.18 0 0 0-.07.06c0 .02-.05.03-.18.05-.1 0-.2.03-.24.05-.08.04-.17.14-.18.2-.01.05 0 .21.02.28s-.04.02-.06-.04c-.06-.14-.08-.18-.12-.2-.15-.07-.24.06-.15.23.1.19.23.29.4.29.1 0 .12.01.09.03-.03.02-.02.04 0 .07.02.02.06.02.15.01.11 0 .15 0 .32.06l.2.06.03.08c.03.07.03.08 0 .1l-.3.18a1.5 1.5 0 0 0-.28.17c0 .03.08.06.15.06.1 0 .07.02-.16.15-.1.06-.15.1-.15.13s.06.06.1.06l.04.02-.14.16c-.1.1-.13.14-.13.16.01.03 0 .05-.07.08-.09.04-.1.08-.07.12.04.04-.04.05-.27.02a1.69 1.69 0 0 1-.26-.05c-.04-.02-.04-.05 0-.28 0-.14 0-.16-.02-.23s-.04-.09-.12-.13c-.08-.04-.09-.04-.3-.03l-.2.01-.06-.05c-.06-.07-.1-.22-.12-.4L11.9 21l.06-.02c.29-.1.47-.3.5-.53 0-.1 0-.12-.06-.24-.06-.1-.08-.13-.16-.18-.09-.06-.1-.06-.25-.05a.75.75 0 0 0-.28.06c-.18.07-.25.1-.75.24a4.73 4.73 0 0 1-1.31.26c-.04.11.27.38.52.46.1.03.15.03.37.02l.28-.02c.05-.02.03.02-.02.05a4.29 4.29 0 0 1-.88.72c-.13.08-.24.17-.24.18 0 .04.04.09.14.13.07.04.11.04.29.04h.2l.14-.07c.14-.07.2-.12.37-.27l.1-.08a59.72 59.72 0 0 1-1.22 2.18c.01.02.04.02.18.02.16-.01.17-.01.32-.1.19-.09.34-.23.49-.42l.31-.43c.04-.06.04 0 0 .08-.04.1-.11.36-.13.51l-.05.38a6.58 6.58 0 0 1-.6 2.08.76.76 0 0 0-.07.25c.02.03.2 0 .34-.06a.95.95 0 0 0 .31-.22c.22-.23.46-.8.86-2.08l.1-.3a13.72 13.72 0 0 1-.29 2.8c-.08 0-.2.08-.25.16-.04.1-.03.11.05.1h.11c.04.02.04.03.04.07 0 .03 0 .07.02.09.01.03-.16.14-.28.17-.07.01-.1.03-.1.06-.02.03-.03.03-.08.03s-.08.02-.11.05c-.05.05-.05.07-.05.16 0 .1 0 .12.04.15.05.05.09.04.11-.03.03-.07.06-.07.1-.01.03.05.14.08.18.05.02 0 .04-.02.06-.04.13-.13.18-.14.3-.13l.13.02c.04.02-.03.1-.15.17-.12.06-.15.1-.15.16 0 .02-.01.05-.04.08-.09.08-.1.16-.04.28.08.15.13.17.14.06.02-.1.03-.1.12-.1.07 0 .08 0 .13-.06.04-.04.1-.1.14-.12s.1-.09.12-.13a.6.6 0 0 1 .46-.25l.22.05c.11.04.17.05.24.05.08 0 .09 0 .12-.07s.02-.07.18-.03c.03 0 .03 0 .03-.05 0-.07-.05-.18-.1-.2a.65.65 0 0 0-.25-.01c-.2.01-.33 0-.33-.04 0-.02.19-.26.23-.3l.13-.16.1-.14a4.23 4.23 0 0 0 .27-.34l.04-.04.04.1c.04.1.09.12.13.07.02-.03.02-.03.05 0 .06.06.08.04.09-.11.01-.2.1-.43.2-.52.02-.03.02-.03.03.02a1 1 0 0 1-.08.55.4.4 0 0 1-.25.22c-.33.11-.45.21-.6.48-.08.15-.05.16.17.07.1-.03.15-.04.3-.04.19 0 .2 0 .3-.05a.7.7 0 0 1 .1-.05l-.02.35c-.04.27-.16.55-.28.67-.43.39-.5.54-.51.92 0 .24.01.33.05.33.01 0 .06-.05.1-.11l.1-.14a3.35 3.35 0 0 0 .75-1.3c.02-.08.04-.01.06.21.02.26 0 .54-.04.72a1.5 1.5 0 0 1-.3.68c-.05.06-.07.11-.03.11l.15-.03a.5.5 0 0 1 .13-.03c.01 0 .06.14.1.29l.13.36.05.1c.03 0 .06-.08.18-.46l.1-.29.14.03.15.03c.04 0 .02-.05-.03-.1a1.83 1.83 0 0 1-.35-1.01c-.01-.18.01-.59.04-.63 0-.02.03.03.07.14.14.42.4.85.71 1.18.02.01.06.07.1.14s.09.11.1.11c.04 0 .05-.1.05-.33 0-.38-.09-.53-.5-.92-.1-.09-.13-.14-.22-.4a1.98 1.98 0 0 1-.09-.62l.1.04c.1.06.11.06.3.06.15 0 .2 0 .3.04.22.09.25.08.17-.07-.15-.27-.27-.37-.6-.48a.4.4 0 0 1-.25-.22 1 1 0 0 1-.08-.55c0-.06.03-.05.1.06a1 1 0 0 1 .13.44c.01.15.03.17.08.12.03-.04.04-.04.06-.01.04.04.1.02.11-.04 0-.03.03-.07.05-.1l.03-.03.05.06.1.13.2.26.13.17a6.68 6.68 0 0 0 .28.36l-.06.03a.84.84 0 0 1-.26 0c-.16 0-.21 0-.25.02-.06.03-.11.14-.1.2 0 .03 0 .04.05.04.13-.02.13-.02.15.04l.02.06h.12c.08 0 .16-.01.24-.05a.5.5 0 0 1 .36-.02c.1.04.21.11.3.23l.14.14c.04.03.1.07.12.1.04.07.05.07.12.07.1 0 .12 0 .12.07 0 .06.02.1.05.1.03 0 .12-.14.13-.22a.28.28 0 0 0-.08-.22l-.03-.06c0-.05-.03-.1-.12-.14-.1-.06-.2-.15-.2-.18l.13-.02c.12-.02.19 0 .27.08l.14.11c.05 0 .15-.05.16-.08.02-.05.07-.04.1.02.04.12.15.05.15-.1 0-.15-.06-.23-.17-.23-.04 0-.06 0-.07-.04 0-.03-.03-.04-.05-.04a.78.78 0 0 1-.28-.12c-.07-.05-.08-.06-.05-.08a.08.08 0 0 0 .02-.08c-.02-.05 0-.07.13-.06.1 0 .11 0 .06-.1-.04-.07-.16-.15-.22-.15-.02 0-.03-.03-.04-.06a8.3 8.3 0 0 1-.15-1.01c-.07-.56-.1-.95-.1-1.39l.01-.32.07.2c.17.53.4 1.23.5 1.45.09.24.22.5.3.62.07.1.26.24.4.3.13.06.3.09.33.05l-.21-.6c-.11-.33-.25-.68-.27-.78a7.7 7.7 0 0 1-.22-1.17 2.87 2.87 0 0 0-.14-.63l-.05-.14.05.06c.03.03.09.1.13.17l.12.16.1.12c.15.2.26.29.47.4.1.05.14.05.29.06s.16 0 .16-.02a80.9 80.9 0 0 1-1.22-2.2l.1.08c.17.17.26.23.43.32.08.05.1.05.3.05.18 0 .2 0 .3-.05.1-.05.15-.1.12-.14 0-.01-.12-.1-.25-.18s-.3-.2-.35-.25l-.21-.2a2.3 2.3 0 0 0-.3-.25l-.06-.06.05.01.34.02h.27l.15-.08a.8.8 0 0 0 .26-.2c.17-.15.19-.24.06-.22a3.5 3.5 0 0 1-.71-.1c-.33-.08-.93-.26-1.3-.4a.7.7 0 0 0-.28-.05c-.08 0-.15 0-.18.02a.84.84 0 0 0-.24.27c-.05.1-.04.26.04.39.1.14.28.28.47.33.05.02.01.32-.06.46-.05.12-.08.13-.32.12-.17-.01-.2-.01-.28.02-.14.07-.16.15-.13.42.03.18.03.19 0 .21-.04.03-.2.06-.42.08l-.13.01v-.06c.01-.07 0-.07-.07-.1-.08-.05-.1-.08-.05-.08.02 0 .03-.06 0-.08a1.19 1.19 0 0 1-.12-.36v-.15l.02-.05.02.06c.02.05.06.07.07.04l.05-.17.04-.17.09.05c.05.03.08.05.1.03l-.07-.39c-.01-.03 0-.03.05-.03.12 0 .15-.07.06-.15l-.05-.05.08-.04c.1-.06.16-.13.12-.16 0-.02-.04-.03-.08-.03a.13.13 0 0 1-.1-.04c-.03-.03-.04-.04-.02-.04.04 0 .09-.06.08-.1l-.06-.04a.34.34 0 0 1-.09-.05c-.04-.03-.04-.03 0-.07.04-.05.02-.09-.07-.13l-.08-.06.04-.05a.57.57 0 0 0 .07-.09c.03-.04.03-.04 0-.05-.01-.01-.09 0-.17.01l-.14.03-.14-.04a2.43 2.43 0 0 0-.64-.08zm-.04.08l.22.02c.26.02.4.04.48.08l.12.02c.09 0 .09 0 .08.05-.01.06 0 .07.07.11.06.03.07.06.03.1-.01 0 0 .03.06.08.06.07.07.08.05.12-.02.05-.03.04.06.14.1.1.1.13 0 .13-.07 0-.08.04-.02.12l.03.07h-.1l-.1-.01.04.06a.6.6 0 0 1 .1.26s-.03 0-.04-.02c-.05-.04-.08-.02-.1.1l-.04.1-.04-.04c-.03-.05-.05-.03-.1.14a.79.79 0 0 0 0 .43c.05.17.05.16-.01.17l-.06.02.05.1c.05.06.06.1.05.12 0 .05.03.08.12.1.13.03.16.37.1.98l-.07.51-.07.49c-.02.19-.05.33-.06.34a.9.9 0 0 0-.06.32c0 .07.07.3.12.36.05.09.24.3.3.36.06.05.06.05.04.09-.02.03-.02.04.01.07l.04.06s-.06.04-.13.06a.65.65 0 0 0-.21.1c-.05.05-.09.07-.13.07-.05 0-.05 0-.08-.13a1.47 1.47 0 0 0-.08-.2c-.05-.11-.25-.36-.28-.35-.04.01-.06.5-.02.65.03.12.11.28.17.35.05.05.14.1.26.14a.8.8 0 0 1 .42.29c.04.05.03.07-.03.04a1.16 1.16 0 0 0-.26-.02h-.2l-.15-.1c-.14-.08-.2-.1-.2-.07l.02.08c.02.04.02.18.03.3.01.2.02.27.07.4.1.27.15.38.25.47.32.3.4.4.46.6.02.09.03.32 0 .34 0 0-.12-.12-.36-.43a3.22 3.22 0 0 1-.47-1.02c-.07-.24-.11-.23-.17.05-.03.15-.04.23-.04.55 0 .36 0 .38.05.55a1.76 1.76 0 0 0 .21.54c0 .01-.03.02-.08.02h-.08l-.1.28c-.04.15-.1.28-.1.28l-.12-.28-.09-.29h-.16l.08-.17c.04-.08.1-.24.13-.35.05-.2.05-.21.05-.58 0-.32 0-.4-.04-.55-.06-.28-.1-.3-.17-.05a3.2 3.2 0 0 1-.83 1.45c-.03-.02-.02-.25 0-.34.06-.2.14-.3.46-.6.15-.14.3-.49.31-.79.01-.16.04-.35.06-.43.01-.06-.03-.05-.2.05l-.15.08h-.2a.96.96 0 0 0-.25.03c-.07.02-.08.01-.04-.04a.8.8 0 0 1 .43-.3.57.57 0 0 0 .25-.13c.06-.07.14-.23.17-.35.04-.15.02-.64-.02-.65-.02-.01-.22.24-.28.35l-.07.2c-.04.13-.04.13-.1.13-.03 0-.07-.02-.12-.06a.65.65 0 0 0-.2-.1l-.14-.07.04-.06c.03-.03.03-.04.01-.07-.02-.04-.01-.04.04-.1.07-.04.26-.26.3-.35.05-.06.12-.3.12-.35l-.08-.66c-.11-.79-.12-.81-.14-1.04a4.03 4.03 0 0 1 0-.8c.01-.05.04-.1.07-.13l.05-.07c0-.01.03-.04.07-.05.07-.03.09-.07.04-.08-.04-.02-.03-.05.05-.12.08-.08.25-.3.25-.33 0 0-.01-.02-.03-.02-.07 0-.04-.04.09-.12l.15-.11c.05-.05.03-.1-.03-.1l-.06-.02s.07-.06.17-.1l.21-.14.05-.05-.03-.08c-.05-.14-.05-.14 0-.17a.2.2 0 0 0 .1-.22 1.58 1.58 0 0 0-.34-.6c-.09-.1-.1-.15-.01-.19a.2.2 0 0 1 .09-.02zm-.24.13l.08.1c.2.23.35.49.35.59 0 .07-.02.06-.08-.03-.13-.21-.53-.36-.74-.29-.09.03-.1.02-.1-.1 0-.16.1-.24.35-.26h.14zm-1.94.23c.1 0 .16.04.23.1.12.15.13.33.04.46a.73.73 0 0 1-.34.25c-.16.06-.17.08-.15.29.03.2.04.26.1.36.1.14.13.15.38.14.18 0 .22 0 .27.02.08.04.08.06.04.44 0 .1 0 .11.04.16.06.06.18.08.44.1l.16.01-.01.25c0 .14 0 .37.02.52.02.26.02.3-.04.96-.03.4-.06.72-.08.78-.03.1-.16.26-.2.25a2.8 2.8 0 0 1-.14-.72c-.1-.67-.1-.71-.13-.71s-.04.01-.05.24c-.04.93-.27 1.7-.61 2.07-.07.07-.15.15-.19.17l-.12.06c-.06.02-.07 0-.04-.15l.14-1.13a10.97 10.97 0 0 0 .02-1.76c-.04 0-.07.07-.26.7-.48 1.5-.67 1.9-.98 2.11-.1.07-.26.13-.28.11l.1-.32c.22-.58.32-.87.37-1.04.05-.2.13-.66.17-1.02.06-.43.1-.54.3-1 .08-.21.11-.3.1-.31-.01-.01-.03-.02-.04-.01l-.38.47c-.4.54-.5.65-.65.75-.16.1-.4.19-.4.13l.27-.48a67.27 67.27 0 0 0 1.06-1.9c.03-.07.02-.1-.05-.2-.03-.03-.03-.06-.02-.12 0-.06 0-.08-.02-.1-.03-.03-.04 0-.06.12 0 .08 0 .1.04.16l.04.09a3.94 3.94 0 0 1-.72.61c-.12.06-.14.06-.28.06-.16 0-.29-.03-.3-.07l.13-.1c.22-.14.37-.26.59-.46a4.07 4.07 0 0 1 .54-.46c.02-.04.02-.05 0-.07-.02-.02-.06-.01-.2.02-.16.03-.23.03-.43.03-.23 0-.26-.01-.34-.05-.11-.06-.3-.2-.3-.23a9.73 9.73 0 0 0 1.94-.52c.12-.04.2-.06.28-.06zm4.52 0c.08 0 .21.05.53.15a8.37 8.37 0 0 0 1.7.43c.01.02-.17.16-.29.22l-.1.06h-.29c-.21 0-.3-.01-.42-.04-.12-.02-.16-.03-.18 0s-.02.02 0 .05a4.5 4.5 0 0 1 .52.45c.25.23.32.29.56.44l.18.14c0 .04-.14.07-.28.07-.25 0-.32-.04-.78-.44-.12-.1-.23-.2-.23-.22s.01-.06.04-.11c.05-.07.05-.1.04-.16-.02-.1-.04-.13-.07-.1-.02 0-.02.03-.01.09 0 .06 0 .08-.05.17-.05.1-.05.1-.02.14l.02.07a43.52 43.52 0 0 0 1.3 2.32c0 .04-.13.01-.29-.06-.2-.1-.33-.24-.75-.8-.35-.47-.43-.55-.43-.46l.12.32c.2.47.22.53.3 1.11.1.71.16.96.47 1.8.1.23.16.44.15.44-.01.02-.14-.02-.24-.08-.2-.12-.34-.31-.5-.67-.1-.22-.33-.9-.44-1.25a10.6 10.6 0 0 0-.3-.9c-.02-.02-.04-.02-.06-.02a15.2 15.2 0 0 0 .2 3.04c0 .02-.02.02-.11-.02a1.16 1.16 0 0 1-.38-.36 3.91 3.91 0 0 1-.48-1.83 2.32 2.32 0 0 0-.04-.33c-.04-.04-.06.05-.1.36-.1.77-.16 1.07-.18 1.07-.04 0-.15-.11-.2-.2a2.08 2.08 0 0 1-.07-.58l-.06-.71a2.31 2.31 0 0 1 0-.48c.03-.3.03-.52.02-.68v-.1l.16-.02c.2-.01.34-.04.4-.07.06-.03.08-.09.06-.22-.03-.34-.03-.32.01-.38l.05-.05h.24c.23 0 .25 0 .3-.03.11-.09.18-.25.2-.5.01-.2 0-.21-.15-.26-.11-.03-.14-.05-.25-.16-.12-.12-.14-.14-.15-.22-.02-.17.08-.35.23-.4a.24.24 0 0 1 .1-.03zm-3.38.06h.02l.04.07c.04.16.14.24.29.24l.23-.03c.27-.06.28-.06.28-.03 0 .02-.04.04-.15.06-.38.09-.56.05-.69-.15-.05-.08-.06-.16-.02-.16zm.74.38c.03 0 .06 0 .11.02.18.04.33.1.33.13l-.04.04a.15.15 0 0 1-.05.01 3.12 3.12 0 0 0-.5-.15l.06-.04h.09zm-.58 3.54l.06.36c.08.56.08.51.04.64a.74.74 0 0 1-.13.27l-.36.36c-.02 0-.02.05 0 .08.02.01.01.03-.02.07l-.03.05.04.04.05.04-.15.2a53.46 53.46 0 0 0-.52.71l-.04.05-.07-.14-.07-.15-.23-.08-.24-.07a.16.16 0 0 1-.06-.04l-.04-.03.07-.02c.29-.08.52-.3.71-.7a4.24 4.24 0 0 0 .35-1.3l.03.18c.03.3.1.73.12.74.02.02.18-.07.25-.14.03-.03.08-.1.1-.16.05-.1.06-.12.08-.45a13.33 13.33 0 0 1 .06-.5zm1.93 0l.01.05.03.3c.04.48.04.51.1.62.06.11.12.18.25.26.05.03.08.04.1.03a3 3 0 0 0 .1-.59l.04-.28c.01-.03.02 0 .06.27.1.62.34 1.19.6 1.45.1.1.34.23.4.23.05 0 .06.02.03.05l-.26.1a1.3 1.3 0 0 0-.27.1c-.02 0-.06.07-.09.14l-.06.13c-.01.01-.05-.04-.21-.26a13.23 13.23 0 0 0-.4-.55l-.1-.13c0-.02 0-.03.03-.05l.04-.03-.04-.06c-.03-.04-.03-.06-.02-.07.03-.03.03-.08 0-.08l-.35-.36a.74.74 0 0 1-.13-.27c-.04-.13-.03-.3.01-.35.02-.02.04-.14.07-.32.03-.22.05-.32.06-.32zm.2 1.93a1466.43 1466.43 0 0 1 .84 1.09c.02 0 .07-.07.13-.22l.08-.14.2-.08.19-.06.05.05c.08.07.1.1.06.14-.02.02-.04.02-.1 0-.09-.03-.16-.02-.2.02-.04.04-.16.3-.15.32.02.01.14-.02.35-.1l.17-.07.1.06.15.08c.05.02.05.03.06.15.02.13 0 .18-.04.14l-.13-.1c-.1-.07-.1-.07-.23-.07-.15 0-.37.03-.38.06 0 .03.2.23.31.3.05.02.1.06.1.07l-.04.08a.18.18 0 0 0-.05.1c0 .06-.03.06-.08 0l-.1-.1a.53.53 0 0 1-.13-.13.7.7 0 0 0-.36-.25.47.47 0 0 0-.36.01.74.74 0 0 1-.26.07s.01-.05.05-.1c.06-.08.06-.08.15-.08.13 0 .25-.05.25-.11 0-.04-.15-.24-.65-.87l-.14-.2c0-.01.1-.06.15-.06zm-2.36 0c.05 0 .14.03.15.06 0 .01-.17.25-.39.53-.27.34-.4.52-.4.54.02.05.15.11.26.11.1 0 .1 0 .16.09.03.04.05.08.04.09a.82.82 0 0 1-.28-.08.34.34 0 0 0-.2-.03c-.19.02-.42.15-.5.28a.45.45 0 0 1-.11.13l-.12.1c-.06.06-.08.06-.08 0a.21.21 0 0 0-.04-.1l-.04-.08c0-.02.04-.04.09-.07.1-.07.33-.29.3-.31a1.38 1.38 0 0 0-.38-.05c-.11 0-.14 0-.27.11-.13.1-.14.1-.12-.09.01-.1.02-.12.06-.14l.15-.08.1-.06.18.07c.2.08.32.11.34.1.02-.02-.07-.2-.13-.3-.04-.05-.06-.06-.12-.06l-.1.02c-.05.03-.12 0-.12-.03l.07-.1.06-.06.19.06.2.09.1.18.11.16c.02 0 .17-.19.4-.52a17.85 17.85 0 0 1 .44-.55zm3.7.85l.08.02c.09.03.1.02-.07.09l-.1.03c-.01 0 0-.03.05-.09l.05-.05zm-5.06 0c.02 0 .03.02.06.05a.1.1 0 0 1 .03.07v.02c-.03 0-.17-.07-.19-.08 0-.01.01-.03.05-.04l.05-.01z"/><path fill="#e7e7e7" d="M14.56 20.16c-.06-.03-.08-.12-.03-.17.02-.03.12-.02.15 0s.03.12 0 .15c-.02.03-.08.04-.12.02z"/><path fill="#000" d="M11.5 27.84c.05-.04.06-.08.02-.1-.03-.01-.1.05-.1.1 0 .04.02.04.08 0zm5.64 0c0-.04-.05-.1-.08-.1-.05 0-.05.05 0 .1.04.04.08.05.08 0zm-4.1-.58c.09-.02.08-.06 0-.06-.07 0-.11.03-.1.06.02.02.02.02.1 0zm2.58-.01c0-.03-.1-.07-.14-.05-.04.02-.03.04.03.06.07.02.1.02.1-.02zm-4.55-.02l.02-.04c0-.05-.13-.04-.16 0a.14.14 0 0 0-.03.06c0 .01.15 0 .17-.02zm6.59.02s0-.03-.02-.05c-.02-.03-.05-.04-.1-.04-.07 0-.1.02-.06.06.02.03.18.06.18.03zm-6.12-.68c.04-.05.01-.08-.07-.07-.08 0-.1.04-.03.07.06.04.06.04.1 0zm5.58 0c.07-.03.06-.06-.03-.07-.08 0-.1.02-.07.07.02.04.03.04.1 0zm-4.35-2.85c0-.05.1-.11.18-.12.1-.01.22.02.22.07 0 .02 0 .03-.04.02-.15-.04-.2-.03-.27.01-.06.05-.1.06-.1.02zm-.31-.12a.3.3 0 0 1-.01-.06.9.9 0 0 0-.2-.18.6.6 0 0 0-.17-.02c-.15 0-.17-.01-.14-.05.02-.03.27-.03.34 0 .09.04.23.2.24.26.02.1-.03.13-.06.05zm-.73-.53l-.02-.04a.72.72 0 0 0-.03-.14c-.04-.13-.12-.23-.21-.26-.1-.02-.1-.07 0-.06.09 0 .15.04.2.13.06.09.12.27.11.34 0 .03-.03.05-.05.03zm-.43-.82v-.22c.01-.24 0-.3-.1-.38-.04-.03-.05-.05-.03-.06.03-.04.12.03.17.12.03.06.04.1.04.29 0 .17 0 .22-.03.24-.03.03-.04.04-.04.02zm-.28-1.5c-.07-.04-.1-.24-.04-.28.03-.03.05 0 .04.08 0 .03 0 .09.03.12.03.08.01.12-.03.08zm4.69 2.95a.21.21 0 0 0-.22-.01c-.06.02-.1.01-.08-.04 0-.02.11-.06.2-.06.07 0 .16.04.19.09.05.07 0 .09-.1.02zm.35-.07c-.04-.07.1-.27.23-.33.09-.04.32-.04.35 0s0 .04-.13.04a.7.7 0 0 0-.16.01c-.07.03-.2.16-.22.22s-.05.09-.07.06zm.74-.56a.88.88 0 0 1 .07-.3.54.54 0 0 1 .1-.14c.06-.05.18-.09.22-.07.03.02-.02.06-.08.07-.1.02-.23.22-.23.35 0 .07-.05.13-.07.09zm.43-.84c-.02-.03-.03-.08-.03-.24 0-.18 0-.2.05-.28.04-.1.13-.16.16-.13.02.02 0 .05-.05.1-.09.1-.1.15-.08.39v.19s-.04 0-.05-.03zm.29-1.48c0-.01 0-.05.02-.09a.2.2 0 0 0 .03-.13v-.07c.03-.02.06.03.07.1.01.1-.1.27-.12.2zm-3.77-.43c.04 0 .07-.02.07-.03 0-.02-.18-.01-.22 0-.05.04-.04.06.02.05l.13-.02z"/></svg>