<svg version="1.1" xmlns="http://www.w3.org/2000/svg" viewBox="0 0 29 32"><path fill="#da121a" d="M.48 20.68c9.17 1.08 18.34 1 27.5.17L28 .4.4.3z"/><path fill="#fff" d="M9.4 9.1h9.25v6.46c0 5.74-9.28 5.85-9.27 0z"/><path fill="#078930" d="M14.16 31.63c6.12.08 13.74-3.54 13.88-11.47-1.08.87-2.08 1.83-6.7-.16-2.83-1.61-5.63 1.32-7.82 1.62-2.4-.65-3.24-3.38-6.98-1.63-1.3.3-2.97 1.84-6.1-.52.1 8.94 7.6 12.1 13.72 12.16z"/><path fill="#fff" d="M9 19.05c-1.32.07-2.5.73-3.77 1-1.02.36-2.2.66-3.2.1-.37-.17-1.19-.58-1.49-.55-.28.02-.14.55-.09.73.38.47 1.65.7 2.27.94 1.12.23 2.2-.33 3.26-.62 1.09-.3 2.23-.86 3.36-.57 1.18.4 2.14 1.23 3.22 1.85.98.42 2.03-.13 2.95-.46.96-.35 1.78-1.05 2.78-1.29 1.79-.18 3.45.7 5.08 1.27.83.31 1.73.56 2.6.25.41-.14 1.78-.76 2.05-1.2.1-.2.3-.83.05-.77-.18.05-1.18.6-1.42.8-1.05.64-2.33.25-3.38-.19-1.56-.5-3.15-1.34-4.84-1.07-1.29.38-2.38 1.23-3.67 1.61a2.6 2.6 0 0 1-2.9-.4c-.9-.57-1.8-1.24-2.88-1.41zm9.95 4.19c-1.2.07-2.17.88-3.3 1.19-.94.26-1.83.88-2.82.78-1.14-.32-2.02-1.36-3.26-1.68-1.11-.2-2.41.31-3.48.53-1.07.4-3.46.99-4.5.9l.4.54a13.34 13.34 0 0 0 7.07-.61c.93-.3 1.7.43 2.56.64 1.3.53 2.77.62 4.1.21 5.36-1.56 2.08-1.1 6.39-.52 1.16.12 3.38.5 4.45.18.17-.31.47-.73.64-1.05-1.6.55-4.27-.12-5.78-.52-.93-.24-1.66-.59-2.47-.59zm-2 3.73c-.79.33-1.6.61-2.4.9-.6.18-1.22.33-1.84.26-.25.03-.5-.04-.7-.18-.77-.4-1.42-.82-2.18-1.22a2.29 2.29 0 0 0-1.56-.14c-1.12.22-3.07 1.11-4.15 1.49l.81.72c1.19.03 3.03-.57 4.51-.9 1.41.17 2.61 1.15 4.04 1.23a7.7 7.7 0 0 0 1.97-.24 9.83 9.83 0 0 0 1.94-.62c.7-.24 1.37-.65 2.13-.55 1.34.48 3.36.69 4.38.66l.65-.6c-1.13-.1-3.73-1.05-4.86-1.26-1.35-.27-1.97.08-2.75.44z"/><path fill="#fcdd09" d="M14.04 15.76c-1-.03-1.74-.93-1.4-2.15l-6.8-6.3-.36.38-.67-.64 1.6-1.69.68.65-.36.37 6.68 6.3V6.57h-.53v-.93h2.33v.93h-.52v6.1l6.68-6.23-.37-.38.68-.64 1.6 1.68-.67.64-.36-.38-6.8 6.3c.34 1.2-.4 2.13-1.4 2.1z"/><path fill="#fcdd09" d="M5.2 15.76h.82v.52h16.17v-.52h.82v2.39h-.82v-.47H6.02v.47H5.2z"/><path fill="#fff" d="M14.63 14.21a.58.58 0 1 1-1.17 0 .58.58 0 0 1 1.17 0z"/><path fill="#fcdd09" d="M11.8 5.29c-.58-.53-1.01-1.12-.58-1.87.46-.81 1.57-.7 2.2.18-.23-1.14-.28-2.04.59-2.91.87.87.76 1.87.58 2.9.67-.86 1.62-1.02 2.21-.17.53.76.18 1.28-.58 1.87-.64-1.58-1.34-.94-1.63.34h-1.16c-.3-1.28-1-1.92-1.63-.34zm-8 2.31c-.78.05-1.5-.05-1.75-.87-.27-.9.58-1.62 1.65-1.48-.98-.62-1.67-1.2-1.7-2.43 1.24-.03 1.88.74 2.5 1.59-.16-1.09.39-1.88 1.4-1.72.92.14 1.05.76.95 1.7-1.58-.62-1.6.33-.87 1.42l-.8.85c-1.13-.68-2.08-.62-1.38.93zm20.5.05c.79.06 1.5-.04 1.75-.86.27-.9-.58-1.62-1.65-1.48.99-.62 1.67-1.2 1.7-2.43-1.23-.03-1.87.75-2.5 1.59.17-1.09-.38-1.88-1.4-1.72-.91.14-1.05.76-.95 1.7 1.58-.62 1.6.33.88 1.42l.8.85c1.13-.68 2.07-.61 1.38.93zm-1 7.27c.48-.52 1.01-.9 1.68-.52.74.42.63 1.41-.15 1.99 1.02-.21 1.66-.26 2.45.52-.79.79-1.52.68-2.45.53.78.6.92 1.45.15 1.99-.68.47-1.15.15-1.67-.53 1.41-.57.84-1.2-.32-1.46v-1.05c1.16-.26 1.73-.9.32-1.47zm-18.4.01c-.46-.52-1-.9-1.67-.52-.73.42-.63 1.41.16 1.99-1.03-.21-1.7-.3-2.48.5.78.78 1.55.7 2.48.54-.79.6-.93 1.46-.16 2 .68.47 1.15.15 1.68-.53-1.42-.58-.84-1.2.31-1.47V16.4c-1.15-.26-1.73-.9-.31-1.47z"/><path fill="none" stroke="#000" stroke-width=".35" stroke-miterlimit="4" stroke-linecap="butt" stroke-linejoin="miter" d="M.38.32h27.76v19.37c0 15.79-27.82 16.1-27.8 0z"/></svg>