<svg version="1.1" xmlns="http://www.w3.org/2000/svg" viewBox="0 0 28 32"><path fill="#0039a6" d="M.19.18A107.96 107.96 0 0 0 27.82.16l-.07 18.28c-.16 2.52-1.14 4.6-2.1 6.5a14.45 14.45 0 0 1-3.86 4.56c-2.34 1.7-4.75 2.32-7.87 2.31-2.5.06-4.65-1.02-6.86-2.5a16.61 16.61 0 0 1-4.48-4.63c-1.27-2.15-2.3-5.06-2.3-7z"/><path fill="#000" d="M4.96 21.33c.26-.28.09-.61.07-.68-.13-.63-.26-.95-.13-1.65.03-1.03.2-2.12-.3-2.96-.36-.46-.71-.38-1.1-.37-.75.56-.83 1.2-1.05 1.82-.16 1.17-.12 2.3.03 3.5.24 1.76.89 2.83 1.45 4 .59.73 1.14 1.4 1.76 1.94 1.44 1.07 1.6 1.57 2.2 2.26.31-.5.78-.41 1.25-.3.44.3.82.7 1.1 1.21.24-.4.46-.82.84-1.06.4-.11.77.05 1.14.2-.1-.45-.32-.9-.2-1.35.12-.51.45-.47.77-.55-.36-.62-.82-.91-1.08-1.58.37.06.7.46 1.05.74l-.14-2.57-.22-2.12-.98-2.01-.06-1.15c-.35-.26-.49-.15-.75-.13-.48.13-.68.56-.84.94.65 2.33-.39.31-.82.12s.14 1.86.44 2.19c.52.4.5 1.01.7 1.54l.06.7c.34.13.68.27.96.7l-.45-.06-.38-.3c-.04.32-.07.65-.3.92 0 .23-.17.36-.42.46-.12.45-.14 1.34-.42 1.16l.07-1.47c-.2-.36-.25-.74-.24-1.13 0-.32.11-.49.41-.46.19-.12.32-.24.38-.67l-.12-.5-.53.86-.1-.26.48-.82-.35-.6c-.06.5-.26.73-.44 1-.14-.22.06-.63.09-.94z"/><path fill="#f4f0e8" d="M11.31 21.92c-.03.43.22.4.48.42.09.13.06.4.3.3l-.05-.86-.71-1.38c-.25.21.25.95.4 1.44zm.07 2.1a.94.94 0 0 1 .52-.48c.28.09.4.31.46.57l.02 1.28c-.28-.3-.33-1.69-1-1.37zm.43 2.72l-.15.87.6-.57zm-.71 1.92l.52-.6.15.8zm-1.53.1l1.15-.02-.58.68zm-1.88-.56l.97.14-.73.4z"/><path fill="#000" d="M9.52 19.05c.28-.5.63-.95 1.28-1.18-.2-.52-.24-1.04-.83-1.56-.3-.53-.68-1.07-.76-1.7l-.17-1.58c.28.31.77.48.85 1.38.28.3.51.95.81 1.04.23.59.45 1.18.8 1.57.16.16.19.33.85.46l.1-2.56.2-4.82.25-.43c.04-1.01-.06-2.02-.24-3.04-.16-.67-.19-1.97-.73-2.06-.5-.15-.87-.05-1.32.1-.38.11-.73.4-.92.74a3.8 3.8 0 0 1-.91 1.33l-.03.6.39.2c.65-.59.97-1.91 1.9-2.04-1.04 0-1.32 1.2-1.91 1.9.2.4.43.94.42 1.27l-.23 1.5-.38 1.9c.1.25-.03.64.3.95l.66.32z"/><path fill="#f4f0e8" d="M3.7 6.8l.03 2.3c.07-.43.21-.65.38-.82l.16-.14zm2.7-2.89c-.38-.19-1.1-.27-1-.73.22-.74 1.46-.79 2.2-.77.6 0 1.94.22 1.94.84-.1.5-.63.5-.91.6-.22-.42-.47-.69-.99-.68a1.4 1.4 0 0 0-1.24.74zm-.04 3.13c-.26-.18.32-.12.22-.5.08-.37.05-.75.24-1.12.17-.43.47-.75.74-1.09.56-.34.13.08.2.1.12-.11.14-.24.36-.31.44-.02.6.04.73.57l-.12.34-.38.1c.12.11.32.08.32.08.11.43-.16.63-.33.88l-.48.45c-.34.17-.47-.02-.68-.06.16.15.54.25.48.44v.16a1 1 0 0 1-.57-.07c-.16-.04-.27-.16-.36-.33l-.09-.45"/><path fill="#dc281e" d="M1.74 2.22l.54-.27.41.94.64-.3.31.65-.66.36.66 1.4-.47.26-.68-1.43-.67.33-.34-.66.72-.37z"/><path fill="#000" d="M6.52 5.48c.31-.36.65-1.03.85-1.47-.32-.07-1.04.68-.85 1.47zm1.84-.58c-.06.18-.17.29-.1.47-.23 0-.34.36-.54.48.19-.36.38-.7.64-.95zm-.44.4c-.11.05-.22-.1-.25-.17.1-.08.35.12.25.17zm-.49.67c.12 0 .43.1.37.23-.25.03-.3-.16-.37-.23z"/><path fill="#f4f0e8" d="M3.62 5c.04 0-.27-.59-.23-.59.38.01.82.13 1.05.36.15.15.22.34.29.54.16.58.5 1.03.84 1.5l.09.13-.39.2"/><path fill="#0039a6" d="M6.91 21.4c.13 1.17-.44 3.38.18 3.73.09.5.2.88.38.97l.05-.94-.27-.6.32-.1-.15-.57.24-.02c-.05-.28-.05-1.44-.25-2.08-.1-.32-.43-.32-.5-.4zm-1.27 2.42c-.49-.1-.85-.85-1.28-1.53-.4-.5-.64-1.49-.86-2.53a9.38 9.38 0 0 1 .03-1.88c.07-.46.19-.84.48-.95.32.08.22.78.28 1.23.02.66.14 1.33.22 1.99.2.57.67 1.3.91 1.15z"/><path fill="red" d="M9.9 20.71a228 228 0 0 1-3.3-7.5L6.02 12c.14.02.4 0 .4 0 .02-.06 1.46 3.26 2.22 5.04a34.6 34.6 0 0 1 1.4 3.62c.02.2-.05.24-.16.06z"/><path fill="#dc281e" d="M4.56 8.62l-.83-1.78.15-.18c.08-.1.18-.18.2-.15.03.03.41.93.87 1.93l.85 1.83-.17.08-.2.08c-.02 0-.42-.81-.87-1.8z"/><path fill="#f4f0e8" d="M14.03 18.85c4.8 0 8.79-.06 13.57-.02-.14 1.63-.55 2.9-1.17 4.25l-12.4-.01v-4.22zm.01-8.75h13.6v4.32h-13.6zm-.02-4.59l.01-4.32c4.81-.02 9.36-.4 13.65-.9l-.01 5.22zm.02 21.89l9.76.06c-1.6 1.61-1.99 2.1-3.96 3.06-2.35 1.27-5.8 1.16-5.8 1.16V27.4zm-2.18-10.53c-.24-.1-.54-.65-.78-1.4-.09-.29-.13-.35-.21-.35-.39 0-.95-.97-.95-1.63 0-.16-.03-.2-.35-.43-.26-.2-.37-.31-.44-.48-.16-.38-.16-.48.03-1.43.1-.5.24-1.27.3-1.72.12-.77.13-.83.06-1.12a3.4 3.4 0 0 0-.19-.55c-.1-.24-.1-.25-.03-.33.05-.05.21-.28.36-.51l.45-.7c.2-.27.59-.6.8-.65.22-.06.14-.12-.1-.07-.45.07-.71.32-1.23 1.15-.5.8-.5.82-.66.74-.07-.03-.13-.08-.13-.1 0-.07 1.1-1.63 1.32-1.88.35-.4 1.27-.74 1.7-.62.16.05.34.63.61 2.07.14.7.17 1.03.2 1.68l.02.81-.34.49.03.74a138.64 138.64 0 0 1-.24 6.22c-.03.12-.08.14-.24.07zm-9.9-4.77V8.01l.09-.63c.06-.45.65-2.58.8-2.58.12.14.18.3.25.48l-.2.6a6.81 6.81 0 0 0-.43 3.06c.05.8.17 1.36.34 1.55.14.15.6.13 1.03-.04A9 9 0 0 0 5 9.8c.01-.04.12.12.18.28l.2.41-.12.16c-.15.2-.25.62-.12.9.07.15.08.23.05.36-.05.21-.44.66-.73.77-.2.08-.26.06-.27.22-.06.8-.22.91-.54 1.23-.14.13-.24.23-.42.21l-.25-.02-.08.51c-.11.75-.33 1.13-.73 1.29l-.2.07zm3.91 3.88a13 13 0 0 1-.28-2.86c-.01-.95.13-1.16.4-.84.08.1.22.4.3.6l.27.66.14.3-.08.37a8.28 8.28 0 0 1-.64 1.65c-.06.09-.09.19-.1.12zm-.08 2.4l.03-.47a5.3 5.3 0 0 1 .27-1.5c.1-.31.76-1.85.8-1.9.04-.04.3.49.5.98.12.3.2.63.24.88a4.82 4.82 0 0 1-.18 1.36c-.02.04 0 .06.02.06.15-.15.25-.65.48-.67.12 0 .31.13.56.72.21.5.25.64.25.99 0 .26-.27.2-.32.22-.6.27-1.86-.38-2.65-.67zM9 17.73l-1.06-2.46c-1.08-2.47-1.21-2.79-1.18-2.82 0-.02.27.04.57.12.35.09.69.15.92.15h.36l.1.18c.14.3.22.67.27 1.29.08 1.08.29 1.63.93 2.47.4.55.62.94.54 1.02-.02.03-.3.13-.6.24l-.6.21c-.05.02-.13-.13-.25-.4zM4.23 6.2c.18-.18 1.06.78 1.03 1.1-.02.18-.28.55-.52.49-.36-.34-.68-1.56-.51-1.6z"/><path fill="#fc0" d="M7.48 12.32c-.5-.15-.69-.22-.79-.31-.09-.08-.18-.1-.5-.11-.56 0-.76.03-.85-.19-.09-.23-.08-.77.01-1 .06-.15.11-.2.31-.26.23-.08.25-.07.5.05.13.08.28.18.33.25.14.19.33.3.6.34.37.04.5-.05.64-.4.22-.52.44-2.25.33-2.17-.03.02-.38.92-.3 1.47.05.36-.27 1.15-.32 1 0 0-.47.13-.75-.15a3.56 3.56 0 0 0-.58-.47c-.2-.09-.24-.1-.43-.53l-.21-.45.07-.57.07-.62c0-.1-.13.06-.23.3-.06.12-.09.38-.1.38-.06 0-.53-.98-.5-1.04.02-.03.1-.16.14-.16.17-.3.24-.4.56-.57.45-.23.6-.08.96.3.56.56 1.66.19 1.66.19.24-.1.47-.28.79 0 .41.38.4.9.4 1.16.03 0 0 .92-.4 2.4-.26.98-.23 1.04-.36 1.11-.16.09-.82.12-1.05.05zm-4.54-1.84c-.3-.28-.37-.55-.42-.96a9.4 9.4 0 0 1 0-.89c0-1.1.07-1.47.4-2.53.24-.78.25-.8.45-.95.28-.2.5-.2.73 0 .25.23.34.42.36.8.02.27.01.3-.06.27-.21-.1-.24-.09-.24.08 0 .11-.02.15-.07.13-.03-.02-.14.05-.25.17l-.17.2v1.16c.02.64.05 1.16.07 1.15s.06-.13.1-.25c.05-.23.33-.65.42-.65.06 0 .7 1.44.68 1.52-.04.1-.47.36-1 .59-.47.2-.72.24-1 .16z"/><path fill="#ffd200" d="M6.13 26.72c-.21-.15-.31-.31-.42-.67-.12-.37-.12-.55.01-1.52l.07-.75-.05-1.34c-.04-1.25-.09-1.34-.01-2.5l.08-1.41c.39.07.76.24 1.14.37-.06 1.63.03 3.62-.3 5.07-.1.66-.12.55-.04.92.15.72.08 1.43-.2 1.78l-.12.17zm1.37-4.01a6.79 6.79 0 0 1-.32-2.18c0-.62.04-1.34.13-1.5.08-.15.5.11.76.1.36-.01-.14.35.15 1.23.31.95.31 1.4.17 1.7-.07.14-.06.43.01.72.02.07 0 .1-.07.1s-.11-.08-.18-.3c-.08-.28-.1-.3-.24-.32-.09 0-.18 0-.2.03s0 .18.05.35l.16.58.07.27h-.3z"/><path fill="#000" d="M1.7 15.04c-.02-.9-.03-2.5-.03-3.52 0-1.6-.07-2.24-.07-2.24-.27-.02.18-2.4.58-3.2.18-.36.5-1.63.6-1.46.08.12.08 0 .05.15-.02.1-.88 2.86-.88 3.03 0 .3.05 1.33.02 4.45l-.05 4.04c.2-.1.41-.21.57-.37.18-.19.52-1.56.52-1.56l.27-.02c.2 0 .3-.17.47-.35.28-.3.4-.47.46-.9.04-.24 0-.31.05-.32.14-.04.5-.43.76-.6.22-.15.18-.85.16-.67-.01.08.21.23.2.34s-.08.52-.1.5c0 0-.04.07-.07.17-.04.16.14.12-.03.2-.13.05-.43.2-.43.26 0 .04 0 .07-.03.05s-.14.2-.24.5c-.23.62-.3.75-.73 1.04-.26.18-.36.2-.36.2-.11.18-.15.92-.92 1.5l-.7.5s-.05-.8-.07-1.72zM12 17.42c-.38-.13-.86-.75-1.2-1.63-.1-.25-.1-.38-.18-.42a2.97 2.97 0 0 1-.43-.44 1.52 1.52 0 0 1-.41-.64 2.55 2.55 0 0 0-.51-.94l-.13-.15.08.73.15 1.05c.1.4.53 1.35.67 1.45.12.1.54.66.54.77 0 .13-.14.07-.35-.22-.12-.17-.37-.35-.49-.5-.24-.32-.36-.63-.51-.97-.15-.33-.28-.46-.24-1.34.04-.72-.38-1.54-.38-1.54.08.22-2-.2-2-.33l-.1-.31c-.02-.02 2.2.71 2.24.1.02-.22.25-.07.28.27.04.36.15.52.43.71.07.05.14.08.17.06s.05 0 .04.03c0 .04.02.07.07.06s.07.02.07.05c0 .04 0 .06.03.05.03 0 .05.15.05.37 0 .34.02.4.2.73.22.4.6.69.84.77.14.05.06.1.16.4.28.87.54 1.26.86 1.33.1.02.18.1.19.08s0-1.01.06-2.22c.09-1.78.15-2.49.2-2.5.06-.03.14-.1.12.56l-.13 2.68c-.05 1.55-.07 1.96-.01 1.96.12 0-.25-.02-.38-.06zM7.95 4.9l-.33-.18c-.18-.07-.48.16-.41.07.01-.03.29-.53.37-.58.13-.08.7-.25.65-.15-.07.11-.5.22-.4.5.03.08.24.48.12.33zm.1 2.76c0-.01-.47.19-.5.19-1.49.03.45-.48.48-.55 0-.03-.1-.06-.24-.09-.2-.04-.4-.03-.28-.05.23-.2-.01-.48-.17-.6.18.05.3.09.46 0 .03 0 .03.04.03.12 0 .14.04.23.18.45.1.2.2.2.35.3-.12.02-.85.48-.4.19.03.11.41-.17.41-.18zm1.72-1.02c0-.02.05-.08.08-.08v.05c-.03.05-.08.07-.08.03z"/><path fill="#000" d="M6.9 7.78c-.28-.13-.2-.14-.32-.26-.4-.4-.41-.47-.58-.53-.02 0-.26 0-.26-.02s.24-.06.37-.09c.08-.1.18-.15.27-.26l.16-.19c.01 0 .03.06.03.13 0 .14-.04.19-.18.3a.6.6 0 0 0-.11.08c-.02.02.37.46.5.57.04.03.12.09.2.12.13.07.16.07.47.07.33 0 .33-.03.25.02-.44.18-.58.11-.8.06zM5.66 6.23a3.65 3.65 0 0 1-.34-.4c-.08-.3.21-.46.38-.63.24-.25.24-.27.36-.52.1-.24.3-.6.3-.52 0 .05-.23.99-.24 1-.25.12-.4.27-.59.46 0 .22.28.78.13.61zm2.14 4.12c-.07-.36-.02-.82.09-1.23.05-.17.1-.42.15-.46.1.12-.3 2-.32 2.04-.2.32.08-.35.08-.35zM5.38 8.63c.04-.13.12-.27.14-.24.02.02-.09 1.02-.12.88-.2-.06-.06-.48-.01-.64zm3.44 3.42c-.1-.04.09-.78.1-.83.08-.4.2-.86.24-1.03.13-.58.17-1.31.1-1.9-.06-.31-.29-.68-.47-.77-.09-.06-.24-.11-.17-.11.02 0 .13-.1.13-.1l.44.21a2.8 2.8 0 0 1 .37 1.12c.05.39-.56 3.53-.65 3.53-.01 0-.06-.11-.1-.12zm-3.64-.5c-.1-.18-.11-.44-.04-.73.03-.09.17-.29.2-.26 0 0 .04.14 0 .24-.1.24-.16.5-.07.78.02.08-.03.07-.08-.03zm.47 11.79l-.1-1.41c-.04-.53-.2-.36-.1-1.35l.06-1.35c.04-.75.09-1.87.1-2.49l.02-1.13-.42-2.87-.02-.46c-.01-.23.23-.37.24-.38s.05 0 .09.02l.28.04.2.02.07.18c.04.1.38.77.37.78s-.36-.62-.4-.67c-.12-.12-.23-.16-.3-.1-.14.09-.16.37-.12 1.03.05 1.03-.04 1.77.2 2.73l.06.21.19-.37c.36-.7.46-1.21.55-1.72.03-.13-.34-1.3-.33-1.3.1 0 1.44 3.04 1.32 3.06a7.96 7.96 0 0 0-.71-1.46c-.03-.01-.82 1.86-.91 2.14-.13.4-.21.95-.25 1.68l-.02.25.09.03c.3.1.84.35.84.37 0 .02-.07 0-.22-.05-.2-.07-.65-.18-.67-.16l-.06 2.45-.04 1c-.03.54.07 1.06.07 1.16.02.16.01.54-.03.54-.03 0-.05-.38-.05-.42z"/><path fill="#000" d="M8.16 17.18c-.16-.17-.27-.18-.41-.02-.05.05-.15.3-.16.28s.07-.28.09-.37c.02-.08.03-.21.03-.29a4.5 4.5 0 0 0-.16-1.16c.01 0 .08.13.15.3l.35.8.41.95c0 .03-.23-.4-.3-.49zm1.19 1.42l-.14-.39.67-.24.67-.22-.02-.11c0-.06-.14-.44-.17-.53-.08-.15.2 0 .24.11.14.43.26.63.23.64l-.24.17c-.34.18-.67.36-.92.73l-.14.24-.18-.4zM7.46 7.3s-.73-.28-.77-.32a.6.6 0 0 1-.08-.34c0-.15 0-.4.02-.26.02.07.12.4.22.5.19.2.89.23.89.23z"/><path fill="#000" d="M5.63 6.16c.17-.08.26-.27.34-.43-.01.18.02.3 0 .48.19.03.05.1.08.14.17.16.65-.53.64-.42 0 .25-.12 1.1-.07.86l-.41-.04c-.2-.13-.42-.35-.58-.59z"/><path fill="#fc0" d="M7.1 7.66c-.34-.1-.68-.41-.81-.72.06-.05.11-.18.25-.2.1.13.26.3.39.36.17.1.2.07.46.09.35.02.56.04.59.1.03.06 0 .17-.12.27-.25.12-.44.16-.75.1z"/><path fill="#000" d="M5.47 3.9c-.27-.17-.46-.56-.34-.85.44-.82 1.71-1.03 2.55-.94.66.1 1.56.2 2.05.79.06.21.12.45-.03.65-.22.38-.8.53-.8.53-.1.05-.12-.15-.18-.22.36-.1.94-.37.8-.74-.12-.27-.3-.4-.78-.57a4.88 4.88 0 0 0-1.89-.14c-.42.02-1.68.4-1.42 1.01.08.18.22.27.52.37l.43.11c.04.61-.5.25-.92 0z"/><path fill="#ffd200" d="M6.2 6.4a2.2 2.2 0 0 1-.12-.1l-.09-.07.01-.28c0-.29 0-.29-.02-.29s-.03.02-.05.06a1.2 1.2 0 0 1-.2.32c-.04.03-.09.05-.09.03l-.03-.2-.03-.2.03-.05.31-.3.16-.09.1-.04.13-.65.15-.68.29-.32c.26-.23.38-.29.66-.32.56-.04.94.11 1.15.54.04.11.14.17.22.24.11.08.13.14.15.28.02.1.05.42-.02.43-.14-.14-.11-.4-.3-.54-.3-.1-.43-.1-.72-.04-.23.06-.4.26-.55.43-.22.28-.33.44-.41.58-.07.13-.18.38-.22.5-.06.17-.21.54-.27.64-.09.14-.15.17-.24.11zm.44-1.21c.18-.4.37-.7.65-1.04.08-.1.09-.12.08-.13 0 0-.26.16-.42.3-.27.26-.43.57-.43.9 0 .13 0 .15.03.15l.1-.18z"/><path fill="#000" d="M8.05 7.26A.7.7 0 0 1 8 6.99c.15-.05.28-.07.44-.14.09-.05.21-.24.17-.66 0-.28-.05-.11-.23-.13.1-.18.33-.43.34-.65 0-.33-.55-.2-.28-.28L8.76 5l.07-.2c.14-.39.14-.06.03.53l-.1.54c-.04.14.02.46.04 1l.02.57c-.23.08-.65-.02-.77-.2z"/><path fill="#ffd200" d="M7.98 7.21c-.2-.09-.16-.38-.21-.56.27-.18.5-.44.74-.68.18.18.18.65.09.8-.16.27-.42.44-.62.44z"/><path fill="#f4f0e8" d="M9.35 20.4c-.04.11 0 .18.09.2.08-.07.24-.05.29-.2-.15-.15-.28-.02-.38 0zm.13.21c-.04.12 0 .18.08.2.09-.07.24-.05.3-.2-.15-.14-.29 0-.38 0zm-.22-.46c-.04.1 0 .18.09.2.08-.07.24-.06.29-.2-.15-.15-.28-.02-.38 0zm-.09-.25c-.04.12 0 .19.09.21.08-.07.24-.05.3-.2-.16-.15-.3-.02-.39 0zm.96-.1c.04-.1.01-.17-.08-.2-.08.07-.24.04-.3.2.14.15.28.02.38 0zm.09.23c.05-.1.02-.18-.07-.2-.09.06-.24.04-.3.19.14.15.28.02.37.01zm.1.23c.05-.11.02-.18-.07-.2-.09.06-.24.04-.3.19.14.15.28.02.37.01zm.08.27c.05-.11.02-.18-.07-.21-.09.07-.24.04-.3.2.14.15.28.02.38 0z"/></svg>