<svg version="1.1" xmlns="http://www.w3.org/2000/svg" viewBox="0 0 22 32"><path fill="#fabc00" d="M1.83 3.89l.5 2.6 17.6.07.4-2.64S12.8 1.8 1.84 3.9z"/><path fill="#fabc00" d="M20.59 4.37c-7.39-1.8-16.9-.6-18.23-.24l-.17-.76c1.34-.35 10.85-1.56 18.23.24l.17.76zM12.18 2.3l.67-.7h-3.2l.71.7z"/><path fill="#fabc00" d="M10.06 2.08h2.36v3.44h-2.36V2.08zm.65-1.21h1.11V.12h1.03V1.6h-3.2V.1h1.04z"/><path fill="#000" d="M11.5 5.5h-.54V4.14c.3-.3.54 0 .54 0V5.5z"/><path fill="#fabc00" d="M16.8 2.52l.73-.65-3.19-.21.66.75z"/><path fill="#fabc00" d="M14.71 2.17l2.35.15-.22 3.43-2.35-.15.22-3.43zM15.44 1l1.1.07.06-.74 1.02.07-.1 1.47-3.18-.21.1-1.49 1.02.07z"/><path fill="#000" d="M15.92 5.68l-.54-.04.09-1.37c.32-.29.54.03.54.03l-.09 1.38z"/><path fill="#fabc00" d="M21.34 3.11l.78-.59-3.15-.5.59.81z"/><path fill="#fabc00" d="M19.3 2.57l2.32.37-.53 3.39-2.33-.36.53-3.4zm.83-1.1l1.09.17.12-.73 1.01.15-.23 1.46-3.15-.5.23-1.46 1 .14z"/><path fill="#000" d="M20.18 6.17l-.54-.08.22-1.36c.35-.26.53.08.53.08l-.21 1.36z"/><path fill="#fabc00" d="M7.55 2.31l.65-.73-3.2.14.74.68z"/><path fill="#fabc00" d="M5.43 2.2l2.36-.11.15 3.43-2.35.1-.16-3.43zm.6-1.25L7.13.9 7.1.15 8.13.11l.07 1.47-3.2.14L4.95.24 5.97.19z"/><path fill="#000" d="M7.02 5.55l-.54.02-.06-1.38c.29-.32.54-.02.54-.02l.06 1.38z"/><path fill="#fabc00" d="M2.93 2.6l.56-.8-3.15.49.8.59z"/><path fill="#fabc00" d="M.81 2.7l2.33-.35.52 3.4-2.32.35L.8 2.7zm.46-1.3l1.1-.16L2.24.5 3.27.34l.22 1.46-3.15.49L.1.82 1.13.66z"/><path fill="#000" d="M2.75 5.87l-.53.08L2 4.6c.26-.35.54-.08.54-.08l.21 1.36zM4.1 3.08l.62-.04.03.43-.62.04-.03-.43zm4.55-.32l.63-.02v.43l-.61.02-.02-.43zm4.61.01l.63.01-.02.44-.62-.02.01-.44zm4.6.4l.62.08-.06.43-.62-.09.06-.42z"/><path fill="#fabc00" d="M1.22 6.44s.7 1.03.4 1.84l19.07.05c-.1-.62.36-1.73.36-1.73s-8.97-1.47-19.83-.16z"/><path fill="#fabc00" d="M1.35 8.82c-.59-.7.41-.87.41-.87 1.3-.3 12.3-.8 18.94.08 0 0 .94.36.08.82M.87 6.52c-.33-.81 5.08-1 10.22-.97S21.83 6 21.53 6.7s-1.84-.33-10.46-.33-9.88.95-10.2.14z"/><path fill="#14458f" stroke="#000" stroke-width=".32" stroke-miterlimit="4" stroke-linecap="butt" stroke-linejoin="miter" d="M10.88 31.84C4.6 31.84.57 28.48.57 23.24V9c3.03-.76 17.85-.79 21.07 0v14.23c0 5.19-4.49 8.6-10.76 8.6z"/><path fill="#fabc00" stroke="#000" stroke-width=".32" stroke-miterlimit="4" stroke-linecap="butt" stroke-linejoin="round" d="M12.11 14.8v10.06c0 3.32 5.38 1.53 5.56-1.57l-1.25-.07c.69-1.7 1.12-3.68 1.32-4.92s.78-.5 1.02 0c.24.47 1.46 3.6 1.23 4.95l-.9.1c.02.32-1.09 5.94-8 5.94s-7.9-5.42-7.87-5.87l-.95-.08c-.17-1.48 1.07-4.66 1.39-5.26s.68-.53.83-.02c.14.51 1.3 5.04 1.38 5.2l-1.22.12c.47 3.74 5.6 4.47 5.6 1.53v-10.1"/><path fill="#000" d="M18.25 23.06c.2-1.4.17-2.87.07-4.3.22 1.43.37 2.87.29 4.35l-.36-.05zm-14.59.12c-.2-1.44-.01-2.84.19-4.24a14.5 14.5 0 0 0 .17 4.17l-.36.07z"/><path fill="#fabc00" stroke="#000" stroke-width=".32" stroke-miterlimit="4" stroke-linecap="butt" stroke-linejoin="miter" d="M19.14 11.12s-2.36 2-2.54 2.42l.94.9c.47-.45 2.14-2.89 2.14-2.89"/><path fill="#fabc00" stroke="#000" stroke-width=".32" stroke-miterlimit="4" stroke-linecap="butt" stroke-linejoin="miter" d="M20.48 10.9a.7.7 0 1 1-1.4 0 .7.7 0 0 1 1.4 0z"/><path fill="#000" d="M20.14 10.73c.06.27-.16.6-.44.59a.4.4 0 0 0 .26-.56l.18-.03z"/><path fill="#d9d9d9" d="M15.74 13.82S3.29 27.91 4.02 28.62c.72.73 13.34-13.43 13.34-13.43"/><path fill="#fabc00" stroke="#000" stroke-width=".32" stroke-miterlimit="4" stroke-linecap="butt" stroke-linejoin="miter" d="M14.78 12.5l-.3.62s2.84 1.24 3.67 3.3l.63-.45a8.09 8.09 0 0 0-4-3.46zM3.21 11.12s2.36 2 2.54 2.42l-.93.9c-.47-.45-2.15-2.89-2.15-2.89"/><path fill="#fabc00" stroke="#000" stroke-width=".32" stroke-miterlimit="4" stroke-linecap="butt" stroke-linejoin="miter" d="M3.28 10.9a.7.7 0 1 1-1.4 0 .7.7 0 0 1 1.4 0z"/><path fill="#000" d="M2.4 10.81c-.07.21.02.44.26.49-.24.03-.48-.23-.44-.52l.18.03z"/><path fill="#d9d9d9" d="M6.62 13.82s12.44 14.09 11.72 14.8c-.72.73-13.35-13.43-13.35-13.43"/><path fill="#fabc00" stroke="#000" stroke-width=".32" stroke-miterlimit="4" stroke-linecap="butt" stroke-linejoin="miter" d="M7.57 12.5l.31.62s-2.85 1.24-3.68 3.3l-.63-.45a8.08 8.08 0 0 1 4-3.46z"/><path fill="#fabc00" stroke="#000" stroke-width=".32" stroke-miterlimit="4" stroke-linecap="butt" stroke-linejoin="round" d="M10.25 24.91v-10.1l1.86-.01v10.06"/><path fill="#fabc00" stroke="#000" stroke-width=".32" stroke-miterlimit="4" stroke-linecap="butt" stroke-linejoin="miter" d="M12.12 12.8v1.16l1.52-.03v1.31c-2.4-.33-4.93 0-4.93 0V13.9l1.57.1v-1.23"/><path fill="#fabc00" stroke="#000" stroke-width=".32" stroke-miterlimit="4" stroke-linecap="butt" stroke-linejoin="miter" d="M13.12 11.3a1.92 1.92 0 1 1-3.84 0 1.92 1.92 0 0 1 3.84 0z"/><path fill="#14458f" stroke="#000" stroke-width=".32" stroke-miterlimit="4" stroke-linecap="butt" stroke-linejoin="miter" d="M12.01 11.3a.81.81 0 1 1-1.62 0 .81.81 0 0 1 1.62 0z"/></svg>