<svg version="1.1" xmlns="http://www.w3.org/2000/svg" viewBox="0 0 28 32"><path fill="#da121a" stroke="#000" stroke-width=".42" stroke-miterlimit="4" stroke-linecap="butt" stroke-linejoin="miter" d="M.76.38S.64 12.94.76 19.4c0 6.82 6.22 12.23 13.35 12.21s13.35-5.4 13.35-12.21V.38z"/><path fill="#fcdd09" d="M23.2 23.77l-3.56-1.27.38 3.76-2.96-2.36-.86 3.68-2.03-3.19-2 3.2-.9-3.67-2.94 2.38.36-3.77-3.55 1.3 1.56-3.45-3.79.07 2.6-2.76-3.6-1.16 3.35-1.76-3.03-2.27 3.74-.58L3.84 8.8l3.73.66-1-3.64 3.3 1.83.25-3.77 2.53 2.81L14.1 3.2l1.48 3.48 2.51-2.82.27 3.77 3.3-1.86-.98 3.65 3.72-.69-2.1 3.14 3.74.56-3.01 2.29 3.35 1.74-3.59 1.18 2.61 2.74-3.78-.05z"/><path fill="#da121a" d="M7.99 12.6h.73v-2.28h2.62v2.27h.73v1.37H7.98zm8.18 0h.73v-2.28h2.62v2.27h.73v1.37h-4.09zm-4.09 0h.73v-2.28h2.62v2.27h.73v1.37h-4.09z"/><path fill="none" stroke="#000" stroke-width="1.26" stroke-miterlimit="4" stroke-linecap="butt" stroke-linejoin="miter" d="M.76.95h26.7"/><path fill="#0f47af" opacity=".99" d="M.8 16.09c2.5-.83 4.96.46 7.3.52s4.24-.92 6-.92c1.76 0 4.34 1.05 6.5.92s4.81-1.54 6.75-.5l-.01 3.46c-2.11-.38-5.58.6-7.23.62s-3.37-.81-5.81-.77c-2.44.05-3.74.84-5.44.82S2.78 19.1.83 19.68z"/></svg>