<svg xmlns="http://www.w3.org/2000/svg" viewBox="0 0 28.27 30.73"><path fill="#fff" d="M15.71 31.24C4.74 31 3 21.28 3 21.28L1.33 1S24.65 1.17 29 1c-2.07 20.09 1 26.93-13.29 30.24z"/><path fill="#020202" d="M1.8 10.43s-.11-.65-.17-1.61-.21-2.94-.33-4.39-.22-2.87-.22-3.15v-.5h28.27v.5c0 .28-.07 1.31-.15 2.29l-.39 5c-.56 7.52-.89 11.24-1.09 12.27A12.85 12.85 0 0 1 12.8 31.29a12.57 12.57 0 0 1-6.68-3.7c-2.46-2.51-3.32-4.65-3.72-9.26m15.93 12.1a12.27 12.27 0 0 0 8.53-8.26c.42-1.42.53-2.31.86-7.19 0-.68.16-2.29.24-3.57.35-5.05.62-9.27.62-9.56s-.16-.31-13.36-.31H1.86V2c0 .49.32 5.32.78 11.61.18 2.39.36 4.86.36 5.5a11.5 11.5 0 0 0 .54 3.21 12.37 12.37 0 0 0 10.1 8.49 16.15 16.15 0 0 0 4.66-.37zm-4.15-.09c-.35-.08-.35-.11-.36-2.67v-3.48c0-.48 0-.89-.13-.89a10 10 0 0 0-1.49 1.26c-1.2 1.18-2.88 3.35-2.88 3.82s-.54.16-1.49-.75a4.17 4.17 0 0 1-1-1.22 8.83 8.83 0 0 1 2.21-2.94A14.15 14.15 0 0 1 13 20.64c.37-.14.53-.29.53-.51a10 10 0 0 0-.53-2.68c-.12-.15-.1-.58.08-1.57.48-2.68.89-8.74.59-8.74s-4 4.71-5.53 7.11a15.56 15.56 0 0 1-.95 1.44s-.53-.37-1.12-.82a16.08 16.08 0 0 0-1.79-1.2 2.91 2.91 0 0 1-.73-.47 6.38 6.38 0 0 1 1-.72 48.13 48.13 0 0 0 10.36-10l.4-.52.6.83a19.97 19.97 0 0 0 1.9 2.34 47.58 47.58 0 0 0 7.76 7.1l1.13.83-.86.46a12.39 12.39 0 0 0-1.82 1.29 8.5 8.5 0 0 1-1.05.83s-.18-.2-.28-.44A53.79 53.79 0 0 0 17 7.54l-.85-.93v1a53.85 53.85 0 0 0 1.11 8.79c.14.54.13.72-.06 1a5.32 5.32 0 0 0-.35 1.69l-.11 1.33.69.26a14.83 14.83 0 0 1 3.76 2.49 12.52 12.52 0 0 1 2.58 3.12c0 .44-2.31 2.37-2.62 2.18a5.2 5.2 0 0 1-.65-1 13.39 13.39 0 0 0-1.14-1.67 17.35 17.35 0 0 0-2.45-2.38 18.67 18.67 0 0 0 0 3.28c.08 2.64.06 3.35-.1 3.45a8.44 8.44 0 0 1-2.6.13zm.52-6.58l-.1-5.55c0-.19-.09-.35-.32-.35s-.31.07-.24.35a77.46 77.46 0 0 1 .58 9 9.34 9.34 0 0 0 .11 2V23.7zm6.6 2.54a17.24 17.24 0 0 0-2.9-2.59c-.34-.24-.45-.29-.23-.1a32.8 32.8 0 0 1 3 3.11c.26.34.52.55.59.48s-.14-.46-.5-.89zm-13.13-.09a17 17 0 0 1 2.46-3.15c.73-.73.74-.75.16-.32a10.51 10.51 0 0 0-1.24 1.16 15.28 15.28 0 0 0-1.94 2.69c0 .3.32.09.56-.38zm6.31-9.51c-.58-.25-.58-.25-.27-2.25a35.94 35.94 0 0 0 .3-3.65c.07-2.34 0-2.19-.23.85a40.74 40.74 0 0 1-.71 5c-.07.23 0 .27.67.27H15l-.51-.22zm8-3.83a36.48 36.48 0 0 0-3.09-3.94c-.56-.59-.55-.58.11.31a80.08 80.08 0 0 1 3 4.21c.34.52.67.9.74.83a4 4 0 0 0-.8-1.41zM6.5 12.4a53.41 53.41 0 0 0 4.84-4.65 13.53 13.53 0 0 0-1.59 1.41 58.78 58.78 0 0 1-4.25 3.69c-.25.19-.35.35-.24.35a4.94 4.94 0 0 0 1.24-.8z"/></svg>