<svg version="1.1" xmlns="http://www.w3.org/2000/svg" viewBox="0 0 28 32"><path fill="#da121a" stroke="#18140c" stroke-width=".37" stroke-miterlimit="4" stroke-linecap="butt" stroke-linejoin="miter" d="M13.95 31.74a14.31 14.31 0 0 1-12.52-8.22C.26 21.32.12 18.8.2 16.34V.25h27.86c-.03 6.55.03 13.1-.06 19.65-.67 6.15-6.18 11.15-12.25 11.75-.6.06-1.25.12-1.8.1z"/><path fill="#fff" d="M8.94 8H19.3v13.65H8.94V8zm.94-5.18v-.47c.27.01.6 0 .73-.54-.02-.93-1.28-.88-1.22.01.07.55.4.53.73.53v.47h7.73l.01-.45s-.56-.27-.45-.72c0-.77 1.18-.68 1.18 0 0 .05.07.65-.47.7l-.01.47h.24l1.41 3.77H8.47l1.18-3.77zm-2.45 8.76H3.2v11.29h4.23v-11.3zm.47-1.42L5.56 5.93v-.7c.13-.1.43-.14.42-.63 0-.8-1.29-.8-1.3-.03 0 .5.25.58.41.65v.71l-2.35 4.24z"/><path fill="#fff" d="M7.9 9.46H6.74v.75H5.8v-.75H4.6v.7h-.7l.01-.7h-1.2v1.65H7.9z"/><path fill="#fff" d="M7.9 11.1H2.74l.47.48h4.24z"/><path fill="#000" d="M5.55 15.58h-.7v-1.93c.05-.17.12-.27.35-.46.21.18.29.32.35.46zm0 4.34h-.7V18c.05-.16.12-.26.35-.45.21.18.29.32.35.46z"/><path fill="#fcdd09" d="M4.73 4.63a.59.59 0 1 0 1.17 0 .59.59 0 0 0-1.17 0z"/><path fill="#fff" d="M20.7 11.58h4.24v11.29h-4.23v-11.3zm-.47-1.42l2.36-4.23v-.7c-.13-.1-.43-.14-.42-.63 0-.8 1.29-.8 1.3-.03 0 .5-.25.58-.41.65v.71l2.35 4.24z"/><path fill="#fcdd09" d="M23.41 4.63a.59.59 0 1 1-1.17 0 .59.59 0 0 1 1.17 0z"/><path fill="#fff" d="M20.23 9.46h1.18v.75h.94v-.75h1.18v.7h.7l-.01-.7h1.2v1.65h-5.18z"/><path fill="#fff" d="M20.23 11.1h5.18l-.47.48H20.7z"/><path fill="#000" d="M22.59 15.58h.7v-1.93c-.05-.17-.12-.27-.35-.46-.21.18-.28.32-.35.46zm0 4.34h.7V18c-.05-.16-.12-.26-.35-.45-.21.18-.28.32-.35.46z"/><path fill="#fff" d="M7.34 28.94v1.65m1.18-1.65H5.69v1.65h2.83v-1.65m-1.88-1.41v1.41m-2.12 0h4v-1.41h-4zm1.17-2.82v1.41m1.65-1.41v1.41m1.18 0v-1.41H3.1v1.4zm-3.77-3.06v1.65m1.88-1.65v1.65m1.89-1.65H1.69v1.65h6.83zM1.69 24v.47h6.83V24zm4.95-2.12v.94h-.95v-.94H4.52v.94H3.34v-.94H2.4V24h6.12v-2.12H6.64m14.26 7.16v1.64m-1.18-1.64h2.82v1.64h-2.82v-1.65m1.88-1.4v1.4m2.12 0h-4v-1.4h4zm-1.18-2.82v1.41m-1.65-1.4v1.4m-1.17 0v-1.4h5.41v1.4zm3.76-3.05v1.64m-1.88-1.64v1.64m-1.88-1.64h6.82v1.64h-6.82zm6.82-.48v.48h-6.82v-.48zm-4.94-2.11v.94h.94v-.94h1.18v.94h1.17v-.94h.94v2.11h-6.11v-2.11h1.88"/><path fill="#fff" d="M8.59 23.53v8.23h11.06v-8.23zm-.47-.7h12l-.47.7H8.59zm0-2.12h1.41v.94h1.41v-.94h1.41v.94h1.18v-.94h1.41v.94h1.18v-.94h1.41v.94h1.18v-.94h1.4v2.11h-12z"/><path fill="#da121a" d="M11.06 31.77V28.7c.2-1.7 1.38-3.14 3.06-4.48 1.4 1.26 2.7 2.58 3.06 4.48v3.05z"/><path fill="#fcdd09" d="M13.06 27.48h.7v-3.3h.71v3.3h.7V24.9h.71v2.6h1.41v.7h-1.4v.94c0 .47-.71.47-.71 0v-.94h-.7v.94c0 .47-.72.47-.72 0v-.94h-.7v.94c0 .47-.7.47-.7 0v-.94h-1.42v-.7h1.41v-2.6h.7z"/><path fill="#000" d="M9.55 17.97l4.5-4.9 2.28 2.52c1.16 1.38 1.06 3.15.59 4.63-1.43.72-3.3.84-4.68-.17-.97-.72-1.76-1.36-2.69-2.08z"/><path fill="#da121a" d="M9.76 17.96l4.3-4.68 2.19 2.4c.69.8 1.24 2.26.6 4.47-2.12.97-3.66.4-4.53-.2-.8-.55-1.95-1.5-2.56-1.99z"/><path fill="#fff" d="M12.32 17.9l1.9-2.06.96 1.05c.3.36.55 1 .27 1.98-.94.42-1.62.18-2-.09-.35-.24-.86-.66-1.12-.88z"/><path fill="#fcef3c" d="M14.6 18.1c.13-.13.11-.34-.02-.47s-.36-.12-.48.01-.1.35.03.47.35.13.47 0z"/><path fill="#fcef3c" d="M12.2 16.06c-.18-.28-.1-.31.17-.17l1.82 1.67-.16.17zm3.97 3.64c.35.15.2-.06.16-.17L14.68 18l-.16.18z"/><path fill="#fcef3c" stroke="#000" stroke-width=".47" stroke-miterlimit="4" stroke-linecap="butt" stroke-linejoin="miter" d="M16.29 19.14c-.06-.06-.23.02-.37.17s-.2.32-.14.38c.06.05.22-.03.36-.18s.2-.32.15-.38z"/><path fill="#fcef3c" d="M15.99 15.92c.18-.1.3-.11.17.16l-1.49 1.63-.18-.17zm-3.4 3.7c-.12.18 0 .3.17.16l1.46-1.58-.18-.16zm1.51-4.59l.3-.01.1 2.5-.3.01-.1-2.5zm.24 5.17c.01.16.13.46.24 0l-.09-1.99-.24.01zm2.34-2.55c.05.07.47.02.01.24l-1.98.09-.01-.24z"/><path fill="#fcef3c" stroke="#000" stroke-width=".53" stroke-miterlimit="4" stroke-linecap="butt" stroke-linejoin="miter" d="M11.45 18.02c0-.07-.15-.12-.33-.12s-.33.08-.32.15c0 .07.15.12.33.11s.32-.07.32-.14z"/><path fill="#fcef3c" d="M11.12 17.9l.01.23 2.92-.12-.02-.23z"/><path fill="#fcef3c" stroke="#000" stroke-width=".48" stroke-miterlimit="4" stroke-linecap="butt" stroke-linejoin="miter" d="M12.85 15.74c-.06-.05-.27.09-.47.3s-.31.44-.26.5c.06.04.27-.09.47-.3s.31-.44.26-.5z"/><path fill="#fcef3c" stroke="#000" stroke-width=".51" stroke-miterlimit="4" stroke-linecap="butt" stroke-linejoin="miter" d="M16.2 16.53c.06-.05-.06-.24-.24-.4s-.38-.27-.43-.22c-.05.05.07.24.25.4s.38.27.43.22z"/><path fill="#fcef3c" stroke="#000" stroke-width=".53" stroke-miterlimit="4" stroke-linecap="butt" stroke-linejoin="miter" d="M16.45 18.17c.09 0 .15-.18.14-.4s-.09-.38-.17-.38c-.09 0-.15.18-.14.4s.09.38.17.38zm-1.59 1.71c0 .1-.19.18-.43.19s-.44-.06-.44-.15c0-.1.19-.18.43-.2s.44.07.44.16z"/><path fill="#fcef3c" stroke="#000" stroke-width=".51" stroke-miterlimit="4" stroke-linecap="butt" stroke-linejoin="miter" d="M13.2 19.8c.04-.05-.06-.23-.25-.4s-.37-.25-.42-.2c-.04.05.06.23.25.4s.37.26.41.2z"/><path fill="#fcef3c" stroke="#000" stroke-width=".53" stroke-miterlimit="4" stroke-linecap="butt" stroke-linejoin="miter" d="M11.32 18.46c.09 0 .16-.2.15-.43s-.1-.43-.19-.42c-.1 0-.16.2-.15.43s.1.43.19.42z"/><path fill="#fff" d="M12.84 13.5h2.37v.67h-2.37zM8.47 7.53h11.3l-.48.47H8.94zm0-2.12h1.15l.03 1.18h1.17V5.4h1.41v1.2h1.18l.01-1.18h1.4V6.6H16l-.01-1.18h1.41l.01 1.18h.94V5.4h1.41v2.12H8.47z"/><path fill="#fcdd09" d="M9.4 1.76a.59.59 0 1 0 1.17 0 .59.59 0 0 0-1.17 0zm8.01-.02a.59.59 0 1 0 1.18 0 .59.59 0 0 0-1.18 0z"/><path fill="#da121a" d="M11.6 8.63c.46.1.78.38.71 1.08 1.25 2.71 3.87.84 3.58 0-.04-.43.05-.83.79-1.12-.17.36-.26.64-.27.86.16.74.12.83-.2 1.43l.25-.33c.34.47.46.46 1.45.47A2.83 2.83 0 0 1 16 12.09c.12.66.14 1.53.02 2.28l-.72-.22s-.18-.7-.25-.66c-.06.03-1.98.09-1.99 0l-.27.66-.72.18a8.8 8.8 0 0 1-.02-2.2c-1.42.21-1.5-.52-1.81-1.1.85.4 1.25 0 1.59-.34.03-.03.4.34.43.2-.56-.37-.64-1.06-.6-1.46.06-.25.16-.53-.06-.8z"/><path fill="#fcdd09" d="M12.05 14.37a6.25 6.25 0 0 1 4 .02c.35.25-1.48.92-1.8 1.06-.18.09-2.35-.76-2.2-1.08z"/><path fill="#000" d="M15.75 12.08c-.26.28-.44.28-.63.3-.27-.07-.47-.18-.54-.37.04-.27.24-.43.46-.56.43-.02.5.39.71.63z"/><path fill="#fff" d="M15.35 11.91c0 .15-.13.21-.26.23-.6-.17.1-.58.26-.23z"/><path fill="#000" d="M11.07 11.44l.48-.14c.21.02.4.1.54.23-.4.16-.76.2-1.02-.1zm6-.12l-.48-.14c-.21.02-.4.1-.54.23.4.16.76.2 1.02-.09zm-4.79.82c.26.29.44.29.63.3.27-.07.47-.18.55-.37-.05-.26-.24-.43-.47-.56-.43-.01-.5.4-.7.63z"/><path fill="#fff" d="M12.61 11.98c0 .15.12.2.25.22.63-.18-.15-.53-.25-.22z"/><path fill="#da121a" d="M16.3 12.01l2.05 4.93c-.3-.13-.54-.18-.94-.47l-.23-.47c-.5-.8-.72-2-1.08-3.07.09-.32-.28-.88.2-.92zm-4.77.22H12c-.21 1.38-.58 2.44-.94 3.53l-1.41 1.42z"/><path fill="#fcdd09" d="M12.47 8.94c.21.33.25.51.27.79l.2.86c1.18.94 2.36.23 2.59-.24v-.7l.24-.94c-.24.03-.29.23-.46.38-.38.24-.52.19-.2.52.35.39-.55.68-.76.27.44-.13.44-.6 0-.7.47-.94-.94-.94-.47 0-.34.23-.49.5 0 .7-.1.41-.94.24-.7-.23.18-.26.26-.28-.24-.47-.16-.1-.37-.53-.47-.24z"/><path fill="none" stroke="#18140c" stroke-width=".37" stroke-miterlimit="4" stroke-linecap="butt" stroke-linejoin="miter" d="M13.95 31.74a14.31 14.31 0 0 1-12.52-8.22C.26 21.32.12 18.8.2 16.34V.25h27.86c-.03 6.55.03 13.1-.06 19.65-.67 6.15-6.18 11.15-12.25 11.75-.6.06-1.25.12-1.8.1z"/></svg>