<svg version="1.1" xmlns="http://www.w3.org/2000/svg" viewBox="0 0 31 32"><path fill="#0f47af" d="M.38.38h30.6v16.58c0 8.28-7.97 14.66-15.3 14.66S.38 25.24.38 16.96V.38z"/><path fill="#000" d="M15.68 31.8C8.37 31.8.2 25.47.2 16.97V.19h30.98v16.77c0 8.5-8.18 14.85-15.49 14.85zM.58.58v16.39c0 8.28 7.97 14.47 15.1 14.47s15.11-6.2 15.11-14.47V.57H.58z"/><path fill="#fff" d="M7.57 6c.33-.4.65-.9.98-1.68.3.76.58 1.24.87 1.68.58-.59 1.96-1.07 2.55-.52s.34 1.74 0 2.35c.45.14 1.02.27 1.92.35-.63.64-1.02 1.1-1.33 1.5.78.37 1.7 1.35 1.32 2.13s-1.42 1.02-2.36.83c.04.81.17 1.43.34 1.92-.77-.43-1.28-.61-1.87-.87-.06.9-.62 1.97-1.47 1.94-.84-.02-1.4-1.1-1.49-1.92-.86.38-1.3.63-1.8.88.16-.44.17-1.2.2-1.97-.8.13-2.03-.14-2.29-.83-.26-.7.64-1.87 1.31-2.16a5.73 5.73 0 0 0-1.31-1.4c.7-.07 1.36-.19 1.87-.39-.22-.73-.36-2 .16-2.42.54-.39 1.87.02 2.4.57z"/><path fill="#000" d="M8.56 15.74h-.02c-.9-.02-1.44-1.07-1.57-1.88-.7.32-1.12.54-1.53.76l-.15.07c-.03.02-.08.02-.1 0s-.05-.07-.03-.11c.14-.4.16-1.13.19-1.83-.8.09-2.01-.17-2.28-.91-.27-.72.56-1.86 1.25-2.23a5.53 5.53 0 0 0-1.24-1.28c-.03-.03-.04-.07-.03-.1s.05-.07.09-.08a7.44 7.44 0 0 0 1.77-.35c-.22-.77-.33-2 .22-2.43.55-.45 1.86-.03 2.43.48.26-.32.57-.79.9-1.57.01-.03.05-.05.09-.05s.07.02.09.06c.27.71.54 1.17.8 1.57.64-.58 1.98-1.02 2.6-.45.6.55.4 1.7.07 2.37.5.15 1.07.25 1.8.31.04 0 .07.03.08.06a.1.1 0 0 1-.02.1c-.62.65-1 1.08-1.25 1.4.4.21.78.55 1.03.9.34.47.42.94.24 1.31-.4.83-1.47 1.06-2.34.92.04.7.15 1.28.32 1.77.01.04 0 .07-.03.1s-.08.03-.1.01c-.58-.32-1.02-.5-1.44-.68l-.3-.13c-.12.94-.71 1.9-1.54 1.9zm-1.52-2.12c.02 0 .04 0 .05.02.02 0 .04.04.04.06.08.74.58 1.82 1.4 1.84h.02c.8 0 1.3-1.07 1.34-1.85 0-.03.02-.05.05-.07s.06-.02.09-.01l.42.18c.38.16.76.32 1.24.58a7.74 7.74 0 0 1-.27-1.72c0-.03.02-.05.04-.07s.05-.03.08-.02c.82.16 1.88 0 2.26-.79.19-.4-.02-.83-.23-1.11a3 3 0 0 0-1.06-.9c-.03 0-.05-.03-.05-.06s0-.05.02-.08c.24-.3.58-.72 1.2-1.36a8.92 8.92 0 0 1-1.75-.32c-.03-.01-.05-.04-.06-.06V7.8c.36-.64.56-1.76.03-2.25-.55-.5-1.87-.03-2.42.52-.02.02-.05.04-.08.03a.08.08 0 0 1-.07-.04 8.3 8.3 0 0 1-.8-1.49 6.33 6.33 0 0 1-.89 1.47v.02a.12.12 0 0 1-.13.02l-.02-.02c-.5-.53-1.78-.9-2.26-.53-.46.37-.35 1.57-.12 2.31 0 .05-.02.1-.06.12-.43.16-.97.28-1.67.37.42.34.78.71 1.15 1.27.02.03.02.05.02.08a.1.1 0 0 1-.06.07c-.61.27-1.49 1.4-1.25 2.04.24.66 1.43.9 2.18.78.03 0 .06 0 .08.02s.03.05.03.08v.08a10.7 10.7 0 0 1-.14 1.7 23.87 23.87 0 0 1 1.65-.82z"/><path fill="#000" d="M7.02 13.85a.1.1 0 0 1-.1-.1c-.01-.73.14-1.29.57-2.1.02-.05.08-.07.13-.04s.06.08.03.12a3.72 3.72 0 0 0-.54 2.02c.01.05-.04.09-.1.1.01 0 .01 0 0 0zm2.98-.01a.1.1 0 0 1-.1-.1c.01-.7-.14-1.22-.57-2-.03-.04-.01-.1.03-.13s.1 0 .13.04c.45.81.6 1.37.6 2.1 0 .04-.04.09-.09.09zm1.56-1.05h-.04a3.87 3.87 0 0 1-1.72-1.35c-.03-.04-.03-.1.01-.13s.1-.03.13.01c.57.69 1 1.03 1.65 1.28a.1.1 0 0 1 .05.12c-.01.05-.04.07-.08.07zm-6.14-.04a.1.1 0 0 1-.08-.06.1.1 0 0 1 .05-.13 3.76 3.76 0 0 0 1.67-1.25c.03-.04.1-.05.13-.02s.05.1.01.14c-.6.7-1.05 1.05-1.74 1.31h-.03zm3.1-1.45a1.35 1.35 0 1 1 0-2.7 1.35 1.35 0 0 1 0 2.7zm0-2.5a1.15 1.15 0 1 0 0 2.31 1.15 1.15 0 0 0 0-2.3zM6.56 9.9l-.03-.01c-.84-.27-1.4-.3-2.07-.17-.06.01-.1-.02-.12-.08s.03-.1.08-.11c.72-.15 1.28-.1 2.17.17.05.02.08.07.06.12-.01.05-.05.07-.1.07zm6.04-.1l-.04-.02a3.73 3.73 0 0 0-2.08-.05c-.05.01-.1-.03-.12-.08s.03-.1.08-.11a3.95 3.95 0 0 1 2.18.06.1.1 0 0 1 .07.12.1.1 0 0 1-.1.07zm-5.9-.53l-.05-.01a3.95 3.95 0 0 1-1.7-1.37c-.04-.04-.02-.1.02-.13s.1-.02.14.02c.4.58.82.92 1.62 1.3.05.03.07.09.05.13a.1.1 0 0 1-.09.06zm3.62-.03a.1.1 0 0 1-.09-.05c-.02-.05 0-.1.05-.13.8-.39 1.23-.73 1.62-1.3.03-.05.1-.05.14-.03.04.03.05.1.02.14-.42.6-.87.95-1.7 1.36h-.04zM8.11 8.12c-.05 0-.1-.04-.1-.09a3.68 3.68 0 0 0-.55-2 .1.1 0 0 1 .03-.14.1.1 0 0 1 .13.03c.4.63.55 1.17.58 2.1 0 .05-.03.1-.1.1.01 0 .01 0 0 0zm.68-.02a.1.1 0 0 1-.1-.1c.09-.92.26-1.47.68-2.07.03-.05.09-.06.13-.03s.06.1.03.14c-.4.57-.56 1.1-.64 1.98a.1.1 0 0 1-.1.08z"/><path fill="#fff" d="M21.54 6c.32-.4.65-.9.97-1.68.3.76.58 1.24.87 1.68.58-.59 1.96-1.07 2.55-.52s.34 1.74 0 2.35c.45.14 1.02.27 1.92.35-.63.64-1.02 1.1-1.33 1.5.78.37 1.7 1.35 1.33 2.13s-1.43 1.02-2.37.83c.05.81.17 1.43.34 1.92-.76-.43-1.27-.61-1.87-.87-.05.9-.62 1.97-1.46 1.94-.85-.02-1.4-1.1-1.5-1.92-.86.38-1.3.63-1.8.88.16-.44.18-1.2.2-1.97-.8.13-2.03-.14-2.28-.83-.26-.7.63-1.87 1.3-2.16a5.73 5.73 0 0 0-1.31-1.4c.7-.07 1.36-.19 1.87-.39-.22-.73-.36-2 .16-2.42.55-.39 1.88.02 2.4.57z"/><path fill="#000" d="M22.52 15.74h-.02c-.9-.02-1.44-1.07-1.57-1.88-.7.32-1.12.54-1.53.76l-.15.07c-.03.02-.07.02-.1 0s-.04-.07-.03-.11c.14-.4.16-1.13.19-1.83-.8.09-2-.17-2.28-.91-.26-.72.56-1.86 1.25-2.23a5.53 5.53 0 0 0-1.23-1.28C17 8.3 17 8.26 17 8.23s.05-.07.09-.08a7.44 7.44 0 0 0 1.77-.35c-.22-.77-.33-2 .22-2.43.55-.45 1.86-.03 2.43.48.26-.32.58-.79.9-1.57.01-.03.05-.05.09-.05s.08.02.09.06c.27.71.54 1.17.8 1.57.65-.58 1.98-1.02 2.6-.45.6.55.4 1.7.07 2.37.5.15 1.07.25 1.8.31.04 0 .07.03.08.06a.1.1 0 0 1-.02.1c-.62.65-1 1.08-1.24 1.4.38.21.77.55 1.02.9.34.47.42.94.24 1.31-.4.83-1.47 1.06-2.34.92.04.7.15 1.28.32 1.77.02.04 0 .07-.03.1s-.08.03-.1.01c-.58-.32-1.02-.5-1.44-.68l-.3-.13c-.12.94-.7 1.9-1.54 1.9zm-1.5-2.12c.01 0 .03 0 .04.02.02 0 .04.04.04.06.08.74.58 1.82 1.4 1.84h.02c.8 0 1.3-1.07 1.34-1.85 0-.03.02-.05.05-.07s.06-.02.09-.01l.42.18c.37.16.76.32 1.24.58a7.8 7.8 0 0 1-.27-1.72.1.1 0 0 1 .04-.07.08.08 0 0 1 .08-.02c.82.16 1.88 0 2.25-.79.2-.4 0-.83-.22-1.11a3 3 0 0 0-1.06-.9c-.03 0-.05-.03-.05-.06s0-.05.02-.08c.24-.3.58-.72 1.2-1.36a8.92 8.92 0 0 1-1.75-.32c-.03-.01-.05-.04-.06-.06V7.8c.36-.64.56-1.76.03-2.25-.55-.5-1.87-.03-2.42.52-.02.02-.05.04-.08.03a.08.08 0 0 1-.07-.04 8.3 8.3 0 0 1-.8-1.49 6.33 6.33 0 0 1-.89 1.47v.02c-.03.03-.08.04-.13.02l-.02-.02c-.5-.53-1.78-.9-2.26-.53-.46.37-.35 1.57-.12 2.31 0 .05-.02.1-.06.12-.43.16-.97.28-1.67.37.42.34.78.71 1.15 1.27.02.03.02.05.02.08a.1.1 0 0 1-.05.07c-.62.27-1.5 1.4-1.26 2.04.24.66 1.43.9 2.19.78.02 0 .05 0 .07.02s.03.05.03.08v.07a10.7 10.7 0 0 1-.14 1.7 23.87 23.87 0 0 1 1.65-.82z"/><path fill="#000" d="M20.99 13.85a.1.1 0 0 1-.1-.1c-.01-.73.13-1.29.57-2.1.02-.05.08-.07.13-.04s.06.08.03.12a3.72 3.72 0 0 0-.54 2.02c0 .05-.04.09-.1.1zm2.97-.01a.1.1 0 0 1-.1-.1c.01-.7-.14-1.22-.57-2-.03-.04 0-.1.04-.13s.1 0 .12.04c.45.81.61 1.37.6 2.1 0 .04-.03.09-.09.09zm1.56-1.05h-.04a3.87 3.87 0 0 1-1.72-1.35c-.03-.04-.03-.1.01-.13s.1-.03.14.01c.57.69 1 1.03 1.64 1.28a.1.1 0 0 1 .05.12c0 .05-.04.07-.08.07zm-6.13-.04a.1.1 0 0 1-.1-.06.1.1 0 0 1 .07-.13 3.76 3.76 0 0 0 1.66-1.25c.03-.04.1-.05.13-.02s.05.1.02.14c-.6.7-1.06 1.05-1.74 1.31h-.04zm3.1-1.45a1.35 1.35 0 1 1 0-2.7 1.35 1.35 0 0 1 0 2.7zm0-2.5a1.15 1.15 0 1 0 0 2.31 1.15 1.15 0 0 0 0-2.3zm-1.97 1.1l-.02-.01c-.85-.27-1.4-.3-2.08-.17-.05.01-.1-.02-.12-.08-.01-.05.03-.1.08-.11.72-.15 1.29-.1 2.17.17a.1.1 0 0 1 .07.12.1.1 0 0 1-.1.07zm6.04-.1c-.01 0-.02 0-.03-.02a3.73 3.73 0 0 0-2.09-.05c-.05.01-.1-.03-.11-.08s.02-.1.07-.11a3.95 3.95 0 0 1 2.18.06.1.1 0 0 1 .07.12.1.1 0 0 1-.1.07zm-5.9-.53l-.05-.01a3.95 3.95 0 0 1-1.7-1.37c-.03-.04-.02-.1.02-.13s.1-.02.14.02c.4.58.83.92 1.62 1.3.05.03.07.09.05.13a.09.09 0 0 1-.08.06zm3.63-.03a.1.1 0 0 1-.09-.05c-.03-.05 0-.1.05-.13.8-.39 1.23-.73 1.62-1.3.03-.05.09-.05.13-.03.05.03.06.1.03.14-.42.6-.87.95-1.7 1.36h-.04zm-2.21-1.12c-.05 0-.1-.04-.1-.09a3.68 3.68 0 0 0-.55-2 .1.1 0 0 1 .03-.14.1.1 0 0 1 .13.03c.4.63.54 1.17.58 2.1a.1.1 0 0 1-.1.1zm.67-.02a.1.1 0 0 1-.1-.1c.1-.92.27-1.47.68-2.07.04-.05.1-.06.14-.03s.06.1.02.14c-.4.57-.56 1.1-.64 1.98 0 .05-.04.08-.1.08z"/><path fill="#fff" d="M14.9 18.15c.32-.4.64-.88.97-1.67.3.76.58 1.24.87 1.68.58-.59 1.96-1.07 2.55-.52s.34 1.74 0 2.35c.45.14 1.02.27 1.92.35a18 18 0 0 0-1.33 1.49c.78.38 1.7 1.36 1.33 2.14s-1.43 1.02-2.37.83c.05.81.17 1.43.34 1.92-.77-.43-1.28-.61-1.87-.87-.06.9-.62 1.97-1.47 1.94-.84-.02-1.4-1.1-1.49-1.92-.86.38-1.3.63-1.8.88.16-.44.18-1.21.2-1.97-.8.13-2.03-.14-2.29-.83-.26-.7.64-1.87 1.31-2.16a5.73 5.73 0 0 0-1.31-1.4c.7-.07 1.36-.19 1.87-.39-.22-.73-.36-2 .16-2.42.54-.4 1.88.02 2.4.57z"/><path fill="#000" d="M15.88 27.9h-.02c-.9-.02-1.44-1.07-1.57-1.88-.7.32-1.12.54-1.53.76l-.15.07c-.03.02-.07.02-.1-.01s-.04-.06-.03-.1c.14-.41.16-1.13.19-1.83-.8.09-2-.17-2.28-.91-.26-.72.56-1.86 1.25-2.23a5.53 5.53 0 0 0-1.23-1.29c-.04-.02-.05-.06-.04-.1s.05-.06.09-.07a7.44 7.44 0 0 0 1.77-.35c-.22-.77-.33-2 .22-2.43.55-.45 1.87-.04 2.43.47.26-.31.58-.78.9-1.56.01-.03.05-.05.09-.05a.1.1 0 0 1 .09.06c.27.71.54 1.17.8 1.57.65-.58 1.98-1.02 2.6-.45.6.55.4 1.7.07 2.37.5.15 1.07.25 1.8.3.04 0 .07.04.08.07a.1.1 0 0 1-.01.1c-.63.65-1 1.08-1.25 1.4.39.21.77.55 1.02.9.34.47.42.94.24 1.31-.4.83-1.47 1.06-2.34.92.04.7.15 1.28.32 1.77.02.03 0 .07-.03.1s-.07.03-.1.01c-.58-.32-1.02-.5-1.44-.68l-.3-.13c-.12.93-.7 1.89-1.54 1.89zm-1.5-2.12l.04.01c.02.02.04.05.04.08.08.73.58 1.81 1.4 1.83h.02c.8 0 1.29-1.07 1.34-1.85 0-.03.02-.06.05-.07s.05-.02.09-.01l.42.18c.37.16.75.32 1.24.58a7.74 7.74 0 0 1-.27-1.72.1.1 0 0 1 .03-.07.1.1 0 0 1 .09-.02c.82.16 1.88 0 2.25-.79.2-.4-.01-.82-.22-1.11a3 3 0 0 0-1.06-.9c-.03 0-.05-.03-.06-.06s0-.05.02-.08a20 20 0 0 1 1.2-1.36 8.92 8.92 0 0 1-1.75-.32.08.08 0 0 1-.05-.06c-.02-.03 0-.06 0-.08.35-.63.56-1.76.03-2.25-.55-.5-1.88-.03-2.42.53-.02.01-.05.03-.08.02a.08.08 0 0 1-.07-.04 8.3 8.3 0 0 1-.8-1.49 6.33 6.33 0 0 1-.89 1.47v.02a.1.1 0 0 1-.13.02l-.02-.02c-.51-.53-1.79-.9-2.26-.53-.46.37-.35 1.57-.12 2.31 0 .05-.02.1-.06.12-.43.16-.97.28-1.67.37.42.34.78.71 1.15 1.27.02.03.02.05.02.08a.1.1 0 0 1-.06.07c-.61.27-1.49 1.4-1.25 2.04.24.66 1.43.9 2.18.78.03 0 .06 0 .08.02s.03.05.03.08v.07a10.7 10.7 0 0 1-.14 1.7c.42-.22.86-.45 1.6-.79l.05-.02z"/><path fill="#000" d="M14.35 26a.1.1 0 0 1-.1-.1 3.9 3.9 0 0 1 .57-2.1c.02-.05.08-.07.12-.04s.07.08.04.13a3.72 3.72 0 0 0-.55 2.01c.01.05-.03.1-.08.1zm2.97 0a.1.1 0 0 1-.1-.1c.01-.7-.14-1.22-.57-2-.03-.04-.01-.1.03-.13s.1 0 .13.04c.45.81.6 1.37.6 2.1 0 .04-.03.09-.09.09zm1.56-1.05h-.04a3.87 3.87 0 0 1-1.72-1.35c-.03-.04-.03-.1.01-.13s.1-.03.14.01c.56.69.99 1.03 1.64 1.28a.1.1 0 0 1 .05.12c0 .04-.04.07-.08.07zm-6.13-.04a.1.1 0 0 1-.1-.07.1.1 0 0 1 .06-.12 3.76 3.76 0 0 0 1.67-1.25c.03-.04.1-.05.13-.02s.05.1.02.14c-.6.7-1.06 1.05-1.74 1.31h-.04zm3.1-1.46a1.35 1.35 0 1 1 0-2.69 1.35 1.35 0 0 1 0 2.7zm0-2.49a1.15 1.15 0 1 0 0 2.31 1.15 1.15 0 0 0 0-2.3zm-1.97 1.09l-.03-.01c-.84-.27-1.4-.3-2.07-.17-.05.02-.1-.02-.12-.07s.03-.1.08-.12c.72-.15 1.29-.1 2.17.18.05 0 .08.07.07.12-.02.04-.06.07-.1.07zm6.04-.1l-.04-.01a3.73 3.73 0 0 0-2.08-.06c-.05.01-.1-.02-.11-.07s.02-.1.07-.12a3.95 3.95 0 0 1 2.18.06.1.1 0 0 1 .07.13c-.02.04-.05.07-.1.07zm-5.9-.52l-.05-.01a3.95 3.95 0 0 1-1.7-1.37c-.04-.04-.02-.1.02-.13s.1-.02.14.02c.4.58.83.91 1.62 1.3.05.03.07.09.05.13-.02.04-.05.06-.09.06zm3.63-.04a.1.1 0 0 1-.1-.05c-.02-.05 0-.1.05-.13.8-.39 1.23-.73 1.63-1.3a.1.1 0 0 1 .13-.02c.05.03.05.08.03.13-.42.6-.87.96-1.7 1.36h-.04zm-2.21-1.12c-.05 0-.1-.03-.1-.08a3.68 3.68 0 0 0-.56-2.01c-.02-.05 0-.1.04-.14s.1-.01.13.04c.39.62.54 1.17.58 2.1a.1.1 0 0 1-.1.1zm.67 0a.1.1 0 0 1-.1-.11c.09-.93.27-1.47.68-2.07.03-.05.1-.06.14-.03s.05.09.02.14c-.4.57-.56 1.1-.64 1.98a.1.1 0 0 1-.1.08z"/></svg>