<svg version="1.1" xmlns="http://www.w3.org/2000/svg" viewBox="0 0 29 32"><path fill="#fff" stroke="#000" stroke-width=".31" stroke-miterlimit="4" stroke-linecap="butt" stroke-linejoin="round" d="M.48 2.78C5.02 1.32 9.54.35 14.42.45c4.53-.06 9.54.93 13.9 2.33-.38.95-.74 1.95-1.03 3.1l-1.67 15.5a7.81 7.81 0 0 1-4 6.15c-1.64 1-3.5 1.66-5.06 2.6-.6.36-1.56.93-2.19 1.56a12 12 0 0 0-2.18-1.57c-1.57-.93-3.3-1.61-5.01-2.59s-3.7-2.72-4.06-6.16L1.51 5.88A7.77 7.77 0 0 0 .48 2.79z"/><path fill="#da121a" stroke="#000" stroke-width=".31" stroke-miterlimit="4" stroke-linecap="butt" stroke-linejoin="miter" d="M3.15 14.34s.45 4.32.6 6.49a8 8 0 0 0 1.54 4.15c1.17 1.83 6.42 3.66 9.08 5.77 2.69-2.19 7.53-3.54 8.97-5.58a7.81 7.81 0 0 0 1.7-4.38c.15-2.15.6-6.44.6-6.44z"/><path fill="#000" d="M1.5 3.3c3.83-1.13 8.4-2.1 12.9-2.06 3 0 8.73.54 12.9 2.06a8.86 8.86 0 0 0-.9 3.24l-.59 7.77-22.8.04-.69-8.03c-.14-1.04-.2-2.08-.81-3.02z"/><path fill="#fcdd09" d="M18.58 14.29H10.1c-.07-2.37 1.9-4.38 4.24-4.38s4.22 1.96 4.23 4.38z"/><path fill="none" stroke="#000" stroke-width=".31" stroke-miterlimit="4" stroke-linecap="round" stroke-linejoin="round" d="M23.88 14.3H4.92c0-5.08 4.24-9.2 9.48-9.2s9.48 4.12 9.48 9.2z"/><path fill="#000" d="M16.09 14.16h-3.35c0-.77.73-1.6 1.64-1.6s1.68.74 1.7 1.6zm-4.04-.96a.3.3 0 1 1-.62 0 .3.3 0 0 1 .62 0zm2.68-1.8a.3.3 0 1 1-.62 0 .3.3 0 0 1 .62 0zm2.62 1.75a.3.3 0 1 1-.62 0 .3.3 0 0 1 .62 0z"/><path fill="#fcdd09" d="M14.45 3.96c6.12.04 10.24 4.47 10.51 10.19h-.91a9.71 9.71 0 0 0-9.59-9.24 9.49 9.49 0 0 0-9.7 9.21H3.8C4 8.45 8.79 4.06 14.46 3.96zM5.9 9.63c-.04-.44-.63-.34-.63.01.07.42.62.38.63 0zm17.56.2c.26-.23.13-.58-.17-.58-.53.02-.25.81.17.58zm-8.94-5.67c-.31-.15-.6.25-.35.5.42.31.67-.33.35-.5z"/><path fill="#ffd200" d="M5.04 14.14a9.2 9.2 0 0 1 9.37-8.96c5.38.04 9.25 4.58 9.3 8.93h-.34a9.17 9.17 0 0 0-8.96-8.65c-4.65-.07-8.97 3.89-9.08 8.67 0 .04-.29 0-.29 0z"/><path fill="#fff" d="M19 14.31c.05 3.06-1.89 4.65-4.46 4.68-2.42.03-4.85-2.28-4.85-4.68 0-.05 9.3 0 9.3 0z"/><path fill="#fcdd09" d="M13.88 21.9c-.94 0-.94.94-.31.94s.62.62.3.62h-.62c-.93 0-.93.94 0 .94h.63a2.4 2.4 0 0 1-.5 2.5c0 1.25.5 1.88 1.12 2.5.63-.62.96-1.24 1.07-2.5-.63-.62-.75-1.56-.44-2.5h.62c.94 0 .94-.94 0-.94h-.62c-.31 0-.31-.62.31-.62.67-.01.63-.94-.31-.94L15 17.55a2.42 2.42 0 0 0 1.24-.55l1.78 1.63c-.66.67-.04 1.34.4.9s.88-.01.66.21l-.44.44c-.66.67.01 1.33.67.66l.44-.44a2.39 2.39 0 0 1 1.42 2.12c.89.88 1.68.96 2.57.96 0-.89-.21-1.55-1.03-2.52-.88 0-1.63-.57-2.08-1.45l.44-.44c.66-.67 0-1.33-.67-.66l-.44.44c-.22.22-.77-.04-.33-.49.46-.48-.26-1.06-.92-.39l-1.75-1.61c.16-.23.35-.85.35-1.16h3c0 .68.81.68.81 0h.57c.12.27.02.8.37.8s.31-.5.63-.5.6.98.36 1.06c-.24.08-.76.14-1.18-.06.11 1.25 1.25 1.2 1.82 1.13s1.1-1.06.73-1.81c-.36-.76-1.45-.64-2.1-.94 1.12.12 2.62.56 2.87-.5h-9.1c.05.83-.53 1.62-1.59 1.62s-1.73-.75-1.73-1.62H3.62c.25 1.06 1.75.62 2.88.5-.66.3-1.74.18-2.1.94s.17 1.75.73 1.81 1.71.12 1.82-1.13c-.42.2-.94.14-1.18.06s.05-1.06.36-1.06.28.5.63.5.25-.53.37-.8h.57c0 .68.8.68.8 0l3-.01c.1.46.23.84.46 1.18 0 0-.7.83-1.3 1.4-.65-.67-1.42-.15-.96.34.44.44 0 .88-.22.66l-.44-.45c-.66-.66-1.33 0-.67.66l.44.45c-.44.88-1.2 1.45-2.08 1.45-.82.96-1.02 1.63-1.03 2.51.89 0 1.68-.08 2.57-.96 0-.88.54-1.68 1.42-2.11l.44.44c.66.66 1.33 0 .67-.66l-.44-.44c-.22-.23.22-.67.66-.22s1-.26.35-.93l1.3-1.47c.48.44.73.4 1.17.55 0 0 .1 4.3.04 4.31z"/><path fill="#fcdd09" d="M11.95 24.15c-.07.56-.34 1.25.4 1.31.54.04.73-.59.9-1.06h.57c-.08.96.05 2.4-1.51 2.81-.7.18-1.79-.12-1.96-1.09-.2-1.13.3-1.8 1.6-1.97zm5.09-.01c.06.56.33 1.26-.41 1.32-.53.05-.7-.58-.88-1.06h-.56c.07.96-.12 2.4 1.44 2.81.7.18 1.83-.13 2-1.1.2-1.13-.3-1.8-1.6-1.97zm1.06-2.44c.36.44 1.02.84 1.37.48s.1-.92-.11-1.38l.4-.4c1.02 1.02 1.24 1.72.72 2.86-.3.66-1.3.77-1.81.5s-.94-.94-.57-2.06zm3.92-3.76c.42.38.78 1.06.41 1.4s-.93.05-1.38-.2l-.42.38c.97 1.08 1.65 1.34 2.82.88.68-.27.84-1.26.6-1.79s-.9-.98-2.04-.67zm-10.68 3.67c-.36.45-1.02.84-1.37.5s-.1-.94.12-1.4l-.4-.4c-1.03 1.03-1.25 1.72-.73 2.87.3.66 1.3.77 1.82.5s.93-.94.56-2.07zm-3.91-3.75c-.42.38-.79 1.06-.42 1.4s.94.04 1.38-.2l.42.38c-.97 1.08-1.65 1.33-2.82.87-.67-.26-.84-1.26-.6-1.78s.9-.99 2.04-.67zm6.59-12.22h.75v1.2h-.75v-1.2zm1.19 2.13s-1.62-.02-1.62 0c0-.43.38-.81.8-.81s.82.38.82.8zm0 .19H13.6c0 .42.38.8.8.8s.82-.38.82-.8zm-1.19.94h.75v.97h-.75v-.98zm-7.63 1.8l.36-.66 1.04.57-.36.65-1.04-.56zm2.43-.03s-.79 1.41-.78 1.43c-.37-.2-.52-.73-.32-1.1s.73-.53 1.1-.33zm.17.09l-.78 1.43c.37.2.9.05 1.1-.33s.05-.9-.32-1.1zm.25 1.49l.36-.65.98.53-.35.66-.99-.54zm13.03-1.53l-.37-.67-.98.54.37.66.98-.53zm-2.37-.07s.78 1.41.77 1.43c.37-.2.53-.73.32-1.1s-.72-.53-1.1-.33zm-.17.09l.78 1.43c-.38.2-.9.05-1.1-.33s-.06-.9.32-1.1zm-.26 1.49l-.36-.66-1.04.57.36.66 1.04-.57z"/><path fill="none" stroke="#000" stroke-width=".19" stroke-miterlimit="4" stroke-linecap="butt" stroke-linejoin="miter" d="M11.36 18.51l-.73-.77m-.3 1.89l-.86-.88m4.44 4.71h1.27m0-1.55l-1.3-.01m4.19-3.36l.75-.7m.3 1.88l.88-.9m1.13-3.62l-.01-.88m-.81.87v-.76m-12.61.81v-.86m.82.8v-.75"/></svg>