<svg version="1.1" xmlns="http://www.w3.org/2000/svg" viewBox="0 0 27 32"><path fill="#fcdd09" stroke="#000" stroke-width=".32" stroke-miterlimit="4" stroke-linecap="butt" stroke-linejoin="miter" d="M.43.7V18c0 7.35 5.9 13.3 13.17 13.3S26.77 25.36 26.77 18V.7H.43z"/><path fill="#18140c" d="M13.47.95a7.48 7.48 0 0 0 2.6 2.76c-.34.7-.79.97-1.01 2.27 2.93-3.08 6.31-1.66 4.57 2.05l-.83 1.93c-.27 1.06.73 1.13 1.49.45-.15 1.5-2.5 2.67-3.4.3l-.4-1.55c-.48-1.33-1.36.27-1.4.96.2.25.22.55.11.89.05.25.01.5-.07.75.28 1.02 1.25 1.16 2.05.57-.26 1.55-1.2 1.86-2.4 1.37l.4 1.05c-.73.35-1.19.87-1.64 1.43a3.6 3.6 0 0 0-1.52-1.45l.37-.98c-1.46.7-2.12.01-2.4-1.31.64.37 1.28.54 1.86-.66-.06-.22-.12-.4 0-.75-.03-.34-.03-.63.12-.88-.25-1.57-1.08-1.71-1.38-.96-.1.24-.17.55-.21.92-.59 3.28-3.34 1.97-3.41.57 1 .77 1.93.15.94-1.58 0 0-.83-1.68-.8-1.8-.72-1.86.56-3.57 2.89-2.75.82.25 1.57 1.15 2.16 1.82-.2-.93-.8-1.75-1.31-2.61 1.19-.72 2-1.7 2.62-2.8z"/><path fill="#da121a" d="M11.6 3.86c1.12 1.73 1.74 6.7 1.52 6.34h-.29a9.75 9.75 0 0 0-.8-3.16 4.36 4.36 0 0 0-2.18-2.1c-.8-.3-1.97-.5-2.4.47-.33 1.03.08 1.77.41 2.57.36.85 1.04 1.83.9 2.8-.1.47-.43.68-1.22.53.39.62 1.36.67 1.86.07.59-.79.39-1.82.8-2.63.34-.7 1.03-.58 1.4-.24.48.37.66 1.11.66 1.7-.04.11.06.29-.04.37-.15.13-.1.26.04.35.08.05.06.18-.01.24-.17.13-.1.23 0 .29 0 .23-.09.31-.08.45-.16.75-.7 1.3-1.8 1.02.3 1 1.18.84 1.72.3.35-.37.55-.81.62-1.32l.32-.02c-.01.52-.3 2.22-.54 2.73.44.27.69.47 1.05.85.38-.33.64-.53 1.07-.86a18.3 18.3 0 0 1-.54-2.71h.35c.06.27.13.78.4 1.1.39.45 1.02.63 1.43.45.17-.09.44-.28.58-.63-.77.36-1.83.05-2-.95a3.6 3.6 0 0 1 0-.38c.1-.03.19-.21.03-.33-.02-.03 0-.25 0-.25.08-.02.13-.23-.02-.31-.02 0-.04-.28-.04-.4-.1-.43.12-.91.3-1.3.22-.53.87-.94 1.33-.66.55.38.58 1.07.74 1.71.16.67.41 1.52 1.2 1.67.5.05.84.04 1.15-.35-.93.12-1.17-.22-1.22-.78-.08-.73.43-1.35.65-2 .42-.93 1.08-2.03.7-3.06-.32-.73-1.28-.91-2-.68-1.28.3-2.57 2.16-2.7 2.5-.22.5-.6 1.33-.7 2.96 0 .03-.34.04-.34.02.05-1.05.82-5.54 1.45-6.4-.79-.64-1.3-1.44-1.88-2.31-.51.92-1.3 1.72-1.88 2.34z"/><path fill="#18140c" d="M13.48 2.94l.24 7.3-.36-.02zm.94 7.3a5.7 5.7 0 0 1 1.7-3.6c.85-.93 2.55-1.1 2.2.7-.63 2.06-.67 3.34-.16 3.88-.41-.42-.79-.9-.14-3.8.16-1.27-.46-1.6-1.77-.52a4.98 4.98 0 0 0-1.66 3.35zm-1.8-.04a5.7 5.7 0 0 0-1.7-3.61c-.85-.93-2.55-1.1-2.2.7.63 2.06.67 3.33.16 3.88.41-.42.79-.9.14-3.8-.16-1.27.46-1.6 1.77-.52a4.98 4.98 0 0 1 1.66 3.35zm.7 1.68l.23 2.93.2-2.94zm1.23.02c.27 1.06.9 1.38 1.43 1.34-.67-.17-1.18-.6-1.25-1.36l-.22.02zm-1.97.02c-.37 1.14-1 1.5-1.51 1.43a1.78 1.78 0 0 0 1.3-1.45s.19 0 .21.02z"/><path fill="#18140c" d="M12.15 10.2l2.79.01v.38h-2.81zm-.04.73l2.83-.01c.08.08.11.16-.02.24H12.1c-.33-.1-.16-.16.01-.23zm-.09.54l3.03.02.01.41-3.1-.02z"/><path fill="#da121a" stroke="#18140c" stroke-width=".32" stroke-miterlimit="4" stroke-linecap="butt" stroke-linejoin="miter" d="M8.16 15.78h1.7v1.28h1.5v-1.28h1.5v1.28h1.49v-1.28h1.7v1.28h1.28v-1.28h1.71v3.2h-.64v4.48h.85v1.28h1.28v-1.28h1.71v3.2h-.64v1.92c-2.03 1.77-4.71 2.55-7.9 2.78a14.5 14.5 0 0 1-7.89-2.56v-2.14h-.64v-3.2h1.71v1.28h1.28v-1.28h.64v-4.48h-.64z"/><path fill="none" stroke="#18140c" stroke-width=".32" stroke-miterlimit="4" stroke-linecap="butt" stroke-linejoin="miter" d="M8.8 23.46h9.6m-8.53 0v1.28h1.49v-1.28m1.49 0v1.28h1.5v-1.28m1.7 0v1.28h1.5v-1.28"/></svg>