<svg version="1.1" xmlns="http://www.w3.org/2000/svg" viewBox="0 0 29 32"><path fill="#0039a6" stroke="#000" stroke-width=".35" stroke-miterlimit="4" stroke-linecap="butt" stroke-linejoin="miter" d="M.31.38h27.83v18.79c0 6.95-5.57 12.52-13.22 12.52S.32 26.12.32 19.17z"/><path fill="#ffd200" d="M8.38 2.4h3.27v1.4h1.19V2.4h3.27v1.4h1.18V2.4h3.27v3.76H8.38zm.84 3.83V22.5l-.52 2.52v3.26h3.44v-4.6c0-2.43 4.66-2.43 4.66 0v4.6h3.48v-3.3l-.49-2.13V6.22z"/><path fill="#ffd200" d="M3.93 7.4h1.74v1.25h.62V7.4h1.46v1.25h.63V7.4h.83v3.13H3.93z"/><path fill="#ffd200" d="M4.83 10.53v9.95l-.49 2.36V25h4.38l.49-2.16v-12.3zM25.07 7.4h-1.74v1.25h-.63V7.39h-1.46v1.26h-.63V7.39h-.82l.01 3.13h5.26zm-.9 3.13v9.95l.49 2.37V25h-4.38l-.49-2.16v-12.3z"/><path fill="#dc281e" d="M10.56 17.3c.41 0 .68.02.66.58.83-.1.56.72 1.06.68.64-.25 1.7-.58 1.71-1.14.02-.5-.31-1.1.33-1.28l.63-.23-.15-1.2c-.66.04-1.26.16-1.43.3-.33.28-.84.72-.6 1.3.4 1.34.07 1.28-.16 1.17l-.3-.24c.18-.82-.6-.98-.74-.88 0 0 .43.31.4.58-.26-.78-1.1-.29-1.1-.06 0 0 .85-.04.6.21a.9.9 0 0 0-.91.21z"/><path fill="#dc281e" d="M10.96 12.16c.18-.13.14-.54.43-.24.1.1.28.01.19-.34l.93 1.73c.16.27 1.98.23 2.27 1.51.25.83.02 1.54.04 2.53 0 .45 1.07.67 1.01 1.1-.03.54-.3 1.02-.47 1-.48-.32-.42-.18-.64.12-.45.05-.36.18-.4.35-.53.48-.4.64-.3.95.12-.2.19-.48.47-.4.27.26.47.7 1.11-.1 1.02.02.82.18.84-.8.35-.6 1.01-1.65.88-1.74-1.03-.85-.81-1.25-.76-2.61.27.4.6.67 1.22.16.53-.57.12-1.6.16-2-.05-.73-.02-1.5.02-2.26.54-.34.6-1.23.6-1.23s-.94.3-.87.79l-.08 2.13a6.2 6.2 0 0 1-.5-3c.41.22 1 0 .86-.32-.22-.34 0-.78.1-1.2-.43.36-1.27.77-1.25 1.42-.15 1.23-.1 2.3.23 3.19.65 1.45.44 2.1.18 2.1-.25.07-1.5-1.26-1.08-1.89.4-.61.44-2.64.31-3.39-.16-.8 0-1.36-.95-1.41-.48-.02-1.02-.18-1.42.46-.13.17-.16.45.1.46.28.07.74-.16.89.7.01.25-.72-.07-1.05.04-.13.1.03.63.85.7l-.71.43c-.37-.5-.83-.77-1.16-1.57.08-.4.04-.77-.1-1-.16.05 0 .36-.34.46-.37-.1-.57-.1-.93.15.26.12.54-.1.56.52-.55-.3-.75.15-.93.45.19-.05.38-.12.57-.02.19.2.37.1.45-.11.25.5.65.9.85.71-.28.15-.54.42-.2 1.24l-.89-.73c-.21-.4.12-.6-.59-.74.13.18.16.33.07.45-.48-.18-.74.1-1 .4.26-.03.6-.23.75.02-.37.32-.52.39-.32.83z"/><path fill="#dc281e" d="M13.4 9.02c-.11.25-.1.52.09.57.86.24 1.03.01 1.5.41.12-.06.11-.15.02-.25-.32-.2-.62-.28-.99-.29-.35-.04-.5-.15-.62-.45zm.45-1.65c.48.27 1.01.72 1.25-.23.28.78.75.61 1.25.26l-.5.93c-.43-.06-.89-.14-1.41.01z"/><path fill="#f4f0e8" d="M14.87 8.63c.17.04.27.26.52.13.08-.04-.17-.34-.33-.14m-.96.63c0 .07.03.13.1.17.1-.04.08-.1.12-.15zm.22.05c-.02.07 0 .1.08.14.1-.03.08-.09.13-.14z"/><path fill="#f4f0e8" d="M14.5 9.32c0 .07.02.12.1.17.1-.04.07-.1.12-.15zm-.44.59c-.01-.07.02-.13.1-.17.1.04.07.1.12.15z"/><path fill="#f4f0e8" d="M14.26 9.9c0-.07.02-.13.1-.17.1.04.07.1.12.15z"/></svg>