<svg version="1.1" xmlns="http://www.w3.org/2000/svg" viewBox="0 0 27 32"><path fill="#0039a6" stroke="#000" stroke-width=".3" stroke-miterlimit="4" stroke-linecap="round" stroke-linejoin="round" d="M.33.4h12.63v31.27C5.74 31.67.33 26.86.33 20.84z"/><path fill="#ffd200" stroke="#000" stroke-width=".3" stroke-miterlimit="4" stroke-linecap="round" stroke-linejoin="round" d="M12.96.4H26.2v15.03H12.96V.39z"/><path fill="#000" d="M15.8 2.37a1.93 1.93 0 0 1 1.67-.27c.34.12.78.54.77 1.19.14-.07.28-.24.43-.07.2-.48.65-.5 1.25-.05.22-.02-.02-.26.41-.55a3.6 3.6 0 0 0 1.14-.4c.1-.07.26.29.37.5.33-.22.48-.26.7-.36.06.78.35 1.78-.02 2.35-.44.56.02 1.08.28 1.6-.34.22.1.77.13 1.3-.6.03-.22.31.03 1.08-.48.14-.3.19.08 1.26-.27.16-.38-.02.16.97-.44.2-.3.27.01.89-.42.22-.18.28.24.94-1.07.13-.95-.03-1.47.94-.76-.86-.51-.83-1.2.06-.73-.76-.4-.71-1.1-.02-.64-.66-.42-.74-.93-.02-.54-.7-.35-.73-1.03-.02-.55-.96-.33-.9-1.13-.94.39-.93.42-.75-.38-1.02.34-.77.47-.59-.15-.85.25-.4.49-.9.77-1.19.3-.31 1.05-.67 1.57-.98.69-.64-.25-.86-.67-.86l-.28.11-.15-.73c.16-.16.46-.1.41-.6-.34-.08-.67.16-1 .3-.3 0-.44-.24-.65-.37-.15-.35-.07-.75-.09-1.13l.56.47c.67.12 1.33.17 1.99.28-.15.11-.25.22-.6.32.05.09-.13.25.24.23.18.12.38.16.39-.1.26 0 .71.35.77.01.03-.5.57.11.87.02.41 0-.05-.83-.2-1.23-.2-.34-.87.15-1.32.33-.13.07-.05-.26-.22-.27-.22-.03-.44.16-.65.26-.17.02-.08-.11-.3-.18-.15-.05-.33.18-.5.18-.12-.16-.11-.33-.48-.47-.08-.04 0-.24-.1-.37-.1-.1-.24-.2-.02-.44.12-.12.14-.47.17-.81-.26-.22.17-.37.3-.54.1-.12.28.05.25-.13.1-.15 0-.28-.08-.4-.2-.38-.78-.3-1.23-.22z"/><path fill="#ffd200" d="M20.1 8.85c.08-.03.49 0 .63.01 0 .11-.22.6-.28.66a2.9 2.9 0 0 1-.35-.67z"/><path fill="#f4f0e8" d="M20.63 5.05c.16-.08.34.14.5.3.03.13.01.72-.2.8-.17.07-.11-.37-.07-.6-.03-.2-.33-.35-.23-.5zM17.77 7.4c.09.22 1-.09 1-.18-.16-.2-1.1-.11-1 .19zm1.2-3.97c-.15.2-.1.51.21.6.25.02.53-.2.45-.5-.13-.29-.49-.28-.66-.1z"/><path fill="#ffd200" d="M21.3 8.84c.09-.03.49 0 .62.01a2 2 0 0 1-.27.67 3 3 0 0 1-.34-.68zm-2.4-.06c.07-.03.42 0 .54 0 0 .1-.18.5-.24.53a2.28 2.28 0 0 1-.3-.53zm2.85 1.2c.09-.04.52 0 .66 0 0 .12-.22.63-.29.69a2.96 2.96 0 0 1-.37-.7zm-1.89.01c.09-.04.53 0 .68 0 0 .11-.23.6-.3.65a2.76 2.76 0 0 1-.38-.65zm-2.5-.12c.09-.03.53 0 .68.01 0 .11-.23.62-.3.67a2.88 2.88 0 0 1-.38-.68zm3.6-2.21c.09-.03.5 0 .63 0 0 .1-.21.54-.28.58-.07-.04-.31-.5-.34-.58zm-3.7 4.23c.09-.03.53 0 .68.01 0 .1-.23.6-.3.65a2.8 2.8 0 0 1-.38-.66zm.94-.9c.08-.04.5 0 .64 0 0 .13-.22.65-.29.7-.08-.04-.33-.6-.36-.7zm1.45.08c.09-.03.5 0 .64.01 0 .1-.22.55-.28.6a2.56 2.56 0 0 1-.35-.6zm1.15 0c.08-.03.45 0 .57.01 0 .1-.19.55-.25.6a2.64 2.64 0 0 1-.32-.6zm1.18.01c.07-.03.42 0 .53.01a2 2 0 0 1-.23.58c-.07-.05-.27-.5-.3-.59zm-.73.81c.09-.03.48 0 .62 0 0 .12-.21.6-.27.65a2.83 2.83 0 0 1-.35-.65zm-1.55.02c.08-.03.46 0 .59.01 0 .1-.2.55-.26.6a2.6 2.6 0 0 1-.33-.6z"/><path fill="#f4f0e8" d="M16.8 10.99c.1-.04.51 0 .65 0 0 .13-.22.65-.28.7-.08-.04-.33-.6-.36-.7zm1.86-1.06c.1-.05.63 0 .81 0 0 .15-.27.77-.36.83-.1-.06-.41-.71-.46-.83zm.86-2.26c.1-.04.57 0 .73.01a2 2 0 0 1-.32.71 2.79 2.79 0 0 1-.4-.72zM21.6 6.5c.05-.03.3 0 .38 0 .04.07-.03.4-.17.46-.1.04-.28-.3-.21-.46zm-4.61-2.55c0 .06-.06.11-.13.11s-.14-.05-.14-.11c0-.07.06-.12.14-.12s.13.05.13.12zm4.7.95c0 .06-.06.11-.13.11s-.14-.05-.14-.12c0-.06.06-.12.14-.12s.13.06.13.12zm.48.79c0 .06-.06.11-.13.11s-.14-.05-.14-.11c0-.07.06-.12.14-.12s.13.05.13.12zm-1.08-1.41c0 .07-.06.12-.14.12s-.13-.05-.13-.12c0-.07.06-.12.13-.12s.14.05.14.12z"/><path fill="#000" d="M19.52 3.64c0 .1-.09.18-.2.18s-.2-.08-.2-.18c0-.1.1-.18.2-.18s.2.08.2.18z"/><path fill="#f4f0e8" d="M16.99 4.62c.48.04 1.13.02 1.27.16 0 .22-.1.2-.25.13-.1-.1-.2-.1-.24 0-.27.12-.9.12-.78-.29zm3.93-1.42c.1-.03.49 0 .65.02 0 .15-.55.47-.63.53-.09-.05 0-.37-.02-.54zm.78 1.09c.1.03.3.04.47.03 0-.12.06-.87-.01-.93-.15 0-.43.8-.46.9zM6.17 5.5c-.61-.87-.42-1.68-.1-2.49.69-.06 1.06-.64 2.04.22.37.58.22 1.37 0 2.19l-.41.67c.33 0 .6.1.69.39.12.16.1.42.45.44.07-.27.44-.2.76.37.4 1.32.82 2.72 1.2 3.68.58 1.15-.15 2.19-.54 3.25l-.34 1.12-1-.88c.23.73.17 1.3.18 1.91l.47.73.43 6.75c-.17.5-.35.34-.52 0-.12.76-.58.5-1.1.59l-.4 2.07c-.03.42.44.63.73 1.24.07.14.07.41-.09.28 0 .18-.03.25-.15.1.04.21-.05.36-.17.12.05.38-.17.33-.2.12l-.12-.35c.07.86-.2.56-.25.41l-.33-1.07c-.08-.31-.66-.37-.12-.93 0-.83 0-1.55.02-2.05-.82-.47-.45-.81-.58-1.2.02.68-.2 1.02-.5 1.05.08.43.01.8-.24 1.58-.03.66.06 1.56.04 1.93 0 .22-.2.43-.3.79-.13.27-.35.2-.24-.19-.1.08-.26.23-.24-.13-.1.23-.3.16-.2-.1-.2.17-.31.08-.23-.16-.17.14-.3 0-.17-.36.26-.53.37-.68.7-1.47l-.06-1.8c-.37-.08-1.05 0-1.05-.57-.16.1-.36 0-.54-.31.25-2.64.49-5.33.86-7.66a11.45 11.45 0 0 1-1.38-2.91c-.73-1.1-.19-.63-.09-1.4.29-1.02.64-1.82.86-3.1.12-.7.64-1.26 1.37-1.6.41-.2.5-.5 1.03-.63z"/><path fill="#ffd200" d="M4.66 10.07h1.69v2.05H4.66z"/><path fill="#000" d="M6.35 10.07c.12.18.3.3.54.37v1.62l-.54.06zm2.6 4.39l.96.84-.34 1.76-.39-.64c.03-.67.07-1.34-.23-1.96z"/><path fill="#ffd200" d="M6.1 5.44c-.3.32-.75.02-.93-.59-.19-.86-.31-1.94.85-2.66.86-.42 1.82-.5 2.6.1.5.4.78 1.48.41 2.23-.24.63-.9 1.4-1.22 1.13-.15 0 .6-.72.67-1.74-.17-.96-.82-.99-1.45-1.18-.4.24-.57.13-.77.23-.29.16-.44.43-.54.87-.1.69.1 1.19.39 1.61z"/><path fill="#000" d="M6.1 5.35c-.13-.3-.64-.15-.35-.55-.24-.02-.25-.2-.18-.37-.23-.3-.05-.5.07-.7.02-.2.03-.36.1-.45.16-.2.23-.38.44-.43.07-.02.01-.21.14-.22.08 0 .04.36.18.24.13-.05.02-.34.1-.4.06-.03.12.3.28.23.14-.03.04-.23.15-.26.07-.02.12.26.23.3.07 0 .08-.2.18-.2.07 0 .1.1.16.13.1-.1.18-.1.27.14.14.02.68.28.57.56.06.07.25.05.09.26.05.08.08.16-.03.26.1.08.12.18 0 .32.02.21-.07.55-.21.87-.25.33-.4.42-.48.47-.01-.22.25-.34.35-.54.07-.16 0-.4.13-.56-.26-.12-.09-.3.01-.5-.22-.04-.19-.27-.16-.48-.46.03-.02-.22-.26-.39-.08.13-.25.36-.14-.1-.13.18-.23.1-.33-.02-.18.17-.37.3-.44 0-.1.12-.21.18-.32.04-.23.5-.42 0-.51.07.03.19.22.5-.15.57.01.16-.04.24-.15.28.15.16.1.4.01.77.05.26.28.37.26.66zm-1.08 5.69h.36v-.42h.24v.42H6v.24h-.37v.66h-.24v-.66h-.36z"/><path fill="#000" d="M3.29 11.84c.1-.23.42-.1.67-.06l-.12-.5c.16.2.31.37.47.43.13-.1.28-.2.19-.48l-.06-1.09c.16-.1.09-.42.11-.64.12-.45-.15-.19-.29-.16.19-.51-.08-.85.07-.98.12-.02.2.08.26.6l.17.35-.07.3c.01.18-.07.42 0 .41.21.02.15-.42.22-.49.1.03.11.23.15.5h-.38l.03 2.1 1.52.02a3.7 3.7 0 0 1-2.1.24c-.15-.2-.79-.06-.81-.18 0-.17.88-.07.85-.18-.04-.27-.79.04-.89-.19zm2.25-3.8c.17-.11.83 1.1 1.43 1.3.17.06.48-.06.62-.23l.03.06c-.12.36-.33.6-.65.54-.77-.55-1.5-1.56-1.43-1.67zM6.65 5.5c.29-.22.42-.14.75-.04-.21.09-.4.08-.46.36-.03-.21-.07-.34-.3-.33zm1.24.67L7.65 6c-.45.3-.87.25-1.3.1-.03 0-.08.04-.09.13 0 .06.52.16.56.16l.22.29.18-.28c.21-.3.33.05.41.1.03.01.22-.37.26-.33zM7.3 4.34c.02.13.2.1.27.09l.02.23c.1.01.13-.13.13-.23 0-.07.13.02.13-.12-.15-.07-.48-.1-.55.04zm-.46-.47c-.22.14-.5.02-.68.17-.06.18.27.07.35.05.2 0 .17.1.18.17-.15 0-.48-.08-.54.07.03.17.14.43.3.37 0-.1-.11-.21.07-.28l.23-.01c.1.32.08.38-.05.5-.06.06-.02.18.03.2.08.03.2.02.3.02.1-.03.3-.08.2-.2-.07-.08-.16.14-.26.12-.23-.1-.03-.48-.11-.73.05-.08.1-.57-.02-.45z"/><path fill="#ffd200" d="M7.5 17.74c.32-2 .62-3.98 1.12-6.1l1.04-5.3c.3-1.5.81-2.72 1.35-3.93.18-.34.37-.78.56-.14-.67.09-1.03 2.03-1.19 2.81.27-.72.5-1.68.84-2.04.18 0 .46.27.22.39-.55.25-.41.91-1.02 1.69.41-.7 1.26-1.36.85-.34-.07-.85-.82.93-1.45 2.12.48-.6 1.12-1.6 1.44-1.34.22.15-.64.57-.83 1-.53.74-.54 1.02-.8 1.53.78-.91.75-1.19 1.34-1.51.34.24.15.54-.16.43a7.45 7.45 0 0 0-1.37 2.23c.4-.55.7-1.53 1.22-1.44.45.31-.08.24-.2.38L9.03 10.5c.4-.35.54-.76 1.23-1.03l.25.68c-.5-.28-.72-.24-.85.25l-.71 1.54c.32-.5.5-1.15 1.15-1.27l.25.48c-.55-.35-.94.49-1.33 1.32.44-.4.88-.77 1.32-.93.14-.07.37.55.02.46-.46-.34-1.12.52-1.25.92l1.13-.49c.21-.07.16.42.18.57-.46-.58-1.56.5-2.01 1.08.43-.38.88-.72 1.39-.82l.07.2-1.46.63a7.65 7.65 0 0 0-.5 3.41z"/><path fill="#f4f0e8" stroke="#000" stroke-width=".3" stroke-miterlimit="4" stroke-linecap="round" stroke-linejoin="round" d="M12.96 15.43H26.2v5.41c0 6.02-6.01 10.83-13.23 10.83z"/><path fill="#009a3d" d="M14.85 29.63c.41-1.14.63.03 1.01-.02.78-.13 1.87-.96 2.52-1.38l.75-.99c.36-.1.6.09.8.39-.05-.33.1-.43.34-.44.98-.2 1.47-.64 1.44-.96-.54.57-1.72.6-2.2.65-.37-.05-.11-.27-.08-.43-.25.15-.4.18-.4-.02l.08-2.45c-.09-.4.16-.4.29-.54-.2 0-.45.09-.46-.23-.12-.68.23-1.05.58-1.41.3.09.94-.27.65.6-.19.78.34 1.01.68 1.12.34.15.92.04 1.08.2-.4-.3-.42-.99-.63-1.51-.08-.3-.75-.2-.84-.33-.38-.38-.7-.26-1.05-.3-.4.08-.14-.31.1-.7.28-.34.58-.57 1.27-.67.23-.04.64-.23.97.17-.67-.3-.52-.44-.23-.54l.84-.39c.37-.11.75-.22.96-.72.34-.14.84-.36.83-.85-.11-.83-.47-.88-.78-1.1.06.63-.6.94-.49 1.14.2.37.44.92-.45 1.27-.14.1-.3.13-.43-.05.07.25-.09.3-.28.4-.28.12-.54.39-.86.18.03-.37.26-.75.07-1.12-.13.85-.24.98-.62 1.21-.3.2-.44.09-.61.02.12.22-.04.43-.1.65-.3.35-.59.89-.84.2-.23-.53-.09-.81.2-1 .34-.06.73.25.92-.7-.03-.76-.43-.77-.72-1 .2.4-.1.74-.38 1-.15.18-.21.4.01.65l-.27.31-.62-.57.56.92c-.13.21-.25.12-.38.16l.43.33.17 1c.14.62-.26.65-.46.4-.19-.3-.24-.82-.52-.73-.46.15-.85.15-1.18-.35-.17.91.1 1.27.3 1.47.36.32.84.24 1.1-.32 1.03.38.72 1.49.82 2.7-.17.08-.75-.3-.97-.28 0 .31.51.15.82.72-.1.45.17.58.1 1.03-.13.36-.3.22-.48.15.36.58.02.8-.14 1.1-.27.34-.35-.43-.66-.38.39-.57-.19-.86-.5-.93-.9.05-.95.59-1.27.97.23-.15.53.06 1 .52.16.14.88-.44.94-.09 0 .64-1.11 1.11-1.27.95-.31-.26-.62-.54-1.05-.33-.95.74-.46.66-.41 1.25z"/><path fill="#000" d="M16 28.6c-.16.24-.4.5-.45.82.15.2.3.3.49.13-.06-.36.4-.59.36-.76-.12-.15-.27-.24-.4-.2z"/><path fill="#dc281e" d="M22.34 24.47c.55.22.89.42.47.98.05.7-.4.82-.9.74-.72.39-1.05-.02-1.03-.6-.73-.67-.32-1 .3-1.2.5-.35.72-.55 1.16.08z"/><path fill="#f4f0e8" d="M22 25.3c0 .1-.1.18-.2.18s-.19-.08-.19-.18.09-.18.2-.18.19.08.19.18z"/><path fill="#000" d="M22.11 24.78c0 .04-.02.08-.06.08s-.05-.04-.05-.08c0-.05.02-.08.06-.08s.05.03.05.08zm.36.63c0 .05-.02.08-.05.08s-.06-.03-.06-.08c0-.04.03-.08.06-.08s.05.04.05.08zm-.54.46c0 .04-.02.08-.05.08s-.06-.04-.06-.08c0-.05.03-.09.06-.09s.05.04.05.09zm-.54-.35c0 .04-.03.08-.06.08s-.06-.04-.06-.08c0-.05.03-.08.06-.08s.06.03.06.08zm.09-.78c0 .05-.03.09-.06.09s-.06-.04-.06-.09c0-.04.03-.08.06-.08s.06.04.06.08zm-.52-.62c.06.2.14.43.42.49 0-.3-.22-.44-.42-.49zm1.25.6c.18-.1.4-.22.4-.51-.29.05-.38.3-.4.51zm.33.69c.18.1.4.22.65.06-.2-.2-.47-.15-.65-.06zm-.66.58c-.05.2-.11.44.1.64.15-.25.04-.49-.1-.64zm-1.33-.29c.2.03.44.07.62-.16-.25-.13-.48 0-.62.15z"/><path fill="#dc281e" d="M17.31 23.48c.56.2.9.4.5.96.07.7-.38.83-.88.77-.71.4-1.05 0-1.05-.58-.75-.64-.34-1 .27-1.2.49-.37.7-.57 1.16.05z"/><path fill="#f4f0e8" d="M17 24.32c0 .1-.1.18-.2.18s-.2-.07-.2-.18.09-.18.2-.18.19.07.2.17z"/><path fill="#000" d="M17.1 23.8c0 .04-.03.07-.06.08s-.06-.04-.06-.09c0-.04.02-.08.06-.08s.05.03.05.08zm.37.61c0 .05-.02.09-.05.09s-.06-.04-.06-.08c0-.05.02-.09.05-.09s.06.04.06.09zm-.53.48c0 .04-.02.08-.05.08s-.06-.04-.06-.08c0-.05.02-.09.06-.09s.05.04.05.09zm-.55-.34c0 .04-.02.08-.06.08s-.05-.03-.06-.08c0-.04.03-.08.06-.08s.06.03.06.08zm.07-.78c0 .05-.02.09-.06.09s-.05-.04-.05-.09c0-.04.02-.08.05-.08s.06.04.06.08zm-.54-.61c.07.2.15.43.44.48 0-.29-.24-.43-.44-.48zm1.28.57c.17-.1.38-.23.37-.52-.28.06-.37.31-.38.52zm.34.68c.18.1.4.2.65.05-.2-.2-.47-.15-.65-.05zm-.64.59c-.05.2-.1.45.11.64.15-.25.02-.48-.12-.63zm-1.35-.25c.2.02.45.06.62-.17-.26-.13-.48.01-.62.17z"/><path fill="#dc281e" d="M23.1 20.26c.57.14.94.3.6.9.14.7-.3.87-.8.86-.67.47-1.05.1-1.1-.47-.81-.57-.44-.95.14-1.22.45-.42.65-.65 1.16-.07z"/><path fill="#f4f0e8" d="M22.87 21.12c.01.1-.07.2-.17.2s-.2-.05-.22-.15.07-.2.17-.2.2.05.22.15z"/><path fill="#000" d="M22.92 20.59c0 .05-.02.09-.05.09s-.06-.03-.07-.07c0-.05.02-.1.05-.1s.06.03.07.08zm.44.58c0 .05-.02.09-.05.1s-.06-.04-.07-.08c0-.05.02-.09.05-.1s.06.04.07.08zm-.48.53c0 .04-.02.08-.05.08s-.06-.03-.06-.07c-.01-.05.01-.09.04-.1s.06.04.07.08zm-.58-.29c0 .05-.02.1-.06.1s-.06-.04-.06-.08c0-.05.01-.09.04-.09s.07.03.07.07zm-.02-.77c0 .04-.01.08-.04.09s-.06-.03-.07-.08c0-.05.01-.09.05-.09s.06.03.06.08zm-.59-.56c.08.19.19.41.48.43-.04-.28-.28-.4-.48-.43zm1.31.44c.17-.12.37-.27.33-.56-.27.1-.33.35-.32.56zm.42.64c.2.08.42.17.65-.02-.22-.18-.48-.1-.65.02zm-.58.66c-.03.2-.06.45.18.62.12-.26-.02-.49-.18-.62zm-1.36-.12c.2 0 .45.01.6-.24-.27-.1-.48.07-.6.23z"/><path fill="#dc281e" d="M21.67 16.76c.55.22.9.42.47.98.06.7-.4.82-.9.74-.72.39-1.04-.02-1.03-.6-.73-.67-.32-1 .3-1.2.5-.35.72-.55 1.16.08z"/><path fill="#f4f0e8" d="M21.33 17.59c0 .1-.09.18-.2.18s-.19-.08-.19-.18.09-.18.2-.18.19.08.19.18z"/><path fill="#000" d="M21.45 17.07c0 .04-.03.08-.06.08s-.06-.04-.06-.08c0-.05.03-.08.06-.08s.06.03.06.08zm.35.63c0 .05-.02.09-.05.09s-.06-.04-.06-.09c0-.04.03-.08.06-.08s.06.04.06.08zm-.53.46c0 .04-.03.08-.06.08s-.06-.04-.06-.08c0-.05.03-.08.06-.08s.06.03.06.08zm-.55-.36c0 .06-.03.1-.06.1s-.05-.04-.05-.1c0-.04.02-.07.05-.07s.06.03.06.08zm.09-.76c0 .04-.02.08-.06.08s-.05-.04-.05-.09c0-.04.02-.08.05-.08s.06.04.06.09zm-.52-.63c.06.2.14.43.42.49 0-.29-.22-.43-.42-.49zm1.26.6c.17-.1.39-.22.39-.51-.29.05-.38.3-.4.51zm.33.69c.17.1.39.22.64.06-.2-.2-.46-.16-.64-.06zm-.67.58c-.05.2-.1.44.1.64.16-.25.04-.49-.1-.64zm-1.33-.3c.2.04.44.08.63-.15-.26-.13-.5 0-.63.15z"/><path fill="#dc281e" d="M17.88 18.21c.46.37.73.66.16 1.07-.15.7-.62.67-1.08.45-.8.15-1-.34-.8-.88-.51-.86-.01-1.05.63-1.05.58-.2.86-.33 1.09.41z"/><path fill="#f4f0e8" d="M17.3 18.9c-.02.1-.13.15-.23.12s-.16-.14-.13-.23.13-.15.24-.12.16.13.13.23z"/><path fill="#000" d="M17.57 18.44c-.01.04-.05.07-.08.06s-.04-.05-.03-.1c.02-.04.05-.07.08-.06s.05.05.03.1zm.16.71c-.01.04-.05.07-.08.06s-.04-.05-.03-.1c.01-.04.05-.07.08-.06s.04.05.03.1zm-.65.28c-.01.04-.05.07-.08.06s-.04-.05-.03-.1c.01-.04.05-.07.08-.06s.04.05.03.1zm-.42-.5c-.01.04-.05.07-.08.06s-.04-.05-.03-.1c.01-.04.05-.07.08-.06s.04.06.03.1zm.32-.71c-.02.04-.05.07-.08.06s-.05-.05-.03-.1c.01-.04.05-.07.08-.06s.04.05.03.1zm-.32-.75c0 .2 0 .45.26.59.09-.28-.08-.48-.26-.6zm1.02.94c.2-.04.44-.1.53-.38-.29-.03-.45.19-.53.38zm.12.76c.14.14.3.32.6.25-.13-.26-.4-.3-.6-.25zm-.8.35c-.11.18-.24.39-.1.64.22-.18.18-.45.1-.64zm-1.2-.67c.18.09.4.2.65.04-.2-.2-.47-.14-.65-.04z"/></svg>