<svg version="1.1" xmlns="http://www.w3.org/2000/svg" viewBox="0 0 31 32"><path fill="#0039a6" d="M.77 7.35L3.18 2.1C6.16 3.66 7.66.5 10.66.47a10 10 0 0 1 4.62.83c1.6-.3 2.74-.87 4.82-.8 3.44.04 4.74 3.62 7.66 1.6l2.42 5.25c-5.57.84-4.12 8.55.4 8.86-.98 4.84-3.56 9.03-8.06 11.7a2.94 2.94 0 0 1-1.21-1.22 14.67 14.67 0 0 1-5.9 4.94 14.82 14.82 0 0 1-5.79-4.94c-.31.46-.67.89-1.2 1.21A15.43 15.43 0 0 1 .35 16.21c4.55-.58 5.72-7.58.4-8.86z"/><path fill="#000" d="M15.4 31.86l-.09-.04a14.93 14.93 0 0 1-5.68-4.78c-.26.35-.61.73-1.1 1.03l-.1.06-.1-.06A15.63 15.63 0 0 1 .16 16.23l-.03-.2.2-.02c2.32-.3 3.63-2.34 3.74-4.2a4.02 4.02 0 0 0-3.2-4.24l-.05.12-.7-.7.53.12L3.1 1.83l.18.1c1.65.86 2.78.21 4.1-.53A6.65 6.65 0 0 1 10.65.27c1.79-.1 2.9.17 4.64.82.44-.09.86-.2 1.27-.3a11.4 11.4 0 0 1 3.56-.5c1.5.02 2.62.7 3.6 1.3 1.33.81 2.37 1.45 3.94.36l.19-.14 2.64 5.7-.27.04a3.76 3.76 0 0 0-3.43 4.06c.08 2.01 1.45 4.23 3.82 4.4l.22.02-.05.23c-1.04 5.2-3.86 9.28-8.15 11.82l-.1.06-.11-.06a3.1 3.1 0 0 1-1.12-1.02 14.75 14.75 0 0 1-5.82 4.77l-.08.03zm-5.77-5.52l.17.23a14.64 14.64 0 0 0 5.62 4.84 14.53 14.53 0 0 0 5.74-4.84l.18-.25.15.27c.27.46.51.76 1.04 1.08 4.07-2.44 6.77-6.34 7.82-11.28a4.27 4.27 0 0 1-2.78-1.59 5.44 5.44 0 0 1-1.19-3.17c-.07-1.82.82-3.9 3.52-4.44l-2.21-4.78c-1.69 1.04-2.9.31-4.18-.47-.98-.6-2-1.22-3.4-1.24-1.44-.05-2.42.2-3.45.48-.43.11-.87.23-1.35.32l-.05.01-.06-.01a9.72 9.72 0 0 0-4.54-.83c-1.2.02-2.16.56-3.1 1.08-1.25.71-2.55 1.44-4.29.63L1.04 7.22a4.4 4.4 0 0 1 3.43 4.63 4.83 4.83 0 0 1-3.89 4.54 15.17 15.17 0 0 0 7.83 11.29c.49-.33.81-.75 1.05-1.1l.17-.24z"/><path fill="#f4f0e8" d="M28.87 21.18c.16-.25-.9-.23-1.3-.25-1.12.02-1.94.83-2.99.8-1.08.01-2.07-.74-3.3-.8-1.12 0-2.22.86-3.3.8-1.14.05-1.98-.8-3.23-.8-1.22.02-1.76.84-3.06.8-1.43.02-2.08-.8-3.15-.8-1.07 0-1.8.8-2.98.8-1.12.02-1.62-.82-2.58-.8-.44 0-1.12.12-1.1.21 0 0 .68 1.08.76 1.34 1.15.04 1.65.88 2.76.86 1.19 0 1.91-.8 2.98-.8 1.07-.01 1.72.82 3.15.8 1.3.03 1.84-.79 3.06-.8 1.25 0 2.09.85 3.23.8 1.08.06 2.18-.81 3.3-.8 1.23.05 2.22.8 3.3.8 1.19.02 2.01-1.08 3.62-.78l.83-1.38z"/><path fill="#000" d="M17.93 23.46h-.12c-.6.02-1.12-.18-1.62-.4-.49-.2-1-.4-1.6-.4-.56 0-.96.19-1.4.38-.47.22-.96.44-1.67.42A4.3 4.3 0 0 1 9.66 23c-.42-.18-.81-.35-1.27-.35h-.02c-.49 0-.91.19-1.36.38-.48.21-.98.43-1.62.43-.6 0-1.04-.22-1.46-.43-.4-.21-.78-.42-1.32-.43a.12.12 0 0 1-.11-.08c-.07-.2-.56-1.02-.74-1.32l-.01-.02a.15.15 0 0 1 .01-.13c.13-.17.9-.24 1.2-.24.49 0 .87.2 1.24.4.39.2.78.41 1.33.4.59 0 1.07-.2 1.53-.4.45-.2.91-.4 1.46-.4.51 0 .93.18 1.38.37.5.22 1.02.44 1.76.43.66.02 1.1-.18 1.57-.39.44-.2.9-.4 1.5-.41.64 0 1.17.22 1.69.43.5.2.98.4 1.52.37h.02c.53.04 1.06-.17 1.62-.38a4.7 4.7 0 0 1 1.67-.42c.63.02 1.2.23 1.74.43.53.19 1.03.37 1.55.37h.02c.5.01.96-.17 1.43-.38a4.09 4.09 0 0 1 1.74-.41c.75.01 1.13.05 1.23.22a.2.2 0 0 1 0 .2l-.85 1.37a.13.13 0 0 1-.13.06 3.39 3.39 0 0 0-2.13.39c-.48.2-.92.4-1.45.4h-.02c-.56 0-1.08-.2-1.63-.4a5.4 5.4 0 0 0-1.66-.41h-.01c-.52 0-1.05.2-1.57.4a4.2 4.2 0 0 1-1.58.41zm-.1-.24c.53.03 1.06-.18 1.63-.39a4.7 4.7 0 0 1 1.67-.42c.63.03 1.19.24 1.73.43.53.2 1.03.38 1.56.38h.01c.48 0 .9-.18 1.35-.38.6-.27 1.28-.56 2.2-.42l.77-1.27a4.28 4.28 0 0 0-1-.1h-.2c-.51 0-.98.21-1.44.4-.49.2-.98.41-1.53.4a4.7 4.7 0 0 1-1.66-.39 5.4 5.4 0 0 0-1.66-.41c-.51 0-1.05.2-1.58.4a3.65 3.65 0 0 1-3.34.01c-.5-.2-1-.41-1.6-.41-.56 0-.96.2-1.4.39-.48.21-.97.43-1.68.42-.79 0-1.35-.25-1.86-.46a3 3 0 0 0-1.28-.35c-.5 0-.92.18-1.36.38-.49.2-.99.43-1.62.43h-.01a2.8 2.8 0 0 1-1.45-.45c-.36-.19-.7-.37-1.13-.36-.34 0-.76.06-.93.12.15.26.54.9.67 1.19.55.03.96.25 1.35.45.41.2.8.4 1.34.4.58 0 1.07-.21 1.53-.41.45-.2.9-.4 1.46-.4h.01c.51 0 .93.18 1.36.37.51.22 1.04.45 1.77.44.65.02 1.1-.19 1.57-.4.44-.19.89-.4 1.5-.4.64 0 1.17.21 1.69.42.52.22 1 .41 1.55.39z"/><path fill="#f4f0e8" d="M11.6 27.77c1.31.03 1.85-.8 3.07-.81 1.25 0 2.09.85 3.22.8 1.1.06 2.28-.87 3.4-.87.67-.03 1.54.26 1.91.55 0 0 1.46-1.05 1.42-1.1-1.2-.17-2.2-.93-3.42-.98-1.12 0-2.22.87-3.3.8-1.14.06-1.98-.8-3.23-.8-1.22.02-1.76.84-3.06.8-1.43.03-2.08-.8-3.15-.8-1.2 0-2.5.89-2.5.89l1.36.91c.11.07.82-.34 1.17-.43 1.16-.25 2.12 1.08 3.11 1.04z"/><path fill="#000" d="M18 27.89h-.11a3.8 3.8 0 0 1-1.62-.4c-.5-.2-1.01-.41-1.6-.41-.56 0-.97.2-1.4.39-.48.21-.97.43-1.67.42-.48.01-.94-.25-1.41-.53-.53-.31-1.09-.64-1.68-.51-.13.03-.34.12-.55.21-.4.19-.6.27-.71.2l-1.36-.91c-.03-.03-.05-.06-.05-.1s.01-.08.05-.1c.06-.04 1.35-.9 2.57-.9.51 0 .93.17 1.37.36a4 4 0 0 0 1.73.44h.04c.65.01 1.1-.19 1.57-.4.44-.2.89-.4 1.5-.4.64 0 1.17.2 1.68.42.51.2.99.4 1.53.38h.01c.54.03 1.07-.18 1.63-.39.53-.2 1.09-.42 1.65-.42h.02c.7.03 1.3.27 1.9.52.5.19 1 .4 1.54.47.03.01.07.03.1.06.06.11.08.14-1.46 1.26a.12.12 0 0 1-.15 0 3.3 3.3 0 0 0-1.83-.53c-.54 0-1.1.22-1.62.44-.56.2-1.12.42-1.68.42zm-.1-.25c.53.04 1.09-.19 1.68-.42.55-.21 1.14-.45 1.7-.45h.02a3.6 3.6 0 0 1 1.91.53c.4-.3.9-.66 1.16-.87-.47-.1-.91-.28-1.34-.45a5.62 5.62 0 0 0-1.82-.5h-.01c-.52 0-1.05.2-1.57.4-.56.22-1.14.44-1.72.41a3.8 3.8 0 0 1-1.62-.4c-.5-.2-1-.4-1.6-.4-.56 0-.96.19-1.4.38-.47.22-.97.44-1.68.42-.78 0-1.35-.24-1.86-.46a3 3 0 0 0-1.28-.35c-.91 0-1.9.54-2.27.77l1.18.79c.08 0 .33-.12.5-.2.21-.1.43-.2.6-.24.68-.14 1.27.2 1.84.55.45.27.88.51 1.29.5.66.01 1.1-.19 1.57-.4.43-.2.89-.4 1.49-.41.64 0 1.18.22 1.7.43.5.2.98.4 1.52.37z"/><path fill="#f4f0e8" d="M.36 16.3l30.21.01c-.21 1.03-.48 1.73-.73 2.48a3.77 3.77 0 0 0-2.28-.81c-1.11.02-1.93.83-2.98.8-1.09.01-2.08-.74-3.3-.8-1.13 0-2.22.86-3.31.8-1.14.05-1.98-.8-3.23-.8-1.21.02-1.75.84-3.06.8-1.43.02-2.08-.8-3.14-.8-1.08 0-1.8.8-2.99.8-1.12.02-1.62-.82-2.57-.8-.96-.02-1.35.26-1.98.73-.33-.81-.48-1.6-.64-2.42z"/><path fill="#000" d="M29.84 18.9c-.02 0-.06 0-.07-.02a3.69 3.69 0 0 0-2.21-.79c-.53.01-1 .21-1.45.4-.49.2-.98.42-1.54.4h-.01c-.56 0-1.08-.18-1.64-.39a5.4 5.4 0 0 0-1.66-.4c-.52 0-1.05.2-1.57.4-.56.21-1.14.43-1.72.4a3.8 3.8 0 0 1-1.62-.4c-.5-.2-1.01-.4-1.6-.4-.56 0-.97.19-1.4.38-.48.22-.97.43-1.68.42-.78 0-1.35-.24-1.86-.46-.42-.18-.8-.35-1.27-.35h-.01c-.5 0-.92.19-1.36.38-.49.21-1 .43-1.62.43-.62 0-1.04-.22-1.45-.44a2.2 2.2 0 0 0-1.13-.37c-.91-.01-1.28.24-1.9.71-.04.03-.08.03-.11.03s-.06-.04-.08-.08C.56 17.97.4 17.2.26 16.42l-.02-.1a.14.14 0 0 1 .05-.13.1.1 0 0 1 .08-.02l30.2.02c.04 0 .08.02.1.05s.03.06.03.1c-.2.95-.45 1.64-.68 2.3l-.07.2a.11.11 0 0 1-.08.07h-.03zm-11.87-.24c.54.03 1.07-.18 1.63-.39.53-.2 1.1-.42 1.65-.42h.02c.63.02 1.2.23 1.73.43.54.2 1.04.38 1.56.38h.02c.5 0 .95-.18 1.43-.39.48-.2.98-.41 1.55-.42.84.02 1.55.27 2.22.74l.01-.03c.22-.63.44-1.27.64-2.13L.5 16.42c.14.69.27 1.4.54 2.1a2.66 2.66 0 0 1 3.17-.27c.38.2.79.42 1.33.4.58 0 1.07-.2 1.53-.4.45-.2.9-.4 1.46-.4h.01c.51 0 .93.18 1.36.37a4 4 0 0 0 1.73.44h.04c.65.01 1.1-.19 1.57-.4.44-.19.89-.4 1.5-.4.64 0 1.17.21 1.68.42.51.2.99.4 1.54.38-.01 0 0 0 0 0z"/><path fill="#000" d="M18.04 18.91h-.11c-.6.03-1.12-.18-1.62-.39-.5-.2-1.01-.41-1.6-.41-.56 0-.97.2-1.4.39-.48.21-.97.43-1.68.41-.79.01-1.35-.24-1.86-.45a3.02 3.02 0 0 0-1.28-.35c-.5 0-.92.18-1.36.38-.49.2-.99.43-1.62.43H5.5c-.6 0-1.04-.22-1.45-.45a2.2 2.2 0 0 0-1.13-.36c-.93-.02-1.44.39-1.94.78-.06.04-.13.03-.17-.02s-.04-.13.02-.17c.53-.42 1.08-.85 2.1-.83.49-.01.87.2 1.24.4.38.2.78.41 1.33.4.59 0 1.07-.2 1.53-.4.45-.2.9-.4 1.46-.4h.01c.51 0 .93.17 1.37.37.5.22 1.02.44 1.76.43a3.2 3.2 0 0 0 1.57-.4c.44-.18.89-.4 1.5-.4.64 0 1.17.22 1.69.42.5.21.98.4 1.52.38h.02c.53.04 1.06-.17 1.62-.38a4.7 4.7 0 0 1 1.67-.42c.63.02 1.2.23 1.74.42.53.2 1.03.38 1.55.38h.02c.5.01.96-.17 1.43-.38.48-.2.98-.41 1.55-.42a3.7 3.7 0 0 1 2.28.75c.06.04.06.12.02.17s-.12.06-.16.02a3.48 3.48 0 0 0-2.14-.7c-.52 0-1 .21-1.45.4-.49.2-.98.41-1.53.4h-.02c-.56 0-1.08-.19-1.64-.39a5.4 5.4 0 0 0-1.66-.41c-.52 0-1.05.2-1.57.4s-1.05.4-1.6.4z"/><path fill="#ffd200" d="M9.19 5.92c.32.07-.23.9-.23 1.32 1.17 1.57 2.72 3.04 4.1 4.56l-1.77.36c.12.39-.66.56-1.17.85.07-.5.35-.93.65-1.35-.34.26-.66.83-1.02.72-.04-.52.28-.95.42-1.42-.28.47-.56.96-1 1.05.12-.45.21-.94.43-1.27-.43.44-.88.65-1.31.85.35-1.08.6-1.4 1.07-1.71 0-.17-.04-.3-.22-.35-.29.06-.7.36-.86.1.01-.37-.13-.33-.26-.66 0-.28.4-.39.66-.33-.42-.14-.45-.55-.64-.86-.51.6-.83.6-.84.4a.84.84 0 0 0-.24-.8c-.03-.1.43-.09.58-.14-.33-.27-1.04-.2-1.02-.5.14-.21.42-.31.5-.75.27-.37.5.42.8.9.02-.51-.03-1.15.31-1 .39.1.65.06 1.06.03z"/><path fill="#000" d="M10.1 13.14a.1.1 0 0 1-.06-.03C10 13.1 10 13.04 10 13c.03-.2.1-.41.18-.6-.14.11-.3.17-.47.12-.04-.02-.09-.06-.09-.1-.01-.2.02-.38.07-.55a1 1 0 0 1-.5.28c-.03 0-.07-.01-.1-.04s-.05-.08-.03-.12l.07-.28.15-.51c-.3.2-.58.35-.87.49l-.07.03a.11.11 0 0 1-.13-.02c-.04-.03-.04-.08-.03-.12.36-1.08.62-1.44 1.07-1.75-.01-.1-.05-.14-.1-.16l-.22.08c-.25.1-.59.24-.75-.04l-.01-.06c0-.18-.04-.24-.1-.33a.97.97 0 0 1-.15-.28L7.91 9c0-.13.05-.24.16-.32.07-.06.16-.1.25-.12a1.36 1.36 0 0 1-.24-.42L8.03 8c-.3.33-.58.47-.77.42a.23.23 0 0 1-.16-.21v-.04a.73.73 0 0 0-.2-.69c-.02-.01-.02-.03-.02-.05a.15.15 0 0 1 .01-.13c.04-.06.12-.08.24-.1a1.3 1.3 0 0 0-.17-.05c-.26-.06-.57-.14-.54-.4l.01-.06c.06-.08.12-.14.19-.2a.83.83 0 0 0 .3-.52c0-.01 0-.03.02-.04.07-.1.16-.15.26-.14.2.02.34.3.52.65 0-.3.04-.55.2-.64a.27.27 0 0 1 .26-.01c.32.07.56.06.89.03h.14c.08 0 .13.05.16.1.1.17 0 .42-.13.74-.07.2-.15.4-.16.56.8 1.04 1.78 2.08 2.72 3.08l1.34 1.43c.03.03.04.08.02.12s-.05.07-.09.08l-1.65.34c0 .3-.4.47-.79.64l-.47.22-.05.01zm.66-1.6c.03 0 .06.02.08.04.04.04.05.1.02.15-.24.34-.47.68-.58 1.06l.26-.11c.41-.19.68-.32.63-.48l.01-.1c.01-.04.05-.04.08-.05l1.56-.32-1.2-1.28c-.95-1.01-1.95-2.06-2.76-3.13a.13.13 0 0 1-.02-.08c0-.2.1-.44.18-.67.06-.17.17-.45.15-.53h-.1a3.1 3.1 0 0 1-.97-.03h-.02l-.05-.02c-.08.04-.08.46-.08.68v.23c0 .05-.04.1-.09.1s-.1 0-.14-.05c-.08-.13-.15-.28-.22-.42-.1-.19-.25-.51-.33-.52l-.03.02a.91.91 0 0 1-.36.6.9.9 0 0 0-.12.14c.03.05.2.1.35.13.21.05.45.1.62.25.04.03.05.07.04.11s-.04.08-.08.09c-.06.02-.16.03-.25.04-.05 0-.12 0-.17.02.17.23.22.49.17.76.04.02.25-.04.62-.47.02-.04.06-.05.1-.04.03 0 .07.02.1.05l.14.3c.1.23.19.43.44.52.06.02.1.08.07.14-.01.06-.08.1-.14.08-.15-.03-.35 0-.45.08a.14.14 0 0 0-.06.12c.04.1.08.15.12.2.07.11.14.2.14.44.06.06.22 0 .43-.08.1-.04.2-.08.29-.1h.05c.3.08.3.37.3.47 0 .04 0 .08-.05.1-.4.26-.63.54-.93 1.37.34-.17.68-.36 1.02-.7.04-.04.11-.04.16 0s.06.1.03.16c-.17.24-.26.6-.34.95l-.02.05c.26-.15.47-.5.67-.84l.04-.08c.03-.04.1-.07.15-.04s.08.09.07.14c-.05.16-.12.32-.19.47a2.2 2.2 0 0 0-.24.8c.16-.02.33-.2.5-.4l.33-.31h.07z"/><path fill="#ffd200" d="M21.6 13.31c-.22.47-.45.8-.67 1.45-.4.06-.84.04-1.2-.29.23-.34.71-.48 1.15-.66l-1.12-.04c.05-.47.5-.46.78-.64a6.33 6.33 0 0 1-.2-3.05c.15-.85 1.16-1.98 1.87-2.75.24-1.67.4-3.55 1.09-3.95l-.04 1.41c.3-.76.8-1.25 1.45-1.5-.05.6-.16.99-.3 1.37l.95-.62c-.1.58-.26 1-.48 1.22l.8-.02c-.98 1.03-1.79 2.19-2.96 3.05-.7.48-1.66 1.7-1.7 2.29 0 .8.1 2.26.58 2.73z"/><path fill="#000" d="M20.6 14.9a1.3 1.3 0 0 1-.94-.35.12.12 0 0 1-.02-.15c.16-.23.4-.38.67-.5h-.55c-.03 0-.06-.02-.08-.05s-.04-.05-.03-.1c.05-.4.35-.52.58-.6l.17-.08a6.55 6.55 0 0 1-.17-3.02c.15-.8.98-1.8 1.88-2.78l.08-.6c.21-1.55.41-3.02 1.06-3.4.04-.02.09-.02.13 0s.05.07.05.11l-.02.86c.3-.5.73-.86 1.27-1.07.04-.01.08 0 .11.02s.05.06.05.1a5.5 5.5 0 0 1-.2 1.08l.66-.43c.04-.03.1-.03.14 0s.06.07.05.12c-.1.47-.2.83-.35 1.08h.55c.05 0 .1.01.11.06s0 .1-.02.13l-.9 1c-.63.72-1.27 1.47-2.08 2.07-.72.49-1.61 1.68-1.65 2.2 0 .76.09 2.19.53 2.62.04.04.05.1.03.14l-.2.4c-.16.3-.31.58-.46 1.03a.12.12 0 0 1-.1.08l-.36.03zm-.7-.45c.24.18.55.24.94.2.16-.44.3-.73.45-1l.16-.32c-.55-.65-.55-2.4-.54-2.74.04-.65 1.02-1.9 1.75-2.39.78-.58 1.42-1.31 2.04-2.02.22-.27.46-.53.7-.8h-.5c-.05 0-.1-.02-.12-.06s0-.1.03-.13c.15-.16.28-.45.38-.88l-.7.46c-.04.02-.1.02-.14-.01s-.06-.08-.04-.14c.11-.35.2-.68.27-1.14a2.3 2.3 0 0 0-1.2 1.36c-.03.05-.09.09-.14.07-.06 0-.1-.06-.1-.12l.03-1.14c-.4.52-.59 1.81-.76 3.06l-.08.64c0 .02-.02.04-.04.06-.54.59-1.68 1.82-1.84 2.68-.14.83-.17 2.1.19 2.98.02.05 0 .11-.05.14-.1.07-.2.1-.3.15-.2.08-.33.13-.4.29l.98.03c.05 0 .1.04.1.1s-.01.11-.06.13l-.22.1c-.3.12-.6.23-.8.44z"/><path fill="#ffd200" d="M21.84 14.04c.75-.55 1.33-1.03 1.53-1.82.26-.94.18-2.1-.48-3.19l-1.62-2.8c.06-1.06.27-2.32.03-3.02-.2.32-.25 1.03-.38 1.54-.25-.54-.49-1.08-.97-1.5 0 .55.1 1.1.27 1.66-.48-.35-.86-.98-1.53-1.14.08.36.54.98.85 1.5a2.93 2.93 0 0 0-1.42-.38c1.05.98 2.07 2.1 3.09 3.29.54.76 1.19 1.56 1.2 2.99.01 1.17-.59 1.75-.91 2.55.12.1.17.28.34.32z"/><path fill="#000" d="M21.84 14.16h-.03c-.15-.03-.24-.15-.3-.26a1.18 1.18 0 0 0-.09-.11.13.13 0 0 1-.02-.13c.1-.25.23-.48.35-.7.28-.5.56-1.02.56-1.8a4.38 4.38 0 0 0-1.07-2.76l-.12-.17a36.37 36.37 0 0 0-3.07-3.26c-.04-.03-.05-.09-.03-.14s.08-.07.12-.07h.03c.33.02.67.05 1.05.2l-.07-.1a3.8 3.8 0 0 1-.57-1.08c0-.04 0-.08.03-.1s.08-.05.12-.04c.48.12.81.44 1.12.77.05.04.1.1.15.13-.12-.47-.17-.9-.17-1.31 0-.05.03-.09.07-.11.04-.02.1-.01.13.02.4.35.65.78.85 1.22 0-.07.02-.13.03-.19.07-.4.14-.8.28-1.02.03-.04.07-.07.11-.06.05.01.1.04.11.08.18.54.11 1.39.04 2.2l-.06.82 1.6 2.78c.6 1 .78 2.2.48 3.28-.2.83-.83 1.35-1.57 1.9h-.06zm0-.12zm-.19-.35l.06.08c.04.07.07.12.1.14.71-.52 1.26-.97 1.44-1.72.16-.6.33-1.8-.47-3.1l-1.62-2.8a34.74 34.74 0 0 1 .05-.94c.04-.6.1-1.23.04-1.7a9.73 9.73 0 0 1-.23 1.13c0 .04-.05.08-.1.08s-.1-.03-.12-.08v-.01a4.4 4.4 0 0 0-.73-1.24c.02.4.1.85.26 1.34.01.04 0 .1-.05.13-.04.03-.1.03-.15 0-.16-.12-.31-.27-.46-.42-.25-.25-.49-.49-.8-.63.11.23.29.5.47.78l.3.46c.03.05.02.1-.02.14s-.1.05-.15.02c-.38-.22-.7-.3-1.01-.33a40 40 0 0 1 2.84 3.05l.01.01.12.17c.52.72 1.1 1.53 1.11 2.9.01.85-.3 1.4-.6 1.93l-.3.61z"/><path fill="#ffd200" d="M21.28 16.32l1.2-.02-.01-.93c-.5-.66-.87-.75-1.14-.01l-.05.96z"/><path fill="#000" d="M21.28 16.44c-.03 0-.06-.02-.09-.04s-.03-.06-.03-.09l.05-.96v-.03c.14-.37.31-.56.52-.6.24-.04.5.14.83.58a.1.1 0 0 1 .03.07l.02.93c0 .03 0 .06-.03.09s-.06.04-.1.04l-1.2.01zm.17-1.06l-.04.81.96-.02-.02-.77c-.3-.4-.48-.47-.58-.45-.11.02-.22.18-.32.43z"/><path fill="#ffd200" d="M21.6 13.8c.24.16.21 1.8-.47 1.46-.45-.28.12-1.66.46-1.46z"/><path fill="#000" d="M21.31 15.43a.5.5 0 0 1-.22-.05l-.01-.01c-.39-.23-.24-.94.01-1.37.26-.44.5-.35.57-.3.26.17.27 1.07.03 1.48-.1.17-.23.25-.38.25zm-.11-.27c.12.06.2.03.27-.08.22-.34.16-1.09.07-1.18-.03 0-.13.05-.24.23-.21.35-.3.9-.1 1.03z"/><path fill="#ffd200" d="M21.88 14.03c.54-.11 1.03 1.09.6 1.26-.52.22-1-1.11-.6-1.26z"/><path fill="#000" d="M22.36 15.44a.47.47 0 0 1-.3-.12c-.29-.23-.5-.77-.44-1.11.02-.16.1-.26.22-.3h.01c.37-.08.72.32.85.74.11.37.05.66-.19.75a.26.26 0 0 1-.15.04zm-.44-1.29c-.03.02-.05.05-.06.1-.04.24.12.7.35.89.13.1.2.06.22.04.12-.04.1-.27.05-.46-.1-.3-.35-.6-.56-.57z"/><path fill="#ffd200" d="M22.13 14.02c-.19-.2 1.27-1.67 1.74-.67.17.38-1.42 1.06-1.74.67z"/><path fill="#000" d="M22.47 14.26c-.18 0-.34-.05-.43-.16-.04-.04-.07-.12-.03-.25.13-.32.79-.95 1.34-.96.2-.01.46.05.63.4.05.11.07.34-.37.6-.31.2-.78.37-1.14.37zm-.24-.3c.17.14.8 0 1.24-.27.24-.14.3-.26.28-.3-.1-.21-.26-.3-.5-.25-.47.1-.98.66-1.02.82zm-.02-.03z"/><path fill="#ffd200" d="M22.6 14.83c-.18-.47.22-.86.97-.98.35-.08.8.35.85 1.17a2.96 2.96 0 0 0-1.82-.2z"/><path fill="#000" d="M24.42 15.14h-.04c-.54-.2-1.13-.38-1.75-.2a.12.12 0 0 1-.14-.07.65.65 0 0 1 .04-.59c.16-.27.52-.47 1.01-.55a.6.6 0 0 1 .49.13c.29.22.48.64.52 1.16 0 .04-.02.08-.05.1a.13.13 0 0 1-.08.02zm-1.26-.51c.39 0 .76.1 1.12.21a1.3 1.3 0 0 0-.4-.8c-.1-.07-.2-.1-.29-.07-.42.07-.73.22-.85.43a.41.41 0 0 0-.05.28c.16-.04.32-.05.47-.05z"/><path fill="#dc281e" d="M11.44 9.14c.26-.17 1.27.44 1.68.38.6-.1 1.44-.7 2.12-.43l-.03.4c-1.13.3-2.05.52-3.13.5-.35-.07-.64-.62-.64-.85z"/><path fill="#000" d="M12.26 10.1h-.19c-.43-.07-.75-.67-.75-.95 0-.04.02-.08.05-.1.19-.13.54 0 .95.15.3.1.62.23.8.2.19-.03.42-.12.66-.2.49-.2 1.03-.41 1.52-.22a.1.1 0 0 1 .07.12l-.03.4c0 .05-.04.1-.09.11-1.11.28-2 .5-2.99.5zm-.15-.24c1.01.03 1.85-.17 3-.46l.01-.22c-.39-.1-.83.06-1.26.23-.25.1-.5.2-.71.23-.23.03-.56-.1-.9-.22-.22-.08-.52-.2-.68-.2.06.23.3.6.54.64z"/><path fill="#dc281e" d="M10.75 4.46c.42.5 1.08 1.05 1.17 1.67 1.08-.6 2.35-1.17 3.3-1.68-.15-.34-.53-.75-.44-1.91-.44.37-.62.75-.7 1.12-.23-.46-.75-.23-.74-.17.07-.15-.26-.45-.6-.33-.37.17-.36.76-.22.73 0 0-.49.17-.32.59-.5-.22-.99-.11-1.45-.02z"/><path fill="#000" d="M11.92 6.25l-.06-.01a.12.12 0 0 1-.06-.1c-.06-.44-.48-.88-.84-1.27a5.5 5.5 0 0 1-.3-.34c-.03-.03-.04-.08-.03-.12s.05-.07.1-.08h.02c.4-.09.84-.18 1.29-.05 0-.07.01-.13.04-.18a.7.7 0 0 1 .24-.27c-.06-.2 0-.64.35-.8h.01c.26-.1.53.01.66.16l.08.09a.65.65 0 0 1 .6.1c.12-.36.34-.68.68-.96a.12.12 0 0 1 .13-.01c.04.02.08.06.07.11-.07.92.15 1.34.31 1.64.04.08.08.15.1.22.03.06 0 .12-.05.15-.45.25-.97.51-1.52.79-.59.29-1.2.6-1.76.9-.01.03-.03.03-.05.03zm-.94-1.71l.16.16c.35.37.73.79.86 1.24.52-.28 1.09-.56 1.63-.83.5-.25.99-.49 1.42-.72l-.05-.1c-.14-.28-.36-.68-.35-1.46a1.8 1.8 0 0 0-.46.86c0 .05-.04.09-.1.1a.11.11 0 0 1-.12-.07.36.36 0 0 0-.25-.2.45.45 0 0 0-.28.03c-.03.04-.08.07-.12.06a.12.12 0 0 1-.1-.1v-.06a.24.24 0 0 0-.1-.13.38.38 0 0 0-.34-.04c-.12.05-.18.18-.2.26a.47.47 0 0 0-.02.25.1.1 0 0 1 .08.08.12.12 0 0 1-.08.14s-.2.07-.26.21a.28.28 0 0 0 0 .22c.01.05 0 .1-.03.13a.13.13 0 0 1-.13.02 1.9 1.9 0 0 0-1.16-.05z"/><path fill="#ffd200" d="M8.1 13.8c.62.04 1.59-.03 2.74-.5l1.6.17c.45.5.98.92.52 2.15l.18-1.36c-.77.49-1 1.05-1.28 1.72l-.06-.84c-.35.67-.34.5-.86 1.06l.22-.85c-.24.28-.47.62-.7.62-.03-.39-.01-.47 0-.67-.19.31-.35.72-.57.8-.18-.17-.3-.5-.38-.96-.27.16-.38.7-.55 1.04-.13-.25-.1-.49-.1-.74-.16.32-.33.56-.53.7.01-.54.08-1.07-.12-1.14-.36-.06-.38.7-.64.51-.21-.25-.41-.21-.62-.14-.16-.25.13-.52.1-.66-.26.1-.71.58-.86.18.13-.31.02-.52-.1-.83.1-.37.68.09.77-.1.02-.27-.44-.45-.36-.73.38.07.61-.24.9-.43.48-.02.5.66.7 1z"/><path fill="#000" d="M10.94 16.32l-.06-.01a.11.11 0 0 1-.05-.14l.09-.34c-.15.15-.3.26-.46.26a.12.12 0 0 1-.12-.12v-.19c-.12.2-.24.37-.4.43a.13.13 0 0 1-.13-.03 1.5 1.5 0 0 1-.37-.8c-.08.14-.15.32-.22.49l-.14.36c-.03.04-.07.07-.12.07s-.08-.03-.1-.08a1.11 1.11 0 0 1-.1-.37c-.1.16-.22.29-.34.37a.13.13 0 0 1-.13.02.13.13 0 0 1-.06-.11v-.33c.02-.23.03-.64-.03-.7-.08 0-.15.1-.23.25-.07.13-.13.26-.26.29-.04 0-.1 0-.19-.05l-.02-.03c-.16-.17-.28-.17-.5-.1-.05 0-.1 0-.13-.06-.1-.16-.07-.32-.02-.45-.18.12-.38.24-.55.18a.34.34 0 0 1-.2-.22v-.09c.1-.25.04-.4-.06-.67L6 14.07V14c.1-.32.43-.23.6-.18l.15.03c-.02-.05-.08-.1-.13-.17-.12-.13-.27-.3-.21-.51.01-.06.08-.1.13-.09.24.05.4-.09.6-.25.06-.06.14-.1.21-.15l.06-.03c.43 0 .57.4.67.72l.12.29c.49.02 1.43-.02 2.62-.5h.05l1.6.18c.04 0 .06.01.09.04l.11.12c.17.18.35.38.46.62.03 0 .06 0 .09.02.04.02.06.07.05.12l-.02.2c.06.31.03.7-.15 1.18a.12.12 0 0 1-.15.08c-.05-.02-.1-.08-.09-.13l.14-1.1c-.55.43-.75.9-1 1.48V16c-.03.05-.08.09-.14.08s-.1-.06-.1-.12l-.02-.44c-.11.19-.19.26-.32.38-.09.08-.2.18-.35.36-.08.04-.1.05-.14.05zm-1.43-1.3l.06.01c.03.02.06.05.06.09.06.38.15.66.28.82.1-.09.21-.29.3-.47l.14-.25c.02-.04.08-.07.13-.05s.1.06.1.12l-.01.15v.36c.12-.08.25-.25.38-.4l.12-.14c.04-.04.1-.06.14-.04s.07.09.06.14l-.1.42.06-.05c.18-.17.24-.22.47-.67a.12.12 0 0 1 .13-.07c.06.01.09.06.1.11l.02.36c.21-.44.46-.85.96-1.2-.1-.24-.27-.41-.43-.6l-.09-.09-1.52-.17c-1.26.5-2.27.53-2.76.5-.04 0-.07-.03-.1-.06a1.54 1.54 0 0 1-.15-.4c-.12-.32-.2-.53-.4-.55l-.17.12c-.17.15-.38.3-.64.32l.13.17c.11.12.23.25.22.43v.04c-.09.18-.3.12-.46.08-.2-.06-.26-.06-.3-.02l.01.03c.1.26.2.5.1.8 0 .02 0 .03.02.04.08.02.26-.1.38-.17.1-.07.2-.12.29-.16.03-.02.07-.01.1 0s.05.05.06.08c.02.1-.03.19-.08.29-.04.1-.09.18-.08.25.2-.04.42-.04.62.2a.7.7 0 0 0 .1-.16c.09-.16.23-.41.5-.37h.02c.24.1.22.45.2.94v.02c.1-.12.2-.27.28-.45.02-.05.08-.08.13-.06.06 0 .1.05.1.11v.19l.01.17c.12-.31.24-.63.46-.76h.05z"/><path fill="#dc281e" d="M6.02 12.3c.56-.15.94.18 1.28.5-.23.27-.46.42-.7.4-.03-.42-.34-.63-.58-.9z"/><path fill="#000" d="M6.63 13.33H6.6c-.05 0-.1-.05-.1-.11-.03-.3-.2-.47-.4-.66a3.14 3.14 0 0 1-.16-.17c-.02-.03-.04-.08-.02-.12s.04-.07.08-.08c.64-.16 1.07.24 1.4.53.04.04.04.12 0 .17-.26.29-.5.44-.76.44zm-.36-.94c.18.17.37.38.44.7a.88.88 0 0 0 .42-.28c-.27-.25-.54-.43-.86-.42z"/><path fill="#dc281e" d="M5.16 15.15c.06-.57.5-.8.93-1.01.17.31.22.58.12.8-.41-.13-.72.1-1.05.21z"/><path fill="#000" d="M5.16 15.27c-.03 0-.06 0-.07-.02a.13.13 0 0 1-.05-.1c.07-.66.6-.93.99-1.12.05-.03.13 0 .16.05.2.37.24.66.13.91a.12.12 0 0 1-.15.06c-.28-.08-.5.01-.75.13l-.22.09h-.04zm.87-.96c-.32.16-.59.34-.7.65.23-.1.49-.21.8-.15a.88.88 0 0 0-.1-.5z"/><path fill="#dc281e" d="M6.92 16.03c.54-.13.55-.2.75-.61-.15-.13-.47-.2-.6-.12.18.36-.02.4-.14.73z"/><path fill="#000" d="M6.92 16.15a.13.13 0 0 1-.08-.04.11.11 0 0 1-.03-.12c.04-.11.1-.2.14-.26.09-.14.11-.19.02-.37a.14.14 0 0 1 .04-.15c.18-.12.57-.03.74.12.04.03.06.1.04.15l-.04.08c-.19.38-.25.46-.8.6h-.03zm.33-.76c.06.21-.01.33-.1.45.2-.06.26-.14.37-.37a.61.61 0 0 0-.27-.08zm3.47-.54a.08.08 0 0 1-.08-.08v-.45c0-.05.03-.08.08-.08s.08.03.08.08v.45c0 .04-.04.08-.08.08zm-.22.06c-.05 0-.09-.03-.09-.08v-.44c0-.05.04-.08.08-.08s.09.03.09.08v.44c0 .04-.04.08-.09.08zm-.29 0c-.05 0-.08-.03-.08-.08v-.44c0-.05.03-.08.08-.08s.08.03.08.08v.44c0 .04-.03.08-.08.08zm-.25 0c-.05 0-.09-.03-.09-.08v-.44c0-.05.04-.08.09-.08s.08.03.08.08v.44c0 .04-.04.08-.08.08zm-.33.03c-.05 0-.08-.04-.08-.09v-.44c0-.05.03-.08.08-.08s.08.03.08.08v.44c0 .05-.03.09-.08.09zm-.59.01c-.05 0-.08-.03-.08-.08v-.44c0-.05.03-.08.08-.08s.08.03.08.08v.44c0 .04-.04.08-.08.08zm-.63-.26h-.44c-.05 0-.08-.04-.08-.09s.03-.08.08-.08h.44c.05 0 .09.04.09.08s-.04.09-.09.09zm-1.25-1.02c-.03 0-.05 0-.07-.03-.02-.04-.01-.1.02-.12l.08-.04.07-.04c.01-.04.06-.07.1-.05s.06.06.05.1a.25.25 0 0 1-.15.14.13.13 0 0 0-.05.03l-.05.01zm-.24-.17H6.9c-.04-.02-.08-.05-.07-.1s.04-.08.08-.07c.05 0 .22-.1.25-.14a.08.08 0 0 1 .1-.04c.04.01.07.06.05.1-.05.11-.3.24-.4.24zm-.37 1.22c-.02 0-.04-.01-.06-.04-.03-.03-.02-.08.01-.1 0-.02-.01-.1-.04-.17-.02-.04 0-.09.03-.1.04-.02.09 0 .1.03.03.05.13.27 0 .36l-.04.02z"/><path fill="#ffd200" d="M11.87 16.31l6.98-.01c-.26-.96-1.05-1.3-1.62-1.88l-.02 1.4-1.43-1.02-.08 1.4-.89-1.05c-.42.6-.42-.26-1.72-.55-.71.44-.83 1.02-1.23 1.71z"/><path fill="#000" d="M11.87 16.43a.14.14 0 0 1-.11-.05.11.11 0 0 1 0-.13c.1-.16.18-.33.26-.5.23-.46.45-.9 1-1.26.02-.02.05-.02.09-.02.64.15.98.43 1.2.62.1.08.19.15.24.15.02 0 .06-.02.16-.15.02-.04.06-.05.1-.05s.07.01.1.04l.69.82.06-1.1c0-.04.03-.08.07-.1.04-.02.1-.02.12 0l1.25.9.02-1.17c0-.05.03-.1.08-.12.05-.01.1 0 .13.03.16.17.35.32.52.46.46.37.93.76 1.12 1.47.01.04 0 .07-.02.1s-.06.05-.1.05l-6.99.01zm1.24-1.71c-.46.3-.66.69-.87 1.14l-.17.33h3.45l-.71-.85a.43.43 0 0 1-.23.13c-.14.02-.27-.08-.42-.2a2.4 2.4 0 0 0-1.05-.55zm2.78.3l-.07 1.16h2.86a2.72 2.72 0 0 0-.99-1.2 5.46 5.46 0 0 1-.34-.29l-.02 1.13c0 .05-.02.09-.06.1s-.1.02-.12 0l-1.26-.9z"/><path fill="#ffd200" d="M11.76 6.17l3.45-1.67c.89.28 1.8.36 2.8-.08-.26.51-.25 1.22-1.2 1.23.97 0 1.92.38 2.83 1.25-.73.12-1.12.04-1.62.02.69.44 1.2 1.25 2.07 1.29a2.4 2.4 0 0 1-1.05.52c.34.27.68.7 1.02.75-.51.21-1.12.75-1.58.37.48.55.75 1.26 1.43 1.64-.3.07-.5.3-.93.18.26.47.53 1.13.79 1.34-.44.1-.8-.04-1.17-.18.28.41.5.9.9 1.25-.44.1-.89-.02-1.27-.1.32.36.63.66 1 1.25-1.12.22-1.3-.4-2.03-.72.08.48.16.95.03 1.44-.7-.15-1.06-.65-1.45-1.19.02.58-.01 1.13-.13 1.43-.37-.23-.58-.6-.84-1.04-.22.39-.65.7-.97 1.08-.22-.35.03-.8.15-1.33-.5.31-.93.82-1.24 1.28l.42-1.6c-.57.14-1.1.5-1.74.39.34-.4.24-.84.96-1.17-.57-.16-1.46-.03-1.7-.38.38-.43 1.23-.45 2.1-.49-1.13.15-1.24-.42-1.6-.82 1.03-.02 2.26-.5 3.35-.72a.52.52 0 0 0 0-.51c-.3.2-1.33.35-1.37.18.1-.99.57-.83 1.05-.83.39 0 1.15-.21 1.02-1.21-.13-.74-.6-.62-1.66-.06-.21.06-.53.19-.95.14-.3-.05-.72-.8-1.04-1 .3-.53.68-1.06.74-1.66-.12.64-.53 1.2-.82 1.59-.1-.37.14-1.74.25-1.86z"/><path fill="#000" d="M13.85 16.36a.13.13 0 0 1-.1-.06c-.2-.3-.1-.64.02-1l.02-.1c-.42.35-.76.8-.93 1.06-.04.05-.1.07-.16.04s-.08-.08-.06-.14l.38-1.4-.3.12c-.4.14-.81.3-1.29.22-.04 0-.08-.04-.1-.08s0-.09.03-.12c.1-.12.16-.25.22-.39.1-.2.2-.43.48-.63l-.37-.04c-.46-.04-.9-.07-1.08-.34a.12.12 0 0 1 0-.15c.25-.27.65-.4 1.13-.45-.2-.13-.33-.3-.44-.46l-.18-.23c-.04-.03-.04-.09-.03-.13s.07-.07.1-.07c.67-.02 1.43-.23 2.17-.42l1.1-.28c.03-.1.04-.17.02-.24-.35.15-1.06.28-1.3.18a.2.2 0 0 1-.12-.12v-.04c.09-.98.59-.96.99-.95h.18c.21 0 .51-.08.7-.29.17-.18.24-.45.2-.8-.04-.2-.1-.32-.2-.37-.22-.1-.67.09-1.3.42h-.02l-.1.04c-.2.06-.51.16-.89.11-.22-.04-.43-.3-.66-.56a2.6 2.6 0 0 0-.44-.46.1.1 0 0 1-.04-.05.13.13 0 0 1-.1-.08c-.1-.38.1-1.74.27-1.97 0-.02.03-.03.04-.05l3.45-1.67h.1c1.02.32 1.86.3 2.7-.08.06-.02.11 0 .15.03.03.04.04.1.01.13l-.14.35c-.1.28-.22.59-.5.78.79.15 1.54.55 2.23 1.21.03.03.05.08.03.12s-.05.08-.1.08c-.53.1-.89.08-1.23.05l.33.28c.42.38.82.72 1.35.75.05 0 .1.04.11.1s0 .1-.05.12c-.27.2-.55.4-.85.49l.11.1c.23.21.46.43.66.46.06 0 .1.05.1.1s-.02.11-.07.13c-.12.05-.24.12-.37.19-.29.15-.6.32-.9.32l.17.27c.27.4.52.78.96 1.02.04.03.06.07.06.12 0 .05-.04.1-.09.1a.9.9 0 0 0-.23.1c-.15.06-.3.13-.5.13l.11.24c.18.35.36.71.52.85.03.03.05.07.04.12s-.05.08-.09.1a1.6 1.6 0 0 1-.9-.08l.03.04c.18.31.39.64.67.89.03.03.05.08.04.12a.13.13 0 0 1-.1.09c-.33.07-.65.03-.95-.02.24.26.5.55.76 1 .02.03.02.07 0 .11a.14.14 0 0 1-.08.07c-.82.17-1.17-.1-1.55-.38l-.34-.24a3 3 0 0 1-.02 1.25c-.01.07-.08.1-.14.1a2.26 2.26 0 0 1-1.3-.93c0 .4-.03.82-.14 1.1a.16.16 0 0 1-.07.06h-.1a2.4 2.4 0 0 1-.78-.92c-.13.18-.3.34-.46.51-.14.14-.29.28-.4.42h-.09zm.15-1.58c.02 0 .05 0 .07.02.04.03.06.08.05.12-.03.16-.07.3-.11.43-.07.26-.14.47-.11.65l.28-.29c.22-.2.42-.4.54-.62a.13.13 0 0 1 .1-.06c.05 0 .08.02.1.06l.06.08c.2.34.37.62.6.82.07-.28.1-.71.09-1.23 0-.06.03-.1.08-.13s.1 0 .14.05c.34.49.66.94 1.25 1.1.08-.4.02-.8-.06-1.27 0-.04 0-.09.05-.11a.13.13 0 0 1 .12-.02c.24.1.43.25.6.37.33.25.6.46 1.17.38a6.1 6.1 0 0 0-.75-.94l-.13-.14c-.04-.04-.04-.1-.02-.15s.08-.07.13-.06l.08.02c.28.06.6.13.91.1-.22-.23-.38-.5-.53-.76l-.21-.34c-.03-.04-.03-.1 0-.14s.1-.06.14-.04l.04.01c.28.1.54.21.84.2-.14-.19-.27-.46-.42-.75l-.22-.45c-.03-.04-.02-.1 0-.14.04-.04.09-.05.13-.04.26.08.42 0 .6-.08h.02c-.35-.27-.6-.62-.83-.96-.12-.2-.26-.4-.41-.58a.12.12 0 0 1 0-.16.12.12 0 0 1 .16 0c.26.21.6.06 1.06-.19l.14-.07c-.18-.1-.34-.26-.51-.41-.1-.1-.2-.19-.3-.26-.03-.03-.05-.08-.03-.13s.06-.08.1-.09c.26-.02.5-.15.75-.31-.47-.12-.83-.45-1.19-.76a4.4 4.4 0 0 0-.64-.5c-.04-.04-.06-.1-.04-.15s.06-.08.1-.08l.36.01c.3.02.6.04.99 0a3.83 3.83 0 0 0-2.57-1.05c-.06 0-.12-.06-.12-.13s.06-.12.12-.12c.67 0 .8-.37.96-.79l.03-.1c-.8.29-1.62.28-2.57 0l-3.37 1.63c-.08.17-.23.96-.24 1.45.25-.36.53-.8.62-1.28 0-.07.07-.11.13-.1s.12.06.1.13c-.04.5-.3.95-.56 1.38l-.13.23c.13.1.26.27.4.43.17.2.39.46.52.48.32.04.58-.04.79-.1l.09-.03c.73-.39 1.18-.56 1.5-.41.17.09.28.27.33.56.05.42-.03.75-.25.99-.25.27-.63.36-.9.36h-.18c-.4-.02-.66-.02-.74.66.2.04.94-.07 1.19-.23a.1.1 0 0 1 .09-.02.1.1 0 0 1 .07.06c.14.24.07.46 0 .62a.14.14 0 0 1-.08.07c-.37.07-.77.19-1.16.3-.66.17-1.35.35-1.98.41l.05.06c.2.28.38.53.9.55l.24-.01.17-.01c.07-.01.12.05.13.11s-.04.12-.1.13c-.16.02-.3.02-.43.02-.64.04-1.2.1-1.52.35a2 2 0 0 0 .83.17c.25.02.5.04.73.1.05.02.08.06.09.11 0 .05-.02.1-.07.12-.43.2-.54.42-.66.69a2.1 2.1 0 0 1-.13.26c.33.01.63-.1.95-.22.17-.07.35-.13.53-.18.04 0 .09 0 .11.03.03.03.04.07.03.11l-.27 1.01c.24-.28.55-.6.9-.81h.1zm-2.24-8.6z"/><path fill="#000" d="M14.9 11.98h-.01c-.2-.02-.37-.17-.54-.47-.03-.06-.01-.13.05-.16s.12-.01.16.04c.08.16.17.26.25.32.08-.37.25-.57.42-.77l.14-.17c.02-.04.07-.06.11-.05s.08.03.1.07c.15.37.28.59.44.76a14.58 14.58 0 0 0 .07-1.2c0-.04.04-.1.09-.1.04-.02.1 0 .13.04.06.09.12.2.2.3.11.17.24.38.37.5a6.73 6.73 0 0 0-.2-1.58c0-.04.01-.1.04-.12a.11.11 0 0 1 .13-.02l.32.15c.2.1.36.2.52.17a2.25 2.25 0 0 0-.92-1.37c-.14-.12-.27-.22-.38-.35a.14.14 0 0 1 0-.15c.1-.13.2-.24.3-.34.17-.17.34-.33.44-.63a5.13 5.13 0 0 0-.96.02l-.3.03c-.03 0-.06-.01-.09-.04s-.04-.05-.04-.09c0-.07 0-.14.02-.21.02-.33.04-.67-.1-.77-.1-.06-.34-.08-.92.21-.06.03-.13 0-.16-.06-.03-.05 0-.12.06-.16.56-.28.93-.34 1.15-.19.26.18.24.59.22.98l-.01.08.16-.01a4.7 4.7 0 0 1 1.16 0c.03 0 .07.02.08.05s.03.07.02.1c-.12.46-.34.67-.55.88l-.22.23c.08.09.18.17.28.25.4.32.87.71 1.03 1.62 0 .06-.02.1-.07.13-.3.15-.58-.01-.83-.15l-.08-.05c.12.65.22 1.28.12 1.63-.01.03-.04.06-.07.07s-.06.02-.1.01c-.24-.08-.42-.38-.6-.68 0 .04 0 .08-.02.13-.02.5-.04.84-.08.98a.12.12 0 0 1-.09.07c-.04 0-.08 0-.1-.02a2.24 2.24 0 0 1-.6-.82l-.02.03c-.17.2-.33.4-.4.8a.14.14 0 0 1-.12.08zm-1.75-4.8a.2.2 0 0 1-.15-.06V7.1a.2.2 0 0 1-.01-.15c.09-.28.68-.7 1.2-.97.03-.02.07 0 .1.02s.02.08 0 .1c-.58.76-.9 1.06-1.1 1.07l-.03.01zM13.12 7h.03c.17-.02.5-.39.75-.7-.4.26-.72.53-.77.68V7zm-.08 2.23a.15.15 0 0 1-.1-.04 2.17 2.17 0 0 1-.48-1.04c-.13.13-.27.23-.46.3-.06.02-.13-.01-.15-.08s0-.13.07-.15a.98.98 0 0 0 .53-.45.13.13 0 0 1 .14-.06c.05.02.09.06.09.11.02.46.17.86.46 1.21.04.05.03.13-.02.17a.17.17 0 0 1-.08.03zm.26-1.55c-.05 0-.09-.04-.09-.08 0-.05.04-.08.08-.08h.01c.39 0 .64-.24.93-.62.02-.03.08-.04.11-.01s.04.08.02.11c-.3.41-.6.68-1.06.68z"/><path fill="#000" d="M19.7 8.61h-.02a3.12 3.12 0 0 1-1.78-.93l-.17-.15c-.27.18-.49.38-.73.58l-.18.15c-.04.04-.13.04-.17-.02-.04-.04-.04-.13.02-.17l.18-.15c.25-.22.51-.44.84-.64.04-.03.1-.03.13 0l.24.2c.4.36.9.8 1.65.88.06.01.11.07.1.14 0 .07-.05.12-.1.12zm-1.3 3.09l-.05-.02a1.6 1.6 0 0 1-.54-.83c-.02-.04 0-.1.04-.1s.1 0 .1.04c.11.31.24.5.38.64v-.15c0-.33 0-.7-.06-.82-.02-.04 0-.09.04-.11s.09-.01.1.03c.1.16.1.52.09.9v.32c0 .04-.02.06-.05.08l-.05.01zm-.58 2.02a.08.08 0 0 1-.08-.09 7.45 7.45 0 0 0-.24-2.01c0-.04.01-.09.05-.1s.1.02.1.06c.12.44.23 1 .24 2.05.01.05-.02.08-.07.08zm-3.87.31h-.01c-.04 0-.08-.05-.07-.09.04-.22.1-.47.33-.68.03-.04.08-.03.1 0s.03.08 0 .12a.93.93 0 0 0-.27.58c-.01.04-.04.07-.08.07zm-.72-5.25a.09.09 0 0 1-.08-.04c-.02-.04 0-.09.04-.11l.5-.27.24-.12c.04-.03.09-.01.11.03s0 .09-.03.11l-.24.12c-.15.08-.3.15-.5.27l-.04.01zm1.3-1.1c-.03 0-.05 0-.07-.03-.03-.04-.02-.1 0-.12.18-.14.25-.4.3-.63l.16.04c-.06.25-.14.54-.35.72-.01.02-.03.02-.04.02zm.4-.01c-.03 0-.05 0-.07-.03-.03-.03-.02-.09.01-.11.13-.12.16-.2.19-.36l.03-.12c0-.04.06-.07.1-.06.04.01.07.06.05.1l-.02.11c-.04.16-.07.3-.24.45l-.05.02zm.37.13c-.02 0-.05-.02-.06-.05-.02-.04-.01-.09.03-.11.04-.03.1-.15.1-.26 0-.05.03-.08.07-.08.05 0 .09.04.09.08-.01.13-.06.31-.17.39l-.05.02zm.26 1.97h-.03c-.04 0-.07-.05-.05-.1.14-.56.01-1.03-.4-1.4-.03-.03-.04-.08 0-.1s.08-.05.1-.02c.46.4.61.95.45 1.57 0 .03-.04.05-.07.05zm3-3.1l-.04-.01c-.44-.38-.66-.4-1.23-.5l-.09-.02c-.04 0-.07-.05-.06-.09s.04-.07.09-.06l.08.01c.6.1.84.13 1.31.53.03.04.04.08 0 .12a.1.1 0 0 1-.06.02zm.73 2.92c-.02 0-.03 0-.04-.02a4.83 4.83 0 0 0-1-.4l-.23-.07a.08.08 0 0 1-.05-.1c.01-.05.06-.07.1-.06l.25.09c.42.14.8.26 1.02.41.04.03.05.08.02.12-.02.01-.04.03-.07.03zm-3.2-2.06h-.03c-.04-.02-.06-.07-.04-.1.06-.15.38-.36.48-.36.05-.01.08.02.09.07 0 .04-.02.08-.07.09a.97.97 0 0 0-.36.26.08.08 0 0 1-.07.04zM15.3 6.5c-.03 0-.07-.02-.07-.05-.03-.04-.02-.09.02-.1.07-.06.1-.1.11-.19 0-.04.04-.08.08-.08.05 0 .09.04.09.08-.01.17-.1.25-.19.31-.02.02-.03.02-.05.02zm-.35-.09c-.02 0-.05-.01-.06-.04-.03-.04-.02-.09.02-.11.07-.04.18-.11.18-.2 0-.05.04-.08.08-.08.05 0 .08.04.08.08 0 .18-.17.28-.25.33-.02.02-.03.02-.05.02zm2.27 2.91c-.03 0-.04 0-.06-.02l-.04-.04c-.16-.16-.32-.33-.48-.4-.04-.02-.05-.07-.04-.1s.07-.06.11-.05c.18.08.35.27.52.44l.04.04c.04.03.04.08 0 .1a.07.07 0 0 1-.05.03zm-.65 1.04c-.03 0-.05-.01-.07-.04-.15-.31-.3-.55-.47-.69a.09.09 0 0 1 0-.11.09.09 0 0 1 .1-.01c.18.15.35.41.51.74.02.04 0 .09-.04.1l-.03.01zM12.7 7.57c-.03 0-.05-.02-.07-.05a.95.95 0 0 1-.03-.65c.01-.09.04-.17.04-.26 0-.05.03-.08.08-.08s.08.04.08.08c0 .1-.02.2-.04.3a.78.78 0 0 0 .02.54c.02.04 0 .1-.04.1-.01.02-.02.02-.04.02zm4.53 6.08c-.04 0-.08-.03-.08-.07v-.55c0-.37 0-.75-.1-.94-.02-.04 0-.1.04-.1.04-.03.09-.02.1.02.12.24.12.62.12 1.03v.54c.01.03-.02.07-.08.07.01 0 .01 0 0 0zm-.42-.43c-.04 0-.08-.03-.08-.07l-.01-.3c-.01-.23-.01-.29-.12-.5-.03-.04-.01-.1.03-.11.04-.02.09 0 .1.03.13.25.14.33.15.57l.01.3c0 .04-.03.08-.08.08zm-.38.4c-.04 0-.08-.03-.08-.07l-.01-.23c-.03-.38-.03-.63-.16-.88-.03-.04-.01-.09.03-.1.04-.03.09-.01.1.03.15.28.17.55.19.94l.01.23c0 .04-.03.08-.08.08.01 0 0 0 0 0zm-.41-.14c-.04 0-.09-.03-.09-.07V13c.01-.15.01-.2-.08-.38-.02-.04 0-.1.04-.1.04-.03.08-.02.1.02a.7.7 0 0 1 .1.46v.39c.01.04-.03.08-.07.08zm-.42.22c-.04 0-.08-.03-.08-.07-.02-.22 0-.34 0-.43.02-.12.02-.16-.06-.33-.02-.04 0-.09.03-.1.04-.03.1-.01.1.03.11.2.11.28.09.42-.01.08-.03.19-.01.4.02.04-.02.08-.07.08zm-3.76-.16c-.04 0-.08-.03-.08-.08s.03-.08.08-.08l1.02-.04c.04 0 .09.03.09.08s-.04.08-.09.08l-1.02.04zm.28-1c-.04 0-.09-.03-.09-.08s.04-.08.09-.08l.86-.03c.04 0 .08.04.08.08s-.03.09-.08.09l-.87.02zm2.18 1.71a.08.08 0 0 1-.06-.1c.03-.2.08-.46.32-.68.03-.03.08-.02.11.01s.02.08 0 .11a.93.93 0 0 0-.28.6.09.09 0 0 1-.08.06zm.39.1h-.01c-.04-.01-.07-.05-.07-.1.04-.21.1-.46.33-.68.03-.03.08-.02.1 0s.03.09 0 .12a.93.93 0 0 0-.27.59.09.09 0 0 1-.08.06zm.46.1h-.01c-.04 0-.07-.05-.07-.09.04-.22.1-.47.33-.69.03-.03.08-.02.1.01s.03.08 0 .12a.93.93 0 0 0-.27.58c-.01.04-.04.07-.08.07zm1.55.8h-.01c-.04-.01-.08-.05-.07-.1.02-.12-.2-.44-.37-.61-.03-.04-.02-.08 0-.12s.09-.02.12.01c.07.08.44.5.41.75-.01.03-.05.07-.09.07zm1.57-.48c-.03 0-.06-.01-.07-.05-.06-.13-.37-.32-.56-.4-.04-.02-.06-.06-.04-.1s.06-.06.1-.04c.06.02.55.24.65.49.02.04 0 .09-.04.1h-.04zm-4.02.7c-.05 0-.08-.04-.07-.09.03-.23.18-.56.2-.57 0-.04.06-.05.1-.04s.05.07.04.1c0 0-.16.33-.19.54 0 .04-.05.06-.08.06zm-.55-2.65h-.01c-.04 0-.08-.05-.07-.09.04-.26.6-.37.72-.4.04 0 .09.03.09.07 0 .04-.02.09-.06.09-.24.04-.57.14-.58.26-.02.04-.05.07-.1.07z"/><path fill="#000" d="M13.55 12.6c-.05-.01-.08-.05-.07-.1.04-.26.57-.36.68-.37.04-.01.08.02.08.06.01.04-.02.09-.06.09-.21.03-.52.13-.54.24 0 .05-.05.08-.09.08zm-.15-.3c-.04 0-.08-.04-.07-.08.04-.27.6-.4.7-.42.04-.01.09.01.1.06 0 .04-.02.09-.07.1-.22.05-.56.17-.57.28a.09.09 0 0 1-.08.06zm-.44-3.92c-.02 0-.04 0-.06-.02a.08.08 0 0 1 0-.12c.14-.13.47-.09.54-.08.04.01.07.05.06.1 0 .04-.05.07-.1.06-.12-.02-.33-.02-.38.04a.07.07 0 0 1-.06.02zm.47-4.34c-.02 0-.06-.01-.06-.04-.03-.04-.02-.09.02-.11l.04-.02v-.02h.16c0 .09 0 .15-.1.16h-.02c0 .03-.03.03-.04.03zM12.87 4c-.02 0-.05-.02-.06-.04-.03-.04-.02-.1.02-.12a.09.09 0 0 1 .06-.02V3.8c0-.05.04-.08.08-.08.05 0 .08.04.08.08 0 .08 0 .16-.1.16l-.03.01c-.01.02-.03.02-.05.02zm-.25.43c-.02 0-.04 0-.05-.02-.04-.02-.05-.07-.03-.1l.02-.05c0-.05.02-.09.1-.14.04-.02.1 0 .12.03.02.04 0 .09-.03.11-.03.02-.03.02-.03.04s-.01.06-.04.1l-.06.03zm-.76.57c-.03 0-.06-.01-.07-.04-.02-.04-.01-.09.03-.11.02-.02.05-.02.07-.03V4.8c0-.05.04-.08.08-.08.05 0 .08.04.08.08 0 .07 0 .15-.11.16l-.03.01c-.02.03-.04.03-.05.03zm1.17-.4h-.04a.08.08 0 0 1-.06-.06c-.03-.02-.05-.05-.05-.08 0-.11.18-.22.24-.24.17-.09.22-.05.24-.03.03.02.05.06.05.11-.02.11-.17.23-.2.25a.48.48 0 0 1-.18.06zm.13-.23a.38.38 0 0 0-.08.06l.08-.06zm-1.37 1.12l3.07-1.56.07.15-3.07 1.55-.07-.14zM8.97 8.2a.1.1 0 0 1-.07-.05.74.74 0 0 1-.06-.1.5.5 0 0 0-.22-.27c-.04-.03-.04-.08-.02-.12s.07-.05.11-.02c.18.11.23.23.28.34l.05.1c.02.03 0 .08-.04.1 0 0-.01.02-.03.02zm-.37.05c-.03 0-.06-.03-.07-.06a.83.83 0 0 0-.2-.21.09.09 0 0 1 0-.12.09.09 0 0 1 .11 0c.25.23.24.3.24.32 0 .04-.03.07-.07.07zm-.07-.1zm0 0zm0 0zm0 0zm.43 1.21h-.01a.07.07 0 0 1-.07-.09c.01-.03-.06-.13-.14-.19-.03-.03-.04-.08-.01-.11s.08-.04.11-.01c.06.05.23.2.2.35 0 .03-.04.05-.08.05zm-.31.08a.1.1 0 0 1-.07-.04c-.02-.03-.04-.05-.04-.08-.03-.05-.04-.07-.18-.16-.04-.02-.05-.07-.02-.11s.07-.05.1-.02c.18.1.2.14.24.22l.04.07c.03.04.01.1-.03.12h-.04zm.88-.28a.1.1 0 0 1-.08-.04.4.4 0 0 1-.04-.1c-.04-.07-.05-.12-.18-.2-.04-.02-.05-.07-.03-.1s.08-.06.12-.03c.16.1.2.17.24.26 0 .03.02.06.04.08.02.04 0 .1-.03.12l-.04.01zM8.46 6.33c-.1 0-.19-.02-.28-.04a.09.09 0 0 1-.05-.1.09.09 0 0 1 .1-.06c.16.05.27.07.4 0 .04-.03.08-.01.1.02.03.04.02.09-.02.11a.45.45 0 0 1-.25.07zm0 .27a.39.39 0 0 1-.15-.03.11.11 0 0 0-.05-.02.09.09 0 0 1-.05-.1.09.09 0 0 1 .1-.05l.06.02c.05.03.09.04.17 0 .04-.02.1 0 .1.03s0 .1-.03.1a.36.36 0 0 1-.15.05zm1.72 3.34c-.02 0-.05 0-.06-.03-.04-.03-.03-.09 0-.11l.23-.19c.03-.03.09-.02.11.01.03.03.03.1 0 .12l-.23.18c-.02.02-.03.02-.05.02zm.22.28a.1.1 0 0 1-.07-.03c-.03-.04-.02-.1.01-.12l.23-.18c.03-.03.09-.03.11 0s.02.1 0 .12l-.23.18-.05.03zm.17.17c-.03 0-.05-.01-.07-.04-.03-.03-.02-.08.01-.1l.23-.2c.03-.03.09-.02.11.01.03.04.02.1 0 .12l-.23.18c-.01.03-.03.03-.05.03zm.23.25c-.02 0-.04 0-.06-.03-.03-.03-.02-.09.01-.11l.23-.18c.03-.04.09-.03.11 0 .03.03.03.1 0 .12l-.23.18c-.01.02-.03.02-.05.02zm.25.3c-.02 0-.05 0-.06-.03-.04-.03-.03-.09 0-.11l.23-.19c.03-.03.09-.02.11.01.04.03.03.09 0 .11l-.23.19c0 .01-.02.02-.05.02zm.25.25c-.03 0-.06-.01-.07-.04-.03-.03-.03-.09 0-.11l.23-.18c.03-.04.1-.03.12 0 .03.04.02.1-.01.12l-.23.18c0 .02-.02.02-.05.02zm.23.22c-.03 0-.05 0-.07-.03-.03-.03-.02-.09.01-.11l.23-.19c.03-.03.09-.02.1 0 .04.04.03.1 0 .12l-.23.19c-.01.02-.03.02-.04.02zm.22.24c-.02 0-.05 0-.06-.03-.03-.03-.03-.09 0-.11l.23-.19c.03-.03.1-.02.12.01.03.03.02.09-.01.11l-.23.19c0 .02-.02.02-.05.02z"/><path fill="#dc281e" d="M7.2 9.61c.57.45.82.16 1.11 0 0-.33-.13-.4-.24-.48-.12.17-.37.44-.86.48z"/><path fill="#000" d="M7.74 9.98c-.17 0-.37-.07-.61-.27-.04-.03-.06-.08-.04-.13s.05-.08.1-.09c.43-.04.65-.26.78-.43a.13.13 0 0 1 .17-.03l.02.02c.11.08.25.18.27.56 0 .04-.02.08-.06.1l-.13.08a.89.89 0 0 1-.5.19zm-.23-.3c.26.12.41.02.6-.1l.07-.03c0-.13-.05-.2-.1-.24-.1.11-.28.27-.57.37z"/><path fill="#dc281e" d="M6.18 8.55c.03-.57.47-.84.87-1.07.19.31.25.58.17.8-.42-.11-.71.12-1.04.27z"/><path fill="#000" d="M6.18 8.67c-.02 0-.05 0-.07-.02-.03-.03-.06-.07-.05-.1.03-.67.56-.96.94-1.17a.12.12 0 0 1 .16.04c.21.36.27.65.17.9-.02.06-.08.1-.13.08-.3-.08-.5.04-.75.16l-.21.1-.06.01zm.83-1.02c-.32.18-.58.37-.67.68.22-.11.47-.24.79-.2.02-.13-.02-.29-.12-.48z"/><path fill="#dc281e" d="M8 4.8c.57.09.8.55.99.97-.33.16-.6.2-.8.1.13-.42-.07-.72-.19-1.06z"/><path fill="#000" d="M8.44 6.04a.68.68 0 0 1-.31-.07c-.06-.03-.09-.09-.06-.15.1-.28 0-.5-.1-.75l-.08-.22a.1.1 0 0 1 .03-.11c.02-.04.06-.05.1-.05.66.1.9.64 1.08 1.04.02.05 0 .13-.06.16-.23.1-.43.15-.6.15zm-.11-.25c.13.03.3 0 .5-.08-.16-.33-.33-.6-.63-.72.1.23.19.49.13.8z"/><path fill="#dc281e" d="M5.72 5.92c.5-.29.96-.06 1.37.15-.16.33-.34.53-.58.58-.14-.42-.49-.54-.79-.73z"/><path fill="#000" d="M6.51 6.76a.12.12 0 0 1-.11-.08c-.1-.28-.3-.4-.55-.54l-.2-.12c-.03-.03-.06-.07-.06-.1s.03-.09.07-.11c.57-.33 1.1-.06 1.48.14.06.03.08.1.06.16-.18.38-.4.6-.66.64H6.5zM6 5.94c.22.13.46.26.6.55a.85.85 0 0 0 .33-.37c-.32-.16-.62-.27-.93-.18zm18.28-.44l-.05-.01c-.03-.04-.04-.09 0-.12l.3-.37c.03-.03.08-.04.11 0s.04.07 0 .1l-.3.38a.1.1 0 0 1-.06.02zm-.64-.1h-.03c-.04-.02-.06-.07-.04-.1l.3-.62c.02-.04.07-.06.11-.04s.06.06.04.1l-.3.62c-.02.03-.05.05-.08.05zm-.8.18a.1.1 0 0 1-.08-.09l.1-.79a.1.1 0 0 1 .09-.07.1.1 0 0 1 .07.09l-.1.79c0 .04-.04.07-.08.07zm.1 1.42l-.03-.01c-.04-.02-.07-.07-.04-.11l.2-.5c.02-.04.07-.06.11-.04s.07.06.04.1l-.2.5c-.02.03-.05.05-.08.05zm.19.26a.09.09 0 0 1-.08-.04c-.02-.04 0-.09.03-.11s.13-.13.27-.54a.08.08 0 0 1 .1-.04c.05.01.07.05.05.1-.12.37-.22.56-.34.62l-.04.01zm.51-.99l-.05-.02c-.03-.03-.04-.08 0-.11l.3-.37c.03-.03.08-.04.11-.01s.04.08.01.11l-.3.37a.1.1 0 0 1-.07.03zm-3.42-.53a.1.1 0 0 1-.08-.04l-.26-.45a.09.09 0 0 1 .02-.11c.04-.02.09 0 .11.02l.27.45c.02.04 0 .09-.02.11a.14.14 0 0 1-.04.02zm.48-.25c-.02 0-.05-.02-.07-.05l-.19-.39c-.02-.04 0-.09.04-.1s.09 0 .1.04l.2.38c.01.04 0 .1-.04.1 0 .02-.02.02-.03.02zm.58 2.36c-.02 0-.05-.01-.06-.03l-.44-.58c-.02-.04-.01-.1.02-.12s.09-.01.11.02l.43.58c.03.03.02.09-.01.11a.11.11 0 0 1-.05.02zm-.68-.88c-.03 0-.05 0-.07-.03l-.25-.33c-.02-.04-.02-.1.02-.12s.08-.01.1.02l.26.33c.02.03.01.09-.02.11-.01.02-.03.02-.04.02zM24.42 6h-.05c-.03-.04-.04-.09 0-.12l.3-.37c.04-.03.08-.04.12 0s.04.07 0 .1l-.3.38-.07.02zm-10.8.68c0 .06-.07.11-.16.11s-.16-.05-.16-.11.07-.11.16-.11.16.04.16.1z"/><path fill="#f4f0e8" d="M12.78 9.22c-.05.13.1.17.18.3.18-.14.12-.26.15-.35-.12-.02-.22-.05-.33.05z"/><path fill="#000" d="M12.95 9.58l-.02-.04a.24.24 0 0 0-.1-.1c-.06-.06-.13-.13-.09-.24l.01-.02c.12-.11.24-.08.37-.05h.05l-.02.04v.08c-.01.07-.02.17-.16.29l-.04.04zm-.13-.34c-.02.05 0 .08.07.13l.08.08a.25.25 0 0 0 .09-.2V9.2c-.1-.02-.17-.02-.24.04z"/><path fill="#f4f0e8" d="M13.12 9.19c-.05.13.08.15.16.23.17-.14.1-.2.13-.29-.13-.02-.2-.04-.29.06z"/><path fill="#000" d="M13.27 9.47l-.03-.02-.06-.05c-.06-.04-.14-.1-.1-.23l.01-.01c.12-.12.2-.1.32-.07l.05.01-.02.04v.06c0 .08-.01.15-.14.25l-.03.02zm-.12-.26c-.02.06 0 .08.07.12l.05.03c.08-.08.08-.12.08-.16v-.04c-.08-.01-.12-.01-.2.05z"/><path fill="#f4f0e8" d="M13.45 9.12c-.06.13.04.07.12.2.17-.14.13-.17.16-.26-.12-.03-.18-.04-.29.06z"/><path fill="#000" d="M13.56 9.37l-.03-.04a.38.38 0 0 0-.08-.08c-.04-.03-.09-.06-.04-.16l.01-.01c.12-.12.2-.1.32-.07l.05.01-.01.04-.02.05c0 .06-.03.12-.16.22l-.04.04zm-.08-.23l-.01.04s.02 0 .02.02c.03.01.06.03.08.06.1-.07.1-.1.1-.14v-.03c-.08-.02-.12-.02-.2.05z"/><path fill="#f4f0e8" d="M13.4 10.23c-.06-.13-.1-.24-.01-.36.24.05.24.21.27.3-.13.03-.16.15-.26.06z"/><path fill="#000" d="M13.47 10.3c-.03 0-.07 0-.1-.05v-.01c-.05-.12-.11-.25-.01-.4l.01-.03h.03c.22.06.26.2.29.3l.01.04.02.04h-.05l-.1.05c-.03.04-.06.06-.1.06zm-.04-.1c.03.04.05.03.1 0l.09-.05c-.03-.09-.05-.19-.2-.23-.06.08-.04.17.01.29z"/><path fill="#f4f0e8" d="M13.68 10.12c-.06-.12 0-.1.07-.24.24.06.16.16.2.24-.13.03-.17.1-.27 0z"/><path fill="#000" d="M13.78 10.21a.18.18 0 0 1-.13-.05l-.01-.02c-.05-.1-.03-.14.02-.2l.06-.07.01-.03.03.01c.2.05.2.12.2.21 0 .02 0 .04.02.06l.01.04h-.05a1.55 1.55 0 0 0-.17.05zm-.07-.11c.05.04.07.04.13.02l.06-.03v-.04c0-.05 0-.09-.13-.12a.35.35 0 0 1-.04.06c-.04.04-.04.04-.02.11z"/><path fill="#f4f0e8" d="M14 10.12c-.06-.13 0-.12.07-.25.25.05.1.17.14.25-.13.03-.1.1-.2 0z"/><path fill="#000" d="M14.08 10.2c-.03 0-.05-.01-.11-.06v-.02c-.06-.1-.03-.14.02-.21l.05-.08.02-.02h.02c.19.06.19.14.17.23v.1h-.04l-.08.03c0 .03-.03.03-.05.03zm-.05-.1c.04.03.05.03.08.02l.05-.03.01-.06c.02-.06.02-.1-.08-.11l-.04.05c-.03.05-.04.06-.02.12z"/><path fill="#f4f0e8" d="M15 29.52a4.6 4.6 0 0 1 2.28 1c-.68.45-1.3.72-1.9 1.03-.52-.26-1.43-.83-2.29-1.36.58-.24.98-.65 1.92-.66z"/><path fill="#000" d="M15.37 31.66l-.05-.01c-.4-.2-1.04-.58-1.69-1l-.61-.37c-.04-.03-.07-.07-.06-.12s.03-.09.07-.1c.17-.07.31-.15.47-.23.4-.2.8-.43 1.5-.44h.02c.75.06 1.5.39 2.33 1.02.04.03.05.07.05.1 0 .04-.02.07-.05.1-.55.35-1.05.6-1.53.83l-.4.19c0 .03-.03.03-.05.03zm-2.03-1.46c.14.1.28.17.42.26.63.39 1.22.75 1.61.95l.34-.17c.43-.2.88-.42 1.35-.72a4.1 4.1 0 0 0-2.06-.87c-.64.01-1.02.21-1.39.42l-.27.13z"/></svg>