<svg version="1.1" xmlns="http://www.w3.org/2000/svg" viewBox="0 0 22 32"><path fill="#fff" d="M21.96 10.31H11.15c.37 8.2 3.25 12.77 6.68 16.54 2.86-3.9 4.87-8.11 4.13-16.54z"/><path fill="#fff" d="M.34 10.32h10.82c-.38 8.19-3.27 12.73-6.7 16.5C1.6 22.96-.39 18.75.34 10.33z"/><path fill="#da121a" d="M11.11 10.34c-.16 7.06-2.43 12.06-6.65 16.49 1.91 2.23 4 3.7 6.86 4.98a19.9 19.9 0 0 0 6.54-4.98c-4.2-4.52-6.4-9.43-6.75-16.5z"/><path fill="#da121a" d="M16.04 19.93c-.46.1-.98.32-1.13.58-.12.45.09.74.56.87.24.02.5.1.62-.23-.23-.02-.33-.25-.27-.53.02-.43 1-.17 1.4-.26"/><path fill="#000" d="M12.8 13.43c-.07-.3.62-.57.9-1.4a2.24 2.24 0 0 1 1.63-.9c.33 0 .61-.19.9-.2.47-.1 1.24.03 1.57.34.33.32.45.62.43 1.34a1.89 1.89 0 0 1-1 1.73s-2.68 1.2-2.64 1.84c.05.7.26.68.26.68.06-.81.77-1.21 1.4-1.48a3.32 3.32 0 0 1 2.14 0c.7.23 1.7 1.15 1.77 2.23.07.63.03 1.17-.2 1.54l.77-.12c-.21.46-.7.54-1.1.73.17.13.41.23.8.23-.26.5-.66.4-1 .55a3.82 3.82 0 0 1-2.4-.25c-.05-.2-.46-.07-.7-.16l-.61-.23c-.73 0-1.05-.34-1.58-.68-.76-.4-1.05-1.25-1.03-2.2 0-.8.5-1.82 1.78-2.3 1.4-.53 2.62-1.25 2.68-1.99-.1-.9-.61-1.06-1.18-1.12-.26-.04-.47.15-.69.32-.11.23-.16.45-.47.73-.36.13-.74.34-1.07.27-.45.17-1.23.64-1.36.5z"/><path fill="#9d5333" d="M5.41 17.94v2.65a8.42 8.42 0 0 0-3.26 1.12c.02.24.3.15.52.15l.04.93c.27.14.23-.61.34-.93.46-.47 1.04-.63 1.62-.8l-1.1 1.12c-.3.4-.36.98-.4 1.56.14.48.3.87.47 1-.1-.79-.04-1.44.16-1.93.33.52.2 1.72.3 2.6.23-.03.35-.36.4-.9-.06-.85-.35-1.54-.13-2.56.34-.5.69-.75 1.05-.77.03.66 0 1.18-.05 1.59-.28.06-.48.27-.64.54.2 1.43.25 2 .07 2.41.27-.27.6-.5.7-.88l.17-1.06.35.57c.16-.75-.1-.94-.33-1.54 0-.42.12-.65.25-.86.46.01.28 1.16.3 1.6.19-.14.3-.44.36-.88l.22.98.16-.82-.3-.9c.28.28.4.62.55.97l.3-.46c-.34-.3-.3-.54-.46-.81l.7.22c.53-.49.1-.34-.42-.43.24-.13.46 0 .59-.33-.35-.1-.67-.22-1.14-.15l.05-3.79-.42-.84L6 17.43c-.11.3-.42-.94-.4-.77l-.45.11-.13.52c.23.37.34.31.4.65z"/><path fill="#078930" d="M2.69 17.28c-.2-.15-.22-.05-.31.21-.06.15-.32-.08-.36.24 0 .07.2-.02.17.05-.05.11-.25-.02-.31.09-.07.13.07.1.14.2.06.08-.16.12-.14.23.04.16.18-.1.26.08.03.07-.15.07-.1.2.05.1.12 0 .19.02.1.03-.1.22.05.24.17.03.1-.27.2-.28.1 0 .2.1.27 0 .08-.13-.2-.16-.16-.25.05-.12.3.18.2-.2 0-.08-.1-.12-.1-.2 0-.16.13.06.2-.02.02-.03-.14-.2-.1-.3.05-.11.21.1.2 0-.04-.2-.04-.45.1-.57.06-.04.05.15.06.25 0 .15.12 0 .16.04.09.08 0 .14-.05.18-.23.18 0 .1.08.21.07.1-.19.2-.07.3.1.09.1-.05.18-.04.07.02.03.08.02.23-.02.22.2.1.27.08.1-.04-.1-.25.07-.3.1-.04.1.05.16 0 .05-.03-.03-.13-.01-.2.02-.1.13-.01.1-.16-.03-.18-.17-.04-.24-.2-.04-.08.11-.11.05-.2-.1-.13-.21.06-.26-.02-.1-.17-.07-.24-.2-.21-.1.02-.17-.06-.2-.16-.04-.1-.03-.16-.26.05-.16.14-.17.49-.26.41z"/><path fill="#000" d="M3.23 17c.17.08.2.16.34.46.04.23.17.47.1.69a2.85 2.85 0 0 0-.15-.55c.02-.09-.1-.4-.3-.6zm-.43.4c-.19.07-.23.15-.37.44-.05.23-.2.47-.14.68.03-.15.07-.27.17-.54 0-.09.13-.4.33-.58z"/><path fill="#078930" d="M2.02 17.22c-.16 0-.14-.21-.28-.15-.1.03 0 .1-.05.14-.1.07-.25-.14-.33-.07-.11.1.18.21.11.31-.06.1-.23-.11-.3-.06-.07.04 0 .05 0 .17 0 .13-.26.14-.2.26.08.13.25-.1.34-.05.12.07-.08.26.07.24.21-.04.12-.23.24-.2.12.04-.05.2.1.22.11 0 .05-.18.15-.24.08-.05.06.13.14.11.12-.02.06-.27.1-.31.06-.06.16.07.2-.07.03-.1.06-.31.15-.39.07-.07.01-.17-.04-.16-.65 0-.22.25-.4.25z"/><path fill="#078930" d="M2.68 16.73c-.02-.19-.15.03-.18-.04-.08-.14.13-.22.02-.32-.07-.07-.09.05-.15.01-.1-.06.03-.28-.08-.33-.12-.06-.1.26-.23.24-.11-.03 0-.26-.08-.31-.06-.04-.04.03-.14.08-.12.05-.24-.18-.32-.07-.09.12.2.18.19.29-.02.13-.28.03-.2.15.13.18.26.02.28.14.02.12-.2.05-.15.18.04.1.18-.02.28.04.08.05-.1.1-.05.18.08.1.27-.06.33-.04.08.03 0 .17.15.15.1-.01.3-.07.41-.03.1.04.16-.05.13-.1-.05-.1-.2-.1-.2-.22zm1.87.3c.07-.15-.15-.21-.04-.32.06-.08.09.04.14 0 .1-.07-.04-.28.06-.33.12-.07.13.25.25.21.1-.03-.03-.25.05-.3.06-.05.05.02.15.06.13.05.26-.2.34-.09.1.12-.21.19-.19.3.03.13.28 0 .2.14-.1.19-.25.03-.26.16 0 .12.2.03.16.16-.03.12-.18 0-.27.06-.07.06.1.1.06.18-.07.1-.28-.05-.34-.02-.07.04.02.18-.13.17-.1-.01-.42.07-.42 0 0-.65.2-.29.24-.38z"/><path fill="#078930" d="M4.28 16.95c-.03-.15-.15.02-.19-.04-.07-.15.14-.23.03-.33-.08-.07-.1.05-.15.02-.11-.07.02-.29-.08-.33-.13-.06-.12.26-.24.23-.1-.02 0-.25-.07-.3-.07-.04-.05.03-.15.07-.12.06-.24-.18-.32-.06-.08.12.2.18.19.28-.01.14-.28.03-.2.16.13.18.27.01.28.14.02.12-.2.04-.15.18.05.1.19-.03.28.04.08.05-.1.1-.04.17.08.1.27-.06.33-.04.08.03 0 .18.14.15.11-.01.32-.07.42-.03.1.04.16-.05.13-.1-.05-.1-.2-.13-.21-.21zm3.23-.4c-.11.19-.23.09-.3.21-.1.14-.3.1-.32.21 0 .08.16.01.13.09-.05.1-.26.02-.31.12-.07.13.04.07.1.17.06.08-.13.11-.1.22.03.16.17-.1.25.08.04.07-.15.07-.1.2.06.1.13 0 .2.03.1.03-.1.2.04.23.18.03.11-.27.2-.27.1-.01.2.08.27-.01.08-.13-.2-.16-.15-.25.05-.12.3.18.2-.2-.01-.08-.1-.12-.1-.2 0-.16.12.06.2-.02.02-.03-.15-.2-.1-.3.04-.11.12.09.19 0 .04-.04-.14-.24.1-.61.06.06.06.19.06.3 0 .14.13 0 .17.03.08.09 0 .14-.05.18-.23.19 0 .1.07.22.07.1-.18.2-.07.3.1.08.1-.06.18-.04.08.01.04.07.03.22-.02.22.2.11.26.09.1-.04-.09-.26.07-.31.11-.04.1.05.16.01s-.02-.14 0-.21c.02-.1.12-.01.1-.16-.03-.18-.18-.04-.25-.2-.04-.08.12-.11.05-.2-.09-.12-.2.06-.26-.02-.1-.17-.06-.24-.2-.21-.1.03-.16-.06-.2-.16l-.26.05z"/><path fill="#000" d="M8.05 16.27c.18.08.21.17.34.46.04.23.17.48.11.7a2.85 2.85 0 0 0-.15-.56c.02-.09-.1-.4-.3-.6zm-.43.4c-.18.07-.22.15-.37.44-.05.23-.19.47-.14.69.04-.16.07-.28.18-.54-.01-.1.12-.4.33-.59z"/><path fill="#078930" d="M8.74 14.35c-.15-.15-.32-.3-.14-.35.16-.04-.2-.3-.15-.4.03-.06.15.13.17.05.02-.11-.22-.12-.2-.24 0-.15.1-.04.21-.08.1-.04-.06-.2.02-.27.12-.12.1.17.26.08.07-.05-.08-.15.03-.22.1-.07.11.06.17.08.11.04.04-.23.18-.17.16.07-.06.29 0 .34.08.06.22.05.22.16 0 .15-.25.03-.27.12-.02.12.35.02.06.28-.05.06-.15.04-.2.1-.08.14.14.03.15.14 0 .03-.22.07-.25.2-.02.1.24.01.16.1-.14.15-.28.35-.23.52.03.08.13-.09.19-.17.08-.12.1.07.15.06.12-.02.08-.11.06-.18-.08-.28.06-.09.19-.13.11-.04-.04-.27.11-.29.13-.01.05.1.12.14.08.03.11-.05.2-.16.1-.12.22-.01.22.07 0 .1-.18.13-.11.3.04.09.12-.1.14.07 0 .1-.1.1-.13.17-.04.1.1.08 0 .19-.14.13-.17-.07-.32.02-.08.05.03.16-.08.2-.14.05-.1-.17-.2-.16s-.2.21-.3.09c-.07-.08-.17-.04-.26.01-.08.05-.15-.1-.19-.18-.06-.15.11-.4.02-.5z"/><path fill="#000" d="M9.03 14.89c.19.03.26-.02.54-.19.16-.16.4-.3.48-.5-.11.11-.2.2-.44.36-.03.09-.31.28-.58.33zm-.13-.57c-.11-.17-.1-.25-.05-.58.08-.21.1-.49.27-.64-.06.15-.1.27-.16.55-.06.07-.13.4-.06.67z"/><path fill="#078930" d="M7.08 12.14c-.45-.09-.12-.27-.31-.28-.16 0-.35-.05-.36-.16 0-.07.2.02.17-.06-.04-.1-.25.03-.3-.08-.08-.13.07-.1.13-.2.06-.08-.16-.12-.14-.23.04-.16.18.1.26-.08.04-.07-.15-.07-.1-.2.05-.11.13 0 .2-.03.1-.03-.1-.2.04-.24.17-.03.11.28.2.28.1.01.2-.09.27.01.08.13-.18.16-.16.25.05.2.26-.1.21.2-.01.1-.14.03-.1.2.03.15.12-.06.2.02.02.03-.15.19-.1.3.04.11.2-.11.19 0-.04.2-.04.45.1.56.07.05.06-.14.06-.24 0-.15.13 0 .16-.04.09-.09 0-.14-.05-.18-.23-.19 0-.11.08-.22.07-.1-.19-.2-.07-.3.1-.08.1.06.18.04.07-.01.07-.08.06-.22-.01-.14.16-.11.23-.09.1.04-.09.26.07.31.11.04.1-.05.16-.01.05.04-.03.14 0 .21.02.1.12.01.1.16-.03.18-.18.04-.25.19-.04.09.12.12.05.21-.1.12-.21-.06-.26.02-.1.17-.07.24-.2.2-.1-.02-.16.07-.2.17-.04.08-.19 0-.26-.05-.13-.1-.14-.39-.26-.42z"/><path fill="#000" d="M7.62 12.43c.18-.08.2-.17.34-.46.04-.23.17-.48.1-.69-.02.15-.05.28-.14.55.01.09-.1.4-.3.6zm-.44-.4c-.18-.07-.21-.15-.36-.44-.05-.23-.2-.47-.14-.69.03.16.07.28.18.54-.02.1.12.4.32.59z"/><path fill="#078930" d="M4.19 12.01c-.25.03-.57-.1-.33-.15.08-.02.07-.14-.03-.16-.1 0-.24.01-.26-.07-.02-.07.19-.02.15-.09-.04-.1-.25.02-.3-.07-.08-.12.07-.1.13-.17.06-.08-.16-.12-.13-.21.03-.14.17.08.25-.07.04-.07-.15-.07-.1-.18.06-.1.13 0 .2-.02.1-.03-.1-.2.04-.22.17-.02.11.25.2.25.1 0 .2-.08.27 0 .08.12-.2.15-.16.23.05.1.3-.16.21.18-.02.07-.1.1-.1.18 0 .13.12-.06.2.01.02.03-.15.17-.1.27.04.1.2-.1.19 0-.04.19-.03.4.1.5.07.04.06-.13.06-.22 0-.13.13 0 .17-.03.08-.08 0-.13-.06-.16-.22-.17 0-.1.08-.2.07-.08-.18-.17-.07-.26.1-.08.13.09.18.04.13-.13-.03-.4.29-.28.1.04-.09.23.07.27.11.04.08-.13.16 0 .07.1-.03.11 0 .18.02.09.12.01.1.14-.03.17-.18.03-.25.17-.04.07.12.1.05.19-.1.1-.2-.06-.26.02-.09.14-.06.2-.2.18-.1-.02-.16.05-.2.14-.04.07-.18 0-.26-.04-.13-.08-.17-.36-.3-.35z"/><path fill="#000" d="M4.76 12.22c.18-.08.2-.17.34-.46.04-.23.12-.31.06-.53-.03.15 0 .12-.1.39.01.09-.1.4-.3.6zm-.43-.4c-.19-.07-.22-.15-.37-.44-.05-.23-.2-.32-.14-.54.03.15.07.13.18.4-.02.09.12.4.32.58z"/><path fill="#078930" d="M3.74 12.23c-.04-.1-.16 0-.18-.07-.04-.16.18-.2.1-.32-.07-.08-.1.03-.16-.01-.1-.09.08-.28 0-.34-.12-.08-.17.23-.29.18-.1-.04.06-.25 0-.31-.06-.05-.05.02-.17.04-.12.03-.2-.22-.3-.13-.1.1.16.22.13.32-.04.13-.28-.03-.22.12.08.2.25.06.24.19 0 .12-.2 0-.18.14.02.12.19.01.27.1.06.06-.12.08-.08.16.05.11.27 0 .33.03.07.04-.04.17.1.17.12.01.33 0 .42.06.09.06.17-.02.15-.08-.03-.1-.13-.16-.16-.25z"/><path fill="#078930" d="M4.59 12.21c-.1 0-.07.14-.14.13-.16-.03-.1-.24-.25-.22-.1.02-.01.1-.08.13-.11.05-.21-.18-.31-.13-.12.07.14.25.05.33-.08.08-.2-.16-.3-.12-.06.03 0 .05-.01.16-.03.13-.3.1-.25.22.05.14.27-.06.34.02.1.09-.14.24.02.24.21.01.16-.2.27-.14.11.06-.08.2.06.23.11.03.09-.16.2-.2.08-.03.02.14.1.14.13 0 .12-.26.17-.29.08-.05.14.1.21-.02.05-.1.13-.3.22-.36.09-.05.05-.16 0-.17-.11-.02-.21.05-.3.05zm2.84.81c-.05-.09-.17 0-.17-.07-.07-.15.16-.19.08-.32-.07-.07-.1.03-.15-.01-.1-.09.07-.26 0-.34-.13-.07-.16.2-.29.18-.09-.06.06-.25 0-.32-.06-.05-.1-.04-.17.05-.12-.04-.18-.2-.3-.13-.08.12.17.22.13.32-.04.13-.22-.04-.22.12.14.16.27.06.24.19.01.12-.17 0-.18.14.05.1.18.02.27.1.06.06-.1.07-.08.16.07.1.27 0 .33.03.06.05-.04.17.1.17.12.02.33 0 .42.06.09.06.11-.03.15-.08-.08-.07-.15-.14-.16-.25z"/><path fill="#078930" d="M7.46 14.6c0-.1-.16-.09-.12-.15 0-.16.23-.09.22-.24-.03-.1-.1-.02-.13-.08-.04-.12.18-.2.15-.3-.08-.12-.23.1-.33.03-.05-.1.17-.2.13-.29-.02-.07-.05-.08-.16-.03-.09-.1-.07-.27-.2-.26-.14.07.04.27-.04.35-.1.1-.18-.14-.25 0 .05.21.21.18.13.28-.05.11-.16-.08-.23.04 0 .12.16.1.2.21.02.09-.13.02-.15.11.02.12.24.13.28.18.03.08-.12.13.01.2.1.06.3.14.35.24.05.1.11.02.17 0-.04-.1-.07-.2-.04-.3z"/><path fill="#078930" d="M6.24 13.93c.08-.06-.04-.15.02-.19.14-.1.24.11.33-.01.06-.08-.06-.08-.03-.15.05-.11.29 0 .32-.1.04-.14-.27-.1-.26-.22 0-.1.25-.02.3-.1.03-.07-.04-.04-.1-.14-.07-.11.16-.26.04-.33-.13-.07-.16.22-.27.22-.13 0-.06-.27-.17-.17-.17.14.01.26-.11.29-.12.02-.07-.2-.2-.14-.1.06.05.18 0 .28-.05.09-.12-.08-.18-.02-.1.08.09.26.07.32-.02.08-.17.02-.14.16.03.1.1.3.08.41-.03.1.06.15.11.12.1-.06.12-.18.2-.23zm1.38-.62c.08-.06-.02-.17.05-.18.14-.08.2.14.32.05.06-.08-.05-.1 0-.15.07-.1.26.03.33-.06.04-.13-.23-.13-.22-.25.05-.1.25.02.31-.06.04-.06.03-.09-.07-.15.03-.12.18-.2.1-.31-.14-.07-.2.2-.3.17-.14-.02 0-.22-.15-.2-.15.15-.03.27-.16.26-.12.03-.02-.17-.17-.16-.1.06.01.18-.05.28-.06.07-.1-.09-.18-.06-.09.09.04.27.02.33-.04.08-.18 0-.16.14 0 .1.06.31 0 .42-.04.09.05.1.1.13a.5.5 0 0 1 .23-.2zm1.52-.54c.08-.05-.03-.15.03-.18.15-.08.23.13.33.01.07-.07-.05-.08-.02-.14.06-.11.29.01.33-.09.05-.13-.26-.1-.24-.23.02-.11.26 0 .3-.08.04-.07-.02-.04-.07-.15-.06-.11.17-.24.06-.32-.13-.08-.18.2-.28.2-.14-.02-.04-.27-.17-.2-.15.1 0 .27-.13.29-.12.02-.05-.2-.18-.15-.1.04.03.18-.03.28-.06.08-.11-.1-.18-.04-.1.07.05.26.04.33 0 .19-.2-.07-.15.14.03.1.08.31.04.42-.03.1.06.15.1.13.1-.06.14-.17.22-.22zM5.45 12c.06-.07.14.05.19 0 .1-.14-.1-.25.02-.33.09-.06.08.06.15.04.12-.05.02-.29.13-.32.13-.03.07.28.2.27.1 0 .03-.25.12-.29.07-.03.03.04.13.1.1.08.27-.14.33-.02.06.14-.23.15-.24.26 0 .13.27.07.17.18-.15.16-.26-.03-.3.1-.03.11.2.07.12.2-.05.1-.17-.06-.28-.01-.08.04.08.12.02.18-.1.09-.26-.1-.32-.09-.09.02-.03.17-.17.13-.1-.04-.3-.13-.4-.1-.1.02-.15-.08-.12-.12.07-.1.18-.11.24-.18zm.29 1.74c0-.2-.15 0-.17-.07-.05-.16.17-.2.09-.32-.06-.08-.1.04-.15-.01-.1-.09.08-.28-.01-.34-.12-.08-.17.23-.28.18-.1-.04.06-.24-.01-.31-.06-.05-.05.02-.16.05-.13.03-.2-.23-.3-.14-.11.1.16.22.12.32-.04.13-.27-.02-.22.12.09.2.26.06.25.19-.01.12-.2 0-.18.14.01.12.18.02.26.1.06.06-.12.08-.08.16.05.11.28 0 .33.03.07.05-.04.17.11.18.1 0 .32-.01.42.05.08.06.16-.02.14-.07-.02-.11-.16-.17-.16-.26zm-1.07.48c-.04-.09-.16 0-.18-.07-.04-.16.18-.2.09-.31-.06-.09-.1.03-.15-.02-.1-.09.08-.28-.01-.34-.11-.08-.16.23-.28.19-.1-.05.06-.25-.01-.32-.05-.05-.05.02-.16.05-.13.03-.2-.23-.3-.14-.1.1.16.22.13.32-.04.14-.28-.02-.22.12.08.2.25.06.24.2 0 .11-.2 0-.18.13.02.12.18.02.26.1.07.07-.11.09-.08.16.06.12.28 0 .33.03.08.05-.03.17.11.18.11 0 .33-.01.42.05.09.06.16-.02.15-.07-.03-.11-.14-.17-.17-.25zm-2.56.12c-.03-.1-.15 0-.17-.08-.05-.15.17-.19.09-.31-.06-.08-.1.03-.15-.02-.1-.08.08-.27-.01-.34-.12-.08-.17.24-.28.19-.1-.04.06-.25-.02-.32-.05-.05-.04.02-.15.05-.13.03-.2-.23-.3-.13-.11.1.16.22.12.32-.04.13-.27-.03-.22.11.09.2.26.07.25.2-.01.12-.2 0-.19.14.02.11.19.01.27.1.06.06-.12.08-.08.16.05.1.28-.01.33.03.07.04-.04.17.1.17.12 0 .33 0 .43.06.08.05.16-.02.14-.08-.03-.1-.13-.17-.16-.25z"/><path fill="#078930" d="M3.1 15.43c.04-.24-.14-.01-.17-.08-.05-.15.18-.19.1-.31-.07-.08-.1.03-.16-.02-.1-.08.08-.27 0-.34-.12-.08-.17.24-.29.19-.1-.04.06-.25-.01-.32-.05-.05-.05.02-.16.05-.13.03-.23-.28-.32-.18-.11.1.18.26.15.37-.04.13-.31-.04-.25.1.08.2.28.08.27.2 0 .13-.2 0-.18.15.02.11.18.01.26.1.07.06-.11.08-.07.16.05.1.27-.01.33.02.07.05-.11.22.1.18.11-.02.33 0 .42.05.09.06.16-.02.15-.07-.03-.1-.18-.16-.17-.25z"/><path fill="#9d5333" d="M2.97 14.55c.56.15 1 .3 1.48.6l-.04.21c-.47-.23-.91-.5-1.48-.57z"/><path fill="#078930" d="M4.2 16c.02-.12-.15 0-.17-.07-.05-.15.17-.19.08-.31-.06-.08-.1.03-.15-.02-.09-.08.08-.27 0-.34-.12-.08-.17.24-.28.19-.1-.04.05-.25-.02-.32-.05-.05-.04.02-.16.05-.12.03-.2-.23-.3-.13-.1.1.17.22.13.32-.04.13-.28-.03-.22.11.09.2.25.07.25.2-.01.12-.21 0-.19.14.02.11.19.01.27.1.06.06-.12.08-.08.16.05.1.28-.01.33.03.07.04-.04.17.1.17.12 0 .33 0 .42.06.09.05.17-.02.15-.08-.03-.1-.18-.15-.16-.25zm5-.87c.08.06-.04.15.02.19.14.08.23-.12.33 0 .06.08-.06.08-.03.14.06.12.29 0 .33.1.05.13-.27.1-.25.22.01.11.25.01.3.1.03.06-.03.04-.09.14-.06.11.17.25.05.32-.13.08-.17-.21-.27-.2-.14 0-.05.27-.17.18-.17-.14 0-.26-.12-.29-.13-.02-.06.2-.19.14-.1-.05.04-.18-.02-.28-.05-.08-.12.09-.18.03-.1-.08.1-.29.06-.32-.3-.24 0-.28-.09-.57-.03-.1.01-.12.06-.14.07.1.16.18.25.24z"/><path fill="#da121a" d="M17.65 22.6c-.57.02-1.23-.03-1.1.4l.38-.14c-.15.32-.07.55-.01.78.13 0 .23-.23.33-.48.78-.13.55.39.8.6.35-.25-.32-1 .18-1.52.15-.78.12-.88-.05-1.63l-.58-.1c.2.71.43 1.5.05 2.09z"/><path fill="#078930" d="M8.59 12.05c.08-.06-.03-.15.03-.19.14-.08.23.13.33.02.06-.08-.06-.09-.02-.15.06-.1.28.02.33-.08.05-.13-.26-.11-.24-.23.02-.11.25 0 .3-.09.04-.06-.03-.04-.08-.14-.06-.12.18-.25.07-.32-.13-.08-.18.2-.29.2-.14-.02-.03-.28-.16-.2-.17.13 0 .27-.13.29-.12.01-.05-.2-.18-.15-.11.04.03.18-.04.27-.05.08-.1-.1-.18-.04-.1.08.07.27.05.33-.03.08-.17 0-.15.15.02.1.08.3.04.42-.04.1.05.15.1.12.1-.05.14-.16.21-.21zm-.63 2.05c.07-.06-.04-.16.03-.18.14-.1.22.12.33.02.06-.09-.05-.1-.02-.15.06-.11.27 0 .33-.09.04-.13-.23-.1-.24-.23.04-.1.26 0 .3-.08.04-.06.03-.1-.07-.14.01-.13.15-.23.06-.32-.14-.06-.18.2-.28.2-.14-.02-.01-.23-.16-.2-.14.17-.01.28-.14.28-.12.04-.04-.17-.18-.15-.1.07.03.18-.03.28-.06.08-.1-.08-.18-.04-.08.1.05.27.04.33-.04.08-.18 0-.15.14.02.11.08.32.04.42-.03.1.06.1.1.13.07-.1.12-.18.22-.22z"/><path fill="#078930" d="M8.44 14.52c-.07-.14.14-.2.03-.31-.07-.07-.1.03-.15 0-.11-.07.02-.3-.08-.34-.12-.06-.11.26-.24.24-.1-.03.01-.26-.07-.31-.06-.04-.04.02-.14.07-.12.06-.24-.18-.32-.07-.09.12.2.18.18.29-.02.14-.28.03-.2.15.13.18.27.02.28.15.02.12-.2.04-.15.17.04.11.18-.02.27.05.08.05-.1.1-.04.17.07.1.27-.06.33-.03.08.03 0 .17.14.15.1-.01.31-.07.42-.02a.1.1 0 0 0 .13-.1c-.1-.3-.34-.16-.4-.26z"/><path fill="#078930" d="M8.94 15c-.1-.02-.14.07-.13.14.01.16.23.11.2.26-.02.1-.1 0-.13.07-.06.12.18.22.12.32-.07.12-.24-.15-.33-.06-.08.08.15.2.11.3-.03.06-.1.06-.16.01-.1-.08-.1.29-.23.24-.14-.06.07-.26 0-.35-.1-.1-.25.14-.25-.02 0-.21.2-.15.15-.27-.05-.1-.19.08-.22-.06-.03-.11.16-.08.2-.19.04-.09-.14-.03-.13-.12 0-.12.25-.1.29-.15.05-.07-.1-.14.03-.21.1-.05.3-.12.36-.21s.17.02.18.07c-.02.15.09.28-.06.24zm-2.4 1.6c.07-.08-.07-.13-.02-.19.11-.12.25.06.32-.08.04-.1-.08-.07-.07-.14.03-.12.28-.07.29-.18.01-.14-.28-.02-.3-.14-.02-.11.24-.08.27-.18.01-.07-.04-.02-.13-.1-.09-.1.1-.3-.04-.33-.14-.04-.1.25-.2.27-.14.03-.12-.25-.22-.13-.13.17.08.25-.04.3-.1.06-.1-.17-.21-.08-.1.08.08.17.05.28-.03.09-.14-.06-.18.01-.07.1.14.24.14.3 0 .09-.17.05-.1.19.05.1.18.27.17.38 0 .1.1.13.14.09.08-.08.08-.2.13-.27z"/><path fill="#078930" d="M7.99 15.87c0-.1-.14-.06-.14-.13.02-.17.24-.12.2-.27-.03-.1-.1 0-.14-.06-.05-.12.18-.23.11-.33-.07-.11-.23.16-.32.08-.08-.08.14-.21.1-.3-.03-.07-.05 0-.17-.01-.13-.02-.1-.28-.23-.23-.14.06.07.26 0 .34-.08.11-.25-.12-.24.03 0 .16.21.15.16.27-.05.1-.2-.07-.22.07-.03.11.16.07.21.18.04.08-.14.04-.13.13.01.12.26.09.3.14.05.07-.1.14.04.2.1.05.3.1.37.2.06.08.16.04.16-.02.01-.11-.06-.2-.06-.3z"/><path fill="#078930" d="M6.79 16.96c.09-.05 0-.17.07-.17.15-.07.19.16.32.08.07-.07-.04-.1 0-.15.1-.1.27.06.35-.02.06-.12-.21-.15-.2-.27.07-.09.26.05.32-.02.05-.05.05-.08-.05-.15.04-.13.2-.2.13-.3-.12-.1-.21.16-.32.13-.13-.04.03-.28-.12-.22-.15.06-.05.25-.18.25s0-.18-.15-.18c-.1.04-.01.18-.09.26-.07.07-.08-.1-.17-.07-.1.07 0 .27-.02.33-.05.06-.17-.04-.17.11-.01.1.01.32-.05.42-.05.08.04.1.08.14.07-.08.14-.15.25-.17zM5.57 15c0-.1-.15-.06-.14-.13 0-.16.23-.12.19-.27-.03-.1-.1 0-.13-.06-.06-.11.17-.23.1-.32-.07-.12-.23.16-.32.07-.08-.07.14-.21.1-.3-.04-.07-.05 0-.17-.01-.13-.02-.1-.28-.23-.23-.14.06.07.26 0 .35-.08.1-.25-.13-.24.03 0 .21.21.14.16.26-.05.11-.2-.07-.22.07-.02.12.17.08.21.18.04.09-.13.04-.13.13.02.12.27.1.3.14.06.07-.1.15.04.2.1.05.3.1.38.2.06.08.16.04.16-.02.01-.11-.06-.2-.07-.3zm-3.22-.9c.09-.05-.03-.14.04-.18.14-.08.22.13.32.02.07-.08-.05-.1-.01-.15.06-.11.28.02.33-.09.05-.12-.27-.1-.25-.23.02-.1.26 0 .31-.08.04-.06-.03-.04-.08-.14-.06-.12.18-.25.06-.32-.12-.09-.17.2-.28.2-.14-.02-.04-.29-.16-.2-.18.13 0 .26-.14.28-.12.02-.04-.2-.17-.15-.11.05.02.19-.04.28-.05.08-.11-.1-.18-.04-.1.08.07.27.05.33-.03.08-.18 0-.15.14.02.11.08.32.04.42-.04.1.05.16.1.13.1-.05.14-.17.21-.22zm3.49 2.48c.07-.07-.04-.17.03-.19.14-.1.22.12.33.02.05-.08-.06-.09-.02-.15.06-.1.27.01.33-.08.04-.14-.24-.1-.24-.23.04-.1.26 0 .3-.08.04-.07.03-.1-.07-.15 0-.13.15-.22.06-.32-.14-.06-.18.2-.28.2-.14-.02-.05-.3-.17-.2-.12.1 0 .28-.13.29-.12.03-.04-.18-.18-.15-.1.07.02.18-.04.28-.05.07-.1-.08-.17-.05-.09.1.05.27.04.33-.04.08-.18 0-.15.15.02.1.08.3.04.42-.04.1.06.1.1.12.06-.09.12-.17.22-.21z"/><path fill="#078930" d="M5.78 15.73c.05-.08-.09-.12-.04-.18.1-.13.26.03.3-.12.03-.1-.08-.06-.07-.12 0-.13.26-.1.26-.22 0-.14-.28.01-.31-.11-.03-.1.23-.1.24-.2.01-.07-.04-.02-.13-.1-.1-.08.06-.3-.07-.32-.15-.02-.08.26-.18.3-.13.04-.15-.24-.23-.11-.1.19.1.24 0 .3-.1.08-.13-.15-.23-.05-.08.08.1.15.08.27-.01.09-.13-.05-.17.03-.06.11.17.22.17.29 0 .08-.16.07-.08.19.07.09.17.26.21.36.1.26.2-.13.25-.2z"/><path fill="#078930" d="M6.66 15.19c.05-.08-.09-.13-.04-.19.1-.12.26.04.31-.1.04-.1-.08-.06-.07-.13.02-.13.27-.1.28-.2 0-.14-.29 0-.31-.13-.02-.1.24-.09.25-.19.01-.07-.04-.02-.12-.1-.1-.09.07-.3-.06-.32-.15-.03-.1.25-.2.28-.13.04-.13-.24-.21-.12-.12.18.08.25-.03.31-.1.07-.11-.17-.22-.07-.08.08.1.16.07.27-.02.1-.14-.05-.18.03-.06.1.16.23.16.29 0 .09-.16.06-.08.19.05.1.18.26.18.37 0 .1.11.13.15.08.07-.08.06-.2.12-.27zm-.63-2.62c-.07-.08-.15.05-.19-.01-.1-.14.1-.24-.02-.33-.08-.06-.08.06-.15.04-.11-.05-.01-.29-.12-.32-.13-.04-.08.27-.2.27-.11 0-.03-.26-.12-.3-.06-.03-.03.04-.13.1-.11.07-.27-.14-.33-.03-.06.14.23.16.23.26 0 .14-.27.07-.17.19.15.16.26-.03.3.1.03.11-.2.07-.13.2.06.1.18-.06.28 0 .08.03-.08.11-.02.17.09.09.26-.1.32-.08.09.02.02.17.17.13.1-.03.3-.12.4-.09.1.03.15-.07.12-.12-.06-.1-.18-.11-.24-.18z"/><path fill="#000" d="M14.45 12.07c.03.03-.03.1-.12.16s-.17.09-.2.06c-.02-.03.04-.1.13-.17s.17-.08.2-.05zm3.22-.56c.24.23.37.59.3 1.09m-4.17 4.06c-.04.55.04.96.32 1.33m4.27-1.42c.3.45.6.9.62 1.36m-.27-1.52c.3.45.6.9.62 1.36m-2.88 1.3c.55.03 1.09.07 1.5-.14m-1.2-2.17c-.15 0-.88.24-.9.7M17 17.1c-.35.05-.94.4-.84.66m.38 1.7c.54.04 1.08.08 1.49-.12m-4.57-2.66c-.01.54.06 1.1.33 1.45"/><path fill="#da121a" d="M13.78 12.1l.08.53.3.25c-.46.17-1.12.64-1.31.51.37-.48.66-.76.93-1.3z"/><path fill="#fff" d="M7.84 29.21h6.74l-.06-3.5h.31l-2.54-2.03v-2.04h.19l-.38-.57-.2-1.4-.38-.38v-.45l.26-.06-.13-.83-.25-.25-.02-1.92c-.03-.13-.2-.3-.2-.3s-.18.15-.22.28v1.94l-.26.25-.2.83.26.06v.45l-.32.38-.19 1.4-.44.57h.25v2.04l-2.54 2.04h.31z"/><path fill="#000" d="M10.95 27.98h.52v1.17h-.52v-1.17zm-2.12.2h.42v.94h-.42v-.94zm4.43-.02h.43v.96h-.43v-.96z"/><path fill="#dc8852" d="M1.22.28h.63V.8h.58V.3h.63v.5h.58V.3h.63v.5h.63V.28h.58v.83H1.22zm.38 1.08v3.7h3.56v-3.7z"/><path fill="#000" d="M2.36 2.51H3v1.15h-.64V2.5zm1.34 0h.63v1.15H3.7V2.5zM1.38 1.13h4l-.19.25H1.58z"/><path fill="#dc8852" d="M9.05.28h.63V.8h.58V.3h.63v.5h.57V.3h.64v.5l.62.01.02-.52h.57v.83H9.05zm.38 1.08l-.01 3.79h3.57V1.36z"/><path fill="#000" d="M10.2 2.5h.63v1.15h-.64V2.51zm1.33 0h.63v1.15h-.63V2.51zM9.2 1.13h4l-.18.25H9.41z"/><path fill="#dc8852" d="M16.7.3h.63v.52h.57V.3h.64v.5h.57V.3h.64v.5l.62.02.01-.52h.58v.83H16.7zm.38 1.09v3.76h3.56V1.38z"/><path fill="#000" d="M17.84 2.54h.64v1.14h-.64V2.53zm1.34 0h.63v1.14h-.63V2.53zm-2.32-1.38h3.99l-.18.25-3.62-.01z"/><path fill="#dc8852" d="M.52 4.69h.76v.38h.96V4.7h.95v.38h.95V4.7h1.02v.38H6V4.7h1v.38h.89v-.32H8.9v.39h.9v-.39h1.01v.39h.9v-.39h1.01v.39h.9v-.39h.95v.39h.95v-.39h.96v.39h.89v-.39h1.08v.39h.83v-.39h1.08v.39h.82v-.39h.58v.77l-.26.31v3l.38.25v1.14H.46V9.08l.31-.26V5.83l-.25-.25z"/><path fill="#000" d="M9.43 7.49l1.46 1.4v.89l-1.45-1.3zm0 1.4l1.46 1.33H9.43zm.76-2.23c-.24.02-.51.2-.7.51l1.4 1.34V7.49zm.31-.06h.39v.44zM.46 5.45h21.37l-.38.39H.77zM12.6 7.5l-1.46 1.4v.88l1.45-1.3zm0 1.4l-1.46 1.33h1.46zm-.76-2.24c.23.02.5.2.7.51l-1.4 1.34V7.49zm-.32-.06h-.38v.45z"/><path fill="#078930" d="M7 29.18a20.68 20.68 0 0 0 4.33 2.55c1.4-.76 2.8-1.48 4.01-2.55z"/><path fill="#fff" d="M11 15.36l.01.04.04.03v.02h.01l.03.03v.13l.02-.01v-.12l.02-.03c0-.02-.02-.03-.03-.05m.02-.2c.05 0 .11.02.12-.04h.02a.22.22 0 0 1 0-.16c.05-.06.1-.05.17-.03a.2.2 0 0 1 .1.12c-.03-.04-.18-.18-.24-.04.07-.12.2-.02.2.03-.04-.04-.1-.06-.13-.05.04-.02.1.02.11.05.01.03.04.05.08.06-.02.03-.07 0-.1-.04-.04-.04-.08-.06-.12-.04.05-.01.1 0 .12.05l.07.08c-.01.01-.06-.02-.11-.08-.02-.03-.07-.02-.1 0 .11-.06.11.05.17.1-.01 0-.03 0-.05-.04-.04-.05-.09-.06-.13-.01.04-.04.08-.04.11 0 .02.01.02.04.05.07-.02 0-.03 0-.06-.05-.02-.03-.06-.02-.1 0 .07-.04.1 0 .12.04-.03-.03-.07-.03-.1 0 .04-.04.07-.02.1.02-.04-.02-.07-.02-.1 0 .05-.02.1-.01.1.05-.02-.04-.07-.02-.1-.02.03 0 .07 0 .07.04-.02-.02-.05-.01-.08-.01.06 0 .1 0 .1.04a.3.3 0 0 0-.1-.02c.04 0 .08.01.07.04-.03-.02-.05-.01-.08-.01.02 0 .05 0 .05.03a.14.14 0 0 0-.05-.02c.01.01.03.01.04.04l-.06-.02-.16-.19zm-.15-.28v-.01c0-.03 0-.04.02-.04v.02c.03-.04.04-.02.06-.02-.01 0-.02 0-.02.02l.05-.02-.01.02.05-.01-.05.03c.04-.01.06-.01.07 0-.03 0-.03.03-.08.03l-.09-.02z"/><path fill="#fff" d="M10.97 14.92h.06l.06.06v.06c0 .04 0 .05-.02.06v.03c.02.02.05.02.08.03l.02.02h-.02l.04.03-.04-.01c.03 0 .07.02.08.04l-.08-.03c.04.02.08.03.1.06l-.12-.04c.06.02.13.05.14.07l-.12-.04c.07.02.12.05.14.08l-.08-.03c.08.03.08.02.11.07l-.08-.03c.13.05.08.04.1.07l-.19-.08c.07.04.16.05.18.11l-.1-.05v.03l.02.01c-.02.01-.04 0-.05-.03l.04.05c-.01 0-.03 0-.04-.02l.03.05-.07.11h-.03l.05-.13-.03-.04-.08-.03-.08-.03c-.04-.03-.04-.05-.05-.07-.05-.05-.05-.07-.05-.1s.02-.06.04-.1a.14.14 0 0 0 .05-.08l-.02-.02c0-.01 0-.03.02-.02-.03-.03-.01-.04 0-.07"/><path fill="#f4f0e8" d="M11 14.94h-.02l.01-.02.01.02zm0-.01h-.01c-.01 0 0 0 0 0zm-.1 0h.03a.1.1 0 0 1 .05.05h-.06c.02 0 .04 0 .04.02l.03-.02-.02-.04v-.04l-.01.02c-.02-.01-.04-.02-.05 0z"/><path fill="#078930" d="M5.3 15.92c-.05-.09-.18 0-.18-.07-.06-.15.17-.19.09-.32-.07-.07-.1.04-.15-.01-.1-.09.07-.26-.01-.34-.13-.07-.16.2-.28.18-.09-.06.06-.25-.01-.31-.05-.05-.09-.05-.16.04-.12-.04-.18-.2-.3-.13-.09.12.16.22.13.32-.04.13-.22-.04-.22.12.13.17.27.06.24.19.01.12-.17 0-.18.14.05.1.18.02.26.1.07.07-.1.08-.08.16.08.1.28 0 .34.03.06.05-.04.17.1.18.11 0 .33-.01.42.05.09.06.11-.03.15-.08-.08-.07-.15-.14-.17-.25zM3 14.78c.09-.06-.03-.14.03-.18.13-.1.23.1.32-.01.07-.09-.06-.09-.03-.15.06-.12.29 0 .32-.11.05-.14-.27-.09-.26-.21.01-.11.26-.02.3-.11.03-.07-.03-.04-.1-.14-.06-.11.16-.26.04-.32-.13-.08-.15.22-.26.21-.14 0-.06-.27-.18-.17-.16.14.02.26-.1.29-.13.03-.07-.2-.2-.13-.1.05.05.18 0 .28-.05.08-.13-.09-.19-.03-.09.09.1.27.08.33-.03.08-.18.01-.14.16.03.1.1.3.07.41-.02.1.07.15.12.12.1-.06.12-.18.19-.24z"/></svg>