<svg version="1.1" xmlns="http://www.w3.org/2000/svg" viewBox="0 0 28 32"><path fill="#da121a" d="M.2.2h27.28v19.96c0 6.32-6.99 11.64-13.64 11.64S.2 26.48.2 20.16z"/><path fill="#fff" d="M8.07 8.6h11.46V17c0 2.65-2.93 4.88-5.73 4.88S8.07 19.65 8.07 17zm-6.7-4.36c-1.2-.48-.6-.93.04-1.48 1.04-.9 1.83-.42 2.47.12.97.81 1.63 1 2.9.59.6-.2 1.4-.5 1.93-.48.94.02 2.47 1.18 4.65.29.32.3-.03.76-.44 1.18-.15.14-1.65.09-2.42 0 .32.66 1.06.76 1.97.87l-.07.9c-1.11.14-1.48-.03-2.1-.48s-1.33-1.04-2.44-.59-2.3.8-3.19.24c-.35.55-.79.67-1.64.83-.78.15-1 .21-1.03-.77.74-.01 1.42-.25 1.47-.74.04-.3-.52-.59-.79-.54-.55.11-.87.24-1.3.06zM8.11 25.5c-1.2-.49-.6-.93.04-1.48 1.04-.9 1.84-.42 2.47.11.97.82 1.63 1.02 2.9.6.6-.2 1.4-.5 1.94-.49.93.03 2.46 1.2 4.64.3.32.3-.02.76-.44 1.18-.14.14-1.64.09-2.42 0 .32.66 1.06.76 1.98.87l-.08.9c-1.1.14-1.47-.03-2.1-.48s-1.33-1.04-2.43-.59-2.31.8-3.2.24c-.35.55-.78.67-1.64.83-.78.15-1 .21-1.03-.78.75 0 1.42-.24 1.48-.73.03-.3-.53-.59-.8-.54-.55.11-.86.24-1.3.06zm6.74-21.26c-1.2-.48-.6-.93.04-1.48 1.04-.9 1.84-.42 2.47.12.97.81 1.63 1 2.9.59.6-.2 1.4-.5 1.94-.48.93.02 2.46 1.18 4.64.29.32.3-.02.76-.44 1.18-.14.14-1.64.09-2.42 0 .32.66 1.06.76 1.98.87l-.08.9c-1.1.14-1.47-.03-2.1-.48s-1.33-1.04-2.43-.59-2.31.8-3.2.24c-.35.55-.78.67-1.64.83-.78.15-1 .21-1.03-.77.75-.01 1.42-.25 1.48-.74.03-.3-.53-.59-.8-.54-.55.11-.86.24-1.3.06z"/></svg>