<svg version="1.1" xmlns="http://www.w3.org/2000/svg" viewBox="0 0 28 32"><path fill="#0f47af" stroke="#000" stroke-width=".39" stroke-miterlimit="4" stroke-linecap="butt" stroke-linejoin="miter" d="M.39.44H27.1v19c0 6.24-6.3 12.1-13.56 12.17S.45 26.25.39 19.44z"/><path fill="#fcdd09" d="M12.78 12.5v2.26h-2.25v1.93h2.25v2.26h1.93v-2.26h2.26v-1.93H14.7v-2.25"/><path fill="#fcdd09" d="M6.18 8.18V23.3h15.13V8.18zm1.93 1.93h11.27v11.27H8.11z"/><path fill="#fcdd09" d="M11.83 10.1h1.93l2.08-4.82h1.93l.97 2.9H16.8l-2.09 4.5H12.8zm-3.72 1.94l1.61-.64 1.3-3.22h1.92l-.96-2.9h-1.94l-1.93 4.83zm7.55 9.34h-1.93l-2.08 4.83H9.7l-.96-2.9h1.93l2.08-4.5h1.93zm3.71-1.93l-1.6.64-1.3 3.22h-1.93l.97 2.9h1.93l1.93-4.83zM8.11 17.66v-1.93l-4.83-2.08v-1.93l2.9-.97v1.93l4.5 2.09v1.93zm1.93 3.72l-.64-1.61-3.22-1.3v-1.92l-2.9.96v1.93l4.83 1.94zm9.34-7.55v1.93l4.83 2.08v1.93l-2.9.97v-1.93l-4.5-2.08v-1.94zm-1.93-3.71l.64 1.6 3.22 1.3v1.93l2.9-.97v-1.93l-4.83-1.94z"/></svg>