<svg version="1.1" xmlns="http://www.w3.org/2000/svg" viewBox="0 0 32 32"><path fill="#e83629" d="M7.07 27.8c1.44.7 3.24 1.22 5.18 1.44 1.04.13 2.05.29 3.02.32.97.03 1.6.97 2.29 1.14 2.8-1.1 5.95-2.24 8.25-3.55.95-.58 1.7-1.2 2.32-2.13 2.81-3.13 2.54-7.1 2.43-10.18-.07-1.4-.19-2.77-.32-4.12-.2-2.15-.57-8.86-2.08-9.6-4.23 1.39-7.85 1.46-11.75-.15-4.54 1.86-8.75 1.92-12.7.6-.12.13-.16.3-.26.44-.69.92-2.5 1.25-2.6 2.67-.05.77.43 1.42 1.08 1.34-.47-.6-.3-1.03.32-1.12 2.47 0 3.12 3.74 3.07 5.15-.08 1.46-.69 2.67-1.13 3.9a21.9 21.9 0 0 0-1.06 3.97 11 11 0 0 0 .25 4.51c.4 1.35.9 2.62 1.58 3.55z"/><path fill="#fff" d="M21.7 6.08c.74.19 1.15.76 1.6 1.3 1.13.54 2.26 1.08 2.6 2.42 1 .65 1.09 1.64 1.2 2.63l-1.67.57c-.3 0-.43-.49-.61-.84-.82-.28-.64-.7-.95-1.05l-.67-.28.1 2.01c0 .44-1.28.95-1.92-.09-.3-.5-.7-.95-.98-1.37-.6-.9-.93-1.57-.83-1.67l2.02-2.77z"/><path fill="#fff" d="M17.66 16.64l-.12-1.17 1.22-3.44-.73-1.57-1.46 1.05-1.82-.16L14.4 10l1.58-2.26.68.93 1.22-1.33.8-.13 1.58 5.42c1.29.28 1.07 1.86 1.05 3.28l3.2.28.56-.36.4.92-1.53.73-3.15-.12-1.02.12-.32-.52a.86.86 0 0 1-.77-.17zm8.06-3.96c.3-.45.75-.33 1.19-.26.65.26.76.77.77 1.32l-.89.5-.97-.32-.4-.92z"/><path fill="#fff" d="M21.48 17.43c1.08-.42 1.71.05 2.57.08l.97 1.98c.03.43-.12.86-.63 1.3-.23.19-.4.52-1.05-.11l-.26-.87c-.26-.29-.66-.46-.67-.95a6.07 6.07 0 0 1-1.07-1.41z"/><path fill="#fff" d="M18.57 16.88c.25.2.51.34.97 0 .17.74.66.65 1.2.43l.64.18c-.05.93-.48 1.91.26 2.75-.64.88-1.4 1.15-2.32.69l.14-1c-.41-.95-1.07-1.76-.89-3.05zm.45-12.92l.26.25.65.01.43-.24.32.91.8 1s.3.66.28.72c-.06.17-2.13 3.08-2.13 2.77-.41-.87-.4-1.8.06-2.82l-.85-1.4c.01-.38-.17-.7.18-1.2z"/><path fill="#fc0" d="M18.08 4.11c.19-.33.16-.68.75-.97.4-.12.8-.3 1.35.05.4-.19.69-.51 1.28-.46 1.18.71.46.74.64 1.09l.52.69a2.1 2.1 0 0 1-.88 1.52 2.59 2.59 0 0 1-1.07-1c.02-.35-.36-.55-.3-.99l-.66.39c-.32.05-.43-.22-.58-.43-.3-.09-.09.7-.66 1.08-.24-.2-.46-.42-.4-.97zm-2.26-1.8c.23-.23.36-.01.51.17l-.45 2.55-.05 2.82-.71.01.09-1.63c-.23-.52 0-1.13 0-1.7z"/><path fill="#fff" d="M14.56 8.44l.66-.57.65.01.27.46-.08 1.41-.57-.1-.51.38-.5-1.27z"/><path fill="#fc0" d="M15.26 9.85c.17-.22.38-.2.61 0l-.03 3.63-.67-.4z"/><path fill="#fff" d="M14.35 12.92c.1.1.3-.03.6.34.08.1.28-.08.5.04.24.12.4.2.46.39.08.24.48-.26 1.04-.1-.59 2.98-.8 5.97-1.15 8.95.17 1.2.35 2.38 1.1 3.16 0 .85.85 1.38 1.63 1.38.35 0 0 .38.26.6l-1.94.16s-.52.85-.68.69-.9-1.01-.9-1.01a3.2 3.2 0 0 0-.36-1.86c-.72-.95-1.46-1.9-2.98-2.27l-1.66.45c.19.83-.56 1.43-1.21 2.06.98.08 2.02-.37 2.95.24-.5.33-.18.8-.08 1.21l-1.78.9-.6-.61-2.5-.08-.37-.77-1.5-1.01c.1-1.11-.25-2.17.57-3.38 1.58-1.77 4.31-2.46 6.75-3.94l-.53-.44.9-1.17c.15-1.23.13-1.84 1.17-2.23z"/><path fill="#fc0" d="M15.23 13.7l.63-.21-.07 1.92-.67-.23zm0 1.64c.42.1.35.1.35.1a1.2 1.2 0 0 1-.4.82l-.27-.18c.2-.24.25-.5.32-.74z"/><path fill="#000" d="M21.43 3.79c.42.41-.32.66-.35 1-.01.12.1.2.02.33-.23-.07-.22-.84-.02-.87.05.08-.05.19 0 .27.26-.1.34-.38.35-.73zm-.06 1.04c.2.08.14.64-.1.64.03-.23.2-.4.1-.64zm-1.74.02h.04c.15.02.05.3.2.33.24 0 .33-.16.54-.2 0 .1-.1.1-.14.16 0 .06.05.07.04.14l-.15.05c-.07-.13-.2-.02-.3-.04-.17-.03-.21-.2-.23-.44zM19.36 9c.12.22.24.42.25.74a2.1 2.1 0 0 1-.25-.73zm-2.4 1.06c.27.1-.04.44-.17.64s-.22.4-.37.44c.16-.38.46-.62.54-1.08zm1.49.07c.37.37.46.99.7 1.5.06.12.16.21.17.36-.27-.14-.37-.55-.48-.85l-.4-1z"/><path fill="#fc0" d="M22.17 11.43l.66.65-1.35.68-.32-.36c.43-.3.74-.62 1-.97z"/><path fill="#000" d="M14.71 13.77c-.1.15-.16.34-.33.43-.06-.24.16-.36.33-.43zm.09.27c-.09.1-.1.36-.26.33 0-.18.1-.35.25-.33zm-.05.37c.02 0 .03 0 .04.02.05.12-.04.25-.06.35-.03 0-.07-.01-.08.02-.05-.07.03-.31.1-.39zm-.68.45c.15.02.15.5-.02.5.05-.2 0-.32.02-.5zm10.07.69c-.02.12-.35.17-.41.06.14 0 .3-.08.4-.06zm-10.02 1.78h.05c.13.14 0 .3-.05.43a.83.83 0 0 1 0-.43zm.59.1c-.03.19-.04.4-.21.44.07-.14 0-.41.21-.44zm-.38.02h.04c.17.07.06.4-.08.43 0-.16-.02-.33.04-.43zm.63.12c-.01.08-.06.16-.15.11-.02-.13.09-.23.15-.11zm-.81.87c.09.29-.05.67-.19.87-.13-.24.14-.54.1-.87h.1zm9.62 0c.25.05.54.43.35.67-.02-.31-.37-.38-.35-.67zm-9.39.24c-.04.29-.02.63-.2.78-.13-.2.12-.51.1-.8.06-.01.06.03.1.03zm.02.92c-.12-.24.04-.58.16-.76l.06.02c.02.2-.06.32-.12.45 0 .13.03.28-.1.29zm5.46-.1c-.11-.15-.08-.44-.21-.58.26-.17.29.47.21.58zm-5.01-.4c.1.19.08.71-.04.86-.1-.2-.07-.68.04-.87zm-2.73.11c-.08.15-.35.12-.58.12.17-.06.4-.15.58-.12zm2.9.08c.03 0 .04 0 .04.02.05.15.14.42.16.65.01.19.02.44-.12.53-.07-.16 0-.37-.02-.6-.02-.21-.14-.39-.06-.6zM9.18 20.3c-.03.05-.13.03-.21.03-.02-.03.16-.02.21-.04zm4.33.19c.09.16-.13.36-.02.5.06-.08.04-.25.14-.3.09.05.15.12.21.18-.02.2-.05.36-.11.5-.15-.1-.36-.12-.4-.28-.06-.17.1-.4.1-.6h.08zm-.35.09l.06.02c-.08.22-.03.57-.27.64-.06-.2.16-.44.21-.66zm9.86.26c.13.02.17.14.25.2-.12.05-.2-.11-.25-.2zm-9.06.19c.1 0 .13.08.2.11 0 .11-.05.29.05.31.06-.04.03-.18.08-.23.12.04.13.18.27.2.1.2-.04.5 0 .62-.07-.01-.05.07-.13.05-.01-.14.07-.25 0-.36-.11.03-.14-.1-.28-.16-.12-.05-.21-.03-.25-.15-.03-.1.02-.26.06-.4zm11.28.75c-.1.48-.42.82-.73 1.03.14.16.28-.13.46-.12-.16.11-.32.33-.6.27.2-.4.68-.65.76-1.12-.01-.03-.04-.03-.04-.06-.33.05-.46.28-.85.25.2-.02.58-.3.79-.36.08-.03.17.07.21.11zm-10.3-.08H15c.07.13.06.41-.1.43.02-.13.02-.32.04-.42zm.36 1.75h.05a4.68 4.68 0 0 1 .66 1.29c-.14 0-.16-.18-.21-.27-.17-.3-.37-.6-.5-.96v-.06zm4.89.13c.3.03.4.26.7.27-.28.03-.62-.04-.7-.27zM7.8 26.72c.06.21-.19.14-.15.3.02.12.66.2.83.22.23.02.5-.09.6.04-.57.1-1.33.04-1.59-.27.06-.15.1-.3.31-.3z"/><path fill="#fc0" d="M18.94 6.9l.66-.24c.1.09.26-.07.05.28-.48.8-.52 2.37.02 3.2a8.5 8.5 0 0 0 1.77 2.74c.33.3.66.57 1.36.39.57-.35.52-.8.52-1.25l-.06-1.06c.4-.26.4 1.72.81 2.37l1.25 2.14-.85.73c-.99 0-2.12.48-2.97 0l-.26-1.4.14-1.19-1.07-.93c-.67-1.03-1.42-1.98-1.74-3.37-.05-.82-.1-1.64.37-2.4z"/><path fill="#fff" d="M21.21 24.58l-.02-1.02.48-.75.45-1.92c.08-.45-.26-.48-.42-.69-.13.37-.57.71-1.18 1.03-.6 0-1.15.14-1.19-.58l-.52.4.82 1.62-.24.42c.24.33.39 1.09.12 1.56z"/><path fill="#fcdd09" d="M19.07 24.67c-.4.58-.85.49-1.6.92-.2.3.01.34.12.48l1.68-.24 1.56.09c.56-.13.62-.34.49-.57l-.07-.84z"/><path fill="#fc0" d="M25.94 24.68l1.58 1.05-.46.57c-1.09-.26-1.72-.26-2.81-.73l.12-1.05z"/><path fill="#fff" d="M24.23 24.4a6.8 6.8 0 0 0-.85-2.66l-.83-.65.48-.86c.27.29.37.64 1.14.78.5-.43.94-.76 1.01-1.3l.72.55c-.55 1.34-.04 3.04-.12 4.45z"/><path fill="#000" d="M16.36.32h.02v.02a12.1 12.1 0 0 0 6.05 1.59c2.34-.1 4.38-.7 6.18-1.38.74 2.2 1.19 4.56 1.62 7 .33 1.85.6 3.72.76 5.74.05.67.07 1.4.11 2.07v1.72c-.07 4.59-1.38 7.8-4.14 9.74-2.92 2.05-7.44 3.35-9.48 4.4-.99-1.88-3.29-1.56-4.28-1.62-1.71-.1-3.4-.47-4.76-.98a8.22 8.22 0 0 1-5.4-6.11c-.36-1.5-.45-3.58-.17-5.25.26-1.56.87-3.04 1.36-4.39.36-1.04.76-2.1.7-3.6-.03-.48-.03-.9-.14-1.3-.3-1-.85-2.05-1.7-2.6-.22-.14-.73-.45-1.09-.27-.3.15-.3.89.27.72.08-.08.2-.21.26-.06.08.28-.37.4-.59.4-.76 0-1.19-.6-1.3-1.22v-.46c.16-.86.81-1.3 1.44-1.78.44-.33.95-.7 1.1-1.24.07-.21.02-.54.23-.71.86.47 1.76.93 2.87 1.18 1.14.25 2.44.25 3.8.25 1.35 0 2.52-.16 3.53-.5 1.03-.35 1.92-.85 2.74-1.34zm.27 14.88c-.34.58-.97.96-.95 1.82-.07.05-.07.15-.14.2-.26-.19-.63-.27-.87-.49.34-.14.5.2.82.2.18-1.21 1.15-1.6 1.37-2.68a.52.52 0 0 0-.3.12c-.25.2-.47.65-.69 1l-.3.53c-.1.16-.22.47-.35.5-.23.06-.61-.18-.64-.4-.03-.21.15-.45.25-.68.1-.22.16-.5.17-.77.03-.42.1-1.05-.25-1.2-.08 0-.08.08-.17.07 0-.04-.05-.04-.06-.07 0-.15.12-.3.02-.37-.5.18-.15 1.3-.43 1.72-.08.12-.21.08-.29.21.12.05.22.14.18.3-.1.03-.17.09-.26.13.03.07.12.25.02.33-.24-.1-.18-.52-.21-.72-.22.23-.4.52-.35.91.04.29-.07.59-.11.85-.33.29-.43 1.1-.24 1.6.55-.13.84-.52.86-1.2-.33.1-.4.43-.62.63a.27.27 0 0 1-.1-.1c.06-.36.23-.7.52-.77.07.07-.05.13-.02.17.12-.07.22-.17.35-.27l.12.13c-.16.25.06.47.02.7-.04.18-.27.34-.4.46-.15.17-.3.3-.45.41-.25.02-.43.26-.68.33-.06.03.1.07.04.11-.38.21-.9.26-1.3.45.16 0 .3 0 .37.08-.05.03-.14.01-.18.05.38 0 .64-.1 1.03-.1 0 .06.08.04.08.1-.67.26-1.72.01-2.17.41-.08.08-.13.19-.25.27-.13.1-.29.06-.43.14.2-.01.48-.1.64.02-.25.22-.78.16-1.2.2-.05.03.08.09.02.13-.11.04-.25-.03-.35-.06a1.1 1.1 0 0 0-.56.27c-.72.22-1.25.65-1.82 1.02.04.02.14-.03.12.04-.04.18-.26.17-.39.26.06 0 .11.03.12.1a.5.5 0 0 1-.3.19c0 .04-.02.09-.01.15-.25.14-.4.38-.58.6.09 0 .2-.14.25-.06.01.18-.27.22-.3.43 0 .07.1.02.09.1-.06.14-.15.27-.18.44.1.02.06.14.06.18.2-.27.34-.6.62-.8l.1.1c-.3.53-.82.83-.8 1.68.15-.36.3-.9.6-1.16.1.43-.38.79-.42 1.24-.04.37.16.6.4.77a.36.36 0 0 1 .14-.1c.06.09.13.16.21.22-.05-.14-.11-.24-.2-.4-.04-.1-.2-.4-.03-.4.05 0 .2.27.25.34.24.36.45.83.72 1.02-.08-.27-.52-.6-.31-.9.2.2.28.55.52.73.1-.06.15-.16.17-.3-.06-.06-.06.09-.11.03-.04-.1-.05-.23-.04-.37-.03-.05-.12-.04-.14-.1 0-.04.03-.08.04-.11-.08 0-.08.08-.17.07-.07-.05.02-.2 0-.21-.06.1-.2.2-.35.13 0-.15 0-.37.08-.5-.15.12-.4.08-.37-.2-.36-.26-.14-.78-.1-1.23.01-.15 0-.24.12-.25.26.18.1.68.3.89-.06.04 0 .09-.01.17.15.31.7.37.81.72.03.1-.05.37.12.35.04-.13-.08-.43.11-.45.35.46-.15 1.14-.29 1.55-.2.07-.24.55-.02.64.82-.12 1.71 0 2.44.13.14.27.42.56.8.4-.03-.28-.28-.35-.37-.57.34-.05.36.39.7.42a.1.1 0 0 1 .05-.05c-.01-.18-.12-.27-.15-.43.02 0 .03-.03.05-.04.24.02.25.24.3.45.09-.03.22-.1.23-.18 0-.04-.08-.05-.1-.08-.03-.05-.02-.11-.04-.13-.38-.49-2-.26-2.44-.7-.1-.13-.2-.24-.13-.44.12-.36.62-.51.95-.82.26-.24.34-.5.54-.71 0-.3.14-.49.2-.76a.42.42 0 0 1-.1-.17c.2-.19-.02-.42-.06-.64-.29-.22-1-.11-.84-.72-.07-.07-.27-.02-.25-.19.37.02.81-.05.93.17-.07.12-.23.16-.37.22.28.35.69-.17.85-.02-.04.15-.27.2-.27.33.27.04.41-.3.58-.1-.03.03-.2.1-.11.12.11-.03.24-.15.37-.1-.08.27-.45.23-.5.52.27 0 .3-.24.57-.25.01.03.04.03.04.06a.9.9 0 0 1-.07.21c.33-.22.6-.5.81-.85 0-.04-.1-.01-.08-.08a1 1 0 0 1 .49-.62c.04.02.04.07.07.1-.06.12-.16.2-.2.33.04 0 .08 0 .09.04-.08.31-.48.68-.22 1.03.67-.05.87.16 1.24.46.49.4.93.67 1.36 1.1.19.19.5.51.52.72.02.17-.13.38.06.48 0-.08 0-.16.06-.17.25.07.39.47.11.6-.04.41-.21 1.1.37 1.04.09.12 0 .29.17.31.04-.24-.08-.5-.11-.73.03-.04.05-.1.11-.1.12.04.1.2.18.3-.02-.15.01-.24.11-.26.17.28.06.83.16 1.18.15-.15.04-.97.21-.97.2 0 .02.52.14.64.1-.08.08-.2.08-.29-.07-.81-.96-1.18-.78-2.28-.14-.23-.38-.36-.54-.56.01-.07-.01-.1-.02-.14-.11-.17-.32-.3-.4-.5-.08-.17-.1-.33-.18-.49-.22-.42-.5-.83-.81-1.16v-.11c-.03-.05-.05.07-.14.04-.05-.05-.13-.08-.11-.2-.04-.04-.07.1-.14.08-.04-.17-.2-.23-.21-.43-.1-.07-.29-.04-.31-.17.05-.09.1-.17.21-.2.08.12.18.18.37.12.08.1.21.16.3.25v.14c.2.07.44.08.51.27.13-.23.1-.62.25-.81.05.03.12.04.14.1-.03.46-.27.78-.08 1.21.02-.08.04-.16.12-.17.04.04.09.06.11.11a.66.66 0 0 0-.01.5c.01-.2.1-.5.07-.77-.02-.17-.13-.34.04-.38.26.1.25.49.39.71.01-.44-.27-.68-.31-1 .08.09.28-.13.33-.08-.05-.07-.11-.2-.04-.27l.17.06c.1-.32-.22-.47-.13-.7.09-.03.15.15.17.06a1.03 1.03 0 0 1-.08-.26c.07-.05.09-.09.18-.03.04-.34-.45-.88-.16-1.03.2.28.3.68.43 1.04-.04-.48-.27-.74-.39-1.18.04-.02.04-.07.08-.1.13.05.12.23.21.32-.04-.23-.32-.46-.08-.64.07.03.1.1.12.17.05-.3-.28-.54-.08-.7.12.05.14.17.22.26.03-.47-.13-.74-.26-1.05.05-.01.06-.06.1-.07.02.03.1.1.14.05-.17-.2-.09-.49-.1-.73.05.01.04-.04.08-.04.09.02.1.12.2.13a2.9 2.9 0 0 1 .32-1.85zm1.9-10.81c-.08.24.06.52 0 .72-.53-.09-.16-.74-.04-.95.06-.12.15-.21.13-.27-.47.05-.31.72-.56 1-.2-.11-.05-.53.02-.67-.25-.13-.05-.56.12-.74.35-.37 1.14-.7 1.7-.48 0-.25-.25-.42-.15-.62.2.07.26.3.38.44.2-.14.46-.4.76-.3-.21.18-.53.25-.6.57.28-.2.63-.46 1.06-.46.45 0 .89.27.9.85 0 .1-.07.2-.05.31.05.24.49.36.53.64.02.15-.07.3-.12.44-.17.53-.4.8-.68 1.15.31.21.62.47.93.73.3.25.6.58.91.76.19.1.38.15.56.27.16.1.33.22.49.35.32.26.76.59.94.9.13.23.16.64.31.82.11.13.34.17.45.29.24.25.36.64.52.97.2.39.17.8.23 1.27.03.22.24.38.33.6.09.19.18.51.12.74a.95.95 0 0 1-.45.4c-.04.02-.12 0-.17 0-.1.03-.18.13-.27.14-.44.06-.74-.22-1.05-.31-.21-.24-.2-.66-.46-.9-.07-.06-.18-.06-.25-.13-.18-.18-.21-.55-.4-.7-.09-.05-.2-.04-.28-.09-.34-.23-.37-.77-.7-1 .07.53-.02 1.14.18 1.52.06.13.23.2.29.31.1.2.13.43.23.62s.22.36.33.54c.2.33.53.73.58 1.17.02.2-.11.3-.12.46 0 .13.14.33.22.48.08.17.17.33.2.5-.2.19-.46.26-.74.4-.22.1-.6.25-.62.52-.02.2.17.36.25.52.13.25.27.6.44.89.18.3.37.55.6.75.14.12.38.23.41.4.03.18-.15.42-.13.63 0 .09.08.18.1.27.02.22-.09.46-.1.7-.05.7.01 1.5.01 2.3 0-.41.76-.4.74-.04-.02.22-.33.16-.33.43.02.09.18.04.23.1-.02.08-.1.1-.1.2.14.15.32.3.55.43.17.1.49.3.7.27.16-.02.37-.33.52-.5.48-.57.85-1.27 1.18-1.91a8.4 8.4 0 0 0 1.02-3.1c.06-.95.17-1.84.22-2.86.03-.73.03-1.57 0-2.3-.07-1.4-.24-2.77-.31-4.13-.03-.4-.13-.83-.2-1.26-.07-.42-.1-.86-.17-1.27-.32-2.09-.86-3.95-1.38-5.89-.09-.34-.18-1.02-.38-1.06-.12-.02-.46.15-.66.21-1.56.48-3.25 1.06-5.26.97-2.37-.1-4.04-.72-5.79-1.45-.9.48-1.82.99-2.96 1.26-.57.14-1.17.23-1.8.3-.64.1-1.3.12-1.99.17-1.82.15-3.6-.2-4.88-.67-.38-.14-.72-.33-1.08-.45-.13.13-.17.31-.27.45-.7.92-2.4 1.25-2.5 2.67-.05.78.34 1.3.99 1.34-.67-.29-.37-1.15.25-1.24.73-.1 1.25.37 1.63.74 1.01 1 1.61 2.47 1.5 4.52-.07 1.47-.68 2.67-1.12 3.91-.42 1.2-.86 2.6-1.06 3.97a10.9 10.9 0 0 0 .25 4.5c.4 1.36.85 2.53 1.69 3.38-.08-.16-.2-.25-.16-.53-.05-.05-.04.11-.13.08-.22-.23.14-.54-.02-.83.06-.1.09-.25.15-.35-.13-.31.11-.49.2-.7 0-.09-.1-.12-.06-.2.19-.34.38-.69.66-.96v-.17a.29.29 0 0 0 .2-.27c.24-.1.44-.23.67-.35.05-.03-.12-.08-.04-.14.21-.17.58-.19.81-.34-.1.03-.16 0-.21-.06.21-.14.58-.12.8-.25 0-.27.6-.24.88-.37.07-.07-.13-.07-.06-.14.21-.15.68-.04.93-.15.06-.06-.15-.09-.1-.14.3-.03.4-.15.6-.27.12-.06.25-.11.35-.17.24-.13.43-.35.64-.43.12-.04.26 0 .37-.1.01-.1-.17-.06-.12-.13.33-.14.71-.22.91-.48-.04-.12-.43-.1-.46-.28-.02-.12.22-.4.31-.52.33-.45.8-1.06.8-1.76 0-.53.18-.83.54-.99.14-.06.34-.07.4-.17.07-.1.03-.34.04-.52.02-.4.08-1.3.48-1.28.26 0 .34.36.55.3.15-.34.05-1.03.05-1.48-.29-.26-.62-.7-.75-1.16-.1-.4.1-.58.13-.9.05-.31-.08-.86.04-1.15.1-.21.4-.27.55-.54.1-.19.08-.68.1-.9.03-.6-.19-1.2-.14-1.8.03-.43.2-.87.3-1.4.1-.51.12-1.08.34-1.42.05-.09.22-.24.3-.25.45-.09.5.35.47.73-.05.69-.35 1.35-.43 2.2-.03.41-.03.84-.03 1.29 0 .39-.1.98.01 1.31.1.27.47.3.6.58.05.07-.02.26.1.25.27-.07.42-.32.6-.58.14-.2.34-.6.56-.67.12-.04.26-.01.35-.02.45-.07.56-.34.9-.5.14-.08.33-.11.5-.24-.41-.55-1.14-1.55-.8-2.38-.07.11-.19.16-.23.31zm-2.98-.87c-.07.4-.22.85-.25 1.16-.03.22 0 .5-.04.72-.04.18-.11.32-.1.44.03.16.21.26.23.39-.02.08-.08.14-.1.25-.05.39-.02.94 0 1.3.12.03.3-.02.4-.06 0-.9 0-1.72.07-2.58.05-.73.33-1.37.4-2 .04-.3.13-.7-.07-.82 0-.01 0-.02-.02-.02-.38.1-.44.73-.52 1.22zm2.61.54c.12-.12.42-.48.66-.43.08.02.11.18.2.2.18.04.3-.33.48-.14-.2.11-.2.57.02.66.1 0 .18-.04.25-.1-.05-.11-.32-.18-.2-.34.15-.01.16.14.28.17.21.05.34-.12.52-.17.04-.1.06-.23.2-.24-.08.27-.28.65.01.82 0-.22-.02-.46.14-.53 0 .41-.06.97.17 1.28.03.04.1.08.16.14.1.11.15.22.27.23.38.03.3-.5.52-.7.1.31-.15.57-.2.85.22-.09.17-.44.38-.54.12.16-.07.38-.04.5.07-.15.23-.22.27-.38.1-.48-.3-.58-.5-.82.29-.07.5.25.7.41.09-.52-.5-.45-.57-.73.27-.05.43.17.64.25-.11-.24-.3-.4-.52-.53-.15.14-.2.37-.45.41-.03-.2.13-.35.12-.54-.02-.24-.28-.24-.33-.47.2-.1.34.29.5.3-.04-.28-.24-.37-.33-.57.37.02.5.26.52.62.13-.51-.18-.84-.71-.83-.05-.01.02-.13-.06-.12-.22.08-.5.1-.56.35.15.1.53.17.43.4-.15-.05-.23-.2-.4-.22-.26-.04-.53.17-.78.1-.23-.08-.23-.42-.53-.28.1.08.24.11.25.27-.02 0-.03.04-.05.04-.18-.03-.21-.22-.37-.23-.08 0-.16.09-.25.08-.07 0-.07-.08-.16-.06-.33.18-.56.56-.68.89zm.72.52c.02.12.18.17.15.31 0 .04-.03.07-.1.06.04.12.1.22.14.33.1 0 .18.03.23.08-.01-.1-.13-.24-.03-.33.29.11.29.52.29.93.18.02.27-.14.42-.08 0 .2-.4.12-.35.3.2.01.35-.1.56-.15.15.32-.26.4-.36.58 0 .13.04.23.11.3.09 0 .2.03.31.01.34-.05.92-.42.99-.64.05-.16-.03-.33.1-.48-.22-.19-.6-.45-.7-.75-.02-.07 0-.16-.02-.24-.07-.25-.43-.4-.31-.73-.26.07-.47.45-.81.42-.26-.01-.34-.23-.4-.5-.11.15-.27.34-.22.58zm.27.93c.1.13.06.38.23.43 0-.21.04-.48-.1-.56 0 .08-.12.05-.13.13zm2.32.83c-.12.14-.3.3-.52.43-.35.2-.66.48-1.2.29-.64.5-.4 1.68 0 2.19.45-.62 1.03-1.36 1.5-2.05.24-.34.66-.83.22-1.13zm-.08 1c-.1.17-.15.34-.25.47-.52.7-1.27 1.3-1.41 2.23.28-.18.5-.46.73-.7.25-.24.48-.5.74-.73.52-.47 1.11-.85 1.66-1.28.08-.03.2-.03.26-.08-.26-.5-.9-.88-1.38-1.16.47.4-.13.93-.35 1.26zm-1.65-.97c.1.14.34-.11.28-.14-.1.01-.28-.05-.28.14zm-.96 1.18a4.68 4.68 0 0 0 0 2.05c.04.11.12.22.16.35.04.13.06.26.11.38.2.5.5.88.74 1.32.12.22.2.48.34.68.25.33.67.58 1 .85.1.09.25.26.32.29.1.03.25 0 .3.02.15.05.21.26.4.36.07.04.24.06.29.1.05.05.09.18.15.27.16.23.37.64.6.74.07.03.16 0 .27.04.21.07.3.36.4.36.28 0 .05-.52.03-.67-.05-.4.13-.8.04-1.09-.06.24-.04.56-.24.66-.08-.53.46-1.28-.13-1.45.13-.54-.07-.95-.12-1.4 0-.13.06-.27-.05-.38.1.45-.02.94-.02 1.37 0 .1.03.22.02.31-.05.35-.63.64-.93.68-.31.04-.41-.05-.6-.14-.11-.04-.25-.05-.33-.11-.14-.1-.32-.39-.47-.58a11.9 11.9 0 0 1-1.58-2.54 4.6 4.6 0 0 1-.43-1.56c0-.33.05-.78.2-1.07.1-.23.41-.35.38-.66-.64 0-.74.27-.85.82zm.3 3.33c-.1-.19-.22-.37-.28-.55-.05-.15-.06-.32-.12-.48-.03-.12-.14-.23-.17-.35-.2-.73.02-1.6.12-2.24-.03 0-.02-.04-.04-.04-.42.15-.91.22-1.03.67-.23.26-.48.49-.68.78.14.22.6.45.4.77-.27-.09-.22-.48-.59-.46 0 .27.43.4.39.64-.02.06-.08.11-.14.11-.18 0-.23-.57-.4-.5-.1.26-.07.45-.18.7-.1.24-.37.34-.38.62 0 .05.03.1.03.17.03.22-.04.47 0 .72.13.04.33 0 .49.01.4-.3.71-.7 1.18-.94.15-.33.17-1 .21-1.44.03-.25-.07-.59.14-.7.1.17.07.4.05.6-.01.21-.07.43-.05.6 0 .1.06.2.07.3.04.2.04.45.08.64.1.37.32.7.48.96.09.15.15.31.22.4.11.13.35.18.54.26.2.08.37.21.56.23-.28-.44-.66-.99-.91-1.49zm3.59-1.63c.14-.31.2-.7.48-.87.08.18-.08.35-.15.5-.12.25-.28.56-.25.91.01.18.13.28.21.45.05.1.07.25.14.33.1.12.3.24.46.3.18.08.43.07.56.24.02.1-.13.04-.1.15.06.03.03.14.12.14.1-.27.16-.59.25-.87.1-.27.18-.6.45-.7-.13.6-.57 1.15-.53 1.92.5-.01.77-.53 1.26-.55-.35.28-.78.49-1.14.76.52.29.7-.35.99-.58.18-.08.48-.64.73-.3-.04.07-.17.04-.27.05-.32.26-.59.57-.85.89.08.17-.04.15-.08.29.12.16.19.53.39.54.16 0 .33-.37.54-.5.34-.22.64-.13 1.09-.02.26-.43-.06-.9-.24-1.3-.12-.28-.23-.66-.4-.85-.26-.29-.75-.15-.93-.5.1-.1.16.04.3.01-.04-.55-.27-.77-.6-1.06-.35-.32-.69-.64-1.11-.85-.2-.1-.52-.33-.68-.31-.05 0-.18.12-.23.15-.16.09-.32.1-.45.2-.12.08-.22.2-.35.29-.24.19-.5.36-.73.56-.15.13-.26.32-.43.44-.15.13-.35.2-.5.33-.17.15-.71.74-.7 1a9.03 9.03 0 0 0 .87 1.42c.07.1.23.4.4.39.16 0 .43-.39.55-.5.2-.2.29-.43.45-.62.25.25.3.7.83.67.2-.1.16-.48.06-.77-.06-.17-.26-.32-.37-.54-.14-.29-.3-.63-.27-1.05.02-.27 0-.79.26-.85.12.21-.07.47-.03.66zm-7.2-1.32c-.25 0-.77.34-.84.52-.12.32.07.68.12.95.05.25.1.42.23.44.2.03.25-.18.43-.23.24-.07.36.07.58 0 0-.2-.17-.28-.39-.31-.15-.02-.39.07-.46-.08.19-.16.59.03.81-.04.03-.57-.6-.24-.89-.3.13-.13.4-.23.64-.2.1.01.22.16.3.04-.1-.12-.34-.33-.51-.33-.18 0-.29.2-.47.13.1-.19.3-.3.53-.27.17.03.29.23.46.2.02-.31-.3-.52-.54-.52zm.65 1.4c.01.23.05.4-.1.51.2-.08.19-.33.24-.56.07-.3.1-.65.08-1.04-.09-.11-.25-.25-.37-.26.41.25.14.8.15 1.36zm3.47.4c0-.33-.13-.53-.25-.74.05.28.12.54.25.74zm-3.77 1.95c.02-.3-.04-.76-.06-1.03-.02-.27.06-.95-.23-.94-.22 0-.22.4-.24.6-.06.8-.02 2.05-.01 2.8.19.05.3.17.48.24-.02-.35.03-.64.04-.95-.1.08-.05.42-.23.36-.12-.46.22-.64.25-1.08zm-1.16-.83c.09.22.2.49.39.52.1-.15.1-.48.04-.68-.4-.08-.4-.57-.5-.94-.23.34-.07.72.07 1.1zm.4-.39c0-.13-.08-.19-.17-.23.02.12.06.21.18.23zM9.99 25.92c.12-.04.3-.26.54-.29.07 0 .18.05.27.04.13-.02.18-.12.27-.1.1.03.08.14.16.16.18-.07.51-.13.48.11.34.05.73.12 1 .24.08.03.24.09.2.19-.1.05-.22-.03-.29-.06-.07.18-.34.04-.54.08-.17.03-.25.14-.35.2.15.28.28.6.43.88-.2.09-.45.11-.7.14-.06.08.06.13.02.2-.18.1-.34.21-.5.32-.33-.03-.43.2-.7.21-.43.02-.58-.42-.9-.48-.29-.06-.6.06-.88.04-.43-.03-.82-.19-1.28-.12 1.44.7 3.12 1.3 5.05 1.53 1.05.13 2.25.1 3.17.17 1.19.1 1.8.9 2.08 1.25 2.82-1.1 5.87-2.27 8.34-3.7.35-.21.63-.44.89-.62-.88-.03-1.36-.47-2.27-.47-.41-.13-.34-.6-.34-1.12 0-.25.03-.54 0-.8-.02-.07-.07-.15-.08-.24-.02-.1 0-.23-.02-.33-.07-.34-.32-.68-.5-.99-.18-.3-.37-.7-.6-.89-.18-.14-.42-.16-.5-.44.08-.2.18-.38.28-.6.09-.19.28-.46.24-.66-.03-.13-.34-.32-.43-.45-.13-.16-.16-.33-.25-.48-.1-.15-.27-.28-.39-.4-.15-.16-.23-.32-.37-.43.01.49-.17.79-.11 1.18.04.29.23.57.38.81.15.23.43.53.45.77 0 .2-.11.46-.18.68-.1.38-.25.66-.3 1.03.3.55-.38.72-.37 1.24 0 .14.1.28.11.46 0 .19-.13.37-.15.62-.03.25.14.55.1.77-.05.19-.33.36-.6.39-.47.05-.86-.16-1.36-.12-.69.07-1.15.35-1.76.33-.6-.01-.56-.48-.23-.73.41-.32 1.13-.43 1.47-.82-.13 0-.2.05-.25-.03.09-.1.24-.12.38-.16-.07-.1-.26-.09-.29-.23.1-.12.23-.2.37-.27.14 0 .17.16.31.11.33-.1-.2-.96-.2-1.04 0-.2.2-.3.2-.47 0-.1-.14-.27-.2-.36l-.19-.4c-.11-.22-.37-.57-.35-.78.03-.26.4-.4.5-.62.1-.18.07-.3.05-.6a8.13 8.13 0 0 1-.91-2.71c-.1-.3-.45-.18-.7-.27-.27-.1-.34-.49-.31-.87.05-.64.3-1.29.52-1.94.21-.63.51-1.3.56-1.9.06-.61-.18-.94-.48-1.4-.48.1-.73.64-1.12.8-.25.11-.61.05-.85.24 0 .63-.14 1.26-.04 1.87.29-.03 1.07-.34 1.12.08.02.2-.1.21-.16.37.26.2 0 .47-.05.7-.04.13-.01.28-.02.42-.06.75-.52 1.48-.27 2.34-.13.13-.06.3-.08.49-.01.13-.1.3-.14.46-.03.16.01.32-.01.4-.03.1-.17.15-.18.24-.01.13.14.34.12.52-.01.1-.07.11-.08.22.07.1.15.2.2.34-.07.09-.14.15-.04.26-.28.09-.02.56-.1.8-.22 0-.24-.4-.37-.36 0 .29.23.46.2.72-.1.07-.15-.23-.22-.12a9.5 9.5 0 0 0 .66 3.48c.15.32.39.58.5.9.06.16.05.33.12.46.07.14.48.48.7.54.27.08.54.03.77.17.38.25.27.89-.33.68-.26.26-.87.18-1.37.2-.07.09-.2.16-.33.29-.15.13-.27.38-.43.38-.2 0-.27-.28-.39-.42-.23-.2-.73-.49-.77-.82-.03-.26.14-.48.1-.79-.04-.28-.3-.49-.23-.81-.29-.63-.8-1-1.36-1.42-.16-.12-.33-.26-.54-.4-.18-.12-.45-.32-.62-.33-.13-.01-.32.05-.48.08-.5.09-.97.19-1.42.3a2.3 2.3 0 0 1-.48 1.2c-.2.27-.43.47-.6.7.1-.1.28-.03.42-.05.15-.03.25-.2.35-.1.02.13-.2.13-.17.21zm12.07-14.4c-.17.38-.55.54-.7.93.05.11.18.1.27.1.36-.03.72-.39.97-.52a1.7 1.7 0 0 0-.54-.5zm.29.97c-.27.08-.78.15-.73.43.02.12.5.36.65.37.21.01.7-.2.85-.43.14-.2.13-.47.14-.73l-.04-.02a3 3 0 0 1-.87.38zm-3.46-.25c-.34.14-.41.6-.5 1-.11.46-.4 1.02-.47 1.4.27-.13.44-.4.7-.56.62-.37 1.18-.8 1.64-1.34-.1-.1-.2-.03-.33-.05-.3-.06-.5-.32-.77-.12-.05-.11-.15-.38-.27-.33zm8.67 1.45c.2-.84-.7-1.38-1.42-1.18h-.2c-.15.16-.38.33-.36.56.02.12.15.19.2.31.02.07-.02.1.05.16.14-.08.2-.25.16-.47.05-.08.15-.22.29-.15.02.14-.14.1-.14.23.03.06.06.12.06.2-.08.15-.34.29-.25.5.49.05.39-.66.74-.81.08.45-.35.67-.45.94.46.24.45-.44.64-.65.25.2-.2.52-.14.79.23.04.4-.19.45-.4.04-.17-.05-.44.2-.41.05.22-.05.45-.1.63.13-.05.24-.12.27-.25zm-12.49-.25c.08.15.38.06.45-.04-.06-.12-.45-.2-.45.04zm5.85-.06c-.73.37-1.36 1.08-2 1.53.08 0 .13.02.12.1-.06.16-.12.42-.15.68-.05.41-.05 1.02.13 1.23a.55.55 0 0 0 .4-.17c-.01-.48.01-1.17.05-1.65.02-.32-.05-.71.27-.73-.1.46-.02 1.41.02 1.92.03.4-.05.85.19 1.06.25-.02.5-.05.68-.15.03-.68-.34-1.34-.39-2.04-.02-.22 0-.5 0-.75 0-.23-.05-.55.2-.58.1.19.05.48.05.75 0 .28-.05.6 0 .85.04.2.18.44.25.68.08.23.17.49.2.73.01.14-.04.26.06.4.38.08.8-.08 1.3-.05.26.02.53.12.8.14.21.01.45-.03.66-.04.38-.02.77-.05.84-.33.06-.26-.1-.53-.24-.66-.33.09-.64 0-.98.04-.4.05-.79.23-1.2.17-.29-.03-.94-.2-1-.5a4.6 4.6 0 0 1 0-1.14c0-.1.06-.2.07-.31.04-.44.02-.9-.18-1.22-.08-.02-.12.02-.15.04zm-4.03.33c-.04-.32-.9-.09-.87.18.17-.02.3-.26.47-.1-.03.11-.22.05-.2.21.21.03.63-.08.6-.29zm-1.1.02c-.04-.25-.5-.1-.56.08-.04.14.01.36 0 .56-.02.18-.1.38-.06.5.06.22.33.34.54.37.03-.1-.2-.14-.17-.31.02-.1.19-.06.27-.1.04-.14 0-.36.02-.54-.06-.16-.35-.1-.33-.35.15-.02.32-.04.29-.21zm5.78-.1c.07.03.11.08.22.06 0-.08-.17-.14-.22-.06zm2.52 1.18c.02.17.13.29.1.45-.04.15-.27.3-.43.25-.16-.04-.2-.34-.33-.4-.1-.05-.28-.04-.39-.08-.42-.17-.43-.73-.75-1-.42.14-.4-.33-.8-.2.05.61-.2 1.33-.03 1.86.08.27.28.56.52.64.57.17 1.12-.1 1.53-.16.64-.09 1.33-.17 1.59-.6-.07-.9-.6-1.33-.97-1.92.02.34-.1.77-.04 1.17zm-7.8-.44c.24-.2-.23-.34-.43-.29.13.12.2.28.43.29zm1.51.66c-.07.26-.23.72-.2 1.08.02.2.08.48.3.5.12-.06.06-.2.07-.32.04-.3.15-.74.26-.93.04-.08.17-.24.3-.14-.14.23-.15.37-.2.72-.05.22-.2.82.09.8.17-.03.12-.39.13-.57.04-.42.19-1.05.3-1.22-.21.25-.75.23-1.05.08zm-2.65.54c.02.1.14.1.13.23 0 .1-.15.06-.23.1.03.13 0 .18-.04.27.19.02.47-.3.47-.52 0-.1-.09-.19-.12-.27.04.17-.12.15-.21.2zm-.37.17c.04.03.16.03.2 0 .02-.13-.24-.17-.2 0zm10.12 1.01c.16 0 .36.03.44-.05-.04-.3-.18-.5-.29-.74-.48 0-.33.57-.15.8zm-5.93 1.61c.13.4.19.84.31 1.09.07.13.24.23.28.36.05.22.02.6 0 .78-.03.13-.1.2-.08.33.04.19.52.21.83.17.71-.1 1.54-.7.99-1.5-.09-.03-.14.23-.31.13-.05-.24.16-.47.2-.76.02-.22-.03-.46-.03-.7.01-.28.13-.58-.05-.77-.2.07-.32-.06-.5-.08-.32-.02-.63.17-.88.12-.22-.05-.24-.32-.37-.5-.13-.05-.28.09-.42.07-.12-.01-.12-.09-.23-.11-.1.53.1.84.27 1.37zm-6.84-.35c.07.06.19.08.33.08.11-.18.12-.56.13-.77-.16.22-.4.37-.46.7zm9.55-.62c-.04 0-.03.06-.07.06.04.63.42.92.75 1.26.13 0 .26-.02.3.08-.5.33.51.73.57.96.02.09-.02.22-.02.31.04.46.44.93.9.86.15-.03.31-.24.46-.4.25-.27.4-.55.33-1.11-.42-.36-.53-1.03-.84-1.5-.02.08-.07.16-.15.12-.03-.2-.01-.47-.14-.58-.67.2-1.26-.17-2.09-.06zm-5.57 2.13c-.05-.07-.06-.2-.11-.27 0 .11.08.26.12.27zm7.94 1.9c.58.07 1.24-.33 1.49-.72.08-.12.19-.35.17-.46-.02-.2-.32-.32-.52-.4-.07.35-.27.51-.52.77-.16.16-.38.48-.53.5-.12.02-.3-.09-.44-.16a3.82 3.82 0 0 1-.78-.52c-.04.22-.32.39-.29.6.03.19.46.36.66.45l.39.15c.14.05.34.15.4 0-.13-.12-.46-.05-.48-.29.17-.08.27.06.45.08zm-15.1-1.1c.08-.01.2.01.22-.05-.06.02-.24.01-.22.04zm11.6 1.52c.24-.06.43-.11.63-.23.23-.14.9-.56.87-.87 0-.16-.2-.3-.33-.4-.15.34-.47.47-.75.67-.45.3-.9.76-1.43.94.33.1.66-.03 1-.11zm-1.6-.76c0 .16.3.67.39.76.43-.12.74-.36 1.06-.59-.41.01-1.07.07-1.16-.29-.02-.08.06-.24 0-.29-.11.14-.28.23-.29.41zm6.66 1.2c.04-.21-.13-.32-.16-.56-.02-.24.2-.5.04-.72l-.06-.02c-.27.28-.57.53-1.08.57-.08.14-.1.3-.25.34-.23.06-.4-.2-.64-.11.2.3.61.4.77.75-.21.08-.33-.2-.5-.17.2.44.57.75.45 1.41.08.13.21.2.17.47.17.31.63.3 1.06.23-.03-.14.1-.24.06-.37-.25.01-.5.35-.73.13.01-.1.15-.09.27-.1.13-.09.27-.17.44-.22.11-.17.13-.53.14-.74-.17.21-.45.57-.76.64-.07.02-.26.07-.3-.06 0-.17.24-.1.4-.11.29-.3.67-.5.7-1.05-.19.16-.22.45-.47.54-.07-.4.38-.52.45-.85zm-6.05-.11c.06.2.17.34.27.5.15.06.43-.01.48.16-.2.06-.46.28-.68.2 0-.17.21-.13.31-.2-.14 0-.24-.05-.34-.02-.33.3.18.5.2.81.03.3-.3.6-.07.85.16.18.63.09.9.02-.23-.06-.62-.11-.6-.35 0-.14.32-.37.48-.25-.06.1-.23.08-.24.23.2.16.77.42.87.06.08-.27-.17-.51-.13-.73.04-.24.53-.35.56-.64.02-.2-.1-.35-.08-.53-.15.1-.4.46-.62.26.4-.24.9-.47.84-1.09-.48.48-1.32.6-2.15.72zm-4 1.35c-.16-.05-.14-.3-.2-.44.01.13-.17.2-.2.33a1 1 0 0 0 0 .36c.06.33.28.64.46.88.2.25.45.46.55.79.05.2-.03.38 0 .6.04.31.35.7.5.95l.27.44c.09.14.18.38.43.27.13-.34-.3-.29-.33-.54.3-.07.59.2.62.54.13.02.32 0 .34-.11.04-.22-.43-.31-.5-.47.44-.32.84.35 1.1.4.16-.29-.16-.46-.46-.5-.1 0-.22.02-.33 0a1.62 1.62 0 0 1-.8-.54c-.2-.26-.18-.65-.4-1.02-.16-.27-.34-.54-.42-.82-.21-.67-.24-1.4-.5-1.97 0-.01-.01-.02-.03-.02-.04.28.1.75-.1.87zm10.48.76c.14-.06.28-.12.33-.27-.18-.21-.44.08-.33.27zm-7.05-.08c.08.02.16.1.25.04 0-.01 0-.04.02-.04-.02-.2-.23-.16-.27 0zm1.76.5c-.02.13 0 .3-.17.28-.09-.04 0-.24-.08-.27-.37-.07-.14.56-.5.44.02-.12.1-.29.02-.4-.26-.18-.23.2-.4.23-.12-.02-.03-.24-.09-.31-.16.05-.18.35-.36.33-.05.02-.1-.1-.18-.1-.15 0-.41.25-.62.33-.42.16-.91.23-.85.7.34.01.63.04.95.01.38-.03.7-.24 1.04-.27.25-.02.48.01.7.04.15.02.31.14.47.14.2 0 .48-.17.5-.35.03-.21-.17-.3-.2-.5-.02-.22.14-.3.1-.47-.1.06-.23.1-.33.18zm3.54.66c.03.45.76.46.95.18.22.06.4.36.64.46.19.09.53.12.76.14.27.01.83-.2.75-.47-.03-.1-.4-.2-.52-.25-.22-.1-.3-.22-.49-.29.02.1.14.1.12.23-.42.07-.4-.46-.54-.73-.04.16.02.41-.14.44-.15-.04-.08-.3-.2-.38.03.17-.01.35-.19.27-.04-.11.04-.34-.13-.33-.13.04-.02.33-.23.29-.07-.04-.04-.18-.08-.23-.19 0-.31.15-.5.1-.05-.06.02-.23-.1-.22h-.04c.05.31-.07.56-.06.8zm-17.63.1c.03-.06.15-.12.12-.17-.03.06-.15.11-.12.17zm3.97.54c-.21.08-.37.24-.64.25-.15.01-.31-.07-.46-.05-.1 0-.18.1-.27.11-.19.03-.43-.03-.49.18.19.22.52.05.8 0l.42-.08c.12-.03.3-.15.37 0-.08.26-.61.24-.95.3.17.26.5.04.83.09.32-.41 1-.45 1.45-.72-.38-.19-.84.22-1.06-.08zM6.9 27.45c-.12-.12-.1-.37-.25-.48-.1-.08-.26-.03-.39-.08-.34-.13-.48-.57-.77-.66.43.44.89.95 1.41 1.22zm4.47-.75c-.29-.1-.57.15-.81.25.49-.11.5.52.83.37 0-.23-.33-.3-.23-.49.28-.01.32.55.66.41-.1-.2-.23-.47-.45-.54z"/><path fill="#000" d="M16 19.27c.06.07.07.2.12.27-.04-.02-.11-.16-.11-.27zM6.8 25.3c.04.06-.1.12-.12.18-.03-.05.1-.11.12-.17zm15.01-13c0 .03-.02.06-.05.06s-.06-.03-.06-.06.03-.05.06-.05.05.02.05.05zm.35-.27c0 .03-.02.05-.05.05s-.06-.03-.06-.06c0-.02.03-.05.06-.05s.06.03.06.06z"/></svg>