<svg version="1.1" xmlns="http://www.w3.org/2000/svg" viewBox="0 0 28 32"><path fill="#020202" d="M27.99 1v18.3c-.1.03-.07.1-.07.17-.08.53-.15 1.05-.27 1.57a14 14 0 0 1-20.64 9.08 13.72 13.72 0 0 1-6.75-9.46c-.09-.44-.08-.9-.25-1.34V1l1.06-1h25.86zm-14 3.88H4.17c-.24 0-.31.04-.31.3v12.81a10.14 10.14 0 0 0 20.24.13c.04-4.33 0-8.66.01-12.98 0-.29-.13-.27-.32-.27H14zM27.32.92c-.12-.25-.33-.2-.5-.2H.86L.83.71a.3.3 0 0 0-.28.21H27.3zm-13.33 30.4c.7 0 1.27-.56 1.29-1.25a1.29 1.29 0 1 0-2.58 0c.02.7.59 1.26 1.29 1.26zM1.94 4.22c.7 0 1.26-.57 1.26-1.27a1.29 1.29 0 0 0-1.26-1.26c-.7 0-1.27.56-1.27 1.26v.02c0 .69.56 1.25 1.25 1.25h.02zm24.12 0c.7 0 1.26-.56 1.26-1.25v-.03a1.27 1.27 0 1 0-1.27 1.28zM1.95 10.08h-.03c-.7 0-1.25.56-1.25 1.25 0 .7.56 1.28 1.26 1.28a1.29 1.29 0 0 0 1.27-1.23v-.03c0-.7-.56-1.26-1.25-1.27zm24.12 0h-.02c-.7 0-1.26.56-1.26 1.25v.01a1.27 1.27 0 0 0 2.54.01v-.02c0-.69-.57-1.25-1.26-1.25zM11.23 2.94a1.27 1.27 0 0 0-1.27-1.25h-.01c-.7.02-1.24.57-1.25 1.26 0 .7.57 1.27 1.27 1.27.7 0 1.26-.56 1.26-1.25v-.03zM18 4.2h.03c.7 0 1.26-.55 1.27-1.24 0-.7-.56-1.28-1.26-1.3-.7 0-1.26.56-1.28 1.24v.06c0 .68.55 1.23 1.23 1.24zM6.13 25.9a1.26 1.26 0 0 0 .01 2.52h.01a1.26 1.26 0 0 0 0-2.52h-.01zm16.98 1.26v-.02c0-.69-.55-1.24-1.24-1.24h-.02a1.25 1.25 0 1 0 1.26 1.26zm2.8-8.68h-.04a1.26 1.26 0 1 0 0 2.52h.05a1.26 1.26 0 0 0 0-2.52zM.8 19.73v.02c0 .69.55 1.24 1.24 1.24h.06a1.26 1.26 0 1 0 0-2.51h-.06c-.69 0-1.24.55-1.24 1.24v.02z"/><path fill="#fdfdfd" d="M14 4.88h9.8c.2 0 .33-.02.33.26-.01 4.33.02 8.66-.02 12.98a10.05 10.05 0 0 1-7.35 9.63 10.15 10.15 0 0 1-12.9-9.77V5.17c0-.26.07-.3.3-.3q4.9.02 9.81 0zm6.33 3.46a.56.56 0 0 1 .08-.04c.5-.2.72-.56.64-1.04a.88.88 0 0 0-.87-.73c-.46 0-.8.28-.9.8a.69.69 0 0 1-.18.35l-4.9 5.46c-.15.17-.22.16-.37 0L8.95 7.73a.97.97 0 0 1-.25-.48.88.88 0 0 0-1.02-.7.9.9 0 0 0-.74.96c.04.45.32.7.74.83-.36.41-.36.41.02.83l.2.23c.05.05.08.1 0 .17-.2.18-.39.43-.63.52-.13.05-.27-.27-.42-.4a.68.68 0 0 1-.11-.13c-.1-.15-.19-.14-.31-.01-.4.37-.8.74-1.22 1.09-.15.12-.16.2-.03.36.19.22.32.29.52.04.08-.1.2-.17.28-.28.16-.17.25-.16.41.01.2.21.2.33-.03.48-.1.07-.17.18-.27.24-.23.15-.22.26-.04.46.16.17.25.21.41.03.12-.12.26-.21.38-.34.15-.16.23-.11.36.02.24.22.2.36-.03.52-.1.06-.16.15-.25.21-.23.16-.23.29-.03.48.15.15.24.2.4.02.1-.11.24-.2.33-.32.2-.25.3-.08.46.06.21.2.09.29-.06.41s-.25.25-.4.35c-.2.16-.02.25.07.33s.13.35.34.13l.85-.76c.19-.18.49-.33.52-.53s-.29-.37-.44-.58l-.03-.02c-.13-.12-.1-.2.03-.31.53-.51.54-.54 1.01.02.18.22.3.23.48.01.15-.18.25-.16.4.03.73.82 1.46 1.63 2.2 2.43.13.15.17.24 0 .4-.43.46-.84.93-1.25 1.4a.8.8 0 0 1-.4.25.81.81 0 0 0-.62.7c-.02.17-.07.21-.23.21q-1.57.07-3.13.16h-.05a.2.2 0 0 1-.2-.16c-.18-.51-.54-.74-1-.66-.4.07-.72.4-.74.82-.03.5.23.83.78.95.15.04.16.1.17.22l.17 3.1c0 .13 0 .2-.17.25-.49.16-.74.55-.67 1.02.08.42.42.73.85.76h.04a.9.9 0 0 0 .89-.75c.03-.17.09-.22.25-.22l3.03-.15c.18 0 .26.02.32.21a.85.85 0 0 0 .98.61.89.89 0 0 0 .06-1.75c-.18-.04-.25-.1-.26-.28l-.16-3.06c0-.16.04-.23.2-.27a.82.82 0 0 0 .63-.7.6.6 0 0 1 .13-.34l1.42-1.56 1.4 1.55c.07.1.12.2.13.33.04.35.29.63.62.71.17.04.21.11.2.27l-.16 3.07v.03c0 .12-.1.22-.21.23a.89.89 0 0 0 .02 1.75.87.87 0 0 0 1-.63c.05-.19.13-.19.28-.17l3.07.14c.2.01.21.1.25.26a.9.9 0 0 0 .88.72h.03a.93.93 0 0 0 .87-.91.9.9 0 0 0-.65-.85c-.2-.06-.2-.14-.2-.3.06-.97.12-1.94.15-2.9 0-.23.02-.37.3-.43.45-.1.7-.49.64-.95a.88.88 0 0 0-.77-.78.86.86 0 0 0-.96.6c-.05.2-.13.23-.33.22-1.01-.06-2.02-.12-3.04-.15-.15 0-.24-.03-.25-.2-.05-.38-.3-.62-.65-.73a.64.64 0 0 1-.33-.19l-1.28-1.41c-.18-.18-.15-.29.01-.46a94.7 94.7 0 0 0 2.15-2.38c.18-.2.3-.23.46-.01s.27.17.43-.01c.51-.6.52-.58 1.07-.02.1.1.11.16.01.27l-.46.49c-.09.09-.09.15.02.24l1.34 1.2a.11.11 0 0 0 .17.02c.32-.2.34-.39.05-.64a2.24 2.24 0 0 0-.22-.19c-.23-.15-.25-.28-.04-.48.15-.14.24-.2.39-.01.1.1.24.2.34.31.17.22.27.14.44-.02.18-.18.16-.3-.04-.43l-.42-.38c-.08-.07-.09-.11-.02-.21.26-.35.27-.36.6-.08.1.08.18.16.26.25.16.19.26.12.42-.03.18-.2.17-.31-.05-.46-.14-.1-.24-.23-.38-.33-.19-.14-.08-.24.04-.33s.15-.36.37-.14l.5.46c.22.2.25-.08.36-.16s.2-.17.03-.3l-1.1-.99c-.34-.3-.34-.3-.65.04-.38.41-.36.4-.8.04-.27-.21-.27-.34-.04-.58.43-.4.41-.42.07-.84zm-7.56-.08c.63 0 .63 0 .63.62v.04c0 .6 0 .6.61.6.6 0 .6 0 .6-.58 0-.67 0-.67.67-.67.59 0 .59 0 .59-.6s0-.6-.63-.6-.64 0-.64-.65c0-.61 0-.61-.62-.61-.58 0-.58 0-.58.57 0 .7 0 .7-.69.7-.57 0-.57 0-.57.57 0 .63 0 .63.65.63zM27.32.94H.56A.3.3 0 0 1 .84.72h25.97c.2 0 .4-.04.52.22z"/><path fill="#fbc600" d="M14 31.34h-.01c-.7 0-1.27-.57-1.28-1.26a1.29 1.29 0 1 1 2.57 0c-.01.7-.58 1.26-1.28 1.26zM1.93 4.21h-.02c-.7 0-1.25-.56-1.25-1.25v-.02c0-.7.57-1.27 1.27-1.27a1.3 1.3 0 0 1 1.26 1.25v.02c0 .7-.57 1.26-1.26 1.27zm24.12 0a1.27 1.27 0 1 1 1.27-1.27l-.01.01c0 .7-.56 1.26-1.25 1.26h-.01zm-24.1 5.87c.7.01 1.25.57 1.25 1.27v.02a1.29 1.29 0 0 1-1.27 1.24c-.7 0-1.26-.57-1.26-1.28 0-.7.56-1.25 1.25-1.25h.03zm24.12 0c.69 0 1.25.56 1.25 1.25v.03a1.27 1.27 0 1 1-1.27-1.28h.02zM11.23 2.94v.02c0 .7-.56 1.25-1.25 1.25h-.01a1.26 1.26 0 0 1-.02-2.53h.01c.7 0 1.26.56 1.27 1.26zM18 4.2a1.25 1.25 0 0 1-1.23-1.3c.02-.68.58-1.23 1.26-1.23.7.02 1.27.58 1.27 1.28-.01.7-.58 1.25-1.27 1.25H18zM6.13 25.9a1.25 1.25 0 1 1-1.26 1.26v-.02c0-.69.56-1.24 1.24-1.24h.02zm16.98 1.26c0 .7-.56 1.25-1.25 1.25h-.03a1.26 1.26 0 0 1 .01-2.51h.03c.69 0 1.24.55 1.24 1.24v.02zm2.8-8.68h.06a1.26 1.26 0 1 1 0 2.52h-.15a1.26 1.26 0 1 1 .1-2.51zM.8 19.73v-.01c0-.68.55-1.24 1.24-1.24h.06a1.26 1.26 0 1 1 0 2.52h-.06C1.35 21 .8 20.43.8 19.74v-.02z"/><path fill="#020202" d="M20.33 8.34c.34.41.36.43-.05.84-.24.24-.23.37.03.58.44.36.42.38.8-.04.3-.33.3-.33.65-.04.36.33.71.67 1.09.98.17.15.07.23-.04.31s-.13.36-.37.16c-.17-.15-.34-.29-.5-.46-.22-.22-.26.06-.37.14s-.23.2-.03.33c.14.1.24.24.37.33.22.15.23.26.04.46-.16.16-.25.22-.41.03a2.48 2.48 0 0 0-.27-.23c-.32-.28-.33-.28-.6.07-.06.1-.06.15.03.22.13.12.27.26.42.37.2.15.21.25.03.44-.16.17-.27.23-.44.03-.1-.11-.24-.2-.34-.32-.15-.17-.24-.11-.4.02-.2.2-.19.33.03.48l.23.2c.28.26.26.44-.06.64a.11.11 0 0 1-.17-.02l-1.34-1.2c-.1-.07-.1-.14-.01-.23.16-.16.3-.33.45-.5.1-.1.1-.15 0-.26-.56-.55-.56-.57-1.07.03-.17.2-.28.21-.43.02s-.27-.18-.46.02c-.7.81-1.42 1.6-2.14 2.38-.16.18-.2.28 0 .46L16.26 16c.08.1.2.17.32.2.37.1.61.34.66.73.02.18.1.2.26.2 1.01.05 2.02.1 3.03.17.2 0 .26-.03.33-.22a.86.86 0 0 1 .96-.6c.4.04.73.37.77.78.03.46-.2.85-.65.95-.27.06-.3.2-.3.42l-.16 2.9c0 .16 0 .25.2.3a.88.88 0 0 1 .64 1.01.93.93 0 0 1-.86.76h-.04a.9.9 0 0 1-.88-.7c-.03-.16-.05-.27-.25-.28-1.03-.03-2.05-.09-3.07-.14-.13 0-.22 0-.27.18a.86.86 0 0 1-1 .65.89.89 0 0 1-.03-1.75c.13 0 .23-.11.23-.24v-.03l.16-3.06c0-.16-.04-.23-.2-.27a.82.82 0 0 1-.63-.7.6.6 0 0 0-.14-.35l-1.42-1.57-1.42 1.57a.6.6 0 0 0-.14.33.82.82 0 0 1-.62.7c-.17.04-.21.12-.2.28l.16 3.06c0 .19.08.23.25.28a.89.89 0 0 1-.2 1.75.85.85 0 0 1-.82-.63c-.06-.2-.15-.23-.32-.22q-1.52.1-3.04.15c-.16 0-.21.05-.25.23a.9.9 0 0 1-.88.75H6.4a.92.92 0 0 1-.85-.76c-.07-.47.17-.86.66-1.02.17-.04.18-.12.17-.25l-.16-3.1c0-.11 0-.18-.16-.22-.55-.12-.81-.46-.8-.95a.88.88 0 0 1 .74-.82c.47-.08.83.14 1.02.66a.2.2 0 0 0 .24.16q1.56-.1 3.13-.16c.15 0 .2-.05.23-.2a.8.8 0 0 1 .6-.71.8.8 0 0 0 .42-.26c.41-.47.82-.94 1.26-1.39.16-.16.12-.25-.01-.4l-2.2-2.42c-.15-.18-.25-.21-.4-.02-.16.23-.3.2-.48 0-.47-.56-.48-.55-1.01-.03-.13.11-.16.2-.03.3l.03.03c.16.2.48.38.44.58s-.34.36-.52.54l-.85.76c-.21.2-.25-.06-.34-.13s-.27-.17-.06-.33c.15-.11.27-.24.4-.35s.28-.22.06-.41c-.16-.14-.26-.3-.46-.06-.1.12-.23.2-.34.32-.16.17-.24.13-.4-.02-.2-.2-.2-.33.04-.48.09-.06.16-.16.25-.21.23-.16.27-.3.04-.52-.14-.12-.22-.18-.36 0-.12.12-.26.2-.37.33-.16.19-.25.14-.4-.03-.19-.2-.2-.3.03-.45.1-.07.17-.17.27-.24.23-.15.24-.28.04-.48-.17-.17-.26-.2-.41-.01-.09.1-.2.17-.3.27-.19.24-.32.18-.5-.03-.13-.16-.12-.23.03-.36.42-.35.82-.72 1.22-1.08.12-.12.21-.14.31 0a.7.7 0 0 0 .12.12c.14.14.3.46.42.41.24-.08.42-.34.64-.51.07-.06.03-.12-.01-.16a3.9 3.9 0 0 1-.2-.23c-.38-.41-.38-.41-.02-.83-.41-.14-.7-.38-.73-.84v-.1a.9.9 0 0 1 .78-.88l.16-.01c.42 0 .77.3.86.7.03.2.12.36.25.5q2.43 2.68 4.86 5.4c.15.16.22.17.36 0q2.45-2.74 4.91-5.46c.1-.1.16-.2.2-.34.1-.53.43-.81.9-.8.43 0 .79.3.86.72.08.48-.14.83-.64 1.04a.63.63 0 0 0-.08.04zm-10.3 11.4c.45-.43.65-.96.72-1.55.02-.23-.03-.33-.28-.29-.52.12-.98.3-1.34.7-.12.14-.18.15-.32.02-.4-.36-.87-.51-1.4-.56-.27-.02-.3.1-.25.3.09.51.33.96.68 1.3.13.11.17.18.03.33-.37.4-.52.89-.56 1.42-.01.23.06.25.27.22.52-.1.98-.3 1.34-.68.12-.14.18-.16.33-.03.4.37.9.52 1.43.56.18.01.25-.02.22-.23a2.4 2.4 0 0 0-.86-1.54zm8.98-.96c-.37-.45-.9-.77-1.5-.86-.22-.04-.29.02-.26.24.05.61.26 1.15.7 1.6-.46.37-.78.9-.86 1.52-.03.2 0 .27.21.25a2.27 2.27 0 0 0 1.42-.52c.15-.14.23-.16.38 0 .37.42.84.6 1.37.69.18.03.22-.02.22-.18a2.23 2.23 0 0 0-.55-1.47c-.13-.14-.13-.2 0-.33.42-.35.62-.83.72-1.37.03-.18 0-.25-.22-.24-.63.02-1.2.3-1.6.7z"/><path fill="#020202" d="M12.77 8.26c-.65 0-.65 0-.65-.64 0-.57 0-.57.58-.57.68 0 .68 0 .68-.7 0-.56 0-.56.58-.56.63 0 .63 0 .63.61 0 .65 0 .65.64.65s.63 0 .63.61c0 .6 0 .6-.6.6-.67 0-.67 0-.67.67 0 .58 0 .58-.6.58s-.6 0-.6-.6v-.03c0-.62 0-.62-.62-.62z"/><path fill="#fdfdfd" d="M10.04 19.73c.46.38.78.92.87 1.53.03.22-.04.26-.23.24a2.26 2.26 0 0 1-1.42-.56c-.15-.13-.22-.11-.33.03-.35.4-.8.6-1.33.68-.2.04-.29 0-.26-.22A2.2 2.2 0 0 1 7.89 20c.14-.14.1-.2-.02-.32-.35-.34-.6-.79-.68-1.3-.05-.22-.03-.33.25-.3.53.04 1 .19 1.4.54.15.14.2.12.33-.02.35-.4.82-.59 1.33-.7.26-.05.31.05.29.28a2.5 2.5 0 0 1-.7 1.55zm8.97-.95c.41-.41.98-.68 1.6-.7.22 0 .26.07.23.25-.1.53-.3 1.01-.71 1.37-.14.13-.14.19-.01.33.38.4.53.9.55 1.46 0 .16-.04.22-.21.19-.53-.1-1-.28-1.37-.69-.15-.17-.23-.14-.39 0a2.3 2.3 0 0 1-1.4.53c-.2.02-.24-.05-.2-.24.08-.63.4-1.16.86-1.54a2.42 2.42 0 0 1-.7-1.58c-.01-.22.05-.27.26-.23.61.1 1.13.41 1.5.86z"/></svg>