<svg xmlns="http://www.w3.org/2000/svg" xmlns:xlink="http://www.w3.org/1999/xlink" viewBox="0 0 345.4 32.6" preserveAspectRatio="xMinYMid meet">
  <defs>
    <style>
      .a {
        fill: url(#a);
      }

      .b {
        fill: none;
        stroke: #000;
        stroke-miterlimit: 10;
      }

      .c {
        fill: #0087cc;
      }

      .d {
        fill: url(#b);
      }

      .e {
        fill: #51b15e;
      }
    </style>
    <linearGradient id="a" data-name="Unbenannter Verlauf" x1="4428.69" y1="-534.07" x2="4593.09" y2="-534.07" gradientTransform="translate(4593.09 -504.42) rotate(180)" gradientUnits="userSpaceOnUse">
      <stop offset="0" stop-color="#0087cc" stop-opacity="0.5"/>
      <stop offset="1" stop-color="#0087cc"/>
    </linearGradient>
    <linearGradient id="b" data-name="Unbenannter Verlauf 2" x1="4247.69" y1="-534.07" x2="4412.09" y2="-534.07" gradientTransform="translate(4593.09 -504.42) rotate(180)" gradientUnits="userSpaceOnUse">
      <stop offset="0" stop-color="#51b15e" stop-opacity="0.5"/>
      <stop offset="1" stop-color="#51b15e"/>
    </linearGradient>
  </defs>
  <title>logo</title>
  <g>
    <polygon class="a" points="0 26.7 164.4 26.7 164.4 32.6 0 32.6 0 26.7"/>
    <line class="b" y1="26.7" x2="164.4" y2="26.7"/>
    <g>
      <path class="c" d="M7.6,30.3a9.14,9.14,0,0,1-4.3-.9l1.1-3.2a6,6,0,0,0,2.4.6c.7,0,1.2-.2,1.2-.7,0-1.6-4.6-1.4-4.6-5.6,0-2.5,2-4.5,5.2-4.5a8.55,8.55,0,0,1,3.8.8l-1,2.8a5,5,0,0,0-2.1-.5c-.8,0-1.3.3-1.3.8,0,1.6,4.8,1.3,4.8,5.6C12.8,28.3,10.8,30.3,7.6,30.3Z" transform="translate(-0.6 -16)"/>
      <path class="c" d="M20.6,19.4V30.1H16V19.4H13.9V16.3h8.8v3.1Z" transform="translate(-0.6 -16)"/>
      <path class="c" d="M30.8,30.1l-.4-2H27l-.5,2H22.1l4.3-13.8h5l4.3,13.8ZM29,21.7q-.15-1.05-.3-1.8h0a7.39,7.39,0,0,1-.3,1.8l-.9,3.8h2.3Z" transform="translate(-0.6 -16)"/>
      <path class="c" d="M41.1,30.3a12.62,12.62,0,0,1-4.6-.8V16.9a13,13,0,0,1,4.6-.8c4.2,0,6.6,2.6,6.6,7.1S45.3,30.3,41.1,30.3Zm.3-11.2h-.3V27h.3c1.1,0,1.7-1,1.7-4S42.6,19.1,41.4,19.1Z" transform="translate(-0.6 -16)"/>
      <path class="c" d="M55.2,19.4V30.1H50.6V19.4H48.5V16.3h8.8v3.1Z" transform="translate(-0.6 -16)"/>
      <path class="c" d="M57.4,24.8V21.6h5.9v3.2Z" transform="translate(-0.6 -16)"/>
      <path class="c" d="M72.1,30.1l-2.3-6.5h0v6.5H65.2V16.3h4.6v6h0l2.5-6H77l-3.1,6.3,3.4,7.5Z" transform="translate(-0.6 -16)"/>
      <path class="c" d="M88.8,25.9c0,2.9-2.4,4.4-5.4,4.4S78,28.8,78,25.9V16.3h4.6v9.6a.9.9,0,0,0,.9.9.84.84,0,0,0,.9-.9V16.3h4.4Z" transform="translate(-0.6 -16)"/>
      <path class="c" d="M97.6,30.1l-1.1-3.7a3.67,3.67,0,0,0-1-1.7v5.4H91V16.9a13.37,13.37,0,0,1,4.8-.8c3.9,0,6.2,1.4,6.2,4.5a3.62,3.62,0,0,1-2.4,3.5h0a11.33,11.33,0,0,1,1.3,2l1.7,4ZM95.9,18.7h-.4v4.1a4.33,4.33,0,0,0,.5.1c1.1,0,1.5-1,1.5-2.1C97.5,19.3,97,18.7,95.9,18.7Z" transform="translate(-0.6 -16)"/>
      <path class="c" d="M103.8,30.1V16.3h4.6V30.1Z" transform="translate(-0.6 -16)"/>
      <path class="c" d="M110.6,30.1V16.3h7.7v3.1h-3v2.2h2.5v3h-2.5V27h3v3.1Z" transform="translate(-0.6 -16)"/>
      <path class="c" d="M126.8,30.1l-1.1-3.7a3.67,3.67,0,0,0-1-1.7v5.4h-4.5V16.9a13.37,13.37,0,0,1,4.8-.8c3.9,0,6.2,1.4,6.2,4.5a3.62,3.62,0,0,1-2.4,3.5h0a11.33,11.33,0,0,1,1.3,2l1.7,4Zm-1.7-11.4h-.4v4.1a4.33,4.33,0,0,0,.5.1c1.1,0,1.5-1,1.5-2.1C126.6,19.3,126.2,18.7,125.1,18.7Z" transform="translate(-0.6 -16)"/>
    </g>
    <g>
      <path d="M30.1,40.1a3.65,3.65,0,0,1-1.5-.3l1.1-5.4a4.15,4.15,0,0,1,1.6-.3c1.3,0,1.9.9,1.9,2.2C33.2,37.8,32.5,40.1,30.1,40.1Zm1.1-5.5a2,2,0,0,0-.8.1l-.9,4.7a1.7,1.7,0,0,0,.7.1A2,2,0,0,0,32,38.1a7.11,7.11,0,0,0,.4-2C32.4,35.2,32,34.6,31.2,34.6Z" transform="translate(-0.6 -16)"/>
      <path d="M37.5,37.6l-3,.4v.3a1.08,1.08,0,0,0,1.1,1.2,2.66,2.66,0,0,0,1.2-.3l.1.5a3.19,3.19,0,0,1-1.4.3,1.61,1.61,0,0,1-1.7-1.8c0-1.3.7-3,2.3-3,.9,0,1.4.5,1.4,1.5A1.38,1.38,0,0,1,37.5,37.6Zm-1.4-1.8c-.8,0-1.3.7-1.5,1.8l2.3-.3v-.5C36.9,36.2,36.7,35.8,36.1,35.8Z" transform="translate(-0.6 -16)"/>
      <path d="M40.7,36c-.2,0-.3-.1-.4-.1s-.5,0-.6.1l-.8,4h-.7l.8-4.3a4.15,4.15,0,0,1,1.6-.3H41Z" transform="translate(-0.6 -16)"/>
      <path d="M45.6,40H43.1l1.1-5.8H45l-1,5.3h1.8Z" transform="translate(-0.6 -16)"/>
      <path d="M48,40.1c-1,0-1.4-.7-1.4-1.7s.5-3.1,2.3-3.1c1,0,1.4.7,1.4,1.7S49.8,40.1,48,40.1Zm.8-4.2a1.27,1.27,0,0,0-1.1.9,5.93,5.93,0,0,0-.4,1.7c0,.7.2,1.1.8,1.1a1.27,1.27,0,0,0,1.1-.9,5.93,5.93,0,0,0,.4-1.7C49.6,36.3,49.4,35.9,48.8,35.9Z" transform="translate(-0.6 -16)"/>
      <path d="M52.8,37.7l1.5,2.4h-.8l-1.4-2.3h0L51.6,40h-.7l1.3-6.7h.7l-.8,4.2h0l2.1-2.1h.9Z" transform="translate(-0.6 -16)"/>
      <path d="M58.6,36.9,58,39.8a3.34,3.34,0,0,1-1.5.3c-.9,0-1.5-.3-1.5-1.2a1.25,1.25,0,0,1,.6-1.1,4.47,4.47,0,0,1,2.3-.7l.1-.3v-.3c0-.4-.3-.6-.8-.6a2.66,2.66,0,0,0-1.2.3l-.1-.5a3.53,3.53,0,0,1,1.4-.3c.9,0,1.4.4,1.4,1.1A.76.76,0,0,1,58.6,36.9ZM56.1,38a1.27,1.27,0,0,0-.4.9c0,.6.4.8.9.8a1.88,1.88,0,0,0,.8-.2l.4-2.1A5.56,5.56,0,0,0,56.1,38Z" transform="translate(-0.6 -16)"/>
      <path d="M60,40h-.7l1.3-6.7h.7Z" transform="translate(-0.6 -16)"/>
      <path d="M64.9,36.9l-.6,2.9a3.34,3.34,0,0,1-1.5.3c-.9,0-1.5-.3-1.5-1.2a1.25,1.25,0,0,1,.6-1.1,4.47,4.47,0,0,1,2.3-.7l.1-.3v-.3c0-.4-.3-.6-.8-.6a2.66,2.66,0,0,0-1.2.3l-.1-.5a3.53,3.53,0,0,1,1.4-.3c.9,0,1.4.4,1.4,1.1A.76.76,0,0,1,64.9,36.9ZM62.4,38a1.27,1.27,0,0,0-.4.9c0,.6.4.8.9.8a1.88,1.88,0,0,0,.8-.2l.4-2.1A5.56,5.56,0,0,0,62.4,38Z" transform="translate(-0.6 -16)"/>
      <path d="M69.5,37l-.6,3h-.7l.6-3.1c0-.1.1-.3.1-.4,0-.4-.2-.7-.9-.7a1.08,1.08,0,0,0-.8.2l-.8,4h-.7l.8-4.3a4.15,4.15,0,0,1,1.6-.3c1,0,1.5.5,1.5,1.2A.6.6,0,0,0,69.5,37Z" transform="translate(-0.6 -16)"/>
      <path d="M70.8,39.6h2l-.1.4H69.8l2.7-4.1H70.7l.1-.5h2.7Z" transform="translate(-0.6 -16)"/>
      <path d="M77.4,37.6l-3,.4v.3a1.08,1.08,0,0,0,1.1,1.2,2.66,2.66,0,0,0,1.2-.3l.1.5a3.19,3.19,0,0,1-1.4.3,1.61,1.61,0,0,1-1.7-1.8c0-1.3.7-3,2.3-3,.9,0,1.4.5,1.4,1.5A2.7,2.7,0,0,1,77.4,37.6ZM76,35.8c-.8,0-1.3.7-1.5,1.8l2.3-.3a4.33,4.33,0,0,1,.1-.5C76.8,36.2,76.5,35.8,76,35.8Z" transform="translate(-0.6 -16)"/>
      <path d="M78.7,40H78l.9-4.6h.7Zm.7-5.4a.43.43,0,0,1-.4-.4.47.47,0,0,1,.5-.5.43.43,0,0,1,.4.4C80,34.4,79.7,34.6,79.4,34.6Z" transform="translate(-0.6 -16)"/>
      <path d="M83.2,40.1a2,2,0,0,1-2,1.9,3.19,3.19,0,0,1-1.4-.3l.3-.5a1.93,1.93,0,0,0,1,.3,1.33,1.33,0,0,0,1.4-1.2l.1-.3a2.39,2.39,0,0,1-.9.2c-.9,0-1.4-.7-1.4-1.7s.6-3.1,2.6-3.1a2.5,2.5,0,0,1,1.3.3Zm-.5-4.3a1.51,1.51,0,0,0-1.4.9,5.26,5.26,0,0,0-.4,1.7c0,.7.2,1.2,1,1.2a1.88,1.88,0,0,0,.8-.2l.7-3.5C83.2,35.9,82.9,35.8,82.7,35.8Z" transform="translate(-0.6 -16)"/>
      <path d="M88.4,37.6l-3,.4v.3a1.08,1.08,0,0,0,1.1,1.2,2.66,2.66,0,0,0,1.2-.3l.1.5a3.19,3.19,0,0,1-1.4.3,1.61,1.61,0,0,1-1.7-1.8c0-1.3.7-3,2.3-3,.9,0,1.4.5,1.4,1.5A2.7,2.7,0,0,1,88.4,37.6ZM87,35.8c-.8,0-1.3.7-1.5,1.8l2.3-.3a4.33,4.33,0,0,1,.1-.5C87.8,36.2,87.5,35.8,87,35.8Z" transform="translate(-0.6 -16)"/>
      <path d="M91.5,36c-.2,0-.3-.1-.4-.1a1.27,1.27,0,0,0-.6.1l-.8,4H89l.8-4.3a4.15,4.15,0,0,1,1.6-.3h.4Z" transform="translate(-0.6 -16)"/>
      <path d="M96.8,33.9h0c-.5,0-.8.2-1,.9l-.1.7h.8l-.1.5h-.8l-.8,4h-.7l.8-4.1h-.5l.1-.5H95l.1-.7a1.57,1.57,0,0,1,1.7-1.4H97Z" transform="translate(-0.6 -16)"/>
      <path d="M99.8,39.8a3.81,3.81,0,0,1-1.6.3c-.9,0-1.4-.4-1.4-1.2a.6.6,0,0,1,.1-.4l.6-3h.7l-.6,3v.4c0,.5.3.7.8.7a1.08,1.08,0,0,0,.8-.2l.8-4h.7Zm-1.4-4.9a.32.32,0,0,1-.3-.3.43.43,0,0,1,.4-.4.32.32,0,0,1,.3.3C98.9,34.6,98.7,34.9,98.4,34.9Zm1.4,0a.32.32,0,0,1-.3-.3.43.43,0,0,1,.4-.4.32.32,0,0,1,.3.3C100.2,34.6,100,34.9,99.8,34.9Z" transform="translate(-0.6 -16)"/>
      <path d="M103.5,36c-.2,0-.3-.1-.4-.1a1.27,1.27,0,0,0-.6.1l-.8,4H101l.8-4.3a4.15,4.15,0,0,1,1.6-.3h.4Z" transform="translate(-0.6 -16)"/>
      <path d="M110,40h-.7l-1.7-4.4c-.1-.2-.1-.4-.2-.6h0c0,.2-.1.5-.1.7l-.8,4.3h-.7l1.1-5.8h.8l1.6,4.2c.1.2.1.4.2.6h0c0-.2.1-.5.1-.7l.8-4.1h.7Z" transform="translate(-0.6 -16)"/>
      <path d="M115.2,37.6l-3,.4v.3a1.08,1.08,0,0,0,1.1,1.2,2.66,2.66,0,0,0,1.2-.3l.1.5a3.19,3.19,0,0,1-1.4.3,1.61,1.61,0,0,1-1.7-1.8c0-1.3.7-3,2.3-3,.9,0,1.4.5,1.4,1.5A1.38,1.38,0,0,1,115.2,37.6Zm-1.4-1.8c-.8,0-1.3.7-1.5,1.8l2.3-.3a4.33,4.33,0,0,1,.1-.5C114.6,36.2,114.3,35.8,113.8,35.8Z" transform="translate(-0.6 -16)"/>
      <path d="M119.1,39.8a3.81,3.81,0,0,1-1.6.3c-.9,0-1.4-.4-1.4-1.2a.6.6,0,0,1,.1-.4l.6-3h.7l-.6,3v.4c0,.5.3.7.8.7a1.08,1.08,0,0,0,.8-.2l.8-4h.7Z" transform="translate(-0.6 -16)"/>
      <path d="M123.2,36.1a1.08,1.08,0,0,0-.8-.2.82.82,0,0,0-.9.8c0,.8,1.5.7,1.5,1.9a1.62,1.62,0,0,1-1.8,1.5,2.38,2.38,0,0,1-1.2-.3l.3-.5a1.61,1.61,0,0,0,.9.3.92.92,0,0,0,1-.9c0-.9-1.5-.7-1.5-1.9a1.48,1.48,0,0,1,1.6-1.4,2,2,0,0,1,1.1.3Z" transform="translate(-0.6 -16)"/>
      <path d="M126.7,36.1a1.08,1.08,0,0,0-.8-.2.82.82,0,0,0-.9.8c0,.8,1.5.7,1.5,1.9a1.62,1.62,0,0,1-1.8,1.5,2.38,2.38,0,0,1-1.2-.3l.3-.5a1.61,1.61,0,0,0,.9.3.92.92,0,0,0,1-.9c0-.9-1.5-.7-1.5-1.9a1.48,1.48,0,0,1,1.6-1.4,2,2,0,0,1,1.1.3Z" transform="translate(-0.6 -16)"/>
    </g>
    <g>
      <path d="M1.2,37.6a.37.37,0,0,1-.3-.1l-.1-.1v-.5h.3c.1,0,.3,0,.3.1v.5a.1.1,0,0,1-.1.1C1.4,37.5,1.3,37.6,1.2,37.6Z" transform="translate(-0.6 -16)"/>
      <path d="M3.3,37.2a.43.43,0,0,1,.4-.4h0a.43.43,0,0,1,.4.4h0a.43.43,0,0,1-.4.4h0A.43.43,0,0,1,3.3,37.2Zm-1.2,0a.43.43,0,0,1,.4-.4h0a.43.43,0,0,1,.4.4h0a.43.43,0,0,1-.4.4h0A.43.43,0,0,1,2.1,37.2Z" transform="translate(-0.6 -16)"/>
      <path d="M25.6,37.2a.43.43,0,0,1,.4-.4h0a.43.43,0,0,1,.4.4h0a.43.43,0,0,1-.4.4h0A.37.37,0,0,1,25.6,37.2Zm-1.3,0a.43.43,0,0,1,.4-.4h0a.43.43,0,0,1,.4.4h0a.43.43,0,0,1-.4.4h0A.43.43,0,0,1,24.3,37.2Zm-1.2,0a.43.43,0,0,1,.4-.4h0a.43.43,0,0,1,.4.4h0a.43.43,0,0,1-.4.4h0A.43.43,0,0,1,23.1,37.2Zm-1.2,0a.43.43,0,0,1,.4-.4h0a.43.43,0,0,1,.4.4h0a.43.43,0,0,1-.4.4h0A.37.37,0,0,1,21.9,37.2Zm-1.3,0a.43.43,0,0,1,.4-.4h0a.43.43,0,0,1,.4.4h0a.43.43,0,0,1-.4.4h0A.43.43,0,0,1,20.6,37.2Zm-1.2,0a.43.43,0,0,1,.4-.4h0a.43.43,0,0,1,.4.4h0a.43.43,0,0,1-.4.4h0A.43.43,0,0,1,19.4,37.2Zm-1.2,0a.43.43,0,0,1,.4-.4h0a.43.43,0,0,1,.4.4h0a.43.43,0,0,1-.4.4h0A.37.37,0,0,1,18.2,37.2Zm-1.3,0a.43.43,0,0,1,.4-.4h0a.43.43,0,0,1,.4.4h0a.43.43,0,0,1-.4.4h0A.43.43,0,0,1,16.9,37.2Zm-1.2,0a.43.43,0,0,1,.4-.4h0a.43.43,0,0,1,.4.4h0a.43.43,0,0,1-.4.4h0A.43.43,0,0,1,15.7,37.2Zm-1.2,0a.43.43,0,0,1,.4-.4h0a.43.43,0,0,1,.4.4h0a.43.43,0,0,1-.4.4h0A.37.37,0,0,1,14.5,37.2Zm-1.3,0a.43.43,0,0,1,.4-.4h0a.43.43,0,0,1,.4.4h0a.43.43,0,0,1-.4.4h0A.43.43,0,0,1,13.2,37.2Zm-1.2,0a.43.43,0,0,1,.4-.4h0a.43.43,0,0,1,.4.4h0a.43.43,0,0,1-.4.4h0A.43.43,0,0,1,12,37.2Zm-1.3,0a.43.43,0,0,1,.4-.4h0a.43.43,0,0,1,.4.4h0a.43.43,0,0,1-.4.4h0A.43.43,0,0,1,10.7,37.2Zm-1.2,0a.43.43,0,0,1,.4-.4h0a.43.43,0,0,1,.4.4h0a.43.43,0,0,1-.4.4h0A.43.43,0,0,1,9.5,37.2Zm-1.2,0a.43.43,0,0,1,.4-.4h0c.2,0,.3.2.3.4H9a.43.43,0,0,1-.4.4h0C8.4,37.6,8.3,37.4,8.3,37.2ZM7,37.2a.43.43,0,0,1,.4-.4h0a.43.43,0,0,1,.4.4h0a.43.43,0,0,1-.4.4h0A.43.43,0,0,1,7,37.2Zm-1.2,0a.43.43,0,0,1,.4-.4h0a.43.43,0,0,1,.4.4h0a.43.43,0,0,1-.4.4h0A.43.43,0,0,1,5.8,37.2Zm-1.2,0a.43.43,0,0,1,.4-.4H5a.43.43,0,0,1,.4.4h0a.43.43,0,0,1-.4.4H5A.37.37,0,0,1,4.6,37.2Z" transform="translate(-0.6 -16)"/>
      <path d="M27.2,37.6a.37.37,0,0,1-.3-.1l-.1-.1v-.5h.7a.37.37,0,0,1,.1.3v.1a.1.1,0,0,1-.1.1C27.4,37.5,27.3,37.6,27.2,37.6Z" transform="translate(-0.6 -16)"/>
    </g>
  </g>
  <g>
    <polygon class="d" points="181 26.7 345.4 26.7 345.4 32.6 181 32.6 181 26.7"/>
    <line class="b" x1="181" y1="26.7" x2="345.4" y2="26.7"/>
    <g>
      <path class="e" d="M188.5,30.3a9.14,9.14,0,0,1-4.3-.9l1.1-3.2a6,6,0,0,0,2.4.6c.7,0,1.2-.2,1.2-.7,0-1.6-4.6-1.4-4.6-5.6,0-2.5,2-4.5,5.2-4.5a8.55,8.55,0,0,1,3.8.8l-1,2.8a5,5,0,0,0-2.1-.5c-.8,0-1.3.3-1.3.8,0,1.6,4.8,1.3,4.8,5.6C193.7,28.3,191.7,30.3,188.5,30.3Z" transform="translate(-0.6 -16)"/>
      <path class="e" d="M201.5,19.4V30.1h-4.6V19.4h-2.1V16.3h8.8v3.1Z" transform="translate(-0.6 -16)"/>
      <path class="e" d="M211.7,30.1l-.4-2h-3.4l-.5,2H203l4.3-13.8h5l4.3,13.8Zm-1.8-8.4q-.15-1.05-.3-1.8h0a7.39,7.39,0,0,1-.3,1.8l-.9,3.8h2.3Z" transform="translate(-0.6 -16)"/>
      <path class="e" d="M222,30.3a12.62,12.62,0,0,1-4.6-.8V16.9a13,13,0,0,1,4.6-.8c4.2,0,6.6,2.6,6.6,7.1S226.2,30.3,222,30.3Zm.3-11.2H222V27h.3c1.1,0,1.7-1,1.7-4S223.5,19.1,222.3,19.1Z" transform="translate(-0.6 -16)"/>
      <path class="e" d="M236.1,19.4V30.1h-4.6V19.4h-2.1V16.3h8.8v3.1Z" transform="translate(-0.6 -16)"/>
      <path class="e" d="M238.3,24.8V21.6h5.9v3.2Z" transform="translate(-0.6 -16)"/>
      <path class="e" d="M249.7,30.3a9.14,9.14,0,0,1-4.3-.9l1.1-3.2a6,6,0,0,0,2.4.6c.7,0,1.2-.2,1.2-.7,0-1.6-4.6-1.4-4.6-5.6,0-2.5,2-4.5,5.2-4.5a8.55,8.55,0,0,1,3.8.8l-1,2.8a5,5,0,0,0-2.1-.5c-.8,0-1.3.3-1.3.8,0,1.6,4.8,1.3,4.8,5.6C255,28.3,252.9,30.3,249.7,30.3Z" transform="translate(-0.6 -16)"/>
      <path class="e" d="M261.5,25.4h-.4v4.7h-4.5V16.9a14,14,0,0,1,4.9-.8c4.4,0,6,2.2,6,4.7S265.6,25.4,261.5,25.4Zm.1-6.7h-.4v4.1h.4c1.1,0,1.6-.7,1.6-2.1S262.7,18.7,261.6,18.7Z" transform="translate(-0.6 -16)"/>
      <path class="e" d="M269.1,30.1V16.3h4.6V30.1Z" transform="translate(-0.6 -16)"/>
      <path class="e" d="M275.9,30.1V16.3h7.7v3.1h-3v2.2h2.5v3h-2.5V27h3v3.1Z" transform="translate(-0.6 -16)"/>
      <path class="e" d="M291.5,30.3c-5,0-6.7-3.4-6.7-7.1S287.2,16,292,16a7.76,7.76,0,0,1,3.9.9l-1.2,2.9a4.47,4.47,0,0,0-2.2-.5c-2.2,0-3.1,1.7-3.1,4.2,0,2.1.7,3.5,1.9,3.5a.6.6,0,0,0,.4-.1V24.2h-1V21.5h5.2v7.8A8.2,8.2,0,0,1,291.5,30.3Z" transform="translate(-0.6 -16)"/>
      <path class="e" d="M297.9,30.1V16.3h7.7v3.1h-3v2.2h2.5v3h-2.5V27h3v3.1Z" transform="translate(-0.6 -16)"/>
      <path class="e" d="M307.4,30.1V16.3H312V27h2.9v3.1Z" transform="translate(-0.6 -16)"/>
    </g>
    <g>
      <path d="M211,40.1a3.65,3.65,0,0,1-1.5-.3l1.1-5.4a4.15,4.15,0,0,1,1.6-.3c1.3,0,1.9.9,1.9,2.2C214.1,37.8,213.4,40.1,211,40.1Zm1.1-5.5a2,2,0,0,0-.8.1l-.9,4.7a1.7,1.7,0,0,0,.7.1,2,2,0,0,0,1.8-1.4,7.11,7.11,0,0,0,.4-2A1.21,1.21,0,0,0,212.1,34.6Z" transform="translate(-0.6 -16)"/>
      <path d="M218.4,37.6l-3,.4v.3a1.08,1.08,0,0,0,1.1,1.2,2.38,2.38,0,0,0,1.2-.3l.1.5a3.19,3.19,0,0,1-1.4.3,1.61,1.61,0,0,1-1.7-1.8c0-1.3.7-3,2.3-3,.9,0,1.4.5,1.4,1.5A1.38,1.38,0,0,1,218.4,37.6ZM217,35.8c-.8,0-1.3.7-1.5,1.8l2.3-.3a4.33,4.33,0,0,1,.1-.5C217.8,36.2,217.6,35.8,217,35.8Z" transform="translate(-0.6 -16)"/>
      <path d="M221.6,36c-.2,0-.3-.1-.4-.1a1.27,1.27,0,0,0-.6.1l-.8,4H219l.8-4.3a4.15,4.15,0,0,1,1.6-.3h.4Z" transform="translate(-0.6 -16)"/>
      <path d="M226.5,40H224l1.1-5.8h.8l-1,5.3h1.8Z" transform="translate(-0.6 -16)"/>
      <path d="M228.9,40.1c-1,0-1.4-.7-1.4-1.7s.5-3.1,2.3-3.1c1,0,1.4.7,1.4,1.7S230.8,40.1,228.9,40.1Zm.8-4.2a1.27,1.27,0,0,0-1.1.9,5.93,5.93,0,0,0-.4,1.7c0,.7.2,1.1.8,1.1a1.27,1.27,0,0,0,1.1-.9,5.93,5.93,0,0,0,.4-1.7C230.5,36.3,230.3,35.9,229.7,35.9Z" transform="translate(-0.6 -16)"/>
      <path d="M233.7,37.7l1.5,2.4h-.8L233,37.8h0l-.5,2.3h-.7l1.3-6.7h.7l-.8,4.2h0l2.1-2.1h.9Z" transform="translate(-0.6 -16)"/>
      <path d="M239.6,36.9l-.6,2.9a3.34,3.34,0,0,1-1.5.3c-.9,0-1.5-.3-1.5-1.2a1.25,1.25,0,0,1,.6-1.1,4.47,4.47,0,0,1,2.3-.7l.1-.3v-.3c0-.4-.3-.6-.8-.6a2.66,2.66,0,0,0-1.2.3l-.1-.5a3.53,3.53,0,0,1,1.4-.3c.9,0,1.4.4,1.4,1.1C239.6,36.6,239.6,36.7,239.6,36.9ZM237,38a1.27,1.27,0,0,0-.4.9c0,.6.4.8.9.8a1.88,1.88,0,0,0,.8-.2l.4-2.1A5.56,5.56,0,0,0,237,38Z" transform="translate(-0.6 -16)"/>
      <path d="M240.9,40h-.7l1.3-6.7h.7Z" transform="translate(-0.6 -16)"/>
      <path d="M245.9,36.9l-.6,2.9a3.34,3.34,0,0,1-1.5.3c-.9,0-1.5-.3-1.5-1.2a1.25,1.25,0,0,1,.6-1.1,4.47,4.47,0,0,1,2.3-.7l.1-.3v-.3c0-.4-.3-.6-.8-.6a2.66,2.66,0,0,0-1.2.3l-.1-.5a3.53,3.53,0,0,1,1.4-.3c.9,0,1.4.4,1.4,1.1C245.9,36.6,245.9,36.7,245.9,36.9ZM243.3,38a1.27,1.27,0,0,0-.4.9c0,.6.4.8.9.8a1.88,1.88,0,0,0,.8-.2l.4-2.1A5.56,5.56,0,0,0,243.3,38Z" transform="translate(-0.6 -16)"/>
      <path d="M250.4,37l-.6,3.1H249l.6-3.1c0-.1.1-.3.1-.4,0-.4-.2-.7-.9-.7a1.08,1.08,0,0,0-.8.2l-.8,4h-.7l.8-4.3a4.15,4.15,0,0,1,1.6-.3c1,0,1.5.5,1.5,1.2Z" transform="translate(-0.6 -16)"/>
      <path d="M251.7,39.6h2l-.1.5h-2.9l2.7-4.1h-1.8l.1-.5h2.7Z" transform="translate(-0.6 -16)"/>
      <path d="M258.3,37.6l-3,.4v.3a1.08,1.08,0,0,0,1.1,1.2,2.66,2.66,0,0,0,1.2-.3l.1.5a3.19,3.19,0,0,1-1.4.3,1.61,1.61,0,0,1-1.7-1.8c0-1.3.7-3,2.3-3,.9,0,1.4.5,1.4,1.5A1.38,1.38,0,0,1,258.3,37.6Zm-1.4-1.8c-.8,0-1.3.7-1.5,1.8l2.3-.3a4.33,4.33,0,0,1,.1-.5C257.7,36.2,257.4,35.8,256.9,35.8Z" transform="translate(-0.6 -16)"/>
      <path d="M259.7,40H259l.9-4.6h.7Zm.7-5.4a.43.43,0,0,1-.4-.4.47.47,0,0,1,.5-.5.43.43,0,0,1,.4.4A.54.54,0,0,1,260.4,34.6Z" transform="translate(-0.6 -16)"/>
      <path d="M264.2,40.1a1.93,1.93,0,0,1-2.1,1.8,3.19,3.19,0,0,1-1.4-.3l.3-.5a1.93,1.93,0,0,0,1,.3,1.33,1.33,0,0,0,1.4-1.2l.1-.3a2.39,2.39,0,0,1-.9.2c-.9,0-1.4-.7-1.4-1.7s.6-3.1,2.6-3.1a2.5,2.5,0,0,1,1.3.3Zm-.6-4.3a1.51,1.51,0,0,0-1.4.9,5.26,5.26,0,0,0-.4,1.7c0,.7.2,1.2,1,1.2a1.88,1.88,0,0,0,.8-.2l.7-3.5C264.1,35.9,263.9,35.8,263.6,35.8Z" transform="translate(-0.6 -16)"/>
      <path d="M269.3,37.6l-3,.4v.3a1.08,1.08,0,0,0,1.1,1.2,2.38,2.38,0,0,0,1.2-.3l.1.5a3.19,3.19,0,0,1-1.4.3,1.61,1.61,0,0,1-1.7-1.8c0-1.3.7-3,2.3-3,.9,0,1.4.5,1.4,1.5A2.7,2.7,0,0,1,269.3,37.6Zm-1.4-1.8c-.8,0-1.3.7-1.5,1.8l2.3-.3v-.5C268.7,36.2,268.4,35.8,267.9,35.8Z" transform="translate(-0.6 -16)"/>
      <path d="M272.4,36c-.2,0-.3-.1-.4-.1a1.27,1.27,0,0,0-.6.1l-.8,4h-.7l.8-4.3a4.15,4.15,0,0,1,1.6-.3h.4Z" transform="translate(-0.6 -16)"/>
      <path d="M277.7,33.9h0c-.5,0-.8.2-1,.9l-.1.7h.8l-.1.5h-.8l-.8,4.1H275l.8-4.1h-.5l.1-.5h.5l.1-.7a1.57,1.57,0,0,1,1.7-1.4h.2Z" transform="translate(-0.6 -16)"/>
      <path d="M280.7,39.8a3.81,3.81,0,0,1-1.6.3c-.9,0-1.4-.4-1.4-1.2a.6.6,0,0,1,.1-.4l.6-3h.7l-.6,3v.4c0,.5.3.7.8.7a1.08,1.08,0,0,0,.8-.2l.8-4h.7Zm-1.4-4.9a.32.32,0,0,1-.3-.3.43.43,0,0,1,.4-.4.32.32,0,0,1,.3.3C279.8,34.6,279.6,34.9,279.3,34.9Zm1.4,0a.32.32,0,0,1-.3-.3.43.43,0,0,1,.4-.4.32.32,0,0,1,.3.3A.42.42,0,0,1,280.7,34.9Z" transform="translate(-0.6 -16)"/>
      <path d="M284.4,36c-.2,0-.3-.1-.4-.1s-.5,0-.6.1l-.8,4h-.7l.8-4.3a4.15,4.15,0,0,1,1.6-.3h.4Z" transform="translate(-0.6 -16)"/>
      <path d="M288.9,37l1.7,3.1h-.9l-1.5-3h0l-.6,3h-.8l1.1-5.8h.8l-.5,2.7h0l2.5-2.7h.9Z" transform="translate(-0.6 -16)"/>
      <path d="M295,36.9l-.6,2.9a3.34,3.34,0,0,1-1.5.3c-.9,0-1.5-.3-1.5-1.2a1.25,1.25,0,0,1,.6-1.1,4.47,4.47,0,0,1,2.3-.7l.1-.3v-.3c0-.4-.3-.6-.8-.6a2.38,2.38,0,0,0-1.2.3l-.1-.5a3.53,3.53,0,0,1,1.4-.3c.9,0,1.4.4,1.4,1.1C295,36.6,295,36.7,295,36.9ZM292.4,38a1.27,1.27,0,0,0-.4.9c0,.6.4.8.9.8a1.88,1.88,0,0,0,.8-.2l.4-2.1A5.56,5.56,0,0,0,292.4,38Z" transform="translate(-0.6 -16)"/>
      <path d="M299.2,36.9l-.6,2.9a3.34,3.34,0,0,1-1.5.3c-.9,0-1.5-.3-1.5-1.2a1.25,1.25,0,0,1,.6-1.1,4.47,4.47,0,0,1,2.3-.7l.1-.3v-.3c0-.4-.3-.6-.8-.6a2.38,2.38,0,0,0-1.2.3l-.1-.5a3.53,3.53,0,0,1,1.4-.3c.9,0,1.4.4,1.4,1.1C299.2,36.6,299.2,36.7,299.2,36.9ZM296.7,38a1.27,1.27,0,0,0-.4.9c0,.6.4.8.9.8a1.88,1.88,0,0,0,.8-.2l.4-2.1A4.07,4.07,0,0,0,296.7,38Z" transform="translate(-0.6 -16)"/>
      <path d="M302.4,36c-.2,0-.3-.1-.4-.1s-.5,0-.6.1l-.8,4h-.7l.8-4.3a4.15,4.15,0,0,1,1.6-.3h.4Z" transform="translate(-0.6 -16)"/>
      <path d="M305.6,36.1a1.08,1.08,0,0,0-.8-.2.82.82,0,0,0-.9.8c0,.8,1.5.7,1.5,1.9a1.62,1.62,0,0,1-1.8,1.5,2.38,2.38,0,0,1-1.2-.3l.3-.5a1.61,1.61,0,0,0,.9.3.92.92,0,0,0,1-.9c0-.9-1.5-.7-1.5-1.9a1.48,1.48,0,0,1,1.6-1.4,2,2,0,0,1,1.1.3Z" transform="translate(-0.6 -16)"/>
      <path d="M308.7,35.9h-.8l-.6,2.9v.3a.37.37,0,0,0,.4.4h.3l-.1.5c-.1,0-.3.1-.4.1a.84.84,0,0,1-.9-.9v-.4l.6-2.9h-.5l.1-.5h.5l.2-1.1.8-.2-.2,1.3h.8Z" transform="translate(-0.6 -16)"/>
    </g>
    <g>
      <path d="M182.4,37.5h-.1a.1.1,0,0,1-.1-.1.37.37,0,0,1-.1-.3v-.4a.45.45,0,0,1,.5,0v.4a.37.37,0,0,1-.1.3l-.1.1Z" transform="translate(-0.6 -16)"/>
      <path d="M184.5,37.1a.43.43,0,0,1,.4-.4h0a.43.43,0,0,1,.4.4h0a.43.43,0,0,1-.4.4h0A.43.43,0,0,1,184.5,37.1Zm-1.2,0a.43.43,0,0,1,.4-.4h0a.43.43,0,0,1,.4.4h0a.43.43,0,0,1-.4.4h0A.43.43,0,0,1,183.3,37.1Z" transform="translate(-0.6 -16)"/>
      <path d="M206.8,37.1a.43.43,0,0,1,.4-.4h0a.43.43,0,0,1,.4.4h0a.43.43,0,0,1-.4.4h0A.37.37,0,0,1,206.8,37.1Zm-1.3,0a.43.43,0,0,1,.4-.4h0a.43.43,0,0,1,.4.4h0a.43.43,0,0,1-.4.4h0A.43.43,0,0,1,205.5,37.1Zm-1.2,0a.43.43,0,0,1,.4-.4h0a.43.43,0,0,1,.4.4h0a.43.43,0,0,1-.4.4h0A.43.43,0,0,1,204.3,37.1Zm-1.2,0a.43.43,0,0,1,.4-.4h0a.43.43,0,0,1,.4.4h0a.43.43,0,0,1-.4.4h0A.37.37,0,0,1,203.1,37.1Zm-1.3,0a.43.43,0,0,1,.4-.4h0a.43.43,0,0,1,.4.4h0a.43.43,0,0,1-.4.4h0A.43.43,0,0,1,201.8,37.1Zm-1.2,0a.43.43,0,0,1,.4-.4h0a.43.43,0,0,1,.4.4h0a.43.43,0,0,1-.4.4h0A.43.43,0,0,1,200.6,37.1Zm-1.2,0a.43.43,0,0,1,.4-.4h0a.43.43,0,0,1,.4.4h0a.43.43,0,0,1-.4.4h0A.37.37,0,0,1,199.4,37.1Zm-1.3,0a.43.43,0,0,1,.4-.4h0a.43.43,0,0,1,.4.4h0a.43.43,0,0,1-.4.4h0A.43.43,0,0,1,198.1,37.1Zm-1.2,0a.43.43,0,0,1,.4-.4h0a.43.43,0,0,1,.4.4h0a.43.43,0,0,1-.4.4h0A.43.43,0,0,1,196.9,37.1Zm-1.3,0a.43.43,0,0,1,.4-.4h0a.43.43,0,0,1,.4.4h0a.43.43,0,0,1-.4.4h0A.43.43,0,0,1,195.6,37.1Zm-1.2,0a.43.43,0,0,1,.4-.4h0a.43.43,0,0,1,.4.4h0a.43.43,0,0,1-.4.4h0A.43.43,0,0,1,194.4,37.1Zm-1.2,0a.43.43,0,0,1,.4-.4h0a.43.43,0,0,1,.4.4h0a.43.43,0,0,1-.4.4h0A.37.37,0,0,1,193.2,37.1Zm-1.3,0a.43.43,0,0,1,.4-.4h0a.43.43,0,0,1,.4.4h0a.43.43,0,0,1-.4.4h0A.43.43,0,0,1,191.9,37.1Zm-1.2,0a.43.43,0,0,1,.4-.4h0a.43.43,0,0,1,.4.4h0a.43.43,0,0,1-.4.4h0A.43.43,0,0,1,190.7,37.1Zm-1.2,0a.43.43,0,0,1,.4-.4h0a.43.43,0,0,1,.4.4h0a.43.43,0,0,1-.4.4h0A.37.37,0,0,1,189.5,37.1Zm-1.3,0a.43.43,0,0,1,.4-.4h0a.43.43,0,0,1,.4.4h0a.43.43,0,0,1-.4.4h0A.43.43,0,0,1,188.2,37.1Zm-1.2,0a.43.43,0,0,1,.4-.4h0a.43.43,0,0,1,.4.4h0a.43.43,0,0,1-.4.4h0A.43.43,0,0,1,187,37.1Zm-1.2,0a.43.43,0,0,1,.4-.4h0a.43.43,0,0,1,.4.4h0a.43.43,0,0,1-.4.4h0A.37.37,0,0,1,185.8,37.1Z" transform="translate(-0.6 -16)"/>
      <path d="M208.4,37.5h-.1a.1.1,0,0,1-.1-.1.37.37,0,0,1-.1-.3v-.4a.37.37,0,0,1,.3-.1h.3V37a.37.37,0,0,1-.1.3l-.1.1A.1.1,0,0,1,208.4,37.5Z" transform="translate(-0.6 -16)"/>
    </g>
  </g>
</svg>
