<svg xmlns="http://www.w3.org/2000/svg" viewBox="0 0 20 20"><path d="M17.46 9.31a1.8 1.8 0 0 0-1.37-1.45l-1.18-3c-.48-1.19-.69-1.45-1.91-1.46H7.19a1.81 1.81 0 0 0-2.1 1.48l-1.17 3a1.8 1.8 0 0 0-1.38 1.43c-.08 1.52 0 3.05 0 4.57l1.19.18c0 .43 0 .83.06 1.22a1.14 1.14 0 1 0 2.27 0c0-.42.07-.85.11-1.35H14v1.35a1.11 1.11 0 0 0 1.07 1.27 1.12 1.12 0 0 0 1.15-1.29c0-.4 0-.8.05-1.22l1.18-.18c.03-1.49.09-3.02.01-4.55zM4.91 11.46a1.18 1.18 0 0 1-1.13-1.16A1.23 1.23 0 0 1 5 9.09a1.17 1.17 0 0 1 1.1 1.18 1.13 1.13 0 0 1-1.19 1.19zM10.15 8h-5c.38-1 .7-2.05 1.1-3a1.05 1.05 0 0 1 .76-.48h6.02a.87.87 0 0 1 .61.55C14.1 6 14.42 7 14.8 8h-4.65zm4.94 3.46a1.13 1.13 0 0 1-1.18-1.18A1.17 1.17 0 0 1 15 9.09a1.23 1.23 0 0 1 1.2 1.21 1.18 1.18 0 0 1-1.11 1.16z" fill="#2f2f2f"/></svg>