<svg xmlns="http://www.w3.org/2000/svg" viewBox="0 0 20 20"><path d="M10.32 3.31a3.2 3.2 0 0 0-3.71.93l-2.2 2.2A1.21 1.21 0 0 0 4 7.63c-.3-.23-.57-.24-1 .2l-.47.47-.03.46 1.73 1.74.43-.1.47-.47c.43-.44.46-.68.25-.93a1.23 1.23 0 0 0 1.13-.44l2.2-2.2-1-1a6.42 6.42 0 0 1 2.61-2.05zm6.81 11.45L13 10.67 14.75 9a2.25 2.25 0 0 0 2.61-3L16.3 7.09l-1.19-.22-.22-1.19 1.06-1.06A2.25 2.25 0 0 0 13 7.23l-1.69 1.71-2.19-2.19-1.8 1.8 2.19 2.19-4.12 4.12a1.22 1.22 0 0 0 1.72 1.72l4.12-4.12 4.1 4.1a1.27 1.27 0 0 0 1.8-1.8zM6.51 16a.35.35 0 1 1 0-.5.35.35 0 0 1 0 .5z" fill="#2f2f2f"/></svg>