<svg xmlns="http://www.w3.org/2000/svg" viewBox="0 0 20 20"><path d="M10.94 16a.94.94 0 1 0-.28.66.9.9 0 0 0 .28-.66zm2.44-1.87V5.88A.38.38 0 0 0 13 5.5H7a.38.38 0 0 0-.38.38v8.25a.38.38 0 0 0 .38.37h6a.38.38 0 0 0 .38-.37zm-2.25-9.94a.17.17 0 0 0-.19-.19H9.06a.17.17 0 0 0-.19.19.17.17 0 0 0 .19.19h1.87a.17.17 0 0 0 .2-.19zM14.5 4v12a1.52 1.52 0 0 1-1.5 1.5H7A1.52 1.52 0 0 1 5.5 16V4a1.44 1.44 0 0 1 .45-1.05A1.44 1.44 0 0 1 7 2.5h6a1.44 1.44 0 0 1 1.05.45A1.44 1.44 0 0 1 14.5 4z" fill="#2f2f2f"/></svg>