<svg xmlns="http://www.w3.org/2000/svg" viewBox="0 0 20 20"><defs><style>.cls-1{fill:#2f2f2f}</style></defs><path class="cls-1" d="M16.08 11.91l.72-1-.91-.91-1 .72-.62-.29-.19-1.2h-1.35l-.19 1.2a2.41 2.41 0 0 0-.62.24l-1-.72-.92.91.72 1c-.1.19-.19.43-.29.62l-1.2.24V14l1.2.19a1.48 1.48 0 0 0 .29.62l-.72 1 .91.91 1-.72a3.32 3.32 0 0 0 .62.24l.19 1.24H14l.19-1.2a1.48 1.48 0 0 0 .64-.28l1 .72.91-.91-.72-1a3.32 3.32 0 0 0 .24-.62l1.25-.19v-1.28l-1.2-.19a2.4 2.4 0 0 0-.23-.62zm-2.73 3.42a1.94 1.94 0 1 1 1.94-1.94 1.87 1.87 0 0 1-1.94 1.94z"/><path class="cls-1" d="M8.73 12.72a.51.51 0 0 1 .41-.5l.94-.22v-.12l-.55-.76a.51.51 0 0 1 .05-.66l.91-.91a.51.51 0 0 1 .66-.05l.85.58h.12l.14-.88a.51.51 0 0 1 .5-.43h1.15V7.38a.51.51 0 0 0-.43-.5l-1.18-.19c0-.1-.07-.19-.11-.28l.72-1a.51.51 0 0 0-.05-.66L11.7 3.6a.51.51 0 0 0-.7-.05l-1 .73-.1-.06-.14-.07-.2-1.23a.51.51 0 0 0-.5-.43H7.38a.51.51 0 0 0-.5.43L6.69 4.1l-.28.11-1-.72a.51.51 0 0 0-.66.05L3.61 4.68a.51.51 0 0 0-.05.65l.73 1-.05.12-.07.15-1.25.25a.51.51 0 0 0-.41.5V9a.51.51 0 0 0 .43.5l1.17.18a2.29 2.29 0 0 0 .14.31l-.7 1a.51.51 0 0 0 .05.65l1.14 1.14a.51.51 0 0 0 .66.05l1-.73.29.1.19 1.24a.51.51 0 0 0 .5.43h1.35v-1.15zm-2.78-4.5a2.22 2.22 0 1 1 4.43 0 1.92 1.92 0 0 1-.52 1.46 2.31 2.31 0 0 1-1.7.72 2.24 2.24 0 0 1-2.21-2.18z"/></svg>