<svg xmlns="http://www.w3.org/2000/svg" viewBox="0 0 20 20"><path d="M10 17.5a6.88 6.88 0 0 1-2.91-.61 7.33 7.33 0 0 1-4-4A7.68 7.68 0 0 1 2.5 10a6.88 6.88 0 0 1 .61-2.91A7.9 7.9 0 0 1 4.7 4.7a7.13 7.13 0 0 1 2.39-1.59A7.68 7.68 0 0 1 10 2.5a6.88 6.88 0 0 1 2.91.61A7.9 7.9 0 0 1 15.3 4.7a7.13 7.13 0 0 1 1.59 2.39A7.87 7.87 0 0 1 17.5 10a7 7 0 0 1-.61 2.91 7.33 7.33 0 0 1-4 4 7.68 7.68 0 0 1-2.89.59zM15.2 6a6.44 6.44 0 0 0-2.58-2L10 5.31 7.37 4A6.78 6.78 0 0 0 4.8 6l.51.25v2.81l-1.83 1.41a6.32 6.32 0 0 0 1.17 3.28h2.54l.94 2.34v.19a6.39 6.39 0 0 0 3.75 0v-.19l.94-2.34h2.58a6.47 6.47 0 0 0 1.17-3.28l-1.88-1.41V6.25zm-6.65 5.88l-.89-2.63L10 7.66l2.34 1.59-.89 2.63h-2.9z" fill="#2f2f2f"/></svg>