<svg xmlns="http://www.w3.org/2000/svg" viewBox="0 0 20 20"><path d="M17.5 7.93a4 4 0 0 0-4-4A4.37 4.37 0 0 0 10 6.2a4.34 4.34 0 0 0-3.46-2.25 4 4 0 0 0-4 4 1.76 1.76 0 0 0 0 .36s0 5.87 7.5 7.79a10.18 10.18 0 0 0 6-3.79h1a.5.5 0 0 0 0-1h-3.75a.5.5 0 0 1-.47-.31l-.37-1-1.72 3a.5.5 0 0 1-.44.25.5.5 0 0 1-.43-.33L8.33 8.6l-.9 1.45a.5.5 0 0 1-.42.24H5a.5.5 0 1 1 0-1h1.72L8 7.19a.5.5 0 0 1 .9.1l1.47 4.27 1.7-3a.49.49 0 0 1 .47-.25.5.5 0 0 1 .46.29l.63 1.69h3.43a6.89 6.89 0 0 0 .43-2 1.71 1.71 0 0 0 .01-.36z" fill="#2f2f2f"/></svg>