<svg xmlns="http://www.w3.org/2000/svg" viewBox="0 0 20 20"><path d="M13.09 7.74A4.4 4.4 0 0 0 10 9a4.41 4.41 0 1 0 0 6.3 4.41 4.41 0 1 0 3.09-7.56zm-2.76 4.41a3.38 3.38 0 0 1-.33 1.44 3.31 3.31 0 0 1 0-2.88 3.38 3.38 0 0 1 .33 1.44zm-3.42 3.42a3.41 3.41 0 1 1 2.46-5.78 4.36 4.36 0 0 0 0 4.73 3.4 3.4 0 0 1-2.46 1.05zm6.17 0a3.4 3.4 0 0 1-2.45-1 4.36 4.36 0 0 0 0-4.73 3.41 3.41 0 1 1 2.46 5.73zM9.21 4.66A1.21 1.21 0 0 0 8 3.44a1.29 1.29 0 0 0-1 .67 1.3 1.3 0 0 0-1-.68 1.22 1.22 0 0 0-1.2 1.23 1.2 1.2 0 0 0 0 .15A2.59 2.59 0 0 0 7 7.13a2.59 2.59 0 0 0 2.21-2.32 1.23 1.23 0 0 0 0-.15z" fill="#2f2f2f"/></svg>