<svg xmlns="http://www.w3.org/2000/svg" viewBox="0 0 20 20"><path d="M9.17 11.59a1.22 1.22 0 0 0-.27 1.7 1.21 1.21 0 0 0 1.35.43 1.22 1.22 0 0 0 .63-1.87 1.22 1.22 0 0 0-1.71-.26z" fill="none"/><path d="M17.39 13.88a8.63 8.63 0 0 0-4.33-1.31h-.38A5.43 5.43 0 1 0 11 14.44c.35-.09.67-.15.86-.19a4.43 4.43 0 0 1 3.37.64.25.25 0 0 0 .24 0l1.89-.63a.25.25 0 0 0 .03-.38zM7.91 5.65a1.2 1.2 0 1 1-1.2 1.2 1.2 1.2 0 0 1 1.2-1.2zm-4.13 3a1.2 1.2 0 1 1 .77 1.52 1.2 1.2 0 0 1-.77-1.53zM7 13.23a1.2 1.2 0 1 1-.27-1.68A1.2 1.2 0 0 1 7 13.23zm.87-2.56a.67.67 0 1 1 .71-.67.67.67 0 0 1-.67.67zm2.81 2.54a1 1 0 0 1-.61.44 1.19 1.19 0 0 1-1.33-.43 1.2 1.2 0 1 1 1.95-1.41 1.19 1.19 0 0 1 .02 1.41zm.55-3.06A1.2 1.2 0 1 1 12 8.64a1.2 1.2 0 0 1-.74 1.52z" fill="#2f2f2f"/></svg>