<svg xmlns="http://www.w3.org/2000/svg" viewBox="0 0 20 20"><defs><style>.cls-1{fill:#2f2f2f}.cls-2{fill:none}</style></defs><path class="cls-1" d="M11.31 5.58h2.42v.5h-2.42zm0 1.43h2.42v.5h-2.42zm0 1.43h2.42v.5h-2.42zM5.94 9.87h7.79v.5H5.94zm0 1.43h7.79v.5H5.94zm0 1.43h7.79v.5H5.94zm0 1.44h7.79v.5H5.94z"/><path class="cls-2" d="M7.93 6.87a.5.5 0 0 1 .48 0l1 .57V4.17h-2.5v3.27z"/><path class="cls-2" d="M10.2 8.72a.5.5 0 0 1-.25.07.5.5 0 0 1-.25-.06l-1.52-.85-1.53.84a.5.5 0 0 1-.74-.44V4.17H5v12.31h10V4.17h-4.56v4.12a.5.5 0 0 1-.24.43z"/><path class="cls-1" d="M15.47 3.17h-5V3a.5.5 0 0 0-.5-.5H6.41a.5.5 0 0 0-.5.5v.17H4.53a.5.5 0 0 0-.5.5V17a.5.5 0 0 0 .5.5h10.94A.5.5 0 0 0 16 17V3.67a.5.5 0 0 0-.53-.5zm-6 1v3.27l-1-.57a.5.5 0 0 0-.48 0l-1 .57V3.52h2.45v.65zM15 16.48H5V4.17h.91v4.12a.5.5 0 0 0 .74.44l1.53-.84 1.52.84a.5.5 0 0 0 .24.06.5.5 0 0 0 .5-.5V4.17H15v12.31z"/></svg>