<svg xmlns="http://www.w3.org/2000/svg" viewBox="0 0 20 20"><defs><style>.cls-1{fill:#2f2f2f}</style></defs><path class="cls-1" d="M10.06 17.5a7.11 7.11 0 0 1-7-5.8 5.79 5.79 0 0 1-.12-1.09V2.74a.25.25 0 0 1 .21-.24h13.66a.25.25 0 0 1 .24.19.77.77 0 0 1 0 .24v7.69a7.1 7.1 0 0 1-6.42 6.85zM3.65 3.3v7.14a6.28 6.28 0 0 0 2.08 4.62 6.4 6.4 0 0 0 4.83 1.63 6.4 6.4 0 0 0 5.75-6.22V3.3z"/><path class="cls-1" d="M10.17 7.47V4.15a.27.27 0 0 1 .33-.34h5a.28.28 0 0 1 .34.34v6.43a5.61 5.61 0 0 1-2.53 4.6.39.39 0 0 1-.53 0 5.77 5.77 0 0 1-2.55-4.84c-.08-.96-.06-1.91-.06-2.87zm3.23-1.83h.07l-.3.25-.22.11-.61.67a1.73 1.73 0 0 0-.45.56.85.85 0 0 1-.69.62.59.59 0 0 0-.36.32 3.63 3.63 0 0 0 .37 1 3 3 0 0 0 .52.53.61.61 0 0 0-.17-.85h-.06a1.23 1.23 0 0 1-.2-.43 2.48 2.48 0 0 1 .4-.1h.94c0 .14 0 .14-.75.26a6.44 6.44 0 0 0 .52.5c.19.15.44.23.62.39a1 1 0 0 1 .38.54 1.82 1.82 0 0 0 .8 1.57.6.6 0 0 1 .18.79 1.57 1.57 0 0 1-.51.87.61.61 0 0 0-.13.26c.44.18.58.13.71-.23s.28-.81.39-1.22a.82.82 0 0 0 0-.48 1 1 0 0 1 0-1.11.79.79 0 0 0 0-1c-.15-.22-.38-.38-.54-.59a4.35 4.35 0 0 1-.52-.87c-.17-.39-.07-.54.31-.74L14 7l.6-.22-.33-.48h.65l-.49-.73.33-.2a1 1 0 0 0-.15-.18l-.48-.3.18-.23c-.77-.16-1-.13-1.18.12l-.3-.51a2.66 2.66 0 0 1-.32.55 4.1 4.1 0 0 1-.66.51.51.51 0 0 0-.23.65L12 5.8l-.17.2zm1.21 1.63a6.6 6.6 0 0 1-.15.75.69.69 0 0 0 .28.93 6.2 6.2 0 0 1 .59.56.34.34 0 0 0 .17-.51.88.88 0 0 1 0-1.11A.6.6 0 0 0 15 7v.36zm-1.72 4.27h-1a.8.8 0 0 0-.56.64A.48.48 0 0 0 12 12a.51.51 0 0 1 .34-.13H13a.34.34 0 0 0 .22-.06 5.18 5.18 0 0 0 .23-1 2.22 2.22 0 0 0-.14-.81 1.67 1.67 0 0 0-.31-.39.93.93 0 0 0-.39.29 2.64 2.64 0 0 0 0 .87 4.68 4.68 0 0 0 .28.77zm-2.45-3.61h.14a.47.47 0 0 0 .33-.57.59.59 0 0 1 0-.34.35.35 0 0 1 .18-.22.32.32 0 0 1 .23.14c.11.15.19.33.31.53l.32-.57a7.68 7.68 0 0 0-.75-.56.37.37 0 0 0-.34 0 3.39 3.39 0 0 0-.39.85 3.14 3.14 0 0 0-.03.74zM9.8 6.48c0 1.64 0 3.29-.15 4.91a5.2 5.2 0 0 1-2.33 3.7.48.48 0 0 1-.65 0 6 6 0 0 1-1.54-1.61.33.33 0 0 1 0-.47 4.22 4.22 0 0 0 1.1-1.92A3.29 3.29 0 0 1 8 8.88a2.66 2.66 0 0 0 1.3-1.5l.38-.93zm-5.56 4.39V4.25a.37.37 0 0 1 .46-.45h4a.28.28 0 0 1 0 .1 4.73 4.73 0 0 0-1 2.15 2.6 2.6 0 0 1-1.33 1.79 3.14 3.14 0 0 0-1.66 2.05c-.1.34-.25.67-.38 1zm6.22 3.27a.42.42 0 0 1 .64.28.43.43 0 0 1-.17.58h-.15a.44.44 0 0 1 0 .62l-.1.08a.45.45 0 0 1-.64 0v-.06a.47.47 0 0 1-.65.15l-.08-.07a.41.41 0 0 1-.07-.66.47.47 0 0 1-.32-.66.44.44 0 0 1 .53-.33h.1a.44.44 0 0 1 .36-.51H10a.43.43 0 0 1 .46.53zm-.45 0a.61.61 0 0 0-.65.57.63.63 0 0 0 1.25.05.61.61 0 0 0-.61-.58z"/><circle class="cls-1" cx="9.98" cy="14.8" r=".42"/><circle class="cls-1" cx="9.3" cy="13.84" r=".14"/><circle class="cls-1" cx="10" cy="15.93" r=".14"/><circle class="cls-1" cx="10.67" cy="13.84" r=".14"/><circle class="cls-1" cx="8.91" cy="15.16" r=".14"/><circle class="cls-1" cx="11.08" cy="15.16" r=".14"/></svg>