<svg xmlns="http://www.w3.org/2000/svg" viewBox="0 0 20 20"><defs><style>.cls-1{fill:#2f2f2f}</style></defs><path class="cls-1" d="M15.48 6.2h-4.55l1-1.5a.38.38 0 0 0-.62-.42L10.13 6 8.68 3.47a.38.38 0 1 0-.68.37L9.37 6.2H4.52a2 2 0 0 0-2 2v6.52a2 2 0 0 0 2 2h11a2 2 0 0 0 2-2V8.2a2 2 0 0 0-2.04-2zm1 8.52a1 1 0 0 1-1 1h-11a1 1 0 0 1-1-1V8.2a1 1 0 0 1 1-1h11a1 1 0 0 1 1 1v6.52z"/><rect class="cls-1" x="4.39" y="8.27" width="8.38" height="6.38" rx="1" ry="1"/><rect class="cls-1" x="13.53" y="8.27" width="2.09" height="1.95" rx=".5" ry=".5"/><ellipse class="cls-1" cx="14.57" cy="11.98" rx=".75" ry=".7"/><ellipse class="cls-1" cx="14.57" cy="13.95" rx=".75" ry=".7"/></svg>