<svg version="1.1" xmlns="http://www.w3.org/2000/svg" x="0" y="0" viewBox="0 0 20 20" xml:space="preserve"><style type="text/css">.st0{fill:#2f2f2f}</style><g id="Ebene_1"><path class="st0" d="M5 9.2c0-.2-.2-.4-.4-.4h-.2l.4 4.2H5c.2 0 .4-.2.4-.5L5 9.2zm10.5-.3c-.2 0-.4.1-.4.4l-.3 3.4c0 .2.1.4.4.5h.1l.4-4.2-.2-.1z"/><path class="st0" d="M17.3 9.5c0-.2-.1-.4-.4-.5h-.2c0-3-3.8-5.5-6.7-5.5-2.9 0-6.7 2.4-6.7 5.4h-.2c-.2.1-.4.3-.4.5 0 0-.7 1.4.4 3.6.1.1.2.2.4.2l1.1-.1-.5-4.3c.1-2.4 3.5-4.4 5.9-4.4 2.4 0 5.9 2 5.9 4.6l-.4 4.2 1 .1c.2 0 .4-.1.4-.4 1-1.7.4-3.4.4-3.4zm-3.6 4.4h1.5v1.5h-1.5v1.1h-8V15h8v-1.1z"/><path d="M7.6 8.4c1.5 0 2.2.7 2.2 1.8 0 1-.7 1.5-1.4 1.8l.9 1.3c.2.2.4.5.6.5v.2H8.6l-1.2-1.8H7V14h-.8V9.3c0-.6-.2-.6-.5-.6v-.3h1.9zm0 3.3c.7 0 1.2-.4 1.2-1.4 0-.9-.5-1.4-1.4-1.4h-.3v2.8h.5zm4.6-3.3c1.6 0 2.2.7 2.2 1.9 0 1.3-1 1.9-2.4 1.9h-.2V14h-.9V9.3c0-.6-.2-.6-.5-.6v-.3h1.8zm-.2 3.4c.8 0 1.4-.2 1.4-1.4 0-1-.3-1.5-1.2-1.5h-.4v2.9c0-.1 0 0 .2 0z" fill-rule="evenodd" clip-rule="evenodd" fill="#2f2f2f"/></g></svg>