<svg xmlns="http://www.w3.org/2000/svg" viewBox="0 0 20 20"><path d="M17.13 11.22l-5.88-3.9V4.1A1.46 1.46 0 0 0 10 2.5a1.46 1.46 0 0 0-1.25 1.6v3.22l-5.88 3.9a.57.57 0 0 0-.25.47v.22a.57.57 0 0 0 .57.57h.18l5.38-1.78v2.92a3.73 3.73 0 0 0 .41 1.8L7.4 16.9a.55.55 0 0 0-.24.21v.1a.52.52 0 0 0 .27.24 1 1 0 0 0 .3 0 .74.74 0 0 0 .18 0l2.09-.86 2.15.89h.11a1 1 0 0 0 .3 0 .52.52 0 0 0 .27-.24v-.1a.67.67 0 0 0-.27-.21l-1.76-1.47a3.65 3.65 0 0 0 .45-1.86v-2.92l5.38 1.78h.18a.57.57 0 0 0 .57-.57v-.19a.57.57 0 0 0-.25-.48z" fill="#2f2f2f"/></svg>