<svg xmlns="http://www.w3.org/2000/svg" viewBox="0 0 20 20"><defs><style>.cls-1,.cls-2{fill:#2f2f2f}.cls-2{fill-rule:evenodd}</style></defs><path class="cls-1" d="M12.58 9.83h1.14v1.15h-1.14v.86h-6.3v-1.15h6.3v-.86z"/><path class="cls-2" d="M7 12.75a.76.76 0 0 1 .71.86.75.75 0 0 1-.71.85.76.76 0 0 1-.71-.86.76.76 0 0 1 .71-.85zm0 .13c-.25 0-.39.24-.39.72s.16.73.39.73.4-.23.4-.73-.19-.71-.4-.71z"/><path class="cls-1" d="M8.88 14.44h.26v-1.66h-.18v1.18l-.66-1.18h-.29v1.66h.18v-1.21l.69 1.21zm.7 0h.77v-.15h-.49v-1.51h-.28v1.66zm1.01 0h.28v-1.66h-.28v1.66zm1.58 0h.27v-1.66h-.19v1.18l-.66-1.18h-.29v1.66h.18v-1.21l.69 1.21zm.71 0h.84v-.15h-.56v-.65h.41v-.15h-.41v-.57h.49v-.14h-.77v1.66z"/><path class="cls-2" d="M7.79 5.54c1.19 0 1.75.53 1.75 1.4a1.42 1.42 0 0 1-1.05 1.37l.69 1a.75.75 0 0 0 .51.36v.16h-1l-.93-1.41h-.33v1.41H6.7v-3.6c0-.44-.17-.49-.42-.5v-.19h1.51zm0 2.54A.93.93 0 0 0 8.74 7a1 1 0 0 0-1.08-1.12h-.23v2.18a3 3 0 0 0 .36 0zm3.55-2.54c1.23 0 1.74.57 1.74 1.47 0 1-.75 1.46-1.9 1.46H11v1.36h-.71v-3.6c0-.43-.16-.5-.42-.5v-.19h1.48zm-.16 2.58A.92.92 0 0 0 12.28 7a.93.93 0 0 0-1-1.16H11v2.28h.16z"/><path class="cls-1" d="M14.5 3.5a2 2 0 0 1 2 2v9a2 2 0 0 1-2 2h-9a2 2 0 0 1-2-2v-9a2 2 0 0 1 2-2h9m0-1h-9a3 3 0 0 0-3 3v9a3 3 0 0 0 3 3h9a3 3 0 0 0 3-3v-9a3 3 0 0 0-3-3z"/></svg>