<svg xmlns="http://www.w3.org/2000/svg" viewBox="0 0 20 20"><defs><style>.cls-1{fill:#2f2f2f}</style></defs><path class="cls-1" d="M17 12.79h-.3V4.6h.3a.5.5 0 0 0 0-1h-6.25a.76.76 0 0 0-1.5 0H3a.5.5 0 0 0 0 1h.3v8.19H3a.5.5 0 0 0 0 1h4.4L6 16.33a.5.5 0 0 0 .21.68.5.5 0 0 0 .68-.21l.71-1.34h4.71l.71 1.34a.5.5 0 0 0 .98-.47l-1.4-2.54H17a.5.5 0 0 0 0-1zM4.31 4.6h11.38v8.19H4.31V4.6zM12.09 15H7.91l.62-1.17h2.94z"/><path class="cls-1" d="M8.2 6.31h5.66v.75H8.2zm0 2.01h5.66v.75H8.2zm0 2.01h5.66v.75H8.2z"/><circle class="cls-1" cx="6.63" cy="6.69" r=".56"/><circle class="cls-1" cx="6.63" cy="8.69" r=".56"/><circle class="cls-1" cx="6.63" cy="10.7" r=".56"/></svg>