<svg xmlns="http://www.w3.org/2000/svg" viewBox="0 0 20 20"><path d="M9.5 8.24a.5.5 0 0 1-.5-.49v-.13A3.23 3.23 0 0 1 10.73 5a1.71 1.71 0 0 0 1.1-1.24.49.49 0 0 1 .41-.55.5.5 0 0 1 .57.42c0 .12.13 1.22-1.58 2.22A2.25 2.25 0 0 0 10 7.63v.12a.5.5 0 0 1-.5.49zm7.38 3.16c-1-2.21-2.13-3.43-4.36-2.88a13 13 0 0 1-2.52.36 7.65 7.65 0 0 1-2.52-.36c-2.23-.52-3.33.65-4.36 2.86s-.75 4.53.63 5.17 3.33-.55 4.36-2.77h3.74c1 2.21 3 3.45 4.36 2.81s1.7-2.98.67-5.19zm-9.26.27a.13.13 0 0 1-.13.13h-.78v.78a.13.13 0 0 1-.13.13H6a.13.13 0 0 1-.13-.13v-.78H5a.13.13 0 0 1-.13-.13V11a.13.13 0 0 1 .13-.08h.82v-.79A.13.13 0 0 1 6 10h.58a.13.13 0 0 1 .13.13v.78h.78a.13.13 0 0 1 .13.13v.63zM13.77 10a.48.48 0 1 1-.48.48.48.48 0 0 1 .48-.48zm-.92 1.88a.48.48 0 1 1 .48-.48.48.48 0 0 1-.49.44zm.92.92a.48.48 0 1 1 .48-.48.48.48 0 0 1-.48.44zm.92-.92a.48.48 0 1 1 .48-.48.48.48 0 0 1-.48.44z" fill="#2f2f2f"/></svg>