<svg xmlns="http://www.w3.org/2000/svg" viewBox="0 0 20 20"><defs><style>.cls-1{fill:#2f2f2f}</style></defs><path class="cls-1" d="M17 6.82h-2.56V3.47a.5.5 0 0 0-.5-.5H6.06a.5.5 0 0 0-.5.5v6.6H3a.5.5 0 0 0-.5.5V17h1v-6h4.25v6h1v-6.43a.5.5 0 0 0-.5-.5H6.57V4h6.87v2.82H11.8a.5.5 0 0 0-.5.5V17h1V7.83h4.19V17h1V7.33a.5.5 0 0 0-.49-.51z"/><path class="cls-1" d="M7.38 5.04h.95v1.01h-.95zm0 1.94h.95v1.01h-.95zm0 1.94h.95v1.01h-.95zm4.42-3.88h.95v1.01h-.95zm-2.28 0h.96v1.01h-.96zm0 1.94h.96v1.01h-.96zm0 1.94h.96v1.01h-.96zM4.08 11.9h.96v1.01h-.96zm0 1.94h.96v1.01h-.96zm0 1.94h.96v1.01h-.96zm2.14-3.88h.95v1.01h-.95zm0 1.94h.95v1.01h-.95zm0 1.94h.95v1.01h-.95zm6.63-6.86h.95v1.01h-.95zm0 1.94h.95v1.01h-.95zm0 1.94h.95v1.01h-.95zm2.14-3.88h.96v1.01h-.96zm0 1.94h.96v1.01h-.96zm-2.14 3.95h.95v1.01h-.95zm2.14 0h.96v1.01h-.96zm0-2.01h.96v1.01h-.96zm-5.47-1.94h.96v1.01h-.96zm0 1.94h.96v1.01h-.96zm0 1.93h.96v1.01h-.96z"/></svg>