<svg xmlns="http://www.w3.org/2000/svg" viewBox="0 0 20 20"><defs><style>.cls-1{fill:#2f2f2f}</style></defs><circle class="cls-1" cx="12.86" cy="4.33" r="1.82"/><path class="cls-1" d="M17.06 9.24L14.7 7.37l-.06-.08c-.52-.52-1.31-.62-2.64-.62s-2.08.58-3.71 2l-.22.19a15.42 15.42 0 0 1-5 2.33.5.5 0 0 0-.33.7 1.87 1.87 0 0 0 1.76.93 3.92 3.92 0 0 1 3.9 2.31.5.5 0 0 0 .47.32.49.49 0 0 0 .2 0c.83-.36 1.53-.7 2.15-1v2.43a.69.69 0 1 0 1.38 0V13.6c.28-.18.53-.35.75-.52v3.73a.69.69 0 0 0 1.38 0V12l2.31-1.91a.48.48 0 0 0 .16-.17.53.53 0 0 0-.14-.68zm-1.85 1.06a5.44 5.44 0 0 0 0-.61v-.66l.79.61z"/></svg>