<svg xmlns="http://www.w3.org/2000/svg" viewBox="0 0 20 20"><defs><style>.cls-1{fill:#2f2f2f}</style></defs><path class="cls-1" d="M13.94 12.47l-.45-.28a1.93 1.93 0 0 1-.83-1.19s0-.17-.06-.26a2.71 2.71 0 0 0-5.19 0c0 .1 0 .22-.06.26a1.93 1.93 0 0 1-.83 1.16l-.45.28a2.23 2.23 0 0 0 1.26 4.05 2.13 2.13 0 0 0 1.18-.35l.09-.06a2.77 2.77 0 0 1 1.4-.38 2.77 2.77 0 0 1 1.41.42l.09.06a2.13 2.13 0 0 0 1.18.35 2.23 2.23 0 0 0 1.26-4.06z"/><ellipse class="cls-1" cx="4.03" cy="9.99" rx="1.37" ry="1.73" transform="rotate(-40.05 4.02 9.98)"/><ellipse class="cls-1" cx="15.97" cy="9.99" rx="1.73" ry="1.37" transform="rotate(-49.95 15.98 9.99)"/><ellipse class="cls-1" cx="7.48" cy="5.6" rx="1.69" ry="2.14" transform="rotate(-11.94 7.48 5.62)"/><ellipse class="cls-1" cx="12.52" cy="5.6" rx="2.14" ry="1.69" transform="rotate(-78.06 12.53 5.6)"/></svg>