<svg xmlns="http://www.w3.org/2000/svg" viewBox="0 0 20 20"><defs><style>.cls-1{fill:#2f2f2f}</style></defs><path class="cls-1" d="M7 10.74V17H6v-5.6"/><path d="M17 7.9a.5.5 0 0 1-.5-.5V6.11h-1.25a.5.5 0 0 1 0-1H17a.5.5 0 0 1 .5.5V7.4a.5.5 0 0 1-.5.5z" fill="#fff"/><path class="cls-1" d="M17.5 17.5H3a.49.49 0 0 1-.5-.5V2.5h1v14h14v1z"/><path class="cls-1" d="M3.3 12.12a.49.49 0 0 1-.3-.89l4-2.67a.5.5 0 0 1 .41-.06l4 1 5.2-5.2a.49.49 0 1 1 .69.69L12 10.34a.49.49 0 0 1-.46.13l-4.11-1L3.57 12a.49.49 0 0 1-.27.12z"/><path class="cls-1" d="M17 6.84a.49.49 0 0 1-.49-.49V5.08h-1.25a.49.49 0 0 1 0-1H17a.49.49 0 0 1 .49.49v1.78a.49.49 0 0 1-.49.49zM15 17h1V7.59l-1 1V17zm-3 0h1v-6.41l-1 1V17zm-3 0h1v-5.91l-1-.24V17z"/></svg>