<svg xmlns="http://www.w3.org/2000/svg" viewBox="0 0 20 20"><defs><style>.cls-1{fill:#2f2f2f}</style></defs><path class="cls-1" d="M15.91 15.59H4.07A1.57 1.57 0 0 1 2.5 14V4h12.73v1.88h2.25V14a1.57 1.57 0 0 1-1.57 1.59zm-.68-8.71V14a.57.57 0 0 0 .57.57h.11a.57.57 0 0 0 .57-.57V6.88h-1.25zM3.5 5.06v9a.57.57 0 0 0 .57.57h10.27a1.56 1.56 0 0 1-.11-.63V5H3.5z"/><path class="cls-1" d="M8.64 9v2.76H4.83V9h3.8m.5-.5h-4.8v3.76h4.8V8.54zm-4.8-2.06h8.87v1H4.33zm5.44 2.1h3.43v.5H9.77zm0 1.09h3.43v.5H9.77zm0 1.09h3.43v.5H9.77zm-.01 1.08h2.45v.5H9.76z"/></svg>