<?xml version="1.0" encoding="UTF-8" standalone="no"?>
<svg
   xmlns:dc="http://purl.org/dc/elements/1.1/"
   xmlns:cc="http://creativecommons.org/ns#"
   xmlns:rdf="http://www.w3.org/1999/02/22-rdf-syntax-ns#"
   xmlns:svg="http://www.w3.org/2000/svg"
   xmlns="http://www.w3.org/2000/svg"
   viewBox="0 0 114.45333 93.773331"
   height="93.773331"
   width="114.45333"
   xml:space="preserve"
   id="svg2"
   version="1.1"><metadata
     id="metadata8"><rdf:RDF><cc:Work
         rdf:about=""><dc:format>image/svg+xml</dc:format><dc:type
           rdf:resource="http://purl.org/dc/dcmitype/StillImage" /></cc:Work></rdf:RDF></metadata><defs
     id="defs6"><linearGradient
       id="linearGradient18"
       spreadMethod="pad"
       gradientTransform="matrix(-2.72e-5,-621.855,-621.855,2.72e-5,277.012,621.851)"
       gradientUnits="userSpaceOnUse"
       y2="0"
       x2="1"
       y1="0"
       x1="0"><stop
         id="stop14"
         offset="0"
         style="stop-opacity:1;stop-color:#f26e3b" /><stop
         id="stop16"
         offset="1"
         style="stop-opacity:1;stop-color:#d92e3a" /></linearGradient><linearGradient
       id="linearGradient26"
       spreadMethod="pad"
       gradientTransform="matrix(-2.52e-5,-576.787,-576.787,2.52e-5,673.364,703.345)"
       gradientUnits="userSpaceOnUse"
       y2="0"
       x2="1"
       y1="0"
       x1="0"><stop
         id="stop22"
         offset="0"
         style="stop-opacity:1;stop-color:#f26e3b" /><stop
         id="stop24"
         offset="1"
         style="stop-opacity:1;stop-color:#d92e3a" /></linearGradient></defs><g
     transform="matrix(1.3333333,0,0,-1.3333333,0,93.773333)"
     id="g10"><g
       transform="scale(0.1)"
       id="g12"><path
         id="path20"
         style="fill:url(#linearGradient18);fill-opacity:1;fill-rule:evenodd;stroke:none"
         d="m 462.145,535.82 c -20.665,-10.468 -41.25,-21.148 -62.043,-31.371 -37.559,-18.472 -78.012,-26.312 -119.079,-31.984 -34.578,-4.774 -69.785,-9.367 -98.601,-30.844 -15.293,-11.394 -29.789,-25.707 -39.996,-41.68 -15.828,-24.746 -5.539,-47.695 22.515,-56.718 9.196,-2.957 19.039,-3.946 28.575,-5.868 4.406,-0.89 8.793,-1.847 13.199,-2.785 -10.051,-48.015 -73.379,-74.121 -111.8439,-47.199 -18.1328,12.707 -24.1641,33.711 -17.0117,60.258 9.9375,36.801 33.3676,65.184 58.8866,91.863 61.637,64.43 135.727,104.313 225.5,113.219 20.242,2 40.258,6.449 60.309,10.199 29.355,5.492 53.945,19.805 73.691,42.086 15.547,17.559 35.723,15.727 55.313,16.856 0.82,-1.157 1.66,-2.317 2.48,-3.477 -8.34,-11.418 -16.133,-23.285 -25.137,-34.164 C 493.277,541.059 476.227,491.387 471.988,435.828 467.398,375.66 462.223,315.371 453.258,255.742 439.703,165.371 385.914,102.383 307.711,59.4141 233.895,18.8672 154.309,-1.11328 69.9648,0.0507813 53.0352,0.273438 35.7188,3.41797 19.3789,8.03516 -1.75,14.0156 -5.85547,26.875 8.29688,43.0742 27.7969,65.4023 47.8359,87.9609 77.4766,97.5117 90.3359,101.68 98.6094,97.0313 103.844,84.4258 c 2.293,-5.5469 3.992,-11.418 6.758,-16.75 14.308,-27.5781 41.257,-38.6992 74.781,-31.1719 64.351,14.4727 104.519,57.5274 114.226,126.2771 4.926,34.883 6.204,70.293 8.317,105.547 3.969,66.106 28.265,123.574 72.289,172.793 25.453,28.453 51.226,56.617 76.812,84.934 2.403,2.66 4.668,5.437 6.993,8.16 -0.625,0.535 -1.25,1.066 -1.875,1.605" /><path
         id="path28"
         style="fill:url(#linearGradient26);fill-opacity:1;fill-rule:evenodd;stroke:none"
         d="m 601.52,375.863 c 20.117,-4.523 40.8,-7.656 60.488,-13.961 38.457,-12.312 59.16,-42.73 59.707,-83.203 0.215,-15.293 0.117,-30.808 2.715,-45.777 4.101,-23.692 22.148,-34.934 45.781,-31.75 26.602,3.594 49.434,15.344 70.898,30.566 3.633,2.571 7.325,5.098 12.813,8.914 1.816,-12.515 4.18,-22.937 4.433,-33.406 0.079,-4.051 -3.808,-9.219 -7.324,-12.148 -46.367,-38.828 -98.633,-64.563 -159.824,-68.153 -39.805,-2.328 -76.934,5.528 -105.176,37 -13.457,15.02 -17.226,33.582 -17.383,53.067 -0.195,23.761 0.879,47.558 -0.449,71.25 -0.586,10.722 -4.082,22.011 -8.984,31.621 -8.145,15.89 -18.477,18.996 -35.527,14.308 -6.7,-1.836 -13.555,-4.171 -20.333,-4.14 -4.902,0.019 -12.871,2.519 -13.984,5.777 -1.777,5.277 -1.25,14.27 2.246,17.777 6.211,6.29 14.961,10.711 23.399,13.954 9.004,3.461 19.004,4.211 28.339,6.91 35.137,10.144 59.805,32.726 71.172,67.051 10.762,32.484 17.657,66.238 27.168,99.168 14.883,51.429 37.735,98.347 82.071,131.25 27.441,20.382 57.675,34.187 93.164,30.929 6.445,-0.59 13.027,-1.379 19.14,-3.265 20.899,-6.442 26.289,-16.731 16.993,-36.539 -8.418,-18 -18.633,-35.239 -29.043,-52.188 -5.508,-8.918 -13.457,-10.953 -23.77,-4.801 -31.484,18.805 -63.613,11.887 -86.465,-17.898 -16.601,-21.594 -22.969,-47.219 -29.14,-73.106 -8.946,-37.554 -18.106,-75.414 -45.313,-104.91 -11.504,-12.48 -25.195,-22.965 -37.812,-34.297" /></g></g></svg>