<svg xmlns="http://www.w3.org/2000/svg" xmlns:xlink="http://www.w3.org/1999/xlink"
     viewBox="0 0 530.4 134.4" preserveAspectRatio="xMinYMid meet">
    <a xlink:href="{{ logo.href }}">
        <g>
            <linearGradient id="park-kamelle-logo_SVGID_1_" x1="189.288" y1="302.139" x2="189.288"
                            y2="238.681" gradientTransform="translate(0 -210.586)">
                <stop offset=".008" stop-color="#e24236"/>
                <stop offset="1" stop-color="#f67e51"/>
            </linearGradient>
            <path d="M151.4 3h376.4v87.3H151.4z" fill="none" pointer-events="visible"/>
            <path d="M191.4 39.2c-3.9 1.7-7.4 2.7-10.2 3.2-2 .3-4.7.3-7.9.1-3.2-.3-5.5-.3-6.9-.1-2.5.4-4.5 1.3-6 2.8-1.6 1.5-2.2 3.1-1.9 4.9.3 2 2.1 3.6 5.2 4.6 1 .4 1.6.7 1.6.9.1.4-.6 1.3-2.2 2.7-1.6 1.4-2.9 2.1-4 2.3-1.3.2-2.7-.3-4.3-1.5s-2.5-2.6-2.7-4c-.6-3.9 1.1-7.9 5.5-11.9 4.4-4.1 9.4-6.6 15.1-7.5 2.2-.3 5-.4 8.4-.1 3.4.3 5.8.3 7.3.1 2.3-.4 4.1-1.2 5.6-2.7.5-.5 1-.8 1.6-.8.5-.1 1.3-.1 2.5 0 1.1.1 1.8.2 1.9.5 0 .2-.8 1.3-2.6 3.4s-3.1 4.1-3.9 6.3c-.8 2.2-1.5 5.3-1.8 9.4l-.4 4.6c-.7 9.1-2.4 15.7-4.8 19.7s-5.8 7.3-10.1 9.8-9 4.1-14.3 5c-5 .8-9.5.7-13.7-.2-4.1-.9-6.3-2.3-6.6-4.2-.2-.9.9-2.3 3.2-4.1s3.9-2.8 5.1-3c1.8-.3 2.8.5 3.1 2.3.9 5.1 3.9 7.2 8.8 6.5 7.7-1.2 11.7-7.6 12.2-19.2.3-5 1.1-9.4 2.6-13.3 1.6-4 6.4-9.4 14.6-16.5zm45.4 31c-3.9 3.8-7.5 6.6-10.7 8.5-3.1 1.9-6.6 3.2-10.4 3.8-3.8.6-7.2.2-10-1.2s-4.5-3.5-5-6.3c-.1-.4-.1-2 0-4.8s0-4.5-.1-5c-.4-2.3-1.3-3.8-3-4.5-.4.1-1.1.3-2.1.4-1.8.3-2.7-.1-2.9-1.1-.2-1.4.8-2.3 3.1-2.7l2.5-.3c2.4-.4 4.3-1.4 5.6-3.1 1.3-1.7 2.5-4.6 3.3-8.7 2.1-10.1 6.7-15.8 14-16.9 1.7-.3 3.4-.1 5.1.5 1.7.6 2.6 1.3 2.8 2.3.1.6-.4 1.8-1.5 3.8-1 2-2 3-2.8 3.1-.4.1-1.1-.3-2.1-1-.9-.8-2.3-1-3.8-.8-3.1.5-5.2 3.1-6.2 7.7-1 4.7-2.3 7.9-3.8 9.8-1.6 1.9-3.3 3.2-5.3 4 3.9.7 6.8 1.7 8.8 3.1 2 1.4 3.2 3.4 3.6 6.2.1.5.1 1.4.2 2.6 0 1.2.1 2.1.2 2.7.4 2.7 2.4 3.8 5.8 3.2 3.9-.6 8.5-3.7 13.7-9.3l1 4z"
                  id="path4249" fill="url(#park-kamelle-logo_SVGID_1_)"/>
            <path d="M292.4 65.4c-5.3 4.5-9.1 7.5-11.4 8.9s-4.6 2.2-6.8 2.4c-5.6.5-8.5-3-8.9-10.5-3.2 4.1-6.2 7.2-9 9.2-2.8 2.1-5.8 3.2-9 3.5-3.1.3-5.8-.6-8.2-2.6s-3.7-4.6-3.9-7.8c-.3-4 .7-7.9 3.3-11.8s6-7.1 10.4-9.7c4.4-2.6 8.3-4.1 11.7-4.4 4.5-.4 7.7.9 9.6 3.8l10.4-5.4 3-.3-3.6 12.1c-1.9 6.1-2.7 10.2-2.5 12.4.2 2.3 1.3 3.3 3.5 3.2 1.3-.1 2.8-.8 4.4-2s3.7-3.1 6.5-5.6l.5 4.6zm-38.6 5.4c3.5-.3 6.6-2.8 9.3-7.6s3.9-9.1 3.5-12.9c-.1-1.5-.7-2.6-1.7-3.4-.9-.8-2.2-1.1-3.6-1-3.5.3-6.6 2.8-9.4 7.6-2.8 4.8-3.9 9.1-3.6 12.9.1 1.4.7 2.6 1.8 3.4 1.1.8 2.3 1.2 3.7 1z"
                  id="path4256" fill="url(#park-kamelle-logo_SVGID_1_)"/>
            <path d="M369.3 66c-4.6 3.4-8.4 6-11.6 7.6s-6.3 2.5-9.2 2.4c-2.4-.1-4.1-.8-5.5-2.1-1.3-1.4-2-3.2-1.9-5.4.1-3.1 1.1-7.1 3.2-11.9s3.1-7.7 3.1-8.7c0-.9-.5-1.4-1.7-1.4-.3 0-.8.1-1.2.3-.5.2-1.1.5-1.9.8-.7.4-1.5.9-2.2 1.4-.8.6-1.7 1.2-2.5 1.9-.9.7-1.9 1.5-2.8 2.4-1.6 1.5-2.6 2.7-2.9 3.7l-2 6.2-3.5 10.2-13.4 1.6 5.7-17.8c.4-1.3.9-3.2 1.6-5.7s.9-4 .9-4.5c0-1-.3-1.5-1.1-1.5-.2 0-.6.1-1 .3-.5.2-1.1.5-1.9.9s-1.7 1-2.6 1.6c-.9.7-2.1 1.4-3.1 2.3-1.2.9-2.4 2-3.7 3.1-1.8 1.5-2.9 3.3-3.3 5.4-.6 2.5-1.1 4.7-1.3 6.7-.3 2-.5 4.2-.6 6.6l-11.8 2c-.2-3.4-.2-6.1-.2-8.4.2-5.3 1-9.9 2.5-13.8s3.8-8.4 7.1-13.6l13-1.7c-2.5 4.7-4.4 9.2-5.8 13.6 9.9-8.8 17.2-13.2 22.3-13 1.9.1 3.3.7 4.5 2 1.1 1.3 1.7 2.9 1.6 4.9 0 .9-.3 2.6-.7 5.1 6.1-4.7 10.6-7.8 13.2-9.2 2.7-1.4 5.1-2.1 7.3-2 2 .1 3.5.7 4.8 2.1 1.2 1.3 1.8 3 1.7 4.9-.1 3.1-1.2 7.1-3.5 11.9s-3.4 8-3.4 9.6.6 2.5 2.1 2.5c.9 0 2.2-.4 3.9-1.4s4.7-3.2 8.8-6.7l-1 4.8z"
                  fill="url(#park-kamelle-logo_SVGID_1_)"/>
            <path d="M410.1 68.5c-5.3 4.5-10 7.7-13.9 9.7-4 2-8.3 2.7-12.8 2.2-5-.5-8.9-2.7-11.5-6.5-2.7-3.8-3.7-8.5-3-14.2 1-8.4 4.6-15.8 10.8-22 6.2-6.2 12.7-9 19.3-8.3 3.4.4 6.1 1.6 7.9 3.8 1.9 2.1 2.6 4.8 2.2 7.9-.9 8.2-9.9 14.1-26.8 17.4.5 7.9 3.9 12.2 10.2 12.9 2.5.3 4.9-.2 7.3-1.4 2.4-1.2 6.1-3.9 11.1-8.3l-.8 6.8zm-27.8-14.3c9.7-1.8 15.1-6.6 16.1-14.4.4-3.8-.6-5.9-3.2-6.2-2.4-.3-5 1.5-7.7 5.2-2.7 3.9-4.5 9-5.2 15.4z"
                  id="path4270" fill="url(#park-kamelle-logo_SVGID_1_)"/>
            <path d="M446.4 73.5c-5.7 4.3-10.7 7.3-14.7 9.2-4.1 1.8-7.9 2.5-11.3 2.1-3.9-.5-6.8-2.6-8.8-6.2s-2.5-8.2-1.7-13.8c1.2-8.3 4.4-18.1 9.4-29.3C424.4 24.2 430 14 436.2 4.8L451 1.1c.4-.1.8-.1 1-.1 1 .1 1.9 1.1 2.3 2.9s.4 4.1 0 7c-1.1 8.1-4 15.7-8.6 22.8s-11.2 14.5-19.8 22.1c-.9 4.1-1.5 6.9-1.7 8.5-.5 3.5-.3 6.3.5 8.5s2.3 3.4 4.3 3.7c2 .3 4.3-.2 6.6-1.5 2.5-1.2 6.3-4 11.7-8.2l-.9 6.7zm-17.7-26.2c5.5-5 10.2-10.7 14.1-17.3s6.2-12.3 6.9-17.4c.2-1.5.2-2.7-.1-3.6-.3-.9-.7-1.5-1.3-1.6-1.3-.2-3.8 3.2-7.6 10.2s-7.6 16.8-12 29.7z"
                  id="path4277" fill="url(#park-kamelle-logo_SVGID_1_)"/>
            <path d="M482.5 79.6c-5.9 4.1-10.9 7-15 8.7s-8 2.3-11.4 1.7c-3.9-.7-6.7-2.8-8.6-6.5-1.8-3.7-2.2-8.3-1.1-13.8 1.6-8.3 5-18 10.5-29s11.4-21.1 17.9-30l14.9-3.2c.5-.1.8-.1 1-.1 1 .2 1.8 1.2 2.2 3s.3 4.1-.2 7c-1.5 8.1-4.6 15.6-9.4 22.5-4.8 7-11.7 14.1-20.5 21.4-1 4.1-1.7 6.9-2 8.4-.6 3.4-.5 6.3.3 8.5s2.2 3.5 4.1 3.8 4.3-.1 6.7-1.2 6.5-3.8 11.9-7.9l-1.3 6.7zm-16.8-26.7c5.7-4.8 10.6-10.4 14.7-16.8S487 24 488 19c.3-1.5.3-2.7 0-3.6-.2-1-.6-1.5-1.2-1.6-1.3-.2-3.9 3.1-7.9 9.9-4 6.6-8.3 16.4-13.2 29.2z"
                  fill="url(#park-kamelle-logo_SVGID_1_)"/>
            <path d="M522.7 88.4c-5.8 3.9-10.8 6.6-14.9 8.1-4.3 1.5-8.5 1.8-13 .8-5-1.1-8.5-3.7-10.7-7.7-2.2-4.1-2.7-8.9-1.3-14.4 2-8.3 6.4-15.2 13.3-20.7s13.6-7.6 20.1-6.2c3.3.7 5.8 2.3 7.5 4.6 1.6 2.3 2 5 1.3 8.1-1.9 8.1-11.4 12.9-28.6 14.4-.3 7.9 2.5 12.6 8.6 13.9 2.4.5 4.9.3 7.4-.6 2.5-.9 6.5-3.3 12-7.1l-1.7 6.8zm-25.8-17.1c10-.8 15.8-5 17.6-12.5.9-3.8.1-5.9-2.5-6.5-2.4-.5-5.2.9-8.2 4.4-3 3.5-5.4 8.3-6.9 14.6z"
                  id="path4291" fill="url(#park-kamelle-logo_SVGID_1_)"/>
        </g>
    </a>
    <a xlink:href="https://www.general-anzeiger-bonn.de/?utm_source=ga_ka&amp;utm_campaign=header&amp;utm_medium=logo" target="_blank">
        <g>
            <linearGradient gradientTransform="matrix(1.1044 -.2062 -.1904 -1.0197 -15.288 142.286)" y2="-6.319"
                            x2="83.07" y1="67.436" x1="83.07" id="park-kamelle-logo_SVGID_8_">
                <stop offset=".008" stop-color="#e24236"/>
                <stop offset="1" stop-color="#f67e51"/>
            </linearGradient>
            <rect xmlns="http://www.w3.org/2000/svg" fill="none" pointer-events="visible" y="30" x="30" width="100" height="50"/>
            <path d="M129.5 86.2c-2.6.5-5 2-7.5 2.6s-5.3 1-7.8 1.8c-1 .3-2.1.7-3.2.5-1.2-.2-1-1.1-1.5-1.9s.1-4.8-.2-6.8c-1.4-6.9-44.6-12.6-48.2-13.8-7.4-1.2-7.4-2.3-14.1-1-2.7.5-5.1 1.9-6.9 3.8-.9.9-1.5 1.8-2.4 2.7-.9 1-1.4 1.9-2.1 3-.8-.9-1.3-1.5-1.8-2.6-.5-1-1.5-1.8-2.4-2.7-1.5-1.7-3.4-2.7-5.2-4.1-1.9-1.3-4-2.5-6.4-2.9-2.9-.4-2 1.6-1.5 3.3.3.9.9 2 .6 3-.3.9-1.6 2.1-2.4 2.6-.9.6-2.2 1-3.3 1.6-1.1.5-2.9 1.1-3.5 2.1-1.1 2 3.5 2.1 4.6 2.7 2.6 1.4-1.6 3.1-2.7 4.1-1.2 1.1-3.7 2.9-3.9 4.6-.2 2.1 2.5 1.6 4 1.8 1.5 0 3.1.3 3 1.8.1 2.7-1.1 4.8-2.2 7.3-.7 1.6-.9 5.1 1.9 3.5 2.1-1.2 3.9-2.6 5.7-4 2.1-1.4 4.5-2.7 6.7-3.8 1.8-.9 5.2-1.9 7.2-.8.9.6.6 1.3.6 2.1-.1 1-.1 1.9-.1 3 0 2.6-.3 4.7 1.2 7 1.1 1.8 2.9 2 4.9 2.5 2.7.8 5.4 1.5 8.2 2.2 1.1.2 2 .6 3.2.8 1.4.2 24.1 3.6 29.7 4.4 2.6.4 15.6 2.7 16.4.3 1.7-1.3 2.9-2.9 3.7-5 .7-.6 1.2-1.4 1.7-2.2.2-.6.5-2.5 1.1-2.6.8-.1 1.7 1.5 2 2 .5.8 1.1 1.8 1.8 2.6 1.2 2 2.6 3.8 3.8 5.8 1.2 2.1 2.5 4.1 4.3 5.9.6.6 1.3 1.4 2.1.9 1-.6 1.9-2.4 2.5-3.4s1.2-1.8 1.7-2.7c.3-.5.4-1 .9-1.1 1.5-.5 3.3 2.2 4.9 1.4.7-.4.9-5.6.8-6.2-.2-.8-.9-2.1-.2-2.9.5-.6 1.5-.7 2.1-1 .5-.2.9-.6 1.5-.8.3-.2.7-.1 1-.3.7-.3 1-.8.5-1.5-.5-.9-1.9-1.9-2.8-2.4-1.1-.7-1.8-1.7-2.6-2.6-1.1-1.3-.2-3.1.1-4.6.2-1 .3-1.9.6-2.9.3-1.1.6-1.8 1.1-2.7.7-1.7 1.7-4.9-1.2-4.4zm-50 10.4c-.2.1-.3 0 0 0zm-1 5.9c0 .1-.1.1 0 0zM38.1 74.4c-.1 0-.1 0-.2-.1.1.1.1.1.2.1zm-2.6 30.3v-.2c.2 0 .2.1 0 .2z"
                  fill="url(#park-kamelle-logo_SVGID_8_)"/>
            <path d="M142.5 65.6c-.1-1.1-.3-2.3-.6-3.4-.3-.9-1.5-3.4-1.8-4.2s-.7-2.2-1-2.9c1.1-.1 2.1-.3 3.1-.3.8 0 1.6-.1 1.4-1.1-.1-.7-2.6-4.1-3.3-4.9-.4-.6-1.6-1.3-.9-2.1.4-.5 1.4-.3 1.9-.4 1-.2 3.4 0 2.9-1.8-.1-.5-5.5-6.9-5.6-7.9-.4-2.2 3.8-7.3 4.5-7.9.5-.5 1.8-.8 2-1.5.2-.8-.9-1.4-1.5-1.5-.9-.3-2.1.1-3.1.2-1.9.4-3.8 1-5.5 1.8s-12.9 9.5-13.6 10.4c-1.2 1.1-2.5 3.6-4.1 3.7-1.9.1-2.1-2.2-3.1-3.5-1.2-1.5-2.7-2.8-4.2-3.7-8.2-4.9-18.2-6.1-27.4-4.2.2-.1-3.8.5-5.6 1.1-2 .6-4.2 1.4-6.1 2.3-1.8.8-3.6 1.8-5.3 2.9C64.5 37.1 52 43 49 54c-.2.9-1.6 2.8-2.3 3.1-1.6.5-4.3-1.2-5.5-2.1-.9-.6-1.7-1.6-2.8-2s-1.9 0-2.9.1c-4.2.6-8.4-.4-11.9-3.1-.6 1.8 0 3.4 0 5.2 0 .9.2 1.8.5 2.8.4 1.5 1.2 3.3 1.9 4.6.3.6.9.9 1.1 1.5.5 1.1-.4 1.4-1.1 2-1.3 1-5.3 3.6-2.5 5.1 1.3.7 2.7.8 4.1 1.5 1.5.8 2.3 1.5 2.7 3.4.3 1.8-.1 3.7-.1 5.6 0 1.5.4 2.3 1.8 1.5.7-.4 1.4-1 2-1.5.5-.5 1.3-1.3 1.9-1.4 1.4-.1 2 2.8 2.3 3.9.4 1 .6 3.1 1.8 3.2 1.5.1 2.1-2.9 2.6-3.8.8-1.7 1.3-3.4 1.8-5.1.6-1.5.8-3 1.1-4.5 1.2-8.2 4.1-5.7 4.9-5.5.3 0 2 1.4 2.6 1.7 1.5.9 2.5 2.3 3.9 3.5 2.4 2.2 5.5 4 8.7 4.7 3.5.8 7.2.6 10.7.7 3.4.2 6.5 0 9.8-1 1.5-.4 8-2.2 9.7-2.8 2.6-.9 3.6-1.4 6.8-3.4 1.2-.8 2.8-2.3 3.9-3.4 1-1 2.2-1.9 3.1-3.2 1.1-1.7 2.5-3.2 3.6-4.9 1.1-1.6 1.8-3.5 3.3-4.8 1.2-1 2.7-1.7 4.1-1 1.6.9 3.1 2.5 4.6 3.6 1.6 1.1 8.5 5.2 9.2 5.6 1.1.3 8.4 5.3 8.1 1.8z"
                  fill="url(#park-kamelle-logo_SVGID_1_)" stroke="#fff" stroke-width=".99" stroke-miterlimit="10"/>
            <path d="M69.3 51.7h.3c2.7-.1 5.9 1.3 5.9 6.4 0 3.6-2.4 7-6.8 7-2.3 0-4.6-1-6-2.4l4.9-3.3c2-1.3 2.4-3 2.1-4.6.1-.2-.4-3.1-.4-3.1zm-3.5 3.4c.3 1 .4 1.8.4 2.5 0 1.1-.7 1.9-2.2 2.9l-2 1.3c-1.6-1.6-2.8-5.9-2.8-8.2 0-4.5 1.4-7.4 3.8-9.1.1 0 2.8 10.6 2.8 10.6zm1.7-10.3h6.9l-5.3 6.3-1.6-6.3zm-1.1-4.7c-.9 1.1-2.5 2.1-4.3 3.1l-1.7 1c-3.5 2.3-6.1 5.3-6.1 9.7 0 8.4 6.6 12.5 14.1 12.5 7 0 12-4.3 12-10.2 0-3-1.5-7.4-6.6-9.2l5.8-7c0 .1-13.2.1-13.2.1zm28.6 4c2.5 2.6 3.4 4 4.3 8.3h-5.9c-.1 0 1.6-8.3 1.6-8.3zm-3.1 1.1c-.6.3-1.2.5-1.3 1.4l-.4 1.4-.8-.1c-1-.1-1.9-.2-1.9-1.5 0-1.1 1.3-2.1 2.4-2.8l2.1-1.4c1.1.3 2.2 1.1 2.7 1.6-.1 0-2.8 1.4-2.8 1.4zm4.2-6.9l-7 4.9c-1.8 1.2-2.5 2.2-2.5 3.3 0 1.7 1.3 2.2 2.9 2.3l.7.1-1.4 7c-.3 1.3-.6 2.8-.6 2.8l-1.6-.6-4.5 4.2c-1.4 1.3-2.1 2-2.1 3.2 0 1 .8 1.6 1.7 1.6.9 0 1.4-.2 1.4-.2l-.2-.9s-.6.2-1 .2c-.9 0-1-.5-1-.9 0-.9 1.3-2.6 3.5-2.6.6 0 1.3.2 2 .4l6.6 2.5c1.4-1.5 2.9-3.1 4.5-4.6l-.6-.5c-.6.6-.8.8-1.3.8-.6 0-1-.2-1.9-.5l-5-1.9 2.4-2.3h7.4l1.3-1.5c1.1 7 3.4 10 5.1 11 1.7-1.6 3.2-3 4.6-4.4l-.6-.5s-.7.8-1.3.8c-2.1 0-2.7-5.4-3.5-9.1l-.5-2.1c-.9-4.3-2.4-7.2-5.5-9.5l-.3-.3c-1.8-1.4-1-2-1-2l-.7-.7z"/>
        </g>
    </a>
    <a xlink:href="https://rp-online.de?utm_source=ga_ka&amp;utm_campaign=header&amp;utm_medium=logo" target="_blank">
        <g>
            <path d="M139.3 94.6H482v38.1H139.3z" pointer-events="visible" fill="none"/>
            <path d="M142.3 106h4.9c.9 0 1.7.1 2.4.2s1.3.4 1.9.8c.5.4.9.8 1.2 1.4.3.6.4 1.3.4 2.2 0 .8-.1 1.6-.4 2.2-.3.6-.7 1.1-1.2 1.5-.5.4-1.1.7-1.9.9-.7.2-1.5.3-2.4.3h-2.9v6.3h-2V106zm4.7 7.9c1.4 0 2.4-.3 3.1-.8.7-.5 1-1.4 1-2.5s-.3-1.9-1-2.4-1.7-.7-3.1-.7h-2.6v6.3h2.6zm8.5 4.9c0-1.3.6-2.3 1.7-3 1.2-.7 3-1.2 5.5-1.4 0-.4 0-.7-.1-1.1-.1-.3-.2-.7-.4-.9-.2-.3-.4-.5-.7-.7-.3-.2-.7-.3-1.2-.3-.7 0-1.3.1-1.9.4-.6.2-1.1.5-1.6.9l-.8-1.4c.5-.4 1.2-.7 2-1 .8-.3 1.7-.5 2.6-.5 1.4 0 2.5.4 3.1 1.3.6.9 1 2.1 1 3.5v7.2h-1.6l-.2-1.4c-.6.5-1.2.9-1.8 1.2-.6.3-1.3.5-2.1.5-1 0-1.8-.3-2.5-.9-.7-.5-1-1.3-1-2.4zm2-.2c0 .7.2 1.2.6 1.5.4.3.9.4 1.5.4s1.1-.1 1.6-.4c.5-.3 1-.7 1.6-1.2v-3.3c-1 .1-1.8.3-2.5.5-.6.1-1.1.3-1.6.6-.4.2-.7.5-.9.8-.3.4-.3.8-.3 1.1zm11-8.5h1.6l.2 2.1h.1c.4-.7.9-1.3 1.5-1.8.6-.4 1.2-.7 1.9-.7.5 0 .9.1 1.3.2l-.4 1.7c-.4-.1-.7-.2-1.1-.2-.5 0-1 .2-1.6.6-.5.4-1 1.1-1.4 2.1v7.5h-2v-11.5h-.1zm8.7 1.6h-1.7v-1.5l1.8-.1.2-3.3h1.7v3.3h3.2v1.6h-3.2v6.5c0 .7.1 1.3.4 1.7.3.4.7.6 1.4.6.2 0 .4 0 .7-.1.2-.1.4-.1.7-.2l.4 1.5c-.3.1-.7.2-1.1.3-.4.1-.7.1-1.1.1-.6 0-1.2-.1-1.6-.3-.4-.2-.8-.5-1-.8-.3-.4-.5-.8-.6-1.2-.1-.5-.2-1.1-.2-1.6v-6.5zm7.8-1.6h1.6l.2 1.7h.1c.6-.6 1.2-1 1.8-1.4.7-.4 1.4-.6 2.2-.6 1.2 0 2.1.4 2.7 1.2s.9 1.9.9 3.4v7.5h-2v-7.2c0-1.1-.2-1.9-.5-2.4s-.9-.7-1.7-.7c-.6 0-1.2.2-1.6.5-.6.4-1.1.9-1.6 1.4v8.5h-2v-11.9h-.1zm12.4 5.9c0-1 .1-1.8.4-2.6.3-.8.7-1.4 1.2-1.9s1.1-.9 1.7-1.2 1.3-.4 2-.4 1.4.1 2 .4c.6.3 1.1.6 1.5 1.1s.7 1.1.9 1.7c.2.7.3 1.4.3 2.3 0 .4 0 .8-.1 1.1h-7.9c.1 1.3.5 2.3 1.2 3 .7.7 1.6 1.1 2.7 1.1.6 0 1.1-.1 1.6-.3s.9-.4 1.4-.7l.7 1.3c-.5.3-1.1.6-1.7.8-.7.3-1.4.4-2.2.4-.8 0-1.5-.1-2.2-.4-.7-.3-1.3-.7-1.8-1.2-.5-.6-.9-1.2-1.2-1.9-.4-.9-.5-1.7-.5-2.6zm8.2-.9c0-1.2-.3-2.1-.8-2.8-.5-.6-1.2-1-2.1-1-.4 0-.8.1-1.2.3a3.592 3.592 0 0 0-1.8 1.9c-.2.5-.3 1-.4 1.6h6.3zm4.7-5h1.6l.2 2.1h.1c.4-.7.9-1.3 1.5-1.8.6-.4 1.2-.7 1.9-.7.5 0 .9.1 1.3.2l-.4 1.7c-.4-.1-.7-.2-1.1-.2-.5 0-1 .2-1.6.6-.5.4-1 1.1-1.4 2.1v7.5h-2l-.1-11.5zm11.6 0h2.1l2.2 6.7c.2.6.4 1.2.5 1.7l.5 1.7h.1c.2-.6.4-1.1.5-1.7l.5-1.7 2.2-6.7h2l-4.2 11.8H226c.1-.1-4.1-11.8-4.1-11.8zM234 116c0-1 .1-1.9.4-2.6.3-.8.7-1.4 1.2-1.9s1.1-.9 1.7-1.2c.7-.3 1.4-.4 2.1-.4.7 0 1.4.1 2.1.4.7.3 1.2.7 1.7 1.2s.9 1.2 1.2 1.9c.3.8.4 1.6.4 2.6s-.1 1.8-.4 2.6-.7 1.4-1.2 1.9-1.1.9-1.7 1.2c-.7.3-1.4.4-2.1.4-.7 0-1.4-.1-2.1-.4-.7-.3-1.2-.7-1.7-1.2-.5-.6-.9-1.2-1.2-1.9-.3-.8-.4-1.7-.4-2.6zm2 0c0 .7.1 1.3.2 1.8.2.5.4 1 .7 1.4.3.4.7.7 1.1.9s.9.3 1.4.3c.5 0 1-.1 1.4-.3.4-.2.8-.5 1.1-.9s.5-.9.7-1.4c.2-.5.2-1.2.2-1.8s-.1-1.3-.2-1.9c-.1-.5-.4-1-.7-1.4-.3-.4-.7-.7-1.1-.9-.4-.2-.9-.3-1.4-.3-.5 0-1 .1-1.4.3-.4.2-.8.5-1.1.9-.3.4-.5.9-.7 1.4s-.2 1.2-.2 1.9zm12-5.9h1.6l.2 1.7h.1c.6-.6 1.2-1 1.8-1.4.7-.4 1.4-.6 2.2-.6 1.2 0 2.1.4 2.7 1.2.6.8.9 1.9.9 3.4v7.5h-2v-7.2c0-1.1-.2-1.9-.5-2.4-.4-.5-.9-.7-1.7-.7-.6 0-1.2.2-1.6.5-.6.4-1.1.9-1.6 1.4v8.5h-2l-.1-11.9z"/>
            <g transform="translate(62.335 10.777)">
                <g>
                    <path d="M236.7 111.1v4.4h-32.6v5.8h32.6v-4.4h5.9V111h-5.9z" fill-rule="evenodd"
                          clip-rule="evenodd" fill="#ffcb04"/>
                </g>
                <defs>
                    <filter height="10.1" width="40.4" y="110.5" x="204.1"
                            id="Adobe_OpacityMaskFilter">
                        <feColorMatrix id="feColorMatrix4326" values="1 0 0 0 0 0 1 0 0 0 0 0 1 0 0 0 0 0 1 0"/>
                    </filter>
                </defs>
                <mask id="park-kamelle-logo_b_2_" height="10.1" width="40.4" y="110.5" x="204.1">
                    <g filter="url(#Adobe_OpacityMaskFilter)">
                        <path d="M236.7 111.1v4.4h-32.6v5.8h32.6v-4.4h5.9V111h-5.9z" class="st13" id="a_2_"/>
                    </g>
                </mask>
                <g mask="url(#park-kamelle-logo_b_2_)">
                    <path id="path4334" d="M204.1 110.5h40.4v10.1h-40.4v-10.1z" fill-rule="evenodd" clip-rule="evenodd"
                          fill="#ffbe00"/>
                </g>
            </g>
            <g id="g4336" transform="translate(62.335)">
                <g id="g4338">
                    <path id="path4340"
                          d="M211.9 99.9H204v1c1.3 0 2.2.3 2.2 2.5v18.3h3.8v-7.2h1.7l4.7 7.2h5.3v-.9c-1.1 0-1.9-.9-2.6-1.9l-3.6-5c2.7-.9 5.5-3 5.5-7 0-4.2-2.9-7-9.1-7zm0 13l-1.9-.1v-11.1h1.2c3.7 0 5.6 1.8 5.6 5.5 0 4.1-2 5.7-4.9 5.7zm18.4-13h-7.7v1c1.4 0 2.2.3 2.2 2.5v18.3h3.8v-7h.8c6 0 9.8-2.1 9.8-7.5.1-4.3-2.6-7.3-8.9-7.3zm-.8 13.3h-.9v-11.5h1.5c3.6 0 5 2 5 5.9 0 4.6-2.2 5.6-5.6 5.6zm28.1-13.6c-5.5 0-9.4 4.6-9.4 11.2 0 6.7 3.9 11.3 9.4 11.3s9.5-4.5 9.5-11.2c0-6.6-4-11.3-9.5-11.3zm0 1.8c3.1 0 5.3 3.3 5.3 9.5 0 6.5-1.9 9.6-5.3 9.6-3.1 0-5.2-3.2-5.2-9.6-.1-6.4 1.8-9.5 5.2-9.5zm25.3 20.5h3.6v-22H284v15.6l-8.9-15.6h-3.9v21.9h2.4v-16l9.3 16.1zm9.5 0h10.3v-2h-6.6v-20h-3.7v22zm13.5 0h3.7v-22h-3.7v22zm21.2 0h3.6v-22h-2.5v15.6l-8.9-15.6h-3.9v21.9h2.5v-16l9.2 16.1zm9.4 0h11.4v-2h-7.6v-8.6h5.5v-1.9h-5.5v-7.5h6.6V100h-10.4v21.9z"
                          class="st10"/>
                </g>
                <defs id="defs4342">
                    <filter height="26.3" width="145.5" y="99.6" x="204.1"
                            id="park-kamelle-logo_Adobe_OpacityMaskFilter_1_">
                        <feColorMatrix values="1 0 0 0 0 0 1 0 0 0 0 0 1 0 0 0 0 0 1 0"/>
                    </filter>
                </defs>
                <mask id="park-kamelle-logo_d_2_" height="26.3" width="145.5" y="99.6" x="204.1">
                    <g filter="url(#park-kamelle-logo_Adobe_OpacityMaskFilter_1_)">
                        <path d="M211.9 99.9H204v1c1.3 0 2.2.3 2.2 2.5v18.3h3.8v-7.2h1.7l4.7 7.2h5.3v-.9c-1.1 0-1.9-.9-2.6-1.9l-3.6-5c2.7-.9 5.5-3 5.5-7 0-4.2-2.9-7-9.1-7zm0 13l-1.9-.1v-11.1h1.2c3.7 0 5.6 1.8 5.6 5.5 0 4.1-2 5.7-4.9 5.7zm18.4-13h-7.7v1c1.4 0 2.2.3 2.2 2.5v18.3h3.8v-7h.8c6 0 9.8-2.1 9.8-7.5.1-4.3-2.6-7.3-8.9-7.3zm-.8 13.3h-.9v-11.5h1.5c3.6 0 5 2 5 5.9 0 4.6-2.2 5.6-5.6 5.6zm28.1-13.6c-5.5 0-9.4 4.6-9.4 11.2 0 6.7 3.9 11.3 9.4 11.3s9.5-4.5 9.5-11.2c0-6.6-4-11.3-9.5-11.3zm0 1.8c3.1 0 5.3 3.3 5.3 9.5 0 6.5-1.9 9.6-5.3 9.6-3.1 0-5.2-3.2-5.2-9.6-.1-6.4 1.8-9.5 5.2-9.5zm25.3 20.5h3.6v-22H284v15.6l-8.9-15.6h-3.9v21.9h2.4v-16l9.3 16.1zm9.5 0h10.3v-2h-6.6v-20h-3.7v22zm13.5 0h3.7v-22h-3.7v22zm21.2 0h3.6v-22h-2.5v15.6l-8.9-15.6h-3.9v21.9h2.5v-16l9.2 16.1zm9.4 0h11.4v-2h-7.6v-8.6h5.5v-1.9h-5.5v-7.5h6.6V100h-10.4v21.9z"/>
                    </g>
                </mask>
                <g mask="url(#park-kamelle-logo_d_2_)" id="g4351">
                    <path id="path4353" d="M204.1 99.6h145.5v26.3H204.1V99.6z"/>
                </g>
            </g>
        </g>
    </a>
</svg>