<svg  preserveAspectRatio="xMinYMid meet" xmlns="http://www.w3.org/2000/svg" viewBox="65 65 1070 200" preserveAspectRatio="xMinYMid meet">
  <path
    d="M515.54.21c33,0,56.89,28.44,56.89,69.28s-24.07,68.2-56.89,68.2c-33,0-56.7-28.27-56.7-68.92,0-40.84,23.89-68.55,56.7-68.55Zm0,10.58c-20.42,0-31.54,19.14-31.54,58,0,38.65,12.94,58.34,31.54,58.34,20.42,0,31.9-18.78,31.9-58.34C547.44,30.69,534.13,10.79,515.54,10.79Z"
    transform="translate(71.18 69.05)" fill="#000"/>
  <polygon
    points="738.89 204.73 760.46 204.73 760.46 71.27 745.64 71.27 745.64 166.44 745.46 166.44 692.4 71.27 669.02 71.27 669.02 204.73 683.65 204.73 683.65 107.37 683.84 107.37 738.89 204.73 738.89 204.73"
    fill="#000"/>
  <path d="M724.54,135.68h61.91V123.82H747V2.22H724.54Z" transform="translate(71.18 69.05)" fill="#000"/>
  <polygon points="876.79 204.73 898.86 204.73 898.86 71.27 876.8 71.27 876.79 204.73 876.79 204.73" fill="#000"/>
  <polygon
    points="1003.71 204.73 1025.28 204.73 1025.28 71.27 1010.46 71.27 1010.45 166.44 1010.27 166.44 957.22 71.27 933.83 71.27 933.82 204.73 948.47 204.73 948.46 107.37 948.65 107.37 1003.71 204.73 1003.71 204.73"
    fill="#000"/>
  <path d="M989.35,135.68h68.11V123.83h-45.32V71.17h32.77V59.47h-32.78V13.6h39.52V2.22H989.33V135.68Z"
        transform="translate(71.18 69.05)" fill="#000"/>
  <path
    d="M24.06,22.33h-.77v91.8c0,13.28,1.54,14.24,8.66,15.59l7.32,1.35v4.62H0v-4.62l6.16-1.35c6-1.16,8.28-2.31,8.28-15.21V21.6c0-11-1.73-11.93-6.93-13.09L0,7V2.31H44.66l57,86.23h.77V23.86c0-13.28-1.35-14.24-8.46-15.59L85.82,6.93V2.31h40V6.93l-6.35,1.35c-5.78,1.16-8.08,2.31-8.08,15.21V136.07h-11.3Z"
    transform="translate(71.18 69.05)" fill="#000"/>
  <path
    d="M136.88,69.67C136.88,19,169.41,0,207.13,0c16.55,0,28.1,1.73,37.15,4l2.12,39.65h-5.2c-5-12.32-9-19.44-12.9-25-6-8.85-9.62-11.16-23.48-11.16C179.42,7.49,167.29,25,167.29,66c0,45.81,9.43,64.48,36.18,64.48a38.42,38.42,0,0,0,18.09-4.23V97.39c0-11-1.54-11.74-6.93-12.89l-7.7-1.73V78.15H261.2v4.62l-5.58,1.35c-5,1.35-6.16,2.31-6.16,13.28v33.87C238.68,134.73,221,138,204.23,138,161.32,138,136.88,115.09,136.88,69.67Z"
    transform="translate(71.18 69.05)" fill="#000"/>
  <path
    d="M268.21,128.18,338.27,10.39V9.6H329c-28.49,0-32.14,1-37.53,8.85C286.88,25,284.18,30.58,279,42.51h-5.17l2.11-40.23h93.89V9.79l-69.67,117.6v.77H310c29.83,0,34.64-1.54,40.61-9.43,5-6.74,8.28-13.86,13.67-27.14h5.57l-2.89,44.08H268.21Z"
    transform="translate(71.18 69.05)" fill="#000"/>
  <polygon class="cls-2"
           points="467.75 202.89 503.34 202.89 503.34 238.48 467.75 238.48 467.75 265.17 71.18 265.17 71.18 229.58 467.75 229.58 467.75 202.89 467.75 202.89"
           fill="#2197d8"/>
</svg>