<?xml version="1.0" encoding="utf-8"?>
<!-- Generator: Adobe Illustrator 23.0.2, SVG Export Plug-In . SVG Version: 6.00 Build 0)  -->
<svg version="1.1" id="Hintergrund_Stadt-Panorama_Bild"
	 xmlns="http://www.w3.org/2000/svg" xmlns:xlink="http://www.w3.org/1999/xlink" x="0px" y="0px" viewBox="0 0 924 104.9"
	 style="enable-background:new 0 0 924 104.9;" xml:space="preserve" preserveAspectRatio="xMinYMid meet">
<style type="text/css">
	.st0{fill:#0066AD;}
	.st1{fill:#1A171B;}
	.st2{fill:#FFFFFF;}
</style>
<title>Meine_Woche_neu</title>
<rect y="0" class="st0" width="924" height="104.9"/>
<g>
	<path class="st1" d="M265.9,87.5l-1.1-27.4c-0.1-2.2-0.1-4.8-0.1-6.7h-0.2c-0.4,1.9-0.9,4.3-1.6,6.7l-7.6,27.4h-7l-7.6-27.4
		c-0.6-2.4-1.3-4.9-1.6-6.7h-0.2c0,1.8,0,4.4-0.1,6.7l-1.1,27.4h-14.5l4.9-61.7h14.6l8.1,26.9c0.6,2.2,1.2,4.5,1.5,6.8h0.2
		c0.4-2.3,0.9-4.6,1.5-6.8l8.1-26.9h14.6l4.9,61.7L265.9,87.5z"/>
	<path class="st1" d="M302.6,70.9c1,4,3.7,5.1,7.8,5.1c3.4-0.1,6.7-0.8,9.8-2.1l3.3,10.9c-4.9,2.5-10.4,3.7-15.9,3.6
		c-14.7,0-21.1-10.7-21.1-25.2c0-13.9,6.7-24.9,19.8-24.9c12.9,0,19.1,9.8,19.1,24.6c0,1.4-0.1,3-0.2,4.6L302.6,70.9z M310,58.2
		c0-5.5-1-9-3.9-9c-3.1,0-4.5,5-4.5,10.7V61l8.3-1.3V58.2z"/>
	<path class="st1" d="M340.3,32.9c-4.6,0-8.3-3.7-8.3-8.3s3.7-8.3,8.3-8.3c4.6,0,8.3,3.7,8.3,8.3C348.5,29.1,344.9,32.8,340.3,32.9
		C340.3,32.9,340.3,32.9,340.3,32.9z M332.3,87.5V39.1h16v48.4L332.3,87.5z"/>
	<path class="st1" d="M378.8,87.5V53.7c0-2.5-1.1-3.9-3.8-3.9c-0.9,0-1.7,0.1-2.5,0.5v37.3h-16V41.8c5.8-2.4,12.1-3.7,18.4-3.6
		c14,0,19.8,5.6,19.8,16v33.3H378.8z"/>
	<path class="st1" d="M417.6,70.9c1,4,3.7,5.1,7.8,5.1c3.4-0.1,6.7-0.8,9.8-2.1l3.3,10.9c-4.9,2.5-10.4,3.7-15.9,3.6
		c-14.7,0-21.1-10.7-21.1-25.2c0-13.9,6.7-24.9,19.8-24.9c12.9,0,19.1,9.8,19.1,24.6c0,1.4-0.1,3-0.2,4.6L417.6,70.9z M425,58.2
		c0-5.5-1-9-3.9-9c-3.1,0-4.5,5-4.5,10.7V61l8.3-1.3V58.2z"/>
	<path class="st1" d="M514.3,87.5h-14.2l-4.8-22.3c-0.5-2.5-0.9-5.1-1.2-7.7h-0.2c-0.2,2.6-0.6,5.2-1.2,7.7l-4.9,22.3h-14.2
		l-11.4-61.7h16.1l3.4,30.6c0.2,2,0.7,7.4,0.7,7.5h0.2c0.2-1.5,0.4-4,1-7.5l5.6-30.6h11l5.2,30.6c0.5,3.1,0.9,6.3,1,7.5h0.2
		c0.1-0.7,0.2-3.6,0.7-7.5l3.8-30.6h14.5L514.3,87.5z"/>
	<path class="st1" d="M546.7,88.4c-12.9,0-19.7-9.8-19.7-25.1s6.7-25,19.6-25s19.7,9.8,19.7,25S559.6,88.4,546.7,88.4z M546.7,49.8
		c-2.9,0-3.6,4.8-3.6,13.1s0.7,13.1,3.6,13.1c2.9,0,3.6-4.8,3.6-13.1S549.5,49.8,546.7,49.8z"/>
	<path class="st1" d="M590.2,88.4c-11.8,0-18.5-11.4-18.5-25s6.6-25.1,18.5-25.1c4.8,0,8.2,1.2,10.9,3.6l-3.2,9.8
		c-1.1-0.9-2.5-1.3-3.8-1.3c-4.3,0-6,5.7-6,12.7s1.7,12.5,6,12.5c1.4,0,2.8-0.4,3.8-1.3l3.2,10.6C598.3,87.2,595,88.4,590.2,88.4z"
		/>
	<path class="st1" d="M628.9,87.5V53.8c0-2.5-1.1-3.9-3.8-3.9c-0.9,0-1.7,0.1-2.5,0.4v37.1h-16V17.1h16v23.2
		c2.5-1.2,5.3-1.8,8.1-1.9c9.9,0,14.2,6.6,14.2,15.9v33.3H628.9z"/>
	<path class="st1" d="M667.8,70.9c1,4,3.7,5.1,7.8,5.1c3.4-0.1,6.7-0.8,9.8-2.1l3.3,10.9c-4.9,2.5-10.4,3.7-15.9,3.6
		c-14.7,0-21.1-10.7-21.1-25.2c0-13.9,6.7-24.9,19.8-24.9c12.9,0,19.1,9.8,19.1,24.6c0,1.4-0.1,3-0.2,4.6L667.8,70.9z M675.2,58.2
		c0-5.5-1-9-3.9-9c-3.1,0-4.5,5-4.5,10.7V61l8.3-1.4L675.2,58.2z"/>
</g>
<g>
	<path class="st2" d="M263.9,85.5l-1.1-27.4c-0.1-2.2-0.1-4.8-0.1-6.7h-0.2c-0.4,2.3-0.9,4.5-1.6,6.7l-7.6,27.4h-7l-7.7-27.4
		c-0.6-2.4-1.2-4.9-1.6-6.7h-0.2c0,1.8,0,4.4-0.1,6.7l-1.1,27.4h-14.5l4.9-61.7h14.6l8.1,26.9c0.6,2.2,1.2,4.5,1.5,6.8h0.2
		c0.4-2.3,0.9-4.6,1.5-6.8l8.1-26.9h14.6l4.9,61.7L263.9,85.5z"/>
	<path class="st2" d="M300.6,68.9c1,4,3.7,5.1,7.8,5.1c3.4-0.1,6.7-0.8,9.8-2.1l3.3,10.9c-4.9,2.5-10.4,3.7-15.9,3.6
		c-14.7,0-21.1-10.7-21.1-25.2c0-13.9,6.7-24.9,19.8-24.9c12.9,0,19.1,9.8,19.1,24.6c0,1.4-0.1,3-0.2,4.6L300.6,68.9z M308,56.2
		c0-5.5-1-9-3.9-9c-3.1,0-4.5,5-4.5,10.7V59l8.3-1.3V56.2z"/>
	<path class="st2" d="M338.3,30.9c-4.6,0-8.3-3.7-8.3-8.3s3.7-8.3,8.3-8.3c4.6,0,8.3,3.7,8.3,8.3C346.5,27.1,342.9,30.8,338.3,30.9
		C338.3,30.9,338.3,30.9,338.3,30.9z M330.3,85.5V37.1h16v48.4H330.3z"/>
	<path class="st2" d="M376.8,85.5V51.7c0-2.5-1.1-3.9-3.8-3.9c-0.9,0-1.7,0.1-2.5,0.5v37.3h-16V39.8c5.8-2.4,12.1-3.7,18.4-3.6
		c14,0,19.8,5.6,19.8,16v33.3H376.8z"/>
	<path class="st2" d="M415.6,68.9c1,4,3.7,5.1,7.8,5.1c3.4-0.1,6.7-0.8,9.8-2.1l3.3,10.9c-4.9,2.5-10.4,3.7-15.9,3.6
		c-14.7,0-21.1-10.7-21.1-25.2c0-13.9,6.7-24.9,19.8-24.9c12.9,0,19.1,9.8,19.1,24.6c0,1.4-0.1,3-0.2,4.6L415.6,68.9z M423,56.2
		c0-5.5-1-9-3.9-9c-3.1,0-4.5,5-4.5,10.7V59l8.3-1.3V56.2z"/>
	<path class="st2" d="M512.3,85.5h-14.2l-4.8-22.3c-0.5-2.5-0.9-5.1-1.2-7.7h-0.2c-0.2,2.6-0.6,5.2-1.2,7.7l-4.8,22.3h-14.2
		l-11.4-61.7h16.2l3.4,30.6c0.2,2,0.7,7.4,0.7,7.5h0.2c0.2-1.5,0.4-4,1-7.5l5.6-30.6h11l5.2,30.6c0.5,3.1,0.9,6.3,1,7.5h0.2
		c0.1-0.7,0.2-3.6,0.7-7.5l3.8-30.6h14.5L512.3,85.5z"/>
	<path class="st2" d="M544.7,86.4c-12.9,0-19.7-9.8-19.7-25.1s6.7-25,19.6-25c12.9,0,19.7,9.8,19.7,25S557.6,86.4,544.7,86.4z
		 M544.7,47.8c-2.9,0-3.6,4.8-3.6,13.1c0,8.3,0.7,13.1,3.6,13.1c2.9,0,3.6-4.8,3.6-13.1S547.5,47.8,544.7,47.8z"/>
	<path class="st2" d="M588.2,86.4c-11.9,0-18.5-11.4-18.5-25s6.6-25.1,18.5-25.1c4.8,0,8.2,1.2,10.9,3.6l-3.2,9.8
		c-1.1-0.9-2.5-1.3-3.9-1.3c-4.3,0-6,5.7-6,12.7s1.7,12.5,6,12.5c1.4,0,2.8-0.4,3.9-1.3l3.2,10.6C596.3,85.2,593,86.4,588.2,86.4z"
		/>
	<path class="st2" d="M626.9,85.5V51.8c0-2.5-1.1-3.9-3.8-3.9c-0.9,0-1.7,0.1-2.5,0.4v37.1h-16V15.1h16v23.2
		c2.5-1.2,5.3-1.8,8.1-1.9c9.9,0,14.2,6.6,14.2,15.9v33.3H626.9z"/>
	<path class="st2" d="M665.8,68.9c1,4,3.7,5.1,7.8,5.1c3.4-0.1,6.7-0.8,9.8-2.1l3.3,10.9c-4.9,2.5-10.4,3.7-15.9,3.6
		c-14.7,0-21.1-10.7-21.1-25.2c0-13.9,6.7-24.9,19.8-24.9c12.9,0,19.1,9.8,19.1,24.6c0,1.4-0.1,3-0.2,4.6L665.8,68.9z M673.2,56.2
		c0-5.5-1-9-3.9-9c-3.1,0-4.5,5-4.5,10.7V59l8.3-1.4L673.2,56.2z"/>
</g>
</svg>
