<svg xmlns="http://www.w3.org/2000/svg" xmlns:xlink="http://www.w3.org/1999/xlink" viewBox="0 -10 243 60" preserveAspectRatio="xMinYMid meet">
<defs>
  <path id="park-logo-svg-a" d="M15.991.25v2.054H.002v2.73h15.99V2.984H18.9V.25z"/>
  <path d="M3.85.175H.002V.66C.654.664 1.079.79 1.079 1.84v8.565h1.865V7.049h.834l2.292 3.355h2.583V9.98c-.544-.016-.925-.44-1.29-.868L5.607 6.788c1.338-.42 2.695-1.412 2.695-3.268 0-2.068-1.43-3.346-4.453-3.346v.001zm0 6.054l-.91-.042V.988h.587c1.827 0 2.72.858 2.72 2.588 0 1.896-.984 2.653-2.397 2.653zM12.86.175H9.098V.66c.674 0 1.082.153 1.082 1.182v8.565h1.862V7.15h.414c2.932 0 4.826-.995 4.826-3.48 0-2.119-1.314-3.497-4.422-3.497v.001zm-.405 6.17h-.419V.987h.748c1.77 0 2.443.938 2.443 2.768 0 2.164-1.087 2.588-2.771 2.588h-.001zM26.229.027c-2.68 0-4.627 2.125-4.627 5.252 0 3.112 1.931 5.275 4.627 5.275 2.684 0 4.647-2.092 4.647-5.22 0-3.127-1.952-5.307-4.647-5.307zm0 .809c1.522 0 2.609 1.523 2.609 4.442 0 3.027-.941 4.465-2.609 4.465-1.519 0-2.572-1.509-2.572-4.465 0-2.974.903-4.442 2.572-4.442zm12.425 9.568h1.769V.175h-1.215V7.47L34.86.175h-1.914v10.23h1.2v-7.46l4.508 7.46zm4.636 0h5.07v-.913h-3.234V.175h-1.835v10.23zm6.62.002h1.813V.176h-1.814v10.23h.002zm10.37-.002h1.764V.175h-1.21l-.007 7.294L56.481.175h-1.914v10.23h1.205l-.006-7.46 4.513 7.46zm4.632 0h5.573v-.913h-3.702v-4.03h2.674v-.894l-2.674-.005V1.054h3.223V.175h-5.094v10.23z" id="park-logo-svg-c"/>
</defs>
<g fill="none" fill-rule="evenodd">
  <a xlink:href="{{ logo.href }}">
    <rect x="0" y="0" width="230" height="20" stroke="transparent" stroke-width="32"/>
    <g fill="#8C0D19">
      <path d="M3.067 21.627v1.182l-.236.946c-.472 1.063-1.77.827-2.713 1.063v.71h10.616v-.71h-.943c-.826 0-1.652-.354-1.888-1.182-.118-.59-.118-1.3-.118-1.89l-4.718-.119zm16.397 0v.118c-.118.946.118 1.891-.472 2.6-.354.355-.944.473-1.416.473v.591h8.14c0-.118.117-.59 0-.709-.472 0-.944 0-1.416-.236-.944-.355-.59-1.064-.708-1.655v-1.3h-4.128v.118zm8.139 0a4.484 4.484 0 0 0 0 1.773c0 .236.236.355.118.59.236.828 1.062 1.774 2.005 1.892 2.36.236 4.247-1.3 6.016-2.718 0 .709.236 1.3.708 1.89.59.71 1.533.828 2.477.71 1.298-.119 2.36-1.3 2.831-2.482l-.354-.355-.354.473a.75.75 0 0 1-.707 0c-.236-.236-.236-.59-.354-.827v-.946h-4.365c-.707.828-1.77 1.537-2.949 1.182a1.877 1.877 0 0 1-.943-1.182h-4.13zm16.632 0v.591c0 .827 0 1.537-.471 2.127-.354.355-.826.355-1.18.473v.591h7.667l-.118-.59s-.707-.237-.825-.355c-.472-.355-.59-.828-.708-1.419V21.51l-4.365.118zm8.612 0c-.472.946-.826 1.891-1.298 2.718v1.064h11.796c.118-1.3.236-2.6.236-3.9h-.944c-.707 1.655-2.359 2.6-4.01 2.6-.826 0-1.652.118-2.36 0 .354-.827.708-1.773 1.062-2.6l-4.482.118zm13.919 0v1.418l-.236.828c-.236.709-.944.827-1.415.945v.591h7.667v-.354c.236-.591-.472-.355-.708-.473-.707-.237-.825-1.064-.943-1.773v-1.3l-4.365.118zm7.903 0c0 1.891 0 3.782.118 4.137.826.236.59-1.064 1.416-.946 1.651.827 4.01 1.537 5.78.591 1.298-.827 2.241-2.245 2.477-3.782h-3.303c.118.355.236.591.236.946 0 .59-.118 1.182-.59 1.536-.353.355-.943.355-1.415.355-1.652-.119-2.831-1.419-3.539-2.837h-1.18zm12.976 0c.236.591.472 1.064.826 1.655 1.18 1.89 3.303 2.836 5.544 2.482 2.005-.355 3.775-2.246 4.483-4.137h-.826c-.59.71-1.298 1.3-2.123 1.3-.944.118-1.77-.236-2.478-.945-.118-.118-.236-.237-.354-.473l-5.072.118zm12.976 0v1.418s0 .591-.236.946c-.236.473-.708.709-1.18.827v.591h7.196v-.59c-1.18-.355-1.298-1.419-1.298-2.128v-1.182h-4.482v.118zm8.021 0v1.418s.118.473-.236 1.064c-.236.473-1.061.827-1.061.827v.591h7.077v-.59l-.472-.355c-.707-.237-1.061-.71-1.061-1.773v-1.182h-4.247zm8.14 0c.353.946.943 1.891 1.651 2.718a5.128 5.128 0 0 0 4.836 1.182c1.77-.472 3.067-2.127 3.893-3.782h-.944c-.707.828-1.533 1.419-2.713 1.182a4.767 4.767 0 0 1-2.005-1.182l-4.718-.118zm13.919 0v.473c0 .827 0 1.536-.472 2.127-.354.355-.826.473-1.18.591v.71h8.022v-.592c-.59 0-1.534-.472-1.888-1.063-.117-.473-.235-1.3-.235-2.128l-4.247-.118zm16.632 0V23.4c-.471 1.064-1.769 1.418-2.83 1.536v.591h6.96v-.59c-.473-.119-.945-.119-1.298-.237-.944-.236-1.534-1.3-1.534-2.364v-.709h-1.298zm7.078 0c.354 1.3.826 2.6 1.298 3.9h.118c.118 0 .236.118.236 0l1.18-3.782h-2.832v-.118zm8.847 0v.71l-.236 1.181c-.236.473-.59.946-1.061 1.064-.236.118-.472.236-1.534.354v.591h10.617v-.59c-.59 0-1.298-.237-1.77-.355-.825-.355-.943-1.3-1.061-2.127v-.828h-4.955zm8.965 0c.354.946.944 1.891 1.652 2.718a5.128 5.128 0 0 0 4.836 1.182c1.888-.472 3.185-2.127 3.893-3.9h-.944c-.708.828-1.533 1.537-2.713 1.3-.826-.236-1.533-.709-2.005-1.3h-4.719zm14.038 0v.473c0 .827 0 1.536-.472 2.127-.354.355-.826.473-1.18.591v.71h8.022v-.592c-.59 0-1.534-.472-1.888-1.063-.118-.473-.236-1.3-.236-2.246h-4.246zm11.678 0v.237c0 .827.118 1.181-.236 2.127-.236.354 0 .473-1.298.709-.354.118-.236.71-.236.71h7.55s0-.592-.118-.71c-.59-.118-.944-.355-1.298-.945-.118-.591-.118-1.419-.118-2.246l-4.246.118zm7.55 0c.117.237.235.355.353.591.354.591.826 1.3.708 2.01-.118.354-.472.472-.826.59v.71h7.196v-.71c-.944-.236-1.18-.59-1.652-1.182-.353-.709-.825-1.3-1.18-2.009h-4.6zm8.846 0c0 1.3.236 1.891.826 2.6.59.828 1.416 1.418 2.477 1.537 1.888.236 3.421-1.064 4.6-2.364v2.127h6.253v-.59c-1.062-.473-.944-.237-1.298-.473-.59-.237-.708-.71-.708-1.3v-1.419h-4.718l-.236.473c-.59.71-1.18 1.537-2.241 1.182-.59-.355-.826-.945-.944-1.655l-4.01-.118zm17.223 0v.473c0 .827 0 1.536-.472 2.127-.354.355-.826.473-1.18.591v.71h8.022v-.592c-.59 0-1.534-.472-1.888-1.063-.118-.473-.236-1.3-.236-2.246h-4.246z"/>
      <path d="M3.067 16.9v4.727h4.718c-.118-1.536 0-3.19 0-4.727H3.067zm16.397 0v4.727h4.128V16.9h-4.128zm11.914 0c-.472.355-1.062.71-1.534 1.182-1.297.945-2.005 2.127-2.241 3.545h4.129c-.118-.236-.118-.472-.118-.709.118-1.654 1.18-2.954 2.359-4.018h-2.595zm4.246 0v4.61s0 .117-.118.117h4.365V16.9h-4.247zm8.73 0v4.727H48.6V16.9h-4.247zm10.616 0c-.708 1.536-1.416 3.19-2.123 4.727h4.6c.708-1.536 1.416-3.19 2.123-4.727h-4.6zm11.796 0v4.727h4.247V16.9h-4.247zm9.673 0l.708.71c1.297 1.417 3.303 2.363 4.128 4.017h3.303v-.236c.472-1.773-.118-3.31-.944-4.491H76.44zm10.38 0c0 1.655.236 3.31.826 4.727h5.19a10.935 10.935 0 0 1-1.769-4.727h-4.247zm13.802 0v4.727h4.364V16.9h-4.364zm8.021 0v4.727h4.247V16.9h-4.247zm7.314 0c0 1.655.236 3.31.826 4.727h4.836c-.944-1.063-1.298-2.6-1.534-4.018 0-.236 0-.473-.117-.709h-4.011zm14.745 0v4.727h4.365c0-1.3.117-2.718.117-3.9V16.9h-4.482zm16.632 0v4.727h1.18V16.9h-1.18zm5.545 0l.354 1.064c.353 1.181.707 2.363 1.18 3.663h2.83l1.534-4.727h-5.898zm10.38 0v4.727h4.955V16.9h-4.955zm8.14 0c0 1.655.235 3.31.825 4.727h4.837c-.944-1.063-1.298-2.6-1.534-4.018 0-.236 0-.473-.118-.709h-4.01zm14.863 0v4.727h4.364c0-1.182.118-2.718.118-3.9v-.945l-4.482.118zm11.678 0v4.727h4.364v-2.954c.236-.355.472-.828.826-1.064.826 1.3 1.652 2.6 2.36 4.018h4.718c-.944-1.536-1.77-3.19-2.595-4.727h-9.673zm16.396 0v4.727h4.13c0-.354 0-.709-.119-1.063V16.9h-4.01zm7.904 0v4.136l-.354.591h4.718V16.9h-4.364zm9.319 0v4.727h4.364c0-1.182.118-2.718.118-3.9v-.945l-4.482.118zM63.58 21.627v-2.009c-.118 0-.354 0-.354.118l-.59 1.773v.118h.944zm12.268 0c-.354-.59-.59-1.3-.708-1.89-.118 0-.354-.119-.472 0v1.89h1.18zm22.767 0c0-.118 0-.118.117-.236-.117-.118-.235-.355-.353-.355-.118.237-.354.355-.472.591h.708zm28.664 0c.236-.354.354-.827.472-1.182a1.629 1.629 0 0 0-.472-.354c-.236.473-.59.945-.944 1.418l.944.118zm55.442 0c.118-.354.354-.709.472-1.063a1.629 1.629 0 0 0-.472-.355c-.236.473-.59.946-.944 1.418h.944z"/>
      <path d="M3.067 12.173V16.9h4.718v-2.6c2.95 0 5.663-.236 7.668-2.127h-4.836a5.506 5.506 0 0 1-1.18.59c-.59.119-1.18.237-1.77.119v-.71h-4.6zm16.397 0V16.9h4.128v-4.727h-4.128zm9.083 0c-.118.59 0 1.063.118 1.654.235.71 1.061 1.182 1.769 1.3.59 0 1.062-.118 1.533-.472.472-.473.59-.946.708-1.537.118-.354 0-.59-.118-.945h-4.01zm7.077 0V14.3c-1.415.945-2.949 1.655-4.364 2.6h2.713c.472-.473 1.061-.827 1.533-1.182V16.9h4.365v-3.31c0-.472 0-.945-.118-1.417h-4.129zm8.73 0V16.9H48.6v-4.727h-4.247zm7.667 0v1.063h.472l.354-1.063h-.826zm4.954 0c-.708 1.536-1.415 3.19-2.123 4.727h4.6c.708-1.536 1.416-3.19 2.124-4.727h-4.6zm9.791 0V16.9h4.365v-4.727h-4.365zm7.667 0c-.117 1.772.826 3.427 2.006 4.727h7.078c-1.18-1.536-2.95-2.836-4.365-4.136l-.59-.591h-4.129zm8.376 0c.236.472.354.945.59 1.418.118 0 .353.118.471 0v-1.418H82.81zm4.954 0c-.59 1.418-.826 3.072-.826 4.727h4.247c-.118-1.182-.236-2.364-.118-3.664 0-.354.118-.709.118-1.063h-3.42zm6.606 0c.118.709.354 1.3.826 1.772.472.237.943.473 1.415.355.472-.118.944-.355 1.18-.827.236-.355.354-.828.354-1.3h-3.775zm6.252 0V16.9h4.246v-4.373c0-.118.118-.236.118-.354h-4.364zm8.021 0V16.9h4.247v-3.545c0-.355 0-.828-.118-1.182h-4.129zm8.14 0c-.472 1.418-.826 3.072-.826 4.727h4.128c0-.355 0-.59.118-.827h7.668c0-1.3-.118-2.6-.472-3.782h-3.303c.118.827 0 1.654 0 2.482l-3.893.118v-2.6l-3.42-.118zm13.919 0V16.9h4.365c0-1.655.117-3.427.943-4.727h-5.308zm7.785 0c.118.118.236.118.236.236.472.236 1.18.355 1.77 0l.236-.236h-2.242zm8.847 0V16.9h1.298v-4.727h-1.298zm4.011 0l1.534 4.727h5.78l1.533-4.727h-1.415l-1.416 4.018c-.354-1.064-.826-2.482-1.297-4.018h-4.719zm11.914 0V16.9h4.955v-4.727h-4.955zm8.965 0c-.472 1.418-.825 3.072-.825 4.727h4.128c0-.236 0-.59.118-.827h7.668c0-1.3-.118-2.718-.472-3.9h-3.303c.118.827 0 1.654.118 2.482l-3.893.118v-2.6h-3.539zm14.038 0V16.9h4.364c0-1.655.118-3.427.944-4.727h-5.308zm7.785 0c.118.118.236.236.354.236.59.236 1.18.355 1.77 0l.235-.236h-2.359zm3.893 0V16.9h9.555c-.472-.945-1.062-1.89-1.534-2.836l1.534-1.891h-1.298c-1.297 1.536-2.595 3.072-4.01 4.49v-4.49h-4.247zm16.396 0V16.9h4.13v-4.727h-4.13zm7.904 0V16.9h4.364v-4.727h-4.364zm9.319 0V16.9h4.364c0-1.655.118-3.427.944-4.727h-5.308zm7.785 0c.118.118.236.236.354.236.59.236 1.18.355 1.77 0l.235-.236h-2.359z"/>
      <path d="M7.785 12.173V2.245c1.652-.236 3.185.355 4.011 1.891.826 1.891.826 4.728 0 6.619a3.226 3.226 0 0 1-1.062 1.418h4.837c.236-.237.472-.473.708-.828 1.533-2.009 1.533-5.436.236-7.563-1.298-2.01-3.421-2.955-5.663-3.073C7.196.591 0 .71 0 .71v.71c.59.117 1.298.117 1.887.354.59.236 1.062.945 1.18 1.536v8.982l4.718-.118zm15.925 0V9.69h3.303V8.509h-3.185s-.236-4.018.118-6.264l.236-.59c.236-.237.472-.355.826-.355 1.061.355.354 1.655.59 2.482.118.473.59.827.943.945.826.237 1.652.118 2.242-.59.59-.592.59-1.655.235-2.364C28.075.236 26.07 0 24.3.236c-1.77.237-3.539 1.655-4.129 3.546-.118.236-.118.59-.236.827-.235 1.182-.353 3.9-.353 3.9h-.944v1.182H19.7v2.482h4.01zm8.847 0c-.354-.71-.943-1.182-.707-2.01.471-.827 1.297-.945 2.24-.945.59.118 1.18.591 1.416 1.182 0 .473.118 1.064.118 1.655h4.129c-.118-.946-.472-1.773-1.062-2.6-.472-.591-1.061-1.064-1.77-1.3-2.476-.946-5.19-.119-7.195 1.418a5.262 5.262 0 0 0-1.415 2.482l4.246.118zm16.043 0V.709h-6.016v.355c-.118.59.59.236.826.59.707.355.825 1.182.943 1.891v8.746H48.6v-.118zm4.247 0c.236-.946.59-1.891 1.533-2.364 1.18-.354 2.595-.236 3.657-.236-.354.827-.708 1.772-1.062 2.6h4.6c.355-.946.826-1.773 1.18-2.718 0-.355.354-.71.236-1.064H51.903v3.664h.944v.118zm18.284 0V8.39h-5.898v.118c-.236.71.59.236.825.591.472.236.708.827.826 1.3v1.773h4.247zm7.431 0c-.236-.355-.472-.71-.59-1.064-.118-.709.236-1.3.826-1.654.472-.237 1.18-.237 1.652 0 1.18.59 1.887 1.654 2.359 2.718h1.061c0-1.418-.118-2.837-.236-4.255-.59-.236-.59.355-.825.591-.236.118-.354.355-.708.236-.708-.236-1.18-.709-1.887-.827-2.006-.236-4.011.473-5.19 2.246-.119.236-.119.472-.237.59-.118.473-.236.828-.236 1.3l4.011.119zm12.504 0c.118-1.064.354-2.128 1.298-2.955.236-.236.707-.236 1.061-.118.826.71.826 2.01 1.062 3.073h3.893c0-.591-.118-1.182-.236-1.655-.59-1.536-2.242-2.482-3.775-2.718-2.241-.236-4.129.71-5.426 2.482-.354.59-.708 1.182-.944 1.89h3.067zm14.037 0c.354-.71.826-1.418 1.534-1.773.354-.236.826-.236 1.18-.118.59.354.707.945.825 1.536v.355h4.129c-.236-1.773-.708-3.664-2.595-4.255-1.416-.354-2.95.118-3.893 1.064-.472.354-.708.827-1.298 1.182V.59H98.97v.59c.354.119.826 0 1.062.355.472.473.59.946.59 1.537v8.982l4.482.118zm15.1 0c.117-1.182.353-2.246 1.297-3.191.472-.237 1.18-.355 1.651.118.708.827.944 1.89.944 2.955h3.303a32.75 32.75 0 0 0-.708-1.891c-.825-1.537-2.359-2.837-4.128-2.719-2.595 0-4.719 2.128-5.662 4.373 0 .118 0 .118-.118.237l3.42.118zm15.924 0c.118-.237.354-.473.59-.71.708-.59 1.298.237 1.887.71h2.242c.707-.946.825-2.364.354-3.428a1.875 1.875 0 0 0-1.18-.945h-.118c-2.477-.236-3.657 2.364-4.954 4.018V8.391h-5.898v.473c0 .236.471.354.59.354.825.237.943.827 1.061 1.655v1.3h5.426zm12.386 0l.118-8.628 2.713 8.746h4.837C154.529 7.327 152.524.827 152.524.709h-8.14c0 .118-.117.355 0 .473.59.118 1.298 0 1.888.354.826.473.944 1.419.944 2.246v8.39h1.297zm11.678 0l.59-1.773c.708-2.364 1.416-4.727 2.477-7.09v8.98h4.955V3.428l.236-1.063c.353-1.064 1.769-.828 2.713-1.064 0-.118.118-.473 0-.59h-8.376l-3.892 11.58h1.297v-.117zm15.453 0c.118-1.182.354-2.246 1.298-3.073.472-.236 1.18-.355 1.651.118.59.827.944 1.891.944 2.955h3.303c-.236-.591-.472-1.3-.708-1.891-.826-1.537-2.36-2.837-4.129-2.718-2.595 0-4.718 2.127-5.662 4.372v.119l3.303.118zm16.043 0c.118-.237.354-.473.59-.71.707-.59 1.297.119 1.77.71h2.358c.708-.946.826-2.246.354-3.31a1.875 1.875 0 0 0-1.18-.945h-.235c-2.477-.118-3.54 2.482-4.837 4.018V8.51h-5.898v.473c0 .236.472.354.59.354.826.237.944.828 1.062 1.655v1.3l5.426-.118zm10.498 0V.709h-6.016V1.3c.354 0 .826.118 1.062.355.472.354.59.945.708 1.536v9.1l4.246-.118zm5.427 0l.59-.71c.825-.945 1.769-2.245 3.066-2.363v-.59h-5.78v.59c.472.118 1.062.118 1.416.59.472.71 0 1.655-.354 2.246-.118.119-.118.237-.236.355l1.298-.118zm10.852 0V8.509h-5.78V9.1c.59 0 1.18 0 1.298.355.235.118.353 1.418.471 2.718h4.011zm8.14 0V8.509h-6.017v.473c.472.236.826.118 1.062.354.708.237.472.828.59 1.419v1.418h4.364zm10.38 0c.118-.237.354-.473.59-.71.708-.59 1.297.119 1.77.71h2.358c.708-.946.826-2.246.354-3.31a1.875 1.875 0 0 0-1.18-.945h-.235c-2.477-.118-3.54 2.482-4.837 4.018V8.51h-5.898v.473c0 .236.472.354.59.354.826.237.944.828 1.062 1.655v1.3l5.426-.118zM33.029 5.2c.472-.118.944-.355 1.18-.71.472-.708.59-1.89.236-2.6C34.09 1.183 33.5.71 32.793.828c-.826.118-1.533.828-1.77 1.537-.235.827 0 1.772.59 2.363.354.237.826.473 1.416.473zm4.6-.118a1.68 1.68 0 0 0 1.416-.71c.59-.708.59-2.008.118-2.717-.236-.473-.59-.828-1.062-.946-.707-.236-1.415.118-1.887.591-.472.71-.708 1.773-.236 2.6.236.71.944 1.182 1.652 1.182zm31.26.59c.944 0 1.652-.708 2.006-1.417.354-.946.354-2.128-.236-2.955-.354-.473-.826-.945-1.298-1.064-.826-.236-1.533.119-2.123.71-.708.827-.826 2.245-.354 3.309.354.827 1.18 1.418 2.005 1.418z"/>
    </g>
  </a>
  <a xlink:href="https://rp-online.de?utm_source=pm&amp;utm_campaign=header&amp;utm_medium=logo" target="_blank">
    <rect x="0" y="40" width="135" height="10" stroke="transparent" stroke-width="20"/>
    <path d="M.79 36.988h2.383c.427 0 .818.038 1.174.113.355.075.658.198.907.367.249.17.442.394.58.672.139.279.208.621.208 1.028 0 .392-.069.73-.207 1.016a1.91 1.91 0 0 1-.587.712c-.253.188-.556.33-.907.424a4.515 4.515 0 0 1-1.168.14h-1.4v2.937H.79v-7.409zm2.264 3.704c.68 0 1.184-.123 1.512-.367.328-.245.492-.63.492-1.158 0-.535-.166-.905-.498-1.112-.332-.207-.834-.311-1.506-.311h-1.28v2.948h1.28zm4.186 2.281c0-.602.282-1.063.848-1.383.565-.32 1.464-.544 2.697-.672 0-.174-.018-.343-.053-.509a1.178 1.178 0 0 0-.19-.44 1.014 1.014 0 0 0-.362-.31 1.244 1.244 0 0 0-.58-.12 2.422 2.422 0 0 0-.943.181 4.734 4.734 0 0 0-.777.407l-.391-.644c.269-.165.597-.325.984-.48a3.43 3.43 0 0 1 1.28-.231c.704 0 1.214.205 1.53.615.316.41.474.958.474 1.644v3.365h-.806l-.083-.655h-.024a4.817 4.817 0 0 1-.895.56 2.305 2.305 0 0 1-1.014.23c-.49 0-.895-.135-1.215-.406-.32-.27-.48-.655-.48-1.152zm.96-.068c0 .317.097.543.29.678.194.136.433.203.718.203.277 0 .54-.062.789-.186s.511-.307.788-.548v-1.524c-.482.06-.89.131-1.221.214-.28.063-.549.162-.8.294a1.122 1.122 0 0 0-.433.39.925.925 0 0 0-.13.48zm5.395-3.998h.806l.083.994h.036a2.57 2.57 0 0 1 .717-.824c.281-.204.587-.305.92-.305.229 0 .434.037.616.113l-.19.813a1.618 1.618 0 0 0-.557-.09c-.245 0-.5.094-.765.282-.265.188-.496.516-.694.982v3.524h-.972v-5.488zm4.28.757h-.853v-.7l.901-.057.119-1.536h.818v1.536h1.553v.757H18.86v3.05c0 .338.065.6.195.784.13.185.362.277.694.277.103 0 .213-.015.332-.045.109-.027.216-.061.32-.102l.19.7c-.158.053-.33.1-.516.142-.18.04-.366.061-.551.062-.309 0-.567-.045-.777-.136a1.33 1.33 0 0 1-.51-.372 1.422 1.422 0 0 1-.278-.576 3.131 3.131 0 0 1-.083-.746v-3.038zm3.842-.757h.807l.083.79h.035c.277-.263.567-.483.872-.66.32-.181.688-.273 1.06-.265.61 0 1.054.18 1.335.542.28.361.42.896.42 1.604v3.478h-.972v-3.353c0-.52-.086-.894-.26-1.124-.174-.23-.45-.344-.83-.344-.3 0-.566.071-.795.214a5.099 5.099 0 0 0-.782.633v3.975h-.973v-5.489zm6.06 2.756c0-.452.072-.856.219-1.214.146-.358.34-.66.58-.91a2.52 2.52 0 0 1 .825-.57 2.42 2.42 0 0 1 .96-.197c.364 0 .69.06.978.18.289.12.53.294.724.52.193.226.342.497.444.813.103.316.154.67.154 1.062 0 .203-.011.373-.035.508h-3.89c.04.595.232 1.065.576 1.412.344.346.792.52 1.346.52.276 0 .531-.04.764-.12.234-.078.457-.182.67-.31l.344.61c-.253.15-.533.282-.842.395a3.056 3.056 0 0 1-1.055.17c-.387 0-.749-.066-1.085-.198a2.582 2.582 0 0 1-.877-.565 2.599 2.599 0 0 1-.587-.897 3.217 3.217 0 0 1-.214-1.209zm4.03-.418c0-.565-.124-.996-.373-1.293-.249-.297-.599-.446-1.05-.446-.201 0-.401.04-.586.118a1.63 1.63 0 0 0-.504.34 1.802 1.802 0 0 0-.373.541 2.41 2.41 0 0 0-.196.74h3.083zm2.277-2.338h.807l.083.994h.035a2.57 2.57 0 0 1 .718-.824c.28-.204.586-.305.918-.305.23 0 .435.037.617.113l-.19.813a1.618 1.618 0 0 0-.557-.09c-.245 0-.5.094-.765.282-.265.188-.496.516-.693.982v3.524h-.973v-5.488zm5.68 0h1.008l1.09 3.117c.088.272.177.543.267.814l.267.802h.048c.087-.264.174-.531.26-.802l.261-.814 1.091-3.117h.96l-2.039 5.49H41.84l-2.075-5.49zm5.94 2.756c0-.46.073-.868.22-1.225a2.77 2.77 0 0 1 .587-.91c.245-.248.527-.436.847-.564a2.705 2.705 0 0 1 1.014-.192c.356 0 .694.064 1.014.192.32.128.603.316.848.564.245.249.44.552.587.91.146.357.22.766.22 1.225 0 .452-.074.857-.22 1.214a2.705 2.705 0 0 1-.587.904 2.503 2.503 0 0 1-.848.559 2.705 2.705 0 0 1-1.014.192c-.356 0-.693-.064-1.014-.192a2.503 2.503 0 0 1-.847-.56 2.704 2.704 0 0 1-.587-.903 3.183 3.183 0 0 1-.22-1.214zm1.008 0c0 .316.04.602.119.858.079.256.191.477.338.661a1.503 1.503 0 0 0 1.203.582 1.503 1.503 0 0 0 1.204-.582c.146-.184.259-.405.338-.66.079-.257.118-.543.118-.859 0-.316-.04-.604-.118-.864a2.06 2.06 0 0 0-.338-.672 1.51 1.51 0 0 0-.528-.435 1.504 1.504 0 0 0-.676-.152c-.245 0-.47.05-.676.152a1.51 1.51 0 0 0-.527.435 2.061 2.061 0 0 0-.338.672 2.96 2.96 0 0 0-.119.864zm5.846-2.756h.806l.083.79h.036c.276-.263.567-.483.871-.66.32-.181.689-.273 1.061-.265.609 0 1.054.18 1.334.542.28.361.421.896.421 1.604v3.478h-.972v-3.353c0-.52-.087-.894-.26-1.124-.175-.23-.452-.344-.83-.344-.301 0-.566.071-.795.214a5.099 5.099 0 0 0-.783.633v3.975h-.972v-5.489z" fill="#2F2F2F"/>
    <path d="M77.584 44.393v2.054h-15.99v2.73h15.99v-2.049h2.91v-2.735z" fill="#FFCB04"/>
    <g transform="translate(61.593 44.143)">
      <mask id="park-logo-svg-b" fill="#fff">
        <use xlink:href="#park-logo-svg-a"/>
      </mask>
      <g mask="url(#park-logo-svg-b)" fill="#FFBE00">
        <path d="M0 0h19.808v4.717H0z"/>
      </g>
    </g>
    <g>
      <path d="M65.443 34.175h-3.848v.484c.652.005 1.077.132 1.077 1.182v8.565h1.864v-3.357h.835l2.292 3.355h2.583v-.424c-.544-.016-.925-.44-1.29-.868L67.2 40.788c1.338-.42 2.695-1.412 2.695-3.268 0-2.068-1.43-3.346-4.453-3.346v.001zm0 6.054l-.91-.042v-5.199h.586c1.828 0 2.722.858 2.722 2.588 0 1.896-.985 2.653-2.398 2.653zm9.01-6.054h-3.762v.484c.674 0 1.082.153 1.082 1.182v8.565h1.862V41.15h.414c2.932 0 4.826-.995 4.826-3.48 0-2.119-1.314-3.497-4.422-3.497v.001zm-.405 6.17h-.42v-5.357h.749c1.77 0 2.442.938 2.442 2.768 0 2.164-1.086 2.588-2.77 2.588h-.001zm13.774-6.317c-2.68 0-4.627 2.125-4.627 5.252 0 3.112 1.931 5.275 4.627 5.275 2.684 0 4.647-2.092 4.647-5.22 0-3.127-1.953-5.307-4.647-5.307zm0 .809c1.522 0 2.608 1.523 2.608 4.442 0 3.027-.94 4.465-2.608 4.465-1.519 0-2.572-1.509-2.572-4.465 0-2.974.903-4.442 2.572-4.442zm12.425 9.568h1.769v-10.23H100.8v7.294l-4.348-7.294h-1.914v10.23h1.2v-7.46l4.508 7.46zm4.636 0h5.07v-.913h-3.234v-9.317h-1.835v10.23zm6.62.002h1.813V34.176h-1.814v10.23h.002zm10.37-.002h1.764v-10.23h-1.21l-.007 7.294-4.346-7.294h-1.915v10.23h1.206l-.006-7.46 4.513 7.46zm4.632 0h5.573v-.913h-3.702v-4.03h2.674v-.894l-2.674-.005v-3.509h3.222v-.879h-5.093v10.23z" fill="#2F2F2F"/>
      <g transform="translate(61.593 34)">
        <mask id="park-logo-svg-d" fill="#fff">
          <use xlink:href="#park-logo-svg-c"/>
        </mask>
        <g mask="url(#park-logo-svg-d)" fill="#2F2F2F">
          <path d="M0 0h71.31v12.264H0z"/>
        </g>
      </g>
    </g>
  </a>
</g>
</svg>
