<?xml version="1.0" encoding="UTF-8"?>
<svg width="263px" height="216px" viewBox="0 0 263 216" version="1.1" xmlns="http://www.w3.org/2000/svg" xmlns:xlink="http://www.w3.org/1999/xlink">
    <!-- Generator: Sketch 51.3 (57544) - http://www.bohemiancoding.com/sketch -->
    <title>WZ_Logo</title>
    <desc>Created with Sketch.</desc>
    <defs></defs>
    <g id="Page-1" stroke="none" stroke-width="1" fill="none" fill-rule="evenodd">
        <g id="WZ_Logo" transform="translate(5.000000, 5.000000)">
            <rect id="rect817" fill="#FFFFFF" x="1.59340721e-06" y="-2.5127711e-06" width="252.12016" height="206"></rect>
            <rect id="rect835" stroke="#FFFFFF" stroke-width="5" fill="#0087BF" x="-2.49999841" y="-2.5" width="257.12016" height="160.58539"></rect>
            <path d="M51.495266,39.636444 L55.189016,58.84336 C55.189016,58.84336 60.795266,87.936444 60.895266,88.136444 C61.095266,88.236444 65.482766,71.636444 68.682766,58.636444 C71.982766,45.636444 73.295266,39.436444 73.795266,37.636444 L74.695266,34.436444 L91.095266,34.436444 L107.39527,34.436444 L113.59527,58.636444 C119.59527,83.236444 120.50773,88.149494 120.50773,88.149494 C120.50773,88.149494 123.89527,71.836444 126.49527,58.636444 L131.19527,34.436444 L180.89527,34.436444 L232.69493,34.436444 L232.69493,47.836444 L232.78863,60.955194 L212.8398,78.359604 L191.89522,96.536444 L211.39522,96.536444 L232.69488,96.536444 L232.69488,109.63644 L232.69488,120.93644 L191.89483,120.93644 L151.09483,120.93644 L151.29483,108.23644 L151.49483,94.936444 L166.69483,81.136444 C174.99483,73.536444 184.39483,65.136444 187.49483,62.436444 L193.09483,57.436444 L174.59483,57.636444 L156.09483,57.936444 L148.49483,89.436444 L140.99483,120.93644 L122.74027,120.93644 C122.74027,120.93644 105.1892,121.05626 104.14913,120.93644 C103.84913,120.13644 100.39483,106.63644 96.694826,91.936444 L89.894826,65.336444 L82.994826,93.336444 L76.194826,120.93644 L57.494826,120.93644 L38.794826,120.93644 L37.694826,116.63644 C35.794826,108.33644 19.594827,39.036444 19.094827,36.636444 L18.594827,34.436444 L34.494826,34.436444 L50.494826,34.436444 L51.495266,39.636444 Z" id="path4" fill="#FFFFFF" fill-rule="nonzero"></path>
            <polyline id="path837" stroke="#0087BF" stroke-width="0.075" fill="#FFFFFF" fill-rule="nonzero" points="232.78863 60.955194 191.89522 96.536441 191.89522 96.536441"></polyline>
            <polyline id="path839" stroke="#0087BF" stroke-width="0.075" points="50.494825 34.436444 60.895266 88.13644 60.895266 88.13644"></polyline>
            <rect id="rect841" stroke="#FFFFFF" stroke-width="5" fill="#BECF42" x="-2.49999841" y="158.5" width="257.12016" height="50"></rect>
        </g>
    </g>
</svg>