<?xml version="1.0" encoding="utf-8"?>
<!-- Generator: Adobe Illustrator 23.0.2, SVG Export Plug-In . SVG Version: 6.00 Build 0)  -->
<svg  preserveAspectRatio="xMinYMid meet" version="1.1" id="Ebene_1" xmlns="http://www.w3.org/2000/svg" xmlns:xlink="http://www.w3.org/1999/xlink" x="0px" y="0px"
	 viewBox="0 0 614.57 63.48" enable-background="new 0 0 614.57 63.48" xml:space="preserve">
<path fill="#0088C2" d="M1.68,54.63h612.16v8.85H1.68C1.68,63.48,1.68,54.63,1.68,54.63z"/>
<path fill-rule="evenodd" clip-rule="evenodd" fill="#1D1D1B" d="M137.72,42.37v-1c3.82-0.21,4.16-1.19,4.16-4.92V12.57
	c0-3.86,0.16-4.5-3.74-4.82V6.64h13.5c12.25,0,20.57,5.88,20.57,18c0,7.14-4.11,17.76-19.87,17.76L137.72,42.37z M148.31,9.37
	c-0.02,0.22-0.02,0.44,0,0.66v28.66c0,1.29,0.15,1.65,2.31,1.65c3.03-0.11,6-0.89,8.69-2.3c3.21-1.75,6.07-6,6.07-13.4
	c0-4.26-0.89-8.6-4.16-11.67c-2.27-2.12-5.16-4.31-11.25-4.31c-0.63,0-1.52,0-1.63,0.71H148.31z"/>
<path fill="#1D1D1B" d="M59.27,0v1.27c-2.93,0.47-3.68,1.08-5,4.47C49.69,17.84,45,30.1,41.15,42.43h-2
	c-2.36-6.87-6.76-17.87-9.46-24.61L20.6,42.43h-1.93c-3-8.73-8.86-24.65-12.2-33.26C5.14,5.79,4.72,1.53,0,1.17V0h16.68v1.16
	c-1.24,0-4.27,0.32-4.06,2.72c0.1,0.85,0.32,1.68,0.65,2.47L22,28.81l5.95-15.36l-2.34-5.92c-1.29-3.18-1.52-6.25-5.91-6.33h-0.44V0
	h18.03v1.21H36.6c-1.31,0-4.36,0.34-4.12,2.91c0.42,1.56,0.97,3.08,1.65,4.55l7.92,20.11l7.17-19c0.46-1.36,0.8-2.76,1-4.19
	c0.54-3.3-2.91-4.08-4.65-4.23V0H59.27z"/>
<path fill="#1D1D1B" d="M85.42,32.89l-2.33,9.43H55.4v-1c3.66-0.24,3.88-1.23,3.88-4.91V12.37c0-3.74-0.22-4.44-3.88-4.74v-1h27.37
	l0.12,8.05h-1.12c-0.8-5-2.58-5.9-7.84-5.9H66.7c-1,0-1,0.12-1,1.12v12.6h7.44c4.41,0,5.29-1.54,5.83-5.15h1v12.47H79
	c-0.54-3.76-1.39-4.92-5.82-5l-7.44-0.09v13.8c0,0.48-0.14,1.09,0.45,1.27c0.8,0.24,3,0.26,6.79,0.26c6.16,0,8.9-1.81,11.13-7.15
	L85.42,32.89z M106.34,6h0.9l1.16,11.77h-1.09c-0.83-4.17-4.33-9.15-9.78-9.15c-2.67-0.04-4.87,2.09-4.91,4.77c0,0.08,0,0.16,0,0.23
	c0,3.12,3.1,4.84,5.56,6.43c5.09,3.28,11.46,6.59,11.46,13.51c0,4.62-3.55,9.61-11,9.61c-2.67,0-4.76-1-7.11-1.78
	c-0.4-0.15-0.82-0.24-1.25-0.27c-0.88,0-1.35,1-1.35,1.77v0.22H88l-1.6-11.73h0.95c1.7,4.4,4.86,9.41,10.79,9.41
	c3.92,0,5.41-2.9,5.41-5.69s-1-4.35-8.47-8.92c-4.69-2.82-7.31-5.76-7.31-11.15c0-6.2,4.76-9,9.46-9c2.15,0,4.44,1.12,6.39,1.8
	c0.36,0.15,0.74,0.24,1.13,0.27c1.23,0,1.44-1.24,1.59-2.07V6z M130.72,41.33h0.44v1h-15v-1c4.4-0.21,4.33-1.57,4.33-5.46V9.17h-2
	c-5.74,0-6.59,2.66-7.48,7.59h-1.22l0.32-10.14H137l0.41,10.14h-1.11c-0.85-5-1.82-7.59-7.58-7.59h-2v27.27c0,3.37,0.33,4.72,4,4.87
	V41.33z M203,32.89l-2.33,9.43H173v-1c3.65-0.24,3.88-1.23,3.88-4.91V12.37c0-3.74-0.22-4.44-3.88-4.74v-1h27.37l0.11,8.05h-1.11
	c-0.8-5-2.58-5.9-7.85-5.9h-7.23c-1,0-0.95,0.12-0.95,1.12v12.6h7.44c4.41,0,5.28-1.54,5.82-5.15h1v12.47h-1
	c-0.54-3.76-1.39-4.92-5.83-5l-7.43-0.09v13.8c0,0.48-0.15,1.09,0.45,1.27c0.79,0.24,3,0.26,6.79,0.26c6.16,0,8.9-1.81,11.13-7.15
	L203,32.89z M237.94,6.71v1c-2.91,0.32-4.41,1.3-4.52,4.05v16.79c0,2.95-0.18,6.05-1.69,8.83c-1.75,3.21-4.77,5.76-11.45,5.76
	c-9.75,0-13.05-5.95-13.05-13.91V12.6c0-3.86-0.63-4.57-4.48-4.83V6.71h15.48v1.05c-3.84,0.3-4.54,1-4.54,4.84v17.81
	c0,5.28,1.07,9.91,8,9.91c3.67,0,6.38-1.42,7.69-3.64c0.57-1,1.43-2.72,1.43-6.89V14.58c0-4-0.32-6.52-5.17-6.81V6.71H237.94z
	 M259.39,41.27h0.44v1h-15v-1c4.39-0.22,4.32-1.57,4.32-5.46V9.11h-2c-5.74,0-6.59,2.66-7.48,7.59h-1.21l0.32-10.14h26.83
	l0.42,10.14H265c-0.85-5-1.83-7.59-7.59-7.59h-2v27.27c0,3.37,0.32,4.72,4,4.86L259.39,41.27z M287.74,6h0.9l1.16,11.77h-1.1
	c-0.82-4.16-4.32-9.14-9.77-9.14c-2.67-0.04-4.87,2.09-4.91,4.77c0,0.08,0,0.16,0,0.23c0,3.13,3.1,4.85,5.56,6.44
	c5.09,3.28,11.46,6.59,11.46,13.51c0,4.62-3.55,9.6-11,9.6c-2.67,0-4.76-1-7.11-1.78c-0.4-0.15-0.83-0.25-1.26-0.27
	c-0.87,0-1.34,1-1.34,1.78V43h-0.93l-1.61-11.72h0.95c1.7,4.4,4.86,9.41,10.79,9.41c3.92,0,5.41-2.9,5.41-5.68s-1-4.36-8.47-8.92
	c-4.69-2.82-7.31-5.76-7.31-11.16c0-6.2,4.76-9,9.45-9c2.16,0,4.44,1.12,6.4,1.81c0.36,0.15,0.74,0.24,1.13,0.27
	c1.22,0,1.44-1.24,1.59-2.08L287.74,6z M320.27,19h-0.89c-0.91-4.48-4.37-10.68-10.35-10.68c-2.37,0.1-4.59,1.18-6.11,3
	c-1.6,1.83-3.38,6-3.38,13.38c0,10.86,5,16,10,16c4.64,0,8-2.73,10.76-5.87l0.75,0.91c-2.52,4.66-7.41,7.54-12.7,7.49
	c-7.56,0-15.49-5.34-15.49-18.6c0-11.92,7.67-18.59,15.75-18.59c2.57,0,5,1.15,7.39,2c0.27,0.11,0.55,0.18,0.84,0.23
	c1.13,0,1.45-1.38,1.61-2.19h0.84l1,13L320.27,19z M321.32,42.32v-1c4.36-0.22,4.38-1.54,4.38-5.44v-23.4c0-3.81-0.39-4.49-4.2-4.81
	V6.59h15.05v1.08c-3.8,0.31-4.39,1-4.39,4.81V23h13.72V12.48c0-3.81-0.57-4.49-4.38-4.81V6.59h14.79v1.08c-3.31,0.17-4,1-4,4.81
	v23.95c0,3.67,0.19,4.63,4,4.88v1H341.5v-1c4.37-0.22,4.38-1.54,4.38-5.44V25.33h-13.72v11.1c0,3.67,0.62,4.63,4.39,4.88v1
	L321.32,42.32z M387.53,32.89l-2.33,9.43h-27.68v-1c3.65-0.24,3.87-1.23,3.87-4.91V12.37c0-3.74-0.21-4.44-3.87-4.74v-1h27.36
	l0.12,8.05h-1.11c-0.81-5-2.59-5.9-7.85-5.9h-7.23c-1.05,0-1,0.12-1,1.12v12.6h7.45c4.41,0,5.28-1.54,5.82-5.15h1v12.47h-1
	c-0.55-3.76-1.39-4.92-5.83-5l-7.44-0.09v13.8c0,0.48-0.14,1.09,0.45,1.27c0.8,0.24,3,0.26,6.79,0.26c6.17,0,8.91-1.81,11.14-7.15
	L387.53,32.89z M432.2,30.46l0.08-0.33h1.21L432,42.32h-33.43L423.92,3h-11.21c-6.81,0-9.41,3.59-10.32,8.88H401L402.2,0h31.39
	l-25,39.41h13.27c6.61,0,9-4.05,10.37-9L432.2,30.46z M464.45,32.89l-2.33,9.43h-27.68v-1c3.65-0.24,3.87-1.23,3.87-4.91V12.37
	c0-3.74-0.21-4.44-3.87-4.74v-1h27.37l0.11,8.05h-1.11c-0.8-5-2.59-5.9-7.85-5.9h-7.23c-1.05,0-1,0.12-1,1.12v12.6h7.45
	c4.41,0,5.28-1.54,5.82-5.15h1v12.47h-1c-0.54-3.76-1.39-4.92-5.83-5l-7.44-0.09v13.8c0,0.48-0.14,1.09,0.45,1.27
	c0.8,0.24,3,0.26,6.8,0.26c6.16,0,8.9-1.81,11.13-7.15L464.45,32.89z"/>
<path fill="#1D1D1B" d="M463.68,42.32V41.2c4-0.1,4.63-0.79,4.63-4.79V12.52c0-4-0.61-4.66-4.56-4.86V6.59h15.51v1.08
	c-3.81,0.16-4.61,0.87-4.61,4.89v23.89c0,4,1,4.64,4.84,4.75v1.12H463.68z M501.11,41.28h0.44v1h-15v-1
	c4.4-0.22,4.33-1.57,4.33-5.46V9.12h-2c-5.74,0-6.59,2.66-7.48,7.59h-1.22l0.32-10.14h26.9l0.41,10.14h-1.11
	c-0.85-5-1.82-7.59-7.58-7.59h-2v27.27c0,3.37,0.33,4.72,4,4.86L501.11,41.28z M543.69,6.68v1c-2.91,0.31-4.39,1.3-4.5,4.05v16.78
	c0,2.94-0.18,6.05-1.69,8.83c-1.75,3.2-4.77,5.76-11.45,5.76c-9.75,0-13-6-13-13.92V12.57c0-3.86-0.63-4.57-4.48-4.84V6.68H524v1.05
	c-3.84,0.3-4.54,1-4.54,4.84v17.81c0,5.27,1.07,9.9,8,9.9c3.67,0,6.38-1.42,7.69-3.64c0.56-1,1.43-2.71,1.43-6.89V14.54
	c0-4-0.32-6.51-5.17-6.8V6.68L543.69,6.68z M552.87,34c0,3.93,0.15,7.2,5,7.41v1h-13.08v-1c5-0.34,5.25-2.36,5.25-6.66V11.47
	c-1.89-2.38-3.26-3.67-4.79-3.76h-0.34v-1h9.44L573,30.83v-15.9c0-4.73,0.08-7.28-5.11-7.28v-1h12.54v1
	c-4.81,0.05-4.81,2.34-4.81,6.87V43h-1.45l-21.31-28v19H552.87z M613.46,23.48h-12.25c3.7,0.32,4.39,1,4.39,4.93v9.2
	c0,2.12-3.73,3.29-7.06,3.29c-7.9,0-13.13-6.4-13.13-15.87c0-13.26,7.4-17,12.28-17c6.48,0,9.75,4.54,11.49,9.22l-0.32-10.54
	c-0.28,1.12-1.24,1.92-2.39,2c-1.38-0.11-2.73-0.45-4-1c-1.76-0.65-3.63-0.99-5.51-1c-10.41,0-16.82,8.55-16.82,17.2
	c0,6.77,1.48,9.79,4.08,12.76c3.48,3.94,8.94,5.49,13.83,5.49c5.57,0,11.89-3.05,11.89-3.53V27.79c0-3,0.6-4,3.48-4.2v-0.11
	L613.46,23.48z"/>
<path fill="#1D1D1B" d="M614.57,23v1c-2.72,0.25-3.49,0.14-3.49,3.41v11.34c0,1.49-7.58,4.4-12.8,4.4c-5.06,0-10.82-1.6-14.53-5.8
	c-2.76-3.15-4.29-6.37-4.29-13.32c0-9,6.68-18.07,17.73-18.07c4.27,0,6.61,2.34,9.47,2.34c1.07,0,2.1-1.56,2.26-2.34h1l0.35,11.95
	h-0.94c-1.72-4.78-4.59-9.59-11.47-9.59c-5.28,0-11.37,3.95-11.37,16.81c0,9.2,4,15.81,12.22,15.81c3.57,0,6.14-1.27,6.14-2.42V28
	c0-2.2-0.28-3-0.7-3.36c-0.66-0.57-2.76-0.6-3.68-0.67v-1L614.57,23z"/>
</svg>
