<svg version="1.1" xmlns="http://www.w3.org/2000/svg" viewBox="0 0 32 32"><path d="M26.23 9.26A18.3 18.3 0 0 1 32 16a17.92 17.92 0 0 1-16 10 17.6 17.6 0 0 1-5.6-.9l2.44-2.45a14.67 14.67 0 0 0 11.05-1.95c1.88-1.2 3.47-2.8 4.67-4.7a15.23 15.23 0 0 0-4.49-4.58l2.16-2.16zM16 21.81a8 8 0 0 1-2.05-.26l9.78-9.8A8 8 0 0 1 16 21.82zM30 0h-1.68l-6.86 6.86A17.6 17.6 0 0 0 16 6 17.92 17.92 0 0 0 0 16a18.3 18.3 0 0 0 5.66 6.66L0 28.32V30h1.68L30 1.68V0zM13 9.81a3 3 0 0 1 2.96 2.55l-3.42 3.42A3 3 0 0 1 13 9.8zM3.44 16a15.22 15.22 0 0 1 5.04-4.92 7.98 7.98 0 0 0 1.17 7.6L7.82 20.5A15.24 15.24 0 0 1 3.44 16z"/></svg>