<svg viewBox="0 0 119 27" xmlns="http://www.w3.org/2000/svg"><path d="M26.97 18.45v3.64H0v4.84h26.97V23.3h4.91v-4.85zM6.5.3H0v.86c1.1.01 1.82.23 1.82 2.1v15.2h3.15V12.5h1.4l3.87 5.95h4.35v-.75c-.91-.03-1.55-.78-2.17-1.54l-2.96-4.12c2.26-.75 4.54-2.5 4.54-5.8C14 2.58 11.6.3 6.5.3zm0 10.74l-1.53-.07V1.75h.99c3.08 0 4.59 1.53 4.59 4.6 0 3.36-1.66 4.7-4.05 4.7zM21.7.31h-6.34v.86c1.13 0 1.82.27 1.82 2.1v15.2h3.14v-5.78h.7c4.94 0 8.14-1.76 8.14-6.17 0-3.77-2.22-6.2-7.46-6.2zm-.68 10.95h-.7v-9.5h1.25c2.99 0 4.12 1.66 4.12 4.9 0 3.85-1.83 4.6-4.67 4.6zM44.24.06c-4.52 0-7.8 3.76-7.8 9.31 0 5.52 3.26 9.36 7.8 9.36 4.53 0 7.84-3.71 7.84-9.26S48.78.05 44.24.05zm0 1.43c2.57 0 4.4 2.7 4.4 7.88 0 5.37-1.59 7.92-4.4 7.92-2.56 0-4.34-2.67-4.34-7.92 0-5.28 1.53-7.88 4.34-7.88zM65.2 18.46h2.98V.31h-2.05v12.94L58.8.31h-3.23v18.15h2.03V5.23l7.6 13.23zm7.82 0h8.55v-1.62h-5.45V.31h-3.1v18.15zm11.17 0h3.05V.32H84.2v18.16zm17.49 0h2.97V.31h-2.04v12.94L95.26.31h-3.23v18.15h2.03V5.23l7.6 13.23zm7.81 0h9.4v-1.62h-6.24V9.7h4.5V8.11l-4.5-.01V1.87h5.43V.31h-8.59v18.15z" fill-rule="evenodd"/></svg>