<svg viewBox="0 0 18 18" version="1.1" xmlns="http://www.w3.org/2000/svg" xmlns:xlink="http://www.w3.org/1999/xlink"><defs><path d="M18.88 12.88a6.83 6.83 0 0 0 0-1.76l1.95-1.49a.45.45 0 0 0 .11-.57l-1.85-3.12c-.11-.2-.36-.27-.56-.2l-2.3.9a6.8 6.8 0 0 0-1.57-.88l-.35-2.38a.45.45 0 0 0-.46-.38h-3.7a.45.45 0 0 0-.45.38l-.35 2.38c-.57.23-1.09.53-1.57.88l-2.3-.9a.46.46 0 0 0-.57.2L3.06 9.06c-.12.2-.06.44.12.57l1.95 1.49a6.95 6.95 0 0 0 0 1.76l-1.95 1.49a.45.45 0 0 0-.12.57l1.85 3.12c.12.2.37.27.57.2l2.3-.9c.48.36 1 .65 1.57.88l.35 2.38c.03.22.22.38.45.38h3.7c.23 0 .43-.16.46-.38l.35-2.38a7.16 7.16 0 0 0 1.56-.88l2.3.9c.22.08.46 0 .57-.2l1.85-3.12a.45.45 0 0 0-.11-.57l-1.95-1.49zM12 15.15A3.2 3.2 0 0 1 8.76 12 3.2 3.2 0 0 1 12 8.85 3.2 3.2 0 0 1 15.24 12 3.2 3.2 0 0 1 12 15.15z" id="park-svg-settings-path-1"/></defs><use xlink:href="#park-svg-settings-path-1" transform="translate(-3 -3)" stroke="none" stroke-width="1" fill-rule="evenodd"/></svg>