<svg xmlns="http://www.w3.org/2000/svg" viewBox="0 0 133 20" version="1.1"><path d="M30.66 17.43c.42.44.91.8 1.48 1.07s1.16.4 1.77.4a2.8 2.8 0 0 0 1.82-.53c.43-.35.65-.82.65-1.4 0-.3-.05-.55-.15-.76-.1-.2-.24-.39-.42-.54a3 3 0 0 0-.62-.4l-.77-.38-1.7-.74a8.07 8.07 0 0 1-.84-.43 3.48 3.48 0 0 1-.77-.61 2.84 2.84 0 0 1-.77-2 2.92 2.92 0 0 1 1.05-2.24c.33-.29.71-.5 1.16-.66a4.73 4.73 0 0 1 4.98 1.22l-.8.98a4.2 4.2 0 0 0-1.2-.82c-.44-.2-.94-.3-1.49-.3-.66 0-1.2.15-1.6.46-.4.3-.6.73-.6 1.27 0 .29.06.53.18.73.1.2.26.37.45.52.2.15.4.28.63.4l.7.31 1.68.72c.34.14.65.3.95.5a2.82 2.82 0 0 1 1.29 1.51c.13.33.19.7.19 1.14a3.13 3.13 0 0 1-1.08 2.38 3.7 3.7 0 0 1-1.26.72 5.65 5.65 0 0 1-5.81-1.48l.9-1.04zm9.36 0c.42.44.91.8 1.48 1.07s1.16.4 1.77.4a2.8 2.8 0 0 0 1.82-.53c.43-.35.65-.82.65-1.4 0-.3-.05-.55-.15-.76-.1-.2-.24-.39-.42-.54a3 3 0 0 0-.62-.4l-.77-.38-1.7-.74a8.07 8.07 0 0 1-.84-.43 3.48 3.48 0 0 1-.77-.61 2.84 2.84 0 0 1-.77-2c0-.45.08-.86.27-1.24.19-.39.44-.72.77-1 .34-.29.72-.5 1.17-.66a4.73 4.73 0 0 1 4.98 1.22l-.8.98a4.2 4.2 0 0 0-1.2-.82c-.44-.2-.94-.3-1.49-.3-.66 0-1.2.15-1.6.46-.4.3-.6.73-.6 1.27 0 .29.06.53.17.73.12.2.27.37.46.52.2.15.4.28.63.4l.7.31 1.68.72c.34.14.65.3.95.5a2.82 2.82 0 0 1 1.29 1.51c.13.33.19.7.19 1.14a3.13 3.13 0 0 1-1.08 2.38 3.7 3.7 0 0 1-1.26.72 5.65 5.65 0 0 1-5.81-1.48l.9-1.04zm9.57-9.24h1.5v10.53h5.16V20H49.6V8.2zm12.87 13.29c0 .46.23.84.68 1.11.45.28 1.07.42 1.86.42a4 4 0 0 0 1.14-.16c.35-.1.64-.23.88-.4.24-.16.42-.34.55-.56.14-.22.2-.44.2-.67 0-.4-.15-.69-.45-.84-.3-.16-.74-.24-1.31-.24H64.5c-.17 0-.35 0-.55-.02a2.8 2.8 0 0 1-.59-.12 2.4 2.4 0 0 0-.68.72c-.15.25-.22.5-.22.76zm-1.3.2c0-.38.12-.73.35-1.07.23-.33.54-.64.93-.92v-.07a1.59 1.59 0 0 1-.77-1.42c0-.37.1-.7.3-.97.21-.28.43-.5.65-.65v-.07a3.58 3.58 0 0 1-.78-.97 3.1 3.1 0 0 1-.09-2.7 2.93 2.93 0 0 1 1.77-1.59 3.73 3.73 0 0 1 2.5 0h3.05v1.14h-1.8a2.52 2.52 0 0 1 .72 1.8c0 .46-.09.89-.25 1.27a2.96 2.96 0 0 1-1.71 1.55 3.58 3.58 0 0 1-1.91.14 3.3 3.3 0 0 1-.65-.23c-.16.13-.29.28-.4.44-.1.17-.16.37-.16.6 0 .28.11.51.33.69.21.18.62.27 1.22.27h1.7c1.01 0 1.78.16 2.29.5.5.33.76.86.76 1.59 0 .4-.1.8-.3 1.16-.2.37-.5.69-.89.96-.38.28-.84.5-1.4.66-.54.16-1.15.24-1.84.24a6.6 6.6 0 0 1-1.47-.15c-.45-.1-.83-.26-1.15-.46-.31-.2-.56-.45-.73-.74a1.91 1.91 0 0 1-.26-1zm3.62-5.44a1.77 1.77 0 0 0 1.3-.56c.18-.18.32-.4.41-.66.1-.26.15-.55.15-.87 0-.65-.18-1.15-.54-1.5a1.8 1.8 0 0 0-1.32-.53c-.51 0-.95.17-1.31.53-.36.35-.54.85-.54 1.5 0 .32.05.61.14.87a1.87 1.87 0 0 0 1 1.07c.23.1.46.15.71.15zm5.22-.6a5.1 5.1 0 0 1 1.22-3.38c.37-.4.78-.7 1.25-.9a3.66 3.66 0 0 1 2.94-.03c.44.19.8.46 1.1.82.3.36.52.8.68 1.3a5.71 5.71 0 0 1 .18 2.5h-5.9c.05.95.34 1.7.86 2.25.53.55 1.2.83 2.05.83.42 0 .8-.06 1.16-.2.35-.12.7-.28 1.02-.49l.52.98c-.39.24-.81.45-1.28.63s-1 .27-1.6.27c-.59 0-1.14-.1-1.65-.32a3.9 3.9 0 0 1-2.22-2.33 5.36 5.36 0 0 1-.33-1.93zm6.12-.66c0-.9-.18-1.59-.56-2.06a1.91 1.91 0 0 0-1.6-.71c-.3 0-.6.06-.89.18a2.64 2.64 0 0 0-1.33 1.41 4 4 0 0 0-.3 1.18h4.68zm3.23 3.04c.38.31.77.56 1.18.76.4.19.86.28 1.39.28.58 0 1-.13 1.3-.4.28-.26.43-.58.43-.96a1 1 0 0 0-.18-.6 1.79 1.79 0 0 0-.46-.44c-.19-.13-.4-.24-.64-.33l-.72-.29c-.31-.1-.62-.23-.94-.37-.3-.14-.59-.3-.83-.5-.25-.2-.45-.43-.6-.7a1.84 1.84 0 0 1-.24-.95 2.36 2.36 0 0 1 .8-1.77c.26-.23.57-.4.95-.53a4.2 4.2 0 0 1 3.98.8l-.7.94a4.7 4.7 0 0 0-.94-.56 2.59 2.59 0 0 0-1.07-.21c-.55 0-.95.12-1.21.38a1.2 1.2 0 0 0-.39.88c0 .2.06.38.16.53.11.15.26.28.44.4.18.1.38.21.62.3a244.58 244.58 0 0 0 1.67.66c.32.13.6.3.86.5a2.1 2.1 0 0 1 .86 1.77 2.4 2.4 0 0 1-.82 1.84c-.27.23-.6.42-1 .56a4.71 4.71 0 0 1-3.16-.14 5.56 5.56 0 0 1-1.48-.86l.74-.99zm8.53-8.57c-.29 0-.53-.09-.73-.27a.88.88 0 0 1-.3-.68c0-.29.1-.52.3-.7.2-.17.44-.26.73-.26s.53.1.73.26c.2.18.3.41.3.7 0 .27-.1.5-.3.68-.2.18-.44.27-.73.27zm-.76 1.8h1.48V20h-1.48v-8.75zm3.78 4.4c0-.74.12-1.39.34-1.96a4.4 4.4 0 0 1 .92-1.45c.39-.4.83-.7 1.34-.9a4.3 4.3 0 0 1 1.61-.3c.58 0 1.07.1 1.49.31.41.21.77.45 1.07.73l-.74.95a4.13 4.13 0 0 0-.82-.55c-.28-.15-.6-.22-.94-.22a2.5 2.5 0 0 0-1.96.94c-.24.3-.43.65-.57 1.07-.14.41-.2.87-.2 1.37 0 .5.06.96.19 1.37.13.41.31.76.55 1.05a2.43 2.43 0 0 0 1.95.93c.42 0 .8-.08 1.15-.26.34-.17.64-.38.9-.62l.67.97c-.4.35-.84.63-1.32.83a4.28 4.28 0 0 1-3.14 0c-.5-.2-.94-.5-1.3-.9a4.19 4.19 0 0 1-.87-1.43 5.57 5.57 0 0 1-.32-1.94zm8.86-8.47h1.47v3.5l-.05 1.8c.42-.4.86-.74 1.31-1.02.46-.28 1-.42 1.6-.42.93 0 1.6.28 2.03.86.43.58.64 1.43.64 2.56V20h-1.48v-5.35c0-.82-.13-1.42-.4-1.79-.26-.36-.68-.55-1.25-.55-.46 0-.86.12-1.2.35-.36.22-.75.56-1.2 1V20h-1.47V7.18zm9.14 8.46c0-.72.11-1.36.33-1.93.23-.57.52-1.05.89-1.45.36-.4.78-.7 1.25-.9a3.66 3.66 0 0 1 2.94-.03c.44.19.8.46 1.1.82.3.36.52.8.67 1.3a5.71 5.71 0 0 1 .18 2.5h-5.9c.06.95.35 1.7.87 2.25.53.55 1.2.83 2.05.83.42 0 .8-.06 1.16-.2.35-.12.69-.28 1.01-.49l.53.98c-.39.24-.81.45-1.28.63s-1 .27-1.6.27c-.6 0-1.14-.1-1.65-.32a3.9 3.9 0 0 1-2.22-2.33 5.36 5.36 0 0 1-.33-1.93zm6.12-.66c0-.9-.19-1.59-.56-2.06a1.91 1.91 0 0 0-1.6-.71c-.31 0-.6.06-.89.18-.28.13-.54.31-.76.54-.23.24-.42.53-.57.87a4 4 0 0 0-.3 1.18h4.68zm3.46-3.73h1.22l.13 1.59h.05c.3-.56.66-1 1.1-1.32a2.33 2.33 0 0 1 2.33-.3l-.3 1.3a2.35 2.35 0 0 0-.85-.14c-.36-.01-.75.14-1.15.44-.4.3-.76.82-1.06 1.56V20h-1.47v-8.75zm6.5 1.2h-1.3v-1.1l1.37-.1.18-2.45h1.24v2.45h2.36v1.2h-2.36v4.87c0 .54.1.95.3 1.25.2.3.55.44 1.05.44.16 0 .32-.02.5-.07s.35-.1.49-.16l.29 1.11c-.24.09-.5.16-.78.23-.29.06-.57.1-.84.1-.47 0-.86-.08-1.18-.22a2.03 2.03 0 0 1-.77-.6c-.2-.25-.34-.55-.43-.91a5.23 5.23 0 0 1-.12-1.19v-4.84zM12 16.71c.96 0 1.75-.77 1.75-1.71s-.79-1.71-1.75-1.71-1.75.77-1.75 1.71.79 1.71 1.75 1.71zM17.25 9h-.88V7.29A4.33 4.33 0 0 0 12 3a4.33 4.33 0 0 0-4.38 4.29V9h-.87C5.79 9 5 9.77 5 10.71v8.58c0 .94.79 1.71 1.75 1.71h10.5c.96 0 1.75-.77 1.75-1.71V10.7c0-.93-.79-1.7-1.75-1.7zM9.29 7.29A2.69 2.69 0 0 1 12 4.63c1.5 0 2.71 1.19 2.71 2.66V9H9.3V7.29zm7.96 12H6.75V10.7h10.5v8.58z"/></svg>