<svg viewBox="0 0 24 20" xmlns="http://www.w3.org/2000/svg"><path d="M23.72 2.32a9.61 9.61 0 0 1-2.8.78A4.95 4.95 0 0 0 23.06.35a9.64 9.64 0 0 1-3.09 1.2A4.82 4.82 0 0 0 16.42 0a4.9 4.9 0 0 0-4.74 6.07A13.75 13.75 0 0 1 1.65.9 4.97 4.97 0 0 0 1 3.4a4.96 4.96 0 0 0 2.16 4.1 4.78 4.78 0 0 1-2.2-.62v.07a4.9 4.9 0 0 0 3.9 4.84 4.8 4.8 0 0 1-2.2.09A4.88 4.88 0 0 0 7.2 15.3 9.67 9.67 0 0 1 0 17.35a13.62 13.62 0 0 0 7.46 2.22c8.95 0 13.84-7.53 13.84-14.06a15.3 15.3 0 0 0-.01-.64 10 10 0 0 0 2.43-2.55" fill-rule="evenodd"/></svg>