<svg viewBox="0 0 18 18" version="1.1" xmlns="http://www.w3.org/2000/svg"><path d="M13.63 10.79c-.06-.1-.2-.15-.42-.25-.22-.11-1.28-.63-1.48-.7-.2-.07-.34-.11-.49.1-.14.22-.56.7-.68.85-.13.14-.26.16-.47.05-.22-.1-.92-.33-1.74-1.06a6.54 6.54 0 0 1-1.2-1.5c-.14-.2-.02-.32.09-.43.1-.1.21-.25.32-.38.1-.12.15-.21.22-.36.07-.14.03-.27-.02-.37l-.67-1.6c-.18-.43-.36-.36-.49-.36l-.41-.02a.8.8 0 0 0-.58.27c-.2.22-.76.74-.76 1.8 0 1.05.78 2.08.89 2.22.1.14 1.5 2.38 3.7 3.24 2.2.86 2.2.58 2.6.54.4-.04 1.28-.52 1.46-1.02.18-.5.18-.93.13-1.02zm-4.47-9.4a7.4 7.4 0 0 0-7.43 7.38c0 1.61.53 3.1 1.42 4.32l-.93 2.74 2.86-.9a7.43 7.43 0 0 0 11.51-6.16A7.4 7.4 0 0 0 9.16 1.4zM18 8.78a8.8 8.8 0 0 1-8.84 8.77c-1.55 0-3-.4-4.27-1.1L0 18l1.6-4.7A8.67 8.67 0 0 1 .32 8.77 8.8 8.8 0 0 1 9.16 0 8.8 8.8 0 0 1 18 8.77z"/></svg>