<svg version="1.1" xmlns="http://www.w3.org/2000/svg" viewBox="0 0 32 32"><path fill="#c32a28" d="M31.85 16.02A15.85 15.85 0 1 0 16 31.87c8.76 0 15.85-7.1 15.85-15.85z"/><path fill="#fff" d="M15.38 20.8a2.58 2.58 0 0 1 2.4 2.03h4v-3.36l3.43 3.36h5.16l-5.7-5.75 5.35-5.41H24.5l-2.72 2.7v-2.7h-4.12V1.6h-3.64a9.49 9.49 0 0 1-2.75 1.85v2.92c.57-.13 1.34-.43 1.87-.68v5.98H2.6v11.16h4.5v-4.4h4.25a5.59 5.59 0 0 0-3.59 5.34c0 3.28 3.15 5.94 7.35 5.94 4.55 0 6.97-2.31 7.52-5h-4.86c-.4 1.15-1.23 1.85-2.4 1.85-1.47 0-2.67-1.3-2.67-2.88 0-1.74 1.1-2.87 2.67-2.87zm-.13-2.96c-.69 0-1.32.04-1.91.12v-2.3H6.9v-1.1h6.44v-2.6h4.12v6.05c-.67-.11-1.4-.17-2.2-.17z"/></svg>