<svg version="1.1" id="Ebene_1" xmlns="http://www.w3.org/2000/svg" x="0" y="0" viewBox="0 0 323.1 371.3" xml:space="preserve"><style type="text/css">.st0{fill-rule:evenodd;clip-rule:evenodd;fill:#fff}.st1,.st2{fill:#0068b2}.st2{fill-rule:evenodd;clip-rule:evenodd}</style><path class="st0" d="M318.8 208.9c0 87.1-70.6 157.8-157.2 157.8S4.4 296.1 4.4 209V4.7h314.4v204.2z"/><path class="st1" d="M320.8 208.9c0 44.1-17.9 84-46.6 112.9-28.8 28.9-68.7 46.9-112.5 46.9-43.9 0-83.7-17.9-112.5-46.9A159.1 159.1 0 0 1 2.4 209V2.7h318.4v206.2zM271.3 319c28.1-28.2 45.5-67.1 45.5-110.1V6.7H6.4V209c0 43 17.4 81.9 45.4 110.1 28.1 28.2 66.9 45.7 109.7 45.7 42.8-.1 81.7-17.6 109.8-45.8z"/><path class="st2" d="M311 207.8c0 82.9-67.1 150-149.4 150-82.3 0-149.4-67.1-149.4-149.9V13.7H311v194.1z"/><path class="st0" d="M312.1 208c0 83.3-66 150.7-149.8 150.7v-346h149.8V208zM127.4 41.4h28.1v89.4h-28.1z"/><path class="st0" d="M155 41.4h9.3v12.1H155zm-.1 40.6h9.3v12.1h-9.3z"/><path class="st2" d="M162.3 41.4h32.5v12l-32.3.2zm-.1 40.8h32.5v12l-32.3.1z"/><path class="st0" d="M50.3 131h28.1V41.6l-28.1 2.7z"/><path class="st0" d="M78.6 41.3l-48.8 5.2v11.4l48.7-5.5zm21.5 94.6c6.7 0 12.2-5.5 12.2-12.2 0-6.7-5.5-12.2-12.2-12.2-6.7 0-12.2 5.5-12.2 12.2 0 6.7 5.5 12.2 12.2 12.2z"/><path class="st2" d="M292.9 96.8l-26.3.1c-.9 14.7-4.7 24.4-17.6 24.5-15.4.2-18.7-15.6-18.7-35s4.3-35.7 18.7-35.5c13.6.2 15.6 7.8 17.5 19.9l25.5-.1c-6.3-17.1-23.3-29.3-42.6-29.3-24.7 0-44.9 20.1-44.9 44.7s20.1 44.7 44.9 44.7c21 .1 38.7-14.5 43.5-34z"/><path class="st0" d="M25.8 210.2h24.3c1.1 0 2.6.1 4.4.2 1.8.2 3.7.4 5.8.7-2-.7-4.6-1.8-7.8-3.3l-.4-.2L25 194.5l27-12.8c.2-.1.6-.3 1.2-.5 2.7-1.3 5.1-2.3 7-2.9-2.2.3-4.2.6-6 .7-1.7.2-3.1.3-4.1.3H25.8v-11l47.8.1v14.8l-26.3 11.7 26.2 12.4v14.2l-47.8-.1.1-11.2zm1.4 26.6l50.5-1.8 5.3 13.8-38.8 32.5-4.6-11.9 5.8-4.3-6.5-17.1-7.2.7-4.5-11.9zm21.1 10.5l4.6 12 18.4-14-23 2zm54.2 44.5h11.7c0-3.8-.8-7.2-2.3-10.4-1.5-3.2-3.7-6-6.6-8.6-2.7-2.3-5.6-4.1-8.6-5.2s-6.2-1.5-9.5-1.3c-3.3.2-6.4 1.1-9.2 2.6-2.9 1.5-5.5 3.6-7.8 6.2-2.3 2.7-4 5.5-5.1 8.6-1.1 3.1-1.5 6.2-1.2 9.5.2 3.3 1.1 6.4 2.6 9.3 1.5 2.9 3.6 5.5 6.2 7.8 3.6 3.1 7.4 5.1 11.3 5.9 4 .8 8.3.6 13-.8 1.7-.5 3.6-1.4 5.6-2.8 2-1.4 3.8-3 5.5-4.9.2-.3.5-.7.9-1.2s.7-.9.8-1.1l-18.7-16.3-6 6.9 9.3 8.1c-2.5 1.3-5 1.8-7.6 1.5-2.6-.3-4.9-1.5-7.2-3.4-2.8-2.5-4.3-5.5-4.4-9.1-.1-3.6 1.2-6.9 4-10 2.7-3.1 5.9-4.9 9.4-5.3 3.5-.4 6.7.6 9.6 3.1a12 12 0 0 1 3.6 4.9c.7 1.9 1 3.9.7 6zm22.4 36.2l3.5 1c3.7 1.1 6.9.7 9.8-1.1 2.9-1.8 5-4.8 6.2-9 1.3-4.3 1.2-8-.2-11s-4.1-5.1-7.9-6.3l-3.2-1-8.2 27.4zm-14.3 5.9l13.7-46 14.1 4.2c3.2 1 5.9 2 8 3.2 2.1 1.2 3.8 2.5 5.2 4 2.8 3.2 4.5 6.7 5.3 10.6.8 3.9.5 8-.8 12.4-1.3 4.2-3.3 7.8-6.1 10.6s-6.3 4.9-10.5 6.1c-1.8.5-4 .7-6.4.5-2.5-.2-5.2-.7-8.3-1.6l-14.2-4z"/><path class="st2" d="M172.2 345.6l-8-45.3 25.4-4.5 1.5 8.8-14 2.5 1.6 9.3 14-2.5 1.5 8.8-14 2.5 1.6 9.3 14-2.5 1.6 9.2-25.2 4.4zm43.6-11.3l13.8-8c4.4-2.5 7.2-5.5 8.3-8.8 1.2-3.3.6-6.9-1.6-10.7-1.3-2.2-2.9-3.8-4.8-4.7-1.9-.9-4.1-1.1-6.4-.6 1.2-1.8 1.9-3.7 1.9-5.7s-.5-4-1.6-5.9c-1.9-3.3-4.5-5.3-7.7-6-3.2-.7-6.7 0-10.3 2.1l-14.6 8.4 23 39.9zm-4.2-28.7l-5.5-9.5 1.6-.9c2.2-1.3 4-1.8 5.3-1.6 1.4.2 2.5 1.1 3.5 2.8.9 1.5 1.1 3 .7 4.3-.4 1.3-1.5 2.5-3.2 3.5l-2.4 1.4zm9.1 15.8l-5.7-10 2.4-1.4c1.9-1.1 3.6-1.5 5.1-1.2 1.5.3 2.7 1.2 3.6 2.8.9 1.5 1.1 3 .8 4.4-.4 1.4-1.3 2.6-2.9 3.5l-3.3 1.9zm7-50.8l20.1 15.7c3.1 2.4 5.7 3.8 7.8 4 2.1.2 3.9-.7 5.4-2.7 1.6-2 2-4 1.3-5.9-.7-2-2.6-4.2-5.8-6.6l-20.1-15.7 7.1-9.1 23.3 18.2c4.3 3.4 6.6 7.3 7 11.8.4 4.5-1.2 9.1-4.8 13.7-3.6 4.6-7.6 7.3-12.1 8-4.5.7-8.8-.6-13.1-3.9l-23.3-18.2 7.2-9.3zm40.4-88.5a11.47 11.47 0 0 0-5.2 10c0 3.6 1.3 6.6 3.8 8.9 2.5 2.3 5.8 3.5 9.8 3.5 4 0 7.3-1.2 9.8-3.5 2.5-2.3 3.8-5.3 3.8-8.9 0-2.8-.7-5.2-2.1-7.3-1.4-2.1-3.3-3.6-5.9-4.6V192h-8.8v-23.8c.2 0 .7 0 1.3-.1.6-.1 1.1-.1 1.5-.1 2.4 0 4.7.3 7 .9 2.3.6 4.2 1.3 5.6 2.3 3.9 2.5 6.9 5.5 8.8 8.9 1.9 3.4 2.9 7.4 2.9 11.9 0 3.4-.6 6.5-1.7 9.5-1.2 2.9-2.9 5.5-5.1 7.8a23.1 23.1 0 0 1-7.6 5.1c-2.9 1.2-6 1.7-9.4 1.7-3.4 0-6.6-.6-9.5-1.7-2.9-1.2-5.5-2.8-7.7-5.1a21.8 21.8 0 0 1-5-7.7c-1.1-2.9-1.7-6.1-1.7-9.5 0-3.8.7-7.2 2-10.2 1.4-3.1 3.4-5.8 6.1-8.2l7.3 8.4zm22 75l2.4-11.3-19.1-4.1 21.2-5.8 2.9-13.6-20.9 7.8c.4-3.1-.3-5.8-2.1-8.1-1.8-2.2-4.4-3.7-7.9-4.5-4.4-.9-8.2-.2-11.5 2.2-3.2 2.4-5.4 6.1-6.5 11.2l-3.5 16.5 45 9.7zm-33.2-22l-.7 3.1 12.4 2.6.7-3.4c.5-2.2.3-3.9-.6-5.4-.8-1.4-2.3-2.3-4.3-2.8-2.1-.4-3.7-.2-5 .8-1.1 1-2 2.7-2.5 5.1z"/></svg>