<svg xmlns="http://www.w3.org/2000/svg" viewBox="0 0 425.2 425.2"><circle fill="#FFF" cx="212.6" cy="212.6" r="205.42"/><path d="M82.07 213.25c0-72.4 58.9-131.3 131.3-131.3s131.29 58.9 131.29 131.3-58.9 131.3-131.3 131.3-131.3-58.9-131.3-131.3zm-4.47 0c0 74.86 60.9 135.76 135.76 135.76 74.87 0 135.77-60.9 135.77-135.76 0-74.86-60.9-135.76-135.77-135.76-74.86 0-135.76 60.9-135.76 135.76z"/><path fill="none" d="M135.8 73.9c-4.83.81-7.69 1.83-12.24 3.8-1.36.55-2.18 1.03-3.47 1.64-.68.34-1.7.27-1.9 1.02-.28.88 1.5.55 2.37.82 8.64-.07 13.54-.27 22.18-.27 6.94 0 11.1-.34 17.69-2.38 1.97-.62 3-1.7 4.9-2.46 2.58-1.02 8.33-2.81 9.83-5.05-5.04 0-11.67.97-16.7.97-8.85 0-13.95.4-22.66 1.9zm5.66-18.56c3.6-1.76 5.85-2.51 9.25-4.62 6.53-4.08 9.73-7.28 15.17-12.72-8.37 4.15-13.8 3.95-22.79 6.53-7.35 2.1-11.7 4.08-17.08 9.45-1.83 1.84-2.51 3.34-4.35 5.17-2.72 2.73-4.5 4.22-6.46 7.55 5.64-2.3 8.84-3.67 14.62-5.64 4.77-1.63 7.08-3.47 11.64-5.72zm152.52-4.84c-12.04-6-20.27-5.18-32.52-10.28 2.11 3.6 4.36 4.9 7.55 7.55 5.1 4.3 8.78 5.65 14.9 8.17 5.3 2.18 7.76 4.62 13.06 6.8 5.17 2.1 8.91 2.04 13 5.92-1.1-2.04-2.11-3-3.47-4.83-4.42-5.71-6.06-10.14-12.52-13.34zm-24.94 21.18c-5.17 0-8.16.2-13.33.27l-1.64.82c4.3 1.7 6.87 2.18 11.1 4.02 8.09 3.53 13.06 5.98 21.83 5.98 6.4 0 13.81-1.2 20.2-1.4-5.43-1.36-11.15-4.11-16.53-5.68-8.29-2.38-13.06-4-21.63-4z"/><path fill="#004E95" d="M335.74 91.69c.86-.86 1.7-1.85 2.37-2.85.84-1.22 1.4-2.43 1.4-3.35 0-3.9-3.64-6.45-7.27-6.45-1.33 0-3.33.56-4.19 1.1-4.21-11.74-16.96-30.41-31.13-38-12.22-6.51-27.33-7.94-39.28-10.57-6.91-1.54-17.58-8.4-18.92-8.36h-2.3v1.88c1.03 4.33 8.45 6.62 10.53 9.78 1.54 2.48 2.73 5.76 5.09 7.9 3.95 3.63 9.18 6.52 12.34 9.47 13.7 12.7 29.59 13.26 41.84 20.53-19.37-4-20.57-7.16-35.74-7.16-4.5 0-8.1.14-13.18-.35.48-.26 1.09-.45 1.01-.8 5.18.08 10.09-.47 14.58-1.8-5.02-1.87-10.1-2.27-14.66-4.2-3.03-1.29-5.35-4.06-7.64-4-6.24.2-15.4-4.84-20.68-8.9l5.63-.36c7.29 1.4 15.43 4.43 22.29 5.21-5.25-4.61-11.86-8.05-12.47-14.3-2.4 1.06-4.97 3.18-6.31 3.18-1.34 0-1.9-.94-8.34-.54-2.22.14-4.76 1.62-6.97 1.62-17.2.47-17.73.53-19.07.53-1.34 0-5.08-1.87-7.23-2.01-3.76-.34-8.05.54-11.82.2-1.8-.13-3.66-2.46-5-2.98-.26 7.07-9.16 11.17-12.46 14.29 8.3.3 16.36-5.2 24.43-5.2 1.34 0 2.56-.03 3.49.3-6.97 6.15-14.65 7.36-22.37 9.51-6.84 1.88-14.07 5.84-20.06 7.05 4.13 3.1 11.36 1.13 14.5 3.78-.93.33-1.9-.97-22.84-.23-5.71.2-22.89 7.52-24.7 7.52-1.35 0-.8-.27-.8-.27 17.71-9.36 38.06-11.57 56.12-32.05 1.61-1.81 2.07-5.03 3.96-6.97 1.4-1.48 9.74-5.83 9.7-8.85v-1.77h-2.31c-1.34-.04-10.62 5.6-15.73 7.29a54.87 54.87 0 0 1-14.43 2.67c-17.73.74-47.1 17.56-55.77 40.12-1.07 2.82-1.88 5.28-3.37 6.82-1.46-.53-2.89-1.08-4.23-1.08-2.08 0-7.25 1.61-7.25 5.9 0 .16.9 2.15 1.87 3.9h-.02a13.2 13.2 0 0 0 1.9 2.83c-4.56 4.98-7.35 11.21-9.57 15.77 2.49-1.6 4.57-1.56 6.6-2.36 1.14-2.78 2.98-6.74 6.43-8.85 1.86 1.94 4.4 3.76 5.41 3.76 8.42 0 2.73-7.63 5.56-11.16.85-1.05 2.47-1.73 5.45-1.73l24.7 1.07c16.8 0 33.07-2.94 52-17.1 1.68-1.28 4.29-.37 5.83-.84 3.3-1.07 6.45-2.48 9.86-3.78-1.73-1.33-3.94-2.85-5.62-2.99-9.66-.87-13.99-1.07-17.5-.9 2.1-1.86 3.54-3.74 5.22-4.35C192 55.52 210.84 43.05 213 43.05c.66 0 29.13 15.15 33.06 19.5-5.13-.16-8.37.44-16.96.91-1.61.07-4.25 1.95-5.07 3.6 3.93 1.23 7.69 2.5 11.45 3.7 1 .34 2.91-.4 3.66.28 6.17 5.85 28.51 16.6 36.77 16.6h36.4c.12 0 7.85-2.1 9.3 1.19.14.34.16.77.16 1.22 0 2.89-1.88 9.94 5.1 9.94 1.82 0 4.58-3.06 5.41-4.3 3.82 3.17 5.02 6.27 6.22 9.6 2.26.73 4.28-.36 6.78 2.18-1.9-5.56-6.3-11.06-9.54-15.78zM121.66 59.16c1.84-1.84 2.52-3.34 4.35-5.17 5.38-5.38 9.73-7.35 17.08-9.46 8.98-2.58 14.42-2.38 22.79-6.53-5.44 5.44-8.64 8.64-15.17 12.72-3.4 2.11-5.65 2.86-9.26 4.63-4.55 2.24-6.86 4.08-11.63 5.71-5.78 1.98-8.98 3.34-14.62 5.65 1.97-3.34 3.74-4.83 6.46-7.55zm43.67 16.91c-1.9.75-2.93 1.84-4.9 2.46-6.6 2.04-10.75 2.38-17.69 2.38-8.64 0-13.53.2-22.18.27-.88-.27-2.65.06-2.37-.82.2-.75 1.22-.68 1.9-1.02 1.3-.61 2.1-1.09 3.47-1.63 4.56-1.97 7.41-3 12.24-3.81a114.7 114.7 0 0 1 22.66-1.9c5.03 0 11.67-.98 16.7-.98-1.5 2.24-7.25 4.03-9.83 5.05zM287 82.77c-8.77 0-13.74-2.45-21.83-5.98-4.23-1.84-6.8-2.32-11.1-4.02l1.64-.81c5.17-.07 8.16-.28 13.33-.28 8.57 0 13.34 1.63 21.63 4.02 5.38 1.56 11.1 4.31 16.54 5.67-6.4.2-13.82 1.4-20.2 1.4zm9.97-20.03c-5.3-2.18-7.76-4.63-13.06-6.8-6.12-2.52-9.8-3.88-14.9-8.17-3.2-2.65-5.44-3.94-7.55-7.55 12.25 5.1 20.48 4.29 32.52 10.27 6.46 3.2 8.1 7.62 12.52 13.34 1.36 1.83 2.38 2.79 3.47 4.83-4.09-3.88-7.83-3.81-13-5.92z"/><path fill-rule="evenodd" clip-rule="evenodd" fill="#004E95" d="M368.03 154.44c-2.51-10.07-5.92-15.5-12.72-23.33-4.28-4.96-6.66-7.82-12.24-11.36-4.97-3.13-7.75-5.04-13-7.62 0 .55.82 3.6 1.64 4.9 1.15 1.77 1.77 3.06 2.99 4.83 3.8 5.5 6.6 8.02 11.36 12.79 7.69 7.68 21.97 19.8 21.97 19.8zM345.6 69.92c18.15 22.24 40.1 47.86 40.1 71.7 0 5.37.54 7.25.54 8.59 0 3.5-3.22 16.65-3.22 17.73 0 1.61 6.98 2.82 6.98 7.25 0 2.95-3.39 4.34-5.97 5.41-.48 1.9-2.62 5.33-2.62 6.68 0 1.34 1.6 4.56 1.6 5.9 0 1.34-3.26 7.68-6.23 11.54-.75-5.6-.2-10.97-.7-16.22-4.12-2-8.1-2.77-8.1-6.6 0-1.34 4.3-9.67 4.3-11 0-3.44-16.4-17.91-17.61-18.72-8.87-5.91-23.58-17.68-29.5-27.62-3.55-6.04-4.3-14.1-11.35-20.2-1.54-1.35-6-1.76-6.51-4.22a11 11 0 0 1 4.54-1.23c10.13 0 27.48 8.65 35.4 14.15 19.54 13.63 29.32 33.33 32.85 49.77.27-.92 1.31-2.15 1.31-3.49 0-1.34-4.77-12.17-5.77-18.21-2.62-15.58-8.07-32.85-21.9-49.2-.34.46-.26-.27-.26 1.07 0 7.93 10.17 24.06 12.8 29.76v1.9c-5.68-2.95-19.59-12.82-18.91-19.6.06-1-1.54-1.51-1.8-2.59-.75-2.61-1.76-7.86-1.76-9.2 0-1.34.53-5.92 1.8-23.35zM56.92 153.11l-.61 3.98c6.7-4.24 10.87-10.16 16.47-15.76 8.14-8.14 14.34-10.64 20.7-20.05 1.78-2.63 4.27-7.4 5.7-10.28-10 6.61-17.56 9.44-25.79 18.18-3.05 3.21-4.7 5.51-7.83 8.65-4.33 4.32-6.86 9.43-8.64 15.28zm23.49-82.65l1.26 21.74c0 13.16-4.63 21.71-21.93 32.43 4.22-9.98 9.05-20.17 12.62-30.3v-2.4A146.75 146.75 0 0 0 57.8 115.2c-2.89 5.91-4.41 13.85-5.89 19.5-1.81 6.9-6.77 19.6-6.81 20.94v6.2c.3-.1.5.52.77 1 2.23-9.35 7.02-19.48 12-28.35 3.89-6.98 13.97-16.47 21.76-21.97 6.38-4.5 24.4-13.62 32.92-13.62 1.34 0 4.36.55 6.71 1.35-13.16 3.48-13.62 18.42-20.13 26.82-4.36 5.64-11.11 12.19-17.02 17.22-1.01.88-28.38 20.55-28.38 26.6 0 .8 1.66 6.1 4.05 8.29.22.44.25 1.37.25 2.71 0 3.16-1.4 5.64-7.65 6.14-.31.58-1.48 5.12-.56 17.2-1.25-.99-6.3-12.66-6.3-13.4 0-1.34 1.08-3.5 1.08-4.83 0-6.92-8.6-6.99-8.6-12.36 0-4.1 5.43-5 7.54-6.26-3.76-10.98-3.24-10.66-3.24-18.98 0-30.69 11.88-45.36 40.1-78.95z"/><path fill-rule="evenodd" clip-rule="evenodd" fill="#004E95" d="M46.02 244.44c-.34-7.82-.48-11.39-3-18.94-1.15-3.47-2.37-6.33-3.26-9.8-2.65-10.2-2.65-16.64-8.36-25.68l-.55-1.1c-.2 1.43-.83 6.36-.83 7.8 0 8.63.97 9.35.97 17.99 0 7.82 2.58 12.38 6.93 18.9 2.73 4.16 4.22 7.84 8.1 10.83zM49.23 223c.28-.46.2-1.35.2-8.35 2.36-14.66 8.03-27.25 16.83-41.48 1.88-3.1 5.43-5.7 8.35-5.94-1.55 6.15-3.7 13.87-3.7 15.21 0 1.35 2.36 10.19 2.7 15.56.67 9.13.54 12.1.54 13.45 0 14.17-15.45 45.13-14.06 52.3-4.64-1.63-4.2-9.2-4.2-12.56 0-14.97 6.65-36.58 10.01-52.11v-5.1c-7.07 7.25-5.87 17.55-8.08 24.33-.88 2.75-1.36 6.2-2.7 9.36-.74 1.6-2.46 3.38-2.46 4.73 0 1.34 1.6 9.13 1.6 10.47 0 1.34-1.06 7.25-1.06 8.6 0 1.34 2.14 10.42 3.08 16.14 4.4-1.76 9.8 2.72 9.8 6.95 0 1.35-2.68 4.57-2.68 5.9 0 1.36 4.28 8.78 5.8 13.38-3.53-2.14-6.73-3.73-9.94-5.49 4.16-11-13.05-7.48-13.05-14.86 0-2.29 3.49-4.67 5.38-5.69-20.1-25.17-28.47-46.01-28.47-68.98 0-1.34 1.07-12.89 1.07-14.23 0-2.95-3.23-15.37-3.23-16.38 0-2.49 4.19 1.8 8.15 8.17 4.1 5.37 10.58 11.02 12.06 16.2 3.02 10.33 5.03 20.4 8.06 30.42zm330.45 19.86c3.4-4.9 6.74-8.03 8.91-13.54 1.3-3.26 1.63-5.3 2.73-8.7.8-2.66 1.76-4.08 2.17-6.8a86.43 86.43 0 0 0 1.43-16.2v-8l.2-.7-.2-1.1v1.8l-15.24 53.24zm-28.01-75.7c2.88 1.42 7.07 3.67 8.54 6.56 7.12 13.56 14 26.93 16.51 40.38v8.9c4.57-11.39 3.66-26.22 12.05-36.97 2.42-3.08 5.7-6.43 8.05-9.66 1.81-2.48 3.54-8.63 7.6-9.15-1.55 7.22-2.6 15.22-2.6 16.56 0 1.35 1.06 13.16 1.06 14.5 0 25.12-9.72 45.16-28.47 69.55 2.2 2.11 5.38 3.98 5.38 5.93 0 4.96-10.55 7.41-11.43 7.88-2.47 1.42-1.4 5.05-1.72 6.78a82.44 82.44 0 0 0-9.3 4.9c.97-4.59 5.25-11.5 5.25-12.85 0-1.34-2.68-4.56-2.68-5.9 0-1.82 1.92-6.45 5.07-6.85 1.07-.14 2.69-.14 4.18-.3.11-.3 3.64-13.94 3.64-16.23 0-1.34-1.07-6.98-1.07-8.32 0-1.34 1.61-9.13 1.61-10.47 0-1.35-2-3.08-2.53-4.76-1.55-4.7-2.23-9.77-3.04-14.54-.13-1-.2-2.18-.53-3.19-.13-.53-.2-1.67-.54-2.68-.13-.54-.27-1.7-.54-2.7-.66-2.82-3.1-7.07-5.94-10.54-.34.93-.3 1.88-.3 3.22 0 12.02 10.2 35.79 10.2 54.25 0 4.3.58 7.93-4.12 11.8-1.79-7.71-2.92-16.13-5.73-23.25-3.83-9.66-8.42-20.17-8.42-30.18 0-1.34-.06-4.31.54-11.3.4-4.83 2.69-13.67 2.69-15.02 0-3.82-1.73-9.16-3.41-13.93v-2.43z"/><path fill="#004E95" d="M354.2 249.33c4.02 3.75 3.56 12 3.56 16.1 0 21.22-9.81 51.42-28.52 69.4 18.46-10.02 40.05-31.02 54.62-50.7-12.04 4.65-23.49 24.5-35.68 30.64 2.09-5.14 4.32-10.88 7.6-15.92 1.29-1.94 34.28-26.44 39.38-26.37h3.39c-11.88 22.62-34.52 58.2-62.98 69-5.24 1.95-11.27 3.96-16.57 6.2-.75 1.53-.8 4.27-1.21 5.14-1 2.42-5.21 4.46-6.5 4.46-1.34 0-4.56-2.69-5.9-2.69-1.34 0-13.16 4.84-14.5 4.84-1.34 0-1.73-.57-2.9-1.2v-1.92c3.86-1.7 8.12-4.36 12.3-6.9a6.84 6.84 0 0 1-1.07-3.41c0-4.7 3.75-6.98 6.98-6.98 2.14 0 3.64-.22 5.13 2.15a67.24 67.24 0 0 1 6.25-6.26c.87-.73 2.46-.11 3.2-.85 15.71-15.11 20.29-32.2 26.6-47.51 2.07-5.11 3.4-10.73 5-16 0 0 .09-.37-.22-.83-11.9 18.75-18.46 39.34-28.46 58.94-.62 1.15-2.61 2.8-5.02 3.87-.13-.76-.67-1.03-.67-2.38 0-1.34 2.69-5.93 3.02-9.16 2.16-21.28 16.19-42.17 26.39-54.4 3.63-4.35 5.24-11.56 6.78-17.26zm-282.41.53c1.47 4.14 2 11.81 5.62 15.1 12.36 11.15 15.1 21.02 21.74 32.97 2.96 5.24 3.32 12.36 4.67 18.74.74 3.7 4.17 10.6 4.15 11.94v2.73l-1.3 1.23c-4.59-2.38-5.78-8.41-7.45-11.97-7.6-15.91-13.81-34.07-24.83-49.8-.32.46-.24-.27-.24 1.07 0 1.35 5.48 17.02 8.7 24.88 4.17 10.27 8.56 20.48 16.28 30.15 4.9 6.18 8.5 7.1 15.57 14.27 2.36-2.41 3.76-2.15 5.1-2.15 4.7 0 6.99 3.69 6.99 7.25 0 1.34-.57 2.27-1.09 3.15 4.18 2.53 8.46 5.2 12.89 7.51-.55 1.27-2.14 2.5-3.48 2.5-1.34 0-13.42-4.83-14.77-4.83-1.34 0-4.3 2.68-5.64 2.68-3.76 0-8.5-4.67-6.7-8.76-17.1-6.56-34.11-15.02-50.1-31.07-14.3-14.43-19.69-29.77-31-44.89.78-.15.24-.69 1.59-.69 8.93 0 38.75 23.07 41.3 26.43 3.3 4.37 4.86 9.7 7.5 14.6v1.93c-12.44-9.1-20.88-25.71-35.41-30.19 14.74 16.6 35.85 41.97 55.94 49.67-22.04-20.07-25.42-40.63-29.58-61.06 0-8.09-.54-8.36-.54-9.7 0-2.89 1.88-11.53 4.09-13.69z"/><path fill-rule="evenodd" clip-rule="evenodd" fill="#004E95" d="M117 365.47a63.4 63.4 0 0 0-9.73.27c9.12 3.13 13.3 5.13 22.29 8.53 3.74 1.43 7.8 1.93 11.47 3.36 7.28 2.86 11.34 2.2 19.23 2.2 7.76 0 14.9.31 22.17-3.04-6.15-2.52-13.01-3.36-20.7-5.87a70.93 70.93 0 0 0-17.32-3.34c-3.4-.2-5.3-.82-8.7-.82h-8.03c-4.22 0-6.47-.88-10.68-1.29zm147.88 7.36c-5.03 1.35-22.1 3.74-22.1 3.74 3.87.95 6.25 1.56 10.26 1.56 3.4 0 19.68 2.3 22 2.3 1.63 0 9.91-1.07 11.54-1.2 5.44-.55 8.91.2 13.8-2.19 3.34-1.63 5.58-2.05 8.78-3.89 3.2-1.83 7.65-5.37 10.91-7.27a29.83 29.83 0 0 1-9.78 1.96c-8.51 0-14.05 1.18-22.55 1.18-9.05 0-14.09 1.43-22.86 3.8zm-148.27-47.7h1.95c25.19 22.76 52.8 13.98 77.84 43.44.9-.52 1.32-2.24 3-3.57.94-.74 2.58-.73 3.93-.73 3.63 0 7.25 2.41 7.25 6.7 0 1.35-1.15 3.96-2.69 5.4 1.03 1.44 3.76 4.55 5.1 4.55 1.35 0 3.58-2.61 5.12-4.05-1.57-1.97-2.69-5.35-2.69-6.7 0-3.89 5.16-6.44 7.25-6.44 1.41 0 4.97 2.51 6.5 4.3 7.2-4.13 17.17-15.23 24.56-18.11 6.98-2.69 13.91-5.85 20.96-8.07 9.94-3.15 22.5-5.02 32.74-16.7h1.97c-7.57 9.08-20.53 34.82-34.9 34.82a11.2 11.2 0 0 1-4.83-.82c4.39-1 13.23-4.82 15.15-12.13-5.62 3.25-11.42 7.02-17.46 9.5-11.08 4.64-22.5 7.15-33.68 16.62.46.33 0 .8 1.34.8s10.6-4.77 16.05-6.3c8.86-2.5 20.5-4.24 29.59-5.52l12.9-.54c17.78-1.34 37.87-2.64 51.23-11.24v1.95c-14.63 15.72-39 32.93-56.12 32.93h-36.93c-1.34 0-9.31-1.01-13.54-1.82-2.02-.33-6.74-2.38-8.61-4.64-3.6 1.6-7.32 3.2-10.95 5.12 8.2 4.73 18.78 10.34 24.68 16.22-4.03-.25-7.64 2.54-11.58 4.44-2.77-3.38-2.96-8.95-8.67-12.24-2.95-1.68-8.73-4.94-10.07-4.94-1.75 0-14.01 8.54-14.69 9.55-1.34 2.02-2.25 4.78-3.03 7 0 0 .26.64-1.08.64-2.96 0-5.4-3.82-11.54-4.48 6.66-6.2 19.54-13.61 24.7-16.2-3.08-1.37-9.13-4.56-10.48-4.56-1.34 0-4.76 2.88-7.45 3.55-5.3 1.4-11.32 1.82-16.7 2.36l-27.4.54c-20.55.94-45.26-13.45-64.11-33.48v-1.95c14.43 9.76 26.08 7.63 38.34 10.18l13.42.53c18.67 1.28 39.91 4.06 58.49 12.9l.85-.82c-17.1-14.42-34.28-13-51.24-26.58 0 0-.33-.53-.33.8 0 3.17 11.04 11.15 15.58 11.8a11 11 0 0 1-4.84.83c-13.5 0-26.53-23.34-34.88-34.83z"/><path fill="#004E95" d="M336.75 183.83c-.57-.83-.7-.96-1.2-.72-.43.22-1.45.73-5.15-.36-4.17-1.24-7.4-3.05-10.5-4.8-4.45-2.5-8.64-4.85-14.92-5.11-6.36-.27-12.67 2.63-17.75 4.96-3.49 1.6-6.5 2.98-8.56 2.9-5.06-.23-6.93-1.97-9.29-4.17-3.16-2.95-7.1-6.61-20.18-8.94-7.02-1.25-12.93-.57-18.64.09-4.6.53-8.95 1.03-13.64.52l-2.2-.21c-4.6-.44-6.5-.62-13.32-4.67l-.29-.16.04.32.8 7.18v.12l.12.02 2.76.58c4.53.97 7.8 1.67 13.15 1.78 4.52.09 8.86-.32 13.06-.73 6.45-.6 12.55-1.19 18.79.04 4.2.84 6.45 2.32 9.85 4.58l1.07.7 8.73 61.33c-5.15-.44-8.2-.39-13.38.24-6.19.75-10.63 3.18-14.92 5.54-4.17 2.3-8.5 4.68-14.46 5.5-6.2.88-9.8.97-16.07.43l-.19-.02.01.2.32 4.75.01.12.11.03c13.5 3.18 23.03-1.56 31.44-5.76 4.2-2.1 8.18-4.08 12.17-4.78h.03c3.94-1.45 8.5-1.4 13.33-1.35 7.35.08 14.94.16 21.8-4.82 5.96-4.33 6.98-6.2 8.67-9.31 1.29-2.37 2.89-5.31 7.2-10.53 2.83-3.43 9.3-4.96 14.02-6.07 2.35-.55 4.2-.99 5.17-1.52 7.66-4.23 13.06-10.27 14.46-16.15.95-4.02.13-7.97-2.45-11.75z"/><path fill-rule="evenodd" clip-rule="evenodd" d="M231.45 196.48c-.75 3.54-.96 4.6-1.6 8.88-.11.69.14.84.42 1.28.75 1.18 3.26.79 5.36.64 1.92-.13 4.2.66 4.8-1.17.17-.52.19-1.07.1-1.4-1.17-4.8-.2-4.59-2.35-9.83-.6-1.47-4.72-2.38-6.08-.43-.48.68-.45 1.08-.65 2.03zm-17.8 37.66c3.51-19.86 4.06-27.8 6.9-46.1a10.04 10.04 0 0 1 2.5-5.54c1.82-2.04 6.75-1.5 11.5-1.41 5.26.1 11.95-.9 13.03 2.1.3.87.77 1.79 1.08 2.7 5.77 16.68 7.59 28.24 12.41 42.02a4.07 4.07 0 0 1 0 3.32c-.88 2.34-3.35 2.19-5.78 2.78-2.19.54-3.72 1.28-5.77.32-1.07-.5-2-.73-2.35-1.92-1.07-3.64-1.07-11.34-2.99-11.13-3.73.42-14.21-.66-14.97.94-1.12 2.42-2.04 12.3-2.99 13.5-1.3 1.66-3.09 1.28-5.18 1.48-2.83.28-6.6.33-7.23-1.05-.33-.7-.34-1-.16-2.01z"/><path d="M120.03 279.05c-1.89 1.8-4.44 7.32-4.12 11.88.16 2.3 1 4.01 2.52 5.1a2.4 2.4 0 0 0 1.94.5c1.7-.34 3.36-2.7 5.52-6.09l-1.35-15.88a159 159 0 0 1-4.5 4.5zm91.12-23.42l-9.9-92.48-.01-.02v-.02a27.96 27.96 0 0 0-7.47-11.78c-3.22-3-7.34-5.45-12.6-7.47-8.06-3.1-18.39-3.23-29.87-.38-9.83 2.45-20.2 7-29.21 12.81l-.07.04v.09l-.42 7.96v.12l.12.04c17.8 5.17 18.9 25.64 19.89 43.7l.18 3.3c.96 16.67.92 29.08-2.25 39.43a49.96 49.96 0 0 1-8.3 15.8l1.42 13.53c6.64-8.86 16.96-18.9 35.08-23.4l2.11-.52c14.76-3.69 20.28-5.07 41.1-.57l.23.05-.03-.23z"/><path fill="none" d="M121.54 143.51c-.27-2.26-2.78-3.8-5.61-3.45-2.83.36-4.9 2.48-4.63 4.74.27 2.26 2.78 3.81 5.6 3.45 2.84-.35 4.91-2.47 4.64-4.74z"/><path d="M118.1 151.93c.24-.02.44-.1.66-.13l16.04 170.63 4.45-.42-16.14-171.79c3.03-1.8 4.88-4.72 4.5-7.79-.55-4.53-5.7-7.63-11.52-6.92-5.8.72-10.06 4.97-9.5 9.5.32 2.66 2.25 4.8 4.95 6l15.55 163.93 2.32-.23-15.45-162.92a13 13 0 0 0 4.15.14zm-6.8-7.13c-.27-2.26 1.8-4.38 4.63-4.74 2.83-.35 5.34 1.19 5.61 3.45.27 2.27-1.8 4.39-4.63 4.75-2.83.35-5.34-1.2-5.61-3.46z"/></svg>