<svg version="1.1" xmlns="http://www.w3.org/2000/svg" viewBox="0 0 42 32"><path fill="#ffeb00" d="M20.93 5.78c-2.67 0-4.87 1.26-4.87 1.23s-1.77-4.58-1.87-4.9c0 0 3.2-1.54 6.75-1.57h-.03c3.55.03 6.75 1.57 6.75 1.57-.1.31-1.87 4.88-1.87 4.9s-2.2-1.23-4.87-1.23z"/><path fill="#000" d="M14.13 1.99l-.11.05 1.91 5.01c.12.12.16.1.28.04 1.57-.77 3.2-1.17 4.71-1.17 1.52 0 3.15.4 4.72 1.17.11.06.15.08.22.04.06-.08.78-1.97.78-1.97l1.2-3.12-.12-.05a18.26 18.26 0 0 0-6.8-1.58A18.14 18.14 0 0 0 14.12 2zm6.8-1.31c3.15.02 6.04 1.26 6.56 1.5a9081.25 9081.25 0 0 1-1.77 4.66c-1.6-.78-3.25-1.2-4.8-1.2s-3.2.42-4.79 1.2l-.68-1.78-1.1-2.88c.53-.24 3.43-1.48 6.59-1.5z"/><path fill="#ffeb00" d="M20.92 26.27c-2-.06-3.1-.47-4.9-1.14-2.5-.91-7.92-1.93-10.77-1.05-.28.09-.3.29-.2.58.13.39 1.05 3.64 1.25 4.3.1.36.18.63.67.52 4.79-1.07 6.85 1.97 13.95 1.97s9.16-3.04 13.95-1.97c.49.1.57-.16.67-.51.2-.67 1.12-3.92 1.26-4.31.1-.3.07-.49-.21-.58-2.85-.88-8.28.14-10.76 1.05-1.8.67-2.9 1.08-4.91 1.15z"/><path fill="#000" d="M5.21 23.94a.54.54 0 0 0-.32.24c-.09.18-.03.38.02.53l.81 2.78.44 1.52c.1.33.21.75.85.61 2.43-.54 4.11-.02 6.24.65 1.98.62 4.22 1.32 7.67 1.32s5.7-.7 7.67-1.32c2.13-.67 3.8-1.2 6.25-.65.63.14.75-.28.84-.61l.45-1.53c.32-1.13.72-2.53.8-2.77.05-.15.1-.35.02-.53a.58.58 0 0 0-.32-.24c-2.8-.86-8.19.08-10.85 1.05-1.8.67-2.88 1.07-4.86 1.14-1.98-.07-3.06-.47-4.85-1.14C13.4 24.02 8 23.1 5.2 23.94zm1.23 4.99L6 27.4c-.34-1.2-.73-2.55-.82-2.8-.05-.14-.06-.24-.03-.3a.26.26 0 0 1 .15-.09c2.73-.84 8.04.09 10.66 1.05 1.83.67 2.93 1.08 4.96 1.15 2.04-.07 3.14-.48 4.96-1.15 2.62-.97 7.93-1.9 10.66-1.05.08.02.13.06.15.1.03.05.02.15-.03.29l-.81 2.79-.45 1.53c-.1.37-.15.49-.5.4-2.51-.55-4.31.01-6.4.66-1.95.61-4.18 1.3-7.58 1.3s-5.62-.69-7.58-1.3c-2.09-.65-3.88-1.21-6.4-.65-.35.08-.4-.04-.5-.41z"/><path fill="red" d="M5.8 10.73c0 .1-.06.64-.24.9s-.95 1.72-1.22 2.1c-.6.85-.94 1.48-.8 2.24 0 0-1.5.2-2.07-1.34-.46-1.26.52-2.69 1.01-3.41 1-1.5.47-3.46.44-3.48 0 0 .44-.17.48-.83.02-.33-.1-.7-.43-1.06-.33-.34-.8-.42-1.29-.4-.4.02-.7.25-.95.39-.24.14-.23.27-.14.32s.27.31.4.48c.12.16.13.29.2.58.08.38.6.59 1 .57 0 0 .6 1.64-.42 3.2-.4.59-1.51 2-1.1 3.65.63 2.52 3.24 2.19 3.24 2.19.1.09.38.4.61.65-.02.15.48 1.14-.76 2.07-.4.3-.5.7-.04 1.04 3.2 2.33 2.38 3.07 2.93 3.13.14.01.46-.04.77-.23.46.34 1.12.27 1.33.05 1 .48 1.28-.25 1.12-.56 0 0 1.06-.38.15-1.4-.28-.3-.83-.4-1.11-.34-.32.06-2.12-1.25-1.89-1.6.18-.26 1.16-.67 1.5-.92.28-.2.94-.82.95-1.43 0-.67-.23-1.53-1.63-1.6.07-.52.15-1.52 1.3-2.36a4.15 4.15 0 0 0 1.21-1.58c.73 0 1.95-2.5 2.21-2.95.1-.16.65-1.21.65-1.21.4 0 1.02-.31 1.02-.31s.96.63 1.08-.33c.74.29.56-.73.2-.96 0 0 .06-.65-.37-.83-.38-.16-.55-.06-.91.06s-1.07.57-1.4.8c.21-.85.81-1.63.81-1.63s.32.27.65.03c.1-.08.3-.2.51-.25.1-.02.61-.6.35-.8-.36-.25-.57-.3-.57-.3-.02-.22-.16-.46-.09-.65s.45-.44.44-.66c0-.42-.57-.4-.91-.17-.41-.47-.81-.04-.81-.04-.67-.17-1 .65-1.05.91-.35-.1-.84-.24-1.03-.24a.96.96 0 0 1-.5-.12l-.47-.32-.78-.08s.03-.26-.04-.39c-.1-.18-.28-.14-.48-.24-.2-.1-.42-.24-.34-.4.08-.16-.17-.1-.4-.04-.21.06-.26.1-.35.2s.1.41.1.41h-.4c-.1 0-.32.07-.46.1s-.37-.08-.37-.16l.02-.24c.05-.1-.27.01-.5.2-.21.17-.27.45-.2.55.09.1.2.3.2.3l-.15.19c-.12.12-.12.28-.12.28s-.3-.01-.38-.12c-.05-.07 0-.2-.06-.32-.03-.07-.4.26-.5.48-.05.13.01.36.07.5s.3.2.3.2-.06.14-.1.36a1.3 1.3 0 0 0-.02.55c.04.16-.06.23-.28.24-.16 0-.36-.27-.41-.28-.07-.02-.23.3-.23.44s.09.42.26.54c.11.08.37-.02.43.04.05.05.02.36-.03.58-.04.16.04.39-.06.49-.1.1-.18.16-.32.12s-.23-.17-.3-.17c-.04 0-.15.27-.1.45.03.18.09.33.33.39.24.06.4-.05.45.03.04.05.07.46.22.68.12.17.03.3-.13.35s-.37-.07-.45-.06c-.04 0-.05.45.05.57s.2.3.46.3c.25 0 .4-.22.42.01.01.08.07.73-.03 1.02-.06.18-.26.28-.5.24-.2-.03.38.68.83.64zm30.22 0c0 .1.06.64.25.9s.95 1.72 1.22 2.1c.61.85.94 1.48.8 2.24 0 0 1.5.2 2.07-1.34.46-1.26-.52-2.69-1.01-3.41a4.5 4.5 0 0 1-.44-3.48s-.44-.17-.48-.83c-.02-.33.1-.7.43-1.06.33-.34.81-.42 1.3-.4.4.02.7.25.94.39s.24.27.15.32c-.1.05-.28.31-.4.48s-.14.29-.2.58c-.1.38-.61.59-1 .57 0 0-.61 1.64.41 3.2.4.59 1.52 2 1.1 3.65-.62 2.52-3.24 2.19-3.24 2.19l-.61.65c.02.15-.47 1.14.76 2.07.4.3.51.7.04 1.04-3.19 2.33-2.37 3.07-2.92 3.13-.15.01-.46-.04-.77-.23-.47.34-1.12.27-1.33.05-1 .48-1.28-.25-1.13-.56 0 0-1.06-.38-.15-1.4.28-.3.83-.4 1.11-.34.32.06 2.12-1.25 1.89-1.6-.17-.26-1.16-.67-1.5-.92-.28-.2-.94-.82-.95-1.43 0-.67.23-1.53 1.63-1.6-.07-.52-.15-1.52-1.3-2.36a4.15 4.15 0 0 1-1.2-1.58c-.73 0-1.96-2.5-2.22-2.95l-.65-1.21c-.4 0-1.01-.31-1.01-.31s-.97.63-1.08-.33c-.75.29-.57-.73-.21-.96 0 0-.06-.65.37-.83.39-.16.55-.06.91.06s1.07.57 1.4.8c-.21-.85-.8-1.63-.8-1.63s-.33.27-.65.03c-.1-.08-.32-.2-.52-.25-.1-.02-.6-.6-.35-.8.36-.25.57-.3.57-.3.02-.22.16-.46.09-.65-.07-.2-.44-.44-.44-.66 0-.42.57-.4.91-.17.42-.47.82-.04.82-.04.66-.17.99.65 1.04.91.35-.1.84-.24 1.03-.24.33 0 .5-.12.5-.12l.47-.32.78-.08s-.03-.26.04-.39c.1-.18.28-.14.48-.24.2-.1.43-.24.35-.4-.08-.16.16-.1.38-.04.23.06.28.1.36.2s-.1.41-.1.41h.4c.1 0 .32.07.46.1s.37-.08.37-.16 0-.22-.02-.24c-.05-.1.27.01.5.2.22.17.28.45.2.55s-.2.3-.2.3l.16.19c.12.12.12.28.12.28s.3-.01.38-.12c.04-.07 0-.2.05-.32.04-.07.41.26.5.48.06.13 0 .36-.07.5s-.3.2-.3.2.06.14.1.36c.04.22.06.39.02.55-.04.16.07.23.28.24.17 0 .37-.27.42-.28.07-.02.22.3.22.44s-.08.42-.26.54c-.1.08-.37-.02-.43.04-.05.05-.01.36.04.58.03.16-.05.39.05.49.1.1.18.16.32.12s.24-.17.3-.17c.05 0 .15.27.11.45-.04.18-.1.33-.33.39s-.4-.05-.46.03c-.03.05-.07.46-.22.68-.12.17-.02.3.14.35s.36-.07.44-.06c.05 0 .05.45-.05.57s-.2.3-.45.3c-.26 0-.4-.22-.43.01-.01.08-.07.73.03 1.02.06.18.26.28.5.24.2-.03-.38.68-.83.64z"/><path fill="#000" d="M15.66 5.95v-.02c0-.21-.05-.7-.46-.87-.38-.16-.6-.1-.88.01l-.13.04c-.28.1-.75.38-1.1.6.19-.5.47-.94.6-1.12.17.08.43.14.68-.05.08-.06.29-.18.47-.22.15-.04.46-.42.51-.68l.01-.1a.3.3 0 0 0-.13-.26A2.03 2.03 0 0 0 14.7 3l-.04-.17c-.02-.1-.05-.18-.05-.25 0-.03 0-.06.02-.08.02-.06.1-.15.17-.23.14-.14.28-.3.28-.47a.43.43 0 0 0-.23-.4c-.24-.13-.56-.06-.8.07a.65.65 0 0 0-.43-.2.7.7 0 0 0-.45.17.77.77 0 0 0-.54.11c-.3.2-.48.55-.55.78a4.6 4.6 0 0 0-.94-.21.87.87 0 0 1-.43-.1l-.49-.34-.69-.07V1.6c0-.1 0-.23-.06-.32-.1-.17-.24-.2-.36-.23L8.93.98C8.7.86 8.65.79 8.65.77a.3.3 0 0 0 .03-.13c0-.06-.03-.1-.04-.11-.09-.1-.25-.09-.54 0-.23.06-.31.11-.42.24a.25.25 0 0 0-.05.16c0 .06.02.13.04.2H7.5l-.28.05-.2.04a.37.37 0 0 1-.22-.05 35.8 35.8 0 0 1 .03-.22.16.16 0 0 0-.06-.12c-.16-.13-.57.15-.66.22a.76.76 0 0 0-.29.55c0 .07.02.15.07.2L6 2l-.08.1a.54.54 0 0 0-.13.23c-.08-.01-.15-.03-.17-.05v-.05l-.07-.36-.12.03c-.18 0-.52.38-.6.57a.44.44 0 0 0-.03.18c0 .16.07.34.1.42.06.12.17.2.27.23l-.07.26c-.03.13-.05.26-.05.38a.93.93 0 0 0 .03.25v.01s-.02.03-.15.03c-.06 0-.18-.11-.23-.16l-.17-.11c-.03-.01-.08 0-.14.04a.94.94 0 0 0-.24.53c0 .18.1.5.32.65.1.07.24.06.35.05h.05c0 .1-.02.25-.06.43v.35c0 .03 0 .06-.02.07-.09.1-.12.1-.19.09l-.14-.09-.28-.13-.04.11c-.07.1-.15.35-.11.55s.12.4.43.49h.38c0 .04.02.07.02.07.03.17.08.42.2.59l.03.07v.01c0 .02-.04.04-.09.06-.07.02-.17-.01-.24-.04l-.28-.05-.02.11c-.05.11-.05.55.08.7l.04.06c.1.12.23.3.51.3l.3-.07.02.44c0 .18 0 .37-.05.48-.03.11-.18.18-.34.15-.08-.01-.14.01-.17.07a.16.16 0 0 0-.03.09c0 .04.01.1.05.15.1.16.44.5.8.57a1.8 1.8 0 0 1-.2.7l-.49.84c-.28.5-.59 1.05-.74 1.26-.53.75-.85 1.34-.85 1.97l.02.23a1.8 1.8 0 0 1-1.8-1.26 1.9 1.9 0 0 1-.12-.66c0-1 .69-2 1.09-2.6l.02-.03c.5-.75.63-1.6.63-2.28a5.37 5.37 0 0 0-.14-1.2c.15-.11.42-.36.45-.89v-.08c0-.29-.09-.68-.47-1.08-.3-.32-.76-.46-1.39-.44-.37.02-.67.2-.9.34l-.1.07C.45 5.87.4 6 .4 6.09c0 .1.05.17.13.2.05.04.19.22.26.32l.1.13c.09.11.1.2.15.4l.02.13c.1.41.59.65 1.03.67a3.5 3.5 0 0 1-.43 2.99l-.12.18a5.06 5.06 0 0 0-1.09 2.8c0 .25.03.51.1.78.6 2.38 2.9 2.32 3.31 2.29l.55.58a36.79 36.79 0 0 0 .07.54c0 .37-.14.87-.8 1.35-.26.2-.4.43-.4.66 0 .16.07.38.37.6 2.12 1.55 2.44 2.37 2.6 2.76.07.2.13.36.39.39.17.01.48-.06.78-.22.45.29 1.04.27 1.34.05.63.28.96.1 1.1-.05a.7.7 0 0 0 .19-.46c0-.04-.02-.08-.03-.11.15-.08.4-.25.48-.55a.7.7 0 0 0 .03-.17c0-.26-.14-.54-.4-.84a1.48 1.48 0 0 0-1.24-.4 4.2 4.2 0 0 1-1.57-1.1c-.17-.19-.18-.27-.18-.29.08-.13.5-.34.82-.51l.64-.37c.1-.07 1-.77 1-1.53v-.05c0-1-.56-1.56-1.6-1.66.06-.54.2-1.4 1.22-2.14a4.42 4.42 0 0 0 1.24-1.58c.6-.14 1.35-1.38 2.07-2.72l.15-.27.62-1.16c.36-.03.78-.21.92-.28.15.09.55.28.87.14.16-.08.25-.25.3-.46.32.06.46-.1.5-.19a.6.6 0 0 0 .06-.27 1 1 0 0 0-.3-.71zm-2.9-4.19a.51.51 0 0 1 .26-.08.86.86 0 0 0-.07.37c0 .08.07.13.14.12s.13-.06.12-.14c0 0 0-.2.15-.4v-.01c.06-.05.15-.1.26-.1.1 0 .19.06.28.15l-.01.01a.94.94 0 0 0-.24.49c-.02.07.02.14.1.16s.14-.03.15-.1c.06-.22.08-.25.2-.38l.15-.19v-.01c.18-.07.36-.09.47-.03.04.02.09.06.09.17 0 .07-.12.2-.2.3-.1.1-.2.2-.23.3-.07.17-.02.34.03.5l.07.3.08.04s.2.04.52.27c0 0 .02.01.02.05-.01.18-.27.47-.34.51-.2.05-.42.17-.55.27-.23.17-.45 0-.48-.02l-.1-.08-.09.1c-.02.04-.59.79-.81 1.64-.31.25-1.13 1-1.42 1.27a.84.84 0 0 1-.12-.4 2.07 2.07 0 0 0-.3-.93.74.74 0 0 0-.05-.07c.27-.02.59-.06.67-.08.19-.05.46-.47.52-.65.02-.08.01-.15-.03-.2l-.04-.05h-1.31V4.5l1-.03.23.01c.16.02.33.03.45-.09.13-.13.15-.59.15-.88.08-.1.24-.35.24-.52l-.06-.5h-.07l-.26-.09c.07-.2.21-.49.43-.63zm-2.63.16l.43.3c.01.01.22.15.58.15.14 0 .5.09.99.24l.3.09c0 .1.03.28.03.28 0 .07-.11.26-.21.4l-.03.03v.04c0 .34-.04.68-.08.74-.03.03-.13.02-.23.01h-.28l-1.24.03v.9h1.34c-.07.14-.23.34-.3.37-.08.03-.66.08-1 .11-.42.02-1.1 0-1.25-.06-.1-.04-.24-.16-.37-.27-.22-.18-.36-.3-.49-.3-.12-.01-.75-.32-.81-.49-.13-.3-.16-.55-.12-.61.11-.16.23-.71.26-.83l.01-.08-.07-.05a.97.97 0 0 1-.32-.33c-.06-.14-.05-.33.07-.4.13-.07.51-.06.6-.05l.05.02.05-.03c.17-.1.44-.26.53-.29.06-.02.4-.02.7 0 .15 0 .8.08.86.08zm-4.97 8.31c.22-.02.4-.13.46-.32a2 2 0 0 0 .06-.57c0-.27-.02-.5-.02-.51a.27.27 0 0 0-.1-.2c-.1-.05-.18 0-.26.02l-.2.06c-.14 0-.2-.07-.3-.2l-.05-.06c-.04-.04-.05-.2-.05-.32v-.01c.1.03.24.07.37.03a.38.38 0 0 0 .27-.22c.04-.1.02-.22-.06-.33a1.6 1.6 0 0 1-.16-.48l-.06-.2c-.07-.1-.19-.09-.27-.08h-.26c-.16-.04-.2-.12-.24-.3a.3.3 0 0 1 0-.05c0-.07.01-.13.03-.18l.21.11c.24.07.37-.07.46-.15.1-.1.09-.25.08-.38v-.17c.1-.39.1-.63 0-.71-.07-.07-.17-.06-.27-.05a.52.52 0 0 1-.17 0c-.14-.1-.2-.33-.2-.43 0-.07.05-.19.1-.26.1.1.24.23.4.23.18 0 .3-.05.37-.14.03-.04.05-.1.05-.17v-.1a.6.6 0 0 1-.03-.15c0-.1.02-.2.04-.33l.13-.47-.13-.05c-.07-.02-.18-.07-.2-.12a.91.91 0 0 1-.09-.33l.01-.06c.05-.12.18-.26.28-.35l.05.2c.1.16.4.18.48.18h.13v-.13s.01-.11.09-.19l.24-.28-.06-.06-.21-.32V1.6a.5.5 0 0 1 .18-.35c.1-.07.19-.12.27-.15l-.01.1.08.16c.1.09.3.14.44.12l.23-.05.2-.05.63.02-.1-.2a.77.77 0 0 1-.1-.27V.92c.04-.06.07-.1.27-.14L8.4.72l-.01.13c.05.16.25.28.41.36l.24.08c.1.03.15.04.2.1l.02.18a3.76 3.76 0 0 0-.77.02 3.5 3.5 0 0 0-.56.3 1.44 1.44 0 0 0-.73.08c-.17.09-.24.27-.24.45 0 .1.02.19.05.27.07.17.25.32.35.4-.06.27-.14.57-.19.64s-.07.15-.07.25c0 .22.1.48.15.62.13.3.91.65 1.06.65.05.01.22.15.33.24.15.12.3.25.43.3.24.1 1.12.1 1.38.1.07.04.18.12.24.19.07.08.19.4.23.79.04.45.23.7.62.85.25.1.4 0 .5-.06v.04c0 .16-.05.46-.11.57-.07.11-.15.18-.24.2-.16.05-.34-.06-.42-.1-.04-.03-.14-.1-.22 0a.13.13 0 0 0-.03.08c0 .03.01.07.04.11.09.12.11.2.11.3v.15l-.02.07c0 .08-.05.16-.1.24a.8.8 0 0 0-.1.35v.04a.5.5 0 0 0 .31.41.52.52 0 0 1-.35.34c-.28.08-.3.03-.42-.18l-.02-.03c-.07-.14-.07-.2-.07-.3 0-.1 0-.22-.06-.4-.13-.35-.35-.32-.58-.28l-.2.03c-.13.02-.15.12-.15.32v.44l-.01.19c0 .13.02.27.1.49.07.23.23.3.33.35h.02c-.03.13-.1.2-.33.24-.33.07-.49-.04-.59-.14-.07-.08-.1-.25-.13-.4l-.05-.21c-.02-.1-.02-.26-.01-.4 0-.22 0-.35-.03-.45-.07-.15-.28-.35-.41-.35-.33.01-.53 1.05-.54 1.21v.07c0 .24.1.38.18.48-.1.05-.27.1-.4.07-.33-.08-.4-.51-.43-.76-.01-.2.06-.4.14-.61l.01-.05a.4.4 0 0 0-.05-.35c-.08-.13-.23-.24-.33-.25-.25-.02-.52.58-.55.73-.06.31-.15.65-.52.69-.23.02-.52-.22-.65-.38zM.81 14.61c-.36-1.43.5-2.68.96-3.35l.13-.2c1.05-1.59.45-3.23.43-3.3l-.04-.1-.1.01c-.35.02-.8-.17-.86-.46l-.03-.13c-.04-.21-.07-.35-.2-.5L1 6.44c-.14-.2-.23-.32-.32-.37 0-.01.03-.05.13-.11l.11-.07c.22-.13.47-.28.78-.3.54-.02.93.1 1.19.36.27.3.41.62.39.96-.03.56-.38.7-.4.71l-.11.05.05.13c0 .02.54 1.9-.43 3.34l-.03.03c-.51.77-1.48 2.2-1 3.5a2.1 2.1 0 0 0 2.1 1.44l.26.6c-.6.02-2.4-.09-2.9-2.1zm5.86 8.98c-.09-.01-.1-.03-.17-.22-.17-.42-.5-1.28-2.7-2.88-.16-.12-.24-.25-.24-.38 0-.15.1-.3.3-.45.95-.72.93-1.49.86-1.9.31.23.42.5.45.71.04.38-.12.7-.24.81-.37.31-.63.55-.62.82.02.25.25.46.61.71.6.42 1.36 1.05 1.69 1.59l.16.28c.13.23.3.53.46.76-.24.12-.46.16-.56.15zm2.4-10.35a3.14 3.14 0 0 0-1.34 2.32c-.4 0-.68.06-.7.07-.07.01-.11.08-.1.16s.1.11.16.1c0 0 .33-.08.75-.06 1.03.05 1.52.53 1.5 1.47 0 .51-.56 1.07-.9 1.32l-.6.34c-.48.26-.8.44-.92.6-.07.12-.05.27.07.45.34.5 1.6 1.43 1.96 1.36.25-.05.74.04.98.31.27.3.38.56.32.77-.04.18-.2.3-.3.35-.1-.18-.3-.52-.58-.69-.07-.03-.15-.01-.19.05s-.01.15.05.18c.22.13.38.4.47.57h-.01l.07.13c.05.1.03.29-.08.4-.16.16-.43.16-.78.02.02-.26-.23-.68-.52-.95-.05-.05-.13-.05-.18 0s-.05.14 0 .2c.32.3.46.66.44.74v.01c-.18.15-.72.22-1.12-.07a11 11 0 0 1-.52-.84l-.17-.3a7.02 7.02 0 0 0-1.76-1.66c-.34-.24-.49-.39-.5-.5 0-.14.2-.33.52-.6.2-.18.4-.6.34-1.05-.04-.32-.22-.75-.81-1.06l-.59-.62a7.26 7.26 0 0 1-.34-.8c-.14-.7.17-1.3.77-2.15.16-.22.47-.78.75-1.28l.47-.82c.18-.24.24-.66.26-.86.5-.12.61-.65.66-.88.02-.14.2-.43.28-.5.03.02.1.06.12.13.02.03.02.05.02.07a.1.1 0 0 1 0 .04L7 9.75a1.92 1.92 0 0 0-.15.72c.04.56.27.91.63 1 .27.06.67-.08.76-.22l.05-.08-.06-.1-.05-.06c-.08-.1-.16-.17-.16-.35v-.05c.02-.29.2-.83.3-.94.04.02.11.1.15.17l.01.14v.18a5.03 5.03 0 0 0 .02.49l.04.19c.04.2.08.4.2.53a.8.8 0 0 0 .56.25l.02.02.11.06c.14.09.36.23.72.22-.17.32-.6.97-1.08 1.32zm6.6-6.42c-.04.07-.13.08-.28.03-.06-.19-.26-.3-.4-.37l-.14-.08c-.06-.04-.16-.03-.2.04s-.03.13.04.17l.17.1c.12.07.27.14.29.25l.02.05c-.03.17-.09.28-.19.33-.2.1-.55-.08-.67-.16l-.07-.04-.06.04c-.01 0-.59.3-.96.29h-.08l-.68 1.28-.16.27c-.34.65-1.39 2.6-1.94 2.6h-.11v.02a.88.88 0 0 1-.53-.08c.2-.07.36-.18.4-.47v-.03c0-.13-.11-.18-.18-.21-.08-.04-.15-.08-.19-.2a1.24 1.24 0 0 1-.07-.56v-.54l.13-.01c.23-.04.23-.04.29.11.05.13.04.2.04.29 0 .11 0 .24.1.44l.02.03c.12.22.25.45.74.3.5-.14.56-.63.56-.65l.02-.13-.13-.02c-.02 0-.21-.04-.23-.23v-.01c0-.06.03-.14.08-.22.05-.1.11-.2.12-.34l.01-.07.01-.18c0-.04 0-.1-.02-.15.1.03.22.06.34.03.16-.04.3-.15.4-.33s.21-.74.12-.92l-.14-.13-.22.07c-.07.05-.14.1-.27.05a.98.98 0 0 1-.14-.07c.31-.29 1.15-1.06 1.42-1.26a6.88 6.88 0 0 1 1.35-.78l.13-.05c.26-.1.4-.14.7-.02.2.1.26.35.28.53a1.86 1.86 0 0 0-.44-.09c-.08 0-.14.06-.14.13s.06.14.14.14c.13 0 .4.08.5.12.18.12.3.52.22.69zM10 2.8l.19-.07-.14-.15c-.14-.14-.33-.32-.47-.32-.06 0-.14 0-.38.45a.16.16 0 0 0 .01.18c.05.06.12.14.79-.1zm30.77 4.46l.03-.13c.04-.2.06-.28.15-.4l.1-.13c.07-.1.21-.28.26-.3a.23.23 0 0 0 .13-.21c0-.1-.05-.22-.27-.35l-.1-.06a1.87 1.87 0 0 0-.91-.34c-.63-.03-1.08.11-1.4.44a1.53 1.53 0 0 0-.46 1.16c.04.53.3.77.45.88l-.04.18c-.04.18-.1.56-.1 1.03 0 .67.13 1.52.63 2.27l.02.03c.4.6 1.09 1.61 1.09 2.6 0 .23-.04.45-.12.66a1.8 1.8 0 0 1-1.8 1.27l.02-.23c0-.64-.32-1.23-.85-1.97-.15-.21-.46-.77-.74-1.26l-.48-.84a1.87 1.87 0 0 1-.21-.7c.36-.07.7-.41.8-.58a.3.3 0 0 0 .05-.14c0-.04 0-.07-.03-.1-.03-.05-.1-.07-.17-.06-.16.02-.3-.04-.34-.16a1.6 1.6 0 0 1-.06-.48l.03-.44.3.08c.28 0 .42-.19.5-.3l.05-.06c.13-.16.13-.6.08-.7l-.04-.1h-.08l-.18.04c-.08.02-.18.05-.24.04-.06-.02-.08-.04-.09-.06v-.01c0-.02 0-.05.03-.07.12-.18.17-.43.2-.59L37 7.1h.37c.32-.09.4-.3.44-.5s-.04-.45-.12-.54l-.06-.08-.07.01-.18.09-.15.09c-.06.01-.1 0-.19-.1L37.03 6v-.34a2.18 2.18 0 0 1-.06-.43h.05c.11 0 .25.02.35-.05a.88.88 0 0 0 .31-.65.91.91 0 0 0-.23-.53.18.18 0 0 0-.15-.05l-.16.12c-.06.05-.18.16-.23.16-.1 0-.15-.02-.16-.03v-.05a.9.9 0 0 0 .03-.22c0-.1-.02-.23-.04-.37l-.07-.26c.1-.04.2-.11.26-.23.04-.08.1-.26.1-.43 0-.06 0-.12-.03-.17-.08-.2-.42-.57-.6-.58h-.11l-.03.09-.05.24v.07a.5.5 0 0 1-.16.04.53.53 0 0 0-.13-.23l-.09-.1.14-.2a.32.32 0 0 0 .06-.2c0-.19-.1-.4-.28-.55-.1-.08-.5-.35-.66-.22l-.07.05.03.13V1v.17a.37.37 0 0 1-.21.06l-.2-.05-.28-.05h-.19a.62.62 0 0 0 .04-.2.25.25 0 0 0-.05-.15c-.1-.13-.18-.19-.42-.25-.25-.07-.44-.11-.53 0-.03.04-.07.11-.01.23 0 0 .02.07-.29.22l-.17.06c-.13.03-.27.07-.36.24a.68.68 0 0 0-.07.31v.01l-.69.07-.49.34s-.15.1-.42.1c-.2 0-.6.1-.94.21a1.48 1.48 0 0 0-.55-.77.77.77 0 0 0-.55-.11.7.7 0 0 0-.45-.18c-.15 0-.3.08-.42.2-.25-.12-.57-.19-.8-.07a.43.43 0 0 0-.23.4c0 .18.14.33.27.48.08.08.16.17.18.22v.08c0 .08-.02.17-.04.26l-.04.17c-.1.03-.28.1-.53.3a.31.31 0 0 0-.13.25.5.5 0 0 0 0 .1c.06.25.37.64.52.67.19.05.39.17.47.23.25.19.51.13.69.04.12.18.4.62.6 1.13a6 6 0 0 0-1.11-.6l-.13-.04c-.28-.1-.5-.18-.88-.02-.41.17-.45.66-.45.87v.03a.99.99 0 0 0-.3.72c0 .1 0 .19.05.27.04.08.18.25.5.18.05.22.15.38.3.46.33.15.72-.05.88-.14.14.07.56.25.92.28l.62 1.16.14.27c.73 1.35 1.47 2.59 2.08 2.72.12.32.66 1.17 1.24 1.58a2.86 2.86 0 0 1 1.23 2.14c-1.05.1-1.62.67-1.62 1.67a.5.5 0 0 0 0 .04c.01.76.9 1.46 1.01 1.53l.63.37c.33.17.74.38.83.51 0 0 0 .08-.19.3a4.35 4.35 0 0 1-1.56 1.1c-.32-.07-.92.03-1.24.4-.26.29-.4.57-.4.83 0 .06 0 .11.02.17.08.3.34.47.48.55l-.02.1c0 .17.07.34.19.47.14.14.47.33 1.1.05.3.22.89.24 1.34-.05.3.17.6.23.78.22.26-.03.32-.19.4-.39.15-.4.47-1.21 2.6-2.76.29-.22.35-.44.35-.6 0-.23-.14-.46-.4-.66-.65-.48-.79-.98-.79-1.35 0-.19.03-.34.06-.45v-.09l.55-.58c.41.03 2.73.09 3.32-2.3.07-.26.1-.52.1-.76 0-1.22-.7-2.22-1.1-2.8l-.12-.2a3.5 3.5 0 0 1-.57-1.94c0-.5.1-.88.14-1.04.45-.02.94-.26 1.03-.67zM32.61 1.4c.04-.07.08-.08.2-.1l.23-.09c.11-.06.43-.22.43-.45V.73l.2.05c.2.05.23.08.29.15 0 .03-.05.16-.1.26l-.12.2h.62l.21.04.23.06c.15.02.34-.04.45-.13l.08-.15-.02-.11c.08.03.18.08.27.16.14.11.19.26.19.34v.03l-.22.32-.06.08.06.06.18.2a.3.3 0 0 1 .08.2v.13h.14c.09-.01.38-.03.48-.19l.05-.2c.1.1.23.23.28.35v.06c0 .08-.02.2-.07.33-.03.05-.14.1-.21.12l-.13.04.04.14.09.34c.02.13.04.24.04.33 0 .05 0 .1-.02.15l-.01.1c0 .08.02.14.05.17.07.1.2.14.37.14.16 0 .3-.13.4-.23.05.07.1.2.1.26 0 .1-.06.34-.2.43-.02.02-.12 0-.17 0-.1 0-.2-.01-.27.05-.09.09-.1.32 0 .71v.17c-.01.13-.02.28.08.38.12.11.24.21.46.15l.21-.11c.02.05.03.11.03.18v.06c-.04.16-.08.25-.24.29h-.25c-.1 0-.21-.02-.28.08l-.06.2c-.03.14-.07.36-.16.49-.08.1-.1.22-.06.33.04.1.14.18.27.22s.27-.01.37-.04v.01c0 .12-.01.28-.05.32l-.04.06c-.1.13-.17.2-.3.2l-.2-.05c-.09-.03-.17-.07-.26-.02-.08.04-.1.13-.1.19 0 0-.03.24-.03.51 0 .2.01.42.06.57.07.19.25.3.46.32-.13.16-.42.4-.65.38-.37-.04-.46-.38-.52-.7-.03-.14-.3-.74-.54-.72-.11 0-.26.12-.35.25a.4.4 0 0 0-.03.4c.08.2.15.41.14.61-.03.25-.1.68-.43.76a.68.68 0 0 1-.4-.07c.09-.1.18-.24.18-.48v-.07c-.01-.16-.21-1.2-.54-1.2-.14-.01-.34.19-.41.34-.04.1-.04.23-.03.44 0 .15.01.32-.01.4l-.05.21c-.03.16-.06.33-.14.4-.09.1-.25.22-.58.15-.23-.05-.3-.12-.33-.23l.02-.01c.1-.05.26-.12.34-.35a1.47 1.47 0 0 0 .08-.68v-.44c0-.2-.02-.3-.15-.32l-.2-.03c-.23-.04-.45-.07-.58.29a.93.93 0 0 0-.06.38c0 .1 0 .17-.07.3l-.02.04c-.12.21-.15.27-.43.18a.52.52 0 0 1-.34-.33.5.5 0 0 0 .32-.46.73.73 0 0 0-.12-.35.69.69 0 0 1-.1-.23V9l-.01-.15c0-.09.02-.17.1-.3a.2.2 0 0 0 .05-.1.13.13 0 0 0-.04-.1c-.07-.08-.17-.02-.21 0-.09.06-.26.16-.42.12-.1-.02-.17-.1-.24-.2a1.6 1.6 0 0 1-.12-.59v-.03c.1.07.26.16.5.07.4-.16.58-.41.63-.86.04-.38.16-.7.23-.8.06-.06.17-.14.24-.18.26 0 1.13 0 1.38-.1a2 2 0 0 0 .43-.3c.1-.09.27-.23.33-.24.15 0 .93-.35 1.05-.65.06-.13.15-.4.15-.62 0-.1-.01-.18-.06-.25s-.13-.37-.2-.64a.99.99 0 0 0 .35-.4.72.72 0 0 0 .06-.27.5.5 0 0 0-.24-.45 1.6 1.6 0 0 0-.73-.09 3.5 3.5 0 0 0-.56-.3 4.14 4.14 0 0 0-.77 0c0-.08 0-.14.03-.18zm-2.9 1.2a5 5 0 0 1 1-.23c.36 0 .57-.14.57-.14l.44-.3.75-.08.1-.01c.3-.01.64-.02.71 0 .08.03.36.19.53.29l.04.03.06-.01c.09-.02.46-.02.6.05.12.07.13.25.07.4a1 1 0 0 1-.32.32l-.08.05.02.09c.02.1.14.67.25.82.04.06.02.3-.11.62-.07.16-.69.47-.82.49-.12 0-.26.11-.49.3-.13.1-.27.22-.36.26a6 6 0 0 1-1.26.07l-1-.12a1.26 1.26 0 0 1-.3-.37h1.35v-.9l-1.24-.04-.28.01c-.1.01-.2.02-.23 0-.04-.06-.08-.4-.08-.74v-.05l-.03-.04a1.1 1.1 0 0 1-.21-.4l.03-.27.29-.1zm-1.4 1.73l-.09-.1-.1.08c-.03.02-.26.19-.49.02a1.7 1.7 0 0 0-.57-.27c-.05-.04-.3-.33-.31-.5 0-.05 0-.05.02-.06.32-.23.5-.27.51-.27l.08-.02.08-.32c.04-.16.1-.33.03-.5a1 1 0 0 0-.23-.3c-.08-.1-.2-.23-.2-.3 0-.11.05-.15.09-.17.1-.06.29-.04.46.03v.01l.16.2c.1.12.13.15.19.37.02.07.1.12.16.1s.12-.1.1-.16a.95.95 0 0 0-.24-.49l-.01-.01c.09-.1.18-.15.28-.15.1 0 .2.05.25.1.16.2.15.4.15.41 0 .07.05.14.12.14s.14-.04.15-.12c0 0 0-.17-.08-.37.1 0 .18.03.26.08.22.14.37.44.44.63l-.34.1v.08l-.05.4c0 .18.16.42.23.53 0 .29.03.75.16.88.12.12.29.1.44.09l.24-.01 1 .03v.38h-1.32l-.04.04c-.04.05-.05.12-.02.2.05.18.33.6.51.65.09.02.4.06.68.08l-.06.07c-.13.15-.26.55-.3.93a.83.83 0 0 1-.12.4 24.3 24.3 0 0 0-1.42-1.27 5.2 5.2 0 0 0-.81-1.64zm3.29 7.3h-.12c-.54 0-1.6-1.96-1.94-2.6l-.15-.28-.69-1.28h-.08c-.36 0-.94-.3-.95-.3l-.07-.03-.06.04c-.12.08-.47.26-.68.16-.1-.05-.16-.16-.19-.33a.13.13 0 0 0 .03-.06c.02-.1.16-.17.28-.24l.18-.1c.06-.04.07-.11.03-.17s-.14-.08-.2-.04l-.13.08c-.15.07-.35.18-.41.37-.14.05-.23.04-.27-.03-.09-.18.03-.58.2-.7.12-.03.39-.11.52-.11.08 0 .13-.06.13-.14s-.06-.13-.13-.13c-.12 0-.3.04-.44.08.01-.17.07-.43.28-.52.3-.12.43-.07.7.02l.13.04a6.9 6.9 0 0 1 1.35.8c.27.2 1.1.96 1.41 1.25a.98.98 0 0 1-.13.07c-.13.05-.2 0-.28-.05l-.21-.07-.15.13c-.08.18.02.74.12.91s.24.3.4.34c.13.03.24 0 .35-.03l-.03.15c0 .06 0 .12.02.18v.07c.01.13.08.24.13.34.04.08.08.16.08.22v.01c-.02.19-.21.22-.24.23l-.12.02.01.13c0 .02.07.5.57.65.49.15.61-.08.73-.3l.02-.04c.1-.19.1-.32.1-.43 0-.09 0-.17.05-.29.05-.15.06-.15.29-.11l.12.01a288.74 288.74 0 0 1 .02.7c0 .1-.02.22-.09.4-.04.12-.11.16-.2.2-.06.03-.17.08-.17.21v.03c.04.29.2.4.4.47a.88.88 0 0 1-.52.08zm6.39 8.03c.2.14.3.3.3.45 0 .13-.09.26-.25.38-2.2 1.6-2.53 2.46-2.69 2.88-.07.2-.08.2-.18.21a1.2 1.2 0 0 1-.56-.14c.16-.23.32-.52.46-.76l.17-.28a6.58 6.58 0 0 1 1.69-1.6c.36-.25.6-.45.6-.7.02-.27-.24-.51-.6-.82-.13-.1-.3-.43-.25-.8a1 1 0 0 1 .45-.72c-.08.41-.1 1.18.86 1.9zm-.18-2.9l-.58.62c-.6.3-.77.74-.81 1.06-.06.45.13.87.33 1.04.33.28.52.47.52.6 0 .12-.16.27-.5.5-.3.22-1.32.96-1.76 1.68l-.17.29c-.15.26-.35.62-.52.84-.4.28-.93.22-1.11.07v-.01c-.03-.08.11-.45.43-.75.05-.05.06-.13 0-.18s-.13-.06-.18-.01c-.3.27-.54.69-.52.95-.35.14-.62.14-.77-.02-.12-.11-.14-.3-.09-.4l.07-.13c.08-.16.24-.44.46-.57.06-.04.09-.12.05-.18s-.12-.09-.18-.05c-.3.17-.49.5-.58.7-.1-.07-.26-.18-.3-.36-.06-.22.04-.47.31-.77.24-.27.74-.36.99-.31.35.07 1.61-.85 1.95-1.36.12-.18.15-.33.07-.44a2.89 2.89 0 0 0-.92-.6l-.6-.35c-.33-.25-.9-.8-.9-1.32-.02-.94.48-1.42 1.5-1.47.42-.02.75.05.75.05a.13.13 0 0 0 .06-.25c-.01 0-.3-.07-.7-.07a3.14 3.14 0 0 0-1.34-2.32 4.3 4.3 0 0 1-1.08-1.32c.36 0 .58-.13.72-.22l.11-.06.03-.02c.21-.01.4-.1.55-.25.12-.14.17-.34.2-.54l.05-.18c.02-.08.02-.17.02-.28v-.53c.03-.07.1-.13.15-.16a2.54 2.54 0 0 1 .3.98c0 .18-.07.26-.15.35l-.12.13.05.11c.09.14.5.28.76.22.36-.08.59-.44.63-1v-.07c0-.23-.08-.45-.15-.65l-.01-.04V9.6c.04-.06.1-.1.14-.13.08.08.25.36.28.5.04.24.15.76.65.88.02.2.09.62.26.87l.47.8c.28.5.6 1.07.75 1.3.6.84.91 1.43.77 2.13a5.5 5.5 0 0 1-.34.8zm1.74-9.1l-.03.1c-.03.06-.62 1.71.43 3.3l.13.2c.46.66 1.31 1.91.95 3.35-.5 2.02-2.32 2.12-2.9 2.1.08-.17.19-.42.25-.6a2.1 2.1 0 0 0 2.1-1.43c.48-1.3-.48-2.73-1-3.5l-.02-.03c-.97-1.44-.44-3.32-.43-3.34l.05-.12-.12-.06c-.02 0-.36-.15-.4-.71-.02-.34.12-.67.4-.96.25-.26.64-.38 1.18-.36.32.02.56.17.78.3l.12.07c.1.06.12.1.12.1-.08.06-.18.18-.32.38l-.1.12c-.12.16-.15.3-.2.5l-.02.14c-.07.3-.51.48-.87.46h-.1zM32.64 2.9a.16.16 0 0 0 0-.18c-.24-.45-.31-.45-.37-.45-.14 0-.34.18-.47.32l-.15.15.2.07c.66.23.74.15.78.1zM18.1 4.86l-.55.17-.54-1.73-.67.21-.13-.4c.38-.12.69-.35.61-.78l.44-.14.83 2.67zm1.44-2.18c-.04-.26-.24-.5-.52-.45-.27.04-.39.32-.35.57.04.26.22.5.5.46.3-.05.41-.31.37-.58zm-.68 1.26c.07.18.24.32.43.29.4-.06.43-.61.4-.93h-.01a.71.71 0 0 1-.58.4.89.89 0 0 1-.68-.18.96.96 0 0 1-.3-.59c-.09-.56.23-1.07.8-1.16.85-.13 1.18.57 1.29 1.27.1.68-.08 1.5-.86 1.61-.48.08-.88-.15-1.02-.63l.53-.08zm2.78.16c.46.03.51-.65.54-.97.02-.29.08-.97-.39-1-.45-.04-.5.64-.53.93-.02.31-.07 1 .38 1.03zm.19-2.44c.56.04 1 .43.92 1.52-.1 1.1-.59 1.42-1.15 1.38-.55-.04-.99-.43-.9-1.54.08-1.1.58-1.4 1.13-1.36zm2.67 1.27h-.01l-.96.74.71.2.26-.94zm-.38 1.38l-1.14-.3.14-.51 1.6-1.25.49.13-.45 1.63.36.1-.13.45-.35-.1-.17.62-.52-.14.17-.63zM7.49 24.8l.73-.03.1 2.71 1.39-.04.02.61-2.13.07zm4.2 2.03c-.02-.34-.14-.54-.46-.58-.41-.06-.58.25-.61.43l1.07.15zm-1.13.27c-.04.42.14.64.5.69.27.03.5-.1.56-.24l.58.07c-.26.54-.69.73-1.23.66-.75-.1-1.14-.69-1.04-1.43.1-.71.66-1.2 1.39-1.1.81.12 1.1.86.96 1.59l-1.72-.24zm3.24 1.72l-.71-.19-.18-2.54.67.18.07 1.72.92-1.46.63.17zm3.17-.62c.03-.33-.06-.54-.37-.63-.4-.11-.61.17-.67.35l1.04.29zm-1.15.12c-.1.41.05.65.4.75.26.07.51-.03.59-.16l.56.15c-.33.5-.78.63-1.3.48-.73-.2-1.05-.83-.85-1.55.2-.7.82-1.1 1.53-.9.79.22.98 1 .74 1.7l-1.67-.47zm2.59-.73l.62.1-.07.44h.01a.85.85 0 0 1 .84-.39c.05 0 .1.03.14.05l-.1.6a1.31 1.31 0 0 0-.23-.05c-.48-.08-.7.24-.76.66l-.17 1.07-.66-.1.38-2.38zm1.98-.63l.66-.03.1 1.78.78-.9.78-.05-.86.93 1.09 1.47-.8.05-.72-1.05-.24.26.04.83-.66.04zm5.58 2.47l-.6.15-.09-.33h-.01a.9.9 0 0 1-.62.58c-.68.17-.95-.17-1.1-.75l-.36-1.44.65-.16.33 1.32c.1.38.25.54.55.47.35-.09.45-.32.33-.8l-.3-1.22.64-.16.58 2.34zm1-1.13c.09.28.35.32.6.25.19-.05.4-.19.34-.41-.06-.2-.34-.19-.83-.16-.39.03-.8 0-.9-.4-.17-.6.3-.9.8-1.04s1.01-.1 1.22.45l-.6.17c-.09-.24-.3-.25-.53-.19-.14.04-.34.13-.29.32.07.23.43.16.82.14.4-.02.8.01.92.44.17.61-.3.96-.83 1.11-.54.15-1.12.1-1.32-.5l.6-.18zm3.58-1.54c-.11-.32-.29-.47-.6-.41-.42.07-.48.41-.46.6l1.06-.19zm-.99.6c.1.41.33.56.69.5.26-.04.44-.24.46-.4l.57-.1c-.08.6-.43.9-.97 1-.75.13-1.3-.3-1.43-1.05-.12-.7.28-1.33 1-1.46.8-.14 1.31.47 1.4 1.21l-1.72.3zm2.38-1.72l.62.02V26h.01a.86.86 0 0 1 .75-.39c.7.02.87.42.85 1.02l-.03 1.48-.67-.02.04-1.36c0-.4-.1-.6-.41-.6-.36 0-.52.19-.53.68l-.03 1.26-.66-.01.06-2.41z"/><path fill="#fff" d="M31.1 16a10.17 10.17 0 1 1-20.35 0 10.17 10.17 0 0 1 20.35 0z"/><path fill="#000" d="M20.92 25.68a9.69 9.69 0 1 0-.01-19.38 9.69 9.69 0 0 0 .01 19.38zm-10.36-9.7a10.36 10.36 0 1 1 20.73-.01 10.36 10.36 0 0 1-20.73.01z"/><path fill="#000" d="M20.3 12.7h1.24l-.62-1.27-.62 1.27zm-1.39 1.25l1.55-3.24h.9l1.6 3.25h-.82l-.26-.55h-1.9l-.3.54h-.77zm1.02 4.82h2.53v-.71h-3.24v3.24h3.24v-.71h-2.54v-.55h2.54v-.71h-2.53zm1.75-9.78h-1.75v.56h1.74c.38 0 .4-.56 0-.56zm-.12-1.25h-1.64v.53h1.65c.35 0 .34-.53-.01-.53zm1.08 1.55c0 .54-.45.98-.9.98h-2.53V7.02h2.44c.45 0 .9.27.9.98a1 1 0 0 1-.28.64c.21.15.37.4.37.65zm-8.18 7.03h-1.84v.56h1.83c.39 0 .4-.56.01-.56zm-.12-1.25h-1.72v.54h1.73c.35 0 .34-.54-.01-.54zm1.08 1.56c0 .53-.44.97-.9.97H11.9v-3.25h2.53c.45 0 .9.27.9.98a1 1 0 0 1-.27.64c.2.15.36.41.36.66zm1.48-.29h1.25l-.62-1.27-.62 1.27zm-1.38 1.25l1.54-3.24h.91l1.59 3.25h-.8l-.27-.54h-1.9l-.3.53h-.77zm13.35-2.53h-1.49v.64h1.5c.43 0 .43-.63-.01-.63zm1.04.32c0 .53-.34 1.02-.85 1.03l.86 1.19h-.88l-.85-1.18h-.8v1.18h-.71v-3.25h2.37c.52 0 .86.45.86 1.03zm-11.23-1.03h1l1.15 1.32 1.16-1.32h1l-1.8 2v1.25h-.72v-1.26zm5.12.72h2.17v-.72h-2.88v3.25h2.87v-.72H23.8v-.55h2.17v-.71H23.8zm-2.3 7.4h-1.57v.63h1.58c.43 0 .43-.63 0-.63zm1.05.31c0 .54-.35 1.03-.86 1.03l.87 1.2h-.89l-.85-1.18h-.9V25h-.7v-3.24h2.46c.52 0 .86.45.86 1.02z"/></svg>