<svg id="Ebene_1" xmlns="http://www.w3.org/2000/svg" viewBox="0 0 1096.09 1571.19"><defs><style>.cls-1,.cls-10,.cls-6,.cls-8,.cls-9{fill:none}.cls-2{clip-path:url(#clip-path)}.cls-3{fill:#334493}.cls-3,.cls-5,.cls-7{fill-rule:evenodd}.cls-4,.cls-5{fill:#fefefe}.cls-6{stroke:#333233;stroke-width:.86px}.cls-7{fill:#e5373b}.cls-8,.cls-9{stroke:#334493}.cls-8{stroke-width:31.48px}.cls-10,.cls-9{stroke-width:31.8px}.cls-10{stroke:#fefefe}</style><clipPath id="clip-path" transform="translate(-412.42 -175.25)"><path id="_Zuschneidungspfad_" class="cls-1" d="M418.07 167.49h1084.74v1585.9H418.07z"/></clipPath></defs><g id="_Gruppe_"><g class="cls-2" id="_Beschnittgruppe_"><path id="_Zusammengesetzter_Pfad_" class="cls-3" d="M538.25 956.26c-2-57.24-4.57-110.51-51.22-164.34-4.28 41.87-25.16 69.49-30.31 105.67-5.44 38.18 1.71 71.2 20.88 115.36-14.61-9.72-27.19-34.77-43.8-43.57-13.45 45.82-18.89 94.83-10.29 140.95 8.3 43.87 44.92 80.63 59.81 119.93-9.75-3.16-17.76-8.27-26.61-15.12-10.88 36.76-6.31 86.32 10.29 124.78 16 36.15 64.68 59 82.7 88.57q-18-4.72-36.07-9.42c12.32 40.74 38.65 88.6 74.14 119.05 36.07 31.07 82.44 44.45 130.8 56.7-16.89.55-34.08 1.42-51.23 2 22.3 37.6 60.66 66.64 100.72 84.87 32.92 15.37 72.14 9.68 108.18 11.38-4.28 11.39-17.44 23.64-13.16 34.19 10.59 14 32.92 18.77 55 16.78 11.13-18.78 20.31-36.72 24.61-56.66-12.61-16.24-25.19-32.73-37.81-49-19.14-14-38-27.92-56.92-41.59-43-1.16-79.86-22.8-119.63-45.28a272.82 272.82 0 0 0-64.68-70.08c-23.45-17.65-52.09-27-79.86-37.88-3.12-37-19.43-74.61-32.06-111.37-10.87-31.61-22.58-63.51-38.06-92.55 1.16-26.47 4.6-53 3.73-79.47-.58-24.46-4.85-49-7.43-73.49 9.43-43.57 30.06-86 28.32-130.43zm0 0" transform="translate(-412.42 -175.25)"/></g><path id="_Pfad_" class="cls-4" d="M503.58 298.85h50.36v414.41h-50.36z"/><path id="_Zusammengesetzter_Pfad_2" class="cls-5" d="M1445.73 725.87H471.87l-17.19-47.27h1010.24zm0 0" transform="translate(-412.42 -175.25)"/><path id="_Zusammengesetzter_Pfad_3" class="cls-3" d="M961.25 728.41l-.58 156.39 48.36 2.83 7.72-112.49L1398 762.05l32.92-41.62H968.39l30.34-33.86h464.77l13.12-11.42-11.14-14.22-444.17-15.12-10.24-173.71-50.39 2 .58 233.54-38.36-36.19V474.1H898l-5.73 177.46-420.11 2L446.39 678l8.61 5.7 454.46.87 36 37.85H493.91l35.2 45.28 363.15 4.57L900 887.63l22.88-2V764.88zm0 0" transform="translate(-412.42 -175.25)"/><path id="_Zusammengesetzter_Pfad_4" class="cls-6" d="M961.25 728.41l-.58 156.39 48.36 2.83 7.72-112.49L1398 762.06l32.92-41.62H968.39l30.34-33.86h464.77l13.12-11.42-11.14-14.21-444.17-15.12-10.24-173.73-50.39 2 .58 233.54-38.36-36.18V474.09H898l-5.73 177.46-420.11 2L446.39 678l8.59 5.69 454.46.87 36 37.85H493.91l35.2 45.32 363.15 4.57L900 887.63l22.88-2V764.88zm0 0" transform="translate(-412.42 -175.25)"/><path id="_Zusammengesetzter_Pfad_5" class="cls-7" d="M566 889.34h338.88V759.19H507.36zm0 0" transform="translate(-412.42 -175.25)"/><path id="_Zusammengesetzter_Pfad_6" class="cls-5" d="M1342.16 889.34h-338.85V759.19h397.48zm0 0" transform="translate(-412.42 -175.25)"/><path id="_Zusammengesetzter_Pfad_7" class="cls-7" d="M1316.67 470.68h-312.24v198.53h463.06zm0 0" transform="translate(-412.42 -175.25)"/><path id="_Zusammengesetzter_Pfad_8" class="cls-5" d="M612.39 470.68h294.19v198.53H449zm0 0" transform="translate(-412.42 -175.25)"/><path id="_Zusammengesetzter_Pfad_9" class="cls-5" d="M1322.4 463l55-272H577.19c11.16 90.85 22.33 181.4 33.21 272.29zm0 0" transform="translate(-412.42 -175.25)"/><g class="cls-2" id="_Beschnittgruppe_2"><path id="_Zusammengesetzter_Pfad_10" class="cls-8" d="M1322.4 463l55-272H577.19c11.16 90.85 22.33 181.41 33.21 272.3zm0 0l26.32 434.64c-5.44-83.75 74.72-155.24 138.81-217.34q-82.44-108.49-165.13-217l-712-.29Q522.34 571.92 433.8 680.3c69.83 66.92 138.53 133.88 129.07 217.34zm0 0" transform="translate(-412.42 -175.25)"/><path id="_Zusammengesetzter_Pfad_11" class="cls-3" d="M562.87 897.6c-17.74 159.77-49.49 337.78 45.78 485.62 108.18 168 268.17 170 353.14 328.67 77.84-155.53 248.15-152.12 351.15-330.38 97-168.33 52.09-319.28 36.07-483.91-160.28 0-722.32.58-786.15 0zm0 0" transform="translate(-412.42 -175.25)"/><path id="_Zusammengesetzter_Pfad_12" class="cls-9" d="M562.87 897.64c-17.74 159.77-49.49 337.77 45.78 485.57 108.18 168 268.17 170 353.14 328.67 77.88-155.49 248.11-152.08 351.15-330.37 97-168.33 52.09-319.29 36.07-483.87-160.28 0-722.32.55-786.15 0zm0 0" transform="translate(-412.42 -175.25)"/></g><path id="_Zusammengesetzter_Pfad_13" class="cls-3" d="M557.13 1067.63l-.83 15.41-.87 15.62-.29 15.42v30.45l.58 15.41.87 15.37 1.12 15.08 1.45 15.08 4.57 29.66 2.87 14.78 3.73 14.83 3.7 14.5 4.57 14.28 5.15 14.22 5.73 14.25 6 14 7.15 14 7.46 13.66 8.31 13.38 10 14.79 10.29 14 10.59 13.38 10.88 12.21L671 1443l11.17 11.09 11.16 10.26 11.71 10 11.45 9.39 11.75 8.84 12 8.81 11.7 8.27 12 8.26 12 8 12 7.68 12.29 7.68 12 8 11.71 7.68 12 8 11.74 8.26 11.71 8.27 11.45 8.52 11.46 9.13 11.13 9.39 10.91 10 10.83 10.47 10.59 11.09 10 11.68 9.72 12.55 9.17 13.37 6.9 10.55 6-10 8.88-12.84 9.43-12.22 9.75-11.7 10.29-10.8 10.59-10 10.9-9.68 11.14-9.42 11.45-8.52 11.45-8.56 11.71-8.23 12-7.72 12-8 12.32-7.68 12-7.69 24.58-15.37 12-8 12.29-8.27 12-8.26 12-8.85 11.75-9.38 11.71-9.68 11.49-10.26 11.13-10.8 11.16-11.38 10.88-12.26 10.29-12.83 10.34-13.92 10-14.83 9.46-15.67 8.59-15.37L1319 1345l6.86-15.08 6.3-15.12 5.48-15.08 4.83-14.78 4.28-14.83 3.73-14.79 2.9-14.53 2.58-14.79 2-14.53 1.7-14.83 1.16-14.53.55-14.51.29-14.83v-14.53l-.29-14.5-.55-14.83-1.16-14.51-1.12-14.82-1.54-14.78-1.41-14.53-1.74-14.83-1.71-15.08-2-14.83-2-15.08-1.71-15.08-2-15.08-2-15.12-3.43-30.74-.58-5.15H1248l-25.49.29H580.63l-7.18-.29-.58 4.86-1.71 15.08-1.71 15.11-1.74 15.38-2 15.37-1.71 15.36-1.46 15.37-1.7 15.42-1.42 15.37-1.16 15.66zm0 0" transform="translate(-412.42 -175.25)"/><g class="cls-2" id="_Beschnittgruppe_3"><path id="_Zusammengesetzter_Pfad_14" class="cls-10" d="M557.13 1067.63l-.83 15.41-.87 15.63-.29 15.41v30.46l.58 15.41.87 15.37 1.12 15.08 1.45 15.08 4.57 29.65 2.87 14.79 3.73 14.83 3.7 14.5 4.57 14.28 5.15 14.21 5.73 14.25 6 13.95 7.15 14 7.46 13.67 8.31 13.37 10 14.79 10.29 14 10.59 13.37 10.88 12.22L671 1443l11.17 11.09 11.16 10.26 11.71 10 11.45 9.38 11.75 8.84 12 8.82 11.7 8.26 12 8.27 12 8 12 7.68 12.29 7.69 12 8 11.71 7.68 12 8 11.74 8.27 11.71 8.27 11.45 8.52 11.46 9.13 11.13 9.39 10.91 10 10.83 10.45 10.59 11.09 10 11.68 9.72 12.54 9.17 13.38 6.9 10.54 6-10 8.88-12.84 9.43-12.21 9.75-11.71 10.29-10.8 10.59-10 10.9-9.68 11.14-9.43 11.45-8.52 11.45-8.55 11.71-8.23 12-7.72 12-8 12.32-7.68 12-7.68 24.58-15.37 12-8 12.29-8.27 12-8.27 12-8.84 11.75-9.39 11.75-9.68 11.45-10.26 11.13-10.8 11.16-11.39 10.88-12.25 10.29-12.84 10.34-13.92 10-14.82 9.46-15.67 8.59-15.37L1319 1345l6.89-15.08 6.27-15.12 5.44-15.08 4.86-14.79 4.28-14.82 3.73-14.79 2.9-14.54 2.58-14.78 2-14.54 1.7-14.82 1.16-14.54.55-14.5.29-14.83v-14.53l-.29-14.51-.55-14.82-1.16-14.51-1.12-14.83-1.45-14.78-1.41-14.54-1.71-14.82-1.74-15.08-2-14.83-2-15.08-1.71-15.08-2-15.08-2-15.12-1.71-15.41-1.8-15.32-.58-5.15H1248l-25.45.29H580.63l-7.18-.29-.58 4.85-1.71 15.08-1.71 15.12-1.74 15.37-2 15.38-1.71 15.37-1.46 15.37-1.7 15.41-1.42 15.38-1.16 15.66zm0 0" transform="translate(-412.42 -175.25)"/><path id="_Zusammengesetzter_Pfad_15" class="cls-8" d="M562.87 897.64c-17.74 159.77-49.49 337.77 45.78 485.57 108.18 168 268.17 170 353.14 328.67 77.88-155.49 248.11-152.08 351.15-330.37 97-168.33 52.09-319.29 36.07-483.87-160.28 0-722.32.55-786.15 0zm0 0" transform="translate(-412.42 -175.25)"/></g><path id="_Zusammengesetzter_Pfad_16" class="cls-3" d="M706 237.4h76.42c15.16 0 26.61.86 34 2a50.28 50.28 0 0 1 19.76 7.43A45.61 45.61 0 0 1 851 261.61a40.65 40.65 0 0 1 5.74 21.07 40.14 40.14 0 0 1-7.15 23.09 44.9 44.9 0 0 1-19.76 15.66c11.75 3.12 20.63 8.56 26.91 16.24a41 41 0 0 1 9.46 27 50.7 50.7 0 0 1-6 23.64 49.47 49.47 0 0 1-16.6 18.52c-6.86 4.54-15.74 7.4-26 8.56-6.31.55-21.75.84-46.37 1.12H706zm38.65 29.9v41.29h25.49c14.86 0 24.29 0 28-.54 6.6-.58 11.75-2.87 15.44-6.27a18.77 18.77 0 0 0 5.73-14c0-5.69-1.7-10.26-4.85-13.66-3.44-3.42-8.31-5.4-14.61-6.27-3.7-.29-14.87-.58-32.88-.58zm0 71.24v47.81h35.78c14 0 22.59-.29 26.61-1.12a24.73 24.73 0 0 0 14-7.14c3.41-3.7 5.44-8.81 5.44-15.08a21.68 21.68 0 0 0-4.32-13.67 24.67 24.67 0 0 0-12-8.27q-8.16-2.55-34.37-2.53zm0 0" transform="translate(-412.42 -175.25)"/><path id="_Zusammengesetzter_Pfad_17" class="cls-3" d="M889.11 358.19l37.49-3.41c2.28 11.93 6.89 20.48 13.74 26.17 6.9 5.44 16.32 8.27 28.07 8.27 12.58 0 21.75-2.53 28.06-7.4s9.43-10.84 9.43-17.36a15.05 15.05 0 0 0-4-10.84c-2.57-2.83-7.14-5.4-13.74-7.68q-6.85-2.12-30.89-7.68c-20.88-4.86-35.2-10.84-43.51-17.95C902 310.63 896 298.66 896 284.42a44.89 44.89 0 0 1 8.31-25.63c5.44-8 13.41-14 23.74-17.94 10.59-4.28 23.16-6.27 37.78-6.27 24 0 42.05 4.85 54.09 14.83 12.29 9.68 18.6 22.77 19.17 39.29l-38.65 1.71c-1.45-9.39-5.15-16-10.59-19.94s-13.45-6-24.33-6c-11.45 0-20 2-26.32 6.56a11.94 11.94 0 0 0-6.3 10.8c0 4.28 2 8 5.73 11.13 4.85 3.69 16.6 7.68 35.49 12 18.89 4 32.59 8.27 41.76 12.8a52.75 52.75 0 0 1 21.17 18.24c5.15 7.68 7.47 17.08 7.47 28.49a50.07 50.07 0 0 1-8.88 28.75 55.83 55.83 0 0 1-26 19.94c-11.16 4.28-24.9 6.56-41.5 6.56-24.32 0-42.92-5.15-55.83-15.66s-20.59-25.63-23.16-45.87zm0 0" transform="translate(-412.42 -175.25)"/><path id="_Zusammengesetzter_Pfad_18" class="cls-3" d="M1199.62 350.76l37.49 11.14c-6 19.36-15.44 33.89-28.89 43.57-13.16 9.39-30.06 14-50.65 14-25.49 0-46.37-8-62.68-24.21s-24.62-38.47-24.62-66.64c0-29.65 8.31-52.71 24.62-69.24 16.6-16.49 38.06-24.76 65-24.76 23.45 0 42.34 6.27 56.92 19.36 8.88 7.68 15.48 18.52 19.79 33l-38.39 8.56c-2.26-9.38-6.86-16.78-14-22.22-7.15-5.11-16-8-26.32-8-14 0-25.77 4.86-34.37 14.26-8.88 9.68-13.45 25-13.45 46.43 0 22.48 4.31 38.72 13.16 48.11 8.58 9.72 20 14.53 33.78 14.53a41.19 41.19 0 0 0 26.61-9.1c7.43-6 12.58-15.69 16-28.79zm0 0" transform="translate(-412.42 -175.25)"/><path id="_Zusammengesetzter_Pfad_19" class="cls-3" d="M738.29 575.49c0 12.8-.84 23.93-2.87 33.32-1.7 9.68-4.57 17.36-8.58 23.93a41.78 41.78 0 0 1-15.45 14.54c-6.3 3.12-14 4.82-23.16 4.82s-16.89-1.7-23.2-4.82a40.93 40.93 0 0 1-15.44-14.83c-4-6.27-6.85-14.21-8.58-23.93-2-9.39-2.87-20.23-2.87-33a184.87 184.87 0 0 1 2.57-33.32 82.86 82.86 0 0 1 8.88-23.93 42.9 42.9 0 0 1 15.74-14.53c6.3-3.12 14-4.53 22.9-4.53 9.43 0 17.15 1.41 23.46 4.82a41.5 41.5 0 0 1 15.16 14.83q6 9.79 8.58 23.89c2 9.43 2.87 20.52 2.87 32.77zm-32.92 0c0-18.24-1.12-31-3.69-38.17-2.87-7.4-7.18-11.09-13.46-11.09s-10.58 3.69-13.45 11.09c-2.57 7.15-4 19.93-4 38.47 0 17.65 1.45 30.45 4 37.88 2.87 7.39 7.15 11.38 13.45 11.38s10.59-4 13.16-11.38c2.87-7.43 4-20.23 4-38.18zm0 0" transform="translate(-412.42 -175.25)"/><path id="_Zusammengesetzter_Pfad_20" class="cls-3" d="M847.92 649h-85.85v-25.65h27.44v-77.76h-27.44v-23.93a89.79 89.79 0 0 0 12-.84 34.66 34.66 0 0 0 9.47-2.87 17.81 17.81 0 0 0 6.56-6.56 23.7 23.7 0 0 0 2.57-9.68H821v121.64h26.9zm0 0" transform="translate(-412.42 -175.25)"/><path id="_Zusammengesetzter_Pfad_21" class="cls-5" d="M1165.29 574.63c0 12.54-.84 23.63-2.87 33.31-1.7 9.39-4.57 17.36-8.84 23.94a40 40 0 0 1-15.77 14.25c-6.56 3.41-14.58 5.1-24.32 5.1-9.43 0-17.15-1.7-23.75-5.1a37.66 37.66 0 0 1-16-14.54c-4.28-6.52-7.15-14.53-9.14-23.93a184.72 184.72 0 0 1-2.57-33c0-13.1.84-24.22 2.57-33.32 2-9.39 4.86-17.4 9.14-23.93a39.87 39.87 0 0 1 16.26-14.57 54.12 54.12 0 0 1 23.46-4.82c9.74 0 17.76 1.7 24.32 5.1 6.6 3.16 11.74 8.27 16.06 14.83 4 6.52 6.86 14.51 8.84 23.93a180.46 180.46 0 0 1 2.58 32.74zm-33.75 0c0-18.24-1.45-31-4-38.47-2.86-7.11-7.42-10.8-14-10.8-6.27 0-10.88 3.69-13.71 10.8-2.61 7.43-4 20.23-4 38.47 0 17.94 1.41 30.74 4 38.17 2.83 7.4 7.43 11.09 13.71 11.09 6.6 0 11.16-3.69 14-11.09 2.58-7.43 4-20.23 4-38.17zm0 0" transform="translate(-412.42 -175.25)"/><path id="_Zusammengesetzter_Pfad_22" class="cls-5" d="M1286.34 613.92H1268v34.48h-32.63v-34.48h-58.94v-27.63l58.08-85.15H1268v86.27h18.31zm-50.94-26.51v-50.1l-33.78 50.1zm0 0" transform="translate(-412.42 -175.25)"/><path id="_Zusammengesetzter_Pfad_23" class="cls-7" d="M628.7 1108.34c1.71 4.58 106.44 115.36 109.89 113.37 2.57-1.7 8.31-101.11 4.86-104.81-18.31-14-39.78-22.22-51.23-41.58-9.13-15.37-6.85-36.72-8.59-54.67-.84-2.86-54.05-25.63-56.92-24.5-3.44 2.57.26 107.09 2 112.2zm0 0" transform="translate(-412.42 -175.25)"/><path id="_Zusammengesetzter_Pfad_24" class="cls-7" d="M788.94 1222.86c-11.71 6-19.72 31.91-30.31 26.21-5.73-6.56 12.58-138.41 15.16-149 3.44-9.68 21.47-15.67 20-22.77-.86-8.27-50.93-4.28-55.25-9.43-6.56-6.52 2.28-32.16-1.7-37.85-2-2-4.86-4-5.74-6.56-1.45-3.7-2.57-8.56-.86-11.39 20.62-4.57 35.2-15.41 54.09-16.82 10.29-.84 18.3 11.38 29.18 10.26 5.15-1.41 14.62-1.41 15.19-4.57 0-4.83-2.87-11.09 0-14.21 14.28-8.84 47.2-18.82 56.08-16.24 20 9.38 31.17 30.16 33.21 48.1.84 7.15-12.91 32.2-12.32 38.76.87 6.27 34.08 13.09 32.92 59-.58 17.94-4.86 30.49-19.76 39.3-10 3.69-22 4.85-30.31 11.68-9.46 7.68-10.33 23.64-20.92 29.9-8.84 5.41-21.75-3.11-31.17.87s-12.87 17.08-21.75 21.94c-7.72 3.69-18-1.16-25.77 2.82zm0 0" transform="translate(-412.42 -175.25)"/><path id="_Zusammengesetzter_Pfad_25" class="cls-7" d="M698.81 1320.86c-6.89 5.11-33.79 56.08-29.48 61.49 5.73 4 135.37 5.73 146.25.87 8.31-6.27 53.51-116.77 64.39-123.63 11.7-4.82 94.43-2 141.35-2.82 4.6 2.57 6.89 5.69 6.6 9.38 0 5.4-2.57 10.26-7.43 14.25-14 .3-27.77.58-41.8.84-9.72.3 6 15.12 3.74 26.51-2.87 14.82-24.62 15.37-42.64 15.94-6.89 6-33.21 51.84-29.48 58.66 5.15 3.73 109.6 4.28 118.73 0 6.31-5.4 40.09-79.17 41.8-89.69-1.71-7.68-46.37-41-35.2-50.14 11.45-5.4 104.73 53.84 104.45 67.22-2.57 19.94-28.32 9.38-38.91 15.08-8.3 6-31.21 51.55-27.47 57.53 4 6 125.36 4.28 134.5 0 9.42-6 41.22-69.21 40.93-86-.58-25.34-65.84-29-65.55-102.81.3-25.63 38.07-46.73 44.67-61.52 4.85-10.84 5.15-41.29.84-51-4.28-9.43-6-14.25-28.32-14-50.93-.87-148.82 1.41-152.81-2-3.16-6.85-4.89-46.73-.87-53 3.7-2.82 68.67-2.25 122.47 0 36.36 5.44 68.41 5.44 71 4 4.6-5.69 2.57-27-2-31.32-2.86-1.12-54.66 1.41-71.85 8.27-58.08 4.57-134.79.29-138.78 3.12-3.44 6-8.31 88.31 0 93.42 7.72 5.15 167.13-1.41 176.59 2.87 4 6.81 1.71 28.2-4.89 33-6.27 7.4-214.62-3.41-232.38 4.86-9.13 7.39-10.59 29.9-21.75 40.42-11.71 11.13-30.89 11.13-43.46 20.81-9.18 6.82-10.88 20.77-20.06 27.34-9.42 6.85-22.9 4.85-33.21 10.54-7.72 4-11.16 14-18.89 17.95-9.13 4.53-20.3 2.83-29.48 6.52-27.48 25.37-35.2 10.55-46.62 23.64-9.75 11.42.54 34.18-11.17 43.32-11.46 9.1-36.95-5.44-43.8 0zm0 0" transform="translate(-412.42 -175.25)"/><path id="_Zusammengesetzter_Pfad_26" class="cls-5" d="M911.72 1713c-5.14 6.85-14.57 18.24-22 14-7.14-4.28-.29-17.66 4.6-24.22 4.86-6.81 14.87-16 22-11.67 6.3 4-.26 16-4.58 21.94zm0 0" transform="translate(-412.42 -175.25)"/><path id="_Zusammengesetzter_Pfad_27" class="cls-5" d="M768.93 1631.54c40.93 11.68 81.86 23.39 122.5 35.06-32.92 6.52-66.13 6.52-96.76-2-32.63-9.14-60.36-26.21-88.13-50.14 30.92-4.28 60.4-6.27 90.16-1.71 28.32 4 58.08 11.38 81.53 27.33-36.33-5.69-70.94-10.54-109.3-8.56zm0 0" transform="translate(-412.42 -175.25)"/><path id="_Zusammengesetzter_Pfad_28" class="cls-5" d="M586.9 1483.2c26.62 35.31 62.68 57.53 99.59 83.17-31.47-9.43-61.81-21.93-86.39-42.45-25.77-21.64-43.25-48.69-60.69-80.31 36.33 11.39 63.52 24.76 92.16 42.42 27.48 17.08 52.93 35.89 70.94 62.39-43.17-14.25-77-37.59-115.61-65.22zm0 0" transform="translate(-412.42 -175.25)"/><path id="_Zusammengesetzter_Pfad_29" class="cls-5" d="M493 1287c9.17 34.44 26.91 67.22 44.67 101.11-18.06-13.37-36.66-26.21-45.54-45.28-13.7-29.08-20-60.69-20-93.72 22.33 8.27 34.91 30.75 47.49 50.14a244.33 244.33 0 0 1 32 74.61c-21.46-26.21-35.2-60.65-58.66-86.87zm0 0" transform="translate(-412.42 -175.25)"/><path id="_Zusammengesetzter_Pfad_30" class="cls-5" d="M457 1036.6c-10.84 56.37 14.62 102.53 27.48 152.08-18.89-28.2-38.06-61.52-45.49-96.25-6.31-29.08-2.87-57.28 5.73-88.9 19.76 19.94 31.47 45 39.77 71 8.88 28.17 12.62 53.8 10.3 87.69-19.15-37.88-30.89-78.89-37.78-125.58zm0 0" transform="translate(-412.42 -175.25)"/><path id="_Zusammengesetzter_Pfad_31" class="cls-5" d="M499.64 870.56c-10.33 43-12.32 76.89-14.32 120.76-9.46-25-16.32-51.84-14-78.34s11.46-48.4 27.48-75.44c19.47 27 23.46 62.65 24.62 95.42 1.12 30.45-2.58 53.25-18 89.69-8.59-28.2 0-101.4-5.73-152.08zm0 0" transform="translate(-412.42 -175.25)"/><path id="_Zusammengesetzter_Pfad_32" class="cls-6" d="M499.64 870.56c-10.33 43-12.32 76.89-14.32 120.76-9.46-25.06-16.32-51.84-14-78.35s11.46-48.4 27.48-75.48c19.47 27.08 23.46 62.68 24.62 95.43 1.12 30.49-2.58 53.25-18 89.73-8.59-28.2 0-101.4-5.73-152.08zm0 0" transform="translate(-412.42 -175.25)"/><path id="_Zusammengesetzter_Pfad_33" class="cls-3" d="M1378.78 956.26c2-57.24 4.85-110.51 51.22-164.34 4.57 41.87 25.2 69.49 30.35 105.67 5.73 38.18-1.46 71.2-20.92 115.36 14.61-9.72 27.48-34.77 43.8-43.57 13.74 45.82 19.17 94.83 10.29 140.95-8.31 43.87-44.92 80.63-59.53 119.93 9.75-3.16 17.48-8.27 26.36-15.12 10.88 36.76 6.26 86.32-10.3 124.78-16.06 36.15-64.71 59-82.73 88.57l36.07-9.42c-12.32 40.74-38.36 88.6-73.85 119.05-36 31.07-82.69 44.45-131.05 56.7 17.15.55 34 1.42 51.22 2-22 37.6-60.69 66.64-100.74 84.87-32.92 15.37-72.11 9.68-108.18 11.38 4.57 11.39 17.47 23.64 13.45 34.19-10.88 14-32.92 18.77-55.21 16.78-10.88-18.78-20-36.72-24.62-56.66 12.58-16.24 25.46-32.73 38.07-49a3945.7 3945.7 0 0 1 56.92-41.59c42.66-1.16 79.57-22.8 119.63-45.28a266.64 266.64 0 0 1 64.39-70.08c23.78-17.65 52.38-27 79.86-37.88 3.16-37 19.72-74.61 32.34-111.37 10.88-31.61 22.33-63.51 37.77-92.55-1.16-26.47-4.32-53-3.73-79.47.58-24.46 5.14-49 7.72-73.49-9.72-43.57-30-86-28.6-130.43zm0 0" transform="translate(-412.42 -175.25)"/><path id="_Zusammengesetzter_Pfad_34" class="cls-5" d="M1005.59 1713c5.14 6.85 14.61 18.24 21.74 14s.3-17.66-4.57-24.22c-4.85-6.81-14.86-16-21.75-11.67-6.56 4 0 16 4.58 21.94zm0 0" transform="translate(-412.42 -175.25)"/><path id="_Zusammengesetzter_Pfad_35" class="cls-5" d="M1148.1 1631.54c-40.89 11.68-81.53 23.39-122.46 35.06 32.92 6.52 66.09 6.52 96.72-2 32.92-9.14 60.36-26.21 88.42-50.14-31.17-4.28-60.36-6.27-90.13-1.71-28.35 4-58.4 11.38-81.57 27.33 36.33-5.69 70.69-10.54 109-8.56zm0 0" transform="translate(-412.42 -175.25)"/><path id="_Zusammengesetzter_Pfad_36" class="cls-5" d="M1330.12 1483.2c-26.31 35.31-62.39 57.53-99.58 83.17 31.76-9.43 61.81-21.93 86.42-42.45 25.74-21.64 43.22-48.69 60.7-80.31-36.36 11.39-63.27 24.76-91.87 42.42-27.77 17.08-53.25 35.89-71.28 62.39 43.22-14.25 77.26-37.59 115.61-65.22zm0 0" transform="translate(-412.42 -175.25)"/><path id="_Zusammengesetzter_Pfad_37" class="cls-5" d="M1424.28 1287c-9.43 34.44-26.9 67.22-44.63 101.11 18-13.37 36.32-26.21 45.5-45.28 13.45-29.08 19.76-60.69 19.76-93.72-22.34 8.27-34.91 30.75-47.24 50.14a247 247 0 0 0-32.34 74.61c21.47-26.21 35.5-60.65 59-86.87zm0 0" transform="translate(-412.42 -175.25)"/><path id="_Zusammengesetzter_Pfad_38" class="cls-5" d="M1460.35 1036.6c10.58 56.37-14.62 102.53-27.78 152.08 19.18-28.2 38.07-61.52 45.5-96.25 6.31-29.08 2.86-57.28-5.44-88.9-20 19.94-31.76 45-40.07 71-8.88 28.17-12.58 53.8-10.29 87.69 19.18-37.88 30.89-78.89 38.07-125.58zm0 0" transform="translate(-412.42 -175.25)"/><path id="_Zusammengesetzter_Pfad_39" class="cls-5" d="M1417.43 870.56c10.58 43 12.29 76.89 14.32 120.76 9.42-25 16.6-51.84 14.28-78.34s-11.71-48.4-27.48-75.44c-19.72 27-23.46 62.65-24.87 95.42-.87 30.45 2.57 53.25 18 89.69 8.59-28.2 0-101.4 5.74-152.08zm0 0" transform="translate(-412.42 -175.25)"/><path id="_Zusammengesetzter_Pfad_40" class="cls-6" d="M1417.39 870.56c10.62 43 12.32 76.89 14.32 120.76 9.46-25.06 16.6-51.84 14.32-78.35s-11.75-48.4-27.48-75.48c-19.76 27.08-23.46 62.68-24.91 95.43-.84 30.49 2.58 53.25 18.05 89.73 8.56-28.2 0-101.4 5.7-152.08zm0 0" transform="translate(-412.42 -175.25)"/></g></svg>