<svg version="1.1" xmlns="http://www.w3.org/2000/svg" viewBox="0 0 32 32"><path fill="#fde100" d="M-.02 16a16 16 0 1 1 32 0 16 16 0 0 1-32 0z"/><path fill="#231f20" d="M15.99.76A15.24 15.24 0 1 0 16 31.23 15.24 15.24 0 0 0 15.99.76zm0 .85a14.38 14.38 0 1 1-.02 28.77A14.38 14.38 0 0 1 16 1.6zm-4.77 2.32l3.91 12.11h1.69l3.86-12.1h-2.35l-2.36 8.08-2.34-8.09h-2.41zM5.16 9.9v11.94h3.76c3.03 0 4.57-3.67 2.46-5.94v-.02l.02-.02c1.75-1.98 1.01-5.47-2.25-5.96H5.16zm15.52 0v11.94h3.77c3.04 0 4.58-3.67 2.46-5.94v-.02l.02-.02c1.76-1.98 1.02-5.47-2.25-5.96h-4zM7.36 12.13H9.2c1.2 0 1.44 2.3.07 2.66H7.36v-2.66zm15.55 0h1.83c1.2 0 1.45 2.3.07 2.66h-1.9v-2.66zm-15.55 4.8h1.63c1.35 0 1.85 2.46.09 2.8H7.36v-2.8zm15.55 0h1.61c1.36 0 1.85 2.46.1 2.8H22.9v-2.8zm-9.28 5.16c-.97 0-1.76.8-1.76 1.76v2.65c0 .97.8 1.76 1.76 1.76h.04c.96 0 1.75-.8 1.75-1.76v-2.65c0-.97-.79-1.76-1.75-1.76h-.04zm4.66 0c-.97 0-1.8.76-1.8 1.73v.43c0 .97.89 1.75 1.8 1.78 0 0 .37 0 .56-.11l.02.6c0 .3-.25.57-.55.56-.24 0-.58-.13-.58-.44 0 0 .06-.4-.23-.4h-1.02v.3c0 .91.79 1.72 1.85 1.72 1-.01 1.7-.78 1.7-1.78v-2.65c0-.96-.75-1.74-1.72-1.74h-.03zm.02 1.26c.32 0 .56.24.56.54v.34c0 .3-.24.55-.55.55a.56.56 0 0 1-.58-.55v-.34c0-.3.26-.54.57-.54zm-4.68.01c.32 0 .58.25.58.55v2.63c0 .3-.26.54-.56.54a.55.55 0 0 1-.56-.54V23.9c0-.3.24-.55.54-.55z"/></svg>