<svg xmlns="http://www.w3.org/2000/svg" xml:space="preserve" viewBox="0 0 61.62 100"><path fill="#fff" d="M61.62 50.25L30.79 100 0 50.25 30.79 0z"/><path fill="#000" d="M59.78 50.25L30.79 96.7 1.81 50.2 30.79 3.3z"/><path fill="#fff" d="M54.9 50.25L30.79 88.37 6.72 50.25l24.07-38.62z"/><path fill="#000" d="M53.1 50.25L30.79 84.99 8.44 50.25l22.44-35.39z"/><path fill="#fff" d="M36.04 26.13l4.07 6.79H21.28l4.37-6.79zm.06 9.16c2.82.64 5.64 3.05 6.46 5.87.76 3.11.65 6.93-1.88 9.1 2.06 3.11 3.11 8.1.83 11.5a8.33 8.33 0 0 1-5.66 3.56h-14.9V35.3s10.16-.06 15.15 0z"/><path fill="#000" d="M35.8 36.52c2.66.47 4.94 3.11 5.76 5.64.47 3-.23 6.1-2.7 7.92.3 1.12 1.53 1.94 1.82 3.12 1.18 2.64 1.12 6.46-.88 8.69-1.27 1.4-2.8 1.78-4.9 1.93H22.46V36.55l13.35-.03z"/><path fill="#fff" d="M48.4 46.31l2.02 3.94s-1.17 1.57-2.05 2.81h-4.74c-.23-1-.57-1.98-1.1-2.86a8.02 8.02 0 0 0 1.84-3.89c1.52.05 2.53 0 4.03 0zm-29.09.02l-.01 6.73h-6.68l-2.09-2.81 2.44-3.92zm15.04 6.73c2.42.48 2.82 4.77 0 5.7h-7.16v-5.7s4.16-.02 7.16 0z"/><path fill="#000" d="M33.9 54.05c1.55.4 2.03 2.9 0 3.56h-5.68v-3.56h5.69z"/><path fill="#fff" d="M40.51 67.01l-4.55 6.82H25.28l-4.11-6.82zM34.4 41.92c2.43.48 2.83 4.77 0 5.69h-7.15v-5.7s4.15-.01 7.15 0z"/><path fill="#000" d="M33.96 42.91c1.54.4 2.02 2.9 0 3.56h-5.68V42.9h5.68z"/></svg>