<svg version="1.1" xmlns="http://www.w3.org/2000/svg" viewBox="0 0 32 32"><path fill="#000" d="M.62 16.03a15.4 15.4 0 1 1 30.82 0 15.4 15.4 0 0 1-30.82 0zm-.19 0a15.6 15.6 0 1 1 31.2 0 15.6 15.6 0 0 1-31.2 0z"/><path fill="#fff" d="M.62 16.03a15.4 15.4 0 1 1 30.82 0 15.4 15.4 0 0 1-30.82 0z"/><path fill="#e42129" d="M16.03 1a15.03 15.03 0 1 0 0 30.06 15.03 15.03 0 0 0 0-30.06zm0 27.86a12.67 12.67 0 1 1 0-25.35 12.67 12.67 0 0 1 0 25.35z"/><path fill="#e42129" d="M23.3 14.18a1.67 1.67 0 0 0 .27.94c.1.16.23.29.38.4.06.03.13.07.2.09a.3.3 0 0 0 .1 0l.15-.04a.75.75 0 0 0 .23-.15.9.9 0 0 0 .24-.36c.08-.23.1-.48.08-.72a2.86 2.86 0 0 0-.62-1.5l-.3-.34-.24.28a2.5 2.5 0 0 0-.48 1.4zm-4.7-6.03h-.13l-.1.02a.14.14 0 0 0-.07.06.16.16 0 0 0-.02.08c0 .03 0 .07.02.1 0 .03.02.05.03.07.03.02.07.03.11.02.02 0 .04 0 .05-.02.02-.02.02-.06.03-.09 0-.03 0-.1.04-.13h.05l.05-.06v-.05h-.07zm.35 1.12v.19c0 .05 0 .12-.02.17l-.03.1v.05c0 .02.03.03.05.03.02 0 .12-.06.13-.09l.04-.14a1.32 1.32 0 0 0 0-.6.7.7 0 0 0-.07-.16c0-.02-.1-.02-.1-.03l-.04-.01-.02.04v.06l.02.1c.03.06.03.1.04.13v.16zm.3 5.32c-.02.02-.03.01-.07 0a.23.23 0 0 1-.1-.16c0-.03-.02-.05-.05-.07h-.07c-.06.02-.1.1-.12.15a.51.51 0 0 1-.07.12l-.1.09-.12.08-.07.06c-.03.02-.06.05-.1.06-.03 0-.05 0-.07-.03a.88.88 0 0 1-.07-.26.72.72 0 0 0-.02-.1l-.03-.16-.01-.18c-.01-.02-.03-.03-.06-.03-.02 0-.09.08-.1.1a.5.5 0 0 1-.1.06.42.42 0 0 1-.14.07c-.04 0-.08 0-.11-.04a.26.26 0 0 1-.1-.15v-.07l-.03-.09-.07.02-.08.06-.07.06a.5.5 0 0 1-.15.08c-.07.02-.13.04-.2.04-.07.01-.13.01-.2-.01s-.13-.06-.18-.1c-.04-.04-.01-.02-.04-.07-.02-.02-.03-.06-.02-.08.01-.02.04-.02.06-.02l.11-.01h.06c.05 0 .07-.04.13-.06.07-.03.12-.08.19-.12.06-.05.1-.12.12-.2.02-.04-.03-.13-.02-.18l-.18.08a.6.6 0 0 1-.32 0l-.1-.02c-.04 0-.09-.01-.11-.03a.06.06 0 0 1-.01-.05l.04-.07a.52.52 0 0 0 .08-.08c.02-.04.02-.1.02-.15l-.13.08a.5.5 0 0 1-.16.03.74.74 0 0 1-.26-.02.9.9 0 0 1-.3-.14.6.6 0 0 1-.21-.6l.03-.12.03-.06c.01-.03.02-.05.04-.06h.05c.02.01.02.04.03.06v.03l.03.08a.3.3 0 0 0 .05.1.3.3 0 0 0 .13.06c.05.02.1.02.15.01s.1-.02.14-.06a.47.47 0 0 0 .1-.12l.02-.04.04-.01.05-.03h.04l.03-.02c.01 0 .03 0 .03-.02v-.03a.2.2 0 0 0-.06-.06c-.07-.05-.07-.07-.1-.12l-.01-.04-.02-.06.05-.04.06-.06.03-.03a.25.25 0 0 0 .05-.06.35.35 0 0 0 .03-.12v-.1c0-.03-.03-.06-.05-.07l-.03-.04a.6.6 0 0 1-.05-.1.45.45 0 0 1-.03-.16l.01-.13.01-.06.02-.06.01-.05.03-.04.04.02.09.06c.07.03.17.04.25.04h.3l-.01-.2v-.23c.03-.13.08-.25.14-.36.06-.1.13-.18.2-.26.02-.02.05-.05.08-.05.02 0 .05 0 .05.03s-.07.1-.09.12a.33.33 0 0 0-.03.08c-.02.05.06.21.08.27a.6.6 0 0 0 .07.16c.03.04.07.07.12.07.08 0 .23.03.3 0l.19-.08.15-.07a3.72 3.72 0 0 1 .63-.18.97.97 0 0 1 .38 0l.26.04a.4.4 0 0 0 .2-.1c.04-.04.07-.17.07-.24a.81.81 0 0 0-.01-.22l-.01-.05a.49.49 0 0 1-.02-.16l.07-.21-.03-.28c0-.02-.03-.04-.05-.04-.05-.02-.14.04-.18.08a.4.4 0 0 0-.13.28l.02.15.02.14c.01.08 0 .2-.06.26-.08.08-.27.09-.4.08h-.3a2.82 2.82 0 0 0-.72.22.62.62 0 0 1-.31.03c-.07-.02-.14-.07-.15-.14 0-.05.06-.22.07-.27.02-.04.04-.1.07-.13.03-.03.09-.04.14-.03l.12.02.1.02a.66.66 0 0 0 .46-.08.43.43 0 0 0 .1-.07c.04-.04.1-.13.08-.18a.9.9 0 0 0-.04-.23c-.03-.05-.04-.13-.13-.18a1.28 1.28 0 0 0-.16-.07c-.09-.03-.25-.03-.35-.03-.07 0-.15 0-.22.02a.36.36 0 0 0-.17.05.38.38 0 0 0-.06.18 3.33 3.33 0 0 0 .56.02h.2c.06 0 .05 0 .1.03l.05.06.03.05c0 .03 0 .06-.03.09a.16.16 0 0 1-.05.04.42.42 0 0 1-.19.02h-.25c-.1.02-.2.02-.3.02a1.41 1.41 0 0 1-.65-.22.85.85 0 0 1-.29-.32 1.24 1.24 0 0 1-.13-.48v-.25l.02-.07c.02-.04.04-.08.06-.09l.03.01.03.06v.1l-.01.04c0 .1.02.2.06.3l.13.22.05.08c.04.06.1.16.16.2l.18.05.01-.08.01-.03.02-.15a.91.91 0 0 1 .08-.17h-.1s-.03 0-.04-.02c-.02-.01-.01-.04 0-.06l.03-.06.07-.1.07-.09a.31.31 0 0 1 .06-.07.41.41 0 0 1 .11-.04h.04l.09-.03a.4.4 0 0 1 .12-.03h.03c.02 0 .04-.06.04-.09a.18.18 0 0 1 .06-.1.25.25 0 0 1 .11-.04l.19-.02h.26l1.2-.02c.09 0 .17 0 .25.02a.42.42 0 0 1 .36.3l.05.29v.1a1.36 1.36 0 0 0 .15.44l.1.1a.3.3 0 0 1 .07.09c0 .02 0 .06-.03.07-.04.03-.1.02-.15 0l-.05-.01-.15-.03h-.05l.03.08.05.04c.02 0 .04.02.05.03a.5.5 0 0 1 .09.12l.03.05.09.18.04.15.02.06c0 .04.02.08.03.11l.04.13.01.03.04.13.06.07c.04.02.09.03.13.02.01 0 .11-.02.13-.01.02 0 .02.03.02.05a.31.31 0 0 1-.07.09l-.04.05c-.02.02-.05.07-.08.08a.43.43 0 0 1-.2.04l-.15.01.07.09c.03.04.04.1.05.14a1.72 1.72 0 0 1-.01.46l-.02.08-.02.07a.5.5 0 0 0 0 .27 1.6 1.6 0 0 0 .2.3c.01.03-.01.05-.04.06a.32.32 0 0 1-.16 0 .35.35 0 0 1-.14-.03l-.07-.02c-.05-.01-.16-.03-.2-.07-.1-.08-.27-.32-.3-.36 0 .04-.01.14.07.34.02.06.14.17.19.21l.13.14.04.1.02.06.03.07.02.05.03.1c0 .03.02.08.04.11.01.04.06.1.08.13l.1.11c.04.03.1 0 .14 0a.8.8 0 0 0 .29-.03.38.38 0 0 1 .07-.06c.01 0 .04-.02.06-.01 0 .07-.07.14-.1.17l-.07.08a.9.9 0 0 1-.12.12.61.61 0 0 1-.15.1.75.75 0 0 1-.19.06.49.49 0 0 1-.2 0l-.12-.05-.1-.04a.6.6 0 0 0-.15-.02c-.02 0-.05.03-.06.04a.23.23 0 0 0-.07.12l-.02.1-.02.07v.1l-.04.17c-.01.03-.01.04-.04.06l-.04.02c-.06 0-.11-.03-.16-.06a.44.44 0 0 0-.08-.05c-.03-.02-.13 0-.15.02a.36.36 0 0 0-.07.13l-.03.08a.55.55 0 0 1-.1.13c0 .02-.03.05-.04.06a.5.5 0 0 1-.1.1zm5.27-3.7a3.54 3.54 0 0 0 .44-1.09 3.23 3.23 0 0 0-.14-1.03 1.35 1.35 0 0 0-.28-.48.2.2 0 0 0-.07-.03l-.07-.05.03-.06h.11c.12 0 .24.04.35.09.1.04.19.1.27.17a1.42 1.42 0 0 1 .33.58c0 .04 0 .06.02.07.01.02.03.03.04.02.02 0 .03-.04.03-.06l.01-.05.03-.13.03-.13.02-.03c.02 0 .05.01.06.03a.3.3 0 0 1 .03.07l.06.12.06.14c.03.12.01.26-.02.38a.98.98 0 0 0-.03.18v.1l.07.04.1.06c.03.02.06.06.07.1a.7.7 0 0 1 .06.2l-.01.1h-.06a.25.25 0 0 1-.1-.03l-.06-.05h-.09a.18.18 0 0 0-.07.03c-.03.02-.05.08-.06.12a.83.83 0 0 1-.1.25.4.4 0 0 1-.18.15 1 1 0 0 1-.21.06l-.08.02a4.25 4.25 0 0 1-.21.37l-.14.22-.13.21-.23.42.12.2a12 12 0 0 1 .74 1.25 2.43 2.43 0 0 1-.02 2.01c-.06.12-.15.26-.25.35l-.05.04a.94.94 0 0 0-.09.07l-.05.06c0 .19-.03.5-.12.67-.1.16-.5.47-.66.57l-.06.27c-.06.24-.16.48-.31.69-.11.16-.26.33-.4.47l-.08.1.04.11.03.05.03.06.03.08.01.06.02.07.01.04.01.04c.01.04.02.08.04.1a.2.2 0 0 0 .06.09 2.96 2.96 0 0 0 .16.15c0 .02 0 .03-.02.04a.14.14 0 0 1-.08.02h-.08l.1.1.08.06.04.04.06.05.07.1.09.12c.03.04.04.07.06.08a.2.2 0 0 0 .06.06c.03.02.08.03.1.03h.04l.12.03c.07 0 .14-.03.2-.08l.04-.05.08-.07.03.13a.7.7 0 0 1-.1.22.6.6 0 0 1-.34.27l-.17.05c.02.04.04.08.07.1.04.03.07.05.12.05h.15a.85.85 0 0 0 .18-.07c.05-.03.13-.07.17-.11.05-.05.1-.13.13-.18.01.06.02.14.01.2-.01.1-.1.23-.15.31a1.14 1.14 0 0 1-.45.39l-.1.05-.16.1a.6.6 0 0 0 .12.08.4.4 0 0 0 .2.03l.3-.08c-.03.05-.07.07-.1.11a1 1 0 0 1-.39.3.98.98 0 0 1-.18.06 1 1 0 0 0-.23.09c-.02.01.04.06.07.07l.03.01.04.02.07-.01a.46.46 0 0 0 .1-.06l.1-.07a.61.61 0 0 1 .23-.07c.07-.01.13 0 .18.02.04.02.08.05.1.09l.05.14a.78.78 0 0 0 .05-.07l.04-.16v-.04l.03-.12.03-.07.08.18a.58.58 0 0 1-.02.42.44.44 0 0 1-.15.16c-.07.05-.15.1-.23.13a.31.31 0 0 1-.05.08.19.19 0 0 1-.1.08.44.44 0 0 1-.16.03.44.44 0 0 1-.05.12.2.2 0 0 1-.14.1.23.23 0 0 1-.14 0 .56.56 0 0 1-.1-.05l-.05-.03-.1-.04c-.03 0-.08-.02-.1 0-.04 0-.07.06-.09.1l-.1.18c-.04.09-.1.19-.16.26l-.05.1-.02.08v.03a.1.1 0 0 1-.03.07.42.42 0 0 1-.07.05.38.38 0 0 0-.12.11.33.33 0 0 0-.04.1l-.01.03-.01.04-.05.1a.45.45 0 0 1-.19.08h-.06l-.19.05-.22.05c-.1.04-.2.1-.28.18-.04.04-.08.08-.12.1-.03.02-.06.03-.08.01a.12.12 0 0 1-.07-.08.68.68 0 0 1 .02-.24c0-.05.02-.1.04-.14a.82.82 0 0 1 .13-.17l.03-.03.08-.08.02-.04.04-.05a.16.16 0 0 1 .08-.05l.09.03.37.2-.06-.14a.6.6 0 0 0-.06-.1.4.4 0 0 1-.06-.07.1.1 0 0 1-.02-.07c0-.03 0-.06.03-.08l.04-.03a.4.4 0 0 0 .1-.1c.04-.06.15-.17.13-.17a.36.36 0 0 0-.17.04 4.55 4.55 0 0 1-.5.29l-.15.07c-.04.05-.1.12-.12.17l-.03.08-.07.13a.36.36 0 0 1-.2.1.37.37 0 0 1-.17.01l-.09-.01-.08-.05a.34.34 0 0 0-.06-.02h-.06a.43.43 0 0 0-.16.07.78.78 0 0 0-.17.19.63.63 0 0 0-.13.22c-.01.03-.03.04-.05.04a.11.11 0 0 1-.08-.06.49.49 0 0 1-.07-.25c0-.13.03-.26.07-.38s.1-.3.18-.4c.05-.06.16-.1.23-.14l.1-.02c.04-.01.06 0 .08.01l.04.06.07.12c0-.06.02-.12.03-.17 0-.05.03-.1.07-.13.04-.03.1-.04.16-.04h.1l.1-.01.05-.01a.4.4 0 0 0 .15-.03c.03-.02.1-.07.08-.09a.23.23 0 0 0-.13-.02 2.4 2.4 0 0 1-.44.01h-.09l-.17-.01a.5.5 0 0 0-.11 0 .22.22 0 0 0-.1.03.32.32 0 0 0-.09.08c-.03.04-.08.1-.1.15l-.04.06-.03.05a.3.3 0 0 1-.05.06l-.04.02c-.03-.01-.04-.07-.05-.1v-.11l.02-.07c0-.09.01-.22.04-.3a.28.28 0 0 1 .08-.12.9.9 0 0 1 .31-.18h.04l.07-.03a.49.49 0 0 0 .1-.06l.06-.03H21c.02 0 .05 0 .07.02l.08.08c0-.03 0-.07.02-.1a.2.2 0 0 1 .07-.1.32.32 0 0 1 .18-.08h.3l.2.03.1.04.06.01c.02.01.04.02.06.01l.04-.01a.1.1 0 0 0 0-.04l.04-.08.04-.02h.06l.08.07.17-.15-.07-.1c-.1-.15-.16-.32-.18-.5v-.3c.02-.04.02-.1.01-.15a.1.1 0 0 0-.01-.04.37.37 0 0 0-.11-.08l-.08-.05-.14-.07a.98.98 0 0 1-.2-.21l.01-.1a.31.31 0 0 0 .05-.09l.02-.03.08-.13.04-.05a1.1 1.1 0 0 0 .15-.32v-.1c.05-.03.07-.03.09-.03h.1c.06.03.07.03.11.07.03.02.07.05.1.05l.08-.03a5.47 5.47 0 0 0 .14-.29l.03-.06.02-.07c.04-.08.09-.22.1-.3.08-.34-.08-.68-.1-.74-.01-.13-.06.26-.09.38-.01.08-.05.2-.07.27l-.08.25a.67.67 0 0 1-.1.22c0 .02-.03.05-.06.05l-.08-.03-.05-.03-.1-.05a.31.31 0 0 1-.08-.07l-.03-.04c0-.02-.02-.03-.04-.02a.29.29 0 0 0-.06.15v.06a.63.63 0 0 1-.07.17l-.04.07-.04.08-.02.04a.74.74 0 0 1-.06.1 1.67 1.67 0 0 1-.84.4.2.2 0 0 1-.15-.03c-.04-.02-.08-.05-.08-.09a.05.05 0 0 1 .02-.06l.04-.02a.36.36 0 0 0 .12-.1l.23-.28.06-.4.03-.22.05-.43.07-.3a3.9 3.9 0 0 1 .56-1.2l-.23-.2c-.1-.07-.25-.15-.36-.2l-.17-.08-.1-.06-.24-.12-.44-.11c-.2-.04-.38-.1-.57-.15a1.77 1.77 0 0 1-.49-.22 2.52 2.52 0 0 1-.3-.35l-.2-.24-.1-.1-.08-.11.15-.14.17-.18c.05-.07.09-.11.12-.2l.02-.03c.01-.04.02-.04.04-.07a.1.1 0 0 1 .04-.03c.03 0 .07.01.09.04l.03.07.01.05.02.04.04.04.1-.06.09-.1.1-.1.03-.04a.58.58 0 0 0 .09-.1.4.4 0 0 0 .02-.06l.05-.09a.14.14 0 0 1 .1-.05l.1.01.1.05.04.03.03.01.04.02c.05.01.08-.03.09-.05a.9.9 0 0 0 .07-.2.97.97 0 0 0 .04-.22l.01-.14c0-.03.01-.07.03-.09l.07-.01h.07a.5.5 0 0 1 .1.04l.12.06c.07.01.18 0 .24-.02l.16-.04c.04-.01.1-.05.13-.07l.06-.04a.65.65 0 0 0 .12-.09.06.06 0 0 1 .04-.01.1.1 0 0 1 .04.02l.03.04.02.07a.2.2 0 0 0 0 .05c0 .03.03.05.06.07.02.02-.02-.05.01-.03l.06.03.1.07.16.17a2.15 2.15 0 0 1 .24.37 1.2 1.2 0 0 1 .11.48l.01.16.23.14.03.02a2.8 2.8 0 0 1 .46.34l.15.16.17.17.06.07.2.26c.01.02.08.12.11.11.07-.01.21-.15.22-.17l.03-.06a.22.22 0 0 0 .05-.09l-.02-.1-.06-.02a.95.95 0 0 1-.31-.13 1.44 1.44 0 0 1-.37-.34 2.7 2.7 0 0 1-.47-1.44c0-.17.01-.34.06-.5.05-.2.13-.4.21-.57l.35-.62.24-.4-.18-.27-.3-.4-.12-.17-.14-.17a.7.7 0 0 0-.09-.08.34.34 0 0 0-.07-.04h-.1a.46.46 0 0 1-.14-.05.88.88 0 0 1-.22-.14.5.5 0 0 1-.1-.15l-.03-.05-.04-.08a.3.3 0 0 0-.11-.1l-.1-.07-.06-.03a.53.53 0 0 1-.12-.08.16.16 0 0 1-.04-.06.1.1 0 0 1 .06-.12c.02-.02.06-.02.09-.03h.03l.13-.05.03-.19.01-.03.02-.1v-.15l.03-.07a.32.32 0 0 0 .03-.03V9a.16.16 0 0 1-.02-.07c0-.04.03-.07.07-.08.04 0 .09.02.12.05l.2.13h.12a.3.3 0 0 0 .06-.08l.06-.11.12-.2c.06-.09.2-.21.28-.29l.25-.2.08-.06c.1-.08.2-.14.31-.2a.2.2 0 0 1 .07-.02l.04.02-.18.2c-.12.14-.26.3-.36.45a1.77 1.77 0 0 0-.31 1.04 3.24 3.24 0 0 0 .47 1.3c.14.2.33.43.49.62a5.69 5.69 0 0 0 .45-.63zm-9.44.79a.99.99 0 0 1-.13-.38l.01-.2c0-.03.02-.1 0-.14 0-.02-.03-.05-.05-.06a.99.99 0 0 1-.2-.3c0 .03-.04.07-.05.1a.71.71 0 0 0-.03.15 2.63 2.63 0 0 1-.1.52c-.04.1-.12.2-.22.24-.03.01-.05 0-.07-.01-.02-.02 0-.05 0-.08l.02-.08v-.04c0-.04 0-.1-.02-.14a.45.45 0 0 0-.07-.13c-.01-.02-.08-.04-.1-.03l-.04.07c0 .03.03.07.05.1l.03.05c.02.04.03.09.03.14a.3.3 0 0 1-.15.21.3.3 0 0 1-.18.05.68.68 0 0 1-.3-.12.72.72 0 0 1-.17-.14.88.88 0 0 1-.12-.37c0-.03 0-.1.02-.1.02-.03.05-.01.07 0a.3.3 0 0 1 .04.09c.01.05.03.08.05.12.04.05.1.08.16.1h.1l.03-.01a.15.15 0 0 0 .05-.04l-.03-.07a.46.46 0 0 1-.07-.16v-.17a.3.3 0 0 1 .03-.1.27.27 0 0 1 .1-.12c.04-.02.1-.04.15-.04l.08-.02.08-.02.07-.02c.02 0 .03-.02.03-.03l.01-.1v-.05c0-.05.03-.12.05-.16.02-.07.05-.19.02-.25-.01-.03-.07-.07-.1-.1l-.07-.05a.81.81 0 0 1-.12-.18l-.15.03c-.08.02-.2.04-.28 0a.37.37 0 0 1-.1-.07.31.31 0 0 0-.1-.08.11.11 0 0 0-.1.01.2.2 0 0 0-.05.08l-.02.03a.3.3 0 0 1-.1.1c0 .01-.05.04-.07.03v-.21a1.42 1.42 0 0 1 .36-.76l.11-.08.06-.03a.39.39 0 0 1 .16-.1c.03 0 .06.01.06.04.01.02-.02.06-.03.08l-.1.15c.05 0 .11-.02.16-.04l.15-.03.12.01.1.08.05.08.03.06.1.18.01.08c0 .03.02.09.04.11.03.06.14.09.18.13a.9.9 0 0 1-.01-.1l-.03-.12-.02-.12c-.02-.07-.02-.17-.02-.24a.3.3 0 0 1-.12-.05.79.79 0 0 1-.1-.1l-.04-.05-.04-.03a.5.5 0 0 1-.07-.08.28.28 0 0 1-.01-.2l.03-.1c.02-.04.03-.1.02-.14a.1.1 0 0 0-.06-.06.2.2 0 0 0-.14-.01.34.34 0 0 0-.12.07l-.03.03a.25.25 0 0 1-.08.07c-.03.01-.08.02-.1 0-.04-.04.03-.15.07-.2l.04-.05.13-.16a.7.7 0 0 1 .2-.16.47.47 0 0 1 .23-.06h.1l.07.01c.04 0 .1.01.12.03.04.02.05.06.03.1a.12.12 0 0 1-.06.05l-.03.01c-.02 0-.04 0-.05.02a.17.17 0 0 0-.08.08v.04c.04.04.09.02.1.02a.36.36 0 0 1 .37.08c.07.08.12.28.15.39v.04c.02.06.04.14.04.2v.2c.04-.05.14-.15.15-.22a.76.76 0 0 0-.04-.21.71.71 0 0 1-.02-.37c0-.03.02-.05.03-.08l.03-.06c.02-.06.03-.13 0-.18a.4.4 0 0 0-.1-.1l-.08-.02c-.03-.02-.02-.06-.05-.09-.04-.04-.1-.11-.08-.16.01-.02.06-.04.08-.04a.44.44 0 0 1 .13-.03.7.7 0 0 1 .47.14c.08.06.14.12.2.2l.1.17c0 .03 0 .06-.02.07h-.08a1.27 1.27 0 0 0-.28-.08l-.03.04.05.07.05.04.04.02a.3.3 0 0 1 .1.12c.02.07.02.14.01.2a2.8 2.8 0 0 1-.07.4l-.07.37a.82.82 0 0 0 0 .27c0 .05.01.1.05.14.04.05.1.1.16.13l.2.12.09.05.22.18.09.18.25.1c.08.04.16.1.23.17.06.05.03.04.08.1a.2.2 0 0 1 .05.1l-.02.06c-.04.05-.14.01-.2 0a.69.69 0 0 1-.2-.03.67.67 0 0 1-.14-.06l-.1-.08-.05.15a.77.77 0 0 0-.1.46c0 .06.03.13.07.18l.04.07.02.03.01.05c.02.05.04.15 0 .2a.25.25 0 0 1-.08.05c-.03.02-.08.06-.08.1-.02.05.03.17.06.22.02.03.06.1.03.13-.02.03-.06.03-.1.02a.42.42 0 0 1-.13-.06l-.15-.1.02.06c.03.05.04.09.03.12 0 .02-.02.04-.04.05-.04.01-.06 0-.09-.02s-.04-.06-.06-.1a14.8 14.8 0 0 0-.25-.53c-.03.05-.04.13-.03.2l.02.05.02.12c0 .03 0 .08-.03.1-.04.02-.1-.03-.14-.07l-.1-.15a.64.64 0 0 0-.08-.13l-.04-.04zM15 15.92a.38.38 0 0 1-.07.12l-.12.14a1 1 0 0 1-.12.1l-.05.04c-.02.02-.05.05-.04.07l.04.02.1-.01.03-.01.05-.02h.05l.02.04-.05.09c-.03.04-.11.08-.16.11a1.1 1.1 0 0 1-.2.1.68.68 0 0 1-.43-.05.6.6 0 0 1-.22-.2l-.1-.13-.04-.02.04-.02.03.02.1.03.1.02.1.01c.02.01.05.01.07 0l.05-.01-.06-.09a.39.39 0 0 1 0-.19 1.44 1.44 0 0 1 .15-.42l.04-.07.06-.1.06-.13-.08-.5-.08-.05a.53.53 0 0 0-.11-.02c-.07 0-.15-.02-.2-.03a.98.98 0 0 1-.19-.1c-.08-.06-.15-.11-.2-.17a.3.3 0 0 1-.09-.2.5.5 0 0 1 .03-.17l.04-.11.02-.07.01-.05-.02-.04-.13-.04h-.2l-.05.01c-.04 0-.1.02-.13.04a.15.15 0 0 0-.03.03.2.2 0 0 1-.06.03c-.01 0-.04.02-.06 0-.02-.01 0-.06.02-.08a.52.52 0 0 1 .13-.16l.18-.13c.09-.05.16-.09.24-.11a.34.34 0 0 1 .23.02l.05.02.06.05-.05.04a.05.05 0 0 0-.02.03l.01.05c.03.02.12-.02.15-.03a.55.55 0 0 1 .26 0c.04 0 .08.02.1.05.04.03.07.1.09.14l.1.22c.01-.03.05-.1.04-.13a.37.37 0 0 0-.06-.19c-.01-.03-.05-.06-.07-.09l-.03-.04-.05-.07-.06-.09-.04-.05a.43.43 0 0 1-.1-.13.64.64 0 0 1-.01-.18v-.13l.02-.04.02-.05a.09.09 0 0 0 0-.07.1.1 0 0 0-.05-.05.33.33 0 0 0-.1-.04l-.07-.02a.8.8 0 0 1-.07-.01l-.04-.02a.37.37 0 0 0-.08-.02.2.2 0 0 0-.04 0h-.06c-.04-.03-.03-.08 0-.11l.08-.05.09-.04a.77.77 0 0 1 .12-.05.46.46 0 0 1 .17-.01c.07 0 .14.02.21.04.08.02.16.04.22.07.04.02.1.06.12.1l.06.04a.4.4 0 0 1 .07.1v.05h-.2c-.04 0-.08 0-.1.03-.02.01-.03.04-.01.06.02.03.05.04.09.05l.05.01.1.04a.3.3 0 0 1 .1.08c.04.02.06.06.07.1l-.02.09c-.03.07-.03.15-.03.2l-.01.23c0 .09.01.18.04.26.01.05.05.1.07.14v-.17l-.02-.2c0-.03 0-.09.02-.13l.04-.1.04-.13a1.21 1.21 0 0 0 .07-.35.48.48 0 0 0-.06-.24.6.6 0 0 0-.17-.2 3.55 3.55 0 0 1-.2-.15c-.03-.03-.06-.07-.03-.1 0-.02.04-.01.06-.01a.7.7 0 0 1 .2.06.67.67 0 0 1 .33.29l.03.05.06.1.03.03.04.05.03.07c0 .02 0 .04-.02.05h-.12c0 .06.06.1.08.11a.3.3 0 0 1 .1.1c.03.03.05.08.06.13v.15l-.07.19-.03.07-.04.11a.4.4 0 0 0-.03.08c0 .02-.01.06 0 .07.03.02.07.01.1 0 .07-.03.17-.08.24-.13l.3-.2c.04-.01.08-.04.11-.06l.08-.06a.2.2 0 0 1 .1-.04l.09.03.04.03.03.02a.7.7 0 0 0 .4.12c.04 0 .06-.01.07 0l.02.02-.1.12a.35.35 0 0 1-.21.06c-.1 0-.14.09-.25.08l.04.13c.02.08.06.15.1.2.11.12.25.22.4.25a.6.6 0 0 0 .25 0l.05-.03.15-.03c.07-.01.14 0 .2.03.05.03.1.07.12.13.04.14-.03.21-.03.36l.01.2c0 .06.02.12.05.16a.3.3 0 0 0 .13.09c.03.01.07.02.08.04v.05l-.09.06a.38.38 0 0 1-.23.05.3.3 0 0 1-.13-.03c-.08-.03-.26-.17-.25-.08 0 .04.03.1.07.12l.1.04.08.05c0 .03 0 .03-.02.04l-.06.03-.06.03a.39.39 0 0 1-.15-.02.89.89 0 0 1-.45-.28l-.07-.1-.01.1c0 .05 0 .1.02.15.03.05.07.09.11.12.04.02.09.07.1.11.02.03.01.06-.02.06h-.08a.67.67 0 0 0-.13-.03l-.08-.01a1.44 1.44 0 0 1-.43-.22l-.06-.07-.05.05c-.03.05-.03.12-.02.18v.04c.02.02.02.05.03.08 0 .04 0 .13-.03.15-.03.01-.07-.01-.1-.04-.04-.03-.07-.09-.1-.12l-.07-.09-.06-.09-.14-.17a.84.84 0 0 0-.13-.09l-.1-.04c-.02-.01-.06-.03-.08-.02l-.02.05-.02.1-.07.14a.77.77 0 0 0-.04.06l-.02.06zm6.22 2.25a2.75 2.75 0 0 0-.29.96c0 .06-.01.12-.05.17-.01.02-.02.04-.04.04a.3.3 0 0 1-.07.04.5.5 0 0 1-.14.02l-.08-.01h-.16a.16.16 0 0 0-.07.06l-.04.09-.03.06a.89.89 0 0 1-.09.12l-.03.04a1.42 1.42 0 0 1-.6.47l-.03.13-.01.13a1.28 1.28 0 0 0 .17.22.4.4 0 0 1 .06.13l.01.16-.01.22-.01.06-.01.05v.16c0 .03 0 .1.03.13l.03.03.03.02a.1.1 0 0 1 .03.07c0 .03-.01.05-.03.06a.25.25 0 0 1-.11.02 1.4 1.4 0 0 1-.41-.08 1.02 1.02 0 0 1-.2-.1.31.31 0 0 1-.11-.1l-.04-.05c0-.02-.02-.03-.03-.03l-.04.01v.05l.05.3c0 .03.01.05.03.07l.03.04v.05c0 .02-.01.04-.03.05-.05.02-.13 0-.18-.02a.87.87 0 0 1-.38-.23.47.47 0 0 1-.07-.13l-.04-.15a.45.45 0 0 0-.03.14c0 .05.04.1.06.15l-.1.05.1.15c.05.09.1.18.13.27a.93.93 0 0 1 .05.5.2.2 0 0 1-.03.08c-.02.02-.05.03-.07 0l-.04-.03-.05.11a.56.56 0 0 1-.12.24l-.24.28h-.03a1 1 0 0 1-.01-.3l.01-.08.02-.19c0-.05 0-.11-.03-.17a.34.34 0 0 0-.2-.2l-.07-.03c-.04-.03-.08-.06-.1-.1v-.21l-.02-.07c0-.04 0-.1-.03-.13a.09.09 0 0 0-.05-.02l-.07.01a.36.36 0 0 0-.06.06l-.02.03-.07.05-.07.04a.41.41 0 0 1-.13.07c-.04 0-.07 0-.08.02a.06.06 0 0 0-.03.04.4.4 0 0 0 0 .08.6.6 0 0 1-.1.41.26.26 0 0 1-.07.1.43.43 0 0 1-.15.07.3.3 0 0 0-.13.05.13.13 0 0 0-.04.1c0 .12.06.24.17.3.04.02.07.03.08.05v.06l-.11.04a.84.84 0 0 1-.33 0 .74.74 0 0 1-.38-.17.63.63 0 0 1-.17-.45c0-.13.01-.3.05-.42 0-.03.03-.06.05-.07.02 0 .06-.03.07-.01.04.02.05.16.06.2 0 .06.02.11.05.15.02.02.05.05.08.04.02-.01.04-.04.03-.06a.13.13 0 0 0-.03-.06c-.09-.15-.06-.33-.01-.47a1.16 1.16 0 0 1 .18-.33c0-.02.09-.12.09-.13l-.02-.04-.04-.02c-.04 0-.09 0-.12.03a.92.92 0 0 0-.22.26 1.64 1.64 0 0 1-.27.32.37.37 0 0 1-.2.08c-.05 0-.12 0-.17-.02a.86.86 0 0 1-.08-.04.36.36 0 0 0-.14-.06.2.2 0 0 0-.11.04.43.43 0 0 0-.15.17c-.04.07-.07.15-.09.22l-.04.06h-.08c-.06-.05-.09-.16-.1-.24 0-.14.01-.28.05-.41.05-.15.12-.3.22-.42.02-.02.05-.06.07-.06.04-.01.08.01.1.05v.13c0 .04 0 .07.02.1 0 .02.02.05.03.05.02 0 .03-.03.03-.04a2.06 2.06 0 0 0 .03-.24.5.5 0 0 1 .11-.25.67.67 0 0 1 .23-.19.61.61 0 0 1 .29-.05c.07 0 .14.02.22.04l.06.02.12.04c.09.02.17.02.25 0a.4.4 0 0 0 .08-.02l-.14-.07-.11-.06a.63.63 0 0 1-.2-.1.52.52 0 0 0-.14-.1c-.02-.02-.05 0-.07 0a.16.16 0 0 0-.03.03.72.72 0 0 1-.23.07.54.54 0 0 1-.25.01.57.57 0 0 1-.15-.07l-.14-.06a.53.53 0 0 0-.32.04.77.77 0 0 0-.19.14l-.1.1c-.04-.02-.05-.05-.04-.07a1.37 1.37 0 0 1 .34-.65.95.95 0 0 1 .52-.26.1.1 0 0 1 .08.02c.01 0 .03.02.03.04l-.03.08a.3.3 0 0 0-.05.09v.1l.08-.15a1.09 1.09 0 0 1 .23-.23.18.18 0 0 1 .07-.03l.08.01.1.03.16.1.06.03.05.03.1.06.13.1.12.1.08.05.08.05.09.05.08.02.1-.04.17-.06.03-.01a.47.47 0 0 1 .22-.03l.04.03.1.03.09-.03c.07-.04.17-.1.25-.13l.14-.05c.05 0 .12-.03.16-.05l.06-.03.14-.05h.09c.02 0 .03-.02.04-.03v-.05a1.23 1.23 0 0 1-.04-.36.97.97 0 0 1 .06-.35 1.5 1.5 0 0 1-.23-.56l.04-.28a1.9 1.9 0 0 0-.18-.01h-.26a.36.36 0 0 1-.22-.12.7.7 0 0 1-.13-.25 1.01 1.01 0 0 1-.05-.36c0-.1.03-.21.08-.3a.18.18 0 0 1 .07-.09c.02-.01.05-.02.07 0l.01.21c0 .05.03.1.06.13a.3.3 0 0 0 .14.08c.03 0 .07.02.1.01a.3.3 0 0 0 .13-.05l.1-.07.08-.07a.45.45 0 0 1 .2-.09l.16.01.33.09.3.06h.24a.54.54 0 0 0 .23-.12l.13-.11.13-.12a.62.62 0 0 1 .47-.16h.15a1 1 0 0 0 .25-.04l.06-.02a.87.87 0 0 1 .46 0c.14.04.32.14.3.29 0 .05-.11.2-.14.25a.99.99 0 0 0-.08.14l-.03.07-.03.07-.03.04zm-.53-11.11a.5.5 0 0 1 .17.02c.02 0 .07.03.1.02l.02-.06a.33.33 0 0 0-.02-.21.58.58 0 0 0-.13-.16.59.59 0 0 0-.19-.12.56.56 0 0 0-.34 0 .24.24 0 0 1-.1.02c-.03 0-.05 0-.06-.02l-.04-.03-.04-.04a.42.42 0 0 0-.18-.07c-.03 0-.11-.01-.12.03l-.02.07.06.1.06.1-.01.11a.21.21 0 0 1-.08.12.12.12 0 0 1-.09.01c-.02 0-.08-.01-.1-.03a.22.22 0 0 1-.07-.14.54.54 0 0 1 .04-.25l.03-.04a.35.35 0 0 0 .04-.08.84.84 0 0 1-.32-.27l-.14-.18-.07-.09-.04-.04s-.02-.02-.03-.01a.14.14 0 0 0-.06.03l-.03.05a.9.9 0 0 1-.1.13l-.05.08-.05.07a.41.41 0 0 1-.1.13l-.08.1-.05.02c-.03.02-.06.03-.06.05l.03.06.03.04.02.03.07.1a.3.3 0 0 1 .02.16c0 .04-.02.1-.05.12-.02.03-.1.05-.13.04a.22.22 0 0 1-.1-.07l-.03-.11a.21.21 0 0 1-.01-.11l.02-.06a.26.26 0 0 0 .03-.1.05.05 0 0 0-.03-.05.12.12 0 0 0-.08-.03.5.5 0 0 0-.12.03.53.53 0 0 0-.17.12l-.08.06a.2.2 0 0 1-.08-.02.29.29 0 0 0-.19-.01.23.23 0 0 0-.12.1.6.6 0 0 0-.13.25.66.66 0 0 0-.03.23c0 .02.01.05.03.05.04.02.16-.05.2-.07l.15-.05c.1-.02.19-.02.26.03.04.03.11.11.14.16l.11.12.03.08c.02.06.07.13.13.13h1.16l.48-.03c.06 0 .14-.04.15-.1v-.13l.05-.17a.3.3 0 0 1 .1-.15.36.36 0 0 1 .2-.08h.19z"/><path fill="#000" d="M10.73 15H8.27v.72h2.45v.93l-2.45.02v.74l2.45.01.01.94H7.15v-4.3l3.58-.01V15zm-1.69 6.11h2.22v.12c0 .22-.02.48-.07.7a1.98 1.98 0 0 1-1.12 1.5c-.34.18-.74.24-1.13.22a2.12 2.12 0 0 1-1.96-1.22 2.49 2.49 0 0 1-.22-1.19c.02-.36.11-.73.29-1.05.2-.36.49-.65.84-.85.36-.19.77-.27 1.17-.27.26 0 .52.02.76.1a1.95 1.95 0 0 1 1.21 1.1l-1.06.44a3.04 3.04 0 0 0-.06-.12c-.05-.1-.11-.2-.2-.29a.97.97 0 0 0-.31-.2 1.08 1.08 0 0 0-.87.07c-.19.1-.33.28-.43.48a1.65 1.65 0 0 0-.02 1.43c.1.2.25.4.45.52a1.15 1.15 0 0 0 .94.06.82.82 0 0 0 .34-.24c.06-.09.1-.18.13-.29l.02-.14h-.92v-.88zm10.76 5.42l-1.04.19a.82.82 0 0 1-.63-.16l-6.04-4.58c-.05-.04-.08-.1-.04-.16l.07-.1c.04-.07.12-.1.19-.06l.22.16 5.14 3.8c.38.27.9.33 1.36.24l1.88-.36c.13-.03.28 0 .32.13l.06.22c.06.18-.07.36-.25.4l-.65.17-.6.11zm-5.36-.86a1.8 1.8 0 0 1-.83-.05l-1.86-.48c-.12-.03-.28 0-.32.1l-.08.22c-.07.18.05.37.23.43l.64.2.58.15 1.02.25c.2.05.45-.02.64-.11a10.2 10.2 0 0 0 1.69-1.07l-.36-.32c-.38.26-.9.58-1.35.68z"/><path fill="#000" d="M20.79 22.2c0-.02.06-.13.05-.15l-.07-.11c-.04-.07-.12-.1-.18-.07l-.23.15-3.82 2.52.36.24 3.89-2.58zM10.77 10.4a2.23 2.23 0 0 0-1.23-1.2 2.23 2.23 0 0 0-.71-.12H7.17v4.3h1.66c.24 0 .48-.06.7-.14a2 2 0 0 0 .7-.43c.23-.22.42-.48.54-.76a2.08 2.08 0 0 0 0-1.65zm-1.05 1.24c-.06.16-.14.3-.25.43-.12.13-.27.24-.44.3-.15.04-.32.06-.48.06h-.26v-2.4h.26c.16 0 .33 0 .48.06a1 1 0 0 1 .44.29 1.3 1.3 0 0 1 .25 1.26z"/></svg>