<svg xmlns="http://www.w3.org/2000/svg" viewBox="0 0 1381.79 1164"><path d="M1378.05 267.33c1.6.43 4.54 2.24 3.53 5.72-10.56 36.65-85.42 291.93-134.62 395.24C1049.74 1082.45 830.21 1164 690.9 1164c-139.31 0-358.85-81.55-556.07-495.71C85.62 564.99 10.77 309.7.2 273.05c-1-3.48 1.95-5.29 3.53-5.72L690.9 79.1z" fill="#060604"/><path d="M313.53 658.59l-85 34.63c14.12 41.3 30.02 59.5 66.4 44.68 37.93-15.46 36.7-40.1 18.6-79.31zm48.39 16.53c19.51 46.08-8.2 87.8-49.61 103.52-37.4 14.2-86.32 11.28-107.37-41.1L176.7 667.3l154.84-63.86zm96.76 130.7a154.82 154.82 0 0 0-3.26-3.71l-43.98-48.25-130.31 108.59 24.15 28.93 45.88-38.51a336.4 336.4 0 0 0 8.88 10.17l-6.51 73.6 36.66 34.53 6.88-75.66c29.26 18.4 51.55 13.3 69.38-1.67 20.06-16.85 24.8-49.92-7.77-88.02zm-38.4 15.03c23.53 28.07 22.5 38.7 16.3 44.26-10.23 9.19-19.65 4.79-57.03-36.07l27.48-23.02c5.08 5.42 9.5 10.36 13.25 14.83zm95.37 62.75l103.37 62.35-17.06 29.53-66.69-40.52-15.34 25.26 59.78 36.32-17.43 28.7-59.79-36.32-16.65 27.41 69.06 41.96-19.27 31.73-105.54-64.12zm195.71 129.6l43.57-.71c-2.5-33.57-23.57-52.5-69.64-52.5-46.08 0-66.43 26.07-66.43 50s7.5 41.43 66.43 53.93c30.2 6.4 32.14 12.14 32.14 21.07s-11.43 15-27.5 15-30-5.9-30-24.29l-43.93 1.07s-6.43 57.15 72.86 57.15c58.21 0 72.85-30.72 72.85-54.29s-11.9-44.27-57.5-52.14c-35.05-6.06-41.07-11.79-41.07-20 0-8.22 6.79-13.57 21.79-13.57s26.43 7.85 26.43 19.28zm432.96-208.95l16.84-37.86-95.29-42.38 118.77-11.28 18.14-40.79-153.04-68.07-16.84 37.85 93 41.37-116.48 12.29-18.61 40.97zM813.48 959.6l48.96 77.63c38.19-21.13 53.33-39.97 32.37-73.2-21.84-34.64-45.89-29.12-81.33-4.44zm7.81-50.54c41.96-27.28 87.88-7.29 110.6 30.74 20.51 34.34 26.2 83.02-21.68 112.9l-64.23 40.1L756 951.5zM890 848.83l80.62-89.85 25.81 22.3-52.3 57.9 21.93 19.8 46.88-51.9 24.93 22.5-46.89 51.92 23.8 21.5 54.17-59.98 27.55 24.88-82.77 91.65zm415.59-542.58l-107.2 317.77a4.3 4.3 0 0 0 2.72 5.45l14.25 4.8a4.3 4.3 0 0 0 5.48-2.68l107.2-317.77a4.3 4.3 0 0 0-2.73-5.45l-14.24-4.8a4.3 4.3 0 0 0-5.48 2.68zm-34.05-11.49l-107.2 317.77a4.3 4.3 0 0 0 2.73 5.45l14.24 4.81a4.3 4.3 0 0 0 5.48-2.68L1294 302.34a4.3 4.3 0 0 0-2.72-5.45l-14.25-4.81a4.3 4.3 0 0 0-5.48 2.68zm-34.04-11.48l-107.21 317.76a4.3 4.3 0 0 0 2.73 5.46l14.25 4.8a4.3 4.3 0 0 0 5.47-2.68l107.21-317.77a4.3 4.3 0 0 0-2.73-5.45l-14.25-4.8a4.3 4.3 0 0 0-5.47 2.68zm-34.05-11.5l-107.2 317.78a4.3 4.3 0 0 0 2.72 5.45l14.25 4.8a4.3 4.3 0 0 0 5.48-2.68l107.2-317.77a4.3 4.3 0 0 0-2.73-5.45l-14.24-4.8a4.3 4.3 0 0 0-5.48 2.68zm-34.05-11.48l-107.2 317.77a4.3 4.3 0 0 0 2.73 5.45l14.24 4.81a4.3 4.3 0 0 0 5.48-2.68l107.2-317.77a4.3 4.3 0 0 0-2.72-5.45l-14.25-4.81a4.3 4.3 0 0 0-5.48 2.68zM76.2 306.25l107.2 317.77a4.3 4.3 0 0 1-2.73 5.45l-14.24 4.8a4.3 4.3 0 0 1-5.48-2.68L53.75 313.82a4.3 4.3 0 0 1 2.72-5.45l14.25-4.8a4.3 4.3 0 0 1 5.48 2.68zm34.04-11.49l107.21 317.77a4.3 4.3 0 0 1-2.73 5.45l-14.25 4.81a4.3 4.3 0 0 1-5.47-2.68L87.79 302.34a4.3 4.3 0 0 1 2.73-5.45l14.25-4.81a4.3 4.3 0 0 1 5.47 2.68zm34.05-11.48l107.2 317.76a4.3 4.3 0 0 1-2.72 5.46l-14.25 4.8a4.3 4.3 0 0 1-5.48-2.68l-107.2-317.77a4.3 4.3 0 0 1 2.73-5.45l14.24-4.8a4.3 4.3 0 0 1 5.48 2.68zm34.05-11.5l107.2 317.78a4.3 4.3 0 0 1-2.73 5.45l-14.24 4.8a4.3 4.3 0 0 1-5.48-2.68l-107.2-317.77a4.3 4.3 0 0 1 2.72-5.45l14.25-4.8a4.3 4.3 0 0 1 5.48 2.68zm34.04-11.48L319.6 578.07a4.3 4.3 0 0 1-2.73 5.45l-14.25 4.81a4.3 4.3 0 0 1-5.47-2.68L189.93 267.88a4.3 4.3 0 0 1 2.73-5.45l14.25-4.81a4.3 4.3 0 0 1 5.47 2.68z" fill="#f3ac26"/><path d="M1061.93 74.92c43.79 20.25 66.27 49.2 73.94 62 38.47 64.29-56.83 348.51-170.97 535.39-84.36 138.1-181.47 244.01-274 244.01-92.54 0-189.65-105.9-274.01-244.01-114.15-186.88-209.44-471.1-170.97-535.38 7.67-12.81 30.15-41.76 73.93-62C427.77 25 589.07 0 690.9 0c101.83 0 263.12 25.01 371.04 74.92z" fill="#93000e"/><path d="M404.46 534.71c-77.44-157.53-120.62-330.98-104.28-359.28 38.66-66.96 245.31-112 390.71-112.7C836.3 62 1042.95 107.03 1081.61 174c16.34 28.3-26.84 201.75-104.29 359.29-71.25 144.93-194.41 323.57-286.43 324.28-92.02.72-215.17-177.92-286.43-322.86z" fill="none" stroke="#fdfdfd" stroke-width="13.2"/><path d="M719.99 88.1c-2.1-.03-4.5.1-7.13.37-38.43 3.92-102.24 34.2-133.69 76.06-37.9 11.58-72.65 27.74-101.12 46.63-84.03 55.74-97.19 114.2-100.72 127.84-2.7 10.42-2.1 16.1 10.72 7.69 16.4-10.76 74.18-57.23 140.15-80.47 5.1-1.8 8.38.46 8 3.84-4.8 42.3-2.82 100.94 2.54 128.94 9.64 50.36 21.82 137.14 5.9 192.6-15.11 52.65-23.86 57-29.09 70.96-2.36 6.3.8 8.92 10 5.19 24.53-9.95 87.47-6.26 158.19 19.81C748.1 711.3 807.5 691.7 846.8 661.7c49.4-37.72 112.75-145.11 122.66-244.13 13.82-138.18-59.21-216.33-145.72-250.72-44.95-17.86-94.58-23.7-143.53-20.75 5.25-12 16.47-30.36 39.62-46.37 12.2-8.44 9.2-11.53.16-11.63zm-35.03 143.56c26.34-.15 51.28 4.03 78.78 13.4 52.37 17.86 86.8 53.87 104.31 104.28 22.97 66.12 21.78 130.63 4.62 172.5-17.11 41.78-53.55 76.44-99.62 76.44-16.84 0-33.28-10.44-85.72-13.87-30.8-2.02-45.81.03-45.81.03s22.46-45.2 25.12-104.82c3.23-72.25-6.86-150.3-15.34-193.62-3.97-20.3.38-39.7 12.62-53.34a262.6 262.6 0 0 1 21.04-1z" fill="#fdfdfd"/></svg>