<svg version="1.1" xmlns="http://www.w3.org/2000/svg" viewBox="0 0 32 32"><path fill="#fff" d="M31.66 16A15.66 15.66 0 0 1 .34 16a15.66 15.66 0 0 1 31.32 0z"/><path fill="none" stroke="#c00" stroke-width=".69" stroke-miterlimit="4" stroke-linecap="butt" stroke-linejoin="miter" d="M29.6 16.07a13.55 13.55 0 0 1-27.1 0 13.55 13.55 0 0 1 27.1 0z"/><path fill="#c00" d="M14.43 7.2h2.88v-.5l.67-1.03-1.28.56-.83-.88s-.75.85-.88.79l-1.23-.5.67 1.04v.53zm7.83 1.24c-.32.41-.4 1.4-.83 1.66-.43.26-.96.34-1.2 1l-.01.65c0 .07-.03.13-.1.19h-.58c-.7.74-2.22 2.54-2.23-.27l.03-.68.57-.01c.47-.1.57-1 .36-.85-.8.52-.9-.2-.79-.61.12-.4.67-.82.74-.9.12-.26.07-.75-.01-.67-.16.66-1.67.5-2.17-.02-1.85-.07-2.74.47-3.43.82-.1.06.03.47.1.45.84-.4 1.41-.73 1.41.3-.48.04-1.93.06-1.92-.38 0-.11-.1-.1-.11-.09-1.03.95 1.25 1.1 2.17.68 0 .16.09.34-.1.44-.36.04-.99-.12-1.06 0-.24.51.76.61 1.5.45.15.22.33.44.22.71l-.72.05.48.42.33-.24c-.01 2.81-1.53 1.35-2.44.41h-.58c-.07-.06-.1-.12-.1-.2v-.64c-.25-.66-.78-.74-1.21-1-.43-.27-.51-1.25-.83-1.66-1.25.2-.84 2.62-.14 3.32.15.08.35.69.04.51a23.2 23.2 0 0 1-2.7-2c-.41.46-.32 1.3.2 1.77.46.4 1.06.89 1.65 1.45.05.05.06.11 0 .17l-2.81.02a2.33 2.33 0 0 0-.87-.04c0 1.27 1.8 1.43 3.77 1.49.07.05.1.1.07.18-1.56.43-3.17.79-4.63 1.33-.02 1.57 3.43.96 5.3.16.24-.1.81-.3.39.1l-4.24 2.93c.14.66 1.28 1.33 4.8-1.24.23-.16.46-.27.65-.4.27-.2.42-.02.28.13-.26.56-.73.98-1.1 1.44l.36.28c-.75.8-1.06 1.24-1.19 1.4-.09.1-.15.11-.23.06-.18-.2-.37-.38-.64-.52-.04-.02-.08 0-.2.06-.18.09-.57 0-.75.03-.59.19-.4.31-.39.54.17-.08.14-.25.59-.2.18.26.45.41.76.5.11.03.17.11.09.17-.28.1-.79.23-.77.37-.02.07 0 .19-.07.22-.6.2-.36.57-.21.83.04-.2.09-.4.3-.46l.2.06c.12.07.54-.2.76-.41.04-.04.08-.03.12 0-.28.5-.3.82-.2 1.06.05.1.16-.04.17.07.02.25.38.6.57.74-.07-.27-.24-.54-.17-.81.25.01.54-.44.22-.85-.09-.05.07-.33.11-.3.17.23.31.58.5.67.11.04.22.09.32 0 .2.09.28.36.4.56.06-.16.15-.3.11-.52-.03-.17-.14-.25-.28-.28.07-.09.21-.22.14-.28a5.76 5.76 0 0 0-.84-.8c-.05-.04-.03-.1 0-.15l1.13-1.36.32.26c.42-.57.8-1.17 1.35-1.61.24-.19 1.08-.17.81.63a16.7 16.7 0 0 1-1.99 2.42c-.54.63-.29 1.25-.18 1.74.02.07.16-.1.16-.2.01-.14.02-.32.18-.43.07.5.43 1 .68 1.33-.02-.49-.08-.87 0-1.36.01-.05.08-.05.12 0 .05.28.28.58.5.79.16-.63.05-1.3.48-1.91.64-.9 1.2-.5 1.1.4l-.46 1.2c-.7.86-.2 1.88.25 2.3.05.06.14-.14.12-.29-.05-.42.06-.64.3-.93.02-.04.1-.06.16 0 .17.44.45.81.73 1.17.03.04.09.04.12-.01.28-.35.56-.72.72-1.16.07-.06.15-.04.18 0 .23.29.34.5.29.93-.02.14.07.34.12.29.46-.43.95-1.45.25-2.3l-.46-1.2c-.1-.9.46-1.3 1.1-.4.43.6.32 1.28.48 1.9.22-.2.45-.5.5-.78.04-.05.1-.06.12 0 .08.48.02.86 0 1.35.25-.33.6-.83.68-1.33.16.12.17.3.18.43 0 .1.14.28.15.2.12-.49.36-1.1-.18-1.74a16.79 16.79 0 0 1-1.99-2.42c-.27-.8.58-.81.81-.63.56.45.94 1.05 1.36 1.62l.32-.26 1.12 1.36c.04.05.06.1 0 .15-.3.23-.6.52-.83.8-.08.06.07.18.13.27-.13.04-.24.11-.27.28-.04.22.05.37.1.53.13-.2.21-.48.4-.56.11.08.21.04.32 0 .2-.1.34-.44.5-.67.04-.04.2.24.12.3-.33.4-.04.86.21.84.08.27-.09.54-.16.81.19-.14.55-.48.57-.73.01-.12.12.03.17-.08.1-.23.07-.55-.2-1.05.04-.03.08-.04.12 0 .21.2.64.47.77.4l.19-.05c.2.06.25.26.3.45.15-.25.4-.63-.22-.83-.07-.03-.05-.15-.06-.22.02-.13-.5-.27-.77-.37-.09-.05-.02-.14.1-.16.3-.1.56-.24.75-.5.44-.06.42.11.58.2.01-.23.2-.36-.38-.55-.18-.02-.57.06-.75-.03-.12-.06-.17-.07-.2-.06-.27.14-.46.33-.64.52-.08.05-.15.04-.23-.06-.13-.15-.44-.6-1.2-1.4l.36-.28c-.36-.45-.83-.87-1.1-1.44-.13-.15.02-.33.29-.13.2.13.42.25.64.4 3.53 2.58 4.67 1.9 4.81 1.25L22 16.9c-.43-.4.15-.2.39-.1 1.87.8 5.31 1.4 5.3-.15-1.47-.55-3.08-.9-4.64-1.34-.03-.07 0-.13.07-.18 1.97-.06 3.77-.22 3.78-1.49a2.4 2.4 0 0 0-.87.04l-2.81-.02c-.07-.06-.06-.11 0-.16.59-.57 1.19-1.05 1.64-1.46.53-.47.62-1.3.2-1.77a23.2 23.2 0 0 1-2.7 2c-.3.18-.1-.42.05-.5.7-.7 1.1-3.12-.15-3.33z"/><path fill="#fff" d="M14.91 8.71c-.08.05.06.4.14.55l.78-.63a1.57 1.57 0 0 0-.92.09zm-.37 5.63h2.93a8.2 8.2 0 0 1-1.43 4.98c-.98-1.16-1.57-3.32-1.5-4.98z"/><path fill="#c00" d="M15.3 15v2.5h1.5v-.37h-.93v-.73h.85V16h-.84v-.65h.83V15H15.3z"/><path fill="#fff" d="M13.84 15.46v.46a3.97 3.97 0 0 1-2.62-2.3c-.16.2-.72.54-1 .43-.03-.2.08-.4.88-.62-.45-.4-.6-.94-.48-1.33.32.14.72.6.7 1.23.3-.28.62-.4 1.13-.39-.18.36-.57.53-1 .63.52.9 1.2 1.67 2.4 1.9zm4.36 0l-.01.46a3.97 3.97 0 0 0 2.62-2.3c.16.2.72.54 1 .43.04-.2-.07-.4-.88-.62.46-.4.6-.94.49-1.33-.33.14-.72.6-.7 1.23-.31-.28-.63-.4-1.14-.39.18.36.58.53 1 .63-.51.9-1.2 1.67-2.39 1.9z"/></svg>