<svg id="Ebene_1" xmlns="http://www.w3.org/2000/svg" viewBox="0 0 573.3 543.4"><style>.st0{fill:#005194}.st1{fill:#ffd64a}.st3{fill:#fff}</style><path class="st0" d="M397.3 10.6C387.8 3.9 374.8 0 360.9 0c-14.1 0-27.3 4-36.8 10.9-2.9 2 .2 6.4 3 4.2 2-1.3 4-2.6 6.3-3.7v1.8c-.1.1-.3.2-.6.4l-37.3 33.9c-.2.1-38.1 0-38.1 0-9-5-20.4-7.9-32.3-7.9-14.1 0-27.3 4-36.8 10.8-2.9 2.1.2 6.4 3 4.4 2.7-1.9 5.5-3.6 8.7-4.9v11.4h-26.8c-2.9 0-2.9 4.4 0 4.4h5.6V162h210V16c0-.4-.1-.9-.2-1.5l-.3-.1c-.6-.8-1.5-1.1-2.3-1-8.3-3.1-15.8-4.6-25-4.6-8.1 0-16.1 1.3-23.1 3.9V9.5c6.8-2.7 14.7-4.2 23.1-4.2 12.8 0 24.9 3.7 33.4 9.7 2.8 2 5.8-2.4 2.9-4.4z"/><path class="st1" d="M382.8 156.8v-40.1c-7-2.6-14.4-3.9-21.9-3.9-7.8 0-15.5 1.4-22.3 4v40h-6V121h-38.3v18c0 1.7-1.3 2.5-2.5 2.5s-2.5-.9-2.5-2.5v-18h-38.1v35.8h-6v-37a66.17 66.17 0 0 0-36.4-1.2c-1 .3-2.1.1-2.8-.7-.8-.8-1.1-1.9-.8-3 .3-1 1-1.8 2.1-2.1 5.9-1.4 11.9-2.1 17.8-2.1 6.8 0 13.7 1 20.1 2.9V83.9a66.17 66.17 0 0 0-36.4-1.2c-1.8.5-3.2-.6-3.6-2-.4-1.4.2-3.2 2.1-3.7 5.5-1.4 11.5-2.1 17.8-2.1 7.2 0 13.9 1 20.1 2.9V48.9c-6.2-2.1-13.2-3.2-20.1-3.2-6.5 0-13 1-19.1 2.8v13.8a2.93 2.93 0 0 1-.1 2.8c-.5.9-1.5 1.4-2.6 1.4H184v90.3h-61.5l.2 154.6c0 88.1 94.5 137.8 162.9 154.8 68.5-17.1 162.6-66.8 162.6-154.8l.2-154.6h-65.6zm-84.5 3.9v-21.2c0-6.9 5.7-12.4 12.6-12.4 7 0 12.7 5.5 12.7 12.4l-.2 21.2h-25.1zm-38.7 0v-21.2c0-6.9 5.7-12.4 12.6-12.4 7 0 12.7 5.5 12.7 12.4l-.2 21.2h-25.1z"/><path class="st1" d="M285.5 543.4c-91.8 0-177.6-34.4-237.8-104.8l59.7-48.5c44.2 54.6 108.7 80.2 178.1 80.2 69.3 0 133.8-25.6 178-80l60.4 48.5c-60.3 70.4-146.6 104.6-238.4 104.6zm282.8-74.8H507c-17.2 15.3-35 27.3-54.8 38.7l21.6 29.1h99.4L536.8 500l31.5-31.4zM5 468.6h61.3c17.2 15.3 35 27.3 54.9 38.7l-21.8 29.1H0L36.4 500 5 468.6z"/><path class="st0" d="M536.5 481.8l-18.2 18.3 23.2 23.2h-61l-8.9-11.9c14.2-8.6 27.8-18.4 40.4-29.6h24.5zm-495.5 0l18.3 18.3L36 523.3h61l8.9-11.9c-14.1-8.6-27.7-18.4-40.4-29.6H41zm244.5 48.4c90.2 0 170.1-35.4 219.5-89.7l-39.6-31.8c-39.8 45.4-105.7 74.8-179.9 74.8S145.3 454 105.6 408.6l-39.1 31.7c49.5 54.3 128.9 89.9 219 89.9z"/><path class="st1" d="M121.2 447.1l8.4 5.2-13.1 21 9.3 5.8 13-21 8.4 5.3 4.7-7.5-26-16.2zm83.3 38.9l4.9 1.5c2.5.7 4 2.2 3.3 4.5-.7 2.2-2.7 2.6-5.9 1.7l-4.1-1.2 1.8-6.5zm-.6 14.4c4.9 1.3 5.2 3 4 7.1-.9 2.9-1.2 5-1.1 5.8l10.7 3.1.2-1c-1.2-.3-.7-1.8.6-6 1.8-6.5 0-7.8-3-10 4 0 6.6-2.6 7.7-6.4 1.8-6.3-1-10.2-11.7-13.2l-15.2-4.5-9.3 32.3 10.6 3 3.2-11.3 3.3 1.1zm82.7 22.8l.5-33.5-10.9-.2-.7 33.5zm87.5-12.1l-1.8-7.6-16.5 3.8-1.2-5.1 13.5-3.1-1.8-7.6-13.5 3.1-1-4.7 15.8-3.7-1.8-7.5-26.5 6.1 7.6 32.6zm50.4-49.2l4.4-2.7c2.2-1.3 4.4-1.3 5.6.8 1.2 1.9.1 3.6-2.8 5.4l-3.7 2.2-3.5-5.7zm10.1 10.3c4.5-2.7 5.8-1.8 8 1.9 1.6 2.6 2.9 4.2 3.5 4.8l9.6-5.7-.6-.9c-1.1.7-1.8-.7-4-4.5-3.5-5.8-5.7-5.4-9.4-4.7 2.8-2.9 2.6-6.6.6-9.9-3.3-5.6-8-6.2-17.6-.6l-13.5 8.1 17.2 28.8 9.4-5.7-5.9-10 2.7-1.6z"/><path d="M140.2 311.4c0 59.9 58.3 114.4 145.4 136.7 87.2-22.3 145.1-76.8 145.1-136.7l.2-136.9H140.1l.1 136.9z" fill="none"/><path class="st1" d="M383.6 110.5v-29c-7.5-2.8-14.4-4.1-22.7-4.1-8.5 0-15.6 1.4-23.1 4.4v29c7-2.5 15-3.9 23.1-3.9 8-.1 15.8 1.2 22.7 3.6zm-50.2-62.7V32l-17.5 15.8zm-83 4.4h82.9V55h-82.9zm133.2 24.6V47.9c-7.5-2.7-14.4-4-22.7-4-8.5 0-15.6 1.3-23.1 4.2v28.8c7-2.6 15-3.9 23.1-3.9 8.3 0 15.3 1.2 22.7 3.8zm0-33.6v-26c-7.5-2.7-14.4-4-22.7-4-8.5 0-15.6 1.3-23.1 4.2v25.9c7-2.5 15-3.9 23.1-3.9 8.3 0 15.3 1.3 22.7 3.8zm-50.2-18.3v-4.6l-30.3 27.5h5.1zm-83 68.1h82.9v22.8h-82.9zm0-6h82.9v2.8h-82.9zm0-29h82.9v24.7h-82.9z"/><path class="st0" d="M397.7 10zM140.9 174.4l.1 136.9c0 46.4 34.9 89.5 91.2 117V174.4h-91.3z"/><path class="st3" d="M337.3 174.4V430c58.2-27.4 94.6-71.3 94.6-118.6l.1-136.9-94.7-.1z"/><path d="M232.2 174.4v253.9c16.4 8 34.6 14.7 54.2 19.7 18.3-4.7 35.3-10.8 50.8-18.1V174.4h-105z"/><path class="st1" d="M359.5 291.2c0 2.8-1.3 4.5-3.7 4.5h-5.9v9.8h63.9v-30.2h-8.9c0 18-5.5 20.4-15.5 20.4h-11.7v-23.2h5.7c3.5 0 4.8 5.1 4.8 9.3v2.7h8v-33.7h-8v2.5c0 6.9-2 9.5-7.6 9.5h-2.9v-21.3h9.5c12.3 0 17.7 2.5 17.7 18.5h8.9v-28.3h-64.1v9.8h6c2.3 0 3.7 1.7 3.7 4.5l.1 45.2zm-110.7-59.7v9.8h2.1c4.9 0 6.4 1.3 8 6.9l16.7 57.2h17.1l16.7-57.2c1.6-5.6 3.1-6.9 7.4-6.9h2.3v-9.8H291v9.8h5.5c1.9 0 3 .8 2.9 2.3.1 1.9-.9 4.9-1.5 7l-10.2 36.6h-.2l-10.2-36.6c-.6-2.1-1.5-5.1-1.5-7 0-1.6 1-2.3 2.9-2.3h6.1v-9.8h-36zm-35.8-1h-8l-1.7 5.2c-5.5-4-11.7-6.5-18.3-6.5-13.3 0-27.6 5-27.6 23.4 0 32 41.6 19.1 41.6 35 0 6.4-6 9.6-11 9.6-11.4 0-19.8-8.1-21-19.9h-8.9v29.2h8l2.5-5.9c6.1 5.1 13.6 6.9 21 6.9 13.3 0 26.6-6 26.6-23.9 0-31.8-41.6-20.5-41.6-34.6 0-7.5 5.2-9.6 10.8-9.6 8.4 0 17.4 6.6 18.9 18.3h8.8l-.1-27.2z"/><path class="st3" d="M280.2 362.4c2 3.6 2.9 8.5 2.9 14.6 0 5.9-.9 10.8-2.6 14.6-2.6 5.6-6.7 8.4-12.5 8.4-5.2 0-9-2.2-11.6-6.8-2.1-3.8-3.2-8.8-3.2-15.2 0-4.9.7-9.2 1.9-12.7 2.5-6.6 6.7-9.8 12.9-9.8 5.8-.1 9.8 2.2 12.2 6.9zm-5.4 28.9c1.7-2.6 2.6-7.3 2.6-14.1 0-4.9-.7-8.9-1.9-12.1-1.1-3.2-3.5-4.8-7-4.8-3.2 0-5.6 1.5-7 4.5-1.5 3-2.2 7.5-2.2 13.4 0 4.4.4 7.9 1.5 10.6 1.5 4.1 3.9 6.1 7.5 6.1 2.6.1 4.8-1.2 6.5-3.6zm18.7-3.6c.3 3.1 1.8 5.2 4.2 6.5 1.3.6 2.8.9 4.6.9 3.1 0 5.6-1 7.1-3.1 1.6-2 2.3-4.2 2.3-6.8 0-3-1-5.4-2.8-7a9.62 9.62 0 0 0-6.7-2.5c-1.8 0-3.5.3-4.8 1.1a11 11 0 0 0-3.5 3l-4.7-.3 3.3-23.3h22.4v5.2h-18.4l-1.8 12.1c1-.7 1.9-1.3 2.8-1.7 1.7-.7 3.6-1 5.7-1 3.9 0 7.3 1.3 10 3.8 2.8 2.6 4.1 5.9 4.1 9.8 0 4.1-1.2 7.7-3.8 10.8-2.5 3.1-6.6 4.7-12.1 4.7-3.6 0-6.7-1-9.4-3-2.8-2-4.2-5-4.6-9.2h6.1z"/><path class="st0" d="M344 83.3c5.4-1.3 11-2.1 17-2.1s11.7.8 17.1 2.1c2.3.6 1.5 4-.8 3.3-5.1-1.2-10.6-1.9-16.3-1.9-5.6 0-11 .7-16.2 1.9-2.3.6-3.2-2.8-.8-3.3zm0-33.5c5.4-1.3 11-2 17-2s11.7.7 17.1 2c2.3.6 1.5 4-.8 3.5-5.1-1.3-10.6-2-16.3-2-5.6 0-11 .7-16.2 2-2.3.5-3.2-3-.8-3.5zm7.1-16.2h15.1c2.3 0 2.3 3.5 0 3.5h-15.1c-2.3 0-2.3-3.5 0-3.5zm-3.9 121V128h-3.8c-2.3 0-2.3-3.6 0-3.6h7.4v30.1c0 2.4-3.6 2.4-3.6.1zm11.4-4.6v-25.1h-5.1c-2.3 0-2.3-3.5 0-3.5h8.7V150c-.1 2.3-3.6 2.3-3.6 0zm13.1 5.2v-30.7h-4.1c-2.5 0-2.5-3.5 0-3.5h7.6v34.2c0 2.4-3.5 2.4-3.5 0zm-27.5-52V91.8c0-3.2 4.8-3.2 4.8 0v11.4c0 3.3-4.8 3.3-4.8 0z"/><path class="st0" d="M356.5 100.6V89.2c0-3.2 4.9-3.2 4.9 0v11.4c0 3.2-4.9 3.2-4.9 0zm12.4 1.3V90.5c0-3.2 4.9-3.2 4.9 0v11.4c.1 3.2-4.9 3.2-4.9 0zm-24.7-31.7V58.8c0-3.2 4.8-3.2 4.8 0v11.4c0 3.1-4.8 3.1-4.8 0zm12.3-2.8V56c0-3.2 4.9-3.2 4.9 0v11.4c0 3.2-4.9 3.2-4.9 0zm12.4 1.3V57.4c0-3.1 4.9-3.1 4.9 0v11.4c.1 3.2-4.9 3.2-4.9-.1zm-24.7-36.4V20.9c0-3.2 4.8-3.2 4.8 0v11.4c0 3.2-4.8 3.2-4.8 0zm12.3-2.7V18.2c0-3.2 4.9-3.2 4.9 0v11.4c0 3.1-4.9 3.1-4.9 0zm12.4 1.3V19.5c0-3.2 4.9-3.2 4.9 0v11.4c.1 3.3-4.9 3.3-4.9 0zm-155 121.2v-22h-2.3c-2.3 0-2.3-3.5 0-3.5h5.8V152c0 2.5-3.5 2.5-3.5.1zm13.4-3.1v-21h-5c-2.3 0-2.3-3.6 0-3.6h8.6V149c0 2.3-3.6 2.3-3.6 0zm10.7 0v-20h-3c-2.3 0-2.3-3.5 0-3.5h6.5V149c0 2.3-3.5 2.3-3.5 0zm-25.1-47.1V90.5c0-3.2 4.8-3.2 4.8 0v11.4c0 3.2-4.8 3.2-4.8 0zm12.1-2.8V87.7c0-3.1 4.8-3.1 4.8 0v11.4c0 3.2-4.8 3.2-4.8 0zm11 2.8V90.5c0-3.2 4.8-3.2 4.8 0v11.4c0 3.2-4.8 3.2-4.8 0zm-23.1-34.5V56c0-3.2 4.8-3.2 4.8 0v11.4c0 3.2-4.8 3.2-4.8 0zm12.1-2.7V53.3c0-3.2 4.8-3.2 4.8 0v11.4c0 3.2-4.8 3.2-4.8 0zm11 2.7V56c0-3.2 4.8-3.2 4.8 0v11.4c0 3.2-4.8 3.2-4.8 0zm21.7-2.8h5.2V76h-5.2zm11.4 0h5.2V76h-5.2zm13 0h5.3V76h-5.3zm11.4 0h5.3V76h-5.3zm12.1 0h5.2V76h-5.2zm13 0h5.3V76h-5.3zm-60.9 34.1h5.2V110h-5.2zm11.4 0h5.2V110h-5.2zm13 0h5.3V110h-5.3zm11.4 0h5.3V110h-5.3zm12.1 0h5.2V110h-5.2zm13 0h5.3V110h-5.3zm-126.3 62.9V70.1c0-2 3-2 3 0v65.4l8.5-4.9c2-1.1 3.8 1.9 1.8 3.1l-10 5.8-.2.1v22c-.1 2-3.1 2-3.1 0z"/><path class="st3" d="M301 158h13.4l-.2-18.5c0-4.2-2.8-7.8-6.6-9.3-3.9 1.4-6.7 5-6.7 9.3l.1 18.5zm-38.9 0h13.5l-.2-18.5c0-4.2-2.8-7.8-6.6-9.3-3.9 1.4-6.7 5-6.7 9.3V158z"/></svg>