<svg xmlns="http://www.w3.org/2000/svg" xmlns:xlink="http://www.w3.org/1999/xlink" viewBox="0 0 387.59 387.59"><defs><radialGradient cx="0" cy="0" r="1" fx="0" fy="0" id="f" xlink:href="#a" gradientUnits="userSpaceOnUse" gradientTransform="matrix(93.1994 0 0 102.84815 350.31 544.08)" spreadMethod="pad"/><radialGradient cx="0" cy="0" r="1" fx="0" fy="0" id="a" gradientUnits="userSpaceOnUse" gradientTransform="matrix(15.95062 0 0 -17.60196 349.7 78.07)" spreadMethod="pad"><stop offset="0" stop-color="#ed1c24"/><stop offset="1" stop-color="#c82128"/></radialGradient><radialGradient cx="0" cy="0" r="1" fx="0" fy="0" id="e" xlink:href="#b" gradientUnits="userSpaceOnUse" gradientTransform="translate(350 532.36) scale(138.22396)" spreadMethod="pad"/><radialGradient cx="0" cy="0" r="1" fx="0" fy="0" id="b" gradientUnits="userSpaceOnUse" gradientTransform="matrix(23.65636 0 0 -23.65636 349.65 80.08)" spreadMethod="pad"><stop offset="0" stop-color="#fee81b"/><stop offset="1" stop-color="#fab20b"/></radialGradient><radialGradient cx="0" cy="0" r="1" fx="0" fy="0" id="d" xlink:href="#c" gradientUnits="userSpaceOnUse" gradientTransform="matrix(186.32372 0 0 186.32586 349.88 532.36)" spreadMethod="pad"/><radialGradient cx="0" cy="0" r="1" fx="0" fy="0" id="c" gradientUnits="userSpaceOnUse" gradientTransform="matrix(31.8884 0 0 -31.88876 349.63 80.08)" spreadMethod="pad"><stop offset="0" stop-color="#127bca"/><stop offset="1" stop-color="#14559a"/></radialGradient></defs><path d="M0 193.8c0 107.03 86.77 193.8 193.8 193.8 107.03 0 193.8-86.77 193.8-193.8C387.6 86.77 300.82 0 193.8 0 86.76 0 0 86.77 0 193.8" fill="#fff"/><path d="M163.68 532.36c0 102.44 82.66 185.57 184.92 186.32h2.79c100-.73 181.27-80.24 184.81-179.55v-13.54c-3.56-99.76-85.56-179.55-186.2-179.55-102.9 0-186.32 83.41-186.32 186.32m48.8.24c0-76.34 61.89-138.22 138.22-138.22 76.34 0 138.23 61.88 138.23 138.22S427.04 670.83 350.7 670.83c-76.33 0-138.22-61.9-138.22-138.23" fill="url(#d)" transform="translate(-156.15 -338.56)"/><path d="M52.3 193.8c0 78.18 63.37 141.56 141.55 141.56 78.19 0 141.57-63.38 141.57-141.56S272.04 52.24 193.85 52.24c-78.18 0-141.56 63.38-141.56 141.56" fill="#fff"/><path d="M312.59 293.47l4.96-6.16-2.99-2.4-7.98 9.9 11.21 9.03 2.98-3.68c-.89-.72-1.9-2.07-1-3.18 1.4-1.74 3.94.49 5.19 1.49 2.63 2.12 3.66 3.27 2.44 4.79-.48.6-.99.77-1.53.7a3.54 3.54 0 0 1-1.6-.85l-3.08 3.83c3.37 2.9 6.3 1.99 8.83-1.16 3.13-3.88 3.2-6.96-1.98-11.13-4.18-3.37-7.12-4.22-9.63-1.09-.9 1.11-1.34 2.45-.9 3.79l-.1.01-4.82-3.89zm-4.45 26.63c3.2 3.43 5.97 2.77 8.97-.18 5.1-4.96.62-9.69-3.65-14.06-4.87-5-8.94-9.2-14.1-4.17-3.92 3.82-2.2 7.66 1.2 11.15 2.31 2.37 5.71 3.8 8.38 1.2a5.43 5.43 0 0 0 1.75-4c4.13 4.23 5.74 5.49 4 7.19a1.6 1.6 0 0 1-1.6.47 3.47 3.47 0 0 1-1.47-1l-3.48 3.4zm-4.76-11.4c-1.08-1.1-3.09-3.16-1.57-4.65 1.5-1.46 3.47.45 4.56 1.57 1.07 1.1 3 3.23 1.51 4.7-1.5 1.45-3.44-.53-4.5-1.63m.14 23.3c3.6-2.89 4.22-6 1.3-9.62-1.92-2.38-3.86-4.06-7.02-2.98l-.04-.06c1.7-2.28.9-4.28-.76-6.32-2.83-3.52-5.94-3.67-9.44-.85-3.5 2.83-4.03 5.9-1.2 9.42 1.65 2.04 3.43 3.25 6.02 2.08l.05.06c-1.73 2.85-.5 5.1 1.42 7.48 2.93 3.63 6.1 3.68 9.67.79m-13.7-17c1.34-1.07 2.77.38 3.53 1.32.8 1 1.96 2.7.6 3.8-1.35 1.1-2.78-.4-3.58-1.4-.76-.94-1.87-2.65-.54-3.72m6.54 8.11c1.7-1.38 3.48.94 4.42 2.1.89 1.11 1.93 2.79.46 3.97-1.47 1.18-2.88-.2-3.77-1.3-.94-1.16-2.83-3.39-1.11-4.77m-19.3 7.3c.76-1.44 1.44-3 1.9-4.58l10.5 15.94 4.4-2.9-13.65-20.72-3.9 2.57c-.14 2.09-.91 4-1.82 5.8l2.56 3.88zm-6.27 16.75l2.2 4.15 3.7-1.96-2.2-4.15-3.7 1.96zm-8.24 9l5.65-2.48-4.2-26.19-4.76 2.09 3.47 18.86-.06.03-11.07-15.53-5.01 2.19 15.98 21.03zm-13.2.06l1.57 4.43 3.94-1.4-1.56-4.42-3.95 1.39zm-2.45 5.92l-1.03-3.8-8.45 2.28-1.97-7.24 7.54-2.04-1.03-3.81-7.53 2.04-1.66-6.1 8.17-2.22-1.03-3.81-13.26 3.6 6.72 24.77 13.53-3.67zm-46.04-17.63l.38 4.25 5.84-.52 1.9 21.32 5.24-.46-1.9-21.32 5.83-.52-.38-4.25-16.9 1.5zm-13.38 10.27l.13-10.28-5.26-.06-.33 25.67 5.26.07.14-11.45 6.03.07-.14 11.45 5.26.07.33-25.68-5.26-.06-.14 10.28-6.02-.08zm-19.65 14.06c4.84.81 7.85-.92 8.98-7.69l-5.13-.85c-.4 1.98-.81 5.16-3.22 4.76-2.92-.49-2.84-3.36-1.76-9.85 1.08-6.48 1.92-9.23 4.84-8.74 1.55.25 1.93 1.61 1.37 4.98l5.08.85c1.11-5.4-.52-8.74-5.82-9.62-8.56-1.43-9.61 4.96-10.73 11.66-1.1 6.63-2.17 13.09 6.39 14.5m-16.45-13.51l-4.8-1.43 5.47-9.95.06.02-.73 11.36zm-9.93 7.1l3-5.05 6.87 2.05-.29 5.85 5.31 1.58.79-26.55-6.64-1.98-14.02 22.6 4.98 1.5zm-14.43-16.72l1.24.55c3.7 1.61 2.41 3.88 1.19 6.68-.68 1.54-1.5 3.07-1.49 4.79l4.72 2.06c-.02-1.16 1.83-5.64 2.49-7.14 1.85-4.23-1.16-5.86-2.16-6.45l.03-.07c3.35.86 5.48-.89 6.8-3.89 1.76-4 .59-7.07-2.7-8.52l-8.9-3.9-10.3 23.52 4.81 2.1 4.27-9.73zm4.45-10.16l2.14.93c1.53.68 2.09 1.93 1.1 4.18-.65 1.5-2.05 3.21-3.97 2.37l-2.14-.93 2.87-6.55zm-19.8-15.02l-2.18 3.67 5.04 2.98-10.9 18.43 4.53 2.68 10.9-18.42 5.04 2.98 2.17-3.67-14.6-8.65zM83.12 331.4l11.42-14.9.06.05-5.99 19.07 5.5 4.23 15.63-20.38-3.9-2.99-10.82 14.11-.05-.04 5.51-18.18-5.64-4.32-15.62 20.36 3.9 2.99zm-8.17-7.04l17.5-18.8L88.6 302l-17.5 18.78 3.85 3.59zm-7.8-7.32l2.96-2.61-5.8-6.54 5.6-4.99 5.19 5.85 2.95-2.63-5.18-5.84 4.73-4.2 5.62 6.34 2.95-2.62-9.11-10.27-19.2 17.04 9.3 10.47zm266.15-36.62a4.62 4.62 0 0 0 6.36-1.57 4.62 4.62 0 0 0-1.7-6.32 4.6 4.6 0 0 0-6.35 1.56 4.6 4.6 0 0 0 1.69 6.33m4.15-39.18l17.63 6.7-.02.06-20.09-.25-2.48 6.51 24.12 9.18 1.76-4.63-16.71-6.34.03-.06 19.09.06 2.54-6.68-24.12-9.17-1.75 4.62zm2.29-8.02l25.06 6.11 1.25-5.13-25.06-6.12-1.25 5.14zm1.96-7.57l3.9.65 1.44-8.67 7.44 1.23-1.28 7.74 3.91.65 1.28-7.74 6.28 1.04-1.4 8.4 3.92.64 2.26-13.61-25.46-4.22-2.3 13.89zm13.8-26.86l-.05 1.37c-.16 4.06-2.75 3.68-5.83 3.56-1.67-.06-3.41-.27-5.02.37l-.19 5.18c1.09-.45 5.95-.37 7.6-.3 4.63.17 5.05-3.25 5.23-4.4h.08c.44 3.45 2.86 4.8 6.14 4.94 4.4.16 6.84-2.06 6.98-5.67l.37-9.76-25.78-.98-.2 5.29 10.67.4zm11.14.42l-.09 2.35c-.06 1.68-1.03 2.66-3.5 2.56-1.63-.06-3.76-.73-3.67-2.84l.08-2.34 7.19.27zm-21.8-9.07l3.95-.25-.56-8.78 7.53-.47.5 7.83 3.95-.26-.49-7.83 6.35-.4.53 8.5 3.96-.25-.87-13.78-25.75 1.63.9 14.06zm-3.3-28.25l1.17 6.09 26.6 1.71-.98-5.12-19.25-.8-.02-.07 17.69-7.39-1.04-5.4-24.16 10.98zm17.75-31.31l-4.08 1.32 1.82 5.6-20.46 6.64 1.63 5.03 20.46-6.64 1.82 5.6 4.08-1.33-5.27-16.22zm-19.95-7.53l.58 1.24c1.72 3.68-.77 4.53-3.55 5.83-1.52.71-3.17 1.33-4.3 2.63l2.2 4.7c.76-.9 5.12-3.06 6.6-3.75 4.22-1.96 3.02-5.2 2.67-6.3l.06-.03c1.97 2.86 4.74 2.96 7.72 1.57 3.98-1.86 5.14-4.95 3.62-8.22l-4.14-8.85-23.38 10.92 2.24 4.79 9.68-4.53zm10.1-4.71l1 2.12c.7 1.52.3 2.84-1.94 3.88-1.49.7-3.68 1.07-4.57-.84l-1-2.12 6.51-3.04zm-28.5-5.42c4.8 7.29 10.29 3.67 15.93-.05 5.7-3.75 11.14-7.32 6.34-14.6-4.8-7.29-10.23-3.71-15.93.04-5.64 3.72-11.13 7.33-6.34 14.61m3.23-2.12c-1.65-2.48.53-4.38 6.06-8.02 5.52-3.63 8.12-4.88 9.75-2.4 1.65 2.5-.53 4.39-6.06 8.02-5.52 3.64-8.12 4.88-9.75 2.4M304.8 91.08l3.4 4.04 8.03-6.79 2.54 3c4 4.74 8.09 2.37 10.33.48 3.6-3.04 4.67-6.43 1.55-10.11l-6.15-7.28-19.7 16.66zm20.09-10.05l1.71 2.02c1.54 1.82.54 3.4-1.07 4.76-1.32 1.1-3.35 1.41-4.37.2l-1.9-2.23 5.63-4.75zm-17.1 2.86c5.52-5.94-2.57-12.88.77-16.47 1.22-1.3 2.62-1.32 3.87-.15 1.57 1.46.46 3.1-.86 4.52l3.77 3.5c3.94-3.7 3.67-7.17-.1-10.68-4.71-4.39-8.29-3.32-11.04-.37-5.23 5.63 2.37 13.1-.8 16.5-1.2 1.27-2.64 1.54-3.94.33-2.13-1.98-.8-3.57.88-5.38l-3.87-3.6c-3.25 3.07-5.03 6.78-.23 11.25 2.94 2.74 7 5.44 11.54.55m-24.57-17.72L280.43 70l3.4 2.47 2.77-3.81-3.4-2.48zm3.75-22.8l-9.13 15.46c-1.46 2.46-3.16 3.28-5.15 2.1-1.66-.99-2.17-2.73-.55-5.47L281.26 40l-4.55-2.7-9.31 15.76c-2.48 4.19-1.63 8.26 3.37 11.21 5.55 3.28 9.46.86 11.43-2.46l9.31-15.75-4.55-2.7zm-35.46-1.62l-1.38 3.38 7.94 3.24 1.38-3.37-7.94-3.25zm-20.54 5.58l4.94-18.21.06.01 1.74 20.02 6.72 1.82 6.74-24.9-4.76-1.3-4.67 17.25-.07-.02-1.83-19-6.9-1.87-6.73 24.9 4.76 1.3zm-16.54-13.98l1.35.19c4.03.57 3.4 3.1 2.96 6.15-.23 1.67-.61 3.38-.14 5.03l5.13.72c-.33-1.13.24-5.95.47-7.58.64-4.6-2.72-5.36-3.84-5.66v-.08c3.49-.08 5.07-2.35 5.53-5.6.6-4.36-1.36-7.02-4.93-7.52l-9.67-1.35-3.58 25.55 5.24.73 1.48-10.58zm1.55-11.04l2.32.33c1.67.23 2.54 1.29 2.2 3.73-.22 1.63-1.12 3.67-3.2 3.38l-2.32-.32 1-7.12zm-16.5-5.3l-.23 17.94c-.03 2.85-1.1 4.41-3.42 4.39-1.92-.03-3.24-1.3-3.2-4.48l.23-17.93-5.29-.07-.23 18.3c-.06 4.85 2.7 7.96 8.51 8.03 6.45.08 8.64-3.96 8.69-7.82l.22-18.3-5.28-.06zm-33.79 1.87l.49 4.26 5.84-.67 2.45 21.38 5.25-.6-2.44-21.38 5.84-.67-.48-4.26-16.95 1.94zM148.02 38.6l1.32-.35c3.92-1.06 4.33 1.53 5.14 4.5.44 1.62.76 3.34 1.85 4.68l5-1.36c-.76-.9-2.12-5.57-2.56-7.16-1.21-4.48-4.6-3.86-5.75-3.7l-.02-.06c3.17-1.45 3.74-4.16 2.88-7.33-1.15-4.24-4-5.92-7.48-4.98l-9.43 2.55 6.74 24.91 5.1-1.38-2.79-10.32zm-2.9-10.76l2.26-.61c1.62-.44 2.84.2 3.49 2.57.43 1.59.41 3.81-1.62 4.36l-2.26.62-1.88-6.94zm-1.73 23.36l-1.5-3.68-8.14 3.33-2.85-6.98 7.26-2.97-1.5-3.67-7.26 2.96-2.4-5.88 7.87-3.22-1.5-3.67-12.77 5.22 9.75 23.89 13.04-5.33zm-24.86-8.86c-2.35-4.86-6.61-5.88-11.14-3.35-7.55 4.22-4.6 10.14-1.42 15.82 4.77 8.55 7.5 11.33 15.26 7a48.26 48.26 0 0 0 5.82-4.24l-6.39-11.42-7.12 3.98 1.94 3.46 2.5-1.4 2.8 4.99a8.09 8.09 0 0 1-2.06 1.72c-2.62 1.47-4 .6-7.94-6.45-2.44-4.37-4.65-8.34-1.78-9.94 2.45-1.36 3.81.29 4.95 2.4l4.58-2.57zm-8.6 25.82l-14.71-21.2-4.35 3 14.7 21.2 4.35-3zm-6.55 4.3l-2.56-3.03-6.7 5.68-4.88-5.76 6-5.07-2.57-3.02-5.99 5.06-4.1-4.85 6.5-5.5-2.57-3.03-10.54 8.9 16.66 19.71 10.75-9.09zm-29.66 29.11l3.81-4.29-11.2-15.8.04-.05 16.74 9.56L87 86.62 71.42 65.3l-3.44 3.88 11.45 14.38-.04.05-16.07-9.2-4.13 4.67 10.9 15.02-.05.04-15.74-9.56-3.6 4.06 23.02 12.94zm-23.47 7.73l-8.76-5.47-2.8 4.49 21.88 13.66 2.8-4.48-9.76-6.1 3.21-5.14 9.76 6.1 2.8-4.49L47.5 94.21l-2.8 4.48 8.76 5.47-3.2 5.14zm6.41 22.14c1.99-4.52 1.04-7.88-5.29-10.65l-2.08 4.78c1.83.88 4.82 2.08 3.84 4.33-1.19 2.72-3.96 1.93-10.02-.72s-8.53-4.15-7.33-6.88c.63-1.44 2.04-1.47 5.19-.1l2.08-4.74c-5-2.42-8.65-1.65-10.8 3.3-3.5 7.98 2.45 10.59 8.71 13.32 6.18 2.72 12.21 5.35 15.7-2.64m-11.68 8.13c-7.77-2.31-10.4 8.02-15.1 6.62-1.7-.5-2.34-1.76-1.85-3.4.6-2.05 2.58-1.8 4.44-1.24l1.46-4.94c-5.07-1.87-8.06-.1-9.53 4.84-1.83 6.18.71 8.9 4.58 10.06 7.37 2.19 10.68-7.94 15.13-6.61 1.67.5 2.55 1.68 2.05 3.39-.83 2.79-2.85 2.29-5.21 1.59l-1.51 5.07c4.2 1.54 8.32 1.48 10.19-4.8 1.15-3.85 1.76-8.67-4.65-10.58m-.94 34.06l-18.61-3.08v-.07l19.75-3.72 1.14-6.88-25.46-4.22-.8 4.88 17.62 2.92v.07l-18.73 3.7-1.17 7.05 25.45 4.22.81-4.87zm-26.99 13.2l17.94.22c2.86.03 4.42 1.11 4.39 3.42-.02 1.93-1.3 3.24-4.47 3.2l-17.94-.23-.07 5.3 18.3.23c4.86.05 7.96-2.71 8.04-8.52.08-6.44-3.96-8.63-7.82-8.68l-18.3-.23-.07 5.28zm16.78 22.69l.58 5.01-11.36-1.13v-.07l10.78-3.81zm10.48 6.38l-5.84-.77-.83-7.17 5.53-2.04-.64-5.53-24.85 9.74.8 6.93 26.42 4.03-.59-5.2zm-6.77 19.82l-.32-1.32c-.96-3.95 1.64-4.3 4.62-5.03 1.63-.4 3.37-.68 4.73-1.73l-1.23-5.03c-.92.73-5.62 1.98-7.22 2.37-4.51 1.1-3.98 4.5-3.84 5.66l-.07.02c-1.37-3.2-4.06-3.84-7.25-3.06-4.27 1.04-6.02 3.85-5.16 7.35l2.31 9.5 25.07-6.12-1.25-5.14-10.39 2.53zm-10.83 2.64l-.56-2.27c-.4-1.63.27-2.84 2.66-3.43 1.6-.39 3.83-.32 4.32 1.73l.56 2.27-6.98 1.7zm26.2 10c-.85-2.07-3.22-7.11-9.27-4.64-3.28 1.34-5.2 3.18-4.27 6.85l-.07.02c-1.61-2.43-4.14-2.95-6.89-1.83-5.1 2.08-4.92 5.6-3.4 9.34l3.55 8.68 23.89-9.75-3.54-8.66zM34.23 260.4L33 257.37c-.67-1.65.14-3.35 1.9-4.06 2.3-.95 3.64.25 4.08 1.32l1.34 3.27-6.09 2.49zm9.77-4l-1.16-2.86c-1-2.45-.04-3.76 2.08-4.63 3.34-1.36 4.33.96 4.75 2l1.11 2.72L44 256.4zm7.8 20.2a4.61 4.61 0 0 0-1.54 6.37 4.62 4.62 0 0 0 6.4 1.41 4.61 4.61 0 0 0 1.53-6.36 4.61 4.61 0 0 0-6.4-1.41" fill="#fff"/><path d="M214.03 532.37c0 75.1 60.87 135.97 135.97 135.97s135.98-60.87 135.98-135.97S425.1 396.39 350 396.39s-135.97 60.88-135.97 135.98" fill="url(#e)" transform="translate(-156.15 -338.56)"/><path d="M290.07 107.47H96.19v1.44l.01 3.63c.02 5.08.05 14.37.05 21.48 0 79.97 28.47 135.04 98.28 190.1l.92.71.9-.75c68.44-56.84 95.1-110.13 95.1-190.06l.06-25.1v-1.45h-1.45z" fill="#fff"/><path d="M348.92 456.05s-5.54-.33-7.25.21c-1.46.45-1.97 2.76-2.52 3.24-.55.49-7.19.5-7.35.76-.2.3-.28.8-.27 1.22.01.62.12 2.14.49 2.13l.25.01s-.15.58-.22 1.08c-.07.5-.4 3.52-.02 5.25.39 1.72 1.11 1.77 1.11 1.77s.23.08.62.17c.29.52.87 1.56 1.39 2.68l-.9.06c-8.27.55-13.36-5.03-13.36-9.2 0 0-6.85 2.45-3.27 8.98 1.57 2.9 5.14 4.55 7.87 4.7 3 .18 5.5.05 9.68-.72-.28.8-.58 1.76-.7 2.34-.87.02-1.41.05-1.46.6-.04.57-.2 2.6.07 5.5 0 0 .18.64.82.75.63.11 2.42.17 2.72.72.22.42-.17 3-1 3.98-.59.68-1.92 1.22-3.86 1.1-5.24-.3-22.28-3.94-31.44-18.1 0 0 6.17-4.12 6.17-9.47 0-5.34-1.92-8.87-8.96-10.51 0 0 1.58 1.03 1.58 4.74 0 0-8.68 1.58-5.59 12.2 0 0-1.78-.63-3.22-2.5 0 0 1.1-9.79-5.34-11.48-9.04-2.38-12.09 6.49-12.09 6.49s2.37-1.76 4.74-.3c0 0-2 6.61 7.95 8.5 0 0-15.84 4.79-10.38 18.63 0 0 .49-3.16 1.77-5.46 0 0 10.13 5.76 11.77-4.14 0 0 4.86 1.17 5.52 4.87.67 3.7-.55 6.8-3.58 8.13 0 0 19.33 3 33.48 11.73 0 0-19.5 7.3-36.49 7.43 0 0 1.43-4.55-4-8.01-1.52-.97-4.98-1.16-7.17-.18-3.68 1.63-5.88 4.37-6.25 6.18 0 0 1.95-1.7 4.13-.97 0 0 .36 5.05 6.25 8.08 0 0-7.95-.5-11.35 6-3.4 6.5.55 10.87.55 10.87s.36-3.4 2.79-4.3c0 0 6.8 3.45 10.01-4.2 0 0 .73 11.36 9.11 13.79 0 0-1.76-2.62-1.45-5.16 0 0 8-1.83 4.18-9.66 0 0 9.93-4.71 12.3 7.62 0 0 5.22-1.64 5.03-7.71 0 0 17.06-4.86 36.37 15.17 0 0-16-2.4-21.7 6.08-4.05 6-.22 17.96-.22 17.96s-7 8.27-17.44 8.21c0 0 3.46-7.7-4-12.14-7.47-4.43-11.97 2.55-11.97 2.55s3.22-.67 4.62 1.46c0 0-4.62 5.34 3.33 9.6 0 0-7.84-2.48-12.74 1.57-3.16 2.6-2.86 7.35-2.86 7.35s1.58-2.31 4.13-1.95c0 0-.36 4.37 4.07 5.53 4.43 1.15 6.68-2.25 6.68-2.25s-1.95 8.8 7.22 12.87c0 0-1.1-1.28-1.1-4.31 0 0 3.47-.73 4.86-3.03 1.4-2.31.85-6.2-.9-7.96 0 0 7.72-1.72 11.98 6.54 0 0 3.64-1.58 3.88-6.74 0 0 17.72 2.3 23.12-5.89 0 0-3.76-3.21-2.36-9.65s8.68-5.53 8.68-5.53-3.1 2.8-2.43 9.17c.67 6.38 2.68 12.14-2.85 16.15 0 0 9.29 1.28 11.29-6.07 0 0 6.56 18.57-6.86 32.1 0 0-1.07-9.26-9.67-8.4-8.61.88-7.9 9.7-7.9 9.7s1.5-2.55 4.48-2.66c0 0-2.02 3.1 2.79 7.08 0 0-8.48 6.71-4.88 15.67 0 0 .57-3.42 2.85-4.1 0 0 3.92 3.72 8.22 1.18 4.3-2.55 4.36-5.1 4.36-5.1s4.12 8.7 11.58 10.63c0 0-2.1-3.17-.32-5.16 0 0 5.95-3.68-.39-11.22 0 0 13.4-13.58 20.43-26.5 0 0-10.23-16.44-6.95-30.34 6.25 7.21 13.84 10.6 14.97 11.28.3.18.02 1.58.42 2.92.4 1.34 1.8 2.47 2.31 2.86.52.4 2.98 3.13 2.23 5.57-1.01 3.22-3.47 3.13-3.47 3.13s6.14 3.32 9.46-1.79c3.31-5.12.54-9.01.54-9.01s5.94.73 9.83-1.37c7.27-3.91 6.6-8.37 6.6-8.37-3.55 3.38-7.5 1.58-7.5 1.58.96-.36 2.58-2.34 3.46-4.13.88-1.8 1.58-5.66 2.03-8.13.47-2.46 1.01-4.28 3.51-8.15 2.49-3.86 7.67-4.6 7.67-4.6-1.93-1.33-5.16-2.14-9.68-1.33-4.52.8-7.12 5.1-7.12 5.1-3.62-6.25-6.38-10.09-7.42-12.25a3.98 3.98 0 0 1 .13-3.75c.9-1.51 2.23-3.3 4.81-5.2 4.88-3.6 9.99-4.13 14.2-6.52 8.62-4.86 5.37-13.66 5.37-13.66-1.47 3.11-3.33 5.48-7.8 7.29-5.08 2.06-8.81 1.7-15.15 6.35a26.5 26.5 0 0 0-6.72 7.5s-.89-.95-1.56-2.27c-.66-1.31.06-3.54.9-4.92 2.05-3.35 5.71-7.8 13.2-10.42 3.68-1.28 8.86-2.08 13.1-6.27 4.77-4.71 3.41-12.62 3.41-12.62-.4 3.83-5.16 6.63-8.44 8.16-3.4 1.59-7.51 2.6-10.22 3.34-2.7.73-6.18 2.1-9.47 4.68a30.19 30.19 0 0 0-7.92 9.66c-.47-.83-1-1.51-1.17-2.19a6.98 6.98 0 0 1 1.07-5.62c5.13-7.9 12.79-10.93 14.95-11.73 3.21-1.18 8.7-2.91 13.5-5.53 10.4-5.68 6.75-15.2 6.75-15.2-2.77 4.96-8.57 7.92-14.9 10.29-5.26 1.97-9.4 3.66-14.4 6.4-6.43 3.48-10.77 10.25-10.77 10.25-.12-7.56 4.61-12.5 7.2-14.44 6.14-4.64 16.1-7.73 19.6-9.22 3.5-1.5 11.16-4.66 11.67-13.28.38-6.78-4.6-10.82-10.57-12a36.21 36.21 0 0 0-12.89-.43c-2.65.33-4.84.86-5.23.8-.65-.08-3.18-1.43-4.23-1.97-2.08-1.07-6.35-2.52-9.3-.07-3.56 2.94-3.19 5.58-3.1 8.1 0 0 2.23-2.95 6.57-2.44.87.1 1.65.33 2.35.62-.6.38-1.7 1.36-2.68 3.77-1.46 3.57-3.16 3.9-3.16 3.9s2.15 1.2 6.12.9c.43-.02 1.64-.34 2.03-.44-.69 2.17-1.47 4.53-3.54 5.43-1.72.74-3.8-.45-3.8-.45s1.78 4.71 6.64 4.44c4.88-.28 7.24-4.68 8.2-6.4.96-1.7 2.2-7.36 2.2-7.36s2.85 2.47 1.84 7.84c0 0 2.02-1.38 3.89-3.46 1.86-2.08 3.74-4.25 5.68-4.08 2.63.22 4.64 2.36 2.1 5.79-2.57 3.5-9.6 6.25-14.45 8.25-4.8 1.97-13 6.23-16.97 12.2-3.97 5.96-7.04 14.72-2.62 27.66 2.37 6.96 8 13.58 8 13.58s-3.87-.82-6.02 1.05c0 0 8.46 3.2 14.28 10.52 5.83 7.32 10.46 18.07 4.5 22.48-4.26 3.16-13.82-3.45-16.03-5.36-3.22-2.8-7.93-7.72-16.83-25-5.18-10.06-8.82-25.2-8.82-25.2s8.17 6.8 13.38-1.15c0 0-11.26-2.1-11.77-12.63 0 0 1.17 1.42 2.86 1.21 2.14-.26 5.96.73 5.7 4.5 0 0 4.73-6.68-1.88-12.02 0 0 8.31 1.58 9.22-6.14 0 0-3.66 1.54-8.92-1.75-1.71-1.07-2.3-2.31-2.3-2.31s6.91 1.21 8.74-4.98c0 0-6.02.16-8.69-4.33 0 0 1.05-5.77-.46-10.01-1.52-4.25-7.2-5.53-7.94-5.65-.72-.12-3.54-2.44-4.19-4.98 0 0-6.25 1.94-7.34 5.16m-5.72 6.28c-.26-.42-.72-.51.31-1 .4-.18 1.49-.74 6.49-1.5.11-.03.44-.09.44.2 0 .16-.52.7-.81 1.43-.5 1.3-1.1 2.4-2.9 2.78-.26.05-.49.08-.71.08-1.75 0-2.54-1.54-2.82-2m.83 8.56c.24-.23.35-.38.84-.45 1.03-.14 4.57.05 5.67 3.3-1.55.07-4.44.23-7.86.44.43-1.1 1-2.56 1.35-3.3m-6.55 1.55h.1c.67 0 1.98-.04 2.6-.14l1.21 1.96c-1.37.08-3.57.17-5.02.26l1.11-2.08m4.65 4.87c4.4-.34 7.5 1.02 8.35 1.44a3.18 3.18 0 0 1-1.75 1.92c-.63.25-1.4.42-3.44.42h-.09a40.39 40.39 0 0 1-3.07-3.78m-4.08 3.57a20.26 20.26 0 0 1-1.84-2.66c.81-.16 2.46-.35 3.4-.55.6-.13 1.2-.22 1.77-.3-.35 1-.85 2.6-.92 3.57l-2.41-.06" fill="url(#f)" transform="translate(-156.15 -338.56)"/></svg>