<svg version="1.1" xmlns="http://www.w3.org/2000/svg" viewBox="0 0 25 32"><path fill="#ffd42e" d="M.45.53v19.11a11.82 11.82 0 1 0 23.63 0V.54H.45z"/><path fill="#ba3733" d="M23.82.79v18.85a11.57 11.57 0 0 1-23.1 0V.8h23.1z"/><path fill="#ffd42e" d="M1.07 19.64a11.2 11.2 0 0 0 22.4 0V9.71H1.07v9.93zm22.39-18.5H1.06v8.2h22.4v-8.2z"/><path fill="#fff" d="M23.2 1.41H1.33v7.67H23.2V1.41zM12.27 9.96V30.6c6.03 0 10.93-4.9 10.93-10.95V9.96H12.27z"/><path fill="#ba3733" d="M3.66 2.71h4.59v1.04H4.98v.8h3.11v1H4.98v1.5H3.66V2.73zm9.05 2.67h1.33l.01.41c0 .33-.05.6-.15.78-.1.22-.32.37-.64.45-.33.08-.88.1-1.67.1-.83 0-1.41 0-1.77-.04-.35-.02-.61-.1-.79-.18a.87.87 0 0 1-.36-.35A1.45 1.45 0 0 1 8.52 6a14.36 14.36 0 0 1 0-2.16c.02-.24.06-.4.11-.53.12-.27.37-.45.74-.53a12.7 12.7 0 0 1 2.23-.13c.56 0 .97.02 1.22.04.26.04.46.07.61.15.2.1.34.24.42.41.08.2.12.45.12.82v.21h-1.33a.85.85 0 0 0-.03-.29c0-.06-.03-.1-.07-.12-.05-.05-.18-.07-.38-.1a10.23 10.23 0 0 0-1.8 0c-.16.03-.27.05-.33.1-.08.06-.14.18-.17.32-.03.15-.05.4-.05.74 0 .3.02.54.05.68s.08.23.16.29c.07.06.19.1.35.12s.45.02.86.02c.5 0 .85 0 1.02-.02.16-.02.28-.06.34-.12.08-.06.12-.23.12-.5zM1.33 9.96v9.68c0 6.04 4.9 10.95 10.94 10.95V9.96H1.33z"/><path fill="#ba3733" d="M16.4 5.36l.8-1.63h.19l.8 1.63h-1.78zm2-2.65h-2.16l-2.4 4.68h-3.41v1.03h4.5l1.01-2.1h2.72l1.03 2.1h1.74l-3.03-5.7z"/><path fill="#46714d" d="M7.04 8.42h3.39V7.4H7.04v1.03z"/><path fill="#ba3733" d="M3.66 8.42h3.38V7.4H3.66v1.03z"/><path fill="#fff" d="M10.54 7.5v.8h3.2v-.8h-3.2zm.53 20.73c-.2 0-.35-.13-.35-.52 0-.28.1-.47.32-.47.29 0 .4.33.4.6 0 .12 0 .22-.03.32a.64.64 0 0 1-.34.07zm.01-1.22a.7.7 0 0 0-.7.74c0 .42.25.72.64.72a.7.7 0 0 0 .3-.06c-.16.35-.46.56-.79.68l.1.21c.3-.1.53-.2.77-.44.2-.2.4-.57.4-.98 0-.58-.36-.87-.72-.87zm-1.5.29l.27-.1v-.14h-.9v.14l.28.1v1.01l-.27.08v.13h.9v-.13l-.28-.08V27.3z"/><path fill="#ba3733" d="M13.55 28.31c-.22 0-.48-.17-.48-.52s.26-.53.48-.53c.23 0 .48.17.48.52s-.25.53-.48.53zm0-1.3c-.44 0-.81.33-.81.77s.37.78.81.78c.45 0 .82-.33.82-.77S14 27 13.55 27zm.96.05v.28h.96a6.2 6.2 0 0 0-.77 1.85h.28c.12-.57.54-1.4.86-1.91v-.22h-1.33z"/><path fill="#221f1f" d="M16.46 21.4l-1.3-1.17c-.59.1-1.2.17-1.8.21l-.02-.92c1.09-.1 1.6-.39 2.08-.83.57-.55.84-1.25.84-2.26 0-1.72-1-3.33-1.87-4.2a4.12 4.12 0 0 0-2.1-1.14h-.05c-.43.1-1.29.33-2.1 1.15a6.35 6.35 0 0 0-1.87 4.19c0 1.01.27 1.71.84 2.26.48.44 1 .74 2.08.83l-.01.92a18.4 18.4 0 0 1-1.8-.21l-1.3 1.17.52.58a.95.95 0 0 0-.07.39c0 .4.32.74.73.74.12 0 .34-.04.49-.21a.55.55 0 0 0 .1-.2c.33.7.53 1.81.62 3.45v.12h3.59v-.12c.09-1.64.3-2.75.63-3.45.02.08.05.14.1.2.14.17.36.21.49.21.4 0 .73-.33.73-.74a1 1 0 0 0-.08-.39l.53-.58z"/><path fill="#46714d" d="M12.48 19.3l.79-.48-1-.58-1 .58.78.47h.43zm1.24-6.28l1 .6.28-.17a5.8 5.8 0 0 0-.62-.82l-.66.4zm-3.91 5.22l-.47.3c.27.23.57.42 1.02.56l.46-.28-1-.58zm.87.94c.25.05.55.07.9.1l-.54-.32-.36.21zm2.28.09c.35-.02.64-.04.89-.1l-.36-.2-.53.3zm2.41-.91c.2-.24.35-.47.45-.78l-.87.52.42.26zm.57-2.57a5.32 5.32 0 0 0-.27-1.02l-.72.43.99.59zm.01.27l-1 .58.97.59a3.97 3.97 0 0 0 .05-1.17h-.02zm-2.23 2.76l.45.28a2.7 2.7 0 0 0 1.03-.57l-.48-.29-1 .58zm-5.01-1.24c.1.31.25.54.46.78l.42-.26-.88-.52zm4.41-5.92a4 4 0 0 0-.85-.3c-.21.04-.51.14-.85.3l.85.5.85-.5zm-1.08.64l-.86-.5c-.27.15-.56.36-.84.64l-.02.02.72.42 1-.58zm1.46.58l.72-.43-.02-.02a4.33 4.33 0 0 0-.84-.64l-.87.5 1 .6zm-2.69.14l-.66-.39c-.21.23-.43.5-.62.82l.28.17 1-.6zm-2.22 3.04h-.02a3.82 3.82 0 0 0 .05 1.17l.97-.59-1-.58zm.28-1.29c-.13.33-.22.67-.27 1.02l.99-.59-.73-.43zm.53-1.13l-.17.32.36-.22-.18-.1zm.41 1.42l1-.58-1-.6-.77.46-.09.22.86.5zm1.46.86l1 .6 1-.6-1-.58-1 .58zm-1.46.86l-1 .6 1 .59 1-.59-1-.6zm.23 1.32l1 .59 1-.59-1-.58-1 .58zm.77-2.18l-1-.58-1 .58 1 .6 1-.6zm1.23-2.18l-1-.58-1 .58 1 .6 1-.6zm0 1.46l-1-.58-1 .58 1 .59 1-.59zm.23 1.58l-1 .6 1 .59 1-.59-1-.6zm.23 1.32l1 .59.99-.59-1-.58-1 .58zm0-2.9l1 .59.99-.59-1-.58-1 .58zm2.22 1.33l1-.6-1-.6-1 .6 1 .6zm-1 .85l1 .59 1-.59-1-.6-1 .6zm-1.22-3.64l1 .6.99-.6-1-.58-1 .58zm.77-.72l-1-.58-1 .58 1 .6 1-.6zm2.03.94c-.05-.1-.11-.22-.18-.32l-.17.1.36.21zm-.58-.08l-1 .6 1 .58.86-.5a1.45 1.45 0 0 0-.09-.22l-.77-.46zm-4.68 2.76l1 .6 1-.6-1-.58-1 .58zm2.23-2.76l-1 .6 1 .58 1-.58-1-.6zm2.22 2.76l-1-.58-1 .58 1 .6 1-.6z"/><path fill="#ffd42e" d="M10.04 21.28h1.13v-.6c-.58-.04-1.16-.1-1.72-.22l-1.05.96.33.35c.24-.32.7-.5 1.3-.5zm5.05-.82c-.57.1-1.15.18-1.73.21v.6h1.14c.61 0 1.06.18 1.3.5l.33-.36c-.24-.2-.62-.56-1.04-.95zm-2.82.84h-.87l.03-1.76c.25.02.53.02.84.02s.59 0 .84-.02l.03 1.76h-.87z"/><path fill="#ffd42e" d="M9.75 21.51c-.63.08-1 .4-1 .86 0 .27.23.5.5.5.09 0 .24-.01.32-.11.08-.1.1-.25.05-.45l.21-.1c.43.6.68 1.58.82 3.14l.68-1.68c-.47-1.03-1-1.88-1.58-2.16zm1.7 1.87l.77-1.85-2.04-.02c.42.33.83.94 1.27 1.87zm2.9-1.87l-2.03.02.77 1.85c.44-.93.85-1.54 1.26-1.87zm-2.77 2.17c.22.5.45 1.07.69 1.73.24-.66.46-1.23.68-1.74l-.68-1.65-.69 1.65zm-.12.29l-.78 1.89.01.17h1.55l-.08-.23c-.22-.6-.45-1.25-.7-1.83zm3.32-2.46c-.57.28-1.1 1.13-1.58 2.17l.69 1.67c.13-1.56.39-2.53.81-3.14l.21.1c-.04.2-.02.35.05.45.09.1.23.12.32.12a.5.5 0 0 0 .5-.51c0-.47-.36-.78-1-.86zm-2.4 4.29l-.09.23h1.55l.01-.17-.77-1.9c-.26.6-.49 1.23-.7 1.84z"/></svg>