<svg version="1.1" xmlns="http://www.w3.org/2000/svg" viewBox="0 0 32 32"><path fill="#0066b2" d="M16 0a16 16 0 1 0 0 32 16 16 0 0 0 0-32z"/><path fill="#fff" d="M16 .8a15.2 15.2 0 1 0 0 30.4A15.2 15.2 0 0 0 16 .8z"/><path fill="#dc052d" d="M16 1.52a14.48 14.48 0 1 0 0 28.96 14.48 14.48 0 0 0 0-28.96zm0 23.52a9.04 9.04 0 1 1 0-18.08 9.04 9.04 0 0 1 0 18.08z"/><path fill="#0066b2" d="M8.05 18.46a8.23 8.23 0 0 0 1.84 3.18V17.9l-2.12-3.1c-.18 1.2-.1 2.44.29 3.67zm4.28 2.97v-4.3L9.91 13.6v-3.25a8.35 8.35 0 0 0-1.16 1.6l1.14 1.66v4.3l2.43 3.54v2.02a8 8 0 0 0 1.85.66l-1.84-2.69zm2.45-5.05l2.43 3.55v4.3l-2.43-3.55v-4.3l-2.43-3.54v-4.3l2.43 3.54v4.3zm2.44-.75l-2.42-3.55v-4.3l2.42 3.55v4.3l2.43 3.54v4.3l-2.43-3.55v-4.3zm-3.68-7.58a8.3 8.3 0 0 0-3.21 1.86l2 2.93v4.3l2.43 3.54v3.55a8.3 8.3 0 0 0 6.92-2.13l-2-2.93v-4.3l-2.44-3.55V7.77a8.3 8.3 0 0 0-3.7.29zm8.58 10.36v-4.3l-2.43-3.54V8.55a8.21 8.21 0 0 0-1.86-.66l1.84 2.68v4.3l2.42 3.54v3.25c.46-.49.84-1.02 1.16-1.6l-1.13-1.65zm1.83-4.87a8.23 8.23 0 0 0-1.83-3.18v3.75l2.12 3.1c.17-1.2.09-2.44-.29-3.67z"/><path fill="#fff" d="M6.32 19l.41.87-.66 1.26-.19.35.01.02.4.02 1.41.13.51.82-3.07 1.8-.5-.8 1.3-.74.52-.3-.01-.02-.48-.06-1.31-.2-.02-.02.56-1.2c.13-.3.21-.43.21-.43v-.02l-.54.28-1.34.67-.4-.84 3.2-1.6zm2.36 3.87l.7.63-1.42 1.7c-.23.28-.21.57.14.86.35.27.64.22.86-.08l1.31-1.78.78.54-1.35 1.82c-.61.84-1.41.68-2.1.13-.7-.54-1.05-1.28-.38-2.08l1.46-1.74zm1.41 1.16l-.87.61-.02-.01.39-1 .5.4zm1.51 1.02l.92.34.53 1.79.15.6h.03l.15-.6.38-1.42.9.22-.92 3.44-.96-.23-.6-1.87-.16-.6H12l-.18.58-.48 1.45-.87-.32 1.13-3.38zm6.93 3.08c.01.85-.51 1.43-1.52 1.5-.95.06-1.83-.37-1.88-1.75-.05-1.39.72-1.91 1.62-1.98.99-.06 1.56.48 1.65 1.23l-.95.06c-.1-.32-.26-.51-.68-.48-.4.02-.67.39-.64 1.1.03.75.34 1.04.78 1.01s.63-.24.66-.62l.96-.07zm.21-2.46l.89-.34.5 1.2 1.1-.5-.57-1.16.83-.45 1.59 3.2-.84.44-.63-1.27-1.15.53.54 1.3-.89.34-1.37-3.29zM22.05 24l1.7-1.63.55.54-1.07 1.02.41.45 1.03-1 .54.53-1.07 1.02.45.5 1.2-1.15.55.53-1.91 1.83L22.05 24zm2.13-2.14l.5-.86 1.84-.21c.4-.05.61-.06.61-.06l.01-.02s-.25-.1-.55-.25l-1.34-.61.36-.86 3.23 1.49-.39.9-1.94.27c-.38.05-.6.06-.6.06l-.02.03.54.27 1.34.73-.46.8-3.13-1.68zM3.8 10.06l.72.29-.57 1.58.67.22.53-1.48.7.28-.52 1.43 1.25.4-.27.92-3.41-1.11.9-2.52zm4.37-2.34c.62.56.73 1.32.11 2.1-.56.7-1.43 1.05-2.55.22-1.1-.82-.96-1.8-.37-2.54.62-.78 1.41-.85 2.03-.41l-.6.75c-.28-.16-.55-.15-.82.2s-.21.77.38 1.21c.58.43 1.03.42 1.27.1.27-.34.22-.61-.04-.88l.6-.75zm2.34-4.03c.63-.3 1.25-.36 1.52.28.22.53.08.76-.2 1l.02.01c.3-.06.69-.05.93.54.3.7-.15 1.11-.79 1.4l-1.33.62-1.6-3.19 1.45-.66zm.54 1.28c.24-.11.31-.23.22-.46-.1-.24-.26-.25-.5-.14l-.53.25.3.6.5-.25zm.6 1.3c.27-.12.34-.22.23-.5-.1-.25-.3-.25-.57-.13l-.46.22.33.63.47-.21zM17 6.02h-1.01l-.3-.63-1.22.1-.18.68-1 .17 1-3.72 1.1-.1 1.6 3.5zM15.42 4.7l-.3-.7-.2-.44h-.01l-.1.46-.19.74.8-.06zm2.48.28l-.84-2.53 1.07.2.32 1.08c.07.2.12.42.12.42h.01l.28-.33.74-.84 1.05.26-1.8 1.95-.27 1.18-.93-.2.24-1.19zm3.48-1.44l2.24 1.23-.4.66-1.38-.76-.27.55 1.27.7-.38.64-1.24-.68-.3.6 1.35.74-.4.66-2.1-1.17 1.6-3.17zm3.48 2.2l1.09 1.16c.56.6.69 1.17.03 1.75-.43.37-.74.47-1.11.32l-.57 1.44-.67-.83.52-1.17-.31-.33-.84.84-.7-.66 2.56-2.53zm-.5 1.82l.37.4c.2.21.38.22.6.02.24-.2.23-.4.03-.6l-.4-.42-.6.6zm1.4 6.14l-.33-.94 1.05-1.53.36-.5-.01-.03s-.25.13-.56.26l-1.34.61-.4-.83 3.24-1.47.43.89-1.06 1.64c-.2.3-.36.5-.36.5l.01.03.57-.23 1.42-.54.3.88-3.32 1.26z"/></svg>