<svg version="1.1" xmlns="http://www.w3.org/2000/svg" viewBox="0 0 32 32"><path fill="#ecc200" d="M15.76 31.87a33.36 33.36 0 0 0-6.81-4.61c-3.52-1.8-6.59-3.37-7.63-7.75-.02-.08.02-.38.06-.45A8.52 8.52 0 0 0 .16 9.1c-.21-.21-.21-.65 0-.87l6.2-6.4a1 1 0 0 1 .61-.17c3.1.77 6.19.12 8.87-1.58.15-.1.51-.1.67 0a11.3 11.3 0 0 0 8.86 1.58c.16-.03.5.07.6.18l6.21 6.39c.22.22.22.66 0 .87a8.52 8.52 0 0 0-1.21 9.97c.04.07.07.37.06.45-1.05 4.38-4.12 5.95-7.63 7.75a33.36 33.36 0 0 0-6.82 4.6c-.2.19-.61.19-.82 0z"/><path fill="#5d3b85" d="M16.17 30.56a34.3 34.3 0 0 1 2.46-1.94 26.14 26.14 0 0 1 4.2-2.5c3.16-1.61 5.94-3.03 6.9-6.69a9.77 9.77 0 0 1 1.14-10.76l-5.55-5.7c-3.2.68-6.36.04-9.15-1.63a12.5 12.5 0 0 1-9.14 1.62L1.48 8.67A9.78 9.78 0 0 1 2.6 19.43c.96 3.66 3.74 5.08 6.91 6.7l1.1.56a26.3 26.3 0 0 1 3.1 1.93c.83.6 1.65 1.25 2.46 1.94z"/><path fill="#ecc200" d="M16.17 23.79a8.23 8.23 0 0 0 8.22-8.22c0-4.52-3.7-8.22-8.22-8.22s-8.22 3.7-8.22 8.22c0 4.53 3.7 8.21 8.22 8.21z"/><path fill="#fff" d="M16.17 22.52a6.96 6.96 0 0 0 6.95-6.95c0-3.83-3.13-6.95-6.95-6.95s-6.95 3.12-6.95 6.95a6.96 6.96 0 0 0 6.95 6.95z"/><path fill="#ecc200" d="M12.42 19.59c.13.09.27.17.42.25l-.04-.03c-.12-.1-.25-.18-.38-.22zm.9.44l.15.04c.1-.04.2-.12.3-.19.16-.11.31-.22.46-.22s.3.1.46.22c.17.12.34.24.51.24s.35-.12.52-.24c.15-.11.3-.22.45-.22s.3.1.46.22c.17.12.33.24.51.24s.35-.12.51-.24c.16-.11.31-.22.46-.22s.3.1.46.22c.1.07.2.15.3.2l.16-.05a1.06 1.06 0 0 1-.4-.22c-.17-.12-.34-.24-.52-.24s-.35.11-.51.24c-.16.1-.31.22-.46.22s-.3-.11-.46-.22c-.17-.12-.34-.24-.5-.24s-.35.11-.52.24c-.15.1-.31.22-.46.22s-.3-.11-.46-.22c-.16-.12-.33-.24-.5-.24s-.35.11-.52.24c-.14.1-.27.2-.4.22zm.51.13a.74.74 0 0 1 .4-.16c.18 0 .35.12.51.24.16.12.31.23.46.23s.3-.11.46-.23c.17-.12.34-.23.51-.23s.34.11.5.23c.17.12.32.23.47.23s.3-.11.46-.23c.16-.12.33-.23.5-.23.14 0 .28.06.4.15l-.12.03a.54.54 0 0 0-.27-.1c-.15 0-.3.12-.46.23l-.07.05-.34.09c-.08.02-.16.04-.24.08a1.43 1.43 0 0 1-.37-.22c-.16-.12-.32-.23-.46-.23s-.3.11-.46.23c-.12.09-.25.18-.37.22a2.15 2.15 0 0 0-.24-.08l-.34-.1-.07-.04c-.16-.11-.31-.23-.46-.23a.54.54 0 0 0-.27.1c-.05 0-.09-.02-.13-.03zm.31.07l.1.02.28.06-.03-.01a.57.57 0 0 0-.26-.08l-.09.01zm1.5.46l.1.05c.14-.1.3-.21.43-.21s.29.1.44.21a.5.5 0 0 1 .08-.05c-.18-.13-.35-.25-.52-.25s-.34.12-.5.24l-.02.01zm.17.1l.1-.05c.09-.05.18-.08.26-.08s.18.03.26.08l.1.06-.07.06-.07-.04c-.07-.04-.15-.07-.22-.07s-.14.03-.22.07l-.07.04-.07-.06zm2.02-.48l.27-.06a.7.7 0 0 0 .1-.02h-.09a.57.57 0 0 0-.26.07l-.02.01zm1.67-.47c.15-.08.3-.16.42-.25-.13.04-.25.13-.38.22l-.04.03z"/><path fill="#ecc200" d="M12.87 14a.7.7 0 0 1 .07.11l.04-.02v.1a1.13 1.13 0 0 1 .13.57l1.28-.68v1.07h-1.1l.28.34-.28.34h1.1v.66l-2.94 1.56.03.14.1-.05v.34l.02.07.06.13.06.12 2.67-1.42v1.78c-.26-.1-.47.06-.67.2-.16.12-.31.23-.46.23s-.3-.1-.46-.22c-.17-.12-.34-.24-.51-.24-.1 0-.2.03-.28.09l.06.07a.46.46 0 0 1 .22-.07c.15 0 .3.11.46.22.17.12.34.24.51.24s.34-.11.51-.24c.4-.29.52-.29.92 0 .17.12.34.24.51.24s.35-.11.52-.24c.4-.29.5-.29.9 0 .17.12.34.24.52.24s.35-.11.51-.24c.4-.29.52-.28.92 0 .17.12.34.24.5.24.19 0 .35-.11.52-.24.16-.1.32-.22.46-.22.07 0 .15.03.22.07l.06-.07a.56.56 0 0 0-.28-.09c-.17 0-.34.12-.51.24-.16.11-.31.22-.46.22-.14 0-.3-.1-.46-.22-.2-.15-.41-.3-.67-.21v-1.78l2.67 1.42a.85.85 0 0 0 .06-.12l.06-.13.03-.07v-.34l.09.05.03-.14-2.94-1.56v-2.41l1.29.68v-.15c.01-.15.05-.3.12-.42v-.1l.04.02a.7.7 0 0 1 .08-.12l-1.53-.8v-1.6h-.23v.26h-1.1l.28.34-.28.35h1.1v.63h-3.1V11.6h-.23v.25h-1.1l.28.34-.27.35h1.1v.65l-1.53.8z"/><path fill="#3ba1ce" d="M17.37 13.86h.35v-.55h-.35zm-.46 0h.32v-.55h-.32zm-.45 0h.32v-.55h-.32zm-.44 0h.3v-.55h-.3zm-.46 0h.32v-.55h-.32zm-.46 0h.33v-.55h-.32zm-.47-.56v.56h.34v-.55zm2.74 3.87h.35v-.56h-.35zm-.46 0h.32v-.56h-.32zm-.45 0h.32v-.56h-.32zm-.44 0h.3v-.56h-.3zm-.46 0h.32v-.56h-.32zm-.46 0h.33v-.56h-.32zm-.47 0h.34v-.56h-.34zm-1.51-3.15l.34-.18v.58l-.34.18zm.48-.25l.32-.18v.58l-.33.18zm.46-.25l.33-.18v.58l-.33.18zm-2.35 4.55l.33-.18v.59l-.33.17zm.47-.25l.34-.18v.59l-.34.17zm.47-.25l.33-.18v.58l-.33.18zm.47-.25l.34-.18v.58l-.34.18zm.48-.25l.32-.18v.58l-.33.18zm.46-.25l.33-.18v.58l-.33.18zm6.57 1.83l-.33-.17v-.59l.33.18zm-.47-.25l-.33-.17v-.6l.33.19zm-.46-.25l-.34-.17v-.6l.33.19zm-.48-.25l-.33-.17v-.59l.33.18zm-.47-.25l-.33-.18v-.58l.33.18zm-.47-.25l-.33-.18v-.58l.33.18zm.94-2.8l-.33-.18v-.58l.33.18zm-.47-.25l-.33-.18v-.58l.33.18zm-.47-.25l-.33-.18v-.58l.33.18zm1.12.01a.48.48 0 0 0-.04.08v-.1l.04.02zm1.46 4.08c-.03.1-.05.2-.1.3v-.35l.1.05zm-7.92-4.08l.04.08v-.1l-.04.02zm-1.46 4.08l.1.3v-.35l-.1.05zm.24.61c.08.15.17.28.29.42a.56.56 0 0 1 .28-.09c.18 0 .34.12.51.24.16.11.31.22.46.22s.3-.1.46-.22c.2-.15.41-.3.67-.21v-1.78l-2.67 1.42zm2.24 1.4l.18.03h.1a.57.57 0 0 1 .28.08l.24.06-.07-.05c-.15-.11-.31-.23-.46-.23a.54.54 0 0 0-.27.1zm1.38.34c.1.04.21.09.3.15h.02c.17-.13.34-.25.51-.25s.34.12.5.24l.02.01c.1-.06.2-.11.31-.15a1.43 1.43 0 0 1-.37-.22c-.16-.11-.32-.23-.46-.23s-.3.12-.46.23c-.12.09-.25.18-.37.22zm2.24-.17a4.19 4.19 0 0 1 .27-.07.57.57 0 0 1 .26-.08l.09.01.18-.04a.54.54 0 0 0-.27-.1c-.15 0-.3.12-.46.23l-.07.05zm-1.7.49c.11.1.2.2.3.34.07-.13.17-.25.28-.34l-.07-.04c-.07-.04-.15-.07-.22-.07s-.14.03-.22.07l-.07.04z"/><path fill="#3ba1ce" d="M15.73 20.75l.08.05.1-.06c.08-.05.18-.08.26-.08s.18.03.26.08l.1.06.08-.05c-.15-.12-.3-.22-.44-.22s-.29.1-.44.22zm5.16-2.7c.12-.62.06-1.31-.1-2-.76.01-1.53-.46-1.55-1.3l-1.3-.67v2.4l2.95 1.57zm-.56 1.17c.12-.13.21-.27.29-.42l-2.67-1.42v1.78c.26-.1.47.07.67.2.16.12.32.23.46.23.15 0 .3-.1.46-.22.17-.12.34-.24.51-.24.1 0 .2.03.28.09z"/><path fill="#3ba1ce" d="M12.07 19.29c.1.1.22.2.35.3.13.04.26.13.38.22l.04.03.39.16.09.03c.13-.02.26-.12.4-.22.17-.12.34-.24.51-.24s.35.12.51.24c.16.1.31.22.46.22s.3-.11.46-.22c.17-.12.34-.24.51-.24s.34.12.51.24c.16.1.31.22.46.22s.3-.11.46-.22c.16-.12.33-.24.5-.24s.35.12.52.24c.14.1.27.2.4.22l.1-.03.38-.16.04-.03c.13-.1.25-.18.38-.22.13-.1.25-.2.35-.3a.46.46 0 0 0-.22-.07c-.15 0-.3.11-.46.22-.17.13-.33.24-.51.24-.17 0-.34-.11-.51-.24-.4-.28-.52-.29-.92 0-.16.13-.33.24-.51.24s-.34-.11-.51-.24c-.4-.29-.52-.29-.92 0-.16.13-.33.24-.51.24s-.34-.11-.5-.24c-.4-.29-.53-.29-.93 0-.17.13-.33.24-.5.24s-.35-.11-.52-.24c-.16-.1-.31-.22-.46-.22a.46.46 0 0 0-.22.07z"/><path fill="#3ba1ce" d="M13.47 20.07l.36.1a.74.74 0 0 1 .4-.16c.18 0 .35.11.51.23.16.12.31.23.46.23s.3-.11.46-.23c.17-.11.34-.23.51-.23s.34.11.5.23c.17.12.32.23.47.23s.3-.11.46-.23c.16-.11.33-.23.5-.23a.7.7 0 0 1 .4.16l.37-.1c-.1-.04-.2-.12-.3-.19-.16-.11-.31-.22-.46-.22s-.3.1-.46.22c-.17.12-.33.24-.51.24s-.35-.12-.51-.24c-.16-.11-.32-.22-.46-.22s-.3.1-.46.22c-.16.12-.33.24-.51.24s-.35-.12-.51-.24c-.16-.11-.31-.22-.46-.22s-.3.1-.46.22c-.1.07-.2.15-.3.2zm4.25-4.37v-.41h-.82l.17.2-.17.2zm0-3.71h-.82l.17.2-.17.21h.82zm-3.32 0h-.82l.16.2-.16.21h.81zm0 3.71v-.41h-.82l.16.2-.16.2z"/><path fill="#3ba1ce" d="M13.1 14.76c-.02.83-.79 1.3-1.55 1.29a4.8 4.8 0 0 0-.1 2l2.94-1.56v-.65h-1.1l.28-.34-.28-.35h1.1v-1.07l-1.28.68zm2.19-3.98a1.6 1.6 0 0 1-1.65.02c-.4.36-.9.57-1.42.65-.03.27-.24.53-.53.5a4.35 4.35 0 0 0-.09 1.5 1.36 1.36 0 0 1 1.27.55l1.52-.81v-.65h-1.1l.28-.35-.27-.34h1.1v-.25h.23v1.57h3.09v-.63h-1.1l.27-.35-.27-.34h1.1v-.25h.23v1.59l1.52.8a1.36 1.36 0 0 1 1.27-.54 5.91 5.91 0 0 0-.1-1.5c-.28.03-.5-.24-.52-.5a2.76 2.76 0 0 1-1.42-.65c-.54.27-1.12.31-1.65-.02-.23.37-.76.27-.88-.16-.12.43-.65.53-.88.16zM14.63 14v2.48h3.09v-.65h-1.1l.27-.34-.27-.34h1.1V14zm-.01 5.29l.12.08c.16.11.31.22.46.22s.3-.1.46-.22c.43-.31.59-.31 1.02 0 .16.11.31.22.46.22s.3-.1.46-.22l.12-.09V17.3h-3.1v1.99z"/><path fill="#ecc200" d="M7.57 11.84l-1.64-.87.57-1.06.3.16-.35.65.36.19.32-.62.31.17-.32.61.67.36zm1.65-2.78a1.5 1.5 0 0 1-.3.67c-.1.1-.2.2-.3.26a.87.87 0 0 1-.74.1.96.96 0 0 1-.34-.19.9.9 0 0 1-.36-.66c-.02-.26.07-.51.27-.76l.23-.23c.1-.07.19-.13.3-.18l.33.28a1.17 1.17 0 0 0-.54.35c-.12.15-.17.3-.16.44s.09.28.23.4a.55.55 0 0 0 .8-.08 1 1 0 0 0 .16-.3c.04-.12.07-.24.08-.38l.34.28zm.97-.7L9.12 6.84l1.02-.71.2.28-.64.44.21.31.61-.42.2.28-.6.43.25.36.65-.46.2.28zm1.54-2.26c.08-.03.13-.08.15-.13s.02-.1 0-.17-.08-.1-.13-.12a.28.28 0 0 0-.2.03l-.2.09.18.39.2-.09zm-.18 1.28l-.76-1.7.63-.27c.23-.1.41-.14.56-.11.15.03.26.13.33.3.04.09.05.18.04.27a.67.67 0 0 1-.15.27c.05 0 .1 0 .15.03s.1.05.15.1l.53.46-.48.2-.44-.38c-.07-.07-.13-.1-.19-.11s-.13 0-.2.04l-.03.01-.02.01.3.7-.42.18zm1.54-.71l.65-1.7-.91.2-.08-.33 1.68-.39-.65 1.69.99-.23.08.35zm3.78-.68c-.1.08-.23.15-.35.2-.13.03-.27.06-.41.06-.15 0-.28-.02-.4-.06a.9.9 0 0 1-.55-.5 1 1 0 0 1-.08-.38c0-.3.09-.52.28-.7s.44-.28.76-.28a1.3 1.3 0 0 1 .69.16v.4a1.8 1.8 0 0 0-.35-.13 1.27 1.27 0 0 0-.3-.04.64.64 0 0 0-.45.16c-.1.1-.15.24-.15.42s.06.31.16.41.24.16.41.15l.13-.01a.94.94 0 0 0 .14-.05v-.23h-.26v-.35l.72-.01.01.78zm.43.28l.32-1.83 1.22.21-.06.34-.76-.14-.06.38.72.13-.05.34-.74-.13-.07.43.79.14-.07.35zm2.18.18l.25.1c.11.04.2.06.26.04.06 0 .1-.05.13-.12a.23.23 0 0 0-.01-.2.47.47 0 0 0-.22-.14l-.25-.1-.16.42zm.5-.65c.08.04.14.05.2.03s.08-.05.1-.12c.03-.06.03-.12 0-.16a.27.27 0 0 0-.15-.12l-.23-.09-.14.38.22.09zm-1.06.8l.66-1.73.64.24a1 1 0 0 1 .47.31c.1.12.11.26.05.4a.36.36 0 0 1-.13.18.41.41 0 0 1-.23.07c.1.09.18.18.2.28.04.1.03.2-.02.31-.06.17-.16.27-.3.31a.93.93 0 0 1-.57-.07l-.77-.3zm1.77.79l.9-1.62.42.23-.9 1.62zm2.05.05c.07.05.13.08.19.07.05 0 .1-.03.15-.09a.18.18 0 0 0 .04-.16c0-.06-.05-.11-.11-.16l-.18-.14-.26.34.17.14zm-1.22.44l1.15-1.47.54.42c.2.16.32.3.36.45s0 .3-.11.43a.42.42 0 0 1-.22.16.6.6 0 0 1-.31 0c.02.04.04.09.04.14l-.01.18-.16.68-.41-.32.14-.56a.4.4 0 0 0 0-.23.38.38 0 0 0-.13-.16l-.02-.02h-.02l-.47.58-.37-.28zm2.67 2.37a1.38 1.38 0 0 1-.38-.16 1.32 1.32 0 0 1-.3-.29.83.83 0 0 1-.2-.35.89.89 0 0 1 .06-.74c.05-.1.14-.2.25-.3a.9.9 0 0 1 .72-.21c.26.04.49.18.68.43a1.7 1.7 0 0 1 .3.64l-.3.26c-.04-.14-.07-.26-.12-.37s-.1-.2-.16-.27c-.12-.15-.25-.23-.4-.24a.54.54 0 0 0-.42.14.56.56 0 0 0-.23.38c-.02.14.03.28.14.41a.75.75 0 0 0 .21.18l.19-.15-.16-.2.27-.22.45.57-.6.49zm.03.53l1.64-.88.58 1.1-.3.16-.37-.69-.33.18.35.65-.3.17-.35-.66-.4.21.38.7-.3.17zm-10.28 15.1l.54.1-.12-.74-.42.64zm-.9.52l1.16-1.67.52.1.36 1.97-.49-.1-.06-.38-.78-.15-.22.33-.49-.1zm4.66.28l-.35-1.83 1.22-.24.07.34-.77.15.08.37.72-.14.07.34-.73.14.08.43.79-.15.06.34zm-1.53-5.08c-.68-1.05-1.93-.95-3.04-1.28-2.23-.68-2.44-2.77-1.86-4.7.65.1 1.4-.05 1.45-.82a.92.92 0 0 0-.59-.91 1.2 1.2 0 0 0-.88 0 5.1 5.1 0 0 1 .21-2.44c-.02-.25.23-.5.45-.33a2.5 2.5 0 0 0 1.67-.76c.63.37 1.2.43 1.75-.07.1-.1.19-.24.33-.24.41 0 .41.76 0 .76-.14 0-.26-.13-.28-.32-.53.44-1.14.45-1.77.1a2.6 2.6 0 0 1-1.59.7c.09.3-.2.62-.44.4-.2.63-.2 1.31-.14 1.98.3-.08.57-.05.81.05.43.19.71.61.67 1.08-.06.75-.8 1.13-1.5 1.06-.47 1.77-.27 3.6 1.74 4.3.6.21 1.24.28 1.9.47.48.14.9.4 1.11.98z"/><path fill="#ecc200" d="M16.17 21.6c.68-1.05 1.94-.95 3.04-1.28 2.24-.68 2.44-2.77 1.87-4.7-.66.1-1.4-.05-1.46-.82a.92.92 0 0 1 .59-.91c.27-.11.6-.12.89 0a5.1 5.1 0 0 0-.22-2.44c.02-.25-.23-.5-.45-.33a2.5 2.5 0 0 1-1.66-.76c-.64.37-1.2.43-1.76-.07-.1-.1-.19-.24-.33-.24-.4 0-.4.76 0 .76.14 0 .27-.13.29-.32.52.44 1.13.45 1.76.1.45.43 1 .64 1.59.7-.09.3.2.62.45.4.19.63.2 1.31.13 1.98-.3-.08-.57-.05-.81.05a1.1 1.1 0 0 0-.67 1.08c.06.75.8 1.13 1.5 1.06.47 1.77.27 3.6-1.74 4.3-.6.21-1.24.28-1.89.47-.49.14-.91.4-1.12.98z"/><path fill="#ecc200" d="M15.66 20.46l.25-.16c.08-.04.18-.08.26-.08s.18.04.26.08l.26.16c.05.04 0 .12-.06.08l-.23-.16c-.08-.04-.16-.07-.23-.07s-.14.03-.22.07c-.08.04-.15.1-.24.16-.05.04-.1-.04-.05-.07zm-1.9-.46l.23-.15a.6.6 0 0 1 .24-.07c.09 0 .17.04.26.08.08.04.16.1.24.16.06.04 0 .1-.05.07l-.23-.15a.51.51 0 0 0-.22-.07.48.48 0 0 0-.2.06l-.21.14c-.06.03-.11-.04-.06-.08zm1.9.03l.25-.16c.08-.05.18-.09.26-.09s.18.04.26.09c.09.04.17.1.26.16.05.04 0 .11-.06.07l-.23-.16a.48.48 0 0 0-.23-.07c-.07 0-.14.03-.22.07s-.15.1-.24.16c-.05.04-.1-.03-.05-.07zm1.94-.01l.25-.16a.57.57 0 0 1 .26-.08.6.6 0 0 1 .24.07l.23.14c.05.04 0 .12-.05.08l-.22-.14a.49.49 0 0 0-.2-.06.51.51 0 0 0-.22.07l-.23.15c-.05.04-.1-.03-.05-.07zm-2.07 6.57a.79.79 0 0 1-.22-.6l.01-1.07h.46v1.04c0 .15.03.27.1.35.14.16.44.16.59 0 .07-.08.1-.2.1-.34l-.01-1.05h.46l.01 1.06c0 .26-.07.46-.22.61-.31.3-.96.3-1.28 0zm-1.77-7.03l.23-.15a.54.54 0 0 1 .24-.06c.09 0 .17.03.26.07l.24.16c.06.04 0 .11-.05.08l-.23-.16a.46.46 0 0 0-.22-.06.43.43 0 0 0-.2.06 1.2 1.2 0 0 0-.21.13c-.06.04-.11-.04-.06-.07zm1.9.03l.25-.16c.08-.05.18-.08.26-.08s.18.03.26.08c.09.04.17.1.26.16.05.04 0 .11-.06.07l-.23-.16c-.08-.04-.16-.06-.23-.06s-.14.02-.22.06l-.24.16c-.05.04-.1-.03-.05-.07zm1.94-.01l.25-.16a.57.57 0 0 1 .26-.07c.08 0 .16.02.24.06.08.04.15.1.23.15.05.03 0 .1-.05.07l-.22-.13a.43.43 0 0 0-.2-.06c-.07 0-.14.02-.22.06s-.15.1-.23.16c-.05.03-.1-.04-.05-.08z"/></svg>