<svg id="svg4593" xmlns="http://www.w3.org/2000/svg" viewBox="0 0 590 590"><style>.st0{fill:#fff}.st3{fill:#293235}.st5{fill:#76cc6e}.st6{fill:none;stroke:#293235;stroke-width:5.2176;stroke-linejoin:round}.st9{fill:#2e2a2b}</style><g id="layer1" transform="translate(-77.46 -194.9)"><path id="path3029" class="st0" d="M372.3 778.2c159.2 0 288.2-129 288.2-288.2s-129-288.2-288.2-288.2S84.1 330.8 84.1 490s129.1 288.2 288.2 288.2"/><path id="path3033" d="M372.3 778.2c159.2 0 288.2-129 288.2-288.2s-129-288.2-288.2-288.2S84.1 330.8 84.1 490s129.1 288.2 288.2 288.2z" fill="none" stroke="#76cc6e" stroke-width="8.7"/><path id="path3037" d="M105.1 490c0-147.4 119.9-267.2 267.2-267.2 147.3 0 267.2 119.9 267.2 267.2 0 147.3-119.9 267.2-267.2 267.2-147.3 0-267.2-119.8-267.2-267.2z" fill="none" stroke="#76cc6e" stroke-width="5.22"/><path id="path3041" class="st3" d="M324.3 592.8c-9.5-6.1-13-14.2-8.3-15.9 6.4-2.3 11.1 6.5 12.1 11.4 1.1 5.3-.6 6.5-3.8 4.5m95.1-4.8c1-4.8 5.7-13.6 12.1-11.3 4.7 1.6 1.1 9.8-8.3 15.9-3.1 2-4.9.7-3.8-4.6m63-78.4s-4.2 40.9 32.1 92.7c-11.6 3.4-23.1 11.9-30.3 18.5-12 11-20.5 28-34.4 35.5-3 1.6-6.6 2.5-9.8 2.5 1.2-3.5 1.8-7.4 1.8-11.8 0-15.8-10.3-26.9-24.2-34 5.8-11.2 16.4-23 20-25.4 12.9-8.7-5.7-22.7-17.4-14-6 4.5-16.4 16.3-20.2 32.9-8.9-2.3-18.2-3.4-26.7-3.4-8.4 0-17.7 1.1-26.7 3.4-3.9-16.6-14.2-28.4-20.2-32.9-11.7-8.7-30.3 5.3-17.4 14 3.6 2.4 14.2 14.2 20 25.4-13.9 7.1-24.2 18.2-24.2 34 0 4.4.7 8.3 1.8 11.8-3.2 0-6.8-.9-9.8-2.5-13.9-7.5-22.5-24.5-34.4-35.5-7.2-6.6-18.7-15.1-30.3-18.5 36.3-51.9 32.1-92.7 32.1-92.7s-.8-55.7-42.3-94.2c9.8-7.1 17.7-19 22.2-27.6 7.6-14.4 9.8-33.3 20.4-45 10.6-11.7 32.9-5.3 32.9-5.3s42.5-34 75.7-34c33.1 0 75.7 34 75.7 34s22.3-6.4 32.9 5.3c10.6 11.7 12.9 30.6 20.4 45 4.6 8.6 12.5 20.5 22.2 27.6-41.1 38.5-41.9 94.2-41.9 94.2M414 624.2c.1-1.1.3-2.2.7-3.4 10.9 7.4 12.9 18.3 12.6 23.8-1.5 1.3-3.4 2-5.6 2.2-4.8-5.5-8.6-13-7.7-22.6m-23.1 9.5c-3.8-1.9-10.5-3.4-11-12.1-.7-11.7 10-10.9 19.7-7.7.7 7.3 4.2 19.4 11.5 31.2-2.2-.8-4.2-1.8-5.4-2.7-4.2-3-11-6.8-14.8-8.7m-34.8 0c-3.8 1.9-10.6 5.7-14.8 8.7-1.2.9-3.2 1.9-5.4 2.7 7.3-11.8 10.8-23.9 11.5-31.2 9.6-3.1 20.4-4 19.7 7.7-.5 8.6-7.2 10.2-11 12.1m-30.7 13.1c-2.2-.2-4.2-.8-5.6-2.2-.4-5.5 1.6-16.5 12.6-23.8.3 1.2.6 2.3.7 3.4.8 9.6-3 17.1-7.7 22.6m215.7-225.3c-13.6-9.5-19.3-24.6-21.2-31-3-10.2-3.8-27.6-9.5-40.1-6.2-13.6-18.9-25-34.4-25-8.1 0-15.1 3.3-19.9 6.5-4.6-9.6-34.3-49.6-82.6-49.6s-78 40.1-82.6 49.6c-4.8-3.2-11.8-6.5-19.9-6.5-15.5 0-28.3 11.4-34.4 25-5.7 12.5-6.4 29.9-9.5 40.1-1.9 6.4-7.6 21.6-21.2 31 0 0 40.1 37.4 44.6 88.5 0 40.1-35.6 92.1-35.6 92.1 16 4.3 26.5 16.6 30.4 22 6.3 8.6 12.9 24.7 22.5 34.5 10.4 10.7 26.2 17.1 40.8 11.9 1.3-.5 2.5-1 3.7-1.6 15.9 20.4 52.9 24.2 61.1 43.4 8.3-19.2 45.2-22.9 61.1-43.4 1.2.6 2.4 1.1 3.7 1.6 14.6 5.2 30.4-1.2 40.8-11.9 9.6-9.8 16.1-25.9 22.4-34.5 4-5.4 14.4-17.7 30.4-22 0 0-35.6-52-35.6-92.1 4.8-51.1 44.9-88.5 44.9-88.5"/><path id="path3045" d="M373.5 638.2v-85.5" fill="none" stroke="#293235" stroke-width="12.17"/><path id="path3049" class="st5" d="M373.5 340.1s-5 17.5-15.5 12.1c-20.4-10.6 13.3-41.3 15.5-43.5 2.6 2.6 34.8 32.2 15.1 43.5-7.2 4.2-15.1-12.1-15.1-12.1"/><path id="path3053" class="st6" d="M373.5 340.1s-5 17.5-15.5 12.1c-20.4-10.6 13.3-41.3 15.5-43.5 2.6 2.6 34.8 32.2 15.1 43.5-7.2 4.2-15.1-12.1-15.1-12.1z"/><path id="path3057" class="st5" d="M340.9 368.4S351 381.6 338 385c-17.1 4.3-14.6-31.7-16.3-39.2 6.9 1.1 41.6 4.2 35.8 21.6-3.7 11.1-16.6 1-16.6 1"/><path id="path3061" class="st6" d="M340.9 368.4S351 381.6 338 385c-17.1 4.3-14.6-31.7-16.3-39.2 6.9 1.1 41.6 4.2 35.8 21.6-3.7 11.1-16.6 1-16.6 1z"/><path id="path3065" class="st5" d="M325.1 407.7s1.1 16-11.4 10.7c-16.2-6.9 5-31.8 12.2-41.6-.4 13.2 24.1 29.5 11.3 39.3-9.2 7.1-12.1-8.4-12.1-8.4"/><path id="path3069" class="st6" d="M325.1 407.7s1.1 16-11.4 10.7c-16.2-6.9 5-31.8 12.2-41.6-.4 13.2 24.1 29.5 11.3 39.3-9.2 7.1-12.1-8.4-12.1-8.4z"/><path id="path3073" class="st5" d="M280.1 391.4s.4 14.6-10 10.8c-19.7-7.2 5.4-42.2 5.4-42.2s30.1 24.5 16.4 36.9c-8.6 7.8-11.8-5.5-11.8-5.5"/><path id="path3077" class="st6" d="M280.1 391.4s.4 14.6-10 10.8c-19.7-7.2 5.4-42.2 5.4-42.2s30.1 24.5 16.4 36.9c-8.6 7.8-11.8-5.5-11.8-5.5z"/><path id="path3081" class="st5" d="M270.8 430.6s12.2-9.5 15.6 2.2c4.7 16.1-26.1 9.5-35.4 20 2.1-13.5-.8-40 17.3-36.6 11.4 2.1 2.5 14.4 2.5 14.4"/><path id="path3085" class="st6" d="M270.8 430.6s12.2-9.5 15.6 2.2c4.7 16.1-26.1 9.5-35.4 20 2.1-13.5-.8-40 17.3-36.6 11.4 2.1 2.5 14.4 2.5 14.4z"/><path id="path3089" class="st5" d="M299.5 451.6s9.5-10.9 13.8.5c6.1 15.9-23.8 17.8-32.1 19.1 1.1-10.8.6-38.2 16.6-33.5 9.1 2.7 1.7 13.9 1.7 13.9"/><path id="path3093" class="st6" d="M299.5 451.6s9.5-10.9 13.8.5c6.1 15.9-23.8 17.8-32.1 19.1 1.1-10.8.6-38.2 16.6-33.5 9.1 2.7 1.7 13.9 1.7 13.9z"/><path id="path3097" class="st5" d="M304.1 503.7s2.8 14.2-7.4 12.7c-19.4-2.9-1.9-26.1-.4-35.2 6.4 6.4 31.4 15.5 23.5 27.7-6.3 9.7-15.7-5.2-15.7-5.2"/><path id="path3101" class="st6" d="M304.1 503.7s2.8 14.2-7.4 12.7c-19.4-2.9-1.9-26.1-.4-35.2 6.4 6.4 31.4 15.5 23.5 27.7-6.3 9.7-15.7-5.2-15.7-5.2z"/><path id="path3105" class="st5" d="M336.6 470s13.1-6.7 11.8 3.9c-1.7 13.3-18.2 11-27.4 14.9-3.8-16.3 2.6-37.5 14.6-29.5 5.7 3.9 1 10.7 1 10.7"/><path id="path3109" class="st6" d="M336.6 470s13.1-6.7 11.8 3.9c-1.7 13.3-18.2 11-27.4 14.9-3.8-16.3 2.6-37.5 14.6-29.5 5.7 3.9 1 10.7 1 10.7z"/><path id="path3113" class="st5" d="M348.8 520.7s-1.5 12.2-9.7 5.5c-10.4-8.5-1.1-22.7 4.5-31.4 4.9 8.3 28.8 20.8 14.8 30.6-5.7 4.1-9.6-4.7-9.6-4.7"/><path id="path3117" class="st6" d="M348.8 520.7s-1.5 12.2-9.7 5.5c-10.4-8.5-1.1-22.7 4.5-31.4 4.9 8.3 28.8 20.8 14.8 30.6-5.7 4.1-9.6-4.7-9.6-4.7z"/><path id="path3121" class="st5" d="M316.1 552.7s12.7-8.6 13.5 1.9c1 13.4-18.5 13.9-26.9 19.6-5.7-15.4-2.3-36 11-30.5 6.5 2.6 2.4 9 2.4 9"/><path id="path3125" class="st6" d="M316.1 552.7s12.7-8.6 13.5 1.9c1 13.4-18.5 13.9-26.9 19.6-5.7-15.4-2.3-36 11-30.5 6.5 2.6 2.4 9 2.4 9z"/><path id="path3129" class="st5" d="M277.8 546.5s12.2-9.4 13.6 1.1c1.8 13.3-14.3 18-25.6 21.2-6.6-15-3.1-34.3 9.1-31.2 6.7 1.8 2.9 8.9 2.9 8.9"/><path id="path3133" class="st6" d="M277.8 546.5s12.2-9.4 13.6 1.1c1.8 13.3-14.3 18-25.6 21.2-6.6-15-3.1-34.3 9.1-31.2 6.7 1.8 2.9 8.9 2.9 8.9z"/><path id="path3137" class="st5" d="M406.1 368.4s-10.1 13.2 3 16.6c17.1 4.3 14.3-29 16.3-39.2-8 1.8-41.6 4.2-35.8 21.7 3.6 11 16.5.9 16.5.9"/><path id="path3141" class="st6" d="M406.1 368.4s-10.1 13.2 3 16.6c17.1 4.3 14.3-29 16.3-39.2-8 1.8-41.6 4.2-35.8 21.7 3.6 11 16.5.9 16.5.9z"/><path id="path3145" class="st5" d="M422.4 408.3s-1.1 16 11.4 10.7c16.2-6.9-5.7-31.4-12.9-41.2.4 13.2-23.4 29.1-10.6 39 9.2 6.9 12.1-8.5 12.1-8.5"/><path id="path3149" class="st6" d="M422.4 408.3s-1.1 16 11.4 10.7c16.2-6.9-5.7-31.4-12.9-41.2.4 13.2-23.4 29.1-10.6 39 9.2 6.9 12.1-8.5 12.1-8.5z"/><path id="path3153" class="st5" d="M466.9 391.4s-.3 14.6 10 10.8c19.7-7.2-5.4-42.2-5.4-42.2s-30.1 24.5-16.4 36.9c8.6 7.8 11.8-5.5 11.8-5.5"/><path id="path3157" class="st6" d="M466.9 391.4s-.3 14.6 10 10.8c19.7-7.2-5.4-42.2-5.4-42.2s-30.1 24.5-16.4 36.9c8.6 7.8 11.8-5.5 11.8-5.5z"/><path id="path3161" class="st5" d="M476.2 430.6s-12.2-9.5-15.7 2.2c-4.7 16.1 26.1 9.5 35.4 20-2.1-13.5.8-40-17.3-36.6-11.3 2.1-2.4 14.4-2.4 14.4"/><path id="path3165" class="st6" d="M476.2 430.6s-12.2-9.5-15.7 2.2c-4.7 16.1 26.1 9.5 35.4 20-2.1-13.5.8-40-17.3-36.6-11.3 2.1-2.4 14.4-2.4 14.4z"/><path id="path3169" class="st5" d="M447.5 451.6s-9.5-10.9-13.8.5c-6.1 15.9 23.8 17.8 32.1 19.1-1.1-10.8-.6-38.2-16.6-33.5-9.1 2.7-1.7 13.9-1.7 13.9"/><path id="path3173" class="st6" d="M447.5 451.6s-9.5-10.9-13.8.5c-6.1 15.9 23.8 17.8 32.1 19.1-1.1-10.8-.6-38.2-16.6-33.5-9.1 2.7-1.7 13.9-1.7 13.9z"/><path id="path3177" class="st5" d="M442.9 503.8s-2.8 14.2 7.4 12.7c19.4-2.9 1.9-26.1.4-35.2-6.4 6.4-31.4 15.5-23.5 27.7 6.3 9.7 15.7-5.2 15.7-5.2"/><path id="path3181" class="st6" d="M442.9 503.8s-2.8 14.2 7.4 12.7c19.4-2.9 1.9-26.1.4-35.2-6.4 6.4-31.4 15.5-23.5 27.7 6.3 9.7 15.7-5.2 15.7-5.2z"/><path id="path3185" class="st5" d="M410.4 470s-13.2-6.7-11.8 3.9c1.7 13.3 18.2 11 27.4 14.9 3.8-16.3-2.6-37.5-14.6-29.5-5.7 3.9-1 10.7-1 10.7"/><path id="path3189" class="st6" d="M410.4 470s-13.2-6.7-11.8 3.9c1.7 13.3 18.2 11 27.4 14.9 3.8-16.3-2.6-37.5-14.6-29.5-5.7 3.9-1 10.7-1 10.7z"/><path id="path3193" class="st5" d="M398.2 520.7s1.5 12.2 9.7 5.5c10.4-8.5 1.1-22.7-4.5-31.4-4.9 8.3-28.7 20.8-14.8 30.6 5.7 4.1 9.6-4.7 9.6-4.7"/><path id="path3197" class="st6" d="M398.2 520.7s1.5 12.2 9.7 5.5c10.4-8.5 1.1-22.7-4.5-31.4-4.9 8.3-28.7 20.8-14.8 30.6 5.7 4.1 9.6-4.7 9.6-4.7z"/><path id="path3201" class="st5" d="M430.9 552.7s-12.7-8.7-13.5 1.9c-1 13.4 18.5 13.9 26.9 19.6 5.7-15.4 2.3-36-11-30.5-6.5 2.6-2.4 9-2.4 9"/><path id="path3205" class="st6" d="M430.9 552.7s-12.7-8.7-13.5 1.9c-1 13.4 18.5 13.9 26.9 19.6 5.7-15.4 2.3-36-11-30.5-6.5 2.6-2.4 9-2.4 9z"/><path id="path3209" class="st5" d="M469.2 546.5s-12.2-9.4-13.6 1.1c-1.8 13.3 14.3 18 25.6 21.2 6.6-15 3.1-34.2-9.1-31.2-6.7 1.8-2.9 8.9-2.9 8.9"/><path id="path3213" class="st6" d="M469.2 546.5s-12.2-9.4-13.6 1.1c-1.8 13.3 14.3 18 25.6 21.2 6.6-15 3.1-34.2-9.1-31.2-6.7 1.8-2.9 8.9-2.9 8.9z"/><path id="path3217" d="M373.5 561.8l24.6-19.3 18.5-4.5 17.8-12.5h23.8m-84.7-47.3l41.6-42 17.4-.8 30.3-21.2m-89.3 147.6l-24.6-19.3-18.5-4.5-17.8-12.5h-21.7m82.6-47.3l-41.6-42-17.4-.8-30.3-21.2m89.3 138.5V409" fill="none" stroke="#293235" stroke-width="6.95" stroke-linecap="round"/><path id="path3221" d="M434.4 525.5l8.5-21.7M416.6 538l14.2 14.7m-37.3-6.8l4.7-25.2m71 25.8l-10.9-21m-.1 0l14-15.5m-61.8-40l-17.3-11.5m69.7-44.2l4.1-22.9m-4.1 22.9l13.4 16.4m-43.7 4.8l15 16.2m-32.4-15.5l6.8-28.5m-48.4.9l32.6-40.2m-93.5 157.1l-8.5-21.7m26.3 34.2l-14.2 14.7m37.3-6.8l-4.7-25.2m-71 25.8l10.9-21m.1 0l-14-15.5m61.8-40l17.3-11.5m-69.7-44.2l-4.1-22.9m4.1 22.9l-13.4 16.4m43.7 4.8l-15 16.2m32.4-15.5l-6.8-28.5m48.4.9l-32.6-40.2m32.6 36v-64.3" fill="none" stroke="#293235" stroke-width="3.48" stroke-linecap="round"/><path id="path3225" class="st3" d="M569.8 484.3c-1.4-1.7-1.8-6.1-4-8.8-3.9-4.9-5.2-5.4-14.5-5.4-4.5 0-9.8.7-12.1 2-7.9 4.8-12 9.6-11.4 25.3.7 19.4 11.3 34 34.8 34 11.8 0 11.4-2.2 14.5-4.5 3.1-2.3 6.8.9 4.5 5.1-1.5 2.8-5.7 5.4-9.6 8.5-4.2 3.3-12.3 6-17.3 6-28.2 0-44.5-18.2-44.5-42.8 0-23.9 13.1-32.4 24.7-38.3 12.4-6.3 24.5-6.2 28.1-6.2 9.1 0 19 2.7 20.3 4.3 1.3 1.6-3.6 15-5.8 18.9-2.3 3.9-6.3 3.6-7.7 1.9"/><path id="path3229" class="st3" d="M186.5 503.9h18.2c3.2 0 6.4-4 7.5-8.7h2.8v25h-2.8c-.7-4.4-3-8.6-6-8.6l-19.7.2v26.9c0 5 4.4 5.6 7.8 7v3.4H165v-3.4c3.7-1 8-1.8 8-7v-60.1c0-5.2-4.3-6-8-7.1V468h50v15.1h-2.8c-.5-8.9-5.3-7.4-10.6-7.4h-15l-.1 28.2z"/><path id="path3233" class="st5" d="M412.7 658.3c-2.8-1.1-7.1.3-8.8-2-1.7-2.3-6.8-6.2-9.6-7.9-2.8-1.7-6-4.5-9.9-6.5-4-2-10.8-1.7-10.8-1.7s-6.8-.3-10.8 1.7c-4 2-7.1 4.8-9.9 6.5-2.8 1.7-7.9 5.7-9.6 7.9s-6 .9-8.8 2c-2.8 1.1.6 3.4 2.6 4.5s1.4 4.8 3.1 4.5c1.7-.3 4.3-4.5 6.8-6.8 2.6-2.3 7.7-9.1 9.9-10.5 2.3-1.4 15-2.8 16.7-2.8 1.7 0 14.5 1.4 16.7 2.8 2.3 1.4 7.4 8.2 9.9 10.5 2.6 2.3 5.1 6.5 6.8 6.8 1.7.3 1.1-3.4 3.1-4.5s5.4-3.4 2.6-4.5"/><path id="path3237" class="st0" d="M379.5 683c0 3.9-3.2 7-7 7-3.9 0-7-3.2-7-7 0-3.9 3.2-7 7-7 3.8-.1 7 3.1 7 7"/><g id="text3239"><path id="path2953" class="st9" d="M353.4 728.5c0-3.7.4-6.7 1.2-9s1.9-4 3.4-5.3c1.5-1.2 3.4-1.8 5.7-1.8 1.7 0 3.2.3 4.5 1 1.3.7 2.3 1.7 3.2 2.9.8 1.3 1.5 2.8 2 4.7.5 1.8.7 4.3.7 7.5 0 3.7-.4 6.7-1.1 9-.8 2.3-1.9 4-3.4 5.3a8.9 8.9 0 0 1-5.7 1.9c-3 0-5.4-1.1-7.2-3.3-2.2-2.7-3.3-7-3.3-12.9zm4 0c0 5.2.6 8.6 1.8 10.3 1.2 1.7 2.7 2.6 4.5 2.6 1.8 0 3.3-.9 4.5-2.6 1.2-1.7 1.8-5.2 1.8-10.3 0-5.2-.6-8.6-1.8-10.3-1.2-1.7-2.7-2.6-4.5-2.6-1.8 0-3.2.8-4.3 2.3-1.3 1.8-2 5.4-2 10.6z"/><path id="path2955" class="st9" d="M382 726.9c-1.6-.6-2.8-1.4-3.6-2.5-.8-1.1-1.2-2.4-1.2-3.9 0-2.3.8-4.2 2.5-5.8 1.6-1.6 3.8-2.3 6.6-2.3s5 .8 6.6 2.4c1.7 1.6 2.5 3.5 2.5 5.8 0 1.5-.4 2.7-1.2 3.8-.8 1.1-1.9 1.9-3.5 2.5 1.9.6 3.4 1.6 4.4 3.1 1 1.4 1.5 3.1 1.5 5 0 2.7-1 5-2.9 6.8-1.9 1.8-4.4 2.8-7.5 2.8-3.1 0-5.6-.9-7.5-2.8a9.13 9.13 0 0 1-2.9-6.9c0-2 .5-3.8 1.6-5.1a8.9 8.9 0 0 1 4.6-2.9zm-.8-6.5c0 1.5.5 2.7 1.4 3.7s2.2 1.4 3.7 1.4 2.7-.5 3.7-1.4c1-.9 1.4-2.1 1.4-3.5s-.5-2.6-1.5-3.6-2.2-1.5-3.7-1.5-2.7.5-3.7 1.4c-.8 1-1.3 2.1-1.3 3.5zm-1.2 14.5c0 1.1.3 2.2.8 3.2s1.3 1.8 2.3 2.4 2.1.8 3.3.8c1.8 0 3.4-.6 4.6-1.8a6.1 6.1 0 0 0 1.8-4.5c0-1.9-.6-3.4-1.9-4.6a6.4 6.4 0 0 0-4.7-1.8c-1.8 0-3.3.6-4.5 1.8a6.44 6.44 0 0 0-1.7 4.5z"/></g><path id="path3245" class="st3" d="M208.6 302.5c3 3.7 4.6 5.5 7.6 9.2 5.2-4.3 7.9-6.3 13.3-10.2-2.8-3.9-4.2-5.8-7-9.7 1.5-1.1 2.3-1.6 3.9-2.7 6.5 9.4 9.7 14.1 16.2 23.5-1.4.9-2.1 1.4-3.4 2.4-3.1-4.4-4.7-6.5-7.8-10.9-5.4 3.8-8 5.8-13.1 10.1 3.4 4.1 5.1 6.2 8.5 10.3l-3.2 2.7c-7.4-8.7-11.1-13-18.6-21.7 1.4-1.2 2.2-1.8 3.6-3"/><path id="path3249" class="st3" d="M243.2 295.4c3.2 5.2 9.3 7.8 14.9 4.6 5.7-3.2 6.5-9.6 3.6-15.4-2.6-5.1-8.5-8.8-15.1-5-6.6 3.6-6.8 10.4-3.4 15.8m22.5-13.1c4.3 8.8.7 16.4-6.3 20.3-7.2 4.1-15.4 2.5-20.1-4.7-5-7.6-2.3-16.5 6-21.2 8.4-4.7 16.7-2 20.4 5.6"/><path id="path3253" class="st3" d="M297.3 271.7c-1.5-3.7-3.2-8.2-4.3-11.6h-.1c-.1 3.5-.3 7.4-.5 11.6-.4 6-.5 9-.6 15-1.1.4-1.7.6-2.8 1.1-3.9-4.3-5.8-6.5-9.9-10.7-3-3.1-5.7-6-8-8.7h-.1c1.3 3.3 3 7.8 4.5 11.8 1.6 4.6 2.5 6.9 4.2 11.6-1.4.6-2.1.9-3.5 1.6-4-10.7-6-16.1-9.8-26.9 2.1-1 3.2-1.4 5.3-2.3 4.4 4.1 6.5 6.3 10.6 10.6 2.6 2.8 4.7 5.3 6.5 7.8h.1c-.3-3-.3-6.3-.2-10.2.3-6 .5-9 1.1-15 2.2-.7 3.3-1.1 5.5-1.8 4.2 10.6 6.3 16 10.4 26.7-1.5.5-2.2.7-3.7 1.2-1.9-4.8-2.8-7.1-4.7-11.8"/><path id="path3257" class="st3" d="M314.8 276.8c.8-.1 1.9-.3 3.3-.6 4.1-1 7.5-3.1 6.7-7.2-.8-3.8-4.9-4.6-9.3-3.6-1.4.3-2 .5-3.4.8 1 4.3 1.6 6.4 2.7 10.6m-3.4-13.3c1.5-.4 2.3-.6 3.8-.9 4.4-1.1 6.6-3.6 6-6.2-.7-3.3-3.9-4-8.3-2.9-2 .5-3.1.9-3.8 1.2.9 3.5 1.4 5.3 2.3 8.8m-7.3-10.1c1.8-.8 4.7-1.9 7.8-2.6 4.4-1 7.4-.9 9.7 0 1.9.8 3.3 2.2 3.7 4.4.5 2.7-1.1 5.5-4.3 7.3v.1c3.2 0 7.2 1.5 7.9 5.7.4 2.4-.3 4.5-1.5 6.1-1.7 2.2-5 3.7-9.9 4.9-2.7.7-4.7 1-6.1 1.2-2.8-10.9-4.3-16.3-7.3-27.1"/><path id="path3261" class="st3" d="M335.7 246.4c1 6.7 1.4 10 2.4 16.7.9 6.3 4.4 8.6 8.5 8.1 4.6-.5 7.3-3.5 6.8-9.8-.5-6.7-.8-10.1-1.3-16.9 1.8-.1 2.7-.2 4.5-.3l1 16.6c.5 8.8-4.2 12.6-10.8 13.4-6.2.7-11.4-1.8-12.9-10.6-1.1-6.6-1.6-10-2.7-16.6 1.8-.2 2.7-.3 4.5-.6"/><path id="path3265" class="st3" d="M368.8 257.2h4.3c4.5 0 7.4-2 7.6-5.3.1-3.7-3-5.4-7.7-5.5-2.1 0-3.6.2-4.4.4.2 4.2.2 6.2.2 10.4m-4.6-12.9c2.2-.5 5.5-.7 8.5-.7 4.8 0 7.8.9 9.9 2.5 1.7 1.3 2.5 3.3 2.4 5.5-.2 3.8-3 6.1-6.5 7v.1c2.5.8 3.9 2.9 4.5 5.9.8 4 1.4 6.8 2 8-1.6-.1-2.4-.1-4.1-.2-.5-.9-1.1-3.3-1.9-6.9-.8-3.9-2.5-5.5-6.3-5.7h-3.9c.1 4.9.1 7.4.2 12.4-1.6 0-2.4 0-4 .1-.2-11.1-.4-16.7-.8-28"/><path id="path3269" class="st3" d="M413.1 274.7c-1.9.3-5.5.6-9.6.1-4.6-.6-8.3-2.1-11.1-5-2.5-2.6-3.9-6.5-3.6-10.9.6-8.5 8.1-14.4 19.6-12.8 4 .6 6.9 1.8 8.3 2.6-.6 1.1-.9 1.7-1.6 2.8-1.7-1-3.9-1.9-7.3-2.4-8.2-1.2-14 2.8-14.6 9.9-.6 7.2 3.7 11.8 10.9 12.8 2.6.4 4.4.3 5.4 0 .5-3.4.8-5 1.4-8.4l-6.5-1c.2-1.2.2-1.8.4-2.9 4.3.6 6.4.9 10.7 1.7-.9 5.4-1.4 8.1-2.4 13.5"/><path id="path3273" class="st3" d="M430.9 266.7c-.3 1.1-.4 1.6-.7 2.7-4.6-1.1-6.9-1.7-11.5-2.6l.5-2.7c4.7.9 7.1 1.5 11.7 2.6"/><path id="path3277" class="st3" d="M433.1 275.9c1.5 1.5 3.8 3 6.5 3.8 4 1.2 6.9.1 7.8-2.6.9-2.5-.3-4.6-4.1-7.3-4.5-3.2-7.2-6.3-6.2-10.2 1.2-4.3 6.4-6.4 12.8-4.3 3.4 1.1 5.6 2.6 6.9 3.8-.9 1-1.3 1.5-2.1 2.4-.9-.8-2.8-2.4-5.8-3.3-4.5-1.4-6.9.4-7.4 2.2-.7 2.6.9 4.4 4.8 7.2 4.8 3.5 6.6 6.6 5.2 10.6-1.5 4.2-6.1 6.5-13.1 4.4-2.9-.9-5.8-2.5-7.1-4 .7-1.1 1.1-1.6 1.8-2.7"/><path id="path3281" class="st3" d="M473.1 282.6c.2-3.5.3-5.3.4-8.8.1-2 .3-3.8.5-5.5h-.1c-1.1 1.4-2.4 2.7-3.6 4.1-2.5 2.5-3.8 3.8-6.2 6.4 3.6 1.3 5.4 2.1 9 3.8m-11-1.7c-2.6 2.8-3.9 4.2-6.4 7.1-1.6-.6-2.3-.9-3.9-1.5 7.9-9.3 12.1-13.7 21-22.4 2 .9 3 1.3 5 2.2-.3 12.4-.7 18.5-2 30.7-1.5-.8-2.3-1.2-3.9-1.9.4-3.8.5-5.7.8-9.6-4.2-1.9-6.3-2.8-10.6-4.6"/><path id="path3285" class="st3" d="M499.6 296.8c.6-3.5.9-5.2 1.5-8.8.3-2 .7-3.7 1.1-5.4 0 0-.1 0-.1-.1-1.3 1.2-2.7 2.4-4.1 3.6l-7 5.5c3.4 2.1 5.1 3.1 8.6 5.2m-10.9-3c-2.9 2.5-4.4 3.7-7.3 6.3l-3.7-2c9.1-8.2 13.8-12.1 23.7-19.6l4.8 2.8c-1.8 12.3-2.9 18.4-5.7 30.3-1.5-1-2.2-1.5-3.7-2.4.8-3.8 1.2-5.7 1.9-9.5-3.9-2.4-5.9-3.6-10-5.9"/><path id="path3289" class="st3" d="M516.8 304.5c1.5 1.1 2.2 1.6 3.6 2.7 3.8 2.9 7.5 3.1 9.5.6 2.3-2.9.7-6.3-3.1-9.3-1.8-1.4-3.2-2.2-3.9-2.5-2.4 3.5-3.7 5.1-6.1 8.5m3.9-13.2c2.1 1 5 2.9 7.6 4.8 4 3 6.1 5.7 6.8 8.4.6 2.1.1 4.3-1.3 6-2.4 2.9-6.3 2.9-9.7 1.4 0 0 0 .1-.1.1 1.6 2.3 1.5 4.8.2 7.6-1.7 3.7-2.9 6.4-3.1 7.6l-3.3-2.8c.1-1 1.1-3.3 2.6-6.7 1.7-3.7 1.2-6-1.9-8.5-1.3-1-2-1.5-3.3-2.5-2.9 4-4.4 6-7.3 10-1.3-1-2-1.5-3.4-2.4 6.4-9.2 9.7-13.8 16.2-23"/><path id="path3293" class="st0" d="M408.4 678.9c1-1.2 3.5-2.4 8.7-5.7 0 0 6-4 6.8-4.7.8-.7 4.1-3.9 5-4.8 1-.9 2.1-2 2.7-2.3.7-.4 2.7-.9 1.5 1.2-1.1 2.1-5.5 7-8.4 9.4-2.4 2-8.5 5.3-10.8 6.5-2.2 1.2-3.2 1.3-4.3 1.6-.9.2-1.2-1.2-1.2-1.2"/><path id="path3297" class="st0" d="M340.5 678.9c-1-1.2-3.5-2.4-8.7-5.7 0 0-6-4-6.8-4.7-.8-.7-4.1-3.9-5-4.8-1-.9-2.1-2-2.7-2.3s-2.7-.9-1.5 1.2c1.1 2.1 5.5 7 8.4 9.4 2.4 2 8.5 5.3 10.8 6.5 2.2 1.2 3.2 1.3 4.3 1.6.9.2 1.2-1.2 1.2-1.2"/></g></svg>