<svg version="1.1" xmlns="http://www.w3.org/2000/svg" viewBox="0 0 26 32"><path fill="#b1b3b4" d="M12.97 32c7.15 0 12.97-5.82 12.97-12.97V1.1c0-.44-.35-.8-.78-.82A267.66 267.66 0 0 0 .78.28.82.82 0 0 0 0 1.1v17.93C0 26.18 5.82 32 12.97 32z"/><path fill="#003b79" d="M12.97 31.33c6.78 0 12.3-5.52 12.3-12.3V1.1a.15.15 0 0 0-.16-.15A266.92 266.92 0 0 0 .82.95a.15.15 0 0 0-.15.15v17.93c0 6.78 5.52 12.3 12.3 12.3z"/><path fill="#fff" d="M23.71 19.1a10.74 10.74 0 1 1-21.48 0 10.74 10.74 0 0 1 21.48 0z"/><path fill="#e2001a" d="M16.09 29.1a.8.8 0 0 1-.95-.8v-.11a.03.03 0 0 0-.05-.01h-.01l-.04.05c-.17.22-.62.46-1.35.6h-.06a6.73 6.73 0 0 1-.3.05 9.9 9.9 0 0 1-7.78-2.38 10.55 10.55 0 0 1-2.81-9.7.8.8 0 0 1 1.17-.43l.08.04.02.01c.01 0 .03-.02.03-.04v-.01L4 16.32c-.1-.26-.08-.77.17-1.47l.02-.05a11.12 11.12 0 0 1 .53-1.16 9.9 9.9 0 0 1 5.53-4.67 10.54 10.54 0 0 1 7.95 1.05c.67.39 1.3.85 1.86 1.37a.8.8 0 0 1-.21 1.22l-.08.05-.02.01c0 .02 0 .04.02.05h.06c.28.05.7.32 1.2.89l.03.04.16.19a9.91 9.91 0 0 1 1.86 7.97 10.56 10.56 0 0 1-7 7.29z"/><path fill="#fff" d="M3.48 3.93l-.06-1.5-.31.14-.07-.34.47-.17.26-.01.07 1.87zM4.7 3.7a.23.23 0 1 1-.46 0c0-.12.1-.22.22-.23s.23.1.23.22zm1.27-1.42l.01.48.6-.01.02.3H6l.01.8h-.36L5.6 2l1-.03.01.3zm1.7 1.55c-.44 0-.65-.2-.66-.52L7 2.38l.35-.01.02.85c0 .22.11.32.31.31.22 0 .3-.13.3-.33l-.02-.84.36-.01.01.88c.01.33-.18.59-.66.6zm1.4-.02c-.09 0-.2-.01-.28-.03v-.31c.1.03.2.05.31.04.12 0 .22-.06.22-.16 0-.22-.58-.1-.59-.56 0-.29.2-.48.6-.48.08 0 .19 0 .27.02v.3a1.08 1.08 0 0 0-.27-.04c-.16 0-.22.06-.22.15 0 .2.6.11.6.56 0 .3-.23.5-.64.51zm1.3-.01c-.1 0-.2-.02-.28-.04v-.31a1 1 0 0 0 .31.05c.12 0 .22-.06.22-.17 0-.22-.58-.09-.59-.56 0-.28.21-.48.6-.48l.27.02v.3a1.08 1.08 0 0 0-.27-.03c-.16 0-.22.06-.22.15 0 .2.6.1.6.55 0 .3-.24.5-.64.51zm1.53-.68h-.12v.37l.15.01c.18 0 .26-.08.26-.2 0-.13-.1-.18-.29-.18zm.03-.57h-.15v.35h.1c.17 0 .29-.06.28-.19 0-.1-.05-.16-.23-.16zm.01 1.2h-.51V2.31H12c.38-.01.54.12.54.35 0 .14-.07.26-.22.32.16.04.24.16.25.32 0 .22-.15.45-.63.46zm1.66-.85a2.52 2.52 0 0 1-.08-.21l-.06.2-.13.35h.39l-.13-.34zm.3.85l-.1-.25h-.55l-.1.25h-.36l.54-1.44h.43l.53 1.44h-.4zm.72 0V2.31h.36v1.13h.46v.32zm1.17.01l.01-1.44h.36l-.01 1.13h.47v.32zm1.91.06c-.65-.01-.85-.45-.84-.92.01-.6.33-1 .95-1 .14.01.28.03.4.07l-.04.32a1.33 1.33 0 0 0-.38-.06c-.35 0-.53.25-.53.62-.01.4.15.64.53.64.11 0 .27-.03.37-.07l.03.32c-.14.05-.3.08-.48.08zm.9-.01l.03-1.44h.35l-.02 1.13.47.02-.01.31zm1.77.07c-.44-.01-.64-.22-.63-.55l.03-.93h.35l-.02.86c0 .22.1.32.3.33.21 0 .3-.12.31-.33l.02-.84.36.01-.03.89c0 .32-.22.57-.7.56zm1.73-1.17h-.16v.34l.1.01c.16 0 .28-.05.28-.17 0-.1-.05-.17-.23-.18zm-.05.57h-.13l-.01.37.15.01c.18.01.26-.07.26-.19s-.1-.18-.27-.19zm.01.64l-.52-.03.06-1.44.57.02c.39.01.54.15.53.38 0 .14-.08.25-.23.3.16.06.24.18.23.34 0 .21-.17.45-.64.43zm-18.82 3l-.03-.82-.8.04.04.8-.36.02L2 5.1l.36-.01.03.75.8-.04-.03-.74.36-.02.07 1.87zm.84-.04l-.05-1.44.89-.03v.28l-.52.02V6l.51-.02.01.27-.5.02v.32l.54-.02v.28zm1.35-.04L5.4 5.4l.36-.01.04 1.44zm1.37-1.2c-.05 0-.11 0-.16.02l.02.85h.16c.25 0 .44-.16.43-.45 0-.28-.16-.43-.45-.42zm0 1.17h-.5l-.04-1.44.56-.02c.47-.01.79.18.8.69.01.52-.36.76-.84.77zm1.23-.04L8 5.33l.89-.01v.28h-.53v.3l.51-.01v.27h-.5l.01.32h.53v.28zm2.26-.03l-.44-.7c-.06-.08-.1-.18-.14-.26v.25l.01.72h-.34l-.02-1.44h.48l.43.68c.06.08.1.17.15.27V5.9l-.02-.6h.35l.02 1.43h-.48zm1.96-.01v-.59h-.61v.59h-.36V5.3h.35v.55h.62v-.56h.35v1.44zm.88-.01V5.29h.89v.28h-.53v.3h.5v.26h-.5v.32h.53v.29zm1.35.01V5.29h.36v1.44zm2.38.02l-.1-.69a6.86 6.86 0 0 1-.03-.32l-.08.29-.24.72h-.37l-.2-.68-.08-.34-.04.33-.1.68h-.36l.25-1.45.45.01.22.73.07.28.07-.27.26-.73h.46l.2 1.45h-.38zm1.69.04l.03-1.5-.32.11-.05-.34.49-.14h.26L18.9 6.8zM20 5.2c-.17 0-.26.08-.27.2s.1.2.27.3c.16-.1.24-.18.25-.3 0-.1-.08-.2-.25-.2zm-.05.82c-.15.09-.26.17-.27.3 0 .14.1.24.28.24.16 0 .29-.07.3-.21 0-.15-.15-.24-.31-.33zm-.03.83c-.4 0-.62-.21-.6-.5 0-.22.16-.37.34-.48-.18-.11-.3-.26-.29-.45.01-.32.29-.52.66-.5.36 0 .59.2.58.47 0 .21-.15.34-.33.45.2.12.35.27.34.5 0 .35-.33.52-.7.51zm1.8-1.5l-.5.75.47.01.03-.76zm.3 1.1l-.01.44-.35-.02.01-.44-.76-.03-.04-.28.75-1.12.45.02-.04 1.1h.28v.33h-.29zm1.25-.42c-.18 0-.3.12-.31.3-.01.18.08.33.27.33.2.01.31-.12.32-.3s-.09-.32-.28-.33zm-.08.93c-.39-.01-.64-.29-.61-.82.03-.76.47-1.11 1-1.09l.22.02-.01.32a1.02 1.02 0 0 0-.22-.03c-.29-.02-.5.13-.58.43l-.03.1a.5.5 0 0 1 .41-.15c.36.02.57.26.55.58-.01.41-.31.66-.73.64zM13.05 23.47c-2.74 0-3.04-1.93-3.04-4 0-2.53.58-4.46 3.36-4.46.59 0 .72.07 1.26.22l-.17 1.45c-.54-.16-.61-.25-1.18-.25-1.39 0-1.5 1.35-1.5 2.78 0 1.55.13 2.81 1.61 2.81.5 0 .7-.15 1.12-.34l.19 1.42c-.62.22-.88.37-1.65.37zm5.78-.11h.04c1.28 0 1.55-.9 1.55-2.07v-6.23h-1.6v3.32h-1.85v-3.32h-1.6v8.3h1.6v-3.6h1.86v3.6zM7.4 17.05c0-.36.09-.63.48-.63H9.7v-1.36H7.37c-1.29 0-1.56.9-1.56 2.07v6.23h1.6v-3.5h1.94v-1.3H7.4v-1.51z"/></svg>