<svg version="1.1" xmlns="http://www.w3.org/2000/svg" viewBox="0 0 29 32"><path fill="#231f20" d="M1.42 5.39V4.4c0-.61 0-.61.03-.78l1.19-.5a32.2 32.2 0 0 1 10.88-1.68h.59l.26.02h.27c.26-.02.51-.02.77-.02l.24.01h.53c1.4.03 2.8.16 4.18.32 2.38.31 4.8.84 7 1.85l.03.27V5.6c-.08 2.26-.3 4.52-.67 6.74a62.84 62.84 0 0 1-.78 3.46l-.6 1.97-.44 1.2a34.18 34.18 0 0 1-1.62 3.38l-.65 1.03-.43.66c-.54.71-.64.82-.66.87l-1.2 1.36a19.37 19.37 0 0 1-3.41 2.64c-.78.42-1.6.78-2.42 1.12l-.16.05c-.61-.24-1.22-.51-1.82-.78a17.52 17.52 0 0 1-3.4-2.34l-.96-.93-.8-.91c-.76-.98-.87-1.17-.9-1.2-.34-.52-.68-1.04-1-1.57a31.51 31.51 0 0 1-3.25-9.2c-.3-1.63-.3-1.74-.32-1.76-.16-1.35-.3-2.7-.42-4.04L1.42 5.4z"/><path fill="#d71920" d="M14.3 18.22v11.44l-1.23-.52a17.35 17.35 0 0 1-3.59-2.35l-.64-.6-.99-1.07c-.67-.85-1.31-1.7-1.87-2.64v-.02l8.33-4.24z"/><path fill="#fff" d="M17.95 19.33h-.29a.56.56 0 0 1-.33-.35h.37c.17-.01.4-.02.49-.19 0-.11 0-.11-.03-.14-.31-.07-.62.04-.93 0 0-.07 0-.13.02-.2l.18-.07.29.03.85-.24c.27 0 .5.04.76.1.32-.07.73-.25 1.04-.1 0 .22-.2.21-.37.3l-.01.15c.18.08.4-.01.57.11v.13a.7.7 0 0 1-.33.14c-.02.06-.02.06 0 .17.12.09.3.04.42.12 0 .22-.27.15-.41.26 0 .17.08.2.2.3 0 .25-.21.14-.4.15l-.04.04c.05.15.15.3.18.45-.07.15-.3 0-.4-.06h-.1c-.08.17.11.33-.04.49-.17-.04-.34-.24-.49-.08v.04l.96.89c0 .09.57.52.65.59a.7.7 0 0 0 .6-.3c.12-.31.1-.56-.2-.74-.27 0-.34 0-.54.22l-.18.23c-.2.01-.22-.12-.2-.28.13-.2.25-.36.46-.46l.02-.04c-.32 0-.5.26-.67.48-.21 0-.22-.15-.18-.33.22-.22.47-.38.74-.55v-.1a.96.96 0 0 1 .12-.9l.18-.2c.28-.17.49-.23.81-.2.04.08.04.14.04.23-.67.27-.67.27-.71.3.15 0 .3-.02.45-.04.24.04.49.17.19.36-.37-.05-.55-.16-.74.22.02.48.45.6.73.96l.12.29.01.25-.1.38c-.24.4-.66.58-1.12.54-.02.18-.05.35-.06.53l.09.28a.2.2 0 0 1 .06.02c.1-.06.14-.13.26-.13.38.72-.26 1.55-.78 2 0 .07.04.14.06.22-.06.18-.2.27-.34.12v-.18l.03-.01c-.04-.26-.6-.09-.72 0l-.1.22c-.4 0 .06-.5.11-.59 0-.3-.29-.05-.43-.2v-.11c.12-.12.55.04.49-.2-.16-.07-.26-.08-.23-.26.13-.07.22-.11.37-.02.13.2.19.43.46.4.18-.12.33-.4.37-.6a5.2 5.2 0 0 1-.66-.79c0-.2.04-.38.08-.57l-.81.4c-.28.23-.17.33.03.59l.01.15c-.24.42-.73.69-1.06 1.04 0 .09.04.16.06.24-.03.08-.16.22-.24.22-.14-.14-.07-.2-.07-.36-.13-.13-.59-.07-.73.04l-.09.24c-.34-.08-.02-.45.13-.57.03-.27-.26-.13-.43-.21-.01-.16-.02-.14.1-.2.1 0 .43.09.39-.11l-.26-.17v-.06c.34-.28.44.08.64.34l.18.02c.13-.11.28-.25.4-.4h.02l.1-.18c0-.3-.24-.6-.31-.9 0-.61.71-.46 1.08-.68 0-.27-.44-.6-.69-.67-.39.19-.76.38-1.06.68.05.16.1.4-.16.4l-.08-.06c0-.1.03-.2-.02-.28a.92.92 0 0 0-.64.01c-.05.07-.1.22-.15.3h-.07c-.28-.29.37-.5.13-.75l-.34-.03c-.04-.03-.04-.08-.04-.14.08-.08.36-.05.48-.05.06-.2-.07-.2-.24-.31 0-.25.28-.2.42-.08.07.12.2.43.38.39l.9-.7.01-.04c-.38-.23-.8-.37-1.22-.53-.19-.02-.2.04-.33.16a.4.4 0 0 1-.29-.08c0-.17.18-.15.25-.26-.03-.26-.19-.4-.4-.56-.06 0-.13.02-.29.02 0-.2.05-.16.23-.22.14.01.3.06.42-.01 0-.04.01-.07.03-.1-.07-.11-.16-.23-.16-.36h.16c.07.14.14.32.32.32.06-.1.01-.17.01-.29a.52.52 0 0 1 .1-.08c.35.09.11.43.06.64v.15c.37.22.88.34 1.29.49.41-.34.99-.48 1.44-.75.4-.6-1.22-.14-1.28-.13zm-7.69 1.88l-.24.25v2.14l.2.2h1.1l.22-.23v-2.12l-.22-.23h-1.07zm.27.48h.53v1.65h-.53V21.7zm-4.73.49c-.51-.91-.96-1.87-1.39-2.83l-.53-1.38.01-.07L26.97 6.15c.03 1.24-.14 2.53-.27 3.77l-.26 1.75c-6.9 3.5-13.75 7-20.64 10.51z"/><path fill="#231f20" d="M6.7 21.3a43 43 0 0 1-.55-.2l-.33-.65c.65-.33.65-.33.7-.33l.19.4.78-.38-.4-.82c-.3 0-.85.42-1.2.55l-.46-.17c-.66-1.3-.66-1.3-.7-1.42l.15-.44 1.47-.75.57.16.33.68c-.24.1-.46.22-.69.34-.05-.11-.14-.3-.22-.39l-.77.4c.12.26.26.5.39.75l.04.01 1.11-.56.5.15.72 1.42-.17.5-1.46.75zm2.36-1.21l-.47-.16-1.47-2.87.15-.45 1.55-.76.45.14.35.66c-.23.1-.46.23-.67.34a1.54 1.54 0 0 1-.18-.34l-.77.4v.07l1.1 2.16c.12 0 .75-.3.8-.4-.25-.48-.25-.48-.28-.6l.67-.34.45.9c-.12.4-.12.4-.17.48-1.4.73-1.4.73-1.52.76zM11.2 19l-.28-.6.22-.13L10.01 16l-.27.11-.28-.62c.38-.2.78-.38 1.17-.57l.3.58c0 .04-.2.13-.24.15l.4.78.6-.3c0-.2-.28-.6-.37-.79-.05.02-.24.13-.28.1l-.3-.6 1.18-.59c.09.19.26.42.3.62L12 15l1.13 2.24c.1 0 .17-.08.27-.08l.28.58a.2.2 0 0 0-.05.06c-1.08.54-1.08.54-1.12.54-.1-.2-.24-.4-.29-.62l.24-.1-.39-.77-.05-.07-.58.3c.07.29.26.56.39.83.08 0 .17-.07.25-.1l.3.6-1.17.6z"/><path fill="#fff" d="M16.47 18.5h.03c.05.13.3.2.42.27-.18 0-.35-.04-.54-.08v.04c.23.15.67.1.92.11l.16.03c-.04.03-.04.03-.57.05-.08 0-.14-.02-.2-.03h-.44c-.3.06-.6.03-.85-.15.02-.17.08-.2.21-.31 0-.04 0-.07.02-.1-.05-.1-.05-.1-.18-.28.27.02.37.04.47.28l.07.1.04-.02c0-.16-.08-.24-.18-.37.25 0 .44.06.48.32l.14.15z"/><path fill="#fff" d="M17.46 18.87l-.16-.03c0-.02-.24-.07-.64-.25l-.15-.1-.02.02h-.02c-.04-.2-.17-.4-.27-.57.36.08.41.1.52.45.13.16.33.24.5.32l.37.14a.6.6 0 0 0-.13.02z"/><path fill="#484749" d="M16.5 18.5v-.01l.15.1c.41.18.65.23.65.25-.25-.01-.69.04-.92-.11v-.04c.19.04.36.07.54.07-.12-.05-.37-.13-.43-.25z"/><path fill="#231f20" d="M18.57 18.55c.04-.2.27-.27.42-.12l-.42.12zm-4.81-5.22l-1.03.51c.05.21.18.42.28.62.04 0 .04 0 .16-.05.2.84.42 1.67.63 2.51-.07.04-.07.04-.1.1l.29.58.87-.46c0-.16-.22-.47-.3-.6l-.12.05c-.04-.08-.03-.08-.04-.22l.46-.23.12.13c-.02.07-.1.08-.1.15l.27.57.93-.48-.28-.58c-.08.01-.1.03-.17.01L14 14.07l-.04-.07.09-.07-.3-.6zm.4 1.97l.34.42c-.1.08-.1.08-.24.15-.03-.15-.13-.43-.1-.57z"/><path fill="#fff" d="M5.2 16.88l.05-1.11 1.88-.86c-.04.87-.04.87-.07 1.03-.62.3-1.24.62-1.86.94zm-1.78-.36c-.11-.37-.11-.37-.13-.54.06-1.5.06-1.5.08-1.63l1.87-.85-.1 2.22-1.72.8z"/><path fill="#231f20" d="M16.34 16.38c-.1-.2-.24-.41-.28-.63.16-.08.16-.08.22-.14l-1.14-2.23c-.24.11-.24.11-.27.1-.04-.08-.32-.52-.28-.6.12-.05.91-.52 1-.47.4.37.78.75 1.17 1.13h.03l-.4-.8c-.22.1-.22.1-.26.09l-.3-.6c.15-.04.15-.04 1.2-.58l.3.59-.24.14 1.15 2.25c.2-.1.2-.1.25-.1l.3.57c0 .05-.86.52-.96.5l-1.4-1.42c0 .05.49 1 .51 1.08.1 0 .16-.04.24-.08.28.55.28.55.3.63-.4.18-.76.37-1.14.57zm2.55-4.88c-.03 0-.03 0-.57.28.01.08.01.08.2.46l-.64.3-.52-1.05 2-1.05.34.64.01 2.83c.15-.08.3-.16.47-.23-.02-.08-.02-.08-.26-.53l.67-.33.56 1.12-2 1.02c-.07 0-.29-.5-.32-.57 0-.14.03-2.14.06-2.88z"/><path fill="#fff" d="M9.16 14.87l.03-.95 1.87-.86-.02.85-1.87.96zm-1.93-.12c.08-2.17.08-2.17.1-2.24.62-.3 1.24-.58 1.87-.86l-.11 2.23-1.86.87zm-4.35-.27c-.14-.65-.28-1.3-.4-1.94v-.07l.87-.39-.08 2.24-.4.16z"/><path fill="#d9dbdc" d="M19.71 13.9c-.01.01 0-.07 0 0z"/><path fill="#231f20" d="M21.45 13.8c-.27-.53-.27-.53-.3-.64l.22-.1a62 62 0 0 0-1.16-2.27 2.1 2.1 0 0 0-.22.12c-.1-.05-.3-.46-.33-.61l2.24-1.14h.06c.06.15.5.88.46 1l-.63.3c-.08-.04-.15-.26-.18-.35-.05 0-.05 0-.66.32-.06.12.3.7.37.83.17-.1.35-.18.54-.26l.3.6c-.12.06-.46.18-.5.29l.41.82.67-.35-.22-.47c.09-.04.58-.34.66-.3.42.8.42.8.53 1.04-.76.4-1.51.78-2.27 1.16z"/><path fill="#fff" d="M5.34 13.33l.08-2.23 1.86-.87.01.42c-.07 1.77-.07 1.77-.1 1.81l-1.85.87zm5.84-.45c.01-.73.02-1.49.1-2.22l1.85-.86-.07 2.21-1.88.87zm3.12-1.33v.7l-1.17.6c0-.26.02-.52.03-.77l1.15-.53z"/><path fill="#231f20" d="M24.15 8.04c-.09.03-.1.03-1.93.96.03.1.24.62.34.62.06-.05.14-.08.21-.11l1.15 2.24-.24.12.31.63 1.16-.6c-.04-.2-.18-.41-.27-.6-.1.01-.17.07-.26.07-.1-.2-.36-.6-.36-.8l.82.57v.03l-.09.05c-.03.1.23.58.31.61.78-.4.78-.4.93-.5-.23-.48-.23-.48-.3-.59-.07.04-.07.04-.15.04-.83-.54-.82-.54-.85-.58l.2-.12c.06-.16.17-.38.17-.56l-.65-1.27-.5-.21zm-.1.84l.38.72c0 .11-.43.27-.53.32l-.4-.74c.08-.14.41-.24.56-.3z"/><path fill="#d71920" d="M14.63 6.86l.94.01h.57c2.37.09 4.77.25 7.1.82l-8.66 4.42-.01-5.25h.06z"/><path fill="#fff" d="M3.45 11.92l.08-2.24 1.87-.87-.07 2.12c-.02.04-.02.08-.03.13-.62.28-1.24.56-1.85.86zm5.85-.43c0-.73-.01-1.52.08-2.24l1.86-.87c.02.03.02.03-.08 2.23l-1.86.88zm-7.17-1.24l-.15-1.42c.59-.23.59-.23 1.51-.55l-.06 1.36-1.3.6zm5.27-.19l.1-2.24 1.5-.7.36-.03-.1 2.1c-.61.3-1.23.58-1.85.87zm6.9-3.1v2.2l-1.06.48.09-2.23.98-.44zM5.5 8.65l.05-.94c1.1-.23 1.1-.23 1.86-.37 0 .4 0 .4-.03.45l-1.88.86z"/><path fill="#fff" d="M1.78 5.3v-.9c.01-.46.01-.46.03-.54.78-.3 1.57-.6 2.37-.86l.92-.24c1.37-.29 1.37-.29 1.39-.31 1.43-.23 1.43-.23 2.36-.36l1.9-.19a85.6 85.6 0 0 1 3.61-.08h.2c.85-.01.85-.01 2.53.02 1.25.1 2.5.19 3.74.35l1.97.35c1.45.35 2.84.76 4.22 1.32v1.92l-3.26 1.65a59.74 59.74 0 0 0-3.2-.6l-1.96-.2c-4.4-.26-8.91-.24-13.25.73-.84.22-1.67.47-2.5.73l-.9.35c-.09-.38-.09-.84-.1-1.23L1.77 5.3z"/><path fill="#fff" d="M12.62 6.88h.2l.41-.02c0 .16 0 .32-.02.5-.1.06-.1.06-1.84.86 0-.44.02-.87.03-1.3l1.22-.04z"/><path fill="#d71920" d="M3.14 4.99v-.34l-.18.04v-.46c.57-.1 1.15-.27 1.72-.35v.72l-.49.1-.01-.27-.52.1v.58l.4-.08v.44l-.4.08v.6l.18-.03v.44c-.3.06-.59.11-.88.18V6.3l.18-.03V4.99zm20.87 1.46l.02-.44.14.02V4.41L24 4.38l-.01.3-.42-.08v-.73c.56.1 1.13.22 1.7.34v.74l-.42-.1-.02-.3a.88.88 0 0 0-.13-.03l-.01 1.63.18.03-.01.44-.86-.17zm-19.2-.31V4.06c.11-.12.15-.2.24-.25l1.06-.18c.14 0 .21.09.31.17v.5l-.48.07a2.46 2.46 0 0 1-.03-.24l-.58.09-.01 1.4v.2l.59-.09V5.3l.51-.08v.65l-.26.28-1.12.18a5.36 5.36 0 0 1-.23-.18zm16.86-.09v-.43l.18.02V4.02a2 2 0 0 0-.18-.03v-.46l1.44.24.31.29v2.03c-.12.08-.22.15-.36.18l-1.39-.22z"/><path fill="#df725a" d="M4.81 6.14c0-.3 0-.3 0 0z"/><path fill="#f2caba" d="M21.67 6.05c0-.07 0-.07 0 0z"/><path fill="#d71920" d="M20.58 5.46v.44l-.69-.08v-.43h.1l.37-1.57-.09-.01v-.45l.78.1v.44l-.08.01.42 1.65.1.03v.43l-.7-.08v-.45c.03 0 .07 0 .11.02a2.6 2.6 0 0 0-.04-.15 22.7 22.7 0 0 1-.34-.04.81.81 0 0 0-.05.14h.1zm-12.92.46v-.44l.18-.03V3.84l-.2.01v-.1c0-.12 0-.23.02-.34l.88-.1v.45l-.17.02v1.61l.17-.02v.45l-.88.1z"/><path fill="#e89c84" d="M21.67 5.62c0 .07 0 .07 0 0z"/><path fill="#d71920" d="M8.9 5.32l.02-.46V3.72l-.2.02.01-.45c.62-.06.62-.06.76-.06l.35.97s.02.03.03-.59l-.06.01a.6.6 0 0 0-.12.02V3.2l.9-.07v.45l-.18.01v1.6h.18v.45c-.67.05-.67.05-.73.04L9.44 4.5v.78h.15v.44l-.87.09v-.46l.18-.02z"/><path fill="#fff" d="M22.39 5.72V4.1l.46.08V5.8l-.46-.08z"/><path fill="#d71920" d="M18.43 5.67v-.43l.16.01V3.63l-.14-.01-.02.29-.42-.03v-.74l1.7.15.01.74L19.3 4l-.01-.3c-.05-.02-.1-.02-.16-.02V5.3l.17.01v.45l-.87-.08zm-2.19-.39v-.49c.17 0 .34.02.5.03 0 .1 0 .2.02.3l.58.04c0-.2 0-.41-.02-.6-.28-.03-.56-.04-.85-.06l-.23-.23V3.25l.22-.19c1.01.04 1.01.04 1.15.06l.26.26v.49l-.53-.03v-.3l-.58-.02v.55c.3 0 .59.02.88.07l.22.23V5.4l-.22.2-1.15-.07-.25-.26zm-5.53.12V3.3l.2-.21c.4-.02.89-.1 1.28-.05l.22.2v.48l-.52.03V3.5l-.66.03v1.61l.66-.03V4.7l-.42.01v-.45l.69-.04.25.24v.86l-.23.23-1.24.05a5.23 5.23 0 0 1-.23-.2zm4.42.11h-.75v-.45h.17V3.44h-.17V3h.39c.08 0 .42 0 .49.02v.45l-.17-.01v1.62h.48l.02-.32.48.01v.78l-.94-.03zM13.15 3h.79l.25.22v2.05a.92.92 0 0 1-.28.24h-1.13l-.18-.17V3.25l.25-.24.3-.01z"/><path fill="#e89c84" d="M4.81 4.05c0 .4 0 .4 0 0z"/><path fill="#fff" d="M13.13 5.08V3.46h.54v1.61h-.32l-.23.01zM20.7 5h-.1c.04-.2.04-.2.1-.34l.08.34a.2.2 0 0 0-.07.01zm-7.69 16.23h-.48c-.29.44-.62.88-.86 1.33l.16.44h.65v.35h-.18v.46h.88v-.47h-.15v-.33l.15-.01v-.42h-.17v-1.35zm-.48.8v.54h-.38l.38-.54z"/></svg>