<svg version="1.1" xmlns="http://www.w3.org/2000/svg" viewBox="0 0 28 32"><path fill="#fff" d="M28.06 16l.01-.02a.56.56 0 0 0 .06-.23.43.43 0 0 0-.05-.2l-.07-.08a106 106 0 0 1 .08-.3.41.41 0 0 0-.18-.34.44.44 0 0 0-.5 0 .96.96 0 0 0-.28.35c-.05-.05-.1-.08-.2-.06-.14.04-.12.06-.23.22-.38.56-.9 1.44-1.48 1.47-.13-.02-.17-.05-.32-.3-1.27-2.02-2.83-3.21-4.9-4.69-.12-.1-.38-.5-.63-.9a7 7 0 0 0-1.44-1.81c-.38-.28-.8-.43-1.19-.57a3.44 3.44 0 0 1-1.34-.72c-.16-.16-.3-.38-.48-.62a5.52 5.52 0 0 0-1.62-1.67 2.18 2.18 0 0 0-.14-1.33.55.55 0 0 0-.34-.28c-.23-.05-.6.03-.84.14a6.68 6.68 0 0 1 2.23-2.9c.33-.27.52-.42.52-.63a.4.4 0 0 0-.02-.11c-.08-.39-.52-.41-.7-.42h-.04a2.8 2.8 0 0 0-1.64.47c-.17.04-.32.11-.46.2 0-.03 0-.05-.02-.07-.07-.16-.26-.3-.56-.27a3.21 3.21 0 0 0-1.19.4c-.2.12-.52.33-.77.81-.23.17-.49.44-.59.83-.25.17-.45.46-.47.83a1.3 1.3 0 0 0-.29.58 1.77 1.77 0 0 0-.88-.42h-.05c-.11 0-.34-.01-.51.16l-.04.04-.03.06a.4.4 0 0 0-.04.17c0 .14.08.24.1.29l.03.03.06.28.03.3c.1.49.3.74.57.97-.06.17-.09.33-.09.47a1.88 1.88 0 0 0 .15.68v.1a7.13 7.13 0 0 1-.27 1.5c-.08.24-.21.67-.21 1.14 0 .17.01.35.06.52.09.3.32.65.63.8l.18.07c.16.06.21.08.28.2.06.08.08.38.08.68 0 .23-.01.46-.03.63v.05c0 .16.1.31.25.37.14.06.34.05.5-.13.11-.11.2-.23.3-.36.01.03.02.07.05.1l.01.01.02.01c.05.04.12.06.2.06a17 17 0 0 1-.8.5c-1.94.3-3.22 1.01-3.47 1.88A9 9 0 1 0 17.96 23a8.8 8.8 0 0 0-.66-3.37l.12-.05.06.06c.11.14.33.3.52.3l.29-.01h.02l.1.17c.18.27.47.26.62.26.1 0 .16 0 .25.03.09.04.12.16.16.44l.04.2c.05.22.17.32.24.38l.06.29c.03.24.07.5.32.61h.03c.04.2.04.44.28.58.05.04.12.04.19.05v.02a.53.53 0 0 0 .4.42l.16.25c.1.17.18.34.3.44l.06.05.07.02.1.01a5.14 5.14 0 0 1 1.1 2.87 2.3 2.3 0 0 1-.56 1.42c-.24.3-.25.64-.25.78v.02c.03.33.2.44.33.51.13.08.5.23 1.04.01.44-.18.53-.5.59-.72.03-.1.05-.17.08-.2a1.4 1.4 0 0 0 .47-1.06c0-.39-.12-.88-.24-1.31a5.54 5.54 0 0 1-.13-1.03c.17.24.31.48.4.62l.04.08c.11.19.44.74.44 1.27 0 .06 0 .12-.02.18a2.2 2.2 0 0 1-.3.8 3.04 3.04 0 0 0-.4 1.18c0 .25.1.47.28.62.24.2.61.24 1 .1.5-.17.83-.73.94-1.48l.13-.1c.13-.14.16-.3.16-.44 0-.11-.02-.2-.04-.26a7.86 7.86 0 0 1-.3-2.3l-.01-.9a1.03 1.03 0 0 0-.28-.6l-.2-.23c-.14-.14-.31-.32-.35-.48-.05-.2-.07-.47-.07-.76 0-.5.06-1.1.11-1.68.07-.63.13-1.23.13-1.77a5 5 0 0 0-.05-.65c1.46.05 2.13-1.46 2.35-1.97l.04-.09c.04-.1.06-.2.06-.28a.42.42 0 0 0-.12-.3zm-17.73-5.15l.06-.38c.03.02.08.02.12.03.04.25.2.38.3.45l.07.28.02.03-.34.29-.2.18-.48.42c.22-.37.4-.9.45-1.3z"/><path fill="#fff" d="M26.15 24.2l.01.02.04.04-.05-.06z"/><path fill="#ed1c24" d="M.34 23.02a8.64 8.64 0 1 1 17.29 0 8.64 8.64 0 0 1-17.29 0z"/><path fill="#fff" d="M1.4 23.02a7.6 7.6 0 1 1 15.2 0 7.6 7.6 0 0 1-15.2 0z"/><path fill="#ed1c24" d="M1.96 23.02a7.04 7.04 0 1 1 14.07 0 7.04 7.04 0 0 1-14.08 0z"/><path fill="#231f20" d="M16.39 18.47c-.15-.15-.28-.35-.28-.35a8.64 8.64 0 0 0-7.12-3.74l-.02.01c-.11.03-.23.1-.4.2-.26.13-.53.14-.8.15-.22-.01-.07-.28-.2-.24-.16.05-.5.16-.64.25-.01.34-1.03.69-1.57.42.06-.8 1.4-1.5 3.3-1.78 1.18-.7 1.35-.89 2.13-1.58.35-.31.51-.44.63-.46.05-.03.01-.06-.03-.06a.37.37 0 0 1-.2-.2c-.06-.13-.02-.29-.1-.37-.11-.07-.24-.13-.25-.3 0-.09-.02-.23-.14-.24-.18.01-.24.05-.26-.32-.01-.15 0-.41-.09-.42-.12 0-.23.39-.36 1.37-.1.71-.52 1.51-.67 1.41-.14-.12-.02-.86-.23-1.18-.04-.06.07.8-.59 1.47-.09.1-.16.04-.16-.01.02-.18.1-1.23-.1-1.55-.16-.26-.34-.27-.6-.39-.21-.1-.38-.37-.45-.57-.17-.67.13-1.38.2-1.61.05-.22.28-1.21.23-1.63-.1-.32-.24-.6-.04-1.09.04-.05.06-.09.02-.13-.31-.24-.52-.43-.6-.9-.06-.28-.02-.4-.12-.65-.04-.1-.12-.15-.1-.21.07-.07.17-.07.26-.07.52.09.83.38 1.02.7a.91.91 0 0 1 .22-.31.96.96 0 0 1 .34-.77.73.73 0 0 1 .42-.73c.03-.34.24-.59.56-.81.22-.5.54-.67.73-.78.2-.11.49-.24 1-.32.22-.03.27.1.17.2a5.19 5.19 0 0 0-1.43 2.01c.1-.17.34-.48.64-.62.17-.44.58-.67.83-.8.15-.26.47-.6.93-.7.53-.44 1.38-.43 1.49-.43.17.01.39.01.42.17.06.23-2.53 1.56-2.93 4.26-.02.12.63-.62 1.31-.5.04.01.07.04.1.08.3.68 0 1.31.08 1.36 1.35.79 1.64 1.8 2.22 2.36.82.77 1.77.74 2.57 1.32.76.54 1.63 2.34 2.07 2.71 1.92 1.37 3.53 2.56 4.81 4.6.17.27.28.43.6.46.72-.02 1.3-.87 1.78-1.64.03-.04.06-.05.09-.02.06.04.03.15.08.16.16.02.3-.44.45-.55.06-.04.16 0 .14.08-.05.18-.16.38-.17.52 0 .03.03.02.05 0a.11.11 0 0 1 .1-.04c.07.02.06.1.04.14a.83.83 0 0 0-.11.35c0 .11.08.03.13.06.07.04.06.13.02.23-.2.44-.8 2.05-2.26 1.84-.18-.03-.28-.16-.22.04.37 1.25-.36 3.97-.05 5.26.09.37.5.67.63.86a.7.7 0 0 1 .19.4c.1 1.1-.19 1.2.32 3.26.05.17.04.29-.05.39-.09.1-.16.06-.18.15-.07.67-.34 1.19-.73 1.33-.54.19-.89-.07-.81-.52.15-.82.54-.98.68-1.81.1-.7-.32-1.43-.47-1.68a5.7 5.7 0 0 0-.9-1.24c-.06-.06-.1-.05-.12.01-.16.51 0 1.56.08 1.83.12.43.26.97.23 1.32-.02.35-.2.56-.36.72-.26.24-.1.65-.57.85-.34.14-.6.08-.72.02-.1-.07-.16-.1-.17-.23a.9.9 0 0 1 .17-.59c.25-.31.6-.76.65-1.6.1-1.53-1.25-3.26-1.33-3.28-.1-.02-.06.05-.13.04-.13-.12-.3-.53-.44-.68-.08-.1-.27-.06-.3-.21-.02-.12-.07-.24-.16-.3-.06-.03-.1.04-.17 0-.16-.12-.17-.6-.22-.62-.06-.03-.12.02-.16 0-.12-.05-.09-.44-.19-.72-.04-.15-.19-.14-.23-.32-.07-.31-.06-.73-.4-.88-.35-.16-.57.05-.74-.2-.08-.1-.07-.29-.3-.3-.12-.07-.16-.21-.27-.18-.06.02-.01.13-.13.2-.17.02-.33-.42-.55-.4-.08.03-.1.11-.19.12-.1 0-.1-.5-.42-.61-.06-.03-.1.08-.15 0 0 0-.13-.09-.28-.25z"/><path fill="#fff" d="M8.75 3.46c.14-.17.41-.24.4-.3-.02-.05-.12 0-.2 0-.03 0-.08 0-.07-.04.13-.45.57-.53.7-.67.02-.03 0-.03-.03-.05-.07 0-.18.07-.18 0 .05-.44.6-.66.7-.7.02-.02 0-.05-.03-.05-.05 0-.09.03-.1-.03.06-.22.36-.4.55-.5.2-.07.58-.2.58-.13 0 .02-.3.17-.4.32-.09.12-.16.2-.17.4-.31.15-.46.5-.49.82-.22.11-.38.51-.31.68-.25.24-.38.6-.37.95-.54.72-.38 1 .22 1.22.1.03.18.03.2-.01.02-.05-.06-.07-.08-.13-.33-.74.08-1.1.66-1.35.05-.02.01-.07-.06-.07-.15 0-.3.04-.31-.01-.09-.24.53-.74.84-.83.13-.04.08-.1.02-.1-.08 0-.2.04-.25-.07.08-.27.83-.62.94-.69.06-.04.1-.12-.24-.05-.03 0-.06 0-.05-.04.06-.2.76-.47 1.12-.59.05-.03.07-.11-.1-.08-.06 0-.17.05-.2 0 .03-.26.8-.46 1.07-.52.07-.02.08-.06.02-.09-.08-.02-.22.05-.17-.05.2-.13.76-.13.95-.1.05.01.06.02.07.04-.06.13-.98.4-1.1.96-.27.11-.54.37-.58.6-.14.08-.43.32-.45.65-.16.12-.57.49-.43.93-.23.21-.4.43-.39 1.01 0 .2-.26.53-.53.6-.07.04-.04.1.01.11.45.14.87-.1 1.04-.27.52-.5.87-.67 1.1-.7.05-.01.05.02.05.04.04.13.12.45 0 .9-.14.55-.57.81-.69.96-.02.02.06.26.02.38-.05.16 0 .25.06.27.15.06.26-.51.36-.5.07 0 .06.13.15.17.04.02.11 0 .12-.05.01-.16.07-.55.1-.6.04-.03.13.15.13.26 0 .45-.25.83-.1 1.14.04.06.1.06.16 0 .14-.14.23-.66.53-.73.4-.09.8 1.02.52 1.32-.14.12-.31.01-.48.1-.19.12-.17.53-.3.7-.07.08-.16.09-.34.1-.37.03-.25 1.08-.2 1.27.04.11.12.09.17.05.05-.04.1-.26.1-.46.02-.06.13-.1.21-.17.09-.07.04-.14.1-.2.07-.09.14-.02.2-.1.16-.14.05-.35.18-.43.19-.13.35-.07.52-.25.1-.11.11-.35.26-.4.76-.01 1.52.87 1.65 1.13.37.78-.23 1.95.18 2.18.52.3.4.88.35 1.03-.11.3-.94.68-1.05 1.37-.05.67.3.53.32.45.03-.09.05-.2.1-.28.03-.07.13-.04.14.03.02.06.16.24.37-.15.13-.25.5-.57.76-.75.26-.2.33-.78.37-.91.04-.12.14-.12.15-.24 0-.13-.23-.55-.09-.86.07-.1.23-.17.35-.03.13.15-.08.62.15.63.2.01.22-.22.38-.2.18.03-.13.66.04.75.1.05.23 0 .28.1.05.17-.26.49 0 .49 2.84-.05 3.88 2.18 3.7 2.59-.09.15-.43-.08-.48.08a1.6 1.6 0 0 0 .5 1.65c.05.03.14-.01.13-.12-.03-.25-.17-.38-.14-.63.05-.43 1.02-.17 1.07.16.02.13.02.23.13.33.14.13.47-.01.5.27.04.56-.65.6-1.14.94-.23.18-.18.3.02.37.23.06.6 0 .8.27.26.38-.1 1.18-.11 1.52-.02.34.59 1.34.6 1.85.05.25-.13.39-.34.18-.21-.22-.43-.56-.6-.8-.04-.09-.16-.1-.16.07 0 .44 2.09 3.16 2.14 3.6.05.24-.08.44-.03.67.02.07.1.03.11.08.01.15-.14.38.08.49.1.3 0 .42.06.67.02.25.14.59.17.84-.06.7-.33.97-.54 1.08-.19.09-.27-.08-.25-.22.05-.42.52-1.18.33-2.03-.48-2.18-2.81-3.73-3.2-4.56-.13-.31-.58-.34-.6-.71-.05-.12-.17-.09-.27-.2-.08-.09-.08-.38-.17-.59-.02-.06-.1-.03-.17-.1-.33-.43-.26-2.56-.55-2.85-.22-.13-.4.21-.66.24-.21.02-.56-.5-.68-.36-.1.1-.06.36-.05.4 0 .04.06.22-.01.22-.06 0-.16-.13-.42-.23-.17-.07-.34 0-.42-.06-.18-.2 0-.6-.3-.71-.08-.04-.1-.25-.14-.34-.04-.06-.13-.06-.17-.1a1.3 1.3 0 0 1-.17-.45c-.03-.12-.3.03-.33-.16-.03-.13-.17-.16-.29-.18-.14-.02-.08-.33-.2-.38-.05-.02-.07.04-.13.01-.05-.07-.04-.14-.11-.18-.06-.05-.12.02-.16-.03-.18-.21-.04-.57-.13-.67-.06-.07-.16 0-.26-.08-.09-.06-.1-.18-.15-.2-.16 0-.21-.02-.28-.1-.28-.4-.25-.86-.35-1.02-.06-.1-.16-.17-.23.03-.14.34-.13 1.64-.54 1.81-.32.16-.6-.4-.76-.49-.07-.04-.08.08-.13.08-.15-.05-.12-.23-.24-.3-.11-.04-.06.12-.13.1-.11-.1-.11-.38-.21-.43-.08-.03-.13.06-.18.02-.16-.14-.05-.46-.24-.56-.09-.02-.08.12-.16.08-.09-.03-.07-.48-.34-.44-.04 0-.02-.06-.05-.08-.08-.01-.13.1-.21.03a1.3 1.3 0 0 0-.27-.27c-.11-.1-.28.02-.41-.08-.49-.21-1.59.63-2.09 1.12-.18-.17-.42.01-.63.03-.07.02-.3 0-.12-.24.45-.48.78-.46 1.63-1.06.62-.46 1.18-.9 1.38-1.03.16-.09.42-.16.64.13.31.4 1 1.09 1.3 1.22.61.26.64-.2.72-.36.06-.17.1-.03.1.12 0 .1.03.25.12.26.16.02.16-.1.19-.19.19-.74.92-1.64 1.21-1.46.21.14.34.14.39-.12.06-.33-.2-.63-.27-.98-.07-.4-.02-.93-.18-1-.09-.04-.21.05-.28.15-.1.12-.1.25-.12.4-.02.08-.35.17-.4.6 0 .08-.12-.07-.21 0-.2.15-.16.85-.22.9-.07 0-.15-.08-.18.02.02.12-.05.4-.1.41-.05.02-.1-.04-.16 0-.16.13-.1.32-.25.5-.1.12-.16.03-.17-.07a1.2 1.2 0 0 0-.28-.56c-.36-.37-.14-.98-.65-1.24-.15-.08-.16-.15-.17-.29-.01-.15-.1-.25-.18-.27-.13-.04-.16-.12-.16-.21 0-.27-.19-.28-.3-.3-.24-.02-.25-.07-.17-.69a1 1 0 0 0-.02-.46c-.13-.19-.42-.06-.38-.37.03-.2.4-.47.55-.64.1-.1.16-.38-.17-.32-.74.2-1.33 1.51-1.47 1.76-.53.99-1 1.38-1.43 1.53-.2.07-.91.13-1.06-.56-.07-.36.02-.7.18-1.27.72-2.49-.08-2.01.3-2.84.26-.28.62-.24.98-.29.08 0 .05-.11.03-.14-.01-.03-.1-.07-.2-.09-.12-.02-.36-.23-.38-.46-.02-.25.14-.4.25-.5.15-.16.26-.17.26-.2 0-.14-.29.05-.31 0-.06-.21.11-.4.23-.54z"/><path fill="#fff" d="M7.98 4.76c0 .09 0 .23.11.52-.12.02-.2.12-.3.06a1.41 1.41 0 0 1-.62-.85c-.07-.2-.06-.43-.17-.6.57.03.99.8.98.87z"/><path fill="#231f20" d="M12.57 4.85c.03-.01.05.01.05.02-.03.4-.46 1.22-1.02 1.36-.03.01-.05 0-.06-.02a.91.91 0 0 1 .58-.94c.23-.09.33-.24.46-.42zM10.7 6.44c.02.1 0 .11-.1.05-.28-.3-.53-.22-.71-.13-.09.04-.11.03-.09-.05.27-.4.76-.2.89.13zm-1.53.06c.15.21.08.54-.04.79l-.34.62c-.02.08-.08.09-.13.07-.05-.01.18-.4.24-.84.03-.18-.02-.45.11-.64.05-.07.12-.05.16 0zm1.23.2c.11.25-.15.37-.3.4-.1.02-.19-.01-.28-.07-.05-.04-.02-.07-.06-.09-.08 0-.06.05-.15.07-.06 0-.07-.02-.03-.08.1-.17.16-.28.32-.35.15-.06.38-.13.5.12zm-.85 1.04c.13.5.03.68-.08.8-.04.04-.31.09-.34-.25.13-.16.21-.4.29-.58.06-.11.1-.12.13.03zM8.56 9.1c-.06.32-.18.48-.4.53-.26.03-.37-.26-.34-.26.25.05.52-.1.67-.3.04-.05.08-.01.07.04zm12.64 4.83c.15.04.2.19.16.27-.06.14-.18.23-.19.36 0 .1-.02.17-.1.2-.16.02-.26-.31-.4-.08-.08.11-.24.03-.26-.03-.03-.1-.1-.2-.2-.21-.33-.01-.41-.54-.36-.68.26-.6.9 0 1.35.16z"/><path fill="#fff" d="M8.08 13.82c-.18.14-.3.3-.4.48a3.9 3.9 0 0 0-.79.29c-.09.04-.43.07-.74.1-.05 0-.06-.03-.06-.06-.02-.24 1.43-.83 1.99-.89.05 0 .08.02 0 .09zm19.15 3.01c.05.12-.08.27-.2.4-.13.16-.69.55-1.15.53-.13-.02-.27-.16-.22-.33.04-.15.49-.18.83-.3.25-.09.37-.14.57-.3.12-.09.15-.03.17 0zm-3.93 8.65c.07 0 .06-.02.14 0 .06 0 .06.29.05.43-.02.09-.04.24.06.31.08.07-.11.34.03.47.08.11-.09.4.04.56.06 0 .1.01.14.07-.05.33.1.85.04 1-.14.23-.25.2-.38.58-.18.36-.7.13-.6-.16.37-.63.5-1.33.52-1.63.07-.8-.35-2.06-.4-2.23 0-.16.03-.26.15-.11.19.29.12.7.2.72zM9.73 18.74l-.01.07-.49-.72-.2 2.53h-.07l-.2-2.53-.49.72-.9-4.12c-.05.28-.89 4.12-.89 4.12L6 18.1l-.86 10.77v.01a6.97 6.97 0 0 0 7.71 0v-.01L12 18.09l-.5.72-.89-4.12-.87 4.05z"/><path fill="#231f20" d="M12.88 28.86l-.86-10.87-.5.74-.9-4.2-.92 4.2-.5-.74-.2 2.63-.21-2.63-.5.74-.91-4.2-.91 4.2-.5-.74-.87 10.87v.03a7 7 0 0 0 7.78 0v-.03z"/><path fill="#fff" d="M16.34 22.63l-1.11-3.84-13.7 3.85.85 3.91 13.96-3.92z"/><path fill="#ed1c24" d="M4.11 22.41l1.8-.55-.32 3.38-1.25.35.21-2.3-.54.19.1-1.06zm3.35 1.81c-.03.35-.4.65-.74.75-.34.1-.67 0-.64-.36.04-.37.4-.68.75-.76.33-.1.66 0 .63.37zm.83-3.03l2.32-.66-.08.98-1.06.29-.03.35.93-.26-.09.87-.93.27-.11 1.18-1.27.36.32-3.38zm5.31-.16a.84.84 0 0 0-.7-.13c-.38.1-.72.48-.76.85-.03.37.27.57.65.46.29-.08.53-.26.75-.52l-.15 1.28c-.21.15-.69.32-.91.38-1 .28-1.7-.25-1.61-1.2.09-1 .96-2 1.99-2.3.28-.08.57-.11.83-.09l-.08 1.27z"/><path fill="#fff" d="M8.13 25.53c-.02.13-.11.26-.21.3-.1.03-.17-.06-.16-.2 0-.14.1-.27.2-.29.1-.04.18.05.17.19zm.54-.16c-.01.14-.1.27-.2.3-.11.04-.18-.06-.17-.19.01-.13.1-.26.2-.3.1-.03.18.06.17.2zm.35 1.43c-.06.71-.51 1.26-1.03 1.4-.51.15-.9-.17-.84-.88.06-.7.52-1.27 1.03-1.42.52-.14.9.2.84.9zm-1.25.35c-.02.26.1.4.28.35.18-.05.33-.26.35-.51.02-.25-.08-.41-.28-.35-.19.05-.33.28-.35.51zm1.56-1.53l.62-.17-.13 1.51.51-.14-.06.71-1.12.31.18-2.22zm1.29-.36l.6-.16.44 1.08h.01c0-.18-.01-.37 0-.56l.06-.67.59-.16-.19 2.23-.59.16-.44-1.02h-.02v.44l-.06.73-.58.16.18-2.23z"/><path fill="#fff" d="M5.65 26.64l.6-.17-.1.98h.02c.02-.1.06-.2.1-.29l.36-.8.67-.18-.62 1.23.5.99-.72.2-.24-.6c-.03-.07-.07-.14-.07-.23h-.02l-.07.94-.6.16.2-2.23z"/></svg>