<svg version="1.1" xmlns="http://www.w3.org/2000/svg" viewBox="0 0 32 32"><path fill="#ad1732" d="M.9 16a15.1 15.1 0 1 1 30.2 0A15.1 15.1 0 0 1 .9 16z"/><path fill="#fff" d="M2.74 15.93h.43A12.83 12.83 0 0 1 16.04 3.06v-.4.4-.4.4c7.1 0 12.87 5.76 12.87 12.87A12.83 12.83 0 0 1 16.04 28.8h-.02l.02.43v-.43A12.87 12.87 0 0 1 3.17 15.93H2.3c0 7.59 6.15 13.74 13.74 13.74h.02l-.02-.43v.43h.02l-.02-.43v.43a13.74 13.74 0 1 0 0-27.48v.43-.43A13.73 13.73 0 0 0 2.3 15.93h.44z"/><path fill="#fff" d="M16.92 12.87h1.64V11.2h-1.64zm-4.05-6.08h2.04v6.08h1.48V4.25h-1.1c-.2 1.03-1.28 1.44-2.42 1.43v1.1zm6.46 16.02h1.4v-6.47h.04l3.85 6.47h1.57V14h-1.41v6.48h-.03l-3.86-6.47h-1.56zm-.35-6c-.18-1.9-1.69-2.99-3.6-3-2.53 0-4.05 2.09-4.05 4.6s1.52 4.6 4.06 4.6c2.05 0 3.48-1.45 3.6-3.55h-1.45c-.12 1.28-.84 2.3-2.15 2.3-1.82 0-2.58-1.66-2.58-3.35s.76-3.35 2.57-3.35c1.24 0 1.87.74 2.11 1.75h1.49zm-13.27 6h1.48v-3.9h3.83v-1.26H7.19v-2.3h4.36V14H5.71z"/></svg>