<svg version="1.1" xmlns="http://www.w3.org/2000/svg" viewBox="0 0 32 32"><path fill="#fff" d="M31.79 16A15.8 15.8 0 0 1 .2 16a15.8 15.8 0 0 1 31.58 0z"/><path fill="#0060a9" d="M15.3 32zm2-1.7c1.68-.16 3.04-.51 4.41-1.16a14.27 14.27 0 0 0 8.5-12.64l.02-.46h-9.52v5.31h.78c.7.01.78.02.8.04.04.05.03 3.74 0 4.04A3.76 3.76 0 0 1 20.88 28c-.75.61-1.7 1-2.91 1.17-1.84.27-4.12.12-5.79-.38a8.02 8.02 0 0 1-2.5-1.25l-.08-.06V16.03c0-9.15 0-11.47.02-11.5a12.61 12.61 0 0 1 4.54-1.67c2.32-.31 4.35-.08 6.18.7.9.38 1.42.92 1.74 1.8.08.22.15.55.18.79.01.11.03 1.03.03 2.54l.01 2.37h6.97c.02-.02-.1-.4-.23-.75a14.3 14.3 0 0 0-16.02-8.28c-.99.18-1.65.38-2.5.74a15.16 15.16 0 0 0-7.85 8 14.44 14.44 0 0 0-.83 7.71 14.1 14.1 0 0 0 5.07 8.67 12.8 12.8 0 0 0 3.59 2.13 15.58 15.58 0 0 0 6.8 1.01zm-3.86-2.16c.2-.06.35-.12.55-.25.42-.26.69-.58.8-.97l.05-.14v-3.07l-.01-3.2c-.06-.4-.29-.77-.64-1.08s-.72-.44-1.22-.44c-.4 0-.69.1-1 .3-.37.24-.66.64-.77 1.05-.02.1-.02.5-.02 3.26 0 3.12 0 3.15.03 3.28.15.52.69 1.06 1.24 1.24.3.1.7.1.99.02zm-.63-1.17a.71.71 0 0 1-.4-.39c-.04-.1-.04-.12-.04-3.01v-2.91l.06-.1a.7.7 0 0 1 .3-.32.8.8 0 0 1 .53-.01c.15.05.3.2.35.35l.04.1v5.89l-.05.08a.73.73 0 0 1-.3.3.54.54 0 0 1-.27.05.89.89 0 0 1-.22-.03zm6.24 0c0-.97 0-1.11.03-1.13.02-.02.11-.02.4-.02h.36v-1.26h-.38c-.28 0-.39-.01-.4-.03l-.01-.7v-.69h-1.2v.7c.01.6.01.7-.01.72-.04.02-.83 0-.86-.03a140.93 140.93 0 0 1 1.28-5.4h-1.31l-.01.03-.46 1.9-.8 3.29-.34 1.47c0 .02.14.02 1.21.01l1.23.01c.02.01.02.32.02 1.12v1.1h1.25v-1.1zm-3.14-8.54a4.67 4.67 0 0 0 3.18-1.68 3.67 3.67 0 0 0 .68-2.65c-.03-.23-.09-.5-.14-.7a2.83 2.83 0 0 0-.42-.7c-.38-.57-.69-1.01-1.46-2.11a57.18 57.18 0 0 1-2.1-3.1l-.1-.18-.04-.35a1.6 1.6 0 0 1 0-.46c.05-.25.25-.53.51-.72.29-.2.37-.21.84-.21.4 0 .53.03.81.16.25.13.42.3.57.56.25.45.37.85.45 1.5l.04.26c0 .02.11.02.46.02h.49c.03-.02.03-.23.03-2.16l-.01-2.15h-.6l-.18.29c-.12.18-.2.28-.22.28a6 6 0 0 0-1.55-.64 5.12 5.12 0 0 0-3.9.66 4.18 4.18 0 0 0-1.68 2.37 3.44 3.44 0 0 0 .16 2.2l3.76 5.51c.08.1.1.18.18.42.08.26.08.29.07.44-.02.28-.15.53-.41.79a.97.97 0 0 1-.32.22c-.28.14-.41.17-.78.17-.27 0-.33 0-.45-.04-.4-.11-.7-.35-.88-.7-.15-.3-.22-.6-.28-1.25a2.4 2.4 0 0 0-.11-.72 5.17 5.17 0 0 0-.67-.01h-.65l-.01 4.56h.9l.04-.04.2-.28c.11-.2.15-.24.19-.24l.23.09c.65.32.97.43 1.46.52.54.1 1.19.13 1.7.07z"/></svg>