<svg xmlns="http://www.w3.org/2000/svg" viewBox="0 0 595 549"><defs><style>.cls-1,.cls-3{fill:#fc0}.cls-1{stroke:#000;stroke-miterlimit:3.86;stroke-width:2.5px}.cls-2{fill:#00519e}</style></defs><path class="cls-1" d="M301.47 539.67s-37.35-35.64-75.06-38.5C26.24 486 13.11 343.21 40.49 291.49c34.95-66 55-99 56.1-118.93 1.49-27.43-33.43-62.35-33.43-62.35L182.11 20s68.16 44.94 118.42 45.36C350.79 64.91 418.95 20 418.95 20l118.94 90.24s-34.3 34.92-32.82 62.35c1.08 19.89 20.54 52.93 55.49 118.93 27.39 51.69 14.26 194.48-185.91 209.65-37.71 2.83-73.18 38.5-73.18 38.5z"/><path class="cls-2" d="M544.71 329.07H308.39V89.57a23.76 23.76 0 0 1 6.84-1.33c30.91.91 103.11-39.69 103.11-39.69l86.2 61.76s-26.06 37-23.26 63.66c4.34 41.33 29.47 85 47.4 111.87 19.7 29.54 16.03 43.23 16.03 43.23z"/><path d="M55.76 328.5H292V89a23.74 23.74 0 0 0-6.83-1.33C254.25 88.58 182.07 48 182.07 48l-86.94 64.2s21.4 28 24.67 52.65c2.52 19.07-10.18 59.1-22.67 79.63-7.93 13-13.46 25.24-19.76 34.81-20.04 30.47-21.61 49.21-21.61 49.21zm65.81 14.71H162v118.86s-13.45-4-21.79-7.26c-7.4-2.89-18.63-8.23-18.63-8.23z"/><path class="cls-2" d="M176 343.21h40.42V476.6s-10.17-1-21.79-3.39c-7.51-1.56-18.63-6.3-18.63-6.3zm104.93 0h40.42v154.21s-4.84 0-20.82 10.65c-14-10.65-19.6-10.65-19.6-10.65V343.21z"/><path d="M372.83 343.21h-40.42v147.91s15-7.27 26.63-9.69a69.39 69.39 0 0 1 13.79-1.43zm-143.83 0h40.42v147.91s-15-7.27-26.63-9.69A69.39 69.39 0 0 0 229 480z"/><path class="cls-2" d="M426.79 343.21h-40.43V476.6s10.17-1 21.79-3.39c7.51-1.56 18.63-6.3 18.63-6.3z"/><path d="M479.89 343.21h-40.42v118.86s13.45-4 21.79-7.26c7.4-2.89 18.63-8.23 18.63-8.23z"/><path class="cls-2" d="M544.28 343.21h-52.84v95.62s17.66-20.33 28.09-34c21.91-28.83 24.75-61.62 24.75-61.62z"/><path class="cls-3" d="M170.57 103.64h89.79l15.11 30.21-29.37-16.78h-47.83v33.73l4.2 2.36 15.94-15.94-12.59 35.35-8.33-4.84-.06 24h17.62s-18.46-36.9 20.14-37.73c4.25-.09 10.91 0 10.91 0l11.75-6.71v29.37s-25-20.7-27.69-4.09c-5 30.95 18.46 14.16 18.46 14.16l12.59 31.05-19.3-13.43s5.9 15.46 10.07 25.18c20.14 47-37.76 68-37.76 68v-26s21 20.14 23.5-18.46c1.35-20.68-19.3-49.51-19.3-49.51h-21.83V250s8.92 1.6 26-5.35c-7.48 20.31-25.18 23.45-25.18 23.45l.84 40.28-28.53-19.3s4.54-4.07 5.88-7.55c1.72-4.5 0-12.36 0-12.36s-53.79.17-52.42-62.33c.51-23.46 10.15-41.6 31.43-52 7.89-3.87 21.82-5.65 21.82-5.65v-32.12z"/><path d="M174.77 246.82v-80.7s-29.12-1.07-30.21 42.43c-.87 34.28 30.21 38.27 30.21 38.27z"/><circle class="cls-3" cx="167.19" cy="140.85" r="5.4"/><path class="cls-3" d="M155 106.85l-17.5 16.46 2.16 4 6.21-3s-.48 13.66.27 18.62c1.35 8.91 8.31 4.26 13.23 2.43 0 0-6.75-16.19-.54-38.05.4-1.31-3.83-.46-3.83-.46zm285.35 22.13h29.96v10.27h-29.96z"/><path class="cls-3" d="M450.19 119.13h10.27v29.96h-10.27zm30.82 177.18h29.96v10.27h-29.96z"/><path class="cls-3" d="M490.85 286.47h10.27v29.96h-10.27zM320.1 252.66h29.96v10.27H320.1z"/><path class="cls-3" d="M329.94 242.82h10.27v29.96h-10.27zm-3-137.74h29.96v10.27h-29.96z"/><path class="cls-3" d="M336.79 95.24h10.27v29.96h-10.27zM456.44 289.2l-1.11-13.83 6.08-6.64-7.74-2.21-3.87-7.19L436 251s-.44-7 5.53-8.3c29-6.34 6.52-45.91 6.52-45.91s-7.07-24.26-.09-24.26c2.06 0 6.71 2.26 7.95 15.43.88 9.37 5.95 15.57 7.2 12.15 1.65-4.53 4.51-7.77 4.36-11.9-.7-18.92-19.76-32.33-26.49-15.68-3.4 8.41 2.21 23.15 2.21 23.15l7.19 22.13s3.32 33.74-23.79 6.64c-9-9-16.59-32.08-16.59-32.08l-10 1.11 3.32-10 4.42 6.08 5-13.28 7.19-7.19-.55-10 5.53.55-1.66-3.87L421 147l3.32-8.85-.55-7.74-5-.55-1.66-5.53-3.32 3.87-3.32-5.53-13.28-6.08-3.32 2.77 4.42 4.43-8.85-1.66-6.08 5 2.77 5 7.74.55s12.64 19-5.53 16.6c-2-.26-1.11 5-1.11 5l13.83 1.11-14.38 8.3-11.06-1.11-12.62 1.61 2.21 5.53-8.3 2.85 2.77-11.7s-20.21-8-18.81-14.38c.84-3.83 8-2.49 7.74-6.4-.61-9.75-7.32-7.32-7.32-7.32l-9.75 9.14s2.53-9.33-1.42-10.36c-4.25-1.12-5.3 10-5.3 10s-3.06 3.14-2.77 5.53c.48 3.95 10 2.21 10 2.21l1.66 8.85 9.4 8.85 2.21 5.61 8.3 2.68-3.87 7.19 6.08 3.87L353 193l7.19 2.21-3.87 2.21 3.87 2.21 9.4-8.85-6.07-2.78 6.64-9.4-.55-3.87h5v3.87l-5.61 6.61h10.51s-22.45 28.64-35.4 31c-3.9.71-7.19-7.19-7.19-7.19l-5 5.53-6.64-2.21-3.87 4.43 3.32 5-.55 6.64 5.53 1.11 6.08-5 8.3 5.53 5.53-6.64h6.08l5-6.64 6.08-2.21 3.87-5.53h11.06l-2.21-8.3 11.06 2.21-2.21 5.53-8.3 6.09s11.67 3.43 19.36 3.87c16.16.93 11.62 38.72 11.62 38.72l4.42 6.08 3.17 8.55 10.66-.81 11.72 4.4 4.43 16-3.32 4.43-7.74-4.43-2.77 5-5 3.87 1.11 4.42 11.62-2.21-3.9 5.55 5 3.32 5-5 6.64-7.74 3.87 4.42 5.53-.55-5-7.74v-5.51z"/><path class="cls-3" d="M392.81 140c-1.72-6.73-10.37-.09-17.27-4.32-13.22-8.1-10.8.81-10.8.81s4.55 7.59 8.1 5.94c21.1-9.78 21.91 5.21 19.97-2.43zm6.21-26.14l16.73 8.1 9.45-3.24-9.45-1.62-2.16-8.91-8.64 3.78-7.28-7.55 1.35 9.44zm4.05 121.99l-3.78-5.94-6.21 7.56-12.41 4.59-15.39 17.54 5.4 2.43.27 8.64-7 11.07s-11.32 5.8-8.37 3.78c13.76-9.45 10.8-18.89 10.8-18.89s-6.75 12.42-14.3 13a23.14 23.14 0 0 1-5.13-.54l-3.51 5.67-4.86.81-2.43 4.59h4.32L344 296l.27 3.24 4.86-.54 4.86-7 6.75-1.08 6.21 1.89 6.48-3 4.32-4.86 7.29-.27 2.16-3.78 7 1.08-1.08-19.43 13-14 .81-6.21z"/><path class="cls-2" d="M397.66 167.55l2.81-2.81 3.6 1.2 3.21-2.8 2-2.81v6.42l-3.6 2-3.61 3.81-4.41-5.01zM55.77 343.21h52.83v95.62s-17.66-20.33-28.08-34C58.61 376 55.77 343.21 55.77 343.21z"/></svg>