<svg version="1.1" xmlns="http://www.w3.org/2000/svg" viewBox="0 0 32 32"><path fill="#000" d="M.53 16.01A15.47 15.47 0 1 1 31.47 16a15.47 15.47 0 0 1-30.94.02z"/><path fill="#fff" d="M1.23 16.01a14.77 14.77 0 1 1 29.54 0 14.77 14.77 0 0 1-29.54 0z"/><path fill="#ec1b24" d="M6.87 16.01a9.12 9.12 0 1 1 18.25 0 9.12 9.12 0 0 1-18.25 0z"/><path fill="#000" d="M6.46 21.06H5.8l-.34-.57-.33.57h-.65l.33.57-.33.58h.66l.33.55.34-.55h.64l-.33-.58.34-.57zm21.11 0h-.66l-.33-.57-.33.57h-.66l.33.57-.33.58h.66l.33.55.34-.55h.65l-.33-.58.33-.57z"/><path fill="#fff" d="M20.88 10.08h-.66l-.34-.57-.33.57h-.65l.33.57-.33.58h.66l.33.55.34-.55h.64l-.33-.58.34-.57zm-4.66.42c.72.04 1.24.6 1.3 1.28h-2.98c.05-.7.57-1.24 1.29-1.28V9.1h-.9v-.4h.9V7.52h.4v1.2h.88v.39h-.89v1.39z"/><path fill="none" stroke="#fff" stroke-width="3.48" stroke-miterlimit="10" stroke-linecap="butt" stroke-linejoin="miter" d="M12.16 12.77v-.6m3.86.6v-.6m3.87.6v-.6"/><path fill="none" stroke="#fff" stroke-width=".61" stroke-miterlimit="10" stroke-linecap="butt" stroke-linejoin="miter" d="M10.48 16.25h11.1"/><path fill="none" stroke="#fff" stroke-width="3.07" stroke-miterlimit="10" stroke-linecap="butt" stroke-linejoin="miter" d="M11.96 19.8v-.6m8.13.6v-.6"/><path fill="#fff" d="M10.88 13.26c.3-.1.76-.25 1.1-.05.18.11.07.29.01.44a.91.91 0 0 1-.58.18.88.88 0 0 1-.53-.16c-.06-.15-.19-.37 0-.41zm1.57.46s-.12-.33 0-.47c.13-.15.33-.04.52-.04.13 0 .2.02.34 0 0 0 .1.35 0 .5-.17.3-.86 0-.86 0zm-1.39.35c-.13.13-.17.15-.18.38 0 .22.06.35.22.35h.13v-.42c0-.15-.04-.27-.17-.3zm3.7.03c-.03.15-.02.24-.02.37 0 .15 0 .33.14.33.24 0 .22-.38.22-.55 0-.16-.18-.16-.34-.16zm-.16-.73c0 .08.14.22.2.26.14.13.24.11.42.11l.3-.02c.2 0 .33-.16.33-.36 0-.17-.26-.24-.44-.24h-.43c-.15 0-.37 0-.37.25zm1.6.33c.07.06.13.04.23.04h.29c.17 0 .26.02.39-.09.1-.09.06-.17.06-.3 0-.16-.3-.2-.5-.23-.18 0-.32 0-.43.14s-.04.44-.04.44zm-4.68.57l-.03.33c0 .13.3.18.42.2.21.02.36.02.58.02.17 0 .34-.13.34-.3 0-.14.03-.25-.06-.34-.1-.13-.24-.13-.41-.15-.3-.03-.74-.05-.84.24zm3.87 0a.44.44 0 0 0 .06.37c.12.18.26.16.55.16.3 0 .7-.13.66-.53-.01-.11-.26-.15-.4-.18 0 0-.79-.15-.87.18zm1.51.2c0 .15-.05.35.15.35.19 0 .2-.09.2-.24 0-.13.15-.49-.05-.5a.23.23 0 0 0-.24.06c-.09.1-.06.2-.06.33zm1.58-1.02c0 .31.25.42.72.4.26-.02.55.02.5-.48 0-.05.05-.11 0-.14-.32-.24-.36 0-.6 0s-.62-.02-.62.22zm1.69-.08v.22c0 .17.1.37.28.37h.27c.26 0 .43-.24.43-.48 0-.16-.18-.25-.31-.27l-.4.04h-.22c-.04.03-.04.07-.04.11zm-1.4.7c-.18.18-.19.2-.19.44l.01.29h.16c.16 0 .2-.2.2-.35s-.05-.3-.18-.38zm.43.38c.01.04.07.15.15.22.16.15.33.1.52.1s.48-.08.5-.37c.01-.22-.43-.33-.64-.33-.21 0-.58.09-.53.38zm.95.81c0 .24.28.38.53.38.12 0 .17-.1.27-.16.09-.04.19-.1.19-.22 0-.17-.19-.26-.37-.26-.26 0-.62 0-.62.26zm-.62.38c.16-.11.32-.36.17-.47-.1-.08-.25 0-.31 0-.11 0-.18-.06-.3-.06-.2 0-.38-.07-.48.08a.43.43 0 0 0-.05.18c0 .13 0 .2.08.31.13.15.32 0 .54 0 .13 0 .23.02.35-.04zm-2.48 0c-.12.02-.2.02-.33.02a.87.87 0 0 1-.48-.13c-.04-.05-.04-.1-.04-.16 0-.22.4-.28.61-.28.2 0 .35.06.35.26a.5.5 0 0 1-.1.29zm-1.65-.51l-.33.02c-.16 0-.45 0-.45.15 0 .22.2.22.42.22h.43c.2 0 .37-.02.37-.21 0-.1-.12-.16-.2-.16l-.24-.02zm-2.46.53h-.47c0-.07-.14-.11-.14-.18s.06-.13.12-.2c.23-.24.54.03.85.03v.17c0 .04-.08.09-.13.13-.11.07-.1.05-.23.05zm-1.16-.02c-.37 0-.41.02-.78 0 0-.03-.1-.18-.11-.25 0-.22.13-.22.35-.22.28 0 .73-.15.73.14 0 .1-.06.33-.19.33zm-.91 1.56c.02.24.39.16.65.16.2 0 .34.06.54-.03.15-.04.18-.2.18-.35 0-.06-.13-.1-.2-.1-.22-.03-.28.01-.47-.1-.23-.13-.74.1-.7.42zm1.83-.33c-.18.11 0 .46.24.46H14c.2 0 .42-.08.4-.35-.02-.15-.25-.13-.4-.13l-.7.02h-.27c-.14 0-.23-.09-.34 0zm-1.84.86c-.15.09.02.29.02.44-.01.18.12.16.22.16.14 0 .27-.07.27-.2 0-.24-.1-.44-.33-.44-.05 0-.12 0-.18.04zm2.44.24c0 .14.12.25.24.25.21 0 .33-.25.36-.49-.12-.11-.3 0-.46 0-.12 0-.14.13-.14.24zm-.85.75c0 .14.11.2.25.2.19 0 .4.04.55-.07.1-.06.1-.17.1-.3 0-.05 0-.07-.06-.1l-.2-.04c-.33 0-.64-.02-.64.31zm-.17-1.1c-.13 0-.19.09-.3.09-.16 0-.4-.05-.38.22.02.26.19.4.62.4.37 0 .67-.14.67-.45 0-.24-.35-.28-.61-.26zm5.25-.75c.3-.3 1.16 0 1.91 0 .14 0 .32.13.32.29 0 .17-.29.2-.46.2h-1.35c-.27 0-.47-.1-.41-.45 0-.02-.03-.04-.01-.04zm2.64 0v.29c0 .1-.06.2.2.2.15-.03.24-.03.39-.03h.22c.15 0 .18-.22.18-.37 0-.07-.09-.07-.16-.09-.13-.02-.2-.04-.35-.04-.18 0-.29.04-.47.04zm-1.93.97c.05.27.24.49.5.49.22 0 .3-.27.36-.47 0 0-.24-.2-.42-.2s-.44.18-.44.18zm1.21-.14a.36.36 0 0 0-.12.27c0 .1.02.22.1.34.18.22.43 0 .72 0 .2 0 .3-.18.27-.47-.01-.17-.24-.15-.4-.15h-.24s-.23-.05-.33.02zm1.34.16v.27c0 .13.17.17.28.17h.1s.16-.26.1-.4c-.04-.1-.18-.21-.23-.21-.1 0-.19.1-.25.17zm.35.69l-.5.02c-.23 0-.54-.05-.54.17 0 .11.1.18.18.22.09.07.08.07.2.07.11 0 .28.02.4-.02.08-.02.2-.05.26-.11.07-.07.01-.24 0-.36zm-.96 1.58c-.12.11 0 .3.08.4.1.11.22.04.37.04.08 0 .15.03.24.03.29 0 .26-.27.27-.49 0 0-.71-.2-.96.02zm-1.08.47c-.16 0-.25-.03-.34-.16a.47.47 0 0 1-.11-.26v-.09h.06l.49-.02c.15 0 .26.04.4.04.08 0 .2.11.2.18 0 .35-.3.33-.7.3zm-.33.24c-.08.15-.17.26-.17.42 0 .13-.04.22.3.2.1-.03.23.04.23-.16.01-.22-.14-.48-.36-.46zm.57.33c0 .15.04.3.32.29h.38s.2 0 .31-.05c.1-.04.2-.1.2-.22s-.12-.15-.18-.24c-.06-.1-.37-.13-.57-.13-.22 0-.46.13-.46.35zm1.51-.31s-.19.27-.1.42c.05.09.19.15.23.15.11 0 .22-.04.23-.15.02-.38-.15-.46-.36-.42zm-2.2 1.08v.07c0 .1-.02.17.03.26.1.2.35.14.58.14.2 0 .48.06.48-.14 0-.15.02-.24-.05-.37-.1-.13-.28-.07-.44-.09-.37-.02-.4.02-.6.13zm1.53-.11c-.03.16-.12.22-.12.38 0 .17.15.24.39.2.14-.03.27.04.39-.05.16-.13.18-.29.21-.5a.57.57 0 0 0-.22-.07l-.19.02c-.17 0-.27 0-.46.02zm-.48.87c-.2.08-.36.12-.36.32 0 .16.2.16.35.16.25 0 .55-.14.5-.42-.02-.07-.12-.11-.2-.11-.13 0-.17.02-.3.04zm-1.09.28c0 .2 0 .44.26.46.17 0 .24-.22.24-.37 0-.1-.04-.16-.04-.22-.07-.11-.16-.25-.27-.18a.34.34 0 0 0-.18.3zM12 22.65c-.17 0-.4.02-.4.2 0 .24.27.33.65.3.14-.02.33.07.33-.13 0-.24-.34-.37-.58-.37zm.93-.97c-.09.06-.33.1-.43.13-.12 0-.16.1-.16.24v.31c.09.09.2.04.31.04.12 0 .21.03.33.03.13 0 .24-.07.28-.2.06-.27-.03-.42-.33-.55zm-1.69.72c-.12 0-.25.05-.3-.06-.06-.16-.04-.24-.04-.4v-.13h.93c.12 0 .24.09.24.2 0 .22-.14.42-.35.42-.17 0-.3-.03-.48-.03zm.71-1.54c-.15 0-.24.16-.24.31 0 .11-.06.22.02.29.37.28 1.45.02 1.45.02a.93.93 0 0 0 .08-.35c0-.25-.3-.27-.56-.27h-.75zm-1.1.6c0-.14-.1-.27-.1-.4 0-.11.15-.2.26-.2.34-.04.45.44.25.6-.13.08-.4 0-.4 0zm.5-.84c-.32-.02-.47-.16-.47-.38 0-.15.1-.24.3-.22.22.03.35-.02.58-.02.16 0 .21.2.21.36 0 .24-.2.26-.63.26zm1.66-.62h-.22c-.3 0-.44 0-.44.18 0 .08-.01.2.07.26.19 0 .24.16.43.16.16 0 .37-.1.35-.36 0-.1-.06-.24-.19-.24zm.03 2.65c-.13.02-.11.24-.12.37 0 .29-.01.38.14.38.06 0 .2-.05.2-.18s.07-.17.07-.3c0-.12-.12-.25-.28-.27zm7.97-7.96h-.24c-.1 0-.13-.16-.13-.27 0-.08-.04-.13 0-.22.08-.2.52 0 .52 0v.22c0 .08-.1.2-.15.27zm-7.86-4.61h-.66l-.33-.57-.33.57h-.66l.33.57-.33.58h.66l.33.55.34-.55h.65l-.33-.58.33-.57zm2.87 7.06c-1.16 0-2.05.86-2.05 1.98v4.43c.15.12.31.22.48.3v-4.71c0-.84.69-1.5 1.57-1.5s1.58.66 1.58 1.5v4.69c.17-.09.33-.2.49-.3v-4.41a2 2 0 0 0-2.06-1.99zm-.18.92c-.56 0-1 .49-1 1.1v4.87c.33.12.66.19 1 .2v-6.17zm.38 0v6.17c.33-.02.66-.1.99-.22v-4.85c0-.61-.42-1.1-1-1.1zm-3.2-3.53c0 .05.06.16.06.2 0 .02.1 0 .12 0 .08 0 .13-.06.13-.13 0-.18.14-.3.05-.53-.04-.13-.21-.09-.32 0-.06.18-.04.31-.04.46zm-2.27 4.33c.01.13.35.1.5.1.28.03.24-.04.51-.04.07 0 .33 0 .33-.07 0-.2-.13-.28-.45-.3-.63 0-.76.06-.89.3zm9.07-.14c-.12-.22-.31-.17-.52-.17l-.35.02c-.11 0-.22.04-.22.15 0 .1.07.14.14.18.11.06.92.02.95-.18z"/><path fill="#000" d="M18.19 3.53c-.03.27-.22.4-.52.36l.08-.82h.08c.26.02.38.24.36.46zM17.5 5.9l.1-1.19c.93.11 1.59-.1 1.67-1.06.09-.94-.61-1.28-1.55-1.36l-.98-.1-.31 3.62 1.07.1zm3.36-.23l.51-.7.4-.55-.23.63-.27.82-.4-.2zm1.04 1.88l.86-3.62-1.17-.57-2.48 2.82 1 .48.29-.37.64.33-.13.44 1 .49zM6 14l-1.37-.24.13-.75-.84-.15-.13.75-.52-.09.14-.8-.84-.15-.33 1.88 3.57.61.18-1.05zM4.02 9.13a1.8 1.8 0 0 0-.33.47c-.23.46-.55 1.67.9 2.4 1.1.57 1.99.17 2.39-.62.1-.2.16-.4.18-.62l-.88-.52c.05.22.06.4-.05.61-.24.49-.79.36-1.16.16-.36-.18-.8-.55-.54-1.06.1-.2.23-.27.42-.33l-.93-.49zm21.69 3.71l.78-.36-.32-.72 2.52-1.13-.44-1-3.3 1.49.76 1.72zm.59-6.07l-1.67 1.57c-.07.07-.16.13-.25.2-.09.04-.2.04-.3-.07a.23.23 0 0 1-.04-.3c.05-.1.15-.18.22-.25l1.66-1.54-.73-.8-1.74 1.61c-.32.31-.88 1-.04 1.9.86.9 1.57.4 1.89.09l1.73-1.61-.74-.8zm-12.55-.64c.31-.1.5-.41.4-.7-.11-.31-.46-.44-.78-.33-.3.1-.47.42-.37.7.1.29.43.44.75.33zm-1.45.36l-1.17-2.47.56-.27-.37-.8-2.07.98.37.8.54-.25 1.16 2.47.97-.46zM8.7 8.67c.26-.09.51-.24.72-.42a1.2 1.2 0 0 0 .2-1.74c-.18-.2-.36-.31-.56-.35-.2-.05-.42-.03-.69 0-.07.02-.16.02-.24.02s-.16-.02-.21-.09c-.1-.11-.03-.27.07-.35.19-.16.37-.22.62-.27L8 4.8c-.24.07-.5.18-.7.35-.7.6-.43 1.37-.16 1.7.17.2.36.29.57.33.22.05.45.05.7.02a.4.4 0 0 1 .23 0c.08 0 .14.03.2.1.1.12.02.28-.1.39-.2.17-.35.22-.65.24l.6.75zm17.44 6.39l3.58-.5-.14-1.06-3.59.5.15 1.06zm-6.2 11.29c.31-.1.54.49.67.86.13.4.32 1 0 1.1-.3.1-.53-.48-.66-.88-.13-.37-.32-.97 0-1.08zm-.27-.8c-1.05.36-.98 1.48-.72 2.23s.9 1.68 1.94 1.3c1.05-.35.98-1.45.72-2.22-.26-.75-.9-1.66-1.94-1.3zm-8.57 3.49l1.42-3.33-1.18-.5-.53.68.4.17-1.1 2.56.99.42zm6.91.73l-.36-3.6-1.28.11-.14.86.43-.04.28 2.78 1.07-.11zm-5.14-.22l1.06.2.53-.53c.38-.44.92-1.06 1.04-1.61.15-.7-.18-1.4-1-1.57-.85-.17-1.48.27-1.64 1.02-.1.48.1 1.19.72 1.32.14.02.26 0 .38-.02l-1.09 1.19zm1.4-2.74c.34.1.3.38.27.56-.03.15-.14.41-.46.35-.31-.07-.33-.35-.3-.5.04-.16.14-.47.49-.4z"/></svg>