<svg version="1.1" xmlns="http://www.w3.org/2000/svg" viewBox="0 0 86 32"><path fill="#fcea10" d="M81.12 9.62H44.64a12.95 12.95 0 0 0-17.98 0h-8.08l-1.2-4.5h46.49L62.51 0H.01l1.35 5.11H5.1l6.18 23.27h12.27l-3.63-13.64h3.45a13 13 0 0 0 21.27 13.65H86.1L81.12 9.61zM9.34 1.06h1.64l5.23 19.68h-.03c-.55 0-1.06.15-1.5.4L9.34 1.07zm6.98 26.26l-.17-.64h.03c.55 0 1.06-.15 1.5-.41l.28 1.05h-1.64z"/><path fill="#fff" d="M84.72 27.32H45.64a12.94 12.94 0 0 0 0-16.63H80.3l4.42 16.63z"/><path fill="#d4011d" d="M5.92 4.05H2.17l-.79-2.99h6.87l5.54 20.89a2.95 2.95 0 0 0 1.19 4.47l.24.9H12.1L5.92 4.05zm12.63 9.62l3.62 13.65h-3.11l-.5-1.85a2.95 2.95 0 0 0-1.18-4.48l-5.3-19.93H61.7l.79 2.99h-46.5l1.77 6.64h7.91a13 13 0 0 0-1.87 2.98h-5.25z"/><path fill="#d4011d" d="M14.27 23.7a1.9 1.9 0 1 0 3.8.02 1.9 1.9 0 0 0-3.8-.02zM60.1 11.94l2.05 7.73-4.12-7.73H55.1l3.75 14.13h1.84l-2.06-7.76 4.14 7.76h2.67L61.7 11.93zm18.16 0l2.05 7.73-4.12-7.73h-2.92l3.75 14.13h1.84L76.8 18.3l4.14 7.76h2.67l-3.75-14.13zm-25.86 0l3.34 12.6h-1.39l-3.34-12.6h-2.9l3.35 12.6a2.13 2.13 0 0 0 1.92 1.52h2.98c.84 0 1.34-.68 1.12-1.52l-3.35-12.6H52.4zm18.37 0h-3.49c-.84 0-1.34.69-1.12 1.53l2.94 11.07a2.13 2.13 0 0 0 1.93 1.52h3.49c.84 0 1.34-.68 1.12-1.52L72.7 13.47a2.13 2.13 0 0 0-1.93-1.53zM71.9 19l1.47 5.54H72l-2.94-11.07h1.38L71.91 19zm-3.37 7.07h-2.1l-3.76-14.13h2.11z"/><path fill="#000" d="M38.05 12.11c.05.08.15.11.22.17-.12.55.24 1.08.22 1.68 0 .46-.32.86-.28 1.33.02.23.2.44.23.67.08.67-.34 1.26-.34 1.9 0 1.3.81 2.65 1.28 3.57.05.2-.2.1-.22.23.17.91.21 1.94.56 2.68-.5.8-.94 1.66-2.07 1.84a.55.55 0 0 0-.16-.34v-.05c-.09-.23-.16-.48-.34-.62.17-.3.57-.36.78-.61-.4-.67-1.18-.97-1.34-1.9-.92.64-1.45 1.67-1.73 2.96-.87-.01-2.04-.19-2.56-.73.13-.3.1-.75.22-1.06.5 0 .73.27 1.17.34-.26-1.7.5-3.08 1.73-3.63-.17-.39-.45-.67-.45-1.23-1.38.72-3.12.28-3.79-.78.26-.28.46-.67.67-1 .4.15.67.44.84.83.48-.26.93-.55 1.45-.78-1.15-.84-2.78-1.2-2.9-3.07.33-.16.58-.42 1-.5.14.3.3.6.33 1 .61.33 1.46.4 2.13.68.4-.3.8-.62 1.23-.9-.42.07-1.53-.43-.56-.56h.05c.26-.03.35.1.62.06.08-.1.1-.4.05-.45h-.16c-.5-.35-1.52-.19-1.51-1.06.24-.28.6-.13.9-.22.65-.19 1.2-.79 2.17-.45h.56zm-.34.23c-.19.02-.24.16-.33.28.08.08.22.04.27-.06.14-.02.21-.09.4-.06 0-.18-.23-.26-.34-.16zm-1.79.16c-.1.11-.08.36-.16.5.04.02.1 0 .11.06.19.04.1-.2.22-.22 0 .14 0 .27.11.28.02-.12.25-.01.23-.17-.19-.13-.18-.46-.5-.44z"/><path fill="#d4011d" d="M31.3 17.3c.04.01.16.19.05.17-.01-.1-.2-.03-.23-.11-.04.18.1.17.12.28-.22.02-.3-.12-.4.05.1.05.18.13.23.23h-.22c.05.26.11.15 0 .39.12.06.25.11.33.22.26-.27.46-.67.67-1-.04-.19-.39-.36-.56-.23z"/><path fill="#fff" d="M37.71 12.34c-.18.02-.24.16-.34.28.09.08.23.04.28-.06.14-.02.21-.09.4-.06 0-.18-.23-.26-.34-.16zm-1.28.61c.02.15-.21.05-.23.17-.12-.01-.11-.14-.1-.28-.14.02-.04.26-.23.22 0-.05-.07-.04-.11-.06.08-.14.05-.39.16-.5.33-.01.32.32.5.45z"/><path fill="#d4011d" d="M36.1 13.84h-.17c-.62-.01-1.43.16-1.4-.5-.65.46.23.99.84.9.07-.08.68-.15.67.05.08-.1.1-.39.05-.45zm-4.7-.34c.06.1.22.38.12.45-.11-.06-.25-.37-.4-.22.17.13.09.21-.1.11-.02.2.18.18.22.34-.2.04-.24-.1-.34 0 0 .21.35.12.34.33.33-.17.58-.42 1-.5-.2-.31-.53-.76-.84-.5zm.56 10.22c-.05.18.15.12.17.23-.17 0-.34-.01-.34.16h.17c0 .1-.05.13-.17.11-.05.21.22.1.17.28-.12 0-.38.13-.22.23-.03-.08.26 0 .28.05-.07-.01-.2.16-.06.17 0-.12.24-.03.34-.06.13-.3.1-.75.22-1.06-.24.02-.3-.14-.56-.1zm5.53 2.12v-.05c-.09-.23-.16-.48-.34-.62-.18.1-.36.2-.45.4-.02.13.26-.14.28.05-.24.28.1.17-.1.45.14.06.26-.17.33 0-.07.08-.16.14-.17.28.25-.06.3.07.62-.17a.56.56 0 0 0-.17-.34z"/><path fill="#d4011d" d="M36.28 27.48a8.56 8.56 0 1 1 1.95-16.9l-.85-3.2a11.75 11.75 0 1 0 5.56 20.84l-.82-3.05a8.53 8.53 0 0 1-5.84 2.3z"/><path fill="#000" d="M40.96 9.7a8.63 8.63 0 0 1 1.32-.8l.1-.06-.36-.84c-.04.03-2.92 1.22-4 3.95l.84.34a6.2 6.2 0 0 1 2.1-2.6zm1.47 4.2c2.1 1.6 4.46 5.54 4.44 9.43h.91a13.9 13.9 0 0 0-4.65-10.03 8.83 8.83 0 0 1 2.56-1.35l-.28-.87a9.46 9.46 0 0 0-6.4 7.4l.9.18c.05-.25.1-.5.18-.74 1.45 1.16 2.98 3.33 3.6 6.54l.9-.17c-.7-3.6-2.47-6.02-4.2-7.28a8.51 8.51 0 0 1 2.03-3.11zm-13.27 3.95l-.75.52a6 6 0 0 0 3.77 2.34l.2-.89a5.13 5.13 0 0 1-3.22-1.97z"/></svg>