<svg version="1.1" xmlns="http://www.w3.org/2000/svg" viewBox="0 0 32 32"><path fill="#da251d" d="M16 0h.43l.37.02h.03A16.03 16.03 0 0 1 32 16c0 8.81-7.19 16-16 16A16.03 16.03 0 0 1 0 16.42v-.84l.02-.22v-.2L.03 15l.02-.23.02-.25.01-.15A16.05 16.05 0 0 1 13.57.2h.01l.38-.06h.06l.33-.04.1-.01.29-.03.14-.01a21.8 21.8 0 0 1 .4-.02l.28-.01h.13L16 0z"/><path fill="#fff" d="M16 .8C24.37.8 31.2 7.63 31.2 16S24.37 31.2 16 31.2C7.62 31.2.8 24.37.8 16S7.63.8 16 .8z"/><path fill="#da251d" d="M16 1.77c7.84 0 14.23 6.4 14.23 14.23S23.83 30.23 16 30.23c-7.84 0-14.23-6.4-14.23-14.23S8.16 1.77 16 1.77z"/><path fill="#fff" d="M16 3.98c6.62 0 12.02 5.4 12.02 12.02 0 6.62-5.4 12.02-12.02 12.02-6.62 0-12.02-5.4-12.02-12.02C3.98 9.38 9.38 3.98 16 3.98z"/><path fill="#da251d" d="M16 5.3c5.89 0 10.7 4.8 10.7 10.7S21.89 26.7 16 26.7c-5.9 0-10.7-4.81-10.7-10.7S10.1 5.3 16 5.3z"/><path fill="#fff" d="M24.05 10.38a1.3 1.3 0 0 1-1.24-.54 9.18 9.18 0 0 0-14.47 1.09c.74.25 1.23.72 1.23 1.48v6.7c-.02.83-.68 1.48-1.38 1.72a9.2 9.2 0 0 0 7.67 4.36c.5-.02.66-.07.14-.35-1.6-.85-3.66-2.68-3.66-4.5V17.7a.9.9 0 0 1 .86-.91h5.25c.58 0 1.06.41 1.4.92v-4.57c-.36.6-.76.94-1.5.97h-5.2c-.42 0-.8-.42-.8-.89v-2.07c0-.38.07-.6.43-.79A7.13 7.13 0 0 1 16 9.53a6.7 6.7 0 0 1 3.13.84c2.03 1.32 2.04 2.74 1.94 3.73l2.97-3.72z"/><path fill="#fff" d="M18.43 20.82a.63.63 0 0 1-.53.29.58.58 0 0 1-.44-.2.81.81 0 0 1-.19-.55c0-.14.02-.26.06-.36.07-.16.15-.26.25-.3a.57.57 0 0 1 .66.09c.11.1.2.26.23.45l.02.22v.2c0 .04-.02.1-.06.17zm-.06-1.87a2.23 2.23 0 0 0-.51-.06c-.36 0-.66.07-.9.2-.24.14-.42.32-.55.55-.12.23-.18.49-.18.78 0 .36.07.65.2.88.13.22.3.39.51.5a1.5 1.5 0 0 0 1.25.05c.14-.07.25-.14.33-.2-.02.18-.07.36-.14.55a.94.94 0 0 1-.94.57 1.4 1.4 0 0 1-.75-.2l-.08.04-.04.79.03.05a6.4 6.4 0 0 0 .88.11c.69 0 1.22-.2 1.58-.61s.56-1.03.57-1.85c0-.58-.1-1.05-.3-1.42-.2-.37-.52-.61-.96-.73zm4.34 1.88a1.65 1.65 0 0 0-1.16-.42h-.2l-.2.03.05-.63 1.6.04.05-.04.06-.8-.03-.03h-2.53l-.04.06-.03.58-.03.5-.04.54-.05.76.06.03a1.82 1.82 0 0 1 .85-.21c.3 0 .53.08.68.22s.23.32.23.53a.7.7 0 0 1-.24.55.94.94 0 0 1-.64.2c-.34 0-.64-.09-.92-.27l-.06.03-.02.29-.01.23-.03.29.03.05.53.15c.16.03.36.05.58.05.52-.01.92-.1 1.2-.29.28-.18.48-.4.59-.64s.16-.5.15-.72c0-.45-.14-.8-.43-1.08z"/></svg>