<svg version="1.1" xmlns="http://www.w3.org/2000/svg" viewBox="0 0 32 32"><path fill="#999" d="M21.91 26.28c5.11-2.1 8.67-6.84 8.67-12.35C30.58 7.43 25.6 2 18.95.7a1.13 1.13 0 0 0-.18-.02c-.55 0-1 .39-1 .86 0 .37.27.67.63.8 1.2.24 2.32.65 3.34 1.2L16 8.51l-5.69-4.99a12.1 12.1 0 0 1 3.35-1.19c.36-.13.62-.43.62-.8 0-.47-.44-.86-.99-.86l-.18.02C6.47 2 1.48 7.42 1.48 13.93c0 5.5 3.56 10.24 8.67 12.35l1.3-3.63c-4.1-1.66-6.94-5.44-6.94-9.83 0-3.22 1.54-6.11 3.97-8.07l6.17 5.42v10.47s-.3 3.18-2.18 6.42c1.09.25 2.35.43 3.53.43h.06c1.17 0 2.44-.18 3.53-.43-1.88-3.24-2.18-6.42-2.18-6.42V10.17l6.17-5.42a10.37 10.37 0 0 1 3.96 8.07c0 4.39-2.84 8.17-6.92 9.83l1.3 3.63z"/><path fill="#999" d="M6.27 13.74c-.03-2.94 1.2-5.3 2.95-5.45 1.85-.14 3.6 2.27 4 5.45h-1.79c-.2-1.57-1.05-2.76-1.94-2.7-.85.08-1.44 1.24-1.42 2.7h-1.8z"/><path fill="#999" d="M6.32 14.62c-.04-.4-.05-.8-.04-1.2h1.8c-.01.25 0 .5.02.77.15 1.65 1.03 2.94 1.96 2.86s1.55-1.48 1.4-3.14a5.42 5.42 0 0 0-.08-.49h1.8c.04.21.06.43.08.64.32 3.34-.98 6.17-2.9 6.33s-3.72-2.43-4.04-5.77zm18.76-1.57c-.3-1.63-1.69-2.05-3.23-.92a6.6 6.6 0 0 0-.66.53l-.02-1.58 2.36-1.86.04-2.38-4.45 3.81-.02 5.36c.62-.66 1.06-1.08 1.79-1.62.96-.7 1.54.03 1.68.78.2 1.1-.5 2.4-1.83 3.36a5.6 5.6 0 0 1-1.05.65l.65 1.86c.33-.17.43-.35.88-.69 2.82-2.05 4.27-5.1 3.86-7.3z"/><path fill="red" d="M21.54 25.91c5.11-2.11 8.67-6.84 8.67-12.35 0-6.51-4.99-11.94-11.63-13.23a1.13 1.13 0 0 0-.18-.02c-.55 0-1 .39-1 .86 0 .36.26.67.63.8 1.2.24 2.32.64 3.34 1.2l-5.74 4.98-5.69-4.99a12.1 12.1 0 0 1 3.35-1.19c.36-.13.62-.44.62-.8 0-.47-.44-.86-.99-.86l-.19.02C6.1 1.62 1.11 7.05 1.11 13.56c0 5.5 3.56 10.24 8.67 12.35l1.29-3.63c-4.08-1.67-6.93-5.45-6.93-9.83 0-3.22 1.53-6.11 3.97-8.08l6.17 5.43v10.47s-.3 3.18-2.18 6.42c1.09.25 2.35.43 3.53.43h.06c1.17 0 2.44-.18 3.53-.43-1.88-3.24-2.18-6.42-2.18-6.42V9.8l6.17-5.42a10.37 10.37 0 0 1 3.96 8.07c0 4.39-2.84 8.17-6.92 9.83l1.29 3.63z"/><path fill="red" d="M24.7 12.68c-.3-1.63-1.68-2.05-3.22-.92a6.6 6.6 0 0 0-.66.53l-.02-1.58 2.36-1.86.04-2.38-4.45 3.8-.02 5.37c.62-.66 1.06-1.08 1.79-1.62.96-.7 1.54.03 1.68.78.2 1.1-.5 2.4-1.83 3.36a5 5 0 0 1-1.05.64l.65 1.87c.33-.17.43-.36.88-.69 2.82-2.05 4.27-5.1 3.86-7.3zm-18.74.75c-.03-2.95 1.2-5.3 2.94-5.45 1.86-.15 3.61 2.26 4.01 5.45h-1.8c-.2-1.58-1.04-2.77-1.94-2.7-.84.07-1.43 1.24-1.41 2.7h-1.8z"/><path fill="red" d="M6 14.3c-.03-.4-.05-.8-.04-1.2h1.8c0 .25 0 .5.02.77.16 1.66 1.04 2.94 1.96 2.87s1.55-1.48 1.4-3.14a5.42 5.42 0 0 0-.07-.5h1.8l.08.65c.32 3.34-.98 6.17-2.9 6.32s-3.73-2.42-4.04-5.76zm-4.7 8.17l.25.27L.3 23.83l.55.69 1.82-1.6-.81-.96zM2.29 25c-.17-.17-.44-.24-.62-.05-.17.18-.1.47.06.64s.43.24.6.06c.18-.2.12-.48-.04-.65zm1.65 2.6l.73.5.45-.74.53.36.34-.54-.53-.36.13-.22.6.41.37-.6-1.33-.9zm1.86 1.03c.17.26.43.5.7.66.45.25 1.04.24 1.3-.28.2-.38.05-.69-.23-.94l-.16-.14c-.05-.05-.14-.11-.1-.2.05-.08.16-.05.23-.02.16.1.27.25.36.42l.49-.45a1.44 1.44 0 0 0-.57-.57c-.45-.25-1.05-.21-1.32.31-.17.35-.02.67.25.89l.14.11c.06.06.16.12.1.22s-.18.07-.25.02a.94.94 0 0 1-.38-.46l-.02-.06-.55.5zm4.52-.38l-.65.96c-.07.1-.13.21-.17.33h-.02c.04-.13.05-.25.06-.38L9.59 28l-.85-.31.1 2.67.69.24 1.64-2.04-.85-.3zm2.38 3.26l.83.05.16-1.06.03-.3h.03c0 .1.02.2.04.32l.26 1.06.5.03.4-1.1.06-.24h.02l.05 1.37.83.05-.27-2.51-.87-.05-.32.96-.07.33h-.03l-.26-1.33-.88-.04-.51 2.46zm4.7-.21l.64-.05.1.3.91-.06-1-2.42-.96.07-.65 2.54.9-.07.06-.31zm.1-.6l.12-.77h.03l.07.31.13.43-.34.03zm2.25.6l.84-.2-.53-2.42-.84.2zm1.61-.31l.78-.28-.25-.77c-.05-.16-.13-.3-.2-.45l.02-.01 1.12.98.78-.29-.77-2.35-.78.28.23.7c.06.2.17.4.26.58l-.02.01-1.16-1.04-.78.28.77 2.36zm1.98-3.39l.33.67.57-.3a.89.89 0 0 0 .17-.13h.02l-.06.37-.13 1.7 2.05-1.1-.33-.68-.64.35-.17.1h-.02l.18-2.03-1.97 1.05zm4.27-2.92c-.52.51-.46 1.22 0 1.73.48.55 1.14.67 1.67.15s.46-1.22-.02-1.77c-.46-.51-1.12-.62-1.65-.1zm.5.57c.2-.19.43 0 .56.15.13.14.31.45.13.62s-.45-.04-.58-.18c-.13-.15-.3-.4-.1-.6zm.99-2.11l.95 1.11c.07-.2.18-.4.32-.58.09-.1.34-.35.49-.22.14.13 0 .38-.09.5-.12.15-.42.36-.6.43l.43.51c.23-.1.6-.43.75-.63.33-.4.52-1.1.08-1.49-.35-.3-.81-.2-1.1.15-.07.1-.18.28-.15.41l-.02.02a1.1 1.1 0 0 0-.16-.24l.65-.82-.5-.45-1.04 1.3z"/></svg>