<svg version="1.1" xmlns="http://www.w3.org/2000/svg" viewBox="0 0 27 32"><path fill="#0072b6" d="M3.92 25.76a.4.4 0 0 0 0-.22c.1.11.2.17.3.18s.23-.02.35-.1c.17-.11.26-.25.26-.41s-.07-.37-.24-.62l-.47-.73-1.68 1.05.37.58.55-.34.04.06c.03.05.05.09.04.12s-.02.08-.05.12l-.34.4.4.63.37-.5a.61.61 0 0 0 .1-.22zm.17-1.08l.1.16c.04.06.05.1.04.16s-.04.08-.1.12c-.05.03-.1.05-.14.03s-.09-.04-.13-.1l-.1-.16.33-.21zm1.59 1.25l-1.94.84.53.55.28-.17.47.48-.18.28.52.54.94-1.88-.62-.64zm-.14.84l-.25.41L5 26.9l.4-.23.16-.08.12-.07-.06.1-.1.15zm2.44.99l-.58.98-.05.1-.1.16.04-.2c0-.04.02-.07.03-.1l.3-1.18-.71-.46-1.1 1.65.52.33.56-.94.08-.12.1-.16-.05.17-.04.15-.29 1.14.73.47L8.5 28.1l-.52-.34zm-4.71-3.79l-.34-.85.2-.07.34.84.51-.2-.6-1.47-1.84.7.25.64.65-.25.34.85z"/><path fill="#fff" d="M3.99 25.16c.04 0 .09 0 .14-.04.06-.04.1-.08.1-.12s0-.1-.04-.16l-.1-.16-.33.2.1.17c.04.06.08.1.13.1z"/><path fill="#0072b6" d="M10.4 30.87l.66.12.14-.68.9.16.1-.52-.9-.16.04-.2.9.15.1-.53-1.57-.28zm6.07-.74a.4.4 0 0 0-.2-.07c.13-.05.23-.13.28-.22s.06-.21.04-.36c-.04-.2-.13-.33-.27-.4s-.37-.07-.66-.02l-.86.15.3 1.96.68-.12-.1-.64.08-.01h.13c.03 0 .06.06.08.1l.24.47.74-.13-.32-.52a.6.6 0 0 0-.16-.19zm-.53-.29c-.03.04-.08.06-.15.07l-.2.04-.05-.39.19-.03c.06-.01.12 0 .15.02s.07.07.08.14c.01.06 0 .11-.03.15zm2.42-1.63l-1.72.66.2.55.54-.2.47 1.3.65-.24-.48-1.31.53-.2zm5.54-3.99l.93.44.32-.55-1.86-.74-.42.73.84.68.06.05c.11.1.2.16.27.21a8.66 8.66 0 0 0-.41-.17l-.97-.41-.42.73 1.52 1.32.32-.55-.83-.62-.14-.1-.21-.17.21.09.18.07.97.42.4-.68-.8-.66-.13-.1-.23-.18.2.1.2.09zm-10.13 6.13c-.01.11-.03.19-.07.23s-.1.06-.18.05c-.09 0-.15-.02-.18-.06s-.05-.12-.05-.23v-.02l.06-1.08-.7-.02-.06 1.17v.02c0 .27.06.47.21.62s.37.21.67.23c.31 0 .55-.06.71-.2s.25-.34.27-.62l.05-1.16-.68-.02-.05 1.1zm6.36-3.21l.63 2.02.6-.47-.14-.3.52-.41.27.2.59-.46-1.77-1.13-.7.55zm1.2.52l-.31.24-.19-.43-.06-.16c-.02-.06-.05-.1-.05-.13l.09.08c.06.05.1.09.14.1l.38.3zM10.6 28.93l-.74-.3-.83.7.37-.88-.64-.26L8 30.02l.64.25.38-.9.07 1.09.75.3-.16-1.15zm.86-27.55h4.35L16 .3h-4.84c0 .23.09.4.12.57.02.12.06.51.18.51z"/><path fill="#fff" d="M3.76 8.87c-.1-.07-.23-.23-.23-.37v-.15c0-.47.6-.96 1.15-.95l-.92 1.47zm18.5-1.71c.5 0 1.16.48 1.16.92v.21c0 .14-.13.33-.23.36l-.93-1.5zM4.5 6.76l-.78.27c.02-.17.3-1.11.38-1.33.15-.44.27-.92.4-1.35l.2-.67c.09-.26.03-.51.29-.58.43-.1.97-.3 1.38-.36.47-.09.97-.23 1.41-.3.52-.09 1-.14 1.52-.23.85-.15 2.28-.26 3.22-.26h1.15c.65 0 1.68.02 2.25.12.34.06.72.04 1.07.1.24.05.9.08 1.06.14.1.04.85.15 1 .18l1.03.17c.33.06.68.14.98.22.18.04.86.21.98.22l1.03 3.78c-.15 0-.82-.25-1.02-.3-.33-.1-.69-.18-1.04-.28a29.4 29.4 0 0 0-7.07-.89h-.82c-1.67 0-3.09.25-4.56.42-.67.07-1.42.32-2.08.42-.29.04-.68.17-.98.25-.2.06-.84.26-1 .26zm.27-3.94c-.13.25-.24.36-.38.68-.11.26-.2.48-.3.79-.15.57-.3 1.07-.42 1.7-.1.58-.26 1.22-.31 1.82-.04.51-.1 1.53.48 1.53.12 0 .98-1.53 1.12-1.73.4-.62 1.06-.77 1.84-1.01 1.17-.35 3.64-.56 5.15-.56h2.29c.5 0 .98.06 1.44.06.27 0 1.16.03 1.42.08.44.08.94.04 1.38.12.46.08.9.1 1.36.17.46.08.86.18 1.25.25.53.1.65.27.9.64.23.34.99 1.63 1.26 1.77.2-.3.42-.64.42-1.14 0-.56-.27-1.17-.4-1.64a47.6 47.6 0 0 0-.44-1.6c-.15-.5-.32-1.08-.45-1.6-.12-.46-.05-.38-.54-.47-.29-.06-.58-.12-.86-.2-.51-.14-1.17-.23-1.7-.34a28.25 28.25 0 0 0-8.04-.43c-.77.09-1.52.2-2.26.28-.69.07-1.48.25-2.14.38-.35.06-.68.14-1.03.23-.23.05-.86.22-1.04.22z"/><path fill="#0072b6" d="M19.46 1.79c.17.03.64.13.79.18.2.07.55.11.77.16.25.07 1.35.34 1.56.34 0 0 .83-.98.9-1.08.14-.17.87-1.02.9-1.12H20.4l-.94 1.52zm-15 .79c.17 0 1.2-.25 1.47-.3.47-.1 1-.21 1.48-.33A8.43 8.43 0 0 0 6.38.42H2.42c.04.16 1.98 2.16 2.04 2.16zm8.02.67v.12c0 .37.59.54.9.63v.15c-.08.02-.05.03-.12.03-.3 0-.48-.16-.72-.21v.72c0 .14.51.24.67.24h.23c.44 0 .94-.43.94-.87v-.21c0-.16-.25-.4-.37-.47l-.62-.22c0-.12.05-.15.18-.15h.06c.21 0 .43.25.63.3v-.73c0-.13-.42-.27-.57-.27h-.37c-.5 0-.84.4-.84.94zm1.9 1.25v.13c0 .21.2.36.42.36.22 0 .42-.18.42-.4 0-.23-.18-.44-.4-.44h-.05c-.18 0-.4.18-.4.36zm-4.69.25c0 .22.2.45.42.45.23 0 .42-.15.42-.36v-.15c0-.17-.2-.33-.36-.33h-.09c-.19 0-.39.22-.39.39zm7.53.39l.84.1 1.27-2.26-.93-.13c-.11.17-.58 1.29-.63 1.33 0-.52-.08-.78-.09-1.2 0-.29-.06-.29-.33-.3-.2-.02-.34-.1-.57-.1h-.1l.54 2.56zM7.8 2.96l.42 2.48c.1 0 .88-.12.9-.15.05-.04-.12-.73-.12-.87l.67-.12-.1-.67-.7.13c0-.07-.02-.07-.02-.15v-.12l.72-.12v-.15c0-.22-.1-.33-.1-.56l-1.67.3zm10.7 2.06c0 .2.18.45.35.45.25 0 .48-.13.48-.36v-.15c0-.16-.17-.33-.33-.33h-.15c-.18 0-.36.21-.36.39z"/><path fill="#fff" d="M18.5 5.02c0-.18.17-.4.35-.4H19c.16 0 .33.18.33.34v.15c0 .23-.23.36-.48.36-.17 0-.36-.26-.36-.45zm-8.81-.27c0-.17.2-.4.4-.4h.08c.16 0 .36.17.36.34v.15c0 .21-.2.36-.42.36-.22 0-.42-.22-.42-.45zm4.69-.24c0-.18.2-.36.39-.36h.06c.21 0 .39.21.39.45 0 .2-.2.39-.42.39-.23 0-.42-.15-.42-.36V4.5zm-4.9-1.85c0 .23.09.34.09.56v.15l-.72.12v.12c0 .08.01.08.03.15l.69-.13.1.67-.67.12c0 .14.17.83.13.87-.03.03-.8.15-.91.15L7.8 2.96l1.68-.3zm3 .58c0-.53.34-.93.84-.93h.37c.15 0 .57.14.57.27v.72c-.2-.04-.42-.3-.63-.3h-.06c-.13 0-.17.04-.18.16l.62.22c.12.07.37.31.37.47v.2c0 .45-.5.88-.93.88h-.24c-.16 0-.67-.1-.67-.24v-.72c.24.05.41.2.73.2l.12-.02V4c-.32-.09-.9-.26-.9-.64v-.12zm4.74 1.9l-.53-2.56h.09c.23 0 .37.08.57.1.27.01.32.01.33.3.01.42.09.68.09 1.2.05-.04.52-1.16.63-1.33l.93.13-1.27 2.27-.84-.11zM4.94 3.37L4.02 6.7l1.04-.34c.27 0 1.5-.4 1.87-.47l1.99-.4c1.2-.24 2.94-.4 4.35-.4h1.32c1.1 0 2.37.16 3.33.3a43 43 0 0 1 1.57.28c.34.06 1.23.33 1.5.34l1.68.5c-.03-.34-.26-.96-.34-1.34-.1-.4-.22-.98-.34-1.34-.08-.23-.04-.53-.27-.57-.16-.03-.53-.1-.69-.16-.32-.11-1.02-.23-1.38-.3a33.74 33.74 0 0 0-6.11-.65h-1.18c-.47 0-1.55.08-1.99.15-.33.05-.64.04-.97.1a24.74 24.74 0 0 0-4.46.95z"/><path fill="#342e27" d="M4.94 3.37a24.77 24.77 0 0 1 4.46-.95c.33-.07.64-.06.97-.11.44-.07 1.52-.15 2-.15h1.17c2.06 0 4.33.3 6.1.65.37.07 1.07.2 1.39.3.16.06.53.13.69.16.23.04.19.34.27.57.12.36.25.95.34 1.34.08.38.31 1 .34 1.34l-1.69-.5c-.26-.01-1.15-.27-1.5-.34a31.49 31.49 0 0 0-4.89-.57h-1.32c-1.4 0-3.16.16-4.35.4l-1.99.39c-.36.07-1.6.47-1.87.47l-1.04.34.92-3.34zm-.45 3.4c.16 0 .8-.21 1-.27.3-.08.7-.2.98-.25.65-.1 1.41-.34 2.08-.42 1.47-.17 2.89-.42 4.56-.42h.82A29.4 29.4 0 0 1 21 6.3l1.04.27c.2.06.87.3 1.02.31L22.03 3.1c-.12 0-.8-.18-.98-.22-.3-.08-.65-.15-.98-.22l-1.03-.17c-.15-.03-.9-.14-1-.18-.16-.06-.82-.1-1.06-.13-.35-.06-.73-.05-1.07-.1-.57-.1-1.6-.13-2.26-.13h-1.14c-.95 0-2.37.11-3.22.26-.53.1-1 .15-1.52.23-.44.08-.94.21-1.41.3-.41.07-.95.26-1.38.36-.26.07-.2.33-.3.59l-.2.67c-.12.42-.24.9-.39 1.34-.07.22-.37 1.16-.38 1.33l.78-.27z"/><path fill="#0072b6" d="M23.44 6.18c.19.34.43 1.12.43 1.63 0 .73-.23.99-.27 1.44.18-.04 3.25-2.97 3.25-3.06V2.1l-.03-.02-3.38 4.1z"/><path fill="#fff" d="M13.5 6.73c-.16 0-.26-.15-.3-.15-.1 0-.15.1-.24.14-.13.07-.17.01-.33.01h-.2c-.08 0-.19.03-.19.1 0 .4.95.98 1.45.98h.12c.21 0 .26-.07.42-.09v-.3l.03-.02.15.32c.23-.02.76-.71.78-.96h-.54c-.09 0-.13-.1-.15-.18h-.1c-.09 0-.15.1-.17.18-.3 0-.32-.2-.4-.2-.12 0-.22.17-.32.17z"/><path fill="#342e27" d="M4.68 7.4c-.55 0-1.15.48-1.15.95v.15c0 .14.12.3.23.37l.92-1.47zm17.59-.24l.92 1.49c.1-.03.23-.22.23-.36v-.2c0-.45-.65-.93-1.15-.93z"/><path fill="#fff" d="M20.32 8.68l.06.57h.1c.26 0 .52-.5.84-.57-.02.23-.85.68-.9.84h.14c.36 0 .73-.1.95-.25.18-.13.52-.46.48-.77l-.07-.45c-.48.01-1.25.45-1.6.63z"/><path fill="#e5344c" d="M4.7 8.47c.24.36.83.49 1.32.6-.06-.25-.63-.44-.63-1.23v-.33c-.4.1-.51.63-.69.96z"/><path fill="#fff" d="M5.45 7.75v.12c0 .38.3.6.52.77.19.15.56.46.83.46h.15c.05 0 .1-.01.1-.06 0-.15-.66-.41-.79-.6.2 0 .51.24.51.24.16 0 .46-.03.46-.18 0-.31-1.1-.78-1.45-.78H5.6a.5.5 0 0 0-.15.03z"/><path fill="#0072b6" d="M.38 7.51c.13.04 1.17.77 1.37.9.2.14 1.27.9 1.42.9h.3c-.02-.06-.19-.31-.24-.45a2.7 2.7 0 0 1-.06-.63v-.12c0-.38.04-.7.11-1l.19-.92S.51 3.09.37 3.06v4.45z"/><path fill="#e5344c" d="M21.74 9.55l.84-.2c.06.11.09.24.09.42v.2c0 .47-.84.84-1.02 1.12a4.3 4.3 0 0 0 1.56.45h.27c.1 0 .1-.04.2-.06 0 1.09-.9 1.41-1.97 1.41h-.52c.01.28.61.53.85.6.26.06.94.24 1.2.24h.24c.19-.8.57-1.55.57-2.55v-.03c0-.39-.65-1.22-.85-1.52-.14-.2-.88-1.32-.98-1.4 0 .2-.08.61-.13.78-.08.28-.22.35-.35.55z"/><path fill="#fff" d="M4.97 9.16c0 .53 1.12 1.66 1.6 1.66h.3c.06 0 .08-.02.08-.1v-.3l-.3-.05v-.12c-.2 0-.63-.18-.72-.31l.96.22v-.12h.18v-.15c0-.6-.54-.45-.97-.54-.41-.08-.78-.39-1.13-.4v.22zm16.89.64h-.15l-.6-.07h-.36c-.28 0-.34.06-.53.16l.2.6c.5 0 .99-.36 1.26-.36h.09c-.03.31-.63.45-.96.45-.18.12-.36.1-.36.42v.03c0 .07.02.09.09.09h.12c.53 0 1.86-.81 1.86-1.27v-.09c0-.08-.01-.08-.03-.15h-.1c-.06 0-.24.18-.53.18z"/><path fill="#e5344c" d="M3.11 11.24v.09c0 .25.28.96.37 1.19.1.25.35.96.35 1.24v.15a6.34 6.34 0 0 0 1.68-.93c-.09 0-.1.03-.2.03h-.28c-.88 0-1.7-.58-1.7-1.5v-.06l.02-.21c.24 0 .5.2.9.2.42 0 .62-.16.93-.27l.43-.16c.14-.06.45-.06.45-.2v-.08c-.86-.2-1.3-1.92-1.54-1.99-.03.15-.6 1.02-.73 1.22-.12.2-.68 1.08-.68 1.28z"/><path fill="#fff" d="M6.24 11.1c-.17.1-1.71.62-1.99.62H4.1c-.14 0-.33-.15-.39-.15h-.12c0 .65.96 1.08 1.68 1.08h.48c.26 0 1.54-.2 1.54-.33 0-.11-.13-.16-.18-.24.05-.09.3-.3.3-.4 0-.04-.04-.1-.07-.14l-.3-.03v-.42c-.07-.02-.18-.08-.27-.07l-.54.07z"/><path fill="#e5344c" d="M5.57 7.45c0 .2.92.2 1.14.28l.45.27c.14.12.17.3.43.3h.63c0-.35.1-.76.31-.9.07-.05.86-.28.95-.28h.09c.17 0 .06.94.06 1.14v.45c0 .24.15.6.15.72 0 .97-1.32.73-1.32 1.15 0 .48.93.63 1.44.63.07.05.4.27.4.36 0 .24-.25.61-.25.78v.03c0 .15.13.36.3.36h.1c.15 0 .74-1 .86-1.18.26-.4 1.4-.2 1.5-.56h-.15c-.13 0-.75-.19-.75-.27 0-.13.77-.54.9-.57v-.12c-.17-.04-.39-.05-.39-.27l.02-.07.24-.17-.02-.03c-.33-.16-.38-.06-.75-.3-.31.07-.64.3-1.02.3-.17 0-.25-.06-.36-.1.07-.26 1.36-.11 1.53-.83v-.03l-.69.2c0-.15-.06-.2-.06-.35 0-.3.25-.51.53-.56.24-.04.82-.02.82-.29-.22-.05-.63-.47-.63-.78v-.12c.26 0 .35-.09.57-.09.44 0 .41-.15.51-.15h.1c.08 0 .13.12.3.12s.2-.12.3-.12h.05c.06 0 .22.15.27.18.1-.05.21-.18.27-.18.1 0 .16.17.27.24.35 0 .67-.06.81.15-.1.19-.84.99-.84 1.02v.12c0 .26.28.76.54.79 0 .08 0 .12-.09.12h-.03c-.1 0-.11-.03-.2-.03v.09c0 .27.39.54.5.72l-.03.14-.08.03-.46-.08c.12.1.88.88.88.99 0 .06-.38.13-.46.15.05.16.32.3.47.4.19.13.3.29.46.45.27.28.38.95.82.95h.15c.08 0 .08-.01.14-.03l.08-1.07.44-.4c.6 0 1.08 0 1.08-.6v-.27c-.24 0-.68-.18-.85-.26-.25-.13-.47-.29-.47-.64 0-.45.42-1.05.42-1.72-.09-.12-.12-.13-.12-.36v-.09c0-.07.02-.09.09-.09h.39c.2 0 .23.06.45.06.22.15.57.44.57.78v.06l-.03.27a5 5 0 0 0 .66.21c.34 0 1.45-.7 1.9-.72-.02-.54-1.17-.86-1.68-1-.78-.22-1.47-.23-2.34-.36-1.45-.21-3.56-.2-5.2-.2h-.55c-1.28 0-2.48.1-3.63.24-.66.08-2.89.45-2.89.99z"/><path fill="#fff" d="M8.3 13.28c0 .4.13.52.33.73.07.07.53.44.6.44h.22c.19 0 .42-.07.42-.24v-.03c0-.3-.27-.66-.3-.99h-.09c-.2 0-.53-.27-.84-.27-.23 0-.33.12-.33.36zm-4.08.82c0 .24.86.38 1.2.38h.12c1.2 0 2.17-.5 2.65-1.23-.05-.06-.07-.09-.18-.09h-.03s-.83.42-.98.47c-.26.09-.84.3-1.12.31v-.06c.43-.1 1.36-.48 1.68-.69l.02-.17.07-.16H7.5c.01-.07.03-.07.03-.15 0-.06-.1-.15-.12-.15-.54 0-1.36.4-1.76.6-.2.1-1.43.8-1.43.93zm8.87-.49c0 .15.34.65.36.84l-.33.03h-.1v.4h.55c.08 0 .54.85.57.99h-.84v.36h1.2c.03-.15.2-.35.2-.45 0-.13-.45-.84-.53-1h.54v-.39h-.12l-.63-.03c-.06-.1-.42-.66-.42-.72 0-.04.06-.09.12-.09h.75v-.42h-.93c-.08 0-.4.45-.4.48z"/><path fill="#0072b6" d="M23.75 13.97l-.02.27.11 1.03.04.01 3-.89v-4.23c-.17.04-1.8 1.18-2.09 1.37-.6.41-.45.3-.75.99-.15.35-.29.97-.29 1.45zM.32 14.9c0 .12.56.2.7.25.25.09.56.12.8.2.44.15 1.1.28 1.56.4.16-.24.27-.71.27-1.12v-.39c0-.45-.1-1.06-.25-1.37-.19-.4-.55-.52-.91-.74-.33-.2-1.85-1.08-2.18-1.1v3.87z"/><path fill="#e5344c" d="M21.05 14.66l2.64 1.6v-.28c0-.34-.01-.74-.06-1.04-.05-.26-.13-.8-.15-1-.34 0-.18.18-.46.32-.2.1-.33.17-.57.21-.35.07-1.06.2-1.4.2zM3.6 16.25v.21c.09-.02.85-.72 1.01-.84l.52-.4c.17-.14.42-.29.57-.4-.37 0-.75-.08-1.06-.13-.43-.06-.5-.3-.72-.45 0 .64-.33 1.48-.33 2.01z"/><path fill="#342e27" d="M13.09 13.61c0-.03.32-.48.39-.48h.93v.42h-.75c-.06 0-.12.05-.12.1s.36.6.42.71l.63.04h.12v.38h-.54c.08.16.54.87.54 1 0 .1-.18.3-.21.45h-1.2v-.36h.84a3.8 3.8 0 0 0-.57-1h-.54v-.39h.09l.33-.03c-.02-.2-.36-.7-.36-.84zm-.28.03v.06c0 .18.23.4.27.57h-.27v.54c0 .38.32.27.7.28l.3.57h-.45c-.13 0-.27.03-.27.15v.54c0 .1.13.12.24.12h1.05c.3 0 .57-.44.57-.63v-.06c0-.12-.38-.67-.45-.79.25 0 .42.01.42-.24v-.42c0-.08-.1-.14-.15-.18h-.7l-.2-.42h.69c.07 0 .12-.05.12-.12v-.54c0-.08-.02-.08-.03-.15-.07-.01-.07-.03-.15-.03h-1.08c-.17 0-.6.59-.6.75z"/><path fill="#fff" d="M4.16 16.59c0 .11.43.15.57.15 1.18 0 1.78-.17 2.53-.6.3-.19 1.7-1.09 1.7-1.42 0-.12-.07-.02-.08-.2-.62 0-1.7 1.36-2.4 1.37.03-.13 2-1.52 2.13-1.56v-.09c0-.06-.06-.12-.1-.12-.16 0-.22.15-.35.15-.05 0-.05-.03-.07-.07l.34-.26c-.93.02-4.27 1.92-4.27 2.65zm16.92-.72c-.72-.02-1.72-1.36-2.05-1.44l.06.14h-.18l.1.24h-.07c-.03-.1-.16-.17-.3-.18v.12c0 .25 1.03 1.18 1.27 1.33.47.3 1.18.66 1.95.66h.27c.46 0 .86-.16 1.23-.24-.04-.42-3.3-2.11-4-2.17.02.6 1.69 1.17 1.72 1.54z"/><path fill="#e5344c" d="M12.81 13.64c0-.17.44-.75.6-.75h1.09c.08 0 .08.01.15.03.01.07.03.07.03.15v.54c0 .07-.05.12-.12.12h-.7l.21.42h.7c.05.04.15.1.15.18v.42c0 .25-.17.24-.42.24.07.12.45.66.45.78v.06c0 .2-.27.63-.57.63h-1.06c-.1 0-.24-.01-.24-.12v-.54c0-.12.15-.15.27-.15h.46l-.3-.57c-.38 0-.7.1-.7-.27v-.54h.27c-.04-.17-.27-.39-.27-.57v-.06zm-.6-1.2c0 .63-.03 2.6.08 3.08.13.55.12.77.42 1.16.22.29.57.54 1.06.54 1.3 0 1.72-1.38 1.72-2.7v-.79l-.03-1.32-1.5-.22v.04h-.12c-.22 0-.68 0-.86.04-.23.05-.56.15-.77.17zm-8.8 5.5v.15a10.25 10.25 0 0 0 .83 4.21c.57 1.19 1.1 2.24 1.97 3.11a9.77 9.77 0 0 0 2.92 2.16c1.04.52 2.53 1 4.07 1h.43v-.09c0-.4-.97-1.69-.97-1.98 0-.04.46-.51.52-.59.11-.12.24-.66.24-.91v-.13l-.43.04c-.21.15-.36.1-.55.38l-.32.61c-.2 0-.36-.36-.48-.36-.08 0-.3.12-.47.16-.17.03-.4.03-.57.09-.43.13-.34.42-.52.77-.28-.06-.66-.55-.66-.93v-.27c0-.7 1.17-1.53 1.88-1.53l.01-.27c.04-.3.25-.78.57-.78.36 0 .2.54.75.54.31 0 .52-.77.52-1.15v-.12c0-.23-.06-.48-.14-.64a3.12 3.12 0 0 0-.37-.44c-.37 0-.38.75-.55.75h-.03c-.14 0-.34-.37-.36-.54-.23.07-2.34 1.56-2.34 1.69 0 .11.3.18.45.18.04.08.27.47.27.5v.28c0 .04-.15.22-.18.36-.14.01-.27.12-.33.12h-.03c-.07 0-.18-.04-.18-.1 0-.13.1-.22.1-.3 0-.2-.57-.56-.88-.56h-.06c-.1 0-.17.05-.24.09.02.19.21.56.21.57 0 .15-.03.26-.09.36v.12c-.11.17-.34.9-.57.9h-.06c-.07 0-.1-.02-.1-.09v-.18c0-.13.07-.1.07-.24 0-.2-.24-.3-.24-.42 0-.16.24-.6-.06-.63l-.12.39c-.06.14-.13.2-.32.22l-.13.1-.03.3c-.06.04-.1.07-.18.07H6.6c-.13 0-.18-.17-.18-.3v-.15c0-.23.03-.38.05-.57.05-.33.11-.31.16-.47l.57-.16v-.1c0-.09-.11-.14-.21-.14h-.4c-.3 0-.16.15-.38.15h-.06c-.07 0-.1-.02-.1-.1V23c0-.24.18-.46.29-.62.08-.13.43-.34.59-.34.1 0 .57.36.96.36h.27c.57 0 1.04-.68 1.36-.99a8.22 8.22 0 0 0 1.07-1.3c0-.19-.16-.27-.24-.39.14-.2 1.77-1.58 1.77-1.68 0-.27-.39-1.06-.57-1.11 0 .4-.5 1.43-.68 1.72-.37.63-.58.85-1.02 1.38a5.37 5.37 0 0 1-3.1 1.73l-.72.02-.63-.08-.4-.15c.05-.48 2.06-1.45 2.08-2.13-.13.01-.36.13-.46.18a7.12 7.12 0 0 1-1.68.27l-.18.02-1.1-.14v-.09c0-.17.6-.6.76-.7.25-.2.54-.5.78-.72l.76-.75c.17-.17.7-.54.7-.8-.42.1-.98.33-1.47.33h-.52c-.12 0-.45-.1-.54-.15-.07-.04-.4-.3-.42-.3-.25 0-.3 1.04-.3 1.38zm18.87-1.02h-.54c-.1 0-.5-.07-.6-.1l-.6-.12c.1.47 2.88 2.73 3.37 2.74l.08-1.11v-.9c0-.28-.05-.8-.2-.9-.4.2-.9.39-1.51.39z"/><path fill="#fff" d="M17.98 14.78c0 .91 2.1 2.44 2.13 2.86h-.09c-.7 0-1.86-2.36-2.17-2.44l.1.36-.12-.06c.01.47.57 1.44.78 1.75.35.5.75.92 1.23 1.3a5.18 5.18 0 0 0 2.68 1.1c.23.03.38-.03.6-.03.33 0 .38.01.2-.22-.22-.27-1.11-.87-1.44-1.09-.5-.32-.93-.78-1.34-1.2-.32-.32-2.36-2.45-2.56-2.5v.17zm-8.62.27v-.12c0-.08.01-.08.03-.15-.36.03-2.28 1.93-2.62 2.28-.28.28-2.39 2.38-2.52 2.41.04.14.22.18.4.18.81 0 1.35-.24 1.98-.42a3.28 3.28 0 0 0 1.5-.9c.36-.34 1.76-2.5 1.77-3.06-.17 0-.42.46-.55.59-.2.2-.35.41-.55.61-.29.29-.87.99-1.27 1.08.05-.2 1.03-1.16 1.24-1.4.22-.27.43-.38.63-.7.1-.14.5-.71.5-.85h-.09c-.18 0-.24.4-.45.46z"/><path fill="#e5344c" d="M15.46 18.03c0 .75 1.22 1.68 2.01 1.68-.03-.41-1.26-2.13-1.26-2.85v-.1a4.5 4.5 0 0 0-.75 1.27z"/><path fill="#fff" d="M17.23 15.32v.06c0 .2.13.13.04.29l-.19-.29c0 1.27 1.8 3.03 1.8 4-.38-.09-1.02-1.43-1.2-1.85l-.47-1.08-.2-.55c-.05-.14-.1-.51-.23-.55l-.03.28-.09-.37h-.27l-.12.93c-.09.57.4 1.78.59 2.15a6.32 6.32 0 0 0 2.75 2.74c.3.15.68.3 1.02.37.15.03 1.2.1 1.2-.06s-.57-.49-.7-.6c-.17-.13-.46-.5-.63-.68-.4-.42-.89-.97-1.2-1.44-.18-.27-.36-.5-.53-.77-.17-.29-.3-.57-.47-.85-.12-.2-.81-1.63-.83-1.82h-.15c-.07 0-.09.03-.09.1zM5.84 21.18v.03c0 .22.2.36.43.36h.27c.84 0 3.16-1.49 3.48-2.04.42-.72 1.56-2.98 1.56-4v-.08c0-.15-.1 0-.12-.24h-.11l-.07.33h-.06l-.06-.24c-.17.11-.5.95-.63 1.2-.21.43-.4.81-.65 1.2-.14.21-.31.36-.42.52-.14.21-.22.35-.38.56-.19.25-.63.84-.86 1 .03-.11 1.22-1.87 1.4-2.13.22-.33 1.24-1.92 1.24-2.3 0-.06.01.02-.03-.06l-.18.1v-.22l-.24.04v-.15h-.09c-.12 0-.72 1.58-.83 1.8-.3.6-.69 1.07-1.07 1.58-.25.33-2.58 2.74-2.58 2.74z"/><path fill="#e5344c" d="M14.35 22.02v.34c0 .32.3.8.63.8.44 0 .6-.43.69-.8h.12c.11 0 .42.16.49.23.12.1.18.3.2.52.01.2.09.41.2.52.09.1.36.23.52.23h.3l.21-.7h.03c.26 0 .27.01.35-.16.08-.2.26-.03.31-.22-.57-.14-1.9-1.3-2.42-1.65l-.25.5c-.24-.16-.63-.72-.93-.72h-.03c-.36 0-.42.73-.42 1.11z"/><path fill="#fff" d="M16.39 21.06c.14.21.93.77 1.19.95.16.1 1.23.8 1.27.86-.08.11-.43.2-.63.2v.19c0 .12.15.3.24.3h.03c.2 0 .4-.27.7-.27h.08c.2 0 .3.2.45.24v.2c0 .19-.15.38-.15.46 0 .09.18.24.3.24H20c.06 0 .13-.06.14-.1l-.17-.92h.12c.2 0 .32.36.4.5l.42.04-.02.03.07.39h.15c.07 0 .15-.08.15-.15v-.15c0-.08-.01-.09-.03-.16l-.18-.02a.9.9 0 0 0-.58-.8l.07-.14c.26 0 .66 0 .66-.24 0-.17-.26-.3-.45-.3h-.09c-.54 0-.2.42-.8.42h-.1c-.6 0-1.22-.58-1.5-.93-.18-.24-.93-1.2-1-1.44h-.17c-.2 0-.32.1-.4.23-.12.2-.2.23-.3.37zm-8.41 1.57h-.1c-.5 0-.67-.34-.86-.34h-.15c-.16 0-.27.17-.27.27v.06c0 .11.02.17.06.24.2 0 .34-.12.42-.12.12 0 .33.33.33.48 0 .27-.78.29-.78.58v.15c0 .13.15.33.27.33h.03c.21 0 .37-.46.39-.66h.18c.14 0 .15.06.2.15l.04.3c.01.1-.12.14-.12.24v.06c0 .1.14.2.27.2H8c.12 0 .27-.1.27-.2v-.24c0-.2-.24-.26-.24-.54s.36-.43.66-.43h.12c.52 0 .5.52.63.52.12 0 .27-.12.27-.21v-.1c0-.19-.54.04-.54-.33 0-.4.81-1 1.1-1.2.22-.17 1.29-.88 1.36-.99l.03-.48h-.24l-.54-.03c-.6.4-.82.78-1.31 1.27-.35.34-.96 1.01-1.6 1.01z"/><path fill="#fff" d="M8.49 8.83c-.23-.02-.35-.42-.63-.42s-.7.3-.7.6l-.02.04.15 1.05-.02.13-.1.14c0 .2-.06.22-.06.3 0 .13.16.53.21.62.12.2.26.14.27.58 0 .3-.05.54.1.74.07.09.34.37.47.37.1 0 .15-.11.15-.21 0-.26-.03-.48-.11-.67-.05-.12-.22-.5-.22-.57l.23.08-.01-.03.12-.12.02.02-.01.33.04.6c.16.24.9.6 1.32.6 0 .2.07.5.17.6.03.04.5.3.52.3h.03c.2 0 .23-.06.45-.06-.01.2-.65.37-.87.4.03.33.68.83 1.11.83a.9.9 0 0 0 .88-.6c.16-.45.02-.82.02-1.35 0-.6-.18-.9.43-1.02.43-.09.81-.15 1.35-.15h.42c.4 0 1.4.15 1.47.45.05.28 0 .68.03.93.03.27.03.65.03.93 0 1.48-.39 3.13-1.8 3.13h-.48c-.48 0-.9-.47-1.08-.78-.19-.32-.37-1-.37-1.5-.14.04-.18.4-.18.6a.78.78 0 0 0-.15.42v.18c0 .31.23.77.35 1 .11.2.56.73.58.8-.45.22-.61.39-.95.73-.1.1-.85.78-.85.86v.06c0 .25.53.42.81.42h.21v.24c0 .38-.05.7.21.87.12-.18.47-1.14.6-1.14.05 0 .1.02.1.06 0 .18-.1.27-.1.4v.02c0 .14.4.25.51.58.1.28.18.51.18.9v.11c0 .5-.22 1.33-.66 1.33h-.06c-.3 0-.7-.55-.72-.55-.17 0-.33.13-.33.3v.1c0 .17.04.26.06.42.05.26.1.25-.18.27-.26.01-.57.14-.79.23-.34.14-.98.6-.98 1.03v.18c0 .3.2.48.24.66.28-.08-.02-.57.79-.71.53-.1.83-.03.95-.55h.09c0 .17.2.56.33.57v-.1c0-.34.3-.52.57-.6.38-.1.56-.16.86-.32l.07-.36c.13 0 .18.12.18.24 0 .28-.15 1.02-.2 1.27-.1.45-.64.84-.64.86 0 .03.45.79.52.92.13.26.34.8.5.97.06-.22.3-.81.42-1l.57-.86c0-.05-.5-.7-.57-.8a2 2 0 0 1-.27-1.15v-.3c0-.1.07-.12.18-.12v.18c0 .28.7.36.9.5.14.1.25.2.34.34.04.08.18.42.27.42h.03c.33 0 .35-.48.84-.48h.12c.77 0 .75 1.02 1.02 1.02.33 0 .51-.6.51-.96 0-.23-.07-.54-.17-.67a.58.58 0 0 0-.23-.19c-.15-.07-.1-.13-.24-.18-.39-.14-1.15-.06-1.34-.34.02-.1.06-.19.06-.3 0-.28-.23-.84-.45-.84-.11 0-.28.75-.75.75h-.21c-.45 0-.85-.9-.85-1.41v-.12c0-.44.35-1.2.7-1.2h.12c.24 0 .5.51.74.66l.25-.74-.03-.02c.09-.13.08-.39.3-.39.13 0 .15.08.33.06.13 0 .2-.03.39-.03.32 0 .46-.1.69-.15 0-.23-.08-.12-.3-.18l-.4-.11c-.25-.07-.5-.2-.71-.3-.3-.16-.9-.75-.9-1.15V18c0-.38.78-1.18.78-1.96V14.7c.13.02.22.18.33.24.02.02.44.15.45.15h.15c.28 0 .84-.27.84-.63 0-.27-.4-.23-.42-.48h.69c.09 0 .16-.12.27-.15v-.62L18 13v-.12c.39-.03.55-.44.63-.78.1 0 .15-.01.15.09 0 .29-.14.4-.23.61-.13.31-.04.4-.04.77v.21c0 .17-.1.2-.23.25l-.37.14v.1c0 .1.33.14.45.14h.18c.23 0 .63-.63.64-.66l-.07-.66c-.02-.2.15-.3.33-.3v.09c0 .14-.09.17-.09.27 0 .08.26.23.3.33l-.27-.06c.06.25.22.04.24.28l-.2-.07-.03.02.17.24-.24-.02v.18h.09c.17 0 1.02.42 1.32.42.63 0 2.15-.08 2.16-.6a8.59 8.59 0 0 1-1.39-.44 2.5 2.5 0 0 1-.6-.33c-.08-.06-.5-.4-.53-.4h-.09v.09c-.15 0-.2-.05-.2-.18h.08v-.12c0-.07.02-.1.1-.1h.05c.2 0 .52.19.9.19h.75c.3 0 .51-.12.78-.12.16-.1.7-.28.7-.54v-.15c-.36 0-.77-.11-1.08-.2-.2-.05-.88-.25-1-.25h-.15l-.93.12h-.33c.04-.15.18-.2.18-.4v-.14h-.18l-.02-.04.2-.09v-.09h-.07l.1-.2-.2-.01.1-.24-.17.03v-.12c0-.17-.27-.14-.27-.39.16-.04.51-.28.51-.48v-.03c0-.18-.58-.66-.66-.66-.2 0-.23.06-.42.06h-.12c.02-.26.15-.4.15-.69 0-.17-.08-.26-.25-.27l.04-.15a.84.84 0 0 0-.51-.16l-.24.04v.57c0 .65-.4.8-.4 1.17v.1c0 .47.26.51.6.63.17.05.31.08.47.16.09.05.29.26.29.34 0 1-.4.93-1.23 1.03-.42.05-.2 1.47-.79 1.47h-.12c-.18 0-.57-.33-.62-.46-.16-.34-.18-.42-.42-.7-.15-.15-1.12-.98-1.12-1.07v-.15c.24.02.32.15.54.15h.1c-.03-.26-.96-.65-.97-1.18l.54.07c-.02-.26-.66-.75-.66-.9 0-.07.02-.09.09-.09h.12v-.12c0-.14-.13-.54-.24-.54h-.15c-.25 0-.35.05-.54.08l.17.2-.02.02c-.2 0-.16-.06-.3-.06h-.1c-.14 0-.12.21-.26.21H13c-.4 0 .45-.6-.76-.38-.41.08-.76.06-.76.56h.09c.03 0 .3-.15.48-.15h.33c.25 0 .47.13.69.15v.21c0 .54-.72.16-.81.51.04.02.03.03.09.03h.18c.16 0 .16-.06.33-.06h.42c0 .32-.57.34-.57.54v.1h.51c0 .63-.89.62-.96.9.16 0 .17.08.36.08l.12.01.45-.04c0 .73-1.25.47-1.7.77-.4.25-.45 1.3-1.15 1.3-.27 0-.48-.16-.48-.41v-.15c0-.2.15-.42.15-.63 0-.36-.74-.37-1.15-.37-.17-.11-.72-.48-.72-.72 0-.25.38-.48.66-.48.25-.16.76-.09.76-.66v-.12c0-.42-.24-.86-.24-1.29V7.8c0-.16.09-.35.09-.36 0-.07-.01-.04-.03-.12h-.34c-.69 0-.51.88-.57 1.5z"/><path fill="#e5344c" d="M22.25 21.4c-.15.21-.52.35-.87.35h-.06c-.64 0-1.48-.36-1.96-.53-.26-.1-.55-.3-.77-.47-.2-.15-.52-.44-.7-.56-.15 0-.48.04-.48.18 0 .54 1.78 2.31 2.29 2.31.25 0 .75-.5 1.02-.5h.15c.15 0 .24.1.3.2.49 0 .72.15.72.63v.12c-.17.05-.1.15-.18.15-.16 0-.23-.36-.4-.36h-.02c-.1 0-.3.12-.3.21v.03c0 .28.48.54.48.87 0 .17-.2.52-.33.52h-.03c-.2 0-.25-.06-.41-.1l.07-.22.04.01v-.14l-.48-.1c0 .38-.1.79-.45.79h-.03c-.1 0-.46-.47-.46-.6v-.13c0-.13.12-.25.12-.39s-.1-.27-.24-.27c-.25 0-.37.2-.57.33-.17-.01-.34-.12-.45-.12h-.03c-.1 0-.15.11-.15.21v.1c0 .09.03.11.06.17-.02.04-.03.04-.03.1 0 .17.36.36.36.92v.19c0 .54-.4 1.14-.87 1.14h-.09c-.01-.54-.27-1.12-.8-1.12h-.13c-.34 0-.7.53-.83.39-.45-.53-.59-.9-1.33-.9v.1c0 .38.56 1.5.87 1.59-.03.39-1.05 1.2-1.05 2.07h.09c2.55 0 5.11-1.53 6.4-2.82a9.93 9.93 0 0 0 1.95-2.68c.23-.46.54-1.1.69-1.62.1-.38.48-1.46.48-1.83a2 2 0 0 1-.84.18h-.06a8.2 8.2 0 0 1-1.46-.14c-.5-.1-.84-.21-1.28-.31.33.62 1.74 1.45 2.05 2.04z"/><path fill="#000" d="M14.35 22.02c0-.38.06-1.1.42-1.1h.03c.3 0 .69.55.93.71l.25-.5c.52.35 1.85 1.51 2.42 1.64-.05.2-.23.03-.31.23-.08.17-.09.16-.35.16h-.03l-.2.69h-.31a.99.99 0 0 1-.53-.22.9.9 0 0 1-.2-.53c0-.2-.07-.4-.2-.51a1.27 1.27 0 0 0-.48-.24h-.12c-.09.37-.25.82-.7.82-.33 0-.62-.5-.62-.82v-.33zm6.63 1.9l-.5-.02c-.08-.13-.2-.5-.4-.5h-.11l.16.94c0 .03-.08.09-.13.09h-.12c-.13 0-.3-.15-.3-.24 0-.08.15-.27.15-.45v-.21c-.15-.04-.25-.24-.46-.24h-.09c-.3 0-.5.27-.69.27h-.03c-.09 0-.24-.18-.24-.3v-.18c.2 0 .55-.1.63-.21a24.8 24.8 0 0 0-1.27-.86c-.26-.18-1.31-.9-1.45-1.1.1-.15 0-.25.12-.45.08-.14.6.02.78-.08h.21a11 11 0 0 0 1.02 1.52c.28.35.9.94 1.5.94h.09c.61 0 .26-.42.8-.42h.1c.18 0 .45.13.45.3 0 .22-.4.24-.66.24l-.08.14c.29.08.59.4.59.79.1-.02.1-.11.14-.16.12.07.28.61-.02.63l-.3.04c.1-.12.12-.27.11-.47zm-13-1.3c.64 0 1.25-.67 1.6-1 .49-.5.7-1 1.31-1.4l.4.14.38.01-.04.48c-.06.11-1.14.82-1.35.98-.3.22-1.1.8-1.1 1.22 0 .36.54.13.54.33v.09c0 .1-.15.2-.27.2-.13 0-.12-.5-.63-.5H8.7c-.3 0-.66.14-.66.42 0 .28.24.34.24.54v.24c0 .1-.15.2-.27.2h-.12c-.13 0-.27-.1-.27-.2v-.06c0-.1.13-.14.12-.24l-.04-.3c-.05-.09-.06-.15-.2-.15h-.18c-.02.2-.18.66-.4.66H6.9c-.12 0-.27-.2-.27-.33v-.15c0-.29.78-.31.78-.57 0-.16-.21-.49-.33-.49-.08 0-.22.12-.43.12a.48.48 0 0 1-.06-.24v-.06c0-.1.12-.27.27-.27h.15c.2 0 .37.34.88.34h.09zm5.58 8.93h-.2c-1.75 0-3.68-.43-4.92-.94a12.8 12.8 0 0 1-3.67-2.2c-.49-.48-1.03-.89-1.45-1.46-.2-.28-.44-.53-.64-.83l-.57-.9c-.34-.55-.7-1.36-.93-2.01-.15-.41-.62-1.88-.62-2.33 0-.06.63-.49.72-.56a6.15 6.15 0 0 0 1.24-1.4c.09-.14.45-.74.56-.77 0 3.13 1.4 6.1 2.97 7.67 1.7 1.7 4.14 3.14 7.52 3.14 3.36 0 6.11-1.5 7.71-3.28a10.82 10.82 0 0 0 2.12-3.38c.46-1 .9-3.17.9-4.63.1.03.4.63.48.77.19.27.34.47.54.72.38.49.77.9 1.35 1.18 0 .5-.5 1.96-.66 2.38-.3.8-.56 1.38-.95 2.09a12.75 12.75 0 0 1-6.41 5.72 13.71 13.71 0 0 1-5.08 1.02zm8.69-10.16c-.31-.58-1.72-1.42-2.04-2.04.43.1.78.22 1.27.31.42.09.98.14 1.46.14H23c.32 0 .62-.07.84-.18 0 .38-.38 1.46-.48 1.83a10.2 10.2 0 0 1-.7 1.63 10.15 10.15 0 0 1-1.94 2.68c-1.29 1.29-3.85 2.81-6.4 2.81h-.1c0-.86 1.03-1.68 1.06-2.07-.31-.08-.87-1.21-.87-1.6v-.08c.93 0 .96 1.08 1.14 1.08.64 0 .93-.57 1.02-.57h.12c.54 0 .8.57.81 1.11h.1c.46 0 .86-.6.86-1.14v-.18c0-.57-.36-.76-.36-.93 0-.06.01-.06.03-.1-.03-.05-.06-.08-.06-.17v-.1c0-.1.06-.2.15-.2h.03c.11 0 .28.1.45.12.2-.13.32-.33.58-.33.14 0 .24.12.24.27 0 .14-.12.25-.12.39v.12c-.16.26.48.94.8.8.17 0-.03-.27.05-.42.1-.18.08-.35.08-.56l.48.1-.04.13-.07.21c.16.04.2.1.4.1h.04c.13 0 .33-.35.33-.51 0-.33-.48-.6-.48-.87v-.03c0-.1.2-.21.3-.21h.03c.16 0 .23.36.39.36.08 0 .01-.1.18-.15v-.12c0-.49-.24-.63-.72-.63-.06-.1-.15-.21-.3-.21h-.15c-.27 0-.77.5-1.02.5-.5 0-2.29-1.76-2.29-2.3 0-.14.33-.18.48-.18.18.11.5.4.7.56.22.16.5.36.77.46.48.17 1.32.54 1.96.54h.06c.35 0 .72-.14.87-.36zm-6.8-3.36c0-.13.63-1.23.76-1.26v.09c0 .72 1.23 2.44 1.26 2.85-.8 0-2.01-.93-2.01-1.68zm-12.04-.1c0-.33.05-1.37.3-1.37l.42.3c.09.04.42.15.54.15h.51c.5 0 1.06-.24 1.47-.33 0 .26-.52.63-.7.8-.25.26-.48.5-.75.75-.24.22-.53.52-.79.71-.15.11-.76.54-.76.71v.1l1.1.13.2-.02c.28 0 .88-.08 1.15-.14.19-.04.36-.06.52-.13.1-.05.33-.17.46-.18-.02.68-2.04 1.65-2.08 2.13l.4.15.62.08.72-.02a5.06 5.06 0 0 0 1.78-.65c.5-.3.97-.65 1.33-1.08.44-.53.64-.76 1.02-1.38.18-.3.68-1.32.68-1.72.18.05.57.84.57 1.11 0 .1-1.64 1.48-1.77 1.68.08.12.24.2.24.4 0 .14-.92 1.14-1.08 1.3-.31.3-.78.98-1.35.98h-.27c-.39 0-.86-.36-.97-.36-.15 0-.5.21-.58.34-.11.15-.29.38-.29.62v.09c0 .07.02.09.1.09h.05c.22 0 .08-.15.4-.15h.39c.1 0 .2.05.2.15v.09l-.56.16c-.05.16-.12.14-.16.46-.02.2-.06.35-.06.58v.15c0 .13.06.3.18.3h.06c.1 0 .12-.03.18-.06l.04-.3.12-.11c.2-.01.27-.08.32-.22l.12-.4c.3.03.06.48.06.64 0 .12.24.21.24.42 0 .13-.06.1-.06.24v.18c0 .07.03.09.1.09h.05c.24 0 .46-.73.58-.9v-.12c.06-.1.09-.2.09-.36 0-.01-.2-.38-.21-.57.06-.04.14-.1.24-.1h.06c.3 0 .87.36.87.58 0 .07-.1.16-.1.3 0 .05.12.09.19.09h.03c.05 0 .19-.11.33-.12.03-.14.18-.32.18-.36v-.27c0-.04-.23-.43-.27-.51-.15 0-.45-.07-.45-.18 0-.13 2.1-1.62 2.34-1.69.01.17.22.54.36.54h.03c.17 0 .17-.75.54-.75.03 0 .34.38.37.44.09.16.14.4.14.64v.12c0 .38-.2 1.15-.5 1.15-.56 0-.4-.54-.76-.54-.32 0-.54.47-.57.78v.27c-.73 0-1.9.83-1.9 1.53v.27c0 .38.38.86.67.93.18-.35.09-.64.51-.78.18-.05.4-.05.58-.08.18-.04.4-.16.47-.16.12 0 .27.36.48.36 0 0 .28-.56.32-.61.18-.28.33-.23.55-.38l.42-.04V25c0 .25-.12.79-.23.91-.07.08-.52.55-.52.6 0 .28.96 1.57.96 1.97v.1h-.42a9.51 9.51 0 0 1-4.07-1A9.75 9.75 0 0 1 6.2 25.4c-.88-.87-1.4-1.92-1.97-3.1a10.25 10.25 0 0 1-.83-4.22v-.15zm18.87-1.01c.6 0 1.1-.18 1.5-.4.16.11.21.63.21.9v.9l-.08 1.12c-.49-.01-3.27-2.28-3.38-2.74.11 0 .46.1.6.13.1.02.5.09.6.09h.55zm-3.4 2.46c0-.97-1.8-2.73-1.8-4l.2.29c.08-.16-.05-.09-.05-.29v-.06c0-.07.02-.09.1-.09h.14c.02.18.7 1.62.83 1.82.17.28.3.56.47.85.17.27.35.5.53.77.31.47.81 1.02 1.2 1.44.17.19.46.55.63.69.13.1.7.43.7.6 0 .15-1.05.08-1.2.05a4.5 4.5 0 0 1-1.02-.37 6.32 6.32 0 0 1-2.75-2.74c-.18-.37-.68-1.58-.6-2.15l.13-.93h.27l.1.37.02-.28c.14.04.18.41.23.55l.2.55.46 1.08c.18.42.82 1.76 1.21 1.85zM5.27 21.4c.06.01 2.88-2.48 3.15-2.96.38-.52.77-.98 1.07-1.57.11-.24.7-1.82.83-1.82h.1v.15l.23-.03v.21l.17-.1c.05.09.04 0 .04.07 0 .37-1.02 1.97-1.25 2.3-.17.26-1.36 2.01-1.4 2.12.24-.16.68-.74.87-1 .16-.2.24-.34.38-.55.1-.16.28-.31.41-.52.27-.39.45-.78.66-1.2.13-.26.46-1.1.63-1.2l.06.23h.06l.06-.33h.12c.02.24.12.1.12.24v.1c0 1-1.14 3.27-1.56 3.99-.32.54-2.36 2.06-3.2 2.06-.54 0-1.04.03-1.56-.19zm12.68-5.83l-.1-.36c.31.07 1.48 2.43 2.18 2.43h.09c-.04-.42-2.14-1.95-2.14-2.86v-.18c.2.06 2.24 2.2 2.56 2.52.41.4.85.87 1.34 1.2a8 8 0 0 1 1.43 1.08c.19.24.14.22-.19.22-.22 0-.37.06-.6.02a5.16 5.16 0 0 1-2.68-1.1c-.47-.37-.88-.8-1.23-1.3a4.91 4.91 0 0 1-.78-1.74l.12.06zM.32 11.02c.32.02 1.84.9 2.17 1.1.36.22.72.35.91.74.15.31.25.92.25 1.37v.4c0 .4-.11.87-.27 1.1-.47-.1-1.12-.24-1.56-.39-.24-.08-.55-.11-.8-.2-.14-.05-.7-.13-.7-.25v-3.87zm3.27 5.22c0-.53.33-1.37.33-2 .22.14.3.38.72.44.31.05.69.12 1.06.12-.15.12-.4.27-.57.4l-.52.41c-.16.13-.92.82-1.02.85v-.21zm17.46-1.59c.34 0 1.05-.12 1.4-.18.24-.05.37-.11.57-.22.28-.14.12-.31.46-.32.02.2.1.75.15 1 .05.3.06.7.06 1.05v.27l-2.65-1.6zm-11.7.4c.21-.06.27-.46.46-.46h.09c0 .14-.41.7-.5.85-.2.32-.41.43-.63.7-.21.24-1.19 1.2-1.24 1.4.4-.1.98-.8 1.26-1.08.2-.2.36-.4.56-.61.12-.13.38-.58.55-.6-.01.57-1.41 2.73-1.77 3.08-.42.41-.85.7-1.5.89-.63.17-1.17.42-1.99.42-.17 0-.62.01-.65-.13.13-.03 2.5-2.19 2.78-2.46.34-.35 2.26-2.25 2.62-2.28-.02.07-.03.07-.03.15v.12zm9.67-.63c.33.08 1.34 1.42 2.06 1.43-.03-.36-1.7-.92-1.72-1.53.7.06 3.97 1.75 4 2.17-.37.08-.77.24-1.23.24h-.27a3.8 3.8 0 0 1-1.95-.67c-.24-.14-1.27-1.07-1.27-1.32v-.12c.15 0 .27.07.3.18H19l-.1-.24h.2l-.08-.14zm4.73-.46c0-.49.14-1.1.3-1.45.3-.7.13-.58.75-.99.28-.19 1.9-1.33 2.07-1.37v4.23l-3 .9-.03-.02-.11-1.03.02-.27zM3.95 16.4c.68-.85 3.67-2.45 4.48-2.47l-.34.26c.02.03.02.07.07.07.13 0 .2-.15.36-.15.03 0 .09.06.09.12v.1a17.4 17.4 0 0 0-2.14 1.55c.7-.01 1.78-1.38 2.4-1.38.02.19.1.08.1.21 0 .33-1.4 1.23-1.72 1.41a4.3 4.3 0 0 1-2.52.69c-.1 0-.9-.26-.78-.4zm4.36-3.13c0-.24.1-.36.33-.36.3 0 .63.27.84.27h.09c.03.33.3.68.3 1v.02c0 .17-.23.24-.42.24h-.21a3 3 0 0 1-.6-.44c-.21-.2-.33-.33-.33-.73zm3.9-.84c.21-.02.53-.12.76-.17.2-.04.65-.04.86-.04h.12l.01-.04 1.5.22.03 1.32v.78c0 1.33-.43 2.7-1.72 2.7a1.3 1.3 0 0 1-1.06-.53c-.3-.4-.3-.61-.42-1.16-.11-.48-.08-2.45-.08-3.08zm-7.99 1.65c0-.13 1.23-.84 1.43-.94.4-.2 1.22-.6 1.76-.6.03 0 .12.1.12.16 0 .08-.02.08-.03.15h.15l-.08.16-.01.17c-.32.21-1.25.59-1.68.7v.05c.28 0 .86-.22 1.12-.31.15-.05.98-.47.98-.47H8c.1 0 .13.03.18.09-.48.72-1.44 1.23-2.65 1.23h-.12c-.34 0-1.2-.14-1.2-.39zm2.55-3.07c.1 0 .2.05.28.07v.42l.3.03c.02.04.06.1.06.15 0 .1-.25.3-.3.39.05.08.18.13.18.24 0 .12-1.28.33-1.54.33h-.48c-.72 0-1.68-.43-1.68-1.08h.12c.06 0 .25.15.4.15h.14c.28 0 1.82-.52 1.99-.63l.53-.07zm-3.66.22c0-.2.56-1.08.68-1.28.12-.2.7-1.08.73-1.22.25.07.68 1.79 1.53 1.99v.09c0 .13-.3.13-.44.19l-.43.16c-.3.11-.51.28-.93.28-.4 0-.66-.2-.9-.21 0 .1-.03.1-.03.2v.07c0 .92.83 1.5 1.71 1.5h.27c.1 0 .12-.02.21-.03-.12.17-1.42.91-1.68.93v-.15c0-.28-.26-1-.35-1.24-.09-.23-.37-.94-.37-1.2v-.08zm18.75-1.45c.29 0 .47-.17.54-.17h.09c.02.06.03.06.03.15v.09c0 .45-1.33 1.26-1.86 1.26h-.12c-.07 0-.1-.02-.1-.1V11c0-.31.19-.3.37-.42.33 0 .93-.13.96-.45h-.1c-.26 0-.75.36-1.26.36l-.2-.6c.2-.1.26-.15.54-.15h.36l.6.07.15-.01zm-.12-.23c.13-.2.27-.27.35-.55.05-.17.13-.58.13-.78.1.08.84 1.19.98 1.4.2.3.85 1.13.85 1.52v.03c0 1-.38 1.74-.57 2.55h-.24c-.25 0-.94-.18-1.2-.25-.24-.06-.84-.3-.85-.6h.52c1.08 0 1.98-.32 1.98-1.4-.1.02-.1.06-.21.06h-.27a4.3 4.3 0 0 1-1.56-.45c.18-.28 1.02-.65 1.02-1.12v-.2a.78.78 0 0 0-.1-.43l-.83.21zm-15.08.8l.3.07v.3c0 .06-.02.09-.1.09h-.3c-.47 0-1.59-1.13-1.59-1.66v-.2c.35 0 .72.3 1.14.4.43.08.97-.07.97.52v.15H6.9v.12l-.96-.22c.09.14.5.31.72.31v.12zm13.66-1.68c.35-.18 1.12-.62 1.6-.63l.06.45c.05.3-.29.64-.47.77a1.9 1.9 0 0 1-.95.25h-.15c.06-.16.89-.6.9-.84-.31.08-.57.57-.84.57h-.09l-.06-.57zM4.7 8.48c.18-.34.29-.87.7-.97v.33c0 .79.56.98.62 1.23-.48-.11-1.08-.24-1.32-.6zm2.35.56c0 .05-.04.06-.1.06h-.14c-.27 0-.65-.31-.84-.45-.22-.17-.51-.4-.51-.78v-.12a.5.5 0 0 1 .15-.03h.18c.34 0 1.44.47 1.44.78 0 .15-.3.18-.45.18 0 0-.31-.23-.51-.24.12.2.78.45.78.6zm1.44-.2c.05-.63-.12-1.5.57-1.5h.33c.02.08.03.04.03.11 0 0-.09.2-.09.36v.24c0 .43.24.87.24 1.3v.11c0 .57-.5.5-.75.66-.29 0-.66.23-.66.49 0 .23.55.6.72.72.4 0 1.14 0 1.14.36 0 .21-.15.42-.15.63v.15c0 .25.21.42.48.42.7 0 .75-1.06 1.15-1.31.46-.3 1.7-.04 1.7-.76l-.44.03h-.13c-.18 0-.2-.08-.36-.1.08-.27.96-.26.96-.9h-.5v-.08c0-.2.56-.23.56-.55h-.42c-.16 0-.16.06-.33.06h-.18c-.05 0-.05 0-.09-.03.1-.35.81.03.81-.5v-.22c-.21-.01-.43-.15-.69-.15h-.33c-.18 0-.44.15-.48.15h-.09c0-.5.35-.48.76-.56 1.21-.21.36.38.77.38h.1c.14 0 .11-.2.26-.2h.1c.13 0 .09.05.3.05l.02-.02-.17-.2c.18-.03.29-.08.53-.08h.15c.12 0 .24.4.24.54v.12h-.12c-.07 0-.09.02-.09.1 0 .15.64.63.66.9l-.53-.08c0 .53.93.92.96 1.19h-.1c-.21 0-.3-.13-.54-.15v.15c0 .09.98.9 1.12 1.07.25.27.27.36.42.7.06.12.45.45.63.45h.12c.58 0 .37-1.42.78-1.47.84-.1 1.23-.03 1.23-1.02 0-.09-.2-.3-.29-.35-.15-.08-.3-.1-.46-.16-.35-.11-.6-.16-.6-.64v-.09c0-.37.39-.52.39-1.17v-.57l.24-.03c.2-.03.4.08.51.15l-.03.15c.16.02.24.1.24.27 0 .28-.13.44-.15.7h.12c.2 0 .23-.07.42-.07.08 0 .66.48.66.66v.03c0 .2-.35.44-.5.49 0 .25.26.21.26.39v.12l.18-.04-.1.24h.2l-.1.21h.06v.1l-.2.09.02.03h.18v.15c0 .18-.14.24-.18.39h.33l.94-.12h.15c.12 0 .8.2 1 .26.3.08.72.19 1.07.19v.15c0 .26-.53.43-.7.54-.26 0-.48.12-.77.12h-.75c-.39 0-.7-.18-.9-.18h-.06c-.07 0-.1.02-.1.09v.12h-.08c0 .14.06.18.2.18v-.09h.1c.03 0 .44.34.52.4.2.15.36.23.6.33a8.1 8.1 0 0 0 1.4.44c-.01.52-1.53.6-2.16.6-.3 0-1.15-.42-1.33-.42h-.09v-.18l.24.02-.17-.24.03-.02.2.07c-.02-.23-.18-.03-.24-.28l.27.06c-.03-.1-.3-.25-.3-.33 0-.1.1-.13.1-.27v-.09c-.19 0-.36.11-.34.3l.08.66c-.01.04-.41.66-.65.66h-.18c-.12 0-.45-.04-.45-.15v-.09c.07-.01.25-.1.37-.14.14-.04.23-.08.23-.25v-.2c0-.38-.08-.46.05-.78.08-.21.22-.32.22-.6 0-.1-.05-.1-.15-.1-.08.34-.24.75-.63.78v.12l.36.19v.62c-.11.03-.18.15-.27.15h-.69c.02.25.42.22.42.48 0 .36-.55.64-.84.64h-.15l-.45-.15c-.1-.07-.2-.23-.33-.24v1.35c0 .78-.78 1.57-.78 1.95v.33c0 .4.6 1 .9 1.14.21.1.46.25.72.31l.4.11c.22.07.29-.04.3.18-.24.06-.38.15-.7.15-.18 0-.26.03-.39.04-.17 0-.2-.07-.33-.07-.22 0-.21.26-.3.4h.04l-.25.76c-.24-.16-.5-.67-.75-.67h-.12c-.35 0-.7.76-.7 1.2V22c0 .52.4 1.41.85 1.41h.21c.48 0 .64-.75.75-.75.22 0 .45.56.45.84 0 .11-.03.2-.06.3.19.28.96.2 1.34.34.15.06.1.11.24.18.1.05.17.11.23.2.1.12.18.43.18.66 0 .36-.2.96-.52.96-.26 0-.25-1.02-1.02-1.02h-.12c-.48 0-.5.48-.84.48h-.03c-.09 0-.22-.34-.27-.42-.09-.14-.2-.25-.34-.35-.2-.13-.9-.2-.9-.49v-.18c-.1 0-.17.01-.17.12v.3c0 .5.07.84.27 1.14.07.11.57.76.57.81l-.58.87c-.11.18-.36.77-.41 1-.16-.18-.37-.71-.5-.98-.07-.13-.52-.89-.52-.92 0-.02.54-.41.63-.86.06-.25.2-.99.2-1.27 0-.12-.05-.23-.17-.24l-.07.36c-.3.17-.49.23-.86.33-.28.08-.57.26-.57.6v.1c-.14-.02-.34-.4-.34-.58h-.09c-.12.53-.42.46-.95.55-.8.15-.47.73-.76.8-.04-.17-.27-.44-.27-.75v-.18c0-.42.57-1 .9-1.15a3 3 0 0 1 .81-.2c.29-.01.29.09.24-.18-.02-.15-.06-.25-.06-.42v-.1c0-.16.16-.3.34-.3.02 0 .4.55.72.55h.06c.43 0 .66-.83.66-1.32v-.12c0-.39-.08-.62-.19-.9-.12-.33-.5-.44-.5-.58v-.03c0-.12.09-.2.09-.39 0-.04-.04-.06-.1-.06-.13 0-.48.97-.6 1.15-.25-.18-.2-.5-.2-.88v-.24h-.21c-.29 0-.82-.16-.82-.42v-.06c0-.08.74-.75.85-.86.34-.34.5-.51.96-.73-.03-.07-.48-.6-.58-.8a2.59 2.59 0 0 1-.35-1v-.18c0-.17.08-.32.15-.42 0-.2.04-.55.18-.6 0 .5.17 1.18.36 1.5.18.31.6.78 1.08.78h.48c1.42 0 1.8-1.65 1.8-3.13 0-.28 0-.66-.03-.93-.03-.24.02-.65-.03-.92-.06-.31-1.07-.46-1.47-.46h-.42c-.54 0-.91.07-1.35.15-.6.12-.42.41-.42 1.02 0 .53.13.9-.03 1.36a.91.91 0 0 1-.87.6c-.44 0-1.09-.5-1.12-.85.22-.01.86-.2.87-.39-.21 0-.25.06-.45.06h-.03c-.01 0-.49-.26-.52-.29-.1-.1-.17-.4-.17-.6-.42 0-1.15-.36-1.32-.61l-.04-.6.01-.33-.02-.02-.12.12.02.03-.24-.08c0 .07.18.45.22.57.08.2.11.42.11.67 0 .1-.05.21-.15.21-.12 0-.4-.28-.47-.37-.14-.2-.1-.43-.1-.74 0-.44-.14-.38-.27-.58a2.2 2.2 0 0 1-.21-.62c0-.08.06-.1.06-.3l.1-.13.02-.14-.15-1.05.03-.03c0-.3.41-.6.69-.6.28 0 .4.4.63.42zm5.02-2.1c.1 0 .2-.19.33-.19.07 0 .1.2.39.21.02-.08.08-.18.18-.18h.09c.02.07.06.18.15.18h.54c-.02.25-.55.94-.78.96l-.15-.31-.03.01v.3c-.16.02-.2.1-.42.1h-.12c-.5 0-1.45-.6-1.45-1 0-.06.11-.09.18-.09h.21c.16 0 .2.06.33 0 .09-.06.15-.15.24-.15.04 0 .14.15.3.15zm-7.94.71c0-.54 2.23-.9 2.9-.99 1.15-.13 2.34-.24 3.62-.24h.54c1.65 0 3.76 0 5.2.2.88.13 1.57.14 2.36.36.5.14 1.65.46 1.67 1-.45.01-1.56.72-1.9.72a5 5 0 0 1-.66-.2l.04-.28v-.06c0-.34-.36-.63-.58-.78-.22 0-.25-.06-.45-.06h-.39c-.07 0-.09.02-.09.1v.08c0 .23.04.24.12.36 0 .67-.42 1.27-.42 1.72 0 .35.22.51.47.64.17.09.61.26.85.26v.27c0 .6-.47.6-1.08.6l-.44.4-.08 1.07c-.06.02-.06.03-.14.03h-.15c-.44 0-.55-.66-.82-.95-.15-.16-.27-.32-.46-.44-.15-.1-.42-.25-.46-.41.07-.02.45-.09.45-.15 0-.1-.76-.9-.87-1l.45.09.09-.03.03-.14c-.12-.18-.51-.45-.51-.72v-.1c.09.01.1.04.2.04h.04c.09 0 .08-.04.09-.12-.27-.03-.54-.53-.54-.78v-.12c0-.04.74-.84.84-1.03-.15-.2-.47-.15-.82-.15-.1-.07-.18-.24-.27-.24-.06 0-.17.13-.27.18-.05-.03-.2-.18-.27-.18h-.05c-.1 0-.15.12-.3.12s-.22-.12-.3-.12h-.1c-.1 0-.07.15-.5.15-.22 0-.32.1-.58.1v.11c0 .31.41.73.63.78 0 .27-.57.25-.82.3-.28.04-.53.26-.53.55 0 .15.06.2.06.36l.68-.21.01.03c-.17.72-1.46.57-1.53.84.11.03.19.09.36.09.38 0 .7-.23 1.02-.3.37.25.42.14.75.3l.03.03-.25.17-.01.07c0 .22.21.23.39.27v.12c-.14.03-.9.44-.9.57 0 .08.61.27.75.27h.15c-.1.36-1.24.15-1.51.56-.12.19-.71 1.18-.87 1.18h-.09c-.17 0-.3-.2-.3-.36v-.03c0-.17.24-.54.24-.78 0-.09-.31-.3-.39-.36-.5 0-1.44-.15-1.44-.63 0-.42 1.32-.18 1.32-1.14 0-.14-.15-.48-.15-.72v-.46c0-.2.11-1.14-.06-1.14h-.09c-.09 0-.88.23-.95.28-.2.14-.31.55-.31.9h-.63c-.26 0-.28-.18-.43-.3l-.45-.27c-.21-.09-1.13-.09-1.13-.28zM.37 3.06c.14.04 3.1 3.13 3.1 3.13l-.19.92c-.07.3-.11.62-.11 1v.12a3 3 0 0 0 .06.63c.05.14.22.39.24.45h-.3c-.15 0-1.22-.76-1.42-.89-.2-.14-1.24-.87-1.37-.9V3.06zm26.45-.98l.02.02v4.1c0 .1-3.07 3.02-3.24 3.06.04-.45.27-.7.27-1.44 0-.51-.25-1.29-.43-1.63l3.37-4.1zm-22.06.74c.18 0 .81-.17 1.04-.22a24.5 24.5 0 0 1 3.17-.61l2.26-.28a23.4 23.4 0 0 1 2.4-.09c1.3 0 2.7.08 3.87.25.54.08 1.2.17 1.76.27.54.1 1.2.2 1.7.34.29.08.58.14.87.2.49.1.42.01.54.48.13.5.3 1.08.45 1.6l.44 1.59c.13.47.4 1.08.4 1.64 0 .5-.22.85-.42 1.15-.27-.15-1.03-1.44-1.26-1.78-.25-.37-.37-.53-.9-.64l-1.25-.25c-.45-.07-.9-.1-1.36-.17-.44-.08-.94-.04-1.38-.12-.26-.05-1.15-.08-1.42-.08-.46 0-.94-.06-1.44-.06h-2.29c-1.5 0-3.98.2-5.15.56-.78.24-1.44.39-1.84 1-.14.21-1 1.75-1.12 1.75-.57 0-.52-1.03-.48-1.54.05-.6.2-1.24.31-1.82.12-.63.27-1.13.43-1.7.08-.3.18-.53.29-.8.14-.31.25-.42.38-.67zm-.3-.24c-.06 0-2-2-2.04-2.16h3.96c.1 0 .98 1.36 1.03 1.53l-1.48.33c-.27.05-1.3.3-1.47.3zm7-1.2c-.12 0-.16-.4-.18-.5-.03-.18-.12-.35-.12-.58H16l-.19 1.08h-4.35zM20.4.28h4c-.04.1-.77.94-.9 1.1l-.91 1.08c-.2 0-1.31-.26-1.56-.33-.22-.05-.58-.09-.77-.16a7.98 7.98 0 0 0-.8-.18L20.4.27zm-2.92 31.15c.14-.1.75-.25.96-.33l.91-.38c.6-.28 1.18-.55 1.7-.9.87-.58 2.18-1.53 2.78-2.35.17-.23.4-.47.59-.7a11.72 11.72 0 0 0 1.45-2.4c.26-.58.5-1.2.7-1.88.14-.53.42-1.52.44-2.12 0-.35.12-.78.12-1.17 0-.44.03-.8.03-1.26 0-.89-.03-1.7-.03-2.56v-5.13c0-3.44-.03-6.8-.03-10.25H.15L.1.4 0 17.82l.01 1.95c0 .87.33 1.97.5 2.73.17.83.58 1.59.86 2.31.25.64.82 1.45 1.2 2 .45.64.94 1.13 1.5 1.68C5.94 30.4 9.48 32 13.28 32h.51c.6 0 1.39-.14 1.93-.2a12.72 12.72 0 0 0 1.74-.37z"/><path fill="#0072b6" d="M25.16 23.69a.35.35 0 0 0 0-.7.35.35 0 0 0 0 .7zM22.8 27.4a.35.35 0 0 0 0-.69.35.35 0 0 0 0 .7z"/><path fill="#e5344c" d="M12.06 8.93c.1-.1.17-.17.19-.3.1-.12.42.04.53.05 0 .31-.46.17-.6.36l-.12-.1z"/><path fill="#fff" d="M6.18 23.06c0-.27.1-.48.29-.62l.02.27.06.19c-.1-.03-.23.02-.37.16zm.52 1.74c-.18-.06-.27-.34-.14-.7l.16.22.14.13c-.1.03-.11.16-.16.35zm1.08.48c.25-.1.38-.44.44-.67l-.26.08h-.2c.07.1.1.4.02.59zm1.79-1.1c.29-.1.44-.35.3-.66l-.2.18-.16.1c.1.06.04.18.06.38zm8.17-.3c0-.27.15-.58.34-.72l.08.24.09.15c-.12-.03-.37.2-.51.33zm2.43.99a.7.7 0 0 1-.54-.41l.26.03.2-.02c-.05.1-.03.24.08.4zm1.61-1.81c.02-.35-.28-.57-.58-.56.05.13.1.27.02.4.13-.14.41-.03.56.16z"/></svg>