<svg xmlns="http://www.w3.org/2000/svg" viewBox="0 0 2183 2183"><style>.st0{fill:#1a161a}.st1{fill:none;stroke:#1a161a;stroke-width:4.4646}.st3{fill:#e1001a}.st4{fill:none;stroke:#e1001a;stroke-width:4.4646}.st5,.st7{fill:none;stroke:#1a161a;stroke-width:1.897}.st7{stroke:#e1001a;stroke-width:4.4646;stroke-linejoin:round}</style><path class="st0" d="M2.1 1091.5C2.1 489.8 489.8 2.1 1091.5 2.1s1089.4 487.7 1089.4 1089.4-487.7 1089.4-1089.4 1089.4S2.1 1693.2 2.1 1091.5z"/><path class="st1" d="M2.1 1091.5C2.1 489.8 489.8 2.1 1091.5 2.1s1089.4 487.7 1089.4 1089.4-487.7 1089.4-1089.4 1089.4S2.1 1693.2 2.1 1091.5"/><path d="M54 1091.5C54 518.5 518.5 53.9 1091.5 53.9s1037.6 464.5 1037.6 1037.6c0 573-464.5 1037.6-1037.6 1037.6-573 0-1037.5-464.6-1037.5-1037.6z" fill="#fff"/><path class="st1" d="M54 1091.5C54 518.5 518.5 53.9 1091.5 53.9s1037.6 464.5 1037.6 1037.6c0 573-464.5 1037.6-1037.6 1037.6-573 0-1037.5-464.6-1037.5-1037.6"/><path class="st3" d="M1341.4 987.6l27.9 95.1 24.8-98z"/><path class="st4" d="M1341.4 987.6l27.9 95.1 24.8-98z"/><path class="st3" d="M1053.9 982.9h171.2l68.8 234.2H1228z"/><path class="st4" d="M1053.9 982.9h171.2l68.8 234.2H1228z"/><path class="st0" d="M301.4 897.1c23.1 3.3 39.8 13.9 50.2 32.1 10.3 18.1 13.3 41.9 9.2 71.3-3.8 26.6-13.1 46.7-28 60.3-15 13.6-34.1 20.1-57.4 19.3l6.2-44.2c24.4.1 38.7-14.8 42.9-44.7 1.9-13.9.9-25.3-3.1-34.2-4-9-10.5-14.1-19.4-15.3-16.5-2.3-28.1 6.6-34.9 26.8l-17.9 52.7c-4.9 14.4-13.2 25.6-24.9 33.5-11.6 7.9-24.5 10.8-38.5 8.9-21.7-3.1-37.7-12.9-48-29.6-10.3-16.7-13.6-38-9.9-64 4-28 13.2-48.9 27.7-62.7 14.6-13.8 33.2-19 55.9-15.6l-6 42.6c-10.8-.9-20 2.5-27.5 10.3-7.5 7.7-12.2 18.5-14.2 32.3-3.7 26 4.1 40.3 23.1 43 12.4 1.7 21.6-6 27.8-23.1l16.3-45.5c7.5-20.7 15.7-35.1 24.7-43.1 11.4-10.2 26.5-13.8 45.7-11.1zm156-200.1l-19.9 42.7-47.3-4.7-35.2 75.3 34.2 32.9-19.8 42.5-170.1-165.6 22.5-48.2L457.4 697zm-106.7 31.6l-91.5-10 67.3 61.9 24.2-51.9zm224.7-172.4l-98.7 117.5-171.7-144 29.7-35.4 142.2 119.4 69-82.2zm207.8-140.7l-39.1 24.4-96.5-154.4 62.6 175.6-39.1 24.4-129.9-132.4 96 153.6-39.1 24.4-118.8-190 57.2-35.8 126.3 123.4-55.3-167.8 56.9-35.5zm221-59.7l-48.3 12c-6.6-9.3-10.6-17.2-12.2-23.6l-8.2-32.8c-2.2-8.8-5.1-14.8-8.6-18.1-5.3-5-13.4-6.2-24.3-3.5L849.5 303l21.4 85.9-44.7 11.2L772 182.6l122.3-30.5c13.5-3.4 26.4-1.7 38.6 4.9 14.9 7.9 24.8 21.9 29.8 42 5.8 23.3-.5 43.4-18.8 60.5 17.6 4.5 27.8 11.9 30.8 22.1l15.6 52.5c1.8 6.5 5.8 10.9 11.8 13.2l2.1 8.5zm-83.5-143.3c-4.3-17.1-15-23.5-32.1-19.3L826 208.9l14.2 57 61.8-15.4c6.7-1.7 12-6.5 15.9-14.4 3.7-8 4.7-15.8 2.8-23.6zm336 46.8c-2.4 35.2-14.4 62.7-35.8 82.6-21.4 19.9-48.1 28.7-80 26.5-34.2-2.4-60.1-15.8-78-40.3-16.7-22.5-23.9-50.7-21.5-84.4 2.3-32.5 12.7-58.8 31.4-78.9 21.5-22.7 50.3-32.9 86.3-30.3 33.3 2.3 58.8 15.7 76.4 40.2 16.5 22.8 23.6 51 21.2 84.6zm-43.8-3.1c1.7-24.1-2.7-43.5-13.1-57.9-10.4-14.5-25.7-22.4-45.9-23.9-19.5-1.4-35.4 4.4-47.7 17.2-12.3 12.8-19.2 31-20.9 54.5-1.7 24.3 2.8 43.9 13.5 58.6 10.7 14.7 26.5 22.8 47.2 24.2 18.3 1.3 33.6-4.8 45.8-18.2 12.5-13.4 19.5-31.6 21.1-54.5zM1451 447.5l-42.8-17.3 38-94-82.4-33.3-38 94.1-42.7-17.3 83.9-207.8 42.8 17.2-31.6 78.2 82.4 33.2 31.5-78.1 42.8 17.3zm181.3 143.3l-38.2-32c3.7-10.8 7.7-18.7 11.9-23.7l21.8-25.9c5.8-6.9 9-12.8 9.6-17.7 1-7.2-2.9-14.5-11.5-21.7l-41.9-35.2-56.9 67.9-35.3-29.7 144.1-171.7 96.6 81c10.7 8.9 16.9 20.3 18.7 34.1 2.3 16.7-3.2 33-16.5 48.8-15.4 18.4-35.4 25.1-60 20.3 6.7 16.9 6.8 29.5.3 37.9l-33.3 43.5c-4.2 5.3-5.4 11.1-3.7 17.4l-5.7 6.7zm66.8-151.8c11.3-13.5 10.3-25.9-3.2-37.3l-49.5-41.5-37.8 45 48.8 40.9c5.3 4.5 12.3 5.9 21 4.4 8.6-1.5 15.5-5.4 20.7-11.5zm12.7 263.3l-24.7-35.3 123.4-86.4-30-42.8 22.9-16.1c13.6 15.8 24.7 26 33.5 30.6 10.4 5.2 23 6 37.8 2.5l15.7 22.4-178.6 125.1zm194.8 147.4c-75.2 30.4-123 20.4-143.4-29.9-7-17.3-7.7-33.7-2.2-49.4 5.5-15.6 15.9-26.7 31.2-33.3l15.7 38.7c-5.9 1.9-10.1 6.4-12.8 13.5-2.7 7.1-2.6 14 .1 20.8 3 7.4 8.8 13 17.4 16.8 11.5 5.3 24.8 4.9 40.2-1.3 4.8-1.9 9.5-4.3 14.4-7.1-9.2-3.6-15.8-7.2-20-10.8-5.2-4.5-9.6-11.5-13.4-20.8-7.5-18.4-6.7-35.7 2.2-51.9 8.4-15.8 22.6-27.7 42.6-35.8 21.5-8.7 41.3-9.4 59.6-2.2 18.3 7.2 31.4 20.7 39.4 40.4 10.2 25.3 7.5 48.2-8 68.9-13.1 17.2-34.1 31.7-63 43.4zm12.4-50.8c25.5-10.3 34-25.7 25.7-46.4-4.2-10.5-10.8-17.3-19.7-20.5-8.9-3.2-19.2-2.4-30.8 2.2-10.4 4.2-17.9 10.7-22.3 19.5-4.4 8.8-4.8 17.6-1.2 26.6 3.7 9.2 10.2 15.5 19.6 19 9.4 3.7 19 3.5 28.7-.4zm63.8 238.3c-13.4 1.9-23.5 2.1-30.4.5-5.3-1.3-12.7-5-22.1-11.2-9.3-6.1-18.4-13.6-27-22.4-8.7-8.8-17.3-17.4-25.8-25.7s-17-13.8-25.4-16.3l12.9 91.6-38.1 5.3-20.7-147.4c32.7-2.7 56.1 2.8 70 16.5l43.5 42.8c18.2 17.9 35.9 25.6 52.9 23.2 9.7-1.4 17.4-5.3 23-11.9 5.6-6.6 7.8-14.2 6.5-22.9-2.9-20.8-19.1-28.6-48.6-23.2l-5.8-41c26.1-4.5 47-1.2 62.6 9.8 14.7 10.6 23.6 26.9 26.7 49 3.1 21.9-.4 40.6-10.6 56-9.9 15.6-24.5 24.6-43.6 27.3zM1820.2 1184l3-43 150.3 10.5 3.6-52.1 27.9 2c.6 20.8 2.8 35.7 6.7 44.9 4.9 10.6 14.1 19.2 27.8 25.7l-1.9 27.3-217.4-15.3zm-21.6 332.5c-4.6-1.8-8.5-3.8-11.9-5.8l41.3-102.4c-1-.8-2.7-1.8-5.2-2.7-10.1-4.1-19.4-4.3-28.1-.5-8.7 3.7-15 10.5-19.1 20.5-2.7 6.6-3.3 13.5-1.8 20.7 1.6 6.5 4.4 11.4 8.4 14.5l-16.4 40.5a77.5 77.5 0 0 1-24.8-42.7c-3.7-17.1-2.2-33.9 4.5-50.4 7.4-18.5 19.5-31.6 36.1-39.4 20-9.4 42.9-8.9 68.7 1.5 27.7 11.2 46.6 25.9 56.6 44 10.1 18.1 10.5 38.4 1.4 61.1-8.9 22.1-23.4 36.8-43.6 44.4-20.1 7.5-42.2 6.4-66.1-3.3zm31.6-36.3c21.9 7.5 36.7 1.9 44.3-16.9 7.7-19 1.2-33.9-19.4-44.7l-24.9 61.6zm-146.7 62.4l24.5-39.1 38 23.8-24.4 39.1zm26.2 316l-111.9-208.7 27.1-29 215.7 97.4-31.7 33.9-157.2-78.9 89.9 151.1zm-217.2-116.2l36.3-28.4 27.7 35.4-36.3 28.3zM681.8 907.1h195.3v62.8H751.6v97.1h105.1v61.9H750.8v131.3h-70.6z"/><path class="st1" d="M681.8 907.1h195.3v62.8H751.6v97.1h105.1v61.9H750.8v131.3h-70.6z"/><path class="st0" d="M1228.6 917.9h78.3l54.8 217.6h12l49.5-213.8h76l-107.8 336.2h-60z"/><path class="st1" d="M1228.6 917.9h78.3l54.8 217.6h12l49.5-213.8h76l-107.8 336.2h-60z"/><path class="st0" d="M887.9 929.8l260.8 347c10.8 15.5 18.5 34 17.7 53.9-2.7 70-44.1 102.8-104.6 102.8-58.4 0-108.2-45.3-111.6-97.4h-90c-.1 113.9 90.9 180 198 180 109.6 0 194.8-77.6 197-187.6.6-29.6-9.5-57.1-21.4-82.2L972.2 902.1c-10.7-15.5-17.5-34-17.7-53.9-.9-69.3 44.1-102.8 104.6-102.8 58.4 0 108.2 45.3 111.6 97.4h90c.1-114-90.9-180-198-180-109.6 0-193.5 57.7-192.6 186.4 0 29.5 5.8 55.5 17.8 80.6z"/><path class="st5" d="M887.9 929.8l260.7 347m0 0c10.8 15.5 18.5 34 17.7 53.9-2.7 70-44.1 102.8-104.6 102.8-58.4 0-108.2-45.3-111.6-97.4m.1 0h-90.1"/><path class="st5" d="M860.1 1336.1c-.1 113.9 90.9 180 198 180 109.6 0 194.8-77.6 197-187.6.6-29.6-9.5-57.1-21.4-82.2m.1.1L972.2 902.1m0 0c-10.7-15.5-17.5-34-17.7-53.9-.9-69.3 44.1-102.8 104.6-102.8 58.4 0 108.2 45.3 111.6 97.4m-.1-.1h90"/><path class="st5" d="M1260.6 842.7c.1-114-90.9-180-198-180-109.6 0-193.5 57.7-192.6 186.4.1 29.6 5.9 55.6 17.9 80.7"/><path fill="none" stroke="#1a161a" stroke-width="4.46" stroke-linejoin="round" d="M424.2 1266.9H655"/><path class="st3" d="M637.4 979.2c52.3-200.3 234.3-348.1 451-348.1 204.6 0 378.4 131.8 441.1 315.1l1.4 2h220.8c-68.3-303.6-340.4-530.4-665.6-530.4-376.8 0-682.2 304.3-682.2 679.8 0 39.4 3.5 78 9.9 115.6v-2l2 6.5H661V981.4l-23.6-2.2z"/><path class="st7" d="M637.4 979.2c52.3-200.3 234.3-348.1 451-348.1 204.6 0 378.4 131.8 441.1 315.1m.1 0l1.3 2h220.8"/><path class="st7" d="M1751.7 948.2c-68.3-303.6-340.4-530.4-665.6-530.4-376.8 0-682.2 304.3-682.2 679.8 0 39.4 3.5 78 9.9 115.6"/><path class="st7" d="M413.8 1213.2v-2.1l1.9 6.5h245.2V981.4l-23.5-2.2"/><path class="st3" d="M424.7 1264.8c74.7 294.6 342.5 512.6 661.4 512.6 376.8 0 682.1-304.3 682.1-679.8 0-34-2.1-67.4-6.9-100.1h-269.7l-71.8 234.7 114.9 2.2.8-4.3c-57.2 192.7-235.8 333.3-447 333.3-197.7 0-366.8-123.1-434.5-296.9l-229.3-1.7z"/><path class="st7" d="M424.7 1264.8c74.7 294.6 342.5 512.6 661.4 512.6 376.8 0 682.1-304.3 682.1-679.8 0-34-2.1-67.4-6.9-100.1"/><path class="st7" d="M1761.3 997.5h-269.7l-71.8 234.7 114.8 2.2.8-4.3"/><path class="st7" d="M1535.4 1230.1c-57.2 192.7-235.8 333.3-447 333.3-197.7 0-366.8-123.1-434.5-296.9m.1 0l-229.3-1.7"/><path class="st3" d="M768.4 987.9h130.3l171.3 228.4H761.1V1143h111.2v-84.8H766.9z"/><path class="st4" d="M768.4 987.9h130.3l171.3 228.4H761.1V1143h111.2v-84.8H766.9z"/><path class="st0" d="M385.1 1704.2l80.1 77.3 35.4-36.7-70.6-68.1 26.8-27.7 70.5 68.1 66.8-69.2 33.2 32-155.7 161.3-113.2-109.4zm-33.9-271.4c20.1-12 39.8-14.3 59.2-6.7 19.4 7.6 36.7 24.2 52 49.6 13.9 23 19.2 44.6 16.2 64.5-3 20-13.9 37-32.4 51.1l-23-38.3c19.1-15.3 20.8-35.9 5.2-61.7-7.2-12-15.2-20.2-23.9-24.6-8.8-4.4-17-4.3-24.8.3-14.3 8.6-17.7 22.8-10.3 42.7l19.3 52.3c5.2 14.3 5.8 28.2 1.7 41.7-4.1 13.4-12.2 23.8-24.3 31.1-18.8 11.3-37.4 13.7-55.9 7.2-18.5-6.5-34.5-21-48-43.4-14.6-24.2-20.5-46.3-17.9-66.2 2.7-19.9 13.8-35.6 33.6-47.3l22.2 36.9c-9 6.1-14 14.6-15 25.3-.9 10.8 2.2 22.1 9.3 34 13.6 22.5 28.6 28.8 45.1 18.8 10.7-6.4 13-18.2 7-35.4l-15.9-45.6c-7.2-20.8-9.9-37.1-8-49.1 2.6-14.9 12.1-27.3 28.6-37.2zm-215.7-184l235.9 19.7 9.6 38.5-199.1 128-11.3-45.1 151.9-88.9-175.7-6.9z"/></svg>