<svg version="1.1" xmlns="http://www.w3.org/2000/svg" viewBox="0 0 36 32"><path fill="#000" d="M28.14 3.49h8.18l-3.89 5.26A16 16 0 0 1 8.18 28.51H0l3.9-5.28a15.93 15.93 0 0 1 .37-15.18l.1-.15.08-.14a16 16 0 0 1 23.69-4.27zM4.27 8.05a14.17 14.17 0 0 1 .1-.15l-.1.15z"/><path fill="#fff" d="M3.27 16A14.84 14.84 0 0 1 5.5 8.16 14.88 14.88 0 0 1 27.74 4.6h6.4l-3.01 4.07A14.9 14.9 0 0 1 8.58 27.4h-6.4l3.01-4.07A14.83 14.83 0 0 1 3.27 16z"/><path fill="#000" d="M30.07 22.98c-1.86 3.15-5.92 4.2-9.07 2.35s-4.37-6.29-1.57-10.13l7.04-9.5h5.5l-5.62 7.6a6.62 6.62 0 0 1 3.72 9.68zm-3.5-3.3a2.2 2.2 0 1 0-4.4 0 2.2 2.2 0 0 0 4.4 0z"/><path fill="#179d33" d="M30.4 9.64l-2.38 3.24.23.12a7.7 7.7 0 0 1 3.58 4.86 14.02 14.02 0 0 0-1.42-8.22zM4.48 14.27a13.73 13.73 0 0 0 1.44 8.08l2.35-3.2a7.7 7.7 0 0 1-3.79-4.89z"/><path fill="#000" d="M6.26 9.02c1.86-3.15 5.92-4.2 9.07-2.35s4.37 6.29 1.57 10.13l-7.04 9.5h-5.5l5.62-7.6a6.63 6.63 0 0 1-3.72-9.68zm3.5 3.3a2.2 2.2 0 1 0 4.4 0 2.2 2.2 0 0 0-4.4 0z"/><path fill="#179d33" d="M18.16 2.2c2.88 0 5.55.89 7.76 2.4l-4.16 5.58-2.22 3a7.7 7.7 0 0 0-3.65-7.46 7.7 7.7 0 0 0-5.94-.8c2.3-1.7 5.14-2.71 8.22-2.71zm.01 27.59a13.7 13.7 0 0 1-7.76-2.39l4.17-5.58 2.23-3.03a7.75 7.75 0 0 0 3.64 7.48 7.7 7.7 0 0 0 5.94.8 13.73 13.73 0 0 1-8.22 2.72z"/></svg>