<svg xmlns="http://www.w3.org/2000/svg" viewBox="0 0 312 334.7"><style>.st0{fill:#dcb730}.st1{fill:#00a661}.st2{fill:#00a45a}.st3{fill:#00a155}.st10{fill:#ddb82d}.st19{fill:#00a357}</style><path class="st0" d="M272.3 264.3c-4.4 10.8-8.8 21.5-13.1 32.3-1.1 2.8-2.4 2.4-4.5 1.4-7.7-3.6-15.5-6.9-23.1-10.6-2.6-1.2-4.3-1.3-5.6 1.5-.1.2-.2.3-.3.4-2.3 3.3-4 8.1-7 9.3-3 1.1-6.3-3.4-9.5-5.4-1.9-1.2-3-1.2-4.5.7-8.2 10.8-16.6 21.5-24.7 32.4-1.9 2.6-2.9 3.4-5.1.1-6-9.2-12.4-18.1-18.6-27.1.1-1.5-.4-2.6-2-2.8-1.3-1.4-2.5-2.5-4.4-.6-.9.9-2.1 1.6-3.2 2.3-6 4.3-6 4.3-8.3-2.9 0-2.6-.4-4.8-3.4-5.4-.1 0-.3.1-.3.2v.5c-13.9 5.4-28.1 10.3-42.3 14.8-1.4-.2-2.9-.5-3.7 1.2-11.3 5.4-11.3 5.4-11.4-6.7 0-2.5.1-5 .1-7.5 1.4-1.7.9-3.8.9-5.8.1-6.8.1-13.6 0-20.4 0-1.6.6-3.4-1.1-4.6-3.9-2.5-8-.7-11.9-.4-4.3.4-5.6-.9-4.8-5.1.7-3.5 1.4-7.1 1-10.8-4.8-2.5-10.2-2.1-15.4-3-5.8-1-11.7-1.7-17.6-2.2-3.3-.3-6.2-1.3-5-5.8 4-8.8 7.8-17.6 12.1-26.3 1.2-2.4.8-3.5-1.3-4.7-3.2-1.7-6.3-3.7-9.5-5.5-2.1-1.1-2.3-2-.3-3.5 2.4-1.8 4.5-4.1 6.9-5.7 3.2-2.1 2.6-3.6 0-5.9-6.6-6-12.8-12.4-19.4-18.4-2.9-2.6-2.2-3.9.4-6 7.7-6.4 15.2-13 22.7-19.6 1.1-1 2.5-1.7 2.7-3.4-.8-3.8-4.5-5.1-6.6-7.9-1.1-1.4-3-2.5-.7-4.4.1-1.3.8-1.8 2-1.9 1.6-.1 3.1-.2 3.7-2.1 3.3-1.6 3.9-3.6 2.1-7.1-2.9-5.6-5.2-11.5-7.9-17.5 3.5-.6 6.1 1 8.9 1.7 8.5 2.3 17 4.8 25.5 7 2.8.7 4.3 2.1 4.7 4.9.3 1.8.9 3.5 1.4 5.3 2.5 9 2.5 9-4.7 14.4 1.1 2.7 5.2 3.9 4.7 6.5-.4 2.5-4 3.6-6.2 5.3-7.5 6.2-14.8 12.6-22.7 19.4 9.6 5.7 18.7 11.4 28.1 16.7 2.6 1.5 3.3 2.4 1.2 5.1-5.6 7.4-5.5 7.5 3.3 10.8.3.1.5.4.8.6.1 1.1.7 2 1 3-1 4.5-1.8 9.1-3.1 13.5-.7 2.5 0 3.5 2.3 4.4 5.4 2.1 10.7 4.4 16 6.6 1.5.6 4 .9 2 3.5-1.4 1.9-.8 3.9-.3 5.9-.6 3.4.2 4.5 4 3.6 9.5-2.2 9.4-2 11 7.5 1.2 7.3 1.7 14.7 4.1 21.8 3.3.8 6.3-1.2 9.5-1.3-.2-.4-.8-.2-.9-.7 8.3-2.2 16.7-4.3 25-6.6 2.5-.7 3.7.1 4.5 2.4.8 2.3 1.9 4.6 3.2 7.6 1.9-2.3 3.7-4.2 5.2-6.3 1.5-2.1 2.7-2.3 4.8-.5 4.2 3.8 8.7 7.1 12.8 10.9 2.5 2.3 4.3 2.1 6.8.1 4-3.2 8.7-5.5 12.5-8.9 4.1-3.7 6.8-2.3 9.8 1.1 4.3 4.8 4.9 4.8 7.2-1.1 1.6-4.1 3.8-4.2 7.3-2.5 7.2 3.4 14.6 6.5 21.8 9.9 2.6 1.2 3.8 1.1 4.5-2 .9-3.9 2.4-7.6 3.4-11.5.7-2.7 2.1-3.1 4.3-1.9 5.8 3.3 11.5 6.6 17.3 9.9.9 1.4.4 2.7.9 3.8z"/><path class="st1" d="M214.5 86.1c.8 1.3.8 2.8.7 4.3-1.7 1.4-3.8 1-5.8 1h-83.7c-2.2 0-4.8.9-6.2-1.9 6-7.6 12-15.1 18.7-22.2 6 1.4 12.1.3 18.2.6 2.1.1 4.3 0 6.4.1-8.2-.5-16.4.7-24.6-.7 4.1-1.8 8.4-.5 12.6-.8 3.5-.2 7-.3 10.5 0s4.5-1 4.4-4.4c-.2-13.6-.1-27.3 0-40.9 0-1.5-.8-3.3.7-4.7.4.5.5 1.1.5 1.8v45.3c.2-15.4-.3-30.8.3-46.2 7.1-1.1 14.2-.1 21.3-.5 2-.1 4 .5 5.9-.5 2.1 2.4.8 5.3.9 7.9.2 5.8.1 11.6.1 18.7 11.9-15.5 26.6-24.7 45-27.6.6.2-.2.1.4.3.7.3 1.5.1 2.3.3-.6-.3-1.4 0-1.8-.7 12.5-2.9 25-2.8 37.6-.1-.2.5-.6.6-1.1.6.9.1 1.9.3 2.7-.4 4.9.2 9.4 1.9 13.9 3.5 2.4.9 2.2 1.8.8 3.5-4.5 5.2-8.9 10.3-13.1 15.7-1.6 2-3.2 1.7-5.2 1.3-9.7-1.8-19.5-2.4-29.2-.4-19.9 4.1-31.8 18-32.8 38.4l-.3 6c-1 1.6-.3 3.2-.4 4.5-.7-.5-.4-1.2.3-1.8z"/><path class="st1" d="M215.3 91.3c-1.3 2-3.3.9-5 .9-29.4.1-58.9 0-88.3.1-1.8 0-4.1-1-5.5 1.3-1.4 1.4-.6 3.1-.6 4.7-.1 14.3-.2 28.6 0 42.9.1 4-1.3 5.3-5.1 5.2-6.3-.2-12.6-.1-19-.1-2.5 0-4-.7-4-3.7.2-41.6-.1-83.2.2-124.7 0-.7.1.2.1-.5 9.1-1 18.2-.7 27.3-.2.8 1.8.4 3.6.4 5.4 0 21.1 0 42.3.1 63.4 0 1.7-.7 3.7.7 5.3h1.7c2.1-1 4.3-.4 6.4-.4H210c1.7 0 3.5-.5 5.3.4zm23 54.1c-3.2.2-6.2-.9-10.1-2 5.9-7 11.5-13.7 17.1-20.3 1.3-1.6 3.1-.7 4.7-.5 6 1 11.9.5 17.9-.3 2.8-.4 3.9-1.6 3.8-4.6-.2-7.3-.2-14.6 0-22 .1-2.9-1-3.6-3.7-3.6-9.3.1-18.6.1-28 0-.9 0-4.1 1.1-1.7-2 10.3 1.3 20.6.2 29.2.6-7.3 0-16.4.3-25.4-.1-4.3-.2 0-2.9-.6-4.3 4.2-5.1 8.4-10.2 12.6-15.4 1-1.3 2.1-1.9 3.8-1.8l40.4.3c-.2 2.2-1.9 1.4-3 1.4-11.8 0-23.5.1-35.3 0 11.4 0 22.9.1 34.3 0 1.8 0 3.7.6 5-1.4 1.9.9.9 2.7.9 4 .1 20.8.1 41.5.1 62.3 0 2.1.4 4-2.7 4.9-18.9 5.7-38 8.1-57.6 5.5-.6-.1-1.2-.5-1.7-.7.7-.7 1.7-.5 2.6-.6-.9.1-1.9-.2-2.6.6zm-79 96.9c-12.6-1.3-23.5-6.6-33.5-14.1-2.2-1.6-1.5-2.8-.1-4.3 3.8-4.4 7.6-8.8 11.2-13.4 1.7-2.2 2.7-1.8 4.7-.4 10.5 7.2 22 11.7 35 10.3 8.9-1 16.9-3.8 20.5-13.2 1.3-1.4.2-3.2.7-4.8h-.4l-.3.3c-1.3-3.7-3.4-6.9-6.8-8.9-2.4-1.4-2.3-2.7-.6-4.7 4.8-5.5 9.6-11.1 14.1-16.9 1.8-2.2 3-2.2 5.3-.8 23.9 14.4 24.6 48.2 1 63.3-15.4 9.8-32.6 10.6-50.1 7.7 1-1.1 2.3-.3 4-.8-1.8.5-3.4-.3-4.7.7z"/><path class="st1" d="M218.5 113.4c-5.7 6.8-10.9 12.9-16.1 19.2-1.2 1.5-2.5 1.2-4 1-5.8-.8-11.6-1.3-17.4-.1-7.7 1.6-12.1 6.3-11.9 12.5.2 4.9 3.2 8 7.1 10.1 3.4 1.8 3.9 3.3 1.2 6.3-4.6 5.1-9 10.3-13.2 15.7-1.9 2.4-3.3 2.4-5.7.9-11.6-7.2-19.4-16.7-19.4-31.1.1-14.9 7-26 20-32.7 19.2-9.8 38.9-8.2 59.4-1.8z"/><path class="st2" d="M88.3 17.3c0 40.8.1 81.5-.1 122.3 0 4.7 1.3 6.1 5.9 5.8 5.5-.4 11-.3 16.5 0 3.7.2 4.9-1 4.9-4.8-.2-15.5-.1-30.9-.1-46.4 0-.3.1-.7.3-.8.2-.1.5.1.8.2.4 17.6.6 35.2-.1 52.8-9.6.8-19.3.8-28.9 0-.1-1.1-.3-2.3-.3-3.4V20.4c0-1 .1-2 .2-3 .3-.4.6-.4.9-.1zm127 74c-32.4 0-64.7 0-97.1-.1.5-.6.9-1.3 1.4-1.9 1.9 1.3 4.2 1 6.3 1h89.4c-.1.4-.1.7 0 1z"/><path class="st3" d="M116.5 91.3c-2-1.5-1.1-3.7-1.1-5.5-.1-22.8 0-45.6 0-68.4.4-.4.8-.3 1.2 0 .4 24.6.3 49.2-.1 73.9z"/><path d="M23.4 234.3c.3 4.1 3 4.7 6.5 5.1 10.2 1.1 20.3 2.6 30.4 3.9 1.7.2 1.3 1.1 1 2-2.1.3-4.1-.3-6-1.1-1.7-.9-3.7 0-5.4-.8-2.9 0-5.8 0-8.6-1.1-2-1.3-4.4.1-6.4-.9-.9-.1-1.8-.1-2.7-.2-1.7-1-3.6.1-5.3-.8-1.9-.1-4.5.9-5.6-.8-1-1.8 1.1-3.6 2.1-5.3z" fill="#ddb92f"/><path d="M77.2 261.6c.8-1 2-1.2 2 .2.1 9.7.1 19.4 0 29.1 0 .9-.9 1.3-1.8 1.4-.1-10.2-.2-20.5-.2-30.7z" fill="#dcb529"/><path class="st2" d="M299.3 69.4c-.2 1.8-1.5 1.9-2.9 1.9-12.6 0-25.2 0-37.8-1h34.5c1.7 0 3.7.6 5.2-.9h1z"/><path d="M241.5 86.4c-1.1 4.4 1.7 4 4.5 4 8.1-.1 16.2 0 24.2.9h-30.3c-.6 0-1.1-.6-1.6-1 .7-1.6 1.8-2.9 3.2-3.9z" fill="#02a55b"/><path d="M116.5 17.4H87.3c.2-1.5 1.3-1.3 2.2-1.3h24.9c1 0 2.3-.4 2.1 1.3z" fill="#009c50"/><path class="st1" d="M87.4 146.3h28.9c-6.7 2-13.6.5-20.5.8-2.7.1-5.7 1.1-8.4-.8z"/><path d="M194.3 16.3c-3 2-6.4.8-9.6.9-5.8.2-11.6.1-17.4.1-.3.5-.6.5-.9 0-.1-.3-.1-.6-.1-.8 9.4-.8 18.7-.5 28-.2z" fill="#009d50"/><path d="M30.3 123.2c-1.2 2.2.7 3.2 1.8 4.5 2.3 2.5 4.7 5 7 7.5.2.2 0 .9 0 1.3-.5-.4-1-.7-1.5-1.1-2.9-2.9-5.7-5.9-8.7-8.7-2.7-2.6-1.7-3.5 1.4-3.5z" fill="#dcb628"/><path class="st10" d="M121 260.2c.7.1 1.3.1 2 .2-3.4 1.6-6.7 3.6-10.6 2.7-.1 0-.2-.3-.2-.4 0-.1.2-.3.2-.4 2.9-.7 5.8-1.4 8.6-2.1zm13.6 30.3c.3-2.7 2.2-1 2.5-.5 1.2 1.5 3.3 3 1.2 5.3-1.5-1.3-.8-4.4-3.7-4.8z"/><path d="M36 119.1c0 3-1.5 3.2-3.7 2.1 1-1.1 2.3-1.7 3.7-2.1z" fill="#ddb82f"/><path d="M197.2 202.7c.2-.5.9-1.4.9-1.2.2 2.2.2 4.5.2 6.7 0 0-.3.1-.4.1-.2-.4-.4-.7-.6-1.1-.1-1.6-.1-3-.1-4.5z" fill="#00a459"/><path d="M88.6 306.5c.4-2.2 1.1-2.4 3.7-1.2-1.1.8-2.3 1.2-3.7 1.2z" fill="#ddb82c"/><path d="M76.3 195.3c-.3-1-2.8-1.3-1-3 2.4.3 1.8 1.7 1 3z" fill="#dbb421"/><path d="M154.2 296.5c2.5-.2 3 .5 2 2.8-.6-.9-1.3-1.8-2-2.8z" fill="#ddb72c"/><path d="M214.5 86.1l-.3 2.2c-.9-1.8-1.3-3.4.1-5 .1 1 .1 1.9.2 2.8z" fill="#00a255"/><path d="M159.3 242.3c1.5-1.7 3.3-.7 5-.2l-4.2.3-.4.1-.4-.2z" fill="#00a257"/><path d="M93.2 229.3c-1.3-2.1-1.6-4.1.3-5.9 0 1.9-.2 3.9-.3 5.9z" fill="#dbb422"/><path class="st0" d="M35 241.4c2.2.2 4.5-1 6.4.9-2.2 0-4.4.2-6.4-.9z"/><path class="st19" d="M241.1 15.2c1.1.1 2.1.2 3.9.4-2.2 1-3.6 1-4.7-.3.3-.2.5-.2.8-.1z"/><path class="st0" d="M27 240.4c1.8.1 3.7-.7 5.3.8-1.8.1-3.6.2-5.3-.8zm22.9 3c1.8.1 3.8-.8 5.4.8-1.8.1-3.7.3-5.4-.8z"/><path d="M272.3 264.3c-1.2-.9-.9-2.2-.9-3.4 2.4.7 2.1 1.9.9 3.4z" fill="#dbb31f"/><path class="st19" d="M280.3 15.4c-1.1 1.3-2.5 1.1-4 .6.6-1.1 1.7-.5 2.4-.9l1.6.3z"/><path class="st3" d="M166.5 17.3h.9v47.8h-.9V17.3z"/><path class="st2" d="M138.2 67.2H164c-8.6.4-17.2 2.5-25.8 0z"/><path class="st3" d="M272.6 120.1V93.4h.5v26.7h-.5z"/><path d="M238.3 145.4c1.2-1.4 2.6-1.4 4.7-.3-2 .1-3.4.2-4.7.3-.1 0 0 0 0 0z" fill="#00a256"/></svg>