<svg version="1.1" xmlns="http://www.w3.org/2000/svg" viewBox="0 0 35 32"><path fill="#000" d="M2.7.45c0 .1.06.21.17.27C7.84-.67 12.55.2 17.1 1.3c2.32.19 4.83-.56 7.2-.7 2.05 0 4.12-.22 6.05.32.82.77 1.09 1.9 1.52 2.93.77 2.18 1.37 4.71.78 6.9.05.26.38.33.5.55 1.8 2.47 1.45 5.94 1.07 8.69-.16.72-.23 1.45-.49 2.14-3.99-2.66-9.14-2.63-13.69-.65-2.95.64-5.4-1.13-8.27-.86-1.36.34-3.07.33-4.01 1.37l1.11 4.14c1.23.5 2.95.56 3.61 1.97.24.87.25 1.67.12 2.46-.13.24-.45.3-.7.29-.84-.7.2-2.07-.87-2.73-.53-.37-1.1-.5-1.68-.54a23.9 23.9 0 0 0 1.01 4c-.05.23-.26.36-.46.41a.82.82 0 0 1-.68-.18l-1.2-4.57c-.96-.35-2.14-1-2.65-1.92-.58-1.5.18-2.82 1.07-4.03L1.52 2.71C1 2.59.22 2.5.06 1.86-.09 1.33.04.82.46.49 1.14.18 2.1-.11 2.7.45z"/><path fill="#fff" d="M7.08 18.9l-1.74-6.52-2.15-8.15-.1-.4c2.52 4.22 3.8 9.92 3.98 15.06zm.44 6.75c-.47-.23-1.07-.56-1.17-1.11-.05-.55.13-1.04.44-1.5l.73 2.61z"/><path fill="#005ca9" d="M17.2 2.46c3.6-.1 7.34-.9 10.87-.7l1.33.1c1.4 2.24 2.4 5.42 2 8.13a24.9 24.9 0 0 0-11.2.97c-2.35.26-4.4-.85-6.67-.9-2.02.05-4.17-.04-6.15.72-.87-3.04-1.84-6.03-3.71-8.4l-.48-.42c4.85-1.6 9.5-.39 14.01.5z"/><path fill="#fff" d="M18.45 12.28c3.15.24 6.53-1.32 9.7-1.25 1.52.2 3.44-.11 4.34 1.51 1.14 2.54.7 5.2.4 7.66-3.9-1.83-8.62-1.73-12.78 0-3.22.75-5.88-1.3-9.07-.7-.96.12-1.89.46-2.8.74.33-2.6-.21-5.37-.68-8.13 3.74-1.15 7.45-.79 10.9.16z"/><path fill="#005ca9" d="M23.37 14.15c.15 1.46.8 2.76.94 4.23-.08.2-.36.17-.52.13-.59-.18-1.1.67-1.63.12-.4-.56-.6-1.39-.36-2.04.26-.58 1.2-.76.93-1.5-.16-.08-.38-.18-.56-.03-.24.18.01.47-.18.66-.15.1-.47.15-.52-.05-.06-.64-.07-1.44.59-1.77.48-.06.97-.16 1.31.25zm8.4-1.83c.13.52.6 1.2.18 1.66-.64.14-.31-.96-1-.74-.6 1.05-.15 2.63.41 3.6.1.13.26.2.37.3.26-.01.3-.3.38-.48a.4.4 0 0 1 .05-.36c.19-.03.4 0 .5.17.18.82.32 1.8-.43 2.42-.94.2-1.24-.84-1.65-1.42-.7-1.6-1.1-3.68-.4-5.26.22-.23.55-.45.89-.34.25.12.56.2.7.45zm-3.08-.3c.33.41.58.97.46 1.52a.53.53 0 0 1-.4.19c-.31-.22-.27-1-.8-.74a.48.48 0 0 0-.16.19c.32 1.84 2.77 2.57 2.2 4.68-.27.48-.8.65-1.33.66-.3-.11-.55-.3-.77-.53-.14-.45-.32-1.03.08-1.39.85-.31.36 1.42 1.2.72-.18-1.9-2.79-2.69-2.11-4.83.32-.57 1.09-.56 1.63-.47zm-2.31.25a4 4 0 0 1 .08 2.43c.5.1.82.54 1.02.98.1.88-.02 1.75-.61 2.48-.6.16-1.31.35-1.82.15-.4-1.75-.26-3.58-1-5.24-.12-.24-.1-.54-.07-.8.78.12 1.78-.81 2.4 0zm-10.99 1.7a.68.68 0 0 1 .44-.2c.33.13.34.52.35.8-.52.56.88 1.32-.17 1.57-.4-.36.17-1.24-.63-1.22-.57 1.4.81 2.6.55 4.02-.2.2-.5-.02-.67-.18-.52-1.14-.38-2.55-.91-3.67-.07-.41-.22-.88.13-1.17.35-.14.61.55.9.05zm3.62-1.17c.38.5.23 1.19.44 1.8.4.16.9-.17 1.28.1.35 1.4.55 2.96.92 4.31-.1.23-.38.19-.56.19-.74-.7-.53-1.91-.8-2.87.02-.32-.08-.64-.28-.85-.16-.07-.26.13-.35.26.1 1.21.85 2.56.44 3.69-.12.04-.24.1-.4.12l-.23-.15-1.17-6.23c.04-.19.04-.43.25-.52.18-.04.36 0 .46.15zm-5.73.6c.75.67.85 1.93.7 2.86-.18.33-.82.04-.88.51.08.38.14.8.51.93.42-.2-.12-1.38.69-.83.25.5.14 1.04.03 1.51-.25.22-.62.32-.97.3-.72-.15-.66-.96-.92-1.5a16.46 16.46 0 0 1-.3-3.37c.05-.14.11-.3.24-.39.3-.07.62-.13.9-.02zm3.81-.78c.28.4.32.96.48 1.45.24.4.92.34.78.95.02.35-.5.34-.58.65 0 1.2.33 2.49 1.05 3.38.01.23.34.5.05.7-.3-.01-.63.12-.9-.02-.9-1.13-.77-2.87-1.06-4.29-.28-.17-.73-.27-.58-.7.1-.27.4-.23.49-.5.04-.56-.4-1.2-.06-1.72.13-.04.28-.02.33.1zm-7.83-.08l.32 1.62c.2.1.45.2.66.02.27-.56-.15-1.26-.12-1.89.19-.28.56-.14.86-.22l.11.18c.44 2.1.76 4.17 1.14 6.26-.13.18-.4.13-.59.2l-.32-.22c-.21-1.1-.47-2.18-.72-3.26-.17-.25-.5-.05-.7 0l-.21.32.62 3.22c-.17.28-.53.14-.78.2l-.27-.53c-.31-1.96-.95-3.88-1-5.79.27-.18.71-.43 1-.11z"/><path fill="#fff" d="M13.22 14.67c0 .23.03.45-.04.68-.31-.2-.1-.6-.13-.85l.17.17zm12.32-1.64c.1.5.33 1.15-.12 1.54-.36-.34-.3-.97-.28-1.43.07-.15.28-.14.4-.11zm.78 2.55c.2.52.27 1.13-.18 1.54a.4.4 0 0 1-.35-.06c-.08-.54-.4-1.23.16-1.6.14-.05.26.04.37.12zm-3.18 1.85l-.22.32c-.27-.03-.2-.4-.23-.6.1-.18.08-.42.29-.56.32.16.05.54.16.83z"/></svg>