<svg xmlns="http://www.w3.org/2000/svg" version="1" viewBox="0 0 300 300"><path d="M149.97 300C232.84 300 300 232.83 300 150S232.84 0 149.97 0C67.16 0 0 67.17 0 150s67.16 150 149.97 150" fill="#0f5787"/><path d="M14.07 150c0-74.94 60.97-135.93 135.9-135.93 74.99 0 135.96 60.99 135.96 135.93s-60.97 135.93-135.96 135.93c-74.93 0-135.9-60.99-135.9-135.93zm-4 0c0 77.18 62.74 140 139.9 140 77.22 0 139.96-62.82 139.96-140S227.2 10 149.97 10c-77.16 0-139.9 62.82-139.9 140" fill="#fff"/><path d="M78.22 150c0-39.56 32.2-71.76 71.75-71.76 39.61 0 71.8 32.2 71.8 71.76s-32.19 71.76-71.8 71.76c-39.55 0-71.75-32.2-71.75-71.76zm-4.06 0c0 41.8 34.02 75.82 75.81 75.82 41.85 0 75.87-34.02 75.87-75.82 0-41.8-34.02-75.82-75.87-75.82-41.79 0-75.8 34.02-75.8 75.82m-45.68 44.21l-1.77-8 16.42-3.71v-.06l-18.12-3.83-1.95-8.65 19.96 4.88 21.42-15.36 2 9.06-14.3 9.72 4.53 1.23 11.65-2.65 1.77 8.07-41.61 9.3m-6.77-33.08l-.65-8.19 42.56-3.12.58 8.19-42.5 3.12m-.52-17.73l2.3-20.07 8.06.89-1.36 11.95 8.48 1 1.3-11.25 8 .94-1.24 11.19 9.66 1.12 1.3-11.72 8.05.94-2.23 19.9-42.32-4.88m5.94-33.09l3.24-7.6 31.78 13.49 4.36-10.24 7.47 3.17-7.53 17.78-39.32-16.6M39.9 82.95L51.63 66.4l6.6 4.7-6.95 9.78 7 4.94 6.47-9.18 6.66 4.7-6.54 9.2 8 5.58 6.9-9.6 6.64 4.66-11.7 16.36-34.8-24.6m38.37-17.59l2-1.6c2.6-2.05 1.36-5-.17-6.94-2.06-2.53-4.12-3.6-6.71-1.59l-1.95 1.59 6.83 8.54zm-17.66-8.9L71.4 47.8c5.47-4.35 10.65-1.76 14.3 2.83 3.88 4.88 4.18 8.53 1.88 11.77l.06.12c4.65-2.6 7.36.35 11.07 4.77 5.35 6.53 6.06 7 7.35 6.77l.36.41L99.47 80c-1.41-.76-3.06-2.47-6.12-6.24-4.6-5.77-6.18-6.47-8.24-4.82l-2.47 1.94 11 13.77-6.41 5.13-26.6-33.32m52.5 1.82l.58 1.35c1.24 3 2.89 4.95 5.54 3.83s2.35-3.88 1.4-6.12c-3.64-8.48-15.41 2.18-21.65-12.48-2.7-6.3-2.24-12.72 5.6-16.07 7.52-3.24 12.23.3 14.82 6.36l.42.94-7.3 3.12c-.83-1.89-1.6-3.18-2.42-3.89-.82-.7-1.76-.88-2.88-.35-1.88.76-2.41 2.65-1.18 5.47 3.48 8.19 15.54-1.82 21.43 12.01 3.82 8.9 1.3 14.19-5.65 17.2-5.48 2.29-11.42 2.47-14.95-5.72l-1.06-2.53 7.3-3.12m12.65-35.14l8.71-1.36 9.18 31.9h.12l-.94-33.2 8.77-1.35-1.35 43.33-10.3 1.65-14.19-40.97m45.73-.77l7.95 2.06-4 15.48 6.35 1.65 4-15.42 7.95 2.06L183 69.47l-7.95-2.06 4.6-17.67-6.36-1.64-4.6 17.6-7.94-2.06 10.77-41.27m24.01 47.57c2.88 1.59 5.18-1.42 10.94-11.6 5.77-10.13 7.24-13.66 4.36-15.3-2.83-1.6-5.12 1.4-10.95 11.6-5.77 10.18-7.18 13.65-4.35 15.3zm-3.3 5.83c-9.42-5.36-6.41-13.6.3-25.38 6.7-11.77 12.24-18.48 21.65-13.13 10.13 5.77 5.54 15.08-.29 25.32-5.89 10.24-11.54 18.95-21.66 13.19m39.2-26.03l6 5.6-23.54 25.25 8.42 7.66-5.54 5.94-14.42-13.3 29.08-31.15m.24 43.75l-1.24.76c-2.7 1.77-4.36 3.7-2.88 6.06 1.58 2.48 4.23 1.77 6.3.42 7.76-4.89-4.66-14.84 8.76-23.43 5.77-3.65 12.19-4.18 16.78 2.94 4.41 6.95 1.7 12.13-3.83 15.66l-.88.59-4.24-6.71c1.7-1.12 2.83-2.06 3.42-3 .58-.95.52-1.89-.12-2.9-1.12-1.76-3-2-5.6-.29-7.53 4.77 4.36 15.02-8.35 23.14-8.18 5.18-13.77 3.6-17.84-2.77-3.23-5.06-4.35-10.89 3.18-15.66l2.3-1.53 4.24 6.72m30.43 11.53l-2.48-6.88 7.65-2.71 7.66 21.6-7.66 2.71-2.47-6.95-32.55 11.48-2.7-7.7 32.55-11.55m14.71 19.96l1.59 20.13-8.12.65-.95-11.95-8.47.65.82 11.24-8.06.6-.88-11.2-9.71.71.94 12.07-8.07.65-1.59-20.25 42.5-3.3m2.06 28.72l-.65 8.25-42.5-3.41.65-8.25 42.5 3.42m-1.94 20.49l-2.47 9.12-28.5-.77-.05.12 26.72 7.24-2 7.42-41.14-11.18 2.41-9.01 30.25.76.06-.05-28.37-7.72 1.95-7.12 41.14 11.19M61.1 202.57a6.7 6.7 0 0 1-2.3 9.13 6.75 6.75 0 0 1-9.12-2.36 6.61 6.61 0 0 1 2.35-9.07 6.6 6.6 0 0 1 9.06 2.3m186.88-2.3a6.56 6.56 0 0 1 2.35 9.07 6.75 6.75 0 0 1-9.12 2.36 6.7 6.7 0 0 1-2.3-9.13 6.6 6.6 0 0 1 9.07-2.3M157.1 56.8a3.88 3.88 0 0 1 1.05 4.78c-.88 1.59-2.7 2.18-4.18 1.18-1.41-.95-1.88-3.07-1.06-4.71.83-1.65 2.71-2.18 4.18-1.24m-21.07 2.12c1.41.94 1.88 3.06 1.06 4.7-.82 1.66-2.7 2.19-4.18 1.24-1.41-1-1.88-3.12-1.06-4.76.89-1.6 2.77-2.18 4.18-1.18M78.34 201.1l6.42 6.06-19.54 26.85.05.06 25.67-21.08 6.41 6-35.02 25.61-7.65-7.18 23.66-36.32" fill="#fff"/><path d="M86.58 255.85c2.88 1.7 5.24-1.3 11.24-11.3 6-10.01 7.54-13.55 4.71-15.25-2.82-1.65-5.18 1.35-11.18 11.36-6 10-7.54 13.54-4.77 15.19zm-3.41 5.77c-9.3-5.6-6.12-13.72.88-25.32 7-11.65 12.65-18.25 21.95-12.71 10.01 6 5.24 15.19-.88 25.31-6.06 10.19-11.95 18.72-21.95 12.72m33.43-30.79l9.18 2.35-.41 28.55h.06l7-26.84 7.36 1.94-10.71 41.27-9-2.3.4-30.25-.06-.06-7.35 28.49-7.18-1.88 10.7-41.27m39.33 18.72l-6.66.41-.4-6.3 1.05-.06c6.18-.4 7.42-4.41 7.6-7.12l5.82-.41 2.65 42.2-8.24.54-1.82-29.26m27.72-3.89c-1.53-4.7-3.06-7.47-5.36-6.7-2.24.7-2.06 3.52-.65 7.88 1.6 4.89 2.77 6.95 5.24 6.18 2.3-.76 1.94-3.7.77-7.36zm-1.83 19.25c.3 1.12.65 2.18 1.3 2.89a2 2 0 0 0 2.23.76c2.65-.64 2.71-3.41.42-12.42h-.12c-.41 2.77-2.18 4.42-5.06 5.12-5.12 1.3-8.95-1.47-11.3-10.65-2.06-8.13-1.65-15.48 7.18-17.72 9.94-2.6 13.12 4.83 16.18 17.07 3.53 13.66 4.77 22.02-6.06 24.84-6 1.53-10.48-.58-12.42-7.94l7.65-1.95m32.43-9.18c2.42-1.35 1.24-4.36-4.35-14.9-5.71-10.65-7.6-13.3-10.07-11.94-2.47 1.3-1.3 4.3 4.42 14.95 5.65 10.54 7.53 13.19 10 11.89zm3.18 5.47c-9.06 5.07-13.83-1.4-20.42-13.3-5.89-10.6-9.6-19.37-.53-24.37 9.06-5.06 13.83 1.35 20.42 13.24 5.89 10.66 9.6 19.37.53 24.43m21.96-25.66c2-1.95.05-4.54-8.3-13.07-8.36-8.71-10.9-10.77-12.9-8.77-2 1.88-.05 4.47 8.36 13.18 8.3 8.54 10.83 10.6 12.84 8.66zm4.65 4.35c-7.36 7.36-13.72 2.48-23.37-7.12-8.54-8.6-14.54-15.95-7.24-23.31 7.36-7.36 13.71-2.47 23.37 7.12 8.53 8.6 14.48 16.01 7.24 23.31M203.88 101.9s3.18 29.32-8.59 59.17c-12 30.37-39.08 61.4-45.32 61.4-6.24 0-33.25-31.03-45.26-61.4-11.77-29.85-8.6-59.17-8.6-59.17h107.77" fill="#fff"/><path d="M100.59 105.32c-.35 10.36-.06 32.14 8.53 53.98 11.3 28.55 34.85 54.93 40.85 58.16 6.06-3.23 29.6-29.6 40.9-58.16 8.6-21.84 8.9-43.62 8.54-53.98H100.6" fill="#cc3043"/><path d="M158.62 204.22c-3.59 4.18-6.59 7.18-8.65 8.83a83.9 83.9 0 0 1-8.6-8.83l3.07-14.48-14.36.3 9.18-12.9-17.84-.83 11.48-14.3-19.24-.06 12.89-15.07-18.25.41 11.06-17.01-14.71-7.6c-.41-4.76-.59-9.24-.53-12.77h15.48l7.6 11.3 7.64-11.36 7.6 11.36 7.53-11.36 7.65 11.36 7.6-11.36 7.59 11.36 7.59-11.3h15.48c.06 3.53-.12 8-.53 12.77l-14.71 7.6 11.06 17.01-18.25-.41 12.9 15.07-19.25.06 11.48 14.3-17.84.83 9.18 12.9-14.36-.3 3.06 14.48" fill="#fff"/><path d="M130.08 133.75c.17 3.53 3.59 6.3 6.53 7.6l.06-3.54h2.35c-.06.06 0 4.6 0 4.6l3.95 1.17v2.83c-5.18-1-10-3.47-14.01-7.71.7 7.65 5.59 15.54 13.06 18.84 5.83 2.76 13.95 2.11 19.13-1.71a23.7 23.7 0 0 0 10.01-17.13 27.06 27.06 0 0 1-14.07 7.77v-2.89c1.3-.3 2.53-.76 3.83-1.12l.06-4.65h2.35v3.48c1.94-.7 4-2.24 5.48-4.18.58-1 1.05-2 1.05-3.24l2.95-.12c.64 9.72-3.3 18.43-11.48 23.96-5.36 3.48-13.54 4.42-19.48 1.6-9.89-4.42-15.3-14.84-14.66-25.56h2.89" fill="#211d1e"/><path d="M136.85 146.23v3.42c-1.24-.42-2.48-1.47-3.65-2.18-1-1.6-1.6-3.36-2.12-5.06a29.71 29.71 0 0 0 5.77 3.82m30.07 1.24l-3.7 2.24-.07-3.36c1.95-1.06 4-2.24 5.77-3.94a25.82 25.82 0 0 1-2 5.06m-11.89-3.65l.12 2.94c-3.3.53-6.89.53-10.18 0v-2.94c3.18.41 6.88.41 10.06 0m-6 5l.06 3.42a28.25 28.25 0 0 1-10.24-1.89v-3.41c3.23 1 6.47 1.94 10.18 1.88m12.12 1.53c-3.17 1.3-6.59 1.77-10.18 2.06v-3.47c3.6-.18 6.89-.94 10.07-2l.11 3.41m-18.18 2.95v2.88a20.17 20.17 0 0 1-7.48-5.65c2.3 1.53 4.95 1.94 7.48 2.77m14.24 2.88l-.12-2.88c2.53-.71 5.12-1.36 7.42-2.77-2.18 2.41-4.6 4.47-7.3 5.65m-2.06-2.48v3.25c-3.12.94-6.95.82-10.06.06l-.12-3.3c3.3.3 6.94.65 10.18 0" fill="#211d1e"/></svg>