<svg xmlns="http://www.w3.org/2000/svg" viewBox="0 0 1290.36 1515.72"><path d="M614.53 1443.97c-131.06-7.43-249.31-54.14-351.03-138.64-16.67-13.84-57.76-54.98-71.77-71.84-73.9-88.93-119.83-193.5-134.08-305.23-4.6-36.13-4.53-28.94-4.93-451.1l-.4-405.92h1185.72l-.4 405.92c-.28 293.53-.73 409.89-1.6 420.27-10.79 126.67-56.67 238.9-137.4 336.06-14.02 16.86-55.11 58-71.77 71.84-97.44 80.94-210.08 127.2-334.9 137.52-18.83 1.56-59.4 2.15-77.44 1.12z" fill="#fff"/><path d="M616.35 1403.13c-123.25-7-234.46-50.92-330.13-130.4-15.67-13.01-54.32-51.7-67.5-67.55-69.5-83.64-112.7-181.99-126.09-287.06-4.33-33.98-4.26-27.22-4.64-424.25l-.37-381.75h1115.12l-.37 381.75c-.26 276.06-.68 385.49-1.51 395.25-10.14 119.13-53.3 224.68-129.22 316.06-13.18 15.85-51.83 54.54-67.5 67.56-91.63 76.12-197.57 119.62-314.96 129.33-17.7 1.46-55.87 2.02-72.83 1.06zm57.83-38.52c64.43-2.69 134.61-20.73 196-50.4 52.49-25.37 95.72-55.8 137.88-97.08 86.81-84.99 140.15-194.63 153.02-314.51 3.43-32.02 3.73-67.92 3.41-413l-.3-339h-1038v356c0 270.72.28 360.32 1.22 374.03 4.76 70.06 21.48 132.46 52.22 194.97 26.7 54.28 58.9 98.65 102.67 141.5 20 19.6 30.96 29.01 52.88 45.5 82.92 62.33 184.26 98.32 288.5 102.44 18.07.71 23.83.66 50.5-.45zm-53.5-107.1c-42.44-3.74-71.53-9.47-104.5-20.56-34.67-11.67-62.93-25.68-95.5-47.33-21.97-14.6-39.87-29.32-59.57-48.97-35.85-35.75-58.67-67.75-80.32-112.63-21.4-44.36-33.3-87.48-38.5-139.65l-.52-5.25h137.6l1.2 8.75a306 306 0 0 0 3.73 20.1c27.1 121.9 135.9 209.13 260.88 209.13a266.55 266.55 0 0 0 188.04-77.48c41.47-41.1 66.9-91.11 76.76-150.93l2.15-13.07.3-242.75.3-242.75H377.67v71h-137v-208h809.04l-.34 313.75c-.26 237.46-.63 316.06-1.55 323.25-3.96 31.16-9.11 55.77-16.76 80-28.18 89.32-85.17 165.05-162.89 216.46-24.53 16.23-39.98 24.63-65.18 35.4-34.76 14.87-73.85 25.14-112.82 29.63-13.24 1.52-59.46 2.8-69.5 1.9zm-47.5-220.8c-3.3-1.27-10.16-4.4-15.24-6.96-54.02-27.14-91.14-74.92-104.24-134.18-1.93-8.76-1.98-13.47-2-219.2l-.02-210.25h113.95c96.67 0 115.72.23 125.65 1.53 49.33 6.47 89.6 28.16 116.9 62.97 16.7 21.3 27.34 46.21 32.66 76.5 2.06 11.73 1.77 43.53-.49 53.82-7.38 33.56-27.71 69.9-51.86 92.72-17.36 16.39-33.27 25.66-52.02 30.3l-6.72 1.67 48.97 73.81c26.93 40.6 48.96 74.24 48.96 74.76 0 2.05-10.11 20.9-16.04 29.92a195.76 195.76 0 0 1-66.64 62.7c-5.94 3.42-11.08 5.9-11.41 5.5-.34-.38-34.76-54.47-76.5-120.19l-75.9-119.48-.26 123.23c-.14 67.78-.6 123.22-1 123.2-.41-.04-3.45-1.1-6.75-2.37zm90.47-330.67c19.27-4.44 36.42-22.75 43.03-45.95 1.17-4.1 2.38-11.97 2.69-17.47 2.1-37.73-20.46-69.85-51.69-73.55-4.67-.56-23.57-.88-42-.73l-33.5.28-.26 69.25-.25 69.25 38.75-.02c22.95-.02 40.58-.45 43.23-1.06z" fill="red"/></svg>