<svg version="1.1" xmlns="http://www.w3.org/2000/svg" viewBox="0 0 32 32"><path fill="#003798" d="M31.25 16a15.25 15.25 0 1 1-30.5 0 15.25 15.25 0 0 1 30.5 0z"/><path fill="none" stroke="#fff" stroke-width=".6" stroke-miterlimit="4" stroke-linecap="butt" stroke-linejoin="miter" d="M30 16a14 14 0 1 1-28 0 14 14 0 0 1 28 0z"/><path fill="none" stroke="#fff" stroke-width="2.4" stroke-miterlimit="4" stroke-linecap="butt" stroke-linejoin="miter" d="M9.53 8.57v16.67M13.77 8.3l-2.6 7.63 2.6 8.37m4.4-16.71c-2.9 5.37-2.1 6.26-1.44 7.8s1.94 2.03-.06 8.5m7.5-15.47l-1.94.27c-.58.09-1.06.72-1.06 1.42v9.9c0 .66.47 1.13 1.06 1.05l2.17-.3m-.23-12.14L23 8.8c-1.01.14-1.83 1.13-1.83 2.22v8.17c0 1.06.82 1.81 1.83 1.67l2-.28"/></svg>