<svg version="1" id="HQFL" xmlns="http://www.w3.org/2000/svg" x="0" y="0" viewBox="0 0 348.74 403.01" xml:space="preserve"><path fill="#E32219" d="M331.53 19l-6.92-19-19.68 4.64C228.64 22.64 176.22 20.03 175.7 20l-1.25-.07-1.32.07c-.52.03-52.94 2.64-129.23-15.36L24.2 0l-6.9 19c-.17.49-4.35 12.07-8.5 30.9L5.05 66.8l15.29 8.1a35.1 35.1 0 0 1 18.72 31.06 35.3 35.3 0 0 1-22.75 32.87L0 145l1.7 17.35c4.44 45.15 17.96 86.57 40.21 123.1 27.59 45.3 68.52 82.89 121.66 111.7l10.85 5.87 10.84-5.87c53.8-29.16 95.06-67.3 122.66-113.34 22.16-36.98 35.45-78.88 39.5-124.53C354.23 82.42 332.46 21.55 331.53 19z"/><path d="M307.52 214.82a266.8 266.8 0 0 0 6.8-26.63H34.6a268.27 268.27 0 0 0 6.77 26.63h266.16zM64.94 268.07H283.9a246.95 246.95 0 0 0 13.67-26.62H51.28a245 245 0 0 0 13.66 26.62zm42.31 53.25h134.34a263.28 263.28 0 0 0 24.07-26.62H83.17c7.3 9.3 15.34 18.18 24.08 26.63zm67.16 49.04a342.48 342.48 0 0 0 35.34-22.4h-70.67c11 7.97 22.78 15.45 35.33 22.4z" fill="#006AB2"/><path fill="none" stroke="#FFF" stroke-width="11.83" d="M310.16 26.79c-81 19.1-135.75 15.92-135.75 15.92S119.66 45.9 38.67 26.8c0 0-3.8 10.43-7.67 28a57.86 57.86 0 0 1-6.65 105.33c7.08 72.11 41.55 158.2 150.07 217.02C394.33 257.93 310.16 26.79 310.16 26.79z"/><path d="M106.8 281.85v-7.46h-1.99v-3.27H114v3.27h-2.08v6.86c0 .85.27 1.5.8 1.95s1.3.66 2.3.66c1.02 0 1.79-.22 2.31-.67s.79-1.09.79-1.94v-6.86h-2.05v-3.27h9.13v3.27h-1.96v7.46c0 1.84-.74 3.29-2.2 4.36s-3.49 1.6-6.03 1.6c-2.53 0-4.53-.53-6-1.6s-2.2-2.52-2.2-4.36zm24.87-2a2.4 2.4 0 0 1 1.5-.42c.64 0 1.13.13 1.48.4.35.28.55.7.6 1.25h-4.2c.05-.55.26-.96.62-1.23zm3.46 3.84a2.48 2.48 0 0 1-2.05.94c-.55 0-1.01-.17-1.39-.5a1.91 1.91 0 0 1-.64-1.3h8.79l.01-.23.01-.24a5.4 5.4 0 0 0-1.88-4.27 7.08 7.08 0 0 0-4.84-1.65c-2.1 0-3.82.53-5.16 1.59a4.96 4.96 0 0 0-2 4.06c0 1.72.66 3.1 1.97 4.12 1.31 1.03 3.05 1.55 5.21 1.55 1.3 0 2.48-.25 3.54-.74s1.96-1.23 2.7-2.19l-4.27-1.14zm12.5-5.16l.2-.04c.2-.63.54-1.12 1-1.46.45-.34 1-.5 1.64-.5.77 0 1.4.2 1.87.63.48.42.72.97.72 1.65 0 .64-.24 1.17-.73 1.58-.5.42-1.13.63-1.89.63a2.6 2.6 0 0 1-1.5-.44c-.43-.3-.78-.73-1.05-1.32l-.26.07v4.9h1.62v3.27h-8.07v-3.27h1.59v-4.27h-1.6v-3.27h6.46v1.84zm11.75 2.16a2.8 2.8 0 0 1 1.82-.58c.72 0 1.33.2 1.83.6.5.4.74.89.74 1.46 0 .6-.24 1.09-.74 1.48-.49.39-1.1.58-1.83.58a2.8 2.8 0 0 1-1.82-.58 1.82 1.82 0 0 1-.72-1.48c0-.6.24-1.1.72-1.48zm2.41-6.3h1.62v3.49a4.85 4.85 0 0 0-1.67-1.08 5.72 5.72 0 0 0-2.06-.36 6 6 0 0 0-4.3 1.6 5.35 5.35 0 0 0-1.7 4.07c0 1.6.6 2.94 1.81 4.02a6.33 6.33 0 0 0 4.4 1.63c.8 0 1.5-.13 2.12-.4.6-.26 1.15-.66 1.62-1.2v1.34h6.21v-3.27h-1.56v-13.08h-6.49v3.24zm9.81.83v-3.5h5.88v3.5h-5.89zm5.88 9.01h1.4v3.27h-7.86v-3.27h1.6v-4.27h-1.6v-3.27h6.46v7.54zm9.25-6.15a7.95 7.95 0 0 1 2-1.24 5.7 5.7 0 0 1 3.88-.12c.55.2.98.48 1.3.85.2.22.34.5.43.81a7 7 0 0 1 .12 1.54v4.31h1.57v3.27h-6.43v-5.86c0-.7-.1-1.17-.3-1.43-.19-.26-.52-.39-.99-.39-.57 0-.98.17-1.22.5-.24.32-.36.92-.36 1.78v2.13h1.4v3.27h-7.86v-3.27h1.6v-4.27h-1.6v-3.27h6.46v1.4zm16.02 2.63a2.8 2.8 0 0 1 1.83-.57c.72 0 1.33.2 1.82.6a1.81 1.81 0 0 1 0 2.94c-.48.39-1.1.58-1.82.58a2.8 2.8 0 0 1-1.83-.58 1.82 1.82 0 0 1-.7-1.48c0-.6.23-1.1.7-1.49zm8.9-.75h1.57v-3.27h-6.43v1.16a5.12 5.12 0 0 0-3.74-1.38c-1.75 0-3.18.52-4.3 1.57a5.35 5.35 0 0 0-1.69 4.09c0 1.6.54 2.86 1.62 3.81a6.5 6.5 0 0 0 4.4 1.42c.76 0 1.44-.1 2.04-.28.6-.18 1.16-.45 1.67-.83a4.8 4.8 0 0 1 .05.6c0 .77-.3 1.35-.88 1.74s-1.47.59-2.64.59a11.91 11.91 0 0 1-5.1-1.14v3.3c.65.28 1.48.5 2.48.65 1 .15 2.13.23 3.35.23 1.25 0 2.39-.13 3.4-.39 1-.25 1.8-.61 2.39-1.07a4.25 4.25 0 0 0 1.4-1.89 9.4 9.4 0 0 0 .41-3.1v-5.8zm8.37-.11a2.4 2.4 0 0 1 1.5-.42c.64 0 1.14.13 1.49.4.35.28.55.7.6 1.25h-4.2c.05-.55.25-.96.61-1.23zm3.46 3.84a2.48 2.48 0 0 1-2.05.94c-.55 0-1-.17-1.38-.5a1.9 1.9 0 0 1-.65-1.3h8.8v-.23l.02-.24a5.4 5.4 0 0 0-1.89-4.27 7.08 7.08 0 0 0-4.84-1.65c-2.1 0-3.82.53-5.15 1.59a4.96 4.96 0 0 0-2 4.06c0 1.72.66 3.1 1.97 4.12 1.3 1.03 3.04 1.55 5.2 1.55 1.3 0 2.48-.25 3.55-.74a7.3 7.3 0 0 0 2.7-2.19l-4.28-1.14zm12.5-5.61a7.96 7.96 0 0 1 2.01-1.24 5.7 5.7 0 0 1 3.88-.12c.54.2.97.48 1.3.85.2.22.34.5.42.81.08.32.13.83.13 1.54v4.31h1.56v3.27h-6.43v-5.86c0-.7-.1-1.17-.29-1.43-.2-.26-.53-.39-1-.39-.57 0-.98.17-1.22.5-.24.32-.36.92-.36 1.78v2.13h1.4v3.27h-7.85v-3.27h1.59v-4.27h-1.6v-3.27h6.46v1.4zm-66.06 59.94c-.22.39-.6.58-1.1.58-.51 0-.87-.2-1.1-.58a4.49 4.49 0 0 1-.32-2.03v-3.75c0-.94.11-1.62.33-2.02.23-.4.59-.6 1.08-.6.51 0 .88.2 1.1.6.22.39.33 1.06.33 2.02V336c0 .96-.1 1.63-.32 2.03zm-6.24.6c.12.55.32 1.04.6 1.47a5 5 0 0 0 1.9 1.73c.77.4 1.64.6 2.63.6 1 0 1.89-.2 2.67-.6a4.82 4.82 0 0 0 2.51-3.18 12 12 0 0 0 .18-2.52v-4.03c0-1.14-.06-1.98-.19-2.52s-.32-1.01-.59-1.44a4.8 4.8 0 0 0-1.9-1.71 5.93 5.93 0 0 0-2.68-.59c-1 0-1.88.2-2.64.59a4.82 4.82 0 0 0-2.49 3.19c-.12.55-.18 1.38-.18 2.48v4.03a13 13 0 0 0 .18 2.5zm12.56-1.92h3.75v.28c0 .74.1 1.26.32 1.55.22.3.57.44 1.07.44.42 0 .75-.15.97-.45.23-.3.34-.74.34-1.3v-1.3c0-.5-.13-.84-.41-1.05-.28-.2-.77-.3-1.46-.3h-4.16v-8.42h9.13v3.41h-5.77v2.02a6.87 6.87 0 0 1 2.77-.54c1.31 0 2.27.33 2.88 1 .61.67.92 1.71.92 3.14v2.21c0 1.71-.43 2.97-1.3 3.8-.88.81-2.21 1.22-4.02 1.22-1.82 0-3.11-.35-3.89-1.05-.78-.7-1.16-1.87-1.16-3.51a20.76 20.76 0 0 1 .02-1.15zm59.63-249.3l-.8 1.36a12.15 12.15 0 0 1-4.4 4.58 12.63 12.63 0 0 1-6.28 1.47 10.8 10.8 0 0 1-8.09-3.24c-2.16-2.19-3.2-4.9-3.2-8.29 0-3.52 1.06-6.29 3.25-8.45 2.2-2.17 5-3.23 8.55-3.23 2.63 0 4.78.57 6.58 1.74a10.48 10.48 0 0 1 4 5.05l.69 1.7h18.22V54.67H236.3v1.97c-.9-.5-1.83-.96-2.83-1.33a26.02 26.02 0 0 0-9.2-1.6c-4.01 0-7.81.6-11.3 1.8-2.35.81-4.56 1.9-6.63 3.22v-4.06H93.92V70.4h5.91V96h-5.91v15.72h55.62V96h-6.2l-11.6-13.55 10.64-12.04h16.41V96h-5.46v15.72h32.2V96h-7.17v-5.64h10V73.43h-10v-3.02h13.45l-.43 8.24h1.73a28.06 28.06 0 0 0 2.36 16.85 30.42 30.42 0 0 0 7.9 10.05 30.4 30.4 0 0 0 9.63 5.36 35.17 35.17 0 0 0 11.3 1.78c7.34 0 13.82-1.94 19.27-5.77a30.03 30.03 0 0 0 11.48-15.96l1.13-3.56h-20.31zm6.13 17.3c-5 3.51-10.9 5.27-17.7 5.27-3.73 0-7.2-.54-10.42-1.63a27.53 27.53 0 0 1-15.94-14.01 25.24 25.24 0 0 1-2.48-11.07c0-2.56.34-5 1.01-7.33h-2.21l.42-8.24h-19.05v8.48h10v11.47h-10v11.1h7.16V109h-26.73V98.73h5.46V67.68h-20.37l-13.02 14.74 13.95 16.31h4.73V109h-22.98V98.73h3.33l-11.86-14.2v14.2h4.66V109H96.65V98.73h5.91V67.68h-5.91V57.41h23.32v10.27h-4.67v14.04l11.6-14.04h-3.07V57.41h79.78v6.92c.49-.47.99-.93 1.52-1.38a28.2 28.2 0 0 1 8.73-4.85 31.9 31.9 0 0 1 10.42-1.65c2.97 0 5.72.48 8.23 1.42 2.52.95 4.69 2.34 6.52 4.19V57.4h12.63v19.94H238a13.25 13.25 0 0 0-5.03-6.3 14.5 14.5 0 0 0-8.07-2.18c-4.27 0-7.76 1.34-10.47 4.02-2.71 2.68-4.07 6.14-4.07 10.4 0 4.1 1.33 7.5 4 10.2 2.66 2.7 6 4.05 10.03 4.05 2.93 0 5.48-.6 7.62-1.82a14.76 14.76 0 0 0 5.43-5.59h15.01a27.23 27.23 0 0 1-10.44 14.56zM121.33 96h-3.3v-3.95l3.3 3.95zm-.23-25.59l-3.07 3.71v-3.71h3.07z" fill="#FFF"/><circle fill="#FFF" cx="174.41" cy="186.04" r="61.88"/><circle fill="none" stroke="#000" stroke-width="1.82" cx="174.41" cy="186.04" r="61.88"/><circle fill="none" stroke="#000" stroke-width="1.82" cx="174.41" cy="186.04" r="54.45"/><path d="M171.7 124.22l-3.05 7.66s5.76 3.2 18.5 11.39c0 0 4.77 1.39 21.65.54 0 0 2.25-5.15 1.12-8.46 0 0-12.73-11.13-38.22-11.13zm61.55 42.61l-10.68-6.23s-2.58 17.17-9.03 23.62c0 0 12.67 4.77 10.75 23.85 0 0 3.92-9.24 10.7-10.43 0 0 3.94-17.7-1.74-30.8zm-23.88 70.27s-.93-6.07.71-9.91c0 0-12.61 1.92-21.71-.81 0 0-12.48 10.6-22.17 13.5 0 0 3.95 3.06 5.48 7.97 0 0 21.76 1.41 37.7-10.75zm-93.5-71.16l5.64 7.17s6.2-8.91 17.72-11.64c0 0-1.85-13.94 4.9-20.7l-9.07-2.56s-11.3 7.34-19.19 27.73zm20.63 69.01l8.93-2.8-.44-.61s-6.37-14.87-3.64-24.57c0 0-14.69-3.97-19.63-7.15l-6.2 2.16-.83.3s5.13 21.07 21.81 31.99"/><path fill="none" stroke="#000" stroke-width="1.82" d="M135.28 157.83s7.9 9.4 21.54 16.38m32.46-34.89s-6.68 13.35-9.7 26.7m-42.48 43.07s9.71-5.16 21.24-15.17"/><path d="M153.79 197.26l-.6-25.48s12.43-9.4 27.9-9.4c0 0 11.52 7.88 16.68 21.53 0 0-13.95 17.9-15.77 22.75 0 0-17.6-3.64-28.21-9.4"/><path fill="none" stroke="#000" stroke-width="1.82" d="M189.88 229.72s-6.97-15.17-10-32.16m13.04-13.95s14.4-2.35 27.9 1.82"/></svg>