<svg version="1.1" xmlns="http://www.w3.org/2000/svg" viewBox="0 0 32 32"><path fill="#f9e200" d="M16.9 30.65c.85-1.57 1.9-1.17 3.67-1.6 1.9-.48 3.55-1.33 4.96-2.48l-.02.02c4.06-3.3 3.62-7.3 3.62-7.3 0-2.2-1.6-4.24-2.33-9.19-.17-2.88 1.3-4.43 1.3-4.43a4.6 4.6 0 0 1-3.3-3.8 5.27 5.27 0 0 1-5.82 1.16 4.72 4.72 0 0 1-2.07-1.74l-.01-.02a4.72 4.72 0 0 1-2.05 1.75l-.03.01c-1.6.66-4.1.7-5.83-1.16 0 0-.27 2.94-3.29 3.8 0 0 1.48 1.54 1.3 4.43-.73 4.95-2.33 7-2.33 9.2 0 0-.44 3.99 3.62 7.3a12.72 12.72 0 0 0 4.85 2.44l.09.02c1.77.42 2.82.02 3.67 1.59z"/><path fill="none" stroke="#f9e200" stroke-width="1.03" stroke-miterlimit="10" stroke-linecap="butt" stroke-linejoin="miter" d="M16.9 30.65c.85-1.57 1.9-1.17 3.67-1.6 1.9-.48 3.55-1.33 4.96-2.48l-.02.02c4.06-3.3 3.62-7.3 3.62-7.3 0-2.2-1.6-4.24-2.33-9.19-.17-2.88 1.3-4.43 1.3-4.43a4.6 4.6 0 0 1-3.3-3.8 5.27 5.27 0 0 1-5.82 1.16 4.72 4.72 0 0 1-2.07-1.74l-.01-.02a4.72 4.72 0 0 1-2.05 1.75l-.03.01c-1.6.66-4.1.7-5.83-1.16 0 0-.27 2.94-3.29 3.8 0 0 1.48 1.54 1.3 4.43-.73 4.95-2.33 7-2.33 9.2 0 0-.44 3.99 3.62 7.3a12.72 12.72 0 0 0 4.85 2.44l.09.02c1.77.42 2.81.02 3.67 1.59z"/><path fill="#3c3c3b" d="M16.9 30.65c.85-1.57 1.9-1.17 3.67-1.6 1.9-.48 3.55-1.33 4.96-2.48l-.02.02c4.06-3.3 3.62-7.3 3.62-7.3 0-2.2-1.6-4.24-2.33-9.19-.17-2.88 1.3-4.43 1.3-4.43a4.6 4.6 0 0 1-3.3-3.8 5.27 5.27 0 0 1-5.82 1.16 4.72 4.72 0 0 1-2.07-1.74l-.01-.02a4.72 4.72 0 0 1-2.05 1.75l-.03.01c-1.6.66-4.1.7-5.83-1.16 0 0-.27 2.94-3.29 3.8 0 0 1.48 1.54 1.3 4.43-.73 4.95-2.33 7-2.33 9.2 0 0-.44 3.99 3.62 7.3a12.72 12.72 0 0 0 4.85 2.44l.09.02c1.77.42 2.82.02 3.67 1.59z"/><path fill="#fff" d="M8.45 7.29h.58c.05 0 .09-.03.1-.06a.59.59 0 0 0 .04-.19v-.51a.6.6 0 0 0-.03-.25.11.11 0 0 0-.1-.05h-.59zm0 1.18v.04c0 .11 0 .22.02.32l.06.21H7.49l.05-.21.02-.32V6.2c0-.11 0-.22-.02-.32v.01a.78.78 0 0 0-.07-.22H9.5c.16 0 .3.06.4.16q.17.15.17.67v.53q0 .5-.17.66a.6.6 0 0 1-.4.16H8.47zm1.76.57l.05-.21v-.01c.02-.1.02-.2.02-.3V6.2c0-.11 0-.22-.02-.32a1.2 1.2 0 0 0-.05-.21h1.13l-.05.21v.01a2.42 2.42 0 0 0-.02.36V8.5c0 .11 0 .22.02.32v-.01l.05.22zm2.75-.1l-.98-2.69v2.52c0 .07.02.13.04.2v-.01l.02.04c0 .02.02.04.03.05h-.6a.3.3 0 0 0 .02-.05l.02-.04a.7.7 0 0 0 .04-.19l.01-.32v-2.5a.69.69 0 0 0-.05-.2v.01c0-.01 0-.03-.02-.04l-.02-.06h1.33l.02.06.98 2.7h.01V5.94a.69.69 0 0 0-.04-.2v.01l-.02-.04-.03-.06h.6l-.02.05-.03.05a.7.7 0 0 0-.03.19l-.01.32v2.77H13zm4.17-1.92l-.06.15a.83.83 0 0 0-.05.22v1.33l.05.2.02.06.03.06h-.83l-.03-.31h-.01a.6.6 0 0 1-.1.23q-.05.08-.25.08h-.85a.53.53 0 0 1-.44-.23q-.16-.23-.16-.76V6.66q0-.55.16-.77a.53.53 0 0 1 .46-.23h1.8l.08.65-.02-.01h-.02a.75.75 0 0 0-.32-.07h-1.03c-.05 0-.1.01-.13.04a.26.26 0 0 0-.04.18v1.84c0 .05.02.1.05.14.03.03.07.05.12.05h.34c.05 0 .1-.02.13-.05a.23.23 0 0 0 .04-.14v-.71h-.35l-.08.01a.49.49 0 0 0-.06.04h-.01v-.61zm2.05 1.46q.2 0 .24-.05a.56.56 0 0 0 .04-.29V5.95a.69.69 0 0 0-.04-.19l-.02-.03a.42.42 0 0 0-.03-.06h.6a.3.3 0 0 0-.02.05l-.03.05a.7.7 0 0 0-.04.18V8q0 .57-.15.8t-.55.24h-1.32c-.2 0-.38-.1-.48-.26q-.16-.26-.16-.78V6.2l-.02-.32v.02a1.19 1.19 0 0 0-.06-.22h1.11c-.02.06-.05.13-.06.2v.02a2.25 2.25 0 0 0-.02.35V8.2c0 .07.02.15.06.2.03.05.1.08.16.08h.02zm6.92 0h.02a.8.8 0 0 0 .38-.08h-.01.03l-.08.64h-2.18l.05-.21v-.01l.03-.3V6.2l-.02-.32a1.21 1.21 0 0 0-.06-.21h2.14l.08.64h-.03a.9.9 0 0 0-.16-.06 1 1 0 0 0-.22-.03h-.79v.8h.69c.08 0 .15 0 .22-.02a.96.96 0 0 0 .16-.06h.02v.73h-.03a.9.9 0 0 0-.15-.06.98.98 0 0 0-.22-.03h-.7v.91zm-6.02.56l.05-.22.02-.3V6.2c0-.11 0-.22-.02-.32a1.2 1.2 0 0 0-.05-.21h1.13l-.05.21v.01c-.02.1-.02.2-.02.3v2.32c0 .1 0 .21.02.32v-.01c0 .08.03.15.05.22v-.01.01zm2.72-.1l-.98-2.69v2.52c0 .07.02.13.04.2v-.01l.02.04.03.05h-.6l.03-.05.02-.05a.7.7 0 0 0 .04-.18V5.95a.73.73 0 0 0-.04-.2v.01l-.02-.04-.03-.06h1.33l.02.06.98 2.7h.01V5.94a.73.73 0 0 0-.04-.2l-.02-.03-.03-.06h.6l-.03.05-.02.05a.7.7 0 0 0-.04.18v3.1h-1.22zM14.63 4.9l.04.07.04.08c0 .02.02.04.04.06l.04.06h-.5l-.24-.54-.09.13v.33l.03.08h-.47a.36.36 0 0 0 .02-.08l.01-.12v-1a.38.38 0 0 0-.03-.08H14l-.02.08-.01.12v.37l.28-.39a.5.5 0 0 0 .03-.06l.02-.05v-.08h.37v.01l-.02.01h-.01l-.02.02a.6.6 0 0 0-.09.09l-.2.26z"/><path fill="#fff" d="M15.11 4.23l.02.15a.26.26 0 0 1 .06-.11.2.2 0 0 1 .14-.04h.19v.31l-.02-.01-.01-.01a.15.15 0 0 0-.06-.02h-.12a.24.24 0 0 0-.13.03.18.18 0 0 0-.03.1v.35l.01.1c0 .03.02.06.03.08v.01h-.48v-.01a.34.34 0 0 0 .02-.07l.02-.12v-.54a.39.39 0 0 0-.04-.18v-.02z"/><path fill="#fff" d="M16.17 4.62v-.13c0-.03 0-.04-.02-.06a.05.05 0 0 0-.03-.02h-.17l-.04.02a.1.1 0 0 0-.02.05v.14zm-.28.18v.09c0 .03.01.05.03.07l.06.02h.49l.04-.02.03-.02-.03.23h-.8a.2.2 0 0 1-.16-.07.38.38 0 0 1-.05-.19v-.43c0-.07.02-.13.05-.19a.2.2 0 0 1 .16-.06h.64a.2.2 0 0 1 .16.07c.03.05.04.12.04.18v.33z"/><path fill="#fff" d="M17.09 4.96v.12l.03.08v.01h-.47v-.01l.03-.07.01-.11v-.56h-.16v-.19h.16v-.1c0-.06.02-.12.05-.17a.18.18 0 0 1 .17-.07h.49l.02.21h-.02l-.02-.02h-.23l-.05.01-.01.05v.1h.3v.18h-.3zm1.41-.86v-.02a.6.6 0 0 0 0-.11.52.52 0 0 0-.03-.07v-.01h.42v1.09c0 .04 0 .07.02.1l.02.08v.01h-.47v-.01l.02-.07.02-.11v-.02zm1.13.39v-.01a.1.1 0 0 0-.02-.05.05.05 0 0 0-.04-.02h-.16l-.04.02-.01.05v.44l.01.05.04.02h.16c.02 0 .03 0 .04-.02a.1.1 0 0 0 .02-.05zm.03.68l-.02-.1-.01.02-.01.02-.04.04a.06.06 0 0 1-.03.02h-.36a.21.21 0 0 1-.17-.08.36.36 0 0 1-.06-.2v-.38c0-.08.02-.14.06-.2.04-.05.1-.08.17-.08h.33c.03 0 .05 0 .06.02l.03.04v.01c0 .01 0 0 0 0v.02-.37a.42.42 0 0 0-.03-.07H20v1.14l.01.1.03.06z"/><path fill="#fff" d="M18.02 4.62v-.13c0-.02 0-.04-.02-.06a.05.05 0 0 0-.03-.01h-.17l-.04.01a.1.1 0 0 0-.02.05v.14zm-.28.18v.09c0 .03.01.05.03.07l.06.02h.5l.03-.02.03-.02-.03.23h-.8a.2.2 0 0 1-.16-.07.38.38 0 0 1-.04-.19v-.43a.4.4 0 0 1 .04-.19.2.2 0 0 1 .16-.06h.64a.2.2 0 0 1 .16.07c.03.05.04.12.04.18v.33zm-1.03 12.73c-2.46.67-3.36 1.46-3.36 1.46-1.2 1.22-1 1.46-1 1.46.2.45 1.25 1.06 1.25 1.06 1.19.58 1.8.16 1.68.3a.7.7 0 0 1-.27.18c-1.3.12-2.89.12-4.28-1.03-1.46-.94-1.32-1.43-1.32-1.43-.14-.8 2.67-3.04 2.67-3.04h2.5zM.3 20.32s.06-.56.67-.27l.83.27c.65.22 1.23.45 1.11.78-.1.3-.21.53-.33.76l.01-.03s-1.55-.55-1.97-.73c-.26-.14-.74-.14-.33-.78z"/><path fill="#fff" d="M1.7 23.07l6.61 1.69.33-.01c.14-.16.31-.28.5-.37h.02l4.05-2.08 9.35-4.71 7.7-3.92s.27.28.56.11c.11-.07.16-.32-.08-.66-.37-.54-.7-.28-.7-.28a.35.35 0 0 0-.12.38L9.1 23.59h-.33c-2.96-1.2-6.34-1.86-6.34-1.86s.04-.52-.54.6c-.29.58-.44.71-.18.74z"/><path fill="#000" d="M16.71 17.53c-2.46.67-3.36 1.46-3.36 1.46-1.2 1.22-1 1.46-1 1.46.2.45 1.25 1.06 1.25 1.06 1.19.58 1.8.16 1.68.3a.7.7 0 0 1-.27.18c-1.3.12-2.89.12-4.28-1.03-1.46-.94-1.32-1.43-1.32-1.43-.14-.8 2.67-3.04 2.67-3.04h2.5z"/><path fill="#fff" d="M5.28 16.9c-.89.25-1.86.72-2.1 1.38 0 0-.41-1.05 1.81-2.78 0 0 1.23-.82 1.52-1.2l.79-1.02s.19-.69.34-.81v-.2l-.5.08.02-.55c.7-.8 1.51-1.48 2.4-2.04l.05-.03c.8-.49 1.73-.73 2.25-.94.41-.17.82-.24 1-.35.33.31.64.65.92 1l.01.02s.65.15.68.24c0 0 .36 1.17.38 1.63s.05.75-.2.83c0 0-.4.4-.5.66.16.16.38.27.62.3s.34.35 5.81-.69c0 0 3.77-.31 4.39-.23.74.1 1.41.59 2.36.81 0 0 1 .23 2.68 1.96l1.54 1.58s1.14 1.42-.92 2.95c0 0 .87-1.02-.07-1.93 0 0-1-1.15-2.15-1.86a2.78 2.78 0 0 0-1.32-.37c-1.98.54-2.65.23-2.65.23s-.3.03 1.53 1.38c0 0 .57.5.88 2.99 0 0-.01 2.07-.98 4.91v.04c0 .04.02.08.05.1l1 .53s.1.08.05-.18c0 0-.03-.17 0-.2l-.16-.12a1.72 1.72 0 0 0 0-.37.74.74 0 0 1 .17-.82s.08-.04 0-.11a.12.12 0 0 1-.02-.07c0-.04.02-.07.04-.1s.05-.08-.11-.14c0 0-.29-.1-.17-.27s.24-.5.68-.32a312.45 312.45 0 0 1 3.45 1.56c.18.1.4.2.31.65s-.23 1.25-.7 1.2c0 0-.5 0-.24-.3 0 0 .25-.17.28-.29 0-.04-.06-.07-.1-.1l-.73-.38s-.07.44-.63.19c0 0-.18 0-.2.28 0 0 0 .4-.17.49.12.43.2.93.2 1.45s.03.33-.11.38a1.84 1.84 0 0 1-.84.01l-2.72-.54-3.35-.75-4.99-1.06s-.22.07-.22.2-.06.35-.06.42l-.05.49.78.38a.24.24 0 0 1 .03.19c-.03.09-.47.63-.48.8s.12.46-.26.34l-2.16-.74c-.48-.16-2.13-.64-2.66-.76s-1.03-.3-1.03-.4l-.01-.24s.58-1.24 1.13-1.21 1.14.09.9.29-.56.36-.27.5.54.33.62 0a.28.28 0 0 1 .35-.22c.3.03 1.04.03 1.12-.1 0 0-.28-.7-.24-1.04 0 0 .04-.2.22-.14 0 0-.05-1.75.51-1.73 0 0 .77-.13 3.52.9a4.13 4.13 0 0 0-.1-1.89l.01.03a6.8 6.8 0 0 0-2.89-4.21s-.9-.7-4.12-.66c0 0-5-.23-6.21.1z"/><path fill="#fff" d="M16.53 28.26l2.76 1.46 3.3 2-3.1-2.06-2.96-1.73z"/><path fill="#575756" d="M16.53 28.26l2.76 1.46 3.3 2-3.1-2.06-2.96-1.73z"/><path fill="#000" d="M16.53 28.26l2.76 1.46 3.3 2-3.1-2.06-2.96-1.73z"/><path fill="#000" d="M5.28 16.9c-.89.25-1.86.72-2.1 1.38 0 0-.41-1.05 1.81-2.78 0 0 1.23-.82 1.52-1.2l.79-1.02s.19-.69.34-.81v-.2l-.5.08.02-.55c.7-.8 1.51-1.48 2.4-2.04l.05-.03c.8-.49 1.73-.73 2.25-.94.41-.17.82-.24 1-.35.33.31.64.65.92 1l.01.02s.65.15.68.24c0 0 .36 1.17.38 1.63s.05.75-.2.83c0 0-.4.4-.5.66.16.16.38.27.62.3s.34.35 5.81-.69c0 0 3.77-.31 4.39-.23.74.1 1.41.59 2.36.81 0 0 1 .23 2.68 1.96l1.54 1.58s1.14 1.42-.92 2.95c0 0 .87-1.02-.07-1.93 0 0-1-1.15-2.15-1.86a2.78 2.78 0 0 0-1.32-.37c-1.98.54-2.65.23-2.65.23s-.3.03 1.53 1.38c0 0 .57.5.88 2.99 0 0-.01 2.07-.98 4.91v.04c0 .04.02.08.05.1l1 .53s.1.08.05-.18c0 0-.03-.17 0-.2l-.16-.12a1.72 1.72 0 0 0 0-.37.74.74 0 0 1 .17-.82s.08-.04 0-.11a.12.12 0 0 1-.02-.07c0-.04.02-.07.04-.1s.05-.08-.11-.14c0 0-.29-.1-.17-.27s.24-.5.68-.32a312.45 312.45 0 0 1 3.45 1.56c.18.1.4.2.31.65s-.23 1.25-.7 1.2c0 0-.5 0-.24-.3 0 0 .25-.17.28-.29 0-.04-.06-.07-.1-.1l-.73-.38s-.07.44-.63.19c0 0-.18 0-.2.28 0 0 0 .4-.17.49.12.43.2.93.2 1.45s.03.33-.11.38a1.84 1.84 0 0 1-.84.01l-2.72-.54-3.35-.75-4.99-1.06s-.22.07-.22.2-.06.35-.06.42l-.05.49.78.38a.24.24 0 0 1 .03.19c-.03.09-.47.63-.48.8s.12.46-.26.34l-2.16-.74c-.48-.16-2.13-.64-2.66-.76s-1.03-.3-1.03-.4l-.01-.24s.58-1.24 1.13-1.21 1.14.09.9.29-.56.36-.27.5.54.33.62 0a.28.28 0 0 1 .35-.22c.3.03 1.04.03 1.12-.1 0 0-.28-.7-.24-1.04 0 0 .04-.2.22-.14 0 0-.05-1.75.51-1.73 0 0 .77-.13 3.52.9a4.13 4.13 0 0 0-.1-1.89l.01.03a6.8 6.8 0 0 0-2.89-4.21s-.9-.7-4.12-.66c0 0-5-.23-6.21.1zM.3 20.32s.06-.56.67-.27l.83.27c.65.22 1.23.45 1.11.78-.1.3-.21.53-.33.76l.01-.03s-1.55-.55-1.97-.73c-.26-.14-.74-.14-.33-.78z"/><path fill="#f9e200" d="M10.44 9.92c-.9.4-1.66.85-2.37 1.37l.04-.03c-.28.23-.33.15-.4.14s-.32.3-.32.3l-.03.2c-.04.29.02.27.15.26.16 0 .4-.04.4-.04s1.8-.33 2.8-.38l.57-.05c.19.15.36.3.51.45.33.32 1.29 1.3 1.79 1.13.1-.04.2-.12.26-.22.27-.43.77-1.06.82-1.1 0 0 .05-.02 0-.5s-.25-1.56-.42-1.62-.72-.3-1.9-.3c0 0-.29-.1.1-.1s1.14-.05 1.14-.05a1.8 1.8 0 0 0-.57-.53c-.16-.1-.3-.17-.47-.12-.46.11-.84.23-1.2.37l.07-.03c-.62.23-1.38.57-1.73.8 0 0-1.6 1.06-1.13.97.48-.32 1.04-.63 1.62-.91l.1-.04s.24-.1.17.03z"/><path fill="#000" d="M12.19 11.63s1.32-.06 1.76.16c0 0 .32.1 0 .38a2.5 2.5 0 0 0-.47.62v.01s-.27.33-.56-.06c0 0-.63-.54-.77-.62-.28-.16-.5-.52.04-.5z"/><path fill="#f9e200" d="M14.1 13s.46.48 1.54.39 7.67-1.4 9.87-.85c0 0-1.68-.04-2.3.86 0 0-.93-.68-1.05-.66 0 0-.74.65-.83.86 0 0-.84-.65-.88-.61s-.71.62-.77.9c0 0-.66-.69-.76-.69s-1.08.82-1.12.9-.53-.68-.67-.61-1.17.67-1.2.73-.38-.65-.53-.65-.97.5-.97.5.05-.7-.08-.73a2.79 2.79 0 0 0-.59.03h.02a.7.7 0 0 0 .33-.36z"/><path fill="#fff" d="M11.1 13.11l-.43-.4.15.9c.23.21.41.48.53.78v.02"/><path fill="#000" d="M27.12 23.68s.2-.37-.25-.45c0 0 .14-.42.43-.3.1.05.57.19 1.14.45l1.64.78c.58.26 1.03.44 1 .7-.04.37-.18 1.02-.5 1.25 0 0-.46.02-.18-.13 0 0 .46-.34.25-.48s-.8-.46-.8-.46.08-.04-.05-.13-1.71-.95-1.8-.98-.5-.28-.5-.28a.77.77 0 0 0-.37.02z"/><path fill="#f9e200" d="M16.91 25.48l-.02-.07-1.95-.94a1.99 1.99 0 0 1 .24-1.39h-.01.08c.15 0 .3.02.45.04h-.01c.88.12 2.7.51 3.16.83 0 0 .65-1.79-.83-4.36a7.71 7.71 0 0 0-1.37-1.88c-1.43-1.2-2.33-.9-3.4-1.18 0 0 3.4-2.94 9.31.46.1.14.22.04.44.53.63 1.38 1.41 3.72 1.76 3.97 0 0-.9-.55-1.18-.49 0-.03 1.12 1.3 1.25 1.9 0 0-1.06-.49-1.19-.3 0 0 .55.16 1.02 1.11 0 0 .77 1.23.94 1.32l1.46.7s.32.07.13-.5l1.23.68.28 1.53s.06.46-.33.43-4.51-.9-5.16-1.07-6.3-1.32-6.3-1.32z"/><path fill="#fff" d="M7.84 13.1s.14.14.19.14.29-.02.22-.39l.63-.51s.23.77-.1 1.08c0 0-.11.16-1.28.28 0 0-.2-.06-.08-.2s.42-.4.42-.4zm3.5 1.75l-.03 1.01s-.46-.55-.48-.49 0 .57.44 1.21c0 0-1.05-.05-1.21 0l-.37-.47s-.04.39.03.44l-1.07-.01c.05-.15 1.1-.77 1.1-.77a1 1 0 0 0 .23.14c.04 0-.04-.24-.04-.24.3-.1.54-.3.7-.56s.25.14.7-.27zM8.3 16.13c.08.14.3.07.3.07l.76-.4c.16-.1.12-.3.12-.34s.07-.03.07-.03a.3.3 0 0 0 .39.05c.16-.1.29-.2.42-.3l-.01.02c.14-.12.05-.29.05-.38s-.29-.56-.34-.65-.24-.1-.24-.1-.44.44-.6.58.05.3.19.45 0 .23 0 .23L9.06 15c-.21-.2-.27-.09-.27-.09-.5.34-1.06.67-1.66.96l-.08.04c-.4.2-.87.38-1.37.55l-.08.02c-.76.3-.5.28-.5.28.92-.38 2.86-.3 3.02-.3s.1-.25.1-.25-.1-.37.09-.08zm1.83-2.36s.35.7.45.95c0 0-.04.2.1.17.17-.02.32-.08.44-.17s-.1-.57-.35-.9-.3-.44-.4-.35-.27.25-.23.3z"/><path fill="#f9e200" d="M1.7 23.07l6.61 1.69.33-.01c.14-.16.31-.28.5-.37h.02l4.05-2.08 9.35-4.71 7.7-3.92s.27.28.56.11c.11-.07.16-.32-.08-.66-.37-.54-.7-.28-.7-.28a.35.35 0 0 0-.12.38L9.1 23.59h-.33c-2.96-1.2-6.34-1.86-6.34-1.86s.04-.52-.54.6c-.29.58-.44.71-.18.74z"/><path fill="#000" d="M4.49 22.22l.76.23-1.65 1.1-.82-.2zm1.82.51l.66.23-1.42 1.08-.75-.18zm1.69.6l.7.26-1.2.95-.78-.17zm-4.7-1.39L1.57 23s.53-1.18.72-1.32.16.03.16.03zM27.33 13s1 .24 2.68 1.97l1.54 1.58s1.14 1.42-.91 2.95c0 0 .87-1.02-.07-1.93 0 0-1-1.15-2.15-1.86a2.78 2.78 0 0 0-1.33-.37c-1.98.54-2.65.22-2.65.22s1.94-2.77 2.9-2.55z"/></svg>