<svg version="1.1" xmlns="http://www.w3.org/2000/svg" x="0" y="0" viewBox="0 0 273.49 385.01" xml:space="preserve"><path fill-rule="evenodd" clip-rule="evenodd" fill="#FFF" d="M176.78 5.84c-2.44-4.48-6.34-3.4-6.34-3.4s-6.57 3.89-9.98 6.81c-3.4 2.92-9 4.63-11.2 17.53-2.19 12.9-4.87 15.83-4.87 15.83s-.73-.49-2.43-2.44c-1.7-1.95-2.2-3.65-2.2-3.65s-.48-1.95-2.18-14.6C135.88 9.24 128.32 0 128.32 0s-2.43.73-8.03 9.5c-5.6 8.76-7.55 29.46-7.55 29.46s-4.87-8.04-8.76-15.1-13.88-14.36-19-16.8c-5.1-2.43-11.93-3.65-11.93-3.65s-2.7 1.99-5.37 14.16C65 29.75 70.38 40.17 74.5 47c4.14 6.82 15.1 15.58 17.53 17.04 2.44 1.46-.48 6.09-1.7 8.28s-3.17 9.74-3.17 9.74l-1.94.73c-1.95.73-1.46 2.44-1.46 3.9s.73 2.91.73 2.91l-3.21 7.8 6.37-1.22s.49 2.68 1.22 4.87.24 3.65-.24 8.52c-.49 4.87-1.95 12.42-2.2 17.53-.24 5.12 5.36 20.94 5.12 22.16-.24 1.22-3.17 5.6-5.11 8.52-1.95 2.92-1.95 11.93-1.95 11.93s-5.69-2.52-8.52-3.65c-1.64-.65-19-5.84-32.63-1.46s-24.1 17.53-32.63 31.16C2.2 209.4.25 227.9.02 238.12c-.25 10.17 3.6 21.07 3.64 21.17-.03-.09-.45-1.71 1.7-15.09 2.05-12.68 7.5-25.8 16.8-40.66 8.68-13.85 22.9-21.91 22.9-21.91l-3.66 4.63c-3.65 4.62-10.1 16.43-12.9 25.56-2.5 8.18-4.01 22.92-2.52 32.82 1.34 8.96 6.66 18.8 6.66 18.8s-.47-7.82.02-17.32c.48-9.5 5.27-23.6 8.5-31.14 3.62-8.45 12.05-23.16 15.13-27.02 3.96-4.95 9.46-8.52 9.46-8.52s-9.01 11.44-13.88 21.42c-4.87 9.98-11.44 25.57-12.42 45.29-.97 19.72 7.3 35.79 7.3 35.79s-.48-2.92-.72-7.55c-.25-4.63.05-12.85.98-21.1 1-8.78 6.32-31.25 14.36-46.1 8.03-14.85 16.55-18.5 16.55-18.5s-5.24 5.3-9.38 10.66-6.58 13.3-7.8 17.44c-1.21 4.14-1.56 15.97-1.56 15.97s.43 3.3-.79 7.92c-1.12 4.27.04 7.3.23 7.73.18-.2.02.06.02.06l-.02-.06c-.23.26-.95 1.23-3.1 4.31-3.9 5.6-3.9 18.5-3.9 18.5s2.2-3.4 5.85-9.73c3.65-6.33 13.15-11.69 16.31-12.9 3.17-1.22 18.02-11.94 18.02-11.94s-.51.95-1.7 2.2c-1.88 1.95-4.65 8.17-6.96 11.6-2.85 4.26-10.93 13.34-14.6 16.46-4.29 3.65-8.16 11.65-12.29 18.92-4.14 7.3-12.9 29.46-12.9 29.46s10.86-13.95 18.02-18.5c12.47-7.93 16.77-9.3 24.87-17.26 7.05-6.93 10.74-23.25 10.89-32.05.1-6.33 3.02-14.83 3.02-14.83-.57 3.32-.57 3.27-1 5.63-.87 4.8 1 12.58 1 12.58s3.75-9 12.47-18.76c3.1-3.75 10.2-10.06 14.13-12.8 14.24-9.94 19.31-11.04 25.72-13.36 5.25-1.9 11.36-3.1 11.36-3.1s2.72-4.9 4.67-12.93c1.94-8.04 2.92-15.34 3.4-25.32.5-9.99-2.67-27.27-2.43-28.5.24-1.2 1.22-9.24 0-15.33s-2.68-10.23-3.16-11.93-1.46-5.84-1.22-9.5c.24-3.65-.98-12.9-.98-14.12s0-5.84-.73-9c-.72-3.17-2.19-7.55-2.19-7.55s1.22-1.95 1.95-3.41c.73-1.46.49-4.87.49-4.87s4.38-2.44 5.84-3.65c1.46-1.22 8.77-4.14 11.93-17.53 3.17-13.4-2.63-29.68-4.63-33.36zM73.12 207.76c8.67-11.17 19.55-16.45 19.55-16.45s-4.58 7.8-7.18 11-7.8 9.04-11.38 12.26-11.01 14.6-11.01 14.6 2.72-12 10.02-21.4zm21.9 1.86c-2.1 3.96-3.83 8.17-7.05 11.88s-8.79 8.41-13 11.5-12.5 10.03-12.5 10.03 3.35-6.19 6.07-9.78c4.79-6.3 14.39-12.95 17.32-15.59 6.07-5.44 8.91-9.65 8.91-9.65l1.98-2.1s.38-.25-1.73 3.7z"/><circle fill="#FFF" cx="182.31" cy="293.83" r="91.18"/><circle fill="#FFF" cx="182.1" cy="294.68" r="66.3"/><circle fill="#0064B0" cx="182.18" cy="294.01" r="88.44"/><path fill="#FFF" d="M241.38 265.07c11.02 20.5 8.7 50.1-6.03 68.36-17.4 22.9-46.06 31.43-73.1 23.6-23.76-6.2-43.9-31-46.06-55.2-3.01-27.72 11.1-53.63 35.73-66.12 19.98-10.93 49.25-8.6 67.59 4.3 9.21 6.12 16.96 15.5 21.87 25.06z"/><path fill="#0064B0" d="M202.29 245.01c-2.67 3.19-6.46 5.68-9.64 8.44-3.53-2.84-6.8-8.61-11.8-8-1.64.94-1.98 2.75-1.46 4.3 8.86 15.75 34 29.44 20.49 49.85a22.96 22.96 0 0 1-23 9.04c-6.1-1.3-12.48-5.94-15.06-11.8-2.75-5.25-2.75-13.17-.17-18.6l12.4 6.03c-.09 2.33-.26 5.17 1.37 7.06 1.47 1.64 3.2 2.67 5.17 2.84 2.33.18 4.13-.77 5.6-2.5 1.63-1.8 1.72-4.81 1.03-7.22-6.28-9.82-14.64-18.86-21.1-28.67-2.32-5.17-2.06-12.06 1.47-16.54 4.13-5.5 10.25-7.4 16.96-6.45 7.06 1.29 12.57 6.8 17.74 12.22z"/><path fill="#0064B0" d="M222.18 248.71c16.79 15.07 24.02 36 19.63 58.46-2.67 11.1-7.92 21.36-16.53 29.8-4.05-1.3-7.75-3.2-11.62-4.74 14.38-13.6 20.92-33.58 14.46-52.7a50.7 50.7 0 0 0-8.6-15.06h-1.04l-15.5 7.58-.32.17-7.94-10.25c9.12-4.48 17.99-9.47 27.46-13.26zm-58.72 10.76c5.68 7.32 11.28 14.64 16.96 21.87-11.8-5.42-24.02-11.02-35.99-16.87-2.58 2.15-4.22 5.5-5.94 8.43-8 14.9-6.11 36.69 3.87 50.03l8.53 9.47-11.63 5c-15.5-14.9-21.52-36.6-16.7-57.44 3.19-11.62 8.96-22.38 19.03-30.99l21.87 10.5z"/><path fill="#0064B0" d="M218.05 270.67c8.09 11.02 10.07 29.1 3.87 41.67-6.98 16.53-24.1 30.13-39.43 38.05-21.27-10.41-44.86-30.9-44-56.99.43-8.35 2.5-15.93 6.97-22.56l11.62 5.34a22.38 22.38 0 0 0-3.52 6.89c-6.8 17.99 4.56 34 17.99 45.8a46.04 46.04 0 0 0 10.5 6.46c16.8-7.92 31.54-25.27 30.23-44.69a22.74 22.74 0 0 0-6.2-14.2c3.7-2.15 7.92-4.05 11.97-5.77z"/><path fill-rule="evenodd" clip-rule="evenodd" fill="#0064B0" d="M130.9 361.48l-4.33-3.9 4.1-7.92-7.44 4.92-4.31-3.89 9.49-10.54 2.68 2.42-7.23 8.04 9.32-6.16 2.43 2.19-5.15 9.91 7.23-8.04 2.7 2.43zm-15.21-15.01l-6.8-9.73 2.47-1.73 4.27 6.08 1.84-1.29-3.95-5.65 2.37-1.65 3.95 5.64 2.29-1.6-4.38-6.26 2.63-1.84 6.93 9.89zm1.81-24.17l1.94 4-12.74 6.22-1.95-4zm-15.08 1.3l-1.82-6.32a7.92 7.92 0 0 1-.36-3.16 5.1 5.1 0 0 1 .9-2.32 6.2 6.2 0 0 1 1.87-1.71c.76-.47 1.61-.83 2.54-1.1a9.4 9.4 0 0 1 3.54-.47c.9.1 1.7.38 2.42.82.7.44 1.25.97 1.63 1.6.51.87.88 1.68 1.1 2.44l1.81 6.32-13.63 3.9zm1.86-5.13l7.45-2.14-.3-1.04c-.25-.9-.53-1.5-.83-1.82a2.1 2.1 0 0 0-1.27-.59 6.68 6.68 0 0 0-2.47.36c-1.44.42-2.36.94-2.76 1.57-.4.63-.43 1.5-.12 2.6l.3 1.06zm-6.25-12.02l-1.04-11.82 3.02-.27.65 7.4 2.24-.19-.6-6.87 2.88-.25.6 6.86 2.79-.24-.67-7.61 3.2-.28 1.05 12.03zm13.11-15.07l-14.04-1.97 1.03-7.31c.19-1.36.45-2.38.78-3.06.33-.69.84-1.2 1.53-1.56a3.87 3.87 0 0 1 2.36-.34 3.9 3.9 0 0 1 1.95.8c.51.4.9.93 1.17 1.57.17.4.29.94.34 1.62.25-.5.47-.86.68-1.07a6.49 6.49 0 0 1 1.79-1.1l4.37-1.54-.7 4.95-4.61 1.74c-.6.22-1 .44-1.2.65a1.9 1.9 0 0 0-.48 1.02l-.05.4 5.7.8-.62 4.4zm-7.73-5.58l.26-1.85c.03-.2.02-.6-.03-1.19-.02-.3-.13-.55-.34-.76a1.29 1.29 0 0 0-.77-.4c-.46-.06-.83.03-1.11.29-.28.26-.48.78-.6 1.58l-.26 1.93 2.85.4zm11.73-13.83l-1.3 4.24-13.56-4.14 1.3-4.25zm-.18-13.97l2.74-2.98c.86.7 1.49 1.47 1.89 2.29.4.82.59 1.69.55 2.6-.03.9-.33 1.93-.9 3.09a9.4 9.4 0 0 1-2.27 3.14 6.07 6.07 0 0 1-3.24 1.25 7.95 7.95 0 0 1-4.37-.93c-2.11-1.03-3.45-2.38-4.03-4.07-.59-1.69-.37-3.57.64-5.64.8-1.62 1.74-2.74 2.84-3.35a6.34 6.34 0 0 1 4-.61l-.94 3.89a2.54 2.54 0 0 0-2.9 1.41 2.6 2.6 0 0 0 .06 2.6c.36.62 1.1 1.21 2.25 1.77 1.41.69 2.49.95 3.23.77a2.5 2.5 0 0 0 1.67-1.44c.37-.77.44-1.44.2-2.03a4.3 4.3 0 0 0-1.42-1.76zm-3.18-11.24l2.85-3.39 3.8 3.19 3.11-3.71-3.8-3.19 2.86-3.4 10.86 9.11-2.86 3.41-4.39-3.69-3.11 3.71 4.39 3.68-2.85 3.4zm12.6-14.01l9.22-7.47 1.91 2.35-5.78 4.68 1.42 1.75 5.36-4.33 1.82 2.24-5.36 4.34 1.76 2.17 5.94-4.81 2.02 2.5-9.39 7.6zm19.88 2.62l-6.22-12.74 6.63-3.24a10.8 10.8 0 0 1 2.98-1.06c.75-.1 1.46.02 2.14.4.67.36 1.2.95 1.6 1.77.35.7.5 1.39.44 2.05a3.98 3.98 0 0 1-.65 1.86c-.24.37-.63.76-1.15 1.18.55-.07.97-.08 1.26-.03a4 4 0 0 1 .96.36c.45.2.77.38.95.52l3.73 2.75-4.5 2.2-4.03-2.86a3.3 3.3 0 0 0-1.2-.63 1.8 1.8 0 0 0-1.11.18l-.36.17 2.53 5.17-4 1.95zm.3-9.53l1.67-.82c.19-.09.51-.32.97-.69.24-.18.4-.41.45-.7.07-.3.03-.6-.1-.87a1.3 1.3 0 0 0-.86-.76c-.37-.09-.92.04-1.65.4l-1.75.85 1.27 2.59zm20.74-3.88l4.16-.77c.17.66.42 1.15.74 1.47.52.51 1.2.72 2.05.61a2.2 2.2 0 0 0 1.39-.6c.3-.34.43-.7.39-1.09a1.3 1.3 0 0 0-.6-.92 6.1 6.1 0 0 0-2.36-.54c-1.98-.19-3.42-.59-4.33-1.2a3.67 3.67 0 0 1-1.2-4.68c.35-.7.92-1.29 1.73-1.76.8-.47 1.95-.8 3.43-.98 1.82-.23 3.24-.06 4.28.5 1.04.54 1.74 1.54 2.1 2.97l-4.12.75a2.2 2.2 0 0 0-.87-1.3 2.24 2.24 0 0 0-1.5-.25c-.52.06-.89.22-1.12.47a.97.97 0 0 0-.29.83c.03.22.16.4.4.56.22.16.74.27 1.53.34 1.97.17 3.4.42 4.28.74a3.91 3.91 0 0 1 2.83 3.34c.11.9-.04 1.77-.45 2.6a4.8 4.8 0 0 1-1.9 2c-.86.5-1.97.83-3.35 1-2.42.3-4.15.04-5.2-.77a5.45 5.45 0 0 1-2.01-3.32zm14.82-11.15l4.62.32 2.51 10.4 3.88-9.95 4.48.31-6.29 13.77-4.79-.33zm23.94 10.59c.96-2.52 2.1-4.1 3.4-4.76 1.3-.65 2.88-.62 4.76.1.9.34 1.6.74 2.09 1.18a4.7 4.7 0 0 1 1.52 2.85c.06.46.06.98-.01 1.55-.13 1.08-.4 2.16-.81 3.23-.93 2.4-2.01 4-3.26 4.8-1.25.8-2.88.81-4.89.04-1.12-.43-1.96-.96-2.52-1.58s-.93-1.36-1.1-2.22a6.3 6.3 0 0 1 0-2.29 15 15 0 0 1 .81-2.9zm3.68 1.42c-.65 1.69-.94 2.9-.88 3.63.06.73.39 1.2.96 1.43.38.14.75.14 1.12-.02.39-.16.75-.5 1.1-1.01.35-.52.75-1.37 1.21-2.57.68-1.76.98-3 .9-3.71-.06-.73-.4-1.2-1-1.44-.61-.23-1.18-.1-1.69.42-.5.51-1.08 1.6-1.72 3.27zm15.53 16.04l-10.24-6.15a7.35 7.35 0 0 1 2.76-2.18c1.13-.53 2.87-.9 5.23-1.11 1.44-.14 2.41-.31 2.92-.52.51-.22.87-.5 1.07-.84.23-.37.27-.77.15-1.2a1.66 1.66 0 0 0-.8-1.02 1.71 1.71 0 0 0-1.31-.23c-.44.1-.91.47-1.42 1.1l-3.25-2.33a6.2 6.2 0 0 1 2.07-1.78 3.94 3.94 0 0 1 2.24-.32c.83.1 1.82.5 2.97 1.2a8.98 8.98 0 0 1 2.56 2.08 3.94 3.94 0 0 1 .27 4.43 4.45 4.45 0 0 1-1.94 1.73c-.84.41-2.08.67-3.73.78a14.52 14.52 0 0 0-3.23.41l5.33 3.2-1.65 2.75zm16.77-4.06l4.4 4.88a7.92 7.92 0 0 1 1.71 2.68c.28.83.35 1.66.22 2.48a6.18 6.18 0 0 1-.94 2.36 9.84 9.84 0 0 1-1.8 2.1 9.42 9.42 0 0 1-2.98 1.98c-.85.3-1.7.4-2.53.32a4.76 4.76 0 0 1-2.17-.73 10.37 10.37 0 0 1-2.05-1.7l-4.4-4.89 10.54-9.49zm.57 5.43l-5.75 5.19.72.8a4.6 4.6 0 0 0 1.55 1.27c.41.15.88.14 1.4-.03a6.67 6.67 0 0 0 2.06-1.4c1.11-1 1.71-1.88 1.8-2.62s-.27-1.53-1.04-2.39l-.74-.82zM256 256.7l2.08 3.9-7.46 3.97c-.74.39-1.5.64-2.29.76-.78.12-1.55.06-2.3-.18a4.94 4.94 0 0 1-1.87-1.01 8.98 8.98 0 0 1-1.87-2.52 19.9 19.9 0 0 1-.95-2.09 6.1 6.1 0 0 1-.46-2.08 5.3 5.3 0 0 1 1.37-3.52 8.36 8.36 0 0 1 1.92-1.5l7.47-3.96 2.07 3.9-7.64 4.06c-.69.37-1.12.84-1.3 1.43a2.4 2.4 0 0 0 .27 1.9c.36.67.83 1.1 1.4 1.28.59.18 1.23.09 1.92-.28l7.65-4.06zm-8.06 17.19l-1.44-4.2 13.4-4.62 1.45 4.2zm5.51.99l.99 4.1c-.65.2-1.13.48-1.43.82a2.35 2.35 0 0 0-.5 2.07c.1.63.33 1.08.67 1.36.36.29.72.4 1.1.33.37-.06.66-.28.9-.65.22-.37.36-1.16.4-2.38.1-1.98.42-3.45.98-4.38a3.45 3.45 0 0 1 2.48-1.71 3.7 3.7 0 0 1 2.14.27c.72.3 1.33.85 1.84 1.63.52.78.9 1.9 1.16 3.38.32 1.8.23 3.23-.27 4.3-.5 1.06-1.45 1.8-2.86 2.24l-.96-4.06c.6-.22 1.02-.54 1.24-.94.23-.4.29-.9.18-1.52-.09-.5-.27-.87-.53-1.09a.98.98 0 0 0-.84-.25c-.22.04-.4.18-.54.43-.15.23-.23.75-.26 1.55a18.39 18.39 0 0 1-.51 4.31 4.3 4.3 0 0 1-1.23 2.07c-.55.49-1.2.8-1.97.93-.9.16-1.76.06-2.6-.3s-1.55-.98-2.1-1.8a8.78 8.78 0 0 1-1.18-3.3c-.42-2.4-.26-4.14.5-5.23a5.46 5.46 0 0 1 3.2-2.18zm12 15.4l-.14 8.29c-.03 1.38-.38 2.43-1.07 3.16a3.27 3.27 0 0 1-2.54 1.07 3.16 3.16 0 0 1-2.14-.83c-.4-.36-.7-.88-.92-1.57a3.98 3.98 0 0 1-1.3 2.25c-.61.48-1.36.7-2.27.7a3.85 3.85 0 0 1-3.34-2c-.2-.38-.35-.94-.43-1.7-.11-.99-.17-1.65-.16-1.98l.13-7.64 14.18.25zm-5.64 4.37l-.03 1.92c-.01.7.1 1.17.32 1.45.23.27.57.42 1.02.42.41.01.74-.12.97-.39.24-.26.37-.73.38-1.4l.03-1.96-2.69-.04zm-5.57-.1l-.04 2.26c-.01.76.11 1.3.37 1.62.27.31.62.48 1.08.49.41 0 .75-.15 1-.46.27-.3.41-.84.43-1.61l.03-2.25-2.87-.05zm8.09 22.55l-1.07 4.28-8.2-2.04a7.03 7.03 0 0 1-2.21-.97 5.01 5.01 0 0 1-1.6-1.67 4.94 4.94 0 0 1-.7-2c-.1-.92 0-1.96.28-3.13.17-.67.4-1.4.7-2.18.29-.77.64-1.4 1.05-1.86a5.3 5.3 0 0 1 3.37-1.7c.95-.05 1.76.01 2.43.18l8.2 2.05-1.07 4.28-8.4-2.1a2.48 2.48 0 0 0-1.92.2c-.52.31-.88.85-1.06 1.6-.19.73-.12 1.36.19 1.88.3.53.85.9 1.61 1.08l8.4 2.1zm-15.53 2.8l12.63 6.43-3.35 6.58c-.62 1.22-1.2 2.1-1.73 2.64-.54.54-1.19.86-1.95.97a3.88 3.88 0 0 1-2.35-.45 3.95 3.95 0 0 1-1.59-1.38 3.98 3.98 0 0 1-.6-1.87 5.4 5.4 0 0 1 .21-1.64c-.4.39-.72.65-.99.79-.18.09-.5.19-.98.29-.48.1-.84.15-1.07.15l-4.63.05 2.27-4.46 4.93-.15a3.32 3.32 0 0 0 1.34-.21c.34-.19.6-.46.79-.82l.18-.35-5.13-2.61 2.02-3.97zm5.5 7.79l-.86 1.66c-.09.18-.2.56-.36 1.13-.08.3-.05.57.08.84.12.28.32.49.6.63.4.2.79.23 1.14.08.35-.15.71-.58 1.08-1.3l.88-1.73-2.57-1.31zm-12.89 14.01l2.26 1.9-4.4 5.24-4.63-3.88c.17-1.57.45-2.85.86-3.83.4-.97 1.05-1.99 1.93-3.05a8.82 8.82 0 0 1 3.34-2.63 5.96 5.96 0 0 1 3.57-.27 8.4 8.4 0 0 1 3.55 1.84c1.2 1 2.01 2.1 2.47 3.34.47 1.23.53 2.51.18 3.85a9.3 9.3 0 0 1-2 3.44 11.08 11.08 0 0 1-2.6 2.44c-.72.43-1.48.64-2.27.65a5.76 5.76 0 0 1-2.49-.56l2.17-3.75c.52.2 1.03.24 1.52.1a2.8 2.8 0 0 0 1.36-.96c.62-.74.86-1.55.72-2.43-.14-.86-.76-1.76-1.87-2.69-1.17-.98-2.2-1.47-3.08-1.44a3.1 3.1 0 0 0-2.32 1.23 4.7 4.7 0 0 0-.75 1.23c-.18.43-.33.98-.44 1.64l1.02.86 1.9-2.27z"/><path fill-rule="evenodd" clip-rule="evenodd" fill="#FFF" d="M130.9 361.48l-4.33-3.9 4.1-7.92-7.44 4.92-4.31-3.89 9.49-10.54 2.68 2.42-7.23 8.04 9.32-6.16 2.43 2.19-5.15 9.91 7.23-8.04 2.7 2.43zm-15.21-15.01l-6.8-9.73 2.47-1.73 4.27 6.08 1.84-1.29-3.95-5.65 2.37-1.65 3.95 5.64 2.29-1.6-4.38-6.26 2.63-1.84 6.93 9.89zm1.81-24.17l1.94 4-12.74 6.22-1.95-4zm-15.08 1.3l-1.82-6.32a7.92 7.92 0 0 1-.36-3.16 5.1 5.1 0 0 1 .9-2.32 6.2 6.2 0 0 1 1.87-1.71c.76-.47 1.61-.83 2.54-1.1a9.4 9.4 0 0 1 3.54-.47c.9.1 1.7.38 2.42.82.7.44 1.25.97 1.63 1.6.51.87.88 1.68 1.1 2.44l1.81 6.32-13.63 3.9zm1.86-5.13l7.45-2.14-.3-1.04c-.25-.9-.53-1.5-.83-1.82a2.1 2.1 0 0 0-1.27-.59 6.68 6.68 0 0 0-2.47.36c-1.44.42-2.36.94-2.76 1.57-.4.63-.43 1.5-.12 2.6l.3 1.06zm-6.25-12.02l-1.04-11.82 3.02-.27.65 7.4 2.24-.19-.6-6.87 2.88-.25.6 6.86 2.79-.24-.67-7.61 3.2-.28 1.05 12.03zm13.11-15.07l-14.04-1.97 1.03-7.31c.19-1.36.45-2.38.78-3.06.33-.69.84-1.2 1.53-1.56a3.87 3.87 0 0 1 2.36-.34 3.9 3.9 0 0 1 1.95.8c.51.4.9.93 1.17 1.57.17.4.29.94.34 1.62.25-.5.47-.86.68-1.07a6.49 6.49 0 0 1 1.79-1.1l4.37-1.54-.7 4.95-4.61 1.74c-.6.22-1 .44-1.2.65a1.9 1.9 0 0 0-.48 1.02l-.05.4 5.7.8-.62 4.4zm-7.73-5.58l.26-1.85c.03-.2.02-.6-.03-1.19-.02-.3-.13-.55-.34-.76a1.29 1.29 0 0 0-.77-.4c-.46-.06-.83.03-1.11.29-.28.26-.48.78-.6 1.58l-.26 1.93 2.85.4zm11.73-13.83l-1.3 4.24-13.56-4.14 1.3-4.25zm-.18-13.97l2.74-2.98c.86.7 1.49 1.47 1.89 2.29.4.82.59 1.69.55 2.6-.03.9-.33 1.93-.9 3.09a9.4 9.4 0 0 1-2.27 3.14 6.07 6.07 0 0 1-3.24 1.25 7.95 7.95 0 0 1-4.37-.93c-2.11-1.03-3.45-2.38-4.03-4.07-.59-1.69-.37-3.57.64-5.64.8-1.62 1.74-2.74 2.84-3.35a6.34 6.34 0 0 1 4-.61l-.94 3.89a2.54 2.54 0 0 0-2.9 1.41 2.6 2.6 0 0 0 .06 2.6c.36.62 1.1 1.21 2.25 1.77 1.41.69 2.49.95 3.23.77a2.5 2.5 0 0 0 1.67-1.44c.37-.77.44-1.44.2-2.03a4.3 4.3 0 0 0-1.42-1.76zm-3.18-11.24l2.85-3.39 3.8 3.19 3.11-3.71-3.8-3.19 2.86-3.4 10.86 9.11-2.86 3.41-4.39-3.69-3.11 3.71 4.39 3.68-2.85 3.4zm12.6-14.01l9.22-7.47 1.91 2.35-5.78 4.68 1.42 1.75 5.36-4.33 1.82 2.24-5.36 4.34 1.76 2.17 5.94-4.81 2.02 2.5-9.39 7.6zm19.88 2.62l-6.22-12.74 6.63-3.24a10.8 10.8 0 0 1 2.98-1.06c.75-.1 1.46.02 2.14.4.67.36 1.2.95 1.6 1.77.35.7.5 1.39.44 2.05a3.98 3.98 0 0 1-.65 1.86c-.24.37-.63.76-1.15 1.18.55-.07.97-.08 1.26-.03a4 4 0 0 1 .96.36c.45.2.77.38.95.52l3.73 2.75-4.5 2.2-4.03-2.86a3.3 3.3 0 0 0-1.2-.63 1.8 1.8 0 0 0-1.11.18l-.36.17 2.53 5.17-4 1.95zm.3-9.53l1.67-.82c.19-.09.51-.32.97-.69.24-.18.4-.41.45-.7.07-.3.03-.6-.1-.87a1.3 1.3 0 0 0-.86-.76c-.37-.09-.92.04-1.65.4l-1.75.85 1.27 2.59zm20.74-3.88l4.16-.77c.17.66.42 1.15.74 1.47.52.51 1.2.72 2.05.61a2.2 2.2 0 0 0 1.39-.6c.3-.34.43-.7.39-1.09a1.3 1.3 0 0 0-.6-.92 6.1 6.1 0 0 0-2.36-.54c-1.98-.19-3.42-.59-4.33-1.2a3.67 3.67 0 0 1-1.2-4.68c.35-.7.92-1.29 1.73-1.76.8-.47 1.95-.8 3.43-.98 1.82-.23 3.24-.06 4.28.5 1.04.54 1.74 1.54 2.1 2.97l-4.12.75a2.2 2.2 0 0 0-.87-1.3 2.24 2.24 0 0 0-1.5-.25c-.52.06-.89.22-1.12.47a.97.97 0 0 0-.29.83c.03.22.16.4.4.56.22.16.74.27 1.53.34 1.97.17 3.4.42 4.28.74a3.91 3.91 0 0 1 2.83 3.34c.11.9-.04 1.77-.45 2.6a4.8 4.8 0 0 1-1.9 2c-.86.5-1.97.83-3.35 1-2.42.3-4.15.04-5.2-.77a5.45 5.45 0 0 1-2.01-3.32zm14.82-11.15l4.62.32 2.51 10.4 3.88-9.95 4.48.31-6.29 13.77-4.79-.33zm23.94 10.59c.96-2.52 2.1-4.1 3.4-4.76 1.3-.65 2.88-.62 4.76.1.9.34 1.6.74 2.09 1.18a4.7 4.7 0 0 1 1.52 2.85c.06.46.06.98-.01 1.55-.13 1.08-.4 2.16-.81 3.23-.93 2.4-2.01 4-3.26 4.8-1.25.8-2.88.81-4.89.04-1.12-.43-1.96-.96-2.52-1.58s-.93-1.36-1.1-2.22a6.3 6.3 0 0 1 0-2.29 15 15 0 0 1 .81-2.9zm3.68 1.42c-.65 1.69-.94 2.9-.88 3.63.06.73.39 1.2.96 1.43.38.14.75.14 1.12-.02.39-.16.75-.5 1.1-1.01.35-.52.75-1.37 1.21-2.57.68-1.76.98-3 .9-3.71-.06-.73-.4-1.2-1-1.44-.61-.23-1.18-.1-1.69.42-.5.51-1.08 1.6-1.72 3.27zm15.53 16.04l-10.24-6.15a7.35 7.35 0 0 1 2.76-2.18c1.13-.53 2.87-.9 5.23-1.11 1.44-.14 2.41-.31 2.92-.52.51-.22.87-.5 1.07-.84.23-.37.27-.77.15-1.2a1.66 1.66 0 0 0-.8-1.02 1.71 1.71 0 0 0-1.31-.23c-.44.1-.91.47-1.42 1.1l-3.25-2.33a6.2 6.2 0 0 1 2.07-1.78 3.94 3.94 0 0 1 2.24-.32c.83.1 1.82.5 2.97 1.2a8.98 8.98 0 0 1 2.56 2.08 3.94 3.94 0 0 1 .27 4.43 4.45 4.45 0 0 1-1.94 1.73c-.84.41-2.08.67-3.73.78a14.52 14.52 0 0 0-3.23.41l5.33 3.2-1.65 2.75zm16.77-4.06l4.4 4.88a7.92 7.92 0 0 1 1.71 2.68c.28.83.35 1.66.22 2.48a6.18 6.18 0 0 1-.94 2.36 9.84 9.84 0 0 1-1.8 2.1 9.42 9.42 0 0 1-2.98 1.98c-.85.3-1.7.4-2.53.32a4.76 4.76 0 0 1-2.17-.73 10.37 10.37 0 0 1-2.05-1.7l-4.4-4.89 10.54-9.49zm.57 5.43l-5.75 5.19.72.8a4.6 4.6 0 0 0 1.55 1.27c.41.15.88.14 1.4-.03a6.67 6.67 0 0 0 2.06-1.4c1.11-1 1.71-1.88 1.8-2.62s-.27-1.53-1.04-2.39l-.74-.82zM256 256.7l2.08 3.9-7.46 3.97c-.74.39-1.5.64-2.29.76-.78.12-1.55.06-2.3-.18a4.94 4.94 0 0 1-1.87-1.01 8.98 8.98 0 0 1-1.87-2.52 19.9 19.9 0 0 1-.95-2.09 6.1 6.1 0 0 1-.46-2.08 5.3 5.3 0 0 1 1.37-3.52 8.36 8.36 0 0 1 1.92-1.5l7.47-3.96 2.07 3.9-7.64 4.06c-.69.37-1.12.84-1.3 1.43a2.4 2.4 0 0 0 .27 1.9c.36.67.83 1.1 1.4 1.28.59.18 1.23.09 1.92-.28l7.65-4.06zm-8.06 17.19l-1.44-4.2 13.4-4.62 1.45 4.2zm5.51.99l.99 4.1c-.65.2-1.13.48-1.43.82a2.35 2.35 0 0 0-.5 2.07c.1.63.33 1.08.67 1.36.36.29.72.4 1.1.33.37-.06.66-.28.9-.65.22-.37.36-1.16.4-2.38.1-1.98.42-3.45.98-4.38a3.45 3.45 0 0 1 2.48-1.71 3.7 3.7 0 0 1 2.14.27c.72.3 1.33.85 1.84 1.63.52.78.9 1.9 1.16 3.38.32 1.8.23 3.23-.27 4.3-.5 1.06-1.45 1.8-2.86 2.24l-.96-4.06c.6-.22 1.02-.54 1.24-.94.23-.4.29-.9.18-1.52-.09-.5-.27-.87-.53-1.09a.98.98 0 0 0-.84-.25c-.22.04-.4.18-.54.43-.15.23-.23.75-.26 1.55a18.39 18.39 0 0 1-.51 4.31 4.3 4.3 0 0 1-1.23 2.07c-.55.49-1.2.8-1.97.93-.9.16-1.76.06-2.6-.3s-1.55-.98-2.1-1.8a8.78 8.78 0 0 1-1.18-3.3c-.42-2.4-.26-4.14.5-5.23a5.46 5.46 0 0 1 3.2-2.18zm12 15.4l-.14 8.29c-.03 1.38-.38 2.43-1.07 3.16a3.27 3.27 0 0 1-2.54 1.07 3.16 3.16 0 0 1-2.14-.83c-.4-.36-.7-.88-.92-1.57a3.98 3.98 0 0 1-1.3 2.25c-.61.48-1.36.7-2.27.7a3.85 3.85 0 0 1-3.34-2c-.2-.38-.35-.94-.43-1.7-.11-.99-.17-1.65-.16-1.98l.13-7.64 14.18.25zm-5.64 4.37l-.03 1.92c-.01.7.1 1.17.32 1.45.23.27.57.42 1.02.42.41.01.74-.12.97-.39.24-.26.37-.73.38-1.4l.03-1.96-2.69-.04zm-5.57-.1l-.04 2.26c-.01.76.11 1.3.37 1.62.27.31.62.48 1.08.49.41 0 .75-.15 1-.46.27-.3.41-.84.43-1.61l.03-2.25-2.87-.05zm8.09 22.55l-1.07 4.28-8.2-2.04a7.03 7.03 0 0 1-2.21-.97 5.01 5.01 0 0 1-1.6-1.67 4.94 4.94 0 0 1-.7-2c-.1-.92 0-1.96.28-3.13.17-.67.4-1.4.7-2.18.29-.77.64-1.4 1.05-1.86a5.3 5.3 0 0 1 3.37-1.7c.95-.05 1.76.01 2.43.18l8.2 2.05-1.07 4.28-8.4-2.1a2.48 2.48 0 0 0-1.92.2c-.52.31-.88.85-1.06 1.6-.19.73-.12 1.36.19 1.88.3.53.85.9 1.61 1.08l8.4 2.1zm-15.53 2.8l12.63 6.43-3.35 6.58c-.62 1.22-1.2 2.1-1.73 2.64-.54.54-1.19.86-1.95.97a3.88 3.88 0 0 1-2.35-.45 3.95 3.95 0 0 1-1.59-1.38 3.98 3.98 0 0 1-.6-1.87 5.4 5.4 0 0 1 .21-1.64c-.4.39-.72.65-.99.79-.18.09-.5.19-.98.29-.48.1-.84.15-1.07.15l-4.63.05 2.27-4.46 4.93-.15a3.32 3.32 0 0 0 1.34-.21c.34-.19.6-.46.79-.82l.18-.35-5.13-2.61 2.02-3.97zm5.5 7.79l-.86 1.66c-.09.18-.2.56-.36 1.13-.08.3-.05.57.08.84.12.28.32.49.6.63.4.2.79.23 1.14.08.35-.15.71-.58 1.08-1.3l.88-1.73-2.57-1.31zm-12.89 14.01l2.26 1.9-4.4 5.24-4.63-3.88c.17-1.57.45-2.85.86-3.83.4-.97 1.05-1.99 1.93-3.05a8.82 8.82 0 0 1 3.34-2.63 5.96 5.96 0 0 1 3.57-.27 8.4 8.4 0 0 1 3.55 1.84c1.2 1 2.01 2.1 2.47 3.34.47 1.23.53 2.51.18 3.85a9.3 9.3 0 0 1-2 3.44 11.08 11.08 0 0 1-2.6 2.44c-.72.43-1.48.64-2.27.65a5.76 5.76 0 0 1-2.49-.56l2.17-3.75c.52.2 1.03.24 1.52.1a2.8 2.8 0 0 0 1.36-.96c.62-.74.86-1.55.72-2.43-.14-.86-.76-1.76-1.87-2.69-1.17-.98-2.2-1.47-3.08-1.44a3.1 3.1 0 0 0-2.32 1.23 4.7 4.7 0 0 0-.75 1.23c-.18.43-.33.98-.44 1.64l1.02.86 1.9-2.27z"/><path fill="#FFF" d="M188.3 371.46a5.78 5.78 0 1 1-11.57 0 5.78 5.78 0 0 1 11.56 0z"/><path fill="#0064B0" d="M130.24 6.35A89.83 89.83 0 0 1 137.52 38l7.2 6.25c2.17-1.22 2.69-3.9 3.55-5.99 3.21-9.36 2.7-21.07 13.1-26.7l10.4-7.29c2.52 0 3.13 3.38 4.43 5.2 3.9 11.36 7.37 27.67-.87 38.16-3.73 5.46-9.45 8.24-14.14 11.8.79 3.2-.25 6.06-2.25 8.32-.34 3.12 1.74 5.2 2.26 7.98-.1 3.2 2 6.33.6 9.36 2.08 8.5-.86 18.3 3.39 26.02 1.12 8.06 4.07 16.74 1.38 25.15 3.04 16.13 5.12 35.03.7 51.16-.96 3.56-1.39 7.55-2.95 10.67h-.61c2.95-15.44 5.03-32.35 1.48-47.87-.35-.26-.52-.87-1.04-.6a636.2 636.2 0 0 0-5.64 13.7c.52-16.14 7.37-30.7 5.37-46.84l-1.2 3.3c0-3.73-.44-7.8-2.96-10.75-1.38 3.38-1.56 7.71-1.47 12.05.26 11.97-.7 23.33-3.9 33.9 1.64-13.87-2.87-25.66-2.95-39.1a3.1 3.1 0 0 0-1.65-2.34h-3.3c-9.36 6.67-19.77 15.09-18.12 27.92.87 8.15 9.89 12.83 9.2 21.68.08 6.42-1.83 12.49-3.82 18.3-2.52 5.64-5.81 13.61-13.1 14.57-7.02 1.47-16.13 2.25-21.85-3.12-1.82-2.17-3.3-4.51-3.56-7.29-4.42-7.63-10.5-16.13-6.85-25.58 1.56-4.68 5.46-8.42 6.85-13.18 2.6-4.34 5.46-8.76 3.99-14.57 1.82-.09 1.82-2.08.87-3.12l-.44-.35c-6.24 3.56-5.2 11.53-7.28 16.65l-2.95-11.7c2.69-3.39 4.6-7.3 7.29-10.41.86-.09 1.56 1.04 2.34.6-1.13-2.68-1.91-6.41-4.17-8.5-2.6 4-4.25 9.11-5.9 12.93-1.9-9.72 3.65-16.91 1.74-26.89 1.3.18 3.3 0 4.16-1.47 0-.87.7-1.48 1.05-2.26 1.12 6.77 4.33 12.67 6.24 19.17.52 4.85.43 9.97 1.65 14.57.86-.35 1.99-1.3 2.08-2.34-1.04-12.15-4.94-23.16-8.76-34.09-.52-.69-.7-1.56-1.48-2.08-1.64 1.65-.6 7.03-4.77 5.64-1.73-1.21-.95-3.47-2.25-4.86l-4.86 1.48c.44-1.56 1.65-2.86 2.34-4.34-.43-1.73-.95-3.99-.43-5.64l2.25-2.08c1.83-6.07 6.42-10.92 7.12-17.51l-.61-2.26c-16.22-10.14-27.4-26.53-24.8-45.78.86-4.17 2.08-8.42 5.2-11.45a33.2 33.2 0 0 1 19.34 8.76l.44.44c8.5 8.15 13 18.29 18.72 27.83 2.34-14.57 4.25-29.4 14.4-40.76 1.65.6 1.93 2.52 2.52 3.9z"/><path fill="#FFF" d="M131.62 45.29l-4.33-7.9c-3.3-2.5-7.03-4.24-9.8-7.45.7-4.42 1.9-8.5 3.38-12.49 7.8 6.94 12.23 16.74 10.75 27.84zm5.64-4.59c5.38 7.62 13.44 10.31 19.17 16.47l2.08 7.46-.44.7c-2.86-6-8.06-13.02-14.57-15.44-1.04.52-.78 2.08-.17 2.68.26 1.65 2.69 2.34 2.43 4.17a15.06 15.06 0 0 1 5.2 7.1c3.3 4.08 7.29 7.81 8.59 12.67l-.44.43c-3.64-6.15-9.97-11.62-12.66-18.3-2.77-4.24-6.94-6.33-11.01-8.75-2.6-1.91-.44-5.3-1.04-7.72.6-.78 1.56-1.91 2.86-1.48zm-25.41 8.32c-4.16 4.42-7.89 9.28-12.49 13.18 1.48-5.29 6.07-11.19 11.28-14.22h1.64l-.43 1.04zm1.48 5.2c-.7 4.86-6.34 7.46-9.98 10.23l-6.07 4.77c1.82-4.16 5.81-7.2 9.02-10.58 2.34-1.47 4.34-3.81 7.03-4.42zm37.63 17.69c3.12 2.95 5.2 6.68 9.02 8.33l1.82 2.51c-7.1 5.9 2.35 13.88-1.65 21.42l-1.2 4.16c-3.82-3.46-7.73-8.15-13.36-6.84-7.9 4.16-14.31 12.48-19.52 19.6l-5.2 8.06c-.35-5.38 3.99-9.8 5.98-14.75 4.51-7.63 11.63-15.35 18.74-20.64 2.43-.08 4.68.1 6.41 1.48 2 1.82 2.09 4.34 3.13 6.5 6.76-4.42 1.04-13.1 3.38-19.6-.26-.26-.44-.52-.87-.43-1.13 3.47-5.03 5.98-7.72 8.15.35-4.42 7.9-8.32 2.78-13.1a178.37 178.37 0 0 0-22.12-17.51c8.41.44 14.23 6.94 20.38 12.66zm-43.62 51.69c-1.9-10.58-.43-22.46-2.95-32.7 0-8.4 5.03-14.65 9.37-21.24-4.68 16.9-6.5 35.81-6.42 53.94z"/><path fill="#FFF" d="M143.76 85.1c-.95 7.8-10.4 11.61-14.22 18.3l-4.94 5.97c3.3-9.02 4.6-19.86 11.01-28.1.6-3.72-.6-7.28-1.65-10.57 5.38 2.77 9.98 7.97 9.8 14.4zm-27.74 28.7c.08 4.16.17 8.84-1.65 12.49-1.82-19.08 2.34-38.07 7.71-55.42 1.74 14.83-1.56 29.66-6.06 42.93zM94.6 89c-2.35-.1-4.34-2-5.64-3.73 4.07-4.08 7.28-9.1 12.14-12.06-3.47 4.77-8.07 9.72-6.5 15.79z"/><path fill="#0064B0" d="M149.57 138.95a8.98 8.98 0 0 1-1.47 6.06l1.22.79c1.56 8.5-4.43 14.4-8.5 20.81.34-5.03 4.85-9.28 6.41-14.3-.08-.7.18-1.57-.17-2.09h-.6c-3.04 3.03-4.52 6.68-6.51 10.15 1.04-3.82 2.86-9.2 2.95-14.31-3.47-4.86-5.55-10.24-8.93-15-.1-3.13 2.42-5.99 5.2-7.3 3.2 5.04 8.32 9.55 10.4 15.19zm3.91 26.62c-1.48 13.7-2.32 30.12-9.51 41.47-1.77 1.55-4.94 2.6-8.06 4.53-20.14 10.76-28.01 22.81-34.99 33.66-.22-.88-.25-1.28-.44-2.64-.33-18.88 20.22-29.93 31.15-45.98 3.81-5.37 7.54-10.66 9.8-16.65-2.26.44-4.25 2.6-6.42 4v-1.92c7.2-5.37 10.4-14.22 18.04-18.12l.43 1.65zm-59.93 22.11c-11.18 7.81-24.37 17.6-28.88 30.96-1.47 3.82-2.51 7.8-3.81 11.7-.6-20.02 11.36-38.58 29.14-48.73l3.55 6.07zm6.25 9.37c-1.48 2.77-4.51 5.03-5.38 8.06-8.67 13.1-23.94 19.52-31.22 33.13l-3.99 6.68c2.95-21.34 26.37-34.43 35.82-53.51 1.12 2.08 2.94 3.82 4.77 5.64zm23.93.43c-11.45 15-23.67 31.83-39.54 42.84-10.67 7.37-25.07 11.19-30.96 24.72 2.69-25.15 34.17-30.7 42.84-52.99 2.95-4.33 5.55-8.85 8.93-12.92 6.24 1.39 13.1.26 18.73-1.65zm-29.75 61.63s-1.8 7.8-4.35 12.82c-7.83 15.41-27.13 17.56-38.14 31.44l-4.34 5.8c5.3-12.4 11.2-25.05 19.17-36.59 7.63-9.1 17.78-17.6 22.03-28.36 3.33-5.27 5.98-7.8 9.62-11.01-3.3 7.11-2.16 16.75-3.99 25.9z"/><path fill="#0064B0" d="M84.9 172.33c1.75 2.13 2.13 4.65 3.3 6.98-28.5 13.57-38.7 44.56-42.84 73.07-1.2 8.22-1.32 12.55-.58 20.93-10.28-36.05 3.68-71.52 26.55-98.66-8.91 2.33-17.25 12.22-21.9 20.55-11.05 18.61-20.74 38.38-18.61 61.83-9.3-26.94-.2-59.3 20.16-80.05-13.18 3.68-25.78 18.03-33.15 29.85C9.5 220.98 3.7 237.65 2.91 253.74c-5.24-32.76 6.4-65.9 34.9-84.51 14.14-7.56 34.1-4.65 47.1 3.1z"/></svg>