<svg version="1.1" xmlns="http://www.w3.org/2000/svg" viewBox="0 0 63 32"><path fill="#fff" d="M46.34 0v9.54c.4.18.94.45 1.34.62v-.13c0-1.46.44-1.29 1.42-1.73.26-.09.3-.58.7-.62.5-.05 1.56.13 2 .35.27.14.31.31.45.58.09.27.57.44.7.76.23.62 0 1.46-.66 1.68-.22.1-1.24.05-1.24.05v.97s.22.1.3.1c1.7.44 10.97 3.23 11.2 3.72.04.13-.1.13-.1.13-.22.05-6.08-1.33-7.14-1.5-1.24-.23-2.22-.45-3.82-.67v.09c0 .48-.09.48-.53.66v.1c.53.08 2.22.35 2.57.61.4.27 1.33-.04 2 .85.18.22.18 1.2 0 1.46-.27.4-.58.22-.93.27-.23.04-.36.26-.54.35s-.44.05-.66.09-.67-.44-1.02-.67c-.18-.13-.36-.04-.58-.08-.27-.1-.49-.4-.71-.54-.13-.09-.49-.04-.62.05-.89.53-3.2 0-4.13-.58l.04 5.77s0 .97-.57 1.95C42.97 29.11 36.98 32 31.34 32h-.09c-5.64 0-11.63-2.8-14.47-7.68-.62-.98-.62-2.04-.62-2.04l.04-5.77c-.88.58-3.24 1.1-4.12.58-.14-.1-.5-.1-.62-.05-.27.13-.45.45-.72.53-.17.05-.4-.04-.57.1-.36.22-.53.7-1.02.66-.22 0-.5.04-.67-.09-.18-.09-.31-.31-.53-.35-.4-.05-.67.13-.93-.27-.18-.22-.18-1.2 0-1.47.66-.88 1.6-.57 2-.84.35-.26 2.04-.49 2.57-.62v-.09c-.45-.13-.54-.13-.54-.66v-.1c-1.6.23-2.57.45-3.81.67-1.11.22-6.93 1.56-7.15 1.51 0 0-.13-.04-.09-.13.22-.53 9.5-3.29 11.19-3.73.09-.04.3-.09.3-.09v-.97s-1.01.04-1.24-.05c-.62-.26-.88-1.1-.66-1.69.13-.3.62-.53.7-.75.1-.27.19-.44.45-.58.45-.22 1.51-.4 2-.35.4.04.49.49.7.62.99.44 1.43.22 1.43 1.73v.13c.4-.17.93-.44 1.33-.62V0h30.14z"/><path fill="#001f47" d="M37.73 24.19l.54.84-.36.27-1.2-3.77-.3-.45-1.34.84.85 1.34.48-.32-.53-.84.36-.22 1.2 3.77.3.45 1.34-.85-.85-1.33-.49.27zm4.7-3.69l-1.68-1.06-.4.67.5.3.12-.17 1.38.89-.22.35-3.33-2.04.22-.36.67.4.3-.48-.48-.32a.71.71 0 0 0-.4-.13.78.78 0 0 0-.67.36.81.81 0 0 0 .27 1.1l2.93 1.87a.7.7 0 0 0 .4.13.8.8 0 0 0 .67-.35.9.9 0 0 0-.27-1.16zm-8.16 4l-.48-1.55.44-.14.49 1.56-.45.13zm.5-1.86c-.1-.23-.28-.4-.54-.4-.05 0-.1 0-.18.04l-.98.31 1.42 4.7v.05l.54-.18-.62-2.08.44-.14c.13-.04.27-.13.31-.26a.43.43 0 0 0 .05-.4l-.45-1.64zm2.74-2.49l-.4.4 3.47 3.5.4-.4-3.47-3.5zm-7.99 2.93l-.44 3.86a.5.5 0 0 0 .49.58l1.02.13.09-.58-1.02-.13.17-1.6.76.1.09-.59-.76-.04.18-1.6 1.02.13.1-.57-1.03-.13c-.35-.05-.62.17-.67.44zM27.88 22l-1.6 4.7 1.51.54.54-1.5-.54-.18-.3.97-.4-.13 1.41-4.13-.62-.27zm3.9.71l.45 4.93.58-.04-.45-4.93-.57.04z"/><path fill="#001f47" d="M18.38 23.97c2.93 4.35 7.73 6.48 12.92 6.48 5.15 0 9.98-2.13 12.87-6.48v-.05c.44-.75.62-1.24.62-2.84v-4.21H44v4.21c0 1.51-.18 1.82-.53 2.44-2.66 3.95-7.15 6.13-12.25 6.13s-9.59-2.18-12.25-6.13c-.36-.62-.53-.97-.53-2.44v-4.21h-.8v4.21c.13 1.6.3 2.13.75 2.89zm-.84-15.05V1.33h27.47v7.6l.45.21V.9H17.14v8.25l.4-.22z"/><path fill="#001f47" d="M17.76 1.5v7.33l.76-.35V2.3h25.52v6.17l.8.35V1.51H17.76zm27.25 15.41v4.22c0 1.64-.17 2.13-.66 2.93v.08c-2.93 4.4-7.81 6.57-13.05 6.57s-10.12-2.17-13.05-6.57v-.09c-.44-.8-.67-1.28-.67-2.92V16.9h-.44v4.22c0 1.73.22 2.3.7 3.15l.05.04.05.05c3.02 4.48 8.03 6.74 13.4 6.74s10.39-2.26 13.4-6.74l.1-.1c.48-.84.7-1.41.7-3.14V16.9h-.53z"/><path fill="#001f47" d="M31.25 5.06c.94 0 1.87.18 2.71.53-.04.14-.13.54-.4 1.02-1.5-.17-3.2-.04-3.2-.04L29 5.42a7.55 7.55 0 0 1 2.26-.36z"/><path fill="#dadada" d="M37.65 15.62c-.58-.13-1.07-.4-1.65-.57-.17.08-.3.17-.4.22a7.69 7.69 0 0 1-10.2 1.15 7.48 7.48 0 0 0 5.41 3.02h.27a7.4 7.4 0 0 0 3.9-1.11 6.05 6.05 0 0 0 2.67-2.7z"/><path fill="#001f47" d="M33.92 11.18c.35.8.84 1.6 1.15 2.13.4-.62.49-1.06.84-2.13.14-.4.67-.97 1.16-1.46-.76-.49-1.73-.93-1.73-.93-.76 1.06-1.42 2.4-1.42 2.4zm-7.55-4.21a6.75 6.75 0 0 0-1.55 2.13c.09.09.18.13.26.22.05-.09.14-.13.18-.22a16 16 0 0 1 1.11-2.13zm4.44 4.26S29.92 9.8 29 8.74c0 0-2 .9-2.7 1.3 0 0-.05.26-.05.66.44.75.67 1.55 1.2 2.7.13.1.22.23.35.31l1.33.36s1.25-2 1.69-2.84zm-.18 5.37l3.11-.09.62 1.69c-1.2.7-2.62 1.06-2.62 1.06-1.5-.3-2.35-.97-2.35-.97l1.24-1.7zm-5.1-1.24c-.27.09-.53.22-.67.26h-.04a5.9 5.9 0 0 0 1.91 2.13c.09-.04.13-.13.22-.17 0 0-.89-1.3-1.42-2.22z"/><path fill="#dd0741" d="M25.48 14.51c-.08 0-.26.05-.3 0-.05-.09.04-.17.08-.26.1-.14.22-.14.4-.14.05.05.05.05.05.1-.1.08-.14.22-.23.3zm-3.46 1.42c-.04 0-.09-.04-.09-.09.1-.26.23-.66 0-.97l-.3-.67c.04-.09.13-.09.22-.13.04 0 .13.04.13.13l.35.84c.14.4-.09.71-.3.9zm-7.05-.22l-1.34.36c-.04 0-.09 0-.09-.05s.05-.13.14-.13c.35-.09.66-.13.97-.18.23-.04.27-.04.45-.04l-.14.04zm9.54-5.2l-3.95.59.18-.1 3.86-.61c.04 0 .08 0 .13.04 0 .09-.18.09-.22.09zm-4.48-.7c.08-.09.17-.13.26-.22.14 0 .18.04.31 0 .27-.1 1.42-.4 1.65-.36 0 .1-.1.1-.14.1a11 11 0 0 1-2.08.48zm8.16 4.84c-.3-.23-.49-.54-.7-.8-.1-.1-.23-.18-.32-.27-.04-.04-.4-.8-.44-.93l-.1-.04c-.61.04-1.23.04-1.86.04-.26 0-.62.04-.88.04-.05 0-.05-.04-.05-.09.58-.22 1.69.14 2.09-.44.04-.09.04-.22.13-.22a.9.9 0 0 0 .36.09l.04-.1c-.09-.4-.18-.8-.44-1.1a9.58 9.58 0 0 0-1.96-1.87c-.26-.13-.57-.57-.66-.4 0 .05-.05.1-.05.14-.26.04-.22-.4-.57-.62a1.7 1.7 0 0 0-1.16-.23c-.49.1-.93.36-1.37.58-.94.49-1.87.93-2.8 1.42l-1.33.67c-.09.04-.27.04-.31.18-.05.17.09.4.22.48.31.18.75-.04 1.02-.13l.04.04c-.22.27-.44.27-.7.32-.23.04-.45.17-.72.22l-.93.26c-.13.05-.35.1-.3.27-.05.09-.19.09-.27.09-1.03.18-2.05.44-3.07.66-.62.14-1.24.27-1.9.45-2.09.53-4.18 1.06-6.26 1.69-.22.04-1.29.35-1.38.44.13.04 3.42-.84 3.86-.98 3.06-.75 6.13-1.28 9.23-1.82 2.93-.48 5.9-.88 8.84-1.28.53-.05 1.02-.14 1.55-.18.31-.05.4.09.62.31 0 .13-.62.09-.75.13v-.09a.92.92 0 0 0 .26-.17l-.04-.1c-1.07.1-2.18.32-3.2.45-1.64.27-3.28.49-4.88.8-1.11.18-2.18.49-3.24.67v.04c1.95-.22 3.9-.67 5.86-.98v.05c-.49.13-.98.22-1.47.35-2.22.54-4.43.98-6.65 1.51l1.2-.13c.13.09-.05.27.04.44.13.32.4 0 .4.18 0 .05-.09.27-.13.31-.9.1-1.78.36-2.67.5v.08h.58l.04.04c0 .14-.22.1-.3.1-.32.04-.63.13-.94.17-.7.13-.62.67-1.1.8-.05 0-.1.04-.14.09 0 .18.26-.09.35.09-.04.22-.17.4-.09.62.05.09.1.18.18.18.4.13.58-.62.84-.8.23-.13.5.13.76 0l.49-.27c.18-.09.4-.49.62-.44.18.04.26.3.57.35.5.05 1.03.05 1.51 0a6.9 6.9 0 0 0 2.8-1.06c-.09-.22-.76-.05-.93 0 .13-.31-.05-.49.13-.53l.71-.1c.22 0 .4-.08.62-.08s.45 0 .67-.05c.13 0 .35-.04.4-.17 0-.1-.1-.23 0-.32.09-.13.3-.13.44-.17.18-.1.31-.22.53-.27.23.05.05.4.27.45s.8-.23.93-.05c0 .09-.09.27.05.31.13.14.35.14.48.31.18.23.5.58.4.9s-.8.66-1.1.48c-.19-.13-.19-.36-.4-.31-.32.09-.63.13-.9.18-.26.09-.57.13-.8.22-.04 0-.08.09-.04.13.14.13 1.25 0 1.42-.04.1 0 .18 0 .27.09.13.17-.18.22-.09.35.13.18.44.27.67.22.4-.09.8-.26 1.15-.4.13-.04.22-.13.35-.17.27-.1.58.04.8-.27.18-.31.4-.62.4-.98 0-.26-.17-.48-.26-.7-.18-.1-.36-.54-.36-.63 0-.04.18-.48.22-.48l1.25-.14c.04 0 .09.05.09.1.04.26-.31.52-.45.7-.04.05-.18.22-.13.31.04.14.27-.09.27.1 0 .12-.23.3-.23.48.05.18.05.44.23.53.3.14.3-.09.44-.09.04 0 .13.05.22.05.18 0 .36-.05.53-.1.36-.08 1.42-.57 1.74-.57.35.05.53.62 1.55.67l.04-.1c-.35-.35-.62-.12-.97-.83-.1-.18-.27-.4-.4-.58 0-.05 0-.1.04-.1.62.23.71 1.2 1.64 1.12l.05-.04c-.05-.14-.23-.18-.31-.23zm-8.56.84c.13 0 .13-.13.22-.18.22.14.18.4.4.54.09 0 .26-.05.35-.1s.18-.13.18-.22c-.04-.17-.13-.3-.18-.48-.09-.27-.4-.1-.62-.1-.22.05-.4-.04-.58-.08-.04 0-.08.04-.13.09a.28.28 0 0 0 0 .26c.09.18.22.27.36.27zm22.85-5.64c-.66-.13-1.37-.3-2.04-.48-.04 0-.18-.05-.13-.1a7.8 7.8 0 0 1 1.64.36c.13.04.18 0 .31 0 .09.04.18.09.22.22zm-4.43.67c-.05 0-.23-.04-.18-.13.04 0 .09-.05.13-.05l3.86.62.18.1c-.04.04-2.7-.36-4-.54zm2.48 3.73c0-.05.09-.14.13-.14.1.05.18.05.23.14l-.31.66c-.23.27-.05.67 0 .98 0 .04-.05.04-.1.09-.22-.22-.4-.54-.3-.85l.35-.88zm7.32 1.42c.31.09.67.09.98.17.04 0 .13.1.13.14s-.09.04-.09.04l-1.33-.35-.13-.1c.18.1.22.05.44.1zM37.42 14.5a.38.38 0 0 1-.3 0c-.14-.09-.14-.22-.18-.35 0-.05 0-.1.04-.1.13 0 .31.05.4.14 0 .1.09.18.04.31zm22.2.58a164.82 164.82 0 0 0-8.17-2.13c-1.02-.22-2.04-.49-3.06-.67-.1 0-.23 0-.27-.09.05-.17-.18-.22-.31-.26l-.93-.27c-.22-.04-.45-.18-.71-.22-.31-.04-.54-.04-.71-.31l.04-.05c.27.1.71.36 1.02.14.14-.1.27-.36.22-.49s-.22-.13-.3-.18c-.45-.18-.9-.44-1.34-.66-.93-.5-1.86-.94-2.8-1.42a6.63 6.63 0 0 0-1.37-.58c-.4-.09-.8.04-1.15.22-.31.18-.31.67-.58.62-.04-.04-.04-.09-.04-.13-.1-.18-.4.26-.67.4-.58.26-1.55 1.37-1.95 1.86-.27.31-.36.76-.45 1.11l.05.1c.13.03.22 0 .35-.1.1.05.1.13.13.22.4.54 1.51.23 2.1.45 0 .04 0 .09-.05.09-.27.04-.62 0-.9-.05-.61 0-1.23-.04-1.85-.04l-.1.04c-.04.14-.4.9-.44.94-.09.08-.22.17-.3.26-.23.27-.4.62-.72.8-.09.04-.26.09-.31.22l.04.05c.94.08 1.02-.9 1.65-1.11.04 0 .04.04.04.09-.13.13-.31.35-.4.57-.35.76-.62.54-.98.85l.05.08c1.02-.04 1.2-.62 1.55-.66.27-.05 1.38.44 1.73.58.18.04.36.08.54.08.04 0 .13-.04.22-.04.13 0 .17.27.44.09.18-.09.18-.36.22-.53.05-.23-.22-.4-.22-.5.05-.17.22.05.27-.08.04-.09-.1-.27-.14-.31-.13-.18-.53-.49-.44-.71 0-.05.09-.1.09-.1l1.24.14c.05 0 .22.45.22.49 0 .09-.17.53-.22.62-.09.27-.26.45-.26.71 0 .36.22.67.4.98s.53.17.8.26c.13.05.22.14.35.18.35.18.75.31 1.15.4.23.04.54 0 .67-.22.09-.13-.22-.18-.09-.36.09-.09.18-.09.27-.09.22.05 1.33.18 1.42.05.04-.05 0-.1-.05-.13a5.41 5.41 0 0 0-.8-.23c-.3-.09-.62-.09-.88-.17s-.23.17-.4.3c-.27.18-1.02-.17-1.11-.48s.17-.67.4-.89c.13-.18.35-.18.48-.31.1-.09.05-.22.05-.31.13-.18.7.09.93.04.27-.09.04-.4.27-.44.17.04.35.18.53.26.13.05.35.1.44.18s0 .22 0 .31c.05.14.27.18.4.18.22.04.45 0 .67.04.22 0 .44.1.62.1l.7.08c.19.1-.03.22.14.54-.18-.05-.84-.23-.93 0 .62.57 2 .97 2.8 1.06.48.09 1.02.04 1.5 0 .32-.04.36-.31.58-.35s.45.35.62.44c.14.09.31.18.5.27.26.17.52-.14.75 0 .26.13.44.88.84.8a.35.35 0 0 0 .18-.18c.09-.23-.05-.4-.1-.63.1-.17.36.1.36-.08-.04-.05-.09-.1-.13-.1-.49-.13-.4-.66-1.11-.8-.31-.04-.62-.12-.93-.17-.1 0-.31.04-.31-.09l.04-.04h.58v-.1c-.89-.12-1.78-.35-2.67-.48-.08-.04-.13-.27-.13-.31.05-.18.27.13.4-.18.1-.18-.09-.35.05-.44l1.2.13c-2.23-.53-4.44-.98-6.66-1.5-.5-.14-.98-.19-1.47-.36v-.05c1.95.27 3.9.76 5.86.98v-.05c-1.1-.22-2.17-.48-3.24-.66-1.64-.31-3.24-.54-4.88-.8a39.32 39.32 0 0 0-3.2-.45l-.04.1c.09.08.18.13.26.17v.09c-.13 0-.75.04-.75-.13.22-.23.27-.31.62-.31.53.04 1.02.13 1.55.17 2.93.4 5.9.76 8.84 1.3 3.1.52 6.16 1.06 9.23 1.81.48.13 3.72 1.02 3.86.98a15.1 15.1 0 0 1-1.51-.45zm-4.98 1.38c-.13 0-.26.17-.3.26 0 .18.08.27.08.4.1.13.31.09.45.13.04 0 .04-.04.09-.04-.1-.27 0-.67-.32-.76zm-.93-.27c.14.27.54.22.49.09 0-.05-.44-.13-.49-.09zm-44.87 0c-.04-.09-.49 0-.49.09-.04.13.36.22.5-.09zm2.27-5.68c.4-.09.84-.13 1.28-.27.13-.22.45-.13.67-.22.18.09-.49.58-.54.67-.08.09-.22.44-.26.57-.09.32.09.67.35.8.23.14.45.05.67-.04.18-.09.8-.22.84-.44-.04-.14-1.02.04-1.24-.1-.09-.04.04-.22.09-.26.13-.31 1.2-1.11 1.29-1.38.17-.62-.94-.75-1.34-.84-.09 0-.57-.13-.53-.27 0 0 .18-.17.22-.26v-.05c-.13 0-1.28.27-1.46.32-.05 0-.1.04-.1.08.14.18-.04.36 0 .54.05.13.5.09.27.3l-.35.05c-.18-.09.04-.22-.13-.26-.14.04-.4.09-.45.26a.48.48 0 0 0 0 .5c.14.26.4.35.71.3zm38.48.7c.04.1.17.23.08.27-.17.14-1.2-.04-1.24.1.05.22.67.35.84.44.23.09.45.13.67.04a.78.78 0 0 0 .4-.75c0-.14-.18-.45-.27-.58-.09-.09-.7-.62-.53-.67.22.1.53 0 .67.23.4.13.84.17 1.28.26a.8.8 0 0 0 .76-.26.48.48 0 0 0 0-.5c-.1-.17-.31-.21-.45-.26-.17.05 0 .22-.13.27l-.35-.05c-.23-.22.26-.22.26-.3.05-.19-.13-.36 0-.54 0-.04-.04-.09-.09-.09a5.77 5.77 0 0 0-1.46-.31l-.05.04c.05.05.23.23.23.27.08.13-.45.22-.54.27-.4.09-1.46.22-1.33.84.05.18 1.11.93 1.24 1.29zm-6.49 3.74c-.17.04-.35.13-.57.09-.18 0-.54-.18-.58.09-.04.17-.13.3-.18.48 0 .1.1.18.18.23.13.04.27.08.4.08.22-.13.18-.4.4-.53.09.05.13.18.22.18s.22-.1.31-.22a.28.28 0 0 0 0-.27c-.09-.09-.09-.09-.17-.13zm-35.2 1.5c-.35.1-.21.5-.3.76 0 0 .04.05.09.05.13-.05.35 0 .44-.14.04-.13.09-.22.09-.4-.04-.09-.18-.26-.31-.26z"/><path fill="#dadada" d="M37.47 9.32c.09-.09.18-.13.22-.18-.04-.04.04 0 0 0l.04-.04a4.84 4.84 0 0 0-.48-.8c.13.31.17.66.22 1.02z"/><path fill="#001f47" d="M24.1 19.8l-1.32.93-.27-.4 1.33-.93.27.4zm.45-.32l-.57-.84-4.04 2.84.3.45 1.78-1.25.27.36-1.47 1.02c-.13.09-.17.22-.26.3l.35.5.05-.05a.51.51 0 0 1 .22-.3l1.33-.94c.18-.13.27-.27.27-.4.04 0 .08.05.17.05s.18-.05.27-.1l1.29-.88c.13-.1.17-.22.22-.36-.05-.13-.09-.3-.18-.4zm-.09 3.07l-.3-.32L25.21 21l.35.31-1.1 1.25zm-.35.44l-1.07 1.24-.35-.3 1.1-1.25.32.31zm2-1.73c0-.13-.1-.27-.18-.36l-.8-.66L21.89 24l.8.67a.5.5 0 0 0 .35.13c.18 0 .32-.09.4-.18l.98-1.1c.13-.19.22-.32.13-.5h.1c.12 0 .21-.04.3-.17l1.02-1.16c.14-.17.18-.3.14-.44z"/></svg>