<svg version="1" id="Ebene_1" xmlns="http://www.w3.org/2000/svg" x="0" y="0" viewBox="0 0 184.3 184.3" xml:space="preserve"><style type="text/css">.st0{fill:#2f3874}.st1{fill:#fff}.st2{fill:#c32a23}</style><path class="st0" d="M92 182.5A89.8 89.8 0 0 1 28.1 156c-17-17-26.4-39.7-26.4-63.8s9.4-46.8 26.5-63.9c17-17 39.7-26.4 63.8-26.4s46.8 9.4 63.9 26.5 26.5 39.7 26.5 63.9-9.4 46.8-26.5 63.9A90.44 90.44 0 0 1 92 182.5"/><path class="st1" d="M92 2.9c49.3 0 89.3 40 89.3 89.3s-40 89.3-89.3 89.3-89.3-40-89.3-89.3S42.7 2.9 92 2.9m0-2C79.7.9 67.7 3.3 56.5 8.1c-10.9 4.6-20.6 11.2-29 19.6s-15 18.1-19.6 29C3.1 67.9.7 79.9.7 92.2s2.4 24.3 7.2 35.5c4.6 10.9 11.2 20.6 19.6 29s18.2 15 29 19.6c11.3 4.8 23.2 7.2 35.5 7.2s24.3-2.4 35.5-7.2a90.64 90.64 0 0 0 29-19.6c8.4-8.4 15-18.1 19.6-29 4.8-11.3 7.2-23.2 7.2-35.5s-2.4-24.3-7.2-35.5a90.64 90.64 0 0 0-19.6-29c-8.4-8.4-18.1-15-29-19.6A89.77 89.77 0 0 0 92 .9"/><path class="st1" d="M92 21.1c39.3 0 71.1 31.8 71.1 71.1s-31.8 71.1-71.1 71.1-71.1-31.8-71.1-71.1S52.7 21.1 92 21.1"/><path class="st2" d="M92 26.1a66.1 66.1 0 1 1-.02 132.22A66.1 66.1 0 0 1 92 26.1"/><path class="st1" d="M27.8 57.8s-7.6-8-8.2-8.6c.9.2 11.5 3.2 11.5 3.2l1.2-1.9-10.6-10.9-.1.2-1.2 1.9s7.6 7.3 8.3 8c-.9-.3-11.2-3.1-11.2-3.1l-1.2 2s7.4 7.7 8.1 8.4c-.9-.3-11-3.5-11-3.5l-1.2 2.1 14.5 4.2 1.1-2zM41 40.9c1.3-1.3 2-2.8 2-4.2s-.6-2.7-1.7-3.9l-6.6-6.7-.1.1-1.5 1.5 6.5 6.5c2.3 2.3 1 4.3.1 5.2s-2.8 2.1-5.1-.3L28 32.7l-1.6 1.6 6.8 6.9c1.8 1.6 4.8 2.6 7.8-.3m9.1-24.1c-1.1-.2-2.3 0-3.4.7L41.1 21l7.8 12.3 1.9-1.2s-3.1-4.9-3.2-5.1c.2-.2 3.7-2.3 3.7-2.3 1.6-1 2.1-2.3 2.1-3.5 0-.9-.3-1.8-.8-2.5-.6-1-1.5-1.7-2.5-1.9m1.1 4.6v.4c-.1.6-.6 1.2-1.5 1.7 0 0-2.9 1.8-3.1 2-.2-.2-2.3-3.7-2.5-3.9.2-.2 3.2-2 3.2-2 .8-.5 1.5-.7 2.1-.6.5.1.9.5 1.3 1 .3.5.5.9.5 1.4m13.1 3.5l-2.1-5.7 4.1-1.5c2.2-.8 2.9-2.4 2.9-3.9 0-.6-.1-1.2-.3-1.8-.4-1.1-1.1-1.9-2.1-2.4s-2.2-.5-3.5 0l-6.2 2.3 5 13.7 2.2-.7zM60 13c.3-.1 3.5-1.3 3.5-1.3.9-.3 1.7-.4 2.2-.1.5.2.8.7 1.1 1.3.1.4.2.7.2 1.1 0 .3-.1.5-.2.8-.3.6-.9 1-1.8 1.4 0 0-3.2 1.2-3.5 1.3 0-.4-1.4-4.2-1.5-4.5m18.8 5.6c0-.3-.6-4.1-.6-4.4.3 0 7.7-1.1 7.7-1.1l-.3-2s-7.5 1-7.7 1.1c0-.3-.5-3.8-.6-4 .3 0 8.4-1.2 8.4-1.2l-.3-2h-.2L74.9 6.4l2 14.5 10.8-1.5-.3-2c-.1 0-8.3 1.1-8.6 1.2m21.3-13.4l-6.7-.5v.2l-1.1 14.4 2.2.2s.5-5.8.5-6.1c.3 0 4.5.4 4.5.4 1.8.1 2.2 1.1 2.2 2.1v.5c0 .3-.1 1.1-.1 1.9 0 .7 0 1.3.1 1.7v.1l2.6.2v-.6l-.1-.1c-.4-.3-.5-.5-.5-1v-.3l.1-2.6v-.3c0-1.7-.7-2.2-1.3-2.5.8-.4 1.9-1.2 2.1-3.2v-.4c.1-2.4-1.5-3.8-4.5-4.1m2.3 4.1v.3c-.1.7-.3 1.3-.7 1.6-.5.4-1.2.6-2.2.5 0 0-4-.3-4.3-.3 0-.3.3-4.2.4-4.5.3 0 4.6.4 4.6.4.5 0 1.3.2 1.8.7.2.3.4.7.4 1.3m8.9 12.8l2.2.6s3.4-11.8 3.5-12.1l4.6 1.4.6-1.9-11.4-3.3v.1l-.5 1.8s4.4 1.3 4.6 1.4c-.2.2-3.6 12-3.6 12m17.1 2.3c0 .2-.6 4.4-.6 4.4l2.2 1.1 1.7-15.4-2.2-1.1-.1.1L118.2 24l2.1 1 3.2-3.1c.2.2 4.8 2.4 4.9 2.5m1-8.1c-.1.7-.8 5.6-.8 6-.3-.2-3.2-1.6-3.6-1.8.3-.3 4-3.8 4.4-4.2m12.3 19.9s-5.5-4.2-5.7-4.4c.2-.2 7.7-10 7.7-10l-1.8-1.4-.1.1L133 32l7.5 5.8 1.2-1.6zm8.9 12.5l1.5-1.3s-5.5-6.3-5.7-6.5c.2-.2 3.1-2.8 3.4-2.9.2.2 5.1 5.9 5.1 5.9l1.5-1.3s-5-5.7-5.1-5.9c.2-.2 2.9-2.5 3.1-2.7.2.2 5.6 6.4 5.6 6.4l1.5-1.3-7.1-8.1-.1.1-10.9 9.5 7.2 8.1zm3.6 5.7s5.1-2.8 5.4-2.9c.1.3 2.2 4 2.2 4 .3.6.4 1 .4 1.4 0 .9-.6 1.4-1.4 1.8-.5.3-2.4 1.4-3 2l-.1.1 1.3 2.3.5-.3v-.1c0-.6.2-.8.8-1.2l2.2-1.3c1.4-.8 1.7-1.6 1.7-2.3v-.3c.8.4 2 1 3.9 0 2.3-1.2 2.7-3.4 1.2-6.2l-3.2-5.9-.1.1-12.7 6.9.9 1.9zm11.1-6c.1.3 2.2 4.1 2.2 4.1.2.4.5.9.5 1.4 0 .2 0 .3-.1.5-.1.5-.5.9-1.2 1.3-1.4.8-2.4.4-3.3-1.3 0 0-1.9-3.5-2.1-3.8.3-.2 3.8-2.1 4-2.2M24.1 133.7l-1.2-4c-.2-.8-.3-1.6.7-2.2 1.8-1 3 .5 3.6 1.5.4.7 1.4 2.9-.7 4.3l-.1.1 1.1 1.8.1-.1c2.6-1.7 3.1-4.1 1.3-7.3-1.9-3.3-4.7-3.2-6.5-2.1-1.1.6-2.3 1.9-1.5 4.5l.9 2.9c.7 2.3.6 3-.6 3.7-.5.3-1 .3-1.4.2-1.1-.3-1.9-1.5-2.3-2.2-.4-.6-.9-1.9-.6-3.1.2-.7.7-1.3 1.5-1.8l.1-.1-1.1-1.8-.1.1c-1.1.6-2.1 1.4-2.5 3.2-.1.7-.5 2.1 1 4.5 1.4 2.4 3.9 4.4 6.7 2.8 1.6-1.1 2.2-2.7 1.6-4.9m15.8 11.6c.1-1.1-.4-2.2-1.3-3.2l-4.4-4.9-.1.1-10.7 9.7 1.5 1.7s4.3-3.8 4.5-4c.2.2 2.9 3.2 2.9 3.2.9 1 1.9 1.5 3 1.6s2.3-.4 3.2-1.2c.9-.9 1.4-1.9 1.4-3m-2.1-.4c0 .6-.3 1.1-.8 1.5-1.2 1.1-2.4 1-3.6-.4 0 0-2.3-2.5-2.5-2.7.2-.2 3.2-2.9 3.5-3.1.2.2 2.5 2.8 2.5 2.8.5.7.9 1.3.9 1.9m12.6 6.8a6.6 6.6 0 0 0-5.1-1.3c-1.9.3-3.8 1.6-5.1 3.5s-1.9 4.1-1.5 6c.3 1.7 1.3 3.2 3 4.4 4.6 3.2 8.6.1 10.2-2.2 1.5-2.3 3.1-7.2-1.5-10.4m-.5 9.1a6.2 6.2 0 0 1-3.8 2.7c-1.2.2-2.3-.1-3.4-.8a4.1 4.1 0 0 1-1.9-2.9c-.2-1.4.2-3 1.2-4.5 2-2.8 4.8-3.5 7.2-1.9 2.4 1.7 2.7 4.6.7 7.4m16.4-.2l-6.3-2.5-.1.1-5.3 13.4 2.1.8s2.1-5.4 2.2-5.7c.3.1 4.2 1.7 4.2 1.7 1.2.5 1.6 1.2 1.6 1.9 0 .4-.1.8-.3 1.2-.2.5-.9 2.6-1 3.5v.1l2.5 1 .2-.5-.1-.1c-.2-.3-.3-.5-.3-.7s.1-.4.2-.8l.8-2.5c.2-.6.3-1.1.3-1.4 0-.8-.4-1.3-.7-1.6 1.1-.2 2.2-.7 2.9-2.5.2-.6.3-1.1.3-1.6s-.1-.9-.3-1.3c-.2-1-1.3-1.9-2.9-2.5m-.6 1.9c.8.3 1.7.8 1.7 1.9 0 .3-.1.7-.2 1.1-.6 1.5-1.6 1.8-3.4 1.1 0 0-3.8-1.5-4-1.6.1-.3 1.6-4 1.7-4.2.2.1 4.2 1.7 4.2 1.7m8.2.9l-.3 1.8s4.5.8 4.8.8c-.1.3-2.1 12.4-2.1 12.4l2.2.4s2-12.1 2.1-12.4c.3 0 4.8.8 4.8.8l.3-2-11.7-2-.1.2zm24.9 1.6l-3.5 12c-.3-.7-4.4-11.7-4.4-11.7l-2.5.1 5.9 14.4 2.3-.1 4.8-14.8h-.2l-2.4.1zm11.9 10.8c-.1-.3-1-4.1-1.1-4.3.3-.1 7.6-2 7.6-2l-.5-2s-7.3 1.9-7.6 2c-.1-.3-.9-3.7-1-3.9.3-.1 8.2-2.1 8.2-2.1l-.5-2h-.2l-10.2 2.6 3.7 14.1 10.5-2.7-.5-2c0 .1-8.1 2.2-8.4 2.3m26.9-9.2c-.6 0-.8-.2-1.2-.9l-1.3-2.2c-.9-1.6-1.8-1.7-2.6-1.7.3-.6.6-1.2.6-1.9 0-.6-.1-1.2-.5-1.9-.5-1-1.3-1.7-2.2-2-1.1-.4-2.5-.1-4 .7l-6 3.1 6.7 13 2-1-2.8-5.4c.3-.1 4-2.1 4-2.1.8-.4 1.4-.5 1.9-.3.6.2 1 .8 1.3 1.4.2.5 1.3 2.4 2 3.1l.1.1 2.3-1.2-.3-.8zm-6.6-6.2c0 .8-.6 1.5-1.7 2.1 0 0-3.6 1.8-3.8 2-.1-.3-2-3.8-2.1-4 .3-.1 4.1-2.1 4.1-2.1.9-.5 2.2-.9 3.2.9.2.3.3.7.3 1.1m13.7-.7c-.2-.2-2.7-3.2-2.9-3.4.2-.2 6-5 6-5l-1.3-1.6s-5.8 4.8-6 5c-.2-.2-2.4-2.9-2.6-3.1.2-.2 6.5-5.4 6.5-5.4l-1.3-1.5-.1.1-8.1 6.8 9.4 11.2 8.3-7-1.3-1.6c0-.1-6.3 5.3-6.6 5.5M148 139l-1.3 1.6 11.1 9.5 1.4-1.7-11.1-9.5zm22.3-7l-12.5-7.5-.1.1-1 1.7s8.9 5.3 9.6 5.7c-.9 0-13.2.2-13.2.2l-1.3 2.2 12.5 7.5 1.1-1.9s-8.9-5.3-9.6-5.7c.9 0 13.3-.3 13.3-.3l1.2-2zm1.7-41.7a1.9 1.9 0 1 1 0 3.8 1.9 1.9 0 0 1 0-3.8m-80 62.1l-45.4-19.7v-8.3L92 137.3l45.4-12.9v8.3zm9.4-118.7l-5-5-.2.2-4.8 4.8c-.4-.2-6.8-3.8-6.8-3.8l4.2 7H104l4.2-7s-6.4 3.6-6.8 3.8M43 61.9h4.9c2.8 10 3.1 11.3 3.5 13.4h.1c.4-1.9.7-3.8 3.1-13.4h4.9c2.6 10 2.8 11 3.3 13.4h.1c.4-1.7.7-3.3 3.6-13.4h4.7L65 80.2h-4.4c-2.3-9-2.7-10.8-3.4-14.3h-.1c-.7 3.5-1 4.8-3.4 14.3h-4.3L43 61.9z"/><path class="st1" d="M62.2 106.7h5.2L59.3 125h-4.7l-8.1-18.3h5.4l5.1 13.9z"/><path class="st1" d="M62.4 94.4c-.6-1.1-1.7-2-3.1-2.7l-1.6-.7c-1.4-.6-2-1-2.3-1.2-.3-.3-.6-.7-.8-1.1s-.2-.9-.2-1.5c0-1.1.3-2 .8-2.7s1.2-1 2-1c.7 0 1.3.3 1.7.9.5.6.8 1.6.9 2.8v.6h3.1v-.7c-.1-2.2-.7-4-1.6-5.2-1-1.3-2.4-2-4.1-2-1.8 0-3.3.7-4.4 2.2a8.36 8.36 0 0 0-1.6 5.3c0 1.7.4 3.1 1.1 4.2.7 1.1 1.9 2 3.5 2.6l.5.2c2.6 1.1 3.9 2.6 3.9 4.6 0 1.4-.3 2.5-.9 3.4-.6.8-1.3 1.1-2.3 1.1-.9 0-1.6-.4-2.1-1.1-.6-.8-.9-1.9-.9-3.4v-.6h-3.1v.6c0 2.4.6 4.4 1.7 5.9a5.3 5.3 0 0 0 4.5 2.4c2 0 3.6-.8 4.8-2.5 1.1-1.6 1.7-3.7 1.7-6.3-.3-1.6-.6-3-1.2-4.1m41.5.8c-5.7-.9-11.6-3.9-11.6-3.9-3.7 5.6-13 5.2-13 5.2-.7 0-1.2.5-1.1 1.2 0 0 .2 1.6 6.5 4.4v5s0 .4 1.6 1.5c0 0 .7.4-.1 1.7 0 0-.5.8-1.5.4 0 0-5.3-2-11.3-8.7 0 0-1-1-2-1 0 0-.5 0-1 .3s-1.8 1.2-2.9 1.5c0 0 1.5.7 2.4.7 0 0 .8 0 .8 1.2 0 0 .1 4.3-.5 6 0 0-1.1 2.7-2.5 4.5l1.9-1.2c.6-.4 1.2-.1 1.3.6l.5 2.6 1.5-2.1c.4-.6.9-.5 1.1.2l1.1 3.3 1.3-2.6c.3-.6 1-.8 1.6-.4 0 0 1.2.8 1.2 4.3l1.4-2.4c.3-.6.7-.5.8.1 0 0 .4 2.2 3.4 3.8l.5-2.5c.1-.7.8-1 1.4-.8 0 0 1 .4 2.6 3.1l.6-2.8c.2-.7.8-1 1.5-.8 0 0 .8.3 2.8 3.7 0 0 .5-6.3 6.5-2.8 0 0-3.7-5.5 1.8-6l-3-1.3c-.6-.3-.7-.9-.2-1.3l.4-.4c.5-.5 1.4-.7 2-.5s1.1.3 1.1.3.3-3.2-4.5-2.3c0 0 .2-1.2 1.1-2.2.7-.7.5-1.6.5-1.6s0-1-.6-1.9-.2-2.2.8-3c0 0 .2-.3 1-.7.8-.4 1.7-.4 2.4-1.4.5-.8.4-1 .4-1"/><path class="st1" d="M117.9 105.3s-.1-.1-.3-.2c-.2-.1-.6.2-1 .8l-3.6 5.4-.3-4.4c0-.7-.4-.8-.9-.3l-3.5 4.5s-.1-2.5.5-3.8.3-3.1-.2-4.3c-.5-1.2-.8-7.2.5-10 0 0 .4-1.4.4-2.8l-2.7 2.1s-9.3-2.3-13.3-7.6c0 0-.2-.2-.4-.5s-.8-.2-.9.6c0 0-.5 2.3-1.7 3.5-.7-.7-1-1.7-1-1.7-.3-.6-.8-.6-1 .1l-1.3 3.9-1.1-2.7c-.3-.6-.8-.7-1.2-.2l-1.8 2.5-1.5-3.6c-.3-.6-.8-.7-1.2-.1l-2.1 2.9-1.1-3.9c-.2-.7-.7-.8-1.1-.2L74.8 87l-1.3-3.6c-.2-.6-.8-.8-1.3-.3l-1.3 1.4-.9-2.9c-.2-.7-.7-.7-1.1-.2l-1.3 1.7s.1-2.2-.2-2.7c-.3-.5-.9-2 1.2-4.7 1.2-1.5 2.3-1.4 2.3-1.4 1.4 0 2.5.9 5.4 2.6 3 1.7 4.4.8 5.6.3s3.4-.3 3.4-.3l1.8 2.4c.4.6 1.2.6 1.7.2l3.3-2.9 3.2 1.6c.6.3 1.4.1 1.7-.5l.8-1.5s.2-.3.5-.7c.3-.4.9-.4 1.5.1l1.5 1.1c.5.4 1.4.4 1.9-.1 0 0 .6-.6 1.7-3.7 0 0 3.8 5.9 6.3 6.7 2.5.9 5.4.7 10.2 6.7 2.1 3 6.3 2.6 6.3 2.6l.1-1.9s-5-3.9-5-10.4c0 0 0-6.3 3.5-8.7 0 0-5.4-2.9-5.4-8 0 0-.1-2.7 1.4-4.6 1.5-1.8 1.1-2.5 1.1-2.5s.3-1.9-1.5-1.9c0 0-1.8-.1-2.2.6-.3.6-.7 2-1.8 2 0 0-1.1 0-1.1-1.3s1.7-2 1.7-2 1.6-.8 3.5-.8c0 0 4.1 0 4.1 4 0 0 0 1-.3 2.2s-.3 4.5-.3 4.5.1 4.6 3.4 4.6c0 0 4.1 0 4.1-4.5 0 0 .1-2.1-.5-3.8s-.7-3.6-.7-3.6 0-4.7 3.7-4.7c0 0 2.1 0 3.6 1.6 0 0 1.5 1.4 1.5 2.4 0 0 .1 1.3-.9 1.3 0 0-1.2 0-1.5-1.6-.3-1.8-1.8-1.8-1.8-1.8s-1.4 0-1.4 1.8c0 0 0 2 1 3.2.9 1.2.9 4.8.9 4.8s0 4-3.1 6.6c0 0 5.4 3.3 5.4 10.8s-2.8 10.8-11.1 15.2c0 0-2 1-2 3.1 0 0 0 2.7 1.7 2.7.2 0 1.3.1 2.4-1 .8-.8 1.2-1 2.3-1.4.9-.3 3.5-.3 3.5-.3s1.9 0 2.6 1.9c0 0-5.5-.5-6.9 3.9 0 0 4.6-2.1 6.9 2.6 0 0-7.8-2.1-8.1 4.4 0 0 3.7-2.7 6.2 1.9 0 0-6.8-2.3-8 4.8 0 0 2.6-2.3 5.6 2.1 0 0-3.7-1-5.5 2.1-1.9 3-.8 3.6-4.8 5.3-4 1.7-4.9-.8-10.1 4.1 0 0-1.2-2.6.2-3.4 0 0-2.9-.5-4.5 3.5l-.1-2.3c0-.7-.5-.9-1.1-.6l-2.7 1.8.6-2.8c.2-.7-.2-1-.8-.6l-3.2 1.6s-.3-7.4 8.8-7.4h3.3s.5-4 3.3-5.2c0 0-.5-4.5.1-7.9-.1.3 0 .2.1 0m12.2-36.7s-7.8 10.6 1.8 17.5c0 0 8.5-10.3-1.8-17.5"/><path class="st1" d="M88.7 38.8h14.5s-2.4 4.7-1.8 5.4c0 0 .7.8 1 .2.5-1 1.8-3.8 4.5-3.8 0 0 2.6.4.6 3.1-2 2.6-3 3.2-3 3.2s-1.2.8-.3 1.7c0 0 1.2 1.5 5.2-2.1 0 0-.1 1.6-.8 3-.7 1.4-.6 1.8.4 2.6s1.3.9 1.8 3.2c0 0-2.1 0-2.1 1.7 0 1 1.2 1.8 1.2 1.8s2.1.9 2.1 7.9l-2.3-1.7c-.6-.4-1.1-.2-1.2.5l-1 5.6s-4.8-2.9-5.4 1.6c-.4 2.9-1.9 0-1.9 0s-2.6-4.3-4.9 2.7l-2.4-2.2c-.5-.5-1.2-.4-1.7.2l-2.6 3.5-2-3.1c-.4-.6-1.2-.9-1.8-.6l-3.4 1.2s-.5-2.9.1-4.4c.6-1.6-.5-2.4-.5-2.4s-1-1 .8-2.7c0 0 1.2-1.2-.9-3.1l-2.7 4.7s1.3 3 1.3 7.3l-3.2-3.2c-.5-.5-1.1-.4-1.4.2l-1.1 2.5s-1.2-.8-1-4.5c0 0-1.2-.4-2.4.3 0 0 .4-2 2.4-2.9 0 0 0-1.8-.2-2.3-.2-.5-.4-1.6-.2-2.1s0-.9-.5-1.2c-.5-.4-2-1.4-4-1.4s-4.2 1.9-4.2 1.9-.9-.6-.9-1.9c0 0-1.9.2-2.9 1.7 0 0-1-.9-1-2.9 0 0-1.9-.1-3.1.7 0 0 .2-1.1.5-1.6s.5-.5.7-1.2 1.6-6.6 8.7-6.6c0 0 3.4 0 7.9 5.5 3.8 4.7 13.1 4.8 13.1 4.8s5.1.1 5.2-4.7c0 0-5.8 3.3-6.9-1.5 0 0 1.2.9 2.3.9.7 0 1.4-.5 1.4-.5s.7-.6 1.8-.6c0 0-1.3-4-.4-4.5l-4 .7s-3.2-1.2-3.7-5.3c-.4-2.1 2-2.1 2-2.1s3.2.1 4.3-3.2m4.7 4.7s1.9 0 1.9-1.6c0-1-.5-1.2-.5-1.2h-3c-.1 2.7 1.6 2.8 1.6 2.8M83 43.3c-.5 2.6 2.3 2.4 2.3 2.4.8-2.6-2.3-2.4-2.3-2.4"/><path class="st1" d="M89.3 50.6l-4.9.2c-4.7 0-6.4-7-6.4-7s-.3.4-.3 3c0 0 .1 1.8 1.8 3.4 1.6 1.6 3 1.9 4.4 1.9 0 0 4.1-.1 5.3-.7-.1.1-.1-.3.1-.8"/></svg>