<svg id="Ebene_1" xmlns="http://www.w3.org/2000/svg" viewBox="0 0 820 403"><style>.st0{fill:#fecb00}.st1{fill:#1d1d1b}.st3{fill:#fecb01}.st5{fill:#fecc02}.st6{fill:#fecc03}.st34{fill:#fdfdfd}</style><path class="st0" d="M271 10c6 2.4 12.5 2.4 18.7 3.9 14.3 3.4 27.8 8.6 41.6 16.6-17.5 1.7-33.7 4.6-49.3 9.5-24 7.4-46.2 18-64.5 35.7-10.6 10.2-18.7 22.1-22.7 36.4-.6 2.1-1.6 3.3-3.9 3.8-7.2 1.5-14.3 3.1-21.4 4.8-2.3.5-3.2.5-2.9-2.4 3.7-35 15.6-66.9 35.4-95.9 1.3-1.9 3-2.9 5.1-3.7 9-3.2 18.1-5.5 27.6-6.9 2.2-.3 4.7.3 6.4-1.8h10c3.7.8 7.3.8 11 0h8.9z"/><path class="st1" d="M811 134c-2.7 5-3.7 10.5-5.2 15.9-.8 2.7-1.9 3.7-4.8 3.6-7.7-.2-15.3-.1-23 0-1.7 0-4.3-.4-4.7 1.7-.4 2 2 2.8 3.6 3.6 4.3 2.2 8.7 4.2 12.9 6.5 5.9 3.1 12.2 5.9 12.5 14.1.3 9.7-2.3 18.1-10.7 23.9-4.9 3.3-10.4 4.4-16.1 4.5-14 .1-28 .1-42 0-8.8-.1-10.8-2.8-8.3-11 3.4-11.4 3.4-11.4 15.4-11.4 6 0 12 .1 18 0 1.7 0 4.2.7 4.7-1.6.4-1.9-2-2.4-3.4-3.1-5.3-2.8-10.6-5.6-15.8-8.4-5.9-3.1-8.5-8-8.1-14.7.8-15.1 9.8-23.8 26.7-24.3 16.1-.5 32.3-.1 48.5-.2-.2.2-.2.6-.2.9z"/><path d="M262 10a13.2 13.2 0 0 1-11 0h11z" fill="#fed73c"/><path class="st1" d="M298 397.3c-14.4-12.1-28.8-24.1-43-36.3-2.1-1.8-2.9-1-4.1.8-3.8 5.6-7.8 11.1-12.1 17.2-4.1-5.8-8.1-11.1-11.7-16.7-1.7-2.7-2.8-2.7-5.2-.7-13.2 11.2-26.5 22.2-39.8 33.3-1.2 1-2 2.9-4.1 2.2-6.4-17.8-12.8-35.5-19.2-53.3-.8-2.2-1.8-2.1-3.7-1.2-5.4 2.6-10.9 5-16.2 7.6-2.4 1.2-3.1.9-3.3-1.8-.4-5.5-1.4-10.9-1.4-16.4 0-4.2-1.4-4.5-5-3.6-19.4 4.8-38.8 9.5-58.1 14.2-1.1.3-2.2.4-3.9.8 5.7-21.4 11.4-42.3 17-63.2-.7-2.8-2.7-1.2-4.2-1.2-8.2 1-16.4 1.9-25.2 3 5-8.7 9.6-16.9 14.4-25 .9-1.6 1.8-2.8-.7-3.7-18.4-6.7-36.8-13.5-55.2-20.2-2.7-2 0-3.1.9-4.1 11.7-12.8 23.4-25.5 35.3-38.1 2.6-2.7 3.1-4.2-.6-6.5-5.4-3.3-10.3-7.2-16-11.1 5.5-3.9 10.7-7.8 16.1-11.2 3.1-2 3.6-3.2.9-6.2-11-12.7-21.5-25.8-32.5-38.6-2.7-3.2-3.2-4.4 1.4-6 16.2-5.6 32.1-11.8 48.3-17.6 3.1-1.1 3.4-2 2-4.8-3-5.9-5.6-12-8.5-18.4 7-.7 13.6-1.5 20.2-1.9 3.2-.2 3.9-1 3.3-4.1-2-10.6-3.7-21.3-5.6-31.9 1.8-.8 2.5.7 3.4 1.4 11 7.4 22 15 33.1 22.4 2.2 1.5 3.1 3 2.9 5.7-.4 6-.4 12-.4 18 0 2.5-.6 3.8-3.3 4.6-4.4 1.3-10.8.9-12.6 4.5-1.5 3.1 1.2 8.5 2.6 12.8 1 2.9-.2 4-2.5 5.4-8.8 5.1-17.4 10.5-26.2 15.5-2.3 1.3-2.4 2.2-1.2 4.5 5.1 8.9 9.9 18 15.1 26.9 1.4 2.4 1.2 3.6-.8 5.4-2.7 2.5-5 5.4-7.7 7.8-2.1 1.9-1.6 2.9.1 4.6 3.3 3.2 8.7 6.6 9 10.2.3 3.9-4.3 8.2-6.7 12.3-3.9 6.4-7.7 12.8-11.8 19.1-1.5 2.3-1 3.1 1.3 4.2 9.3 4.5 18.3 9.6 27.7 13.8 4.1 1.9 4.3 3.8 2.4 7.3-1.9 3.7-3.2 7.7-5.1 11.3-1.8 3.3-.5 3.9 2.6 4 4.3.2 8.6 1 12.9 1 3.5 0 4.1 1.4 3.7 4.5-1.2 11.3-2 22.6-3.2 33.8-.3 3.2.5 3.9 3.7 3.6 11.4-1.2 22.9-2 34.3-3.3 2.8-.3 3.7.4 4.4 3 1.3 4.4.9 10.9 4.5 12.6 3.1 1.5 8.5-1.3 12.8-2.7 2.7-.8 3.9-.1 5.2 2.1 5 8.6 10.3 17.1 15.2 25.7 1.6 2.8 2.8 3.3 5.6 1.6 8.5-5 17.2-9.5 25.7-14.4 2.5-1.5 4.1-1.7 6.3.7 3 3.3 6.1 8.6 9.8 8.5 3.2-.1 6.5-5.1 9.4-8.4 2.2-2.5 4-2.3 6.7-.7 8.2 4.8 16.7 9 24.7 14 3.7 2.2 4.9 1 6.5-2.1 3.9-7.7 8.1-15.2 12.4-23.4 7.1 9.3 13.8 18.1 20.5 26.9 1 1.3.4 2.5-.1 3.7-7.2 18.2-14.5 36.4-21.7 54.6-.1.7-.5 1.6-1.7 1.7zm-10.1-172.2c-1.3-.1-2.8.1-3.9-.5-14.4-6.8-28.6-13.9-41.2-23.8-.9-.7-2-1.3-1.8-2.7-2.3-2-4.8-3.6-5.5-6.9 2.5-11.7 6.4-23.1 9.6-34.6 2.8-10.3 5.8-20.5 8.9-30.7.5-1.8 1.1-3.5 2.6-4.8l3.3-11.4c-.2-7.1 2.5-13.4 5.2-19.7 2.3.7 1-1.2 1.4-1.9.3-1.5.7-3.1.1-4.6-.3-.3-.5-.6-.8-.9l-1.5-1.2c-1.2-1.1-2.4-2.1-2.7-3.9-.2-2-.4-3.9 2.1-4.7 2.5-.5 5-.3 7.5-.3h84.4c2.5 0 5 .2 7.5-.2 5.6-1 10.4.7 14.6 4.4 2.1 2.8 5.2 4.9 6.3 8.4.2.8.2 1.5.1 2.3-.5 2-.3 4.1-.3 6.2-.2 4.7.5 9.4-.7 14.1-.5 1.8-.3 3.6.1 5.4-1 8.5-2.7 16.7-7.6 23.9-2.9 0-1.3 2.6-2.2 3.8-4.9 7.9-11.2 14.3-20 18-5.7 2.4-5.8 2.5-3.8 8.5 4.1 12 7.7 24.1 12.5 35.8 2.4 6 5.6 11.3 10.2 15.8 1.2 1.2 3.4 2.2 1.4 4.4-2.2 2.4-5.1 2.1-7.9 2.1-16.2.2-32.5-.3-48.7.3-5.7-.2-8.1-1.8-10-7.6-2.3-6.9-3.7-14-5.5-21.1-.9-3.4-1.7-6.7-2.5-10.1-.7-3.7-1.8-7.4-2.6-11.4-.9 3.2-1.8 6-2.4 9-2.6 8.9-5.5 17.8-7.7 26.8-.4 1.7-.6 3.6-2.2 4.9-.5.2-.9-.3-1.1-.3-.6 0-.1.5 0 .7.5 1.1.4 2.5 1.3 3.5.7 1.8 3.9 2 3.5 5z"/><path class="st0" d="M370.3 253.1c-7.8 9.6-16.2 17.3-25.4 24.1-27.1 19.9-57.5 29.6-91.1 29-2.5 0-4.5-.7-6.4-2.2-44.8-34.9-71.5-80.3-79.5-136.6-1.5-10.4-1.9-20.9-2-31.4 0-3.9 1.3-5.6 5.1-6.2 6.1-1 12.1-2.5 18.1-3.8 2.2-.5 3.8-.6 3.6 2.7-.9 23.6 9.2 42.9 24.6 59.8 21.9 24 49.6 38.9 79.8 49.5 23.4 8.3 47.5 12.9 73.2 15.1z"/><path class="st1" d="M403.1 134.8c18.9-3.1 37.8-2.5 56.8-.8 10.6 1 14 5.6 12.2 16.3-2.3 14.3-6.7 28.1-13.2 41.1-5.8 11.6-16.3 15.8-28.4 16.3-10.1.4-20.3.1-30.5.2-5.5-1.3-11-.1-16.6-.5-9.1-1.3-13.8-7.2-12.3-16.2 2.4-14.8 7-29 14-42.4 2.6-5 6.7-8.6 11-12 2-1.5 4.2-2.8 7-2zm124.1 26.8c4.6-6.9 8.6-13 12.6-19.1 1.5-2.3 1.7-4.5-1.5-5.4-1.4-.4-2-.8-1.5-2.4.4-1.3 1-1.9 2.4-1.9 12.5.1 25 0 37.5.3 4.8.1 6.1 2.9 4 7.2-1.2 2.4-2.7 4.6-4.3 6.7-16.2 22.6-32.5 45.1-48.7 67.6-2 2.8-5 6.1 1.3 7.6 1 .2 1 1.1.7 2-.4 1.2-1.1 2-2.5 2-13-.1-26 0-39-.4-4.1-.1-5.4-3.2-2.9-7.3a126 126 0 0 1 11.3-15.8c3.7-4.3 4.1-8 2.1-13.3-6-15.5-11.3-31.2-16.8-46.9-.8-2.2-1.5-4.5-4.1-5.3-1.2-.4-2.3-.7-1.5-2.3.5-1 .8-2.1 2.4-2.1 12 .1 24 .1 36 .3 3.5.1 5.1 2.7 6 5.8 2.1 7.3 4.1 14.5 6.5 22.7zm186.3-80.7c5.7 0 11.3-.1 17 0 7.4.2 9.9 3.6 8 10.7-9 33.4-18 66.7-27 100-1.1 4-3.5 8.5 2.6 10.9 1.6.7.2 2 .1 3-.2 1.4-.6 2.5-2.4 2.5-12.8-.1-25.6.1-38.4-.3-5.4-.2-7.4-4.2-5.8-10.3 3.2-12.4 6.6-24.7 10-37 5.9-22.1 11.8-44.3 17.8-66.4.8-3.1 1-5.6-2.3-7.2-1.6-.8-2.1-1.5-1.5-3.4.6-1.9 1.4-2.7 3.4-2.6 6.2.1 12.3 0 18.5.1 0-.1 0 0 0 0z"/><path class="st0" d="M239.2 305c-14.6-1.6-27.5-5.2-39.9-10.5-35.1-15.2-60.7-40.2-77.1-74.8-1.4-3-1.4-5.3.3-8.3 11.9-21.3 17.4-44.1 15.8-68.6-.2-2.4.5-3.5 2.8-4.4 12.8-5.2 12.4-5.2 12.9 8.2 2.1 63.3 28.4 114.4 78.4 153.3 1.9 1.5 3.9 2.9 6.8 5.1z"/><path class="st1" d="M618.3 207.8h-31.5c-10-.1-14.5-4.7-13.8-14.6.6-9 3.7-17.2 8.8-24.6 4.2-6.2 10.8-8.6 18-9.6 5.5-.7 11-.8 16.5-.7 1.8 0 3.7-.2 5.4-.6 1.3-.3 2.5-1.1 2.6-2.7.1-1.6-1.1-2.5-2.4-2.8-1.9-.5-3.9-.8-5.9-.8-6.5-.1-13 .1-19.5-.2-6-.2-7.7-2.9-6.1-8.5 2.7-9.7 2.7-9.7 12.6-9.7h41.5c2.2 0 4.4 0 6.5.2 12.5 1.6 17.1 8.5 13.6 20.5-4.2 14.5-8.5 29-12.9 43.5-.8 2.5-1.1 4.5 1.7 5.8 1 .5 2.8.3 2.1 2.5-.6 2-1.9 2.3-3.8 2.3-6.3-.1-12.7 0-19 0h-14.4z"/><path class="st0" d="M377 78c-3.6-3.6-8.2-4.7-13.1-4.9-.9.5-1.8.4-2.8.3-.4-.3-.7-.6-1.1-.9h-51.1c-15.1 0-30.2-.1-45.2.1-.5.1-1 .2-1.4.5-1.4 1.6-1.5 3.3-.6 5.2 1.1 1 2.2 2 3.3 3.1 1.5 1.9 1.3 4.3 1.4 6.5 0 .7.2 1.5-.6 2-2 6.7-4.1 13.3-6.1 20-17.8 0-35.5 1.2-53.5 3.5 4.6-17.2 14.3-30.1 27.5-40.7 19.6-15.8 42.6-24.3 66.7-30.3 11.9-3 24.1-5.1 36.3-6.7 1.8-.2 3.2.1 4.6 1.1 15.5 11 28.7 24.1 38.8 40.3-.3 2.3-1.7 1.6-3.1.9zm26.1 56.8c-9 3.4-15 9.9-18.8 18.5-5.6 12.4-10 25.2-11.8 38.8-1 8 2.3 12.4 10.2 14 4.5 1.3 9.4-.4 13.7 2.1-4.4 13-11.2 24.7-19.2 35.8-.9 1.2-1.8 1.8-3.3 1.6-29-2.4-57.4-6.9-84.1-19.1-.7-.3-1.2-1-1.8-1.6l-4.7-4.1c-1-1.6-1-3.1 0-4.6 3.1-10.8 5.8-21.8 9.5-32.4 1.4-1.3 1.2-3.3 1.8-4.9.3-1 .7-2 1.8-2.1 1.5-.1.9 1.4 1.3 2.2 1 2.2.7 4.9 2.3 6.9 2.6 10.2 5.3 20.5 7.9 30.7 1.1 4.4 3.1 7.9 8.2 8.3l.5.5c.3.4.6.7 1 .9 2.1-1.1 4.3-.7 6.4-.8 15.5-.1 31 .1 46.4-.1.5-.1 1-.3 1.4-.6.8-.9 1.3-2 2-2.9-5.5-4.1-9.3-9.5-12-15.8-6.1-13.9-10.3-28.4-15.2-42.6-1.1-3.2.4-4.1 3-4.8 10.1-2.9 16.5-10.3 22.5-18.3.3-1.3 1-2.4 1.9-3.3 4.3-7.5 6.6-15.6 7.9-24.1.1-1.7-.6-3.4-.1-5.1.8-.9.7-2.2 1-3.3.4-2.2.1-4.4.2-6.6v-3.7c-.1-1.7.2-3.4-.3-5.1-.2-.7-.3-1.4.1-2.1 0-.6.1-1.2.1-1.8-.5-1.1-.8-2.1 1-2.2 9.9 15.9 16 33.2 19.2 51.7zM192 26.3c-17.3 23.9-28.9 50-34.4 78.7-1.1 5.5-1.7 11.2-2.6 16.7-.2 1.1.3 2.8-.8 3.2-5.2 2.2-10.5 4.2-15.8 6-1.4.5-1.3-1.1-1.5-2-2.1-12.2-5.8-23.9-11.4-34.9-.8-1.6-.5-2.8.2-4.2 14.8-28 36.4-49.2 64.6-63.7.3-.1.7 0 1.7.2zm64.4 94.9c-6.3 21.9-12.7 43.8-19 65.7-.5 1.7-.9 3.5-1.3 5.2.3.8.8 1.7-.6 2-19.2-17.4-32.2-37.9-31.7-64.9.1-3.6.9-5.2 4.8-5.6 16-1.6 31.9-2.9 47.8-2.4zm-139.2 85.5c-6.2-17.9-8.7-35.1-8.3-52.7 0-2 1-3 2.6-3.7 4.9-2.1 9.8-4.2 14.6-6.4 2.6-1.2 3-.3 3.1 2.2.6 20.7-3.3 40.5-12 60.6z"/><path class="st3" d="M452.9 93.9c2.8-5.2 6-10.3 8.4-15.8 2.1-4.8 5.2-6.4 10.4-4.9-1.1 3.6-3.5 6.5-5.4 9.7-3.6 6-7.5 11.8-10.7 17.9-2 3.9-4.9 4.3-8.6 4-1.7-.1-2.3-.8-2.4-2.5-.1-9-.3-17.9-.5-26.9-.1-4.3 3.1-2.3 5-2.6 2.3-.4 3.6.2 3.3 3.2-.5 4.6-.4 9.3-.5 13.9-.1 1.5-2 3.4 1 4zm-343.1 50c1.2-15.2 4.9-29.1 10.7-43.4 4.2 10.9 6.6 21.3 8 32 .2 1.7-.3 2.5-1.6 3.1-5.6 2.7-11.1 5.4-17.1 8.3z"/><path d="M487.5 105.2c-.7-.1-2.2-.1-3.7-.4-1.9-.3-3.8-.8-2.5-3.5.8-1.6.7-4.3 3.9-2.6 1.7.9 3.7 1.4 5.8.7 2.3-.7 4.1-1.8 4.4-4.2.3-2.2-1.8-3-3.3-3.8-7.6-4.3-8-11.2-.9-16.3 4-2.9 8.6-3.5 13.3-2.5 1.4.3 4.3-.3 3.1 3-.8 2.1-1.1 4.2-4.3 2.7-1.8-.9-3.9-.8-5.9.1-3 1.3-3.7 4.6-1 6.2 4.6 2.6 9.5 4.7 7 11.6-2.2 5.6-7.6 9.1-15.9 9z" fill="#fecc01"/><path class="st3" d="M630.6 81.4c-1.3 4.5-2.6 9-3.9 13.4-.5 1.6-1.3 3.4 1 4.2 1.8.6 3.5-.5 4.1-2.1 1.6-4.2 2.9-8.5 4.3-12.7.4-1.4.4-3.2 2.4-3.3 1.8-.1 3.9-.8 5.3.5 1.2 1.1-.2 2.8-.6 4.2-1.5 5.3-3.4 10.4-4.5 15.8-.9 4.2-4.8 4.6-6.1 3.2-2.5-2.6-3.7-.6-5.6 0-2.6.8-5.3 1.2-7.5-.8-2-1.8-1.5-4.3-.9-6.5 1-3.5 2.4-6.9 3-10.5.7-5.5 3.4-7.2 9-5.4zM600 105.1c-6.7 0-10-4.1-8.5-10.8 1.8-8.1 7.4-13.3 14.9-13.9 6.9-.5 10.7 3.8 9.4 10.6-1.7 8.3-8.1 14.1-15.8 14.1z"/><path class="st5" d="M513.3 86.8c-.6-6 3.7-5.7 7.2-6.2 9.3-1.3 12.1 1.9 9.5 10.9-1 3.4-2.3 6.6-2.9 10.1-.6 3.7-3.7 4.3-5.4 3-2.9-2.2-4.8-.5-7.2.2-2.7.7-5.4.7-7.3-1.8-2-2.6-.9-5.1.5-7.4 2.8-4.5 7.3-5.4 12.1-5.7 1.6-.1 4.3.8 3.9-2.2-.3-2.5-2.7-2.7-4.8-2.3-1.8.2-3.5.8-5.6 1.4zm25.2 0c1-5.3 3.1-6.6 9.9-6.5 7.3.2 9.3 2.8 7.4 9.7-1.1 3.8-2.6 7.6-3.3 11.5-.8 4.4-4.9 4.3-6.2 3-2.4-2.3-3.7-.6-5.5 0-3 .9-6.2 1.2-8.2-1.6-2.1-3-.8-6.1 1.4-8.7 2.9-3.4 7-4.2 11.3-4.4 1.5-.1 3.8.8 3.7-1.9 0-2.8-2.3-3-4.4-2.7-1.8.3-3.7 1-6.1 1.6z"/><path class="st3" d="M420.6 104.7c-3.9.8-3.7-1-2.7-3.9 2-6.2 3.6-12.4 5.6-18.6.8-2.6 1-4.1-2.5-3.9-1.1 0-3.4 1.1-3.1-1.6.2-1.9.5-4 3.4-4 5.5.1 11 0 16.5.1 1.1 0 3.2-.8 3 1.3-.2 1.5-.1 4.5-2.6 4.1-6.4-1.1-6.8 3.5-8 7.5-1.5 5.1-3.1 10.2-4.4 15.3-.8 3-2.2 4.5-5.2 3.7z"/><path class="st5" d="M663.2 105c-1.5-1.3-6.3 2-5.5-3.6.3-1.9 1-3.1 3.3-2.1 1.3.5 2.9.5 4.4.6 1.4 0 2.8-.5 3.1-2 .3-1.5-1.3-1.7-2.3-2.1-2.8-1.3-5.6-2.6-5.2-6.4.4-3.9 2.7-6.4 6.1-7.9 3-1.3 6.1-1.5 9.3-.8 1.5.3 3.2.3 2.4 2.6-.6 1.6-.8 3.7-3.6 2.7-1.2-.4-2.6-.3-3.9-.3-1 0-2 .4-2.4 1.5-.4 1.2.4 2 1.4 2.3 4.1 1.5 7.3 3.5 5.4 8.8-1.5 4.5-5.9 6.9-12.5 6.7z"/><path class="st6" d="M579.2 104.8c-2.9.6-3-.8-2.2-3.6 2.8-9 5.6-18.1 8-27.2 1-3.7 3.1-4 6.2-3.9 2.1.1 2.5.6 1.9 2.7-3 9.8-6 19.7-8.8 29.6-.8 2.8-2.7 2.3-5.1 2.4z"/><path class="st5" d="M569.8 84c1.6-1.2 2.7-2.3 4-2.8 1.3-.4 3.6-2.2 4.1.2.4 1.8.2 5.3-2.8 5.3-5.2.1-6.7 3.5-8 7.4-.8 2.4-1.6 4.7-2.1 7.2-.8 4.6-4.2 3.4-7 3.2-1.8-.1-1.2-1.7-.9-2.7 1.8-6.2 3.9-12.3 5.4-18.6.7-3 2.7-2.2 4.5-2.5 2.8-.4 3 1.2 2.8 3.3z"/><path class="st6" d="M647.7 104.7c-2.7.3-4.2 0-3-3.4 2-5.8 3.7-11.7 5.2-17.6 1.1-4.4 4.5-3.1 6.8-2.6 2.8.6.6 3 .2 4.4-1.4 5.3-3.2 10.5-4.5 15.8-.7 2.7-1.9 4-4.7 3.4z"/><path d="M655.3 76.6c-.5-.2-3.1 1.3-2.8-1.4.3-2.4.5-5.8 4.6-5 1.4.3 4.3-1.4 3.8 2-.3 2.6-.9 5.5-5.6 4.4z" fill="#fecf15"/><path d="M396.3 208.2c-4.5-.9-9.3-.2-13.7-2.1 5.8.3 11.8-1.6 17.3 1.8l-3.6.3z" fill="#1d1c1f"/><path d="M383.9 83c-.8.5-.9 1.4-1 2.2-1.4-2.9-4-4.8-5.9-7.3 1.1 0 2.3.2 3-1.1 1.8 1.9 3 3.9 3.9 6.2z" fill="#f0d115"/><path d="M235.5 194l.6-2c1.6 2 3.2 4 4.9 6-2.7-.1-4-2.2-5.5-4z" fill="#070709"/><path d="M452.9 93.9c-.5 1.1-1.1 2.6-1.8.3-.4-1.3-.3-3 .7-4.3.7 1.3-.4 3 1.1 4z" fill="#fee581"/><path d="M79.9 278.9c4-1.5 4.4-1.3 4.2 1.2-.9-2-2.9-.5-4.2-1.2z" fill="#8c8c8b"/><path d="M329 103.1c2.3-.4 2.2 2.6 4 2.9.8 2.3.9 4.6 0 6.9-2.1 6.4-3.4 13-7.2 18.8-1.7 2.6-3.4 4.2-6.4 4.3-2.3 1-4.6 1.3-7.1 1.3-3.1 0-4.9-1.1-5.1-4.4 2.7-9.4 5.3-18.7 8-28.1 4.1-3.7 9-2 13.8-1.7z" fill="#fdcb00"/><path d="M361.2 72.9c.9.1 1.9.2 2.8.2-1.7 1.6-3.8.9-5.7.9H262c-.3-.7-.1-1.3.6-1.6 1.8-.6 3.6-.4 5.4-.4h86.8c2.2 0 4.4-.4 6.4.9z" fill="#000221"/><path d="M373.8 222c.5 1.2-.4 2-.8 2.9-1.2 1.1-2.8 1-4.3 1h-48.5c-1.5 0-3 .1-4.3-.9l.1-.1c1.5-1.6 3.4-.9 5.2-.9 14.9-.1 29.8-.1 44.8 0 2.8.1 5.5-.3 7.8-2z" fill="#02021a"/><path d="M299.9 186c-3-2-1.8-5.7-3.5-8.4-2.4 1.5-.7 5.3-3.7 6.3l3-11.7c.3 0 .7.1 1 .1 1.1 4.6 2.1 9.1 3.2 13.7z" fill="#f2d609"/><path d="M383.1 105.3c.1 1.1.4 2.2-1 2.7-.4.5-.7.4-1.1 0 2-4.9.5-10 1-15 .2-.3.5-.4.9-.3.5.3.6.9.9 1.3v4.1c-.9 2.3.2 4.9-.7 7.2z" fill="#181922"/><path d="M307.2 133c1 2.9 3.2 3.2 5.8 3 2.1-.1 4.2 0 6.4.1-.4.3-.7.7-1.1 1-4.4 1.3-8.8 1.5-13.2-.2l2.1-3.9z" fill="#fbe403"/><path d="M329 103.1c-4.4 2.3-9.4-.3-13.8 1.9-.1-.8-.3-1.7.7-2.2 4.4-1.1 8.8-1.4 13.2.2l-.1.1z" fill="#feea00"/><path d="M316 102c4.2-2 8.6-.8 13-.6 0 0 .1.3 0 .4 0 .1-.2.3-.3.4-4.2.4-8.5.7-12.7-.2z" fill="#020422"/><path d="M305.1 136.9c4.4.1 8.8.1 13.2.2a3 3 0 0 1-.4.8c-3.9 1.1-7.9.6-11.8.3-.6-.2-1.1-.6-1-1.3z" fill="#9b8734"/><path d="M306.1 138.2l11.8-.3c-3.9 2-7.8 1.4-11.8.3z" fill="#000425"/><path d="M316 102c4.3.1 8.5.1 12.8.2.1.2.2.5.3.7-4.4-.1-8.8-.1-13.2-.2-.1-.2 0-.5.1-.7z" fill="#9d8418"/><path d="M262.1 73.2c-.1.3-.1.6-.1.9-.5 1.4 1.3 2.9-.3 4.2-3.7-1.5-.7-3.4-.3-5.2.3-.3.5-.3.7.1z" fill="#17171e"/><path d="M283.2 216.3v4.6c-2.4-2-.4-4.5-1.5-7 1.8.6 1 1.8 1.5 2.4z" fill="#080a22"/><path d="M265.8 88c-1.5-2.1-.5-4.5-.8-6.8l1 .7c1.2 1.4 1 3.1.7 4.8-.1.6-.5 1-.9 1.3z" fill="#f7dc09"/><path d="M332.9 113v-6.9c1.7 2.2 1.7 4.6 0 6.9z" fill="#252422"/><path d="M381 108h1.1c-.5 1.6 2.1 3.4-.2 4.9-1.6-1.3-.7-3.2-.9-4.9z" fill="#000420"/><path d="M266.8 82.1c1.9 1.9 1.7 3.8.3 5.9-.4-.4-.5-.8-.5-1.4 0-1.5-.3-3.1.2-4.5z" fill="#01031b"/><path d="M383 93h-.9c.3-2-.7-4.1.8-5.9.1.6.1 1.3.2 1.9.6 1.3.7 2.6-.1 4z" fill="#010420"/><path d="M266.8 82.1c.1 1.6.1 3.2.2 4.9-.2.4-.4.5-.8.2 0-1.7-.1-3.4-.1-5.1.2-.1.4-.1.7 0z" fill="#73652b"/><path d="M266.2 87.1c.3-.1.5-.1.8-.2 0 .3 0 .7.1 1l-.3 3.1c-.3-.4-.6-.9-.9-1.3V88c.1-.3.2-.5.3-.9z" fill="#0e1023"/><path d="M374.1 137.1c-.3 1.3-.9 2.4-1.9 3.3 0-1.4-.3-3.1 1.9-3.3z" fill="#1d1b23"/><path class="st34" d="M419.3 187.4c-4.7.1-8.2-4.1-7-8.7 2-7.3 4.2-14.6 6.5-21.9 1.4-4.2 5.3-6.2 9-4.7 3.8 1.6 5.6 4.4 4.4 8.8-2.1 7-4.1 14-6.2 21-.9 3.4-3.1 5.2-6.7 5.5zm196.8-15.1c4.5-1.1 5 .9 3.6 4.8-1.2 3.2-2 6.6-2.8 10-.6 2.3-1.6 3.7-4.4 3.4-4-.4-8.8 1-9.5-5.1-.8-7 3-12.5 9-13.1 1.2-.2 2.5 0 4.1 0z"/><path class="st1" d="M262.1 73.2c-.2-.1-.5-.1-.8-.1-.1-.2-.2-.3-.3-.5 1.1-2 3-1 4.5-1 14.5-.1 28.9-.1 43.4 0h47.2c1.6 0 3.3-.7 4.7.7.1.2.2.4.4.7-19.6.1-39.1.1-58.7.2-13.5-.1-26.9-.1-40.4 0z"/><path d="M360.8 72.2l-51.8-.3c-.3-.2-.4-.4-.3-.6.1-.2.2-.3.3-.3h49.2c1.2 0 2.5-.6 3.6.4 0 0-.1.3-.2.3-.2.3-.5.4-.8.5z" fill="#fee21a"/><path d="M309 71v.9c-14.2.1-28.4.1-42.6.2-1.8 0-3.6.3-5.4.4 1.2-2.5 3.5-1.5 5.3-1.5H309z" fill="#fed814"/><path d="M373 225.9c-.6.9-1.6 1.1-2.6 1.1h-53c-.4 0-.9-.2-1.3-.4.1-.3.2-.5.3-.8 18.8-.4 37.7-.7 56.6.1z" fill="#fde107"/><path d="M373 225.9c-18.9 0-37.8-.1-56.6-.1-.1-.2-.3-.5-.4-.7 19 0 38-.1 57.1-.1 0 .3 0 .6-.1.9z" fill="#675a27"/><path class="st1" d="M383.1 105.3c.1-2.4-.9-5 .7-7.3.2 2.5.2 5-.7 7.3zM383 93v-4c1.5 1.5.9 3.3.9 5-.3-.4-.6-.7-.9-1z"/><path d="M608.1 89.5c-.5 3.1-1.3 6.4-3.8 9.1-1 1.1-2.4 1.9-4 1.1-1.4-.7-1.5-2.1-1.4-3.4.4-3.5 1.3-6.8 3.8-9.4 1-1.1 2.4-1.9 4-1.1 1.5.6 1.4 2 1.4 3.7z" fill="#fefdf8"/><path d="M519.9 93.2c1 0 2-.2 2.1 1.3.2 2.3-3.3 5.8-5.9 5.8-1.4 0-2.9-.3-2.7-2.1.6-3.6 3.5-4.4 6.5-5z" fill="#fefcf4"/><path d="M547.9 93.1c-1.1 4.3-2.5 7.4-7.1 7.2-1.3 0-2.2-1-1.8-2.4 1.2-4.5 4.9-4.4 8.9-4.8z" fill="#fefbf0"/></svg>