<svg version="1.1" xmlns="http://www.w3.org/2000/svg" viewBox="0 0 23 32"><path fill="#fff" d="M11.19.16a8.1 8.1 0 0 1 3.17.5c1.68.63 3.12 1.77 4.27 3.13a15.9 15.9 0 0 1 2.58 4.4 21.82 21.82 0 0 1 .14 15.3 16.68 16.68 0 0 1-2.07 3.93 12.07 12.07 0 0 1-2.92 2.91 8.52 8.52 0 0 1-4.45 1.55 8.28 8.28 0 0 1-4.66-1.21A11.57 11.57 0 0 1 4 27.7c-1.06-1.4-1.87-3-2.44-4.67a22.22 22.22 0 0 1-.92-10.2 18.7 18.7 0 0 1 3.07-8.1A12.37 12.37 0 0 1 6.6 1.8 8.59 8.59 0 0 1 11.2.16z"/><path fill="#1a171b" d="M11.19.17a8.22 8.22 0 0 1 4.01.86 11.5 11.5 0 0 1 4.23 3.8 17.15 17.15 0 0 1 2.07 4.12c.63 1.82 1 3.73 1.11 5.65a21.5 21.5 0 0 1-1.74 10.08 15.32 15.32 0 0 1-2.43 3.8 10.43 10.43 0 0 1-3.88 2.82 8.04 8.04 0 0 1-4.82.38 9.2 9.2 0 0 1-3.83-1.97c-1.08-.9-1.98-2-2.72-3.2a17.93 17.93 0 0 1-1.97-4.57 22 22 0 0 1-.79-6.3 20.4 20.4 0 0 1 2.35-9.4 14.26 14.26 0 0 1 2.48-3.32A10.5 10.5 0 0 1 7.8 1.07a8.27 8.27 0 0 1 3.38-.9zm-.17.81c-1.47.1-2.89.7-4.07 1.56-1.2.87-2.17 2-2.96 3.24a17.17 17.17 0 0 0-2.03 4.7 21.57 21.57 0 0 0 .51 12.7A15.58 15.58 0 0 0 4.8 27.4a10.27 10.27 0 0 0 3.42 2.88c1.42.73 3.09.99 4.66.68a8.34 8.34 0 0 0 3.77-1.86 12.87 12.87 0 0 0 2.94-3.67c.84-1.54 1.43-3.2 1.8-4.92a21.72 21.72 0 0 0-.5-10.85 16.28 16.28 0 0 0-2.27-4.58 10.75 10.75 0 0 0-3.5-3.19 7.38 7.38 0 0 0-4.1-.91z"/><path fill="#1a171b" d="M11.46 1.34c1.1-.02 2.2.24 3.18.72a9.42 9.42 0 0 1 2.96 2.3 14.54 14.54 0 0 1 2.59 4.4 19.72 19.72 0 0 1 1.18 5.14c.19 1.93.12 3.88-.21 5.8a18.56 18.56 0 0 1-1.47 4.7 13.42 13.42 0 0 1-2.48 3.65 8.6 8.6 0 0 1-3.73 2.33 6.7 6.7 0 0 1-3.05.18 7.84 7.84 0 0 1-3.63-1.7 12.15 12.15 0 0 1-2.93-3.61 17.46 17.46 0 0 1-1.63-4.27 21.4 21.4 0 0 1 .4-11.4 16.16 16.16 0 0 1 1.87-3.9C5.1 4.82 5.77 4 6.56 3.33a8.16 8.16 0 0 1 3.23-1.76c.55-.15 1.1-.22 1.67-.24zm-2.35.72A8.6 8.6 0 0 0 6.1 4.14a13.15 13.15 0 0 0-2.42 3.57 18.3 18.3 0 0 0-1.46 4.67c-.43 2.5-.4 5.07.06 7.56a17.9 17.9 0 0 0 1.62 4.8c.7 1.34 1.58 2.61 2.72 3.62l9.46-25.1A7.53 7.53 0 0 0 12.7 1.7a6.62 6.62 0 0 0-3.57.37zm3.64 15.01a4.64 4.64 0 1 0 6.85 5.36h-.7a4 4 0 1 1-7.28-3.21 4.01 4.01 0 0 1 3.73-2.15 3.97 3.97 0 0 1 3.33 2.12h.74a4.66 4.66 0 0 0-6.67-2.11zm.91 1.42c-.29.42-.35 1-.13 1.47.18.38.56.64.93.82v2.83c-.5-.2-.82-.68-.97-1.18l-.6.2a2.13 2.13 0 0 0 1.58 1.59v.35h.55v-.29a2 2 0 0 0 1.63-.73c.34-.42.45-.98.4-1.5h.28v-.58h-.47a1.5 1.5 0 0 0-.29-.36c-.43-.4-1.02-.56-1.55-.77v-.45h2.38v-.56h-2.94v.75c-.09-.07-.18-.14-.25-.23a.84.84 0 0 1-.11-.89c.22-.46.78-.72 1.28-.58.35.08.64.34.8.67l.54-.28a1.88 1.88 0 0 0-1.03-.9 1.76 1.76 0 0 0-2.03.62z"/><path fill="#1a171b" d="M6.69 5.56c1.1.07 2.23.05 3.32-.16.7-.1 1.47.01 2 .5.47.48.78 1.13.75 1.8.01.42-.18.8-.3 1.19-.08.28-.07.58-.07.88.01.25.03.51-.09.74-.02.06-.09.06-.14.08-.1-.1-.19-.22-.32-.28-.1.1-.2.22-.24.35-.08.25-.15.52-.12.79.02.33.13.66.06.99-.02.08-.07.18-.17.15-.2-.1-.2-.39-.4-.48-.13.03-.19.18-.24.29-.07.26-.06.53-.08.8-.03.4.12.79.05 1.18-.15.02-.3-.14-.43-.05-.23.37-.34.8-.44 1.22-.26.94-.35 1.92-.39 2.9-.07.05-.17.11-.26.05-.3-.22-.4-.62-.43-.98-.04-.57.03-1.14.03-1.71-.02-.18 0-.38-.1-.54-.15.02-.23.16-.3.28-.21.38-.37.8-.53 1.2-.36.9-.7 1.8-1.03 2.72-.04.12-.06.27-.2.34-.24-.08-.24-.36-.26-.57-.14-1.11.24-2.2.56-3.25.06-.2.17-.42.1-.63-.06-.03-.13 0-.19-.01-.98.86-1.76 1.91-2.6 2.9-.1.07-.22-.05-.23-.15-.04-.27.07-.52.16-.77.37-.97.98-1.82 1.63-2.62l.47-.6c.06-.08.06-.2.01-.29-.1-.08-.26-.07-.38-.02-.67.25-1.29.6-1.93.9-.03-.06-.09-.11-.06-.18.06-.37.33-.64.56-.92.61-.57 1.38-.94 2.1-1.35l.04.03-.02-.04c.38-.22.79-.4 1.18-.6.54-.27 1.07-.57 1.6-.9a.6.6 0 0 0 .29-.46c.01-.16-.13-.28-.27-.31-.22-.05-.44-.03-.66-.04-.7 0-1.44.02-2.05-.37-.15-.08-.2-.25-.19-.4.94.03 1.88 0 2.82-.04.14 0 .3-.03.4-.13 0-.14-.17-.18-.27-.25-.56-.22-1.16-.3-1.76-.4-.06.01-.07-.08-.03-.1.12-.13.3-.1.45-.12.41-.07.8.13 1.21.09.17-.06.17-.29.06-.4-.4-.3-.93-.36-1.42-.42-.39 0-.78.08-1.17.07-.33 0-.67-.06-.99.03-.23.11-.32.44-.2.66-.03.03-.07.06-.13.05a.74.74 0 0 1-.6-.22 2.06 2.06 0 0 1-.07-1.18c.06-.24.35-.26.55-.35.1-.03.15-.13.22-.2.16-.14.42-.04.58-.2.17-.17.33-.38.56-.5zm2.74.75c-.18.06-.35.22-.33.42.01.22.26.3.44.33.16-.01.34 0 .49-.1.25-.16.13-.6-.15-.64a.83.83 0 0 0-.45 0zm-3.57.18v.08c.08.07.19.13.3.1 0-.09-.03-.18-.1-.23-.07-.05-.14.02-.2.05zm-.75.48c-.05.23 0 .47.03.7.01.05.02.15.1.1.08-.2.17-.42.37-.52.3-.15.65-.1.97-.15l-.14-.18a.44.44 0 0 0-.17.09.67.67 0 0 1-.67-.3c-.17.05-.4.08-.5.26zm6.42.93c0 .3.07.6.03.9-.02.1 0 .2.04.3.34-.28.31-.77.29-1.17-.1-.1-.24-.1-.36-.03zm-.78 1.51c.17.37.17.8.28 1.19a.8.8 0 0 0 .13-.36 2.1 2.1 0 0 0-.1-.95c-.12 0-.24.02-.3.12zm-.78 1.29c.17.39.2.81.38 1.2.04-.12.1-.25.1-.38.01-.3.01-.61-.15-.87-.1-.07-.24-.02-.33.05zm-3.3 1.92a6.1 6.1 0 0 0-1.45 1.01 34.7 34.7 0 0 1 3.09-1.27.54.54 0 0 0-.07-.4 9.1 9.1 0 0 0-1.58.66zm2.7.35c-.17.69-.27 1.4-.26 2.1.02.55.07 1.1.14 1.66l.08-.87c.11-.95.22-1.9.43-2.82a.72.72 0 0 0-.4-.07zm-1.61.04c-.3.19-.53.46-.77.72a14.3 14.3 0 0 0-1.52 2.1c-.2.32-.38.66-.51 1.01C6 15.63 7 14.37 8.1 13.2c-.07-.13-.2-.24-.35-.18zm.62.32c-.5.8-.84 1.69-1.1 2.6-.2.74-.36 1.5-.43 2.28l.4-1.12c.43-1.22.97-2.4 1.49-3.59-.1-.1-.22-.19-.36-.17z"/><path fill="#1a171b" d="M9.38 6.5c.16-.02.36-.04.48.1.06.05.1.1.12.17-.14.03-.28.12-.41.06-.12-.07-.23-.19-.2-.33zM15.02 21c.35.14.71.24 1.02.47h-1.02v-.46zm0 1.05h1.4c.07.4-.03.84-.3 1.16-.27.32-.69.5-1.1.5v-1.66z"/></svg>