<svg version="1.1" xmlns="http://www.w3.org/2000/svg" viewBox="0 0 48 32"><path fill="#0065a5" d="M8.03 19.7a15.84 15.84 0 0 0 30.82 0H8.03zM23.44.18c-6.9 0-12.77 4.42-14.94 10.6h1.45a14.48 14.48 0 0 1 27.97 5.26l-.02.5h1.37v-.5A15.82 15.82 0 0 0 23.45.19z"/><path fill="#1f1a17" d="M20.27 8.77v-1.1c.14.1.27.2.4.25s.26.09.39.09c.18 0 .32-.05.42-.14s.16-.23.16-.4c0-.2-.14-.41-.42-.65a4.09 4.09 0 0 1-.17-.15c-.33-.3-.55-.56-.68-.8s-.18-.5-.18-.79c0-.46.13-.83.39-1.12s.6-.43 1.01-.43a1.78 1.78 0 0 1 .9.27v.94c-.18-.1-.33-.15-.43-.19s-.2-.05-.27-.05a.5.5 0 0 0-.52.52c0 .14.03.27.1.39s.25.3.5.53c.37.3.6.56.7.77s.16.45.16.74c0 .48-.14.87-.41 1.15s-.65.43-1.12.43c-.18 0-.35-.03-.5-.07s-.3-.1-.42-.19zm6 .13a1.72 1.72 0 0 1-.62.13c-.68 0-1.24-.25-1.66-.75s-.64-1.15-.64-1.95c0-.84.2-1.51.62-2.03a2 2 0 0 1 2.3-.63v1a1.63 1.63 0 0 0-.58-.13c-.36 0-.65.15-.87.47s-.33.74-.33 1.26c0 .5.11.9.34 1.22a1.03 1.03 0 0 0 1.16.43l.28-.09V8.9zM1.95 12.1a1.05 1.05 0 0 1 .17-.01c.2 0 .34.04.44.13s.15.22.15.4c0 .26-.07.46-.22.6s-.35.2-.63.2H1.8l-.07-.01.22-1.31zm-.7 4.42l.33-2.08h.25c.65 0 1.16-.17 1.5-.49s.53-.79.53-1.4c0-.48-.12-.84-.36-1.06s-.63-.32-1.17-.32h-1.3l-.86 5.35h1.08zm4.57-3.85a17.73 17.73 0 0 0 .24-.83v.84l.05 2.03h-.95l.66-2.04zM4.6 16.52l.3-.92h1.24l.02.92h1.08l-.33-5.35H5.4l-1.9 5.35h1.1zm4.64-4.38h.07c.33 0 .56.09.7.26s.22.45.22.84c0 .7-.13 1.26-.39 1.68s-.6.63-1.02.63h-.06l-.06-.01.55-3.4zm-.89 4.38c.6 0 1.04-.05 1.3-.14s.52-.25.74-.48c.27-.27.49-.66.65-1.14s.25-1 .25-1.55c0-.7-.17-1.21-.5-1.55s-.87-.5-1.58-.5h-.89l-.85 5.36h.88zm3.11 0l.84-5.35h2.3l-.14.98H13.2l-.17 1.11h1.1l-.16 1.03h-1.1l-.2 1.2h1.26l-.17 1.03h-2.3zm4.75-4.47l.13-.01h.08c.2 0 .36.04.47.13s.15.24.15.43c0 .26-.07.46-.22.6s-.38.2-.67.2a2.64 2.64 0 0 1-.17 0l.23-1.35zm-.72 4.47l.4-2.42.63 2.42h1.1l-.73-2.5c.39-.01.7-.15.9-.42s.33-.64.33-1.11c0-.46-.12-.8-.37-1s-.64-.32-1.18-.32h-1.3l-.85 5.35h1.07zm4.68-4.42a.79.79 0 0 1 .15-.01c.2 0 .36.04.45.12s.15.22.15.4c0 .26-.07.45-.21.59s-.34.2-.59.2a2.3 2.3 0 0 1-.16 0l.2-1.3zm-.34 2.1H20c.23 0 .4.03.5.12s.16.21.16.39c0 .27-.08.48-.22.63s-.36.22-.63.22l-.18-.01h-.01l.2-1.35zm-.5 2.32h.1c.48 0 .83-.02 1.05-.07s.41-.13.59-.25c.22-.14.4-.34.53-.6s.2-.54.2-.84c0-.27-.07-.49-.2-.66s-.34-.26-.6-.29c.36-.1.62-.27.8-.5s.25-.57.25-.97c0-.41-.12-.72-.36-.9s-.64-.27-1.2-.27h-1.24l-.85 5.35h.94zm4.22-1.16a.96.96 0 0 1-.15-.58 7.17 7.17 0 0 1 .34-1.95c.08-.23.18-.4.3-.52s.28-.18.46-.18c.2 0 .35.07.45.2s.16.33.16.58a5.95 5.95 0 0 1-.35 1.96c-.09.23-.19.4-.3.52s-.27.16-.44.16c-.2 0-.36-.06-.47-.2zm-.82.73c.27.33.67.5 1.19.5.39 0 .73-.1 1.02-.29s.54-.46.72-.81a6.35 6.35 0 0 0 .53-2.43c0-.66-.14-1.15-.42-1.48s-.68-.49-1.22-.49a1.79 1.79 0 0 0-1.58.88 5.96 5.96 0 0 0-.65 2.67c0 .63.14 1.11.41 1.44zm5.39-4.04l.13-.01h.08c.2 0 .36.04.47.13s.15.24.15.43c0 .26-.07.46-.23.6s-.37.2-.66.2a2.64 2.64 0 0 1-.17 0l.23-1.35zm-.72 4.47l.39-2.42.63 2.42h1.1l-.72-2.5c.38-.01.69-.15.9-.42s.33-.64.33-1.11c0-.46-.13-.8-.37-1s-.65-.32-1.18-.32h-1.3l-.86 5.35h1.08zm2.88 0l.85-5.35h1.25l.45 2.28.03.16a10.53 10.53 0 0 1 .19 1.2 8.65 8.65 0 0 1 .1-1.37l.34-2.27h1.05l-.84 5.35h-1.1l-.54-2.57a12.9 12.9 0 0 1-.2-1.35 17.86 17.86 0 0 1-.13 1.19l-.38 2.73h-1.07z"/><path fill="#fff" d="M20.5 23.31c.06-.25.17-.37.33-.37s.27.12.34.36.1.72.1 1.42-.04 1.16-.1 1.4-.18.37-.34.37c-.16 0-.27-.12-.34-.37s-.1-.71-.1-1.4.04-1.16.1-1.4zm1.42-.64c-.25-.47-.61-.7-1.08-.7-.48 0-.84.23-1.09.7s-.37 1.15-.37 2.05c0 .89.12 1.57.37 2.04s.62.7 1.09.7c.47 0 .83-.23 1.08-.7s.37-1.15.37-2.04c0-.9-.12-1.58-.37-2.05zm1.05 4.73l1.69-4.48h-1.62v-.88h2.93l-1.94 5.36h-1.06z"/><path fill="#1f1a17" d="M47.78 16.92H7.64c.04.8.15 1.6.3 2.38h39.53c.16-.78.27-1.57.31-2.38z"/><path fill="#fff" d="M26.62 26.32c0-.13.02-.22.07-.3s.12-.1.2-.1c.1 0 .16.04.2.1s.08.17.08.3h-.55zm1 .3v-.09c0-.33-.06-.59-.19-.76s-.3-.25-.55-.25c-.24 0-.42.08-.56.26s-.2.4-.2.7c0 .3.07.54.2.71s.32.26.56.26c.18 0 .34-.05.47-.16s.2-.25.25-.43h-.45c-.02.07-.05.12-.1.16s-.09.05-.15.05c-.09 0-.16-.04-.2-.11s-.08-.18-.08-.33v-.01h1zm.75.48a.33.33 0 0 1-.33.34c-.1 0-.17-.04-.24-.1s-.1-.15-.1-.24a.33.33 0 0 1 .34-.34c.1 0 .17.03.24.1.06.06.1.14.1.24zm.96.31l-.8-2.77h.57l.33 1.25a4.48 4.48 0 0 1 .13.84 4.75 4.75 0 0 1 .12-.82l.32-1.27h.58l-.79 2.77h-.46zm1.62-.31a.33.33 0 0 1-.33.34c-.1 0-.18-.04-.24-.1s-.1-.15-.1-.24c0-.1.03-.18.1-.24s.14-.1.24-.1c.1 0 .17.03.23.1s.1.14.1.24z"/></svg>