<svg version="1.1" xmlns="http://www.w3.org/2000/svg" viewBox="0 0 32 32"><path fill="#009932" d="M.31 16a15.69 15.69 0 1 1 31.38 0A15.69 15.69 0 0 1 .3 16zm1.6 0a14.08 14.08 0 1 0 28.17 0 14.08 14.08 0 0 0-28.16 0z"/><path fill="#009932" d="M13.57 14.72c.16-.22.3-.43-.82-1.48-1.37-1.29-3.68-3.6-2.2-6.38 1-1.88 2.89-1.5 3.68-1.1.54.28 1.85 1.14 3.1.22 1.41-1.03 3.5-.26 3.95.97.44 1.2.57 3.1-1.22 4.96s-2.8 2.61-1.94 2.97c.33.13.6-.31 1.05-.85.74-.89 2.03-1.78 3.72-2.56 1.79-.83 4.96.26 3.63 4.17-.41 1.23-.48 2.6-.04 3.43.63 1.18.5 3.22-1.04 3.85-1.51.61-3.3.45-4.39-.33S18.3 19.41 18 19.02c-.3-.39-.62-1-1.38-1.15.14 1.17-.14 2.84-.21 3.27s-.57 1.84-1.12 3.02c-.55 1.17-.57 1.19-1.35 1.31s-2.36.56-2.63.68c-.2.08-.75-.07-.9-.3s.13-.43.35-.54c.21-.1 4.26-2.58 4.28-7.23 0-.73-.4-.46-.71-.16s-1.02.84-3.08 3.38-4.96 1.69-5.31 1.56C4.6 22.37 3.88 20.36 4.5 19c.6-1.3.94-2.15.53-3.18-.21-.53-.87-1.92-.21-3.16s2.42-2.18 4.74-.87c1.43.8 2.23 1.83 2.7 2.34s.91.98 1.3.6z"/></svg>