<svg version="1.1" xmlns="http://www.w3.org/2000/svg" viewBox="0 0 32 32"><path fill="#fff" d="M0 16a16 16 0 1 1 32 0 16 16 0 0 1-32 0z"/><path fill="#004f9f" d="M.41 16a15.59 15.59 0 1 1 31.18 0A15.59 15.59 0 0 1 .4 16z"/><path fill="#fff" d="M.83 16a15.17 15.17 0 1 1 30.34 0A15.17 15.17 0 0 1 .83 16z"/><path fill="#004f9f" d="M29.67 15.93c-.22 0-.41.16-.42.36s.18.37.4.38c.23 0 .42-.16.42-.37s-.17-.37-.4-.37zm-2.58 1.2l1.82.9-2 .27.05.61 2.8-.48.1-.53-2.53-1.32-.24.56zm2.1 2.5c-.22-.06-.44.05-.5.24s.06.4.28.47c.21.07.44-.04.5-.23s-.07-.4-.29-.47zm-1.62 1.84c-.07-.03-.34-.26-.25-.48.1-.21.28-.19.28-.19a.8.8 0 0 1-.03.67zm.8-.02a.34.34 0 0 1-.4.18c.22-.5.14-.94-.23-1.36-.43-.06-.78.1-.95.48-.22.49.15 1.05.68 1.28s1.2.13 1.42-.35a.98.98 0 0 0-.07-.87l-.46.17s.13.17 0 .47zm-3.23 2.28c.1.1.08.25 0 .34s-.23.12-.33.03c-.1-.1-.1-.25-.01-.34s.23-.12.34-.03zm.95.7c.16.13.13.36 0 .5-.12.14-.34.18-.5.04s-.13-.36 0-.5c.12-.14.34-.19.5-.05zm-1.06.19c-.1.3-.04.6.22.84.4.36 1 .2 1.3-.13.31-.36.38-.94-.02-1.3a.75.75 0 0 0-.86-.12.64.64 0 0 0-.2-.66c-.34-.3-.83-.2-1.11.11s-.34.82 0 1.13c.2.18.44.2.68.13zm-1 1.19c.12.16.06.35-.09.47s-.35.12-.47-.05c-.13-.16-.07-.36.08-.47s.35-.12.48.05zm.64-.14c-.5-.66-1.05-.68-1.45-.37a.92.92 0 0 0-.2 1.3c.34.46.82.47 1.17.21a.78.78 0 0 0 .28-.35c.05.2.02.5-.02.67-.05.24-.16.5-.27.63l.58.12a2 2 0 0 0-.09-2.21zm-2.89.79c.07.12 0 .26-.11.32s-.26.03-.32-.09c-.07-.12 0-.26.1-.32s.27-.03.33.09zm.66.98c.1.18 0 .39-.17.47-.16.1-.39.06-.48-.13s0-.39.16-.47c.17-.1.4-.06.5.13zm-1.06-.18a.75.75 0 0 0-.08.86c.25.47.87.53 1.26.32.42-.22.68-.75.43-1.21a.75.75 0 0 0-.77-.41.65.65 0 0 0 .04-.7c-.22-.4-.72-.47-1.09-.27s-.6.65-.37 1.06c.12.24.33.34.58.35zm-.45 1.83l-.69-2-.55.2.68 1.99.56-.2zm-3.46.82l-.18-2.13.61-.06-.05-.61-1.83.16.05.61.62-.05.19 2.13.6-.05zm-3.18-2.17l.24.03c.33.04.52.4.49.78-.04.4-.32.77-.68.73l-.24-.03.19-1.51zm.31-.59l-.83-.1-.33 2.74.83.1c.67.08 1.27-.52 1.34-1.27.07-.73-.35-1.39-1-1.47zm-2.33.35l-.04.85-.43-.14.47-.7zm-1.14 1.73l.32-.48.75.24-.03.58.61.04v-2.85l-.49-.15-1.68 2.3.52.32zm-1.45-.73l1-1.9.55.3.3-.55-1.63-.86-.29.55.55.29-1 1.89.52.28zm-1.73-2.65l.1.24c.07.2.14.37.04.5-.1.14-.29.13-.4.04a.54.54 0 0 1-.18-.48l-.57.17a.9.9 0 0 0 .4.79c.35.27.91.22 1.21-.18.22-.29.22-.62.09-.94l-.1-.24c-.07-.17-.14-.33-.05-.46s.24-.08.36.01c.1.09.15.19.16.34l.53-.15a.84.84 0 0 0-.37-.68c-.3-.22-.86-.23-1.14.13a.86.86 0 0 0-.08.9zm-2.88-1.07l.35.43 1.6-.79-1.28 1.3.47.38L8 24l-.36-.43-1.71.86 1.15-1.54-.36-.42-2.4 1.39.3.54 1.5-1.04-1.05 1.43zm-.29-3.27l.54-.29.05.09c.13.24.08.38-.1.47s-.36-.02-.45-.18l-.04-.09zm-.09.79c.27.16.6.16.86.01.5-.26.6-.85.36-1.3l-.32-.6-2.44 1.3.28.52.8-.43.05.08-.56 1.1.5.32.47-1zm-.33-2.9l-.72.45-.13-.43.85-.03zm-2.06.05l.57-.01.23.75-.48.3.31.53 2.33-1.64-.15-.48-2.85-.06.04.61zm1.81-2.74l.02.24c.03.34-.29.6-.66.64-.4.05-.83-.15-.86-.5l-.02-.25 1.52-.13zm.64.19l-.08-.84-2.74.24.07.84c.06.67.77 1.14 1.52 1.05.73-.08 1.28-.64 1.23-1.3zm21.05-6.26l.35.56 2.34-1.46-.35-.56-1.33.83.82-1.63-.35-.56-2.33 1.46.35.56L26.62 9l-.82 1.63zm.63-3.8l-.45-.48-2.02 1.88.46.49 2.01-1.88zm-3.35-.2l.32-.41.64.48.37-.49-.64-.48.23-.31.75.57.37-.5-1.28-.96-1.66 2.2 1.32 1 .37-.5-.79-.6zm-1.91-2.18l.25-.56.1.04c.28.13.33.28.25.46s-.33.19-.5.1l-.1-.04zm.46.7a.85.85 0 0 0 .74-.48c.24-.5-.08-1.06-.59-1.3l-.7-.32-1.16 2.5.6.28.39-.82.09.04.28 1.24.65-.02-.3-1.11zm-3.02-.59l.13-.5.78.2.15-.6-.78-.2.1-.38.9.23.16-.6-1.56-.38L17.82 5l1.6.4.15-.6-.96-.24zm-1.69-2.5l-.68 1.92-.62-1.95-.67.14.97 2.71.6.02 1.06-2.68-.66-.17zm-2.8 2.96l-.4-2.1.67-.14-.12-.6-2 .39.12.6.67-.13.41 2.1.65-.12zm-3.26-.6l-.23-.57.1-.04c.28-.12.42-.06.5.13s-.09.36-.28.44l-.1.04zm.84.14a.85.85 0 0 0 .14-.87c-.2-.52-.83-.66-1.35-.45l-.71.28 1.03 2.56.62-.25-.34-.84.09-.04 1.1.64.43-.49-1.01-.54zM8.17 6.2c-.27-.37-.38-.79-.06-1.02s.69 0 .96.37c.27.38.38.8.06 1.03s-.69 0-.96-.38zm-.42-1.51c-.6.43-.56 1.3-.12 1.9s1.25.91 1.85.48.57-1.31.13-1.91c-.44-.6-1.25-.91-1.85-.47zm-1.92 2.7l.07-.08c.16-.17.43-.26.6-.1s.11.43-.04.6l-.07.08-.56-.5zm-.38-.49l-.52.57 2.05 1.85.44-.5-.58-.52.07-.08c.4-.44.48-1.12.04-1.52s-1.1-.24-1.5.2zm-.5 3.25L5.2 10c.2-.12.37-.2.5-.12.16.09.16.28.08.41a.63.63 0 0 1-.49.28l.22.58c.37-.04.62-.28.78-.55.26-.42.17-1.02-.25-1.27-.31-.2-.66-.14-.97.05l-.25.15c-.17.1-.33.2-.47.12s-.09-.23 0-.38c.07-.13.17-.18.33-.22L4.5 8.5a.96.96 0 0 0-.68.5c-.22.35-.2.96.2 1.2.35.2.68.1.94-.06zm24.31 3.04a.55.55 0 0 0-1.08.23c.07.3.36.49.66.42s.48-.35.42-.65zm-26.55-.2c-.08.28.1.59.4.66s.6-.1.67-.4c.07-.3-.1-.6-.4-.67s-.6.1-.67.4z"/><path fill="#004f9f" d="M5.7 15.98a10.37 10.37 0 1 1 20.74 0 10.37 10.37 0 0 1-20.75 0zm5.15 6.86c.14.08.25-.05.4-.07.57-.07.66.2 1.08.15a2.7 2.7 0 0 0 1.45-.52c.21-.17.32-.29.47-.51.2-.3.27-.55.35-.85.09-.29.06-.96.3-.95.26 0 .21.62.17 1.02-.03.3-.22.9-.4 1.28-.12.26-.49 1.57.17 2.31.27.3.98 1.15 1.23 1.15.2 0 .59-.42.81-.68.29-.33.5-.5.65-.89.1-.25.17-.41.16-.68a3.68 3.68 0 0 0-.43-1.68 2.28 2.28 0 0 1-.2-.77c-.05-.42-.1-1.06.18-1.06.27 0 .19.55.32 1.06.14.53.35.98.96 1.37.38.24.91.36 1.34.4.29.02.42-.15.7-.16.26-.01.48 0 .66.08.22.08.16-.65-.11-1.03-.63-.88-1.63-.27-2.21-.9-.17-.19-.34-.5-.23-.64.1-.12.32.22.62-.2.08-.12.06-.6-.1-.9-.22-.46-.53-.4-.5-.55a4 4 0 0 1 1.6-2.18c.4-.26.37-.3.87-.37.32-.04.78 0 1.07.32.3.33.34.59.28 1.16-.05.43-.29.77-.2 1.19.04.23.23.76.6.73.24-.02-.03-.3.36-.83.26-.35 1.3-.55 1.7-1.2a2 2 0 0 0 .4-1.37 2.45 2.45 0 0 0-1-1.92 3.43 3.43 0 0 0-3.04-.54c-.46.12-.7.24-1.1.47-.82.47-1.24.8-1.76 1.65a5.61 5.61 0 0 0-.67 1.5c-.2.72-.2 1.61-.6 1.57-.3-.03.02-1.3.08-2.02a6.8 6.8 0 0 1 .7-2.27c.38-.76.76-1.32 1-2.26.12-.47.26-.84.18-1.43a4.18 4.18 0 0 0-.52-1.58c-.3-.55-.61-.78-1.04-1.18-.56-.53-.85-1-1.15-1.42-.52-.7-.37-.7-.85-.01-.32.45-.46.62-.75 1-.33.4-.73.68-1 1-.22.26-.55.68-.74 1.2a3.84 3.84 0 0 0-.22 1.54c.03.39.26 1.25.56 1.95.1.21.64 1.05.92 1.79.3.8.4 1.24.52 2.14.08.55.29 1.52.01 1.56-.44.06-.26-.6-.59-1.54-.2-.61-.32-.98-.67-1.52a4.56 4.56 0 0 0-2.22-1.88c-.28-.14-.99-.5-2.26-.33-.43.06-1.22.37-1.7.87-.33.35-.5.66-.62 1.16-.2.86-.06 1.57.57 2.18.51.5 1.22.56 1.5.98.33.48.06.88.43.74.13-.04.24-.17.35-.32.17-.27.15-.49.13-.8s-.19-.47-.21-.78c-.03-.4-.06-.7.18-1.02.31-.44.78-.53 1.31-.44.35.05.52.2.81.4.35.23.44.34.77.73.38.45.5.9.66 1.19.24.46-.14.18-.38.65-.12.25-.22.46-.18.75.14.85.63.26.7.48a.8.8 0 0 1-.2.53c-.53.65-1.23.23-1.94.66-.53.33-.66 1.26-.5 1.35z"/></svg>