<svg id="svg3162" xmlns="http://www.w3.org/2000/svg" viewBox="0 0 612.3 612.3"><style>.st0{fill:#211e1e}.st2{fill:#fff}.st3,.st4{fill:none;stroke:#211e1e;stroke-width:2.3438;stroke-miterlimit:10}.st4{fill:#211e1e}</style><g id="layer1" transform="translate(-39.56 -269.1)"><path id="path31" class="st0" d="M345.7 874.8c165.5 0 299.6-134.1 299.6-299.6S511.2 275.6 345.7 275.6 46.1 409.8 46.1 575.2s134.2 299.6 299.6 299.6"/><path id="path33" d="M345.7 874.8c165.5 0 299.6-134.1 299.6-299.6S511.2 275.6 345.7 275.6 46.1 409.8 46.1 575.2s134.2 299.6 299.6 299.6z" fill="none" stroke="#8f8f8f" stroke-width="13.13"/><path id="path35" class="st2" d="M345.7 785.9c116.3 0 210.7-94.3 210.7-210.7 0-116.3-94.3-210.7-210.7-210.7-116.3 0-210.7 94.3-210.7 210.7.1 116.4 94.4 210.7 210.7 210.7"/><path id="path37" class="st2" d="M101.9 539.6c-.6 1.2-1.3 2.2-2 3.1-.7.9-1.5 1.6-2.3 2.2-.9.6-1.9 1-3 1.2-1.1.2-2.5.3-4 0-1.9-.2-3.4-.8-4.8-1.6-1.3-.8-2.4-1.9-3.2-3.1-.8-1.3-1.3-2.8-1.6-4.5-.3-1.7-.3-3.5 0-5.6.2-1.8.6-3.5 1.2-5.1.5-1.6 1.2-3.2 2.1-4.9 2.1.5 4 1.3 5.9 2.5-.3.5-.5 1-.8 1.6-.3.5-.6 1.1-.8 1.7-.2.6-.4 1.3-.6 2.1-.2.8-.4 1.7-.5 2.7-.1.6-.1 1.3-.1 1.9 0 .7.1 1.2.4 1.8.2.5.6 1 1.1 1.4.5.4 1.2.7 2.1.8.7.1 1.3 0 1.9-.1.5-.2 1-.5 1.4-.9.4-.4.8-.8 1.1-1.3l.9-1.5 1.7-3.1c.7-1.3 1.4-2.4 2.2-3.5.7-1.1 1.6-1.9 2.5-2.6 1-.7 2.1-1.1 3.3-1.4 1.3-.3 2.8-.3 4.5 0 1.8.2 3.5.8 4.9 1.7 1.4.9 2.6 2 3.5 3.4.9 1.4 1.5 3.1 1.9 5.1.4 1.9.4 4.1.1 6.5-.2 1.2-.4 2.2-.6 3.2-.2.9-.4 1.8-.7 2.6-.3.8-.6 1.7-1 2.4-.4.8-.8 1.6-1.3 2.5-1-.3-2.1-.6-3.2-1s-2.2-1-3.3-1.5c.8-1.4 1.5-2.8 2-4.1.5-1.3.8-2.7 1-4.2.3-2.3.1-4.1-.5-5.5-.7-1.4-1.9-2.2-3.6-2.5-.9-.1-1.6-.1-2.2.2-.6.2-1.2.6-1.6 1-.4.4-.9 1-1.2 1.5-.4.6-.7 1.2-1 1.8l-1.8 3.1z"/><path id="path39" class="st2" d="M85.3 508.5c.3-1.7.6-3.3 1-5l1.2-5.1c.5-1.8 1.2-3.5 2-5.2.8-1.7 2-3.2 3.3-4.4 1.4-1.2 3-2 5-2.4 2-.4 4.3-.3 7.1.5 2.7.8 4.8 1.8 6.3 3.2 1.5 1.4 2.5 2.9 3.1 4.6.6 1.7.8 3.5.7 5.4-.1 1.9-.5 3.7-.9 5.4-.1.5-.3.9-.4 1.3-.1.4-.3.8-.4 1.1l12.2 3.4-.3 2c-.1.6-.3 1.3-.5 1.9-.1.6-.3 1.2-.6 1.8-.2.7-.5 1.3-.8 2l-38-10.5zm21.6-2.3c.2-.4.3-.8.4-1.1.1-.4.2-.8.4-1.3.2-.9.4-1.7.4-2.7 0-.9-.2-1.8-.5-2.6-.4-.8-.9-1.5-1.7-2.1-.8-.6-1.8-1.1-3.1-1.5-1.3-.4-2.5-.5-3.4-.3-1 .1-1.9.5-2.6 1-.7.5-1.3 1.2-1.8 2s-.8 1.6-1.1 2.5c-.1.4-.2.8-.3 1.1s-.2.8-.3 1.5c.1-.2 13.6 3.5 13.6 3.5z"/><path id="path41" class="st2" d="M139.4 473.8c-1.2 2.7-2.7 4.8-4.6 6.3-1.8 1.5-3.9 2.6-6.1 3.1-2.2.5-4.6.5-7.1.1s-5.1-1.2-7.8-2.5c-2.6-1.2-4.9-2.6-6.9-4.3-2-1.7-3.5-3.5-4.6-5.5-1.1-2-1.6-4.2-1.7-6.6 0-2.4.6-4.9 1.8-7.6 1.2-2.7 2.8-4.8 4.6-6.3 1.8-1.5 3.9-2.5 6.1-3 2.2-.5 4.6-.5 7.2-.1 2.5.4 5.1 1.2 7.8 2.5 2.7 1.2 5 2.7 6.9 4.3 2 1.7 3.5 3.5 4.5 5.5 1.1 2 1.6 4.2 1.6 6.6.1 2.3-.5 4.8-1.7 7.5zm-6.1-2.8c2.4-5.1-.6-9.6-8.8-13.4-4.1-1.9-7.5-2.7-10.1-2.4-2.6.3-4.5 1.7-5.7 4.3-2.4 5.2.5 9.7 8.7 13.5 8.3 3.8 13.6 3.2 15.9-2z"/><path id="path43" class="st2" d="M117.1 429.9c.8-1.4 1.5-2.8 2.1-4 .7-1.2 1.5-2.6 2.4-4 1.1-1.7 2.4-3.2 3.7-4.6 1.4-1.4 2.9-2.5 4.5-3.3 1.7-.8 3.4-1.1 5.2-1 1.9.1 3.8.8 5.8 2.1a12.42 12.42 0 0 1 4.6 5.4c.4.9.6 1.8.8 2.7.1.9.2 1.7.1 2.3v1.1l19.1 1.3c-.3.7-.7 1.3-1.1 2-.4.7-.8 1.4-1.3 2.1-.8 1.2-1.6 2.2-2.6 3.2l-20.9-1.6.2-1.4c0-.6.1-1.3.2-2.1s0-1.7-.1-2.6c-.1-.9-.4-1.8-.9-2.6a6.5 6.5 0 0 0-2.1-2.3c-1.9-1.3-3.7-1.7-5.3-1.2-1.6.5-3 1.6-4.2 3.3-.4.7-.8 1.3-1.1 1.9l27.6 18.4c-.3.6-.6 1.2-1 1.8-.3.6-.6 1.1-1 1.6-.3.5-.7 1.1-1.1 1.6-.4.6-.9 1.1-1.4 1.7l-32.2-21.8z"/><path id="path45" class="st2" d="M149 397.8l-6.5 7.3c-1-.6-1.9-1.3-2.8-2.1-.8-.7-1.6-1.6-2.3-2.4l18.5-20.6a17.43 17.43 0 0 1 5 4.5l-6.5 7.3 24.2 21.8c-.4.5-.8 1.1-1.2 1.6l-1.2 1.5c-.4.5-.9.9-1.4 1.5-.5.5-1 1-1.6 1.5L149 397.8z"/><path id="path47" class="st2" d="M161.5 374.1l1.5-1.5c.6-.6 1.1-1.1 1.6-1.5 1.1-.9 2.2-1.7 3.6-2.6l26.5 18.3-13.2-29.4c.5-.5 1-1.1 1.5-1.5.5-.5 1-.9 1.5-1.4.5-.4 1.1-.8 1.6-1.2.5-.4 1.1-.8 1.7-1.2l15.5 38.3c-.5.6-1 1.1-1.6 1.6-.5.5-1.1 1-1.7 1.5-.6.5-1.1.9-1.7 1.3-.6.4-1.2.8-1.9 1.3l-34.9-22z"/><path id="path49" class="st2" d="M196.4 346.4l19-11.7c.8.8 1.4 1.8 2 2.7.6 1 1.1 2.1 1.5 3.1l-12.2 7.5 4.5 7.3 9.7-6a17.72 17.72 0 0 1 3.5 5.8l-9.7 6 5.4 8.8 12.5-7.7c.8.8 1.4 1.7 2.1 2.7.6 1 1.1 2.1 1.5 3.1L217 379.9l-20.6-33.5z"/><path id="path51" class="st2" d="M226.5 328.7c1.4-.8 2.7-1.6 4-2.2 1.2-.7 2.6-1.4 4.2-2.1 1.8-.8 3.7-1.5 5.6-1.9 1.9-.5 3.8-.6 5.6-.4 1.8.2 3.5.9 5 1.9 1.5 1 2.8 2.7 3.8 4.9.6 1.3.9 2.6 1 3.7.1 1.2.1 2.2-.1 3.2s-.4 1.9-.8 2.7c-.4.8-.7 1.5-1.1 2.1l-.6.9 15.5 11.3c-.6.4-1.3.7-2 1.1-.7.4-1.4.8-2.2 1.1-1.3.6-2.6 1-3.9 1.4l-16.8-12.5 1-1.1c.4-.5.8-1 1.3-1.7s.9-1.4 1.3-2.2c.4-.8.6-1.7.7-2.7.1-1-.1-2-.6-3.1-.9-2.1-2.2-3.4-3.9-3.8-1.6-.4-3.4-.2-5.3.6-.7.3-1.4.7-1.9 1l13.5 30.3c-.6.3-1.2.6-1.8 1-.6.3-1.1.6-1.7.9-.6.2-1.2.5-1.8.8-.6.2-1.3.5-2 .7l-16-35.9z"/><path id="path53" class="st2" d="M262.7 313.9l21.5-6c.5 1 .9 2 1.2 3.1.3 1.2.5 2.3.6 3.4l-13.8 3.8 2.3 8.3 11-3.1a18.57 18.57 0 0 1 1.8 6.6l-11 3.1 2.8 10 14.2-3.9c.5 1 .9 2 1.2 3.1.3 1.2.5 2.3.6 3.4l-21.9 6.1-10.5-37.9z"/><path id="path55" class="st2" d="M294.9 305.7c1.3-.4 2.6-.7 3.8-1 1.3-.2 2.7-.4 4.1-.4l6.7 38.8a27.1 27.1 0 0 1-7.9 1.4l-6.7-38.8z"/><path id="path57" class="st2" d="M314.9 302.3c1.1-.3 2.2-.4 3.2-.5 1.1-.1 2.2 0 3.4.1l16.6 24.1-1.4-25c1.3-.3 2.6-.5 3.8-.5 1.1-.1 2.2 0 3.3.1l2.2 39.3c-1.2.3-2.2.4-3.1.5-1 .1-2.1 0-3.4-.1l-16.7-24.1 1.4 25a21.08 21.08 0 0 1-7 .4l-2.3-39.3z"/><path id="path59" class="st2" d="M356.2 301.1c1.3-.1 2.7-.2 4-.1 1.3.1 2.7.3 4.1.6l-2.2 39.3c-1.4.1-2.7.2-4 .1-1.3-.1-2.7-.2-4-.5l2.1-39.4z"/><path id="path61" class="st2" d="M394.5 324.6c1.3 0 2.7.1 3.9.3 1.2.2 2.5.6 3.9 1l-3.3 19c-2 .4-4 .5-6.1.4-2.1-.1-3.9-.3-5.4-.6-3.2-.5-5.8-1.5-8.1-2.9-2.2-1.4-3.9-3.1-5.2-5.2s-2.1-4.4-2.5-7c-.4-2.6-.3-5.3.2-8.2.5-2.9 1.4-5.5 2.6-7.8 1.3-2.3 2.8-4.2 4.7-5.8 1.9-1.5 4-2.6 6.5-3.2 2.5-.6 5.1-.7 8-.2 1.7.3 3.3.7 4.8 1.1 1.4.5 2.9 1.2 4.4 2.1a7.9 7.9 0 0 1-1.2 3c-.5 1-1.1 1.9-1.7 2.9a77 77 0 0 0-3.2-1.5c-.9-.3-2.1-.6-3.4-.9-3.5-.6-6.3.1-8.5 2s-3.7 5.1-4.5 9.5c-.8 4.4-.4 7.9 1 10.4s4 4 7.5 4.7c.6.1 1.2.2 1.7.2h1.4l2.5-13.3z"/><path id="path63" class="st2" d="M418.6 310.6c.7.1 1.3.3 2 .5.6.2 1.3.4 2 .6.6.2 1.2.5 1.8.7.6.2 1.2.5 1.9.8l-6.7 19.3c-.7 2.1-1.3 4-1.6 5.5-.4 1.6-.5 2.9-.3 4 .1 1.1.5 2.1 1.2 2.9.7.8 1.7 1.4 3.1 1.9 1.3.5 2.5.6 3.5.4 1-.2 1.9-.7 2.7-1.5.8-.8 1.6-2 2.2-3.4.7-1.4 1.4-3.2 2.1-5.3l6.7-19.3c.7.1 1.4.3 2 .5l1.8.6c.6.2 1.2.5 1.9.7.6.3 1.3.6 1.9.9l-7.2 20.9c-.9 2.5-1.9 4.8-3 6.7-1.1 2-2.5 3.5-4.1 4.6-1.6 1.1-3.4 1.8-5.5 2s-4.5-.2-7.2-1.1c-2.8-1-4.9-2.2-6.4-3.6s-2.5-3.1-3.1-4.9c-.5-1.9-.6-3.9-.3-6.1.3-2.2.9-4.6 1.8-7.1l6.8-21.2z"/><path id="path65" class="st2" d="M459.3 325.9c1.1.3 2.1.8 3 1.2 1 .5 1.9 1.2 2.8 1.9l1.6 29.2 11.8-22.1c1.3.4 2.4.9 3.5 1.5 1 .5 1.9 1.1 2.7 1.8l-18.6 34.7c-1.1-.4-2.1-.8-2.9-1.2-.9-.5-1.9-1.1-2.8-1.9l-1.7-29.2-11.8 22c-1.1-.4-2.2-.8-3.3-1.4-1.1-.6-2-1.2-2.9-1.9l18.6-34.6z"/><path id="path67" class="st2" d="M502.5 375.7c1.2.6 2.3 1.3 3.3 2.1s2 1.7 3 2.7L497 395.7c-1.9-.6-3.8-1.5-5.6-2.5-1.8-1.1-3.2-2.1-4.5-3-2.5-2-4.4-4.1-5.7-6.4-1.3-2.3-2-4.6-2.2-7-.2-2.4.2-4.8 1.1-7.3.9-2.5 2.2-4.8 4-7.2 1.8-2.3 3.8-4.2 6-5.6 2.2-1.5 4.5-2.4 6.8-2.9 2.4-.5 4.8-.4 7.3.2 2.5.6 4.9 1.8 7.2 3.6 1.4 1.1 2.6 2.2 3.7 3.3 1.1 1.1 2 2.4 2.9 4-.7.8-1.5 1.5-2.5 2.1-.9.6-1.9 1.2-2.9 1.7-.7-1.1-1.4-2.1-2.1-2.8-.7-.7-1.5-1.5-2.6-2.4-2.8-2.1-5.6-2.9-8.5-2.2-2.9.6-5.7 2.7-8.4 6.3-2.7 3.5-4.1 6.8-4 9.6.1 2.9 1.6 5.4 4.4 7.7.5.4 1 .7 1.4.9s.8.5 1.2.7l8.5-10.8z"/><path id="path71" class="st2" d="M517.9 420.3c-1.6-1.9-2.6-3.8-3.1-5.7-.5-1.9-.4-3.9.1-5.8s1.4-3.8 2.7-5.7c1.3-1.9 3-3.7 5.1-5.4 2-1.7 4.1-3.1 6.2-4.1 2.1-1 4.2-1.6 6.2-1.8s3.9.1 5.8.9 3.6 2.1 5.2 4 2.6 3.8 3.1 5.7c.5 2 .4 3.9 0 5.9-.5 2-1.4 3.9-2.8 5.8s-3.1 3.7-5.1 5.4c-2 1.7-4.1 3.1-6.2 4.1-2.1 1-4.1 1.6-6.1 1.8-2 .2-3.9-.1-5.8-.9-2-1-3.7-2.3-5.3-4.2zm5.1-4.2c1.2 1.4 2.9 1.9 5 1.4 2.1-.4 4.7-2 7.8-4.6 3.1-2.6 5-5 5.8-7s.6-3.8-.7-5.2c-1.2-1.5-2.9-2-5.1-1.5s-4.8 2-7.8 4.6c-3.1 2.6-5 5-5.8 7.1-.7 2-.4 3.8.8 5.2z"/><path id="path73" class="st2" d="M564.5 434.2l-8.8-13.9c.8-.8 1.7-1.5 2.6-2.1 1-.6 2-1.1 3.1-1.5l14.4 22.7-.4.6-41.6 7.3c-.5-1.3-.8-2.5-1-3.8-.2-1.3-.3-2.6-.2-4l31.9-5.3z"/><path id="path77" class="st2" d="M590.3 460.8l8.1 20.8c-1 .6-2 1.1-3 1.5-1.1.4-2.2.7-3.3 1l-5.2-13.4-8 3.1 4.1 10.6c-1 .6-2 1.1-3.1 1.5-1.1.4-2.2.7-3.3 1l-4.1-10.6-9.7 3.8 5.3 13.7c-.9.6-1.9 1.1-3 1.5-1.1.4-2.2.7-3.3.9l-8.2-21.2 36.7-14.2z"/><path id="path79" class="st2" d="M563.6 502.6c1.3-.6 2.5-1 3.8-1.4 1.3-.3 2.6-.6 4-.8.6 1.2 1.1 2.5 1.4 3.8.4 1.3.6 2.6.7 4a21.3 21.3 0 0 1-7.7 2.1c-.6-1.3-1-2.5-1.4-3.8-.4-1.2-.7-2.5-.8-3.9z"/><path id="path81" class="st2" d="M606 508.1c.2.6.3 1.3.5 2.1s.4 1.5.5 2.1c.2 1.4.4 2.8.5 4.4l-29.1 13.7 32.1 3.3.6 2.1c.1.6.3 1.3.4 2l.3 2c.1.7.1 1.4.1 2.1l-40.9-5.8c-.2-.7-.5-1.5-.6-2.1-.2-.7-.3-1.4-.4-2.2-.1-.7-.2-1.5-.3-2.1-.1-.7-.1-1.4-.1-2.3l36.4-19.3z"/><path id="path83" class="st2" d="M572.1 547.2a27.6 27.6 0 0 1 8-.6 28.04 28.04 0 0 1 .6 8.1 31 31 0 0 1-3.9.6c-1.4.1-2.7.1-4.1 0-.3-1.4-.5-2.7-.6-4-.2-1.4-.2-2.8 0-4.1z"/><path id="path85" class="st2" d="M164.8 706.6l19.1 23.1c-.9 1.2-2 2.2-3.2 3.2-1.2 1-2.5 1.9-3.9 2.6l-12.3-14.8-8.8 7.3 9.7 11.7a24.18 24.18 0 0 1-7 5.8l-9.7-11.7-10.8 8.9 12.6 15.2c-.9 1.2-2 2.2-3.2 3.2-1.3 1-2.5 1.9-3.8 2.6l-19.4-23.5 40.7-33.6z"/><path id="path87" class="st2" d="M191.9 738.8c1.6.9 3 1.9 4.3 3 1.3 1.1 2.6 2.4 3.8 3.8l-28.1 33.3 14 11.8c-.4.7-.9 1.4-1.3 2-.4.6-.9 1.2-1.3 1.7-.5.6-1 1.2-1.6 1.8-.5.6-1.1 1.1-1.8 1.6l-22.1-18.6 34.1-40.4z"/><path id="path89" class="st2" d="M212.3 758c.8.3 1.7.7 2.7 1.1 1 .4 1.8.9 2.6 1.3 1.6.9 3.2 2 4.9 3.3l-10.4 41.9 30.6-30.6a28.25 28.25 0 0 1 5 2.4c.8.4 1.5.9 2.3 1.4.8.5 1.5 1 2.3 1.6l-40.7 37.7c-1-.4-1.9-.8-2.8-1.2-.9-.4-1.8-.8-2.7-1.4-.9-.5-1.7-1-2.5-1.5s-1.6-1.1-2.5-1.8l11.2-54.2z"/><path id="path91" class="st2" d="M259.1 783.7l28.6 8.9c-.2 1.5-.5 3-.9 4.4-.5 1.6-1.1 3-1.8 4.3l-18.4-5.7-3.4 10.9 14.6 4.5c-.2 1.6-.5 3.1-.9 4.5-.5 1.5-1.1 2.9-1.8 4.3l-14.6-4.5-4.2 13.3 18.8 5.9c-.2 1.5-.5 3-.9 4.4-.5 1.5-1.1 3-1.8 4.3l-29.1-9 15.8-50.5z"/><path id="path93" class="st2" d="M298.7 796.3h6.1c1.9 0 4 .1 6.3.4 2.7.3 5.3.8 7.8 1.5 2.6.8 4.8 1.9 6.8 3.3 2 1.5 3.5 3.3 4.6 5.5 1.1 2.2 1.5 5 1.1 8.3-.2 1.9-.6 3.6-1.2 5.1-.6 1.4-1.4 2.7-2.3 3.7-.9 1-1.8 1.9-2.7 2.6-.9.7-1.8 1.3-2.7 1.7l-1.4.7 10.6 23.5h-3.1a36.52 36.52 0 0 1-8.7-1.2l-11.3-25.8 1.8-.7c.7-.3 1.6-.6 2.6-1s2.1-1 3-1.7c1-.7 1.8-1.6 2.6-2.7.7-1.1 1.2-2.4 1.4-4 .3-3.1-.3-5.4-2-7-1.6-1.6-3.8-2.6-6.6-2.9-1.1-.1-2.1-.1-2.9-.1l-4.5 44.4h-2.7c-.9 0-1.7-.1-2.6-.1l-2.6-.3c-.9-.1-1.8-.3-2.8-.6l5.4-52.6z"/><path id="path95" class="st2" d="M357.6 828.2c-1.7-.5-3.3-1-4.7-1.7-1.4-.6-2.6-1.4-3.6-2.4s-1.8-2.1-2.5-3.6c-.7-1.4-1.1-3.1-1.3-5.2-.2-2.5 0-4.7.7-6.7s1.8-3.7 3.2-5.1c1.4-1.4 3.2-2.6 5.4-3.4 2.1-.8 4.6-1.4 7.3-1.6 2.5-.2 4.9-.2 7.1 0 2.2.2 4.5.7 7 1.3 0 2.9-.6 5.7-1.6 8.6-.8-.2-1.5-.5-2.3-.7-.8-.2-1.6-.4-2.5-.5-.9-.1-1.8-.2-2.9-.2-1.1 0-2.3 0-3.7.1-.8.1-1.7.2-2.5.4s-1.6.6-2.2 1c-.7.4-1.2 1.1-1.5 1.9-.4.8-.5 1.8-.4 3 .1 1 .3 1.8.7 2.4.4.6.9 1.1 1.5 1.6.6.4 1.3.7 2.1 1 .8.2 1.5.5 2.3.7l4.5 1.3c1.9.6 3.6 1.2 5.2 1.8 1.6.6 3 1.5 4.1 2.5 1.2 1 2.1 2.4 2.8 3.9.7 1.6 1.2 3.6 1.4 6 .2 2.5 0 4.8-.8 6.9-.7 2.1-1.9 4-3.4 5.6-1.6 1.6-3.6 2.9-6 4-2.4 1-5.3 1.7-8.5 2-1.6.1-3 .2-4.3.2-1.3 0-2.5 0-3.7-.1-1.2-.1-2.3-.3-3.5-.5-1.2-.2-2.4-.6-3.6-.9 0-1.4.2-2.9.4-4.5s.6-3.2 1-4.8c2.1.6 4.1 1.1 5.9 1.3 1.8.2 3.8.3 5.8.1 3.1-.3 5.4-1.1 7.1-2.3 1.7-1.3 2.4-3.1 2.2-5.5a6.2 6.2 0 0 0-.9-2.9c-.5-.7-1.1-1.4-1.8-1.8-.7-.5-1.5-.9-2.3-1.1-.9-.3-1.8-.6-2.7-.8l-4.5-1.3z"/><path id="path97" class="st2" d="M387.9 797.1c1.4-.7 3.1-1.4 5-2.1 1.9-.7 4.4-1.5 7.3-2.4 2.6-.8 5.1-1.3 7.5-1.5s4.6-.1 6.7.4a11 11 0 0 1 5.2 2.8c1.5 1.4 2.6 3.3 3.4 5.9.5 1.5.6 3 .6 4.4-.1 1.4-.3 2.7-.8 3.9-.5 1.2-1.1 2.2-1.8 3.1s-1.6 1.6-2.5 2c1.1-.2 2.4-.2 3.9-.1s2.9.5 4.3 1.2 2.7 1.7 4 3.1 2.2 3.2 2.9 5.4c.9 3.1 1.1 5.7.5 8.1-.6 2.3-1.7 4.3-3.3 6-1.6 1.7-3.6 3.1-6.1 4.3-2.4 1.2-5 2.2-7.9 3l-6.5 1.8c-2.1.5-4.6 1-7.3 1.5l-15.1-50.8zm23 39.9c.7-.1 1.5-.3 2.3-.5s1.7-.4 2.4-.6c1-.3 2-.7 3-1.2s1.9-1.2 2.7-2c.8-.8 1.3-1.8 1.7-2.9.3-1.2.3-2.5-.2-4.1-.4-1.5-1-2.6-1.8-3.4-.7-.8-1.6-1.4-2.7-1.7-1-.3-2.2-.5-3.5-.3-1.3.1-2.6.4-4.1.8l-4.2 1.2 4.4 14.7zm-3.6-23.2c1.2-.4 2.2-.8 3.2-1.3s1.7-1.2 2.3-1.9 1-1.7 1.1-2.7 0-2.3-.4-3.7a7 7 0 0 0-1.7-3.1c-.7-.7-1.6-1.2-2.5-1.5-.9-.3-1.9-.4-2.9-.2-1 .1-2 .3-2.9.6-1.3.4-2.4.8-3.2 1.2l4 13.5 3-.9z"/><path id="path99" class="st2" d="M432.3 783.7l26.4-14.1c.9 1.2 1.8 2.4 2.5 3.8.8 1.4 1.4 2.8 1.8 4.3l-17 9.1 5.4 10.1 13.5-7.2c1 1.3 1.8 2.5 2.5 3.8.7 1.4 1.3 2.8 1.8 4.3l-13.5 7.2 6.6 12.3 17.4-9.3c.9 1.1 1.8 2.4 2.5 3.7.8 1.5 1.4 2.9 1.8 4.3l-26.9 14.3-24.8-46.6z"/><path id="path101" class="st2" d="M468.8 764.7c1.5-1.6 2.9-3 4.2-4.3 1.3-1.3 2.9-2.8 4.6-4.2 2.1-1.7 4.2-3.2 6.6-4.6 2.3-1.3 4.7-2.2 7.1-2.6 2.4-.4 4.8-.2 7.2.6 2.4.8 4.6 2.5 6.7 5 1.3 1.5 2.2 3 2.8 4.4.6 1.5 1 2.9 1.1 4.2.1 1.3.1 2.6 0 3.8-.1 1.2-.4 2.2-.7 3.1l-.4 1.4 24.2 8.8c-.7.7-1.4 1.4-2.1 2.2-.8.8-1.6 1.5-2.4 2.2-1.4 1.2-2.9 2.3-4.5 3.2l-26.4-9.9.8-1.8c.3-.7.7-1.6 1.1-2.6.4-1.1.7-2.2.9-3.4.2-1.2.1-2.4-.1-3.7-.3-1.3-.9-2.5-1.9-3.7-2-2.4-4.1-3.5-6.4-3.5-2.3 0-4.5.9-6.6 2.7-.8.7-1.5 1.4-2.1 2.1l28.7 34.1c-.6.6-1.2 1.3-1.9 1.9-.6.6-1.3 1.2-1.9 1.7-.6.5-1.3 1.1-2.1 1.7-.7.6-1.5 1.1-2.4 1.6l-34.1-40.4z"/><path id="path103" class="st2" d="M541.4 728.2c.9-1.6 1.9-3.1 2.9-4.4 1.1-1.3 2.3-2.7 3.7-4l20.4 16c-.8 2.6-2 5-3.5 7.4-1.5 2.4-2.8 4.4-4.1 6-2.7 3.4-5.5 5.9-8.6 7.6-3 1.7-6.2 2.7-9.4 2.9-3.2.2-6.5-.3-9.8-1.5-3.3-1.2-6.5-3-9.5-5.4-3.1-2.4-5.6-5.1-7.5-8.1-1.9-3-3.2-6-3.8-9.2-.6-3.2-.5-6.4.4-9.7.8-3.3 2.5-6.5 4.9-9.6 1.5-1.8 2.9-3.5 4.4-4.9 1.5-1.4 3.3-2.7 5.4-3.9 1.1 1 2.1 2.1 2.8 3.4.8 1.3 1.6 2.5 2.3 3.9-1.5 1-2.8 1.9-3.8 2.8-1 .9-2.1 2.1-3.2 3.5-2.9 3.7-3.9 7.5-3.1 11.4.8 3.9 3.6 7.7 8.4 11.4 4.7 3.7 9 5.5 12.9 5.4 3.9-.1 7.3-2.1 10.3-5.9.5-.6 1-1.3 1.3-1.9s.6-1.1.9-1.6l-14.7-11.6z"/><path id="path107" class="st0" d="M352.4 550.2c-16.5-7.7-73.8-25.4-67-91.9 0 0-10.5-1.9-21.7 6.4-2.5 11.2-17.5 64 54.8 87.4-16.9 5.4-51 24.5-61.3 55.8C247 639 242 696.5 290.4 735.2c48.4 38.7 171.6 24.8 185.1-90.7-13.8 36.7-57.8 88-135.2 77.2-71.3-9.1-90.2-153.9 11.3-166.2 0 0 9.8-1.1.8-5.3"/><path id="path109" class="st3" d="M352.4 550.2c-16.5-7.7-73.8-25.4-67-91.9 0 0-10.5-1.9-21.7 6.4-2.5 11.2-17.5 64 54.8 87.4-16.9 5.4-51 24.5-61.3 55.8C247 639 242 696.5 290.4 735.2c48.4 38.7 171.6 24.8 185.1-90.7-13.8 36.7-57.8 88-135.2 77.2-71.3-9.1-90.2-153.9 11.3-166.2 0 0 9.8-1.1.8-5.3z"/><path id="path111" class="st4" d="M326.8 480.9s8.1-31.7-43-30.3c-51.2 1.4-89.7 87.2-6 114-9.6 6.9-14 12-18 18.7-36-9.9-88.6-48-49.9-107.8 36.2-54.6 148.1-46.5 162.5 5.4h-45.6z"/><path id="path113" class="st0" d="M332.2 498.8h43.1s9.6 6.6 25.6 56.2c10.2 31.7 21.8 55.3 21.8 55.3S485.5 538 479.1 481h35.8s8 73.4-94.2 175.6c-4.5 4.5-22.6-23.2-44.2-82.1-10.6-28.8-24.7-64.1-44.3-75.7"/><path id="path115" class="st3" d="M332.2 498.8h43.1s9.6 6.6 25.6 56.2c10.2 31.7 21.8 55.3 21.8 55.3S485.5 538 479.1 481h35.8s8 73.4-94.2 175.6c-4.5 4.5-22.6-23.2-44.2-82.1-10.6-28.8-24.7-64.1-44.3-75.7z"/><path id="path117" class="st0" d="M305.2 592.3s9.5-14.2 17.2-15.9c21.4 4.4 82.6 32.5 51.3 91.1-10.7 17.7-31.9 37.8-48.5 42.2-5.8-3.3-11.3-8.3-12.6-10.6 6.1-3.1 42.3-20.5 40.1-63-2.3-37.5-47.5-43.8-47.5-43.8"/><path id="path119" class="st3" d="M305.2 592.3s9.5-14.2 17.2-15.9c21.4 4.4 82.6 32.5 51.3 91.1-10.7 17.7-31.9 37.8-48.5 42.2-5.8-3.3-11.3-8.3-12.6-10.6 6.1-3.1 42.3-20.5 40.1-63-2.3-37.5-47.5-43.8-47.5-43.8z"/><path id="path121" class="st0" d="M185.6 681.6l32.8-1.1s-1.5 14 8.8 21.3c17.5 12.3 31.4 9.3 31.4 9.3 2.3 4.8 11.4 16.6 11.4 16.6-15.8 3.7-73.7 1.4-84.4-46.1"/><path id="path123" class="st3" d="M185.6 681.6l32.8-1.1s-1.5 14 8.8 21.3c17.5 12.3 31.4 9.3 31.4 9.3 2.3 4.8 11.4 16.6 11.4 16.6-15.8 3.6-73.7 1.4-84.4-46.1z"/><path id="path125" class="st4" d="M467.3 470.6c-17.2-41.9-57-77-108.6-77-51.5 0-80.4 39.2-80.4 39.2l20.5-.6s17.5-32.3 73-19.3c41.4 9.7 54.5 41.2 58.7 57.7h36.8z"/></g></svg>