<svg version="1.1" xmlns="http://www.w3.org/2000/svg" viewBox="0 0 27 32"><path fill="#000" d="M22.72 4.7C20.32 1.8 16.99 0 13.3 0s-7 1.8-9.4 4.7C1.49 7.6 0 11.59 0 16s1.48 8.4 3.89 11.3c2.4 2.9 5.73 4.7 9.41 4.7s7.02-1.8 9.42-4.7c2.4-2.9 3.89-6.89 3.89-11.3s-1.49-8.4-3.89-11.3zm-.26 22.39c-2.35 2.83-5.59 4.57-9.16 4.57s-6.8-1.74-9.15-4.58C1.8 24.26.34 20.34.35 16S1.8 7.75 4.14 4.91C6.5 2.08 9.73.34 13.3.34s6.8 1.74 9.16 4.57c2.35 2.84 3.8 6.76 3.8 11.09s-1.45 8.25-3.8 11.09z"/><path fill="#fff" d="M22.46 27.09c-2.35 2.83-5.59 4.57-9.16 4.57s-6.8-1.74-9.15-4.58C1.8 24.26.34 20.34.35 16S1.8 7.75 4.14 4.91C6.5 2.08 9.73.34 13.3.34s6.8 1.74 9.16 4.57c2.35 2.84 3.8 6.76 3.8 11.09s-1.45 8.25-3.8 11.09z"/><path fill="#000" d="M22.02 5.34C19.8 2.6 16.72.9 13.3.9S6.8 2.6 4.58 5.34C2.36 8.07.98 11.84.98 16s1.38 7.93 3.6 10.66C6.8 29.4 9.9 31.1 13.3 31.1s6.5-1.7 8.72-4.44c2.23-2.73 3.6-6.5 3.6-10.66s-1.37-7.93-3.6-10.66z"/><path fill="#fff" d="M21.76 5.55C19.6 2.88 16.6 1.24 13.3 1.24S7.02 2.88 4.84 5.55A16.58 16.58 0 0 0 1.32 16c0 1.9.3 3.73.83 5.4l22.21-11.08c-.6-1.8-1.5-3.42-2.6-4.77z"/><path fill="#000" d="M11.64 12.31a2.7 2.7 0 0 0-.98-1.12c-.4-.24-.84-.37-1.32-.37H9.3c-.48 0-1.12.1-1.93.3-.63.15-1.1.23-1.39.23-.08 0-.15 0-.2-.02-.18-.04-.28-.12-.35-.26a.46.46 0 0 1-.06-.21.5.5 0 0 1 .06-.23c.14-.27.41-.51.84-.73.32-.17.6-.24.82-.24l.17.01c.25.05.5.23.75.57l.09.12 1.78-1-.08-.15a2.67 2.67 0 0 0-2.34-1.45c-.6 0-1.26.2-1.97.56-.6.3-1.08.66-1.42 1.06a2.48 2.48 0 0 0-.6 1.62 2.39 2.39 0 0 0 1.84 2.32c.2.06.42.09.67.09.42 0 .92-.07 1.51-.21.72-.17 1.18-.26 1.38-.3l.28-.01c.15 0 .27.02.35.05a.6.6 0 0 1 .3.3c.06.12.1.24.1.37s-.04.26-.1.41c-.12.29-.4.56-.88.8-.3.16-.6.23-.86.23-.1 0-.2 0-.3-.03-.35-.08-.69-.33-1.02-.77l-.1-.12-1.7 1.1.1.13a3.43 3.43 0 0 0 2.02 1.55c.21.05.44.08.67.08.62 0 1.28-.19 2-.55.67-.34 1.2-.73 1.56-1.16a2.65 2.65 0 0 0 .36-2.97zM8.98 6.7l1.99-1 4.5 4.38-.95-6.2 1.96-1 1.2 9.34-1.87.95L8.98 6.7z"/><path fill="#fff" d="M5 24.31l.2-.12c.06.1.13.17.2.2s.15.07.24.07.18-.03.27-.07c.13-.07.22-.15.26-.25s.04-.2-.01-.3c-.03-.05-.07-.1-.12-.13s-.1-.04-.17-.04-.2.02-.4.06c-.19.03-.32.04-.41.03s-.17-.04-.24-.09a.56.56 0 0 1-.18-.2c-.08-.17-.1-.32-.04-.48s.18-.27.36-.37c.12-.06.24-.1.36-.1s.22.04.31.1c.1.06.18.15.24.27l-.2.13c-.07-.13-.16-.2-.26-.23s-.2 0-.33.06-.2.14-.25.22-.03.18.01.26c.04.08.1.13.17.15s.2 0 .39-.03c.19-.04.32-.07.4-.07.13 0 .24.03.33.08s.17.14.23.25c.06.12.08.23.07.35s-.04.23-.11.32a.82.82 0 0 1-.3.25c-.21.1-.4.13-.59.07s-.32-.19-.43-.39zm2.04-.25l-.35-2.28.23-.12 1.68 1.6-.25.13-.5-.49-.7.36.12.68-.23.12zm.07-1.04l.57-.3-.45-.45a6.77 6.77 0 0 1-.33-.34c.05.13.08.27.1.42l.11.66zm1.94.02l-1-1.96.23-.11 1.66 1.09-.78-1.54.21-.1 1 1.95-.23.11-1.66-1.09.79 1.54-.22.1zm1.97-1l-1-1.96.58-.29c.14-.07.25-.11.34-.13.11-.02.23 0 .34.04s.22.13.32.23.2.25.29.42c.11.22.17.42.19.61s-.02.34-.1.46a.89.89 0 0 1-.36.31l-.6.3zm.1-.35l.35-.18c.15-.07.24-.15.3-.23s.07-.18.06-.3a1.45 1.45 0 0 0-.17-.52c-.1-.2-.2-.34-.32-.42s-.22-.13-.33-.12a.83.83 0 0 0-.3.1l-.35.18.76 1.5zm1.86-.66l-1-1.95.23-.11.4.8.87-.44-.4-.8.22-.11.99 1.95-.22.11-.47-.92-.86.44.46.92-.22.11zm1.79-.9l-.36-2.28.24-.12 1.68 1.6-.26.13-.5-.5-.7.36.13.69-.23.11zm.06-1.05l.57-.29-.45-.45a6.77 6.77 0 0 1-.32-.34l.1.41.1.67zm2.05-2.48l.22-.12.57 1.13c.1.19.16.35.18.5s0 .27-.06.39a.74.74 0 0 1-.34.3c-.22.11-.41.13-.59.06s-.34-.26-.5-.58l-.57-1.13.22-.11.57 1.12c.09.18.17.3.24.36s.14.1.23.11a.5.5 0 0 0 .27-.06c.15-.08.25-.18.27-.3s-.02-.3-.14-.55l-.58-1.13zm1.47.9l.2-.12c.06.1.13.17.2.21s.15.06.24.06a.6.6 0 0 0 .28-.07c.13-.06.21-.15.25-.25s.04-.2-.01-.3c-.03-.05-.07-.1-.12-.12s-.1-.05-.17-.05-.2.02-.4.06c-.18.04-.32.05-.4.04s-.18-.05-.25-.1a.56.56 0 0 1-.18-.2c-.08-.16-.09-.32-.03-.47s.17-.28.35-.37c.12-.06.24-.1.36-.1s.22.03.32.1c.1.06.18.15.24.26l-.2.13c-.08-.12-.16-.2-.26-.22s-.21-.01-.34.05c-.12.07-.2.14-.24.23s-.04.17 0 .26c.05.08.1.13.17.14s.2.01.4-.03c.18-.04.32-.06.4-.06.13 0 .24.02.33.08s.17.14.22.25a.62.62 0 0 1-.04.67.82.82 0 0 1-.3.24c-.2.1-.4.13-.58.08s-.33-.19-.44-.4zm2.23-.34l-1-1.95 1.21-.61.12.23-.98.5.3.6.92-.48.12.24-.92.46.34.67 1.02-.52.12.23-1.25.63zm1.82-.93l-.99-1.95.23-.12 1.66 1.1-.79-1.54.21-.1 1 1.94-.23.12-1.65-1.1.78 1.54-.21.11zm-8 11.47l-.28.15-1.07-2.1a2.08 2.08 0 0 1-.34.68l-.17-.32a1.66 1.66 0 0 0 .3-1l.18-.1 1.37 2.7zm.83-1.2l.24-.16c.19.26.38.34.59.23.1-.04.16-.11.2-.21s.05-.25.02-.43a2 2 0 0 0-.2-.59l-.03-.07c0 .14-.04.27-.1.38s-.15.2-.25.24c-.18.1-.37.1-.58 0s-.4-.26-.53-.53c-.14-.28-.19-.54-.13-.77s.17-.4.37-.5c.14-.07.29-.09.45-.06s.33.12.48.26c.16.14.32.38.49.71.19.37.3.67.33.91s.02.44-.06.6a.72.72 0 0 1-.33.34c-.17.09-.34.1-.5.04s-.33-.18-.46-.39zm.51-1.75c-.1-.2-.22-.32-.36-.39s-.27-.07-.38-.01c-.12.06-.2.17-.22.33s0 .35.1.54c.09.18.2.3.34.36s.27.06.4 0c.12-.07.2-.17.22-.32s0-.32-.1-.51zm2.93.78l-.28.14-1.06-2.1-.14.35c-.06.13-.14.24-.2.33l-.17-.32c.1-.16.19-.34.24-.52s.07-.34.06-.48l.18-.1 1.37 2.7zm1.49-3.31l-.26.16a.72.72 0 0 0-.26-.23.37.37 0 0 0-.33 0c-.16.08-.24.25-.23.49 0 .21.08.48.25.81 0-.15.04-.28.1-.39s.15-.19.26-.24c.17-.1.37-.09.58 0s.38.27.52.53c.09.18.14.36.15.54s-.02.33-.1.45a.67.67 0 0 1-.28.28c-.22.12-.46.11-.7-.02s-.5-.42-.74-.88c-.26-.52-.37-.93-.34-1.23s.17-.5.4-.62c.18-.08.35-.1.52-.04s.32.18.46.39zm-.52 1.72c.1.2.22.33.37.4s.3.07.41.01c.11-.05.18-.16.2-.31s0-.33-.1-.52c-.1-.2-.22-.32-.35-.38s-.27-.06-.39 0-.2.16-.23.31 0 .32.08.5z"/></svg>