<svg version="1.1" xmlns="http://www.w3.org/2000/svg" viewBox="0 0 21 32"><path fill="#1d9053" d="M10.67 0L0 16l10.67 16 10.66-16z"/><path fill="#fff" d="M10.67.7L.47 16l10.2 15.29L20.87 16 10.66.7zM1.29 16l9.38-14.07L20.05 16l-9.38 14.07L1.29 16z"/><path fill="#fff" d="M12.87 25.62s3.2-6.21 3.2-11-2.54-8.05-5.2-8.05c-2 0-2.69 1.52-2.69 2.4s.85 1.62 1.63 1.62c.93 0 1.27-.61 1.27-.61 1.18.7 3.25 1.76 3.15 6.02-.08 2.98-.48 3.49-1.04 5.25-.85-2.24-2.56-6-2.56-6l-2.69 5.89s-1.1-2.53-1.17-6.1c0-.43 0-.61.16-2.16 1.2 0 1.9-.48 1.9-1.57 0-1.05-.94-1.6-1.6-1.6s-2.35.67-2.35 3.84c0 5.51 3.54 11.99 3.54 11.99l2.21-4.4 2.24 4.48z"/></svg>