<svg version="1.1" id="Ebene_1" xmlns="http://www.w3.org/2000/svg" x="0" y="0" viewBox="0 0 1920 1920" xml:space="preserve"><style type="text/css">.st0{fill:#e2007a}</style><path d="M534.8 873.7H412.9V303h630.2v249.3h-16.6V319.6h-597V857h105.3v16.7zM707.9 756h-144V427.7h327.6v124.7h-16.6v-108H580.5v295h127.4V756zm-102.5 73.4v-23.6h245.7v23.6H605.4zm270.5-243.9c3.5 2.2 7 4.3 10.5 6.6 8.1 5.2 16.1 10.7 23.9 16.5 10.6 7.8 20.9 16.2 30.6 25.2 9.1 8.3 17.7 17.1 25.9 26.3 6.8 7.6 13.3 15.6 19.4 23.8 6.2 8.2 12 16.7 17.4 25.3 4.4 6.9 8.5 14 12.3 21.3 4.8 9 9.2 18.3 13.3 27.7 4.5 10.2 8.8 20.5 12.9 30.9 3.3 8.5 6.6 17 9.7 25.6 3.3 9 6.6 18 9.2 27.2 2.3 8.1 4.2 16.3 6 24.6-2.7 8.5-5.4 17-7.9 25.5-2.9 10.1-5.6 20.3-7.9 30.5-2.5 10.8-4.8 21.7-6.9 32.6-1 5.1-2 10.3-2.9 15.5-5.1 28.1-9.4 56.3-11.9 84.7-1.5 15.3-2.4 30.6-2.9 45.9-.3 9-.4 18.1-.4 27.2 0 9.3.3 18.6.8 27.9.4 7.7 1 15.5 1.7 23.2.7 7.7 1.6 15.4 2.7 23.1.8 6.1 1.8 12.3 2.8 18.4 1.3 7.6 2.8 15.2 4.4 22.8 1.6 7.4 3.3 14.8 5.3 22.1 1.6 6.1 3.3 12.2 5.1 18.3 1.8 6 3.7 12.1 5.8 18.1 1.6 4.8 3.3 9.5 5.1 14.3 2.2 5.9 4.5 11.8 7 17.7 4.2 10 8.8 19.8 13.9 29.4 4.1 7.9 8.6 15.5 13.4 23 5.8 9.1 12 18 18.6 26.6 4.3 5.6 8.7 11.2 13.3 16.6 3.3 3.9 6.7 7.8 10.2 11.6l-7.6-19.4c-6.5-18.5-13-37.1-18.8-55.9-7-22.6-13.1-45.5-18.7-68.5-2.5-10-4.8-20-7-30-1.3-5.9-2.6-11.9-3.7-17.8-1.8-9-3.4-18.1-4.8-27.2-1-6.8-1.9-13.7-2.7-20.6l51.5-6.9c.8 6.3 1.7 12.5 2.6 18.8 1.2 8.2 2.7 16.4 4.2 24.5 1.6 8.2 3.3 16.4 5.2 24.5 1.1 4.9 2.3 9.9 3.4 14.8 3.8 16.2 7.5 32.4 11.9 48.4 5.2 19.2 11.5 38.2 17.5 57.2 4.1 13.1 8.1 26.2 12.9 39 2.8 7.7 5.9 15.4 9.3 22.9 4 9 8.3 17.9 12.8 26.7a747 747 0 0 0 33.2 58.3c10.1 16.3 20.7 32.3 31.7 48 3.1 4.4 6.2 8.9 9.4 13.3l-43.7 27.8c-4-5.3-8.1-10.6-12-16.1-8.8-12.5-16.6-25.7-24.6-38.8-7.6-12.5-15.4-25-22.5-37.8-5.7-10.2-11-20.6-16-31.2-4.6-9.7-9.1-19.4-13.2-29.4-1.5-3.6-3-7.3-4.5-10.9l-41 27.1c-5.2-5.6-10.5-11.2-15.4-17.1-8.9-10.7-16.7-22.2-24.2-33.9-6.1-9.5-12.1-19.1-17.8-28.8-5.2-8.7-10.2-17.6-15-26.5-4.1-7.7-7.9-15.4-11.4-23.4-4.4-10.1-8.2-20.5-11.5-31-2.1-6.6-4-13.2-5.8-19.9-3.5-12.8-6.6-25.7-9.4-38.6-2.2-10.2-4.2-20.4-6.1-30.6-2.1-11.7-4-23.4-5.5-35.1a685.76 685.76 0 0 1-5.9-77.1c-.3-12.8-.1-25.6.5-38.4 1.1-24.6 3.9-49.2 7.5-73.6 1.6-11.1 3.4-22.2 5.5-33.2a601 601 0 0 1 6-29.1c4.9-21.6 11.1-43 17.1-64.3 1.3-4.7 2.6-9.3 4-14l-4.2-14.5c-5.1-17.7-10.7-35.3-17.3-52.4-1.6-4.1-3.2-8.2-4.9-12.3-4-9.8-8.4-19.4-13.4-28.8-4.9-9.4-10.5-18.5-16.6-27.2-4.8-7-10-13.7-15.5-20.3-7-8.5-14.3-16.7-22-24.5-6.9-7.1-14.1-14-21.4-20.7a440.45 440.45 0 0 0-34.7-29.3c-4.2-3.2-8.4-6.3-12.7-9.4l24.9-42.8zm311.4 209.6c-.1 2.5-.2 5-.5 7.5-.5 4.1-1.5 8.2-2.9 12.1-1.2 3.5-2.8 7-4.7 10.2-2.3 4-5 7.7-8.2 11-2.5 2.7-5.4 5.2-8.4 7.4-3.7 2.7-7.7 5-11.9 6.7-3.8 1.6-7.8 2.8-11.9 3.6a58.03 58.03 0 0 1-30.7-2.3c-3.5-1.2-7-2.8-10.2-4.6-3.6-2.1-7-4.5-10.1-7.3-2.6-2.3-5.1-4.9-7.2-7.8-2.6-3.3-4.8-6.8-6.6-10.6-1.7-3.4-3-6.9-3.9-10.5-1.8-6.4-2.4-13.2-1.9-19.8.2-3.7.9-7.4 1.9-11 1.2-4.4 2.9-8.7 5.1-12.7 2.7-5.2 6.2-9.9 10.4-14 3.2-3.3 6.8-6.1 10.7-8.5 3.2-2 6.5-3.7 10-5 3.1-1.2 6.3-2.1 9.6-2.8 3.9-.8 7.8-1.2 11.8-1.2 4.6 0 9.2.5 13.6 1.6 3.6.8 7.2 2 10.6 3.6 4.2 1.8 8.2 4.2 11.8 7 3.3 2.5 6.4 5.4 9.1 8.5a57.97 57.97 0 0 1 11.9 21.7c1.1 3.6 1.9 7.3 2.2 11 .2 2.1.3 4.1.4 6.2zm-70.4 198.6l45.7-21.5c2.3 5.9 4.5 11.7 7.2 17.4 3.4 7.2 7.5 14.1 11.8 20.8 4 6.3 8.3 12.5 12.6 18.6 3.6 5.1 7.2 10.2 10.9 15.2s7.5 10 11.3 14.9c3.8 4.9 7.7 9.8 11.7 14.6 4.8 5.9 9.7 11.8 14.7 17.5 4 4.7 8.1 9.3 12.2 13.8 16.3 17.9 33.9 34.6 51.4 51.4 12.8 12.2 25.6 24.5 38.8 36.3 4.1 3.7 8.3 7.4 12.4 11l-32.8 36.2c-7-5.3-14-10.5-20.8-16.1a291.8 291.8 0 0 1-18.5-16.6c-5.7-5.4-11.2-11-16.6-16.6-17.1-17.4-34.2-34.7-50.5-52.9a980.93 980.93 0 0 1-45.4-54.3c-3.5-4.5-7.1-9-10.5-13.6-3.2-4.4-6.4-8.8-9.5-13.3-3.1-4.5-6.1-9.1-9-13.7-4.9-7.6-9.5-15.3-13.8-23.2-4.7-8.3-9-17.1-13.3-25.9z"/><path class="st0" d="M871.7 696.5v1.1c-.1 7-1 14-3 20.7-1.8 6.8-4.6 13.3-8.3 19.3-3.6 6-7.9 11.6-13 16.4-5 4.9-10.7 9.2-16.8 12.5a76.5 76.5 0 0 1-19.5 7.8c-6.8 1.8-13.8 2.6-20.8 2.5-7 0-14-1.1-20.7-3-6.8-1.9-13.2-4.6-19.3-8.3-6-3.6-11.6-7.9-16.4-13-4.9-5-9.2-10.7-12.5-16.8a76.5 76.5 0 0 1-7.8-19.5c-1.8-6.8-2.6-13.8-2.5-20.8 0-7 1.1-14 3-20.7 1.9-6.8 4.6-13.3 8.3-19.3 3.6-6 7.9-11.6 13-16.5 5-4.9 10.6-9.2 16.8-12.5a76.5 76.5 0 0 1 19.5-7.8c6.8-1.8 13.8-2.6 20.8-2.5 7 0 14 1.1 20.7 3 6.8 1.9 13.3 4.6 19.3 8.3 6 3.5 11.6 7.9 16.5 13 4.9 5 9.2 10.7 12.5 16.8a76.5 76.5 0 0 1 7.8 19.5c1.6 6.5 2.4 13.2 2.4 19.8z"/><path d="M580.6 911.7v56.6c0 4.1.2 6.6.6 7.6.7 2.2 3 3.4 7 3.5h2.6v3.6h-31v-3.6h2.6c2.9 0 4.9-.6 5.9-1.7.7-.7 1.2-1.7 1.4-3.1.2-1.4.3-3.5.3-6.2v-56.6h-2.3c-3.6 0-6.9 1.1-9.8 3.2-4.4 3.2-6.9 9.7-7.6 19.4l-3.3-.2.6-26.2h55.6l.4 26.2-3.4.2c-.8-6.1-2.1-10.9-3.9-14.3-1.6-3-3.6-5.2-6.1-6.5-2.2-1.1-4.9-1.7-8.2-1.8h-1.4zm34.5 40.9c0-3.7.4-6.8 1.2-9.4 1.8-6.4 4.9-9.5 9.2-9.5 3.9 0 6.7 2.6 8.5 7.7 1 2.9 1.5 6.6 1.5 11.2h-20.4zm27.2-11.4c-3.9-7.7-9.7-11.6-17.4-11.6-5.2 0-9.7 2.1-13.4 6.2-4.7 5.2-7 12.2-7 21 0 9.5 2.3 16.8 7 21.8 3.8 4 8.6 6.1 14.5 6.1 8 0 14.4-4.8 19.1-14.3l-3.4-1.8c-1.4 3-2.9 5.3-4.3 7a12.2 12.2 0 0 1-9.7 4.6c-5 0-8.5-2.5-10.6-7.4-1.5-3.5-2.2-8.9-2.3-16.2h30.8c0-6.2-1.2-11.3-3.3-15.4zM669 907v63.3c0 4.2.5 6.8 1.4 7.8.8.9 2.2 1.3 4.3 1.4h1.8v3.5h-24.7v-3.5h1.8c2.2 0 3.6-.5 4.3-1.4.9-1 1.3-3.5 1.4-7.8v-50c0-4.2-.5-6.7-1.4-7.7-.7-.9-2.2-1.3-4.3-1.4h-1.3v-3.5l16.7-.7zm23.4 45.6c0-3.7.4-6.8 1.2-9.4 1.8-6.4 4.9-9.5 9.2-9.5 3.9 0 6.7 2.6 8.5 7.7 1 2.9 1.5 6.6 1.5 11.2h-20.4zm27.3-11.4c-3.9-7.7-9.7-11.6-17.4-11.6-5.2 0-9.7 2.1-13.4 6.2-4.7 5.2-7 12.2-7 21 0 9.5 2.3 16.8 7 21.8 3.8 4 8.6 6.1 14.5 6.1 8 0 14.4-4.8 19.1-14.3l-3.4-1.8c-1.4 3-2.9 5.3-4.3 7a12.2 12.2 0 0 1-9.7 4.6c-5 0-8.5-2.5-10.6-7.4-1.5-3.5-2.2-8.9-2.3-16.2H723c-.1-6.2-1.2-11.3-3.3-15.4zm61.4 41.7h-14.2l-16.2-26.2-4.4 4v9.6c0 4.2.5 6.8 1.4 7.8.8.9 2.2 1.3 4.4 1.4h2.1v3.5h-25v-3.5h1.8c2.2 0 3.6-.5 4.3-1.4.9-1 1.3-3.5 1.4-7.8v-50c0-4.2-.5-6.7-1.4-7.7-.7-.9-2.2-1.3-4.3-1.4h-1.3v-3.5l16.6-.8v48.3l14.9-13.2c2.2-1.9 3.3-3.7 3.3-5.2 0-1.7-1.6-2.5-4.8-2.5H758V931h22.2v3.5H779c-1.5 0-2.9.3-4 .8-1.2.7-3 2-5.4 4.1l-12.4 11.1 13.6 21.7c1.8 2.8 3 4.4 3.7 5.1 1.4 1.4 3.2 2.1 5.4 2.1h1v3.5zm31.4-47.8c1.6 1.2 2.9 2.8 3.8 4.9 1.7 3.8 2.5 9.5 2.5 17 0 15.8-3.9 23.7-11.7 23.7-7.8 0-11.7-8-11.7-23.9 0-7.3.8-12.9 2.5-16.8.9-2 2.1-3.6 3.8-4.9 1.6-1.2 3.4-1.9 5.2-1.9 2.1.2 3.9.8 5.6 1.9zm-22.4 2.8c-3.8 4.8-5.7 11.3-5.7 19.3 0 7.9 1.9 14.2 5.7 19.1 4.3 5.5 10 8.3 17.1 8.3 7 0 12.7-2.8 17-8.3 3.8-4.9 5.7-11.3 5.7-19.2 0-8-1.9-14.4-5.7-19.2-4.4-5.5-10-8.3-16.8-8.3-7.2 0-13 2.7-17.3 8.3zm106.8 45v-31.7c0-6.4-.5-10.6-1.4-12.5a6.05 6.05 0 0 0-5.8-3.7c-3.1 0-5.7 1.8-7.6 5.3-1.1 1.9-1.8 4-2.1 6.3-.3 1.6-.4 4.8-.4 9.5v14.2c0 4.2.5 6.8 1.4 7.8.7.9 2.2 1.3 4.3 1.4h1.6v3.5H870v-30c0-5-.1-8.3-.3-9.9-.8-5.4-3.1-8-7-8-3.2 0-5.7 1.8-7.5 5.4-.9 1.7-1.5 3.6-1.9 5.5-.4 2-.5 5.4-.5 10.3v14.2c0 4.2.5 6.8 1.3 7.8.8.9 2.3 1.3 4.5 1.4h1.6v3.5h-24.5v-3.5h1.8c2.1 0 3.5-.5 4.3-1.4.9-.9 1.4-3.5 1.4-7.8v-26.8c0-4.2-.5-6.7-1.4-7.7-.8-.9-2.2-1.3-4.3-1.3h-1.3V931l15.8-.8v9.2c.7-1.8 1.8-3.5 3.1-4.9 2.8-3 6.2-4.5 10.1-4.5 6.1 0 10.5 3.4 13.2 10.1 3.3-6.8 7.9-10.1 13.9-10.1 5.1 0 8.9 2 11.4 5.9 1.3 2 2.1 4.4 2.4 7 .3 2.1.4 4.4.4 7v20.4c0 4.2.5 6.8 1.4 7.8.7.9 2.2 1.3 4.3 1.4h1.3v3.5h-16.6z"/><path class="st0" d="M582.5 1040.9c0-4.1.4-6.7 1.2-7.7 1.1-1.5 3.7-2.3 7.9-2.3 5.6 0 9.6 1.2 12.1 3.6 2.8 2.7 4.2 6.7 4.2 11.9s-1.4 8.9-4.1 11.3c-2.5 2.2-6.4 3.2-11.5 3.2h-9.8v-20zm32.4 15.2c2.7-3 4-6.5 4-10.7 0-3.9-1.2-7.3-3.6-10.3-2.4-3-5.9-5.2-10.4-6.6-3.2-.9-7.7-1.4-13.6-1.4h-28.6v3.6h1.5c4 .1 6.3 1.3 7 3.5.4 1 .6 3.5.6 7.6v45.7c0 2.7-.1 4.8-.3 6.3-.2 1.4-.6 2.4-1.4 3.1-1.1 1.1-3 1.7-5.9 1.7h-1.5v3.6H595c3.5 0 6.7-.3 9.8-.8 3.7-.6 7.2-2.1 10.3-4.3 5.1-3.7 7.6-8.9 7.6-15.4 0-6.7-2.7-11.9-8.2-15.5-3.1-2.1-6.9-3.4-11.7-4.1 5.7-1.3 9.8-3.3 12.1-6zm-24.1 8.6c3.7 0 6.4.1 8 .4 2.4.4 4.4 1.1 6.1 2.2 4.2 3 6.3 7.9 6.3 14.7 0 6.3-1.9 10.9-5.6 13.6-2.7 1.9-6.7 2.9-12 2.9h-3.1c-3.4 0-5.6-.6-6.6-1.7-.9-1.1-1.4-3.4-1.4-7.1v-25.1h8.3zm68 14.2c0 2.5-.1 4.7-.3 6.5-.3 2.3-.9 4.5-2 6.6-2.2 4.3-5.2 6.5-9.2 6.5-2.2 0-3.9-.8-5.2-2.4-1.3-1.5-2-3.7-2-6.6 0-5.3 2.2-9.1 6.6-11.6 2.6-1.5 6.6-2.2 12-2.3v3.3zm15.5 9.8c-.2 2.3-.3 3.8-.5 4.5-.5 2.1-1.4 3.2-2.8 3.2-1 0-1.7-.5-2.1-1.6-.3-.9-.5-2.4-.5-4.6v-22c0-6-.8-10.2-2.5-12.6-3-4.4-8.2-6.6-15.6-6.6-4.8 0-8.8 1.1-11.9 3.3-3.8 2.7-5.7 5.9-5.7 9.5a6.03 6.03 0 0 0 6.1 6.3c1.9 0 3.4-.6 4.6-1.7 1.2-1.2 1.8-2.7 1.8-4.6 0-3.2-1.5-5.3-4.5-6.3 1.7-1.5 4.1-2.3 7.3-2.3 4.3 0 7.2 1.2 8.9 3.7 1.2 1.8 1.8 4.8 1.8 8.9v6.1c-7.4.1-13.5 1.1-18.3 3.2-7.1 3-10.7 7.9-10.7 14.8 0 4.5 1.5 8.1 4.5 10.8 2.5 2.2 5.5 3.4 9.1 3.4 6.7 0 12-3.4 15.9-10.2.5 2.8 1.3 4.8 2.3 6.1 1.8 2.2 4.1 3.3 6.9 3.3 4 0 6.7-2.2 8.3-6.5.6-1.8 1-4.5 1.1-7.9h-3.5zm42-38.3v16.6h-3.4c-1.8-9.5-6.2-14.3-13.2-14.3-2.5 0-4.5.8-6.1 2.3a7.48 7.48 0 0 0-2.4 5.7c0 2.6 1.1 4.6 3.4 6.1 1.1.7 3.1 1.6 6 2.5 6.2 2 10.4 3.8 12.5 5.3 4.1 3.1 6.2 7.2 6.2 12.2 0 5.1-1.8 9.3-5.3 12.6-3 2.7-6.8 4.1-11.6 4.1-2.7 0-5.1-.5-7.4-1.4-1.3-.5-3-1.4-5.1-2.7-.5-.3-1-.5-1.3-.5-.7 0-1.4 1.2-2.1 3.5h-3.2v-19.1h3.2c1.3 4.6 2.7 8 4.1 10.1 2.9 4.2 6.8 6.3 11.7 6.3 2.8 0 5-1 6.6-2.9 1.6-1.8 2.3-3.9 2.3-6.2 0-3.4-1.5-6.1-4.6-8-1.6-1-4.9-2.3-9.9-3.9-4.4-1.5-7.7-3.4-9.9-5.9-2.1-2.4-3.2-5.5-3.2-9.2 0-4.3 1.5-7.9 4.6-10.5 2.8-2.4 6.3-3.6 10.5-3.6 3.8 0 7.3 1 10.6 2.9.7.4 1.2.6 1.6.6.7 0 1.3-.8 1.6-2.5h3.8zm59.7 51.9h-14.2l-16.2-26.2-4.4 4v9.6c0 4.2.5 6.8 1.4 7.8.8.9 2.2 1.3 4.4 1.4h2.1v3.5h-25v-3.5h1.8c2.2 0 3.6-.5 4.3-1.4.9-1 1.3-3.5 1.4-7.8v-50c0-4.2-.5-6.7-1.4-7.7-.7-.9-2.2-1.3-4.3-1.4h-1.3v-3.5l16.6-.8v48.3l14.9-13.2c2.2-1.9 3.3-3.7 3.3-5.2 0-1.7-1.6-2.5-4.8-2.5h-1.7v-3.5h22.2v3.5H774c-1.5 0-2.9.3-4 .8-1.2.7-3 2-5.4 4.1l-12.4 11.1 13.6 21.7c1.8 2.8 3 4.4 3.7 5.1 1.4 1.4 3.2 2.1 5.4 2.1h1v3.7zm14.1-30.3c0-3.7.4-6.8 1.2-9.4 1.8-6.4 4.9-9.5 9.2-9.5 3.9 0 6.7 2.6 8.5 7.7 1 2.9 1.5 6.6 1.5 11.2h-20.4zm27.3-11.5c-3.9-7.7-9.7-11.6-17.4-11.6-5.2 0-9.7 2.1-13.4 6.2-4.7 5.2-7 12.2-7 21 0 9.5 2.3 16.8 7 21.8 3.8 4 8.6 6.1 14.5 6.1 8 0 14.4-4.8 19.1-14.3l-3.4-1.8c-1.4 3-2.9 5.3-4.3 7a12.2 12.2 0 0 1-9.7 4.6c-5 0-8.5-2.5-10.6-7.4-1.5-3.5-2.2-8.9-2.3-16.2h30.8c-.1-6.1-1.3-11.2-3.3-15.4zm23.9-6.3v31.3c0 4 .3 6.9.8 8.8.8 2.9 2.6 4.3 5.2 4.3 2.4 0 4.2-1.3 5.2-3.8 1-2.4 1.5-5.3 1.5-8.8v-1.5h4v2.1c0 11.2-4.5 16.8-13.3 16.8-4.4 0-7.7-1.3-9.8-3.8-1.6-1.9-2.5-4.2-2.9-6.9-.2-2-.3-4.4-.3-7.3v-31.3h-8.1v-3.2c5.1-1.1 8.7-3.2 10.7-6.2 2.1-3.3 3.3-7.9 3.8-14h3.3v19.6h15.1v3.8h-15.2zm53.7-3.8v16.6h-3.4c-1.8-9.5-6.2-14.3-13.2-14.3-2.5 0-4.5.8-6.1 2.3a7.48 7.48 0 0 0-2.4 5.7c0 2.6 1.1 4.6 3.4 6.1 1.1.7 3.1 1.6 6 2.5 6.2 2 10.4 3.8 12.5 5.3 4.1 3.1 6.2 7.2 6.2 12.2 0 5.1-1.8 9.3-5.3 12.6-3 2.7-6.8 4.1-11.6 4.1-2.7 0-5.1-.5-7.4-1.4-1.3-.5-3-1.4-5.1-2.7-.5-.3-1-.5-1.3-.5-.7 0-1.4 1.2-2.1 3.5H862v-19.1h3.2c1.3 4.6 2.7 8 4.1 10.1 2.9 4.2 6.8 6.3 11.7 6.3 2.8 0 5-1 6.6-2.9 1.6-1.8 2.3-3.9 2.3-6.2 0-3.4-1.5-6.1-4.6-8-1.6-1-4.9-2.3-9.9-3.9-4.4-1.5-7.7-3.4-9.9-5.9-2.1-2.4-3.2-5.5-3.2-9.2 0-4.3 1.5-7.9 4.6-10.5 2.8-2.4 6.3-3.6 10.5-3.6 3.8 0 7.3 1 10.6 2.9.7.4 1.2.6 1.6.6.7 0 1.3-.8 1.6-2.5h3.8z"/><path d="M636 1160.2c0-4.1.4-6.7 1.2-7.7 1.1-1.5 3.7-2.3 7.9-2.3 5.6 0 9.6 1.2 12.1 3.6 2.8 2.7 4.2 6.7 4.2 11.9s-1.4 8.9-4.1 11.3c-2.5 2.2-6.4 3.2-11.5 3.2H636v-20zm32.4 15.3c2.7-3 4-6.5 4-10.7 0-3.9-1.2-7.3-3.6-10.3-2.4-3-5.9-5.2-10.4-6.6-3.2-.9-7.7-1.4-13.6-1.4h-28.6v3.6h1.5c4 .1 6.3 1.3 7 3.5.4 1 .6 3.5.6 7.6v45.7c0 2.7-.1 4.8-.3 6.3-.2 1.4-.6 2.4-1.4 3.1-1.1 1.1-3 1.7-5.9 1.7h-1.5v3.6h32.1c3.5 0 6.7-.3 9.8-.8 3.7-.6 7.2-2.1 10.3-4.3 5.1-3.7 7.6-8.9 7.6-15.4 0-6.7-2.7-11.9-8.2-15.5-3.1-2.1-7-3.4-11.7-4.1 5.9-1.3 10-3.3 12.3-6zm-24.1 8.5c3.7 0 6.4.1 8 .4 2.4.4 4.4 1.1 6.1 2.2 4.2 3 6.3 7.9 6.3 14.7 0 6.3-1.9 10.9-5.6 13.6-2.7 1.9-6.7 2.9-12 2.9H644c-3.4 0-5.6-.6-6.6-1.7-.9-1.1-1.4-3.4-1.4-7.1v-25h8.3zm67.8-10.1c1.6 1.2 2.9 2.8 3.8 4.9 1.7 3.8 2.5 9.5 2.5 17 0 15.8-3.9 23.7-11.7 23.7-7.8 0-11.7-8-11.7-23.9 0-7.3.8-12.9 2.5-16.8.9-2 2.1-3.6 3.8-4.9 1.6-1.2 3.4-1.9 5.2-1.9 2.1.1 3.9.7 5.6 1.9zm-22.4 2.7c-3.8 4.8-5.7 11.3-5.7 19.3 0 7.9 1.9 14.2 5.7 19.1 4.3 5.5 10 8.3 17.1 8.3 7 0 12.7-2.8 17-8.3 3.8-4.9 5.7-11.3 5.7-19.2 0-8-1.9-14.4-5.7-19.2-4.4-5.5-10-8.3-16.8-8.3-7.1 0-12.9 2.8-17.3 8.3zm81.9 45.1v-33.6c0-5.4-.5-9-1.6-10.8-1.3-2.3-3.2-3.5-5.7-3.5-3.8 0-6.9 2.3-9.1 6.8-1.9 3.7-2.8 9.1-2.8 16.1v12.4c0 4.2.5 6.8 1.4 7.8.7.9 2.2 1.3 4.3 1.4h1.8v3.5h-24.7v-3.5h1.8c2.2 0 3.6-.5 4.3-1.4.9-.9 1.3-3.5 1.4-7.8v-26.8c0-4.2-.5-6.7-1.4-7.7-.7-.9-2.2-1.3-4.3-1.3h-1.3v-3.5l16.1-.8v11.3c3.2-7.7 8.1-11.6 14.8-11.6 4.8 0 8.5 1.6 11 4.9 1.8 2.3 2.9 5.1 3.2 8.2.3 2.5.4 5.5.4 9v18.2c0 4.2.5 6.8 1.4 7.8.7.9 2.2 1.3 4.3 1.4h1.3v3.5h-16.6zm57.2 0v-33.6c0-5.4-.5-9-1.6-10.8-1.3-2.3-3.2-3.5-5.7-3.5-3.8 0-6.9 2.3-9.1 6.8-1.9 3.7-2.8 9.1-2.8 16.1v12.4c0 4.2.5 6.8 1.4 7.8.7.9 2.2 1.3 4.3 1.4h1.8v3.5h-24.7v-3.5h1.8c2.2 0 3.6-.5 4.3-1.4.9-.9 1.3-3.5 1.4-7.8v-26.8c0-4.2-.5-6.7-1.4-7.7-.7-.9-2.2-1.3-4.3-1.3h-1.3v-3.5l16.1-.8v11.3c3.2-7.7 8.1-11.6 14.8-11.6 4.8 0 8.5 1.6 11 4.9 1.8 2.3 2.9 5.1 3.2 8.2.3 2.5.4 5.5.4 9v18.2c0 4.2.5 6.8 1.4 7.8.7.9 2.2 1.3 4.3 1.4h1.3v3.5h-16.6z"/></svg>