<svg version="1.1" xmlns="http://www.w3.org/2000/svg" viewBox="0 0 27 32"><path fill="#1c63b7" d="M13.47 31.7l-.34-.63c-.02-.03-1.37-2.38-6.47-3.72-5.7-1.5-6.52-7.73-6.52-7.79l.02-.12.09-.1c2.48-2.65 3.65-5.26 3.47-7.77a7.82 7.82 0 0 0-2.58-5.11L.9 6.27 1 6l1.53-3.77.4.25s1.58.96 3.8.96c2.33 0 4.5-1 6.46-2.96l.28-.28.28.28c1.96 1.96 4.13 2.96 6.45 2.96a7.9 7.9 0 0 0 3.81-.96l.4-.24 1.63 4.03-.23.19a7.75 7.75 0 0 0-2.58 5.1c-.18 2.48.95 5.05 3.35 7.65l.11.12.13.14c.03.2-.3 1.9-1.17 3.52a8.58 8.58 0 0 1-5.36 4.36c-5.1 1.35-6.46 3.7-6.47 3.72l-.35.63zM.96 19.74c.18.95 1.3 5.63 5.9 6.84 4.1 1.08 5.93 2.79 6.62 3.62.69-.83 2.52-2.53 6.62-3.62 4.59-1.21 5.73-5.95 5.9-6.84-2.55-2.77-3.74-5.54-3.55-8.24a8.5 8.5 0 0 1 2.65-5.47l-1.07-2.66c-.65.32-2.04.86-3.82.86-2.43 0-4.7-.98-6.73-2.92-2.04 1.94-4.3 2.92-6.73 2.92a8.94 8.94 0 0 1-3.82-.86L1.85 6.03a8.5 8.5 0 0 1 2.66 5.47c.19 2.7-1 5.47-3.55 8.24z"/><path fill="#fff" d="M13.48 30.65s-1.33-2.47-6.66-3.87S.64 19.52.65 19.52c7.5-7.97.84-13.28.84-13.28l1.33-3.29S8.15 6.24 13.48.92c5.33 5.32 10.65 2.03 10.65 2.03l1.34 3.29s-6.66 5.31.84 13.28c.03 0-.84 5.86-6.17 7.26s-6.66 3.87-6.66 3.87z"/><path fill="#1c63b7" d="M5.45 26.22c-4.39-1.84-4.8-6.7-4.8-6.7 7.5-7.97.84-13.28.84-13.28l1.33-3.29S8.15 6.24 13.48.92c5.33 5.32 10.65 2.03 10.65 2.03l.38.77z"/><path fill="#fff" d="M8.25 21.4l.35-.42L7 19.65l.48-.56-.31-.27-1.3 1.54.32.27.47-.57 1.6 1.33zm.32-1.61c.18.15.66.54 1.27-.2.44-.52.4-1.03.06-1.32-.37-.31-.73-.06-1.09.2-.3.21-.45.33-.62.18-.16-.13-.16-.34 0-.53.24-.28.48-.12.55-.07l.33-.39a.72.72 0 0 0-.44-.18c-.3-.01-.54.18-.7.38-.45.53-.37.99-.05 1.25.33.27.67.14 1.16-.22.27-.2.4-.29.56-.14.16.13.15.36-.03.58-.3.35-.56.12-.65.04l-.35.42zm2.26-4.14a.76.76 0 0 0-.5-.2c-.3 0-.59.2-.8.45-.48.57-.47 1.3.2 1.86.2.17.54.38.93.34.27-.02.57-.16.93-.6.32-.37.42-.62.48-.77l-.95-.8-.65.78.31.26.31-.37.4.34c-.02.05-.05.14-.22.34-.19.23-.35.3-.54.3-.27.02-.51-.15-.64-.26-.3-.25-.65-.7-.26-1.16.07-.1.22-.22.41-.2.12.02.19.07.24.11l.36-.42zm1.1-1.04c.08-.27.11-.5.12-.63l1.43 1.2.33-.4-1.84-1.54-.28.34c-.02.24-.06.49-.13.72l.36.3zm1.45-1.27c-.03.09-.08.2-.06.35 0 .15.06.29.2.4.3.25.76.2 1.07-.18.3-.36.37-.83.03-1.12a.6.6 0 0 0-.34-.14c-.22-.02-.36.08-.44.13a.54.54 0 0 0-.1-.7c-.29-.23-.71-.16-1.02.21-.38.45-.25.88-.02 1.07.28.23.58.05.68-.02zm.09-.4a.3.3 0 0 1-.44.03c-.14-.12-.13-.3-.02-.43.1-.13.28-.18.43-.05.15.12.14.3.03.44zm.86.71c-.1.13-.3.2-.5.04a.36.36 0 0 1-.05-.5.34.34 0 0 1 .5-.03c.2.17.15.38.05.5zm.53-1.02c.49.4.88-.07.96-.17.38-.44.38-.89-.4-1.54-.3-.25-.91-.74-1.44-.1-.34.4-.29.86.05 1.15.22.18.68.37 1.06-.08a.6.6 0 0 0 .15-.44c.26.2.53.47.3.74-.1.11-.22.12-.34.04l-.34.4zm-.01-1.07c-.2.23-.44.06-.5 0-.14-.1-.23-.3-.08-.49.14-.16.33-.15.49-.01.13.1.25.3.08.5zm1.29-.45c.48.4.87-.06.96-.16.37-.45.37-.9-.4-1.55-.3-.24-.92-.73-1.45-.1-.34.4-.28.87.06 1.16.22.18.67.36 1.05-.09.07-.08.16-.2.15-.43.26.2.53.46.3.73-.1.11-.22.13-.34.05l-.33.4zm-.02-1.06c-.2.23-.44.06-.5 0-.14-.12-.23-.3-.07-.5.13-.16.32-.14.48 0 .13.1.25.3.09.5z"/><path fill="#1c63b7" d="M11.3 24.18l-.87-.72.56-.67.87.73.2-.24-1.9-1.6-.2.25.82.68-.56.67-.83-.69-.2.24 1.9 1.6.2-.25zm1.27-1.81c-.19.22-.4.15-.82-.21-.37-.3-.35-.49-.21-.65s.31-.22.68.09c.43.36.54.55.35.77zm.17.15c.24-.28.34-.58-.24-1.07-.4-.33-.75-.55-1.14-.1s-.1.78.29 1.1c.59.5.86.35 1.1.07zm-.78-1.82l.16.14.18-.2 1.16.97.18-.22-1.16-.97.22-.27-.16-.14-.23.27-.22-.2c-.11-.08-.18-.2.03-.42l-.15-.13a.72.72 0 0 0-.1.1c-.16.19-.26.42 0 .65l.26.21-.17.2zm.61-.73l.17.14.17-.21 1.17.98.18-.22-1.17-.98.23-.26-.16-.14-.23.27-.23-.2c-.1-.08-.17-.2.04-.42l-.16-.13a.72.72 0 0 0-.1.1c-.15.19-.26.42.01.65l.26.21-.18.2zm1.46-.58c-.36-.31-.33-.48-.22-.62.13-.15.27-.22.66.1l-.44.52zm.8-.6l-.12-.1c-.44-.37-.72-.45-1.04-.07-.4.46-.1.77.28 1.1.6.49.86.34 1.1.06.23-.28.25-.58-.04-.83l-.2.24c.13.12.18.3.06.44-.14.17-.3.21-.67-.1l.63-.75zm1.64-.75l-.93-.77c-.26-.22-.5-.3-.73-.01-.14.17-.18.3-.1.52l-.01.01-.17-.14-.2.23.3.22 1.05.88.18-.22-.79-.66c-.18-.15-.36-.36-.16-.6.15-.18.31-.14.45-.02l.93.78.18-.22zm1.06-1.26l-.95-.8c-.3-.24-.52-.21-.7.01-.15.18-.2.31-.11.53l-.01.01-.74-.62-.19.21 1.9 1.6.19-.22-.78-.66c-.23-.18-.36-.38-.17-.6.15-.18.31-.14.48 0l.9.75.18-.21zm-.35-1.12c-.37-.32-.34-.48-.23-.62.14-.16.27-.23.66.1l-.43.52zm.79-.61l-.11-.1c-.44-.37-.73-.45-1.05-.07-.39.46-.1.78.29 1.1.58.5.85.34 1.1.06.23-.28.25-.57-.05-.82l-.2.24c.13.12.18.3.06.44-.14.17-.3.2-.67-.1l.63-.75zm-.3-1.14l-.19.22 1.34 1.12.18-.22-1.33-1.11zm-.54-.05l.2-.24-.23-.2-.2.25.23.19zm2.91-.07l-.9-.75c-.05-.04-.17-.16-.17-.27 0-.1.02-.12.09-.2.15-.18.3-.11.43 0l.93.77.18-.21-1.01-.85c-.32-.26-.54-.07-.65.07-.1.12-.18.27-.1.46-.16-.05-.33.05-.43.17-.13.15-.18.3-.09.5l-.17-.14-.19.23.29.22 1.05.88.18-.22-.9-.75a.52.52 0 0 1-.15-.2c-.02-.08.02-.2.07-.27.15-.17.3-.1.44 0l.92.78.18-.22z"/><path fill="#fff" d="M26.5 19.52a9.9 9.9 0 0 1-1.13 3.28A8.28 8.28 0 0 1 20.2 27c-5.24 1.39-6.6 3.8-6.6 3.83l-.12.21-.12-.2c-.01-.03-1.38-2.47-6.6-3.84a8.24 8.24 0 0 1-5.19-4.23 10.06 10.06 0 0 1-1.1-3.22v-.04l.03-.03c2.52-2.69 3.7-5.36 3.52-7.93a8 8 0 0 0-2.67-5.26l-.07-.06L2.7 2.7l.13.08c.02.01 1.64 1 3.93 1 2.39 0 4.61-1.02 6.61-3.02l.1-.1.09.1c2 2 4.22 3.01 6.6 3.01 2.31 0 3.93-.98 3.94-.99l.13-.08 1.44 3.54-.08.06c-.02.02-2.44 2-2.67 5.26-.18 2.56 1 5.21 3.49 7.89l.08.08zm-25.77.1c.1.58 1.1 5.82 6.1 7.13 4.56 1.2 6.23 3.17 6.65 3.77.42-.6 2.09-2.56 6.66-3.77 5-1.32 6-6.6 6.09-7.13-2.55-2.74-3.75-5.46-3.56-8.09a8.3 8.3 0 0 1 2.7-5.38l-1.25-3.08a8.5 8.5 0 0 1-3.94.95c-2.42 0-4.67-1-6.7-3-2.03 2-4.28 3-6.7 3a8.5 8.5 0 0 1-3.94-.95L1.59 6.15a8.31 8.31 0 0 1 2.7 5.38c.18 2.63-1.01 5.35-3.56 8.08z"/></svg>