<svg version="1.1" xmlns="http://www.w3.org/2000/svg" viewBox="0 0 25 32"><path fill="#000" d="M22.77 0H2.4L0 2.8v26.4L2.4 32h20.37l1.64-1.92.74-.88V2.8L23.4.75z"/><path fill="#fff" d="M2.73 31.25L.75 28.94V3.06l2-2.31H22.4l2 2.31v25.87l-1.99 2.32H5.12z"/><path fill="#000" d="M7.38 30.3h-.87v-2.8H5.42v-.66c.61.01 1.17-.2 1.27-.86h.7v4.32zm2.74-4.4c1.07 0 1.44.74 1.44 1.15 0 .43-.22.77-.63.92.51.12.8.52.8 1.06 0 .9-.8 1.35-1.6 1.35-.84 0-1.65-.41-1.65-1.35 0-.55.31-.93.82-1.06-.42-.13-.64-.47-.64-.9 0-.77.75-1.18 1.46-1.18zm0 3.83c.42 0 .74-.3.74-.73 0-.42-.33-.7-.74-.7-.42 0-.76.25-.76.7s.34.72.76.72zm0-2.01c.36 0 .64-.2.64-.57 0-.22-.1-.6-.64-.6-.35 0-.66.22-.66.6s.3.57.66.57zm4.62-.63c-.05-.29-.28-.54-.58-.54-.63 0-.8.84-.82 1.32v.01c.25-.34.56-.48.98-.48.37 0 .75.17 1 .44.22.27.33.63.33.97 0 .88-.61 1.57-1.51 1.57-1.31 0-1.66-1.14-1.66-2.23 0-1.05.47-2.26 1.7-2.26.74 0 1.3.44 1.4 1.2h-.84zm-1.32 1.77c0 .4.26.8.7.8.41 0 .65-.4.65-.79 0-.4-.2-.81-.66-.81s-.7.37-.7.8zm4.65-2.96c.87 0 1.6.54 1.6 2.22 0 1.72-.73 2.27-1.6 2.27-.85 0-1.58-.55-1.58-2.27 0-1.68.73-2.23 1.58-2.23zm0 3.76c.72 0 .72-1.05.72-1.54 0-.45 0-1.5-.72-1.5-.7 0-.7 1.05-.7 1.5 0 .49 0 1.54.7 1.54zm4.21-20.98c-1.13-.93-2.24-1.1-3.24-.79-1.69-3.13.14-4.46 1-4.42.82.03.9.42.9.42-.57 1.2-.25 1.72-.03 2.4.18.55-.29.95-.29.95.53-.05.79-.56.79-.56.13.26-.03.88-.03.88.36-.16.49-.72.49-.72.12.55.55.85.55.85s-.1-.5-.02-.94c.08-.45.4-1.86-.22-2.78-1.67-2.52-6.3-.81-3.77 4.16-2.4 1.25-3.23 5.38 1.4 6.81a3 3 0 0 1-2.37 1.33c-.38 0-.53-.21-.58-.36l-.02-.05c-.43-1.32-1.96-2.65-1.96-2.65.46-.54.36-.77.36-.77-1.42.62-1.27-.27-.57-.58s.67-.69.67-.69c-1.11.12-.66-.64-.07-1.02s.7-.61.7-.61c-.85.08-.99-.57.01-1.16 1-.6.87-.82.87-.82s-.2.04-.38.02c-.34-.05-.3-.2-.27-.49a3.14 3.14 0 0 0-.23-1.72c.66-.47.56-.77.56-.77-.5.15-.88-.09-.65-.6s.36-1.18.36-1.18c-.4-.16-1.05.02-1.05.02-.18-.51-.38-.57-.38-.57-.1.15-.35.36-.35.36-1.85-.87-2.55.32-2.69.48-.12.14-.31.15-.44.2-.67.25-.64.58-.76.71-.07.08-.38.2-.37.33.01.38.29.33.4.62.14.38.2.37.34.42.3.09.55-.16 1.05-.2.26-.02.63.28.56.62l-.43-.15c-1.02-.35-1.71.3-2.55.33-1.32.03-1.54-.76-1.33-1.2.12-.22.34-.32.26-.44-.18-.27-1.1.42-.77 1.26.42 1.1 1.96.86 3.22.35.49-.2 1.05-.04 1.45.14-.4.47-.8.1-1.05 0-.26-.11-.6.25-.31.5.22.2.69.3.63.47 0 0 .02.14-.81.04a3.34 3.34 0 0 0-1.77.19c-2.53-.84-3.38-3.59-3.28-3.72.1-.15.43-.8-.28-1.2a.82.82 0 0 0-.2-.09c-.26-.49-.87-.22-.87-.22.19.07.3.1.4.3-.2.16-.25.44-.25.44s-.3-.67-.98-.46c-.86.28-.87 1.2-.87 1.2s.4-.5.64-.34c.15.1.12.24.07.33-.4.33-.43.6-.33.8-.26.54.13.82.13.82 0-.25.1-.38.19-.46a1.36 1.36 0 0 0 .64.32s-.1.07-.14.25c-.03.1.1.26-.02.37s-.32-.11-.32-.11c.07.75.8.57.94.48.05-.03.17-.12.28-.17.11-.06.2-.08.27-.01.26.25-.4.5.09 1.04 0 0-.05-.2.27-.2.2-.02.37.01.64.43s.67 1.25.38 1.48a.38.38 0 0 1-.24.07c-.28 0-.61-.2-.61-.2s.06.86 1.05 1.06c-.56.2-1.03-.04-1.03-.04.14.59.66.78.66.78-.33.2-.75.72-.75.72-.1-.15-.49-.12-.49-.12-.15-.7-.65-.74-.83-.76-.09-.02-.16.03-.2.03a.53.53 0 0 0-.26-.3c-.53-.28-.87.23-.87.23l.34.01c.18.03.47.44-.22.5-.44.05-.76.35-.71.68-.39.27-.44.72-.33.95 0 0 .28-.45.55-.35.03.02.14.09.18.1.2.1.3.07.3.07-.38.34-.32.66-.27.81.06.15.13.2.2.27 0 .06-.13.54.42.81 0 0-.06-.08-.04-.32 0-.12.08-.26.23-.27.3.02.5-.17.5-.17.17-.15.33-.06.16.22-.17.3.2.44.2.44-.11.27-.36.32-.36.32s.4.3.9-.16c.49-.45.32-1.27.32-1.27.4.23.98.19.98.19.3.72.98.66.98.66-.23-.24-.53-.77-.2-.98s.53.56.9 1.1c.38.53.69.44.69.44-.58-.75-.06-.83-.17-.8.14-.04.23.05.4.38.24.42.45.3.45.3s-.07-.06-.1-.35c-.1-.75.28-.39.46-.01.08.17.35.41.7.62.34.21.75.4 1.15.44.9.12.95.29.95.29a.99.99 0 0 0-.51.38c.6.01 1.1.1 1.26.16s1.25.57-.2.5a4.65 4.65 0 0 0-1.77.25c-.26.11-.39.32-.98.14a2.67 2.67 0 0 0-1.16-.13c-.55.02-2.19.78-2.57.44s.51-.9.51-.9c-.88-.3-1.53.51-1.53.51-1.3-1.13-3.45-.6-3.1 1.3.2 1.15 1.23 1.03 1.23 1.03-.17-.15-.52-.35-.59-.94-.08-.68.53-.84.52-.53-.01.32.1.32.1.32.11-.5.28-.64.86-.54.36.07.48.38.48.38s-.75.22-.72 1.1c.02.68.86.69.86.69s-.55-.43-.26-.86c.29-.44.63-.3.81-.01s.38.28.38.28-.21.2-.16.64c.07.57.53.6.53.6-.26-.81.5-.76.5-.76.18 1.04.78 1 1.18 1.04s.52.28.28.51c-.18.18-.68.18-1.22 1.13-.86 1.5-1.22.38-1.25.24s-.13-.26-.13-.26c.68-.42.2-1.3-.7-1.44a1.09 1.09 0 0 0-.48.02c-.11.03-.28.13-.36.2l-.23.02c-.53.1-.57.63-.57.63.23-.24.49-.15.64-.14.06.21.24.37.46.41.1.06.04.15-.03.16-.07 0-.26-.12-.54-.02-.34.11-.5.33-.47.7-.11.12-.35.3-.3.63.05.37.39.52.39.52s-.13-.63.18-.57c.08.1.2.1.3.13.24.05.3-.16.46 0 .07.08.15.26.15.26s-.3.14-.43.41c-.35.72.2 1.04.2 1.04s-.05-.25.05-.48c.2-.49.34-.15.65-.13s.53-.3.53-.3.05.1.19.22c.14.13.42.08.42.08s-.12.1-.13.27c0 .18.04.32.13.42a.52.52 0 0 1-.47.25s.41.36.95 0c.22.03.45-.02.58-.1.32-.2.14-.7.12-1.1s1.13-.69 1.36-.76c.22-.08.4-.27.4-.27.4.76.92.71.92.71-.17-.26-.04-.56-.04-.56.66.2 1.02-.07 1.02-.07-.55-.2-.57-.8-.13-.93.5-.14.6-.5.6-.5.2.13.37.08.37.08s-.1-.09-.06-.25c.12-.69-.31-.94-.54-1.01s-.53-.74.15-1.61c.46-.6 1.17-.73 1.64-.73.29 0 .49.05.49.05l-.21.3c-.57.97-.1 1.75-.1 1.75-.53.42-.37.9-.37.9.23-.2.51-.19.51-.19-.61 1.36.66 1.92.66 1.92s-.26-1.19.5-.9c.79.3.9.16.9.16-.2-.17-.11-.34-.11-.34l.5-.1c1.17-.32 1.7-1.07 1.7-1.07.03.18.03.26.4.9s.19 1.52-.22 1.68a1.1 1.1 0 0 1-.62.1c-.38-.06-.44-.34-.78-.54-.46-.27-.97-.08-1.14.45-.06.16-.04.16-.07.28-.33.19-.41.72-.04 1.11 0 0-.05-.4.23-.53.23.18.59.17.59.17s-.06.16-.12.22c-.62.58.17 1.17.17 1.17-.1-.35.05-.51.05-.51s.25.46.73.33c.5-.12.38-.82.38-.82.33-.08.39.22.57.46.14.18.32.25.48.26.11.15.31.32.68.3.16 0 .17-.08.17-.08s-.2-.05-.37-.33c.16-.12.37-.53.13-.86-.26-.37.08-.37.23-.21l.33.35c.16.16.47.11.47.11-.01.31-.31.6-.31.6.8-.02.76-.74.76-.74.24-.1.65-.56.46-.97s-1-.25-1-.25c.44-.55.46-1.15.46-1.15.24.01.49.51.49.51.24-.5-.05-.96-.05-.96.29-.09.33-.4.33-.4s-.55-.02-.48-.37c.07-.35.64-.11.64-.11-.02-.48-.5-.42-.46-.73.05-.36.62-.13.62-.13s.15-.47-.38-.78c-.91-.55-.38-1.01.06-.91.46.1.75.78.75.78s.32-.65-.33-1.17c-.99-.78-1.92.2-1.92.2-.57-.5-1.01-.23-1.5-.1-.94.27-1.53-.46-.26-.75 3.04-.7 4.55-3.54 1.5-8.48l-.01-.02a2.76 2.76 0 0 1 2.33.6l.08.09c-.39.66-.3 1.37-.14 2-.07.3-.14.71-.1 1.07 0 0 .4-.58.32-.21s-.05.68.02.92c.03.12.2-.62.42-.35l.04.05c.3.44.39.62.39.62.07.1.14 0 .12-.06-.09-.41-.07-.58.1-1 .11-.28 1.12-2.07-.6-3.48zm-2.17 5.64c-4.15-1.08-3.46-4.67-1.46-5.68.02.04.09.07.1.1 1.56 2.68 1.78 4.43 1.36 5.58zM12.92 3.65c.11.1.07.18.15.37.02.1-.04.17-.28.02-.13-.09-.42-.17-.42-.17-.06-.03-.08-.1-.03-.14.04-.03.12-.03.2-.06.14-.08.26-.14.38-.02z"/></svg>