<svg version="1.1" xmlns="http://www.w3.org/2000/svg" viewBox="0 0 29 32"><path fill="#e32219" d="M14.37 32a41.54 41.54 0 0 1-9.22-9.34A29.08 29.08 0 0 1 1 13.72C.27 11.09.1 8.12.03 5.35-.02 3.38.01 1.58.01 0h28.72c-.03 1.58.01 3.38-.02 5.35a34.34 34.34 0 0 1-.97 8.37 29.1 29.1 0 0 1-4.15 8.94A41.54 41.54 0 0 1 14.37 32z"/><path fill="#fff" d="M.6.6c.13 7.6-1.62 19 13.77 30.68C29.75 19.59 28 8.2 28.13.6H.61z"/><path fill="#e32219" d="M20.2 16.1l.39-.05c.01.1.04.18.1.23s.12.08.2.08c.08 0 .16-.03.21-.1a.4.4 0 0 0 .01-.49.28.28 0 0 0-.2-.1.72.72 0 0 0-.2.04l.05-.34c.11 0 .2-.02.26-.07s.08-.12.08-.2c0-.07-.02-.13-.06-.17s-.1-.06-.17-.06-.13.02-.18.07-.08.12-.09.2l-.37-.05c.02-.13.06-.24.11-.31s.13-.14.22-.18c.1-.05.2-.07.32-.07.2 0 .36.06.48.2.1.1.15.21.15.34 0 .19-.1.34-.3.45a.5.5 0 0 1 .4.5c0 .19-.07.35-.2.48s-.31.2-.52.2c-.19 0-.35-.06-.47-.17s-.2-.26-.22-.43zm-.71-.82c0-.13-.03-.23-.09-.3s-.13-.11-.2-.11c-.08 0-.15.03-.2.09s-.07.15-.07.29c0 .14.03.24.08.3s.12.1.2.1c.08 0 .15-.03.2-.1s.08-.15.08-.27zm-.92.9l.4-.05c0 .08.03.14.07.18s.1.06.16.06c.08 0 .15-.04.21-.12s.1-.24.12-.48a.48.48 0 0 1-.39.18c-.17 0-.3-.07-.43-.2s-.18-.3-.18-.5c0-.21.06-.39.19-.52s.3-.2.49-.2c.21 0 .4.09.53.25s.2.44.2.83c0 .38-.07.66-.21.83s-.33.26-.56.26c-.17 0-.3-.04-.4-.13s-.17-.22-.2-.4zm-9.5-.16c0 .1.03.2.08.26s.13.1.22.1c.08 0 .15-.04.2-.1s.09-.14.09-.26c0-.1-.03-.18-.08-.24s-.13-.09-.22-.09c-.1 0-.17.04-.22.1s-.07.15-.07.23zm.04-.91c0 .08.02.14.07.19s.1.06.18.06c.08 0 .14-.02.18-.06s.07-.11.07-.2a.24.24 0 0 0-.25-.25c-.08 0-.14.03-.18.07s-.07.11-.07.19zm-.09.4c-.1-.04-.18-.1-.23-.17s-.07-.17-.07-.26c0-.16.06-.29.17-.4s.26-.15.47-.15c.2 0 .36.06.47.16s.16.23.16.39a.47.47 0 0 1-.29.44c.12.05.2.12.27.2s.1.2.1.32a.66.66 0 0 1-.69.66.75.75 0 0 1-.49-.15.6.6 0 0 1-.22-.5c0-.1.02-.21.08-.3s.15-.18.27-.23zm-.96 1.15h-.4v-1.53a1.4 1.4 0 0 1-.53.3v-.36c.1-.04.22-.1.35-.2s.2-.2.26-.34h.33v2.13zm13.8-14.8a3.6 3.6 0 0 0-3.16.06c-.76.44-1.27 1.24-1.28 2.4-.01.24-.07.49-.17.72-.39.62-1.01 1.24-1.72 1.19a5.97 5.97 0 0 0-.94-2.03c.43.02 1.13.47 1.29.8.35-.39.85-1.34.74-2.1-.7 0-1.39-.17-2.09-.47 0 .47-.82 1.6-1.38 1.86.28.42.52 1.34.5 2.16-.41.35-.97.41-1.42.4-.34-.53-.8-.92-.8-1.6-.02-.69.67-1.68 1.4-2.33l-.36-.46c-.5.17-.93.48-1.3.87l.08-.12c-.43-.61-1.15-1.7-2.2-1.96-.3.1-.71.74-1.02 1.38a3.72 3.72 0 0 0-2.4 1.75c-.4-.33-.67-.67-.7-1.1-.05-1.18 1.48-.98 2.23-.65l.01-.85a3.6 3.6 0 0 0-3.16.06c-.76.44-1.27 1.25-1.28 2.4 0 .8-.49 1.44-1.52 1.77.45.2 1.07.05 1.89-.2-.4.57-.89.85-1.89 1.07.63.22 1.6.13 2.48-.16-.23.5-.98.93-2.4 1.1 1.24.4 1.84.27 3.11-.1 1.78-.54 2.94.91.86 1.42-.5.12-1.12-.1-1.74-.37l-.6.73c.82.42 2.21.75 2.88.74 2.03-.04 2.87-1.65 2.37-3.27-.33-1.03-1.24-1.64-2.01-2.2.68-.92 3.12-1.99 4 .17-.4.93-.57 1.91-.53 2.63.06 1.3 1.4 2.51.55 3.17-.2.14-.74.36-1.15.49-1.77-.1-2.84-1.01-4.2-1.08-1-.05-1.81.04-2.33.8-.74 1.08-.07 2.9 1.55 2.92.02-.64.17-.98.3-1.22-.5 0-1.6.09-1.6-.63 0-.36.3-.48.66-.5 1.78-.03 3.33 2.3 5.43 2.44.01-1.04 1.55-2.26 2.74-1.43.57-.84.48-1.57.11-2.17a3.31 3.31 0 0 0 .84-2.84 2.9 2.9 0 0 0 1.13-.37v7.5c.35-.05.45-.11.77-.37v-1.23c.35-.04.74-.06 1.1-.37V6.92a3.46 3.46 0 0 0 2.27-1.07h.01c-.18.67-.71 1.29-1.72 1.5.75.24 1.65-.05 2.34-.55-.18.5-.91 1.32-2.26 1.49 1.24.4 1.74-.03 3.02-.4 1.78-.53 2.84.82.76 1.33-.5.12-1.12-.1-1.74-.37l-.6.73c.82.42 2.21.75 2.88.74 1.97-.04 2.82-1.55 2.41-3.11 1.76.12 3.17 3.06 1.7 3.84-.6.3-1.1.21-1.7.1-1.3-.27-2.26-.86-3.37-.92-1.02-.04-1.82.04-2.34.8-.74 1.08-.07 2.89 1.55 2.92.02-.64.17-.98.3-1.22-.5 0-1.6.09-1.6-.63 0-.37.31-.49.66-.5 1.78-.03 3.34 2.3 5.43 2.43.01-1.03 1.55-2.25 2.74-1.42.59-.86.47-1.61.09-2.22.64-.84 1.04-1.7.92-2.43-.08-1.22-1.16-1.6-1.17-2.62 0-.7.68-1.7 1.42-2.34l-.37-.46c-.44.15-.87.4-1.23.73-.42-.61-1.14-1.69-2.19-1.94-.3.1-.71.74-1.02 1.38a3.7 3.7 0 0 0-2.4 1.72c-.45-.38-1.05-1.16-.47-1.72.44-.42 1.44-.25 2 0l.01-.85zm.7 4.33c-.42-.67-1.2-1.13-1.78-1.5a3.3 3.3 0 0 1 2.37-1.16c1.34.03 2.4 1.6 1.13 2.54-.29.22-.77.23-1.72.12z"/><path fill="#000" d="M14.37 30.55C8.98 26.46 5.8 22.41 3.89 18.48c4.96-.15 8.21-1.57 10.48-3.3a17.7 17.7 0 0 0 10.48 3.3c-1.91 3.93-5.1 7.98-10.48 12.07z"/><path fill="#ffed00" d="M14.37 29.83c-4.88-3.7-7.63-7.24-9.44-10.76 3.67-.3 6.96-1.31 9.44-3.13 2.47 1.81 5.77 2.83 9.43 3.13-1.8 3.52-4.55 7.05-9.43 10.76z"/><path fill="#000" d="M12.51 25.6l.5-.06c-.5-.97.18-1.8 1.08-1.81-.69.65-.67 1.36-.17 1.72l.73-.05c-.58-.87.06-1.64.95-1.74-.43.43-.65 1.22-.12 1.71h.75c-.34-.91.34-1.48 1.09-1.5-.41.36-.72 1.1-.24 1.57.23.05.47.04.86.16.26.13.47.33.53.5-3.16-.39-3.63-.3-5.97.1-.94.49-1.38.62-1.86.18-.08-.12 0-.42.32-.5 0-.2.15-.32.32-.38.45-.13.68.24 1.23.1zm-1.44-2.72l.54-.07c-.6-.98.07-1.92 1.03-1.94-.67.75-.6 1.42-.07 1.84l1.07-.08c-.71-.83.12-1.8 1.07-1.9-.46.48-.76 1.3-.2 1.87l.97-.01c-.48-.93.37-1.69 1.16-1.72-.43.42-.75 1.19-.24 1.74.34.01.68.03 1 .06-.3-.66.12-1.2.94-1.35-.35.39-.55.93-.2 1.42.45.06.98.26 1.36.35.38.21.5.28.8.5a30.32 30.32 0 0 0-9.24-.03c-1 .57-1.48.72-1.99.21-.09-.13-.01-.48.34-.56-.01-.44.36-.46.73-.46.3.28.6.22.93.13zm-1.2-2.58c.22-.02.59-.14.81-.16-.67-1.23.23-2.49 1.45-2.37-.9.83-.97 1.71-.3 2.17.43-.03.72-.09 1.17-.1-.66-1.06.17-2.42 1.28-2.28-.62.57-.86 1.65-.16 2.26h1.2c-.46-1.16.4-2.34 1.6-1.97-.62.17-1.1 1.38-.47 1.98l1.24.07c-.26-.88.24-1.82 1.37-1.45-.52.34-.89 1-.45 1.53.56.06 1.22.19 1.7.28.46.22.88.57 1.06.67-4.36-.6-8.54-.53-11.43.05-1.25.63-1.92.77-2.55.21-.1-.15-.01-.53.42-.62-.01-.48.45-.5.91-.5.37.3.74.34 1.15.23z"/></svg>