<svg version="1.1" xmlns="http://www.w3.org/2000/svg" viewBox="0 0 32 32"><path fill="#fff" d="M29.36 16.04c0 7.38-5.98 13.33-13.36 13.33S2.63 23.42 2.63 16.04s6-13.4 13.37-13.4 13.36 5.3 13.36 13.4z"/><path fill="#65b32e" d="M2.9 16c.23-8.13 5.83-11.45 9.52-12.61 1.7-.53 3.17-.57 3.17-.34 0 .15-1.28.04-3.05.68C9.4 4.86 5 7.64 4.74 14.79a11.9 11.9 0 0 0 23.83 0c0-1.39-.22-2.52-.56-3.46-.57-1.7-1.28-2.48-.98-2.48.23 0 .87 1.31 1.32 2.56.52 1.43.75 2.74.75 4.63A13.1 13.1 0 0 1 16 29.14 13.14 13.14 0 0 1 2.9 16z"/><path fill="#65b32e" d="M14.68 11.9c0-2.34 3.84-2.11 3.84-2.11v8.28c0 .56.38.94 1.02.94 1.05 0 .98-.94.98-.94V9.52c0-2.07 3.8-2.07 3.8-2.07V19.2a4.4 4.4 0 0 1-4.26 3.69 4.2 4.2 0 0 1-3.42-1.77 4.33 4.33 0 0 1-3.47 1.77 4.33 4.33 0 0 1-4.25-3.7l-.04-.67V9.56c0-2.07 3.8-2.07 3.8-2.07v10.65c0 .6.42.94.98.94s1.06-.33 1.06-.94c-.04-.07-.04-4.29-.04-6.25z"/></svg>