<svg version="1.1" xmlns="http://www.w3.org/2000/svg" viewBox="0 0 30 32"><path fill="#005ca9" d="M29.94 4.12c-.33 9.67-4.14 18.4-11.54 24.73l-.08.09c-1.16.92-2.25 1.98-3.5 2.75C9.14 27.89 4.29 21.8 2.25 15.5A39.78 39.78 0 0 1 .31 4.04l.16-.09C7 .47 15.39-.72 22.74 1.28c2.51.67 4.93 1.62 7.2 2.84z"/><path fill="#fff" d="M29.19 4.51a32.5 32.5 0 0 1-13.56 25.61l-.82.6c-1.28-.75-2.43-1.8-3.56-2.8C4.49 21.79 1.33 13.47 1.08 4.46 7.3 1.33 14.88.1 21.9 1.83a34.2 34.2 0 0 1 7.3 2.68z"/><path fill="#005ca9" d="M28.48 4.87c.08 1.36-.15 2.69-.29 4a30.2 30.2 0 0 1-8.78 17.4 44.06 44.06 0 0 1-4.57 3.72l-.23-.11C6.58 24.4 2.18 15.5 1.88 6.13l-.04-1.27a27.84 27.84 0 0 1 15.1-3.43c4.11.25 8.03 1.55 11.54 3.44z"/><path fill="#fff" d="M27.76 5.3l.1.06c-.38 6.75-2.6 13.05-6.95 18.19a27.38 27.38 0 0 1-3.39-3.26c-4.38-5.04-6.54-11.1-7-17.7.56-.22 1.18-.25 1.8-.32A26.5 26.5 0 0 1 27.76 5.3zM10.68 6.43c.03.08.03.15-.06.18-.25 0-.42.12-.56.32l-.19.28-2.68 6.53a.5.5 0 0 1-.27 0l-2.87-6.8a1.16 1.16 0 0 0-.7-.4c.01-.04 0-.13.05-.13h3.5c.01.05.05.1 0 .14-.3.12-.75-.03-.91.32l.06.53a124.6 124.6 0 0 0 1.67 3.97l.1-.15 1.34-3.35c.1-.31.37-.69.2-1.01-.24-.24-.55-.25-.88-.3v-.14c.73-.05 1.48-.02 2.2.02z"/><path fill="#005ca9" d="M20.07 6.7c.02.31-.02.65.02.96a.6.6 0 0 1 .63-.21c.14.04.27.15.28.31l.02 1.2c.01.1.2 0 .13.14h-.83c-.06-.14.13-.05.12-.17V7.8c-.02-.08-.09-.11-.15-.11-.1.02-.2.1-.23.19.01.37-.04.76.03 1.12.03.05.13 0 .1.1l-.85-.02c-.02-.1.18-.05.16-.19l.01-1.98c0-.1-.1-.1-.14-.13l.01-.08.69.01zm-4.76.33c.06.16.02.32-.05.46a.8.8 0 0 1-.47.3c.07.03.18.04.27.08.17.05.31.2.38.36.08.23.01.43-.14.59-.57.4-1.39.19-2.1.23v-.06c.11-.03.3-.02.3-.2l.02-1.9a.24.24 0 0 0-.17-.13c-.05 0-.14.02-.12-.07v-.02c.53 0 1.22-.04 1.77.07.12.05.27.15.31.29z"/><path fill="#fff" d="M14.58 6.9c.12.22.12.49.01.7-.1.13-.26.15-.4.13l.02-.89a.3.3 0 0 1 .37.06z"/><path fill="#005ca9" d="M25.84 7.56l.1.18.03 1.23c0 .12.2 0 .14.15-.27.01-.58 0-.87-.01-.04-.12.19-.05.15-.2V7.85c0-.07-.04-.14-.13-.14-.1 0-.2.1-.26.2v1.04c0 .13.18 0 .14.15l-.83.01v-.08c.06.02.13-.04.13-.1V7.81c0-.07-.09-.11-.15-.11-.1 0-.2.1-.24.18v1.08c.01.13.18 0 .12.16h-.85c-.02-.02 0-.06 0-.08.14.02.18-.12.17-.25V7.66a.17.17 0 0 0-.14-.08h-.02V7.5h.7c.02.06-.01.15.01.22a.68.68 0 0 1 .7-.25c.13.02.23.15.27.24.23-.26.56-.34.84-.15zm-6.66.16c.04.11 0 .26-.12.3-.08.03-.17 0-.25-.03-.2-.12.05-.54-.3-.45-.26.24-.17.65-.11.97.05.12.12.27.25.33.19.08.38 0 .5-.11l.06.06c-.2.27-.56.4-.9.32a.76.76 0 0 1-.51-.61c-.04-.3 0-.61.2-.82.23-.25.59-.3.9-.22.11.04.24.13.28.26zm2.87-.22v1.32c.01.08.11.11.19.11a.32.32 0 0 0 .2-.1c-.03-.39.04-.82-.04-1.2-.02-.04-.06-.06-.1-.05-.03-.02-.02-.06-.02-.09H23v1.35c0 .05.04.11.1.13.07-.03.07.03.08.06l-.04.03c-.23 0-.47.07-.68.1-.04-.03-.02-.1-.02-.18-.17.08-.37.22-.6.16-.12 0-.26-.09-.3-.2-.09-.39-.02-.83-.03-1.25.03-.16-.2-.05-.15-.2.24-.02.45 0 .7 0zm-4.71.22c.2.26.23.67.09.96-.14.3-.46.43-.76.46-.32-.03-.64-.16-.78-.48a.98.98 0 0 1 .1-.92c.2-.3.61-.38.93-.3.17.03.32.18.42.28z"/><path fill="#fff" d="M16.86 7.64c.06.43.14.9-.04 1.31a.26.26 0 0 1-.3.02c-.2-.36-.08-.85-.07-1.25.02-.09.1-.18.2-.2.08-.03.17.05.22.12zm-2.25.32c.22.2.17.51.12.75-.05.16-.21.2-.36.23-.1 0-.22-.02-.2-.16l.02-.9a.6.6 0 0 1 .42.08zm-2.77 3.56c.1.27.2.62 0 .89-.19.24-.58.23-.84.14-.1-.03-.18-.13-.22-.25-.09-.32.04-.63.21-.89.04-.17-.17-.15-.28-.2a.57.57 0 0 0-.53.34l-.1.44v1.47c.32.04.55 0 .88.01.03.15-.02.26.01.4-.23.04-.88.02-.88.02l-.03 10.6-1.4-1.46v-9.1l-.55-.02-.02-.45h.55c.01-.7-.06-1.6.56-2.09.6-.48 1.5-.59 2.2-.25.17.11.33.2.44.4z"/><path fill="#005ca9" d="M22.97 11.5c.04.17.02.36-.11.47-.1.1-.21.15-.33.2.25.13.52.37.5.69 0 .26-.1.51-.32.63a1.2 1.2 0 0 1-.92.08.64.64 0 0 1-.35-.4c-.05-.16.02-.35.08-.48.1-.16.26-.22.42-.28-.17-.1-.36-.25-.42-.46-.03-.25 0-.55.24-.7.37-.2 1.02-.24 1.21.26zm-1.87 1.16c.06.05.14-.01.21.01l.02.4h-.22l-.02.5h-.53v-.49c-.28-.01-.6 0-.89-.02v-.37l1.1-1.58h.36l-.03 1.55zm-3.76-1.49c.03.83-.07 1.44 0 2.19.13.12.29.12.46.11v.09c-.45 0-1.04-.02-1.57-.01v-.08c.16-.03.32.02.44-.1l.06-.2c0-.58.06-1.11-.03-1.63-.13-.15-.3.02-.44.04-.01-.03-.04-.06-.03-.1l1.02-.42c.07-.03.12.05.1.11zm2.03.13c.1.15.14.33.09.5-.07.18-.26.3-.44.35.3.18.56.41.5.8a.7.7 0 0 1-.5.61c-.29.09-.56.08-.84-.07a.64.64 0 0 1-.26-.4.7.7 0 0 1 .11-.45c.1-.12.25-.18.39-.24-.2-.12-.46-.34-.43-.63.02-.18.06-.37.2-.49.32-.25.87-.26 1.18.03z"/><path fill="#fff" d="M22.5 11.44c.04.2.06.45-.06.62-.17-.1-.38-.22-.46-.45-.04-.1-.03-.22.04-.29.07-.04.1-.1.18-.1.14-.02.26.1.3.22zm-3.53-.06a.8.8 0 0 1-.03.66c-.18-.09-.43-.24-.47-.47-.05-.14.03-.29.15-.35.15-.04.3.02.35.16zm.96 1.29l.64-.99-.02.98zm2.62.49c-.02.13-.05.27-.18.33a.41.41 0 0 1-.3 0c-.23-.27-.17-.68-.03-.98.22.15.52.33.5.65zm-3.53-.15c.04.12 0 .27-.04.38a.31.31 0 0 1-.32.1c-.12-.02-.18-.13-.22-.24a1 1 0 0 1 .09-.75c.2.14.44.26.5.51zm-4.04 6.12c-.35.13-.86.04-1.02.49-.12.52-.05 1.04-.09 1.6l-.02 4.36c.5.49 1.28.27 1.88.2.88-.2 1.62-1.1 1.88-1.95.08-.05.16-.01.24-.02-.13.78-.28 1.55-.46 2.33-.12.03-.32 0-.46 0l-3.72-.01-2-.02c-.02-.04 0-.1-.02-.15.3-.13.76-.06.87-.48l.08-.68v-5.2c-.12-.37-.51-.37-.82-.43-.05-.03-.04-.08-.03-.14 1.18-.08 2.55 0 3.68-.04l.01.14z"/></svg>