<svg version="1.1" xmlns="http://www.w3.org/2000/svg" viewBox="0 0 32 32"><path fill="#fff" d="M15.46 30.46a22.3 22.3 0 0 1-5.64-3.17 20.3 20.3 0 0 1-4.2-3.9 44.32 44.32 0 0 1-3.56-5.04c-.44-.76-.98-1.88-1.17-2.44-.08-.23-.08-.25-.03-.49a21.5 21.5 0 0 1 1.96-3.92c1.2-1.97 2.5-3.65 4.04-5.23a21.8 21.8 0 0 1 4.37-3.5A24.46 24.46 0 0 1 15.57.84c.14-.01.22 0 .6.16.8.32 1.1.46 1.66.74 3.47 1.73 6.88 4.72 9.78 8.56 1.44 1.91 2.62 3.99 2.82 4.97.1.47.07.65-.26 1.5-.86 2.3-2.3 4.63-4.08 6.63a24.32 24.32 0 0 1-5.48 4.67 20.87 20.87 0 0 1-4.37 2.28c-.38.13-.6.16-.78.12z"/><path fill="#000" d="M15.47 29.6a20.97 20.97 0 0 1-5.3-2.98 19.14 19.14 0 0 1-3.97-3.68 41.6 41.6 0 0 1-3.34-4.75c-.42-.72-.93-1.77-1.1-2.3-.08-.21-.08-.23-.03-.45.12-.55.97-2.26 1.84-3.7a26.37 26.37 0 0 1 3.8-4.92 20.55 20.55 0 0 1 4.12-3.29c1.05-.63 3.6-1.77 4.08-1.83.13-.02.21 0 .57.15.74.3 1.03.43 1.56.7 3.27 1.63 6.48 4.43 9.2 8.05 1.36 1.8 2.47 3.76 2.66 4.68.1.44.07.61-.24 1.42a20.48 20.48 0 0 1-3.84 6.24 22.93 22.93 0 0 1-5.16 4.4 19.62 19.62 0 0 1-4.1 2.14c-.37.12-.57.15-.75.11zm1.01-4.14a9.4 9.4 0 0 0 6.32-3.08c.86-1 1.51-1.93 1.98-3.18.95-2.56.72-5.46-.64-8.36a10.57 10.57 0 0 0-3.26-3.61 9.4 9.4 0 0 0-4.31-1.7 14.2 14.2 0 0 0-2.12 0 9.7 9.7 0 0 0-4.7 1.65 9.9 9.9 0 0 0-3.91 6.51 8.88 8.88 0 0 0 .1 3.75 10.4 10.4 0 0 0 2.6 4.86c.86.9 1.8 1.57 3.12 2.23 1.21.61 1.81.8 2.82.91.49.06 1.5.07 2 .02zm-1.54-.88c-.3-.02-.7-.11-.98-.22-.27-.1-.63-.3-.63-.33l.05-.12a40.1 40.1 0 0 0 1.44-5.24c.16-.8.18-1.36.1-2.93-.04-.95-.04-1.8 0-1.9a.92.92 0 0 1 .32-.37 40.07 40.07 0 0 1 2.44-1.16c.06.05.24 1.26.24 1.58v.19l-.37.12c-.53.17-.89.35-.97.48-.06.1-.07.14-.04 1.3 0 .67.03 1.23.05 1.26s.07.07.12.08c.1.02.18 0 .64-.1l.2-.04.01.3c.01.16.03.5.03.77v.47l-.32.07a3.22 3.22 0 0 1-.65.1 190.08 190.08 0 0 1-1 5.03l-.12.48c-.03.15-.05.17-.22.2-.02 0-.18 0-.34-.02zm2.49-1.93l.12-.38c.39-1.03.63-1.95.72-2.82.12-1.03.2-4.1.14-4.98A29.02 29.02 0 0 0 17 8.11a3.1 3.1 0 0 1 .92-.26 6.73 6.73 0 0 1 1.73 0c1.3.23 2.3.95 3.12 2.2a5.08 5.08 0 0 1 .85 3.7c-.19.8-.7 1.43-1.19 2.02-.17.2-.17.21-.16.39.01.16.05.23.26.57.43.68 1.38 2.24 1.46 2.39.06.11.08.2.08.37 0 .36-.12.55-.7 1.12a4.7 4.7 0 0 1-.5.46c-.1 0-1.18-1.68-1.6-2.47-.4-.78-.54-1-.7-1.19l-.15-.15-.05.72a69.55 69.55 0 0 0-.18 3.07l-.02.75-.8.25-1.37.45c-.42.14-.58.18-.58.14zm3.24-7.75c.53-.39.82-1.19.78-2.18-.02-.53-.1-.87-.33-1.3-.27-.52-.6-.83-1.13-1.07-.4-.19-.44-.16-.28.28.28.78.58 2.5.7 3.97.02.27.05.4.1.4.02 0 .09-.05.16-.1zM9.83 22.4c-.3-.16-.92-.72-1.12-1-.2-.31-.2-.34.25-.98.12-.19.27-.46.33-.6.17-.41.18-.67.16-2.55-.02-1.84 0-1.71-.28-2.59-.28-.86-.52-1.2-.93-1.26a1.7 1.7 0 0 1-.71-.43c-.27-.23-.34-.34-.37-.6-.02-.2.03-.35.21-.62.33-.5.62-.72.94-.72a2 2 0 0 1 .96.45c.43.35.98.93 1.3 1.36.49.68.68 1.86.64 3.99v.97c.05.08.17-.05.41-.45.6-1 .96-2.12 1.07-3.42.07-.84-.05-1.6-.37-2.47-.37-1-.7-1.57-1.07-1.88-.3-.25-.37-.28-.67-.28a.9.9 0 0 0-.52.12c-.32.15-.56.19-.64.1-.03-.02-.06-.1-.06-.17 0-.37.57-.94 1.52-1.5.49-.28.93-.38 1.31-.3.23.06.6.32.8.55.45.51.95 1.45 1.18 2.2.31 1.05.44 2.38.33 3.6-.1 1.27-.76 2.74-2.21 4.96a25.7 25.7 0 0 0-2 3.53c-.08.08-.29.08-.45 0z"/></svg>