<svg viewBox="0 0 100 100" version="1.1" xmlns="http://www.w3.org/2000/svg"><g id="fckoeln" stroke="none" stroke-width="1" fill="none" fill-rule="evenodd"><g id="1._FC_Koeln" transform="translate(6)" fill-rule="nonzero"><path d="M87.43 49.78c0-.04 0-.06.03-.1.1-.22.16-.46.17-.7 0-.22-.05-.42-.14-.6a1.2 1.2 0 0 0-.22-.27l.2-.6a1.27 1.27 0 0 0-.5-1.4 1.38 1.38 0 0 0-1.57.03 3 3 0 0 0-.86 1.09.58.58 0 0 0-.64-.19c-.42.1-.36.18-.7.67-1.2 1.74-2.78 4.48-4.6 4.56-.4-.04-.52-.16-1-.9-3.94-6.27-8.8-10-15.21-14.56-.38-.32-1.2-1.59-1.98-2.8-1.35-2.12-2.9-4.52-4.49-5.62a14.28 14.28 0 0 0-3.7-1.76c-1.49-.54-2.9-1.05-4.17-2.24a13.1 13.1 0 0 1-1.48-1.93 17.14 17.14 0 0 0-5.04-5.17 6.6 6.6 0 0 0-.41-4.13 1.7 1.7 0 0 0-1.07-.86 4.8 4.8 0 0 0-2.63.44c1.52-4.48 5.08-7.44 6.94-8.96 1.03-.86 1.62-1.35 1.62-2 0-.1-.02-.22-.05-.33-.27-1.2-1.61-1.27-2.19-1.3h-.1c-.8 0-3.3.07-5.12 1.45-.5.14-.99.35-1.43.63a1.34 1.34 0 0 0-.06-.23 1.6 1.6 0 0 0-1.75-.81c-1.23.15-2.41.53-3.5 1.11l-.18.11a5.83 5.83 0 0 0-2.4 2.54c-.88.6-1.52 1.5-1.81 2.53a3.28 3.28 0 0 0-1.46 2.59 4.07 4.07 0 0 0-.9 1.8 5.48 5.48 0 0 0-2.76-1.32h-.15a2.05 2.05 0 0 0-1.57.52l-.14.14-.08.18c-.08.15-.12.31-.13.48.02.33.13.64.33.9l.06.1.18.89.12.92c.18 1.2.81 2.28 1.77 3.03-.17.47-.27.96-.28 1.46.02.64.14 1.28.37 1.87l.07.25v.28c-.1 1.45-.34 2.89-.72 4.3l-.12.39a11.5 11.5 0 0 0-.66 3.52c0 .54.06 1.08.2 1.6a4.19 4.19 0 0 0 1.97 2.5l.55.22c.5.2.65.25.86.59.21.34.26 1.2.26 2.14 0 .65-.03 1.3-.11 1.94v.15c0 .52.32.98.8 1.17.56.21 1.2.04 1.57-.41.34-.35.64-.73.9-1.13.07.1.08.23.18.32l.05.04.05.03c.18.11.38.18.6.19a39 39 0 0 1-2.47 1.54c-6.02.95-10.01 3.14-10.77 5.83a27.92 27.92 0 0 0-13.3 36.77A27.98 27.98 0 0 0 39.2 97.3a27.92 27.92 0 0 0 14.79-36.2l.36-.16.18.2c.4.5.98.83 1.61.94.3.01.6 0 .9-.06h.06l.31.54c.44.6 1.18.92 1.93.81.26-.03.52 0 .77.1.27.13.37.5.5 1.35l.11.62c.1.47.38.88.76 1.17l.18.9c.1.73.21 1.57 1 1.9h.07c.12.63.15 1.38.9 1.8.18.09.38.14.59.14v.07c.12.64.6 1.14 1.23 1.29l.47.77c.24.52.57.98.97 1.38l.17.14.22.06c.1.03.21.05.32.05.9 1.17 3.45 4.93 3.45 8.42v.5a7.14 7.14 0 0 1-1.8 4.39c-.52.7-.8 1.54-.77 2.41v.06c.02.68.41 1.3 1.02 1.61a3.7 3.7 0 0 0 3.24.03 3.01 3.01 0 0 0 1.84-2.24c.04-.22.12-.42.24-.6a4.32 4.32 0 0 0 1.46-2.93v-.36c-.09-1.4-.34-2.77-.77-4.1a17.2 17.2 0 0 1-.4-3.17c.53.74.98 1.47 1.24 1.92l.14.23c.35.6 1.35 2.3 1.35 3.97a7.03 7.03 0 0 1-.99 3.05 9.41 9.41 0 0 0-1.17 3.07c-.04.19-.05.38-.05.57-.03.73.28 1.43.83 1.9.76.65 1.9.78 3.14.35 1.53-.54 2.58-2.28 2.9-4.62l.4-.29a2 2 0 0 0 .5-1.37c0-.27-.04-.54-.11-.8-.82-3.28-.96-4.88-.96-6.16v-1l-.05-2.8a3.2 3.2 0 0 0-.87-1.87l-.6-.69c-.45-.45-.99-1.01-1.1-1.5a9.76 9.76 0 0 1-.22-2.35c0-1.56.18-3.4.36-5.22.19-1.95.37-3.83.37-5.5 0-.67-.04-1.34-.13-2 4.54.13 6.6-4.54 7.3-6.13l.12-.27c.12-.29.18-.59.18-.9.04-.34-.05-.68-.26-.94zm-55.1-15.99l.17-1.18c.12.05.25.08.38.1.1.57.44 1.08.93 1.38l.23.9c0 .03.04.06.05.1-.3.23-.63.51-1.05.89l-.62.55-1.5 1.3a11.5 11.5 0 0 0 1.4-4.04z" id="Shape" fill="#FFF"/><path d="M81.48 75.23l.03.04.12.14-.15-.18z" id="Shape" fill="#FFF"/><path d="M1.28 71.55a26.88 26.88 0 0 1 45.85-18.97 26.8 26.8 0 0 1-19 45.8A26.84 26.84 0 0 1 1.28 71.54z" id="Shape" fill="#E30613"/><path d="M4.53 71.55a23.64 23.64 0 0 1 40.32-16.7 23.57 23.57 0 0 1-16.7 40.28A23.61 23.61 0 0 1 4.54 71.55z" id="Shape" fill="#FFF"/><path d="M6.29 71.55a21.85 21.85 0 0 1 21.86-21.84 21.86 21.86 0 0 1 21.88 21.84 21.87 21.87 0 1 1-43.74 0z" id="Shape" fill="#E30613"/><path d="M51.13 57.45c-.31-.34-.6-.7-.85-1.1a26.87 26.87 0 0 0-22.13-11.62l-.05.06c-.44.13-.85.33-1.23.58-.8.35-1.66.52-2.52.5-.68-.04-.2-.9-.62-.74-.69.19-1.35.45-1.99.78-.04 1.04-3.18 2.12-4.88 1.3.2-2.48 4.33-4.64 10.24-5.53 3.7-2.2 4.21-2.77 6.64-4.93 1.1-.97 1.59-1.35 1.94-1.44.16-.06.05-.16-.08-.16a1.1 1.1 0 0 1-.6-.63c-.2-.41-.07-.9-.35-1.15-.28-.25-.72-.39-.76-.92 0-.28-.04-.71-.45-.74-.55 0-.75.13-.8-1-.04-.49 0-1.28-.27-1.3-.37-.04-.73 1.2-1.13 4.24-.3 2.2-1.61 4.7-2.07 4.39-.45-.31-.06-2.66-.74-3.68-.1-.18.22 2.5-1.8 4.57-.27.3-.51.13-.5-.03.07-.56.34-3.8-.3-4.8-.52-.81-1.07-.86-1.87-1.2a3.14 3.14 0 0 1-1.4-1.8c-.53-2.07.41-4.28.6-4.99.18-.7.9-3.76.72-5.05-.3-.98-.75-1.87-.1-3.39.1-.15.17-.27.04-.4-.97-.75-1.61-1.35-1.89-2.8-.16-.87-.02-1.26-.36-2.01-.11-.3-.37-.45-.28-.67.22-.17.5-.25.8-.2 1.32.2 2.49.98 3.17 2.14.16-.35.39-.68.66-.95a3 3 0 0 1 1.06-2.39 2.24 2.24 0 0 1 1.32-2.24c.1-1.06.72-1.83 1.72-2.53A4.83 4.83 0 0 1 32.3 3.2a8.84 8.84 0 0 1 3.1-.99c.7-.08.84.34.52.63-1.03.84-3.44 3.4-4.42 6.25a5.07 5.07 0 0 1 2-1.92c.53-1.37 1.8-2.07 2.58-2.45a4.49 4.49 0 0 1 2.9-2.17c1.63-1.4 4.27-1.35 4.6-1.35.54.03 1.21.02 1.32.51.2.7-7.88 4.86-9.11 13.21-.05.38 1.98-1.9 4.1-1.56.11.05.2.15.26.26.98 2.13.05 4.08.29 4.23 4.18 2.45 5.1 5.56 6.9 7.32 2.53 2.42 5.5 2.32 7.98 4.11 2.36 1.67 5.06 7.27 6.44 8.42 5.95 4.23 10.96 7.95 14.93 14.27.53.83.86 1.32 1.88 1.42 2.21-.06 4.04-2.7 5.52-5.07.08-.12.19-.16.28-.09.17.14.07.5.26.51.48.07.9-1.37 1.39-1.7.2-.13.48 0 .42.24-.2.52-.38 1.06-.51 1.61 0 .1.09.08.14 0 .08-.1.2-.14.32-.12.2.04.19.31.12.45-.2.33-.32.7-.36 1.08 0 .34.26.1.42.19.16.1.19.38.06.7-.62 1.34-2.51 6.37-7.02 5.72-.58-.1-.87-.52-.7.13 1.15 3.87-1.12 12.3-.15 16.3.27 1.15 1.58 2.08 1.98 2.7.31.34.51.77.56 1.23.3 3.43-.56 3.75 1.02 10.12.16.4.1.87-.16 1.22-.28.32-.5.18-.58.48-.2 2.05-1.05 3.68-2.24 4.12-1.67.57-2.77-.21-2.52-1.62.47-2.55 1.7-3.03 2.12-5.62.32-2.19-1-4.45-1.46-5.21-.45-.77-1.48-2.62-2.8-3.83-.17-.22-.31-.16-.37 0-.5 1.58.03 4.83.25 5.67.37 1.34.8 3 .72 4.1a3.28 3.28 0 0 1-1.14 2.24c-.78.76-.28 2.02-1.75 2.63-.7.36-1.52.38-2.25.07-.33-.21-.5-.3-.53-.72-.04-.64.15-1.28.53-1.8a8.2 8.2 0 0 0 2.01-4.98c.34-4.73-3.87-10.12-4.14-10.18-.26-.07-.17.17-.39.11-.42-.34-.9-1.62-1.35-2.1-.24-.32-.84-.18-.94-.66-.02-.36-.2-.69-.5-.9-.19-.1-.33.09-.5 0-.53-.4-.54-1.84-.71-1.94-.17-.1-.36.07-.5 0-.37-.16-.28-1.37-.58-2.24-.14-.45-.6-.45-.72-.98-.2-.99-.18-2.25-1.24-2.75s-1.8.17-2.3-.6c-.27-.34-.22-.9-.92-.97-.38-.19-.52-.64-.86-.54-.18.05-.03.4-.4.64-.5.04-1.01-1.34-1.72-1.26-.22.08-.31.35-.58.36-.26.02-.33-1.52-1.31-1.89-.17-.07-.3.26-.45.05a8.17 8.17 0 0 1-.9-.84z" id="Shape" stroke="#000" stroke-width=".5" fill="#000"/><path d="M27.41 10.87c.42-.53 1.28-.78 1.24-.95-.04-.17-.4 0-.63 0-.1 0-.23 0-.22-.12.4-1.4 1.77-1.65 2.18-2.1.05-.08 0-.08-.1-.13-.22 0-.57.22-.57 0 .17-1.4 1.86-2.07 2.18-2.18.08-.07 0-.17-.1-.18-.1-.01-.26.1-.28-.07.17-.7 1.09-1.24 1.68-1.54.6-.3 1.8-.62 1.8-.45 0 .07-.95.53-1.26 1a2 2 0 0 0-.51 1.24c-.92.52-1.5 1.5-1.5 2.55-.69.35-1.21 1.59-.99 2.1a3.93 3.93 0 0 0-1.13 2.97c-1.7 2.25-1.2 3.08.68 3.77.28.09.54.1.6-.03.05-.13-.16-.21-.25-.4-1.02-2.28.26-3.42 2.07-4.18.13-.07.03-.23-.18-.23-.48 0-.92.12-.98-.03-.26-.75 1.67-2.29 2.62-2.58.4-.12.23-.32.07-.3-.26-.02-.65.13-.78-.2.24-.84 2.56-1.95 2.9-2.15.21-.13.3-.37-.73-.16-.1 0-.2 0-.15-.13.19-.6 2.36-1.44 3.46-1.82.17-.09.22-.35-.3-.26-.19.03-.53.16-.6 0 .07-.81 2.46-1.44 3.32-1.63.19-.07.23-.18.06-.26-.27-.08-.7.13-.54-.15.64-.4 2.35-.41 2.94-.32.17.03.2.07.22.1-.18.45-3.05 1.27-3.4 2.99-.86.35-1.7 1.17-1.8 1.87-.45.24-1.34.99-1.4 2-.5.38-1.8 1.52-1.35 2.92-.7.64-1.23 1.3-1.2 3.13 0 .63-.8 1.65-1.65 1.88-.23.1-.14.29.03.33a3.52 3.52 0 0 0 3.22-.83c1.63-1.54 2.7-2.1 3.44-2.2.13-.03.13.07.15.14a5.2 5.2 0 0 1 0 2.77c-.45 1.73-1.8 2.54-2.16 3-.07.08.18.81.05 1.19-.16.47 0 .77.2.85.48.17.82-1.61 1.1-1.57.3.05.2.4.45.54.15.05.36 0 .39-.15.04-.63.15-1.26.34-1.86.09-.1.36.45.38.78 0 1.4-.77 2.58-.3 3.54.1.2.32.19.49.03.42-.44.7-2.08 1.64-2.29 1.26-.28 2.5 3.17 1.62 4.1-.45.36-.97.04-1.5.34-.54.3-.53 1.62-.9 2.15-.24.23-.52.27-1.06.31-1.14.1-.8 3.35-.62 3.93.12.35.36.28.52.16.16-.11.3-.8.32-1.43.05-.2.4-.28.64-.52.25-.24.13-.45.3-.64.23-.26.45-.03.65-.32.5-.41.14-1.05.54-1.32.58-.39 1.1-.2 1.62-.76.32-.35.36-1.1.8-1.23 2.37-.05 4.72 2.67 5.12 3.48 1.18 2.42-.7 6.07.58 6.77 1.61.94 1.26 2.75 1.09 3.2-.35.93-2.93 2.11-3.26 4.26-.17 2.06.9 1.63.99 1.37.07-.29.17-.57.28-.85.1-.23.42-.13.45.1.03.22.5.74 1.16-.45a8.47 8.47 0 0 1 2.35-2.34c.83-.58 1.02-2.4 1.16-2.81.15-.42.41-.36.45-.75.04-.38-.72-1.71-.27-2.65a.66.66 0 0 1 1.08-.1c.4.44-.24 1.93.45 1.96.6 0 .67-.7 1.2-.65.51.05-.46 2.06.1 2.36.32.13.72 0 .89.3.15.53-.82 1.51 0 1.51 8.81-.16 12.03 6.77 11.47 8.04-.27.48-1.35-.24-1.48.25A4.93 4.93 0 0 0 70.53 54c.15.09.44-.04.4-.38-.08-.77-.5-1.19-.44-1.95.15-1.35 3.14-.52 3.31.5 0 .39.16.75.42 1.03.45.4 1.46-.06 1.56.84.13 1.74-2.04 1.84-3.54 2.92-.72.55-.56.93.05 1.13.72.19 1.88 0 2.46.83.83 1.19-.26 3.67-.32 4.71-.07 1.05 1.84 4.16 1.87 5.74.14.8-.4 1.22-1.07.57a17.8 17.8 0 0 1-1.83-2.5c-.15-.25-.53-.27-.52.24 0 1.37 6.49 9.8 6.65 11.2.15.74-.26 1.35-.09 2.06.06.2.33.1.35.26.03.45-.45 1.18.24 1.52.33.93 0 1.31.17 2.08.1.77.45 1.82.54 2.6-.19 2.18-1.02 3.03-1.69 3.35-.57.29-.8-.23-.76-.67.16-1.32 1.61-3.66 1.03-6.28-1.5-6.77-8.75-11.58-9.97-14.16-.39-.97-1.8-1.08-1.86-2.24-.14-.37-.5-.26-.82-.6-.31-.33-.25-1.18-.53-1.83-.08-.2-.34-.1-.53-.3-1.03-1.34-.8-7.97-1.72-8.88-.68-.38-1.21.67-2.06.76-.64.07-1.71-1.54-2.1-1.13-.32.32-.18 1.13-.15 1.26.02.13.19.68-.03.68s-.48-.4-1.3-.73c-.55-.2-1.06 0-1.31-.16-.56-.6 0-1.87-.9-2.25-.26-.1-.31-.77-.45-1.03-.13-.2-.4-.18-.52-.32a4 4 0 0 1-.55-1.4c-.1-.36-.95.1-1.02-.49-.08-.39-.54-.5-.9-.57-.45-.06-.25-1-.62-1.16-.16-.07-.22.11-.39.02-.17-.21-.14-.42-.36-.57-.22-.15-.37.08-.5-.07-.55-.66-.11-1.8-.4-2.1-.18-.2-.5.02-.79-.23-.28-.24-.32-.56-.49-.6-.48 0-.65-.1-.85-.35-.9-1.23-.79-2.65-1.09-3.16-.2-.33-.5-.54-.72.08-.45 1.08-.4 5.09-1.68 5.64-1 .48-1.88-1.22-2.37-1.53-.22-.12-.26.25-.41.26-.45-.17-.35-.71-.72-.93-.37-.21-.2.35-.4.3-.36-.32-.36-1.19-.67-1.34-.32-.15-.4.2-.55.07-.5-.45-.15-1.43-.77-1.74-.26-.09-.23.36-.5.24-.27-.13-.22-1.5-1.04-1.35-.12 0-.08-.18-.16-.25-.25-.03-.42.3-.67.1a3.77 3.77 0 0 0-.83-.86c-.34-.29-.85.08-1.28-.24-1.5-.65-4.94 1.96-6.46 3.49-.56-.52-1.32.03-1.96.1-.23.05-.96.02-.4-.76 1.41-1.48 2.43-1.4 5.07-3.3 1.93-1.4 3.66-2.78 4.29-3.18a1.46 1.46 0 0 1 2.01.4c.97 1.27 3.12 3.38 4.04 3.8 1.89.81 1.98-.63 2.22-1.14.23-.5.32-.08.31.4 0 .31.11.75.37.8.52.06.52-.33.6-.58.58-2.32 2.87-5.1 3.77-4.54.66.43 1.05.43 1.21-.37.17-1.02-.62-1.97-.83-3.04-.22-1.25-.09-2.9-.56-3.14-.28-.12-.66.15-.9.45-.22.38-.36.8-.39 1.25-.04.25-1.08.54-1.2 1.88 0 .24-.4-.24-.69 0-.58.45-.48 2.63-.66 2.75-.22 0-.48-.21-.57.1.05.35-.14 1.2-.31 1.27-.18.07-.3-.13-.5 0-.5.42-.3 1-.78 1.55-.29.37-.49.11-.53-.2a3.72 3.72 0 0 0-.9-1.74c-1.1-1.15-.42-3.06-2-3.85-.46-.24-.49-.45-.54-.9a.9.9 0 0 0-.53-.85.62.62 0 0 1-.53-.66c.04-.82-.57-.85-.9-.92-.76-.07-.8-.22-.55-2.14.09-.47.06-.96-.08-1.42-.4-.6-1.27-.22-1.15-1.18.09-.63 1.22-1.45 1.7-1.97.3-.34.49-1.19-.53-.98-2.3.6-4.14 4.68-4.57 5.46-1.66 3.05-3.1 4.27-4.47 4.74-.63.21-2.82.44-3.27-1.73-.23-1.13.05-2.19.56-3.95 2.25-7.71-.26-6.24.96-8.82.78-.87 1.9-.75 3.02-.9.25-.03.16-.35.1-.44a1.15 1.15 0 0 0-.66-.27A1.87 1.87 0 0 1 26 14.7c0-.62.28-1.2.77-1.59.47-.45.81-.51.82-.62-.03-.4-.9.17-.98 0-.08-.61.45-1.2.8-1.61z" id="Shape" fill="#FFF"/><path d="M25.01 14.88c-.03.56.1 1.12.35 1.62-.37.05-.6.38-.93.2a4.38 4.38 0 0 1-1.93-2.66c-.22-.6-.2-1.32-.53-1.87 1.76.13 3.06 2.5 3.04 2.71z" id="Shape" fill="#FFF"/><path d="M39.29 15.16c.1-.03.13.04.13.08-.08 1.26-1.41 3.77-3.15 4.22-.1 0-.16 0-.2-.09a2.84 2.84 0 0 1 1.8-2.9c.6-.27 1.1-.73 1.42-1.3zm-5.86 4.94c.08.33 0 .35-.25.17-.9-.95-1.69-.7-2.25-.42-.27.11-.35.1-.27-.14.85-1.28 2.38-.65 2.77.4zm-4.73.18c.46.66.27 1.68-.13 2.45-.32.58-.83 1.53-1.03 1.94a.28.28 0 0 1-.42.2c-.15-.04.56-1.21.76-2.6.08-.56-.07-1.39.35-2 .14-.2.35-.14.48.01zm3.86.62c.33.77-.48 1.14-.96 1.24-.3.05-.62-.03-.87-.22-.15-.11-.07-.2-.2-.25-.25 0-.19.15-.44.2-.2.03-.21-.05-.08-.25.31-.51.48-.9.99-1.08.5-.18 1.15-.39 1.56.36zm-2.67 3.23c.4 1.53.1 2.13-.25 2.5-.13.12-.96.27-1.07-.8.37-.56.67-1.16.9-1.79.19-.34.3-.37.42.09zm-3.07 4.25c-.18.97-.58 1.46-1.26 1.61-.8.1-1.14-.79-1.04-.78a2.3 2.3 0 0 0 2.1-.93c.1-.17.22-.06.2.1zM66.1 43.34a.65.65 0 0 1 .48.85c-.18.42-.56.7-.57 1.1 0 .41-.06.55-.33.64-.5.05-.79-.98-1.24-.27a.48.48 0 0 1-.8-.09c-.1-.31-.28-.64-.6-.65-1.04-.03-1.3-1.65-1.13-2.09.8-1.87 2.74.01 4.2.5z" id="Shape" fill="#000"/><path d="M25.31 43.03c-.5.4-.92.9-1.21 1.48-.85.2-1.68.5-2.47.9-.75.17-1.52.29-2.3.33-.15 0-.18-.1-.18-.22-.08-.73 4.43-2.57 6.16-2.74.16-.02.25.05 0 .25zm59.55 9.32c.14.36-.25.82-.66 1.27-.4.45-2.12 1.68-3.56 1.61a.85.85 0 0 1-.69-1.02c.14-.45 1.53-.56 2.59-.93a5.1 5.1 0 0 0 1.76-.9c.38-.3.47-.12.56-.03zM72.6 79.21c.26 0 .22-.08.44 0 .2 0 .2.9.17 1.35-.05.27-.12.75.18.96.3.21-.35 1.06.1 1.46.24.34-.28 1.23.12 1.72.17-.02.35.06.44.21-.16 1.03.3 2.65.13 3.12-.44.71-.79.64-1.17 1.8-.58 1.12-2.21.42-1.9-.49.9-1.56 1.45-3.3 1.62-5.09.2-2.46-1.1-6.38-1.25-6.93-.03-.49.08-.79.45-.34.61.9.4 2.18.67 2.23zM30.46 58.27l-.05.24-1.51-2.25-.64 7.87h-.2l-.63-7.87-1.51 2.24s-2.57-11.92-2.78-12.76l-2.78 12.78-1.52-2.24-2.68 33.4v.05a21.7 21.7 0 0 0 11.97 3.58h.03c4.26.01 8.43-1.24 11.98-3.58v-.04l-2.66-33.43-1.52 2.24-2.77-12.76-2.73 12.53z" id="Shape" fill="#FFF"/><path d="M40.26 89.69l-2.7-33.74-1.54 2.3-2.84-13-2.83 13-1.54-2.3-.65 8.18-.64-8.17-1.55 2.3-2.83-13-2.83 13-1.54-2.3-2.7 33.73v.1a21.83 21.83 0 0 0 12.08 3.63h.03c4.3 0 8.5-1.25 12.08-3.63v-.1z" id="Shape" fill="#000"/><path id="Shape" fill="#FFF" d="M50.98 70.35l-3.45-11.91L4.99 70.39l2.63 12.13z"/><path id="Shape" fill="#E30613" d="M12.99 69.69l5.58-1.73-.98 10.49-3.9 1.08.68-7.12-1.68.58zM23.4 75.3c-.1 1.09-1.26 2.01-2.3 2.33-1.04.32-2.09-.02-1.98-1.12.1-1.1 1.26-2.1 2.3-2.38 1.05-.27 2.07.04 1.97 1.17zm2.56-9.42l7.23-2.04-.27 3.03-3.3.89-.09 1.11 2.89-.81-.26 2.69-2.89.82-.35 3.67-3.96 1.11zm16.54-.49a2.62 2.62 0 0 0-2.21-.4 3.35 3.35 0 0 0-2.34 2.65c-.11 1.14.83 1.75 2 1.42.92-.3 1.74-.85 2.34-1.6l-.49 3.95c-.88.52-1.83.92-2.82 1.2-3.1.86-5.29-.78-5-3.77.28-3.06 3-6.2 6.18-7.1a7.48 7.48 0 0 1 2.6-.3l-.26 3.95z"/><path d="M25.47 79.37c-.04.41-.29.77-.66.94-.3.08-.53-.2-.5-.62 0-.4.26-.76.64-.9.32-.14.55.13.52.58zm1.68-.48c-.03.4-.28.77-.66.93-.32.1-.53-.19-.5-.6.02-.4.27-.75.63-.92.32-.12.57.18.53.57v.02zm1.1 4.41c-.18 2.25-1.6 3.94-3.2 4.38-1.6.43-2.8-.55-2.61-2.76.18-2.22 1.6-3.94 3.2-4.4 1.6-.44 2.79.6 2.61 2.76v.02zm-3.9 1.12c-.06.8.3 1.22.87 1.08a1.8 1.8 0 0 0 1.1-1.6c.07-.76-.27-1.27-.87-1.09-.6.18-1.03.87-1.1 1.59v.02zm4.86-4.8l1.91-.51-.39 4.68 1.6-.44-.19 2.24-3.51.96zm4.01-1.12l1.84-.48 1.4 3.36h.04c-.03-.58-.03-1.17 0-1.75l.18-2.06 1.82-.5-.57 6.9-1.83.5-1.35-3.14h-.08c.04.45.04.9 0 1.34l-.18 2.24-1.8.5.53-6.9z" id="Shape" fill="#FFF"/><path d="M17.78 82.8l1.85-.5-.3 3h.04c.09-.29.2-.57.34-.85l1.1-2.48 2.08-.57-1.92 3.8 1.52 3.06-2.2.61-.75-1.85c-.12-.22-.2-.46-.23-.7h-.06l-.2 2.92-1.85.5.58-6.93z" id="Shape" fill="#FFF"/></g></g></svg>