<svg viewBox="0 0 100 100" version="1.1" xmlns="http://www.w3.org/2000/svg"><g id="alemannia-aachen" stroke="none" stroke-width="1" fill="none" fill-rule="evenodd"><g id="Alemannia_Aachen_2010" transform="translate(8)"><path d="M83.17.98C82.72.5 82.22.4 81.14.4H2.84C1.93.4 1.3.5.89.93c-.53.54-.6 1.31-.35 1.95.34.86 39.53 94.13 39.73 94.59.19.44.7 1.49 1.73 1.49 1.02 0 1.5-1.03 1.7-1.5.3-.63 39.4-93.73 39.74-94.59.3-.73.18-1.42-.27-1.9" id="path3" fill="#F7E316" fill-rule="nonzero"/><path d="M0 99.35h84" id="line5"/><path d="M84 0H0" id="line7"/><path d="M42 99.35a1.93 1.93 0 0 1-1.48-.71 3.9 3.9 0 0 1-.62-1.02C39.71 97.16.52 3.9.17 3.02A2.17 2.17 0 0 1 .6.65C1.16.09 1.9 0 2.83 0h78.31c.55 0 .96.03 1.35.12.38.1.7.3.96.58l-.29.27.3-.27c.35.37.54.86.53 1.38 0 .31-.06.62-.18.94-.34.86-39.45 93.95-39.74 94.6-.1.24-.3.66-.62 1.03-.31.36-.8.7-1.45.7zM1.18 1.2c-.27.27-.39.6-.39.97 0 .19.04.38.11.56.34.84 39.55 94.13 39.73 94.58.1.2.25.55.49.81.23.26.5.44.88.44.36 0 .62-.17.86-.43.23-.27.39-.61.5-.84.26-.6 39.39-93.74 39.72-94.56.1-.23.13-.45.13-.65 0-.33-.1-.6-.33-.83a1.1 1.1 0 0 0-.6-.36c-.25-.07-.62-.1-1.14-.1H2.81c-.88 0-1.36.12-1.64.41z" id="path9" fill="#000" fill-rule="nonzero"/><path d="M80.74 2.82c-.16-.23-.4-.25-1.09-.25H4.34c-.69 0-.88.1-1.04.27-.18.2-.2.45-.02.9l37.78 89.98c.16.37.34.74.92.74.57 0 .78-.38.95-.74.17-.36 37.66-89.7 37.78-89.97.15-.38.22-.65.03-.93" id="path11" fill="#000" fill-rule="nonzero"/><path id="polyline13" fill="#FFF" fill-rule="nonzero" d="M42 89.9L77.8 4.68H6.19l35.8 85.22"/><path id="polyline15" fill="#000" fill-rule="nonzero" d="M42 85.48l29.87-71.17H12.11l29.87 71.17"/><path d="M49.23 42.58c-4.21-.66-7.23-.62-7.23-.62s-3.02-.04-7.22.62c-4.2.65-9.06 2.16-9.06 2.16L42 83.44l16.22-38.61s-4.8-1.6-9-2.25" id="path17" fill="#F7E316" fill-rule="nonzero"/><path d="M54.2 50.08c-.33-.1-1.23-.63-1.86-1.04-.7-.49-1.34-1.02-2.17-1.82-.6-.58-1.01-.79-1.48-.8-.64 0-1.29.16-1.68.6-.36.37-.52.8-.66 1.43-.15.75-1.25 4.8-1.38 5.37-.11.5-.18.64-.5.64-.29 0-.33-.15-.49-.73l-.25-1.02c-.07-.36-.08-.5-.08-.5l1 .02s-.62-1.08-.8-1.68c-.17-.52-.15-1.15-.15-1.15s.52.14.75.17c.23.03.28-.1.15-.37a6.82 6.82 0 0 1-.5-1.58 2.1 2.1 0 0 1 .1-.86c.05-.14.13-.26.4-.44.2-.14.63-.25.78-.3.14-.07-.41-.19-.93-.28-.52-.1-.86-.32-1.01-.35-.14-.04-.36-.18-.82-.27 0 0-.34-.03-.6.04-.25.07-.35.26-.52.33-.09.04-.12.02-.47.06-.37.03-.72.04-1.13.29-.46.27-.64 1.18-.5 1.14.16-.04.63-.27.9-.31.25-.05.55.02.6.05.25.1.3.18.36.31.1.24.12.69.07.73-.06.07-.28-.26-.62-.43-.23-.12-1.1-.04-1.22-.06-.28-.04-.47-.25-.6-.33-.13-.1-.23-.28-.35-.39-.1-.07-.43-.24-.4-.04.01.2.15.6.51.88a2.7 2.7 0 0 0 1.17.37s0 .23.2.43c.2.23.52.4.9.5.23.05.27.1.27.16 0 .13-.02.21-.12.58-.15.5-.2.72-.35 1.07a65.2 65.2 0 0 1-.83 1.75l1-.01s0 .13-.08.49a11 11 0 0 1-.25 1.02c-.12.43-.17.55-.3.66-.06.05-.13.07-.3.07-.25-.02-.45-.18-.6-.66-.15-.57-1.36-4.62-1.53-5.37a3.02 3.02 0 0 0-.67-1.51c-.43-.4-1.2-.52-1.82-.51-.48 0-.89.21-1.5.8-.83.79-1.45 1.32-2.17 1.8-.61.42-1.52.95-1.85 1.05-.21.07-.11.27.23.78.3.45.83.62 1.59.4.36-.1 1.1-.5 1.63-.86.52-.34.91-.72 1.05-.67.18.07.21.35-.04.67-.18.22-.37.32-.69.59-.33.25-1.56 1.05-1.9 1.2-.28.14-.5.23-.74.28-.2.04.07.65.3.86.22.22.47.44 1.08.25.39-.13 1.2-.55 1.59-.79.43-.26.9-.65 1.1-.65.21 0 .52.26.2.64a14 14 0 0 1-1.53 1.16c-.63.4-1.31.76-1.85.85-.27.05.28.85.74 1.04.46.18 1.32-.33 1.6-.46.29-.14.68-.42.97-.63.26-.18.52-.36.62-.2.1.15.1.37-.06.57-.25.3-.3.35-.7.66-.46.36-1.4 1.01-2.18 1.04-.28 0 .33 1.02.81 1.2.25.08.83-.17.83-.17a5.8 5.8 0 0 0 1.16-.68c.19-.13.47-.32.68-.2.2.1.16.45-.13.71-.24.22-.54.47-.91.7-.29.2-.85.57-1.42.59-.31 0 .77 1.44 1.1 1.46.6.05 1.5-.31 2.2-.8.58-.43.9-.6 1.2-.68.27-.1.52-.1.86 0a1.93 1.93 0 0 1 .99.7c.12.19.16.33.18.48.03.17-.04.38-.29.67-.46.56-.72.7-1.56 1.3-.83.6-1.61.86-1.61.86l1.42.74c.04 0-.1.33-.28.48-.18.16-.22.15-.34.16-.1.01-.88-.14-1.38-.04-.48.1-.92.8-.66.78.4-.02.93-.12 1.22 0 .32.14 0 .63-.15.84a2 2 0 0 1-.49.4l-.03.86.77-.2.32-.57c.15-.24.4-.38.57-.43.17-.07.35.18.4.48.07.3-.04.91.1.94.2.05.52-.79.52-1.14 0-.37-.27-.88-.44-1.11-.17-.24-.08-.4 0-.54.12-.2.5-.36.5-.36s.9 1.54.91 1.5c.03-.21.18-1.6.4-2.4.24-.8.2-.96.4-1.32.26-.46.4-.79.5-.67.08.13.05.67.05.67s.18 5.3.18 6.83c0 1.52-1.28 3.02-1.28 3.02h1.48c0 .32.1 2.34.4 2.34.3 0 .4-2.02.4-2.34h1.48s-1.28-1.5-1.28-3.02c0-1.53.18-6.83.18-6.83s-.03-.54.06-.67c.09-.11.23.22.48.67.2.36.21.52.44 1.32.23.81.37 2.2.4 2.4.01.05.92-1.5.92-1.5s.38.15.5.37c.08.13.17.3 0 .53-.18.24-.43.75-.43 1.11 0 .36.31 1.2.52 1.14.14-.03.02-.64.08-.93.06-.3.23-.55.41-.49.17.07.42.2.57.44.14.23.31.57.31.57l.78.2-.03-.86s-.32-.19-.48-.4c-.16-.22-.48-.7-.15-.84.3-.13.82-.02 1.2 0 .28.01-.17-.69-.66-.78-.49-.1-1.26.05-1.38.04-.11-.02-.15 0-.34-.16a1 1 0 0 1-.28-.49c.04 0 1.43-.73 1.43-.73s-.77-.28-1.61-.87c-.83-.6-1.14-.74-1.6-1.3-.25-.3-.32-.5-.3-.68a1 1 0 0 1 .2-.47c.1-.15.2-.26.36-.4.2-.13.36-.23.61-.31.34-.1.6-.1.88 0s.62.26 1.2.68c.69.5 1.58.86 2.18.81.34-.02 1.42-1.46 1.11-1.46-.58-.02-1.14-.4-1.42-.58-.38-.24-.67-.5-.92-.7-.28-.27-.32-.62-.12-.73.2-.12.49.07.67.2a6 6 0 0 0 1.15.68s.6.25.85.17c.47-.17 1.1-1.19.81-1.2-.78-.02-1.71-.67-2.2-1.03a3.63 3.63 0 0 1-.68-.66.5.5 0 0 1-.06-.58c.1-.16.35.03.62.21.29.2.68.49.96.63.28.13 1.15.65 1.6.46.47-.2 1-.99.75-1.04a5.56 5.56 0 0 1-1.86-.86 15.06 15.06 0 0 1-1.52-1.15c-.33-.38-.01-.64.18-.64.21 0 .69.4 1.12.65.4.24 1.2.67 1.58.79.62.2.86-.03 1.1-.25.22-.21.47-.82.28-.86a3.73 3.73 0 0 1-.74-.28 20.3 20.3 0 0 1-1.9-1.2c-.3-.26-.5-.37-.68-.6-.25-.31-.21-.6-.04-.66.13-.05.53.33 1.05.67.53.35 1.27.75 1.63.86.75.22 1.3.05 1.59-.4.34-.5.44-.7.22-.78zm-12.05-3.76c-.2 0-.36-.13-.36-.28 0-.15.16-.28.36-.28.2 0 .37.13.37.28 0 .15-.17.28-.37.28z" id="path19" fill="#000" fill-rule="nonzero"/><path d="M14.54 6.47h1.6l2.66 6.5h-1.62l-.54-1.45H14l-.56 1.44h-1.58l2.7-6.5zm-.15 3.98h1.84l-.89-2.38h-.02l-.93 2.38z" id="path21" fill="#000" fill-rule="nonzero"/><path id="polyline23" fill="#000" fill-rule="nonzero" d="M19.52 6.47h1.56v5.29h3.46v1.2h-5.02V6.47"/><path id="polyline25" fill="#000" fill-rule="nonzero" d="M25.51 6.47h5.32v1.2h-3.76v1.39h3.05v1.11h-3.05v1.59h3.83v1.2h-5.39V6.47"/><path id="polyline27" fill="#000" fill-rule="nonzero" d="M32.06 6.47h2.01l1.85 4.47h.02l1.85-4.47h1.91v6.49h-1.3v-4.6h-.02l-1.89 4.6h-1.21l-1.89-4.55h-.01v4.55h-1.32V6.47"/><path d="M43.11 6.47h1.6l2.67 6.5h-1.63l-.53-1.45h-2.66L42 12.96h-1.58l2.7-6.5zm-.14 3.98h1.84l-.9-2.38h-.02l-.92 2.38z" id="path29" fill="#000" fill-rule="nonzero"/><path id="polyline31" fill="#000" fill-rule="nonzero" d="M48.08 6.47h1.55l2.97 4.35h.02V6.47h1.45v6.49h-1.55l-2.96-4.34h-.01v4.34h-1.47V6.47"/><path id="polyline33" fill="#000" fill-rule="nonzero" d="M55.56 6.47h1.55l2.96 4.35h.02V6.47h1.46v6.49h-1.56l-2.95-4.34h-.02v4.34h-1.46V6.47"/><path d="M63.8 12.96v-6.5" id="line35" stroke="#000" stroke-width="1.56"/><path d="M68 6.47h1.6l2.65 6.5h-1.62l-.54-1.45h-2.65l-.56 1.44H65.3l2.7-6.5zm-.15 3.98h1.83l-.89-2.38h-.02l-.92 2.38z" id="path37" fill="#000" fill-rule="nonzero"/><path d="M45.14 18.6h-5.61l.71 1.76-7.66 18.39h2.34l1.5-3.63h9.9l1.58 3.63h5.61L45.14 18.6zm-8.05 14.98l4.33-10.46 4.26 10.46h-8.6z" id="path39" fill="#F7E316" fill-rule="nonzero"/></g></g></svg>