<svg viewBox="0 0 100 100" version="1.1" xmlns="http://www.w3.org/2000/svg"><g id="ladies-in-black" stroke="none" stroke-width="1" fill="none" fill-rule="evenodd"><g id="Ladies_in_Black_Aachen_logo" transform="translate(7)" fill-rule="nonzero"><path d="M43.84 98.66c-3.07 0-8.79 0-13.35-1.46-5.32-1.71-8.01-5.02-8.01-9.83 0-3.4.84-6.73 1.67-9.95.24-.95.49-1.93.71-2.9 2.15-9.43 5.36-31.11 5.36-36.25 0-4.01-.42-7.44-1.26-10.46l-.2-.73.71-.26c.39-.14.8-.21 1.23-.21 1.76 0 3.46 1.18 4.16 1.74a220 220 0 0 1 14.46-2.44 91.1 91.1 0 0 1 11.12-.83c.99 0 1.92.03 2.78.08 5.72.4 10.54 2.03 13.95 4.74 3.91 3.1 5.9 7.44 5.9 12.9 0 7.85-2.63 11.8-7.5 15.89 6.36 4 8.98 8.77 8.98 16.22 0 5.13-1.51 9.84-4.36 13.62a22.63 22.63 0 0 1-12.04 8c-6.93 1.97-14.15 2.13-22.2 2.13h-2.11zm5.05-11.5c.35.13 1 .23 2.58.23 5.7 0 8.63-11.55 8.63-16.49 0-4.11-.6-7.35-1.71-9.35l-.02-.03a6 6 0 0 0-.78-1.26l-.54-.58.57-.56c.97-.92 2-2.12 2.9-3.16a13 13 0 0 0 2.22-3.56c.65-1.49 1.12-4.66 1.12-7.54 0-1.86-.45-6.2-4.65-6.2h-1.49a58.35 58.35 0 0 1-1.88 8.36l-.45 1.63c-2.23 8.52-4.69 20.55-4.93 28.77-.03 1.02-.58 4.1-1.07 6.83l-.5 2.91z" id="path3330" fill="#1A171B"/><path d="M60.44 25.9c1.01 0 1.91.03 2.72.08 10.54.72 19.08 5.83 19.08 16.82 0 7.85-2.67 11.64-8.09 15.99 6.67 3.87 9.57 8.48 9.57 16.12 0 10.06-5.91 18.01-15.8 20.84-7.07 2-14.58 2.1-21.98 2.1h-2.1c-7.53 0-20.54-.32-20.54-10.48 0-4.29 1.4-8.48 2.37-12.67 2.15-9.42 5.37-31.2 5.37-36.43 0-3.56-.32-7.23-1.29-10.68.31-.11.63-.16.95-.16 1.96 0 3.94 1.8 3.94 1.8s7.44-1.56 14.79-2.5a88.1 88.1 0 0 1 11.01-.84m-8.97 62.32c6.56 0 9.45-12.38 9.45-17.3 0-3.1-.32-7.1-1.8-9.75a6.8 6.8 0 0 0-.92-1.45c.96-.91 1.97-2.07 2.95-3.23a13.76 13.76 0 0 0 2.35-3.75c.69-1.58 1.2-4.78 1.2-7.87 0-3.45-1.4-7.01-5.5-7.01h-2.22c-.32 3.5-1.5 7.28-2.4 10.59-2.13 8.2-4.7 20.47-4.95 28.95-.05 1.63-1.63 9.57-1.63 10.2.45.32.78.62 3.47.62m8.97-63.95c-3.08 0-6.85.28-11.22.84-5.96.77-12.04 1.95-14.15 2.37-.9-.67-2.57-1.68-4.37-1.68-.53 0-1.03.09-1.51.26l-1.44.52.4 1.45a37.37 37.37 0 0 1 1.24 10.25c0 5.1-3.2 26.68-5.34 36.07-.22.95-.47 1.93-.7 2.88-.84 3.27-1.7 6.65-1.7 10.15 0 2.8.87 5.16 2.58 7.02a13.66 13.66 0 0 0 6 3.58c4.7 1.51 10.5 1.51 13.6 1.51h2.12c8.12 0 15.4-.16 22.43-2.16a23.46 23.46 0 0 0 12.48-8.3 23.17 23.17 0 0 0 4.52-14.1c0-4.13-.82-7.5-2.51-10.32a19.24 19.24 0 0 0-5.93-6 20.94 20.94 0 0 0 4.75-5.72c1.5-2.77 2.21-5.97 2.21-10.08 0-2.9-.56-5.54-1.65-7.86a15.92 15.92 0 0 0-4.55-5.68c-3.54-2.81-8.53-4.51-14.42-4.91-.87-.06-1.82-.1-2.83-.1m-4.25 24.6l.44-1.61a64.17 64.17 0 0 0 1.82-7.76h.76c3.33 0 3.83 3.37 3.83 5.38 0 3.15-.53 6.02-1.06 7.22a12.2 12.2 0 0 1-2.1 3.34v.01a42.14 42.14 0 0 1-2.83 3.1l-1.16 1.11 1.09 1.17c.09.1.3.37.65 1.08l.02.03.01.03c1.05 1.88 1.6 4.97 1.6 8.95 0 2.35-.73 6.5-2.14 9.88-.9 2.16-2.83 5.8-5.65 5.8-.68 0-1.22-.03-1.64-.07l.38-2.12a75.64 75.64 0 0 0 1.07-6.95c.25-8.15 2.7-20.1 4.9-28.59" id="path3336" fill="#FFF"/><path d="M35.06 89.35c-.24 0-23.97-.11-28.37-1.99a8.21 8.21 0 0 1-5.3-8c0-3.13.86-6.53 1.62-9.52l.27-1.09c4.84-21.14 7.19-36.38 7.19-46.59 0-3.05-.38-5.86-1.25-9.4l-.2-.76.75-.25c4.55-1.55 7.3-2.2 12.6-2.2 5.35 0 9.52 1.27 12.4 3.75 3.08 2.64 4.64 6.61 4.64 11.8 0 3.82-.9 7.94-1.75 11.92-.26 1.18-.5 2.3-.71 3.39L33.1 60.75c-.1.52-.2 1.06-.32 1.6-.63 3.21-1.3 6.53-1.3 9.54 0 3.13 2.24 3.67 6.94 3.67 5.38 0 15.08-2.44 20.43-4.63l1.04-.43.14 1.1c.19 1.49.08 3.05 0 4.3l-.01.1c-.17 2.55-1.3 7.45-3.56 9.78-3.09 3.2-12.8 3.58-19.85 3.58h-1.56z" id="path3342" fill="#1A171B"/><path d="M22.38 10.4c10 0 16.17 4.53 16.17 14.7 0 4.86-1.51 10.4-2.44 15.14L32.27 60.6c-.7 3.62-1.63 7.69-1.63 11.3 0 4.41 4.19 4.52 7.8 4.52 5.7 0 15.52-2.55 20.75-4.7.18 1.44.07 3.02-.02 4.24-.18 2.65-1.34 7.2-3.32 9.24-3.04 3.16-13.82 3.32-19.23 3.32h-1.56c-4.65 0-24.31-.34-28.04-1.93a7.39 7.39 0 0 1-4.77-7.23c0-3.39 1.05-7.12 1.87-10.4 3.02-13.22 7.2-33.34 7.2-46.79 0-3.39-.46-6.33-1.27-9.6 4.65-1.59 7.33-2.15 12.33-2.15m0-1.7c-5.4 0-8.34.7-12.89 2.24l-1.48.5.37 1.5a36.45 36.45 0 0 1 1.23 9.21c0 10.14-2.34 25.32-7.16 46.4l-.27 1.08C1.4 72.68.54 76.12.54 79.35a9.12 9.12 0 0 0 5.8 8.79c.67.28 2.69 1.14 14.27 1.7 5.72.26 11.77.36 14.45.36h1.56c3.03 0 7-.05 10.7-.48 4.95-.57 8.15-1.67 9.77-3.36 2.42-2.49 3.61-7.64 3.8-10.3v-.1c.08-1.22.2-2.9 0-4.46l-.28-2.21-2.08.85c-5.27 2.17-14.82 4.58-20.1 4.58-4.77 0-6.08-.61-6.08-2.83 0-2.93.65-6.2 1.28-9.38l.32-1.6 3.84-20.35c.21-1.08.45-2.19.7-3.37.87-4.02 1.77-8.18 1.77-12.1 0-5.44-1.65-9.62-4.92-12.43-3.04-2.62-7.4-3.95-12.96-3.95" id="path3348" fill="#FFF"/><path d="M49.23 1.64c2.45 0 4.7.78 6.53 2.11a8.76 8.76 0 0 1-.5 2.48 13.03 13.03 0 0 0-6.34-2.33l-.09.02c1.45.6 4.5 1.85 6 3.32a9.24 9.24 0 0 1-1.66 2.31c-2.99-2.68-7.12-3-8.35-3-.26 0-.4.02-.36.03 2.88.65 5.94 1.84 7.83 3.76a7.86 7.86 0 0 1-2.59 1.48c-1.81-1.5-4.45-2.2-6.86-2.2-1.55 0-3.08.35-4.47 1a11 11 0 0 1 10.86-8.98m7.5 2.9a10.85 10.85 0 0 1-3.52 18.19 8.78 8.78 0 0 1-1.63-1.5c3.94-1.1 5.6-4.43 5.51-4.43-1.84 1.6-4.07 3-6.17 3.54a8.59 8.59 0 0 1-1.1-2.5c5.53-1.87 7.14-5.97 7.05-5.97-2.11 2.2-4.6 4.1-7.26 4.82a7.1 7.1 0 0 1 .18-3.1 10.74 10.74 0 0 0 6.95-9.04M42.4 10.88c.66 0 1.31.06 1.95.2-.84 6.23 1.57 8.83 1.68 8.83v-.01c-.99-2.83-1.32-5.93-.53-8.51 1.08.36 1.9.77 2.76 1.5a9.77 9.77 0 0 0 3.71 10.24c-.88.22-1.8.34-2.75.34a10.98 10.98 0 0 1-11.01-11.64c.68-.33 1.4-.58 2.15-.74-.58 4.1 1.04 6.64 1.13 6.64v-.01c-.48-2.3-.59-4.8 0-6.8.3-.03.6-.04.9-.04M49.24 0a12.64 12.64 0 0 0-12.5 10.33c-.03.24-.02.48.04.7-.12.21-.19.45-.2.69l-.03.83A12.64 12.64 0 0 0 52.4 24.71c.26-.06.48-.18.68-.35l.14.01c.2 0 .4-.04.6-.1a12.66 12.66 0 0 0 5.84-4.54c1.5-2.11 2.28-4.6 2.28-7.18a12.5 12.5 0 0 0-4.07-9.2c-.18-.17-.4-.3-.63-.37a1.7 1.7 0 0 0-.49-.55A12.7 12.7 0 0 0 49.24 0" id="path3360" fill="#FFF"/><path d="M49.7 11.82a7.77 7.77 0 0 0 2.59-1.48c-1.89-1.92-4.95-3.1-7.83-3.76-.21-.05 5.09-.28 8.7 2.97a9.26 9.26 0 0 0 1.66-2.3c-1.48-1.48-4.54-2.73-5.99-3.33-.2-.09 3.16.04 6.43 2.3.29-.8.46-1.63.5-2.47a11.08 11.08 0 0 0-6.53-2.11 11 11 0 0 0-10.86 8.98c1.39-.65 2.92-1 4.47-1 2.4 0 5.05.7 6.86 2.2m7.04-7.27a10.74 10.74 0 0 1-6.95 9.04 7.1 7.1 0 0 0-.18 3.1c2.66-.71 5.15-2.63 7.25-4.81.16-.16-1.4 4.05-7.03 5.96.23.89.6 1.72 1.1 2.5 2.09-.55 4.32-1.94 6.15-3.54.17-.15-1.48 3.31-5.5 4.43a8.79 8.79 0 0 0 1.63 1.5 10.92 10.92 0 0 0 7.07-10.18c0-3.16-1.37-6-3.54-8m-8.47 8.34a8.02 8.02 0 0 0-2.76-1.5c-.79 2.58-.46 5.68.54 8.5.07.22-2.56-2.34-1.69-8.82a9.84 9.84 0 0 0-2.87-.15c-.58 2-.47 4.5.01 6.8.05.22-1.73-2.37-1.13-6.63a9.6 9.6 0 0 0-2.15.74l-.03.72a10.98 10.98 0 0 0 13.79 10.58 9.76 9.76 0 0 1-3.7-10.24" id="path3366" fill="#95C11F"/><path d="M57.69 43.46l-1.65-.49c.02-.06 1.86-6.27.66-10.9-1-3.88-4.2-5.74-8.77-5.1l-.24-1.68c5.46-.76 9.45 1.61 10.67 6.35 1.32 5.1-.6 11.55-.67 11.82" id="path3372" fill="#FFF"/></g></g></svg>