<svg viewBox="0 0 100 100" version="1.1" xmlns="http://www.w3.org/2000/svg"><g id="swd-powervolleys" stroke="none" stroke-width="1" fill="none" fill-rule="evenodd"><g id="swd-powervolleys-dueren" transform="translate(1)" fill="#0095AC" fill-rule="nonzero"><path d="M1.08 43.28c-.22-10.97 3.43-19.44 9.88-26.9 4.32-5.04 9.6-8.7 15.5-11.6.44-.23 1-.82 1.49-.19.4.56-.15 1.08-.45 1.5a18.3 18.3 0 0 0-2.83 5.4 7.47 7.47 0 0 0-.34 4.22 36.43 36.43 0 0 0 6.86 14.07c5.36 6.9 12.03 12.5 18.07 18.73 2.12 2.2 4.32 4.29 6.41 6.49a25.24 25.24 0 0 1 6.19 11.27c.82 3.17-.3 6.04-1.3 8.88-.83 2.31-1.87 4.59-3.66 6.42-.67.67-.22 1.23.3 1.75 1.08 1.12 2.2 2.2 3.24 3.32 1.2 1.27 2.05 2.8 2.98 4.26 2.27 3.58-.04 6.08-3.17 7.38-3.16 1.35-6.52 1.31-9.87 1.46-.93.04-1.3-.52-1.16-1.27.3-1.75-.78-2.57-1.97-3.43-4.47-3.25-9.35-5.82-14.01-8.77-6.49-4.14-12.78-8.5-18.45-13.77A43.27 43.27 0 0 1 2.76 54.07C1.49 50.27.6 46.38 1.08 43.28zm14.27-17.46c-.7.49-1.04 1.05-1.08 1.68-.22 3.2-.63 6.53.08 9.66 1.45 6.42 4.73 11.9 9.31 16.65C29 59.29 35.1 63.88 40.88 68.88c4.47 3.84 9.09 7.5 13.37 11.53.53.49 1.35 1.34 1.57 0 .26-1.57.45-3.2-.34-4.74-2.05-4.1-4.91-7.57-8.05-10.82-3.42-3.54-7-7.01-10.65-10.37A133.31 133.31 0 0 1 24 41.23c-3.77-4.59-7.16-9.4-8.65-15.4z" id="Shape"/><path d="M85.93 58.5c.9-.51.85-1.26.78-2-.48-5.27-2.57-9.9-5.7-14.11-4.66-6.27-10.92-10.75-16.88-15.6-6.6-5.37-13.16-10.86-17.48-18.36-2.05-3.5-.9-8.06 4.36-8.13 1.87-.04 3.7-.19 5.52.15 1.19.18 1.75.82.85 1.9-.74.9-.52 1.6-.1 2.54 1.4 3.24 3.98 5.52 6.59 7.72 5.33 4.44 10.73 8.8 16.24 13.02a52.4 52.4 0 0 1 12.71 14.18c3.69 5.94 5.44 12.43 4.7 19.33-.86 7.99-4.07 15.08-9.02 21.46a50.68 50.68 0 0 1-13.23 11.83c-.86.56-2.09 1.71-2.94.9-.94-.9.4-1.99.82-2.92 1.49-3.2 2.72-6.42 2.9-10.04.49-8.58-3.2-15.48-8.05-22.01-5.7-7.76-12.89-14.1-19.86-20.6a119.84 119.84 0 0 1-15.16-16.79c-2.13-2.91-3.88-6-4.06-9.81-.12-3.03.55-5.45 3.16-7.24A19.02 19.02 0 0 1 42.3.49c.49-.04 1.08 0 1.27.55.22.6-.3.86-.7 1.16-2.4 1.87-2.91 4.55-1.54 7.43 1.76 3.65 4.4 6.6 7.2 9.4 4.4 4.44 9.01 8.7 13.97 12.54 6.37 4.92 11.96 10.63 17.21 16.68 2.72 2.94 4.66 6.49 6.23 10.26zm-85-1c.9 1.53 1.04 3.25 1.64 4.85 2.46 6.53 6.52 11.87 11.7 16.5 7.23 6.49 15.69 10.96 24.07 15.63 1.12.63 2.28 1.23 3.17 2.24.52.56.67 1.19.37 1.9-.33.78-.97.82-1.71.7-6-.89-11.7-2.6-16.88-5.78a51.65 51.65 0 0 1-11.7-9.4c-4.06-4.59-7.34-9.63-9.4-15.45a87.22 87.22 0 0 1-1.97-6.75 5.89 5.89 0 0 1 .71-4.44zm96.1-14.85c-1.04-2.54-1.9-4.93-2.94-7.24a42.59 42.59 0 0 0-7.79-11.27c-5.1-5.56-11.07-10.11-17.18-14.48A44.3 44.3 0 0 1 63.57 5c-.78-.78-1.38-1.8-.7-2.84.77-1.19 1.9-.48 2.86-.15a48.58 48.58 0 0 1 15.43 8.74 49.62 49.62 0 0 1 12.3 15.7c2 4.04 3.05 8.33 4.06 12.7.26 1.07.44 2.3-.49 3.5z" id="Shape"/></g></g></svg>